<?xml version="1.0" encoding="utf-8" standalone="no"?>
<!DOCTYPE svg PUBLIC "-//W3C//DTD SVG 1.1//EN"
  "http://www.w3.org/Graphics/SVG/1.1/DTD/svg11.dtd">
<svg xmlns:xlink="http://www.w3.org/1999/xlink" width="460.8pt" height="345.6pt" viewBox="0 0 460.8 345.6" xmlns="http://www.w3.org/2000/svg" version="1.1">
 <metadata>
  <rdf:RDF xmlns:dc="http://purl.org/dc/elements/1.1/" xmlns:cc="http://creativecommons.org/ns#" xmlns:rdf="http://www.w3.org/1999/02/22-rdf-syntax-ns#">
   <cc:Work>
    <dc:type rdf:resource="http://purl.org/dc/dcmitype/StillImage"/>
    <dc:date>2026-03-02T01:09:40.896451</dc:date>
    <dc:format>image/svg+xml</dc:format>
    <dc:creator>
     <cc:Agent>
      <dc:title>Matplotlib v3.7.1, https://matplotlib.org/</dc:title>
     </cc:Agent>
    </dc:creator>
   </cc:Work>
  </rdf:RDF>
 </metadata>
 <defs>
  <style type="text/css">*{stroke-linejoin: round; stroke-linecap: butt}</style>
 </defs>
 <g id="figure_1">
  <g id="patch_1">
   <path d="M 0 345.6 
L 460.8 345.6 
L 460.8 0 
L 0 0 
z
" style="fill: #ffffff"/>
  </g>
  <g id="axes_1">
   <g id="patch_2">
    <path d="M 61.49 272.353934 
L 450 272.353934 
L 450 73.246066 
L 61.49 73.246066 
z
" style="fill: #ffffff"/>
   </g>
   <g id="PolyCollection_1">
    <path d="M 33.204976 221.824258 
L 33.204976 272.353934 
L 41.106082 272.353934 
L 48.913684 272.353934 
L 64.949656 272.353934 
L 83.556994 272.353934 
L 97.255361 272.353934 
L 105.764244 272.353934 
L 107.961593 272.353934 
L 112.029026 272.353934 
L 113.899111 272.353934 
L 114.132871 272.353934 
L 117.21851 272.353934 
L 118.013296 272.353934 
L 118.667826 272.353934 
L 119.462611 272.353934 
L 119.976884 272.353934 
L 120.77167 272.353934 
L 121.239191 272.353934 
L 122.080729 272.353934 
L 123.20278 272.353934 
L 124.09107 272.353934 
L 124.418335 272.353934 
L 125.353377 272.353934 
L 126.007906 272.353934 
L 126.709188 272.353934 
L 127.457221 272.353934 
L 127.971495 272.353934 
L 128.439016 272.353934 
L 129.748075 272.353934 
L 130.683117 272.353934 
L 131.384398 272.353934 
L 131.571407 272.353934 
L 132.225936 272.353934 
L 133.20773 272.353934 
L 134.236277 272.353934 
L 134.937558 272.353934 
L 135.966105 272.353934 
L 137.321916 272.353934 
L 139.192 272.353934 
L 140.828324 272.353934 
L 142.230887 272.353934 
L 144.849005 272.353934 
L 145.971055 272.353934 
L 149.009942 272.353934 
L 150.973531 272.353934 
L 152.189085 272.353934 
L 152.937119 272.353934 
L 155.882502 272.353934 
L 157.518826 272.353934 
L 159.201901 272.353934 
L 162.521301 272.353934 
L 165.60694 272.353934 
L 166.121213 272.353934 
L 166.72899 272.353934 
L 167.664032 272.353934 
L 168.412066 272.353934 
L 170.702919 272.353934 
L 175.284626 272.353934 
L 176.172916 272.353934 
L 180.47411 272.353934 
L 181.455904 272.353934 
L 182.437698 272.353934 
L 184.02727 272.353934 
L 185.336329 272.353934 
L 186.598635 272.353934 
L 187.393421 272.353934 
L 189.964787 272.353934 
L 192.629657 272.353934 
L 193.938716 272.353934 
L 194.873758 272.353934 
L 196.042561 272.353934 
L 197.024355 272.353934 
L 198.193158 272.353934 
L 200.951532 272.353934 
L 202.400847 272.353934 
L 203.80341 272.353934 
L 205.252726 272.353934 
L 206.655289 272.353934 
L 208.104604 272.353934 
L 209.553919 272.353934 
L 210.90973 272.353934 
L 212.359046 272.353934 
L 213.761609 272.353934 
L 215.210924 272.353934 
L 216.613487 272.353934 
L 218.062803 272.353934 
L 219.512118 272.353934 
L 220.914681 272.353934 
L 222.363996 272.353934 
L 223.76656 272.353934 
L 225.215875 272.353934 
L 226.66519 272.353934 
L 227.974249 272.353934 
L 229.423564 272.353934 
L 230.826128 272.353934 
L 232.275443 272.353934 
L 233.678006 272.353934 
L 235.127321 272.353934 
L 236.576637 272.353934 
L 237.9792 272.353934 
L 239.428515 272.353934 
L 240.831078 272.353934 
L 242.280394 272.353934 
L 243.729709 272.353934 
L 245.038768 272.353934 
L 246.488083 272.353934 
L 247.890646 272.353934 
L 249.339961 272.353934 
L 250.742525 272.353934 
L 252.19184 272.353934 
L 253.641155 272.353934 
L 255.043718 272.353934 
L 256.493034 272.353934 
L 257.895597 272.353934 
L 259.344912 272.353934 
L 260.794227 272.353934 
L 262.103286 272.353934 
L 263.552602 272.353934 
L 264.955165 272.353934 
L 266.40448 272.353934 
L 267.807043 272.353934 
L 269.256359 272.353934 
L 270.705674 272.353934 
L 272.108237 272.353934 
L 273.557552 272.353934 
L 274.960116 272.353934 
L 276.409431 272.353934 
L 277.858746 272.353934 
L 279.214557 272.353934 
L 280.663872 272.353934 
L 282.066436 272.353934 
L 283.515751 272.353934 
L 284.918314 272.353934 
L 286.367629 272.353934 
L 287.816945 272.353934 
L 289.219508 272.353934 
L 290.668823 272.353934 
L 292.071386 272.353934 
L 293.520702 272.353934 
L 294.970017 272.353934 
L 296.279076 272.353934 
L 297.728391 272.353934 
L 299.130954 272.353934 
L 300.58027 272.353934 
L 301.982833 272.353934 
L 303.432148 272.353934 
L 304.881463 272.353934 
L 306.284026 272.353934 
L 307.733342 272.353934 
L 309.135905 272.353934 
L 310.58522 272.353934 
L 312.034535 272.353934 
L 313.343594 272.353934 
L 314.79291 272.353934 
L 316.195473 272.353934 
L 317.644788 272.353934 
L 319.047351 272.353934 
L 320.496667 272.353934 
L 321.945982 272.353934 
L 323.348545 272.353934 
L 324.79786 272.353934 
L 326.200424 272.353934 
L 327.649739 272.353934 
L 329.099054 272.353934 
L 330.408113 272.353934 
L 331.857428 272.353934 
L 333.259992 272.353934 
L 334.709307 272.353934 
L 336.11187 272.353934 
L 337.561185 272.353934 
L 339.010501 272.353934 
L 340.413064 272.353934 
L 341.862379 272.353934 
L 343.264942 272.353934 
L 344.714258 272.353934 
L 346.163573 272.353934 
L 347.519384 272.353934 
L 348.968699 272.353934 
L 350.371262 272.353934 
L 351.820578 272.353934 
L 353.223141 272.353934 
L 354.672456 272.353934 
L 356.121771 272.353934 
L 357.524335 272.353934 
L 358.97365 272.353934 
L 360.376213 272.353934 
L 361.825528 272.353934 
L 363.274844 272.353934 
L 364.583903 272.353934 
L 366.033218 272.353934 
L 367.435781 272.353934 
L 368.885096 272.353934 
L 370.287659 272.353934 
L 371.736975 272.353934 
L 373.18629 272.353934 
L 374.588853 272.353934 
L 376.038168 272.353934 
L 377.440732 272.353934 
L 378.890047 272.353934 
L 380.339362 272.353934 
L 381.648421 272.353934 
L 383.097736 272.353934 
L 384.5003 272.353934 
L 385.949615 272.353934 
L 387.352178 272.353934 
L 388.801493 272.353934 
L 390.250809 272.353934 
L 391.653372 272.353934 
L 393.102687 272.353934 
L 394.50525 272.353934 
L 395.954566 272.353934 
L 397.403881 272.353934 
L 398.71294 272.353934 
L 400.162255 272.353934 
L 401.564818 272.353934 
L 403.014134 272.353934 
L 404.416697 272.353934 
L 405.866012 272.353934 
L 407.315327 272.353934 
L 408.71789 272.353934 
L 410.167206 272.353934 
L 411.569769 272.353934 
L 413.019084 272.353934 
L 414.4684 272.353934 
L 415.824211 272.353934 
L 417.273526 272.353934 
L 418.676089 272.353934 
L 420.125404 272.353934 
L 421.527968 272.353934 
L 422.977283 272.353934 
L 424.426598 272.353934 
L 425.829161 272.353934 
L 427.278477 272.353934 
L 428.68104 272.353934 
L 430.130355 272.353934 
L 431.57967 272.353934 
L 432.888729 272.353934 
L 434.338045 272.353934 
L 435.740608 272.353934 
L 437.189923 272.353934 
L 438.592486 272.353934 
L 440.041801 272.353934 
L 441.491117 272.353934 
L 442.89368 272.353934 
L 444.342995 272.353934 
L 445.745558 272.353934 
L 447.194874 272.353934 
L 448.644189 272.353934 
L 449.953248 272.353934 
L 449.953248 170.58395 
L 449.953248 170.58395 
L 448.644189 170.58395 
L 447.194874 170.247335 
L 445.745558 170.172532 
L 444.342995 170.172532 
L 442.89368 170.13513 
L 441.491117 169.536703 
L 440.041801 169.424498 
L 438.592486 169.499301 
L 437.189923 169.536703 
L 435.740608 169.536703 
L 434.338045 169.835916 
L 432.888729 169.873318 
L 431.57967 170.845762 
L 430.130355 172.977658 
L 428.68104 173.725692 
L 427.278477 173.950102 
L 425.829161 173.950102 
L 424.426598 174.174512 
L 422.977283 174.174512 
L 421.527968 174.997349 
L 420.125404 175.520973 
L 418.676089 175.633178 
L 417.273526 175.745383 
L 415.824211 175.820186 
L 414.4684 177.428458 
L 413.019084 177.540664 
L 411.569769 177.578065 
L 410.167206 177.802475 
L 408.71789 177.91468 
L 407.315327 177.952082 
L 405.866012 178.064287 
L 404.416697 178.513107 
L 403.014134 178.737517 
L 401.564818 178.849723 
L 400.162255 178.849723 
L 398.71294 179.186338 
L 397.403881 179.747363 
L 395.954566 179.709961 
L 394.50525 179.822166 
L 393.102687 179.934371 
L 391.653372 180.158781 
L 390.250809 180.158781 
L 388.801493 180.196183 
L 387.352178 180.196183 
L 385.949615 180.158781 
L 384.5003 180.233585 
L 383.097736 180.158781 
L 381.648421 180.12138 
L 380.339362 180.158781 
L 378.890047 180.158781 
L 377.440732 180.34579 
L 376.038168 180.532798 
L 374.588853 180.832012 
L 373.18629 181.056422 
L 371.736975 181.01902 
L 370.287659 181.206029 
L 368.885096 181.46784 
L 367.435781 181.46784 
L 366.033218 181.617447 
L 364.583903 182.103669 
L 363.274844 182.215874 
L 361.825528 182.627293 
L 360.376213 182.664694 
L 358.97365 182.814301 
L 357.524335 182.889104 
L 356.121771 183.038711 
L 354.672456 183.076113 
L 353.223141 183.150916 
L 351.820578 183.150916 
L 350.371262 183.22572 
L 348.968699 183.562335 
L 347.519384 183.67454 
L 346.163573 183.749343 
L 344.714258 183.824147 
L 343.264942 183.824147 
L 341.862379 183.824147 
L 340.413064 183.936352 
L 339.010501 184.011155 
L 337.561185 184.160762 
L 336.11187 184.385172 
L 334.709307 184.497377 
L 333.259992 184.57218 
L 331.857428 184.646984 
L 330.408113 184.684385 
L 329.099054 184.684385 
L 327.649739 184.721787 
L 326.200424 184.759189 
L 324.79786 184.833992 
L 323.348545 184.871394 
L 321.945982 184.871394 
L 320.496667 184.983599 
L 319.047351 185.095804 
L 317.644788 185.320214 
L 316.195473 185.469821 
L 314.79291 185.769034 
L 313.343594 185.918641 
L 312.034535 186.068248 
L 310.58522 186.105649 
L 309.135905 186.255256 
L 307.733342 186.404863 
L 306.284026 188.050537 
L 304.881463 188.312349 
L 303.432148 189.022981 
L 301.982833 188.424554 
L 300.58027 188.34975 
L 299.130954 188.387152 
L 297.728391 188.461955 
L 296.279076 188.723767 
L 294.970017 188.761169 
L 293.520702 188.835972 
L 292.071386 189.546604 
L 290.668823 189.658809 
L 289.219508 189.845818 
L 287.816945 189.920621 
L 286.367629 190.032826 
L 284.918314 190.444245 
L 283.515751 190.631253 
L 282.066436 190.631253 
L 280.663872 191.00527 
L 279.214557 191.080073 
L 277.858746 191.117475 
L 276.409431 191.304484 
L 274.960116 191.379287 
L 273.557552 191.379287 
L 272.108237 191.566295 
L 270.705674 191.603697 
L 269.256359 191.641099 
L 267.807043 191.790705 
L 266.40448 191.90291 
L 264.955165 191.341885 
L 263.552602 191.416689 
L 262.103286 191.603697 
L 260.794227 191.603697 
L 259.344912 191.828107 
L 257.895597 191.977714 
L 256.493034 192.239526 
L 255.043718 192.576141 
L 253.641155 192.875354 
L 252.19184 192.950158 
L 250.742525 193.211969 
L 249.339961 193.43638 
L 247.890646 193.772995 
L 246.488083 193.922601 
L 245.038768 194.10961 
L 243.729709 194.147012 
L 242.280394 194.147012 
L 240.831078 194.33402 
L 239.428515 194.78284 
L 237.9792 194.820242 
L 236.576637 195.044652 
L 235.127321 195.680481 
L 233.678006 195.755284 
L 232.275443 196.204104 
L 230.826128 196.503318 
L 229.423564 197.513163 
L 227.974249 197.587967 
L 226.66519 197.700172 
L 225.215875 197.961983 
L 223.76656 198.036787 
L 222.363996 198.261197 
L 220.914681 198.448205 
L 219.512118 198.78482 
L 218.062803 198.971829 
L 216.613487 199.084034 
L 215.210924 199.308444 
L 213.761609 199.345846 
L 212.359046 199.458051 
L 210.90973 199.607658 
L 209.553919 199.607658 
L 208.104604 199.682461 
L 206.655289 199.719863 
L 205.252726 199.757264 
L 203.80341 199.794666 
L 202.400847 199.832068 
L 200.951532 199.944273 
L 198.193158 200.654905 
L 197.024355 200.841913 
L 196.042561 200.879315 
L 194.873758 200.76711 
L 193.938716 200.76711 
L 192.629657 200.879315 
L 189.964787 200.99152 
L 187.393421 201.589947 
L 186.598635 202.487587 
L 185.336329 202.337981 
L 184.02727 202.300579 
L 182.437698 202.973809 
L 181.455904 202.973809 
L 180.47411 202.749399 
L 176.172916 203.235621 
L 175.284626 203.310424 
L 170.702919 203.946253 
L 168.412066 204.021056 
L 167.664032 203.87145 
L 166.72899 203.983655 
L 166.121213 204.170663 
L 165.60694 204.208065 
L 162.521301 204.32027 
L 159.201901 204.395073 
L 157.518826 204.582082 
L 155.882502 206.564371 
L 152.937119 206.489568 
L 152.189085 206.526969 
L 150.973531 206.938388 
L 149.009942 207.985635 
L 145.971055 208.210045 
L 144.849005 208.584062 
L 142.230887 208.845874 
L 140.828324 209.631309 
L 139.192 210.154933 
L 137.321916 210.566351 
L 135.966105 210.603753 
L 134.937558 210.678556 
L 134.236277 210.715958 
L 133.20773 210.75336 
L 132.225936 211.42659 
L 131.571407 211.763205 
L 131.384398 211.763205 
L 130.683117 211.763205 
L 129.748075 211.987615 
L 128.439016 211.763205 
L 127.971495 211.950213 
L 127.457221 212.025017 
L 126.709188 212.137222 
L 126.007906 212.137222 
L 125.353377 212.436435 
L 124.418335 213.109666 
L 124.09107 213.072264 
L 123.20278 213.408879 
L 122.080729 213.483683 
L 121.239191 213.558486 
L 120.77167 213.633289 
L 119.976884 213.745494 
L 119.462611 213.969904 
L 118.667826 214.156913 
L 118.013296 214.08211 
L 117.21851 214.156913 
L 114.132871 214.418725 
L 113.899111 214.381323 
L 112.029026 214.680536 
L 107.961593 212.885256 
L 105.764244 215.540775 
L 97.255361 219.019132 
L 83.556994 222.273078 
L 64.949656 226.462067 
L 48.913684 221.63725 
L 41.106082 221.038823 
L 33.204976 221.824258 
z
" clip-path="url(#pe6b709fd38)" style="fill: #fb363b"/>
   </g>
   <g id="PolyCollection_2">
    <path d="M 33.204976 144.926394 
L 33.204976 221.824258 
L 41.106082 221.038823 
L 48.913684 221.63725 
L 64.949656 226.462067 
L 83.556994 222.273078 
L 97.255361 219.019132 
L 105.764244 215.540775 
L 107.961593 212.885256 
L 112.029026 214.680536 
L 113.899111 214.381323 
L 114.132871 214.418725 
L 117.21851 214.156913 
L 118.013296 214.08211 
L 118.667826 214.156913 
L 119.462611 213.969904 
L 119.976884 213.745494 
L 120.77167 213.633289 
L 121.239191 213.558486 
L 122.080729 213.483683 
L 123.20278 213.408879 
L 124.09107 213.072264 
L 124.418335 213.109666 
L 125.353377 212.436435 
L 126.007906 212.137222 
L 126.709188 212.137222 
L 127.457221 212.025017 
L 127.971495 211.950213 
L 128.439016 211.763205 
L 129.748075 211.987615 
L 130.683117 211.763205 
L 131.384398 211.763205 
L 131.571407 211.763205 
L 132.225936 211.42659 
L 133.20773 210.75336 
L 134.236277 210.715958 
L 134.937558 210.678556 
L 135.966105 210.603753 
L 137.321916 210.566351 
L 139.192 210.154933 
L 140.828324 209.631309 
L 142.230887 208.845874 
L 144.849005 208.584062 
L 145.971055 208.210045 
L 149.009942 207.985635 
L 150.973531 206.938388 
L 152.189085 206.526969 
L 152.937119 206.489568 
L 155.882502 206.564371 
L 157.518826 204.582082 
L 159.201901 204.395073 
L 162.521301 204.32027 
L 165.60694 204.208065 
L 166.121213 204.170663 
L 166.72899 203.983655 
L 167.664032 203.87145 
L 168.412066 204.021056 
L 170.702919 203.946253 
L 175.284626 203.310424 
L 176.172916 203.235621 
L 180.47411 202.749399 
L 181.455904 202.973809 
L 182.437698 202.973809 
L 184.02727 202.300579 
L 185.336329 202.337981 
L 186.598635 202.487587 
L 187.393421 201.589947 
L 189.964787 200.99152 
L 192.629657 200.879315 
L 193.938716 200.76711 
L 194.873758 200.76711 
L 196.042561 200.879315 
L 197.024355 200.841913 
L 198.193158 200.654905 
L 200.951532 199.944273 
L 202.400847 199.832068 
L 203.80341 199.794666 
L 205.252726 199.757264 
L 206.655289 199.719863 
L 208.104604 199.682461 
L 209.553919 199.607658 
L 210.90973 199.607658 
L 212.359046 199.458051 
L 213.761609 199.345846 
L 215.210924 199.308444 
L 216.613487 199.084034 
L 218.062803 198.971829 
L 219.512118 198.78482 
L 220.914681 198.448205 
L 222.363996 198.261197 
L 223.76656 198.036787 
L 225.215875 197.961983 
L 226.66519 197.700172 
L 227.974249 197.587967 
L 229.423564 197.513163 
L 230.826128 196.503318 
L 232.275443 196.204104 
L 233.678006 195.755284 
L 235.127321 195.680481 
L 236.576637 195.044652 
L 237.9792 194.820242 
L 239.428515 194.78284 
L 240.831078 194.33402 
L 242.280394 194.147012 
L 243.729709 194.147012 
L 245.038768 194.10961 
L 246.488083 193.922601 
L 247.890646 193.772995 
L 249.339961 193.43638 
L 250.742525 193.211969 
L 252.19184 192.950158 
L 253.641155 192.875354 
L 255.043718 192.576141 
L 256.493034 192.239526 
L 257.895597 191.977714 
L 259.344912 191.828107 
L 260.794227 191.603697 
L 262.103286 191.603697 
L 263.552602 191.416689 
L 264.955165 191.341885 
L 266.40448 191.90291 
L 267.807043 191.790705 
L 269.256359 191.641099 
L 270.705674 191.603697 
L 272.108237 191.566295 
L 273.557552 191.379287 
L 274.960116 191.379287 
L 276.409431 191.304484 
L 277.858746 191.117475 
L 279.214557 191.080073 
L 280.663872 191.00527 
L 282.066436 190.631253 
L 283.515751 190.631253 
L 284.918314 190.444245 
L 286.367629 190.032826 
L 287.816945 189.920621 
L 289.219508 189.845818 
L 290.668823 189.658809 
L 292.071386 189.546604 
L 293.520702 188.835972 
L 294.970017 188.761169 
L 296.279076 188.723767 
L 297.728391 188.461955 
L 299.130954 188.387152 
L 300.58027 188.34975 
L 301.982833 188.424554 
L 303.432148 189.022981 
L 304.881463 188.312349 
L 306.284026 188.050537 
L 307.733342 186.404863 
L 309.135905 186.255256 
L 310.58522 186.105649 
L 312.034535 186.068248 
L 313.343594 185.918641 
L 314.79291 185.769034 
L 316.195473 185.469821 
L 317.644788 185.320214 
L 319.047351 185.095804 
L 320.496667 184.983599 
L 321.945982 184.871394 
L 323.348545 184.871394 
L 324.79786 184.833992 
L 326.200424 184.759189 
L 327.649739 184.721787 
L 329.099054 184.684385 
L 330.408113 184.684385 
L 331.857428 184.646984 
L 333.259992 184.57218 
L 334.709307 184.497377 
L 336.11187 184.385172 
L 337.561185 184.160762 
L 339.010501 184.011155 
L 340.413064 183.936352 
L 341.862379 183.824147 
L 343.264942 183.824147 
L 344.714258 183.824147 
L 346.163573 183.749343 
L 347.519384 183.67454 
L 348.968699 183.562335 
L 350.371262 183.22572 
L 351.820578 183.150916 
L 353.223141 183.150916 
L 354.672456 183.076113 
L 356.121771 183.038711 
L 357.524335 182.889104 
L 358.97365 182.814301 
L 360.376213 182.664694 
L 361.825528 182.627293 
L 363.274844 182.215874 
L 364.583903 182.103669 
L 366.033218 181.617447 
L 367.435781 181.46784 
L 368.885096 181.46784 
L 370.287659 181.206029 
L 371.736975 181.01902 
L 373.18629 181.056422 
L 374.588853 180.832012 
L 376.038168 180.532798 
L 377.440732 180.34579 
L 378.890047 180.158781 
L 380.339362 180.158781 
L 381.648421 180.12138 
L 383.097736 180.158781 
L 384.5003 180.233585 
L 385.949615 180.158781 
L 387.352178 180.196183 
L 388.801493 180.196183 
L 390.250809 180.158781 
L 391.653372 180.158781 
L 393.102687 179.934371 
L 394.50525 179.822166 
L 395.954566 179.709961 
L 397.403881 179.747363 
L 398.71294 179.186338 
L 400.162255 178.849723 
L 401.564818 178.849723 
L 403.014134 178.737517 
L 404.416697 178.513107 
L 405.866012 178.064287 
L 407.315327 177.952082 
L 408.71789 177.91468 
L 410.167206 177.802475 
L 411.569769 177.578065 
L 413.019084 177.540664 
L 414.4684 177.428458 
L 415.824211 175.820186 
L 417.273526 175.745383 
L 418.676089 175.633178 
L 420.125404 175.520973 
L 421.527968 174.997349 
L 422.977283 174.174512 
L 424.426598 174.174512 
L 425.829161 173.950102 
L 427.278477 173.950102 
L 428.68104 173.725692 
L 430.130355 172.977658 
L 431.57967 170.845762 
L 432.888729 169.873318 
L 434.338045 169.835916 
L 435.740608 169.536703 
L 437.189923 169.536703 
L 438.592486 169.499301 
L 440.041801 169.424498 
L 441.491117 169.536703 
L 442.89368 170.13513 
L 444.342995 170.172532 
L 445.745558 170.172532 
L 447.194874 170.247335 
L 448.644189 170.58395 
L 449.953248 170.58395 
L 449.953248 108.42235 
L 449.953248 108.42235 
L 448.644189 108.347547 
L 447.194874 107.3003 
L 445.745558 106.963684 
L 444.342995 106.926283 
L 442.89368 106.851479 
L 441.491117 105.916437 
L 440.041801 105.31801 
L 438.592486 105.243207 
L 437.189923 105.056199 
L 435.740608 104.981395 
L 434.338045 104.943994 
L 432.888729 104.719583 
L 431.57967 104.756985 
L 430.130355 104.719583 
L 428.68104 105.243207 
L 427.278477 105.31801 
L 425.829161 105.430215 
L 424.426598 105.467617 
L 422.977283 105.692027 
L 421.527968 105.579822 
L 420.125404 105.54242 
L 418.676089 105.692027 
L 417.273526 105.766831 
L 415.824211 105.729429 
L 414.4684 105.991241 
L 413.019084 106.253052 
L 411.569769 106.253052 
L 410.167206 106.365258 
L 408.71789 106.514864 
L 407.315327 106.589668 
L 405.866012 106.589668 
L 404.416697 106.851479 
L 403.014134 107.07589 
L 401.564818 107.188095 
L 400.162255 107.188095 
L 398.71294 107.225496 
L 397.403881 107.375103 
L 395.954566 107.487308 
L 394.50525 107.562111 
L 393.102687 107.562111 
L 391.653372 107.599513 
L 390.250809 107.487308 
L 388.801493 107.52471 
L 387.352178 107.52471 
L 385.949615 107.711718 
L 384.5003 107.674316 
L 383.097736 107.674316 
L 381.648421 107.711718 
L 380.339362 107.786522 
L 378.890047 107.786522 
L 377.440732 107.898727 
L 376.038168 107.861325 
L 374.588853 107.97353 
L 373.18629 108.010932 
L 371.736975 108.048333 
L 370.287659 108.085735 
L 368.885096 108.123137 
L 367.435781 108.085735 
L 366.033218 108.19794 
L 364.583903 108.384948 
L 363.274844 108.534555 
L 361.825528 108.571957 
L 360.376213 108.571957 
L 358.97365 108.64676 
L 357.524335 108.684162 
L 356.121771 108.758965 
L 354.672456 108.758965 
L 353.223141 108.796367 
L 351.820578 108.833769 
L 350.371262 108.721564 
L 348.968699 108.684162 
L 347.519384 108.721564 
L 346.163573 108.64676 
L 344.714258 108.64676 
L 343.264942 108.64676 
L 341.862379 108.64676 
L 340.413064 108.64676 
L 339.010501 108.684162 
L 337.561185 108.64676 
L 336.11187 108.684162 
L 334.709307 108.684162 
L 333.259992 108.571957 
L 331.857428 108.571957 
L 330.408113 108.609359 
L 329.099054 108.609359 
L 327.649739 108.684162 
L 326.200424 108.684162 
L 324.79786 108.758965 
L 323.348545 108.758965 
L 321.945982 108.758965 
L 320.496667 108.796367 
L 319.047351 108.796367 
L 317.644788 108.796367 
L 316.195473 108.833769 
L 314.79291 108.87117 
L 313.343594 109.170384 
L 312.034535 109.282589 
L 310.58522 109.207786 
L 309.135905 109.282589 
L 307.733342 109.394794 
L 306.284026 109.432196 
L 304.881463 109.955819 
L 303.432148 110.255033 
L 301.982833 112.312125 
L 300.58027 113.471578 
L 299.130954 113.882996 
L 297.728391 113.882996 
L 296.279076 114.18221 
L 294.970017 114.107406 
L 293.520702 113.359373 
L 292.071386 113.546381 
L 290.668823 113.9578 
L 289.219508 113.9578 
L 287.816945 113.845594 
L 286.367629 113.995201 
L 284.918314 114.032603 
L 283.515751 114.032603 
L 282.066436 114.070005 
L 280.663872 114.144808 
L 279.214557 114.144808 
L 277.858746 114.18221 
L 276.409431 114.18221 
L 274.960116 114.294415 
L 273.557552 114.331816 
L 272.108237 114.369218 
L 270.705674 114.369218 
L 269.256359 114.331816 
L 267.807043 114.369218 
L 266.40448 114.331816 
L 264.955165 114.930243 
L 263.552602 114.892842 
L 262.103286 114.967645 
L 260.794227 115.042448 
L 259.344912 115.154653 
L 257.895597 115.117252 
L 256.493034 115.379064 
L 255.043718 115.491269 
L 253.641155 115.640875 
L 252.19184 115.827884 
L 250.742525 115.865285 
L 249.339961 115.790482 
L 247.890646 115.865285 
L 246.488083 115.902687 
L 245.038768 115.902687 
L 243.729709 115.902687 
L 242.280394 115.902687 
L 240.831078 116.052294 
L 239.428515 116.127097 
L 237.9792 116.351507 
L 236.576637 116.388909 
L 235.127321 116.613319 
L 233.678006 116.688123 
L 232.275443 116.912533 
L 230.826128 117.024738 
L 229.423564 117.174344 
L 227.974249 117.211746 
L 226.66519 117.249148 
L 225.215875 117.398755 
L 223.76656 117.398755 
L 222.363996 117.585763 
L 220.914681 117.847575 
L 219.512118 117.997181 
L 218.062803 118.146788 
L 216.613487 118.333797 
L 215.210924 118.4086 
L 213.761609 118.707813 
L 212.359046 118.707813 
L 210.90973 118.745215 
L 209.553919 118.745215 
L 208.104604 118.745215 
L 206.655289 118.745215 
L 205.252726 118.745215 
L 203.80341 118.782617 
L 202.400847 118.932224 
L 200.951532 119.007027 
L 198.193158 119.455847 
L 197.024355 120.016872 
L 196.042561 120.278684 
L 194.873758 119.755061 
L 193.938716 120.054274 
L 192.629657 120.166479 
L 189.964787 120.316086 
L 187.393421 120.316086 
L 186.598635 120.465693 
L 185.336329 120.951915 
L 184.02727 120.914513 
L 182.437698 121.774752 
L 181.455904 121.774752 
L 180.47411 122.18617 
L 176.172916 122.447982 
L 175.284626 122.522785 
L 170.702919 123.570032 
L 168.412066 124.505075 
L 167.664032 124.542476 
L 166.72899 124.542476 
L 166.121213 124.542476 
L 165.60694 124.579878 
L 162.521301 124.168459 
L 159.201901 124.654681 
L 157.518826 124.84169 
L 155.882502 125.028698 
L 152.937119 125.140903 
L 152.189085 125.215707 
L 150.973531 125.402715 
L 149.009942 125.701929 
L 145.971055 125.552322 
L 144.849005 125.851535 
L 142.230887 125.814134 
L 140.828324 125.73933 
L 139.192 126.075945 
L 137.321916 126.001142 
L 135.966105 125.888937 
L 134.937558 126.150749 
L 134.236277 126.18815 
L 133.20773 125.477518 
L 132.225936 125.51492 
L 131.571407 125.664527 
L 131.384398 125.664527 
L 130.683117 125.627125 
L 129.748075 126.113347 
L 128.439016 125.589723 
L 127.971495 125.589723 
L 127.457221 125.627125 
L 126.709188 125.664527 
L 126.007906 125.477518 
L 125.353377 125.888937 
L 124.418335 126.001142 
L 124.09107 125.776732 
L 123.20278 125.926339 
L 122.080729 125.888937 
L 121.239191 126.375159 
L 120.77167 126.300355 
L 119.976884 126.300355 
L 119.462611 124.61728 
L 118.667826 124.991297 
L 118.013296 124.056254 
L 117.21851 123.831844 
L 114.132871 124.093656 
L 113.899111 123.944049 
L 112.029026 124.205861 
L 107.961593 125.888937 
L 105.764244 126.711774 
L 97.255361 128.694063 
L 83.556994 131.536591 
L 64.949656 135.164555 
L 48.913684 140.961816 
L 41.106082 144.627181 
L 33.204976 144.926394 
z
" clip-path="url(#pe6b709fd38)" style="fill: #fdc92c"/>
   </g>
   <g id="PolyCollection_3">
    <path d="M 33.204976 115.453867 
L 33.204976 144.926394 
L 41.106082 144.627181 
L 48.913684 140.961816 
L 64.949656 135.164555 
L 83.556994 131.536591 
L 97.255361 128.694063 
L 105.764244 126.711774 
L 107.961593 125.888937 
L 112.029026 124.205861 
L 113.899111 123.944049 
L 114.132871 124.093656 
L 117.21851 123.831844 
L 118.013296 124.056254 
L 118.667826 124.991297 
L 119.462611 124.61728 
L 119.976884 126.300355 
L 120.77167 126.300355 
L 121.239191 126.375159 
L 122.080729 125.888937 
L 123.20278 125.926339 
L 124.09107 125.776732 
L 124.418335 126.001142 
L 125.353377 125.888937 
L 126.007906 125.477518 
L 126.709188 125.664527 
L 127.457221 125.627125 
L 127.971495 125.589723 
L 128.439016 125.589723 
L 129.748075 126.113347 
L 130.683117 125.627125 
L 131.384398 125.664527 
L 131.571407 125.664527 
L 132.225936 125.51492 
L 133.20773 125.477518 
L 134.236277 126.18815 
L 134.937558 126.150749 
L 135.966105 125.888937 
L 137.321916 126.001142 
L 139.192 126.075945 
L 140.828324 125.73933 
L 142.230887 125.814134 
L 144.849005 125.851535 
L 145.971055 125.552322 
L 149.009942 125.701929 
L 150.973531 125.402715 
L 152.189085 125.215707 
L 152.937119 125.140903 
L 155.882502 125.028698 
L 157.518826 124.84169 
L 159.201901 124.654681 
L 162.521301 124.168459 
L 165.60694 124.579878 
L 166.121213 124.542476 
L 166.72899 124.542476 
L 167.664032 124.542476 
L 168.412066 124.505075 
L 170.702919 123.570032 
L 175.284626 122.522785 
L 176.172916 122.447982 
L 180.47411 122.18617 
L 181.455904 121.774752 
L 182.437698 121.774752 
L 184.02727 120.914513 
L 185.336329 120.951915 
L 186.598635 120.465693 
L 187.393421 120.316086 
L 189.964787 120.316086 
L 192.629657 120.166479 
L 193.938716 120.054274 
L 194.873758 119.755061 
L 196.042561 120.278684 
L 197.024355 120.016872 
L 198.193158 119.455847 
L 200.951532 119.007027 
L 202.400847 118.932224 
L 203.80341 118.782617 
L 205.252726 118.745215 
L 206.655289 118.745215 
L 208.104604 118.745215 
L 209.553919 118.745215 
L 210.90973 118.745215 
L 212.359046 118.707813 
L 213.761609 118.707813 
L 215.210924 118.4086 
L 216.613487 118.333797 
L 218.062803 118.146788 
L 219.512118 117.997181 
L 220.914681 117.847575 
L 222.363996 117.585763 
L 223.76656 117.398755 
L 225.215875 117.398755 
L 226.66519 117.249148 
L 227.974249 117.211746 
L 229.423564 117.174344 
L 230.826128 117.024738 
L 232.275443 116.912533 
L 233.678006 116.688123 
L 235.127321 116.613319 
L 236.576637 116.388909 
L 237.9792 116.351507 
L 239.428515 116.127097 
L 240.831078 116.052294 
L 242.280394 115.902687 
L 243.729709 115.902687 
L 245.038768 115.902687 
L 246.488083 115.902687 
L 247.890646 115.865285 
L 249.339961 115.790482 
L 250.742525 115.865285 
L 252.19184 115.827884 
L 253.641155 115.640875 
L 255.043718 115.491269 
L 256.493034 115.379064 
L 257.895597 115.117252 
L 259.344912 115.154653 
L 260.794227 115.042448 
L 262.103286 114.967645 
L 263.552602 114.892842 
L 264.955165 114.930243 
L 266.40448 114.331816 
L 267.807043 114.369218 
L 269.256359 114.331816 
L 270.705674 114.369218 
L 272.108237 114.369218 
L 273.557552 114.331816 
L 274.960116 114.294415 
L 276.409431 114.18221 
L 277.858746 114.18221 
L 279.214557 114.144808 
L 280.663872 114.144808 
L 282.066436 114.070005 
L 283.515751 114.032603 
L 284.918314 114.032603 
L 286.367629 113.995201 
L 287.816945 113.845594 
L 289.219508 113.9578 
L 290.668823 113.9578 
L 292.071386 113.546381 
L 293.520702 113.359373 
L 294.970017 114.107406 
L 296.279076 114.18221 
L 297.728391 113.882996 
L 299.130954 113.882996 
L 300.58027 113.471578 
L 301.982833 112.312125 
L 303.432148 110.255033 
L 304.881463 109.955819 
L 306.284026 109.432196 
L 307.733342 109.394794 
L 309.135905 109.282589 
L 310.58522 109.207786 
L 312.034535 109.282589 
L 313.343594 109.170384 
L 314.79291 108.87117 
L 316.195473 108.833769 
L 317.644788 108.796367 
L 319.047351 108.796367 
L 320.496667 108.796367 
L 321.945982 108.758965 
L 323.348545 108.758965 
L 324.79786 108.758965 
L 326.200424 108.684162 
L 327.649739 108.684162 
L 329.099054 108.609359 
L 330.408113 108.609359 
L 331.857428 108.571957 
L 333.259992 108.571957 
L 334.709307 108.684162 
L 336.11187 108.684162 
L 337.561185 108.64676 
L 339.010501 108.684162 
L 340.413064 108.64676 
L 341.862379 108.64676 
L 343.264942 108.64676 
L 344.714258 108.64676 
L 346.163573 108.64676 
L 347.519384 108.721564 
L 348.968699 108.684162 
L 350.371262 108.721564 
L 351.820578 108.833769 
L 353.223141 108.796367 
L 354.672456 108.758965 
L 356.121771 108.758965 
L 357.524335 108.684162 
L 358.97365 108.64676 
L 360.376213 108.571957 
L 361.825528 108.571957 
L 363.274844 108.534555 
L 364.583903 108.384948 
L 366.033218 108.19794 
L 367.435781 108.085735 
L 368.885096 108.123137 
L 370.287659 108.085735 
L 371.736975 108.048333 
L 373.18629 108.010932 
L 374.588853 107.97353 
L 376.038168 107.861325 
L 377.440732 107.898727 
L 378.890047 107.786522 
L 380.339362 107.786522 
L 381.648421 107.711718 
L 383.097736 107.674316 
L 384.5003 107.674316 
L 385.949615 107.711718 
L 387.352178 107.52471 
L 388.801493 107.52471 
L 390.250809 107.487308 
L 391.653372 107.599513 
L 393.102687 107.562111 
L 394.50525 107.562111 
L 395.954566 107.487308 
L 397.403881 107.375103 
L 398.71294 107.225496 
L 400.162255 107.188095 
L 401.564818 107.188095 
L 403.014134 107.07589 
L 404.416697 106.851479 
L 405.866012 106.589668 
L 407.315327 106.589668 
L 408.71789 106.514864 
L 410.167206 106.365258 
L 411.569769 106.253052 
L 413.019084 106.253052 
L 414.4684 105.991241 
L 415.824211 105.729429 
L 417.273526 105.766831 
L 418.676089 105.692027 
L 420.125404 105.54242 
L 421.527968 105.579822 
L 422.977283 105.692027 
L 424.426598 105.467617 
L 425.829161 105.430215 
L 427.278477 105.31801 
L 428.68104 105.243207 
L 430.130355 104.719583 
L 431.57967 104.756985 
L 432.888729 104.719583 
L 434.338045 104.943994 
L 435.740608 104.981395 
L 437.189923 105.056199 
L 438.592486 105.243207 
L 440.041801 105.31801 
L 441.491117 105.916437 
L 442.89368 106.851479 
L 444.342995 106.926283 
L 445.745558 106.963684 
L 447.194874 107.3003 
L 448.644189 108.347547 
L 449.953248 108.42235 
L 449.953248 93.349471 
L 449.953248 93.349471 
L 448.644189 93.31207 
L 447.194874 93.274668 
L 445.745558 93.274668 
L 444.342995 93.274668 
L 442.89368 93.274668 
L 441.491117 92.377027 
L 440.041801 92.377027 
L 438.592486 92.377027 
L 437.189923 92.377027 
L 435.740608 92.377027 
L 434.338045 92.339626 
L 432.888729 92.339626 
L 431.57967 92.339626 
L 430.130355 92.339626 
L 428.68104 92.339626 
L 427.278477 92.339626 
L 425.829161 92.339626 
L 424.426598 92.302224 
L 422.977283 92.638839 
L 421.527968 92.863249 
L 420.125404 92.863249 
L 418.676089 92.900651 
L 417.273526 92.900651 
L 415.824211 92.900651 
L 414.4684 92.938053 
L 413.019084 92.938053 
L 411.569769 92.938053 
L 410.167206 92.975454 
L 408.71789 92.975454 
L 407.315327 92.975454 
L 405.866012 92.975454 
L 404.416697 93.050258 
L 403.014134 93.050258 
L 401.564818 93.050258 
L 400.162255 93.050258 
L 398.71294 93.050258 
L 397.403881 93.087659 
L 395.954566 93.087659 
L 394.50525 93.162463 
L 393.102687 93.162463 
L 391.653372 93.199865 
L 390.250809 93.199865 
L 388.801493 93.199865 
L 387.352178 93.199865 
L 385.949615 93.274668 
L 384.5003 93.349471 
L 383.097736 93.349471 
L 381.648421 93.349471 
L 380.339362 93.349471 
L 378.890047 93.349471 
L 377.440732 93.386873 
L 376.038168 93.349471 
L 374.588853 93.424275 
L 373.18629 93.424275 
L 371.736975 93.424275 
L 370.287659 93.461676 
L 368.885096 93.461676 
L 367.435781 93.461676 
L 366.033218 93.499078 
L 364.583903 93.53648 
L 363.274844 93.573881 
L 361.825528 93.573881 
L 360.376213 93.53648 
L 358.97365 93.53648 
L 357.524335 93.53648 
L 356.121771 93.499078 
L 354.672456 93.499078 
L 353.223141 93.53648 
L 351.820578 93.53648 
L 350.371262 93.461676 
L 348.968699 93.424275 
L 347.519384 93.424275 
L 346.163573 93.461676 
L 344.714258 93.461676 
L 343.264942 93.461676 
L 341.862379 93.461676 
L 340.413064 93.461676 
L 339.010501 93.461676 
L 337.561185 93.461676 
L 336.11187 93.461676 
L 334.709307 93.461676 
L 333.259992 93.386873 
L 331.857428 93.386873 
L 330.408113 93.386873 
L 329.099054 93.386873 
L 327.649739 93.349471 
L 326.200424 93.349471 
L 324.79786 93.424275 
L 323.348545 93.424275 
L 321.945982 93.424275 
L 320.496667 93.461676 
L 319.047351 93.461676 
L 317.644788 93.461676 
L 316.195473 93.499078 
L 314.79291 93.53648 
L 313.343594 93.611283 
L 312.034535 93.611283 
L 310.58522 93.611283 
L 309.135905 93.76089 
L 307.733342 93.76089 
L 306.284026 93.76089 
L 304.881463 93.648685 
L 303.432148 93.686086 
L 301.982833 93.873095 
L 300.58027 94.770735 
L 299.130954 94.920342 
L 297.728391 94.957744 
L 296.279076 94.995145 
L 294.970017 94.995145 
L 293.520702 94.995145 
L 292.071386 94.995145 
L 290.668823 95.032547 
L 289.219508 95.032547 
L 287.816945 95.069949 
L 286.367629 95.10735 
L 284.918314 95.144752 
L 283.515751 95.144752 
L 282.066436 95.144752 
L 280.663872 95.144752 
L 279.214557 95.144752 
L 277.858746 95.182154 
L 276.409431 95.182154 
L 274.960116 95.219555 
L 273.557552 95.256957 
L 272.108237 95.256957 
L 270.705674 95.256957 
L 269.256359 95.256957 
L 267.807043 95.256957 
L 266.40448 95.256957 
L 264.955165 95.256957 
L 263.552602 95.256957 
L 262.103286 95.331761 
L 260.794227 95.331761 
L 259.344912 95.331761 
L 257.895597 95.369162 
L 256.493034 95.369162 
L 255.043718 95.406564 
L 253.641155 95.556171 
L 252.19184 96.453811 
L 250.742525 96.453811 
L 249.339961 96.453811 
L 247.890646 96.528614 
L 246.488083 96.528614 
L 245.038768 96.528614 
L 243.729709 96.528614 
L 242.280394 96.528614 
L 240.831078 96.528614 
L 239.428515 96.603418 
L 237.9792 96.528614 
L 236.576637 96.566016 
L 235.127321 96.640819 
L 233.678006 96.715623 
L 232.275443 96.902631 
L 230.826128 96.940033 
L 229.423564 96.940033 
L 227.974249 96.940033 
L 226.66519 96.940033 
L 225.215875 97.014836 
L 223.76656 97.014836 
L 222.363996 97.08964 
L 220.914681 97.08964 
L 219.512118 96.977435 
L 218.062803 97.052238 
L 216.613487 97.052238 
L 215.210924 97.052238 
L 213.761609 97.08964 
L 212.359046 97.08964 
L 210.90973 97.08964 
L 209.553919 97.127041 
L 208.104604 97.127041 
L 206.655289 97.164443 
L 205.252726 97.127041 
L 203.80341 97.127041 
L 202.400847 97.201845 
L 200.951532 97.239246 
L 198.193158 97.501058 
L 197.024355 98.062084 
L 196.042561 98.323895 
L 194.873758 97.725468 
L 193.938716 98.21169 
L 192.629657 98.249092 
L 189.964787 99.109331 
L 187.393421 99.109331 
L 186.598635 99.071929 
L 185.336329 99.221536 
L 184.02727 99.221536 
L 182.437698 99.296339 
L 181.455904 99.296339 
L 180.47411 99.333741 
L 176.172916 99.483348 
L 175.284626 99.483348 
L 170.702919 100.455791 
L 168.412066 100.567996 
L 167.664032 100.605398 
L 166.72899 100.717603 
L 166.121213 100.717603 
L 165.60694 100.717603 
L 162.521301 100.717603 
L 159.201901 100.942013 
L 157.518826 101.054218 
L 155.882502 101.09162 
L 152.937119 101.166423 
L 152.189085 101.278628 
L 150.973531 101.465637 
L 149.009942 101.690047 
L 145.971055 101.839654 
L 144.849005 102.438081 
L 142.230887 102.475482 
L 140.828324 102.737294 
L 139.192 103.036508 
L 137.321916 103.111311 
L 135.966105 103.111311 
L 134.937558 103.111311 
L 134.236277 103.111311 
L 133.20773 103.260918 
L 132.225936 103.410524 
L 131.571407 103.522729 
L 131.384398 103.522729 
L 130.683117 103.485328 
L 129.748075 104.008951 
L 128.439016 103.560131 
L 127.971495 103.560131 
L 127.457221 103.634935 
L 126.709188 103.634935 
L 126.007906 103.634935 
L 125.353377 104.19596 
L 124.418335 104.19596 
L 124.09107 103.74714 
L 123.20278 104.308165 
L 122.080729 105.355412 
L 121.239191 106.215651 
L 120.77167 106.253052 
L 119.976884 106.253052 
L 119.462611 106.290454 
L 118.667826 106.851479 
L 118.013296 106.327856 
L 117.21851 106.327856 
L 114.132871 106.589668 
L 113.899111 106.627069 
L 112.029026 106.664471 
L 107.961593 104.19596 
L 105.764244 106.814078 
L 97.255361 108.609359 
L 83.556994 110.442041 
L 64.949656 111.713698 
L 48.913684 113.621184 
L 41.106082 115.865285 
L 33.204976 115.453867 
z
" clip-path="url(#pe6b709fd38)" style="fill: #aeaeae"/>
   </g>
   <g id="PolyCollection_4">
    <path d="M 33.204976 92.751044 
L 33.204976 115.453867 
L 41.106082 115.865285 
L 48.913684 113.621184 
L 64.949656 111.713698 
L 83.556994 110.442041 
L 97.255361 108.609359 
L 105.764244 106.814078 
L 107.961593 104.19596 
L 112.029026 106.664471 
L 113.899111 106.627069 
L 114.132871 106.589668 
L 117.21851 106.327856 
L 118.013296 106.327856 
L 118.667826 106.851479 
L 119.462611 106.290454 
L 119.976884 106.253052 
L 120.77167 106.253052 
L 121.239191 106.215651 
L 122.080729 105.355412 
L 123.20278 104.308165 
L 124.09107 103.74714 
L 124.418335 104.19596 
L 125.353377 104.19596 
L 126.007906 103.634935 
L 126.709188 103.634935 
L 127.457221 103.634935 
L 127.971495 103.560131 
L 128.439016 103.560131 
L 129.748075 104.008951 
L 130.683117 103.485328 
L 131.384398 103.522729 
L 131.571407 103.522729 
L 132.225936 103.410524 
L 133.20773 103.260918 
L 134.236277 103.111311 
L 134.937558 103.111311 
L 135.966105 103.111311 
L 137.321916 103.111311 
L 139.192 103.036508 
L 140.828324 102.737294 
L 142.230887 102.475482 
L 144.849005 102.438081 
L 145.971055 101.839654 
L 149.009942 101.690047 
L 150.973531 101.465637 
L 152.189085 101.278628 
L 152.937119 101.166423 
L 155.882502 101.09162 
L 157.518826 101.054218 
L 159.201901 100.942013 
L 162.521301 100.717603 
L 165.60694 100.717603 
L 166.121213 100.717603 
L 166.72899 100.717603 
L 167.664032 100.605398 
L 168.412066 100.567996 
L 170.702919 100.455791 
L 175.284626 99.483348 
L 176.172916 99.483348 
L 180.47411 99.333741 
L 181.455904 99.296339 
L 182.437698 99.296339 
L 184.02727 99.221536 
L 185.336329 99.221536 
L 186.598635 99.071929 
L 187.393421 99.109331 
L 189.964787 99.109331 
L 192.629657 98.249092 
L 193.938716 98.21169 
L 194.873758 97.725468 
L 196.042561 98.323895 
L 197.024355 98.062084 
L 198.193158 97.501058 
L 200.951532 97.239246 
L 202.400847 97.201845 
L 203.80341 97.127041 
L 205.252726 97.127041 
L 206.655289 97.164443 
L 208.104604 97.127041 
L 209.553919 97.127041 
L 210.90973 97.08964 
L 212.359046 97.08964 
L 213.761609 97.08964 
L 215.210924 97.052238 
L 216.613487 97.052238 
L 218.062803 97.052238 
L 219.512118 96.977435 
L 220.914681 97.08964 
L 222.363996 97.08964 
L 223.76656 97.014836 
L 225.215875 97.014836 
L 226.66519 96.940033 
L 227.974249 96.940033 
L 229.423564 96.940033 
L 230.826128 96.940033 
L 232.275443 96.902631 
L 233.678006 96.715623 
L 235.127321 96.640819 
L 236.576637 96.566016 
L 237.9792 96.528614 
L 239.428515 96.603418 
L 240.831078 96.528614 
L 242.280394 96.528614 
L 243.729709 96.528614 
L 245.038768 96.528614 
L 246.488083 96.528614 
L 247.890646 96.528614 
L 249.339961 96.453811 
L 250.742525 96.453811 
L 252.19184 96.453811 
L 253.641155 95.556171 
L 255.043718 95.406564 
L 256.493034 95.369162 
L 257.895597 95.369162 
L 259.344912 95.331761 
L 260.794227 95.331761 
L 262.103286 95.331761 
L 263.552602 95.256957 
L 264.955165 95.256957 
L 266.40448 95.256957 
L 267.807043 95.256957 
L 269.256359 95.256957 
L 270.705674 95.256957 
L 272.108237 95.256957 
L 273.557552 95.256957 
L 274.960116 95.219555 
L 276.409431 95.182154 
L 277.858746 95.182154 
L 279.214557 95.144752 
L 280.663872 95.144752 
L 282.066436 95.144752 
L 283.515751 95.144752 
L 284.918314 95.144752 
L 286.367629 95.10735 
L 287.816945 95.069949 
L 289.219508 95.032547 
L 290.668823 95.032547 
L 292.071386 94.995145 
L 293.520702 94.995145 
L 294.970017 94.995145 
L 296.279076 94.995145 
L 297.728391 94.957744 
L 299.130954 94.920342 
L 300.58027 94.770735 
L 301.982833 93.873095 
L 303.432148 93.686086 
L 304.881463 93.648685 
L 306.284026 93.76089 
L 307.733342 93.76089 
L 309.135905 93.76089 
L 310.58522 93.611283 
L 312.034535 93.611283 
L 313.343594 93.611283 
L 314.79291 93.53648 
L 316.195473 93.499078 
L 317.644788 93.461676 
L 319.047351 93.461676 
L 320.496667 93.461676 
L 321.945982 93.424275 
L 323.348545 93.424275 
L 324.79786 93.424275 
L 326.200424 93.349471 
L 327.649739 93.349471 
L 329.099054 93.386873 
L 330.408113 93.386873 
L 331.857428 93.386873 
L 333.259992 93.386873 
L 334.709307 93.461676 
L 336.11187 93.461676 
L 337.561185 93.461676 
L 339.010501 93.461676 
L 340.413064 93.461676 
L 341.862379 93.461676 
L 343.264942 93.461676 
L 344.714258 93.461676 
L 346.163573 93.461676 
L 347.519384 93.424275 
L 348.968699 93.424275 
L 350.371262 93.461676 
L 351.820578 93.53648 
L 353.223141 93.53648 
L 354.672456 93.499078 
L 356.121771 93.499078 
L 357.524335 93.53648 
L 358.97365 93.53648 
L 360.376213 93.53648 
L 361.825528 93.573881 
L 363.274844 93.573881 
L 364.583903 93.53648 
L 366.033218 93.499078 
L 367.435781 93.461676 
L 368.885096 93.461676 
L 370.287659 93.461676 
L 371.736975 93.424275 
L 373.18629 93.424275 
L 374.588853 93.424275 
L 376.038168 93.349471 
L 377.440732 93.386873 
L 378.890047 93.349471 
L 380.339362 93.349471 
L 381.648421 93.349471 
L 383.097736 93.349471 
L 384.5003 93.349471 
L 385.949615 93.274668 
L 387.352178 93.199865 
L 388.801493 93.199865 
L 390.250809 93.199865 
L 391.653372 93.199865 
L 393.102687 93.162463 
L 394.50525 93.162463 
L 395.954566 93.087659 
L 397.403881 93.087659 
L 398.71294 93.050258 
L 400.162255 93.050258 
L 401.564818 93.050258 
L 403.014134 93.050258 
L 404.416697 93.050258 
L 405.866012 92.975454 
L 407.315327 92.975454 
L 408.71789 92.975454 
L 410.167206 92.975454 
L 411.569769 92.938053 
L 413.019084 92.938053 
L 414.4684 92.938053 
L 415.824211 92.900651 
L 417.273526 92.900651 
L 418.676089 92.900651 
L 420.125404 92.863249 
L 421.527968 92.863249 
L 422.977283 92.638839 
L 424.426598 92.302224 
L 425.829161 92.339626 
L 427.278477 92.339626 
L 428.68104 92.339626 
L 430.130355 92.339626 
L 431.57967 92.339626 
L 432.888729 92.339626 
L 434.338045 92.339626 
L 435.740608 92.377027 
L 437.189923 92.377027 
L 438.592486 92.377027 
L 440.041801 92.377027 
L 441.491117 92.377027 
L 442.89368 93.274668 
L 444.342995 93.274668 
L 445.745558 93.274668 
L 447.194874 93.274668 
L 448.644189 93.31207 
L 449.953248 93.349471 
L 449.953248 84.073853 
L 449.953248 84.073853 
L 448.644189 84.073853 
L 447.194874 84.036452 
L 445.745558 84.036452 
L 444.342995 84.036452 
L 442.89368 84.036452 
L 441.491117 83.138811 
L 440.041801 83.138811 
L 438.592486 83.138811 
L 437.189923 83.138811 
L 435.740608 83.138811 
L 434.338045 83.138811 
L 432.888729 83.138811 
L 431.57967 83.138811 
L 430.130355 83.138811 
L 428.68104 83.138811 
L 427.278477 83.138811 
L 425.829161 83.176213 
L 424.426598 83.176213 
L 422.977283 83.176213 
L 421.527968 83.213615 
L 420.125404 83.213615 
L 418.676089 83.213615 
L 417.273526 83.213615 
L 415.824211 83.213615 
L 414.4684 83.213615 
L 413.019084 83.213615 
L 411.569769 83.213615 
L 410.167206 83.213615 
L 408.71789 83.213615 
L 407.315327 83.213615 
L 405.866012 83.213615 
L 404.416697 83.213615 
L 403.014134 83.213615 
L 401.564818 83.213615 
L 400.162255 83.213615 
L 398.71294 83.213615 
L 397.403881 83.400623 
L 395.954566 83.438025 
L 394.50525 83.475426 
L 393.102687 83.475426 
L 391.653372 83.475426 
L 390.250809 83.475426 
L 388.801493 83.475426 
L 387.352178 83.475426 
L 385.949615 83.475426 
L 384.5003 83.475426 
L 383.097736 83.475426 
L 381.648421 83.512828 
L 380.339362 83.475426 
L 378.890047 83.475426 
L 377.440732 83.512828 
L 376.038168 83.251016 
L 374.588853 83.251016 
L 373.18629 82.914401 
L 371.736975 82.914401 
L 370.287659 82.914401 
L 368.885096 82.914401 
L 367.435781 82.914401 
L 366.033218 82.914401 
L 364.583903 82.951803 
L 363.274844 82.951803 
L 361.825528 82.951803 
L 360.376213 82.914401 
L 358.97365 82.914401 
L 357.524335 82.914401 
L 356.121771 82.951803 
L 354.672456 82.951803 
L 353.223141 82.951803 
L 351.820578 82.951803 
L 350.371262 82.877 
L 348.968699 82.839598 
L 347.519384 82.839598 
L 346.163573 82.839598 
L 344.714258 82.839598 
L 343.264942 82.839598 
L 341.862379 82.839598 
L 340.413064 82.839598 
L 339.010501 82.839598 
L 337.561185 82.839598 
L 336.11187 82.839598 
L 334.709307 82.839598 
L 333.259992 82.764794 
L 331.857428 82.764794 
L 330.408113 82.764794 
L 329.099054 82.764794 
L 327.649739 82.764794 
L 326.200424 82.764794 
L 324.79786 82.764794 
L 323.348545 82.764794 
L 321.945982 82.764794 
L 320.496667 82.727393 
L 319.047351 82.727393 
L 317.644788 82.727393 
L 316.195473 82.727393 
L 314.79291 82.727393 
L 313.343594 82.727393 
L 312.034535 82.727393 
L 310.58522 82.727393 
L 309.135905 82.727393 
L 307.733342 82.727393 
L 306.284026 82.727393 
L 304.881463 82.727393 
L 303.432148 82.727393 
L 301.982833 82.727393 
L 300.58027 82.727393 
L 299.130954 82.727393 
L 297.728391 82.727393 
L 296.279076 82.727393 
L 294.970017 82.727393 
L 293.520702 82.727393 
L 292.071386 82.727393 
L 290.668823 82.727393 
L 289.219508 82.727393 
L 287.816945 82.727393 
L 286.367629 82.727393 
L 284.918314 82.727393 
L 283.515751 82.727393 
L 282.066436 82.727393 
L 280.663872 82.727393 
L 279.214557 83.064008 
L 277.858746 83.10141 
L 276.409431 83.10141 
L 274.960116 83.10141 
L 273.557552 83.251016 
L 272.108237 83.251016 
L 270.705674 83.251016 
L 269.256359 83.251016 
L 267.807043 83.251016 
L 266.40448 83.251016 
L 264.955165 83.251016 
L 263.552602 83.251016 
L 262.103286 83.251016 
L 260.794227 83.251016 
L 259.344912 83.251016 
L 257.895597 83.288418 
L 256.493034 83.288418 
L 255.043718 83.288418 
L 253.641155 83.288418 
L 252.19184 83.026606 
L 250.742525 83.176213 
L 249.339961 83.138811 
L 247.890646 83.138811 
L 246.488083 83.138811 
L 245.038768 83.138811 
L 243.729709 83.138811 
L 242.280394 83.138811 
L 240.831078 83.138811 
L 239.428515 83.176213 
L 237.9792 83.176213 
L 236.576637 83.176213 
L 235.127321 83.138811 
L 233.678006 83.138811 
L 232.275443 83.138811 
L 230.826128 83.138811 
L 229.423564 83.138811 
L 227.974249 83.138811 
L 226.66519 83.138811 
L 225.215875 83.138811 
L 223.76656 83.138811 
L 222.363996 83.138811 
L 220.914681 83.176213 
L 219.512118 83.138811 
L 218.062803 83.176213 
L 216.613487 83.138811 
L 215.210924 83.138811 
L 213.761609 83.138811 
L 212.359046 83.138811 
L 210.90973 83.138811 
L 209.553919 83.138811 
L 208.104604 83.176213 
L 206.655289 83.176213 
L 205.252726 83.138811 
L 203.80341 83.138811 
L 202.400847 83.138811 
L 200.951532 83.213615 
L 198.193158 83.475426 
L 197.024355 84.111255 
L 196.042561 84.186058 
L 194.873758 83.587632 
L 193.938716 85.046297 
L 192.629657 85.046297 
L 189.964787 86.392758 
L 187.393421 86.392758 
L 186.598635 86.355356 
L 185.336329 86.504963 
L 184.02727 86.467561 
L 182.437698 86.467561 
L 181.455904 86.467561 
L 180.47411 86.467561 
L 176.172916 86.766775 
L 175.284626 86.766775 
L 170.702919 86.953783 
L 168.412066 86.916381 
L 167.664032 86.916381 
L 166.72899 86.991185 
L 166.121213 86.991185 
L 165.60694 86.991185 
L 162.521301 87.514808 
L 159.201901 87.627013 
L 157.518826 87.627013 
L 155.882502 87.627013 
L 152.937119 87.627013 
L 152.189085 87.589612 
L 150.973531 87.589612 
L 149.009942 87.477407 
L 145.971055 87.440005 
L 144.849005 88.412449 
L 142.230887 88.524654 
L 140.828324 88.636859 
L 139.192 88.524654 
L 137.321916 88.524654 
L 135.966105 88.487252 
L 134.937558 88.487252 
L 134.236277 88.487252 
L 133.20773 88.449851 
L 132.225936 88.449851 
L 131.571407 88.487252 
L 131.384398 88.487252 
L 130.683117 88.487252 
L 129.748075 88.898671 
L 128.439016 88.487252 
L 127.971495 88.487252 
L 127.457221 88.524654 
L 126.709188 88.449851 
L 126.007906 88.449851 
L 125.353377 88.823867 
L 124.418335 88.749064 
L 124.09107 88.337645 
L 123.20278 88.861269 
L 122.080729 88.711662 
L 121.239191 88.749064 
L 120.77167 88.749064 
L 119.976884 88.749064 
L 119.462611 88.786466 
L 118.667826 89.272688 
L 118.013296 88.749064 
L 117.21851 88.749064 
L 114.132871 89.684106 
L 113.899111 89.721508 
L 112.029026 89.684106 
L 107.961593 88.823867 
L 105.764244 89.684106 
L 97.255361 90.43214 
L 83.556994 90.843558 
L 64.949656 91.516789 
L 48.913684 91.928207 
L 41.106082 92.900651 
L 33.204976 92.751044 
z
" clip-path="url(#pe6b709fd38)" style="fill: #d5dce5"/>
   </g>
   <g id="matplotlib.axis_1">
    <g id="xtick_1">
     <g id="line2d_1">
      <defs>
       <path id="mdee5b01171" d="M 0 0 
L 0 3.5 
" style="stroke: #000000; stroke-width: 0.8"/>
      </defs>
      <g>
       <use xlink:href="#mdee5b01171" x="71.494951" y="272.353934" style="stroke: #000000; stroke-width: 0.8"/>
      </g>
     </g>
     <g id="text_1">
      <!-- 2004 -->
      <g transform="translate(58.769951 286.952372) scale(0.1 -0.1)">
       <defs>
        <path id="DejaVuSans-32" d="M 1228 531 
L 3431 531 
L 3431 0 
L 469 0 
L 469 531 
Q 828 903 1448 1529 
Q 2069 2156 2228 2338 
Q 2531 2678 2651 2914 
Q 2772 3150 2772 3378 
Q 2772 3750 2511 3984 
Q 2250 4219 1831 4219 
Q 1534 4219 1204 4116 
Q 875 4013 500 3803 
L 500 4441 
Q 881 4594 1212 4672 
Q 1544 4750 1819 4750 
Q 2544 4750 2975 4387 
Q 3406 4025 3406 3419 
Q 3406 3131 3298 2873 
Q 3191 2616 2906 2266 
Q 2828 2175 2409 1742 
Q 1991 1309 1228 531 
z
" transform="scale(0.015625)"/>
        <path id="DejaVuSans-30" d="M 2034 4250 
Q 1547 4250 1301 3770 
Q 1056 3291 1056 2328 
Q 1056 1369 1301 889 
Q 1547 409 2034 409 
Q 2525 409 2770 889 
Q 3016 1369 3016 2328 
Q 3016 3291 2770 3770 
Q 2525 4250 2034 4250 
z
M 2034 4750 
Q 2819 4750 3233 4129 
Q 3647 3509 3647 2328 
Q 3647 1150 3233 529 
Q 2819 -91 2034 -91 
Q 1250 -91 836 529 
Q 422 1150 422 2328 
Q 422 3509 836 4129 
Q 1250 4750 2034 4750 
z
" transform="scale(0.015625)"/>
        <path id="DejaVuSans-34" d="M 2419 4116 
L 825 1625 
L 2419 1625 
L 2419 4116 
z
M 2253 4666 
L 3047 4666 
L 3047 1625 
L 3713 1625 
L 3713 1100 
L 3047 1100 
L 3047 0 
L 2419 0 
L 2419 1100 
L 313 1100 
L 313 1709 
L 2253 4666 
z
" transform="scale(0.015625)"/>
       </defs>
       <use xlink:href="#DejaVuSans-32"/>
       <use xlink:href="#DejaVuSans-30" x="63.623047"/>
       <use xlink:href="#DejaVuSans-30" x="127.246094"/>
       <use xlink:href="#DejaVuSans-34" x="190.869141"/>
      </g>
     </g>
    </g>
    <g id="xtick_2">
     <g id="line2d_2">
      <g>
       <use xlink:href="#mdee5b01171" x="139.799777" y="272.353934" style="stroke: #000000; stroke-width: 0.8"/>
      </g>
     </g>
     <g id="text_2">
      <!-- 2008 -->
      <g transform="translate(127.074777 286.952372) scale(0.1 -0.1)">
       <defs>
        <path id="DejaVuSans-38" d="M 2034 2216 
Q 1584 2216 1326 1975 
Q 1069 1734 1069 1313 
Q 1069 891 1326 650 
Q 1584 409 2034 409 
Q 2484 409 2743 651 
Q 3003 894 3003 1313 
Q 3003 1734 2745 1975 
Q 2488 2216 2034 2216 
z
M 1403 2484 
Q 997 2584 770 2862 
Q 544 3141 544 3541 
Q 544 4100 942 4425 
Q 1341 4750 2034 4750 
Q 2731 4750 3128 4425 
Q 3525 4100 3525 3541 
Q 3525 3141 3298 2862 
Q 3072 2584 2669 2484 
Q 3125 2378 3379 2068 
Q 3634 1759 3634 1313 
Q 3634 634 3220 271 
Q 2806 -91 2034 -91 
Q 1263 -91 848 271 
Q 434 634 434 1313 
Q 434 1759 690 2068 
Q 947 2378 1403 2484 
z
M 1172 3481 
Q 1172 3119 1398 2916 
Q 1625 2713 2034 2713 
Q 2441 2713 2670 2916 
Q 2900 3119 2900 3481 
Q 2900 3844 2670 4047 
Q 2441 4250 2034 4250 
Q 1625 4250 1398 4047 
Q 1172 3844 1172 3481 
z
" transform="scale(0.015625)"/>
       </defs>
       <use xlink:href="#DejaVuSans-32"/>
       <use xlink:href="#DejaVuSans-30" x="63.623047"/>
       <use xlink:href="#DejaVuSans-30" x="127.246094"/>
       <use xlink:href="#DejaVuSans-38" x="190.869141"/>
      </g>
     </g>
    </g>
    <g id="xtick_3">
     <g id="line2d_3">
      <g>
       <use xlink:href="#mdee5b01171" x="208.104604" y="272.353934" style="stroke: #000000; stroke-width: 0.8"/>
      </g>
     </g>
     <g id="text_3">
      <!-- 2012 -->
      <g transform="translate(195.379604 286.952372) scale(0.1 -0.1)">
       <defs>
        <path id="DejaVuSans-31" d="M 794 531 
L 1825 531 
L 1825 4091 
L 703 3866 
L 703 4441 
L 1819 4666 
L 2450 4666 
L 2450 531 
L 3481 531 
L 3481 0 
L 794 0 
L 794 531 
z
" transform="scale(0.015625)"/>
       </defs>
       <use xlink:href="#DejaVuSans-32"/>
       <use xlink:href="#DejaVuSans-30" x="63.623047"/>
       <use xlink:href="#DejaVuSans-31" x="127.246094"/>
       <use xlink:href="#DejaVuSans-32" x="190.869141"/>
      </g>
     </g>
    </g>
    <g id="xtick_4">
     <g id="line2d_4">
      <g>
       <use xlink:href="#mdee5b01171" x="276.409431" y="272.353934" style="stroke: #000000; stroke-width: 0.8"/>
      </g>
     </g>
     <g id="text_4">
      <!-- 2016 -->
      <g transform="translate(263.684431 286.952372) scale(0.1 -0.1)">
       <defs>
        <path id="DejaVuSans-36" d="M 2113 2584 
Q 1688 2584 1439 2293 
Q 1191 2003 1191 1497 
Q 1191 994 1439 701 
Q 1688 409 2113 409 
Q 2538 409 2786 701 
Q 3034 994 3034 1497 
Q 3034 2003 2786 2293 
Q 2538 2584 2113 2584 
z
M 3366 4563 
L 3366 3988 
Q 3128 4100 2886 4159 
Q 2644 4219 2406 4219 
Q 1781 4219 1451 3797 
Q 1122 3375 1075 2522 
Q 1259 2794 1537 2939 
Q 1816 3084 2150 3084 
Q 2853 3084 3261 2657 
Q 3669 2231 3669 1497 
Q 3669 778 3244 343 
Q 2819 -91 2113 -91 
Q 1303 -91 875 529 
Q 447 1150 447 2328 
Q 447 3434 972 4092 
Q 1497 4750 2381 4750 
Q 2619 4750 2861 4703 
Q 3103 4656 3366 4563 
z
" transform="scale(0.015625)"/>
       </defs>
       <use xlink:href="#DejaVuSans-32"/>
       <use xlink:href="#DejaVuSans-30" x="63.623047"/>
       <use xlink:href="#DejaVuSans-31" x="127.246094"/>
       <use xlink:href="#DejaVuSans-36" x="190.869141"/>
      </g>
     </g>
    </g>
    <g id="xtick_5">
     <g id="line2d_5">
      <g>
       <use xlink:href="#mdee5b01171" x="344.714258" y="272.353934" style="stroke: #000000; stroke-width: 0.8"/>
      </g>
     </g>
     <g id="text_5">
      <!-- 2020 -->
      <g transform="translate(331.989258 286.952372) scale(0.1 -0.1)">
       <use xlink:href="#DejaVuSans-32"/>
       <use xlink:href="#DejaVuSans-30" x="63.623047"/>
       <use xlink:href="#DejaVuSans-32" x="127.246094"/>
       <use xlink:href="#DejaVuSans-30" x="190.869141"/>
      </g>
     </g>
    </g>
    <g id="xtick_6">
     <g id="line2d_6">
      <g>
       <use xlink:href="#mdee5b01171" x="413.019084" y="272.353934" style="stroke: #000000; stroke-width: 0.8"/>
      </g>
     </g>
     <g id="text_6">
      <!-- 2024 -->
      <g transform="translate(400.294084 286.952372) scale(0.1 -0.1)">
       <use xlink:href="#DejaVuSans-32"/>
       <use xlink:href="#DejaVuSans-30" x="63.623047"/>
       <use xlink:href="#DejaVuSans-32" x="127.246094"/>
       <use xlink:href="#DejaVuSans-34" x="190.869141"/>
      </g>
     </g>
    </g>
    <g id="text_7">
     <!-- Year -->
     <g transform="translate(239.86375 304.429716) scale(0.15 -0.15)">
      <defs>
       <path id="DejaVuSans-59" d="M -13 4666 
L 666 4666 
L 1959 2747 
L 3244 4666 
L 3922 4666 
L 2272 2222 
L 2272 0 
L 1638 0 
L 1638 2222 
L -13 4666 
z
" transform="scale(0.015625)"/>
       <path id="DejaVuSans-65" d="M 3597 1894 
L 3597 1613 
L 953 1613 
Q 991 1019 1311 708 
Q 1631 397 2203 397 
Q 2534 397 2845 478 
Q 3156 559 3463 722 
L 3463 178 
Q 3153 47 2828 -22 
Q 2503 -91 2169 -91 
Q 1331 -91 842 396 
Q 353 884 353 1716 
Q 353 2575 817 3079 
Q 1281 3584 2069 3584 
Q 2775 3584 3186 3129 
Q 3597 2675 3597 1894 
z
M 3022 2063 
Q 3016 2534 2758 2815 
Q 2500 3097 2075 3097 
Q 1594 3097 1305 2825 
Q 1016 2553 972 2059 
L 3022 2063 
z
" transform="scale(0.015625)"/>
       <path id="DejaVuSans-61" d="M 2194 1759 
Q 1497 1759 1228 1600 
Q 959 1441 959 1056 
Q 959 750 1161 570 
Q 1363 391 1709 391 
Q 2188 391 2477 730 
Q 2766 1069 2766 1631 
L 2766 1759 
L 2194 1759 
z
M 3341 1997 
L 3341 0 
L 2766 0 
L 2766 531 
Q 2569 213 2275 61 
Q 1981 -91 1556 -91 
Q 1019 -91 701 211 
Q 384 513 384 1019 
Q 384 1609 779 1909 
Q 1175 2209 1959 2209 
L 2766 2209 
L 2766 2266 
Q 2766 2663 2505 2880 
Q 2244 3097 1772 3097 
Q 1472 3097 1187 3025 
Q 903 2953 641 2809 
L 641 3341 
Q 956 3463 1253 3523 
Q 1550 3584 1831 3584 
Q 2591 3584 2966 3190 
Q 3341 2797 3341 1997 
z
" transform="scale(0.015625)"/>
       <path id="DejaVuSans-72" d="M 2631 2963 
Q 2534 3019 2420 3045 
Q 2306 3072 2169 3072 
Q 1681 3072 1420 2755 
Q 1159 2438 1159 1844 
L 1159 0 
L 581 0 
L 581 3500 
L 1159 3500 
L 1159 2956 
Q 1341 3275 1631 3429 
Q 1922 3584 2338 3584 
Q 2397 3584 2469 3576 
Q 2541 3569 2628 3553 
L 2631 2963 
z
" transform="scale(0.015625)"/>
      </defs>
      <use xlink:href="#DejaVuSans-59"/>
      <use xlink:href="#DejaVuSans-65" x="47.833984"/>
      <use xlink:href="#DejaVuSans-61" x="109.357422"/>
      <use xlink:href="#DejaVuSans-72" x="170.636719"/>
     </g>
    </g>
   </g>
   <g id="matplotlib.axis_2">
    <g id="ytick_1">
     <g id="line2d_7">
      <defs>
       <path id="m46c979d73c" d="M 0 0 
L -3.5 0 
" style="stroke: #000000; stroke-width: 0.8"/>
      </defs>
      <g>
       <use xlink:href="#m46c979d73c" x="61.49" y="272.353934" style="stroke: #000000; stroke-width: 0.8"/>
      </g>
     </g>
     <g id="text_8">
      <!-- 0 -->
      <g transform="translate(48.1275 276.153153) scale(0.1 -0.1)">
       <use xlink:href="#DejaVuSans-30"/>
      </g>
     </g>
    </g>
    <g id="ytick_2">
     <g id="line2d_8">
      <g>
       <use xlink:href="#m46c979d73c" x="61.49" y="234.95225" style="stroke: #000000; stroke-width: 0.8"/>
      </g>
     </g>
     <g id="text_9">
      <!-- 1000 -->
      <g transform="translate(29.04 238.751468) scale(0.1 -0.1)">
       <use xlink:href="#DejaVuSans-31"/>
       <use xlink:href="#DejaVuSans-30" x="63.623047"/>
       <use xlink:href="#DejaVuSans-30" x="127.246094"/>
       <use xlink:href="#DejaVuSans-30" x="190.869141"/>
      </g>
     </g>
    </g>
    <g id="ytick_3">
     <g id="line2d_9">
      <g>
       <use xlink:href="#m46c979d73c" x="61.49" y="197.550565" style="stroke: #000000; stroke-width: 0.8"/>
      </g>
     </g>
     <g id="text_10">
      <!-- 2000 -->
      <g transform="translate(29.04 201.349784) scale(0.1 -0.1)">
       <use xlink:href="#DejaVuSans-32"/>
       <use xlink:href="#DejaVuSans-30" x="63.623047"/>
       <use xlink:href="#DejaVuSans-30" x="127.246094"/>
       <use xlink:href="#DejaVuSans-30" x="190.869141"/>
      </g>
     </g>
    </g>
    <g id="ytick_4">
     <g id="line2d_10">
      <g>
       <use xlink:href="#m46c979d73c" x="61.49" y="160.14888" style="stroke: #000000; stroke-width: 0.8"/>
      </g>
     </g>
     <g id="text_11">
      <!-- 3000 -->
      <g transform="translate(29.04 163.948099) scale(0.1 -0.1)">
       <defs>
        <path id="DejaVuSans-33" d="M 2597 2516 
Q 3050 2419 3304 2112 
Q 3559 1806 3559 1356 
Q 3559 666 3084 287 
Q 2609 -91 1734 -91 
Q 1441 -91 1130 -33 
Q 819 25 488 141 
L 488 750 
Q 750 597 1062 519 
Q 1375 441 1716 441 
Q 2309 441 2620 675 
Q 2931 909 2931 1356 
Q 2931 1769 2642 2001 
Q 2353 2234 1838 2234 
L 1294 2234 
L 1294 2753 
L 1863 2753 
Q 2328 2753 2575 2939 
Q 2822 3125 2822 3475 
Q 2822 3834 2567 4026 
Q 2313 4219 1838 4219 
Q 1578 4219 1281 4162 
Q 984 4106 628 3988 
L 628 4550 
Q 988 4650 1302 4700 
Q 1616 4750 1894 4750 
Q 2613 4750 3031 4423 
Q 3450 4097 3450 3541 
Q 3450 3153 3228 2886 
Q 3006 2619 2597 2516 
z
" transform="scale(0.015625)"/>
       </defs>
       <use xlink:href="#DejaVuSans-33"/>
       <use xlink:href="#DejaVuSans-30" x="63.623047"/>
       <use xlink:href="#DejaVuSans-30" x="127.246094"/>
       <use xlink:href="#DejaVuSans-30" x="190.869141"/>
      </g>
     </g>
    </g>
    <g id="ytick_5">
     <g id="line2d_11">
      <g>
       <use xlink:href="#m46c979d73c" x="61.49" y="122.747195" style="stroke: #000000; stroke-width: 0.8"/>
      </g>
     </g>
     <g id="text_12">
      <!-- 4000 -->
      <g transform="translate(29.04 126.546414) scale(0.1 -0.1)">
       <use xlink:href="#DejaVuSans-34"/>
       <use xlink:href="#DejaVuSans-30" x="63.623047"/>
       <use xlink:href="#DejaVuSans-30" x="127.246094"/>
       <use xlink:href="#DejaVuSans-30" x="190.869141"/>
      </g>
     </g>
    </g>
    <g id="ytick_6">
     <g id="line2d_12">
      <g>
       <use xlink:href="#m46c979d73c" x="61.49" y="85.345511" style="stroke: #000000; stroke-width: 0.8"/>
      </g>
     </g>
     <g id="text_13">
      <!-- 5000 -->
      <g transform="translate(29.04 89.144729) scale(0.1 -0.1)">
       <defs>
        <path id="DejaVuSans-35" d="M 691 4666 
L 3169 4666 
L 3169 4134 
L 1269 4134 
L 1269 2991 
Q 1406 3038 1543 3061 
Q 1681 3084 1819 3084 
Q 2600 3084 3056 2656 
Q 3513 2228 3513 1497 
Q 3513 744 3044 326 
Q 2575 -91 1722 -91 
Q 1428 -91 1123 -41 
Q 819 9 494 109 
L 494 744 
Q 775 591 1075 516 
Q 1375 441 1709 441 
Q 2250 441 2565 725 
Q 2881 1009 2881 1497 
Q 2881 1984 2565 2268 
Q 2250 2553 1709 2553 
Q 1456 2553 1204 2497 
Q 953 2441 691 2322 
L 691 4666 
z
" transform="scale(0.015625)"/>
       </defs>
       <use xlink:href="#DejaVuSans-35"/>
       <use xlink:href="#DejaVuSans-30" x="63.623047"/>
       <use xlink:href="#DejaVuSans-30" x="127.246094"/>
       <use xlink:href="#DejaVuSans-30" x="190.869141"/>
      </g>
     </g>
    </g>
    <g id="text_14">
     <!-- Number of proteins -->
     <g transform="translate(21.920469 245.489062) rotate(-90) scale(0.15 -0.15)">
      <defs>
       <path id="DejaVuSans-4e" d="M 628 4666 
L 1478 4666 
L 3547 763 
L 3547 4666 
L 4159 4666 
L 4159 0 
L 3309 0 
L 1241 3903 
L 1241 0 
L 628 0 
L 628 4666 
z
" transform="scale(0.015625)"/>
       <path id="DejaVuSans-75" d="M 544 1381 
L 544 3500 
L 1119 3500 
L 1119 1403 
Q 1119 906 1312 657 
Q 1506 409 1894 409 
Q 2359 409 2629 706 
Q 2900 1003 2900 1516 
L 2900 3500 
L 3475 3500 
L 3475 0 
L 2900 0 
L 2900 538 
Q 2691 219 2414 64 
Q 2138 -91 1772 -91 
Q 1169 -91 856 284 
Q 544 659 544 1381 
z
M 1991 3584 
L 1991 3584 
z
" transform="scale(0.015625)"/>
       <path id="DejaVuSans-6d" d="M 3328 2828 
Q 3544 3216 3844 3400 
Q 4144 3584 4550 3584 
Q 5097 3584 5394 3201 
Q 5691 2819 5691 2113 
L 5691 0 
L 5113 0 
L 5113 2094 
Q 5113 2597 4934 2840 
Q 4756 3084 4391 3084 
Q 3944 3084 3684 2787 
Q 3425 2491 3425 1978 
L 3425 0 
L 2847 0 
L 2847 2094 
Q 2847 2600 2669 2842 
Q 2491 3084 2119 3084 
Q 1678 3084 1418 2786 
Q 1159 2488 1159 1978 
L 1159 0 
L 581 0 
L 581 3500 
L 1159 3500 
L 1159 2956 
Q 1356 3278 1631 3431 
Q 1906 3584 2284 3584 
Q 2666 3584 2933 3390 
Q 3200 3197 3328 2828 
z
" transform="scale(0.015625)"/>
       <path id="DejaVuSans-62" d="M 3116 1747 
Q 3116 2381 2855 2742 
Q 2594 3103 2138 3103 
Q 1681 3103 1420 2742 
Q 1159 2381 1159 1747 
Q 1159 1113 1420 752 
Q 1681 391 2138 391 
Q 2594 391 2855 752 
Q 3116 1113 3116 1747 
z
M 1159 2969 
Q 1341 3281 1617 3432 
Q 1894 3584 2278 3584 
Q 2916 3584 3314 3078 
Q 3713 2572 3713 1747 
Q 3713 922 3314 415 
Q 2916 -91 2278 -91 
Q 1894 -91 1617 61 
Q 1341 213 1159 525 
L 1159 0 
L 581 0 
L 581 4863 
L 1159 4863 
L 1159 2969 
z
" transform="scale(0.015625)"/>
       <path id="DejaVuSans-20" transform="scale(0.015625)"/>
       <path id="DejaVuSans-6f" d="M 1959 3097 
Q 1497 3097 1228 2736 
Q 959 2375 959 1747 
Q 959 1119 1226 758 
Q 1494 397 1959 397 
Q 2419 397 2687 759 
Q 2956 1122 2956 1747 
Q 2956 2369 2687 2733 
Q 2419 3097 1959 3097 
z
M 1959 3584 
Q 2709 3584 3137 3096 
Q 3566 2609 3566 1747 
Q 3566 888 3137 398 
Q 2709 -91 1959 -91 
Q 1206 -91 779 398 
Q 353 888 353 1747 
Q 353 2609 779 3096 
Q 1206 3584 1959 3584 
z
" transform="scale(0.015625)"/>
       <path id="DejaVuSans-66" d="M 2375 4863 
L 2375 4384 
L 1825 4384 
Q 1516 4384 1395 4259 
Q 1275 4134 1275 3809 
L 1275 3500 
L 2222 3500 
L 2222 3053 
L 1275 3053 
L 1275 0 
L 697 0 
L 697 3053 
L 147 3053 
L 147 3500 
L 697 3500 
L 697 3744 
Q 697 4328 969 4595 
Q 1241 4863 1831 4863 
L 2375 4863 
z
" transform="scale(0.015625)"/>
       <path id="DejaVuSans-70" d="M 1159 525 
L 1159 -1331 
L 581 -1331 
L 581 3500 
L 1159 3500 
L 1159 2969 
Q 1341 3281 1617 3432 
Q 1894 3584 2278 3584 
Q 2916 3584 3314 3078 
Q 3713 2572 3713 1747 
Q 3713 922 3314 415 
Q 2916 -91 2278 -91 
Q 1894 -91 1617 61 
Q 1341 213 1159 525 
z
M 3116 1747 
Q 3116 2381 2855 2742 
Q 2594 3103 2138 3103 
Q 1681 3103 1420 2742 
Q 1159 2381 1159 1747 
Q 1159 1113 1420 752 
Q 1681 391 2138 391 
Q 2594 391 2855 752 
Q 3116 1113 3116 1747 
z
" transform="scale(0.015625)"/>
       <path id="DejaVuSans-74" d="M 1172 4494 
L 1172 3500 
L 2356 3500 
L 2356 3053 
L 1172 3053 
L 1172 1153 
Q 1172 725 1289 603 
Q 1406 481 1766 481 
L 2356 481 
L 2356 0 
L 1766 0 
Q 1100 0 847 248 
Q 594 497 594 1153 
L 594 3053 
L 172 3053 
L 172 3500 
L 594 3500 
L 594 4494 
L 1172 4494 
z
" transform="scale(0.015625)"/>
       <path id="DejaVuSans-69" d="M 603 3500 
L 1178 3500 
L 1178 0 
L 603 0 
L 603 3500 
z
M 603 4863 
L 1178 4863 
L 1178 4134 
L 603 4134 
L 603 4863 
z
" transform="scale(0.015625)"/>
       <path id="DejaVuSans-6e" d="M 3513 2113 
L 3513 0 
L 2938 0 
L 2938 2094 
Q 2938 2591 2744 2837 
Q 2550 3084 2163 3084 
Q 1697 3084 1428 2787 
Q 1159 2491 1159 1978 
L 1159 0 
L 581 0 
L 581 3500 
L 1159 3500 
L 1159 2956 
Q 1366 3272 1645 3428 
Q 1925 3584 2291 3584 
Q 2894 3584 3203 3211 
Q 3513 2838 3513 2113 
z
" transform="scale(0.015625)"/>
       <path id="DejaVuSans-73" d="M 2834 3397 
L 2834 2853 
Q 2591 2978 2328 3040 
Q 2066 3103 1784 3103 
Q 1356 3103 1142 2972 
Q 928 2841 928 2578 
Q 928 2378 1081 2264 
Q 1234 2150 1697 2047 
L 1894 2003 
Q 2506 1872 2764 1633 
Q 3022 1394 3022 966 
Q 3022 478 2636 193 
Q 2250 -91 1575 -91 
Q 1294 -91 989 -36 
Q 684 19 347 128 
L 347 722 
Q 666 556 975 473 
Q 1284 391 1588 391 
Q 1994 391 2212 530 
Q 2431 669 2431 922 
Q 2431 1156 2273 1281 
Q 2116 1406 1581 1522 
L 1381 1569 
Q 847 1681 609 1914 
Q 372 2147 372 2553 
Q 372 3047 722 3315 
Q 1072 3584 1716 3584 
Q 2034 3584 2315 3537 
Q 2597 3491 2834 3397 
z
" transform="scale(0.015625)"/>
      </defs>
      <use xlink:href="#DejaVuSans-4e"/>
      <use xlink:href="#DejaVuSans-75" x="74.804688"/>
      <use xlink:href="#DejaVuSans-6d" x="138.183594"/>
      <use xlink:href="#DejaVuSans-62" x="235.595703"/>
      <use xlink:href="#DejaVuSans-65" x="299.072266"/>
      <use xlink:href="#DejaVuSans-72" x="360.595703"/>
      <use xlink:href="#DejaVuSans-20" x="401.708984"/>
      <use xlink:href="#DejaVuSans-6f" x="433.496094"/>
      <use xlink:href="#DejaVuSans-66" x="494.677734"/>
      <use xlink:href="#DejaVuSans-20" x="529.882812"/>
      <use xlink:href="#DejaVuSans-70" x="561.669922"/>
      <use xlink:href="#DejaVuSans-72" x="625.146484"/>
      <use xlink:href="#DejaVuSans-6f" x="664.009766"/>
      <use xlink:href="#DejaVuSans-74" x="725.191406"/>
      <use xlink:href="#DejaVuSans-65" x="764.400391"/>
      <use xlink:href="#DejaVuSans-69" x="825.923828"/>
      <use xlink:href="#DejaVuSans-6e" x="853.707031"/>
      <use xlink:href="#DejaVuSans-73" x="917.085938"/>
     </g>
    </g>
   </g>
   <g id="patch_3">
    <path d="M 61.49 272.353934 
L 61.49 73.246066 
" style="fill: none; stroke: #000000; stroke-width: 0.8; stroke-linejoin: miter; stroke-linecap: square"/>
   </g>
   <g id="patch_4">
    <path d="M 61.49 272.353934 
L 450 272.353934 
" style="fill: none; stroke: #000000; stroke-width: 0.8; stroke-linejoin: miter; stroke-linecap: square"/>
   </g>
   <g id="legend_1">
    <g id="patch_5">
     <path d="M 98.395781 68.246066 
L 413.094219 68.246066 
Q 415.094219 68.246066 415.094219 66.246066 
L 415.094219 37.889816 
Q 415.094219 35.889816 413.094219 35.889816 
L 98.395781 35.889816 
Q 96.395781 35.889816 96.395781 37.889816 
L 96.395781 66.246066 
Q 96.395781 68.246066 98.395781 68.246066 
z
" style="fill: #ffffff; opacity: 0.8; stroke: #cccccc; stroke-linejoin: miter"/>
    </g>
    <g id="patch_6">
     <path d="M 100.395781 47.488253 
L 120.395781 47.488253 
L 120.395781 40.488253 
L 100.395781 40.488253 
z
" style="fill: #fb363b"/>
    </g>
    <g id="text_15">
     <!-- Biological role published -->
     <g transform="translate(128.395781 47.488253) scale(0.1 -0.1)">
      <defs>
       <path id="DejaVuSans-42" d="M 1259 2228 
L 1259 519 
L 2272 519 
Q 2781 519 3026 730 
Q 3272 941 3272 1375 
Q 3272 1813 3026 2020 
Q 2781 2228 2272 2228 
L 1259 2228 
z
M 1259 4147 
L 1259 2741 
L 2194 2741 
Q 2656 2741 2882 2914 
Q 3109 3088 3109 3444 
Q 3109 3797 2882 3972 
Q 2656 4147 2194 4147 
L 1259 4147 
z
M 628 4666 
L 2241 4666 
Q 2963 4666 3353 4366 
Q 3744 4066 3744 3513 
Q 3744 3084 3544 2831 
Q 3344 2578 2956 2516 
Q 3422 2416 3680 2098 
Q 3938 1781 3938 1306 
Q 3938 681 3513 340 
Q 3088 0 2303 0 
L 628 0 
L 628 4666 
z
" transform="scale(0.015625)"/>
       <path id="DejaVuSans-6c" d="M 603 4863 
L 1178 4863 
L 1178 0 
L 603 0 
L 603 4863 
z
" transform="scale(0.015625)"/>
       <path id="DejaVuSans-67" d="M 2906 1791 
Q 2906 2416 2648 2759 
Q 2391 3103 1925 3103 
Q 1463 3103 1205 2759 
Q 947 2416 947 1791 
Q 947 1169 1205 825 
Q 1463 481 1925 481 
Q 2391 481 2648 825 
Q 2906 1169 2906 1791 
z
M 3481 434 
Q 3481 -459 3084 -895 
Q 2688 -1331 1869 -1331 
Q 1566 -1331 1297 -1286 
Q 1028 -1241 775 -1147 
L 775 -588 
Q 1028 -725 1275 -790 
Q 1522 -856 1778 -856 
Q 2344 -856 2625 -561 
Q 2906 -266 2906 331 
L 2906 616 
Q 2728 306 2450 153 
Q 2172 0 1784 0 
Q 1141 0 747 490 
Q 353 981 353 1791 
Q 353 2603 747 3093 
Q 1141 3584 1784 3584 
Q 2172 3584 2450 3431 
Q 2728 3278 2906 2969 
L 2906 3500 
L 3481 3500 
L 3481 434 
z
" transform="scale(0.015625)"/>
       <path id="DejaVuSans-63" d="M 3122 3366 
L 3122 2828 
Q 2878 2963 2633 3030 
Q 2388 3097 2138 3097 
Q 1578 3097 1268 2742 
Q 959 2388 959 1747 
Q 959 1106 1268 751 
Q 1578 397 2138 397 
Q 2388 397 2633 464 
Q 2878 531 3122 666 
L 3122 134 
Q 2881 22 2623 -34 
Q 2366 -91 2075 -91 
Q 1284 -91 818 406 
Q 353 903 353 1747 
Q 353 2603 823 3093 
Q 1294 3584 2113 3584 
Q 2378 3584 2631 3529 
Q 2884 3475 3122 3366 
z
" transform="scale(0.015625)"/>
       <path id="DejaVuSans-68" d="M 3513 2113 
L 3513 0 
L 2938 0 
L 2938 2094 
Q 2938 2591 2744 2837 
Q 2550 3084 2163 3084 
Q 1697 3084 1428 2787 
Q 1159 2491 1159 1978 
L 1159 0 
L 581 0 
L 581 4863 
L 1159 4863 
L 1159 2956 
Q 1366 3272 1645 3428 
Q 1925 3584 2291 3584 
Q 2894 3584 3203 3211 
Q 3513 2838 3513 2113 
z
" transform="scale(0.015625)"/>
       <path id="DejaVuSans-64" d="M 2906 2969 
L 2906 4863 
L 3481 4863 
L 3481 0 
L 2906 0 
L 2906 525 
Q 2725 213 2448 61 
Q 2172 -91 1784 -91 
Q 1150 -91 751 415 
Q 353 922 353 1747 
Q 353 2572 751 3078 
Q 1150 3584 1784 3584 
Q 2172 3584 2448 3432 
Q 2725 3281 2906 2969 
z
M 947 1747 
Q 947 1113 1208 752 
Q 1469 391 1925 391 
Q 2381 391 2643 752 
Q 2906 1113 2906 1747 
Q 2906 2381 2643 2742 
Q 2381 3103 1925 3103 
Q 1469 3103 1208 2742 
Q 947 2381 947 1747 
z
" transform="scale(0.015625)"/>
      </defs>
      <use xlink:href="#DejaVuSans-42"/>
      <use xlink:href="#DejaVuSans-69" x="68.603516"/>
      <use xlink:href="#DejaVuSans-6f" x="96.386719"/>
      <use xlink:href="#DejaVuSans-6c" x="157.568359"/>
      <use xlink:href="#DejaVuSans-6f" x="185.351562"/>
      <use xlink:href="#DejaVuSans-67" x="246.533203"/>
      <use xlink:href="#DejaVuSans-69" x="310.009766"/>
      <use xlink:href="#DejaVuSans-63" x="337.792969"/>
      <use xlink:href="#DejaVuSans-61" x="392.773438"/>
      <use xlink:href="#DejaVuSans-6c" x="454.052734"/>
      <use xlink:href="#DejaVuSans-20" x="481.835938"/>
      <use xlink:href="#DejaVuSans-72" x="513.623047"/>
      <use xlink:href="#DejaVuSans-6f" x="552.486328"/>
      <use xlink:href="#DejaVuSans-6c" x="613.667969"/>
      <use xlink:href="#DejaVuSans-65" x="641.451172"/>
      <use xlink:href="#DejaVuSans-20" x="702.974609"/>
      <use xlink:href="#DejaVuSans-70" x="734.761719"/>
      <use xlink:href="#DejaVuSans-75" x="798.238281"/>
      <use xlink:href="#DejaVuSans-62" x="861.617188"/>
      <use xlink:href="#DejaVuSans-6c" x="925.09375"/>
      <use xlink:href="#DejaVuSans-69" x="952.876953"/>
      <use xlink:href="#DejaVuSans-73" x="980.660156"/>
      <use xlink:href="#DejaVuSans-68" x="1032.759766"/>
      <use xlink:href="#DejaVuSans-65" x="1096.138672"/>
      <use xlink:href="#DejaVuSans-64" x="1157.662109"/>
     </g>
    </g>
    <g id="patch_7">
     <path d="M 100.395781 62.166378 
L 120.395781 62.166378 
L 120.395781 55.166378 
L 100.395781 55.166378 
z
" style="fill: #fdc92c"/>
    </g>
    <g id="text_16">
     <!-- Biological role inferred -->
     <g transform="translate(128.395781 62.166378) scale(0.1 -0.1)">
      <use xlink:href="#DejaVuSans-42"/>
      <use xlink:href="#DejaVuSans-69" x="68.603516"/>
      <use xlink:href="#DejaVuSans-6f" x="96.386719"/>
      <use xlink:href="#DejaVuSans-6c" x="157.568359"/>
      <use xlink:href="#DejaVuSans-6f" x="185.351562"/>
      <use xlink:href="#DejaVuSans-67" x="246.533203"/>
      <use xlink:href="#DejaVuSans-69" x="310.009766"/>
      <use xlink:href="#DejaVuSans-63" x="337.792969"/>
      <use xlink:href="#DejaVuSans-61" x="392.773438"/>
      <use xlink:href="#DejaVuSans-6c" x="454.052734"/>
      <use xlink:href="#DejaVuSans-20" x="481.835938"/>
      <use xlink:href="#DejaVuSans-72" x="513.623047"/>
      <use xlink:href="#DejaVuSans-6f" x="552.486328"/>
      <use xlink:href="#DejaVuSans-6c" x="613.667969"/>
      <use xlink:href="#DejaVuSans-65" x="641.451172"/>
      <use xlink:href="#DejaVuSans-20" x="702.974609"/>
      <use xlink:href="#DejaVuSans-69" x="734.761719"/>
      <use xlink:href="#DejaVuSans-6e" x="762.544922"/>
      <use xlink:href="#DejaVuSans-66" x="825.923828"/>
      <use xlink:href="#DejaVuSans-65" x="861.128906"/>
      <use xlink:href="#DejaVuSans-72" x="922.652344"/>
      <use xlink:href="#DejaVuSans-72" x="962.015625"/>
      <use xlink:href="#DejaVuSans-65" x="1000.878906"/>
      <use xlink:href="#DejaVuSans-64" x="1062.402344"/>
     </g>
    </g>
    <g id="patch_8">
     <path d="M 270.512969 47.488253 
L 290.512969 47.488253 
L 290.512969 40.488253 
L 270.512969 40.488253 
z
" style="fill: #aeaeae"/>
    </g>
    <g id="text_17">
     <!-- Conserved unknown -->
     <g transform="translate(298.512969 47.488253) scale(0.1 -0.1)">
      <defs>
       <path id="DejaVuSans-43" d="M 4122 4306 
L 4122 3641 
Q 3803 3938 3442 4084 
Q 3081 4231 2675 4231 
Q 1875 4231 1450 3742 
Q 1025 3253 1025 2328 
Q 1025 1406 1450 917 
Q 1875 428 2675 428 
Q 3081 428 3442 575 
Q 3803 722 4122 1019 
L 4122 359 
Q 3791 134 3420 21 
Q 3050 -91 2638 -91 
Q 1578 -91 968 557 
Q 359 1206 359 2328 
Q 359 3453 968 4101 
Q 1578 4750 2638 4750 
Q 3056 4750 3426 4639 
Q 3797 4528 4122 4306 
z
" transform="scale(0.015625)"/>
       <path id="DejaVuSans-76" d="M 191 3500 
L 800 3500 
L 1894 563 
L 2988 3500 
L 3597 3500 
L 2284 0 
L 1503 0 
L 191 3500 
z
" transform="scale(0.015625)"/>
       <path id="DejaVuSans-6b" d="M 581 4863 
L 1159 4863 
L 1159 1991 
L 2875 3500 
L 3609 3500 
L 1753 1863 
L 3688 0 
L 2938 0 
L 1159 1709 
L 1159 0 
L 581 0 
L 581 4863 
z
" transform="scale(0.015625)"/>
       <path id="DejaVuSans-77" d="M 269 3500 
L 844 3500 
L 1563 769 
L 2278 3500 
L 2956 3500 
L 3675 769 
L 4391 3500 
L 4966 3500 
L 4050 0 
L 3372 0 
L 2619 2869 
L 1863 0 
L 1184 0 
L 269 3500 
z
" transform="scale(0.015625)"/>
      </defs>
      <use xlink:href="#DejaVuSans-43"/>
      <use xlink:href="#DejaVuSans-6f" x="69.824219"/>
      <use xlink:href="#DejaVuSans-6e" x="131.005859"/>
      <use xlink:href="#DejaVuSans-73" x="194.384766"/>
      <use xlink:href="#DejaVuSans-65" x="246.484375"/>
      <use xlink:href="#DejaVuSans-72" x="308.007812"/>
      <use xlink:href="#DejaVuSans-76" x="349.121094"/>
      <use xlink:href="#DejaVuSans-65" x="408.300781"/>
      <use xlink:href="#DejaVuSans-64" x="469.824219"/>
      <use xlink:href="#DejaVuSans-20" x="533.300781"/>
      <use xlink:href="#DejaVuSans-75" x="565.087891"/>
      <use xlink:href="#DejaVuSans-6e" x="628.466797"/>
      <use xlink:href="#DejaVuSans-6b" x="691.845703"/>
      <use xlink:href="#DejaVuSans-6e" x="749.755859"/>
      <use xlink:href="#DejaVuSans-6f" x="813.134766"/>
      <use xlink:href="#DejaVuSans-77" x="874.316406"/>
      <use xlink:href="#DejaVuSans-6e" x="956.103516"/>
     </g>
    </g>
    <g id="patch_9">
     <path d="M 270.512969 62.166378 
L 290.512969 62.166378 
L 290.512969 55.166378 
L 270.512969 55.166378 
z
" style="fill: #d5dce5"/>
    </g>
    <g id="text_18">
     <!-- Fission yeast unknown -->
     <g transform="translate(298.512969 62.166378) scale(0.1 -0.1)">
      <defs>
       <path id="DejaVuSans-46" d="M 628 4666 
L 3309 4666 
L 3309 4134 
L 1259 4134 
L 1259 2759 
L 3109 2759 
L 3109 2228 
L 1259 2228 
L 1259 0 
L 628 0 
L 628 4666 
z
" transform="scale(0.015625)"/>
       <path id="DejaVuSans-79" d="M 2059 -325 
Q 1816 -950 1584 -1140 
Q 1353 -1331 966 -1331 
L 506 -1331 
L 506 -850 
L 844 -850 
Q 1081 -850 1212 -737 
Q 1344 -625 1503 -206 
L 1606 56 
L 191 3500 
L 800 3500 
L 1894 763 
L 2988 3500 
L 3597 3500 
L 2059 -325 
z
" transform="scale(0.015625)"/>
      </defs>
      <use xlink:href="#DejaVuSans-46"/>
      <use xlink:href="#DejaVuSans-69" x="50.269531"/>
      <use xlink:href="#DejaVuSans-73" x="78.052734"/>
      <use xlink:href="#DejaVuSans-73" x="130.152344"/>
      <use xlink:href="#DejaVuSans-69" x="182.251953"/>
      <use xlink:href="#DejaVuSans-6f" x="210.035156"/>
      <use xlink:href="#DejaVuSans-6e" x="271.216797"/>
      <use xlink:href="#DejaVuSans-20" x="334.595703"/>
      <use xlink:href="#DejaVuSans-79" x="366.382812"/>
      <use xlink:href="#DejaVuSans-65" x="425.5625"/>
      <use xlink:href="#DejaVuSans-61" x="487.085938"/>
      <use xlink:href="#DejaVuSans-73" x="548.365234"/>
      <use xlink:href="#DejaVuSans-74" x="600.464844"/>
      <use xlink:href="#DejaVuSans-20" x="639.673828"/>
      <use xlink:href="#DejaVuSans-75" x="671.460938"/>
      <use xlink:href="#DejaVuSans-6e" x="734.839844"/>
      <use xlink:href="#DejaVuSans-6b" x="798.21875"/>
      <use xlink:href="#DejaVuSans-6e" x="856.128906"/>
      <use xlink:href="#DejaVuSans-6f" x="919.507812"/>
      <use xlink:href="#DejaVuSans-77" x="980.689453"/>
      <use xlink:href="#DejaVuSans-6e" x="1062.476562"/>
     </g>
    </g>
   </g>
  </g>
 </g>
 <defs>
  <clipPath id="pe6b709fd38">
   <rect x="61.49" y="73.246066" width="388.51" height="199.107869"/>
  </clipPath>
 </defs>
</svg>
