<?xml version="1.0" encoding="utf-8" standalone="no"?>
<!DOCTYPE svg PUBLIC "-//W3C//DTD SVG 1.1//EN"
  "http://www.w3.org/Graphics/SVG/1.1/DTD/svg11.dtd">
<svg xmlns:xlink="http://www.w3.org/1999/xlink" width="460.8pt" height="345.6pt" viewBox="0 0 460.8 345.6" xmlns="http://www.w3.org/2000/svg" version="1.1">
 <metadata>
  <rdf:RDF xmlns:dc="http://purl.org/dc/elements/1.1/" xmlns:cc="http://creativecommons.org/ns#" xmlns:rdf="http://www.w3.org/1999/02/22-rdf-syntax-ns#">
   <cc:Work>
    <dc:type rdf:resource="http://purl.org/dc/dcmitype/StillImage"/>
    <dc:date>2023-08-09T09:51:17.839703</dc:date>
    <dc:format>image/svg+xml</dc:format>
    <dc:creator>
     <cc:Agent>
      <dc:title>Matplotlib v3.7.1, https://matplotlib.org/</dc:title>
     </cc:Agent>
    </dc:creator>
   </cc:Work>
  </rdf:RDF>
 </metadata>
 <defs>
  <style type="text/css">*{stroke-linejoin: round; stroke-linecap: butt}</style>
 </defs>
 <g id="figure_1">
  <g id="patch_1">
   <path d="M 0 345.6 
L 460.8 345.6 
L 460.8 0 
L 0 0 
z
" style="fill: #ffffff"/>
  </g>
  <g id="axes_1">
   <g id="patch_2">
    <path d="M 61.49 299.32 
L 450 299.32 
L 450 48.96 
L 61.49 48.96 
z
" style="fill: #ffffff"/>
   </g>
   <g id="PolyCollection_1">
    <path d="M 29.614688 235.783537 
L 29.614688 299.32 
L 38.518701 299.32 
L 47.317341 299.32 
L 65.388798 299.32 
L 86.358012 299.32 
L 101.795146 299.32 
L 111.384083 299.32 
L 113.860347 299.32 
L 118.44407 299.32 
L 120.551528 299.32 
L 120.814961 299.32 
L 124.292267 299.32 
L 125.187937 299.32 
L 125.925548 299.32 
L 126.821218 299.32 
L 127.400769 299.32 
L 128.296439 299.32 
L 128.823303 299.32 
L 129.77166 299.32 
L 131.036135 299.32 
L 132.037178 299.32 
L 132.405983 299.32 
L 133.459713 299.32 
L 134.197323 299.32 
L 134.98762 299.32 
L 135.830603 299.32 
L 136.410155 299.32 
L 136.937019 299.32 
L 138.41224 299.32 
L 139.46597 299.32 
L 140.256267 299.32 
L 140.467012 299.32 
L 141.204623 299.32 
L 142.311039 299.32 
L 143.470141 299.32 
L 144.260438 299.32 
L 145.41954 299.32 
L 146.947448 299.32 
L 149.054906 299.32 
L 150.898933 299.32 
L 152.479527 299.32 
L 155.429969 299.32 
L 156.694444 299.32 
L 160.119064 299.32 
L 162.331896 299.32 
L 163.701744 299.32 
L 164.544727 299.32 
L 167.863975 299.32 
L 169.708001 299.32 
L 171.604714 299.32 
L 175.345453 299.32 
L 178.82276 299.32 
L 179.402311 299.32 
L 180.087235 299.32 
L 181.140964 299.32 
L 181.983948 299.32 
L 184.565584 299.32 
L 189.728858 299.32 
L 190.729901 299.32 
L 195.577056 299.32 
L 196.683472 299.32 
L 197.789887 299.32 
L 199.581227 299.32 
L 201.056448 299.32 
L 202.478983 299.32 
L 203.374653 299.32 
L 206.272408 299.32 
L 209.275537 299.32 
L 210.750758 299.32 
L 211.804487 299.32 
L 213.121649 299.32 
L 214.228065 299.32 
L 215.545226 299.32 
L 218.653728 299.32 
L 220.287008 299.32 
L 221.867602 299.32 
L 223.500883 299.32 
L 225.081477 299.32 
L 226.714757 299.32 
L 228.348038 299.32 
L 229.875945 299.32 
L 231.509226 299.32 
L 233.08982 299.32 
L 234.7231 299.32 
L 236.303694 299.32 
L 237.936975 299.32 
L 239.570255 299.32 
L 241.150849 299.32 
L 242.784129 299.32 
L 244.364723 299.32 
L 245.998004 299.32 
L 247.631284 299.32 
L 249.106505 299.32 
L 250.739786 299.32 
L 252.32038 299.32 
L 253.95366 299.32 
L 255.534254 299.32 
L 257.167535 299.32 
L 258.800815 299.32 
L 260.381409 299.32 
L 262.014689 299.32 
L 263.595283 299.32 
L 265.228564 299.32 
L 266.861844 299.32 
L 268.337065 299.32 
L 269.970346 299.32 
L 271.55094 299.32 
L 273.18422 299.32 
L 274.764814 299.32 
L 276.398095 299.32 
L 278.031375 299.32 
L 279.611969 299.32 
L 281.24525 299.32 
L 282.825844 299.32 
L 284.459124 299.32 
L 286.092404 299.32 
L 287.567625 299.32 
L 289.200906 299.32 
L 290.7815 299.32 
L 292.41478 299.32 
L 293.995374 299.32 
L 295.628655 299.32 
L 297.261935 299.32 
L 298.842529 299.32 
L 300.47581 299.32 
L 302.056404 299.32 
L 303.689684 299.32 
L 305.322964 299.32 
L 306.850872 299.32 
L 308.484152 299.32 
L 310.064746 299.32 
L 311.698027 299.32 
L 313.278621 299.32 
L 314.911901 299.32 
L 316.545182 299.32 
L 318.125776 299.32 
L 319.759056 299.32 
L 321.33965 299.32 
L 322.972931 299.32 
L 324.606211 299.32 
L 326.081432 299.32 
L 327.714713 299.32 
L 329.295306 299.32 
L 330.928587 299.32 
L 332.509181 299.32 
L 334.142461 299.32 
L 335.775742 299.32 
L 337.356336 299.32 
L 338.989616 299.32 
L 340.57021 299.32 
L 342.203491 299.32 
L 343.836771 299.32 
L 345.311992 299.32 
L 346.945273 299.32 
L 348.525867 299.32 
L 350.159147 299.32 
L 351.739741 299.32 
L 353.373021 299.32 
L 355.006302 299.32 
L 356.586896 299.32 
L 358.220176 299.32 
L 359.80077 299.32 
L 361.434051 299.32 
L 363.067331 299.32 
L 364.542552 299.32 
L 366.175833 299.32 
L 367.756427 299.32 
L 369.389707 299.32 
L 370.970301 299.32 
L 372.603582 299.32 
L 374.236862 299.32 
L 375.817456 299.32 
L 377.450736 299.32 
L 379.03133 299.32 
L 380.664611 299.32 
L 382.297891 299.32 
L 383.825799 299.32 
L 385.459079 299.32 
L 387.039673 299.32 
L 388.672954 299.32 
L 390.253548 299.32 
L 391.886828 299.32 
L 393.520108 299.32 
L 395.100702 299.32 
L 396.733983 299.32 
L 398.314577 299.32 
L 399.947857 299.32 
L 401.581138 299.32 
L 403.056359 299.32 
L 404.689639 299.32 
L 406.270233 299.32 
L 407.903514 299.32 
L 409.484108 299.32 
L 411.117388 299.32 
L 412.750669 299.32 
L 414.331263 299.32 
L 415.964543 299.32 
L 417.545137 299.32 
L 419.178417 299.32 
L 420.811698 299.32 
L 422.286919 299.32 
L 423.920199 299.32 
L 425.500793 299.32 
L 427.134074 299.32 
L 428.714668 299.32 
L 430.347948 299.32 
L 431.981229 299.32 
L 433.561823 299.32 
L 435.195103 299.32 
L 436.775697 299.32 
L 438.408977 299.32 
L 440.042258 299.32 
L 441.517479 299.32 
L 443.150759 299.32 
L 444.731353 299.32 
L 446.364634 299.32 
L 447.945228 299.32 
L 449.578508 299.32 
L 449.578508 180.759361 
L 449.578508 180.759361 
L 447.945228 181.323712 
L 446.364634 181.605887 
L 444.731353 181.746975 
L 443.150759 181.746975 
L 441.517479 182.170238 
L 440.042258 182.875676 
L 438.408977 182.828647 
L 436.775697 182.969734 
L 435.195103 183.110822 
L 433.561823 183.392997 
L 431.981229 183.392997 
L 430.347948 183.440026 
L 428.714668 183.440026 
L 427.134074 183.392997 
L 425.500793 183.487056 
L 423.920199 183.392997 
L 422.286919 183.345968 
L 420.811698 183.392997 
L 419.178417 183.392997 
L 417.545137 183.628143 
L 415.964543 183.863289 
L 414.331263 184.239523 
L 412.750669 184.521698 
L 411.117388 184.474669 
L 409.484108 184.709815 
L 407.903514 185.039019 
L 406.270233 185.039019 
L 404.689639 185.227136 
L 403.056359 185.838516 
L 401.581138 185.979604 
L 399.947857 186.496925 
L 398.314577 186.543954 
L 396.733983 186.732071 
L 395.100702 186.826129 
L 393.520108 187.014246 
L 391.886828 187.061275 
L 390.253548 187.155334 
L 388.672954 187.155334 
L 387.039673 187.249392 
L 385.459079 187.672655 
L 383.825799 187.813743 
L 382.297891 187.907801 
L 380.664611 188.00186 
L 379.03133 188.00186 
L 377.450736 188.00186 
L 375.817456 188.142947 
L 374.236862 188.237006 
L 372.603582 188.425123 
L 370.970301 188.707298 
L 369.389707 188.848385 
L 367.756427 188.942444 
L 366.175833 189.036502 
L 364.542552 189.083532 
L 363.067331 189.083532 
L 361.434051 189.130561 
L 359.80077 189.17759 
L 358.220176 189.271648 
L 356.586896 189.318678 
L 355.006302 189.318678 
L 353.373021 189.459765 
L 351.739741 189.600853 
L 350.159147 189.883028 
L 348.525867 190.071145 
L 346.945273 190.447379 
L 345.311992 190.635495 
L 343.836771 190.823612 
L 342.203491 190.870641 
L 340.57021 191.058758 
L 338.989616 191.246875 
L 337.356336 193.31616 
L 335.775742 193.645365 
L 334.142461 194.53892 
L 332.509181 193.786453 
L 330.928587 193.692394 
L 329.295306 193.739423 
L 327.714713 193.833482 
L 326.081432 194.162686 
L 324.606211 194.209715 
L 322.972931 194.303774 
L 321.33965 195.197329 
L 319.759056 195.338416 
L 318.125776 195.573563 
L 316.545182 195.667621 
L 314.911901 195.808709 
L 313.278621 196.32603 
L 311.698027 196.561176 
L 310.064746 196.561176 
L 308.484152 197.031468 
L 306.850872 197.125526 
L 305.322964 197.172556 
L 303.689684 197.407702 
L 302.056404 197.50176 
L 300.47581 197.50176 
L 298.842529 197.736906 
L 297.261935 197.783935 
L 295.628655 197.830965 
L 293.995374 198.019081 
L 292.41478 198.160169 
L 290.7815 197.454731 
L 289.200906 197.548789 
L 287.567625 197.783935 
L 286.092404 197.783935 
L 284.459124 198.066111 
L 282.825844 198.254227 
L 281.24525 198.583432 
L 279.611969 199.006695 
L 278.031375 199.382929 
L 276.398095 199.476987 
L 274.764814 199.806191 
L 273.18422 200.088367 
L 271.55094 200.51163 
L 269.970346 200.699746 
L 268.337065 200.934892 
L 266.861844 200.981922 
L 265.228564 200.981922 
L 263.595283 201.217068 
L 262.014689 201.781418 
L 260.381409 201.828447 
L 258.800815 202.110623 
L 257.167535 202.910119 
L 255.534254 203.004178 
L 253.95366 203.568528 
L 252.32038 203.944762 
L 250.739786 205.214551 
L 249.106505 205.308609 
L 247.631284 205.449697 
L 245.998004 205.778901 
L 244.364723 205.87296 
L 242.784129 206.155135 
L 241.150849 206.390281 
L 239.570255 206.813544 
L 237.936975 207.04869 
L 236.303694 207.189777 
L 234.7231 207.471953 
L 233.08982 207.518982 
L 231.509226 207.66007 
L 229.875945 207.848186 
L 228.348038 207.848186 
L 226.714757 207.942245 
L 225.081477 207.989274 
L 223.500883 208.036303 
L 221.867602 208.083332 
L 220.287008 208.130362 
L 218.653728 208.271449 
L 215.545226 209.165004 
L 214.228065 209.40015 
L 213.121649 209.447179 
L 211.804487 209.306092 
L 210.750758 209.306092 
L 209.275537 209.447179 
L 206.272408 209.588267 
L 203.374653 210.340734 
L 202.478983 211.469436 
L 201.056448 211.281319 
L 199.581227 211.234289 
L 197.789887 212.080815 
L 196.683472 212.080815 
L 195.577056 211.79864 
L 190.729901 212.41002 
L 189.728858 212.504078 
L 184.565584 213.303575 
L 181.983948 213.397633 
L 181.140964 213.209516 
L 180.087235 213.350604 
L 179.402311 213.58575 
L 178.82276 213.632779 
L 175.345453 213.773867 
L 171.604714 213.867925 
L 169.708001 214.103071 
L 167.863975 216.595619 
L 164.544727 216.501561 
L 163.701744 216.54859 
L 162.331896 217.065912 
L 160.119064 218.382729 
L 156.694444 218.664905 
L 155.429969 219.135197 
L 152.479527 219.464401 
L 150.898933 220.452015 
L 149.054906 221.110424 
L 146.947448 221.627745 
L 145.41954 221.674774 
L 144.260438 221.768833 
L 143.470141 221.815862 
L 142.311039 221.862891 
L 141.204623 222.709417 
L 140.467012 223.13268 
L 140.256267 223.13268 
L 139.46597 223.13268 
L 138.41224 223.414855 
L 136.937019 223.13268 
L 136.410155 223.367826 
L 135.830603 223.461884 
L 134.98762 223.602972 
L 134.197323 223.602972 
L 133.459713 223.979205 
L 132.405983 224.825731 
L 132.037178 224.778702 
L 131.036135 225.201965 
L 129.77166 225.296023 
L 128.823303 225.390082 
L 128.296439 225.48414 
L 127.400769 225.625228 
L 126.821218 225.907403 
L 125.925548 226.142549 
L 125.187937 226.048491 
L 124.292267 226.142549 
L 120.814961 226.471754 
L 120.551528 226.424724 
L 118.44407 226.800958 
L 113.860347 224.543556 
L 111.384083 227.88263 
L 101.795146 232.256346 
L 86.358012 236.347888 
L 65.388798 241.615159 
L 47.317341 235.548391 
L 38.518701 234.795924 
L 29.614688 235.783537 
z
" clip-path="url(#p444acfb7d0)" style="fill: #fb363b"/>
   </g>
   <g id="PolyCollection_2">
    <path d="M 29.614688 139.091481 
L 29.614688 235.783537 
L 38.518701 234.795924 
L 47.317341 235.548391 
L 65.388798 241.615159 
L 86.358012 236.347888 
L 101.795146 232.256346 
L 111.384083 227.88263 
L 113.860347 224.543556 
L 118.44407 226.800958 
L 120.551528 226.424724 
L 120.814961 226.471754 
L 124.292267 226.142549 
L 125.187937 226.048491 
L 125.925548 226.142549 
L 126.821218 225.907403 
L 127.400769 225.625228 
L 128.296439 225.48414 
L 128.823303 225.390082 
L 129.77166 225.296023 
L 131.036135 225.201965 
L 132.037178 224.778702 
L 132.405983 224.825731 
L 133.459713 223.979205 
L 134.197323 223.602972 
L 134.98762 223.602972 
L 135.830603 223.461884 
L 136.410155 223.367826 
L 136.937019 223.13268 
L 138.41224 223.414855 
L 139.46597 223.13268 
L 140.256267 223.13268 
L 140.467012 223.13268 
L 141.204623 222.709417 
L 142.311039 221.862891 
L 143.470141 221.815862 
L 144.260438 221.768833 
L 145.41954 221.674774 
L 146.947448 221.627745 
L 149.054906 221.110424 
L 150.898933 220.452015 
L 152.479527 219.464401 
L 155.429969 219.135197 
L 156.694444 218.664905 
L 160.119064 218.382729 
L 162.331896 217.065912 
L 163.701744 216.54859 
L 164.544727 216.501561 
L 167.863975 216.595619 
L 169.708001 214.103071 
L 171.604714 213.867925 
L 175.345453 213.773867 
L 178.82276 213.632779 
L 179.402311 213.58575 
L 180.087235 213.350604 
L 181.140964 213.209516 
L 181.983948 213.397633 
L 184.565584 213.303575 
L 189.728858 212.504078 
L 190.729901 212.41002 
L 195.577056 211.79864 
L 196.683472 212.080815 
L 197.789887 212.080815 
L 199.581227 211.234289 
L 201.056448 211.281319 
L 202.478983 211.469436 
L 203.374653 210.340734 
L 206.272408 209.588267 
L 209.275537 209.447179 
L 210.750758 209.306092 
L 211.804487 209.306092 
L 213.121649 209.447179 
L 214.228065 209.40015 
L 215.545226 209.165004 
L 218.653728 208.271449 
L 220.287008 208.130362 
L 221.867602 208.083332 
L 223.500883 208.036303 
L 225.081477 207.989274 
L 226.714757 207.942245 
L 228.348038 207.848186 
L 229.875945 207.848186 
L 231.509226 207.66007 
L 233.08982 207.518982 
L 234.7231 207.471953 
L 236.303694 207.189777 
L 237.936975 207.04869 
L 239.570255 206.813544 
L 241.150849 206.390281 
L 242.784129 206.155135 
L 244.364723 205.87296 
L 245.998004 205.778901 
L 247.631284 205.449697 
L 249.106505 205.308609 
L 250.739786 205.214551 
L 252.32038 203.944762 
L 253.95366 203.568528 
L 255.534254 203.004178 
L 257.167535 202.910119 
L 258.800815 202.110623 
L 260.381409 201.828447 
L 262.014689 201.781418 
L 263.595283 201.217068 
L 265.228564 200.981922 
L 266.861844 200.981922 
L 268.337065 200.934892 
L 269.970346 200.699746 
L 271.55094 200.51163 
L 273.18422 200.088367 
L 274.764814 199.806191 
L 276.398095 199.476987 
L 278.031375 199.382929 
L 279.611969 199.006695 
L 281.24525 198.583432 
L 282.825844 198.254227 
L 284.459124 198.066111 
L 286.092404 197.783935 
L 287.567625 197.783935 
L 289.200906 197.548789 
L 290.7815 197.454731 
L 292.41478 198.160169 
L 293.995374 198.019081 
L 295.628655 197.830965 
L 297.261935 197.783935 
L 298.842529 197.736906 
L 300.47581 197.50176 
L 302.056404 197.50176 
L 303.689684 197.407702 
L 305.322964 197.172556 
L 306.850872 197.125526 
L 308.484152 197.031468 
L 310.064746 196.561176 
L 311.698027 196.561176 
L 313.278621 196.32603 
L 314.911901 195.808709 
L 316.545182 195.667621 
L 318.125776 195.573563 
L 319.759056 195.338416 
L 321.33965 195.197329 
L 322.972931 194.303774 
L 324.606211 194.209715 
L 326.081432 194.162686 
L 327.714713 193.833482 
L 329.295306 193.739423 
L 330.928587 193.692394 
L 332.509181 193.786453 
L 334.142461 194.53892 
L 335.775742 193.645365 
L 337.356336 193.31616 
L 338.989616 191.246875 
L 340.57021 191.058758 
L 342.203491 190.870641 
L 343.836771 190.823612 
L 345.311992 190.635495 
L 346.945273 190.447379 
L 348.525867 190.071145 
L 350.159147 189.883028 
L 351.739741 189.600853 
L 353.373021 189.459765 
L 355.006302 189.318678 
L 356.586896 189.318678 
L 358.220176 189.271648 
L 359.80077 189.17759 
L 361.434051 189.130561 
L 363.067331 189.083532 
L 364.542552 189.083532 
L 366.175833 189.036502 
L 367.756427 188.942444 
L 369.389707 188.848385 
L 370.970301 188.707298 
L 372.603582 188.425123 
L 374.236862 188.237006 
L 375.817456 188.142947 
L 377.450736 188.00186 
L 379.03133 188.00186 
L 380.664611 188.00186 
L 382.297891 187.907801 
L 383.825799 187.813743 
L 385.459079 187.672655 
L 387.039673 187.249392 
L 388.672954 187.155334 
L 390.253548 187.155334 
L 391.886828 187.061275 
L 393.520108 187.014246 
L 395.100702 186.826129 
L 396.733983 186.732071 
L 398.314577 186.543954 
L 399.947857 186.496925 
L 401.581138 185.979604 
L 403.056359 185.838516 
L 404.689639 185.227136 
L 406.270233 185.039019 
L 407.903514 185.039019 
L 409.484108 184.709815 
L 411.117388 184.474669 
L 412.750669 184.521698 
L 414.331263 184.239523 
L 415.964543 183.863289 
L 417.545137 183.628143 
L 419.178417 183.392997 
L 420.811698 183.392997 
L 422.286919 183.345968 
L 423.920199 183.392997 
L 425.500793 183.487056 
L 427.134074 183.392997 
L 428.714668 183.440026 
L 430.347948 183.440026 
L 431.981229 183.392997 
L 433.561823 183.392997 
L 435.195103 183.110822 
L 436.775697 182.969734 
L 438.408977 182.828647 
L 440.042258 182.875676 
L 441.517479 182.170238 
L 443.150759 181.746975 
L 444.731353 181.746975 
L 446.364634 181.605887 
L 447.945228 181.323712 
L 449.578508 180.759361 
L 449.578508 90.886541 
L 449.578508 90.886541 
L 447.945228 91.215745 
L 446.364634 91.497921 
L 444.731353 91.639008 
L 443.150759 91.639008 
L 441.517479 91.686037 
L 440.042258 91.874154 
L 438.408977 92.015242 
L 436.775697 92.1093 
L 435.195103 92.1093 
L 433.561823 92.156329 
L 431.981229 92.015242 
L 430.347948 92.062271 
L 428.714668 92.062271 
L 427.134074 92.297417 
L 425.500793 92.250388 
L 423.920199 92.250388 
L 422.286919 92.297417 
L 420.811698 92.391476 
L 419.178417 92.391476 
L 417.545137 92.532563 
L 415.964543 92.485534 
L 414.331263 92.626622 
L 412.750669 92.673651 
L 411.117388 92.72068 
L 409.484108 92.767709 
L 407.903514 92.814738 
L 406.270233 92.767709 
L 404.689639 92.908797 
L 403.056359 93.143943 
L 401.581138 93.33206 
L 399.947857 93.379089 
L 398.314577 93.379089 
L 396.733983 93.473147 
L 395.100702 93.520177 
L 393.520108 93.614235 
L 391.886828 93.614235 
L 390.253548 93.661264 
L 388.672954 93.708293 
L 387.039673 93.567206 
L 385.459079 93.520177 
L 383.825799 93.567206 
L 382.297891 93.473147 
L 380.664611 93.473147 
L 379.03133 93.473147 
L 377.450736 93.473147 
L 375.817456 93.473147 
L 374.236862 93.520177 
L 372.603582 93.473147 
L 370.970301 93.520177 
L 369.389707 93.520177 
L 367.756427 93.379089 
L 366.175833 93.379089 
L 364.542552 93.426118 
L 363.067331 93.426118 
L 361.434051 93.520177 
L 359.80077 93.520177 
L 358.220176 93.614235 
L 356.586896 93.614235 
L 355.006302 93.614235 
L 353.373021 93.661264 
L 351.739741 93.661264 
L 350.159147 93.661264 
L 348.525867 93.708293 
L 346.945273 93.755323 
L 345.311992 94.131556 
L 343.836771 94.272644 
L 342.203491 94.178586 
L 340.57021 94.272644 
L 338.989616 94.413732 
L 337.356336 94.460761 
L 335.775742 95.11917 
L 334.142461 95.495403 
L 332.509181 98.08201 
L 330.928587 99.539915 
L 329.295306 100.057237 
L 327.714713 100.057237 
L 326.081432 100.43347 
L 324.606211 100.339412 
L 322.972931 99.398828 
L 321.33965 99.633974 
L 319.759056 100.151295 
L 318.125776 100.151295 
L 316.545182 100.010208 
L 314.911901 100.198324 
L 313.278621 100.245354 
L 311.698027 100.245354 
L 310.064746 100.292383 
L 308.484152 100.386441 
L 306.850872 100.386441 
L 305.322964 100.43347 
L 303.689684 100.43347 
L 302.056404 100.574558 
L 300.47581 100.621587 
L 298.842529 100.668617 
L 297.261935 100.668617 
L 295.628655 100.621587 
L 293.995374 100.668617 
L 292.41478 100.621587 
L 290.7815 101.374055 
L 289.200906 101.327025 
L 287.567625 101.421084 
L 286.092404 101.515142 
L 284.459124 101.65623 
L 282.825844 101.609201 
L 281.24525 101.938405 
L 279.611969 102.079493 
L 278.031375 102.26761 
L 276.398095 102.502756 
L 274.764814 102.549785 
L 273.18422 102.455726 
L 271.55094 102.549785 
L 269.970346 102.596814 
L 268.337065 102.596814 
L 266.861844 102.596814 
L 265.228564 102.596814 
L 263.595283 102.784931 
L 262.014689 102.878989 
L 260.381409 103.161165 
L 258.800815 103.208194 
L 257.167535 103.490369 
L 255.534254 103.584428 
L 253.95366 103.866603 
L 252.32038 104.00769 
L 250.739786 104.195807 
L 249.106505 104.242836 
L 247.631284 104.289866 
L 245.998004 104.477983 
L 244.364723 104.477983 
L 242.784129 104.713129 
L 241.150849 105.042333 
L 239.570255 105.23045 
L 237.936975 105.418567 
L 236.303694 105.653713 
L 234.7231 105.747771 
L 233.08982 106.124005 
L 231.509226 106.124005 
L 229.875945 106.171034 
L 228.348038 106.171034 
L 226.714757 106.171034 
L 225.081477 106.171034 
L 223.500883 106.171034 
L 221.867602 106.218063 
L 220.287008 106.40618 
L 218.653728 106.500239 
L 215.545226 107.064589 
L 214.228065 107.770027 
L 213.121649 108.099232 
L 211.804487 107.440823 
L 210.750758 107.817056 
L 209.275537 107.958144 
L 206.272408 108.146261 
L 203.374653 108.146261 
L 202.478983 108.334378 
L 201.056448 108.945757 
L 199.581227 108.898728 
L 197.789887 109.9804 
L 196.683472 109.9804 
L 195.577056 110.497721 
L 190.729901 110.826926 
L 189.728858 110.920984 
L 184.565584 112.237802 
L 181.983948 113.413532 
L 181.140964 113.460562 
L 180.087235 113.460562 
L 179.402311 113.460562 
L 178.82276 113.507591 
L 175.345453 112.99027 
L 171.604714 113.601649 
L 169.708001 113.836795 
L 167.863975 114.071941 
L 164.544727 114.213029 
L 163.701744 114.307087 
L 162.331896 114.542233 
L 160.119064 114.918467 
L 156.694444 114.73035 
L 155.429969 115.106584 
L 152.479527 115.059555 
L 150.898933 114.965496 
L 149.054906 115.388759 
L 146.947448 115.294701 
L 145.41954 115.153613 
L 144.260438 115.482818 
L 143.470141 115.529847 
L 142.311039 114.636292 
L 141.204623 114.683321 
L 140.467012 114.871438 
L 140.256267 114.871438 
L 139.46597 114.824409 
L 138.41224 115.435788 
L 136.937019 114.77738 
L 136.410155 114.77738 
L 135.830603 114.824409 
L 134.98762 114.871438 
L 134.197323 114.636292 
L 133.459713 115.153613 
L 132.405983 115.294701 
L 132.037178 115.012526 
L 131.036135 115.200642 
L 129.77166 115.153613 
L 128.823303 115.764993 
L 128.296439 115.670935 
L 127.400769 115.670935 
L 126.821218 113.55462 
L 125.925548 114.024912 
L 125.187937 112.849182 
L 124.292267 112.567007 
L 120.814961 112.896211 
L 120.551528 112.708094 
L 118.44407 113.037299 
L 113.860347 115.153613 
L 111.384083 116.188256 
L 101.795146 118.680804 
L 86.358012 122.255024 
L 65.388798 126.816857 
L 47.317341 134.106385 
L 38.518701 138.715247 
L 29.614688 139.091481 
z
" clip-path="url(#p444acfb7d0)" style="fill: #fd852c"/>
   </g>
   <g id="PolyCollection_3">
    <path d="M 29.614688 102.032464 
L 29.614688 139.091481 
L 38.518701 138.715247 
L 47.317341 134.106385 
L 65.388798 126.816857 
L 86.358012 122.255024 
L 101.795146 118.680804 
L 111.384083 116.188256 
L 113.860347 115.153613 
L 118.44407 113.037299 
L 120.551528 112.708094 
L 120.814961 112.896211 
L 124.292267 112.567007 
L 125.187937 112.849182 
L 125.925548 114.024912 
L 126.821218 113.55462 
L 127.400769 115.670935 
L 128.296439 115.670935 
L 128.823303 115.764993 
L 129.77166 115.153613 
L 131.036135 115.200642 
L 132.037178 115.012526 
L 132.405983 115.294701 
L 133.459713 115.153613 
L 134.197323 114.636292 
L 134.98762 114.871438 
L 135.830603 114.824409 
L 136.410155 114.77738 
L 136.937019 114.77738 
L 138.41224 115.435788 
L 139.46597 114.824409 
L 140.256267 114.871438 
L 140.467012 114.871438 
L 141.204623 114.683321 
L 142.311039 114.636292 
L 143.470141 115.529847 
L 144.260438 115.482818 
L 145.41954 115.153613 
L 146.947448 115.294701 
L 149.054906 115.388759 
L 150.898933 114.965496 
L 152.479527 115.059555 
L 155.429969 115.106584 
L 156.694444 114.73035 
L 160.119064 114.918467 
L 162.331896 114.542233 
L 163.701744 114.307087 
L 164.544727 114.213029 
L 167.863975 114.071941 
L 169.708001 113.836795 
L 171.604714 113.601649 
L 175.345453 112.99027 
L 178.82276 113.507591 
L 179.402311 113.460562 
L 180.087235 113.460562 
L 181.140964 113.460562 
L 181.983948 113.413532 
L 184.565584 112.237802 
L 189.728858 110.920984 
L 190.729901 110.826926 
L 195.577056 110.497721 
L 196.683472 109.9804 
L 197.789887 109.9804 
L 199.581227 108.898728 
L 201.056448 108.945757 
L 202.478983 108.334378 
L 203.374653 108.146261 
L 206.272408 108.146261 
L 209.275537 107.958144 
L 210.750758 107.817056 
L 211.804487 107.440823 
L 213.121649 108.099232 
L 214.228065 107.770027 
L 215.545226 107.064589 
L 218.653728 106.500239 
L 220.287008 106.40618 
L 221.867602 106.218063 
L 223.500883 106.171034 
L 225.081477 106.171034 
L 226.714757 106.171034 
L 228.348038 106.171034 
L 229.875945 106.171034 
L 231.509226 106.124005 
L 233.08982 106.124005 
L 234.7231 105.747771 
L 236.303694 105.653713 
L 237.936975 105.418567 
L 239.570255 105.23045 
L 241.150849 105.042333 
L 242.784129 104.713129 
L 244.364723 104.477983 
L 245.998004 104.477983 
L 247.631284 104.289866 
L 249.106505 104.242836 
L 250.739786 104.195807 
L 252.32038 104.00769 
L 253.95366 103.866603 
L 255.534254 103.584428 
L 257.167535 103.490369 
L 258.800815 103.208194 
L 260.381409 103.161165 
L 262.014689 102.878989 
L 263.595283 102.784931 
L 265.228564 102.596814 
L 266.861844 102.596814 
L 268.337065 102.596814 
L 269.970346 102.596814 
L 271.55094 102.549785 
L 273.18422 102.455726 
L 274.764814 102.549785 
L 276.398095 102.502756 
L 278.031375 102.26761 
L 279.611969 102.079493 
L 281.24525 101.938405 
L 282.825844 101.609201 
L 284.459124 101.65623 
L 286.092404 101.515142 
L 287.567625 101.421084 
L 289.200906 101.327025 
L 290.7815 101.374055 
L 292.41478 100.621587 
L 293.995374 100.668617 
L 295.628655 100.621587 
L 297.261935 100.668617 
L 298.842529 100.668617 
L 300.47581 100.621587 
L 302.056404 100.574558 
L 303.689684 100.43347 
L 305.322964 100.43347 
L 306.850872 100.386441 
L 308.484152 100.386441 
L 310.064746 100.292383 
L 311.698027 100.245354 
L 313.278621 100.245354 
L 314.911901 100.198324 
L 316.545182 100.010208 
L 318.125776 100.151295 
L 319.759056 100.151295 
L 321.33965 99.633974 
L 322.972931 99.398828 
L 324.606211 100.339412 
L 326.081432 100.43347 
L 327.714713 100.057237 
L 329.295306 100.057237 
L 330.928587 99.539915 
L 332.509181 98.08201 
L 334.142461 95.495403 
L 335.775742 95.11917 
L 337.356336 94.460761 
L 338.989616 94.413732 
L 340.57021 94.272644 
L 342.203491 94.178586 
L 343.836771 94.272644 
L 345.311992 94.131556 
L 346.945273 93.755323 
L 348.525867 93.708293 
L 350.159147 93.661264 
L 351.739741 93.661264 
L 353.373021 93.661264 
L 355.006302 93.614235 
L 356.586896 93.614235 
L 358.220176 93.614235 
L 359.80077 93.520177 
L 361.434051 93.520177 
L 363.067331 93.426118 
L 364.542552 93.426118 
L 366.175833 93.379089 
L 367.756427 93.379089 
L 369.389707 93.520177 
L 370.970301 93.520177 
L 372.603582 93.473147 
L 374.236862 93.520177 
L 375.817456 93.473147 
L 377.450736 93.473147 
L 379.03133 93.473147 
L 380.664611 93.473147 
L 382.297891 93.473147 
L 383.825799 93.567206 
L 385.459079 93.520177 
L 387.039673 93.567206 
L 388.672954 93.708293 
L 390.253548 93.661264 
L 391.886828 93.614235 
L 393.520108 93.614235 
L 395.100702 93.520177 
L 396.733983 93.473147 
L 398.314577 93.379089 
L 399.947857 93.379089 
L 401.581138 93.33206 
L 403.056359 93.143943 
L 404.689639 92.908797 
L 406.270233 92.767709 
L 407.903514 92.814738 
L 409.484108 92.767709 
L 411.117388 92.72068 
L 412.750669 92.673651 
L 414.331263 92.626622 
L 415.964543 92.485534 
L 417.545137 92.532563 
L 419.178417 92.391476 
L 420.811698 92.391476 
L 422.286919 92.297417 
L 423.920199 92.250388 
L 425.500793 92.250388 
L 427.134074 92.297417 
L 428.714668 92.062271 
L 430.347948 92.062271 
L 431.981229 92.015242 
L 433.561823 92.156329 
L 435.195103 92.1093 
L 436.775697 92.1093 
L 438.408977 92.015242 
L 440.042258 91.874154 
L 441.517479 91.686037 
L 443.150759 91.639008 
L 444.731353 91.639008 
L 446.364634 91.497921 
L 447.945228 91.215745 
L 449.578508 90.886541 
L 449.578508 73.767908 
L 449.578508 73.767908 
L 447.945228 73.861967 
L 446.364634 73.861967 
L 444.731353 73.861967 
L 443.150759 73.861967 
L 441.517479 73.861967 
L 440.042258 73.908996 
L 438.408977 73.908996 
L 436.775697 74.003054 
L 435.195103 74.003054 
L 433.561823 74.050084 
L 431.981229 74.050084 
L 430.347948 74.050084 
L 428.714668 74.050084 
L 427.134074 74.144142 
L 425.500793 74.2382 
L 423.920199 74.2382 
L 422.286919 74.2382 
L 420.811698 74.2382 
L 419.178417 74.2382 
L 417.545137 74.28523 
L 415.964543 74.2382 
L 414.331263 74.332259 
L 412.750669 74.332259 
L 411.117388 74.332259 
L 409.484108 74.379288 
L 407.903514 74.379288 
L 406.270233 74.379288 
L 404.689639 74.426317 
L 403.056359 74.473346 
L 401.581138 74.520376 
L 399.947857 74.520376 
L 398.314577 74.473346 
L 396.733983 74.473346 
L 395.100702 74.473346 
L 393.520108 74.426317 
L 391.886828 74.426317 
L 390.253548 74.473346 
L 388.672954 74.473346 
L 387.039673 74.379288 
L 385.459079 74.332259 
L 383.825799 74.332259 
L 382.297891 74.379288 
L 380.664611 74.379288 
L 379.03133 74.379288 
L 377.450736 74.379288 
L 375.817456 74.379288 
L 374.236862 74.379288 
L 372.603582 74.379288 
L 370.970301 74.379288 
L 369.389707 74.379288 
L 367.756427 74.28523 
L 366.175833 74.28523 
L 364.542552 74.28523 
L 363.067331 74.28523 
L 361.434051 74.2382 
L 359.80077 74.2382 
L 358.220176 74.332259 
L 356.586896 74.332259 
L 355.006302 74.332259 
L 353.373021 74.379288 
L 351.739741 74.379288 
L 350.159147 74.379288 
L 348.525867 74.426317 
L 346.945273 74.473346 
L 345.311992 74.567405 
L 343.836771 74.567405 
L 342.203491 74.567405 
L 340.57021 74.755522 
L 338.989616 74.755522 
L 337.356336 74.755522 
L 335.775742 74.614434 
L 334.142461 74.661463 
L 332.509181 74.896609 
L 330.928587 76.02531 
L 329.295306 76.213427 
L 327.714713 76.260456 
L 326.081432 76.307486 
L 324.606211 76.307486 
L 322.972931 76.307486 
L 321.33965 76.307486 
L 319.759056 76.354515 
L 318.125776 76.354515 
L 316.545182 76.401544 
L 314.911901 76.448573 
L 313.278621 76.495603 
L 311.698027 76.495603 
L 310.064746 76.495603 
L 308.484152 76.495603 
L 306.850872 76.495603 
L 305.322964 76.542632 
L 303.689684 76.542632 
L 302.056404 76.589661 
L 300.47581 76.63669 
L 298.842529 76.63669 
L 297.261935 76.63669 
L 295.628655 76.63669 
L 293.995374 76.63669 
L 292.41478 76.63669 
L 290.7815 76.63669 
L 289.200906 76.63669 
L 287.567625 76.730749 
L 286.092404 76.730749 
L 284.459124 76.730749 
L 282.825844 76.777778 
L 281.24525 76.777778 
L 279.611969 76.824807 
L 278.031375 77.012924 
L 276.398095 78.141625 
L 274.764814 78.141625 
L 273.18422 78.141625 
L 271.55094 78.235683 
L 269.970346 78.235683 
L 268.337065 78.235683 
L 266.861844 78.235683 
L 265.228564 78.235683 
L 263.595283 78.235683 
L 262.014689 78.329742 
L 260.381409 78.235683 
L 258.800815 78.282713 
L 257.167535 78.376771 
L 255.534254 78.470829 
L 253.95366 78.705975 
L 252.32038 78.753005 
L 250.739786 78.753005 
L 249.106505 78.753005 
L 247.631284 78.753005 
L 245.998004 78.847063 
L 244.364723 78.847063 
L 242.784129 78.941121 
L 241.150849 78.941121 
L 239.570255 78.800034 
L 237.936975 78.894092 
L 236.303694 78.894092 
L 234.7231 78.894092 
L 233.08982 78.941121 
L 231.509226 78.941121 
L 229.875945 78.941121 
L 228.348038 78.988151 
L 226.714757 78.988151 
L 225.081477 79.03518 
L 223.500883 78.988151 
L 221.867602 78.988151 
L 220.287008 79.082209 
L 218.653728 79.129238 
L 215.545226 79.458443 
L 214.228065 80.163881 
L 213.121649 80.493085 
L 211.804487 79.740618 
L 210.750758 80.351998 
L 209.275537 80.399027 
L 206.272408 81.480699 
L 203.374653 81.480699 
L 202.478983 81.43367 
L 201.056448 81.621786 
L 199.581227 81.621786 
L 197.789887 81.715845 
L 196.683472 81.715845 
L 195.577056 81.762874 
L 190.729901 81.950991 
L 189.728858 81.950991 
L 184.565584 83.17375 
L 181.983948 83.314838 
L 181.140964 83.361867 
L 180.087235 83.502955 
L 179.402311 83.502955 
L 178.82276 83.502955 
L 175.345453 83.502955 
L 171.604714 83.78513 
L 169.708001 83.926218 
L 167.863975 83.973247 
L 164.544727 84.067305 
L 163.701744 84.208393 
L 162.331896 84.443539 
L 160.119064 84.725714 
L 156.694444 84.913831 
L 155.429969 85.666298 
L 152.479527 85.713328 
L 150.898933 86.042532 
L 149.054906 86.418766 
L 146.947448 86.512824 
L 145.41954 86.512824 
L 144.260438 86.512824 
L 143.470141 86.512824 
L 142.311039 86.700941 
L 141.204623 86.889058 
L 140.467012 87.030146 
L 140.256267 87.030146 
L 139.46597 86.983116 
L 138.41224 87.641525 
L 136.937019 87.077175 
L 136.410155 87.077175 
L 135.830603 87.171233 
L 134.98762 87.171233 
L 134.197323 87.171233 
L 133.459713 87.876671 
L 132.405983 87.876671 
L 132.037178 87.312321 
L 131.036135 88.017759 
L 129.77166 89.334577 
L 128.823303 90.416249 
L 128.296439 90.463278 
L 127.400769 90.463278 
L 126.821218 90.510307 
L 125.925548 91.215745 
L 125.187937 90.557336 
L 124.292267 90.557336 
L 120.814961 90.886541 
L 120.551528 90.93357 
L 118.44407 90.980599 
L 113.860347 87.876671 
L 111.384083 91.168716 
L 101.795146 93.426118 
L 86.358012 95.730549 
L 65.388798 97.329543 
L 47.317341 99.728032 
L 38.518701 102.549785 
L 29.614688 102.032464 
z
" clip-path="url(#p444acfb7d0)" style="fill: #f0edbf"/>
   </g>
   <g id="PolyCollection_4">
    <path d="M 29.614688 73.485733 
L 29.614688 102.032464 
L 38.518701 102.549785 
L 47.317341 99.728032 
L 65.388798 97.329543 
L 86.358012 95.730549 
L 101.795146 93.426118 
L 111.384083 91.168716 
L 113.860347 87.876671 
L 118.44407 90.980599 
L 120.551528 90.93357 
L 120.814961 90.886541 
L 124.292267 90.557336 
L 125.187937 90.557336 
L 125.925548 91.215745 
L 126.821218 90.510307 
L 127.400769 90.463278 
L 128.296439 90.463278 
L 128.823303 90.416249 
L 129.77166 89.334577 
L 131.036135 88.017759 
L 132.037178 87.312321 
L 132.405983 87.876671 
L 133.459713 87.876671 
L 134.197323 87.171233 
L 134.98762 87.171233 
L 135.830603 87.171233 
L 136.410155 87.077175 
L 136.937019 87.077175 
L 138.41224 87.641525 
L 139.46597 86.983116 
L 140.256267 87.030146 
L 140.467012 87.030146 
L 141.204623 86.889058 
L 142.311039 86.700941 
L 143.470141 86.512824 
L 144.260438 86.512824 
L 145.41954 86.512824 
L 146.947448 86.512824 
L 149.054906 86.418766 
L 150.898933 86.042532 
L 152.479527 85.713328 
L 155.429969 85.666298 
L 156.694444 84.913831 
L 160.119064 84.725714 
L 162.331896 84.443539 
L 163.701744 84.208393 
L 164.544727 84.067305 
L 167.863975 83.973247 
L 169.708001 83.926218 
L 171.604714 83.78513 
L 175.345453 83.502955 
L 178.82276 83.502955 
L 179.402311 83.502955 
L 180.087235 83.502955 
L 181.140964 83.361867 
L 181.983948 83.314838 
L 184.565584 83.17375 
L 189.728858 81.950991 
L 190.729901 81.950991 
L 195.577056 81.762874 
L 196.683472 81.715845 
L 197.789887 81.715845 
L 199.581227 81.621786 
L 201.056448 81.621786 
L 202.478983 81.43367 
L 203.374653 81.480699 
L 206.272408 81.480699 
L 209.275537 80.399027 
L 210.750758 80.351998 
L 211.804487 79.740618 
L 213.121649 80.493085 
L 214.228065 80.163881 
L 215.545226 79.458443 
L 218.653728 79.129238 
L 220.287008 79.082209 
L 221.867602 78.988151 
L 223.500883 78.988151 
L 225.081477 79.03518 
L 226.714757 78.988151 
L 228.348038 78.988151 
L 229.875945 78.941121 
L 231.509226 78.941121 
L 233.08982 78.941121 
L 234.7231 78.894092 
L 236.303694 78.894092 
L 237.936975 78.894092 
L 239.570255 78.800034 
L 241.150849 78.941121 
L 242.784129 78.941121 
L 244.364723 78.847063 
L 245.998004 78.847063 
L 247.631284 78.753005 
L 249.106505 78.753005 
L 250.739786 78.753005 
L 252.32038 78.753005 
L 253.95366 78.705975 
L 255.534254 78.470829 
L 257.167535 78.376771 
L 258.800815 78.282713 
L 260.381409 78.235683 
L 262.014689 78.329742 
L 263.595283 78.235683 
L 265.228564 78.235683 
L 266.861844 78.235683 
L 268.337065 78.235683 
L 269.970346 78.235683 
L 271.55094 78.235683 
L 273.18422 78.141625 
L 274.764814 78.141625 
L 276.398095 78.141625 
L 278.031375 77.012924 
L 279.611969 76.824807 
L 281.24525 76.777778 
L 282.825844 76.777778 
L 284.459124 76.730749 
L 286.092404 76.730749 
L 287.567625 76.730749 
L 289.200906 76.63669 
L 290.7815 76.63669 
L 292.41478 76.63669 
L 293.995374 76.63669 
L 295.628655 76.63669 
L 297.261935 76.63669 
L 298.842529 76.63669 
L 300.47581 76.63669 
L 302.056404 76.589661 
L 303.689684 76.542632 
L 305.322964 76.542632 
L 306.850872 76.495603 
L 308.484152 76.495603 
L 310.064746 76.495603 
L 311.698027 76.495603 
L 313.278621 76.495603 
L 314.911901 76.448573 
L 316.545182 76.401544 
L 318.125776 76.354515 
L 319.759056 76.354515 
L 321.33965 76.307486 
L 322.972931 76.307486 
L 324.606211 76.307486 
L 326.081432 76.307486 
L 327.714713 76.260456 
L 329.295306 76.213427 
L 330.928587 76.02531 
L 332.509181 74.896609 
L 334.142461 74.661463 
L 335.775742 74.614434 
L 337.356336 74.755522 
L 338.989616 74.755522 
L 340.57021 74.755522 
L 342.203491 74.567405 
L 343.836771 74.567405 
L 345.311992 74.567405 
L 346.945273 74.473346 
L 348.525867 74.426317 
L 350.159147 74.379288 
L 351.739741 74.379288 
L 353.373021 74.379288 
L 355.006302 74.332259 
L 356.586896 74.332259 
L 358.220176 74.332259 
L 359.80077 74.2382 
L 361.434051 74.2382 
L 363.067331 74.28523 
L 364.542552 74.28523 
L 366.175833 74.28523 
L 367.756427 74.28523 
L 369.389707 74.379288 
L 370.970301 74.379288 
L 372.603582 74.379288 
L 374.236862 74.379288 
L 375.817456 74.379288 
L 377.450736 74.379288 
L 379.03133 74.379288 
L 380.664611 74.379288 
L 382.297891 74.379288 
L 383.825799 74.332259 
L 385.459079 74.332259 
L 387.039673 74.379288 
L 388.672954 74.473346 
L 390.253548 74.473346 
L 391.886828 74.426317 
L 393.520108 74.426317 
L 395.100702 74.473346 
L 396.733983 74.473346 
L 398.314577 74.473346 
L 399.947857 74.520376 
L 401.581138 74.520376 
L 403.056359 74.473346 
L 404.689639 74.426317 
L 406.270233 74.379288 
L 407.903514 74.379288 
L 409.484108 74.379288 
L 411.117388 74.332259 
L 412.750669 74.332259 
L 414.331263 74.332259 
L 415.964543 74.2382 
L 417.545137 74.28523 
L 419.178417 74.2382 
L 420.811698 74.2382 
L 422.286919 74.2382 
L 423.920199 74.2382 
L 425.500793 74.2382 
L 427.134074 74.144142 
L 428.714668 74.050084 
L 430.347948 74.050084 
L 431.981229 74.050084 
L 433.561823 74.050084 
L 435.195103 74.003054 
L 436.775697 74.003054 
L 438.408977 73.908996 
L 440.042258 73.908996 
L 441.517479 73.861967 
L 443.150759 73.861967 
L 444.731353 73.861967 
L 446.364634 73.861967 
L 447.945228 73.861967 
L 449.578508 73.767908 
L 449.578508 61.493284 
L 449.578508 61.493284 
L 447.945228 61.493284 
L 446.364634 61.493284 
L 444.731353 61.493284 
L 443.150759 61.493284 
L 441.517479 61.493284 
L 440.042258 61.728431 
L 438.408977 61.77546 
L 436.775697 61.822489 
L 435.195103 61.822489 
L 433.561823 61.822489 
L 431.981229 61.822489 
L 430.347948 61.822489 
L 428.714668 61.822489 
L 427.134074 61.822489 
L 425.500793 61.822489 
L 423.920199 61.822489 
L 422.286919 61.869518 
L 420.811698 61.822489 
L 419.178417 61.822489 
L 417.545137 61.869518 
L 415.964543 61.540314 
L 414.331263 61.540314 
L 412.750669 61.117051 
L 411.117388 61.117051 
L 409.484108 61.117051 
L 407.903514 61.117051 
L 406.270233 61.117051 
L 404.689639 61.117051 
L 403.056359 61.16408 
L 401.581138 61.16408 
L 399.947857 61.16408 
L 398.314577 61.117051 
L 396.733983 61.117051 
L 395.100702 61.117051 
L 393.520108 61.16408 
L 391.886828 61.16408 
L 390.253548 61.16408 
L 388.672954 61.16408 
L 387.039673 61.070022 
L 385.459079 61.022992 
L 383.825799 61.022992 
L 382.297891 61.022992 
L 380.664611 61.022992 
L 379.03133 61.022992 
L 377.450736 61.022992 
L 375.817456 61.022992 
L 374.236862 61.022992 
L 372.603582 61.022992 
L 370.970301 61.022992 
L 369.389707 61.022992 
L 367.756427 60.928934 
L 366.175833 60.928934 
L 364.542552 60.928934 
L 363.067331 60.928934 
L 361.434051 60.928934 
L 359.80077 60.928934 
L 358.220176 60.928934 
L 356.586896 60.928934 
L 355.006302 60.928934 
L 353.373021 60.881905 
L 351.739741 60.881905 
L 350.159147 60.881905 
L 348.525867 60.881905 
L 346.945273 60.881905 
L 345.311992 60.881905 
L 343.836771 60.881905 
L 342.203491 60.881905 
L 340.57021 60.881905 
L 338.989616 60.881905 
L 337.356336 60.881905 
L 335.775742 60.881905 
L 334.142461 60.881905 
L 332.509181 60.881905 
L 330.928587 60.881905 
L 329.295306 60.881905 
L 327.714713 60.881905 
L 326.081432 60.881905 
L 324.606211 60.881905 
L 322.972931 60.881905 
L 321.33965 60.881905 
L 319.759056 60.881905 
L 318.125776 60.881905 
L 316.545182 60.881905 
L 314.911901 60.881905 
L 313.278621 60.881905 
L 311.698027 60.881905 
L 310.064746 60.881905 
L 308.484152 60.881905 
L 306.850872 61.305168 
L 305.322964 61.352197 
L 303.689684 61.352197 
L 302.056404 61.352197 
L 300.47581 61.540314 
L 298.842529 61.540314 
L 297.261935 61.540314 
L 295.628655 61.540314 
L 293.995374 61.540314 
L 292.41478 61.540314 
L 290.7815 61.540314 
L 289.200906 61.540314 
L 287.567625 61.540314 
L 286.092404 61.540314 
L 284.459124 61.540314 
L 282.825844 61.587343 
L 281.24525 61.587343 
L 279.611969 61.587343 
L 278.031375 61.587343 
L 276.398095 61.258138 
L 274.764814 61.446255 
L 273.18422 61.399226 
L 271.55094 61.399226 
L 269.970346 61.399226 
L 268.337065 61.399226 
L 266.861844 61.399226 
L 265.228564 61.399226 
L 263.595283 61.399226 
L 262.014689 61.446255 
L 260.381409 61.446255 
L 258.800815 61.446255 
L 257.167535 61.399226 
L 255.534254 61.399226 
L 253.95366 61.399226 
L 252.32038 61.399226 
L 250.739786 61.399226 
L 249.106505 61.399226 
L 247.631284 61.399226 
L 245.998004 61.399226 
L 244.364723 61.399226 
L 242.784129 61.399226 
L 241.150849 61.446255 
L 239.570255 61.399226 
L 237.936975 61.446255 
L 236.303694 61.399226 
L 234.7231 61.399226 
L 233.08982 61.399226 
L 231.509226 61.399226 
L 229.875945 61.399226 
L 228.348038 61.399226 
L 226.714757 61.446255 
L 225.081477 61.446255 
L 223.500883 61.399226 
L 221.867602 61.399226 
L 220.287008 61.399226 
L 218.653728 61.493284 
L 215.545226 61.822489 
L 214.228065 62.621986 
L 213.121649 62.716044 
L 211.804487 61.963577 
L 210.750758 63.797716 
L 209.275537 63.797716 
L 206.272408 65.490767 
L 203.374653 65.490767 
L 202.478983 65.443738 
L 201.056448 65.631855 
L 199.581227 65.584826 
L 197.789887 65.584826 
L 196.683472 65.584826 
L 195.577056 65.584826 
L 190.729901 65.961059 
L 189.728858 65.961059 
L 184.565584 66.196206 
L 181.983948 66.149176 
L 181.140964 66.149176 
L 180.087235 66.243235 
L 179.402311 66.243235 
L 178.82276 66.243235 
L 175.345453 66.901644 
L 171.604714 67.042731 
L 169.708001 67.042731 
L 167.863975 67.042731 
L 164.544727 67.042731 
L 163.701744 66.995702 
L 162.331896 66.995702 
L 160.119064 66.854614 
L 156.694444 66.807585 
L 155.429969 68.030345 
L 152.479527 68.171432 
L 150.898933 68.31252 
L 149.054906 68.171432 
L 146.947448 68.171432 
L 145.41954 68.124403 
L 144.260438 68.124403 
L 143.470141 68.124403 
L 142.311039 68.077374 
L 141.204623 68.077374 
L 140.467012 68.124403 
L 140.256267 68.124403 
L 139.46597 68.124403 
L 138.41224 68.641724 
L 136.937019 68.124403 
L 136.410155 68.124403 
L 135.830603 68.171432 
L 134.98762 68.077374 
L 134.197323 68.077374 
L 133.459713 68.547666 
L 132.405983 68.453608 
L 132.037178 67.936286 
L 131.036135 68.594695 
L 129.77166 68.406578 
L 128.823303 68.453608 
L 128.296439 68.453608 
L 127.400769 68.453608 
L 126.821218 68.500637 
L 125.925548 69.112017 
L 125.187937 68.453608 
L 124.292267 68.453608 
L 120.814961 69.629338 
L 120.551528 69.676367 
L 118.44407 69.629338 
L 113.860347 68.547666 
L 111.384083 69.629338 
L 101.795146 70.569922 
L 86.358012 71.087243 
L 65.388798 71.933769 
L 47.317341 72.45109 
L 38.518701 73.67385 
L 29.614688 73.485733 
z
" clip-path="url(#p444acfb7d0)" style="fill: #88bb92"/>
   </g>
   <g id="matplotlib.axis_1">
    <g id="xtick_1">
     <g id="line2d_1">
      <defs>
       <path id="mcf5341e60b" d="M 0 0 
L 0 3.5 
" style="stroke: #000000; stroke-width: 0.8"/>
      </defs>
      <g>
       <use xlink:href="#mcf5341e60b" x="72.764904" y="299.32" style="stroke: #000000; stroke-width: 0.8"/>
      </g>
     </g>
     <g id="text_1">
      <!-- 2004 -->
      <g transform="translate(60.039904 313.918437) scale(0.1 -0.1)">
       <defs>
        <path id="DejaVuSans-32" d="M 1228 531 
L 3431 531 
L 3431 0 
L 469 0 
L 469 531 
Q 828 903 1448 1529 
Q 2069 2156 2228 2338 
Q 2531 2678 2651 2914 
Q 2772 3150 2772 3378 
Q 2772 3750 2511 3984 
Q 2250 4219 1831 4219 
Q 1534 4219 1204 4116 
Q 875 4013 500 3803 
L 500 4441 
Q 881 4594 1212 4672 
Q 1544 4750 1819 4750 
Q 2544 4750 2975 4387 
Q 3406 4025 3406 3419 
Q 3406 3131 3298 2873 
Q 3191 2616 2906 2266 
Q 2828 2175 2409 1742 
Q 1991 1309 1228 531 
z
" transform="scale(0.015625)"/>
        <path id="DejaVuSans-30" d="M 2034 4250 
Q 1547 4250 1301 3770 
Q 1056 3291 1056 2328 
Q 1056 1369 1301 889 
Q 1547 409 2034 409 
Q 2525 409 2770 889 
Q 3016 1369 3016 2328 
Q 3016 3291 2770 3770 
Q 2525 4250 2034 4250 
z
M 2034 4750 
Q 2819 4750 3233 4129 
Q 3647 3509 3647 2328 
Q 3647 1150 3233 529 
Q 2819 -91 2034 -91 
Q 1250 -91 836 529 
Q 422 1150 422 2328 
Q 422 3509 836 4129 
Q 1250 4750 2034 4750 
z
" transform="scale(0.015625)"/>
        <path id="DejaVuSans-34" d="M 2419 4116 
L 825 1625 
L 2419 1625 
L 2419 4116 
z
M 2253 4666 
L 3047 4666 
L 3047 1625 
L 3713 1625 
L 3713 1100 
L 3047 1100 
L 3047 0 
L 2419 0 
L 2419 1100 
L 313 1100 
L 313 1709 
L 2253 4666 
z
" transform="scale(0.015625)"/>
       </defs>
       <use xlink:href="#DejaVuSans-32"/>
       <use xlink:href="#DejaVuSans-30" x="63.623047"/>
       <use xlink:href="#DejaVuSans-30" x="127.246094"/>
       <use xlink:href="#DejaVuSans-34" x="190.869141"/>
      </g>
     </g>
    </g>
    <g id="xtick_2">
     <g id="line2d_2">
      <g>
       <use xlink:href="#mcf5341e60b" x="111.27871" y="299.32" style="stroke: #000000; stroke-width: 0.8"/>
      </g>
     </g>
     <g id="text_2">
      <!-- 2006 -->
      <g transform="translate(98.55371 313.918437) scale(0.1 -0.1)">
       <defs>
        <path id="DejaVuSans-36" d="M 2113 2584 
Q 1688 2584 1439 2293 
Q 1191 2003 1191 1497 
Q 1191 994 1439 701 
Q 1688 409 2113 409 
Q 2538 409 2786 701 
Q 3034 994 3034 1497 
Q 3034 2003 2786 2293 
Q 2538 2584 2113 2584 
z
M 3366 4563 
L 3366 3988 
Q 3128 4100 2886 4159 
Q 2644 4219 2406 4219 
Q 1781 4219 1451 3797 
Q 1122 3375 1075 2522 
Q 1259 2794 1537 2939 
Q 1816 3084 2150 3084 
Q 2853 3084 3261 2657 
Q 3669 2231 3669 1497 
Q 3669 778 3244 343 
Q 2819 -91 2113 -91 
Q 1303 -91 875 529 
Q 447 1150 447 2328 
Q 447 3434 972 4092 
Q 1497 4750 2381 4750 
Q 2619 4750 2861 4703 
Q 3103 4656 3366 4563 
z
" transform="scale(0.015625)"/>
       </defs>
       <use xlink:href="#DejaVuSans-32"/>
       <use xlink:href="#DejaVuSans-30" x="63.623047"/>
       <use xlink:href="#DejaVuSans-30" x="127.246094"/>
       <use xlink:href="#DejaVuSans-36" x="190.869141"/>
      </g>
     </g>
    </g>
    <g id="xtick_3">
     <g id="line2d_3">
      <g>
       <use xlink:href="#mcf5341e60b" x="149.73983" y="299.32" style="stroke: #000000; stroke-width: 0.8"/>
      </g>
     </g>
     <g id="text_3">
      <!-- 2008 -->
      <g transform="translate(137.01483 313.918437) scale(0.1 -0.1)">
       <defs>
        <path id="DejaVuSans-38" d="M 2034 2216 
Q 1584 2216 1326 1975 
Q 1069 1734 1069 1313 
Q 1069 891 1326 650 
Q 1584 409 2034 409 
Q 2484 409 2743 651 
Q 3003 894 3003 1313 
Q 3003 1734 2745 1975 
Q 2488 2216 2034 2216 
z
M 1403 2484 
Q 997 2584 770 2862 
Q 544 3141 544 3541 
Q 544 4100 942 4425 
Q 1341 4750 2034 4750 
Q 2731 4750 3128 4425 
Q 3525 4100 3525 3541 
Q 3525 3141 3298 2862 
Q 3072 2584 2669 2484 
Q 3125 2378 3379 2068 
Q 3634 1759 3634 1313 
Q 3634 634 3220 271 
Q 2806 -91 2034 -91 
Q 1263 -91 848 271 
Q 434 634 434 1313 
Q 434 1759 690 2068 
Q 947 2378 1403 2484 
z
M 1172 3481 
Q 1172 3119 1398 2916 
Q 1625 2713 2034 2713 
Q 2441 2713 2670 2916 
Q 2900 3119 2900 3481 
Q 2900 3844 2670 4047 
Q 2441 4250 2034 4250 
Q 1625 4250 1398 4047 
Q 1172 3844 1172 3481 
z
" transform="scale(0.015625)"/>
       </defs>
       <use xlink:href="#DejaVuSans-32"/>
       <use xlink:href="#DejaVuSans-30" x="63.623047"/>
       <use xlink:href="#DejaVuSans-30" x="127.246094"/>
       <use xlink:href="#DejaVuSans-38" x="190.869141"/>
      </g>
     </g>
    </g>
    <g id="xtick_4">
     <g id="line2d_4">
      <g>
       <use xlink:href="#mcf5341e60b" x="188.253637" y="299.32" style="stroke: #000000; stroke-width: 0.8"/>
      </g>
     </g>
     <g id="text_4">
      <!-- 2010 -->
      <g transform="translate(175.528637 313.918437) scale(0.1 -0.1)">
       <defs>
        <path id="DejaVuSans-31" d="M 794 531 
L 1825 531 
L 1825 4091 
L 703 3866 
L 703 4441 
L 1819 4666 
L 2450 4666 
L 2450 531 
L 3481 531 
L 3481 0 
L 794 0 
L 794 531 
z
" transform="scale(0.015625)"/>
       </defs>
       <use xlink:href="#DejaVuSans-32"/>
       <use xlink:href="#DejaVuSans-30" x="63.623047"/>
       <use xlink:href="#DejaVuSans-31" x="127.246094"/>
       <use xlink:href="#DejaVuSans-30" x="190.869141"/>
      </g>
     </g>
    </g>
    <g id="xtick_5">
     <g id="line2d_5">
      <g>
       <use xlink:href="#mcf5341e60b" x="226.714757" y="299.32" style="stroke: #000000; stroke-width: 0.8"/>
      </g>
     </g>
     <g id="text_5">
      <!-- 2012 -->
      <g transform="translate(213.989757 313.918437) scale(0.1 -0.1)">
       <use xlink:href="#DejaVuSans-32"/>
       <use xlink:href="#DejaVuSans-30" x="63.623047"/>
       <use xlink:href="#DejaVuSans-31" x="127.246094"/>
       <use xlink:href="#DejaVuSans-32" x="190.869141"/>
      </g>
     </g>
    </g>
    <g id="xtick_6">
     <g id="line2d_6">
      <g>
       <use xlink:href="#mcf5341e60b" x="265.228564" y="299.32" style="stroke: #000000; stroke-width: 0.8"/>
      </g>
     </g>
     <g id="text_6">
      <!-- 2014 -->
      <g transform="translate(252.503564 313.918437) scale(0.1 -0.1)">
       <use xlink:href="#DejaVuSans-32"/>
       <use xlink:href="#DejaVuSans-30" x="63.623047"/>
       <use xlink:href="#DejaVuSans-31" x="127.246094"/>
       <use xlink:href="#DejaVuSans-34" x="190.869141"/>
      </g>
     </g>
    </g>
    <g id="xtick_7">
     <g id="line2d_7">
      <g>
       <use xlink:href="#mcf5341e60b" x="303.689684" y="299.32" style="stroke: #000000; stroke-width: 0.8"/>
      </g>
     </g>
     <g id="text_7">
      <!-- 2016 -->
      <g transform="translate(290.964684 313.918437) scale(0.1 -0.1)">
       <use xlink:href="#DejaVuSans-32"/>
       <use xlink:href="#DejaVuSans-30" x="63.623047"/>
       <use xlink:href="#DejaVuSans-31" x="127.246094"/>
       <use xlink:href="#DejaVuSans-36" x="190.869141"/>
      </g>
     </g>
    </g>
    <g id="xtick_8">
     <g id="line2d_8">
      <g>
       <use xlink:href="#mcf5341e60b" x="342.203491" y="299.32" style="stroke: #000000; stroke-width: 0.8"/>
      </g>
     </g>
     <g id="text_8">
      <!-- 2018 -->
      <g transform="translate(329.478491 313.918437) scale(0.1 -0.1)">
       <use xlink:href="#DejaVuSans-32"/>
       <use xlink:href="#DejaVuSans-30" x="63.623047"/>
       <use xlink:href="#DejaVuSans-31" x="127.246094"/>
       <use xlink:href="#DejaVuSans-38" x="190.869141"/>
      </g>
     </g>
    </g>
    <g id="xtick_9">
     <g id="line2d_9">
      <g>
       <use xlink:href="#mcf5341e60b" x="380.664611" y="299.32" style="stroke: #000000; stroke-width: 0.8"/>
      </g>
     </g>
     <g id="text_9">
      <!-- 2020 -->
      <g transform="translate(367.939611 313.918437) scale(0.1 -0.1)">
       <use xlink:href="#DejaVuSans-32"/>
       <use xlink:href="#DejaVuSans-30" x="63.623047"/>
       <use xlink:href="#DejaVuSans-32" x="127.246094"/>
       <use xlink:href="#DejaVuSans-30" x="190.869141"/>
      </g>
     </g>
    </g>
    <g id="xtick_10">
     <g id="line2d_10">
      <g>
       <use xlink:href="#mcf5341e60b" x="419.178417" y="299.32" style="stroke: #000000; stroke-width: 0.8"/>
      </g>
     </g>
     <g id="text_10">
      <!-- 2022 -->
      <g transform="translate(406.453417 313.918437) scale(0.1 -0.1)">
       <use xlink:href="#DejaVuSans-32"/>
       <use xlink:href="#DejaVuSans-30" x="63.623047"/>
       <use xlink:href="#DejaVuSans-32" x="127.246094"/>
       <use xlink:href="#DejaVuSans-32" x="190.869141"/>
      </g>
     </g>
    </g>
    <g id="text_11">
     <!-- Year -->
     <g transform="translate(239.86375 331.395781) scale(0.15 -0.15)">
      <defs>
       <path id="DejaVuSans-59" d="M -13 4666 
L 666 4666 
L 1959 2747 
L 3244 4666 
L 3922 4666 
L 2272 2222 
L 2272 0 
L 1638 0 
L 1638 2222 
L -13 4666 
z
" transform="scale(0.015625)"/>
       <path id="DejaVuSans-65" d="M 3597 1894 
L 3597 1613 
L 953 1613 
Q 991 1019 1311 708 
Q 1631 397 2203 397 
Q 2534 397 2845 478 
Q 3156 559 3463 722 
L 3463 178 
Q 3153 47 2828 -22 
Q 2503 -91 2169 -91 
Q 1331 -91 842 396 
Q 353 884 353 1716 
Q 353 2575 817 3079 
Q 1281 3584 2069 3584 
Q 2775 3584 3186 3129 
Q 3597 2675 3597 1894 
z
M 3022 2063 
Q 3016 2534 2758 2815 
Q 2500 3097 2075 3097 
Q 1594 3097 1305 2825 
Q 1016 2553 972 2059 
L 3022 2063 
z
" transform="scale(0.015625)"/>
       <path id="DejaVuSans-61" d="M 2194 1759 
Q 1497 1759 1228 1600 
Q 959 1441 959 1056 
Q 959 750 1161 570 
Q 1363 391 1709 391 
Q 2188 391 2477 730 
Q 2766 1069 2766 1631 
L 2766 1759 
L 2194 1759 
z
M 3341 1997 
L 3341 0 
L 2766 0 
L 2766 531 
Q 2569 213 2275 61 
Q 1981 -91 1556 -91 
Q 1019 -91 701 211 
Q 384 513 384 1019 
Q 384 1609 779 1909 
Q 1175 2209 1959 2209 
L 2766 2209 
L 2766 2266 
Q 2766 2663 2505 2880 
Q 2244 3097 1772 3097 
Q 1472 3097 1187 3025 
Q 903 2953 641 2809 
L 641 3341 
Q 956 3463 1253 3523 
Q 1550 3584 1831 3584 
Q 2591 3584 2966 3190 
Q 3341 2797 3341 1997 
z
" transform="scale(0.015625)"/>
       <path id="DejaVuSans-72" d="M 2631 2963 
Q 2534 3019 2420 3045 
Q 2306 3072 2169 3072 
Q 1681 3072 1420 2755 
Q 1159 2438 1159 1844 
L 1159 0 
L 581 0 
L 581 3500 
L 1159 3500 
L 1159 2956 
Q 1341 3275 1631 3429 
Q 1922 3584 2338 3584 
Q 2397 3584 2469 3576 
Q 2541 3569 2628 3553 
L 2631 2963 
z
" transform="scale(0.015625)"/>
      </defs>
      <use xlink:href="#DejaVuSans-59"/>
      <use xlink:href="#DejaVuSans-65" x="47.833984"/>
      <use xlink:href="#DejaVuSans-61" x="109.357422"/>
      <use xlink:href="#DejaVuSans-72" x="170.636719"/>
     </g>
    </g>
   </g>
   <g id="matplotlib.axis_2">
    <g id="ytick_1">
     <g id="line2d_11">
      <defs>
       <path id="mb1b0313d3c" d="M 0 0 
L -3.5 0 
" style="stroke: #000000; stroke-width: 0.8"/>
      </defs>
      <g>
       <use xlink:href="#mb1b0313d3c" x="61.49" y="299.32" style="stroke: #000000; stroke-width: 0.8"/>
      </g>
     </g>
     <g id="text_12">
      <!-- 0 -->
      <g transform="translate(48.1275 303.119219) scale(0.1 -0.1)">
       <use xlink:href="#DejaVuSans-30"/>
      </g>
     </g>
    </g>
    <g id="ytick_2">
     <g id="line2d_12">
      <g>
       <use xlink:href="#mb1b0313d3c" x="61.49" y="252.29079" style="stroke: #000000; stroke-width: 0.8"/>
      </g>
     </g>
     <g id="text_13">
      <!-- 1000 -->
      <g transform="translate(29.04 256.090009) scale(0.1 -0.1)">
       <use xlink:href="#DejaVuSans-31"/>
       <use xlink:href="#DejaVuSans-30" x="63.623047"/>
       <use xlink:href="#DejaVuSans-30" x="127.246094"/>
       <use xlink:href="#DejaVuSans-30" x="190.869141"/>
      </g>
     </g>
    </g>
    <g id="ytick_3">
     <g id="line2d_13">
      <g>
       <use xlink:href="#mb1b0313d3c" x="61.49" y="205.26158" style="stroke: #000000; stroke-width: 0.8"/>
      </g>
     </g>
     <g id="text_14">
      <!-- 2000 -->
      <g transform="translate(29.04 209.060799) scale(0.1 -0.1)">
       <use xlink:href="#DejaVuSans-32"/>
       <use xlink:href="#DejaVuSans-30" x="63.623047"/>
       <use xlink:href="#DejaVuSans-30" x="127.246094"/>
       <use xlink:href="#DejaVuSans-30" x="190.869141"/>
      </g>
     </g>
    </g>
    <g id="ytick_4">
     <g id="line2d_14">
      <g>
       <use xlink:href="#mb1b0313d3c" x="61.49" y="158.23237" style="stroke: #000000; stroke-width: 0.8"/>
      </g>
     </g>
     <g id="text_15">
      <!-- 3000 -->
      <g transform="translate(29.04 162.031588) scale(0.1 -0.1)">
       <defs>
        <path id="DejaVuSans-33" d="M 2597 2516 
Q 3050 2419 3304 2112 
Q 3559 1806 3559 1356 
Q 3559 666 3084 287 
Q 2609 -91 1734 -91 
Q 1441 -91 1130 -33 
Q 819 25 488 141 
L 488 750 
Q 750 597 1062 519 
Q 1375 441 1716 441 
Q 2309 441 2620 675 
Q 2931 909 2931 1356 
Q 2931 1769 2642 2001 
Q 2353 2234 1838 2234 
L 1294 2234 
L 1294 2753 
L 1863 2753 
Q 2328 2753 2575 2939 
Q 2822 3125 2822 3475 
Q 2822 3834 2567 4026 
Q 2313 4219 1838 4219 
Q 1578 4219 1281 4162 
Q 984 4106 628 3988 
L 628 4550 
Q 988 4650 1302 4700 
Q 1616 4750 1894 4750 
Q 2613 4750 3031 4423 
Q 3450 4097 3450 3541 
Q 3450 3153 3228 2886 
Q 3006 2619 2597 2516 
z
" transform="scale(0.015625)"/>
       </defs>
       <use xlink:href="#DejaVuSans-33"/>
       <use xlink:href="#DejaVuSans-30" x="63.623047"/>
       <use xlink:href="#DejaVuSans-30" x="127.246094"/>
       <use xlink:href="#DejaVuSans-30" x="190.869141"/>
      </g>
     </g>
    </g>
    <g id="ytick_5">
     <g id="line2d_15">
      <g>
       <use xlink:href="#mb1b0313d3c" x="61.49" y="111.20316" style="stroke: #000000; stroke-width: 0.8"/>
      </g>
     </g>
     <g id="text_16">
      <!-- 4000 -->
      <g transform="translate(29.04 115.002378) scale(0.1 -0.1)">
       <use xlink:href="#DejaVuSans-34"/>
       <use xlink:href="#DejaVuSans-30" x="63.623047"/>
       <use xlink:href="#DejaVuSans-30" x="127.246094"/>
       <use xlink:href="#DejaVuSans-30" x="190.869141"/>
      </g>
     </g>
    </g>
    <g id="ytick_6">
     <g id="line2d_16">
      <g>
       <use xlink:href="#mb1b0313d3c" x="61.49" y="64.173949" style="stroke: #000000; stroke-width: 0.8"/>
      </g>
     </g>
     <g id="text_17">
      <!-- 5000 -->
      <g transform="translate(29.04 67.973168) scale(0.1 -0.1)">
       <defs>
        <path id="DejaVuSans-35" d="M 691 4666 
L 3169 4666 
L 3169 4134 
L 1269 4134 
L 1269 2991 
Q 1406 3038 1543 3061 
Q 1681 3084 1819 3084 
Q 2600 3084 3056 2656 
Q 3513 2228 3513 1497 
Q 3513 744 3044 326 
Q 2575 -91 1722 -91 
Q 1428 -91 1123 -41 
Q 819 9 494 109 
L 494 744 
Q 775 591 1075 516 
Q 1375 441 1709 441 
Q 2250 441 2565 725 
Q 2881 1009 2881 1497 
Q 2881 1984 2565 2268 
Q 2250 2553 1709 2553 
Q 1456 2553 1204 2497 
Q 953 2441 691 2322 
L 691 4666 
z
" transform="scale(0.015625)"/>
       </defs>
       <use xlink:href="#DejaVuSans-35"/>
       <use xlink:href="#DejaVuSans-30" x="63.623047"/>
       <use xlink:href="#DejaVuSans-30" x="127.246094"/>
       <use xlink:href="#DejaVuSans-30" x="190.869141"/>
      </g>
     </g>
    </g>
    <g id="text_18">
     <!-- Number of genes -->
     <g transform="translate(21.920469 238.916562) rotate(-90) scale(0.15 -0.15)">
      <defs>
       <path id="DejaVuSans-4e" d="M 628 4666 
L 1478 4666 
L 3547 763 
L 3547 4666 
L 4159 4666 
L 4159 0 
L 3309 0 
L 1241 3903 
L 1241 0 
L 628 0 
L 628 4666 
z
" transform="scale(0.015625)"/>
       <path id="DejaVuSans-75" d="M 544 1381 
L 544 3500 
L 1119 3500 
L 1119 1403 
Q 1119 906 1312 657 
Q 1506 409 1894 409 
Q 2359 409 2629 706 
Q 2900 1003 2900 1516 
L 2900 3500 
L 3475 3500 
L 3475 0 
L 2900 0 
L 2900 538 
Q 2691 219 2414 64 
Q 2138 -91 1772 -91 
Q 1169 -91 856 284 
Q 544 659 544 1381 
z
M 1991 3584 
L 1991 3584 
z
" transform="scale(0.015625)"/>
       <path id="DejaVuSans-6d" d="M 3328 2828 
Q 3544 3216 3844 3400 
Q 4144 3584 4550 3584 
Q 5097 3584 5394 3201 
Q 5691 2819 5691 2113 
L 5691 0 
L 5113 0 
L 5113 2094 
Q 5113 2597 4934 2840 
Q 4756 3084 4391 3084 
Q 3944 3084 3684 2787 
Q 3425 2491 3425 1978 
L 3425 0 
L 2847 0 
L 2847 2094 
Q 2847 2600 2669 2842 
Q 2491 3084 2119 3084 
Q 1678 3084 1418 2786 
Q 1159 2488 1159 1978 
L 1159 0 
L 581 0 
L 581 3500 
L 1159 3500 
L 1159 2956 
Q 1356 3278 1631 3431 
Q 1906 3584 2284 3584 
Q 2666 3584 2933 3390 
Q 3200 3197 3328 2828 
z
" transform="scale(0.015625)"/>
       <path id="DejaVuSans-62" d="M 3116 1747 
Q 3116 2381 2855 2742 
Q 2594 3103 2138 3103 
Q 1681 3103 1420 2742 
Q 1159 2381 1159 1747 
Q 1159 1113 1420 752 
Q 1681 391 2138 391 
Q 2594 391 2855 752 
Q 3116 1113 3116 1747 
z
M 1159 2969 
Q 1341 3281 1617 3432 
Q 1894 3584 2278 3584 
Q 2916 3584 3314 3078 
Q 3713 2572 3713 1747 
Q 3713 922 3314 415 
Q 2916 -91 2278 -91 
Q 1894 -91 1617 61 
Q 1341 213 1159 525 
L 1159 0 
L 581 0 
L 581 4863 
L 1159 4863 
L 1159 2969 
z
" transform="scale(0.015625)"/>
       <path id="DejaVuSans-20" transform="scale(0.015625)"/>
       <path id="DejaVuSans-6f" d="M 1959 3097 
Q 1497 3097 1228 2736 
Q 959 2375 959 1747 
Q 959 1119 1226 758 
Q 1494 397 1959 397 
Q 2419 397 2687 759 
Q 2956 1122 2956 1747 
Q 2956 2369 2687 2733 
Q 2419 3097 1959 3097 
z
M 1959 3584 
Q 2709 3584 3137 3096 
Q 3566 2609 3566 1747 
Q 3566 888 3137 398 
Q 2709 -91 1959 -91 
Q 1206 -91 779 398 
Q 353 888 353 1747 
Q 353 2609 779 3096 
Q 1206 3584 1959 3584 
z
" transform="scale(0.015625)"/>
       <path id="DejaVuSans-66" d="M 2375 4863 
L 2375 4384 
L 1825 4384 
Q 1516 4384 1395 4259 
Q 1275 4134 1275 3809 
L 1275 3500 
L 2222 3500 
L 2222 3053 
L 1275 3053 
L 1275 0 
L 697 0 
L 697 3053 
L 147 3053 
L 147 3500 
L 697 3500 
L 697 3744 
Q 697 4328 969 4595 
Q 1241 4863 1831 4863 
L 2375 4863 
z
" transform="scale(0.015625)"/>
       <path id="DejaVuSans-67" d="M 2906 1791 
Q 2906 2416 2648 2759 
Q 2391 3103 1925 3103 
Q 1463 3103 1205 2759 
Q 947 2416 947 1791 
Q 947 1169 1205 825 
Q 1463 481 1925 481 
Q 2391 481 2648 825 
Q 2906 1169 2906 1791 
z
M 3481 434 
Q 3481 -459 3084 -895 
Q 2688 -1331 1869 -1331 
Q 1566 -1331 1297 -1286 
Q 1028 -1241 775 -1147 
L 775 -588 
Q 1028 -725 1275 -790 
Q 1522 -856 1778 -856 
Q 2344 -856 2625 -561 
Q 2906 -266 2906 331 
L 2906 616 
Q 2728 306 2450 153 
Q 2172 0 1784 0 
Q 1141 0 747 490 
Q 353 981 353 1791 
Q 353 2603 747 3093 
Q 1141 3584 1784 3584 
Q 2172 3584 2450 3431 
Q 2728 3278 2906 2969 
L 2906 3500 
L 3481 3500 
L 3481 434 
z
" transform="scale(0.015625)"/>
       <path id="DejaVuSans-6e" d="M 3513 2113 
L 3513 0 
L 2938 0 
L 2938 2094 
Q 2938 2591 2744 2837 
Q 2550 3084 2163 3084 
Q 1697 3084 1428 2787 
Q 1159 2491 1159 1978 
L 1159 0 
L 581 0 
L 581 3500 
L 1159 3500 
L 1159 2956 
Q 1366 3272 1645 3428 
Q 1925 3584 2291 3584 
Q 2894 3584 3203 3211 
Q 3513 2838 3513 2113 
z
" transform="scale(0.015625)"/>
       <path id="DejaVuSans-73" d="M 2834 3397 
L 2834 2853 
Q 2591 2978 2328 3040 
Q 2066 3103 1784 3103 
Q 1356 3103 1142 2972 
Q 928 2841 928 2578 
Q 928 2378 1081 2264 
Q 1234 2150 1697 2047 
L 1894 2003 
Q 2506 1872 2764 1633 
Q 3022 1394 3022 966 
Q 3022 478 2636 193 
Q 2250 -91 1575 -91 
Q 1294 -91 989 -36 
Q 684 19 347 128 
L 347 722 
Q 666 556 975 473 
Q 1284 391 1588 391 
Q 1994 391 2212 530 
Q 2431 669 2431 922 
Q 2431 1156 2273 1281 
Q 2116 1406 1581 1522 
L 1381 1569 
Q 847 1681 609 1914 
Q 372 2147 372 2553 
Q 372 3047 722 3315 
Q 1072 3584 1716 3584 
Q 2034 3584 2315 3537 
Q 2597 3491 2834 3397 
z
" transform="scale(0.015625)"/>
      </defs>
      <use xlink:href="#DejaVuSans-4e"/>
      <use xlink:href="#DejaVuSans-75" x="74.804688"/>
      <use xlink:href="#DejaVuSans-6d" x="138.183594"/>
      <use xlink:href="#DejaVuSans-62" x="235.595703"/>
      <use xlink:href="#DejaVuSans-65" x="299.072266"/>
      <use xlink:href="#DejaVuSans-72" x="360.595703"/>
      <use xlink:href="#DejaVuSans-20" x="401.708984"/>
      <use xlink:href="#DejaVuSans-6f" x="433.496094"/>
      <use xlink:href="#DejaVuSans-66" x="494.677734"/>
      <use xlink:href="#DejaVuSans-20" x="529.882812"/>
      <use xlink:href="#DejaVuSans-67" x="561.669922"/>
      <use xlink:href="#DejaVuSans-65" x="625.146484"/>
      <use xlink:href="#DejaVuSans-6e" x="686.669922"/>
      <use xlink:href="#DejaVuSans-65" x="750.048828"/>
      <use xlink:href="#DejaVuSans-73" x="811.572266"/>
     </g>
    </g>
   </g>
   <g id="patch_3">
    <path d="M 61.49 299.32 
L 61.49 48.96 
" style="fill: none; stroke: #000000; stroke-width: 0.8; stroke-linejoin: miter; stroke-linecap: square"/>
   </g>
   <g id="patch_4">
    <path d="M 450 299.32 
L 450 48.96 
" style="fill: none; stroke: #000000; stroke-width: 0.8; stroke-linejoin: miter; stroke-linecap: square"/>
   </g>
   <g id="patch_5">
    <path d="M 61.49 299.32 
L 450 299.32 
" style="fill: none; stroke: #000000; stroke-width: 0.8; stroke-linejoin: miter; stroke-linecap: square"/>
   </g>
   <g id="patch_6">
    <path d="M 61.49 48.96 
L 450 48.96 
" style="fill: none; stroke: #000000; stroke-width: 0.8; stroke-linejoin: miter; stroke-linecap: square"/>
   </g>
   <g id="legend_1">
    <g id="patch_7">
     <path d="M 128.755156 43.96 
L 382.734844 43.96 
Q 384.734844 43.96 384.734844 41.96 
L 384.734844 13.60375 
Q 384.734844 11.60375 382.734844 11.60375 
L 128.755156 11.60375 
Q 126.755156 11.60375 126.755156 13.60375 
L 126.755156 41.96 
Q 126.755156 43.96 128.755156 43.96 
z
" style="fill: #ffffff; opacity: 0.8; stroke: #cccccc; stroke-linejoin: miter"/>
    </g>
    <g id="patch_8">
     <path d="M 130.755156 23.202187 
L 150.755156 23.202187 
L 150.755156 16.202187 
L 130.755156 16.202187 
z
" style="fill: #fb363b"/>
    </g>
    <g id="text_19">
     <!-- Published -->
     <g transform="translate(158.755156 23.202187) scale(0.1 -0.1)">
      <defs>
       <path id="DejaVuSans-50" d="M 1259 4147 
L 1259 2394 
L 2053 2394 
Q 2494 2394 2734 2622 
Q 2975 2850 2975 3272 
Q 2975 3691 2734 3919 
Q 2494 4147 2053 4147 
L 1259 4147 
z
M 628 4666 
L 2053 4666 
Q 2838 4666 3239 4311 
Q 3641 3956 3641 3272 
Q 3641 2581 3239 2228 
Q 2838 1875 2053 1875 
L 1259 1875 
L 1259 0 
L 628 0 
L 628 4666 
z
" transform="scale(0.015625)"/>
       <path id="DejaVuSans-6c" d="M 603 4863 
L 1178 4863 
L 1178 0 
L 603 0 
L 603 4863 
z
" transform="scale(0.015625)"/>
       <path id="DejaVuSans-69" d="M 603 3500 
L 1178 3500 
L 1178 0 
L 603 0 
L 603 3500 
z
M 603 4863 
L 1178 4863 
L 1178 4134 
L 603 4134 
L 603 4863 
z
" transform="scale(0.015625)"/>
       <path id="DejaVuSans-68" d="M 3513 2113 
L 3513 0 
L 2938 0 
L 2938 2094 
Q 2938 2591 2744 2837 
Q 2550 3084 2163 3084 
Q 1697 3084 1428 2787 
Q 1159 2491 1159 1978 
L 1159 0 
L 581 0 
L 581 4863 
L 1159 4863 
L 1159 2956 
Q 1366 3272 1645 3428 
Q 1925 3584 2291 3584 
Q 2894 3584 3203 3211 
Q 3513 2838 3513 2113 
z
" transform="scale(0.015625)"/>
       <path id="DejaVuSans-64" d="M 2906 2969 
L 2906 4863 
L 3481 4863 
L 3481 0 
L 2906 0 
L 2906 525 
Q 2725 213 2448 61 
Q 2172 -91 1784 -91 
Q 1150 -91 751 415 
Q 353 922 353 1747 
Q 353 2572 751 3078 
Q 1150 3584 1784 3584 
Q 2172 3584 2448 3432 
Q 2725 3281 2906 2969 
z
M 947 1747 
Q 947 1113 1208 752 
Q 1469 391 1925 391 
Q 2381 391 2643 752 
Q 2906 1113 2906 1747 
Q 2906 2381 2643 2742 
Q 2381 3103 1925 3103 
Q 1469 3103 1208 2742 
Q 947 2381 947 1747 
z
" transform="scale(0.015625)"/>
      </defs>
      <use xlink:href="#DejaVuSans-50"/>
      <use xlink:href="#DejaVuSans-75" x="58.552734"/>
      <use xlink:href="#DejaVuSans-62" x="121.931641"/>
      <use xlink:href="#DejaVuSans-6c" x="185.408203"/>
      <use xlink:href="#DejaVuSans-69" x="213.191406"/>
      <use xlink:href="#DejaVuSans-73" x="240.974609"/>
      <use xlink:href="#DejaVuSans-68" x="293.074219"/>
      <use xlink:href="#DejaVuSans-65" x="356.453125"/>
      <use xlink:href="#DejaVuSans-64" x="417.976562"/>
     </g>
    </g>
    <g id="patch_9">
     <path d="M 130.755156 37.880313 
L 150.755156 37.880313 
L 150.755156 30.880313 
L 130.755156 30.880313 
z
" style="fill: #fd852c"/>
    </g>
    <g id="text_20">
     <!-- Inferred role -->
     <g transform="translate(158.755156 37.880313) scale(0.1 -0.1)">
      <defs>
       <path id="DejaVuSans-49" d="M 628 4666 
L 1259 4666 
L 1259 0 
L 628 0 
L 628 4666 
z
" transform="scale(0.015625)"/>
      </defs>
      <use xlink:href="#DejaVuSans-49"/>
      <use xlink:href="#DejaVuSans-6e" x="29.492188"/>
      <use xlink:href="#DejaVuSans-66" x="92.871094"/>
      <use xlink:href="#DejaVuSans-65" x="128.076172"/>
      <use xlink:href="#DejaVuSans-72" x="189.599609"/>
      <use xlink:href="#DejaVuSans-72" x="228.962891"/>
      <use xlink:href="#DejaVuSans-65" x="267.826172"/>
      <use xlink:href="#DejaVuSans-64" x="329.349609"/>
      <use xlink:href="#DejaVuSans-20" x="392.826172"/>
      <use xlink:href="#DejaVuSans-72" x="424.613281"/>
      <use xlink:href="#DejaVuSans-6f" x="463.476562"/>
      <use xlink:href="#DejaVuSans-6c" x="524.658203"/>
      <use xlink:href="#DejaVuSans-65" x="552.441406"/>
     </g>
    </g>
    <g id="patch_10">
     <path d="M 240.153594 23.202187 
L 260.153594 23.202187 
L 260.153594 16.202187 
L 240.153594 16.202187 
z
" style="fill: #f0edbf"/>
    </g>
    <g id="text_21">
     <!-- Conserved unknown -->
     <g transform="translate(268.153594 23.202187) scale(0.1 -0.1)">
      <defs>
       <path id="DejaVuSans-43" d="M 4122 4306 
L 4122 3641 
Q 3803 3938 3442 4084 
Q 3081 4231 2675 4231 
Q 1875 4231 1450 3742 
Q 1025 3253 1025 2328 
Q 1025 1406 1450 917 
Q 1875 428 2675 428 
Q 3081 428 3442 575 
Q 3803 722 4122 1019 
L 4122 359 
Q 3791 134 3420 21 
Q 3050 -91 2638 -91 
Q 1578 -91 968 557 
Q 359 1206 359 2328 
Q 359 3453 968 4101 
Q 1578 4750 2638 4750 
Q 3056 4750 3426 4639 
Q 3797 4528 4122 4306 
z
" transform="scale(0.015625)"/>
       <path id="DejaVuSans-76" d="M 191 3500 
L 800 3500 
L 1894 563 
L 2988 3500 
L 3597 3500 
L 2284 0 
L 1503 0 
L 191 3500 
z
" transform="scale(0.015625)"/>
       <path id="DejaVuSans-6b" d="M 581 4863 
L 1159 4863 
L 1159 1991 
L 2875 3500 
L 3609 3500 
L 1753 1863 
L 3688 0 
L 2938 0 
L 1159 1709 
L 1159 0 
L 581 0 
L 581 4863 
z
" transform="scale(0.015625)"/>
       <path id="DejaVuSans-77" d="M 269 3500 
L 844 3500 
L 1563 769 
L 2278 3500 
L 2956 3500 
L 3675 769 
L 4391 3500 
L 4966 3500 
L 4050 0 
L 3372 0 
L 2619 2869 
L 1863 0 
L 1184 0 
L 269 3500 
z
" transform="scale(0.015625)"/>
      </defs>
      <use xlink:href="#DejaVuSans-43"/>
      <use xlink:href="#DejaVuSans-6f" x="69.824219"/>
      <use xlink:href="#DejaVuSans-6e" x="131.005859"/>
      <use xlink:href="#DejaVuSans-73" x="194.384766"/>
      <use xlink:href="#DejaVuSans-65" x="246.484375"/>
      <use xlink:href="#DejaVuSans-72" x="308.007812"/>
      <use xlink:href="#DejaVuSans-76" x="349.121094"/>
      <use xlink:href="#DejaVuSans-65" x="408.300781"/>
      <use xlink:href="#DejaVuSans-64" x="469.824219"/>
      <use xlink:href="#DejaVuSans-20" x="533.300781"/>
      <use xlink:href="#DejaVuSans-75" x="565.087891"/>
      <use xlink:href="#DejaVuSans-6e" x="628.466797"/>
      <use xlink:href="#DejaVuSans-6b" x="691.845703"/>
      <use xlink:href="#DejaVuSans-6e" x="749.755859"/>
      <use xlink:href="#DejaVuSans-6f" x="813.134766"/>
      <use xlink:href="#DejaVuSans-77" x="874.316406"/>
      <use xlink:href="#DejaVuSans-6e" x="956.103516"/>
     </g>
    </g>
    <g id="patch_11">
     <path d="M 240.153594 37.880313 
L 260.153594 37.880313 
L 260.153594 30.880313 
L 240.153594 30.880313 
z
" style="fill: #88bb92"/>
    </g>
    <g id="text_22">
     <!-- Fission yeast unknown -->
     <g transform="translate(268.153594 37.880313) scale(0.1 -0.1)">
      <defs>
       <path id="DejaVuSans-46" d="M 628 4666 
L 3309 4666 
L 3309 4134 
L 1259 4134 
L 1259 2759 
L 3109 2759 
L 3109 2228 
L 1259 2228 
L 1259 0 
L 628 0 
L 628 4666 
z
" transform="scale(0.015625)"/>
       <path id="DejaVuSans-79" d="M 2059 -325 
Q 1816 -950 1584 -1140 
Q 1353 -1331 966 -1331 
L 506 -1331 
L 506 -850 
L 844 -850 
Q 1081 -850 1212 -737 
Q 1344 -625 1503 -206 
L 1606 56 
L 191 3500 
L 800 3500 
L 1894 763 
L 2988 3500 
L 3597 3500 
L 2059 -325 
z
" transform="scale(0.015625)"/>
       <path id="DejaVuSans-74" d="M 1172 4494 
L 1172 3500 
L 2356 3500 
L 2356 3053 
L 1172 3053 
L 1172 1153 
Q 1172 725 1289 603 
Q 1406 481 1766 481 
L 2356 481 
L 2356 0 
L 1766 0 
Q 1100 0 847 248 
Q 594 497 594 1153 
L 594 3053 
L 172 3053 
L 172 3500 
L 594 3500 
L 594 4494 
L 1172 4494 
z
" transform="scale(0.015625)"/>
      </defs>
      <use xlink:href="#DejaVuSans-46"/>
      <use xlink:href="#DejaVuSans-69" x="50.269531"/>
      <use xlink:href="#DejaVuSans-73" x="78.052734"/>
      <use xlink:href="#DejaVuSans-73" x="130.152344"/>
      <use xlink:href="#DejaVuSans-69" x="182.251953"/>
      <use xlink:href="#DejaVuSans-6f" x="210.035156"/>
      <use xlink:href="#DejaVuSans-6e" x="271.216797"/>
      <use xlink:href="#DejaVuSans-20" x="334.595703"/>
      <use xlink:href="#DejaVuSans-79" x="366.382812"/>
      <use xlink:href="#DejaVuSans-65" x="425.5625"/>
      <use xlink:href="#DejaVuSans-61" x="487.085938"/>
      <use xlink:href="#DejaVuSans-73" x="548.365234"/>
      <use xlink:href="#DejaVuSans-74" x="600.464844"/>
      <use xlink:href="#DejaVuSans-20" x="639.673828"/>
      <use xlink:href="#DejaVuSans-75" x="671.460938"/>
      <use xlink:href="#DejaVuSans-6e" x="734.839844"/>
      <use xlink:href="#DejaVuSans-6b" x="798.21875"/>
      <use xlink:href="#DejaVuSans-6e" x="856.128906"/>
      <use xlink:href="#DejaVuSans-6f" x="919.507812"/>
      <use xlink:href="#DejaVuSans-77" x="980.689453"/>
      <use xlink:href="#DejaVuSans-6e" x="1062.476562"/>
     </g>
    </g>
   </g>
  </g>
 </g>
 <defs>
  <clipPath id="p444acfb7d0">
   <rect x="61.49" y="48.96" width="388.51" height="250.36"/>
  </clipPath>
 </defs>
</svg>
