<?xml version="1.0" encoding="utf-8" standalone="no"?>
<!DOCTYPE svg PUBLIC "-//W3C//DTD SVG 1.1//EN"
  "http://www.w3.org/Graphics/SVG/1.1/DTD/svg11.dtd">
<svg xmlns:xlink="http://www.w3.org/1999/xlink" width="460.8pt" height="345.6pt" viewBox="0 0 460.8 345.6" xmlns="http://www.w3.org/2000/svg" version="1.1">
 <metadata>
  <rdf:RDF xmlns:dc="http://purl.org/dc/elements/1.1/" xmlns:cc="http://creativecommons.org/ns#" xmlns:rdf="http://www.w3.org/1999/02/22-rdf-syntax-ns#">
   <cc:Work>
    <dc:type rdf:resource="http://purl.org/dc/dcmitype/StillImage"/>
    <dc:date>2023-06-22T13:05:05.131396</dc:date>
    <dc:format>image/svg+xml</dc:format>
    <dc:creator>
     <cc:Agent>
      <dc:title>Matplotlib v3.7.1, https://matplotlib.org/</dc:title>
     </cc:Agent>
    </dc:creator>
   </cc:Work>
  </rdf:RDF>
 </metadata>
 <defs>
  <style type="text/css">*{stroke-linejoin: round; stroke-linecap: butt}</style>
 </defs>
 <g id="figure_1">
  <g id="patch_1">
   <path d="M 0 345.6 
L 460.8 345.6 
L 460.8 0 
L 0 0 
z
" style="fill: #ffffff"/>
  </g>
  <g id="axes_1">
   <g id="patch_2">
    <path d="M 43.09 317.72 
L 450 317.72 
L 450 48.96 
L 43.09 48.96 
z
" style="fill: #ffffff"/>
   </g>
   <g id="PolyCollection_1">
    <path d="M 9.486321 249.446647 
L 9.486321 317.72 
L 18.873134 317.72 
L 28.14886 317.72 
L 47.200202 317.72 
L 69.306424 317.72 
L 85.580602 317.72 
L 95.689477 317.72 
L 98.300011 317.72 
L 103.132275 317.72 
L 105.354006 317.72 
L 105.631723 317.72 
L 109.297578 317.72 
L 110.241814 317.72 
L 111.01942 317.72 
L 111.963655 317.72 
L 112.574631 317.72 
L 113.518867 317.72 
L 114.0743 317.72 
L 115.074079 317.72 
L 116.407117 317.72 
L 117.462439 317.72 
L 117.851242 317.72 
L 118.962108 317.72 
L 119.739713 317.72 
L 120.572862 317.72 
L 121.461555 317.72 
L 122.072531 317.72 
L 122.627963 317.72 
L 124.183175 317.72 
L 125.29404 317.72 
L 126.127189 317.72 
L 126.349363 317.72 
L 127.126968 317.72 
L 128.293377 317.72 
L 129.515329 317.72 
L 130.348478 317.72 
L 131.57043 317.72 
L 133.181185 317.72 
L 135.402916 317.72 
L 137.34693 317.72 
L 139.013228 317.72 
L 142.123651 317.72 
L 143.45669 317.72 
L 147.067002 317.72 
L 149.39982 317.72 
L 150.843945 317.72 
L 151.732637 317.72 
L 155.231863 317.72 
L 157.175878 317.72 
L 159.175435 317.72 
L 163.119008 317.72 
L 166.784863 317.72 
L 167.395839 317.72 
L 168.117902 317.72 
L 169.228767 317.72 
L 170.11746 317.72 
L 172.83908 317.72 
L 178.282321 317.72 
L 179.337643 317.72 
L 184.447624 317.72 
L 185.614032 317.72 
L 186.780441 317.72 
L 188.668912 317.72 
L 190.224124 317.72 
L 191.723792 317.72 
L 192.668028 317.72 
L 195.722907 317.72 
L 198.888874 317.72 
L 200.444085 317.72 
L 201.554951 317.72 
L 202.943533 317.72 
L 204.109941 317.72 
L 205.498523 317.72 
L 208.775576 317.72 
L 210.497417 317.72 
L 212.163716 317.72 
L 213.885557 317.72 
L 215.551855 317.72 
L 217.273696 317.72 
L 218.995538 317.72 
L 220.606293 317.72 
L 222.328134 317.72 
L 223.994432 317.72 
L 225.716274 317.72 
L 227.382572 317.72 
L 229.104413 317.72 
L 230.826254 317.72 
L 232.492553 317.72 
L 234.214394 317.72 
L 235.880692 317.72 
L 237.602533 317.72 
L 239.324375 317.72 
L 240.879586 317.72 
L 242.601428 317.72 
L 244.267726 317.72 
L 245.989567 317.72 
L 247.655865 317.72 
L 249.377707 317.72 
L 251.099548 317.72 
L 252.765846 317.72 
L 254.487688 317.72 
L 256.153986 317.72 
L 257.875827 317.72 
L 259.597669 317.72 
L 261.15288 317.72 
L 262.874722 317.72 
L 264.54102 317.72 
L 266.262861 317.72 
L 267.929159 317.72 
L 269.651001 317.72 
L 271.372842 317.72 
L 273.03914 317.72 
L 274.760981 317.72 
L 276.42728 317.72 
L 278.149121 317.72 
L 279.870962 317.72 
L 281.426174 317.72 
L 283.148015 317.72 
L 284.814313 317.72 
L 286.536155 317.72 
L 288.202453 317.72 
L 289.924294 317.72 
L 291.646136 317.72 
L 293.312434 317.72 
L 295.034275 317.72 
L 296.700573 317.72 
L 298.422415 317.72 
L 300.144256 317.72 
L 301.755011 317.72 
L 303.476852 317.72 
L 305.14315 317.72 
L 306.864992 317.72 
L 308.53129 317.72 
L 310.253131 317.72 
L 311.974973 317.72 
L 313.641271 317.72 
L 315.363112 317.72 
L 317.02941 317.72 
L 318.751252 317.72 
L 320.473093 317.72 
L 322.028305 317.72 
L 323.750146 317.72 
L 325.416444 317.72 
L 327.138286 317.72 
L 328.804584 317.72 
L 330.526425 317.72 
L 332.248266 317.72 
L 333.914565 317.72 
L 335.636406 317.72 
L 337.302704 317.72 
L 339.024545 317.72 
L 340.746387 317.72 
L 342.301598 317.72 
L 344.02344 317.72 
L 345.689738 317.72 
L 347.411579 317.72 
L 349.077877 317.72 
L 350.799719 317.72 
L 352.52156 317.72 
L 354.187858 317.72 
L 355.9097 317.72 
L 357.575998 317.72 
L 359.297839 317.72 
L 361.019681 317.72 
L 362.574892 317.72 
L 364.296734 317.72 
L 365.963032 317.72 
L 367.684873 317.72 
L 369.351171 317.72 
L 371.073013 317.72 
L 372.794854 317.72 
L 374.461152 317.72 
L 376.182993 317.72 
L 377.849292 317.72 
L 379.571133 317.72 
L 381.292974 317.72 
L 382.903729 317.72 
L 384.625571 317.72 
L 386.291869 317.72 
L 388.01371 317.72 
L 389.680008 317.72 
L 391.40185 317.72 
L 393.123691 317.72 
L 394.789989 317.72 
L 396.51183 317.72 
L 398.178129 317.72 
L 399.89997 317.72 
L 401.621811 317.72 
L 403.177023 317.72 
L 404.898864 317.72 
L 406.565162 317.72 
L 408.287004 317.72 
L 409.953302 317.72 
L 411.675143 317.72 
L 413.396985 317.72 
L 415.063283 317.72 
L 416.785124 317.72 
L 418.451422 317.72 
L 420.173264 317.72 
L 421.895105 317.72 
L 423.450317 317.72 
L 425.172158 317.72 
L 426.838456 317.72 
L 428.560298 317.72 
L 430.226596 317.72 
L 431.948437 317.72 
L 433.670278 317.72 
L 435.336577 317.72 
L 437.058418 317.72 
L 438.724716 317.72 
L 440.446557 317.72 
L 442.168399 317.72 
L 443.72361 317.72 
L 445.445452 317.72 
L 447.11175 317.72 
L 448.833591 317.72 
L 448.833591 191.280378 
L 448.833591 191.280378 
L 447.11175 191.431984 
L 445.445452 191.431984 
L 443.72361 191.886803 
L 442.168399 192.644834 
L 440.446557 192.594299 
L 438.724716 192.745905 
L 437.058418 192.897511 
L 435.336577 193.200724 
L 433.670278 193.200724 
L 431.948437 193.251259 
L 430.226596 193.251259 
L 428.560298 193.200724 
L 426.838456 193.301795 
L 425.172158 193.200724 
L 423.450317 193.150189 
L 421.895105 193.200724 
L 420.173264 193.200724 
L 418.451422 193.453401 
L 416.785124 193.706078 
L 415.063283 194.110361 
L 413.396985 194.413574 
L 411.675143 194.363039 
L 409.953302 194.615716 
L 408.287004 194.969464 
L 406.565162 194.969464 
L 404.898864 195.171605 
L 403.177023 195.828566 
L 401.621811 195.980172 
L 399.89997 196.536062 
L 398.178129 196.586597 
L 396.51183 196.788739 
L 394.789989 196.88981 
L 393.123691 197.091951 
L 391.40185 197.142487 
L 389.680008 197.243558 
L 388.01371 197.243558 
L 386.291869 197.344628 
L 384.625571 197.799447 
L 382.903729 197.951053 
L 381.292974 198.052124 
L 379.571133 198.153195 
L 377.849292 198.153195 
L 376.182993 198.153195 
L 374.461152 198.304801 
L 372.794854 198.405872 
L 371.073013 198.608014 
L 369.351171 198.911226 
L 367.684873 199.062833 
L 365.963032 199.163904 
L 364.296734 199.264974 
L 362.574892 199.31551 
L 361.019681 199.31551 
L 359.297839 199.366045 
L 357.575998 199.416581 
L 355.9097 199.517651 
L 354.187858 199.568187 
L 352.52156 199.568187 
L 350.799719 199.719793 
L 349.077877 199.871399 
L 347.411579 200.174612 
L 345.689738 200.376754 
L 344.02344 200.781037 
L 342.301598 200.983179 
L 340.746387 201.18532 
L 339.024545 201.235856 
L 337.302704 201.437997 
L 335.636406 201.640139 
L 333.914565 203.863698 
L 332.248266 204.217446 
L 330.526425 205.177619 
L 328.804584 204.369052 
L 327.138286 204.267981 
L 325.416444 204.318516 
L 323.750146 204.419587 
L 322.028305 204.773335 
L 320.473093 204.823871 
L 318.751252 204.924941 
L 317.02941 205.885114 
L 315.363112 206.036721 
L 313.641271 206.289398 
L 311.974973 206.390469 
L 310.253131 206.542075 
L 308.53129 207.097965 
L 306.864992 207.350642 
L 305.14315 207.350642 
L 303.476852 207.855996 
L 301.755011 207.957067 
L 300.144256 208.007602 
L 298.422415 208.260279 
L 296.700573 208.36135 
L 295.034275 208.36135 
L 293.312434 208.614027 
L 291.646136 208.664563 
L 289.924294 208.715098 
L 288.202453 208.91724 
L 286.536155 209.068846 
L 284.814313 208.310815 
L 283.148015 208.411885 
L 281.426174 208.664563 
L 279.870962 208.664563 
L 278.149121 208.91724 
L 276.42728 209.119381 
L 274.760981 209.473129 
L 273.03914 209.927948 
L 271.372842 210.332231 
L 269.651001 210.433302 
L 267.929159 210.78705 
L 266.262861 211.090263 
L 264.54102 211.545082 
L 262.874722 211.747223 
L 261.15288 211.9999 
L 259.597669 212.050436 
L 257.875827 212.050436 
L 256.153986 212.303113 
L 254.487688 212.909538 
L 252.765846 212.960073 
L 251.099548 213.263286 
L 249.377707 214.122388 
L 247.655865 214.223459 
L 245.989567 214.829884 
L 244.267726 215.234167 
L 242.601428 216.598624 
L 240.879586 216.699694 
L 239.324375 216.851301 
L 237.602533 217.205049 
L 235.880692 217.306119 
L 234.214394 217.609332 
L 232.492553 217.862009 
L 230.826254 218.316828 
L 229.104413 218.569505 
L 227.382572 218.721111 
L 225.716274 219.024324 
L 223.994432 219.074859 
L 222.328134 219.226465 
L 220.606293 219.428607 
L 218.995538 219.428607 
L 217.273696 219.529678 
L 215.551855 219.580213 
L 213.885557 219.630749 
L 212.163716 219.681284 
L 210.497417 219.73182 
L 208.775576 219.883426 
L 205.498523 220.843599 
L 204.109941 221.096276 
L 202.943533 221.146811 
L 201.554951 220.995205 
L 200.444085 220.995205 
L 198.888874 221.146811 
L 195.722907 221.298418 
L 192.668028 222.106984 
L 191.723792 223.319835 
L 190.224124 223.117693 
L 188.668912 223.067157 
L 186.780441 223.976795 
L 185.614032 223.976795 
L 184.447624 223.673582 
L 179.337643 224.330543 
L 178.282321 224.431614 
L 172.83908 225.290716 
L 170.11746 225.391787 
L 169.228767 225.189645 
L 168.117902 225.341251 
L 167.395839 225.593928 
L 166.784863 225.644464 
L 163.119008 225.79607 
L 159.175435 225.897141 
L 157.175878 226.149818 
L 155.231863 228.828195 
L 151.732637 228.727125 
L 150.843945 228.77766 
L 149.39982 229.33355 
L 147.067002 230.748541 
L 143.45669 231.051754 
L 142.123651 231.557108 
L 139.013228 231.910856 
L 137.34693 232.9721 
L 135.402916 233.679596 
L 133.181185 234.235485 
L 131.57043 234.286021 
L 130.348478 234.387092 
L 129.515329 234.437627 
L 128.293377 234.488162 
L 127.126968 235.3978 
L 126.349363 235.852619 
L 126.127189 235.852619 
L 125.29404 235.852619 
L 124.183175 236.155831 
L 122.627963 235.852619 
L 122.072531 236.105296 
L 121.461555 236.206367 
L 120.572862 236.357973 
L 119.739713 236.357973 
L 118.962108 236.762256 
L 117.851242 237.671894 
L 117.462439 237.621359 
L 116.407117 238.076177 
L 115.074079 238.177248 
L 114.0743 238.278319 
L 113.518867 238.37939 
L 112.574631 238.530996 
L 111.963655 238.834209 
L 111.01942 239.086886 
L 110.241814 238.985815 
L 109.297578 239.086886 
L 105.631723 239.440634 
L 105.354006 239.390098 
L 103.132275 239.794382 
L 98.300011 237.368681 
L 95.689477 240.956696 
L 85.580602 245.65649 
L 69.306424 250.053072 
L 47.200202 255.713039 
L 28.14886 249.19397 
L 18.873134 248.385403 
L 9.486321 249.446647 
z
" clip-path="url(#p2702b65c75)" style="fill: #1f77b4"/>
   </g>
   <g id="PolyCollection_2">
    <path d="M 9.486321 145.545822 
L 9.486321 249.446647 
L 18.873134 248.385403 
L 28.14886 249.19397 
L 47.200202 255.713039 
L 69.306424 250.053072 
L 85.580602 245.65649 
L 95.689477 240.956696 
L 98.300011 237.368681 
L 103.132275 239.794382 
L 105.354006 239.390098 
L 105.631723 239.440634 
L 109.297578 239.086886 
L 110.241814 238.985815 
L 111.01942 239.086886 
L 111.963655 238.834209 
L 112.574631 238.530996 
L 113.518867 238.37939 
L 114.0743 238.278319 
L 115.074079 238.177248 
L 116.407117 238.076177 
L 117.462439 237.621359 
L 117.851242 237.671894 
L 118.962108 236.762256 
L 119.739713 236.357973 
L 120.572862 236.357973 
L 121.461555 236.206367 
L 122.072531 236.105296 
L 122.627963 235.852619 
L 124.183175 236.155831 
L 125.29404 235.852619 
L 126.127189 235.852619 
L 126.349363 235.852619 
L 127.126968 235.3978 
L 128.293377 234.488162 
L 129.515329 234.437627 
L 130.348478 234.387092 
L 131.57043 234.286021 
L 133.181185 234.235485 
L 135.402916 233.679596 
L 137.34693 232.9721 
L 139.013228 231.910856 
L 142.123651 231.557108 
L 143.45669 231.051754 
L 147.067002 230.748541 
L 149.39982 229.33355 
L 150.843945 228.77766 
L 151.732637 228.727125 
L 155.231863 228.828195 
L 157.175878 226.149818 
L 159.175435 225.897141 
L 163.119008 225.79607 
L 166.784863 225.644464 
L 167.395839 225.593928 
L 168.117902 225.341251 
L 169.228767 225.189645 
L 170.11746 225.391787 
L 172.83908 225.290716 
L 178.282321 224.431614 
L 179.337643 224.330543 
L 184.447624 223.673582 
L 185.614032 223.976795 
L 186.780441 223.976795 
L 188.668912 223.067157 
L 190.224124 223.117693 
L 191.723792 223.319835 
L 192.668028 222.106984 
L 195.722907 221.298418 
L 198.888874 221.146811 
L 200.444085 220.995205 
L 201.554951 220.995205 
L 202.943533 221.146811 
L 204.109941 221.096276 
L 205.498523 220.843599 
L 208.775576 219.883426 
L 210.497417 219.73182 
L 212.163716 219.681284 
L 213.885557 219.630749 
L 215.551855 219.580213 
L 217.273696 219.529678 
L 218.995538 219.428607 
L 220.606293 219.428607 
L 222.328134 219.226465 
L 223.994432 219.074859 
L 225.716274 219.024324 
L 227.382572 218.721111 
L 229.104413 218.569505 
L 230.826254 218.316828 
L 232.492553 217.862009 
L 234.214394 217.609332 
L 235.880692 217.306119 
L 237.602533 217.205049 
L 239.324375 216.851301 
L 240.879586 216.699694 
L 242.601428 216.598624 
L 244.267726 215.234167 
L 245.989567 214.829884 
L 247.655865 214.223459 
L 249.377707 214.122388 
L 251.099548 213.263286 
L 252.765846 212.960073 
L 254.487688 212.909538 
L 256.153986 212.303113 
L 257.875827 212.050436 
L 259.597669 212.050436 
L 261.15288 211.9999 
L 262.874722 211.747223 
L 264.54102 211.545082 
L 266.262861 211.090263 
L 267.929159 210.78705 
L 269.651001 210.433302 
L 271.372842 210.332231 
L 273.03914 209.927948 
L 274.760981 209.473129 
L 276.42728 209.119381 
L 278.149121 208.91724 
L 279.870962 208.664563 
L 281.426174 208.664563 
L 283.148015 208.411885 
L 284.814313 208.310815 
L 286.536155 209.068846 
L 288.202453 208.91724 
L 289.924294 208.715098 
L 291.646136 208.664563 
L 293.312434 208.614027 
L 295.034275 208.36135 
L 296.700573 208.36135 
L 298.422415 208.260279 
L 300.144256 208.007602 
L 301.755011 207.957067 
L 303.476852 207.855996 
L 305.14315 207.350642 
L 306.864992 207.350642 
L 308.53129 207.097965 
L 310.253131 206.542075 
L 311.974973 206.390469 
L 313.641271 206.289398 
L 315.363112 206.036721 
L 317.02941 205.885114 
L 318.751252 204.924941 
L 320.473093 204.823871 
L 322.028305 204.773335 
L 323.750146 204.419587 
L 325.416444 204.318516 
L 327.138286 204.267981 
L 328.804584 204.369052 
L 330.526425 205.177619 
L 332.248266 204.217446 
L 333.914565 203.863698 
L 335.636406 201.640139 
L 337.302704 201.437997 
L 339.024545 201.235856 
L 340.746387 201.18532 
L 342.301598 200.983179 
L 344.02344 200.781037 
L 345.689738 200.376754 
L 347.411579 200.174612 
L 349.077877 199.871399 
L 350.799719 199.719793 
L 352.52156 199.568187 
L 354.187858 199.568187 
L 355.9097 199.517651 
L 357.575998 199.416581 
L 359.297839 199.366045 
L 361.019681 199.31551 
L 362.574892 199.31551 
L 364.296734 199.264974 
L 365.963032 199.163904 
L 367.684873 199.062833 
L 369.351171 198.911226 
L 371.073013 198.608014 
L 372.794854 198.405872 
L 374.461152 198.304801 
L 376.182993 198.153195 
L 377.849292 198.153195 
L 379.571133 198.153195 
L 381.292974 198.052124 
L 382.903729 197.951053 
L 384.625571 197.799447 
L 386.291869 197.344628 
L 388.01371 197.243558 
L 389.680008 197.243558 
L 391.40185 197.142487 
L 393.123691 197.091951 
L 394.789989 196.88981 
L 396.51183 196.788739 
L 398.178129 196.586597 
L 399.89997 196.536062 
L 401.621811 195.980172 
L 403.177023 195.828566 
L 404.898864 195.171605 
L 406.565162 194.969464 
L 408.287004 194.969464 
L 409.953302 194.615716 
L 411.675143 194.363039 
L 413.396985 194.413574 
L 415.063283 194.110361 
L 416.785124 193.706078 
L 418.451422 193.453401 
L 420.173264 193.200724 
L 421.895105 193.200724 
L 423.450317 193.150189 
L 425.172158 193.200724 
L 426.838456 193.301795 
L 428.560298 193.200724 
L 430.226596 193.251259 
L 431.948437 193.251259 
L 433.670278 193.200724 
L 435.336577 193.200724 
L 437.058418 192.897511 
L 438.724716 192.745905 
L 440.446557 192.594299 
L 442.168399 192.644834 
L 443.72361 191.886803 
L 445.445452 191.431984 
L 447.11175 191.431984 
L 448.833591 191.280378 
L 448.833591 94.656654 
L 448.833591 94.656654 
L 447.11175 94.80826 
L 445.445452 94.80826 
L 443.72361 94.858796 
L 442.168399 95.060937 
L 440.446557 95.212544 
L 438.724716 95.313614 
L 437.058418 95.313614 
L 435.336577 95.36415 
L 433.670278 95.212544 
L 431.948437 95.263079 
L 430.226596 95.263079 
L 428.560298 95.515756 
L 426.838456 95.465221 
L 425.172158 95.465221 
L 423.450317 95.515756 
L 421.895105 95.616827 
L 420.173264 95.616827 
L 418.451422 95.768433 
L 416.785124 95.717898 
L 415.063283 95.869504 
L 413.396985 95.920039 
L 411.675143 95.970575 
L 409.953302 96.02111 
L 408.287004 96.071646 
L 406.565162 96.02111 
L 404.898864 96.172717 
L 403.177023 96.425394 
L 401.621811 96.627535 
L 399.89997 96.678071 
L 398.178129 96.678071 
L 396.51183 96.779142 
L 394.789989 96.829677 
L 393.123691 96.930748 
L 391.40185 96.930748 
L 389.680008 96.981283 
L 388.01371 97.031819 
L 386.291869 96.880212 
L 384.625571 96.829677 
L 382.903729 96.880212 
L 381.292974 96.779142 
L 379.571133 96.779142 
L 377.849292 96.779142 
L 376.182993 96.779142 
L 374.461152 96.779142 
L 372.794854 96.829677 
L 371.073013 96.779142 
L 369.351171 96.829677 
L 367.684873 96.829677 
L 365.963032 96.678071 
L 364.296734 96.678071 
L 362.574892 96.728606 
L 361.019681 96.728606 
L 359.297839 96.829677 
L 357.575998 96.829677 
L 355.9097 96.930748 
L 354.187858 96.930748 
L 352.52156 96.930748 
L 350.799719 96.981283 
L 349.077877 96.981283 
L 347.411579 96.981283 
L 345.689738 97.031819 
L 344.02344 97.082354 
L 342.301598 97.486638 
L 340.746387 97.638244 
L 339.024545 97.537173 
L 337.302704 97.638244 
L 335.636406 97.78985 
L 333.914565 97.840385 
L 332.248266 98.547881 
L 330.526425 98.952165 
L 328.804584 101.731613 
L 327.138286 103.298211 
L 325.416444 103.854101 
L 323.750146 103.854101 
L 322.028305 104.258384 
L 320.473093 104.157313 
L 318.751252 103.146605 
L 317.02941 103.399282 
L 315.363112 103.955171 
L 313.641271 103.955171 
L 311.974973 103.803565 
L 310.253131 104.005707 
L 308.53129 104.056242 
L 306.864992 104.056242 
L 305.14315 104.106778 
L 303.476852 104.207848 
L 301.755011 104.207848 
L 300.144256 104.258384 
L 298.422415 104.258384 
L 296.700573 104.40999 
L 295.034275 104.460526 
L 293.312434 104.511061 
L 291.646136 104.511061 
L 289.924294 104.460526 
L 288.202453 104.511061 
L 286.536155 104.460526 
L 284.814313 105.218557 
L 283.148015 105.168021 
L 281.426174 105.269092 
L 279.870962 105.370163 
L 278.149121 105.521769 
L 276.42728 105.471234 
L 274.760981 105.824982 
L 273.03914 105.976588 
L 271.372842 106.17873 
L 269.651001 106.431407 
L 267.929159 106.481942 
L 266.262861 106.380872 
L 264.54102 106.481942 
L 262.874722 106.532478 
L 261.15288 106.532478 
L 259.597669 106.532478 
L 257.875827 106.532478 
L 256.153986 106.734619 
L 254.487688 106.83569 
L 252.765846 107.138903 
L 251.099548 107.189438 
L 249.377707 107.492651 
L 247.655865 107.593722 
L 245.989567 107.896934 
L 244.267726 108.04854 
L 242.601428 108.250682 
L 240.879586 108.301218 
L 239.324375 108.351753 
L 237.602533 108.553895 
L 235.880692 108.553895 
L 234.214394 108.806572 
L 232.492553 109.16032 
L 230.826254 109.362461 
L 229.104413 109.564603 
L 227.382572 109.81728 
L 225.716274 109.918351 
L 223.994432 110.322634 
L 222.328134 110.322634 
L 220.606293 110.37317 
L 218.995538 110.37317 
L 217.273696 110.37317 
L 215.551855 110.37317 
L 213.885557 110.37317 
L 212.163716 110.423705 
L 210.497417 110.625847 
L 208.775576 110.726918 
L 205.498523 111.131201 
L 204.109941 111.889232 
L 202.943533 112.24298 
L 201.554951 111.535484 
L 200.444085 111.939768 
L 198.888874 112.091374 
L 195.722907 112.293516 
L 192.668028 112.293516 
L 191.723792 112.495657 
L 190.224124 113.152618 
L 188.668912 113.102082 
L 186.780441 114.264397 
L 185.614032 114.264397 
L 184.447624 114.820287 
L 179.337643 115.174035 
L 178.282321 115.275106 
L 172.83908 116.690097 
L 170.11746 117.953483 
L 169.228767 118.004018 
L 168.117902 118.004018 
L 167.395839 118.004018 
L 166.784863 118.054554 
L 163.119008 117.498664 
L 159.175435 118.155625 
L 157.175878 118.408302 
L 155.231863 118.660979 
L 151.732637 118.812585 
L 150.843945 118.913656 
L 149.39982 119.166333 
L 147.067002 119.570616 
L 143.45669 119.368475 
L 142.123651 119.772758 
L 139.013228 119.722223 
L 137.34693 119.621152 
L 135.402916 120.07597 
L 133.181185 119.9749 
L 131.57043 119.823293 
L 130.348478 120.177041 
L 129.515329 120.227577 
L 128.293377 119.267404 
L 127.126968 119.317939 
L 126.349363 119.520081 
L 126.127189 119.520081 
L 125.29404 119.469545 
L 124.183175 120.126506 
L 122.627963 119.41901 
L 122.072531 119.41901 
L 121.461555 119.469545 
L 120.572862 119.520081 
L 119.739713 119.267404 
L 118.962108 119.823293 
L 117.851242 119.9749 
L 117.462439 119.671687 
L 116.407117 119.873829 
L 115.074079 119.823293 
L 114.0743 120.480254 
L 113.518867 120.379183 
L 112.574631 120.379183 
L 111.963655 118.105089 
L 111.01942 118.610443 
L 110.241814 117.347058 
L 109.297578 117.043845 
L 105.631723 117.397593 
L 105.354006 117.195452 
L 103.132275 117.549199 
L 98.300011 119.823293 
L 95.689477 120.935073 
L 85.580602 123.61345 
L 69.306424 127.454142 
L 47.200202 132.356078 
L 28.14886 140.189068 
L 18.873134 145.141539 
L 9.486321 145.545822 
z
" clip-path="url(#p2702b65c75)" style="fill: #ff7f0e"/>
   </g>
   <g id="PolyCollection_3">
    <path d="M 9.486321 105.723911 
L 9.486321 145.545822 
L 18.873134 145.141539 
L 28.14886 140.189068 
L 47.200202 132.356078 
L 69.306424 127.454142 
L 85.580602 123.61345 
L 95.689477 120.935073 
L 98.300011 119.823293 
L 103.132275 117.549199 
L 105.354006 117.195452 
L 105.631723 117.397593 
L 109.297578 117.043845 
L 110.241814 117.347058 
L 111.01942 118.610443 
L 111.963655 118.105089 
L 112.574631 120.379183 
L 113.518867 120.379183 
L 114.0743 120.480254 
L 115.074079 119.823293 
L 116.407117 119.873829 
L 117.462439 119.671687 
L 117.851242 119.9749 
L 118.962108 119.823293 
L 119.739713 119.267404 
L 120.572862 119.520081 
L 121.461555 119.469545 
L 122.072531 119.41901 
L 122.627963 119.41901 
L 124.183175 120.126506 
L 125.29404 119.469545 
L 126.127189 119.520081 
L 126.349363 119.520081 
L 127.126968 119.317939 
L 128.293377 119.267404 
L 129.515329 120.227577 
L 130.348478 120.177041 
L 131.57043 119.823293 
L 133.181185 119.9749 
L 135.402916 120.07597 
L 137.34693 119.621152 
L 139.013228 119.722223 
L 142.123651 119.772758 
L 143.45669 119.368475 
L 147.067002 119.570616 
L 149.39982 119.166333 
L 150.843945 118.913656 
L 151.732637 118.812585 
L 155.231863 118.660979 
L 157.175878 118.408302 
L 159.175435 118.155625 
L 163.119008 117.498664 
L 166.784863 118.054554 
L 167.395839 118.004018 
L 168.117902 118.004018 
L 169.228767 118.004018 
L 170.11746 117.953483 
L 172.83908 116.690097 
L 178.282321 115.275106 
L 179.337643 115.174035 
L 184.447624 114.820287 
L 185.614032 114.264397 
L 186.780441 114.264397 
L 188.668912 113.102082 
L 190.224124 113.152618 
L 191.723792 112.495657 
L 192.668028 112.293516 
L 195.722907 112.293516 
L 198.888874 112.091374 
L 200.444085 111.939768 
L 201.554951 111.535484 
L 202.943533 112.24298 
L 204.109941 111.889232 
L 205.498523 111.131201 
L 208.775576 110.726918 
L 210.497417 110.625847 
L 212.163716 110.423705 
L 213.885557 110.37317 
L 215.551855 110.37317 
L 217.273696 110.37317 
L 218.995538 110.37317 
L 220.606293 110.37317 
L 222.328134 110.322634 
L 223.994432 110.322634 
L 225.716274 109.918351 
L 227.382572 109.81728 
L 229.104413 109.564603 
L 230.826254 109.362461 
L 232.492553 109.16032 
L 234.214394 108.806572 
L 235.880692 108.553895 
L 237.602533 108.553895 
L 239.324375 108.351753 
L 240.879586 108.301218 
L 242.601428 108.250682 
L 244.267726 108.04854 
L 245.989567 107.896934 
L 247.655865 107.593722 
L 249.377707 107.492651 
L 251.099548 107.189438 
L 252.765846 107.138903 
L 254.487688 106.83569 
L 256.153986 106.734619 
L 257.875827 106.532478 
L 259.597669 106.532478 
L 261.15288 106.532478 
L 262.874722 106.532478 
L 264.54102 106.481942 
L 266.262861 106.380872 
L 267.929159 106.481942 
L 269.651001 106.431407 
L 271.372842 106.17873 
L 273.03914 105.976588 
L 274.760981 105.824982 
L 276.42728 105.471234 
L 278.149121 105.521769 
L 279.870962 105.370163 
L 281.426174 105.269092 
L 283.148015 105.168021 
L 284.814313 105.218557 
L 286.536155 104.460526 
L 288.202453 104.511061 
L 289.924294 104.460526 
L 291.646136 104.511061 
L 293.312434 104.511061 
L 295.034275 104.460526 
L 296.700573 104.40999 
L 298.422415 104.258384 
L 300.144256 104.258384 
L 301.755011 104.207848 
L 303.476852 104.207848 
L 305.14315 104.106778 
L 306.864992 104.056242 
L 308.53129 104.056242 
L 310.253131 104.005707 
L 311.974973 103.803565 
L 313.641271 103.955171 
L 315.363112 103.955171 
L 317.02941 103.399282 
L 318.751252 103.146605 
L 320.473093 104.157313 
L 322.028305 104.258384 
L 323.750146 103.854101 
L 325.416444 103.854101 
L 327.138286 103.298211 
L 328.804584 101.731613 
L 330.526425 98.952165 
L 332.248266 98.547881 
L 333.914565 97.840385 
L 335.636406 97.78985 
L 337.302704 97.638244 
L 339.024545 97.537173 
L 340.746387 97.638244 
L 342.301598 97.486638 
L 344.02344 97.082354 
L 345.689738 97.031819 
L 347.411579 96.981283 
L 349.077877 96.981283 
L 350.799719 96.981283 
L 352.52156 96.930748 
L 354.187858 96.930748 
L 355.9097 96.930748 
L 357.575998 96.829677 
L 359.297839 96.829677 
L 361.019681 96.728606 
L 362.574892 96.728606 
L 364.296734 96.678071 
L 365.963032 96.678071 
L 367.684873 96.829677 
L 369.351171 96.829677 
L 371.073013 96.779142 
L 372.794854 96.829677 
L 374.461152 96.779142 
L 376.182993 96.779142 
L 377.849292 96.779142 
L 379.571133 96.779142 
L 381.292974 96.779142 
L 382.903729 96.880212 
L 384.625571 96.829677 
L 386.291869 96.880212 
L 388.01371 97.031819 
L 389.680008 96.981283 
L 391.40185 96.930748 
L 393.123691 96.930748 
L 394.789989 96.829677 
L 396.51183 96.779142 
L 398.178129 96.678071 
L 399.89997 96.678071 
L 401.621811 96.627535 
L 403.177023 96.425394 
L 404.898864 96.172717 
L 406.565162 96.02111 
L 408.287004 96.071646 
L 409.953302 96.02111 
L 411.675143 95.970575 
L 413.396985 95.920039 
L 415.063283 95.869504 
L 416.785124 95.717898 
L 418.451422 95.768433 
L 420.173264 95.616827 
L 421.895105 95.616827 
L 423.450317 95.515756 
L 425.172158 95.465221 
L 426.838456 95.465221 
L 428.560298 95.515756 
L 430.226596 95.263079 
L 431.948437 95.263079 
L 433.670278 95.212544 
L 435.336577 95.36415 
L 437.058418 95.313614 
L 438.724716 95.313614 
L 440.446557 95.212544 
L 442.168399 95.060937 
L 443.72361 94.858796 
L 445.445452 94.80826 
L 447.11175 94.80826 
L 448.833591 94.656654 
L 448.833591 75.705871 
L 448.833591 75.705871 
L 447.11175 75.705871 
L 445.445452 75.705871 
L 443.72361 75.705871 
L 442.168399 75.756407 
L 440.446557 75.756407 
L 438.724716 75.857478 
L 437.058418 75.857478 
L 435.336577 75.908013 
L 433.670278 75.908013 
L 431.948437 75.908013 
L 430.226596 75.908013 
L 428.560298 76.009084 
L 426.838456 76.110155 
L 425.172158 76.110155 
L 423.450317 76.110155 
L 421.895105 76.110155 
L 420.173264 76.110155 
L 418.451422 76.16069 
L 416.785124 76.110155 
L 415.063283 76.211225 
L 413.396985 76.211225 
L 411.675143 76.211225 
L 409.953302 76.261761 
L 408.287004 76.261761 
L 406.565162 76.261761 
L 404.898864 76.312296 
L 403.177023 76.362832 
L 401.621811 76.413367 
L 399.89997 76.413367 
L 398.178129 76.362832 
L 396.51183 76.362832 
L 394.789989 76.362832 
L 393.123691 76.312296 
L 391.40185 76.312296 
L 389.680008 76.362832 
L 388.01371 76.362832 
L 386.291869 76.261761 
L 384.625571 76.211225 
L 382.903729 76.211225 
L 381.292974 76.261761 
L 379.571133 76.261761 
L 377.849292 76.261761 
L 376.182993 76.261761 
L 374.461152 76.261761 
L 372.794854 76.261761 
L 371.073013 76.261761 
L 369.351171 76.261761 
L 367.684873 76.261761 
L 365.963032 76.16069 
L 364.296734 76.16069 
L 362.574892 76.16069 
L 361.019681 76.16069 
L 359.297839 76.110155 
L 357.575998 76.110155 
L 355.9097 76.211225 
L 354.187858 76.211225 
L 352.52156 76.211225 
L 350.799719 76.261761 
L 349.077877 76.261761 
L 347.411579 76.261761 
L 345.689738 76.312296 
L 344.02344 76.362832 
L 342.301598 76.463903 
L 340.746387 76.463903 
L 339.024545 76.463903 
L 337.302704 76.666044 
L 335.636406 76.666044 
L 333.914565 76.666044 
L 332.248266 76.514438 
L 330.526425 76.564973 
L 328.804584 76.817651 
L 327.138286 78.030501 
L 325.416444 78.232642 
L 323.750146 78.283178 
L 322.028305 78.333713 
L 320.473093 78.333713 
L 318.751252 78.333713 
L 317.02941 78.333713 
L 315.363112 78.384249 
L 313.641271 78.384249 
L 311.974973 78.434784 
L 310.253131 78.485319 
L 308.53129 78.535855 
L 306.864992 78.535855 
L 305.14315 78.535855 
L 303.476852 78.535855 
L 301.755011 78.535855 
L 300.144256 78.58639 
L 298.422415 78.58639 
L 296.700573 78.636926 
L 295.034275 78.687461 
L 293.312434 78.687461 
L 291.646136 78.687461 
L 289.924294 78.687461 
L 288.202453 78.687461 
L 286.536155 78.687461 
L 284.814313 78.687461 
L 283.148015 78.687461 
L 281.426174 78.788532 
L 279.870962 78.788532 
L 278.149121 78.788532 
L 276.42728 78.839067 
L 274.760981 78.839067 
L 273.03914 78.889603 
L 271.372842 79.091744 
L 269.651001 80.304595 
L 267.929159 80.304595 
L 266.262861 80.304595 
L 264.54102 80.405665 
L 262.874722 80.405665 
L 261.15288 80.405665 
L 259.597669 80.405665 
L 257.875827 80.405665 
L 256.153986 80.405665 
L 254.487688 80.506736 
L 252.765846 80.405665 
L 251.099548 80.456201 
L 249.377707 80.557272 
L 247.655865 80.658342 
L 245.989567 80.91102 
L 244.267726 80.961555 
L 242.601428 80.961555 
L 240.879586 80.961555 
L 239.324375 80.961555 
L 237.602533 81.062626 
L 235.880692 81.062626 
L 234.214394 81.163697 
L 232.492553 81.163697 
L 230.826254 81.01209 
L 229.104413 81.113161 
L 227.382572 81.113161 
L 225.716274 81.113161 
L 223.994432 81.163697 
L 222.328134 81.163697 
L 220.606293 81.163697 
L 218.995538 81.214232 
L 217.273696 81.214232 
L 215.551855 81.264768 
L 213.885557 81.214232 
L 212.163716 81.214232 
L 210.497417 81.315303 
L 208.775576 81.365838 
L 205.498523 81.466909 
L 204.109941 82.224941 
L 202.943533 82.578688 
L 201.554951 81.770122 
L 200.444085 82.427082 
L 198.888874 82.477618 
L 195.722907 83.639932 
L 192.668028 83.639932 
L 191.723792 83.589397 
L 190.224124 83.791539 
L 188.668912 83.791539 
L 186.780441 83.892609 
L 185.614032 83.892609 
L 184.447624 83.943145 
L 179.337643 84.145287 
L 178.282321 84.145287 
L 172.83908 85.459207 
L 170.11746 85.610814 
L 169.228767 85.661349 
L 168.117902 85.812955 
L 167.395839 85.812955 
L 166.784863 85.812955 
L 163.119008 85.812955 
L 159.175435 86.116168 
L 157.175878 86.267774 
L 155.231863 86.31831 
L 151.732637 86.41938 
L 150.843945 86.570987 
L 149.39982 86.823664 
L 147.067002 87.126876 
L 143.45669 87.329018 
L 142.123651 88.137585 
L 139.013228 88.18812 
L 137.34693 88.541868 
L 135.402916 88.946151 
L 133.181185 89.047222 
L 131.57043 89.047222 
L 130.348478 89.047222 
L 129.515329 89.047222 
L 128.293377 89.249364 
L 127.126968 89.451506 
L 126.349363 89.603112 
L 126.127189 89.603112 
L 125.29404 89.552577 
L 124.183175 90.260072 
L 122.627963 89.653647 
L 122.072531 89.653647 
L 121.461555 89.754718 
L 120.572862 89.754718 
L 119.739713 89.754718 
L 118.962108 90.512749 
L 117.851242 90.512749 
L 117.462439 89.906324 
L 116.407117 90.664356 
L 115.074079 92.079348 
L 114.0743 93.241662 
L 113.518867 93.292198 
L 112.574631 93.292198 
L 111.963655 93.342733 
L 111.01942 94.100764 
L 110.241814 93.393268 
L 109.297578 93.393268 
L 105.631723 93.747016 
L 105.354006 93.797552 
L 103.132275 93.848087 
L 98.300011 90.512749 
L 95.689477 94.050229 
L 85.580602 96.475929 
L 69.306424 98.952165 
L 47.200202 100.670369 
L 28.14886 103.247675 
L 18.873134 106.279801 
L 9.486321 105.723911 
z
" clip-path="url(#p2702b65c75)" style="fill: #2ca02c"/>
   </g>
   <g id="PolyCollection_4">
    <path d="M 9.486321 75.048911 
L 9.486321 105.723911 
L 18.873134 106.279801 
L 28.14886 103.247675 
L 47.200202 100.670369 
L 69.306424 98.952165 
L 85.580602 96.475929 
L 95.689477 94.050229 
L 98.300011 90.512749 
L 103.132275 93.848087 
L 105.354006 93.797552 
L 105.631723 93.747016 
L 109.297578 93.393268 
L 110.241814 93.393268 
L 111.01942 94.100764 
L 111.963655 93.342733 
L 112.574631 93.292198 
L 113.518867 93.292198 
L 114.0743 93.241662 
L 115.074079 92.079348 
L 116.407117 90.664356 
L 117.462439 89.906324 
L 117.851242 90.512749 
L 118.962108 90.512749 
L 119.739713 89.754718 
L 120.572862 89.754718 
L 121.461555 89.754718 
L 122.072531 89.653647 
L 122.627963 89.653647 
L 124.183175 90.260072 
L 125.29404 89.552577 
L 126.127189 89.603112 
L 126.349363 89.603112 
L 127.126968 89.451506 
L 128.293377 89.249364 
L 129.515329 89.047222 
L 130.348478 89.047222 
L 131.57043 89.047222 
L 133.181185 89.047222 
L 135.402916 88.946151 
L 137.34693 88.541868 
L 139.013228 88.18812 
L 142.123651 88.137585 
L 143.45669 87.329018 
L 147.067002 87.126876 
L 149.39982 86.823664 
L 150.843945 86.570987 
L 151.732637 86.41938 
L 155.231863 86.31831 
L 157.175878 86.267774 
L 159.175435 86.116168 
L 163.119008 85.812955 
L 166.784863 85.812955 
L 167.395839 85.812955 
L 168.117902 85.812955 
L 169.228767 85.661349 
L 170.11746 85.610814 
L 172.83908 85.459207 
L 178.282321 84.145287 
L 179.337643 84.145287 
L 184.447624 83.943145 
L 185.614032 83.892609 
L 186.780441 83.892609 
L 188.668912 83.791539 
L 190.224124 83.791539 
L 191.723792 83.589397 
L 192.668028 83.639932 
L 195.722907 83.639932 
L 198.888874 82.477618 
L 200.444085 82.427082 
L 201.554951 81.770122 
L 202.943533 82.578688 
L 204.109941 82.224941 
L 205.498523 81.466909 
L 208.775576 81.365838 
L 210.497417 81.315303 
L 212.163716 81.214232 
L 213.885557 81.214232 
L 215.551855 81.264768 
L 217.273696 81.214232 
L 218.995538 81.214232 
L 220.606293 81.163697 
L 222.328134 81.163697 
L 223.994432 81.163697 
L 225.716274 81.113161 
L 227.382572 81.113161 
L 229.104413 81.113161 
L 230.826254 81.01209 
L 232.492553 81.163697 
L 234.214394 81.163697 
L 235.880692 81.062626 
L 237.602533 81.062626 
L 239.324375 80.961555 
L 240.879586 80.961555 
L 242.601428 80.961555 
L 244.267726 80.961555 
L 245.989567 80.91102 
L 247.655865 80.658342 
L 249.377707 80.557272 
L 251.099548 80.456201 
L 252.765846 80.405665 
L 254.487688 80.506736 
L 256.153986 80.405665 
L 257.875827 80.405665 
L 259.597669 80.405665 
L 261.15288 80.405665 
L 262.874722 80.405665 
L 264.54102 80.405665 
L 266.262861 80.304595 
L 267.929159 80.304595 
L 269.651001 80.304595 
L 271.372842 79.091744 
L 273.03914 78.889603 
L 274.760981 78.839067 
L 276.42728 78.839067 
L 278.149121 78.788532 
L 279.870962 78.788532 
L 281.426174 78.788532 
L 283.148015 78.687461 
L 284.814313 78.687461 
L 286.536155 78.687461 
L 288.202453 78.687461 
L 289.924294 78.687461 
L 291.646136 78.687461 
L 293.312434 78.687461 
L 295.034275 78.687461 
L 296.700573 78.636926 
L 298.422415 78.58639 
L 300.144256 78.58639 
L 301.755011 78.535855 
L 303.476852 78.535855 
L 305.14315 78.535855 
L 306.864992 78.535855 
L 308.53129 78.535855 
L 310.253131 78.485319 
L 311.974973 78.434784 
L 313.641271 78.384249 
L 315.363112 78.384249 
L 317.02941 78.333713 
L 318.751252 78.333713 
L 320.473093 78.333713 
L 322.028305 78.333713 
L 323.750146 78.283178 
L 325.416444 78.232642 
L 327.138286 78.030501 
L 328.804584 76.817651 
L 330.526425 76.564973 
L 332.248266 76.514438 
L 333.914565 76.666044 
L 335.636406 76.666044 
L 337.302704 76.666044 
L 339.024545 76.463903 
L 340.746387 76.463903 
L 342.301598 76.463903 
L 344.02344 76.362832 
L 345.689738 76.312296 
L 347.411579 76.261761 
L 349.077877 76.261761 
L 350.799719 76.261761 
L 352.52156 76.211225 
L 354.187858 76.211225 
L 355.9097 76.211225 
L 357.575998 76.110155 
L 359.297839 76.110155 
L 361.019681 76.16069 
L 362.574892 76.16069 
L 364.296734 76.16069 
L 365.963032 76.16069 
L 367.684873 76.261761 
L 369.351171 76.261761 
L 371.073013 76.261761 
L 372.794854 76.261761 
L 374.461152 76.261761 
L 376.182993 76.261761 
L 377.849292 76.261761 
L 379.571133 76.261761 
L 381.292974 76.261761 
L 382.903729 76.211225 
L 384.625571 76.211225 
L 386.291869 76.261761 
L 388.01371 76.362832 
L 389.680008 76.362832 
L 391.40185 76.312296 
L 393.123691 76.312296 
L 394.789989 76.362832 
L 396.51183 76.362832 
L 398.178129 76.362832 
L 399.89997 76.413367 
L 401.621811 76.413367 
L 403.177023 76.362832 
L 404.898864 76.312296 
L 406.565162 76.261761 
L 408.287004 76.261761 
L 409.953302 76.261761 
L 411.675143 76.211225 
L 413.396985 76.211225 
L 415.063283 76.211225 
L 416.785124 76.110155 
L 418.451422 76.16069 
L 420.173264 76.110155 
L 421.895105 76.110155 
L 423.450317 76.110155 
L 425.172158 76.110155 
L 426.838456 76.110155 
L 428.560298 76.009084 
L 430.226596 75.908013 
L 431.948437 75.908013 
L 433.670278 75.908013 
L 435.336577 75.908013 
L 437.058418 75.857478 
L 438.724716 75.857478 
L 440.446557 75.756407 
L 442.168399 75.756407 
L 443.72361 75.705871 
L 445.445452 75.705871 
L 447.11175 75.705871 
L 448.833591 75.705871 
L 448.833591 62.415056 
L 448.833591 62.415056 
L 447.11175 62.415056 
L 445.445452 62.415056 
L 443.72361 62.415056 
L 442.168399 62.667733 
L 440.446557 62.718268 
L 438.724716 62.768804 
L 437.058418 62.768804 
L 435.336577 62.768804 
L 433.670278 62.768804 
L 431.948437 62.768804 
L 430.226596 62.768804 
L 428.560298 62.768804 
L 426.838456 62.768804 
L 425.172158 62.768804 
L 423.450317 62.819339 
L 421.895105 62.768804 
L 420.173264 62.768804 
L 418.451422 62.819339 
L 416.785124 62.465591 
L 415.063283 62.465591 
L 413.396985 62.010772 
L 411.675143 62.010772 
L 409.953302 62.010772 
L 408.287004 62.010772 
L 406.565162 62.010772 
L 404.898864 62.010772 
L 403.177023 62.061308 
L 401.621811 62.061308 
L 399.89997 62.061308 
L 398.178129 62.010772 
L 396.51183 62.010772 
L 394.789989 62.010772 
L 393.123691 62.061308 
L 391.40185 62.061308 
L 389.680008 62.061308 
L 388.01371 62.061308 
L 386.291869 61.960237 
L 384.625571 61.909701 
L 382.903729 61.909701 
L 381.292974 61.909701 
L 379.571133 61.909701 
L 377.849292 61.909701 
L 376.182993 61.909701 
L 374.461152 61.909701 
L 372.794854 61.909701 
L 371.073013 61.909701 
L 369.351171 61.909701 
L 367.684873 61.909701 
L 365.963032 61.808631 
L 364.296734 61.808631 
L 362.574892 61.808631 
L 361.019681 61.808631 
L 359.297839 61.808631 
L 357.575998 61.808631 
L 355.9097 61.808631 
L 354.187858 61.808631 
L 352.52156 61.808631 
L 350.799719 61.758095 
L 349.077877 61.758095 
L 347.411579 61.758095 
L 345.689738 61.758095 
L 344.02344 61.758095 
L 342.301598 61.758095 
L 340.746387 61.758095 
L 339.024545 61.758095 
L 337.302704 61.758095 
L 335.636406 61.758095 
L 333.914565 61.758095 
L 332.248266 61.758095 
L 330.526425 61.758095 
L 328.804584 61.758095 
L 327.138286 61.758095 
L 325.416444 61.758095 
L 323.750146 61.758095 
L 322.028305 61.758095 
L 320.473093 61.758095 
L 318.751252 61.758095 
L 317.02941 61.758095 
L 315.363112 61.758095 
L 313.641271 61.758095 
L 311.974973 61.758095 
L 310.253131 61.758095 
L 308.53129 61.758095 
L 306.864992 61.758095 
L 305.14315 61.758095 
L 303.476852 61.758095 
L 301.755011 62.212914 
L 300.144256 62.263449 
L 298.422415 62.263449 
L 296.700573 62.263449 
L 295.034275 62.465591 
L 293.312434 62.465591 
L 291.646136 62.465591 
L 289.924294 62.465591 
L 288.202453 62.465591 
L 286.536155 62.465591 
L 284.814313 62.465591 
L 283.148015 62.465591 
L 281.426174 62.465591 
L 279.870962 62.465591 
L 278.149121 62.465591 
L 276.42728 62.516127 
L 274.760981 62.516127 
L 273.03914 62.516127 
L 271.372842 62.516127 
L 269.651001 62.162379 
L 267.929159 62.36452 
L 266.262861 62.313985 
L 264.54102 62.313985 
L 262.874722 62.313985 
L 261.15288 62.313985 
L 259.597669 62.313985 
L 257.875827 62.313985 
L 256.153986 62.313985 
L 254.487688 62.36452 
L 252.765846 62.36452 
L 251.099548 62.36452 
L 249.377707 62.313985 
L 247.655865 62.313985 
L 245.989567 62.313985 
L 244.267726 62.313985 
L 242.601428 62.313985 
L 240.879586 62.313985 
L 239.324375 62.313985 
L 237.602533 62.313985 
L 235.880692 62.313985 
L 234.214394 62.313985 
L 232.492553 62.36452 
L 230.826254 62.313985 
L 229.104413 62.36452 
L 227.382572 62.313985 
L 225.716274 62.313985 
L 223.994432 62.313985 
L 222.328134 62.313985 
L 220.606293 62.313985 
L 218.995538 62.313985 
L 217.273696 62.36452 
L 215.551855 62.36452 
L 213.885557 62.313985 
L 212.163716 62.313985 
L 210.497417 62.313985 
L 208.775576 62.415056 
L 205.498523 62.516127 
L 204.109941 63.375229 
L 202.943533 63.4763 
L 201.554951 62.667733 
L 200.444085 64.638614 
L 198.888874 64.638614 
L 195.722907 66.457889 
L 192.668028 66.457889 
L 191.723792 66.407354 
L 190.224124 66.609496 
L 188.668912 66.55896 
L 186.780441 66.55896 
L 185.614032 66.55896 
L 184.447624 66.55896 
L 179.337643 66.963244 
L 178.282321 66.963244 
L 172.83908 67.215921 
L 170.11746 67.165385 
L 169.228767 67.165385 
L 168.117902 67.266456 
L 167.395839 67.266456 
L 166.784863 67.266456 
L 163.119008 67.973952 
L 159.175435 68.125558 
L 157.175878 68.125558 
L 155.231863 68.125558 
L 151.732637 68.125558 
L 150.843945 68.075023 
L 149.39982 68.075023 
L 147.067002 67.923417 
L 143.45669 67.872881 
L 142.123651 69.186802 
L 139.013228 69.338408 
L 137.34693 69.490015 
L 135.402916 69.338408 
L 133.181185 69.338408 
L 131.57043 69.287873 
L 130.348478 69.287873 
L 129.515329 69.287873 
L 128.293377 69.237337 
L 127.126968 69.237337 
L 126.349363 69.287873 
L 126.127189 69.287873 
L 125.29404 69.287873 
L 124.183175 69.843763 
L 122.627963 69.287873 
L 122.072531 69.287873 
L 121.461555 69.338408 
L 120.572862 69.237337 
L 119.739713 69.237337 
L 118.962108 69.742692 
L 117.851242 69.641621 
L 117.462439 69.085731 
L 116.407117 69.793227 
L 115.074079 69.591085 
L 114.0743 69.641621 
L 113.518867 69.641621 
L 112.574631 69.641621 
L 111.963655 69.692156 
L 111.01942 70.349117 
L 110.241814 69.641621 
L 109.297578 69.641621 
L 105.631723 70.905006 
L 105.354006 70.955542 
L 103.132275 70.905006 
L 98.300011 69.742692 
L 95.689477 70.905006 
L 85.580602 71.915715 
L 69.306424 72.471604 
L 47.200202 73.381242 
L 28.14886 73.937132 
L 18.873134 75.251053 
L 9.486321 75.048911 
z
" clip-path="url(#p2702b65c75)" style="fill: #d62728"/>
   </g>
   <g id="matplotlib.axis_1">
    <g id="xtick_1">
     <g id="line2d_1">
      <defs>
       <path id="m14aa8b7947" d="M 0 0 
L 0 3.5 
" style="stroke: #000000; stroke-width: 0.8"/>
      </defs>
      <g>
       <use xlink:href="#m14aa8b7947" x="54.97626" y="317.72" style="stroke: #000000; stroke-width: 0.8"/>
      </g>
     </g>
     <g id="text_1">
      <!-- 2004 -->
      <g transform="translate(42.25126 332.318437) scale(0.1 -0.1)">
       <defs>
        <path id="DejaVuSans-32" d="M 1228 531 
L 3431 531 
L 3431 0 
L 469 0 
L 469 531 
Q 828 903 1448 1529 
Q 2069 2156 2228 2338 
Q 2531 2678 2651 2914 
Q 2772 3150 2772 3378 
Q 2772 3750 2511 3984 
Q 2250 4219 1831 4219 
Q 1534 4219 1204 4116 
Q 875 4013 500 3803 
L 500 4441 
Q 881 4594 1212 4672 
Q 1544 4750 1819 4750 
Q 2544 4750 2975 4387 
Q 3406 4025 3406 3419 
Q 3406 3131 3298 2873 
Q 3191 2616 2906 2266 
Q 2828 2175 2409 1742 
Q 1991 1309 1228 531 
z
" transform="scale(0.015625)"/>
        <path id="DejaVuSans-30" d="M 2034 4250 
Q 1547 4250 1301 3770 
Q 1056 3291 1056 2328 
Q 1056 1369 1301 889 
Q 1547 409 2034 409 
Q 2525 409 2770 889 
Q 3016 1369 3016 2328 
Q 3016 3291 2770 3770 
Q 2525 4250 2034 4250 
z
M 2034 4750 
Q 2819 4750 3233 4129 
Q 3647 3509 3647 2328 
Q 3647 1150 3233 529 
Q 2819 -91 2034 -91 
Q 1250 -91 836 529 
Q 422 1150 422 2328 
Q 422 3509 836 4129 
Q 1250 4750 2034 4750 
z
" transform="scale(0.015625)"/>
        <path id="DejaVuSans-34" d="M 2419 4116 
L 825 1625 
L 2419 1625 
L 2419 4116 
z
M 2253 4666 
L 3047 4666 
L 3047 1625 
L 3713 1625 
L 3713 1100 
L 3047 1100 
L 3047 0 
L 2419 0 
L 2419 1100 
L 313 1100 
L 313 1709 
L 2253 4666 
z
" transform="scale(0.015625)"/>
       </defs>
       <use xlink:href="#DejaVuSans-32"/>
       <use xlink:href="#DejaVuSans-30" x="63.623047"/>
       <use xlink:href="#DejaVuSans-30" x="127.246094"/>
       <use xlink:href="#DejaVuSans-34" x="190.869141"/>
      </g>
     </g>
    </g>
    <g id="xtick_2">
     <g id="line2d_2">
      <g>
       <use xlink:href="#m14aa8b7947" x="95.578391" y="317.72" style="stroke: #000000; stroke-width: 0.8"/>
      </g>
     </g>
     <g id="text_2">
      <!-- 2006 -->
      <g transform="translate(82.853391 332.318437) scale(0.1 -0.1)">
       <defs>
        <path id="DejaVuSans-36" d="M 2113 2584 
Q 1688 2584 1439 2293 
Q 1191 2003 1191 1497 
Q 1191 994 1439 701 
Q 1688 409 2113 409 
Q 2538 409 2786 701 
Q 3034 994 3034 1497 
Q 3034 2003 2786 2293 
Q 2538 2584 2113 2584 
z
M 3366 4563 
L 3366 3988 
Q 3128 4100 2886 4159 
Q 2644 4219 2406 4219 
Q 1781 4219 1451 3797 
Q 1122 3375 1075 2522 
Q 1259 2794 1537 2939 
Q 1816 3084 2150 3084 
Q 2853 3084 3261 2657 
Q 3669 2231 3669 1497 
Q 3669 778 3244 343 
Q 2819 -91 2113 -91 
Q 1303 -91 875 529 
Q 447 1150 447 2328 
Q 447 3434 972 4092 
Q 1497 4750 2381 4750 
Q 2619 4750 2861 4703 
Q 3103 4656 3366 4563 
z
" transform="scale(0.015625)"/>
       </defs>
       <use xlink:href="#DejaVuSans-32"/>
       <use xlink:href="#DejaVuSans-30" x="63.623047"/>
       <use xlink:href="#DejaVuSans-30" x="127.246094"/>
       <use xlink:href="#DejaVuSans-36" x="190.869141"/>
      </g>
     </g>
    </g>
    <g id="xtick_3">
     <g id="line2d_3">
      <g>
       <use xlink:href="#m14aa8b7947" x="136.124978" y="317.72" style="stroke: #000000; stroke-width: 0.8"/>
      </g>
     </g>
     <g id="text_3">
      <!-- 2008 -->
      <g transform="translate(123.399978 332.318437) scale(0.1 -0.1)">
       <defs>
        <path id="DejaVuSans-38" d="M 2034 2216 
Q 1584 2216 1326 1975 
Q 1069 1734 1069 1313 
Q 1069 891 1326 650 
Q 1584 409 2034 409 
Q 2484 409 2743 651 
Q 3003 894 3003 1313 
Q 3003 1734 2745 1975 
Q 2488 2216 2034 2216 
z
M 1403 2484 
Q 997 2584 770 2862 
Q 544 3141 544 3541 
Q 544 4100 942 4425 
Q 1341 4750 2034 4750 
Q 2731 4750 3128 4425 
Q 3525 4100 3525 3541 
Q 3525 3141 3298 2862 
Q 3072 2584 2669 2484 
Q 3125 2378 3379 2068 
Q 3634 1759 3634 1313 
Q 3634 634 3220 271 
Q 2806 -91 2034 -91 
Q 1263 -91 848 271 
Q 434 634 434 1313 
Q 434 1759 690 2068 
Q 947 2378 1403 2484 
z
M 1172 3481 
Q 1172 3119 1398 2916 
Q 1625 2713 2034 2713 
Q 2441 2713 2670 2916 
Q 2900 3119 2900 3481 
Q 2900 3844 2670 4047 
Q 2441 4250 2034 4250 
Q 1625 4250 1398 4047 
Q 1172 3844 1172 3481 
z
" transform="scale(0.015625)"/>
       </defs>
       <use xlink:href="#DejaVuSans-32"/>
       <use xlink:href="#DejaVuSans-30" x="63.623047"/>
       <use xlink:href="#DejaVuSans-30" x="127.246094"/>
       <use xlink:href="#DejaVuSans-38" x="190.869141"/>
      </g>
     </g>
    </g>
    <g id="xtick_4">
     <g id="line2d_4">
      <g>
       <use xlink:href="#m14aa8b7947" x="176.727109" y="317.72" style="stroke: #000000; stroke-width: 0.8"/>
      </g>
     </g>
     <g id="text_4">
      <!-- 2010 -->
      <g transform="translate(164.002109 332.318437) scale(0.1 -0.1)">
       <defs>
        <path id="DejaVuSans-31" d="M 794 531 
L 1825 531 
L 1825 4091 
L 703 3866 
L 703 4441 
L 1819 4666 
L 2450 4666 
L 2450 531 
L 3481 531 
L 3481 0 
L 794 0 
L 794 531 
z
" transform="scale(0.015625)"/>
       </defs>
       <use xlink:href="#DejaVuSans-32"/>
       <use xlink:href="#DejaVuSans-30" x="63.623047"/>
       <use xlink:href="#DejaVuSans-31" x="127.246094"/>
       <use xlink:href="#DejaVuSans-30" x="190.869141"/>
      </g>
     </g>
    </g>
    <g id="xtick_5">
     <g id="line2d_5">
      <g>
       <use xlink:href="#m14aa8b7947" x="217.273696" y="317.72" style="stroke: #000000; stroke-width: 0.8"/>
      </g>
     </g>
     <g id="text_5">
      <!-- 2012 -->
      <g transform="translate(204.548696 332.318437) scale(0.1 -0.1)">
       <use xlink:href="#DejaVuSans-32"/>
       <use xlink:href="#DejaVuSans-30" x="63.623047"/>
       <use xlink:href="#DejaVuSans-31" x="127.246094"/>
       <use xlink:href="#DejaVuSans-32" x="190.869141"/>
      </g>
     </g>
    </g>
    <g id="xtick_6">
     <g id="line2d_6">
      <g>
       <use xlink:href="#m14aa8b7947" x="257.875827" y="317.72" style="stroke: #000000; stroke-width: 0.8"/>
      </g>
     </g>
     <g id="text_6">
      <!-- 2014 -->
      <g transform="translate(245.150827 332.318437) scale(0.1 -0.1)">
       <use xlink:href="#DejaVuSans-32"/>
       <use xlink:href="#DejaVuSans-30" x="63.623047"/>
       <use xlink:href="#DejaVuSans-31" x="127.246094"/>
       <use xlink:href="#DejaVuSans-34" x="190.869141"/>
      </g>
     </g>
    </g>
    <g id="xtick_7">
     <g id="line2d_7">
      <g>
       <use xlink:href="#m14aa8b7947" x="298.422415" y="317.72" style="stroke: #000000; stroke-width: 0.8"/>
      </g>
     </g>
     <g id="text_7">
      <!-- 2016 -->
      <g transform="translate(285.697415 332.318437) scale(0.1 -0.1)">
       <use xlink:href="#DejaVuSans-32"/>
       <use xlink:href="#DejaVuSans-30" x="63.623047"/>
       <use xlink:href="#DejaVuSans-31" x="127.246094"/>
       <use xlink:href="#DejaVuSans-36" x="190.869141"/>
      </g>
     </g>
    </g>
    <g id="xtick_8">
     <g id="line2d_8">
      <g>
       <use xlink:href="#m14aa8b7947" x="339.024545" y="317.72" style="stroke: #000000; stroke-width: 0.8"/>
      </g>
     </g>
     <g id="text_8">
      <!-- 2018 -->
      <g transform="translate(326.299545 332.318437) scale(0.1 -0.1)">
       <use xlink:href="#DejaVuSans-32"/>
       <use xlink:href="#DejaVuSans-30" x="63.623047"/>
       <use xlink:href="#DejaVuSans-31" x="127.246094"/>
       <use xlink:href="#DejaVuSans-38" x="190.869141"/>
      </g>
     </g>
    </g>
    <g id="xtick_9">
     <g id="line2d_9">
      <g>
       <use xlink:href="#m14aa8b7947" x="379.571133" y="317.72" style="stroke: #000000; stroke-width: 0.8"/>
      </g>
     </g>
     <g id="text_9">
      <!-- 2020 -->
      <g transform="translate(366.846133 332.318437) scale(0.1 -0.1)">
       <use xlink:href="#DejaVuSans-32"/>
       <use xlink:href="#DejaVuSans-30" x="63.623047"/>
       <use xlink:href="#DejaVuSans-32" x="127.246094"/>
       <use xlink:href="#DejaVuSans-30" x="190.869141"/>
      </g>
     </g>
    </g>
    <g id="xtick_10">
     <g id="line2d_10">
      <g>
       <use xlink:href="#m14aa8b7947" x="420.173264" y="317.72" style="stroke: #000000; stroke-width: 0.8"/>
      </g>
     </g>
     <g id="text_10">
      <!-- 2022 -->
      <g transform="translate(407.448264 332.318437) scale(0.1 -0.1)">
       <use xlink:href="#DejaVuSans-32"/>
       <use xlink:href="#DejaVuSans-30" x="63.623047"/>
       <use xlink:href="#DejaVuSans-32" x="127.246094"/>
       <use xlink:href="#DejaVuSans-32" x="190.869141"/>
      </g>
     </g>
    </g>
   </g>
   <g id="matplotlib.axis_2">
    <g id="ytick_1">
     <g id="line2d_11">
      <defs>
       <path id="m8010daff0f" d="M 0 0 
L -3.5 0 
" style="stroke: #000000; stroke-width: 0.8"/>
      </defs>
      <g>
       <use xlink:href="#m8010daff0f" x="43.09" y="317.72" style="stroke: #000000; stroke-width: 0.8"/>
      </g>
     </g>
     <g id="text_11">
      <!-- 0 -->
      <g transform="translate(29.7275 321.519219) scale(0.1 -0.1)">
       <use xlink:href="#DejaVuSans-30"/>
      </g>
     </g>
    </g>
    <g id="ytick_2">
     <g id="line2d_12">
      <g>
       <use xlink:href="#m8010daff0f" x="43.09" y="267.18458" style="stroke: #000000; stroke-width: 0.8"/>
      </g>
     </g>
     <g id="text_12">
      <!-- 1000 -->
      <g transform="translate(10.64 270.983798) scale(0.1 -0.1)">
       <use xlink:href="#DejaVuSans-31"/>
       <use xlink:href="#DejaVuSans-30" x="63.623047"/>
       <use xlink:href="#DejaVuSans-30" x="127.246094"/>
       <use xlink:href="#DejaVuSans-30" x="190.869141"/>
      </g>
     </g>
    </g>
    <g id="ytick_3">
     <g id="line2d_13">
      <g>
       <use xlink:href="#m8010daff0f" x="43.09" y="216.649159" style="stroke: #000000; stroke-width: 0.8"/>
      </g>
     </g>
     <g id="text_13">
      <!-- 2000 -->
      <g transform="translate(10.64 220.448378) scale(0.1 -0.1)">
       <use xlink:href="#DejaVuSans-32"/>
       <use xlink:href="#DejaVuSans-30" x="63.623047"/>
       <use xlink:href="#DejaVuSans-30" x="127.246094"/>
       <use xlink:href="#DejaVuSans-30" x="190.869141"/>
      </g>
     </g>
    </g>
    <g id="ytick_4">
     <g id="line2d_14">
      <g>
       <use xlink:href="#m8010daff0f" x="43.09" y="166.113739" style="stroke: #000000; stroke-width: 0.8"/>
      </g>
     </g>
     <g id="text_14">
      <!-- 3000 -->
      <g transform="translate(10.64 169.912957) scale(0.1 -0.1)">
       <defs>
        <path id="DejaVuSans-33" d="M 2597 2516 
Q 3050 2419 3304 2112 
Q 3559 1806 3559 1356 
Q 3559 666 3084 287 
Q 2609 -91 1734 -91 
Q 1441 -91 1130 -33 
Q 819 25 488 141 
L 488 750 
Q 750 597 1062 519 
Q 1375 441 1716 441 
Q 2309 441 2620 675 
Q 2931 909 2931 1356 
Q 2931 1769 2642 2001 
Q 2353 2234 1838 2234 
L 1294 2234 
L 1294 2753 
L 1863 2753 
Q 2328 2753 2575 2939 
Q 2822 3125 2822 3475 
Q 2822 3834 2567 4026 
Q 2313 4219 1838 4219 
Q 1578 4219 1281 4162 
Q 984 4106 628 3988 
L 628 4550 
Q 988 4650 1302 4700 
Q 1616 4750 1894 4750 
Q 2613 4750 3031 4423 
Q 3450 4097 3450 3541 
Q 3450 3153 3228 2886 
Q 3006 2619 2597 2516 
z
" transform="scale(0.015625)"/>
       </defs>
       <use xlink:href="#DejaVuSans-33"/>
       <use xlink:href="#DejaVuSans-30" x="63.623047"/>
       <use xlink:href="#DejaVuSans-30" x="127.246094"/>
       <use xlink:href="#DejaVuSans-30" x="190.869141"/>
      </g>
     </g>
    </g>
    <g id="ytick_5">
     <g id="line2d_15">
      <g>
       <use xlink:href="#m8010daff0f" x="43.09" y="115.578318" style="stroke: #000000; stroke-width: 0.8"/>
      </g>
     </g>
     <g id="text_15">
      <!-- 4000 -->
      <g transform="translate(10.64 119.377537) scale(0.1 -0.1)">
       <use xlink:href="#DejaVuSans-34"/>
       <use xlink:href="#DejaVuSans-30" x="63.623047"/>
       <use xlink:href="#DejaVuSans-30" x="127.246094"/>
       <use xlink:href="#DejaVuSans-30" x="190.869141"/>
      </g>
     </g>
    </g>
    <g id="ytick_6">
     <g id="line2d_16">
      <g>
       <use xlink:href="#m8010daff0f" x="43.09" y="65.042898" style="stroke: #000000; stroke-width: 0.8"/>
      </g>
     </g>
     <g id="text_16">
      <!-- 5000 -->
      <g transform="translate(10.64 68.842116) scale(0.1 -0.1)">
       <defs>
        <path id="DejaVuSans-35" d="M 691 4666 
L 3169 4666 
L 3169 4134 
L 1269 4134 
L 1269 2991 
Q 1406 3038 1543 3061 
Q 1681 3084 1819 3084 
Q 2600 3084 3056 2656 
Q 3513 2228 3513 1497 
Q 3513 744 3044 326 
Q 2575 -91 1722 -91 
Q 1428 -91 1123 -41 
Q 819 9 494 109 
L 494 744 
Q 775 591 1075 516 
Q 1375 441 1709 441 
Q 2250 441 2565 725 
Q 2881 1009 2881 1497 
Q 2881 1984 2565 2268 
Q 2250 2553 1709 2553 
Q 1456 2553 1204 2497 
Q 953 2441 691 2322 
L 691 4666 
z
" transform="scale(0.015625)"/>
       </defs>
       <use xlink:href="#DejaVuSans-35"/>
       <use xlink:href="#DejaVuSans-30" x="63.623047"/>
       <use xlink:href="#DejaVuSans-30" x="127.246094"/>
       <use xlink:href="#DejaVuSans-30" x="190.869141"/>
      </g>
     </g>
    </g>
   </g>
   <g id="patch_3">
    <path d="M 43.09 317.72 
L 43.09 48.96 
" style="fill: none; stroke: #000000; stroke-width: 0.8; stroke-linejoin: miter; stroke-linecap: square"/>
   </g>
   <g id="patch_4">
    <path d="M 450 317.72 
L 450 48.96 
" style="fill: none; stroke: #000000; stroke-width: 0.8; stroke-linejoin: miter; stroke-linecap: square"/>
   </g>
   <g id="patch_5">
    <path d="M 43.09 317.72 
L 450 317.72 
" style="fill: none; stroke: #000000; stroke-width: 0.8; stroke-linejoin: miter; stroke-linecap: square"/>
   </g>
   <g id="patch_6">
    <path d="M 43.09 48.96 
L 450 48.96 
" style="fill: none; stroke: #000000; stroke-width: 0.8; stroke-linejoin: miter; stroke-linecap: square"/>
   </g>
   <g id="legend_1">
    <g id="patch_7">
     <path d="M 119.555156 43.96 
L 373.534844 43.96 
Q 375.534844 43.96 375.534844 41.96 
L 375.534844 13.60375 
Q 375.534844 11.60375 373.534844 11.60375 
L 119.555156 11.60375 
Q 117.555156 11.60375 117.555156 13.60375 
L 117.555156 41.96 
Q 117.555156 43.96 119.555156 43.96 
z
" style="fill: #ffffff; opacity: 0.8; stroke: #cccccc; stroke-linejoin: miter"/>
    </g>
    <g id="patch_8">
     <path d="M 121.555156 23.202187 
L 141.555156 23.202187 
L 141.555156 16.202187 
L 121.555156 16.202187 
z
" style="fill: #1f77b4"/>
    </g>
    <g id="text_17">
     <!-- Published -->
     <g transform="translate(149.555156 23.202187) scale(0.1 -0.1)">
      <defs>
       <path id="DejaVuSans-50" d="M 1259 4147 
L 1259 2394 
L 2053 2394 
Q 2494 2394 2734 2622 
Q 2975 2850 2975 3272 
Q 2975 3691 2734 3919 
Q 2494 4147 2053 4147 
L 1259 4147 
z
M 628 4666 
L 2053 4666 
Q 2838 4666 3239 4311 
Q 3641 3956 3641 3272 
Q 3641 2581 3239 2228 
Q 2838 1875 2053 1875 
L 1259 1875 
L 1259 0 
L 628 0 
L 628 4666 
z
" transform="scale(0.015625)"/>
       <path id="DejaVuSans-75" d="M 544 1381 
L 544 3500 
L 1119 3500 
L 1119 1403 
Q 1119 906 1312 657 
Q 1506 409 1894 409 
Q 2359 409 2629 706 
Q 2900 1003 2900 1516 
L 2900 3500 
L 3475 3500 
L 3475 0 
L 2900 0 
L 2900 538 
Q 2691 219 2414 64 
Q 2138 -91 1772 -91 
Q 1169 -91 856 284 
Q 544 659 544 1381 
z
M 1991 3584 
L 1991 3584 
z
" transform="scale(0.015625)"/>
       <path id="DejaVuSans-62" d="M 3116 1747 
Q 3116 2381 2855 2742 
Q 2594 3103 2138 3103 
Q 1681 3103 1420 2742 
Q 1159 2381 1159 1747 
Q 1159 1113 1420 752 
Q 1681 391 2138 391 
Q 2594 391 2855 752 
Q 3116 1113 3116 1747 
z
M 1159 2969 
Q 1341 3281 1617 3432 
Q 1894 3584 2278 3584 
Q 2916 3584 3314 3078 
Q 3713 2572 3713 1747 
Q 3713 922 3314 415 
Q 2916 -91 2278 -91 
Q 1894 -91 1617 61 
Q 1341 213 1159 525 
L 1159 0 
L 581 0 
L 581 4863 
L 1159 4863 
L 1159 2969 
z
" transform="scale(0.015625)"/>
       <path id="DejaVuSans-6c" d="M 603 4863 
L 1178 4863 
L 1178 0 
L 603 0 
L 603 4863 
z
" transform="scale(0.015625)"/>
       <path id="DejaVuSans-69" d="M 603 3500 
L 1178 3500 
L 1178 0 
L 603 0 
L 603 3500 
z
M 603 4863 
L 1178 4863 
L 1178 4134 
L 603 4134 
L 603 4863 
z
" transform="scale(0.015625)"/>
       <path id="DejaVuSans-73" d="M 2834 3397 
L 2834 2853 
Q 2591 2978 2328 3040 
Q 2066 3103 1784 3103 
Q 1356 3103 1142 2972 
Q 928 2841 928 2578 
Q 928 2378 1081 2264 
Q 1234 2150 1697 2047 
L 1894 2003 
Q 2506 1872 2764 1633 
Q 3022 1394 3022 966 
Q 3022 478 2636 193 
Q 2250 -91 1575 -91 
Q 1294 -91 989 -36 
Q 684 19 347 128 
L 347 722 
Q 666 556 975 473 
Q 1284 391 1588 391 
Q 1994 391 2212 530 
Q 2431 669 2431 922 
Q 2431 1156 2273 1281 
Q 2116 1406 1581 1522 
L 1381 1569 
Q 847 1681 609 1914 
Q 372 2147 372 2553 
Q 372 3047 722 3315 
Q 1072 3584 1716 3584 
Q 2034 3584 2315 3537 
Q 2597 3491 2834 3397 
z
" transform="scale(0.015625)"/>
       <path id="DejaVuSans-68" d="M 3513 2113 
L 3513 0 
L 2938 0 
L 2938 2094 
Q 2938 2591 2744 2837 
Q 2550 3084 2163 3084 
Q 1697 3084 1428 2787 
Q 1159 2491 1159 1978 
L 1159 0 
L 581 0 
L 581 4863 
L 1159 4863 
L 1159 2956 
Q 1366 3272 1645 3428 
Q 1925 3584 2291 3584 
Q 2894 3584 3203 3211 
Q 3513 2838 3513 2113 
z
" transform="scale(0.015625)"/>
       <path id="DejaVuSans-65" d="M 3597 1894 
L 3597 1613 
L 953 1613 
Q 991 1019 1311 708 
Q 1631 397 2203 397 
Q 2534 397 2845 478 
Q 3156 559 3463 722 
L 3463 178 
Q 3153 47 2828 -22 
Q 2503 -91 2169 -91 
Q 1331 -91 842 396 
Q 353 884 353 1716 
Q 353 2575 817 3079 
Q 1281 3584 2069 3584 
Q 2775 3584 3186 3129 
Q 3597 2675 3597 1894 
z
M 3022 2063 
Q 3016 2534 2758 2815 
Q 2500 3097 2075 3097 
Q 1594 3097 1305 2825 
Q 1016 2553 972 2059 
L 3022 2063 
z
" transform="scale(0.015625)"/>
       <path id="DejaVuSans-64" d="M 2906 2969 
L 2906 4863 
L 3481 4863 
L 3481 0 
L 2906 0 
L 2906 525 
Q 2725 213 2448 61 
Q 2172 -91 1784 -91 
Q 1150 -91 751 415 
Q 353 922 353 1747 
Q 353 2572 751 3078 
Q 1150 3584 1784 3584 
Q 2172 3584 2448 3432 
Q 2725 3281 2906 2969 
z
M 947 1747 
Q 947 1113 1208 752 
Q 1469 391 1925 391 
Q 2381 391 2643 752 
Q 2906 1113 2906 1747 
Q 2906 2381 2643 2742 
Q 2381 3103 1925 3103 
Q 1469 3103 1208 2742 
Q 947 2381 947 1747 
z
" transform="scale(0.015625)"/>
      </defs>
      <use xlink:href="#DejaVuSans-50"/>
      <use xlink:href="#DejaVuSans-75" x="58.552734"/>
      <use xlink:href="#DejaVuSans-62" x="121.931641"/>
      <use xlink:href="#DejaVuSans-6c" x="185.408203"/>
      <use xlink:href="#DejaVuSans-69" x="213.191406"/>
      <use xlink:href="#DejaVuSans-73" x="240.974609"/>
      <use xlink:href="#DejaVuSans-68" x="293.074219"/>
      <use xlink:href="#DejaVuSans-65" x="356.453125"/>
      <use xlink:href="#DejaVuSans-64" x="417.976562"/>
     </g>
    </g>
    <g id="patch_9">
     <path d="M 121.555156 37.880313 
L 141.555156 37.880313 
L 141.555156 30.880313 
L 121.555156 30.880313 
z
" style="fill: #ff7f0e"/>
    </g>
    <g id="text_18">
     <!-- Inferred role -->
     <g transform="translate(149.555156 37.880313) scale(0.1 -0.1)">
      <defs>
       <path id="DejaVuSans-49" d="M 628 4666 
L 1259 4666 
L 1259 0 
L 628 0 
L 628 4666 
z
" transform="scale(0.015625)"/>
       <path id="DejaVuSans-6e" d="M 3513 2113 
L 3513 0 
L 2938 0 
L 2938 2094 
Q 2938 2591 2744 2837 
Q 2550 3084 2163 3084 
Q 1697 3084 1428 2787 
Q 1159 2491 1159 1978 
L 1159 0 
L 581 0 
L 581 3500 
L 1159 3500 
L 1159 2956 
Q 1366 3272 1645 3428 
Q 1925 3584 2291 3584 
Q 2894 3584 3203 3211 
Q 3513 2838 3513 2113 
z
" transform="scale(0.015625)"/>
       <path id="DejaVuSans-66" d="M 2375 4863 
L 2375 4384 
L 1825 4384 
Q 1516 4384 1395 4259 
Q 1275 4134 1275 3809 
L 1275 3500 
L 2222 3500 
L 2222 3053 
L 1275 3053 
L 1275 0 
L 697 0 
L 697 3053 
L 147 3053 
L 147 3500 
L 697 3500 
L 697 3744 
Q 697 4328 969 4595 
Q 1241 4863 1831 4863 
L 2375 4863 
z
" transform="scale(0.015625)"/>
       <path id="DejaVuSans-72" d="M 2631 2963 
Q 2534 3019 2420 3045 
Q 2306 3072 2169 3072 
Q 1681 3072 1420 2755 
Q 1159 2438 1159 1844 
L 1159 0 
L 581 0 
L 581 3500 
L 1159 3500 
L 1159 2956 
Q 1341 3275 1631 3429 
Q 1922 3584 2338 3584 
Q 2397 3584 2469 3576 
Q 2541 3569 2628 3553 
L 2631 2963 
z
" transform="scale(0.015625)"/>
       <path id="DejaVuSans-20" transform="scale(0.015625)"/>
       <path id="DejaVuSans-6f" d="M 1959 3097 
Q 1497 3097 1228 2736 
Q 959 2375 959 1747 
Q 959 1119 1226 758 
Q 1494 397 1959 397 
Q 2419 397 2687 759 
Q 2956 1122 2956 1747 
Q 2956 2369 2687 2733 
Q 2419 3097 1959 3097 
z
M 1959 3584 
Q 2709 3584 3137 3096 
Q 3566 2609 3566 1747 
Q 3566 888 3137 398 
Q 2709 -91 1959 -91 
Q 1206 -91 779 398 
Q 353 888 353 1747 
Q 353 2609 779 3096 
Q 1206 3584 1959 3584 
z
" transform="scale(0.015625)"/>
      </defs>
      <use xlink:href="#DejaVuSans-49"/>
      <use xlink:href="#DejaVuSans-6e" x="29.492188"/>
      <use xlink:href="#DejaVuSans-66" x="92.871094"/>
      <use xlink:href="#DejaVuSans-65" x="128.076172"/>
      <use xlink:href="#DejaVuSans-72" x="189.599609"/>
      <use xlink:href="#DejaVuSans-72" x="228.962891"/>
      <use xlink:href="#DejaVuSans-65" x="267.826172"/>
      <use xlink:href="#DejaVuSans-64" x="329.349609"/>
      <use xlink:href="#DejaVuSans-20" x="392.826172"/>
      <use xlink:href="#DejaVuSans-72" x="424.613281"/>
      <use xlink:href="#DejaVuSans-6f" x="463.476562"/>
      <use xlink:href="#DejaVuSans-6c" x="524.658203"/>
      <use xlink:href="#DejaVuSans-65" x="552.441406"/>
     </g>
    </g>
    <g id="patch_10">
     <path d="M 230.953594 23.202187 
L 250.953594 23.202187 
L 250.953594 16.202187 
L 230.953594 16.202187 
z
" style="fill: #2ca02c"/>
    </g>
    <g id="text_19">
     <!-- Conserved unknown -->
     <g transform="translate(258.953594 23.202187) scale(0.1 -0.1)">
      <defs>
       <path id="DejaVuSans-43" d="M 4122 4306 
L 4122 3641 
Q 3803 3938 3442 4084 
Q 3081 4231 2675 4231 
Q 1875 4231 1450 3742 
Q 1025 3253 1025 2328 
Q 1025 1406 1450 917 
Q 1875 428 2675 428 
Q 3081 428 3442 575 
Q 3803 722 4122 1019 
L 4122 359 
Q 3791 134 3420 21 
Q 3050 -91 2638 -91 
Q 1578 -91 968 557 
Q 359 1206 359 2328 
Q 359 3453 968 4101 
Q 1578 4750 2638 4750 
Q 3056 4750 3426 4639 
Q 3797 4528 4122 4306 
z
" transform="scale(0.015625)"/>
       <path id="DejaVuSans-76" d="M 191 3500 
L 800 3500 
L 1894 563 
L 2988 3500 
L 3597 3500 
L 2284 0 
L 1503 0 
L 191 3500 
z
" transform="scale(0.015625)"/>
       <path id="DejaVuSans-6b" d="M 581 4863 
L 1159 4863 
L 1159 1991 
L 2875 3500 
L 3609 3500 
L 1753 1863 
L 3688 0 
L 2938 0 
L 1159 1709 
L 1159 0 
L 581 0 
L 581 4863 
z
" transform="scale(0.015625)"/>
       <path id="DejaVuSans-77" d="M 269 3500 
L 844 3500 
L 1563 769 
L 2278 3500 
L 2956 3500 
L 3675 769 
L 4391 3500 
L 4966 3500 
L 4050 0 
L 3372 0 
L 2619 2869 
L 1863 0 
L 1184 0 
L 269 3500 
z
" transform="scale(0.015625)"/>
      </defs>
      <use xlink:href="#DejaVuSans-43"/>
      <use xlink:href="#DejaVuSans-6f" x="69.824219"/>
      <use xlink:href="#DejaVuSans-6e" x="131.005859"/>
      <use xlink:href="#DejaVuSans-73" x="194.384766"/>
      <use xlink:href="#DejaVuSans-65" x="246.484375"/>
      <use xlink:href="#DejaVuSans-72" x="308.007812"/>
      <use xlink:href="#DejaVuSans-76" x="349.121094"/>
      <use xlink:href="#DejaVuSans-65" x="408.300781"/>
      <use xlink:href="#DejaVuSans-64" x="469.824219"/>
      <use xlink:href="#DejaVuSans-20" x="533.300781"/>
      <use xlink:href="#DejaVuSans-75" x="565.087891"/>
      <use xlink:href="#DejaVuSans-6e" x="628.466797"/>
      <use xlink:href="#DejaVuSans-6b" x="691.845703"/>
      <use xlink:href="#DejaVuSans-6e" x="749.755859"/>
      <use xlink:href="#DejaVuSans-6f" x="813.134766"/>
      <use xlink:href="#DejaVuSans-77" x="874.316406"/>
      <use xlink:href="#DejaVuSans-6e" x="956.103516"/>
     </g>
    </g>
    <g id="patch_11">
     <path d="M 230.953594 37.880313 
L 250.953594 37.880313 
L 250.953594 30.880313 
L 230.953594 30.880313 
z
" style="fill: #d62728"/>
    </g>
    <g id="text_20">
     <!-- Fission yeast unknown -->
     <g transform="translate(258.953594 37.880313) scale(0.1 -0.1)">
      <defs>
       <path id="DejaVuSans-46" d="M 628 4666 
L 3309 4666 
L 3309 4134 
L 1259 4134 
L 1259 2759 
L 3109 2759 
L 3109 2228 
L 1259 2228 
L 1259 0 
L 628 0 
L 628 4666 
z
" transform="scale(0.015625)"/>
       <path id="DejaVuSans-79" d="M 2059 -325 
Q 1816 -950 1584 -1140 
Q 1353 -1331 966 -1331 
L 506 -1331 
L 506 -850 
L 844 -850 
Q 1081 -850 1212 -737 
Q 1344 -625 1503 -206 
L 1606 56 
L 191 3500 
L 800 3500 
L 1894 763 
L 2988 3500 
L 3597 3500 
L 2059 -325 
z
" transform="scale(0.015625)"/>
       <path id="DejaVuSans-61" d="M 2194 1759 
Q 1497 1759 1228 1600 
Q 959 1441 959 1056 
Q 959 750 1161 570 
Q 1363 391 1709 391 
Q 2188 391 2477 730 
Q 2766 1069 2766 1631 
L 2766 1759 
L 2194 1759 
z
M 3341 1997 
L 3341 0 
L 2766 0 
L 2766 531 
Q 2569 213 2275 61 
Q 1981 -91 1556 -91 
Q 1019 -91 701 211 
Q 384 513 384 1019 
Q 384 1609 779 1909 
Q 1175 2209 1959 2209 
L 2766 2209 
L 2766 2266 
Q 2766 2663 2505 2880 
Q 2244 3097 1772 3097 
Q 1472 3097 1187 3025 
Q 903 2953 641 2809 
L 641 3341 
Q 956 3463 1253 3523 
Q 1550 3584 1831 3584 
Q 2591 3584 2966 3190 
Q 3341 2797 3341 1997 
z
" transform="scale(0.015625)"/>
       <path id="DejaVuSans-74" d="M 1172 4494 
L 1172 3500 
L 2356 3500 
L 2356 3053 
L 1172 3053 
L 1172 1153 
Q 1172 725 1289 603 
Q 1406 481 1766 481 
L 2356 481 
L 2356 0 
L 1766 0 
Q 1100 0 847 248 
Q 594 497 594 1153 
L 594 3053 
L 172 3053 
L 172 3500 
L 594 3500 
L 594 4494 
L 1172 4494 
z
" transform="scale(0.015625)"/>
      </defs>
      <use xlink:href="#DejaVuSans-46"/>
      <use xlink:href="#DejaVuSans-69" x="50.269531"/>
      <use xlink:href="#DejaVuSans-73" x="78.052734"/>
      <use xlink:href="#DejaVuSans-73" x="130.152344"/>
      <use xlink:href="#DejaVuSans-69" x="182.251953"/>
      <use xlink:href="#DejaVuSans-6f" x="210.035156"/>
      <use xlink:href="#DejaVuSans-6e" x="271.216797"/>
      <use xlink:href="#DejaVuSans-20" x="334.595703"/>
      <use xlink:href="#DejaVuSans-79" x="366.382812"/>
      <use xlink:href="#DejaVuSans-65" x="425.5625"/>
      <use xlink:href="#DejaVuSans-61" x="487.085938"/>
      <use xlink:href="#DejaVuSans-73" x="548.365234"/>
      <use xlink:href="#DejaVuSans-74" x="600.464844"/>
      <use xlink:href="#DejaVuSans-20" x="639.673828"/>
      <use xlink:href="#DejaVuSans-75" x="671.460938"/>
      <use xlink:href="#DejaVuSans-6e" x="734.839844"/>
      <use xlink:href="#DejaVuSans-6b" x="798.21875"/>
      <use xlink:href="#DejaVuSans-6e" x="856.128906"/>
      <use xlink:href="#DejaVuSans-6f" x="919.507812"/>
      <use xlink:href="#DejaVuSans-77" x="980.689453"/>
      <use xlink:href="#DejaVuSans-6e" x="1062.476562"/>
     </g>
    </g>
   </g>
  </g>
 </g>
 <defs>
  <clipPath id="p2702b65c75">
   <rect x="43.09" y="48.96" width="406.91" height="268.76"/>
  </clipPath>
 </defs>
</svg>
