<?xml version="1.0" encoding="utf-8" standalone="no"?>
<!DOCTYPE svg PUBLIC "-//W3C//DTD SVG 1.1//EN"
  "http://www.w3.org/Graphics/SVG/1.1/DTD/svg11.dtd">
<svg xmlns:xlink="http://www.w3.org/1999/xlink" width="460.8pt" height="345.6pt" viewBox="0 0 460.8 345.6" xmlns="http://www.w3.org/2000/svg" version="1.1">
 <metadata>
  <rdf:RDF xmlns:dc="http://purl.org/dc/elements/1.1/" xmlns:cc="http://creativecommons.org/ns#" xmlns:rdf="http://www.w3.org/1999/02/22-rdf-syntax-ns#">
   <cc:Work>
    <dc:type rdf:resource="http://purl.org/dc/dcmitype/StillImage"/>
    <dc:date>2023-06-23T08:23:57.178449</dc:date>
    <dc:format>image/svg+xml</dc:format>
    <dc:creator>
     <cc:Agent>
      <dc:title>Matplotlib v3.7.1, https://matplotlib.org/</dc:title>
     </cc:Agent>
    </dc:creator>
   </cc:Work>
  </rdf:RDF>
 </metadata>
 <defs>
  <style type="text/css">*{stroke-linejoin: round; stroke-linecap: butt}</style>
 </defs>
 <g id="figure_1">
  <g id="patch_1">
   <path d="M 0 345.6 
L 460.8 345.6 
L 460.8 0 
L 0 0 
z
" style="fill: #ffffff"/>
  </g>
  <g id="axes_1">
   <g id="patch_2">
    <path d="M 43.36 317.72 
L 450 317.72 
L 450 48.96 
L 43.36 48.96 
z
" style="fill: #ffffff"/>
   </g>
   <g id="PolyCollection_1">
    <path d="M 9.783202 249.513978 
L 9.783202 317.72 
L 19.162506 317.72 
L 28.430812 317.72 
L 47.466914 317.72 
L 69.555452 317.72 
L 85.816613 317.72 
L 95.917401 317.72 
L 98.525847 317.72 
L 103.354246 317.72 
L 105.5742 317.72 
L 105.851694 317.72 
L 109.514617 317.72 
L 110.458097 317.72 
L 111.235081 317.72 
L 112.178561 317.72 
L 112.789049 317.72 
L 113.732529 317.72 
L 114.287517 317.72 
L 115.286497 317.72 
L 116.618469 317.72 
L 117.672947 317.72 
L 118.061439 317.72 
L 119.171415 317.72 
L 119.948399 317.72 
L 120.780882 317.72 
L 121.668863 317.72 
L 122.27935 317.72 
L 122.834339 317.72 
L 124.388306 317.72 
L 125.498283 317.72 
L 126.330766 317.72 
L 126.552761 317.72 
L 127.329745 317.72 
L 128.49522 317.72 
L 129.716195 317.72 
L 130.548677 317.72 
L 131.769652 317.72 
L 133.379118 317.72 
L 135.599072 317.72 
L 137.541531 317.72 
L 139.206497 317.72 
L 142.314432 317.72 
L 143.646404 317.72 
L 147.253828 317.72 
L 149.58478 317.72 
L 151.027749 317.72 
L 151.915731 317.72 
L 155.412158 317.72 
L 157.354617 317.72 
L 159.352575 317.72 
L 163.292993 317.72 
L 166.955916 317.72 
L 167.566404 317.72 
L 168.287889 317.72 
L 169.397865 317.72 
L 170.285847 317.72 
L 173.00529 317.72 
L 178.444176 317.72 
L 179.498654 317.72 
L 184.604548 317.72 
L 185.770023 317.72 
L 186.935499 317.72 
L 188.822459 317.72 
L 190.376427 317.72 
L 191.874896 317.72 
L 192.818376 317.72 
L 195.870812 317.72 
L 199.034246 317.72 
L 200.588213 317.72 
L 201.69819 317.72 
L 203.085661 317.72 
L 204.251137 317.72 
L 205.638608 317.72 
L 208.913039 317.72 
L 210.633503 317.72 
L 212.298469 317.72 
L 214.018933 317.72 
L 215.683898 317.72 
L 217.404362 317.72 
L 219.124826 317.72 
L 220.734292 317.72 
L 222.454756 317.72 
L 224.119722 317.72 
L 225.840186 317.72 
L 227.505151 317.72 
L 229.225615 317.72 
L 230.946079 317.72 
L 232.611044 317.72 
L 234.331508 317.72 
L 235.996473 317.72 
L 237.716937 317.72 
L 239.437401 317.72 
L 240.991369 317.72 
L 242.711833 317.72 
L 244.376798 317.72 
L 246.097262 317.72 
L 247.762227 317.72 
L 249.482691 317.72 
L 251.203155 317.72 
L 252.868121 317.72 
L 254.588585 317.72 
L 256.25355 317.72 
L 257.974014 317.72 
L 259.694478 317.72 
L 261.248445 317.72 
L 262.96891 317.72 
L 264.633875 317.72 
L 266.354339 317.72 
L 268.019304 317.72 
L 269.739768 317.72 
L 271.460232 317.72 
L 273.125197 317.72 
L 274.845661 317.72 
L 276.510626 317.72 
L 278.23109 317.72 
L 279.951555 317.72 
L 281.505522 317.72 
L 283.225986 317.72 
L 284.890951 317.72 
L 286.611415 317.72 
L 288.276381 317.72 
L 289.996845 317.72 
L 291.717309 317.72 
L 293.382274 317.72 
L 295.102738 317.72 
L 296.767703 317.72 
L 298.488167 317.72 
L 300.208631 317.72 
L 301.818097 317.72 
L 303.538561 317.72 
L 305.203527 317.72 
L 306.923991 317.72 
L 308.588956 317.72 
L 310.30942 317.72 
L 312.029884 317.72 
L 313.694849 317.72 
L 315.415313 317.72 
L 317.080278 317.72 
L 318.800742 317.72 
L 320.521206 317.72 
L 322.075174 317.72 
L 323.795638 317.72 
L 325.460603 317.72 
L 327.181067 317.72 
L 328.846032 317.72 
L 330.566497 317.72 
L 332.286961 317.72 
L 333.951926 317.72 
L 335.67239 317.72 
L 337.337355 317.72 
L 339.057819 317.72 
L 340.778283 317.72 
L 342.332251 317.72 
L 344.052715 317.72 
L 345.71768 317.72 
L 347.438144 317.72 
L 349.103109 317.72 
L 350.823573 317.72 
L 352.544037 317.72 
L 354.209002 317.72 
L 355.929466 317.72 
L 357.594432 317.72 
L 359.314896 317.72 
L 361.03536 317.72 
L 362.589327 317.72 
L 364.309791 317.72 
L 365.974756 317.72 
L 367.69522 317.72 
L 369.360186 317.72 
L 371.08065 317.72 
L 372.801114 317.72 
L 374.466079 317.72 
L 376.186543 317.72 
L 377.851508 317.72 
L 379.571972 317.72 
L 381.292436 317.72 
L 382.901903 317.72 
L 384.622367 317.72 
L 386.287332 317.72 
L 388.007796 317.72 
L 389.672761 317.72 
L 391.393225 317.72 
L 393.113689 317.72 
L 394.778654 317.72 
L 396.499118 317.72 
L 398.164084 317.72 
L 399.884548 317.72 
L 401.605012 317.72 
L 403.158979 317.72 
L 404.879443 317.72 
L 406.544408 317.72 
L 408.264872 317.72 
L 409.929838 317.72 
L 411.650302 317.72 
L 413.370766 317.72 
L 415.035731 317.72 
L 416.756195 317.72 
L 418.42116 317.72 
L 420.141624 317.72 
L 421.862088 317.72 
L 423.416056 317.72 
L 425.13652 317.72 
L 426.801485 317.72 
L 428.521949 317.72 
L 430.186914 317.72 
L 431.907378 317.72 
L 433.627842 317.72 
L 435.292807 317.72 
L 437.013271 317.72 
L 438.678237 317.72 
L 440.398701 317.72 
L 442.119165 317.72 
L 443.673132 317.72 
L 445.393596 317.72 
L 447.058561 317.72 
L 448.779026 317.72 
L 448.779026 191.354586 
L 448.779026 191.354586 
L 447.058561 191.506043 
L 445.393596 191.506043 
L 443.673132 191.960413 
L 442.119165 192.717697 
L 440.398701 192.667211 
L 438.678237 192.818668 
L 437.013271 192.970125 
L 435.292807 193.273038 
L 433.627842 193.273038 
L 431.907378 193.323524 
L 430.186914 193.323524 
L 428.521949 193.273038 
L 426.801485 193.37401 
L 425.13652 193.273038 
L 423.416056 193.222553 
L 421.862088 193.273038 
L 420.141624 193.273038 
L 418.42116 193.525466 
L 416.756195 193.777894 
L 415.035731 194.181779 
L 413.370766 194.484692 
L 411.650302 194.434207 
L 409.929838 194.686635 
L 408.264872 195.040034 
L 406.544408 195.040034 
L 404.879443 195.241976 
L 403.158979 195.898289 
L 401.605012 196.049745 
L 399.884548 196.605087 
L 398.164084 196.655572 
L 396.499118 196.857515 
L 394.778654 196.958486 
L 393.113689 197.160428 
L 391.393225 197.210914 
L 389.672761 197.311885 
L 388.007796 197.311885 
L 386.287332 197.412856 
L 384.622367 197.867226 
L 382.901903 198.018683 
L 381.292436 198.119654 
L 379.571972 198.220626 
L 377.851508 198.220626 
L 376.186543 198.220626 
L 374.466079 198.372082 
L 372.801114 198.473053 
L 371.08065 198.674996 
L 369.360186 198.977909 
L 367.69522 199.129366 
L 365.974756 199.230337 
L 364.309791 199.331308 
L 362.589327 199.381794 
L 361.03536 199.381794 
L 359.314896 199.43228 
L 357.594432 199.482765 
L 355.929466 199.583736 
L 354.209002 199.634222 
L 352.544037 199.634222 
L 350.823573 199.785679 
L 349.103109 199.937135 
L 347.438144 200.240049 
L 345.71768 200.441991 
L 344.052715 200.845876 
L 342.332251 201.047818 
L 340.778283 201.24976 
L 339.057819 201.300246 
L 337.337355 201.502188 
L 335.67239 201.704131 
L 333.951926 203.925496 
L 332.286961 204.278895 
L 330.566497 205.238122 
L 328.846032 204.430352 
L 327.181067 204.329381 
L 325.460603 204.379867 
L 323.795638 204.480838 
L 322.075174 204.834237 
L 320.521206 204.884722 
L 318.800742 204.985694 
L 317.080278 205.94492 
L 315.415313 206.096376 
L 313.694849 206.348804 
L 312.029884 206.449776 
L 310.30942 206.601232 
L 308.588956 207.156574 
L 306.923991 207.409002 
L 305.203527 207.409002 
L 303.538561 207.913857 
L 301.818097 208.014829 
L 300.208631 208.065314 
L 298.488167 208.317742 
L 296.767703 208.418713 
L 295.102738 208.418713 
L 293.382274 208.671141 
L 291.717309 208.721627 
L 289.996845 208.772112 
L 288.276381 208.974055 
L 286.611415 209.125511 
L 284.890951 208.368228 
L 283.225986 208.469199 
L 281.505522 208.721627 
L 279.951555 208.721627 
L 278.23109 209.02454 
L 276.510626 209.226483 
L 274.845661 209.579882 
L 273.125197 210.034252 
L 271.460232 210.438137 
L 269.739768 210.539108 
L 268.019304 210.892507 
L 266.354339 211.19542 
L 264.633875 211.649791 
L 262.96891 211.851733 
L 261.248445 212.104161 
L 259.694478 212.154646 
L 257.974014 212.154646 
L 256.25355 212.407074 
L 254.588585 213.012901 
L 252.868121 213.063387 
L 251.203155 213.3663 
L 249.482691 214.224555 
L 247.762227 214.325526 
L 246.097262 214.931353 
L 244.376798 215.335238 
L 242.711833 216.698349 
L 240.991369 216.79932 
L 239.437401 216.950777 
L 237.716937 217.304176 
L 235.996473 217.405147 
L 234.331508 217.70806 
L 232.611044 217.960488 
L 230.946079 218.414859 
L 229.225615 218.667287 
L 227.505151 218.818743 
L 225.840186 219.121657 
L 224.119722 219.172142 
L 222.454756 219.323599 
L 220.734292 219.525541 
L 219.124826 219.525541 
L 217.404362 219.626513 
L 215.683898 219.676998 
L 214.018933 219.727484 
L 212.298469 219.777969 
L 210.633503 219.828455 
L 208.913039 219.979912 
L 205.638608 220.939138 
L 204.251137 221.191566 
L 203.085661 221.242051 
L 201.69819 221.090595 
L 200.588213 221.090595 
L 199.034246 221.242051 
L 195.870812 221.393508 
L 192.818376 222.201277 
L 191.874896 223.412931 
L 190.376427 223.210989 
L 188.822459 223.160503 
L 186.935499 224.069244 
L 185.770023 224.069244 
L 184.604548 223.76633 
L 179.498654 224.422643 
L 178.444176 224.523614 
L 173.00529 225.381869 
L 170.285847 225.48284 
L 169.397865 225.280898 
L 168.287889 225.432355 
L 167.566404 225.684783 
L 166.955916 225.735268 
L 163.292993 225.886725 
L 159.352575 225.987696 
L 157.354617 226.240124 
L 155.412158 228.91586 
L 151.915731 228.814889 
L 151.027749 228.865374 
L 149.58478 229.420716 
L 147.253828 230.834312 
L 143.646404 231.137226 
L 142.314432 231.642081 
L 139.206497 231.99548 
L 137.541531 233.055678 
L 135.599072 233.762476 
L 133.379118 234.317817 
L 131.769652 234.368303 
L 130.548677 234.469274 
L 129.716195 234.51976 
L 128.49522 234.570245 
L 127.329745 235.478986 
L 126.552761 235.933356 
L 126.330766 235.933356 
L 125.498283 235.933356 
L 124.388306 236.236269 
L 122.834339 235.933356 
L 122.27935 236.185784 
L 121.668863 236.286755 
L 120.780882 236.438212 
L 119.948399 236.438212 
L 119.171415 236.842096 
L 118.061439 237.750837 
L 117.672947 237.700351 
L 116.618469 238.154722 
L 115.286497 238.255693 
L 114.287517 238.356664 
L 113.732529 238.457635 
L 112.789049 238.609092 
L 112.178561 238.912005 
L 111.235081 239.164433 
L 110.458097 239.063462 
L 109.514617 239.164433 
L 105.851694 239.517832 
L 105.5742 239.467347 
L 103.354246 239.871231 
L 98.525847 237.447923 
L 95.917401 241.0324 
L 85.816613 245.727559 
L 69.555452 250.119805 
L 47.466914 255.77419 
L 28.430812 249.26155 
L 19.162506 248.45378 
L 9.783202 249.513978 
z
" clip-path="url(#p39bcad2c21)" style="fill: #1f77b4"/>
   </g>
   <g id="PolyCollection_2">
    <path d="M 9.783202 145.715619 
L 9.783202 249.513978 
L 19.162506 248.45378 
L 28.430812 249.26155 
L 47.466914 255.77419 
L 69.555452 250.119805 
L 85.816613 245.727559 
L 95.917401 241.0324 
L 98.525847 237.447923 
L 103.354246 239.871231 
L 105.5742 239.467347 
L 105.851694 239.517832 
L 109.514617 239.164433 
L 110.458097 239.063462 
L 111.235081 239.164433 
L 112.178561 238.912005 
L 112.789049 238.609092 
L 113.732529 238.457635 
L 114.287517 238.356664 
L 115.286497 238.255693 
L 116.618469 238.154722 
L 117.672947 237.700351 
L 118.061439 237.750837 
L 119.171415 236.842096 
L 119.948399 236.438212 
L 120.780882 236.438212 
L 121.668863 236.286755 
L 122.27935 236.185784 
L 122.834339 235.933356 
L 124.388306 236.236269 
L 125.498283 235.933356 
L 126.330766 235.933356 
L 126.552761 235.933356 
L 127.329745 235.478986 
L 128.49522 234.570245 
L 129.716195 234.51976 
L 130.548677 234.469274 
L 131.769652 234.368303 
L 133.379118 234.317817 
L 135.599072 233.762476 
L 137.541531 233.055678 
L 139.206497 231.99548 
L 142.314432 231.642081 
L 143.646404 231.137226 
L 147.253828 230.834312 
L 149.58478 229.420716 
L 151.027749 228.865374 
L 151.915731 228.814889 
L 155.412158 228.91586 
L 157.354617 226.240124 
L 159.352575 225.987696 
L 163.292993 225.886725 
L 166.955916 225.735268 
L 167.566404 225.684783 
L 168.287889 225.432355 
L 169.397865 225.280898 
L 170.285847 225.48284 
L 173.00529 225.381869 
L 178.444176 224.523614 
L 179.498654 224.422643 
L 184.604548 223.76633 
L 185.770023 224.069244 
L 186.935499 224.069244 
L 188.822459 223.160503 
L 190.376427 223.210989 
L 191.874896 223.412931 
L 192.818376 222.201277 
L 195.870812 221.393508 
L 199.034246 221.242051 
L 200.588213 221.090595 
L 201.69819 221.090595 
L 203.085661 221.242051 
L 204.251137 221.191566 
L 205.638608 220.939138 
L 208.913039 219.979912 
L 210.633503 219.828455 
L 212.298469 219.777969 
L 214.018933 219.727484 
L 215.683898 219.676998 
L 217.404362 219.626513 
L 219.124826 219.525541 
L 220.734292 219.525541 
L 222.454756 219.323599 
L 224.119722 219.172142 
L 225.840186 219.121657 
L 227.505151 218.818743 
L 229.225615 218.667287 
L 230.946079 218.414859 
L 232.611044 217.960488 
L 234.331508 217.70806 
L 235.996473 217.405147 
L 237.716937 217.304176 
L 239.437401 216.950777 
L 240.991369 216.79932 
L 242.711833 216.698349 
L 244.376798 215.335238 
L 246.097262 214.931353 
L 247.762227 214.325526 
L 249.482691 214.224555 
L 251.203155 213.3663 
L 252.868121 213.063387 
L 254.588585 213.012901 
L 256.25355 212.407074 
L 257.974014 212.154646 
L 259.694478 212.154646 
L 261.248445 212.104161 
L 262.96891 211.851733 
L 264.633875 211.649791 
L 266.354339 211.19542 
L 268.019304 210.892507 
L 269.739768 210.539108 
L 271.460232 210.438137 
L 273.125197 210.034252 
L 274.845661 209.579882 
L 276.510626 209.226483 
L 278.23109 209.02454 
L 279.951555 208.721627 
L 281.505522 208.721627 
L 283.225986 208.469199 
L 284.890951 208.368228 
L 286.611415 209.125511 
L 288.276381 208.974055 
L 289.996845 208.772112 
L 291.717309 208.721627 
L 293.382274 208.671141 
L 295.102738 208.418713 
L 296.767703 208.418713 
L 298.488167 208.317742 
L 300.208631 208.065314 
L 301.818097 208.014829 
L 303.538561 207.913857 
L 305.203527 207.409002 
L 306.923991 207.409002 
L 308.588956 207.156574 
L 310.30942 206.601232 
L 312.029884 206.449776 
L 313.694849 206.348804 
L 315.415313 206.096376 
L 317.080278 205.94492 
L 318.800742 204.985694 
L 320.521206 204.884722 
L 322.075174 204.834237 
L 323.795638 204.480838 
L 325.460603 204.379867 
L 327.181067 204.329381 
L 328.846032 204.430352 
L 330.566497 205.238122 
L 332.286961 204.278895 
L 333.951926 203.925496 
L 335.67239 201.704131 
L 337.337355 201.502188 
L 339.057819 201.300246 
L 340.778283 201.24976 
L 342.332251 201.047818 
L 344.052715 200.845876 
L 345.71768 200.441991 
L 347.438144 200.240049 
L 349.103109 199.937135 
L 350.823573 199.785679 
L 352.544037 199.634222 
L 354.209002 199.634222 
L 355.929466 199.583736 
L 357.594432 199.482765 
L 359.314896 199.43228 
L 361.03536 199.381794 
L 362.589327 199.381794 
L 364.309791 199.331308 
L 365.974756 199.230337 
L 367.69522 199.129366 
L 369.360186 198.977909 
L 371.08065 198.674996 
L 372.801114 198.473053 
L 374.466079 198.372082 
L 376.186543 198.220626 
L 377.851508 198.220626 
L 379.571972 198.220626 
L 381.292436 198.119654 
L 382.901903 198.018683 
L 384.622367 197.867226 
L 386.287332 197.412856 
L 388.007796 197.311885 
L 389.672761 197.311885 
L 391.393225 197.210914 
L 393.113689 197.160428 
L 394.778654 196.958486 
L 396.499118 196.857515 
L 398.164084 196.655572 
L 399.884548 196.605087 
L 401.605012 196.049745 
L 403.158979 195.898289 
L 404.879443 195.241976 
L 406.544408 195.040034 
L 408.264872 195.040034 
L 409.929838 194.686635 
L 411.650302 194.434207 
L 413.370766 194.484692 
L 415.035731 194.181779 
L 416.756195 193.777894 
L 418.42116 193.525466 
L 420.141624 193.273038 
L 421.862088 193.273038 
L 423.416056 193.222553 
L 425.13652 193.273038 
L 426.801485 193.37401 
L 428.521949 193.273038 
L 430.186914 193.323524 
L 431.907378 193.323524 
L 433.627842 193.273038 
L 435.292807 193.273038 
L 437.013271 192.970125 
L 438.678237 192.818668 
L 440.398701 192.667211 
L 442.119165 192.717697 
L 443.673132 191.960413 
L 445.393596 191.506043 
L 447.058561 191.506043 
L 448.779026 191.354586 
L 448.779026 94.62421 
L 448.779026 94.62421 
L 447.058561 94.775666 
L 445.393596 94.775666 
L 443.673132 94.826152 
L 442.119165 95.028094 
L 440.398701 95.179551 
L 438.678237 95.280522 
L 437.013271 95.280522 
L 435.292807 95.331008 
L 433.627842 95.179551 
L 431.907378 95.230037 
L 430.186914 95.230037 
L 428.521949 95.482465 
L 426.801485 95.431979 
L 425.13652 95.431979 
L 423.416056 95.482465 
L 421.862088 95.583436 
L 420.141624 95.583436 
L 418.42116 95.734892 
L 416.756195 95.684407 
L 415.035731 95.835864 
L 413.370766 95.886349 
L 411.650302 95.936835 
L 409.929838 95.98732 
L 408.264872 96.037806 
L 406.544408 95.98732 
L 404.879443 96.138777 
L 403.158979 96.391205 
L 401.605012 96.593147 
L 399.884548 96.643633 
L 398.164084 96.643633 
L 396.499118 96.744604 
L 394.778654 96.79509 
L 393.113689 96.896061 
L 391.393225 96.896061 
L 389.672761 96.946546 
L 388.007796 96.997032 
L 386.287332 96.845575 
L 384.622367 96.79509 
L 382.901903 96.845575 
L 381.292436 96.744604 
L 379.571972 96.744604 
L 377.851508 96.744604 
L 376.186543 96.744604 
L 374.466079 96.744604 
L 372.801114 96.79509 
L 371.08065 96.744604 
L 369.360186 96.79509 
L 367.69522 96.79509 
L 365.974756 96.643633 
L 364.309791 96.643633 
L 362.589327 96.694119 
L 361.03536 96.694119 
L 359.314896 96.79509 
L 357.594432 96.79509 
L 355.929466 96.896061 
L 354.209002 96.896061 
L 352.544037 96.896061 
L 350.823573 96.946546 
L 349.103109 96.946546 
L 347.438144 96.946546 
L 345.71768 96.997032 
L 344.052715 97.047518 
L 342.332251 97.451402 
L 340.778283 97.602859 
L 339.057819 97.501888 
L 337.337355 97.602859 
L 335.67239 97.754316 
L 333.951926 97.804801 
L 332.286961 98.5116 
L 330.566497 98.915484 
L 328.846032 101.692191 
L 327.181067 103.257244 
L 325.460603 103.812586 
L 323.795638 103.812586 
L 322.075174 104.21647 
L 320.521206 104.115499 
L 318.800742 103.105788 
L 317.080278 103.358215 
L 315.415313 103.913557 
L 313.694849 103.913557 
L 312.029884 103.7621 
L 310.30942 103.964042 
L 308.588956 104.014528 
L 306.923991 104.014528 
L 305.203527 104.065014 
L 303.538561 104.165985 
L 301.818097 104.165985 
L 300.208631 104.21647 
L 298.488167 104.21647 
L 296.767703 104.367927 
L 295.102738 104.418413 
L 293.382274 104.468898 
L 291.717309 104.468898 
L 289.996845 104.418413 
L 288.276381 104.468898 
L 286.611415 104.418413 
L 284.890951 105.226182 
L 283.225986 105.175696 
L 281.505522 105.276668 
L 279.951555 105.377639 
L 278.23109 105.529096 
L 276.510626 105.47861 
L 274.845661 105.832009 
L 273.125197 105.983466 
L 271.460232 106.185408 
L 269.739768 106.437836 
L 268.019304 106.488322 
L 266.354339 106.38735 
L 264.633875 106.488322 
L 262.96891 106.538807 
L 261.248445 106.538807 
L 259.694478 106.538807 
L 257.974014 106.538807 
L 256.25355 106.74075 
L 254.588585 106.841721 
L 252.868121 107.144634 
L 251.203155 107.19512 
L 249.482691 107.498033 
L 247.762227 107.599004 
L 246.097262 107.901918 
L 244.376798 108.053375 
L 242.711833 108.255317 
L 240.991369 108.305803 
L 239.437401 108.356288 
L 237.716937 108.55823 
L 235.996473 108.55823 
L 234.331508 108.810658 
L 232.611044 109.164057 
L 230.946079 109.366 
L 229.225615 109.567942 
L 227.505151 109.82037 
L 225.840186 109.921341 
L 224.119722 110.325226 
L 222.454756 110.325226 
L 220.734292 110.375711 
L 219.124826 110.375711 
L 217.404362 110.375711 
L 215.683898 110.375711 
L 214.018933 110.375711 
L 212.298469 110.426197 
L 210.633503 110.628139 
L 208.913039 110.729111 
L 205.638608 111.334938 
L 204.251137 112.092221 
L 203.085661 112.44562 
L 201.69819 111.738822 
L 200.588213 112.142707 
L 199.034246 112.294164 
L 195.870812 112.496106 
L 192.818376 112.496106 
L 191.874896 112.698048 
L 190.376427 113.354361 
L 188.822459 113.303875 
L 186.935499 114.465044 
L 185.770023 114.465044 
L 184.604548 115.020385 
L 179.498654 115.373784 
L 178.444176 115.474755 
L 173.00529 116.888352 
L 170.285847 118.150491 
L 169.397865 118.200977 
L 168.287889 118.200977 
L 167.566404 118.200977 
L 166.955916 118.251462 
L 163.292993 117.696121 
L 159.352575 118.352434 
L 157.354617 118.604861 
L 155.412158 118.857289 
L 151.915731 119.008746 
L 151.027749 119.109717 
L 149.58478 119.362145 
L 147.253828 119.76603 
L 143.646404 119.564088 
L 142.314432 119.967972 
L 139.206497 119.917487 
L 137.541531 119.816515 
L 135.599072 120.270886 
L 133.379118 120.169915 
L 131.769652 120.018458 
L 130.548677 120.371857 
L 129.716195 120.422342 
L 128.49522 119.463116 
L 127.329745 119.513602 
L 126.552761 119.715544 
L 126.330766 119.715544 
L 125.498283 119.665059 
L 124.388306 120.321371 
L 122.834339 119.614573 
L 122.27935 119.614573 
L 121.668863 119.665059 
L 120.780882 119.715544 
L 119.948399 119.463116 
L 119.171415 120.018458 
L 118.061439 120.169915 
L 117.672947 119.867001 
L 116.618469 120.068943 
L 115.286497 120.018458 
L 114.287517 120.67477 
L 113.732529 120.573799 
L 112.789049 120.573799 
L 112.178561 118.301948 
L 111.235081 118.806804 
L 110.458097 117.544664 
L 109.514617 117.241751 
L 105.851694 117.59515 
L 105.5742 117.393207 
L 103.354246 117.746607 
L 98.525847 120.018458 
L 95.917401 121.129141 
L 85.816613 123.804876 
L 69.555452 127.641781 
L 47.466914 132.538882 
L 28.430812 140.364148 
L 19.162506 145.311735 
L 9.783202 145.715619 
z
" clip-path="url(#p39bcad2c21)" style="fill: #ff7f0e"/>
   </g>
   <g id="PolyCollection_3">
    <path d="M 9.783202 105.93298 
L 9.783202 145.715619 
L 19.162506 145.311735 
L 28.430812 140.364148 
L 47.466914 132.538882 
L 69.555452 127.641781 
L 85.816613 123.804876 
L 95.917401 121.129141 
L 98.525847 120.018458 
L 103.354246 117.746607 
L 105.5742 117.393207 
L 105.851694 117.59515 
L 109.514617 117.241751 
L 110.458097 117.544664 
L 111.235081 118.806804 
L 112.178561 118.301948 
L 112.789049 120.573799 
L 113.732529 120.573799 
L 114.287517 120.67477 
L 115.286497 120.018458 
L 116.618469 120.068943 
L 117.672947 119.867001 
L 118.061439 120.169915 
L 119.171415 120.018458 
L 119.948399 119.463116 
L 120.780882 119.715544 
L 121.668863 119.665059 
L 122.27935 119.614573 
L 122.834339 119.614573 
L 124.388306 120.321371 
L 125.498283 119.665059 
L 126.330766 119.715544 
L 126.552761 119.715544 
L 127.329745 119.513602 
L 128.49522 119.463116 
L 129.716195 120.422342 
L 130.548677 120.371857 
L 131.769652 120.018458 
L 133.379118 120.169915 
L 135.599072 120.270886 
L 137.541531 119.816515 
L 139.206497 119.917487 
L 142.314432 119.967972 
L 143.646404 119.564088 
L 147.253828 119.76603 
L 149.58478 119.362145 
L 151.027749 119.109717 
L 151.915731 119.008746 
L 155.412158 118.857289 
L 157.354617 118.604861 
L 159.352575 118.352434 
L 163.292993 117.696121 
L 166.955916 118.251462 
L 167.566404 118.200977 
L 168.287889 118.200977 
L 169.397865 118.200977 
L 170.285847 118.150491 
L 173.00529 116.888352 
L 178.444176 115.474755 
L 179.498654 115.373784 
L 184.604548 115.020385 
L 185.770023 114.465044 
L 186.935499 114.465044 
L 188.822459 113.303875 
L 190.376427 113.354361 
L 191.874896 112.698048 
L 192.818376 112.496106 
L 195.870812 112.496106 
L 199.034246 112.294164 
L 200.588213 112.142707 
L 201.69819 111.738822 
L 203.085661 112.44562 
L 204.251137 112.092221 
L 205.638608 111.334938 
L 208.913039 110.729111 
L 210.633503 110.628139 
L 212.298469 110.426197 
L 214.018933 110.375711 
L 215.683898 110.375711 
L 217.404362 110.375711 
L 219.124826 110.375711 
L 220.734292 110.375711 
L 222.454756 110.325226 
L 224.119722 110.325226 
L 225.840186 109.921341 
L 227.505151 109.82037 
L 229.225615 109.567942 
L 230.946079 109.366 
L 232.611044 109.164057 
L 234.331508 108.810658 
L 235.996473 108.55823 
L 237.716937 108.55823 
L 239.437401 108.356288 
L 240.991369 108.305803 
L 242.711833 108.255317 
L 244.376798 108.053375 
L 246.097262 107.901918 
L 247.762227 107.599004 
L 249.482691 107.498033 
L 251.203155 107.19512 
L 252.868121 107.144634 
L 254.588585 106.841721 
L 256.25355 106.74075 
L 257.974014 106.538807 
L 259.694478 106.538807 
L 261.248445 106.538807 
L 262.96891 106.538807 
L 264.633875 106.488322 
L 266.354339 106.38735 
L 268.019304 106.488322 
L 269.739768 106.437836 
L 271.460232 106.185408 
L 273.125197 105.983466 
L 274.845661 105.832009 
L 276.510626 105.47861 
L 278.23109 105.529096 
L 279.951555 105.377639 
L 281.505522 105.276668 
L 283.225986 105.175696 
L 284.890951 105.226182 
L 286.611415 104.418413 
L 288.276381 104.468898 
L 289.996845 104.418413 
L 291.717309 104.468898 
L 293.382274 104.468898 
L 295.102738 104.418413 
L 296.767703 104.367927 
L 298.488167 104.21647 
L 300.208631 104.21647 
L 301.818097 104.165985 
L 303.538561 104.165985 
L 305.203527 104.065014 
L 306.923991 104.014528 
L 308.588956 104.014528 
L 310.30942 103.964042 
L 312.029884 103.7621 
L 313.694849 103.913557 
L 315.415313 103.913557 
L 317.080278 103.358215 
L 318.800742 103.105788 
L 320.521206 104.115499 
L 322.075174 104.21647 
L 323.795638 103.812586 
L 325.460603 103.812586 
L 327.181067 103.257244 
L 328.846032 101.692191 
L 330.566497 98.915484 
L 332.286961 98.5116 
L 333.951926 97.804801 
L 335.67239 97.754316 
L 337.337355 97.602859 
L 339.057819 97.501888 
L 340.778283 97.602859 
L 342.332251 97.451402 
L 344.052715 97.047518 
L 345.71768 96.997032 
L 347.438144 96.946546 
L 349.103109 96.946546 
L 350.823573 96.946546 
L 352.544037 96.896061 
L 354.209002 96.896061 
L 355.929466 96.896061 
L 357.594432 96.79509 
L 359.314896 96.79509 
L 361.03536 96.694119 
L 362.589327 96.694119 
L 364.309791 96.643633 
L 365.974756 96.643633 
L 367.69522 96.79509 
L 369.360186 96.79509 
L 371.08065 96.744604 
L 372.801114 96.79509 
L 374.466079 96.744604 
L 376.186543 96.744604 
L 377.851508 96.744604 
L 379.571972 96.744604 
L 381.292436 96.744604 
L 382.901903 96.845575 
L 384.622367 96.79509 
L 386.287332 96.845575 
L 388.007796 96.997032 
L 389.672761 96.946546 
L 391.393225 96.896061 
L 393.113689 96.896061 
L 394.778654 96.79509 
L 396.499118 96.744604 
L 398.164084 96.643633 
L 399.884548 96.643633 
L 401.605012 96.593147 
L 403.158979 96.391205 
L 404.879443 96.138777 
L 406.544408 95.98732 
L 408.264872 96.037806 
L 409.929838 95.98732 
L 411.650302 95.936835 
L 413.370766 95.886349 
L 415.035731 95.835864 
L 416.756195 95.684407 
L 418.42116 95.734892 
L 420.141624 95.583436 
L 421.862088 95.583436 
L 423.416056 95.482465 
L 425.13652 95.431979 
L 426.801485 95.431979 
L 428.521949 95.482465 
L 430.186914 95.230037 
L 431.907378 95.230037 
L 433.627842 95.179551 
L 435.292807 95.331008 
L 437.013271 95.280522 
L 438.678237 95.280522 
L 440.398701 95.179551 
L 442.119165 95.028094 
L 443.673132 94.826152 
L 445.393596 94.775666 
L 447.058561 94.775666 
L 448.779026 94.62421 
L 448.779026 75.692116 
L 448.779026 75.692116 
L 447.058561 75.692116 
L 445.393596 75.692116 
L 443.673132 75.692116 
L 442.119165 75.742602 
L 440.398701 75.742602 
L 438.678237 75.843573 
L 437.013271 75.843573 
L 435.292807 75.894058 
L 433.627842 75.894058 
L 431.907378 75.894058 
L 430.186914 75.894058 
L 428.521949 75.99503 
L 426.801485 76.096001 
L 425.13652 76.096001 
L 423.416056 76.096001 
L 421.862088 76.096001 
L 420.141624 76.096001 
L 418.42116 76.146486 
L 416.756195 76.096001 
L 415.035731 76.196972 
L 413.370766 76.196972 
L 411.650302 76.196972 
L 409.929838 76.247457 
L 408.264872 76.247457 
L 406.544408 76.247457 
L 404.879443 76.297943 
L 403.158979 76.348429 
L 401.605012 76.398914 
L 399.884548 76.398914 
L 398.164084 76.348429 
L 396.499118 76.348429 
L 394.778654 76.348429 
L 393.113689 76.297943 
L 391.393225 76.297943 
L 389.672761 76.348429 
L 388.007796 76.348429 
L 386.287332 76.247457 
L 384.622367 76.196972 
L 382.901903 76.196972 
L 381.292436 76.247457 
L 379.571972 76.247457 
L 377.851508 76.247457 
L 376.186543 76.247457 
L 374.466079 76.247457 
L 372.801114 76.247457 
L 371.08065 76.247457 
L 369.360186 76.247457 
L 367.69522 76.247457 
L 365.974756 76.146486 
L 364.309791 76.146486 
L 362.589327 76.146486 
L 361.03536 76.146486 
L 359.314896 76.096001 
L 357.594432 76.096001 
L 355.929466 76.196972 
L 354.209002 76.196972 
L 352.544037 76.196972 
L 350.823573 76.247457 
L 349.103109 76.247457 
L 347.438144 76.247457 
L 345.71768 76.297943 
L 344.052715 76.348429 
L 342.332251 76.4494 
L 340.778283 76.4494 
L 339.057819 76.4494 
L 337.337355 76.651342 
L 335.67239 76.651342 
L 333.951926 76.651342 
L 332.286961 76.499885 
L 330.566497 76.550371 
L 328.846032 76.802799 
L 327.181067 78.014453 
L 325.460603 78.216395 
L 323.795638 78.266881 
L 322.075174 78.317366 
L 320.521206 78.317366 
L 318.800742 78.317366 
L 317.080278 78.317366 
L 315.415313 78.367852 
L 313.694849 78.367852 
L 312.029884 78.418338 
L 310.30942 78.468823 
L 308.588956 78.519309 
L 306.923991 78.519309 
L 305.203527 78.519309 
L 303.538561 78.519309 
L 301.818097 78.519309 
L 300.208631 78.569794 
L 298.488167 78.569794 
L 296.767703 78.62028 
L 295.102738 78.670765 
L 293.382274 78.670765 
L 291.717309 78.670765 
L 289.996845 78.670765 
L 288.276381 78.670765 
L 286.611415 78.670765 
L 284.890951 78.670765 
L 283.225986 78.670765 
L 281.505522 78.771737 
L 279.951555 78.771737 
L 278.23109 78.771737 
L 276.510626 78.822222 
L 274.845661 78.822222 
L 273.125197 78.872708 
L 271.460232 79.07465 
L 269.739768 80.286304 
L 268.019304 80.286304 
L 266.354339 80.286304 
L 264.633875 80.387275 
L 262.96891 80.387275 
L 261.248445 80.387275 
L 259.694478 80.387275 
L 257.974014 80.387275 
L 256.25355 80.387275 
L 254.588585 80.488246 
L 252.868121 80.387275 
L 251.203155 80.437761 
L 249.482691 80.538732 
L 247.762227 80.639703 
L 246.097262 80.892131 
L 244.376798 80.942617 
L 242.711833 80.942617 
L 240.991369 80.942617 
L 239.437401 80.942617 
L 237.716937 81.043588 
L 235.996473 81.043588 
L 234.331508 81.144559 
L 232.611044 81.144559 
L 230.946079 80.993102 
L 229.225615 81.094073 
L 227.505151 81.094073 
L 225.840186 81.094073 
L 224.119722 81.144559 
L 222.454756 81.144559 
L 220.734292 81.144559 
L 219.124826 81.195045 
L 217.404362 81.195045 
L 215.683898 81.24553 
L 214.018933 81.195045 
L 212.298469 81.195045 
L 210.633503 81.296016 
L 208.913039 81.346501 
L 205.638608 81.6999 
L 204.251137 82.457184 
L 203.085661 82.810583 
L 201.69819 82.002814 
L 200.588213 82.659127 
L 199.034246 82.709612 
L 195.870812 83.870781 
L 192.818376 83.870781 
L 191.874896 83.820295 
L 190.376427 84.022237 
L 188.822459 84.022237 
L 186.935499 84.123208 
L 185.770023 84.123208 
L 184.604548 84.173694 
L 179.498654 84.375636 
L 178.444176 84.375636 
L 173.00529 85.688261 
L 170.285847 85.839718 
L 169.397865 85.890204 
L 168.287889 86.041661 
L 167.566404 86.041661 
L 166.955916 86.041661 
L 163.292993 86.041661 
L 159.352575 86.344574 
L 157.354617 86.496031 
L 155.412158 86.546516 
L 151.915731 86.647488 
L 151.027749 86.798944 
L 149.58478 87.051372 
L 147.253828 87.354286 
L 143.646404 87.556228 
L 142.314432 88.363997 
L 139.206497 88.414483 
L 137.541531 88.767882 
L 135.599072 89.171767 
L 133.379118 89.272738 
L 131.769652 89.272738 
L 130.548677 89.272738 
L 129.716195 89.272738 
L 128.49522 89.47468 
L 127.329745 89.676623 
L 126.552761 89.828079 
L 126.330766 89.828079 
L 125.498283 89.777594 
L 124.388306 90.484392 
L 122.834339 89.878565 
L 122.27935 89.878565 
L 121.668863 89.979536 
L 120.780882 89.979536 
L 119.948399 89.979536 
L 119.171415 90.73682 
L 118.061439 90.73682 
L 117.672947 90.130993 
L 116.618469 90.888277 
L 115.286497 92.301873 
L 114.287517 93.463041 
L 113.732529 93.513527 
L 112.789049 93.513527 
L 112.178561 93.564012 
L 111.235081 94.321296 
L 110.458097 93.614498 
L 109.514617 93.614498 
L 105.851694 93.967897 
L 105.5742 94.018383 
L 103.354246 94.068868 
L 98.525847 90.73682 
L 95.917401 94.270811 
L 85.816613 96.694119 
L 69.555452 99.167912 
L 47.466914 100.884422 
L 28.430812 103.459187 
L 19.162506 106.488322 
L 9.783202 105.93298 
z
" clip-path="url(#p39bcad2c21)" style="fill: #2ca02c"/>
   </g>
   <g id="PolyCollection_4">
    <path d="M 9.783202 75.288231 
L 9.783202 105.93298 
L 19.162506 106.488322 
L 28.430812 103.459187 
L 47.466914 100.884422 
L 69.555452 99.167912 
L 85.816613 96.694119 
L 95.917401 94.270811 
L 98.525847 90.73682 
L 103.354246 94.068868 
L 105.5742 94.018383 
L 105.851694 93.967897 
L 109.514617 93.614498 
L 110.458097 93.614498 
L 111.235081 94.321296 
L 112.178561 93.564012 
L 112.789049 93.513527 
L 113.732529 93.513527 
L 114.287517 93.463041 
L 115.286497 92.301873 
L 116.618469 90.888277 
L 117.672947 90.130993 
L 118.061439 90.73682 
L 119.171415 90.73682 
L 119.948399 89.979536 
L 120.780882 89.979536 
L 121.668863 89.979536 
L 122.27935 89.878565 
L 122.834339 89.878565 
L 124.388306 90.484392 
L 125.498283 89.777594 
L 126.330766 89.828079 
L 126.552761 89.828079 
L 127.329745 89.676623 
L 128.49522 89.47468 
L 129.716195 89.272738 
L 130.548677 89.272738 
L 131.769652 89.272738 
L 133.379118 89.272738 
L 135.599072 89.171767 
L 137.541531 88.767882 
L 139.206497 88.414483 
L 142.314432 88.363997 
L 143.646404 87.556228 
L 147.253828 87.354286 
L 149.58478 87.051372 
L 151.027749 86.798944 
L 151.915731 86.647488 
L 155.412158 86.546516 
L 157.354617 86.496031 
L 159.352575 86.344574 
L 163.292993 86.041661 
L 166.955916 86.041661 
L 167.566404 86.041661 
L 168.287889 86.041661 
L 169.397865 85.890204 
L 170.285847 85.839718 
L 173.00529 85.688261 
L 178.444176 84.375636 
L 179.498654 84.375636 
L 184.604548 84.173694 
L 185.770023 84.123208 
L 186.935499 84.123208 
L 188.822459 84.022237 
L 190.376427 84.022237 
L 191.874896 83.820295 
L 192.818376 83.870781 
L 195.870812 83.870781 
L 199.034246 82.709612 
L 200.588213 82.659127 
L 201.69819 82.002814 
L 203.085661 82.810583 
L 204.251137 82.457184 
L 205.638608 81.6999 
L 208.913039 81.346501 
L 210.633503 81.296016 
L 212.298469 81.195045 
L 214.018933 81.195045 
L 215.683898 81.24553 
L 217.404362 81.195045 
L 219.124826 81.195045 
L 220.734292 81.144559 
L 222.454756 81.144559 
L 224.119722 81.144559 
L 225.840186 81.094073 
L 227.505151 81.094073 
L 229.225615 81.094073 
L 230.946079 80.993102 
L 232.611044 81.144559 
L 234.331508 81.144559 
L 235.996473 81.043588 
L 237.716937 81.043588 
L 239.437401 80.942617 
L 240.991369 80.942617 
L 242.711833 80.942617 
L 244.376798 80.942617 
L 246.097262 80.892131 
L 247.762227 80.639703 
L 249.482691 80.538732 
L 251.203155 80.437761 
L 252.868121 80.387275 
L 254.588585 80.488246 
L 256.25355 80.387275 
L 257.974014 80.387275 
L 259.694478 80.387275 
L 261.248445 80.387275 
L 262.96891 80.387275 
L 264.633875 80.387275 
L 266.354339 80.286304 
L 268.019304 80.286304 
L 269.739768 80.286304 
L 271.460232 79.07465 
L 273.125197 78.872708 
L 274.845661 78.822222 
L 276.510626 78.822222 
L 278.23109 78.771737 
L 279.951555 78.771737 
L 281.505522 78.771737 
L 283.225986 78.670765 
L 284.890951 78.670765 
L 286.611415 78.670765 
L 288.276381 78.670765 
L 289.996845 78.670765 
L 291.717309 78.670765 
L 293.382274 78.670765 
L 295.102738 78.670765 
L 296.767703 78.62028 
L 298.488167 78.569794 
L 300.208631 78.569794 
L 301.818097 78.519309 
L 303.538561 78.519309 
L 305.203527 78.519309 
L 306.923991 78.519309 
L 308.588956 78.519309 
L 310.30942 78.468823 
L 312.029884 78.418338 
L 313.694849 78.367852 
L 315.415313 78.367852 
L 317.080278 78.317366 
L 318.800742 78.317366 
L 320.521206 78.317366 
L 322.075174 78.317366 
L 323.795638 78.266881 
L 325.460603 78.216395 
L 327.181067 78.014453 
L 328.846032 76.802799 
L 330.566497 76.550371 
L 332.286961 76.499885 
L 333.951926 76.651342 
L 335.67239 76.651342 
L 337.337355 76.651342 
L 339.057819 76.4494 
L 340.778283 76.4494 
L 342.332251 76.4494 
L 344.052715 76.348429 
L 345.71768 76.297943 
L 347.438144 76.247457 
L 349.103109 76.247457 
L 350.823573 76.247457 
L 352.544037 76.196972 
L 354.209002 76.196972 
L 355.929466 76.196972 
L 357.594432 76.096001 
L 359.314896 76.096001 
L 361.03536 76.146486 
L 362.589327 76.146486 
L 364.309791 76.146486 
L 365.974756 76.146486 
L 367.69522 76.247457 
L 369.360186 76.247457 
L 371.08065 76.247457 
L 372.801114 76.247457 
L 374.466079 76.247457 
L 376.186543 76.247457 
L 377.851508 76.247457 
L 379.571972 76.247457 
L 381.292436 76.247457 
L 382.901903 76.196972 
L 384.622367 76.196972 
L 386.287332 76.247457 
L 388.007796 76.348429 
L 389.672761 76.348429 
L 391.393225 76.297943 
L 393.113689 76.297943 
L 394.778654 76.348429 
L 396.499118 76.348429 
L 398.164084 76.348429 
L 399.884548 76.398914 
L 401.605012 76.398914 
L 403.158979 76.348429 
L 404.879443 76.297943 
L 406.544408 76.247457 
L 408.264872 76.247457 
L 409.929838 76.247457 
L 411.650302 76.196972 
L 413.370766 76.196972 
L 415.035731 76.196972 
L 416.756195 76.096001 
L 418.42116 76.146486 
L 420.141624 76.096001 
L 421.862088 76.096001 
L 423.416056 76.096001 
L 425.13652 76.096001 
L 426.801485 76.096001 
L 428.521949 75.99503 
L 430.186914 75.894058 
L 431.907378 75.894058 
L 433.627842 75.894058 
L 435.292807 75.894058 
L 437.013271 75.843573 
L 438.678237 75.843573 
L 440.398701 75.742602 
L 442.119165 75.742602 
L 443.673132 75.692116 
L 445.393596 75.692116 
L 447.058561 75.692116 
L 448.779026 75.692116 
L 448.779026 62.414408 
L 448.779026 62.414408 
L 447.058561 62.414408 
L 445.393596 62.414408 
L 443.673132 62.414408 
L 442.119165 62.666836 
L 440.398701 62.717321 
L 438.678237 62.767807 
L 437.013271 62.767807 
L 435.292807 62.767807 
L 433.627842 62.767807 
L 431.907378 62.767807 
L 430.186914 62.767807 
L 428.521949 62.767807 
L 426.801485 62.767807 
L 425.13652 62.767807 
L 423.416056 62.818292 
L 421.862088 62.767807 
L 420.141624 62.767807 
L 418.42116 62.818292 
L 416.756195 62.464893 
L 415.035731 62.464893 
L 413.370766 62.010523 
L 411.650302 62.010523 
L 409.929838 62.010523 
L 408.264872 62.010523 
L 406.544408 62.010523 
L 404.879443 62.010523 
L 403.158979 62.061009 
L 401.605012 62.061009 
L 399.884548 62.061009 
L 398.164084 62.010523 
L 396.499118 62.010523 
L 394.778654 62.010523 
L 393.113689 62.061009 
L 391.393225 62.061009 
L 389.672761 62.061009 
L 388.007796 62.061009 
L 386.287332 61.960038 
L 384.622367 61.909552 
L 382.901903 61.909552 
L 381.292436 61.909552 
L 379.571972 61.909552 
L 377.851508 61.909552 
L 376.186543 61.909552 
L 374.466079 61.909552 
L 372.801114 61.909552 
L 371.08065 61.909552 
L 369.360186 61.909552 
L 367.69522 61.909552 
L 365.974756 61.808581 
L 364.309791 61.808581 
L 362.589327 61.808581 
L 361.03536 61.808581 
L 359.314896 61.808581 
L 357.594432 61.808581 
L 355.929466 61.808581 
L 354.209002 61.808581 
L 352.544037 61.808581 
L 350.823573 61.758095 
L 349.103109 61.758095 
L 347.438144 61.758095 
L 345.71768 61.758095 
L 344.052715 61.758095 
L 342.332251 61.758095 
L 340.778283 61.758095 
L 339.057819 61.758095 
L 337.337355 61.758095 
L 335.67239 61.758095 
L 333.951926 61.758095 
L 332.286961 61.758095 
L 330.566497 61.758095 
L 328.846032 61.758095 
L 327.181067 61.758095 
L 325.460603 61.758095 
L 323.795638 61.758095 
L 322.075174 61.758095 
L 320.521206 61.758095 
L 318.800742 61.758095 
L 317.080278 61.758095 
L 315.415313 61.758095 
L 313.694849 61.758095 
L 312.029884 61.758095 
L 310.30942 61.758095 
L 308.588956 61.758095 
L 306.923991 61.758095 
L 305.203527 61.758095 
L 303.538561 61.758095 
L 301.818097 62.212465 
L 300.208631 62.262951 
L 298.488167 62.262951 
L 296.767703 62.262951 
L 295.102738 62.464893 
L 293.382274 62.464893 
L 291.717309 62.464893 
L 289.996845 62.464893 
L 288.276381 62.464893 
L 286.611415 62.464893 
L 284.890951 62.464893 
L 283.225986 62.464893 
L 281.505522 62.464893 
L 279.951555 62.464893 
L 278.23109 62.464893 
L 276.510626 62.515379 
L 274.845661 62.515379 
L 273.125197 62.515379 
L 271.460232 62.515379 
L 269.739768 62.16198 
L 268.019304 62.363922 
L 266.354339 62.313437 
L 264.633875 62.313437 
L 262.96891 62.313437 
L 261.248445 62.313437 
L 259.694478 62.313437 
L 257.974014 62.313437 
L 256.25355 62.313437 
L 254.588585 62.363922 
L 252.868121 62.363922 
L 251.203155 62.363922 
L 249.482691 62.313437 
L 247.762227 62.313437 
L 246.097262 62.313437 
L 244.376798 62.313437 
L 242.711833 62.313437 
L 240.991369 62.313437 
L 239.437401 62.313437 
L 237.716937 62.313437 
L 235.996473 62.313437 
L 234.331508 62.313437 
L 232.611044 62.363922 
L 230.946079 62.313437 
L 229.225615 62.363922 
L 227.505151 62.313437 
L 225.840186 62.313437 
L 224.119722 62.313437 
L 222.454756 62.313437 
L 220.734292 62.313437 
L 219.124826 62.313437 
L 217.404362 62.363922 
L 215.683898 62.363922 
L 214.018933 62.313437 
L 212.298469 62.313437 
L 210.633503 62.313437 
L 208.913039 62.414408 
L 205.638608 62.767807 
L 204.251137 63.626062 
L 203.085661 63.727033 
L 201.69819 62.919264 
L 200.588213 64.888201 
L 199.034246 64.888201 
L 195.870812 66.705682 
L 192.818376 66.705682 
L 191.874896 66.655197 
L 190.376427 66.857139 
L 188.822459 66.806654 
L 186.935499 66.806654 
L 185.770023 66.806654 
L 184.604548 66.806654 
L 179.498654 67.210538 
L 178.444176 67.210538 
L 173.00529 67.462966 
L 170.285847 67.412481 
L 169.397865 67.412481 
L 168.287889 67.513452 
L 167.566404 67.513452 
L 166.955916 67.513452 
L 163.292993 68.22025 
L 159.352575 68.371707 
L 157.354617 68.371707 
L 155.412158 68.371707 
L 151.915731 68.371707 
L 151.027749 68.321221 
L 149.58478 68.321221 
L 147.253828 68.169764 
L 143.646404 68.119279 
L 142.314432 69.431904 
L 139.206497 69.583361 
L 137.541531 69.734817 
L 135.599072 69.583361 
L 133.379118 69.583361 
L 131.769652 69.532875 
L 130.548677 69.532875 
L 129.716195 69.532875 
L 128.49522 69.482389 
L 127.329745 69.482389 
L 126.552761 69.532875 
L 126.330766 69.532875 
L 125.498283 69.532875 
L 124.388306 70.088216 
L 122.834339 69.532875 
L 122.27935 69.532875 
L 121.668863 69.583361 
L 120.780882 69.482389 
L 119.948399 69.482389 
L 119.171415 69.987245 
L 118.061439 69.886274 
L 117.672947 69.330933 
L 116.618469 70.037731 
L 115.286497 69.835788 
L 114.287517 69.886274 
L 113.732529 69.886274 
L 112.789049 69.886274 
L 112.178561 69.93676 
L 111.235081 70.593072 
L 110.458097 69.886274 
L 109.514617 69.886274 
L 105.851694 71.148414 
L 105.5742 71.198899 
L 103.354246 71.148414 
L 98.525847 69.987245 
L 95.917401 71.148414 
L 85.816613 72.158125 
L 69.555452 72.713467 
L 47.466914 73.622207 
L 28.430812 74.177549 
L 19.162506 75.490174 
L 9.783202 75.288231 
z
" clip-path="url(#p39bcad2c21)" style="fill: #d62728"/>
   </g>
   <g id="matplotlib.axis_1">
    <g id="xtick_1">
     <g id="line2d_1">
      <defs>
       <path id="m8190f3e002" d="M 0 0 
L 0 3.5 
" style="stroke: #000000; stroke-width: 0.8"/>
      </defs>
      <g>
       <use xlink:href="#m8190f3e002" x="55.236752" y="317.72" style="stroke: #000000; stroke-width: 0.8"/>
      </g>
     </g>
     <g id="text_1">
      <!-- 2004 -->
      <g transform="translate(42.511752 332.318437) scale(0.1 -0.1)">
       <defs>
        <path id="DejaVuSans-32" d="M 1228 531 
L 3431 531 
L 3431 0 
L 469 0 
L 469 531 
Q 828 903 1448 1529 
Q 2069 2156 2228 2338 
Q 2531 2678 2651 2914 
Q 2772 3150 2772 3378 
Q 2772 3750 2511 3984 
Q 2250 4219 1831 4219 
Q 1534 4219 1204 4116 
Q 875 4013 500 3803 
L 500 4441 
Q 881 4594 1212 4672 
Q 1544 4750 1819 4750 
Q 2544 4750 2975 4387 
Q 3406 4025 3406 3419 
Q 3406 3131 3298 2873 
Q 3191 2616 2906 2266 
Q 2828 2175 2409 1742 
Q 1991 1309 1228 531 
z
" transform="scale(0.015625)"/>
        <path id="DejaVuSans-30" d="M 2034 4250 
Q 1547 4250 1301 3770 
Q 1056 3291 1056 2328 
Q 1056 1369 1301 889 
Q 1547 409 2034 409 
Q 2525 409 2770 889 
Q 3016 1369 3016 2328 
Q 3016 3291 2770 3770 
Q 2525 4250 2034 4250 
z
M 2034 4750 
Q 2819 4750 3233 4129 
Q 3647 3509 3647 2328 
Q 3647 1150 3233 529 
Q 2819 -91 2034 -91 
Q 1250 -91 836 529 
Q 422 1150 422 2328 
Q 422 3509 836 4129 
Q 1250 4750 2034 4750 
z
" transform="scale(0.015625)"/>
        <path id="DejaVuSans-34" d="M 2419 4116 
L 825 1625 
L 2419 1625 
L 2419 4116 
z
M 2253 4666 
L 3047 4666 
L 3047 1625 
L 3713 1625 
L 3713 1100 
L 3047 1100 
L 3047 0 
L 2419 0 
L 2419 1100 
L 313 1100 
L 313 1709 
L 2253 4666 
z
" transform="scale(0.015625)"/>
       </defs>
       <use xlink:href="#DejaVuSans-32"/>
       <use xlink:href="#DejaVuSans-30" x="63.623047"/>
       <use xlink:href="#DejaVuSans-30" x="127.246094"/>
       <use xlink:href="#DejaVuSans-34" x="190.869141"/>
      </g>
     </g>
    </g>
    <g id="xtick_2">
     <g id="line2d_2">
      <g>
       <use xlink:href="#m8190f3e002" x="95.806404" y="317.72" style="stroke: #000000; stroke-width: 0.8"/>
      </g>
     </g>
     <g id="text_2">
      <!-- 2006 -->
      <g transform="translate(83.081404 332.318437) scale(0.1 -0.1)">
       <defs>
        <path id="DejaVuSans-36" d="M 2113 2584 
Q 1688 2584 1439 2293 
Q 1191 2003 1191 1497 
Q 1191 994 1439 701 
Q 1688 409 2113 409 
Q 2538 409 2786 701 
Q 3034 994 3034 1497 
Q 3034 2003 2786 2293 
Q 2538 2584 2113 2584 
z
M 3366 4563 
L 3366 3988 
Q 3128 4100 2886 4159 
Q 2644 4219 2406 4219 
Q 1781 4219 1451 3797 
Q 1122 3375 1075 2522 
Q 1259 2794 1537 2939 
Q 1816 3084 2150 3084 
Q 2853 3084 3261 2657 
Q 3669 2231 3669 1497 
Q 3669 778 3244 343 
Q 2819 -91 2113 -91 
Q 1303 -91 875 529 
Q 447 1150 447 2328 
Q 447 3434 972 4092 
Q 1497 4750 2381 4750 
Q 2619 4750 2861 4703 
Q 3103 4656 3366 4563 
z
" transform="scale(0.015625)"/>
       </defs>
       <use xlink:href="#DejaVuSans-32"/>
       <use xlink:href="#DejaVuSans-30" x="63.623047"/>
       <use xlink:href="#DejaVuSans-30" x="127.246094"/>
       <use xlink:href="#DejaVuSans-36" x="190.869141"/>
      </g>
     </g>
    </g>
    <g id="xtick_3">
     <g id="line2d_3">
      <g>
       <use xlink:href="#m8190f3e002" x="136.320557" y="317.72" style="stroke: #000000; stroke-width: 0.8"/>
      </g>
     </g>
     <g id="text_3">
      <!-- 2008 -->
      <g transform="translate(123.595557 332.318437) scale(0.1 -0.1)">
       <defs>
        <path id="DejaVuSans-38" d="M 2034 2216 
Q 1584 2216 1326 1975 
Q 1069 1734 1069 1313 
Q 1069 891 1326 650 
Q 1584 409 2034 409 
Q 2484 409 2743 651 
Q 3003 894 3003 1313 
Q 3003 1734 2745 1975 
Q 2488 2216 2034 2216 
z
M 1403 2484 
Q 997 2584 770 2862 
Q 544 3141 544 3541 
Q 544 4100 942 4425 
Q 1341 4750 2034 4750 
Q 2731 4750 3128 4425 
Q 3525 4100 3525 3541 
Q 3525 3141 3298 2862 
Q 3072 2584 2669 2484 
Q 3125 2378 3379 2068 
Q 3634 1759 3634 1313 
Q 3634 634 3220 271 
Q 2806 -91 2034 -91 
Q 1263 -91 848 271 
Q 434 634 434 1313 
Q 434 1759 690 2068 
Q 947 2378 1403 2484 
z
M 1172 3481 
Q 1172 3119 1398 2916 
Q 1625 2713 2034 2713 
Q 2441 2713 2670 2916 
Q 2900 3119 2900 3481 
Q 2900 3844 2670 4047 
Q 2441 4250 2034 4250 
Q 1625 4250 1398 4047 
Q 1172 3844 1172 3481 
z
" transform="scale(0.015625)"/>
       </defs>
       <use xlink:href="#DejaVuSans-32"/>
       <use xlink:href="#DejaVuSans-30" x="63.623047"/>
       <use xlink:href="#DejaVuSans-30" x="127.246094"/>
       <use xlink:href="#DejaVuSans-38" x="190.869141"/>
      </g>
     </g>
    </g>
    <g id="xtick_4">
     <g id="line2d_4">
      <g>
       <use xlink:href="#m8190f3e002" x="176.890209" y="317.72" style="stroke: #000000; stroke-width: 0.8"/>
      </g>
     </g>
     <g id="text_4">
      <!-- 2010 -->
      <g transform="translate(164.165209 332.318437) scale(0.1 -0.1)">
       <defs>
        <path id="DejaVuSans-31" d="M 794 531 
L 1825 531 
L 1825 4091 
L 703 3866 
L 703 4441 
L 1819 4666 
L 2450 4666 
L 2450 531 
L 3481 531 
L 3481 0 
L 794 0 
L 794 531 
z
" transform="scale(0.015625)"/>
       </defs>
       <use xlink:href="#DejaVuSans-32"/>
       <use xlink:href="#DejaVuSans-30" x="63.623047"/>
       <use xlink:href="#DejaVuSans-31" x="127.246094"/>
       <use xlink:href="#DejaVuSans-30" x="190.869141"/>
      </g>
     </g>
    </g>
    <g id="xtick_5">
     <g id="line2d_5">
      <g>
       <use xlink:href="#m8190f3e002" x="217.404362" y="317.72" style="stroke: #000000; stroke-width: 0.8"/>
      </g>
     </g>
     <g id="text_5">
      <!-- 2012 -->
      <g transform="translate(204.679362 332.318437) scale(0.1 -0.1)">
       <use xlink:href="#DejaVuSans-32"/>
       <use xlink:href="#DejaVuSans-30" x="63.623047"/>
       <use xlink:href="#DejaVuSans-31" x="127.246094"/>
       <use xlink:href="#DejaVuSans-32" x="190.869141"/>
      </g>
     </g>
    </g>
    <g id="xtick_6">
     <g id="line2d_6">
      <g>
       <use xlink:href="#m8190f3e002" x="257.974014" y="317.72" style="stroke: #000000; stroke-width: 0.8"/>
      </g>
     </g>
     <g id="text_6">
      <!-- 2014 -->
      <g transform="translate(245.249014 332.318437) scale(0.1 -0.1)">
       <use xlink:href="#DejaVuSans-32"/>
       <use xlink:href="#DejaVuSans-30" x="63.623047"/>
       <use xlink:href="#DejaVuSans-31" x="127.246094"/>
       <use xlink:href="#DejaVuSans-34" x="190.869141"/>
      </g>
     </g>
    </g>
    <g id="xtick_7">
     <g id="line2d_7">
      <g>
       <use xlink:href="#m8190f3e002" x="298.488167" y="317.72" style="stroke: #000000; stroke-width: 0.8"/>
      </g>
     </g>
     <g id="text_7">
      <!-- 2016 -->
      <g transform="translate(285.763167 332.318437) scale(0.1 -0.1)">
       <use xlink:href="#DejaVuSans-32"/>
       <use xlink:href="#DejaVuSans-30" x="63.623047"/>
       <use xlink:href="#DejaVuSans-31" x="127.246094"/>
       <use xlink:href="#DejaVuSans-36" x="190.869141"/>
      </g>
     </g>
    </g>
    <g id="xtick_8">
     <g id="line2d_8">
      <g>
       <use xlink:href="#m8190f3e002" x="339.057819" y="317.72" style="stroke: #000000; stroke-width: 0.8"/>
      </g>
     </g>
     <g id="text_8">
      <!-- 2018 -->
      <g transform="translate(326.332819 332.318437) scale(0.1 -0.1)">
       <use xlink:href="#DejaVuSans-32"/>
       <use xlink:href="#DejaVuSans-30" x="63.623047"/>
       <use xlink:href="#DejaVuSans-31" x="127.246094"/>
       <use xlink:href="#DejaVuSans-38" x="190.869141"/>
      </g>
     </g>
    </g>
    <g id="xtick_9">
     <g id="line2d_9">
      <g>
       <use xlink:href="#m8190f3e002" x="379.571972" y="317.72" style="stroke: #000000; stroke-width: 0.8"/>
      </g>
     </g>
     <g id="text_9">
      <!-- 2020 -->
      <g transform="translate(366.846972 332.318437) scale(0.1 -0.1)">
       <use xlink:href="#DejaVuSans-32"/>
       <use xlink:href="#DejaVuSans-30" x="63.623047"/>
       <use xlink:href="#DejaVuSans-32" x="127.246094"/>
       <use xlink:href="#DejaVuSans-30" x="190.869141"/>
      </g>
     </g>
    </g>
    <g id="xtick_10">
     <g id="line2d_10">
      <g>
       <use xlink:href="#m8190f3e002" x="420.141624" y="317.72" style="stroke: #000000; stroke-width: 0.8"/>
      </g>
     </g>
     <g id="text_10">
      <!-- 2022 -->
      <g transform="translate(407.416624 332.318437) scale(0.1 -0.1)">
       <use xlink:href="#DejaVuSans-32"/>
       <use xlink:href="#DejaVuSans-30" x="63.623047"/>
       <use xlink:href="#DejaVuSans-32" x="127.246094"/>
       <use xlink:href="#DejaVuSans-32" x="190.869141"/>
      </g>
     </g>
    </g>
   </g>
   <g id="matplotlib.axis_2">
    <g id="ytick_1">
     <g id="line2d_11">
      <defs>
       <path id="m0fa42002c1" d="M 0 0 
L -3.5 0 
" style="stroke: #000000; stroke-width: 0.8"/>
      </defs>
      <g>
       <use xlink:href="#m0fa42002c1" x="43.36" y="317.72" style="stroke: #000000; stroke-width: 0.8"/>
      </g>
     </g>
     <g id="text_11">
      <!-- 0 -->
      <g transform="translate(29.9975 321.519219) scale(0.1 -0.1)">
       <use xlink:href="#DejaVuSans-30"/>
      </g>
     </g>
    </g>
    <g id="ytick_2">
     <g id="line2d_12">
      <g>
       <use xlink:href="#m0fa42002c1" x="43.36" y="267.234417" style="stroke: #000000; stroke-width: 0.8"/>
      </g>
     </g>
     <g id="text_12">
      <!-- 1000 -->
      <g transform="translate(10.91 271.033636) scale(0.1 -0.1)">
       <use xlink:href="#DejaVuSans-31"/>
       <use xlink:href="#DejaVuSans-30" x="63.623047"/>
       <use xlink:href="#DejaVuSans-30" x="127.246094"/>
       <use xlink:href="#DejaVuSans-30" x="190.869141"/>
      </g>
     </g>
    </g>
    <g id="ytick_3">
     <g id="line2d_13">
      <g>
       <use xlink:href="#m0fa42002c1" x="43.36" y="216.748834" style="stroke: #000000; stroke-width: 0.8"/>
      </g>
     </g>
     <g id="text_13">
      <!-- 2000 -->
      <g transform="translate(10.91 220.548053) scale(0.1 -0.1)">
       <use xlink:href="#DejaVuSans-32"/>
       <use xlink:href="#DejaVuSans-30" x="63.623047"/>
       <use xlink:href="#DejaVuSans-30" x="127.246094"/>
       <use xlink:href="#DejaVuSans-30" x="190.869141"/>
      </g>
     </g>
    </g>
    <g id="ytick_4">
     <g id="line2d_14">
      <g>
       <use xlink:href="#m0fa42002c1" x="43.36" y="166.263252" style="stroke: #000000; stroke-width: 0.8"/>
      </g>
     </g>
     <g id="text_14">
      <!-- 3000 -->
      <g transform="translate(10.91 170.06247) scale(0.1 -0.1)">
       <defs>
        <path id="DejaVuSans-33" d="M 2597 2516 
Q 3050 2419 3304 2112 
Q 3559 1806 3559 1356 
Q 3559 666 3084 287 
Q 2609 -91 1734 -91 
Q 1441 -91 1130 -33 
Q 819 25 488 141 
L 488 750 
Q 750 597 1062 519 
Q 1375 441 1716 441 
Q 2309 441 2620 675 
Q 2931 909 2931 1356 
Q 2931 1769 2642 2001 
Q 2353 2234 1838 2234 
L 1294 2234 
L 1294 2753 
L 1863 2753 
Q 2328 2753 2575 2939 
Q 2822 3125 2822 3475 
Q 2822 3834 2567 4026 
Q 2313 4219 1838 4219 
Q 1578 4219 1281 4162 
Q 984 4106 628 3988 
L 628 4550 
Q 988 4650 1302 4700 
Q 1616 4750 1894 4750 
Q 2613 4750 3031 4423 
Q 3450 4097 3450 3541 
Q 3450 3153 3228 2886 
Q 3006 2619 2597 2516 
z
" transform="scale(0.015625)"/>
       </defs>
       <use xlink:href="#DejaVuSans-33"/>
       <use xlink:href="#DejaVuSans-30" x="63.623047"/>
       <use xlink:href="#DejaVuSans-30" x="127.246094"/>
       <use xlink:href="#DejaVuSans-30" x="190.869141"/>
      </g>
     </g>
    </g>
    <g id="ytick_5">
     <g id="line2d_15">
      <g>
       <use xlink:href="#m0fa42002c1" x="43.36" y="115.777669" style="stroke: #000000; stroke-width: 0.8"/>
      </g>
     </g>
     <g id="text_15">
      <!-- 4000 -->
      <g transform="translate(10.91 119.576888) scale(0.1 -0.1)">
       <use xlink:href="#DejaVuSans-34"/>
       <use xlink:href="#DejaVuSans-30" x="63.623047"/>
       <use xlink:href="#DejaVuSans-30" x="127.246094"/>
       <use xlink:href="#DejaVuSans-30" x="190.869141"/>
      </g>
     </g>
    </g>
    <g id="ytick_6">
     <g id="line2d_16">
      <g>
       <use xlink:href="#m0fa42002c1" x="43.36" y="65.292086" style="stroke: #000000; stroke-width: 0.8"/>
      </g>
     </g>
     <g id="text_16">
      <!-- 5000 -->
      <g transform="translate(10.91 69.091305) scale(0.1 -0.1)">
       <defs>
        <path id="DejaVuSans-35" d="M 691 4666 
L 3169 4666 
L 3169 4134 
L 1269 4134 
L 1269 2991 
Q 1406 3038 1543 3061 
Q 1681 3084 1819 3084 
Q 2600 3084 3056 2656 
Q 3513 2228 3513 1497 
Q 3513 744 3044 326 
Q 2575 -91 1722 -91 
Q 1428 -91 1123 -41 
Q 819 9 494 109 
L 494 744 
Q 775 591 1075 516 
Q 1375 441 1709 441 
Q 2250 441 2565 725 
Q 2881 1009 2881 1497 
Q 2881 1984 2565 2268 
Q 2250 2553 1709 2553 
Q 1456 2553 1204 2497 
Q 953 2441 691 2322 
L 691 4666 
z
" transform="scale(0.015625)"/>
       </defs>
       <use xlink:href="#DejaVuSans-35"/>
       <use xlink:href="#DejaVuSans-30" x="63.623047"/>
       <use xlink:href="#DejaVuSans-30" x="127.246094"/>
       <use xlink:href="#DejaVuSans-30" x="190.869141"/>
      </g>
     </g>
    </g>
   </g>
   <g id="patch_3">
    <path d="M 43.36 317.72 
L 43.36 48.96 
" style="fill: none; stroke: #000000; stroke-width: 0.8; stroke-linejoin: miter; stroke-linecap: square"/>
   </g>
   <g id="patch_4">
    <path d="M 450 317.72 
L 450 48.96 
" style="fill: none; stroke: #000000; stroke-width: 0.8; stroke-linejoin: miter; stroke-linecap: square"/>
   </g>
   <g id="patch_5">
    <path d="M 43.36 317.72 
L 450 317.72 
" style="fill: none; stroke: #000000; stroke-width: 0.8; stroke-linejoin: miter; stroke-linecap: square"/>
   </g>
   <g id="patch_6">
    <path d="M 43.36 48.96 
L 450 48.96 
" style="fill: none; stroke: #000000; stroke-width: 0.8; stroke-linejoin: miter; stroke-linecap: square"/>
   </g>
   <g id="legend_1">
    <g id="patch_7">
     <path d="M 119.690156 43.96 
L 373.669844 43.96 
Q 375.669844 43.96 375.669844 41.96 
L 375.669844 13.60375 
Q 375.669844 11.60375 373.669844 11.60375 
L 119.690156 11.60375 
Q 117.690156 11.60375 117.690156 13.60375 
L 117.690156 41.96 
Q 117.690156 43.96 119.690156 43.96 
z
" style="fill: #ffffff; opacity: 0.8; stroke: #cccccc; stroke-linejoin: miter"/>
    </g>
    <g id="patch_8">
     <path d="M 121.690156 23.202187 
L 141.690156 23.202187 
L 141.690156 16.202187 
L 121.690156 16.202187 
z
" style="fill: #1f77b4"/>
    </g>
    <g id="text_17">
     <!-- Published -->
     <g transform="translate(149.690156 23.202187) scale(0.1 -0.1)">
      <defs>
       <path id="DejaVuSans-50" d="M 1259 4147 
L 1259 2394 
L 2053 2394 
Q 2494 2394 2734 2622 
Q 2975 2850 2975 3272 
Q 2975 3691 2734 3919 
Q 2494 4147 2053 4147 
L 1259 4147 
z
M 628 4666 
L 2053 4666 
Q 2838 4666 3239 4311 
Q 3641 3956 3641 3272 
Q 3641 2581 3239 2228 
Q 2838 1875 2053 1875 
L 1259 1875 
L 1259 0 
L 628 0 
L 628 4666 
z
" transform="scale(0.015625)"/>
       <path id="DejaVuSans-75" d="M 544 1381 
L 544 3500 
L 1119 3500 
L 1119 1403 
Q 1119 906 1312 657 
Q 1506 409 1894 409 
Q 2359 409 2629 706 
Q 2900 1003 2900 1516 
L 2900 3500 
L 3475 3500 
L 3475 0 
L 2900 0 
L 2900 538 
Q 2691 219 2414 64 
Q 2138 -91 1772 -91 
Q 1169 -91 856 284 
Q 544 659 544 1381 
z
M 1991 3584 
L 1991 3584 
z
" transform="scale(0.015625)"/>
       <path id="DejaVuSans-62" d="M 3116 1747 
Q 3116 2381 2855 2742 
Q 2594 3103 2138 3103 
Q 1681 3103 1420 2742 
Q 1159 2381 1159 1747 
Q 1159 1113 1420 752 
Q 1681 391 2138 391 
Q 2594 391 2855 752 
Q 3116 1113 3116 1747 
z
M 1159 2969 
Q 1341 3281 1617 3432 
Q 1894 3584 2278 3584 
Q 2916 3584 3314 3078 
Q 3713 2572 3713 1747 
Q 3713 922 3314 415 
Q 2916 -91 2278 -91 
Q 1894 -91 1617 61 
Q 1341 213 1159 525 
L 1159 0 
L 581 0 
L 581 4863 
L 1159 4863 
L 1159 2969 
z
" transform="scale(0.015625)"/>
       <path id="DejaVuSans-6c" d="M 603 4863 
L 1178 4863 
L 1178 0 
L 603 0 
L 603 4863 
z
" transform="scale(0.015625)"/>
       <path id="DejaVuSans-69" d="M 603 3500 
L 1178 3500 
L 1178 0 
L 603 0 
L 603 3500 
z
M 603 4863 
L 1178 4863 
L 1178 4134 
L 603 4134 
L 603 4863 
z
" transform="scale(0.015625)"/>
       <path id="DejaVuSans-73" d="M 2834 3397 
L 2834 2853 
Q 2591 2978 2328 3040 
Q 2066 3103 1784 3103 
Q 1356 3103 1142 2972 
Q 928 2841 928 2578 
Q 928 2378 1081 2264 
Q 1234 2150 1697 2047 
L 1894 2003 
Q 2506 1872 2764 1633 
Q 3022 1394 3022 966 
Q 3022 478 2636 193 
Q 2250 -91 1575 -91 
Q 1294 -91 989 -36 
Q 684 19 347 128 
L 347 722 
Q 666 556 975 473 
Q 1284 391 1588 391 
Q 1994 391 2212 530 
Q 2431 669 2431 922 
Q 2431 1156 2273 1281 
Q 2116 1406 1581 1522 
L 1381 1569 
Q 847 1681 609 1914 
Q 372 2147 372 2553 
Q 372 3047 722 3315 
Q 1072 3584 1716 3584 
Q 2034 3584 2315 3537 
Q 2597 3491 2834 3397 
z
" transform="scale(0.015625)"/>
       <path id="DejaVuSans-68" d="M 3513 2113 
L 3513 0 
L 2938 0 
L 2938 2094 
Q 2938 2591 2744 2837 
Q 2550 3084 2163 3084 
Q 1697 3084 1428 2787 
Q 1159 2491 1159 1978 
L 1159 0 
L 581 0 
L 581 4863 
L 1159 4863 
L 1159 2956 
Q 1366 3272 1645 3428 
Q 1925 3584 2291 3584 
Q 2894 3584 3203 3211 
Q 3513 2838 3513 2113 
z
" transform="scale(0.015625)"/>
       <path id="DejaVuSans-65" d="M 3597 1894 
L 3597 1613 
L 953 1613 
Q 991 1019 1311 708 
Q 1631 397 2203 397 
Q 2534 397 2845 478 
Q 3156 559 3463 722 
L 3463 178 
Q 3153 47 2828 -22 
Q 2503 -91 2169 -91 
Q 1331 -91 842 396 
Q 353 884 353 1716 
Q 353 2575 817 3079 
Q 1281 3584 2069 3584 
Q 2775 3584 3186 3129 
Q 3597 2675 3597 1894 
z
M 3022 2063 
Q 3016 2534 2758 2815 
Q 2500 3097 2075 3097 
Q 1594 3097 1305 2825 
Q 1016 2553 972 2059 
L 3022 2063 
z
" transform="scale(0.015625)"/>
       <path id="DejaVuSans-64" d="M 2906 2969 
L 2906 4863 
L 3481 4863 
L 3481 0 
L 2906 0 
L 2906 525 
Q 2725 213 2448 61 
Q 2172 -91 1784 -91 
Q 1150 -91 751 415 
Q 353 922 353 1747 
Q 353 2572 751 3078 
Q 1150 3584 1784 3584 
Q 2172 3584 2448 3432 
Q 2725 3281 2906 2969 
z
M 947 1747 
Q 947 1113 1208 752 
Q 1469 391 1925 391 
Q 2381 391 2643 752 
Q 2906 1113 2906 1747 
Q 2906 2381 2643 2742 
Q 2381 3103 1925 3103 
Q 1469 3103 1208 2742 
Q 947 2381 947 1747 
z
" transform="scale(0.015625)"/>
      </defs>
      <use xlink:href="#DejaVuSans-50"/>
      <use xlink:href="#DejaVuSans-75" x="58.552734"/>
      <use xlink:href="#DejaVuSans-62" x="121.931641"/>
      <use xlink:href="#DejaVuSans-6c" x="185.408203"/>
      <use xlink:href="#DejaVuSans-69" x="213.191406"/>
      <use xlink:href="#DejaVuSans-73" x="240.974609"/>
      <use xlink:href="#DejaVuSans-68" x="293.074219"/>
      <use xlink:href="#DejaVuSans-65" x="356.453125"/>
      <use xlink:href="#DejaVuSans-64" x="417.976562"/>
     </g>
    </g>
    <g id="patch_9">
     <path d="M 121.690156 37.880313 
L 141.690156 37.880313 
L 141.690156 30.880313 
L 121.690156 30.880313 
z
" style="fill: #ff7f0e"/>
    </g>
    <g id="text_18">
     <!-- Inferred role -->
     <g transform="translate(149.690156 37.880313) scale(0.1 -0.1)">
      <defs>
       <path id="DejaVuSans-49" d="M 628 4666 
L 1259 4666 
L 1259 0 
L 628 0 
L 628 4666 
z
" transform="scale(0.015625)"/>
       <path id="DejaVuSans-6e" d="M 3513 2113 
L 3513 0 
L 2938 0 
L 2938 2094 
Q 2938 2591 2744 2837 
Q 2550 3084 2163 3084 
Q 1697 3084 1428 2787 
Q 1159 2491 1159 1978 
L 1159 0 
L 581 0 
L 581 3500 
L 1159 3500 
L 1159 2956 
Q 1366 3272 1645 3428 
Q 1925 3584 2291 3584 
Q 2894 3584 3203 3211 
Q 3513 2838 3513 2113 
z
" transform="scale(0.015625)"/>
       <path id="DejaVuSans-66" d="M 2375 4863 
L 2375 4384 
L 1825 4384 
Q 1516 4384 1395 4259 
Q 1275 4134 1275 3809 
L 1275 3500 
L 2222 3500 
L 2222 3053 
L 1275 3053 
L 1275 0 
L 697 0 
L 697 3053 
L 147 3053 
L 147 3500 
L 697 3500 
L 697 3744 
Q 697 4328 969 4595 
Q 1241 4863 1831 4863 
L 2375 4863 
z
" transform="scale(0.015625)"/>
       <path id="DejaVuSans-72" d="M 2631 2963 
Q 2534 3019 2420 3045 
Q 2306 3072 2169 3072 
Q 1681 3072 1420 2755 
Q 1159 2438 1159 1844 
L 1159 0 
L 581 0 
L 581 3500 
L 1159 3500 
L 1159 2956 
Q 1341 3275 1631 3429 
Q 1922 3584 2338 3584 
Q 2397 3584 2469 3576 
Q 2541 3569 2628 3553 
L 2631 2963 
z
" transform="scale(0.015625)"/>
       <path id="DejaVuSans-20" transform="scale(0.015625)"/>
       <path id="DejaVuSans-6f" d="M 1959 3097 
Q 1497 3097 1228 2736 
Q 959 2375 959 1747 
Q 959 1119 1226 758 
Q 1494 397 1959 397 
Q 2419 397 2687 759 
Q 2956 1122 2956 1747 
Q 2956 2369 2687 2733 
Q 2419 3097 1959 3097 
z
M 1959 3584 
Q 2709 3584 3137 3096 
Q 3566 2609 3566 1747 
Q 3566 888 3137 398 
Q 2709 -91 1959 -91 
Q 1206 -91 779 398 
Q 353 888 353 1747 
Q 353 2609 779 3096 
Q 1206 3584 1959 3584 
z
" transform="scale(0.015625)"/>
      </defs>
      <use xlink:href="#DejaVuSans-49"/>
      <use xlink:href="#DejaVuSans-6e" x="29.492188"/>
      <use xlink:href="#DejaVuSans-66" x="92.871094"/>
      <use xlink:href="#DejaVuSans-65" x="128.076172"/>
      <use xlink:href="#DejaVuSans-72" x="189.599609"/>
      <use xlink:href="#DejaVuSans-72" x="228.962891"/>
      <use xlink:href="#DejaVuSans-65" x="267.826172"/>
      <use xlink:href="#DejaVuSans-64" x="329.349609"/>
      <use xlink:href="#DejaVuSans-20" x="392.826172"/>
      <use xlink:href="#DejaVuSans-72" x="424.613281"/>
      <use xlink:href="#DejaVuSans-6f" x="463.476562"/>
      <use xlink:href="#DejaVuSans-6c" x="524.658203"/>
      <use xlink:href="#DejaVuSans-65" x="552.441406"/>
     </g>
    </g>
    <g id="patch_10">
     <path d="M 231.088594 23.202187 
L 251.088594 23.202187 
L 251.088594 16.202187 
L 231.088594 16.202187 
z
" style="fill: #2ca02c"/>
    </g>
    <g id="text_19">
     <!-- Conserved unknown -->
     <g transform="translate(259.088594 23.202187) scale(0.1 -0.1)">
      <defs>
       <path id="DejaVuSans-43" d="M 4122 4306 
L 4122 3641 
Q 3803 3938 3442 4084 
Q 3081 4231 2675 4231 
Q 1875 4231 1450 3742 
Q 1025 3253 1025 2328 
Q 1025 1406 1450 917 
Q 1875 428 2675 428 
Q 3081 428 3442 575 
Q 3803 722 4122 1019 
L 4122 359 
Q 3791 134 3420 21 
Q 3050 -91 2638 -91 
Q 1578 -91 968 557 
Q 359 1206 359 2328 
Q 359 3453 968 4101 
Q 1578 4750 2638 4750 
Q 3056 4750 3426 4639 
Q 3797 4528 4122 4306 
z
" transform="scale(0.015625)"/>
       <path id="DejaVuSans-76" d="M 191 3500 
L 800 3500 
L 1894 563 
L 2988 3500 
L 3597 3500 
L 2284 0 
L 1503 0 
L 191 3500 
z
" transform="scale(0.015625)"/>
       <path id="DejaVuSans-6b" d="M 581 4863 
L 1159 4863 
L 1159 1991 
L 2875 3500 
L 3609 3500 
L 1753 1863 
L 3688 0 
L 2938 0 
L 1159 1709 
L 1159 0 
L 581 0 
L 581 4863 
z
" transform="scale(0.015625)"/>
       <path id="DejaVuSans-77" d="M 269 3500 
L 844 3500 
L 1563 769 
L 2278 3500 
L 2956 3500 
L 3675 769 
L 4391 3500 
L 4966 3500 
L 4050 0 
L 3372 0 
L 2619 2869 
L 1863 0 
L 1184 0 
L 269 3500 
z
" transform="scale(0.015625)"/>
      </defs>
      <use xlink:href="#DejaVuSans-43"/>
      <use xlink:href="#DejaVuSans-6f" x="69.824219"/>
      <use xlink:href="#DejaVuSans-6e" x="131.005859"/>
      <use xlink:href="#DejaVuSans-73" x="194.384766"/>
      <use xlink:href="#DejaVuSans-65" x="246.484375"/>
      <use xlink:href="#DejaVuSans-72" x="308.007812"/>
      <use xlink:href="#DejaVuSans-76" x="349.121094"/>
      <use xlink:href="#DejaVuSans-65" x="408.300781"/>
      <use xlink:href="#DejaVuSans-64" x="469.824219"/>
      <use xlink:href="#DejaVuSans-20" x="533.300781"/>
      <use xlink:href="#DejaVuSans-75" x="565.087891"/>
      <use xlink:href="#DejaVuSans-6e" x="628.466797"/>
      <use xlink:href="#DejaVuSans-6b" x="691.845703"/>
      <use xlink:href="#DejaVuSans-6e" x="749.755859"/>
      <use xlink:href="#DejaVuSans-6f" x="813.134766"/>
      <use xlink:href="#DejaVuSans-77" x="874.316406"/>
      <use xlink:href="#DejaVuSans-6e" x="956.103516"/>
     </g>
    </g>
    <g id="patch_11">
     <path d="M 231.088594 37.880313 
L 251.088594 37.880313 
L 251.088594 30.880313 
L 231.088594 30.880313 
z
" style="fill: #d62728"/>
    </g>
    <g id="text_20">
     <!-- Fission yeast unknown -->
     <g transform="translate(259.088594 37.880313) scale(0.1 -0.1)">
      <defs>
       <path id="DejaVuSans-46" d="M 628 4666 
L 3309 4666 
L 3309 4134 
L 1259 4134 
L 1259 2759 
L 3109 2759 
L 3109 2228 
L 1259 2228 
L 1259 0 
L 628 0 
L 628 4666 
z
" transform="scale(0.015625)"/>
       <path id="DejaVuSans-79" d="M 2059 -325 
Q 1816 -950 1584 -1140 
Q 1353 -1331 966 -1331 
L 506 -1331 
L 506 -850 
L 844 -850 
Q 1081 -850 1212 -737 
Q 1344 -625 1503 -206 
L 1606 56 
L 191 3500 
L 800 3500 
L 1894 763 
L 2988 3500 
L 3597 3500 
L 2059 -325 
z
" transform="scale(0.015625)"/>
       <path id="DejaVuSans-61" d="M 2194 1759 
Q 1497 1759 1228 1600 
Q 959 1441 959 1056 
Q 959 750 1161 570 
Q 1363 391 1709 391 
Q 2188 391 2477 730 
Q 2766 1069 2766 1631 
L 2766 1759 
L 2194 1759 
z
M 3341 1997 
L 3341 0 
L 2766 0 
L 2766 531 
Q 2569 213 2275 61 
Q 1981 -91 1556 -91 
Q 1019 -91 701 211 
Q 384 513 384 1019 
Q 384 1609 779 1909 
Q 1175 2209 1959 2209 
L 2766 2209 
L 2766 2266 
Q 2766 2663 2505 2880 
Q 2244 3097 1772 3097 
Q 1472 3097 1187 3025 
Q 903 2953 641 2809 
L 641 3341 
Q 956 3463 1253 3523 
Q 1550 3584 1831 3584 
Q 2591 3584 2966 3190 
Q 3341 2797 3341 1997 
z
" transform="scale(0.015625)"/>
       <path id="DejaVuSans-74" d="M 1172 4494 
L 1172 3500 
L 2356 3500 
L 2356 3053 
L 1172 3053 
L 1172 1153 
Q 1172 725 1289 603 
Q 1406 481 1766 481 
L 2356 481 
L 2356 0 
L 1766 0 
Q 1100 0 847 248 
Q 594 497 594 1153 
L 594 3053 
L 172 3053 
L 172 3500 
L 594 3500 
L 594 4494 
L 1172 4494 
z
" transform="scale(0.015625)"/>
      </defs>
      <use xlink:href="#DejaVuSans-46"/>
      <use xlink:href="#DejaVuSans-69" x="50.269531"/>
      <use xlink:href="#DejaVuSans-73" x="78.052734"/>
      <use xlink:href="#DejaVuSans-73" x="130.152344"/>
      <use xlink:href="#DejaVuSans-69" x="182.251953"/>
      <use xlink:href="#DejaVuSans-6f" x="210.035156"/>
      <use xlink:href="#DejaVuSans-6e" x="271.216797"/>
      <use xlink:href="#DejaVuSans-20" x="334.595703"/>
      <use xlink:href="#DejaVuSans-79" x="366.382812"/>
      <use xlink:href="#DejaVuSans-65" x="425.5625"/>
      <use xlink:href="#DejaVuSans-61" x="487.085938"/>
      <use xlink:href="#DejaVuSans-73" x="548.365234"/>
      <use xlink:href="#DejaVuSans-74" x="600.464844"/>
      <use xlink:href="#DejaVuSans-20" x="639.673828"/>
      <use xlink:href="#DejaVuSans-75" x="671.460938"/>
      <use xlink:href="#DejaVuSans-6e" x="734.839844"/>
      <use xlink:href="#DejaVuSans-6b" x="798.21875"/>
      <use xlink:href="#DejaVuSans-6e" x="856.128906"/>
      <use xlink:href="#DejaVuSans-6f" x="919.507812"/>
      <use xlink:href="#DejaVuSans-77" x="980.689453"/>
      <use xlink:href="#DejaVuSans-6e" x="1062.476562"/>
     </g>
    </g>
   </g>
  </g>
 </g>
 <defs>
  <clipPath id="p39bcad2c21">
   <rect x="43.36" y="48.96" width="406.64" height="268.76"/>
  </clipPath>
 </defs>
</svg>
