<?xml version="1.0" encoding="utf-8" standalone="no"?>
<!DOCTYPE svg PUBLIC "-//W3C//DTD SVG 1.1//EN"
  "http://www.w3.org/Graphics/SVG/1.1/DTD/svg11.dtd">
<svg xmlns:xlink="http://www.w3.org/1999/xlink" width="460.8pt" height="345.6pt" viewBox="0 0 460.8 345.6" xmlns="http://www.w3.org/2000/svg" version="1.1">
 <metadata>
  <rdf:RDF xmlns:dc="http://purl.org/dc/elements/1.1/" xmlns:cc="http://creativecommons.org/ns#" xmlns:rdf="http://www.w3.org/1999/02/22-rdf-syntax-ns#">
   <cc:Work>
    <dc:type rdf:resource="http://purl.org/dc/dcmitype/StillImage"/>
    <dc:date>2024-12-02T01:07:06.983056</dc:date>
    <dc:format>image/svg+xml</dc:format>
    <dc:creator>
     <cc:Agent>
      <dc:title>Matplotlib v3.7.1, https://matplotlib.org/</dc:title>
     </cc:Agent>
    </dc:creator>
   </cc:Work>
  </rdf:RDF>
 </metadata>
 <defs>
  <style type="text/css">*{stroke-linejoin: round; stroke-linecap: butt}</style>
 </defs>
 <g id="figure_1">
  <g id="patch_1">
   <path d="M 0 345.6 
L 460.8 345.6 
L 460.8 0 
L 0 0 
z
" style="fill: #ffffff"/>
  </g>
  <g id="axes_1">
   <g id="patch_2">
    <path d="M 61.49 279.078144 
L 450 279.078144 
L 450 68.436974 
L 61.49 68.436974 
z
" style="fill: #ffffff"/>
   </g>
   <g id="PolyCollection_1">
    <path d="M 31.566569 225.621542 
L 31.566569 279.078144 
L 39.925346 279.078144 
L 48.185202 279.078144 
L 65.150056 279.078144 
L 84.835222 279.078144 
L 99.327066 279.078144 
L 108.328825 279.078144 
L 110.653455 279.078144 
L 114.956494 279.078144 
L 116.934903 279.078144 
L 117.182204 279.078144 
L 120.446578 279.078144 
L 121.287402 279.078144 
L 121.979845 279.078144 
L 122.820668 279.078144 
L 123.364731 279.078144 
L 124.205554 279.078144 
L 124.700157 279.078144 
L 125.59044 279.078144 
L 126.777486 279.078144 
L 127.71723 279.078144 
L 128.063451 279.078144 
L 129.052656 279.078144 
L 129.745099 279.078144 
L 130.487002 279.078144 
L 131.278365 279.078144 
L 131.822428 279.078144 
L 132.31703 279.078144 
L 133.701916 279.078144 
L 134.69112 279.078144 
L 135.433024 279.078144 
L 135.630864 279.078144 
L 136.323307 279.078144 
L 137.361972 279.078144 
L 138.450097 279.078144 
L 139.192 279.078144 
L 140.280125 279.078144 
L 141.714471 279.078144 
L 143.69288 279.078144 
L 145.423987 279.078144 
L 146.907794 279.078144 
L 149.677566 279.078144 
L 150.864611 279.078144 
L 154.079525 279.078144 
L 156.156854 279.078144 
L 157.44282 279.078144 
L 158.234183 279.078144 
L 161.350177 279.078144 
L 163.081285 279.078144 
L 164.861852 279.078144 
L 168.373528 279.078144 
L 171.637902 279.078144 
L 172.181964 279.078144 
L 172.824947 279.078144 
L 173.814151 279.078144 
L 174.605515 279.078144 
L 177.029066 279.078144 
L 181.876167 279.078144 
L 182.815911 279.078144 
L 187.366251 279.078144 
L 188.404915 279.078144 
L 189.44358 279.078144 
L 191.125227 279.078144 
L 192.510113 279.078144 
L 193.845539 279.078144 
L 194.686363 279.078144 
L 197.406675 279.078144 
L 200.225907 279.078144 
L 201.610793 279.078144 
L 202.599997 279.078144 
L 203.836503 279.078144 
L 204.875167 279.078144 
L 206.111673 279.078144 
L 209.029826 279.078144 
L 210.563092 279.078144 
L 212.046899 279.078144 
L 213.580165 279.078144 
L 215.063972 279.078144 
L 216.597239 279.078144 
L 218.130505 279.078144 
L 219.564852 279.078144 
L 221.098118 279.078144 
L 222.581925 279.078144 
L 224.115192 279.078144 
L 225.598998 279.078144 
L 227.132265 279.078144 
L 228.665532 279.078144 
L 230.149338 279.078144 
L 231.682605 279.078144 
L 233.166411 279.078144 
L 234.699678 279.078144 
L 236.232945 279.078144 
L 237.617831 279.078144 
L 239.151097 279.078144 
L 240.634904 279.078144 
L 242.168171 279.078144 
L 243.651977 279.078144 
L 245.185244 279.078144 
L 246.718511 279.078144 
L 248.202317 279.078144 
L 249.735584 279.078144 
L 251.21939 279.078144 
L 252.752657 279.078144 
L 254.285924 279.078144 
L 255.67081 279.078144 
L 257.204076 279.078144 
L 258.687883 279.078144 
L 260.22115 279.078144 
L 261.704956 279.078144 
L 263.238223 279.078144 
L 264.771489 279.078144 
L 266.255296 279.078144 
L 267.788563 279.078144 
L 269.272369 279.078144 
L 270.805636 279.078144 
L 272.338903 279.078144 
L 273.723789 279.078144 
L 275.257055 279.078144 
L 276.740862 279.078144 
L 278.274129 279.078144 
L 279.757935 279.078144 
L 281.291202 279.078144 
L 282.824468 279.078144 
L 284.308275 279.078144 
L 285.841542 279.078144 
L 287.325348 279.078144 
L 288.858615 279.078144 
L 290.391882 279.078144 
L 291.826228 279.078144 
L 293.359495 279.078144 
L 294.843301 279.078144 
L 296.376568 279.078144 
L 297.860374 279.078144 
L 299.393641 279.078144 
L 300.926908 279.078144 
L 302.410714 279.078144 
L 303.943981 279.078144 
L 305.427787 279.078144 
L 306.961054 279.078144 
L 308.494321 279.078144 
L 309.879207 279.078144 
L 311.412474 279.078144 
L 312.89628 279.078144 
L 314.429547 279.078144 
L 315.913353 279.078144 
L 317.44662 279.078144 
L 318.979887 279.078144 
L 320.463693 279.078144 
L 321.99696 279.078144 
L 323.480766 279.078144 
L 325.014033 279.078144 
L 326.5473 279.078144 
L 327.932186 279.078144 
L 329.465453 279.078144 
L 330.949259 279.078144 
L 332.482526 279.078144 
L 333.966332 279.078144 
L 335.499599 279.078144 
L 337.032866 279.078144 
L 338.516672 279.078144 
L 340.049939 279.078144 
L 341.533745 279.078144 
L 343.067012 279.078144 
L 344.600279 279.078144 
L 345.985165 279.078144 
L 347.518432 279.078144 
L 349.002238 279.078144 
L 350.535505 279.078144 
L 352.019311 279.078144 
L 353.552578 279.078144 
L 355.085845 279.078144 
L 356.569651 279.078144 
L 358.102918 279.078144 
L 359.586724 279.078144 
L 361.119991 279.078144 
L 362.653258 279.078144 
L 364.087604 279.078144 
L 365.620871 279.078144 
L 367.104677 279.078144 
L 368.637944 279.078144 
L 370.12175 279.078144 
L 371.655017 279.078144 
L 373.188284 279.078144 
L 374.67209 279.078144 
L 376.205357 279.078144 
L 377.689164 279.078144 
L 379.22243 279.078144 
L 380.755697 279.078144 
L 382.140583 279.078144 
L 383.67385 279.078144 
L 385.157656 279.078144 
L 386.690923 279.078144 
L 388.174729 279.078144 
L 389.707996 279.078144 
L 391.241263 279.078144 
L 392.725069 279.078144 
L 394.258336 279.078144 
L 395.742143 279.078144 
L 397.275409 279.078144 
L 398.808676 279.078144 
L 400.193562 279.078144 
L 401.726829 279.078144 
L 403.210635 279.078144 
L 404.743902 279.078144 
L 406.227708 279.078144 
L 407.760975 279.078144 
L 409.294242 279.078144 
L 410.778048 279.078144 
L 412.311315 279.078144 
L 413.795122 279.078144 
L 415.328388 279.078144 
L 416.861655 279.078144 
L 418.246541 279.078144 
L 419.779808 279.078144 
L 421.263614 279.078144 
L 422.796881 279.078144 
L 424.280687 279.078144 
L 425.813954 279.078144 
L 427.347221 279.078144 
L 428.831027 279.078144 
L 430.364294 279.078144 
L 431.848101 279.078144 
L 433.381367 279.078144 
L 434.914634 279.078144 
L 436.34898 279.078144 
L 437.882247 279.078144 
L 439.366053 279.078144 
L 440.89932 279.078144 
L 442.383127 279.078144 
L 443.916393 279.078144 
L 445.44966 279.078144 
L 446.933467 279.078144 
L 448.466733 279.078144 
L 449.95054 279.078144 
L 449.95054 174.736871 
L 449.95054 174.736871 
L 448.466733 174.97428 
L 446.933467 174.97428 
L 445.44966 175.211689 
L 443.916393 175.211689 
L 442.383127 176.082189 
L 440.89932 176.636143 
L 439.366053 176.754848 
L 437.882247 176.873552 
L 436.34898 176.952689 
L 434.914634 178.65412 
L 433.381367 178.772825 
L 431.848101 178.812393 
L 430.364294 179.049802 
L 428.831027 179.168506 
L 427.347221 179.208075 
L 425.813954 179.326779 
L 424.280687 179.801597 
L 422.796881 180.039006 
L 421.263614 180.157711 
L 419.779808 180.157711 
L 418.246541 180.513824 
L 416.861655 181.107347 
L 415.328388 181.067779 
L 413.795122 181.186483 
L 412.311315 181.305188 
L 410.778048 181.542597 
L 409.294242 181.542597 
L 407.760975 181.582165 
L 406.227708 181.582165 
L 404.743902 181.542597 
L 403.210635 181.621733 
L 401.726829 181.542597 
L 400.193562 181.503029 
L 398.808676 181.542597 
L 397.275409 181.542597 
L 395.742143 181.740438 
L 394.258336 181.938279 
L 392.725069 182.254824 
L 391.241263 182.492233 
L 389.707996 182.452665 
L 388.174729 182.650506 
L 386.690923 182.927483 
L 385.157656 182.927483 
L 383.67385 183.085756 
L 382.140583 183.600142 
L 380.755697 183.718846 
L 379.22243 184.154096 
L 377.689164 184.193664 
L 376.205357 184.351937 
L 374.67209 184.431073 
L 373.188284 184.589346 
L 371.655017 184.628914 
L 370.12175 184.708051 
L 368.637944 184.708051 
L 367.104677 184.787187 
L 365.620871 185.143301 
L 364.087604 185.262005 
L 362.653258 185.341141 
L 361.119991 185.420278 
L 359.586724 185.420278 
L 358.102918 185.420278 
L 356.569651 185.538982 
L 355.085845 185.618119 
L 353.552578 185.776391 
L 352.019311 186.0138 
L 350.535505 186.132505 
L 349.002238 186.211641 
L 347.518432 186.290778 
L 345.985165 186.330346 
L 344.600279 186.330346 
L 343.067012 186.369914 
L 341.533745 186.409482 
L 340.049939 186.488618 
L 338.516672 186.528187 
L 337.032866 186.528187 
L 335.499599 186.646891 
L 333.966332 186.765596 
L 332.482526 187.003005 
L 330.949259 187.161277 
L 329.465453 187.477823 
L 327.932186 187.636095 
L 326.5473 187.794368 
L 325.014033 187.833936 
L 323.480766 187.992209 
L 321.99696 188.150482 
L 320.463693 189.891481 
L 318.979887 190.168459 
L 317.44662 190.920254 
L 315.913353 190.287163 
L 314.429547 190.208027 
L 312.89628 190.247595 
L 311.412474 190.326731 
L 309.879207 190.603708 
L 308.494321 190.643277 
L 306.961054 190.722413 
L 305.427787 191.474208 
L 303.943981 191.592913 
L 302.410714 191.790754 
L 300.926908 191.86989 
L 299.393641 191.988595 
L 297.860374 192.423844 
L 296.376568 192.621685 
L 294.843301 192.621685 
L 293.359495 193.017367 
L 291.826228 193.096503 
L 290.391882 193.136072 
L 288.858615 193.333912 
L 287.325348 193.413049 
L 285.841542 193.413049 
L 284.308275 193.61089 
L 282.824468 193.650458 
L 281.291202 193.690026 
L 279.757935 193.848299 
L 278.274129 193.967003 
L 276.740862 193.373481 
L 275.257055 193.452617 
L 273.723789 193.650458 
L 272.338903 193.650458 
L 270.805636 193.887867 
L 269.272369 194.04614 
L 267.788563 194.323117 
L 266.255296 194.67923 
L 264.771489 194.995776 
L 263.238223 195.074912 
L 261.704956 195.351889 
L 260.22115 195.589298 
L 258.687883 195.945412 
L 257.204076 196.103685 
L 255.67081 196.301525 
L 254.285924 196.341094 
L 252.752657 196.341094 
L 251.21939 196.538934 
L 249.735584 197.013753 
L 248.202317 197.053321 
L 246.718511 197.29073 
L 245.185244 197.963389 
L 243.651977 198.042525 
L 242.168171 198.517343 
L 240.634904 198.833888 
L 239.151097 199.902229 
L 237.617831 199.981365 
L 236.232945 200.10007 
L 234.699678 200.377047 
L 233.166411 200.456184 
L 231.682605 200.693593 
L 230.149338 200.891433 
L 228.665532 201.247547 
L 227.132265 201.445388 
L 225.598998 201.564092 
L 224.115192 201.801501 
L 222.581925 201.84107 
L 221.098118 201.959774 
L 219.564852 202.118047 
L 218.130505 202.118047 
L 216.597239 202.197183 
L 215.063972 202.236751 
L 213.580165 202.27632 
L 212.046899 202.315888 
L 210.563092 202.355456 
L 209.029826 202.47416 
L 206.111673 203.225956 
L 204.875167 203.423797 
L 203.836503 203.463365 
L 202.599997 203.34466 
L 201.610793 203.34466 
L 200.225907 203.463365 
L 197.406675 203.582069 
L 194.686363 204.21516 
L 193.845539 205.164796 
L 192.510113 205.006523 
L 191.125227 204.966955 
L 189.44358 205.679182 
L 188.404915 205.679182 
L 187.366251 205.441773 
L 182.815911 205.95616 
L 181.876167 206.035296 
L 177.029066 206.707955 
L 174.605515 206.787091 
L 173.814151 206.628819 
L 172.824947 206.747523 
L 172.181964 206.945364 
L 171.637902 206.984932 
L 168.373528 207.103637 
L 164.861852 207.182773 
L 163.081285 207.380614 
L 161.350177 209.477727 
L 158.234183 209.398591 
L 157.44282 209.438159 
L 156.156854 209.873409 
L 154.079525 210.981318 
L 150.864611 211.218727 
L 149.677566 211.614408 
L 146.907794 211.891386 
L 145.423987 212.722317 
L 143.69288 213.276272 
L 141.714471 213.711522 
L 140.280125 213.75109 
L 139.192 213.830226 
L 138.450097 213.869794 
L 137.361972 213.909362 
L 136.323307 214.62159 
L 135.630864 214.977703 
L 135.433024 214.977703 
L 134.69112 214.977703 
L 133.701916 215.215112 
L 132.31703 214.977703 
L 131.822428 215.175544 
L 131.278365 215.25468 
L 130.487002 215.373385 
L 129.745099 215.373385 
L 129.052656 215.68993 
L 128.063451 216.402157 
L 127.71723 216.362589 
L 126.777486 216.718703 
L 125.59044 216.797839 
L 124.700157 216.876975 
L 124.205554 216.956112 
L 123.364731 217.074816 
L 122.820668 217.312225 
L 121.979845 217.510066 
L 121.287402 217.43093 
L 120.446578 217.510066 
L 117.182204 217.787043 
L 116.934903 217.747475 
L 114.956494 218.064021 
L 110.653455 216.164748 
L 108.328825 218.974089 
L 99.327066 222.653929 
L 84.835222 226.09636 
L 65.150056 230.527995 
L 48.185202 225.423701 
L 39.925346 224.79061 
L 31.566569 225.621542 
z
" clip-path="url(#p8923913e2f)" style="fill: #fb363b"/>
   </g>
   <g id="PolyCollection_2">
    <path d="M 31.566569 144.269378 
L 31.566569 225.621542 
L 39.925346 224.79061 
L 48.185202 225.423701 
L 65.150056 230.527995 
L 84.835222 226.09636 
L 99.327066 222.653929 
L 108.328825 218.974089 
L 110.653455 216.164748 
L 114.956494 218.064021 
L 116.934903 217.747475 
L 117.182204 217.787043 
L 120.446578 217.510066 
L 121.287402 217.43093 
L 121.979845 217.510066 
L 122.820668 217.312225 
L 123.364731 217.074816 
L 124.205554 216.956112 
L 124.700157 216.876975 
L 125.59044 216.797839 
L 126.777486 216.718703 
L 127.71723 216.362589 
L 128.063451 216.402157 
L 129.052656 215.68993 
L 129.745099 215.373385 
L 130.487002 215.373385 
L 131.278365 215.25468 
L 131.822428 215.175544 
L 132.31703 214.977703 
L 133.701916 215.215112 
L 134.69112 214.977703 
L 135.433024 214.977703 
L 135.630864 214.977703 
L 136.323307 214.62159 
L 137.361972 213.909362 
L 138.450097 213.869794 
L 139.192 213.830226 
L 140.280125 213.75109 
L 141.714471 213.711522 
L 143.69288 213.276272 
L 145.423987 212.722317 
L 146.907794 211.891386 
L 149.677566 211.614408 
L 150.864611 211.218727 
L 154.079525 210.981318 
L 156.156854 209.873409 
L 157.44282 209.438159 
L 158.234183 209.398591 
L 161.350177 209.477727 
L 163.081285 207.380614 
L 164.861852 207.182773 
L 168.373528 207.103637 
L 171.637902 206.984932 
L 172.181964 206.945364 
L 172.824947 206.747523 
L 173.814151 206.628819 
L 174.605515 206.787091 
L 177.029066 206.707955 
L 181.876167 206.035296 
L 182.815911 205.95616 
L 187.366251 205.441773 
L 188.404915 205.679182 
L 189.44358 205.679182 
L 191.125227 204.966955 
L 192.510113 205.006523 
L 193.845539 205.164796 
L 194.686363 204.21516 
L 197.406675 203.582069 
L 200.225907 203.463365 
L 201.610793 203.34466 
L 202.599997 203.34466 
L 203.836503 203.463365 
L 204.875167 203.423797 
L 206.111673 203.225956 
L 209.029826 202.47416 
L 210.563092 202.355456 
L 212.046899 202.315888 
L 213.580165 202.27632 
L 215.063972 202.236751 
L 216.597239 202.197183 
L 218.130505 202.118047 
L 219.564852 202.118047 
L 221.098118 201.959774 
L 222.581925 201.84107 
L 224.115192 201.801501 
L 225.598998 201.564092 
L 227.132265 201.445388 
L 228.665532 201.247547 
L 230.149338 200.891433 
L 231.682605 200.693593 
L 233.166411 200.456184 
L 234.699678 200.377047 
L 236.232945 200.10007 
L 237.617831 199.981365 
L 239.151097 199.902229 
L 240.634904 198.833888 
L 242.168171 198.517343 
L 243.651977 198.042525 
L 245.185244 197.963389 
L 246.718511 197.29073 
L 248.202317 197.053321 
L 249.735584 197.013753 
L 251.21939 196.538934 
L 252.752657 196.341094 
L 254.285924 196.341094 
L 255.67081 196.301525 
L 257.204076 196.103685 
L 258.687883 195.945412 
L 260.22115 195.589298 
L 261.704956 195.351889 
L 263.238223 195.074912 
L 264.771489 194.995776 
L 266.255296 194.67923 
L 267.788563 194.323117 
L 269.272369 194.04614 
L 270.805636 193.887867 
L 272.338903 193.650458 
L 273.723789 193.650458 
L 275.257055 193.452617 
L 276.740862 193.373481 
L 278.274129 193.967003 
L 279.757935 193.848299 
L 281.291202 193.690026 
L 282.824468 193.650458 
L 284.308275 193.61089 
L 285.841542 193.413049 
L 287.325348 193.413049 
L 288.858615 193.333912 
L 290.391882 193.136072 
L 291.826228 193.096503 
L 293.359495 193.017367 
L 294.843301 192.621685 
L 296.376568 192.621685 
L 297.860374 192.423844 
L 299.393641 191.988595 
L 300.926908 191.86989 
L 302.410714 191.790754 
L 303.943981 191.592913 
L 305.427787 191.474208 
L 306.961054 190.722413 
L 308.494321 190.643277 
L 309.879207 190.603708 
L 311.412474 190.326731 
L 312.89628 190.247595 
L 314.429547 190.208027 
L 315.913353 190.287163 
L 317.44662 190.920254 
L 318.979887 190.168459 
L 320.463693 189.891481 
L 321.99696 188.150482 
L 323.480766 187.992209 
L 325.014033 187.833936 
L 326.5473 187.794368 
L 327.932186 187.636095 
L 329.465453 187.477823 
L 330.949259 187.161277 
L 332.482526 187.003005 
L 333.966332 186.765596 
L 335.499599 186.646891 
L 337.032866 186.528187 
L 338.516672 186.528187 
L 340.049939 186.488618 
L 341.533745 186.409482 
L 343.067012 186.369914 
L 344.600279 186.330346 
L 345.985165 186.330346 
L 347.518432 186.290778 
L 349.002238 186.211641 
L 350.535505 186.132505 
L 352.019311 186.0138 
L 353.552578 185.776391 
L 355.085845 185.618119 
L 356.569651 185.538982 
L 358.102918 185.420278 
L 359.586724 185.420278 
L 361.119991 185.420278 
L 362.653258 185.341141 
L 364.087604 185.262005 
L 365.620871 185.143301 
L 367.104677 184.787187 
L 368.637944 184.708051 
L 370.12175 184.708051 
L 371.655017 184.628914 
L 373.188284 184.589346 
L 374.67209 184.431073 
L 376.205357 184.351937 
L 377.689164 184.193664 
L 379.22243 184.154096 
L 380.755697 183.718846 
L 382.140583 183.600142 
L 383.67385 183.085756 
L 385.157656 182.927483 
L 386.690923 182.927483 
L 388.174729 182.650506 
L 389.707996 182.452665 
L 391.241263 182.492233 
L 392.725069 182.254824 
L 394.258336 181.938279 
L 395.742143 181.740438 
L 397.275409 181.542597 
L 398.808676 181.542597 
L 400.193562 181.503029 
L 401.726829 181.542597 
L 403.210635 181.621733 
L 404.743902 181.542597 
L 406.227708 181.582165 
L 407.760975 181.582165 
L 409.294242 181.542597 
L 410.778048 181.542597 
L 412.311315 181.305188 
L 413.795122 181.186483 
L 415.328388 181.067779 
L 416.861655 181.107347 
L 418.246541 180.513824 
L 419.779808 180.157711 
L 421.263614 180.157711 
L 422.796881 180.039006 
L 424.280687 179.801597 
L 425.813954 179.326779 
L 427.347221 179.208075 
L 428.831027 179.168506 
L 430.364294 179.049802 
L 431.848101 178.812393 
L 433.381367 178.772825 
L 434.914634 178.65412 
L 436.34898 176.952689 
L 437.882247 176.873552 
L 439.366053 176.754848 
L 440.89932 176.636143 
L 442.383127 176.082189 
L 443.916393 175.211689 
L 445.44966 175.211689 
L 446.933467 174.97428 
L 448.466733 174.97428 
L 449.95054 174.736871 
L 449.95054 102.287546 
L 449.95054 102.287546 
L 448.466733 102.366682 
L 446.933467 102.485387 
L 445.44966 102.524955 
L 443.916393 102.762364 
L 442.383127 102.64366 
L 440.89932 102.604091 
L 439.366053 102.762364 
L 437.882247 102.8415 
L 436.34898 102.801932 
L 434.914634 103.078909 
L 433.381367 103.355887 
L 431.848101 103.355887 
L 430.364294 103.474591 
L 428.831027 103.632864 
L 427.347221 103.712 
L 425.813954 103.712 
L 424.280687 103.988977 
L 422.796881 104.226387 
L 421.263614 104.345091 
L 419.779808 104.345091 
L 418.246541 104.384659 
L 416.861655 104.542932 
L 415.328388 104.661636 
L 413.795122 104.740773 
L 412.311315 104.740773 
L 410.778048 104.780341 
L 409.294242 104.661636 
L 407.760975 104.701205 
L 406.227708 104.701205 
L 404.743902 104.899045 
L 403.210635 104.859477 
L 401.726829 104.859477 
L 400.193562 104.899045 
L 398.808676 104.978182 
L 397.275409 104.978182 
L 395.742143 105.096886 
L 394.258336 105.057318 
L 392.725069 105.176023 
L 391.241263 105.215591 
L 389.707996 105.255159 
L 388.174729 105.294727 
L 386.690923 105.334295 
L 385.157656 105.294727 
L 383.67385 105.413432 
L 382.140583 105.611273 
L 380.755697 105.769545 
L 379.22243 105.809113 
L 377.689164 105.809113 
L 376.205357 105.88825 
L 374.67209 105.927818 
L 373.188284 106.006954 
L 371.655017 106.006954 
L 370.12175 106.046522 
L 368.637944 106.086091 
L 367.104677 105.967386 
L 365.620871 105.927818 
L 364.087604 105.967386 
L 362.653258 105.88825 
L 361.119991 105.88825 
L 359.586724 105.88825 
L 358.102918 105.88825 
L 356.569651 105.88825 
L 355.085845 105.927818 
L 353.552578 105.88825 
L 352.019311 105.927818 
L 350.535505 105.927818 
L 349.002238 105.809113 
L 347.518432 105.809113 
L 345.985165 105.848682 
L 344.600279 105.848682 
L 343.067012 105.927818 
L 341.533745 105.927818 
L 340.049939 106.006954 
L 338.516672 106.006954 
L 337.032866 106.006954 
L 335.499599 106.046522 
L 333.966332 106.046522 
L 332.482526 106.046522 
L 330.949259 106.086091 
L 329.465453 106.125659 
L 327.932186 106.442204 
L 326.5473 106.560909 
L 325.014033 106.481772 
L 323.480766 106.560909 
L 321.99696 106.679613 
L 320.463693 106.719181 
L 318.979887 107.273136 
L 317.44662 107.589681 
L 315.913353 109.765931 
L 314.429547 110.992544 
L 312.89628 111.427794 
L 311.412474 111.427794 
L 309.879207 111.744339 
L 308.494321 111.665203 
L 306.961054 110.87384 
L 305.427787 111.07168 
L 303.943981 111.50693 
L 302.410714 111.50693 
L 300.926908 111.388226 
L 299.393641 111.546499 
L 297.860374 111.586067 
L 296.376568 111.586067 
L 294.843301 111.625635 
L 293.359495 111.704771 
L 291.826228 111.704771 
L 290.391882 111.744339 
L 288.858615 111.744339 
L 287.325348 111.863044 
L 285.841542 111.902612 
L 284.308275 111.94218 
L 282.824468 111.94218 
L 281.291202 111.902612 
L 279.757935 111.94218 
L 278.274129 111.902612 
L 276.740862 112.535703 
L 275.257055 112.496135 
L 273.723789 112.575271 
L 272.338903 112.654407 
L 270.805636 112.773112 
L 269.272369 112.733544 
L 267.788563 113.010521 
L 266.255296 113.129225 
L 264.771489 113.287498 
L 263.238223 113.485339 
L 261.704956 113.524907 
L 260.22115 113.445771 
L 258.687883 113.524907 
L 257.204076 113.564475 
L 255.67081 113.564475 
L 254.285924 113.564475 
L 252.752657 113.564475 
L 251.21939 113.722748 
L 249.735584 113.801884 
L 248.202317 114.039293 
L 246.718511 114.078862 
L 245.185244 114.316271 
L 243.651977 114.395407 
L 242.168171 114.632816 
L 240.634904 114.751521 
L 239.151097 114.909793 
L 237.617831 114.949361 
L 236.232945 114.98893 
L 234.699678 115.147202 
L 233.166411 115.147202 
L 231.682605 115.345043 
L 230.149338 115.62202 
L 228.665532 115.780293 
L 227.132265 115.938566 
L 225.598998 116.136407 
L 224.115192 116.215543 
L 222.581925 116.532088 
L 221.098118 116.532088 
L 219.564852 116.571657 
L 218.130505 116.571657 
L 216.597239 116.571657 
L 215.063972 116.571657 
L 213.580165 116.571657 
L 212.046899 116.611225 
L 210.563092 116.769497 
L 209.029826 116.848634 
L 206.111673 117.323452 
L 204.875167 117.916974 
L 203.836503 118.193952 
L 202.599997 117.639997 
L 201.610793 117.956543 
L 200.225907 118.075247 
L 197.406675 118.23352 
L 194.686363 118.23352 
L 193.845539 118.391792 
L 192.510113 118.906179 
L 191.125227 118.866611 
L 189.44358 119.776679 
L 188.404915 119.776679 
L 187.366251 120.211928 
L 182.815911 120.488906 
L 181.876167 120.568042 
L 177.029066 121.675951 
L 174.605515 122.665155 
L 173.814151 122.704723 
L 172.824947 122.704723 
L 172.181964 122.704723 
L 171.637902 122.744292 
L 168.373528 122.309042 
L 164.861852 122.823428 
L 163.081285 123.021269 
L 161.350177 123.21911 
L 158.234183 123.337814 
L 157.44282 123.41695 
L 156.156854 123.614791 
L 154.079525 123.931337 
L 150.864611 123.773064 
L 149.677566 124.089609 
L 146.907794 124.050041 
L 145.423987 123.970905 
L 143.69288 124.327018 
L 141.714471 124.247882 
L 140.280125 124.129178 
L 139.192 124.406155 
L 138.450097 124.445723 
L 137.361972 123.693928 
L 136.323307 123.733496 
L 135.630864 123.891769 
L 135.433024 123.891769 
L 134.69112 123.8522 
L 133.701916 124.366587 
L 132.31703 123.812632 
L 131.822428 123.812632 
L 131.278365 123.8522 
L 130.487002 123.891769 
L 129.745099 123.693928 
L 129.052656 124.129178 
L 128.063451 124.247882 
L 127.71723 124.010473 
L 126.777486 124.168746 
L 125.59044 124.129178 
L 124.700157 124.643564 
L 124.205554 124.564427 
L 123.364731 124.564427 
L 122.820668 122.78386 
L 121.979845 123.179541 
L 121.287402 122.190337 
L 120.446578 121.952928 
L 117.182204 122.229905 
L 116.934903 122.071633 
L 114.956494 122.34861 
L 110.653455 124.129178 
L 108.328825 124.999677 
L 99.327066 127.096791 
L 84.835222 130.103972 
L 65.150056 133.942085 
L 48.185202 140.075151 
L 39.925346 143.952832 
L 31.566569 144.269378 
z
" clip-path="url(#p8923913e2f)" style="fill: #fdc92c"/>
   </g>
   <g id="PolyCollection_3">
    <path d="M 31.566569 113.089657 
L 31.566569 144.269378 
L 39.925346 143.952832 
L 48.185202 140.075151 
L 65.150056 133.942085 
L 84.835222 130.103972 
L 99.327066 127.096791 
L 108.328825 124.999677 
L 110.653455 124.129178 
L 114.956494 122.34861 
L 116.934903 122.071633 
L 117.182204 122.229905 
L 120.446578 121.952928 
L 121.287402 122.190337 
L 121.979845 123.179541 
L 122.820668 122.78386 
L 123.364731 124.564427 
L 124.205554 124.564427 
L 124.700157 124.643564 
L 125.59044 124.129178 
L 126.777486 124.168746 
L 127.71723 124.010473 
L 128.063451 124.247882 
L 129.052656 124.129178 
L 129.745099 123.693928 
L 130.487002 123.891769 
L 131.278365 123.8522 
L 131.822428 123.812632 
L 132.31703 123.812632 
L 133.701916 124.366587 
L 134.69112 123.8522 
L 135.433024 123.891769 
L 135.630864 123.891769 
L 136.323307 123.733496 
L 137.361972 123.693928 
L 138.450097 124.445723 
L 139.192 124.406155 
L 140.280125 124.129178 
L 141.714471 124.247882 
L 143.69288 124.327018 
L 145.423987 123.970905 
L 146.907794 124.050041 
L 149.677566 124.089609 
L 150.864611 123.773064 
L 154.079525 123.931337 
L 156.156854 123.614791 
L 157.44282 123.41695 
L 158.234183 123.337814 
L 161.350177 123.21911 
L 163.081285 123.021269 
L 164.861852 122.823428 
L 168.373528 122.309042 
L 171.637902 122.744292 
L 172.181964 122.704723 
L 172.824947 122.704723 
L 173.814151 122.704723 
L 174.605515 122.665155 
L 177.029066 121.675951 
L 181.876167 120.568042 
L 182.815911 120.488906 
L 187.366251 120.211928 
L 188.404915 119.776679 
L 189.44358 119.776679 
L 191.125227 118.866611 
L 192.510113 118.906179 
L 193.845539 118.391792 
L 194.686363 118.23352 
L 197.406675 118.23352 
L 200.225907 118.075247 
L 201.610793 117.956543 
L 202.599997 117.639997 
L 203.836503 118.193952 
L 204.875167 117.916974 
L 206.111673 117.323452 
L 209.029826 116.848634 
L 210.563092 116.769497 
L 212.046899 116.611225 
L 213.580165 116.571657 
L 215.063972 116.571657 
L 216.597239 116.571657 
L 218.130505 116.571657 
L 219.564852 116.571657 
L 221.098118 116.532088 
L 222.581925 116.532088 
L 224.115192 116.215543 
L 225.598998 116.136407 
L 227.132265 115.938566 
L 228.665532 115.780293 
L 230.149338 115.62202 
L 231.682605 115.345043 
L 233.166411 115.147202 
L 234.699678 115.147202 
L 236.232945 114.98893 
L 237.617831 114.949361 
L 239.151097 114.909793 
L 240.634904 114.751521 
L 242.168171 114.632816 
L 243.651977 114.395407 
L 245.185244 114.316271 
L 246.718511 114.078862 
L 248.202317 114.039293 
L 249.735584 113.801884 
L 251.21939 113.722748 
L 252.752657 113.564475 
L 254.285924 113.564475 
L 255.67081 113.564475 
L 257.204076 113.564475 
L 258.687883 113.524907 
L 260.22115 113.445771 
L 261.704956 113.524907 
L 263.238223 113.485339 
L 264.771489 113.287498 
L 266.255296 113.129225 
L 267.788563 113.010521 
L 269.272369 112.733544 
L 270.805636 112.773112 
L 272.338903 112.654407 
L 273.723789 112.575271 
L 275.257055 112.496135 
L 276.740862 112.535703 
L 278.274129 111.902612 
L 279.757935 111.94218 
L 281.291202 111.902612 
L 282.824468 111.94218 
L 284.308275 111.94218 
L 285.841542 111.902612 
L 287.325348 111.863044 
L 288.858615 111.744339 
L 290.391882 111.744339 
L 291.826228 111.704771 
L 293.359495 111.704771 
L 294.843301 111.625635 
L 296.376568 111.586067 
L 297.860374 111.586067 
L 299.393641 111.546499 
L 300.926908 111.388226 
L 302.410714 111.50693 
L 303.943981 111.50693 
L 305.427787 111.07168 
L 306.961054 110.87384 
L 308.494321 111.665203 
L 309.879207 111.744339 
L 311.412474 111.427794 
L 312.89628 111.427794 
L 314.429547 110.992544 
L 315.913353 109.765931 
L 317.44662 107.589681 
L 318.979887 107.273136 
L 320.463693 106.719181 
L 321.99696 106.679613 
L 323.480766 106.560909 
L 325.014033 106.481772 
L 326.5473 106.560909 
L 327.932186 106.442204 
L 329.465453 106.125659 
L 330.949259 106.086091 
L 332.482526 106.046522 
L 333.966332 106.046522 
L 335.499599 106.046522 
L 337.032866 106.006954 
L 338.516672 106.006954 
L 340.049939 106.006954 
L 341.533745 105.927818 
L 343.067012 105.927818 
L 344.600279 105.848682 
L 345.985165 105.848682 
L 347.518432 105.809113 
L 349.002238 105.809113 
L 350.535505 105.927818 
L 352.019311 105.927818 
L 353.552578 105.88825 
L 355.085845 105.927818 
L 356.569651 105.88825 
L 358.102918 105.88825 
L 359.586724 105.88825 
L 361.119991 105.88825 
L 362.653258 105.88825 
L 364.087604 105.967386 
L 365.620871 105.927818 
L 367.104677 105.967386 
L 368.637944 106.086091 
L 370.12175 106.046522 
L 371.655017 106.006954 
L 373.188284 106.006954 
L 374.67209 105.927818 
L 376.205357 105.88825 
L 377.689164 105.809113 
L 379.22243 105.809113 
L 380.755697 105.769545 
L 382.140583 105.611273 
L 383.67385 105.413432 
L 385.157656 105.294727 
L 386.690923 105.334295 
L 388.174729 105.294727 
L 389.707996 105.255159 
L 391.241263 105.215591 
L 392.725069 105.176023 
L 394.258336 105.057318 
L 395.742143 105.096886 
L 397.275409 104.978182 
L 398.808676 104.978182 
L 400.193562 104.899045 
L 401.726829 104.859477 
L 403.210635 104.859477 
L 404.743902 104.899045 
L 406.227708 104.701205 
L 407.760975 104.701205 
L 409.294242 104.661636 
L 410.778048 104.780341 
L 412.311315 104.740773 
L 413.795122 104.740773 
L 415.328388 104.661636 
L 416.861655 104.542932 
L 418.246541 104.384659 
L 419.779808 104.345091 
L 421.263614 104.345091 
L 422.796881 104.226387 
L 424.280687 103.988977 
L 425.813954 103.712 
L 427.347221 103.712 
L 428.831027 103.632864 
L 430.364294 103.474591 
L 431.848101 103.355887 
L 433.381367 103.355887 
L 434.914634 103.078909 
L 436.34898 102.801932 
L 437.882247 102.8415 
L 439.366053 102.762364 
L 440.89932 102.604091 
L 442.383127 102.64366 
L 443.916393 102.762364 
L 445.44966 102.524955 
L 446.933467 102.485387 
L 448.466733 102.366682 
L 449.95054 102.287546 
L 449.95054 88.636526 
L 449.95054 88.636526 
L 448.466733 88.636526 
L 446.933467 88.636526 
L 445.44966 88.596958 
L 443.916393 88.953072 
L 442.383127 89.190481 
L 440.89932 89.190481 
L 439.366053 89.230049 
L 437.882247 89.230049 
L 436.34898 89.230049 
L 434.914634 89.269617 
L 433.381367 89.269617 
L 431.848101 89.269617 
L 430.364294 89.309185 
L 428.831027 89.309185 
L 427.347221 89.309185 
L 425.813954 89.309185 
L 424.280687 89.388322 
L 422.796881 89.388322 
L 421.263614 89.388322 
L 419.779808 89.388322 
L 418.246541 89.388322 
L 416.861655 89.42789 
L 415.328388 89.42789 
L 413.795122 89.507026 
L 412.311315 89.507026 
L 410.778048 89.546594 
L 409.294242 89.546594 
L 407.760975 89.546594 
L 406.227708 89.546594 
L 404.743902 89.625731 
L 403.210635 89.704867 
L 401.726829 89.704867 
L 400.193562 89.704867 
L 398.808676 89.704867 
L 397.275409 89.704867 
L 395.742143 89.744435 
L 394.258336 89.704867 
L 392.725069 89.784003 
L 391.241263 89.784003 
L 389.707996 89.784003 
L 388.174729 89.823571 
L 386.690923 89.823571 
L 385.157656 89.823571 
L 383.67385 89.86314 
L 382.140583 89.902708 
L 380.755697 89.942276 
L 379.22243 89.942276 
L 377.689164 89.902708 
L 376.205357 89.902708 
L 374.67209 89.902708 
L 373.188284 89.86314 
L 371.655017 89.86314 
L 370.12175 89.902708 
L 368.637944 89.902708 
L 367.104677 89.823571 
L 365.620871 89.784003 
L 364.087604 89.784003 
L 362.653258 89.823571 
L 361.119991 89.823571 
L 359.586724 89.823571 
L 358.102918 89.823571 
L 356.569651 89.823571 
L 355.085845 89.823571 
L 353.552578 89.823571 
L 352.019311 89.823571 
L 350.535505 89.823571 
L 349.002238 89.744435 
L 347.518432 89.744435 
L 345.985165 89.744435 
L 344.600279 89.744435 
L 343.067012 89.704867 
L 341.533745 89.704867 
L 340.049939 89.784003 
L 338.516672 89.784003 
L 337.032866 89.784003 
L 335.499599 89.823571 
L 333.966332 89.823571 
L 332.482526 89.823571 
L 330.949259 89.86314 
L 329.465453 89.902708 
L 327.932186 89.981844 
L 326.5473 89.981844 
L 325.014033 89.981844 
L 323.480766 90.140117 
L 321.99696 90.140117 
L 320.463693 90.140117 
L 318.979887 90.021412 
L 317.44662 90.060981 
L 315.913353 90.258821 
L 314.429547 91.208458 
L 312.89628 91.36673 
L 311.412474 91.406298 
L 309.879207 91.445867 
L 308.494321 91.445867 
L 306.961054 91.445867 
L 305.427787 91.445867 
L 303.943981 91.485435 
L 302.410714 91.485435 
L 300.926908 91.525003 
L 299.393641 91.564571 
L 297.860374 91.604139 
L 296.376568 91.604139 
L 294.843301 91.604139 
L 293.359495 91.604139 
L 291.826228 91.604139 
L 290.391882 91.643707 
L 288.858615 91.643707 
L 287.325348 91.683276 
L 285.841542 91.722844 
L 284.308275 91.722844 
L 282.824468 91.722844 
L 281.291202 91.722844 
L 279.757935 91.722844 
L 278.274129 91.722844 
L 276.740862 91.722844 
L 275.257055 91.722844 
L 273.723789 91.80198 
L 272.338903 91.80198 
L 270.805636 91.80198 
L 269.272369 91.841548 
L 267.788563 91.841548 
L 266.255296 91.881116 
L 264.771489 92.039389 
L 263.238223 92.989025 
L 261.704956 92.989025 
L 260.22115 92.989025 
L 258.687883 93.068162 
L 257.204076 93.068162 
L 255.67081 93.068162 
L 254.285924 93.068162 
L 252.752657 93.068162 
L 251.21939 93.068162 
L 249.735584 93.147298 
L 248.202317 93.068162 
L 246.718511 93.10773 
L 245.185244 93.186866 
L 243.651977 93.266003 
L 242.168171 93.463843 
L 240.634904 93.503412 
L 239.151097 93.503412 
L 237.617831 93.503412 
L 236.232945 93.503412 
L 234.699678 93.582548 
L 233.166411 93.582548 
L 231.682605 93.661684 
L 230.149338 93.661684 
L 228.665532 93.54298 
L 227.132265 93.622116 
L 225.598998 93.622116 
L 224.115192 93.622116 
L 222.581925 93.661684 
L 221.098118 93.661684 
L 219.564852 93.661684 
L 218.130505 93.701252 
L 216.597239 93.701252 
L 215.063972 93.740821 
L 213.580165 93.701252 
L 212.046899 93.701252 
L 210.563092 93.780389 
L 209.029826 93.819957 
L 206.111673 94.096934 
L 204.875167 94.690457 
L 203.836503 94.967434 
L 202.599997 94.334343 
L 201.610793 94.848729 
L 200.225907 94.888298 
L 197.406675 95.798366 
L 194.686363 95.798366 
L 193.845539 95.758797 
L 192.510113 95.91707 
L 191.125227 95.91707 
L 189.44358 95.996206 
L 188.404915 95.996206 
L 187.366251 96.035775 
L 182.815911 96.194047 
L 181.876167 96.194047 
L 177.029066 97.22282 
L 174.605515 97.341524 
L 173.814151 97.381093 
L 172.824947 97.499797 
L 172.181964 97.499797 
L 171.637902 97.499797 
L 168.373528 97.499797 
L 164.861852 97.737206 
L 163.081285 97.855911 
L 161.350177 97.895479 
L 158.234183 97.974615 
L 157.44282 98.09332 
L 156.156854 98.291161 
L 154.079525 98.52857 
L 150.864611 98.686842 
L 149.677566 99.319933 
L 146.907794 99.359501 
L 145.423987 99.636478 
L 143.69288 99.953024 
L 141.714471 100.03216 
L 140.280125 100.03216 
L 139.192 100.03216 
L 138.450097 100.03216 
L 137.361972 100.190433 
L 136.323307 100.348706 
L 135.630864 100.46741 
L 135.433024 100.46741 
L 134.69112 100.427842 
L 133.701916 100.981796 
L 132.31703 100.506978 
L 131.822428 100.506978 
L 131.278365 100.586115 
L 130.487002 100.586115 
L 129.745099 100.586115 
L 129.052656 101.179637 
L 128.063451 101.179637 
L 127.71723 100.704819 
L 126.777486 101.298342 
L 125.59044 102.406251 
L 124.700157 103.316319 
L 124.205554 103.355887 
L 123.364731 103.355887 
L 122.820668 103.395455 
L 121.979845 103.988977 
L 121.287402 103.435023 
L 120.446578 103.435023 
L 117.182204 103.712 
L 116.934903 103.751568 
L 114.956494 103.791137 
L 110.653455 101.179637 
L 108.328825 103.949409 
L 99.327066 105.848682 
L 84.835222 107.787522 
L 65.150056 109.13284 
L 48.185202 111.150817 
L 39.925346 113.524907 
L 31.566569 113.089657 
z
" clip-path="url(#p8923913e2f)" style="fill: #aeaeae"/>
   </g>
   <g id="PolyCollection_4">
    <path d="M 31.566569 89.071776 
L 31.566569 113.089657 
L 39.925346 113.524907 
L 48.185202 111.150817 
L 65.150056 109.13284 
L 84.835222 107.787522 
L 99.327066 105.848682 
L 108.328825 103.949409 
L 110.653455 101.179637 
L 114.956494 103.791137 
L 116.934903 103.751568 
L 117.182204 103.712 
L 120.446578 103.435023 
L 121.287402 103.435023 
L 121.979845 103.988977 
L 122.820668 103.395455 
L 123.364731 103.355887 
L 124.205554 103.355887 
L 124.700157 103.316319 
L 125.59044 102.406251 
L 126.777486 101.298342 
L 127.71723 100.704819 
L 128.063451 101.179637 
L 129.052656 101.179637 
L 129.745099 100.586115 
L 130.487002 100.586115 
L 131.278365 100.586115 
L 131.822428 100.506978 
L 132.31703 100.506978 
L 133.701916 100.981796 
L 134.69112 100.427842 
L 135.433024 100.46741 
L 135.630864 100.46741 
L 136.323307 100.348706 
L 137.361972 100.190433 
L 138.450097 100.03216 
L 139.192 100.03216 
L 140.280125 100.03216 
L 141.714471 100.03216 
L 143.69288 99.953024 
L 145.423987 99.636478 
L 146.907794 99.359501 
L 149.677566 99.319933 
L 150.864611 98.686842 
L 154.079525 98.52857 
L 156.156854 98.291161 
L 157.44282 98.09332 
L 158.234183 97.974615 
L 161.350177 97.895479 
L 163.081285 97.855911 
L 164.861852 97.737206 
L 168.373528 97.499797 
L 171.637902 97.499797 
L 172.181964 97.499797 
L 172.824947 97.499797 
L 173.814151 97.381093 
L 174.605515 97.341524 
L 177.029066 97.22282 
L 181.876167 96.194047 
L 182.815911 96.194047 
L 187.366251 96.035775 
L 188.404915 95.996206 
L 189.44358 95.996206 
L 191.125227 95.91707 
L 192.510113 95.91707 
L 193.845539 95.758797 
L 194.686363 95.798366 
L 197.406675 95.798366 
L 200.225907 94.888298 
L 201.610793 94.848729 
L 202.599997 94.334343 
L 203.836503 94.967434 
L 204.875167 94.690457 
L 206.111673 94.096934 
L 209.029826 93.819957 
L 210.563092 93.780389 
L 212.046899 93.701252 
L 213.580165 93.701252 
L 215.063972 93.740821 
L 216.597239 93.701252 
L 218.130505 93.701252 
L 219.564852 93.661684 
L 221.098118 93.661684 
L 222.581925 93.661684 
L 224.115192 93.622116 
L 225.598998 93.622116 
L 227.132265 93.622116 
L 228.665532 93.54298 
L 230.149338 93.661684 
L 231.682605 93.661684 
L 233.166411 93.582548 
L 234.699678 93.582548 
L 236.232945 93.503412 
L 237.617831 93.503412 
L 239.151097 93.503412 
L 240.634904 93.503412 
L 242.168171 93.463843 
L 243.651977 93.266003 
L 245.185244 93.186866 
L 246.718511 93.10773 
L 248.202317 93.068162 
L 249.735584 93.147298 
L 251.21939 93.068162 
L 252.752657 93.068162 
L 254.285924 93.068162 
L 255.67081 93.068162 
L 257.204076 93.068162 
L 258.687883 93.068162 
L 260.22115 92.989025 
L 261.704956 92.989025 
L 263.238223 92.989025 
L 264.771489 92.039389 
L 266.255296 91.881116 
L 267.788563 91.841548 
L 269.272369 91.841548 
L 270.805636 91.80198 
L 272.338903 91.80198 
L 273.723789 91.80198 
L 275.257055 91.722844 
L 276.740862 91.722844 
L 278.274129 91.722844 
L 279.757935 91.722844 
L 281.291202 91.722844 
L 282.824468 91.722844 
L 284.308275 91.722844 
L 285.841542 91.722844 
L 287.325348 91.683276 
L 288.858615 91.643707 
L 290.391882 91.643707 
L 291.826228 91.604139 
L 293.359495 91.604139 
L 294.843301 91.604139 
L 296.376568 91.604139 
L 297.860374 91.604139 
L 299.393641 91.564571 
L 300.926908 91.525003 
L 302.410714 91.485435 
L 303.943981 91.485435 
L 305.427787 91.445867 
L 306.961054 91.445867 
L 308.494321 91.445867 
L 309.879207 91.445867 
L 311.412474 91.406298 
L 312.89628 91.36673 
L 314.429547 91.208458 
L 315.913353 90.258821 
L 317.44662 90.060981 
L 318.979887 90.021412 
L 320.463693 90.140117 
L 321.99696 90.140117 
L 323.480766 90.140117 
L 325.014033 89.981844 
L 326.5473 89.981844 
L 327.932186 89.981844 
L 329.465453 89.902708 
L 330.949259 89.86314 
L 332.482526 89.823571 
L 333.966332 89.823571 
L 335.499599 89.823571 
L 337.032866 89.784003 
L 338.516672 89.784003 
L 340.049939 89.784003 
L 341.533745 89.704867 
L 343.067012 89.704867 
L 344.600279 89.744435 
L 345.985165 89.744435 
L 347.518432 89.744435 
L 349.002238 89.744435 
L 350.535505 89.823571 
L 352.019311 89.823571 
L 353.552578 89.823571 
L 355.085845 89.823571 
L 356.569651 89.823571 
L 358.102918 89.823571 
L 359.586724 89.823571 
L 361.119991 89.823571 
L 362.653258 89.823571 
L 364.087604 89.784003 
L 365.620871 89.784003 
L 367.104677 89.823571 
L 368.637944 89.902708 
L 370.12175 89.902708 
L 371.655017 89.86314 
L 373.188284 89.86314 
L 374.67209 89.902708 
L 376.205357 89.902708 
L 377.689164 89.902708 
L 379.22243 89.942276 
L 380.755697 89.942276 
L 382.140583 89.902708 
L 383.67385 89.86314 
L 385.157656 89.823571 
L 386.690923 89.823571 
L 388.174729 89.823571 
L 389.707996 89.784003 
L 391.241263 89.784003 
L 392.725069 89.784003 
L 394.258336 89.704867 
L 395.742143 89.744435 
L 397.275409 89.704867 
L 398.808676 89.704867 
L 400.193562 89.704867 
L 401.726829 89.704867 
L 403.210635 89.704867 
L 404.743902 89.625731 
L 406.227708 89.546594 
L 407.760975 89.546594 
L 409.294242 89.546594 
L 410.778048 89.546594 
L 412.311315 89.507026 
L 413.795122 89.507026 
L 415.328388 89.42789 
L 416.861655 89.42789 
L 418.246541 89.388322 
L 419.779808 89.388322 
L 421.263614 89.388322 
L 422.796881 89.388322 
L 424.280687 89.388322 
L 425.813954 89.309185 
L 427.347221 89.309185 
L 428.831027 89.309185 
L 430.364294 89.309185 
L 431.848101 89.269617 
L 433.381367 89.269617 
L 434.914634 89.269617 
L 436.34898 89.230049 
L 437.882247 89.230049 
L 439.366053 89.230049 
L 440.89932 89.190481 
L 442.383127 89.190481 
L 443.916393 88.953072 
L 445.44966 88.596958 
L 446.933467 88.636526 
L 448.466733 88.636526 
L 449.95054 88.636526 
L 449.95054 78.902756 
L 449.95054 78.902756 
L 448.466733 78.902756 
L 446.933467 78.942324 
L 445.44966 78.942324 
L 443.916393 78.942324 
L 442.383127 78.981892 
L 440.89932 78.981892 
L 439.366053 78.981892 
L 437.882247 78.981892 
L 436.34898 78.981892 
L 434.914634 78.981892 
L 433.381367 78.981892 
L 431.848101 78.981892 
L 430.364294 78.981892 
L 428.831027 78.981892 
L 427.347221 78.981892 
L 425.813954 78.981892 
L 424.280687 78.981892 
L 422.796881 78.981892 
L 421.263614 78.981892 
L 419.779808 78.981892 
L 418.246541 78.981892 
L 416.861655 79.179733 
L 415.328388 79.219301 
L 413.795122 79.258869 
L 412.311315 79.258869 
L 410.778048 79.258869 
L 409.294242 79.258869 
L 407.760975 79.258869 
L 406.227708 79.258869 
L 404.743902 79.258869 
L 403.210635 79.258869 
L 401.726829 79.258869 
L 400.193562 79.298437 
L 398.808676 79.258869 
L 397.275409 79.258869 
L 395.742143 79.298437 
L 394.258336 79.02146 
L 392.725069 79.02146 
L 391.241263 78.665347 
L 389.707996 78.665347 
L 388.174729 78.665347 
L 386.690923 78.665347 
L 385.157656 78.665347 
L 383.67385 78.665347 
L 382.140583 78.704915 
L 380.755697 78.704915 
L 379.22243 78.704915 
L 377.689164 78.665347 
L 376.205357 78.665347 
L 374.67209 78.665347 
L 373.188284 78.704915 
L 371.655017 78.704915 
L 370.12175 78.704915 
L 368.637944 78.704915 
L 367.104677 78.625778 
L 365.620871 78.58621 
L 364.087604 78.58621 
L 362.653258 78.58621 
L 361.119991 78.58621 
L 359.586724 78.58621 
L 358.102918 78.58621 
L 356.569651 78.58621 
L 355.085845 78.58621 
L 353.552578 78.58621 
L 352.019311 78.58621 
L 350.535505 78.58621 
L 349.002238 78.507074 
L 347.518432 78.507074 
L 345.985165 78.507074 
L 344.600279 78.507074 
L 343.067012 78.507074 
L 341.533745 78.507074 
L 340.049939 78.507074 
L 338.516672 78.507074 
L 337.032866 78.507074 
L 335.499599 78.467506 
L 333.966332 78.467506 
L 332.482526 78.467506 
L 330.949259 78.467506 
L 329.465453 78.467506 
L 327.932186 78.467506 
L 326.5473 78.467506 
L 325.014033 78.467506 
L 323.480766 78.467506 
L 321.99696 78.467506 
L 320.463693 78.467506 
L 318.979887 78.467506 
L 317.44662 78.467506 
L 315.913353 78.467506 
L 314.429547 78.467506 
L 312.89628 78.467506 
L 311.412474 78.467506 
L 309.879207 78.467506 
L 308.494321 78.467506 
L 306.961054 78.467506 
L 305.427787 78.467506 
L 303.943981 78.467506 
L 302.410714 78.467506 
L 300.926908 78.467506 
L 299.393641 78.467506 
L 297.860374 78.467506 
L 296.376568 78.467506 
L 294.843301 78.467506 
L 293.359495 78.467506 
L 291.826228 78.823619 
L 290.391882 78.863188 
L 288.858615 78.863188 
L 287.325348 78.863188 
L 285.841542 79.02146 
L 284.308275 79.02146 
L 282.824468 79.02146 
L 281.291202 79.02146 
L 279.757935 79.02146 
L 278.274129 79.02146 
L 276.740862 79.02146 
L 275.257055 79.02146 
L 273.723789 79.02146 
L 272.338903 79.02146 
L 270.805636 79.02146 
L 269.272369 79.061028 
L 267.788563 79.061028 
L 266.255296 79.061028 
L 264.771489 79.061028 
L 263.238223 78.784051 
L 261.704956 78.942324 
L 260.22115 78.902756 
L 258.687883 78.902756 
L 257.204076 78.902756 
L 255.67081 78.902756 
L 254.285924 78.902756 
L 252.752657 78.902756 
L 251.21939 78.902756 
L 249.735584 78.942324 
L 248.202317 78.942324 
L 246.718511 78.942324 
L 245.185244 78.902756 
L 243.651977 78.902756 
L 242.168171 78.902756 
L 240.634904 78.902756 
L 239.151097 78.902756 
L 237.617831 78.902756 
L 236.232945 78.902756 
L 234.699678 78.902756 
L 233.166411 78.902756 
L 231.682605 78.902756 
L 230.149338 78.942324 
L 228.665532 78.902756 
L 227.132265 78.942324 
L 225.598998 78.902756 
L 224.115192 78.902756 
L 222.581925 78.902756 
L 221.098118 78.902756 
L 219.564852 78.902756 
L 218.130505 78.902756 
L 216.597239 78.942324 
L 215.063972 78.942324 
L 213.580165 78.902756 
L 212.046899 78.902756 
L 210.563092 78.902756 
L 209.029826 78.981892 
L 206.111673 79.258869 
L 204.875167 79.931528 
L 203.836503 80.010665 
L 202.599997 79.377574 
L 201.610793 80.920733 
L 200.225907 80.920733 
L 197.406675 82.345187 
L 194.686363 82.345187 
L 193.845539 82.305619 
L 192.510113 82.463891 
L 191.125227 82.424323 
L 189.44358 82.424323 
L 188.404915 82.424323 
L 187.366251 82.424323 
L 182.815911 82.740868 
L 181.876167 82.740868 
L 177.029066 82.938709 
L 174.605515 82.899141 
L 173.814151 82.899141 
L 172.824947 82.978278 
L 172.181964 82.978278 
L 171.637902 82.978278 
L 168.373528 83.532232 
L 164.861852 83.650936 
L 163.081285 83.650936 
L 161.350177 83.650936 
L 158.234183 83.650936 
L 157.44282 83.611368 
L 156.156854 83.611368 
L 154.079525 83.492664 
L 150.864611 83.453096 
L 149.677566 84.481868 
L 146.907794 84.600573 
L 145.423987 84.719277 
L 143.69288 84.600573 
L 141.714471 84.600573 
L 140.280125 84.561004 
L 139.192 84.561004 
L 138.450097 84.561004 
L 137.361972 84.521436 
L 136.323307 84.521436 
L 135.630864 84.561004 
L 135.433024 84.561004 
L 134.69112 84.561004 
L 133.701916 84.996254 
L 132.31703 84.561004 
L 131.822428 84.561004 
L 131.278365 84.600573 
L 130.487002 84.521436 
L 129.745099 84.521436 
L 129.052656 84.917118 
L 128.063451 84.837982 
L 127.71723 84.402732 
L 126.777486 84.956686 
L 125.59044 84.798413 
L 124.700157 84.837982 
L 124.205554 84.837982 
L 123.364731 84.837982 
L 122.820668 84.87755 
L 121.979845 85.391936 
L 121.287402 84.837982 
L 120.446578 84.837982 
L 117.182204 85.827186 
L 116.934903 85.866754 
L 114.956494 85.827186 
L 110.653455 84.917118 
L 108.328825 85.827186 
L 99.327066 86.618549 
L 84.835222 87.053799 
L 65.150056 87.766026 
L 48.185202 88.201276 
L 39.925346 89.230049 
L 31.566569 89.071776 
z
" clip-path="url(#p8923913e2f)" style="fill: #d5dce5"/>
   </g>
   <g id="matplotlib.axis_1">
    <g id="xtick_1">
     <g id="line2d_1">
      <defs>
       <path id="m7673910183" d="M 0 0 
L 0 3.5 
" style="stroke: #000000; stroke-width: 0.8"/>
      </defs>
      <g>
       <use xlink:href="#m7673910183" x="72.074486" y="279.078144" style="stroke: #000000; stroke-width: 0.8"/>
      </g>
     </g>
     <g id="text_1">
      <!-- 2004 -->
      <g transform="translate(59.349486 293.676581) scale(0.1 -0.1)">
       <defs>
        <path id="DejaVuSans-32" d="M 1228 531 
L 3431 531 
L 3431 0 
L 469 0 
L 469 531 
Q 828 903 1448 1529 
Q 2069 2156 2228 2338 
Q 2531 2678 2651 2914 
Q 2772 3150 2772 3378 
Q 2772 3750 2511 3984 
Q 2250 4219 1831 4219 
Q 1534 4219 1204 4116 
Q 875 4013 500 3803 
L 500 4441 
Q 881 4594 1212 4672 
Q 1544 4750 1819 4750 
Q 2544 4750 2975 4387 
Q 3406 4025 3406 3419 
Q 3406 3131 3298 2873 
Q 3191 2616 2906 2266 
Q 2828 2175 2409 1742 
Q 1991 1309 1228 531 
z
" transform="scale(0.015625)"/>
        <path id="DejaVuSans-30" d="M 2034 4250 
Q 1547 4250 1301 3770 
Q 1056 3291 1056 2328 
Q 1056 1369 1301 889 
Q 1547 409 2034 409 
Q 2525 409 2770 889 
Q 3016 1369 3016 2328 
Q 3016 3291 2770 3770 
Q 2525 4250 2034 4250 
z
M 2034 4750 
Q 2819 4750 3233 4129 
Q 3647 3509 3647 2328 
Q 3647 1150 3233 529 
Q 2819 -91 2034 -91 
Q 1250 -91 836 529 
Q 422 1150 422 2328 
Q 422 3509 836 4129 
Q 1250 4750 2034 4750 
z
" transform="scale(0.015625)"/>
        <path id="DejaVuSans-34" d="M 2419 4116 
L 825 1625 
L 2419 1625 
L 2419 4116 
z
M 2253 4666 
L 3047 4666 
L 3047 1625 
L 3713 1625 
L 3713 1100 
L 3047 1100 
L 3047 0 
L 2419 0 
L 2419 1100 
L 313 1100 
L 313 1709 
L 2253 4666 
z
" transform="scale(0.015625)"/>
       </defs>
       <use xlink:href="#DejaVuSans-32"/>
       <use xlink:href="#DejaVuSans-30" x="63.623047"/>
       <use xlink:href="#DejaVuSans-30" x="127.246094"/>
       <use xlink:href="#DejaVuSans-34" x="190.869141"/>
      </g>
     </g>
    </g>
    <g id="xtick_2">
     <g id="line2d_2">
      <g>
       <use xlink:href="#m7673910183" x="144.335863" y="279.078144" style="stroke: #000000; stroke-width: 0.8"/>
      </g>
     </g>
     <g id="text_2">
      <!-- 2008 -->
      <g transform="translate(131.610863 293.676581) scale(0.1 -0.1)">
       <defs>
        <path id="DejaVuSans-38" d="M 2034 2216 
Q 1584 2216 1326 1975 
Q 1069 1734 1069 1313 
Q 1069 891 1326 650 
Q 1584 409 2034 409 
Q 2484 409 2743 651 
Q 3003 894 3003 1313 
Q 3003 1734 2745 1975 
Q 2488 2216 2034 2216 
z
M 1403 2484 
Q 997 2584 770 2862 
Q 544 3141 544 3541 
Q 544 4100 942 4425 
Q 1341 4750 2034 4750 
Q 2731 4750 3128 4425 
Q 3525 4100 3525 3541 
Q 3525 3141 3298 2862 
Q 3072 2584 2669 2484 
Q 3125 2378 3379 2068 
Q 3634 1759 3634 1313 
Q 3634 634 3220 271 
Q 2806 -91 2034 -91 
Q 1263 -91 848 271 
Q 434 634 434 1313 
Q 434 1759 690 2068 
Q 947 2378 1403 2484 
z
M 1172 3481 
Q 1172 3119 1398 2916 
Q 1625 2713 2034 2713 
Q 2441 2713 2670 2916 
Q 2900 3119 2900 3481 
Q 2900 3844 2670 4047 
Q 2441 4250 2034 4250 
Q 1625 4250 1398 4047 
Q 1172 3844 1172 3481 
z
" transform="scale(0.015625)"/>
       </defs>
       <use xlink:href="#DejaVuSans-32"/>
       <use xlink:href="#DejaVuSans-30" x="63.623047"/>
       <use xlink:href="#DejaVuSans-30" x="127.246094"/>
       <use xlink:href="#DejaVuSans-38" x="190.869141"/>
      </g>
     </g>
    </g>
    <g id="xtick_3">
     <g id="line2d_3">
      <g>
       <use xlink:href="#m7673910183" x="216.597239" y="279.078144" style="stroke: #000000; stroke-width: 0.8"/>
      </g>
     </g>
     <g id="text_3">
      <!-- 2012 -->
      <g transform="translate(203.872239 293.676581) scale(0.1 -0.1)">
       <defs>
        <path id="DejaVuSans-31" d="M 794 531 
L 1825 531 
L 1825 4091 
L 703 3866 
L 703 4441 
L 1819 4666 
L 2450 4666 
L 2450 531 
L 3481 531 
L 3481 0 
L 794 0 
L 794 531 
z
" transform="scale(0.015625)"/>
       </defs>
       <use xlink:href="#DejaVuSans-32"/>
       <use xlink:href="#DejaVuSans-30" x="63.623047"/>
       <use xlink:href="#DejaVuSans-31" x="127.246094"/>
       <use xlink:href="#DejaVuSans-32" x="190.869141"/>
      </g>
     </g>
    </g>
    <g id="xtick_4">
     <g id="line2d_4">
      <g>
       <use xlink:href="#m7673910183" x="288.858615" y="279.078144" style="stroke: #000000; stroke-width: 0.8"/>
      </g>
     </g>
     <g id="text_4">
      <!-- 2016 -->
      <g transform="translate(276.133615 293.676581) scale(0.1 -0.1)">
       <defs>
        <path id="DejaVuSans-36" d="M 2113 2584 
Q 1688 2584 1439 2293 
Q 1191 2003 1191 1497 
Q 1191 994 1439 701 
Q 1688 409 2113 409 
Q 2538 409 2786 701 
Q 3034 994 3034 1497 
Q 3034 2003 2786 2293 
Q 2538 2584 2113 2584 
z
M 3366 4563 
L 3366 3988 
Q 3128 4100 2886 4159 
Q 2644 4219 2406 4219 
Q 1781 4219 1451 3797 
Q 1122 3375 1075 2522 
Q 1259 2794 1537 2939 
Q 1816 3084 2150 3084 
Q 2853 3084 3261 2657 
Q 3669 2231 3669 1497 
Q 3669 778 3244 343 
Q 2819 -91 2113 -91 
Q 1303 -91 875 529 
Q 447 1150 447 2328 
Q 447 3434 972 4092 
Q 1497 4750 2381 4750 
Q 2619 4750 2861 4703 
Q 3103 4656 3366 4563 
z
" transform="scale(0.015625)"/>
       </defs>
       <use xlink:href="#DejaVuSans-32"/>
       <use xlink:href="#DejaVuSans-30" x="63.623047"/>
       <use xlink:href="#DejaVuSans-31" x="127.246094"/>
       <use xlink:href="#DejaVuSans-36" x="190.869141"/>
      </g>
     </g>
    </g>
    <g id="xtick_5">
     <g id="line2d_5">
      <g>
       <use xlink:href="#m7673910183" x="361.119991" y="279.078144" style="stroke: #000000; stroke-width: 0.8"/>
      </g>
     </g>
     <g id="text_5">
      <!-- 2020 -->
      <g transform="translate(348.394991 293.676581) scale(0.1 -0.1)">
       <use xlink:href="#DejaVuSans-32"/>
       <use xlink:href="#DejaVuSans-30" x="63.623047"/>
       <use xlink:href="#DejaVuSans-32" x="127.246094"/>
       <use xlink:href="#DejaVuSans-30" x="190.869141"/>
      </g>
     </g>
    </g>
    <g id="xtick_6">
     <g id="line2d_6">
      <g>
       <use xlink:href="#m7673910183" x="433.381367" y="279.078144" style="stroke: #000000; stroke-width: 0.8"/>
      </g>
     </g>
     <g id="text_6">
      <!-- 2024 -->
      <g transform="translate(420.656367 293.676581) scale(0.1 -0.1)">
       <use xlink:href="#DejaVuSans-32"/>
       <use xlink:href="#DejaVuSans-30" x="63.623047"/>
       <use xlink:href="#DejaVuSans-32" x="127.246094"/>
       <use xlink:href="#DejaVuSans-34" x="190.869141"/>
      </g>
     </g>
    </g>
    <g id="text_7">
     <!-- Year -->
     <g transform="translate(239.86375 311.153925) scale(0.15 -0.15)">
      <defs>
       <path id="DejaVuSans-59" d="M -13 4666 
L 666 4666 
L 1959 2747 
L 3244 4666 
L 3922 4666 
L 2272 2222 
L 2272 0 
L 1638 0 
L 1638 2222 
L -13 4666 
z
" transform="scale(0.015625)"/>
       <path id="DejaVuSans-65" d="M 3597 1894 
L 3597 1613 
L 953 1613 
Q 991 1019 1311 708 
Q 1631 397 2203 397 
Q 2534 397 2845 478 
Q 3156 559 3463 722 
L 3463 178 
Q 3153 47 2828 -22 
Q 2503 -91 2169 -91 
Q 1331 -91 842 396 
Q 353 884 353 1716 
Q 353 2575 817 3079 
Q 1281 3584 2069 3584 
Q 2775 3584 3186 3129 
Q 3597 2675 3597 1894 
z
M 3022 2063 
Q 3016 2534 2758 2815 
Q 2500 3097 2075 3097 
Q 1594 3097 1305 2825 
Q 1016 2553 972 2059 
L 3022 2063 
z
" transform="scale(0.015625)"/>
       <path id="DejaVuSans-61" d="M 2194 1759 
Q 1497 1759 1228 1600 
Q 959 1441 959 1056 
Q 959 750 1161 570 
Q 1363 391 1709 391 
Q 2188 391 2477 730 
Q 2766 1069 2766 1631 
L 2766 1759 
L 2194 1759 
z
M 3341 1997 
L 3341 0 
L 2766 0 
L 2766 531 
Q 2569 213 2275 61 
Q 1981 -91 1556 -91 
Q 1019 -91 701 211 
Q 384 513 384 1019 
Q 384 1609 779 1909 
Q 1175 2209 1959 2209 
L 2766 2209 
L 2766 2266 
Q 2766 2663 2505 2880 
Q 2244 3097 1772 3097 
Q 1472 3097 1187 3025 
Q 903 2953 641 2809 
L 641 3341 
Q 956 3463 1253 3523 
Q 1550 3584 1831 3584 
Q 2591 3584 2966 3190 
Q 3341 2797 3341 1997 
z
" transform="scale(0.015625)"/>
       <path id="DejaVuSans-72" d="M 2631 2963 
Q 2534 3019 2420 3045 
Q 2306 3072 2169 3072 
Q 1681 3072 1420 2755 
Q 1159 2438 1159 1844 
L 1159 0 
L 581 0 
L 581 3500 
L 1159 3500 
L 1159 2956 
Q 1341 3275 1631 3429 
Q 1922 3584 2338 3584 
Q 2397 3584 2469 3576 
Q 2541 3569 2628 3553 
L 2631 2963 
z
" transform="scale(0.015625)"/>
      </defs>
      <use xlink:href="#DejaVuSans-59"/>
      <use xlink:href="#DejaVuSans-65" x="47.833984"/>
      <use xlink:href="#DejaVuSans-61" x="109.357422"/>
      <use xlink:href="#DejaVuSans-72" x="170.636719"/>
     </g>
    </g>
   </g>
   <g id="matplotlib.axis_2">
    <g id="ytick_1">
     <g id="line2d_7">
      <defs>
       <path id="m35b166e761" d="M 0 0 
L -3.5 0 
" style="stroke: #000000; stroke-width: 0.8"/>
      </defs>
      <g>
       <use xlink:href="#m35b166e761" x="61.49" y="279.078144" style="stroke: #000000; stroke-width: 0.8"/>
      </g>
     </g>
     <g id="text_8">
      <!-- 0 -->
      <g transform="translate(48.1275 282.877362) scale(0.1 -0.1)">
       <use xlink:href="#DejaVuSans-30"/>
      </g>
     </g>
    </g>
    <g id="ytick_2">
     <g id="line2d_8">
      <g>
       <use xlink:href="#m35b166e761" x="61.49" y="239.50997" style="stroke: #000000; stroke-width: 0.8"/>
      </g>
     </g>
     <g id="text_9">
      <!-- 1000 -->
      <g transform="translate(29.04 243.309189) scale(0.1 -0.1)">
       <use xlink:href="#DejaVuSans-31"/>
       <use xlink:href="#DejaVuSans-30" x="63.623047"/>
       <use xlink:href="#DejaVuSans-30" x="127.246094"/>
       <use xlink:href="#DejaVuSans-30" x="190.869141"/>
      </g>
     </g>
    </g>
    <g id="ytick_3">
     <g id="line2d_9">
      <g>
       <use xlink:href="#m35b166e761" x="61.49" y="199.941797" style="stroke: #000000; stroke-width: 0.8"/>
      </g>
     </g>
     <g id="text_10">
      <!-- 2000 -->
      <g transform="translate(29.04 203.741016) scale(0.1 -0.1)">
       <use xlink:href="#DejaVuSans-32"/>
       <use xlink:href="#DejaVuSans-30" x="63.623047"/>
       <use xlink:href="#DejaVuSans-30" x="127.246094"/>
       <use xlink:href="#DejaVuSans-30" x="190.869141"/>
      </g>
     </g>
    </g>
    <g id="ytick_4">
     <g id="line2d_10">
      <g>
       <use xlink:href="#m35b166e761" x="61.49" y="160.373624" style="stroke: #000000; stroke-width: 0.8"/>
      </g>
     </g>
     <g id="text_11">
      <!-- 3000 -->
      <g transform="translate(29.04 164.172843) scale(0.1 -0.1)">
       <defs>
        <path id="DejaVuSans-33" d="M 2597 2516 
Q 3050 2419 3304 2112 
Q 3559 1806 3559 1356 
Q 3559 666 3084 287 
Q 2609 -91 1734 -91 
Q 1441 -91 1130 -33 
Q 819 25 488 141 
L 488 750 
Q 750 597 1062 519 
Q 1375 441 1716 441 
Q 2309 441 2620 675 
Q 2931 909 2931 1356 
Q 2931 1769 2642 2001 
Q 2353 2234 1838 2234 
L 1294 2234 
L 1294 2753 
L 1863 2753 
Q 2328 2753 2575 2939 
Q 2822 3125 2822 3475 
Q 2822 3834 2567 4026 
Q 2313 4219 1838 4219 
Q 1578 4219 1281 4162 
Q 984 4106 628 3988 
L 628 4550 
Q 988 4650 1302 4700 
Q 1616 4750 1894 4750 
Q 2613 4750 3031 4423 
Q 3450 4097 3450 3541 
Q 3450 3153 3228 2886 
Q 3006 2619 2597 2516 
z
" transform="scale(0.015625)"/>
       </defs>
       <use xlink:href="#DejaVuSans-33"/>
       <use xlink:href="#DejaVuSans-30" x="63.623047"/>
       <use xlink:href="#DejaVuSans-30" x="127.246094"/>
       <use xlink:href="#DejaVuSans-30" x="190.869141"/>
      </g>
     </g>
    </g>
    <g id="ytick_5">
     <g id="line2d_11">
      <g>
       <use xlink:href="#m35b166e761" x="61.49" y="120.805451" style="stroke: #000000; stroke-width: 0.8"/>
      </g>
     </g>
     <g id="text_12">
      <!-- 4000 -->
      <g transform="translate(29.04 124.60467) scale(0.1 -0.1)">
       <use xlink:href="#DejaVuSans-34"/>
       <use xlink:href="#DejaVuSans-30" x="63.623047"/>
       <use xlink:href="#DejaVuSans-30" x="127.246094"/>
       <use xlink:href="#DejaVuSans-30" x="190.869141"/>
      </g>
     </g>
    </g>
    <g id="ytick_6">
     <g id="line2d_12">
      <g>
       <use xlink:href="#m35b166e761" x="61.49" y="81.237278" style="stroke: #000000; stroke-width: 0.8"/>
      </g>
     </g>
     <g id="text_13">
      <!-- 5000 -->
      <g transform="translate(29.04 85.036497) scale(0.1 -0.1)">
       <defs>
        <path id="DejaVuSans-35" d="M 691 4666 
L 3169 4666 
L 3169 4134 
L 1269 4134 
L 1269 2991 
Q 1406 3038 1543 3061 
Q 1681 3084 1819 3084 
Q 2600 3084 3056 2656 
Q 3513 2228 3513 1497 
Q 3513 744 3044 326 
Q 2575 -91 1722 -91 
Q 1428 -91 1123 -41 
Q 819 9 494 109 
L 494 744 
Q 775 591 1075 516 
Q 1375 441 1709 441 
Q 2250 441 2565 725 
Q 2881 1009 2881 1497 
Q 2881 1984 2565 2268 
Q 2250 2553 1709 2553 
Q 1456 2553 1204 2497 
Q 953 2441 691 2322 
L 691 4666 
z
" transform="scale(0.015625)"/>
       </defs>
       <use xlink:href="#DejaVuSans-35"/>
       <use xlink:href="#DejaVuSans-30" x="63.623047"/>
       <use xlink:href="#DejaVuSans-30" x="127.246094"/>
       <use xlink:href="#DejaVuSans-30" x="190.869141"/>
      </g>
     </g>
    </g>
    <g id="text_14">
     <!-- Number of proteins -->
     <g transform="translate(21.920469 246.446621) rotate(-90) scale(0.15 -0.15)">
      <defs>
       <path id="DejaVuSans-4e" d="M 628 4666 
L 1478 4666 
L 3547 763 
L 3547 4666 
L 4159 4666 
L 4159 0 
L 3309 0 
L 1241 3903 
L 1241 0 
L 628 0 
L 628 4666 
z
" transform="scale(0.015625)"/>
       <path id="DejaVuSans-75" d="M 544 1381 
L 544 3500 
L 1119 3500 
L 1119 1403 
Q 1119 906 1312 657 
Q 1506 409 1894 409 
Q 2359 409 2629 706 
Q 2900 1003 2900 1516 
L 2900 3500 
L 3475 3500 
L 3475 0 
L 2900 0 
L 2900 538 
Q 2691 219 2414 64 
Q 2138 -91 1772 -91 
Q 1169 -91 856 284 
Q 544 659 544 1381 
z
M 1991 3584 
L 1991 3584 
z
" transform="scale(0.015625)"/>
       <path id="DejaVuSans-6d" d="M 3328 2828 
Q 3544 3216 3844 3400 
Q 4144 3584 4550 3584 
Q 5097 3584 5394 3201 
Q 5691 2819 5691 2113 
L 5691 0 
L 5113 0 
L 5113 2094 
Q 5113 2597 4934 2840 
Q 4756 3084 4391 3084 
Q 3944 3084 3684 2787 
Q 3425 2491 3425 1978 
L 3425 0 
L 2847 0 
L 2847 2094 
Q 2847 2600 2669 2842 
Q 2491 3084 2119 3084 
Q 1678 3084 1418 2786 
Q 1159 2488 1159 1978 
L 1159 0 
L 581 0 
L 581 3500 
L 1159 3500 
L 1159 2956 
Q 1356 3278 1631 3431 
Q 1906 3584 2284 3584 
Q 2666 3584 2933 3390 
Q 3200 3197 3328 2828 
z
" transform="scale(0.015625)"/>
       <path id="DejaVuSans-62" d="M 3116 1747 
Q 3116 2381 2855 2742 
Q 2594 3103 2138 3103 
Q 1681 3103 1420 2742 
Q 1159 2381 1159 1747 
Q 1159 1113 1420 752 
Q 1681 391 2138 391 
Q 2594 391 2855 752 
Q 3116 1113 3116 1747 
z
M 1159 2969 
Q 1341 3281 1617 3432 
Q 1894 3584 2278 3584 
Q 2916 3584 3314 3078 
Q 3713 2572 3713 1747 
Q 3713 922 3314 415 
Q 2916 -91 2278 -91 
Q 1894 -91 1617 61 
Q 1341 213 1159 525 
L 1159 0 
L 581 0 
L 581 4863 
L 1159 4863 
L 1159 2969 
z
" transform="scale(0.015625)"/>
       <path id="DejaVuSans-20" transform="scale(0.015625)"/>
       <path id="DejaVuSans-6f" d="M 1959 3097 
Q 1497 3097 1228 2736 
Q 959 2375 959 1747 
Q 959 1119 1226 758 
Q 1494 397 1959 397 
Q 2419 397 2687 759 
Q 2956 1122 2956 1747 
Q 2956 2369 2687 2733 
Q 2419 3097 1959 3097 
z
M 1959 3584 
Q 2709 3584 3137 3096 
Q 3566 2609 3566 1747 
Q 3566 888 3137 398 
Q 2709 -91 1959 -91 
Q 1206 -91 779 398 
Q 353 888 353 1747 
Q 353 2609 779 3096 
Q 1206 3584 1959 3584 
z
" transform="scale(0.015625)"/>
       <path id="DejaVuSans-66" d="M 2375 4863 
L 2375 4384 
L 1825 4384 
Q 1516 4384 1395 4259 
Q 1275 4134 1275 3809 
L 1275 3500 
L 2222 3500 
L 2222 3053 
L 1275 3053 
L 1275 0 
L 697 0 
L 697 3053 
L 147 3053 
L 147 3500 
L 697 3500 
L 697 3744 
Q 697 4328 969 4595 
Q 1241 4863 1831 4863 
L 2375 4863 
z
" transform="scale(0.015625)"/>
       <path id="DejaVuSans-70" d="M 1159 525 
L 1159 -1331 
L 581 -1331 
L 581 3500 
L 1159 3500 
L 1159 2969 
Q 1341 3281 1617 3432 
Q 1894 3584 2278 3584 
Q 2916 3584 3314 3078 
Q 3713 2572 3713 1747 
Q 3713 922 3314 415 
Q 2916 -91 2278 -91 
Q 1894 -91 1617 61 
Q 1341 213 1159 525 
z
M 3116 1747 
Q 3116 2381 2855 2742 
Q 2594 3103 2138 3103 
Q 1681 3103 1420 2742 
Q 1159 2381 1159 1747 
Q 1159 1113 1420 752 
Q 1681 391 2138 391 
Q 2594 391 2855 752 
Q 3116 1113 3116 1747 
z
" transform="scale(0.015625)"/>
       <path id="DejaVuSans-74" d="M 1172 4494 
L 1172 3500 
L 2356 3500 
L 2356 3053 
L 1172 3053 
L 1172 1153 
Q 1172 725 1289 603 
Q 1406 481 1766 481 
L 2356 481 
L 2356 0 
L 1766 0 
Q 1100 0 847 248 
Q 594 497 594 1153 
L 594 3053 
L 172 3053 
L 172 3500 
L 594 3500 
L 594 4494 
L 1172 4494 
z
" transform="scale(0.015625)"/>
       <path id="DejaVuSans-69" d="M 603 3500 
L 1178 3500 
L 1178 0 
L 603 0 
L 603 3500 
z
M 603 4863 
L 1178 4863 
L 1178 4134 
L 603 4134 
L 603 4863 
z
" transform="scale(0.015625)"/>
       <path id="DejaVuSans-6e" d="M 3513 2113 
L 3513 0 
L 2938 0 
L 2938 2094 
Q 2938 2591 2744 2837 
Q 2550 3084 2163 3084 
Q 1697 3084 1428 2787 
Q 1159 2491 1159 1978 
L 1159 0 
L 581 0 
L 581 3500 
L 1159 3500 
L 1159 2956 
Q 1366 3272 1645 3428 
Q 1925 3584 2291 3584 
Q 2894 3584 3203 3211 
Q 3513 2838 3513 2113 
z
" transform="scale(0.015625)"/>
       <path id="DejaVuSans-73" d="M 2834 3397 
L 2834 2853 
Q 2591 2978 2328 3040 
Q 2066 3103 1784 3103 
Q 1356 3103 1142 2972 
Q 928 2841 928 2578 
Q 928 2378 1081 2264 
Q 1234 2150 1697 2047 
L 1894 2003 
Q 2506 1872 2764 1633 
Q 3022 1394 3022 966 
Q 3022 478 2636 193 
Q 2250 -91 1575 -91 
Q 1294 -91 989 -36 
Q 684 19 347 128 
L 347 722 
Q 666 556 975 473 
Q 1284 391 1588 391 
Q 1994 391 2212 530 
Q 2431 669 2431 922 
Q 2431 1156 2273 1281 
Q 2116 1406 1581 1522 
L 1381 1569 
Q 847 1681 609 1914 
Q 372 2147 372 2553 
Q 372 3047 722 3315 
Q 1072 3584 1716 3584 
Q 2034 3584 2315 3537 
Q 2597 3491 2834 3397 
z
" transform="scale(0.015625)"/>
      </defs>
      <use xlink:href="#DejaVuSans-4e"/>
      <use xlink:href="#DejaVuSans-75" x="74.804688"/>
      <use xlink:href="#DejaVuSans-6d" x="138.183594"/>
      <use xlink:href="#DejaVuSans-62" x="235.595703"/>
      <use xlink:href="#DejaVuSans-65" x="299.072266"/>
      <use xlink:href="#DejaVuSans-72" x="360.595703"/>
      <use xlink:href="#DejaVuSans-20" x="401.708984"/>
      <use xlink:href="#DejaVuSans-6f" x="433.496094"/>
      <use xlink:href="#DejaVuSans-66" x="494.677734"/>
      <use xlink:href="#DejaVuSans-20" x="529.882812"/>
      <use xlink:href="#DejaVuSans-70" x="561.669922"/>
      <use xlink:href="#DejaVuSans-72" x="625.146484"/>
      <use xlink:href="#DejaVuSans-6f" x="664.009766"/>
      <use xlink:href="#DejaVuSans-74" x="725.191406"/>
      <use xlink:href="#DejaVuSans-65" x="764.400391"/>
      <use xlink:href="#DejaVuSans-69" x="825.923828"/>
      <use xlink:href="#DejaVuSans-6e" x="853.707031"/>
      <use xlink:href="#DejaVuSans-73" x="917.085938"/>
     </g>
    </g>
   </g>
   <g id="patch_3">
    <path d="M 61.49 279.078144 
L 61.49 68.436974 
" style="fill: none; stroke: #000000; stroke-width: 0.8; stroke-linejoin: miter; stroke-linecap: square"/>
   </g>
   <g id="patch_4">
    <path d="M 61.49 279.078144 
L 450 279.078144 
" style="fill: none; stroke: #000000; stroke-width: 0.8; stroke-linejoin: miter; stroke-linecap: square"/>
   </g>
   <g id="legend_1">
    <g id="patch_5">
     <path d="M 128.755156 63.436974 
L 382.734844 63.436974 
Q 384.734844 63.436974 384.734844 61.436974 
L 384.734844 33.080724 
Q 384.734844 31.080724 382.734844 31.080724 
L 128.755156 31.080724 
Q 126.755156 31.080724 126.755156 33.080724 
L 126.755156 61.436974 
Q 126.755156 63.436974 128.755156 63.436974 
z
" style="fill: #ffffff; opacity: 0.8; stroke: #cccccc; stroke-linejoin: miter"/>
    </g>
    <g id="patch_6">
     <path d="M 130.755156 42.679161 
L 150.755156 42.679161 
L 150.755156 35.679161 
L 130.755156 35.679161 
z
" style="fill: #fb363b"/>
    </g>
    <g id="text_15">
     <!-- Published -->
     <g transform="translate(158.755156 42.679161) scale(0.1 -0.1)">
      <defs>
       <path id="DejaVuSans-50" d="M 1259 4147 
L 1259 2394 
L 2053 2394 
Q 2494 2394 2734 2622 
Q 2975 2850 2975 3272 
Q 2975 3691 2734 3919 
Q 2494 4147 2053 4147 
L 1259 4147 
z
M 628 4666 
L 2053 4666 
Q 2838 4666 3239 4311 
Q 3641 3956 3641 3272 
Q 3641 2581 3239 2228 
Q 2838 1875 2053 1875 
L 1259 1875 
L 1259 0 
L 628 0 
L 628 4666 
z
" transform="scale(0.015625)"/>
       <path id="DejaVuSans-6c" d="M 603 4863 
L 1178 4863 
L 1178 0 
L 603 0 
L 603 4863 
z
" transform="scale(0.015625)"/>
       <path id="DejaVuSans-68" d="M 3513 2113 
L 3513 0 
L 2938 0 
L 2938 2094 
Q 2938 2591 2744 2837 
Q 2550 3084 2163 3084 
Q 1697 3084 1428 2787 
Q 1159 2491 1159 1978 
L 1159 0 
L 581 0 
L 581 4863 
L 1159 4863 
L 1159 2956 
Q 1366 3272 1645 3428 
Q 1925 3584 2291 3584 
Q 2894 3584 3203 3211 
Q 3513 2838 3513 2113 
z
" transform="scale(0.015625)"/>
       <path id="DejaVuSans-64" d="M 2906 2969 
L 2906 4863 
L 3481 4863 
L 3481 0 
L 2906 0 
L 2906 525 
Q 2725 213 2448 61 
Q 2172 -91 1784 -91 
Q 1150 -91 751 415 
Q 353 922 353 1747 
Q 353 2572 751 3078 
Q 1150 3584 1784 3584 
Q 2172 3584 2448 3432 
Q 2725 3281 2906 2969 
z
M 947 1747 
Q 947 1113 1208 752 
Q 1469 391 1925 391 
Q 2381 391 2643 752 
Q 2906 1113 2906 1747 
Q 2906 2381 2643 2742 
Q 2381 3103 1925 3103 
Q 1469 3103 1208 2742 
Q 947 2381 947 1747 
z
" transform="scale(0.015625)"/>
      </defs>
      <use xlink:href="#DejaVuSans-50"/>
      <use xlink:href="#DejaVuSans-75" x="58.552734"/>
      <use xlink:href="#DejaVuSans-62" x="121.931641"/>
      <use xlink:href="#DejaVuSans-6c" x="185.408203"/>
      <use xlink:href="#DejaVuSans-69" x="213.191406"/>
      <use xlink:href="#DejaVuSans-73" x="240.974609"/>
      <use xlink:href="#DejaVuSans-68" x="293.074219"/>
      <use xlink:href="#DejaVuSans-65" x="356.453125"/>
      <use xlink:href="#DejaVuSans-64" x="417.976562"/>
     </g>
    </g>
    <g id="patch_7">
     <path d="M 130.755156 57.357286 
L 150.755156 57.357286 
L 150.755156 50.357286 
L 130.755156 50.357286 
z
" style="fill: #fdc92c"/>
    </g>
    <g id="text_16">
     <!-- Inferred role -->
     <g transform="translate(158.755156 57.357286) scale(0.1 -0.1)">
      <defs>
       <path id="DejaVuSans-49" d="M 628 4666 
L 1259 4666 
L 1259 0 
L 628 0 
L 628 4666 
z
" transform="scale(0.015625)"/>
      </defs>
      <use xlink:href="#DejaVuSans-49"/>
      <use xlink:href="#DejaVuSans-6e" x="29.492188"/>
      <use xlink:href="#DejaVuSans-66" x="92.871094"/>
      <use xlink:href="#DejaVuSans-65" x="128.076172"/>
      <use xlink:href="#DejaVuSans-72" x="189.599609"/>
      <use xlink:href="#DejaVuSans-72" x="228.962891"/>
      <use xlink:href="#DejaVuSans-65" x="267.826172"/>
      <use xlink:href="#DejaVuSans-64" x="329.349609"/>
      <use xlink:href="#DejaVuSans-20" x="392.826172"/>
      <use xlink:href="#DejaVuSans-72" x="424.613281"/>
      <use xlink:href="#DejaVuSans-6f" x="463.476562"/>
      <use xlink:href="#DejaVuSans-6c" x="524.658203"/>
      <use xlink:href="#DejaVuSans-65" x="552.441406"/>
     </g>
    </g>
    <g id="patch_8">
     <path d="M 240.153594 42.679161 
L 260.153594 42.679161 
L 260.153594 35.679161 
L 240.153594 35.679161 
z
" style="fill: #aeaeae"/>
    </g>
    <g id="text_17">
     <!-- Conserved unknown -->
     <g transform="translate(268.153594 42.679161) scale(0.1 -0.1)">
      <defs>
       <path id="DejaVuSans-43" d="M 4122 4306 
L 4122 3641 
Q 3803 3938 3442 4084 
Q 3081 4231 2675 4231 
Q 1875 4231 1450 3742 
Q 1025 3253 1025 2328 
Q 1025 1406 1450 917 
Q 1875 428 2675 428 
Q 3081 428 3442 575 
Q 3803 722 4122 1019 
L 4122 359 
Q 3791 134 3420 21 
Q 3050 -91 2638 -91 
Q 1578 -91 968 557 
Q 359 1206 359 2328 
Q 359 3453 968 4101 
Q 1578 4750 2638 4750 
Q 3056 4750 3426 4639 
Q 3797 4528 4122 4306 
z
" transform="scale(0.015625)"/>
       <path id="DejaVuSans-76" d="M 191 3500 
L 800 3500 
L 1894 563 
L 2988 3500 
L 3597 3500 
L 2284 0 
L 1503 0 
L 191 3500 
z
" transform="scale(0.015625)"/>
       <path id="DejaVuSans-6b" d="M 581 4863 
L 1159 4863 
L 1159 1991 
L 2875 3500 
L 3609 3500 
L 1753 1863 
L 3688 0 
L 2938 0 
L 1159 1709 
L 1159 0 
L 581 0 
L 581 4863 
z
" transform="scale(0.015625)"/>
       <path id="DejaVuSans-77" d="M 269 3500 
L 844 3500 
L 1563 769 
L 2278 3500 
L 2956 3500 
L 3675 769 
L 4391 3500 
L 4966 3500 
L 4050 0 
L 3372 0 
L 2619 2869 
L 1863 0 
L 1184 0 
L 269 3500 
z
" transform="scale(0.015625)"/>
      </defs>
      <use xlink:href="#DejaVuSans-43"/>
      <use xlink:href="#DejaVuSans-6f" x="69.824219"/>
      <use xlink:href="#DejaVuSans-6e" x="131.005859"/>
      <use xlink:href="#DejaVuSans-73" x="194.384766"/>
      <use xlink:href="#DejaVuSans-65" x="246.484375"/>
      <use xlink:href="#DejaVuSans-72" x="308.007812"/>
      <use xlink:href="#DejaVuSans-76" x="349.121094"/>
      <use xlink:href="#DejaVuSans-65" x="408.300781"/>
      <use xlink:href="#DejaVuSans-64" x="469.824219"/>
      <use xlink:href="#DejaVuSans-20" x="533.300781"/>
      <use xlink:href="#DejaVuSans-75" x="565.087891"/>
      <use xlink:href="#DejaVuSans-6e" x="628.466797"/>
      <use xlink:href="#DejaVuSans-6b" x="691.845703"/>
      <use xlink:href="#DejaVuSans-6e" x="749.755859"/>
      <use xlink:href="#DejaVuSans-6f" x="813.134766"/>
      <use xlink:href="#DejaVuSans-77" x="874.316406"/>
      <use xlink:href="#DejaVuSans-6e" x="956.103516"/>
     </g>
    </g>
    <g id="patch_9">
     <path d="M 240.153594 57.357286 
L 260.153594 57.357286 
L 260.153594 50.357286 
L 240.153594 50.357286 
z
" style="fill: #d5dce5"/>
    </g>
    <g id="text_18">
     <!-- Fission yeast unknown -->
     <g transform="translate(268.153594 57.357286) scale(0.1 -0.1)">
      <defs>
       <path id="DejaVuSans-46" d="M 628 4666 
L 3309 4666 
L 3309 4134 
L 1259 4134 
L 1259 2759 
L 3109 2759 
L 3109 2228 
L 1259 2228 
L 1259 0 
L 628 0 
L 628 4666 
z
" transform="scale(0.015625)"/>
       <path id="DejaVuSans-79" d="M 2059 -325 
Q 1816 -950 1584 -1140 
Q 1353 -1331 966 -1331 
L 506 -1331 
L 506 -850 
L 844 -850 
Q 1081 -850 1212 -737 
Q 1344 -625 1503 -206 
L 1606 56 
L 191 3500 
L 800 3500 
L 1894 763 
L 2988 3500 
L 3597 3500 
L 2059 -325 
z
" transform="scale(0.015625)"/>
      </defs>
      <use xlink:href="#DejaVuSans-46"/>
      <use xlink:href="#DejaVuSans-69" x="50.269531"/>
      <use xlink:href="#DejaVuSans-73" x="78.052734"/>
      <use xlink:href="#DejaVuSans-73" x="130.152344"/>
      <use xlink:href="#DejaVuSans-69" x="182.251953"/>
      <use xlink:href="#DejaVuSans-6f" x="210.035156"/>
      <use xlink:href="#DejaVuSans-6e" x="271.216797"/>
      <use xlink:href="#DejaVuSans-20" x="334.595703"/>
      <use xlink:href="#DejaVuSans-79" x="366.382812"/>
      <use xlink:href="#DejaVuSans-65" x="425.5625"/>
      <use xlink:href="#DejaVuSans-61" x="487.085938"/>
      <use xlink:href="#DejaVuSans-73" x="548.365234"/>
      <use xlink:href="#DejaVuSans-74" x="600.464844"/>
      <use xlink:href="#DejaVuSans-20" x="639.673828"/>
      <use xlink:href="#DejaVuSans-75" x="671.460938"/>
      <use xlink:href="#DejaVuSans-6e" x="734.839844"/>
      <use xlink:href="#DejaVuSans-6b" x="798.21875"/>
      <use xlink:href="#DejaVuSans-6e" x="856.128906"/>
      <use xlink:href="#DejaVuSans-6f" x="919.507812"/>
      <use xlink:href="#DejaVuSans-77" x="980.689453"/>
      <use xlink:href="#DejaVuSans-6e" x="1062.476562"/>
     </g>
    </g>
   </g>
  </g>
 </g>
 <defs>
  <clipPath id="p8923913e2f">
   <rect x="61.49" y="68.436974" width="388.51" height="210.64117"/>
  </clipPath>
 </defs>
</svg>
