<?xml version="1.0" encoding="utf-8" standalone="no"?>
<!DOCTYPE svg PUBLIC "-//W3C//DTD SVG 1.1//EN"
  "http://www.w3.org/Graphics/SVG/1.1/DTD/svg11.dtd">
<svg xmlns:xlink="http://www.w3.org/1999/xlink" width="460.8pt" height="345.6pt" viewBox="0 0 460.8 345.6" xmlns="http://www.w3.org/2000/svg" version="1.1">
 <metadata>
  <rdf:RDF xmlns:dc="http://purl.org/dc/elements/1.1/" xmlns:cc="http://creativecommons.org/ns#" xmlns:rdf="http://www.w3.org/1999/02/22-rdf-syntax-ns#">
   <cc:Work>
    <dc:type rdf:resource="http://purl.org/dc/dcmitype/StillImage"/>
    <dc:date>2023-11-02T00:46:37.851712</dc:date>
    <dc:format>image/svg+xml</dc:format>
    <dc:creator>
     <cc:Agent>
      <dc:title>Matplotlib v3.7.1, https://matplotlib.org/</dc:title>
     </cc:Agent>
    </dc:creator>
   </cc:Work>
  </rdf:RDF>
 </metadata>
 <defs>
  <style type="text/css">*{stroke-linejoin: round; stroke-linecap: butt}</style>
 </defs>
 <g id="figure_1">
  <g id="patch_1">
   <path d="M 0 345.6 
L 460.8 345.6 
L 460.8 0 
L 0 0 
z
" style="fill: #ffffff"/>
  </g>
  <g id="axes_1">
   <g id="patch_2">
    <path d="M 61.49 285.052079 
L 450 285.052079 
L 450 63.227921 
L 61.49 63.227921 
z
" style="fill: #ffffff"/>
   </g>
   <g id="PolyCollection_1">
    <path d="M 29.977927 228.757454 
L 29.977927 285.052079 
L 38.780473 285.052079 
L 47.478847 285.052079 
L 65.344369 285.052079 
L 86.074625 285.052079 
L 101.335844 285.052079 
L 110.815509 285.052079 
L 113.263554 285.052079 
L 117.795042 285.052079 
L 119.878485 285.052079 
L 120.138915 285.052079 
L 123.576596 285.052079 
L 124.462059 285.052079 
L 125.191264 285.052079 
L 126.076727 285.052079 
L 126.649674 285.052079 
L 127.535137 285.052079 
L 128.055998 285.052079 
L 128.993547 285.052079 
L 130.243613 285.052079 
L 131.233248 285.052079 
L 131.597851 285.052079 
L 132.639572 285.052079 
L 133.368777 285.052079 
L 134.150068 285.052079 
L 134.983446 285.052079 
L 135.556392 285.052079 
L 136.077253 285.052079 
L 137.535663 285.052079 
L 138.577384 285.052079 
L 139.358675 285.052079 
L 139.56702 285.052079 
L 140.296225 285.052079 
L 141.390032 285.052079 
L 142.535926 285.052079 
L 143.317217 285.052079 
L 144.46311 285.052079 
L 145.973606 285.052079 
L 148.057049 285.052079 
L 149.880062 285.052079 
L 151.442644 285.052079 
L 154.359464 285.052079 
L 155.609529 285.052079 
L 158.995124 285.052079 
L 161.182739 285.052079 
L 162.536977 285.052079 
L 163.370354 285.052079 
L 166.651776 285.052079 
L 168.474789 285.052079 
L 170.349887 285.052079 
L 174.047998 285.052079 
L 177.485679 285.052079 
L 178.058626 285.052079 
L 178.735745 285.052079 
L 179.777466 285.052079 
L 180.610843 285.052079 
L 183.163061 285.052079 
L 188.267496 285.052079 
L 189.257131 285.052079 
L 194.049049 285.052079 
L 195.142857 285.052079 
L 196.236664 285.052079 
L 198.007591 285.052079 
L 199.466001 285.052079 
L 200.872325 285.052079 
L 201.757788 285.052079 
L 204.622522 285.052079 
L 207.591428 285.052079 
L 209.049838 285.052079 
L 210.091559 285.052079 
L 211.393711 285.052079 
L 212.487518 285.052079 
L 213.78967 285.052079 
L 216.862748 285.052079 
L 218.477417 285.052079 
L 220.039999 285.052079 
L 221.654667 285.052079 
L 223.217249 285.052079 
L 224.831917 285.052079 
L 226.446585 285.052079 
L 227.957081 285.052079 
L 229.57175 285.052079 
L 231.134332 285.052079 
L 232.749 285.052079 
L 234.311582 285.052079 
L 235.92625 285.052079 
L 237.540918 285.052079 
L 239.1035 285.052079 
L 240.718169 285.052079 
L 242.280751 285.052079 
L 243.895419 285.052079 
L 245.510087 285.052079 
L 246.968497 285.052079 
L 248.583165 285.052079 
L 250.145747 285.052079 
L 251.760416 285.052079 
L 253.322998 285.052079 
L 254.937666 285.052079 
L 256.552334 285.052079 
L 258.114916 285.052079 
L 259.729584 285.052079 
L 261.292167 285.052079 
L 262.906835 285.052079 
L 264.521503 285.052079 
L 265.979913 285.052079 
L 267.594581 285.052079 
L 269.157163 285.052079 
L 270.771831 285.052079 
L 272.334413 285.052079 
L 273.949082 285.052079 
L 275.56375 285.052079 
L 277.126332 285.052079 
L 278.741 285.052079 
L 280.303582 285.052079 
L 281.91825 285.052079 
L 283.532919 285.052079 
L 284.991329 285.052079 
L 286.605997 285.052079 
L 288.168579 285.052079 
L 289.783247 285.052079 
L 291.345829 285.052079 
L 292.960497 285.052079 
L 294.575166 285.052079 
L 296.137748 285.052079 
L 297.752416 285.052079 
L 299.314998 285.052079 
L 300.929666 285.052079 
L 302.544334 285.052079 
L 304.05483 285.052079 
L 305.669499 285.052079 
L 307.232081 285.052079 
L 308.846749 285.052079 
L 310.409331 285.052079 
L 312.023999 285.052079 
L 313.638667 285.052079 
L 315.201249 285.052079 
L 316.815918 285.052079 
L 318.3785 285.052079 
L 319.993168 285.052079 
L 321.607836 285.052079 
L 323.066246 285.052079 
L 324.680914 285.052079 
L 326.243496 285.052079 
L 327.858165 285.052079 
L 329.420747 285.052079 
L 331.035415 285.052079 
L 332.650083 285.052079 
L 334.212665 285.052079 
L 335.827333 285.052079 
L 337.389916 285.052079 
L 339.004584 285.052079 
L 340.619252 285.052079 
L 342.077662 285.052079 
L 343.69233 285.052079 
L 345.254912 285.052079 
L 346.86958 285.052079 
L 348.432162 285.052079 
L 350.046831 285.052079 
L 351.661499 285.052079 
L 353.224081 285.052079 
L 354.838749 285.052079 
L 356.401331 285.052079 
L 358.015999 285.052079 
L 359.630668 285.052079 
L 361.089078 285.052079 
L 362.703746 285.052079 
L 364.266328 285.052079 
L 365.880996 285.052079 
L 367.443578 285.052079 
L 369.058246 285.052079 
L 370.672915 285.052079 
L 372.235497 285.052079 
L 373.850165 285.052079 
L 375.412747 285.052079 
L 377.027415 285.052079 
L 378.642083 285.052079 
L 380.152579 285.052079 
L 381.767248 285.052079 
L 383.32983 285.052079 
L 384.944498 285.052079 
L 386.50708 285.052079 
L 388.121748 285.052079 
L 389.736416 285.052079 
L 391.298999 285.052079 
L 392.913667 285.052079 
L 394.476249 285.052079 
L 396.090917 285.052079 
L 397.705585 285.052079 
L 399.163995 285.052079 
L 400.778663 285.052079 
L 402.341245 285.052079 
L 403.955914 285.052079 
L 405.518496 285.052079 
L 407.133164 285.052079 
L 408.747832 285.052079 
L 410.310414 285.052079 
L 411.925082 285.052079 
L 413.487665 285.052079 
L 415.102333 285.052079 
L 416.717001 285.052079 
L 418.175411 285.052079 
L 419.790079 285.052079 
L 421.352661 285.052079 
L 422.967329 285.052079 
L 424.529912 285.052079 
L 426.14458 285.052079 
L 427.759248 285.052079 
L 429.32183 285.052079 
L 430.936498 285.052079 
L 432.49908 285.052079 
L 434.113748 285.052079 
L 435.728417 285.052079 
L 437.186827 285.052079 
L 438.801495 285.052079 
L 440.364077 285.052079 
L 441.978745 285.052079 
L 443.541327 285.052079 
L 445.155995 285.052079 
L 446.770664 285.052079 
L 448.333246 285.052079 
L 449.947914 285.052079 
L 449.947914 179.71321 
L 449.947914 179.71321 
L 448.333246 179.838216 
L 446.770664 179.879885 
L 445.155995 180.004892 
L 443.541327 180.504918 
L 441.978745 180.754931 
L 440.364077 180.879938 
L 438.801495 180.879938 
L 437.186827 181.254957 
L 435.728417 181.87999 
L 434.113748 181.838321 
L 432.49908 181.963328 
L 430.936498 182.088334 
L 429.32183 182.338347 
L 427.759248 182.338347 
L 426.14458 182.380016 
L 424.529912 182.380016 
L 422.967329 182.338347 
L 421.352661 182.421685 
L 419.790079 182.338347 
L 418.175411 182.296679 
L 416.717001 182.338347 
L 415.102333 182.338347 
L 413.487665 182.546692 
L 411.925082 182.755036 
L 410.310414 183.088387 
L 408.747832 183.3384 
L 407.133164 183.296731 
L 405.518496 183.505075 
L 403.955914 183.796757 
L 402.341245 183.796757 
L 400.778663 183.963433 
L 399.163995 184.505128 
L 397.705585 184.630135 
L 396.090917 185.088492 
L 394.476249 185.130161 
L 392.913667 185.296836 
L 391.298999 185.380174 
L 389.736416 185.546849 
L 388.121748 185.588518 
L 386.50708 185.671856 
L 384.944498 185.671856 
L 383.32983 185.755194 
L 381.767248 186.130213 
L 380.152579 186.25522 
L 378.642083 186.338558 
L 377.027415 186.421895 
L 375.412747 186.421895 
L 373.850165 186.421895 
L 372.235497 186.546902 
L 370.672915 186.63024 
L 369.058246 186.796915 
L 367.443578 187.046928 
L 365.880996 187.171935 
L 364.266328 187.255273 
L 362.703746 187.33861 
L 361.089078 187.380279 
L 359.630668 187.380279 
L 358.015999 187.421948 
L 356.401331 187.463617 
L 354.838749 187.546955 
L 353.224081 187.588623 
L 351.661499 187.588623 
L 350.046831 187.71363 
L 348.432162 187.838637 
L 346.86958 188.08865 
L 345.254912 188.255325 
L 343.69233 188.588676 
L 342.077662 188.755351 
L 340.619252 188.922027 
L 339.004584 188.963696 
L 337.389916 189.130371 
L 335.827333 189.297047 
L 334.212665 191.130476 
L 332.650083 191.422158 
L 331.035415 192.213866 
L 329.420747 191.547165 
L 327.858165 191.463827 
L 326.243496 191.505496 
L 324.680914 191.588834 
L 323.066246 191.880516 
L 321.607836 191.922184 
L 319.993168 192.005522 
L 318.3785 192.79723 
L 316.815918 192.922237 
L 315.201249 193.130581 
L 313.638667 193.213919 
L 312.023999 193.338926 
L 310.409331 193.797283 
L 308.846749 194.005627 
L 307.232081 194.005627 
L 305.669499 194.422316 
L 304.05483 194.505654 
L 302.544334 194.547322 
L 300.929666 194.755667 
L 299.314998 194.839004 
L 297.752416 194.839004 
L 296.137748 195.047349 
L 294.575166 195.089018 
L 292.960497 195.130686 
L 291.345829 195.297362 
L 289.783247 195.422368 
L 288.168579 194.797336 
L 286.605997 194.880673 
L 284.991329 195.089018 
L 283.532919 195.089018 
L 281.91825 195.339031 
L 280.303582 195.505706 
L 278.741 195.797388 
L 277.126332 196.172408 
L 275.56375 196.505759 
L 273.949082 196.589096 
L 272.334413 196.880778 
L 270.771831 197.130792 
L 269.157163 197.505811 
L 267.594581 197.672487 
L 265.979913 197.880831 
L 264.521503 197.9225 
L 262.906835 197.9225 
L 261.292167 198.130844 
L 259.729584 198.63087 
L 258.114916 198.672539 
L 256.552334 198.922552 
L 254.937666 199.630923 
L 253.322998 199.714261 
L 251.760416 200.214287 
L 250.145747 200.547638 
L 248.583165 201.672697 
L 246.968497 201.756035 
L 245.510087 201.881041 
L 243.895419 202.172723 
L 242.280751 202.256061 
L 240.718169 202.506074 
L 239.1035 202.714418 
L 237.540918 203.089438 
L 235.92625 203.297782 
L 234.311582 203.422789 
L 232.749 203.672802 
L 231.134332 203.714471 
L 229.57175 203.839477 
L 227.957081 204.006153 
L 226.446585 204.006153 
L 224.831917 204.089491 
L 223.217249 204.131159 
L 221.654667 204.172828 
L 220.039999 204.214497 
L 218.477417 204.256166 
L 216.862748 204.381173 
L 213.78967 205.172881 
L 212.487518 205.381225 
L 211.393711 205.422894 
L 210.091559 205.297887 
L 209.049838 205.297887 
L 207.591428 205.422894 
L 204.622522 205.547901 
L 201.757788 206.214602 
L 200.872325 207.214655 
L 199.466001 207.047979 
L 198.007591 207.00631 
L 196.236664 207.75635 
L 195.142857 207.75635 
L 194.049049 207.506337 
L 189.257131 208.048032 
L 188.267496 208.13137 
L 183.163061 208.83974 
L 180.610843 208.923078 
L 179.777466 208.756402 
L 178.735745 208.881409 
L 178.058626 209.089753 
L 177.485679 209.131422 
L 174.047998 209.256429 
L 170.349887 209.339766 
L 168.474789 209.548111 
L 166.651776 211.75656 
L 163.370354 211.673222 
L 162.536977 211.714891 
L 161.182739 212.173249 
L 158.995124 213.339977 
L 155.609529 213.58999 
L 154.359464 214.006678 
L 151.442644 214.29836 
L 149.880062 215.173406 
L 148.057049 215.75677 
L 145.973606 216.215128 
L 144.46311 216.256797 
L 143.317217 216.340134 
L 142.535926 216.381803 
L 141.390032 216.423472 
L 140.296225 217.173511 
L 139.56702 217.548531 
L 139.358675 217.548531 
L 138.577384 217.548531 
L 137.535663 217.798544 
L 136.077253 217.548531 
L 135.556392 217.756875 
L 134.983446 217.840213 
L 134.150068 217.96522 
L 133.368777 217.96522 
L 132.639572 218.298571 
L 131.597851 219.04861 
L 131.233248 219.006941 
L 130.243613 219.381961 
L 128.993547 219.465299 
L 128.055998 219.548636 
L 127.535137 219.631974 
L 126.649674 219.756981 
L 126.076727 220.006994 
L 125.191264 220.215338 
L 124.462059 220.132 
L 123.576596 220.215338 
L 120.138915 220.50702 
L 119.878485 220.465351 
L 117.795042 220.798702 
L 113.263554 218.798597 
L 110.815509 221.757086 
L 101.335844 225.632289 
L 86.074625 229.25748 
L 65.344369 233.924392 
L 47.478847 228.549109 
L 38.780473 227.882408 
L 29.977927 228.757454 
z
" clip-path="url(#p11645a3467)" style="fill: #fb363b"/>
   </g>
   <g id="PolyCollection_2">
    <path d="M 29.977927 143.086285 
L 29.977927 228.757454 
L 38.780473 227.882408 
L 47.478847 228.549109 
L 65.344369 233.924392 
L 86.074625 229.25748 
L 101.335844 225.632289 
L 110.815509 221.757086 
L 113.263554 218.798597 
L 117.795042 220.798702 
L 119.878485 220.465351 
L 120.138915 220.50702 
L 123.576596 220.215338 
L 124.462059 220.132 
L 125.191264 220.215338 
L 126.076727 220.006994 
L 126.649674 219.756981 
L 127.535137 219.631974 
L 128.055998 219.548636 
L 128.993547 219.465299 
L 130.243613 219.381961 
L 131.233248 219.006941 
L 131.597851 219.04861 
L 132.639572 218.298571 
L 133.368777 217.96522 
L 134.150068 217.96522 
L 134.983446 217.840213 
L 135.556392 217.756875 
L 136.077253 217.548531 
L 137.535663 217.798544 
L 138.577384 217.548531 
L 139.358675 217.548531 
L 139.56702 217.548531 
L 140.296225 217.173511 
L 141.390032 216.423472 
L 142.535926 216.381803 
L 143.317217 216.340134 
L 144.46311 216.256797 
L 145.973606 216.215128 
L 148.057049 215.75677 
L 149.880062 215.173406 
L 151.442644 214.29836 
L 154.359464 214.006678 
L 155.609529 213.58999 
L 158.995124 213.339977 
L 161.182739 212.173249 
L 162.536977 211.714891 
L 163.370354 211.673222 
L 166.651776 211.75656 
L 168.474789 209.548111 
L 170.349887 209.339766 
L 174.047998 209.256429 
L 177.485679 209.131422 
L 178.058626 209.089753 
L 178.735745 208.881409 
L 179.777466 208.756402 
L 180.610843 208.923078 
L 183.163061 208.83974 
L 188.267496 208.13137 
L 189.257131 208.048032 
L 194.049049 207.506337 
L 195.142857 207.75635 
L 196.236664 207.75635 
L 198.007591 207.00631 
L 199.466001 207.047979 
L 200.872325 207.214655 
L 201.757788 206.214602 
L 204.622522 205.547901 
L 207.591428 205.422894 
L 209.049838 205.297887 
L 210.091559 205.297887 
L 211.393711 205.422894 
L 212.487518 205.381225 
L 213.78967 205.172881 
L 216.862748 204.381173 
L 218.477417 204.256166 
L 220.039999 204.214497 
L 221.654667 204.172828 
L 223.217249 204.131159 
L 224.831917 204.089491 
L 226.446585 204.006153 
L 227.957081 204.006153 
L 229.57175 203.839477 
L 231.134332 203.714471 
L 232.749 203.672802 
L 234.311582 203.422789 
L 235.92625 203.297782 
L 237.540918 203.089438 
L 239.1035 202.714418 
L 240.718169 202.506074 
L 242.280751 202.256061 
L 243.895419 202.172723 
L 245.510087 201.881041 
L 246.968497 201.756035 
L 248.583165 201.672697 
L 250.145747 200.547638 
L 251.760416 200.214287 
L 253.322998 199.714261 
L 254.937666 199.630923 
L 256.552334 198.922552 
L 258.114916 198.672539 
L 259.729584 198.63087 
L 261.292167 198.130844 
L 262.906835 197.9225 
L 264.521503 197.9225 
L 265.979913 197.880831 
L 267.594581 197.672487 
L 269.157163 197.505811 
L 270.771831 197.130792 
L 272.334413 196.880778 
L 273.949082 196.589096 
L 275.56375 196.505759 
L 277.126332 196.172408 
L 278.741 195.797388 
L 280.303582 195.505706 
L 281.91825 195.339031 
L 283.532919 195.089018 
L 284.991329 195.089018 
L 286.605997 194.880673 
L 288.168579 194.797336 
L 289.783247 195.422368 
L 291.345829 195.297362 
L 292.960497 195.130686 
L 294.575166 195.089018 
L 296.137748 195.047349 
L 297.752416 194.839004 
L 299.314998 194.839004 
L 300.929666 194.755667 
L 302.544334 194.547322 
L 304.05483 194.505654 
L 305.669499 194.422316 
L 307.232081 194.005627 
L 308.846749 194.005627 
L 310.409331 193.797283 
L 312.023999 193.338926 
L 313.638667 193.213919 
L 315.201249 193.130581 
L 316.815918 192.922237 
L 318.3785 192.79723 
L 319.993168 192.005522 
L 321.607836 191.922184 
L 323.066246 191.880516 
L 324.680914 191.588834 
L 326.243496 191.505496 
L 327.858165 191.463827 
L 329.420747 191.547165 
L 331.035415 192.213866 
L 332.650083 191.422158 
L 334.212665 191.130476 
L 335.827333 189.297047 
L 337.389916 189.130371 
L 339.004584 188.963696 
L 340.619252 188.922027 
L 342.077662 188.755351 
L 343.69233 188.588676 
L 345.254912 188.255325 
L 346.86958 188.08865 
L 348.432162 187.838637 
L 350.046831 187.71363 
L 351.661499 187.588623 
L 353.224081 187.588623 
L 354.838749 187.546955 
L 356.401331 187.463617 
L 358.015999 187.421948 
L 359.630668 187.380279 
L 361.089078 187.380279 
L 362.703746 187.33861 
L 364.266328 187.255273 
L 365.880996 187.171935 
L 367.443578 187.046928 
L 369.058246 186.796915 
L 370.672915 186.63024 
L 372.235497 186.546902 
L 373.850165 186.421895 
L 375.412747 186.421895 
L 377.027415 186.421895 
L 378.642083 186.338558 
L 380.152579 186.25522 
L 381.767248 186.130213 
L 383.32983 185.755194 
L 384.944498 185.671856 
L 386.50708 185.671856 
L 388.121748 185.588518 
L 389.736416 185.546849 
L 391.298999 185.380174 
L 392.913667 185.296836 
L 394.476249 185.130161 
L 396.090917 185.088492 
L 397.705585 184.630135 
L 399.163995 184.505128 
L 400.778663 183.963433 
L 402.341245 183.796757 
L 403.955914 183.796757 
L 405.518496 183.505075 
L 407.133164 183.296731 
L 408.747832 183.3384 
L 410.310414 183.088387 
L 411.925082 182.755036 
L 413.487665 182.546692 
L 415.102333 182.338347 
L 416.717001 182.338347 
L 418.175411 182.296679 
L 419.790079 182.338347 
L 421.352661 182.421685 
L 422.967329 182.338347 
L 424.529912 182.380016 
L 426.14458 182.380016 
L 427.759248 182.338347 
L 429.32183 182.338347 
L 430.936498 182.088334 
L 432.49908 181.963328 
L 434.113748 181.838321 
L 435.728417 181.87999 
L 437.186827 181.254957 
L 438.801495 180.879938 
L 440.364077 180.879938 
L 441.978745 180.754931 
L 443.541327 180.504918 
L 445.155995 180.004892 
L 446.770664 179.879885 
L 448.333246 179.838216 
L 449.947914 179.71321 
L 449.947914 100.125694 
L 449.947914 100.125694 
L 448.333246 100.292369 
L 446.770664 100.375707 
L 445.155995 100.375707 
L 443.541327 100.667389 
L 441.978745 100.917402 
L 440.364077 101.042409 
L 438.801495 101.042409 
L 437.186827 101.084077 
L 435.728417 101.250753 
L 434.113748 101.375759 
L 432.49908 101.459097 
L 430.936498 101.459097 
L 429.32183 101.500766 
L 427.759248 101.375759 
L 426.14458 101.417428 
L 424.529912 101.417428 
L 422.967329 101.625773 
L 421.352661 101.584104 
L 419.790079 101.584104 
L 418.175411 101.625773 
L 416.717001 101.70911 
L 415.102333 101.70911 
L 413.487665 101.834117 
L 411.925082 101.792448 
L 410.310414 101.917455 
L 408.747832 101.959123 
L 407.133164 102.000792 
L 405.518496 102.042461 
L 403.955914 102.08413 
L 402.341245 102.042461 
L 400.778663 102.167468 
L 399.163995 102.375812 
L 397.705585 102.542487 
L 396.090917 102.584156 
L 394.476249 102.584156 
L 392.913667 102.667494 
L 391.298999 102.709163 
L 389.736416 102.792501 
L 388.121748 102.792501 
L 386.50708 102.834169 
L 384.944498 102.875838 
L 383.32983 102.750832 
L 381.767248 102.709163 
L 380.152579 102.750832 
L 378.642083 102.667494 
L 377.027415 102.667494 
L 375.412747 102.667494 
L 373.850165 102.667494 
L 372.235497 102.667494 
L 370.672915 102.709163 
L 369.058246 102.667494 
L 367.443578 102.709163 
L 365.880996 102.709163 
L 364.266328 102.584156 
L 362.703746 102.584156 
L 361.089078 102.625825 
L 359.630668 102.625825 
L 358.015999 102.709163 
L 356.401331 102.709163 
L 354.838749 102.792501 
L 353.224081 102.792501 
L 351.661499 102.792501 
L 350.046831 102.834169 
L 348.432162 102.834169 
L 346.86958 102.834169 
L 345.254912 102.875838 
L 343.69233 102.917507 
L 342.077662 103.250858 
L 340.619252 103.375865 
L 339.004584 103.292527 
L 337.389916 103.375865 
L 335.827333 103.500871 
L 334.212665 103.54254 
L 332.650083 104.125904 
L 331.035415 104.459255 
L 329.420747 106.751042 
L 327.858165 108.042777 
L 326.243496 108.501134 
L 324.680914 108.501134 
L 323.066246 108.834485 
L 321.607836 108.751147 
L 319.993168 107.91777 
L 318.3785 108.126114 
L 316.815918 108.584472 
L 315.201249 108.584472 
L 313.638667 108.459465 
L 312.023999 108.626141 
L 310.409331 108.667809 
L 308.846749 108.667809 
L 307.232081 108.709478 
L 305.669499 108.792816 
L 304.05483 108.792816 
L 302.544334 108.834485 
L 300.929666 108.834485 
L 299.314998 108.959491 
L 297.752416 109.00116 
L 296.137748 109.042829 
L 294.575166 109.042829 
L 292.960497 109.00116 
L 291.345829 109.042829 
L 289.783247 109.00116 
L 288.168579 109.667862 
L 286.605997 109.626193 
L 284.991329 109.709531 
L 283.532919 109.792868 
L 281.91825 109.917875 
L 280.303582 109.876206 
L 278.741 110.167888 
L 277.126332 110.292895 
L 275.56375 110.45957 
L 273.949082 110.667914 
L 272.334413 110.709583 
L 270.771831 110.626246 
L 269.157163 110.709583 
L 267.594581 110.751252 
L 265.979913 110.751252 
L 264.521503 110.751252 
L 262.906835 110.751252 
L 261.292167 110.917928 
L 259.729584 111.001265 
L 258.114916 111.251278 
L 256.552334 111.292947 
L 254.937666 111.54296 
L 253.322998 111.626298 
L 251.760416 111.876311 
L 250.145747 112.001318 
L 248.583165 112.167993 
L 246.968497 112.209662 
L 245.510087 112.251331 
L 243.895419 112.418006 
L 242.280751 112.418006 
L 240.718169 112.626351 
L 239.1035 112.918033 
L 237.540918 113.084708 
L 235.92625 113.251384 
L 234.311582 113.459728 
L 232.749 113.543066 
L 231.134332 113.876416 
L 229.57175 113.876416 
L 227.957081 113.918085 
L 226.446585 113.918085 
L 224.831917 113.918085 
L 223.217249 113.918085 
L 221.654667 113.918085 
L 220.039999 113.959754 
L 218.477417 114.12643 
L 216.862748 114.209767 
L 213.78967 114.709794 
L 212.487518 115.334826 
L 211.393711 115.626508 
L 210.091559 115.043144 
L 209.049838 115.376495 
L 207.591428 115.501502 
L 204.622522 115.668177 
L 201.757788 115.668177 
L 200.872325 115.834853 
L 199.466001 116.376548 
L 198.007591 116.334879 
L 196.236664 117.293263 
L 195.142857 117.293263 
L 194.049049 117.75162 
L 189.257131 118.043302 
L 188.267496 118.12664 
L 183.163061 119.293368 
L 180.610843 120.335089 
L 179.777466 120.376758 
L 178.735745 120.376758 
L 178.058626 120.376758 
L 177.485679 120.418427 
L 174.047998 119.960069 
L 170.349887 120.501765 
L 168.474789 120.710109 
L 166.651776 120.918453 
L 163.370354 121.04346 
L 162.536977 121.126797 
L 161.182739 121.335142 
L 158.995124 121.668493 
L 155.609529 121.501817 
L 154.359464 121.835168 
L 151.442644 121.793499 
L 149.880062 121.710161 
L 148.057049 122.085181 
L 145.973606 122.001843 
L 144.46311 121.876837 
L 143.317217 122.168519 
L 142.535926 122.210188 
L 141.390032 121.418479 
L 140.296225 121.460148 
L 139.56702 121.626824 
L 139.358675 121.626824 
L 138.577384 121.585155 
L 137.535663 122.12685 
L 136.077253 121.543486 
L 135.556392 121.543486 
L 134.983446 121.585155 
L 134.150068 121.626824 
L 133.368777 121.418479 
L 132.639572 121.876837 
L 131.597851 122.001843 
L 131.233248 121.75183 
L 130.243613 121.918506 
L 128.993547 121.876837 
L 128.055998 122.418532 
L 127.535137 122.335194 
L 126.649674 122.335194 
L 126.076727 120.460096 
L 125.191264 120.876784 
L 124.462059 119.835063 
L 123.576596 119.58505 
L 120.138915 119.876732 
L 119.878485 119.710056 
L 117.795042 120.001738 
L 113.263554 121.876837 
L 110.815509 122.793552 
L 101.335844 125.002001 
L 86.074625 128.168834 
L 65.344369 132.210713 
L 47.478847 138.669386 
L 38.780473 142.752934 
L 29.977927 143.086285 
z
" clip-path="url(#p11645a3467)" style="fill: #fdc92c"/>
   </g>
   <g id="PolyCollection_3">
    <path d="M 29.977927 110.251226 
L 29.977927 143.086285 
L 38.780473 142.752934 
L 47.478847 138.669386 
L 65.344369 132.210713 
L 86.074625 128.168834 
L 101.335844 125.002001 
L 110.815509 122.793552 
L 113.263554 121.876837 
L 117.795042 120.001738 
L 119.878485 119.710056 
L 120.138915 119.876732 
L 123.576596 119.58505 
L 124.462059 119.835063 
L 125.191264 120.876784 
L 126.076727 120.460096 
L 126.649674 122.335194 
L 127.535137 122.335194 
L 128.055998 122.418532 
L 128.993547 121.876837 
L 130.243613 121.918506 
L 131.233248 121.75183 
L 131.597851 122.001843 
L 132.639572 121.876837 
L 133.368777 121.418479 
L 134.150068 121.626824 
L 134.983446 121.585155 
L 135.556392 121.543486 
L 136.077253 121.543486 
L 137.535663 122.12685 
L 138.577384 121.585155 
L 139.358675 121.626824 
L 139.56702 121.626824 
L 140.296225 121.460148 
L 141.390032 121.418479 
L 142.535926 122.210188 
L 143.317217 122.168519 
L 144.46311 121.876837 
L 145.973606 122.001843 
L 148.057049 122.085181 
L 149.880062 121.710161 
L 151.442644 121.793499 
L 154.359464 121.835168 
L 155.609529 121.501817 
L 158.995124 121.668493 
L 161.182739 121.335142 
L 162.536977 121.126797 
L 163.370354 121.04346 
L 166.651776 120.918453 
L 168.474789 120.710109 
L 170.349887 120.501765 
L 174.047998 119.960069 
L 177.485679 120.418427 
L 178.058626 120.376758 
L 178.735745 120.376758 
L 179.777466 120.376758 
L 180.610843 120.335089 
L 183.163061 119.293368 
L 188.267496 118.12664 
L 189.257131 118.043302 
L 194.049049 117.75162 
L 195.142857 117.293263 
L 196.236664 117.293263 
L 198.007591 116.334879 
L 199.466001 116.376548 
L 200.872325 115.834853 
L 201.757788 115.668177 
L 204.622522 115.668177 
L 207.591428 115.501502 
L 209.049838 115.376495 
L 210.091559 115.043144 
L 211.393711 115.626508 
L 212.487518 115.334826 
L 213.78967 114.709794 
L 216.862748 114.209767 
L 218.477417 114.12643 
L 220.039999 113.959754 
L 221.654667 113.918085 
L 223.217249 113.918085 
L 224.831917 113.918085 
L 226.446585 113.918085 
L 227.957081 113.918085 
L 229.57175 113.876416 
L 231.134332 113.876416 
L 232.749 113.543066 
L 234.311582 113.459728 
L 235.92625 113.251384 
L 237.540918 113.084708 
L 239.1035 112.918033 
L 240.718169 112.626351 
L 242.280751 112.418006 
L 243.895419 112.418006 
L 245.510087 112.251331 
L 246.968497 112.209662 
L 248.583165 112.167993 
L 250.145747 112.001318 
L 251.760416 111.876311 
L 253.322998 111.626298 
L 254.937666 111.54296 
L 256.552334 111.292947 
L 258.114916 111.251278 
L 259.729584 111.001265 
L 261.292167 110.917928 
L 262.906835 110.751252 
L 264.521503 110.751252 
L 265.979913 110.751252 
L 267.594581 110.751252 
L 269.157163 110.709583 
L 270.771831 110.626246 
L 272.334413 110.709583 
L 273.949082 110.667914 
L 275.56375 110.45957 
L 277.126332 110.292895 
L 278.741 110.167888 
L 280.303582 109.876206 
L 281.91825 109.917875 
L 283.532919 109.792868 
L 284.991329 109.709531 
L 286.605997 109.626193 
L 288.168579 109.667862 
L 289.783247 109.00116 
L 291.345829 109.042829 
L 292.960497 109.00116 
L 294.575166 109.042829 
L 296.137748 109.042829 
L 297.752416 109.00116 
L 299.314998 108.959491 
L 300.929666 108.834485 
L 302.544334 108.834485 
L 304.05483 108.792816 
L 305.669499 108.792816 
L 307.232081 108.709478 
L 308.846749 108.667809 
L 310.409331 108.667809 
L 312.023999 108.626141 
L 313.638667 108.459465 
L 315.201249 108.584472 
L 316.815918 108.584472 
L 318.3785 108.126114 
L 319.993168 107.91777 
L 321.607836 108.751147 
L 323.066246 108.834485 
L 324.680914 108.501134 
L 326.243496 108.501134 
L 327.858165 108.042777 
L 329.420747 106.751042 
L 331.035415 104.459255 
L 332.650083 104.125904 
L 334.212665 103.54254 
L 335.827333 103.500871 
L 337.389916 103.375865 
L 339.004584 103.292527 
L 340.619252 103.375865 
L 342.077662 103.250858 
L 343.69233 102.917507 
L 345.254912 102.875838 
L 346.86958 102.834169 
L 348.432162 102.834169 
L 350.046831 102.834169 
L 351.661499 102.792501 
L 353.224081 102.792501 
L 354.838749 102.792501 
L 356.401331 102.709163 
L 358.015999 102.709163 
L 359.630668 102.625825 
L 361.089078 102.625825 
L 362.703746 102.584156 
L 364.266328 102.584156 
L 365.880996 102.709163 
L 367.443578 102.709163 
L 369.058246 102.667494 
L 370.672915 102.709163 
L 372.235497 102.667494 
L 373.850165 102.667494 
L 375.412747 102.667494 
L 377.027415 102.667494 
L 378.642083 102.667494 
L 380.152579 102.750832 
L 381.767248 102.709163 
L 383.32983 102.750832 
L 384.944498 102.875838 
L 386.50708 102.834169 
L 388.121748 102.792501 
L 389.736416 102.792501 
L 391.298999 102.709163 
L 392.913667 102.667494 
L 394.476249 102.584156 
L 396.090917 102.584156 
L 397.705585 102.542487 
L 399.163995 102.375812 
L 400.778663 102.167468 
L 402.341245 102.042461 
L 403.955914 102.08413 
L 405.518496 102.042461 
L 407.133164 102.000792 
L 408.747832 101.959123 
L 410.310414 101.917455 
L 411.925082 101.792448 
L 413.487665 101.834117 
L 415.102333 101.70911 
L 416.717001 101.70911 
L 418.175411 101.625773 
L 419.790079 101.584104 
L 421.352661 101.584104 
L 422.967329 101.625773 
L 424.529912 101.417428 
L 426.14458 101.417428 
L 427.759248 101.375759 
L 429.32183 101.500766 
L 430.936498 101.459097 
L 432.49908 101.459097 
L 434.113748 101.375759 
L 435.728417 101.250753 
L 437.186827 101.084077 
L 438.801495 101.042409 
L 440.364077 101.042409 
L 441.978745 100.917402 
L 443.541327 100.667389 
L 445.155995 100.375707 
L 446.770664 100.375707 
L 448.333246 100.292369 
L 449.947914 100.125694 
L 449.947914 85.208243 
L 449.947914 85.208243 
L 448.333246 85.208243 
L 446.770664 85.208243 
L 445.155995 85.208243 
L 443.541327 85.291581 
L 441.978745 85.291581 
L 440.364077 85.291581 
L 438.801495 85.291581 
L 437.186827 85.291581 
L 435.728417 85.33325 
L 434.113748 85.33325 
L 432.49908 85.416587 
L 430.936498 85.416587 
L 429.32183 85.458256 
L 427.759248 85.458256 
L 426.14458 85.458256 
L 424.529912 85.458256 
L 422.967329 85.541594 
L 421.352661 85.624932 
L 419.790079 85.624932 
L 418.175411 85.624932 
L 416.717001 85.624932 
L 415.102333 85.624932 
L 413.487665 85.666601 
L 411.925082 85.624932 
L 410.310414 85.708269 
L 408.747832 85.708269 
L 407.133164 85.708269 
L 405.518496 85.749938 
L 403.955914 85.749938 
L 402.341245 85.749938 
L 400.778663 85.791607 
L 399.163995 85.833276 
L 397.705585 85.874945 
L 396.090917 85.874945 
L 394.476249 85.833276 
L 392.913667 85.833276 
L 391.298999 85.833276 
L 389.736416 85.791607 
L 388.121748 85.791607 
L 386.50708 85.833276 
L 384.944498 85.833276 
L 383.32983 85.749938 
L 381.767248 85.708269 
L 380.152579 85.708269 
L 378.642083 85.749938 
L 377.027415 85.749938 
L 375.412747 85.749938 
L 373.850165 85.749938 
L 372.235497 85.749938 
L 370.672915 85.749938 
L 369.058246 85.749938 
L 367.443578 85.749938 
L 365.880996 85.749938 
L 364.266328 85.666601 
L 362.703746 85.666601 
L 361.089078 85.666601 
L 359.630668 85.666601 
L 358.015999 85.624932 
L 356.401331 85.624932 
L 354.838749 85.708269 
L 353.224081 85.708269 
L 351.661499 85.708269 
L 350.046831 85.749938 
L 348.432162 85.749938 
L 346.86958 85.749938 
L 345.254912 85.791607 
L 343.69233 85.833276 
L 342.077662 85.916614 
L 340.619252 85.916614 
L 339.004584 85.916614 
L 337.389916 86.083289 
L 335.827333 86.083289 
L 334.212665 86.083289 
L 332.650083 85.958283 
L 331.035415 85.999951 
L 329.420747 86.208296 
L 327.858165 87.208348 
L 326.243496 87.375024 
L 324.680914 87.416693 
L 323.066246 87.458361 
L 321.607836 87.458361 
L 319.993168 87.458361 
L 318.3785 87.458361 
L 316.815918 87.50003 
L 315.201249 87.50003 
L 313.638667 87.541699 
L 312.023999 87.583368 
L 310.409331 87.625037 
L 308.846749 87.625037 
L 307.232081 87.625037 
L 305.669499 87.625037 
L 304.05483 87.625037 
L 302.544334 87.666706 
L 300.929666 87.666706 
L 299.314998 87.708375 
L 297.752416 87.750043 
L 296.137748 87.750043 
L 294.575166 87.750043 
L 292.960497 87.750043 
L 291.345829 87.750043 
L 289.783247 87.750043 
L 288.168579 87.750043 
L 286.605997 87.750043 
L 284.991329 87.833381 
L 283.532919 87.833381 
L 281.91825 87.833381 
L 280.303582 87.87505 
L 278.741 87.87505 
L 277.126332 87.916719 
L 275.56375 88.083394 
L 273.949082 89.083447 
L 272.334413 89.083447 
L 270.771831 89.083447 
L 269.157163 89.166785 
L 267.594581 89.166785 
L 265.979913 89.166785 
L 264.521503 89.166785 
L 262.906835 89.166785 
L 261.292167 89.166785 
L 259.729584 89.250122 
L 258.114916 89.166785 
L 256.552334 89.208453 
L 254.937666 89.291791 
L 253.322998 89.375129 
L 251.760416 89.583473 
L 250.145747 89.625142 
L 248.583165 89.625142 
L 246.968497 89.625142 
L 245.510087 89.625142 
L 243.895419 89.70848 
L 242.280751 89.70848 
L 240.718169 89.791817 
L 239.1035 89.791817 
L 237.540918 89.666811 
L 235.92625 89.750149 
L 234.311582 89.750149 
L 232.749 89.750149 
L 231.134332 89.791817 
L 229.57175 89.791817 
L 227.957081 89.791817 
L 226.446585 89.833486 
L 224.831917 89.833486 
L 223.217249 89.875155 
L 221.654667 89.833486 
L 220.039999 89.833486 
L 218.477417 89.916824 
L 216.862748 89.958493 
L 213.78967 90.250175 
L 212.487518 90.875208 
L 211.393711 91.16689 
L 210.091559 90.500188 
L 209.049838 91.041883 
L 207.591428 91.083552 
L 204.622522 92.041936 
L 201.757788 92.041936 
L 200.872325 92.000267 
L 199.466001 92.166942 
L 198.007591 92.166942 
L 196.236664 92.25028 
L 195.142857 92.25028 
L 194.049049 92.291949 
L 189.257131 92.458624 
L 188.267496 92.458624 
L 183.163061 93.542014 
L 180.610843 93.667021 
L 179.777466 93.70869 
L 178.735745 93.833696 
L 178.058626 93.833696 
L 177.485679 93.833696 
L 174.047998 93.833696 
L 170.349887 94.08371 
L 168.474789 94.208716 
L 166.651776 94.250385 
L 163.370354 94.333723 
L 162.536977 94.458729 
L 161.182739 94.667074 
L 158.995124 94.917087 
L 155.609529 95.083762 
L 154.359464 95.750464 
L 151.442644 95.792133 
L 149.880062 96.083815 
L 148.057049 96.417166 
L 145.973606 96.500503 
L 144.46311 96.500503 
L 143.317217 96.500503 
L 142.535926 96.500503 
L 141.390032 96.667179 
L 140.296225 96.833854 
L 139.56702 96.958861 
L 139.358675 96.958861 
L 138.577384 96.917192 
L 137.535663 97.500556 
L 136.077253 97.00053 
L 135.556392 97.00053 
L 134.983446 97.083867 
L 134.150068 97.083867 
L 133.368777 97.083867 
L 132.639572 97.7089 
L 131.597851 97.7089 
L 131.233248 97.208874 
L 130.243613 97.833907 
L 128.993547 99.000635 
L 128.055998 99.959018 
L 127.535137 100.000687 
L 126.649674 100.000687 
L 126.076727 100.042356 
L 125.191264 100.667389 
L 124.462059 100.084025 
L 123.576596 100.084025 
L 120.138915 100.375707 
L 119.878485 100.417376 
L 117.795042 100.459045 
L 113.263554 97.7089 
L 110.815509 100.62572 
L 101.335844 102.625825 
L 86.074625 104.667599 
L 65.344369 106.08434 
L 47.478847 108.209452 
L 38.780473 110.709583 
L 29.977927 110.251226 
z
" clip-path="url(#p11645a3467)" style="fill: #aeaeae"/>
   </g>
   <g id="PolyCollection_4">
    <path d="M 29.977927 84.95823 
L 29.977927 110.251226 
L 38.780473 110.709583 
L 47.478847 108.209452 
L 65.344369 106.08434 
L 86.074625 104.667599 
L 101.335844 102.625825 
L 110.815509 100.62572 
L 113.263554 97.7089 
L 117.795042 100.459045 
L 119.878485 100.417376 
L 120.138915 100.375707 
L 123.576596 100.084025 
L 124.462059 100.084025 
L 125.191264 100.667389 
L 126.076727 100.042356 
L 126.649674 100.000687 
L 127.535137 100.000687 
L 128.055998 99.959018 
L 128.993547 99.000635 
L 130.243613 97.833907 
L 131.233248 97.208874 
L 131.597851 97.7089 
L 132.639572 97.7089 
L 133.368777 97.083867 
L 134.150068 97.083867 
L 134.983446 97.083867 
L 135.556392 97.00053 
L 136.077253 97.00053 
L 137.535663 97.500556 
L 138.577384 96.917192 
L 139.358675 96.958861 
L 139.56702 96.958861 
L 140.296225 96.833854 
L 141.390032 96.667179 
L 142.535926 96.500503 
L 143.317217 96.500503 
L 144.46311 96.500503 
L 145.973606 96.500503 
L 148.057049 96.417166 
L 149.880062 96.083815 
L 151.442644 95.792133 
L 154.359464 95.750464 
L 155.609529 95.083762 
L 158.995124 94.917087 
L 161.182739 94.667074 
L 162.536977 94.458729 
L 163.370354 94.333723 
L 166.651776 94.250385 
L 168.474789 94.208716 
L 170.349887 94.08371 
L 174.047998 93.833696 
L 177.485679 93.833696 
L 178.058626 93.833696 
L 178.735745 93.833696 
L 179.777466 93.70869 
L 180.610843 93.667021 
L 183.163061 93.542014 
L 188.267496 92.458624 
L 189.257131 92.458624 
L 194.049049 92.291949 
L 195.142857 92.25028 
L 196.236664 92.25028 
L 198.007591 92.166942 
L 199.466001 92.166942 
L 200.872325 92.000267 
L 201.757788 92.041936 
L 204.622522 92.041936 
L 207.591428 91.083552 
L 209.049838 91.041883 
L 210.091559 90.500188 
L 211.393711 91.16689 
L 212.487518 90.875208 
L 213.78967 90.250175 
L 216.862748 89.958493 
L 218.477417 89.916824 
L 220.039999 89.833486 
L 221.654667 89.833486 
L 223.217249 89.875155 
L 224.831917 89.833486 
L 226.446585 89.833486 
L 227.957081 89.791817 
L 229.57175 89.791817 
L 231.134332 89.791817 
L 232.749 89.750149 
L 234.311582 89.750149 
L 235.92625 89.750149 
L 237.540918 89.666811 
L 239.1035 89.791817 
L 240.718169 89.791817 
L 242.280751 89.70848 
L 243.895419 89.70848 
L 245.510087 89.625142 
L 246.968497 89.625142 
L 248.583165 89.625142 
L 250.145747 89.625142 
L 251.760416 89.583473 
L 253.322998 89.375129 
L 254.937666 89.291791 
L 256.552334 89.208453 
L 258.114916 89.166785 
L 259.729584 89.250122 
L 261.292167 89.166785 
L 262.906835 89.166785 
L 264.521503 89.166785 
L 265.979913 89.166785 
L 267.594581 89.166785 
L 269.157163 89.166785 
L 270.771831 89.083447 
L 272.334413 89.083447 
L 273.949082 89.083447 
L 275.56375 88.083394 
L 277.126332 87.916719 
L 278.741 87.87505 
L 280.303582 87.87505 
L 281.91825 87.833381 
L 283.532919 87.833381 
L 284.991329 87.833381 
L 286.605997 87.750043 
L 288.168579 87.750043 
L 289.783247 87.750043 
L 291.345829 87.750043 
L 292.960497 87.750043 
L 294.575166 87.750043 
L 296.137748 87.750043 
L 297.752416 87.750043 
L 299.314998 87.708375 
L 300.929666 87.666706 
L 302.544334 87.666706 
L 304.05483 87.625037 
L 305.669499 87.625037 
L 307.232081 87.625037 
L 308.846749 87.625037 
L 310.409331 87.625037 
L 312.023999 87.583368 
L 313.638667 87.541699 
L 315.201249 87.50003 
L 316.815918 87.50003 
L 318.3785 87.458361 
L 319.993168 87.458361 
L 321.607836 87.458361 
L 323.066246 87.458361 
L 324.680914 87.416693 
L 326.243496 87.375024 
L 327.858165 87.208348 
L 329.420747 86.208296 
L 331.035415 85.999951 
L 332.650083 85.958283 
L 334.212665 86.083289 
L 335.827333 86.083289 
L 337.389916 86.083289 
L 339.004584 85.916614 
L 340.619252 85.916614 
L 342.077662 85.916614 
L 343.69233 85.833276 
L 345.254912 85.791607 
L 346.86958 85.749938 
L 348.432162 85.749938 
L 350.046831 85.749938 
L 351.661499 85.708269 
L 353.224081 85.708269 
L 354.838749 85.708269 
L 356.401331 85.624932 
L 358.015999 85.624932 
L 359.630668 85.666601 
L 361.089078 85.666601 
L 362.703746 85.666601 
L 364.266328 85.666601 
L 365.880996 85.749938 
L 367.443578 85.749938 
L 369.058246 85.749938 
L 370.672915 85.749938 
L 372.235497 85.749938 
L 373.850165 85.749938 
L 375.412747 85.749938 
L 377.027415 85.749938 
L 378.642083 85.749938 
L 380.152579 85.708269 
L 381.767248 85.708269 
L 383.32983 85.749938 
L 384.944498 85.833276 
L 386.50708 85.833276 
L 388.121748 85.791607 
L 389.736416 85.791607 
L 391.298999 85.833276 
L 392.913667 85.833276 
L 394.476249 85.833276 
L 396.090917 85.874945 
L 397.705585 85.874945 
L 399.163995 85.833276 
L 400.778663 85.791607 
L 402.341245 85.749938 
L 403.955914 85.749938 
L 405.518496 85.749938 
L 407.133164 85.708269 
L 408.747832 85.708269 
L 410.310414 85.708269 
L 411.925082 85.624932 
L 413.487665 85.666601 
L 415.102333 85.624932 
L 416.717001 85.624932 
L 418.175411 85.624932 
L 419.790079 85.624932 
L 421.352661 85.624932 
L 422.967329 85.541594 
L 424.529912 85.458256 
L 426.14458 85.458256 
L 427.759248 85.458256 
L 429.32183 85.458256 
L 430.936498 85.416587 
L 432.49908 85.416587 
L 434.113748 85.33325 
L 435.728417 85.33325 
L 437.186827 85.291581 
L 438.801495 85.291581 
L 440.364077 85.291581 
L 441.978745 85.291581 
L 443.541327 85.291581 
L 445.155995 85.208243 
L 446.770664 85.208243 
L 448.333246 85.208243 
L 449.947914 85.208243 
L 449.947914 74.332672 
L 449.947914 74.332672 
L 448.333246 74.332672 
L 446.770664 74.332672 
L 445.155995 74.332672 
L 443.541327 74.332672 
L 441.978745 74.332672 
L 440.364077 74.332672 
L 438.801495 74.332672 
L 437.186827 74.332672 
L 435.728417 74.541016 
L 434.113748 74.582685 
L 432.49908 74.624354 
L 430.936498 74.624354 
L 429.32183 74.624354 
L 427.759248 74.624354 
L 426.14458 74.624354 
L 424.529912 74.624354 
L 422.967329 74.624354 
L 421.352661 74.624354 
L 419.790079 74.624354 
L 418.175411 74.666023 
L 416.717001 74.624354 
L 415.102333 74.624354 
L 413.487665 74.666023 
L 411.925082 74.374341 
L 410.310414 74.374341 
L 408.747832 73.999321 
L 407.133164 73.999321 
L 405.518496 73.999321 
L 403.955914 73.999321 
L 402.341245 73.999321 
L 400.778663 73.999321 
L 399.163995 74.04099 
L 397.705585 74.04099 
L 396.090917 74.04099 
L 394.476249 73.999321 
L 392.913667 73.999321 
L 391.298999 73.999321 
L 389.736416 74.04099 
L 388.121748 74.04099 
L 386.50708 74.04099 
L 384.944498 74.04099 
L 383.32983 73.957652 
L 381.767248 73.915983 
L 380.152579 73.915983 
L 378.642083 73.915983 
L 377.027415 73.915983 
L 375.412747 73.915983 
L 373.850165 73.915983 
L 372.235497 73.915983 
L 370.672915 73.915983 
L 369.058246 73.915983 
L 367.443578 73.915983 
L 365.880996 73.915983 
L 364.266328 73.832645 
L 362.703746 73.832645 
L 361.089078 73.832645 
L 359.630668 73.832645 
L 358.015999 73.832645 
L 356.401331 73.832645 
L 354.838749 73.832645 
L 353.224081 73.832645 
L 351.661499 73.832645 
L 350.046831 73.790977 
L 348.432162 73.790977 
L 346.86958 73.790977 
L 345.254912 73.790977 
L 343.69233 73.790977 
L 342.077662 73.790977 
L 340.619252 73.790977 
L 339.004584 73.790977 
L 337.389916 73.790977 
L 335.827333 73.790977 
L 334.212665 73.790977 
L 332.650083 73.790977 
L 331.035415 73.790977 
L 329.420747 73.790977 
L 327.858165 73.790977 
L 326.243496 73.790977 
L 324.680914 73.790977 
L 323.066246 73.790977 
L 321.607836 73.790977 
L 319.993168 73.790977 
L 318.3785 73.790977 
L 316.815918 73.790977 
L 315.201249 73.790977 
L 313.638667 73.790977 
L 312.023999 73.790977 
L 310.409331 73.790977 
L 308.846749 73.790977 
L 307.232081 73.790977 
L 305.669499 73.790977 
L 304.05483 74.165996 
L 302.544334 74.207665 
L 300.929666 74.207665 
L 299.314998 74.207665 
L 297.752416 74.374341 
L 296.137748 74.374341 
L 294.575166 74.374341 
L 292.960497 74.374341 
L 291.345829 74.374341 
L 289.783247 74.374341 
L 288.168579 74.374341 
L 286.605997 74.374341 
L 284.991329 74.374341 
L 283.532919 74.374341 
L 281.91825 74.374341 
L 280.303582 74.416009 
L 278.741 74.416009 
L 277.126332 74.416009 
L 275.56375 74.416009 
L 273.949082 74.124327 
L 272.334413 74.291003 
L 270.771831 74.249334 
L 269.157163 74.249334 
L 267.594581 74.249334 
L 265.979913 74.249334 
L 264.521503 74.249334 
L 262.906835 74.249334 
L 261.292167 74.249334 
L 259.729584 74.291003 
L 258.114916 74.291003 
L 256.552334 74.291003 
L 254.937666 74.249334 
L 253.322998 74.249334 
L 251.760416 74.249334 
L 250.145747 74.249334 
L 248.583165 74.249334 
L 246.968497 74.249334 
L 245.510087 74.249334 
L 243.895419 74.249334 
L 242.280751 74.249334 
L 240.718169 74.249334 
L 239.1035 74.291003 
L 237.540918 74.249334 
L 235.92625 74.291003 
L 234.311582 74.249334 
L 232.749 74.249334 
L 231.134332 74.249334 
L 229.57175 74.249334 
L 227.957081 74.249334 
L 226.446585 74.249334 
L 224.831917 74.291003 
L 223.217249 74.291003 
L 221.654667 74.249334 
L 220.039999 74.249334 
L 218.477417 74.249334 
L 216.862748 74.332672 
L 213.78967 74.624354 
L 212.487518 75.332724 
L 211.393711 75.416062 
L 210.091559 74.74936 
L 209.049838 76.374446 
L 207.591428 76.374446 
L 204.622522 77.874524 
L 201.757788 77.874524 
L 200.872325 77.832856 
L 199.466001 77.999531 
L 198.007591 77.957862 
L 196.236664 77.957862 
L 195.142857 77.957862 
L 194.049049 77.957862 
L 189.257131 78.291213 
L 188.267496 78.291213 
L 183.163061 78.499557 
L 180.610843 78.457888 
L 179.777466 78.457888 
L 178.735745 78.541226 
L 178.058626 78.541226 
L 177.485679 78.541226 
L 174.047998 79.12459 
L 170.349887 79.249597 
L 168.474789 79.249597 
L 166.651776 79.249597 
L 163.370354 79.249597 
L 162.536977 79.207928 
L 161.182739 79.207928 
L 158.995124 79.082921 
L 155.609529 79.041252 
L 154.359464 80.124643 
L 151.442644 80.249649 
L 149.880062 80.374656 
L 148.057049 80.249649 
L 145.973606 80.249649 
L 144.46311 80.20798 
L 143.317217 80.20798 
L 142.535926 80.20798 
L 141.390032 80.166312 
L 140.296225 80.166312 
L 139.56702 80.20798 
L 139.358675 80.20798 
L 138.577384 80.20798 
L 137.535663 80.666338 
L 136.077253 80.20798 
L 135.556392 80.20798 
L 134.983446 80.249649 
L 134.150068 80.166312 
L 133.368777 80.166312 
L 132.639572 80.583 
L 131.597851 80.499662 
L 131.233248 80.041305 
L 130.243613 80.624669 
L 128.993547 80.457994 
L 128.055998 80.499662 
L 127.535137 80.499662 
L 126.649674 80.499662 
L 126.076727 80.541331 
L 125.191264 81.083026 
L 124.462059 80.499662 
L 123.576596 80.499662 
L 120.138915 81.541384 
L 119.878485 81.583053 
L 117.795042 81.541384 
L 113.263554 80.583 
L 110.815509 81.541384 
L 101.335844 82.374761 
L 86.074625 82.833118 
L 65.344369 83.583158 
L 47.478847 84.041515 
L 38.780473 85.124905 
L 29.977927 84.95823 
z
" clip-path="url(#p11645a3467)" style="fill: #d5dce5"/>
   </g>
   <g id="matplotlib.axis_1">
    <g id="xtick_1">
     <g id="line2d_1">
      <defs>
       <path id="m70315fe13d" d="M 0 0 
L 0 3.5 
" style="stroke: #000000; stroke-width: 0.8"/>
      </defs>
      <g>
       <use xlink:href="#m70315fe13d" x="72.636419" y="285.052079" style="stroke: #000000; stroke-width: 0.8"/>
      </g>
     </g>
     <g id="text_1">
      <!-- 2004 -->
      <g transform="translate(59.911419 299.650516) scale(0.1 -0.1)">
       <defs>
        <path id="DejaVuSans-32" d="M 1228 531 
L 3431 531 
L 3431 0 
L 469 0 
L 469 531 
Q 828 903 1448 1529 
Q 2069 2156 2228 2338 
Q 2531 2678 2651 2914 
Q 2772 3150 2772 3378 
Q 2772 3750 2511 3984 
Q 2250 4219 1831 4219 
Q 1534 4219 1204 4116 
Q 875 4013 500 3803 
L 500 4441 
Q 881 4594 1212 4672 
Q 1544 4750 1819 4750 
Q 2544 4750 2975 4387 
Q 3406 4025 3406 3419 
Q 3406 3131 3298 2873 
Q 3191 2616 2906 2266 
Q 2828 2175 2409 1742 
Q 1991 1309 1228 531 
z
" transform="scale(0.015625)"/>
        <path id="DejaVuSans-30" d="M 2034 4250 
Q 1547 4250 1301 3770 
Q 1056 3291 1056 2328 
Q 1056 1369 1301 889 
Q 1547 409 2034 409 
Q 2525 409 2770 889 
Q 3016 1369 3016 2328 
Q 3016 3291 2770 3770 
Q 2525 4250 2034 4250 
z
M 2034 4750 
Q 2819 4750 3233 4129 
Q 3647 3509 3647 2328 
Q 3647 1150 3233 529 
Q 2819 -91 2034 -91 
Q 1250 -91 836 529 
Q 422 1150 422 2328 
Q 422 3509 836 4129 
Q 1250 4750 2034 4750 
z
" transform="scale(0.015625)"/>
        <path id="DejaVuSans-34" d="M 2419 4116 
L 825 1625 
L 2419 1625 
L 2419 4116 
z
M 2253 4666 
L 3047 4666 
L 3047 1625 
L 3713 1625 
L 3713 1100 
L 3047 1100 
L 3047 0 
L 2419 0 
L 2419 1100 
L 313 1100 
L 313 1709 
L 2253 4666 
z
" transform="scale(0.015625)"/>
       </defs>
       <use xlink:href="#DejaVuSans-32"/>
       <use xlink:href="#DejaVuSans-30" x="63.623047"/>
       <use xlink:href="#DejaVuSans-30" x="127.246094"/>
       <use xlink:href="#DejaVuSans-34" x="190.869141"/>
      </g>
     </g>
    </g>
    <g id="xtick_2">
     <g id="line2d_2">
      <g>
       <use xlink:href="#m70315fe13d" x="110.711337" y="285.052079" style="stroke: #000000; stroke-width: 0.8"/>
      </g>
     </g>
     <g id="text_2">
      <!-- 2006 -->
      <g transform="translate(97.986337 299.650516) scale(0.1 -0.1)">
       <defs>
        <path id="DejaVuSans-36" d="M 2113 2584 
Q 1688 2584 1439 2293 
Q 1191 2003 1191 1497 
Q 1191 994 1439 701 
Q 1688 409 2113 409 
Q 2538 409 2786 701 
Q 3034 994 3034 1497 
Q 3034 2003 2786 2293 
Q 2538 2584 2113 2584 
z
M 3366 4563 
L 3366 3988 
Q 3128 4100 2886 4159 
Q 2644 4219 2406 4219 
Q 1781 4219 1451 3797 
Q 1122 3375 1075 2522 
Q 1259 2794 1537 2939 
Q 1816 3084 2150 3084 
Q 2853 3084 3261 2657 
Q 3669 2231 3669 1497 
Q 3669 778 3244 343 
Q 2819 -91 2113 -91 
Q 1303 -91 875 529 
Q 447 1150 447 2328 
Q 447 3434 972 4092 
Q 1497 4750 2381 4750 
Q 2619 4750 2861 4703 
Q 3103 4656 3366 4563 
z
" transform="scale(0.015625)"/>
       </defs>
       <use xlink:href="#DejaVuSans-32"/>
       <use xlink:href="#DejaVuSans-30" x="63.623047"/>
       <use xlink:href="#DejaVuSans-30" x="127.246094"/>
       <use xlink:href="#DejaVuSans-36" x="190.869141"/>
      </g>
     </g>
    </g>
    <g id="xtick_3">
     <g id="line2d_3">
      <g>
       <use xlink:href="#m70315fe13d" x="148.734168" y="285.052079" style="stroke: #000000; stroke-width: 0.8"/>
      </g>
     </g>
     <g id="text_3">
      <!-- 2008 -->
      <g transform="translate(136.009168 299.650516) scale(0.1 -0.1)">
       <defs>
        <path id="DejaVuSans-38" d="M 2034 2216 
Q 1584 2216 1326 1975 
Q 1069 1734 1069 1313 
Q 1069 891 1326 650 
Q 1584 409 2034 409 
Q 2484 409 2743 651 
Q 3003 894 3003 1313 
Q 3003 1734 2745 1975 
Q 2488 2216 2034 2216 
z
M 1403 2484 
Q 997 2584 770 2862 
Q 544 3141 544 3541 
Q 544 4100 942 4425 
Q 1341 4750 2034 4750 
Q 2731 4750 3128 4425 
Q 3525 4100 3525 3541 
Q 3525 3141 3298 2862 
Q 3072 2584 2669 2484 
Q 3125 2378 3379 2068 
Q 3634 1759 3634 1313 
Q 3634 634 3220 271 
Q 2806 -91 2034 -91 
Q 1263 -91 848 271 
Q 434 634 434 1313 
Q 434 1759 690 2068 
Q 947 2378 1403 2484 
z
M 1172 3481 
Q 1172 3119 1398 2916 
Q 1625 2713 2034 2713 
Q 2441 2713 2670 2916 
Q 2900 3119 2900 3481 
Q 2900 3844 2670 4047 
Q 2441 4250 2034 4250 
Q 1625 4250 1398 4047 
Q 1172 3844 1172 3481 
z
" transform="scale(0.015625)"/>
       </defs>
       <use xlink:href="#DejaVuSans-32"/>
       <use xlink:href="#DejaVuSans-30" x="63.623047"/>
       <use xlink:href="#DejaVuSans-30" x="127.246094"/>
       <use xlink:href="#DejaVuSans-38" x="190.869141"/>
      </g>
     </g>
    </g>
    <g id="xtick_4">
     <g id="line2d_4">
      <g>
       <use xlink:href="#m70315fe13d" x="186.809086" y="285.052079" style="stroke: #000000; stroke-width: 0.8"/>
      </g>
     </g>
     <g id="text_4">
      <!-- 2010 -->
      <g transform="translate(174.084086 299.650516) scale(0.1 -0.1)">
       <defs>
        <path id="DejaVuSans-31" d="M 794 531 
L 1825 531 
L 1825 4091 
L 703 3866 
L 703 4441 
L 1819 4666 
L 2450 4666 
L 2450 531 
L 3481 531 
L 3481 0 
L 794 0 
L 794 531 
z
" transform="scale(0.015625)"/>
       </defs>
       <use xlink:href="#DejaVuSans-32"/>
       <use xlink:href="#DejaVuSans-30" x="63.623047"/>
       <use xlink:href="#DejaVuSans-31" x="127.246094"/>
       <use xlink:href="#DejaVuSans-30" x="190.869141"/>
      </g>
     </g>
    </g>
    <g id="xtick_5">
     <g id="line2d_5">
      <g>
       <use xlink:href="#m70315fe13d" x="224.831917" y="285.052079" style="stroke: #000000; stroke-width: 0.8"/>
      </g>
     </g>
     <g id="text_5">
      <!-- 2012 -->
      <g transform="translate(212.106917 299.650516) scale(0.1 -0.1)">
       <use xlink:href="#DejaVuSans-32"/>
       <use xlink:href="#DejaVuSans-30" x="63.623047"/>
       <use xlink:href="#DejaVuSans-31" x="127.246094"/>
       <use xlink:href="#DejaVuSans-32" x="190.869141"/>
      </g>
     </g>
    </g>
    <g id="xtick_6">
     <g id="line2d_6">
      <g>
       <use xlink:href="#m70315fe13d" x="262.906835" y="285.052079" style="stroke: #000000; stroke-width: 0.8"/>
      </g>
     </g>
     <g id="text_6">
      <!-- 2014 -->
      <g transform="translate(250.181835 299.650516) scale(0.1 -0.1)">
       <use xlink:href="#DejaVuSans-32"/>
       <use xlink:href="#DejaVuSans-30" x="63.623047"/>
       <use xlink:href="#DejaVuSans-31" x="127.246094"/>
       <use xlink:href="#DejaVuSans-34" x="190.869141"/>
      </g>
     </g>
    </g>
    <g id="xtick_7">
     <g id="line2d_7">
      <g>
       <use xlink:href="#m70315fe13d" x="300.929666" y="285.052079" style="stroke: #000000; stroke-width: 0.8"/>
      </g>
     </g>
     <g id="text_7">
      <!-- 2016 -->
      <g transform="translate(288.204666 299.650516) scale(0.1 -0.1)">
       <use xlink:href="#DejaVuSans-32"/>
       <use xlink:href="#DejaVuSans-30" x="63.623047"/>
       <use xlink:href="#DejaVuSans-31" x="127.246094"/>
       <use xlink:href="#DejaVuSans-36" x="190.869141"/>
      </g>
     </g>
    </g>
    <g id="xtick_8">
     <g id="line2d_8">
      <g>
       <use xlink:href="#m70315fe13d" x="339.004584" y="285.052079" style="stroke: #000000; stroke-width: 0.8"/>
      </g>
     </g>
     <g id="text_8">
      <!-- 2018 -->
      <g transform="translate(326.279584 299.650516) scale(0.1 -0.1)">
       <use xlink:href="#DejaVuSans-32"/>
       <use xlink:href="#DejaVuSans-30" x="63.623047"/>
       <use xlink:href="#DejaVuSans-31" x="127.246094"/>
       <use xlink:href="#DejaVuSans-38" x="190.869141"/>
      </g>
     </g>
    </g>
    <g id="xtick_9">
     <g id="line2d_9">
      <g>
       <use xlink:href="#m70315fe13d" x="377.027415" y="285.052079" style="stroke: #000000; stroke-width: 0.8"/>
      </g>
     </g>
     <g id="text_9">
      <!-- 2020 -->
      <g transform="translate(364.302415 299.650516) scale(0.1 -0.1)">
       <use xlink:href="#DejaVuSans-32"/>
       <use xlink:href="#DejaVuSans-30" x="63.623047"/>
       <use xlink:href="#DejaVuSans-32" x="127.246094"/>
       <use xlink:href="#DejaVuSans-30" x="190.869141"/>
      </g>
     </g>
    </g>
    <g id="xtick_10">
     <g id="line2d_10">
      <g>
       <use xlink:href="#m70315fe13d" x="415.102333" y="285.052079" style="stroke: #000000; stroke-width: 0.8"/>
      </g>
     </g>
     <g id="text_10">
      <!-- 2022 -->
      <g transform="translate(402.377333 299.650516) scale(0.1 -0.1)">
       <use xlink:href="#DejaVuSans-32"/>
       <use xlink:href="#DejaVuSans-30" x="63.623047"/>
       <use xlink:href="#DejaVuSans-32" x="127.246094"/>
       <use xlink:href="#DejaVuSans-32" x="190.869141"/>
      </g>
     </g>
    </g>
    <g id="text_11">
     <!-- Year -->
     <g transform="translate(239.86375 317.12786) scale(0.15 -0.15)">
      <defs>
       <path id="DejaVuSans-59" d="M -13 4666 
L 666 4666 
L 1959 2747 
L 3244 4666 
L 3922 4666 
L 2272 2222 
L 2272 0 
L 1638 0 
L 1638 2222 
L -13 4666 
z
" transform="scale(0.015625)"/>
       <path id="DejaVuSans-65" d="M 3597 1894 
L 3597 1613 
L 953 1613 
Q 991 1019 1311 708 
Q 1631 397 2203 397 
Q 2534 397 2845 478 
Q 3156 559 3463 722 
L 3463 178 
Q 3153 47 2828 -22 
Q 2503 -91 2169 -91 
Q 1331 -91 842 396 
Q 353 884 353 1716 
Q 353 2575 817 3079 
Q 1281 3584 2069 3584 
Q 2775 3584 3186 3129 
Q 3597 2675 3597 1894 
z
M 3022 2063 
Q 3016 2534 2758 2815 
Q 2500 3097 2075 3097 
Q 1594 3097 1305 2825 
Q 1016 2553 972 2059 
L 3022 2063 
z
" transform="scale(0.015625)"/>
       <path id="DejaVuSans-61" d="M 2194 1759 
Q 1497 1759 1228 1600 
Q 959 1441 959 1056 
Q 959 750 1161 570 
Q 1363 391 1709 391 
Q 2188 391 2477 730 
Q 2766 1069 2766 1631 
L 2766 1759 
L 2194 1759 
z
M 3341 1997 
L 3341 0 
L 2766 0 
L 2766 531 
Q 2569 213 2275 61 
Q 1981 -91 1556 -91 
Q 1019 -91 701 211 
Q 384 513 384 1019 
Q 384 1609 779 1909 
Q 1175 2209 1959 2209 
L 2766 2209 
L 2766 2266 
Q 2766 2663 2505 2880 
Q 2244 3097 1772 3097 
Q 1472 3097 1187 3025 
Q 903 2953 641 2809 
L 641 3341 
Q 956 3463 1253 3523 
Q 1550 3584 1831 3584 
Q 2591 3584 2966 3190 
Q 3341 2797 3341 1997 
z
" transform="scale(0.015625)"/>
       <path id="DejaVuSans-72" d="M 2631 2963 
Q 2534 3019 2420 3045 
Q 2306 3072 2169 3072 
Q 1681 3072 1420 2755 
Q 1159 2438 1159 1844 
L 1159 0 
L 581 0 
L 581 3500 
L 1159 3500 
L 1159 2956 
Q 1341 3275 1631 3429 
Q 1922 3584 2338 3584 
Q 2397 3584 2469 3576 
Q 2541 3569 2628 3553 
L 2631 2963 
z
" transform="scale(0.015625)"/>
      </defs>
      <use xlink:href="#DejaVuSans-59"/>
      <use xlink:href="#DejaVuSans-65" x="47.833984"/>
      <use xlink:href="#DejaVuSans-61" x="109.357422"/>
      <use xlink:href="#DejaVuSans-72" x="170.636719"/>
     </g>
    </g>
   </g>
   <g id="matplotlib.axis_2">
    <g id="ytick_1">
     <g id="line2d_11">
      <defs>
       <path id="m4a0ef3018a" d="M 0 0 
L -3.5 0 
" style="stroke: #000000; stroke-width: 0.8"/>
      </defs>
      <g>
       <use xlink:href="#m4a0ef3018a" x="61.49" y="285.052079" style="stroke: #000000; stroke-width: 0.8"/>
      </g>
     </g>
     <g id="text_12">
      <!-- 0 -->
      <g transform="translate(48.1275 288.851297) scale(0.1 -0.1)">
       <use xlink:href="#DejaVuSans-30"/>
      </g>
     </g>
    </g>
    <g id="ytick_2">
     <g id="line2d_12">
      <g>
       <use xlink:href="#m4a0ef3018a" x="61.49" y="243.383222" style="stroke: #000000; stroke-width: 0.8"/>
      </g>
     </g>
     <g id="text_13">
      <!-- 1000 -->
      <g transform="translate(29.04 247.182441) scale(0.1 -0.1)">
       <use xlink:href="#DejaVuSans-31"/>
       <use xlink:href="#DejaVuSans-30" x="63.623047"/>
       <use xlink:href="#DejaVuSans-30" x="127.246094"/>
       <use xlink:href="#DejaVuSans-30" x="190.869141"/>
      </g>
     </g>
    </g>
    <g id="ytick_3">
     <g id="line2d_13">
      <g>
       <use xlink:href="#m4a0ef3018a" x="61.49" y="201.714366" style="stroke: #000000; stroke-width: 0.8"/>
      </g>
     </g>
     <g id="text_14">
      <!-- 2000 -->
      <g transform="translate(29.04 205.513584) scale(0.1 -0.1)">
       <use xlink:href="#DejaVuSans-32"/>
       <use xlink:href="#DejaVuSans-30" x="63.623047"/>
       <use xlink:href="#DejaVuSans-30" x="127.246094"/>
       <use xlink:href="#DejaVuSans-30" x="190.869141"/>
      </g>
     </g>
    </g>
    <g id="ytick_4">
     <g id="line2d_14">
      <g>
       <use xlink:href="#m4a0ef3018a" x="61.49" y="160.045509" style="stroke: #000000; stroke-width: 0.8"/>
      </g>
     </g>
     <g id="text_15">
      <!-- 3000 -->
      <g transform="translate(29.04 163.844728) scale(0.1 -0.1)">
       <defs>
        <path id="DejaVuSans-33" d="M 2597 2516 
Q 3050 2419 3304 2112 
Q 3559 1806 3559 1356 
Q 3559 666 3084 287 
Q 2609 -91 1734 -91 
Q 1441 -91 1130 -33 
Q 819 25 488 141 
L 488 750 
Q 750 597 1062 519 
Q 1375 441 1716 441 
Q 2309 441 2620 675 
Q 2931 909 2931 1356 
Q 2931 1769 2642 2001 
Q 2353 2234 1838 2234 
L 1294 2234 
L 1294 2753 
L 1863 2753 
Q 2328 2753 2575 2939 
Q 2822 3125 2822 3475 
Q 2822 3834 2567 4026 
Q 2313 4219 1838 4219 
Q 1578 4219 1281 4162 
Q 984 4106 628 3988 
L 628 4550 
Q 988 4650 1302 4700 
Q 1616 4750 1894 4750 
Q 2613 4750 3031 4423 
Q 3450 4097 3450 3541 
Q 3450 3153 3228 2886 
Q 3006 2619 2597 2516 
z
" transform="scale(0.015625)"/>
       </defs>
       <use xlink:href="#DejaVuSans-33"/>
       <use xlink:href="#DejaVuSans-30" x="63.623047"/>
       <use xlink:href="#DejaVuSans-30" x="127.246094"/>
       <use xlink:href="#DejaVuSans-30" x="190.869141"/>
      </g>
     </g>
    </g>
    <g id="ytick_5">
     <g id="line2d_15">
      <g>
       <use xlink:href="#m4a0ef3018a" x="61.49" y="118.376653" style="stroke: #000000; stroke-width: 0.8"/>
      </g>
     </g>
     <g id="text_16">
      <!-- 4000 -->
      <g transform="translate(29.04 122.175872) scale(0.1 -0.1)">
       <use xlink:href="#DejaVuSans-34"/>
       <use xlink:href="#DejaVuSans-30" x="63.623047"/>
       <use xlink:href="#DejaVuSans-30" x="127.246094"/>
       <use xlink:href="#DejaVuSans-30" x="190.869141"/>
      </g>
     </g>
    </g>
    <g id="ytick_6">
     <g id="line2d_16">
      <g>
       <use xlink:href="#m4a0ef3018a" x="61.49" y="76.707796" style="stroke: #000000; stroke-width: 0.8"/>
      </g>
     </g>
     <g id="text_17">
      <!-- 5000 -->
      <g transform="translate(29.04 80.507015) scale(0.1 -0.1)">
       <defs>
        <path id="DejaVuSans-35" d="M 691 4666 
L 3169 4666 
L 3169 4134 
L 1269 4134 
L 1269 2991 
Q 1406 3038 1543 3061 
Q 1681 3084 1819 3084 
Q 2600 3084 3056 2656 
Q 3513 2228 3513 1497 
Q 3513 744 3044 326 
Q 2575 -91 1722 -91 
Q 1428 -91 1123 -41 
Q 819 9 494 109 
L 494 744 
Q 775 591 1075 516 
Q 1375 441 1709 441 
Q 2250 441 2565 725 
Q 2881 1009 2881 1497 
Q 2881 1984 2565 2268 
Q 2250 2553 1709 2553 
Q 1456 2553 1204 2497 
Q 953 2441 691 2322 
L 691 4666 
z
" transform="scale(0.015625)"/>
       </defs>
       <use xlink:href="#DejaVuSans-35"/>
       <use xlink:href="#DejaVuSans-30" x="63.623047"/>
       <use xlink:href="#DejaVuSans-30" x="127.246094"/>
       <use xlink:href="#DejaVuSans-30" x="190.869141"/>
      </g>
     </g>
    </g>
    <g id="text_18">
     <!-- Number of proteins -->
     <g transform="translate(21.920469 246.829063) rotate(-90) scale(0.15 -0.15)">
      <defs>
       <path id="DejaVuSans-4e" d="M 628 4666 
L 1478 4666 
L 3547 763 
L 3547 4666 
L 4159 4666 
L 4159 0 
L 3309 0 
L 1241 3903 
L 1241 0 
L 628 0 
L 628 4666 
z
" transform="scale(0.015625)"/>
       <path id="DejaVuSans-75" d="M 544 1381 
L 544 3500 
L 1119 3500 
L 1119 1403 
Q 1119 906 1312 657 
Q 1506 409 1894 409 
Q 2359 409 2629 706 
Q 2900 1003 2900 1516 
L 2900 3500 
L 3475 3500 
L 3475 0 
L 2900 0 
L 2900 538 
Q 2691 219 2414 64 
Q 2138 -91 1772 -91 
Q 1169 -91 856 284 
Q 544 659 544 1381 
z
M 1991 3584 
L 1991 3584 
z
" transform="scale(0.015625)"/>
       <path id="DejaVuSans-6d" d="M 3328 2828 
Q 3544 3216 3844 3400 
Q 4144 3584 4550 3584 
Q 5097 3584 5394 3201 
Q 5691 2819 5691 2113 
L 5691 0 
L 5113 0 
L 5113 2094 
Q 5113 2597 4934 2840 
Q 4756 3084 4391 3084 
Q 3944 3084 3684 2787 
Q 3425 2491 3425 1978 
L 3425 0 
L 2847 0 
L 2847 2094 
Q 2847 2600 2669 2842 
Q 2491 3084 2119 3084 
Q 1678 3084 1418 2786 
Q 1159 2488 1159 1978 
L 1159 0 
L 581 0 
L 581 3500 
L 1159 3500 
L 1159 2956 
Q 1356 3278 1631 3431 
Q 1906 3584 2284 3584 
Q 2666 3584 2933 3390 
Q 3200 3197 3328 2828 
z
" transform="scale(0.015625)"/>
       <path id="DejaVuSans-62" d="M 3116 1747 
Q 3116 2381 2855 2742 
Q 2594 3103 2138 3103 
Q 1681 3103 1420 2742 
Q 1159 2381 1159 1747 
Q 1159 1113 1420 752 
Q 1681 391 2138 391 
Q 2594 391 2855 752 
Q 3116 1113 3116 1747 
z
M 1159 2969 
Q 1341 3281 1617 3432 
Q 1894 3584 2278 3584 
Q 2916 3584 3314 3078 
Q 3713 2572 3713 1747 
Q 3713 922 3314 415 
Q 2916 -91 2278 -91 
Q 1894 -91 1617 61 
Q 1341 213 1159 525 
L 1159 0 
L 581 0 
L 581 4863 
L 1159 4863 
L 1159 2969 
z
" transform="scale(0.015625)"/>
       <path id="DejaVuSans-20" transform="scale(0.015625)"/>
       <path id="DejaVuSans-6f" d="M 1959 3097 
Q 1497 3097 1228 2736 
Q 959 2375 959 1747 
Q 959 1119 1226 758 
Q 1494 397 1959 397 
Q 2419 397 2687 759 
Q 2956 1122 2956 1747 
Q 2956 2369 2687 2733 
Q 2419 3097 1959 3097 
z
M 1959 3584 
Q 2709 3584 3137 3096 
Q 3566 2609 3566 1747 
Q 3566 888 3137 398 
Q 2709 -91 1959 -91 
Q 1206 -91 779 398 
Q 353 888 353 1747 
Q 353 2609 779 3096 
Q 1206 3584 1959 3584 
z
" transform="scale(0.015625)"/>
       <path id="DejaVuSans-66" d="M 2375 4863 
L 2375 4384 
L 1825 4384 
Q 1516 4384 1395 4259 
Q 1275 4134 1275 3809 
L 1275 3500 
L 2222 3500 
L 2222 3053 
L 1275 3053 
L 1275 0 
L 697 0 
L 697 3053 
L 147 3053 
L 147 3500 
L 697 3500 
L 697 3744 
Q 697 4328 969 4595 
Q 1241 4863 1831 4863 
L 2375 4863 
z
" transform="scale(0.015625)"/>
       <path id="DejaVuSans-70" d="M 1159 525 
L 1159 -1331 
L 581 -1331 
L 581 3500 
L 1159 3500 
L 1159 2969 
Q 1341 3281 1617 3432 
Q 1894 3584 2278 3584 
Q 2916 3584 3314 3078 
Q 3713 2572 3713 1747 
Q 3713 922 3314 415 
Q 2916 -91 2278 -91 
Q 1894 -91 1617 61 
Q 1341 213 1159 525 
z
M 3116 1747 
Q 3116 2381 2855 2742 
Q 2594 3103 2138 3103 
Q 1681 3103 1420 2742 
Q 1159 2381 1159 1747 
Q 1159 1113 1420 752 
Q 1681 391 2138 391 
Q 2594 391 2855 752 
Q 3116 1113 3116 1747 
z
" transform="scale(0.015625)"/>
       <path id="DejaVuSans-74" d="M 1172 4494 
L 1172 3500 
L 2356 3500 
L 2356 3053 
L 1172 3053 
L 1172 1153 
Q 1172 725 1289 603 
Q 1406 481 1766 481 
L 2356 481 
L 2356 0 
L 1766 0 
Q 1100 0 847 248 
Q 594 497 594 1153 
L 594 3053 
L 172 3053 
L 172 3500 
L 594 3500 
L 594 4494 
L 1172 4494 
z
" transform="scale(0.015625)"/>
       <path id="DejaVuSans-69" d="M 603 3500 
L 1178 3500 
L 1178 0 
L 603 0 
L 603 3500 
z
M 603 4863 
L 1178 4863 
L 1178 4134 
L 603 4134 
L 603 4863 
z
" transform="scale(0.015625)"/>
       <path id="DejaVuSans-6e" d="M 3513 2113 
L 3513 0 
L 2938 0 
L 2938 2094 
Q 2938 2591 2744 2837 
Q 2550 3084 2163 3084 
Q 1697 3084 1428 2787 
Q 1159 2491 1159 1978 
L 1159 0 
L 581 0 
L 581 3500 
L 1159 3500 
L 1159 2956 
Q 1366 3272 1645 3428 
Q 1925 3584 2291 3584 
Q 2894 3584 3203 3211 
Q 3513 2838 3513 2113 
z
" transform="scale(0.015625)"/>
       <path id="DejaVuSans-73" d="M 2834 3397 
L 2834 2853 
Q 2591 2978 2328 3040 
Q 2066 3103 1784 3103 
Q 1356 3103 1142 2972 
Q 928 2841 928 2578 
Q 928 2378 1081 2264 
Q 1234 2150 1697 2047 
L 1894 2003 
Q 2506 1872 2764 1633 
Q 3022 1394 3022 966 
Q 3022 478 2636 193 
Q 2250 -91 1575 -91 
Q 1294 -91 989 -36 
Q 684 19 347 128 
L 347 722 
Q 666 556 975 473 
Q 1284 391 1588 391 
Q 1994 391 2212 530 
Q 2431 669 2431 922 
Q 2431 1156 2273 1281 
Q 2116 1406 1581 1522 
L 1381 1569 
Q 847 1681 609 1914 
Q 372 2147 372 2553 
Q 372 3047 722 3315 
Q 1072 3584 1716 3584 
Q 2034 3584 2315 3537 
Q 2597 3491 2834 3397 
z
" transform="scale(0.015625)"/>
      </defs>
      <use xlink:href="#DejaVuSans-4e"/>
      <use xlink:href="#DejaVuSans-75" x="74.804688"/>
      <use xlink:href="#DejaVuSans-6d" x="138.183594"/>
      <use xlink:href="#DejaVuSans-62" x="235.595703"/>
      <use xlink:href="#DejaVuSans-65" x="299.072266"/>
      <use xlink:href="#DejaVuSans-72" x="360.595703"/>
      <use xlink:href="#DejaVuSans-20" x="401.708984"/>
      <use xlink:href="#DejaVuSans-6f" x="433.496094"/>
      <use xlink:href="#DejaVuSans-66" x="494.677734"/>
      <use xlink:href="#DejaVuSans-20" x="529.882812"/>
      <use xlink:href="#DejaVuSans-70" x="561.669922"/>
      <use xlink:href="#DejaVuSans-72" x="625.146484"/>
      <use xlink:href="#DejaVuSans-6f" x="664.009766"/>
      <use xlink:href="#DejaVuSans-74" x="725.191406"/>
      <use xlink:href="#DejaVuSans-65" x="764.400391"/>
      <use xlink:href="#DejaVuSans-69" x="825.923828"/>
      <use xlink:href="#DejaVuSans-6e" x="853.707031"/>
      <use xlink:href="#DejaVuSans-73" x="917.085938"/>
     </g>
    </g>
   </g>
   <g id="patch_3">
    <path d="M 61.49 285.052079 
L 61.49 63.227921 
" style="fill: none; stroke: #000000; stroke-width: 0.8; stroke-linejoin: miter; stroke-linecap: square"/>
   </g>
   <g id="patch_4">
    <path d="M 61.49 285.052079 
L 450 285.052079 
" style="fill: none; stroke: #000000; stroke-width: 0.8; stroke-linejoin: miter; stroke-linecap: square"/>
   </g>
   <g id="legend_1">
    <g id="patch_5">
     <path d="M 128.755156 58.227921 
L 382.734844 58.227921 
Q 384.734844 58.227921 384.734844 56.227921 
L 384.734844 27.871671 
Q 384.734844 25.871671 382.734844 25.871671 
L 128.755156 25.871671 
Q 126.755156 25.871671 126.755156 27.871671 
L 126.755156 56.227921 
Q 126.755156 58.227921 128.755156 58.227921 
z
" style="fill: #ffffff; opacity: 0.8; stroke: #cccccc; stroke-linejoin: miter"/>
    </g>
    <g id="patch_6">
     <path d="M 130.755156 37.470109 
L 150.755156 37.470109 
L 150.755156 30.470109 
L 130.755156 30.470109 
z
" style="fill: #fb363b"/>
    </g>
    <g id="text_19">
     <!-- Published -->
     <g transform="translate(158.755156 37.470109) scale(0.1 -0.1)">
      <defs>
       <path id="DejaVuSans-50" d="M 1259 4147 
L 1259 2394 
L 2053 2394 
Q 2494 2394 2734 2622 
Q 2975 2850 2975 3272 
Q 2975 3691 2734 3919 
Q 2494 4147 2053 4147 
L 1259 4147 
z
M 628 4666 
L 2053 4666 
Q 2838 4666 3239 4311 
Q 3641 3956 3641 3272 
Q 3641 2581 3239 2228 
Q 2838 1875 2053 1875 
L 1259 1875 
L 1259 0 
L 628 0 
L 628 4666 
z
" transform="scale(0.015625)"/>
       <path id="DejaVuSans-6c" d="M 603 4863 
L 1178 4863 
L 1178 0 
L 603 0 
L 603 4863 
z
" transform="scale(0.015625)"/>
       <path id="DejaVuSans-68" d="M 3513 2113 
L 3513 0 
L 2938 0 
L 2938 2094 
Q 2938 2591 2744 2837 
Q 2550 3084 2163 3084 
Q 1697 3084 1428 2787 
Q 1159 2491 1159 1978 
L 1159 0 
L 581 0 
L 581 4863 
L 1159 4863 
L 1159 2956 
Q 1366 3272 1645 3428 
Q 1925 3584 2291 3584 
Q 2894 3584 3203 3211 
Q 3513 2838 3513 2113 
z
" transform="scale(0.015625)"/>
       <path id="DejaVuSans-64" d="M 2906 2969 
L 2906 4863 
L 3481 4863 
L 3481 0 
L 2906 0 
L 2906 525 
Q 2725 213 2448 61 
Q 2172 -91 1784 -91 
Q 1150 -91 751 415 
Q 353 922 353 1747 
Q 353 2572 751 3078 
Q 1150 3584 1784 3584 
Q 2172 3584 2448 3432 
Q 2725 3281 2906 2969 
z
M 947 1747 
Q 947 1113 1208 752 
Q 1469 391 1925 391 
Q 2381 391 2643 752 
Q 2906 1113 2906 1747 
Q 2906 2381 2643 2742 
Q 2381 3103 1925 3103 
Q 1469 3103 1208 2742 
Q 947 2381 947 1747 
z
" transform="scale(0.015625)"/>
      </defs>
      <use xlink:href="#DejaVuSans-50"/>
      <use xlink:href="#DejaVuSans-75" x="58.552734"/>
      <use xlink:href="#DejaVuSans-62" x="121.931641"/>
      <use xlink:href="#DejaVuSans-6c" x="185.408203"/>
      <use xlink:href="#DejaVuSans-69" x="213.191406"/>
      <use xlink:href="#DejaVuSans-73" x="240.974609"/>
      <use xlink:href="#DejaVuSans-68" x="293.074219"/>
      <use xlink:href="#DejaVuSans-65" x="356.453125"/>
      <use xlink:href="#DejaVuSans-64" x="417.976562"/>
     </g>
    </g>
    <g id="patch_7">
     <path d="M 130.755156 52.148234 
L 150.755156 52.148234 
L 150.755156 45.148234 
L 130.755156 45.148234 
z
" style="fill: #fdc92c"/>
    </g>
    <g id="text_20">
     <!-- Inferred role -->
     <g transform="translate(158.755156 52.148234) scale(0.1 -0.1)">
      <defs>
       <path id="DejaVuSans-49" d="M 628 4666 
L 1259 4666 
L 1259 0 
L 628 0 
L 628 4666 
z
" transform="scale(0.015625)"/>
      </defs>
      <use xlink:href="#DejaVuSans-49"/>
      <use xlink:href="#DejaVuSans-6e" x="29.492188"/>
      <use xlink:href="#DejaVuSans-66" x="92.871094"/>
      <use xlink:href="#DejaVuSans-65" x="128.076172"/>
      <use xlink:href="#DejaVuSans-72" x="189.599609"/>
      <use xlink:href="#DejaVuSans-72" x="228.962891"/>
      <use xlink:href="#DejaVuSans-65" x="267.826172"/>
      <use xlink:href="#DejaVuSans-64" x="329.349609"/>
      <use xlink:href="#DejaVuSans-20" x="392.826172"/>
      <use xlink:href="#DejaVuSans-72" x="424.613281"/>
      <use xlink:href="#DejaVuSans-6f" x="463.476562"/>
      <use xlink:href="#DejaVuSans-6c" x="524.658203"/>
      <use xlink:href="#DejaVuSans-65" x="552.441406"/>
     </g>
    </g>
    <g id="patch_8">
     <path d="M 240.153594 37.470109 
L 260.153594 37.470109 
L 260.153594 30.470109 
L 240.153594 30.470109 
z
" style="fill: #aeaeae"/>
    </g>
    <g id="text_21">
     <!-- Conserved unknown -->
     <g transform="translate(268.153594 37.470109) scale(0.1 -0.1)">
      <defs>
       <path id="DejaVuSans-43" d="M 4122 4306 
L 4122 3641 
Q 3803 3938 3442 4084 
Q 3081 4231 2675 4231 
Q 1875 4231 1450 3742 
Q 1025 3253 1025 2328 
Q 1025 1406 1450 917 
Q 1875 428 2675 428 
Q 3081 428 3442 575 
Q 3803 722 4122 1019 
L 4122 359 
Q 3791 134 3420 21 
Q 3050 -91 2638 -91 
Q 1578 -91 968 557 
Q 359 1206 359 2328 
Q 359 3453 968 4101 
Q 1578 4750 2638 4750 
Q 3056 4750 3426 4639 
Q 3797 4528 4122 4306 
z
" transform="scale(0.015625)"/>
       <path id="DejaVuSans-76" d="M 191 3500 
L 800 3500 
L 1894 563 
L 2988 3500 
L 3597 3500 
L 2284 0 
L 1503 0 
L 191 3500 
z
" transform="scale(0.015625)"/>
       <path id="DejaVuSans-6b" d="M 581 4863 
L 1159 4863 
L 1159 1991 
L 2875 3500 
L 3609 3500 
L 1753 1863 
L 3688 0 
L 2938 0 
L 1159 1709 
L 1159 0 
L 581 0 
L 581 4863 
z
" transform="scale(0.015625)"/>
       <path id="DejaVuSans-77" d="M 269 3500 
L 844 3500 
L 1563 769 
L 2278 3500 
L 2956 3500 
L 3675 769 
L 4391 3500 
L 4966 3500 
L 4050 0 
L 3372 0 
L 2619 2869 
L 1863 0 
L 1184 0 
L 269 3500 
z
" transform="scale(0.015625)"/>
      </defs>
      <use xlink:href="#DejaVuSans-43"/>
      <use xlink:href="#DejaVuSans-6f" x="69.824219"/>
      <use xlink:href="#DejaVuSans-6e" x="131.005859"/>
      <use xlink:href="#DejaVuSans-73" x="194.384766"/>
      <use xlink:href="#DejaVuSans-65" x="246.484375"/>
      <use xlink:href="#DejaVuSans-72" x="308.007812"/>
      <use xlink:href="#DejaVuSans-76" x="349.121094"/>
      <use xlink:href="#DejaVuSans-65" x="408.300781"/>
      <use xlink:href="#DejaVuSans-64" x="469.824219"/>
      <use xlink:href="#DejaVuSans-20" x="533.300781"/>
      <use xlink:href="#DejaVuSans-75" x="565.087891"/>
      <use xlink:href="#DejaVuSans-6e" x="628.466797"/>
      <use xlink:href="#DejaVuSans-6b" x="691.845703"/>
      <use xlink:href="#DejaVuSans-6e" x="749.755859"/>
      <use xlink:href="#DejaVuSans-6f" x="813.134766"/>
      <use xlink:href="#DejaVuSans-77" x="874.316406"/>
      <use xlink:href="#DejaVuSans-6e" x="956.103516"/>
     </g>
    </g>
    <g id="patch_9">
     <path d="M 240.153594 52.148234 
L 260.153594 52.148234 
L 260.153594 45.148234 
L 240.153594 45.148234 
z
" style="fill: #d5dce5"/>
    </g>
    <g id="text_22">
     <!-- Fission yeast unknown -->
     <g transform="translate(268.153594 52.148234) scale(0.1 -0.1)">
      <defs>
       <path id="DejaVuSans-46" d="M 628 4666 
L 3309 4666 
L 3309 4134 
L 1259 4134 
L 1259 2759 
L 3109 2759 
L 3109 2228 
L 1259 2228 
L 1259 0 
L 628 0 
L 628 4666 
z
" transform="scale(0.015625)"/>
       <path id="DejaVuSans-79" d="M 2059 -325 
Q 1816 -950 1584 -1140 
Q 1353 -1331 966 -1331 
L 506 -1331 
L 506 -850 
L 844 -850 
Q 1081 -850 1212 -737 
Q 1344 -625 1503 -206 
L 1606 56 
L 191 3500 
L 800 3500 
L 1894 763 
L 2988 3500 
L 3597 3500 
L 2059 -325 
z
" transform="scale(0.015625)"/>
      </defs>
      <use xlink:href="#DejaVuSans-46"/>
      <use xlink:href="#DejaVuSans-69" x="50.269531"/>
      <use xlink:href="#DejaVuSans-73" x="78.052734"/>
      <use xlink:href="#DejaVuSans-73" x="130.152344"/>
      <use xlink:href="#DejaVuSans-69" x="182.251953"/>
      <use xlink:href="#DejaVuSans-6f" x="210.035156"/>
      <use xlink:href="#DejaVuSans-6e" x="271.216797"/>
      <use xlink:href="#DejaVuSans-20" x="334.595703"/>
      <use xlink:href="#DejaVuSans-79" x="366.382812"/>
      <use xlink:href="#DejaVuSans-65" x="425.5625"/>
      <use xlink:href="#DejaVuSans-61" x="487.085938"/>
      <use xlink:href="#DejaVuSans-73" x="548.365234"/>
      <use xlink:href="#DejaVuSans-74" x="600.464844"/>
      <use xlink:href="#DejaVuSans-20" x="639.673828"/>
      <use xlink:href="#DejaVuSans-75" x="671.460938"/>
      <use xlink:href="#DejaVuSans-6e" x="734.839844"/>
      <use xlink:href="#DejaVuSans-6b" x="798.21875"/>
      <use xlink:href="#DejaVuSans-6e" x="856.128906"/>
      <use xlink:href="#DejaVuSans-6f" x="919.507812"/>
      <use xlink:href="#DejaVuSans-77" x="980.689453"/>
      <use xlink:href="#DejaVuSans-6e" x="1062.476562"/>
     </g>
    </g>
   </g>
  </g>
 </g>
 <defs>
  <clipPath id="p11645a3467">
   <rect x="61.49" y="63.227921" width="388.51" height="221.824157"/>
  </clipPath>
 </defs>
</svg>
