<?xml version="1.0" encoding="utf-8" standalone="no"?>
<!DOCTYPE svg PUBLIC "-//W3C//DTD SVG 1.1//EN"
  "http://www.w3.org/Graphics/SVG/1.1/DTD/svg11.dtd">
<svg xmlns:xlink="http://www.w3.org/1999/xlink" width="460.8pt" height="345.6pt" viewBox="0 0 460.8 345.6" xmlns="http://www.w3.org/2000/svg" version="1.1">
 <metadata>
  <rdf:RDF xmlns:dc="http://purl.org/dc/elements/1.1/" xmlns:cc="http://creativecommons.org/ns#" xmlns:rdf="http://www.w3.org/1999/02/22-rdf-syntax-ns#">
   <cc:Work>
    <dc:type rdf:resource="http://purl.org/dc/dcmitype/StillImage"/>
    <dc:date>2023-10-13T18:01:11.772438</dc:date>
    <dc:format>image/svg+xml</dc:format>
    <dc:creator>
     <cc:Agent>
      <dc:title>Matplotlib v3.7.1, https://matplotlib.org/</dc:title>
     </cc:Agent>
    </dc:creator>
   </cc:Work>
  </rdf:RDF>
 </metadata>
 <defs>
  <style type="text/css">*{stroke-linejoin: round; stroke-linecap: butt}</style>
 </defs>
 <g id="figure_1">
  <g id="patch_1">
   <path d="M 0 345.6 
L 460.8 345.6 
L 460.8 0 
L 0 0 
z
" style="fill: #ffffff"/>
  </g>
  <g id="axes_1">
   <g id="patch_2">
    <path d="M 61.49 285.350269 
L 450 285.350269 
L 450 62.929731 
L 61.49 62.929731 
z
" style="fill: #ffffff"/>
   </g>
   <g id="PolyCollection_1">
    <path d="M 29.893206 228.904294 
L 29.893206 285.350269 
L 38.719418 285.350269 
L 47.441178 285.350269 
L 65.354732 285.350269 
L 86.140722 285.350269 
L 101.442971 285.350269 
L 110.948122 285.350269 
L 113.402749 285.350269 
L 117.94642 285.350269 
L 120.035464 285.350269 
L 120.296595 285.350269 
L 123.743518 285.350269 
L 124.631362 285.350269 
L 125.362527 285.350269 
L 126.250371 285.350269 
L 126.824858 285.350269 
L 127.712702 285.350269 
L 128.234963 285.350269 
L 129.175033 285.350269 
L 130.428459 285.350269 
L 131.420755 285.350269 
L 131.786338 285.350269 
L 132.83086 285.350269 
L 133.562026 285.350269 
L 134.345417 285.350269 
L 135.181035 285.350269 
L 135.755522 285.350269 
L 136.277783 285.350269 
L 137.740114 285.350269 
L 138.784636 285.350269 
L 139.568028 285.350269 
L 139.776932 285.350269 
L 140.508098 285.350269 
L 141.604846 285.350269 
L 142.75382 285.350269 
L 143.537212 285.350269 
L 144.686186 285.350269 
L 146.200743 285.350269 
L 148.289788 285.350269 
L 150.117701 285.350269 
L 151.684484 285.350269 
L 154.609146 285.350269 
L 155.862573 285.350269 
L 159.25727 285.350269 
L 161.450766 285.350269 
L 162.808645 285.350269 
L 163.644263 285.350269 
L 166.934507 285.350269 
L 168.762421 285.350269 
L 170.642561 285.350269 
L 174.350614 285.350269 
L 177.797537 285.350269 
L 178.372024 285.350269 
L 179.050964 285.350269 
L 180.095486 285.350269 
L 180.931104 285.350269 
L 183.490183 285.350269 
L 188.608341 285.350269 
L 189.600637 285.350269 
L 194.405439 285.350269 
L 195.502187 285.350269 
L 196.598935 285.350269 
L 198.374623 285.350269 
L 199.836954 285.350269 
L 201.247059 285.350269 
L 202.134903 285.350269 
L 205.007338 285.350269 
L 207.984226 285.350269 
L 209.446557 285.350269 
L 210.491079 285.350269 
L 211.796732 285.350269 
L 212.89348 285.350269 
L 214.199133 285.350269 
L 217.280473 285.350269 
L 218.899482 285.350269 
L 220.466266 285.350269 
L 222.085275 285.350269 
L 223.652058 285.350269 
L 225.271067 285.350269 
L 226.890077 285.350269 
L 228.404634 285.350269 
L 230.023643 285.350269 
L 231.590426 285.350269 
L 233.209435 285.350269 
L 234.776219 285.350269 
L 236.395228 285.350269 
L 238.014237 285.350269 
L 239.58102 285.350269 
L 241.20003 285.350269 
L 242.766813 285.350269 
L 244.385822 285.350269 
L 246.004831 285.350269 
L 247.467162 285.350269 
L 249.086172 285.350269 
L 250.652955 285.350269 
L 252.271964 285.350269 
L 253.838747 285.350269 
L 255.457756 285.350269 
L 257.076766 285.350269 
L 258.643549 285.350269 
L 260.262558 285.350269 
L 261.829341 285.350269 
L 263.448351 285.350269 
L 265.06736 285.350269 
L 266.529691 285.350269 
L 268.1487 285.350269 
L 269.715483 285.350269 
L 271.334493 285.350269 
L 272.901276 285.350269 
L 274.520285 285.350269 
L 276.139294 285.350269 
L 277.706077 285.350269 
L 279.325087 285.350269 
L 280.89187 285.350269 
L 282.510879 285.350269 
L 284.129888 285.350269 
L 285.592219 285.350269 
L 287.211229 285.350269 
L 288.778012 285.350269 
L 290.397021 285.350269 
L 291.963804 285.350269 
L 293.582814 285.350269 
L 295.201823 285.350269 
L 296.768606 285.350269 
L 298.387615 285.350269 
L 299.954398 285.350269 
L 301.573408 285.350269 
L 303.192417 285.350269 
L 304.706974 285.350269 
L 306.325983 285.350269 
L 307.892767 285.350269 
L 309.511776 285.350269 
L 311.078559 285.350269 
L 312.697568 285.350269 
L 314.316577 285.350269 
L 315.883361 285.350269 
L 317.50237 285.350269 
L 319.069153 285.350269 
L 320.688162 285.350269 
L 322.307172 285.350269 
L 323.769503 285.350269 
L 325.388512 285.350269 
L 326.955295 285.350269 
L 328.574304 285.350269 
L 330.141088 285.350269 
L 331.760097 285.350269 
L 333.379106 285.350269 
L 334.945889 285.350269 
L 336.564899 285.350269 
L 338.131682 285.350269 
L 339.750691 285.350269 
L 341.3697 285.350269 
L 342.832031 285.350269 
L 344.45104 285.350269 
L 346.017824 285.350269 
L 347.636833 285.350269 
L 349.203616 285.350269 
L 350.822625 285.350269 
L 352.441635 285.350269 
L 354.008418 285.350269 
L 355.627427 285.350269 
L 357.19421 285.350269 
L 358.81322 285.350269 
L 360.432229 285.350269 
L 361.89456 285.350269 
L 363.513569 285.350269 
L 365.080352 285.350269 
L 366.699361 285.350269 
L 368.266145 285.350269 
L 369.885154 285.350269 
L 371.504163 285.350269 
L 373.070946 285.350269 
L 374.689956 285.350269 
L 376.256739 285.350269 
L 377.875748 285.350269 
L 379.494757 285.350269 
L 381.009314 285.350269 
L 382.628324 285.350269 
L 384.195107 285.350269 
L 385.814116 285.350269 
L 387.380899 285.350269 
L 388.999909 285.350269 
L 390.618918 285.350269 
L 392.185701 285.350269 
L 393.80471 285.350269 
L 395.371493 285.350269 
L 396.990503 285.350269 
L 398.609512 285.350269 
L 400.071843 285.350269 
L 401.690852 285.350269 
L 403.257635 285.350269 
L 404.876645 285.350269 
L 406.443428 285.350269 
L 408.062437 285.350269 
L 409.681446 285.350269 
L 411.24823 285.350269 
L 412.867239 285.350269 
L 414.434022 285.350269 
L 416.053031 285.350269 
L 417.672041 285.350269 
L 419.134372 285.350269 
L 420.753381 285.350269 
L 422.320164 285.350269 
L 423.939173 285.350269 
L 425.505956 285.350269 
L 427.124966 285.350269 
L 428.743975 285.350269 
L 430.310758 285.350269 
L 431.929767 285.350269 
L 433.496551 285.350269 
L 435.11556 285.350269 
L 436.734569 285.350269 
L 438.1969 285.350269 
L 439.815909 285.350269 
L 441.382693 285.350269 
L 443.001702 285.350269 
L 444.568485 285.350269 
L 446.187494 285.350269 
L 447.806504 285.350269 
L 449.373287 285.350269 
L 449.373287 179.853536 
L 449.373287 179.853536 
L 447.806504 179.895317 
L 446.187494 180.020659 
L 444.568485 180.52203 
L 443.001702 180.772715 
L 441.382693 180.898058 
L 439.815909 180.898058 
L 438.1969 181.274086 
L 436.734569 181.900799 
L 435.11556 181.859018 
L 433.496551 181.984361 
L 431.929767 182.109704 
L 430.310758 182.360389 
L 428.743975 182.360389 
L 427.124966 182.40217 
L 425.505956 182.40217 
L 423.939173 182.360389 
L 422.320164 182.443951 
L 420.753381 182.360389 
L 419.134372 182.318608 
L 417.672041 182.360389 
L 416.053031 182.360389 
L 414.434022 182.569293 
L 412.867239 182.778198 
L 411.24823 183.112445 
L 409.681446 183.36313 
L 408.062437 183.321349 
L 406.443428 183.530254 
L 404.876645 183.82272 
L 403.257635 183.82272 
L 401.690852 183.989844 
L 400.071843 184.532995 
L 398.609512 184.658338 
L 396.990503 185.117927 
L 395.371493 185.159708 
L 393.80471 185.326832 
L 392.185701 185.410394 
L 390.618918 185.577517 
L 388.999909 185.619298 
L 387.380899 185.70286 
L 385.814116 185.70286 
L 384.195107 185.786422 
L 382.628324 186.16245 
L 381.009314 186.287792 
L 379.494757 186.371354 
L 377.875748 186.454916 
L 376.256739 186.454916 
L 374.689956 186.454916 
L 373.070946 186.580258 
L 371.504163 186.66382 
L 369.885154 186.830944 
L 368.266145 187.081629 
L 366.699361 187.206972 
L 365.080352 187.290533 
L 363.513569 187.374095 
L 361.89456 187.415876 
L 360.432229 187.415876 
L 358.81322 187.457657 
L 357.19421 187.499438 
L 355.627427 187.583 
L 354.008418 187.62478 
L 352.441635 187.62478 
L 350.822625 187.750123 
L 349.203616 187.875466 
L 347.636833 188.126151 
L 346.017824 188.293275 
L 344.45104 188.627522 
L 342.832031 188.794645 
L 341.3697 188.961769 
L 339.750691 189.00355 
L 338.131682 189.170673 
L 336.564899 189.337797 
L 334.945889 191.176156 
L 333.379106 191.468622 
L 331.760097 192.262459 
L 330.141088 191.593965 
L 328.574304 191.510403 
L 326.955295 191.552184 
L 325.388512 191.635745 
L 323.769503 191.928212 
L 322.307172 191.969992 
L 320.688162 192.053554 
L 319.069153 192.847391 
L 317.50237 192.972734 
L 315.883361 193.181638 
L 314.316577 193.2652 
L 312.697568 193.390543 
L 311.078559 193.850132 
L 309.511776 194.059037 
L 307.892767 194.059037 
L 306.325983 194.476846 
L 304.706974 194.560407 
L 303.192417 194.602188 
L 301.573408 194.811093 
L 299.954398 194.894654 
L 298.387615 194.894654 
L 296.768606 195.103559 
L 295.201823 195.14534 
L 293.582814 195.187121 
L 291.963804 195.354244 
L 290.397021 195.479587 
L 288.778012 194.852874 
L 287.211229 194.936435 
L 285.592219 195.14534 
L 284.129888 195.14534 
L 282.510879 195.396025 
L 280.89187 195.563149 
L 279.325087 195.855615 
L 277.706077 196.231643 
L 276.139294 196.56589 
L 274.520285 196.649452 
L 272.901276 196.941918 
L 271.334493 197.192603 
L 269.715483 197.568631 
L 268.1487 197.735755 
L 266.529691 197.944659 
L 265.06736 197.98644 
L 263.448351 197.98644 
L 261.829341 198.195344 
L 260.262558 198.696715 
L 258.643549 198.738496 
L 257.076766 198.989181 
L 255.457756 199.699456 
L 253.838747 199.783018 
L 252.271964 200.284388 
L 250.652955 200.618636 
L 249.086172 201.746719 
L 247.467162 201.830281 
L 246.004831 201.955624 
L 244.385822 202.24809 
L 242.766813 202.331652 
L 241.20003 202.582337 
L 239.58102 202.791242 
L 238.014237 203.16727 
L 236.395228 203.376174 
L 234.776219 203.501517 
L 233.209435 203.752202 
L 231.590426 203.793983 
L 230.023643 203.919325 
L 228.404634 204.086449 
L 226.890077 204.086449 
L 225.271067 204.170011 
L 223.652058 204.211792 
L 222.085275 204.253573 
L 220.466266 204.295353 
L 218.899482 204.337134 
L 217.280473 204.462477 
L 214.199133 205.256314 
L 212.89348 205.465218 
L 211.796732 205.506999 
L 210.491079 205.381656 
L 209.446557 205.381656 
L 207.984226 205.506999 
L 205.007338 205.632342 
L 202.134903 206.300836 
L 201.247059 207.303577 
L 199.836954 207.136454 
L 198.374623 207.094673 
L 196.598935 207.846729 
L 195.502187 207.846729 
L 194.405439 207.596043 
L 189.600637 208.139195 
L 188.608341 208.222757 
L 183.490183 208.933032 
L 180.931104 209.016593 
L 180.095486 208.84947 
L 179.050964 208.974812 
L 178.372024 209.183717 
L 177.797537 209.225498 
L 174.350614 209.35084 
L 170.642561 209.434402 
L 168.762421 209.643307 
L 166.934507 211.857694 
L 163.644263 211.774132 
L 162.808645 211.815913 
L 161.450766 212.275502 
L 159.25727 213.445367 
L 155.862573 213.696052 
L 154.609146 214.113861 
L 151.684484 214.406327 
L 150.117701 215.283726 
L 148.289788 215.868658 
L 146.200743 216.328248 
L 144.686186 216.370029 
L 143.537212 216.453591 
L 142.75382 216.495372 
L 141.604846 216.537153 
L 140.508098 217.289208 
L 139.776932 217.665236 
L 139.568028 217.665236 
L 138.784636 217.665236 
L 137.740114 217.915922 
L 136.277783 217.665236 
L 135.755522 217.874141 
L 135.181035 217.957703 
L 134.345417 218.083045 
L 133.562026 218.083045 
L 132.83086 218.417292 
L 131.786338 219.169348 
L 131.420755 219.127567 
L 130.428459 219.503595 
L 129.175033 219.587157 
L 128.234963 219.670719 
L 127.712702 219.754281 
L 126.824858 219.879623 
L 126.250371 220.130309 
L 125.362527 220.339213 
L 124.631362 220.255651 
L 123.743518 220.339213 
L 120.296595 220.631679 
L 120.035464 220.589898 
L 117.94642 220.924145 
L 113.402749 218.918663 
L 110.948122 221.885106 
L 101.442971 225.770728 
L 86.140722 229.405665 
L 65.354732 234.085124 
L 47.441178 228.69539 
L 38.719418 228.026896 
L 29.893206 228.904294 
z
" clip-path="url(#pd6b7895064)" style="fill: #fb363b"/>
   </g>
   <g id="PolyCollection_2">
    <path d="M 29.893206 143.002796 
L 29.893206 228.904294 
L 38.719418 228.026896 
L 47.441178 228.69539 
L 65.354732 234.085124 
L 86.140722 229.405665 
L 101.442971 225.770728 
L 110.948122 221.885106 
L 113.402749 218.918663 
L 117.94642 220.924145 
L 120.035464 220.589898 
L 120.296595 220.631679 
L 123.743518 220.339213 
L 124.631362 220.255651 
L 125.362527 220.339213 
L 126.250371 220.130309 
L 126.824858 219.879623 
L 127.712702 219.754281 
L 128.234963 219.670719 
L 129.175033 219.587157 
L 130.428459 219.503595 
L 131.420755 219.127567 
L 131.786338 219.169348 
L 132.83086 218.417292 
L 133.562026 218.083045 
L 134.345417 218.083045 
L 135.181035 217.957703 
L 135.755522 217.874141 
L 136.277783 217.665236 
L 137.740114 217.915922 
L 138.784636 217.665236 
L 139.568028 217.665236 
L 139.776932 217.665236 
L 140.508098 217.289208 
L 141.604846 216.537153 
L 142.75382 216.495372 
L 143.537212 216.453591 
L 144.686186 216.370029 
L 146.200743 216.328248 
L 148.289788 215.868658 
L 150.117701 215.283726 
L 151.684484 214.406327 
L 154.609146 214.113861 
L 155.862573 213.696052 
L 159.25727 213.445367 
L 161.450766 212.275502 
L 162.808645 211.815913 
L 163.644263 211.774132 
L 166.934507 211.857694 
L 168.762421 209.643307 
L 170.642561 209.434402 
L 174.350614 209.35084 
L 177.797537 209.225498 
L 178.372024 209.183717 
L 179.050964 208.974812 
L 180.095486 208.84947 
L 180.931104 209.016593 
L 183.490183 208.933032 
L 188.608341 208.222757 
L 189.600637 208.139195 
L 194.405439 207.596043 
L 195.502187 207.846729 
L 196.598935 207.846729 
L 198.374623 207.094673 
L 199.836954 207.136454 
L 201.247059 207.303577 
L 202.134903 206.300836 
L 205.007338 205.632342 
L 207.984226 205.506999 
L 209.446557 205.381656 
L 210.491079 205.381656 
L 211.796732 205.506999 
L 212.89348 205.465218 
L 214.199133 205.256314 
L 217.280473 204.462477 
L 218.899482 204.337134 
L 220.466266 204.295353 
L 222.085275 204.253573 
L 223.652058 204.211792 
L 225.271067 204.170011 
L 226.890077 204.086449 
L 228.404634 204.086449 
L 230.023643 203.919325 
L 231.590426 203.793983 
L 233.209435 203.752202 
L 234.776219 203.501517 
L 236.395228 203.376174 
L 238.014237 203.16727 
L 239.58102 202.791242 
L 241.20003 202.582337 
L 242.766813 202.331652 
L 244.385822 202.24809 
L 246.004831 201.955624 
L 247.467162 201.830281 
L 249.086172 201.746719 
L 250.652955 200.618636 
L 252.271964 200.284388 
L 253.838747 199.783018 
L 255.457756 199.699456 
L 257.076766 198.989181 
L 258.643549 198.738496 
L 260.262558 198.696715 
L 261.829341 198.195344 
L 263.448351 197.98644 
L 265.06736 197.98644 
L 266.529691 197.944659 
L 268.1487 197.735755 
L 269.715483 197.568631 
L 271.334493 197.192603 
L 272.901276 196.941918 
L 274.520285 196.649452 
L 276.139294 196.56589 
L 277.706077 196.231643 
L 279.325087 195.855615 
L 280.89187 195.563149 
L 282.510879 195.396025 
L 284.129888 195.14534 
L 285.592219 195.14534 
L 287.211229 194.936435 
L 288.778012 194.852874 
L 290.397021 195.479587 
L 291.963804 195.354244 
L 293.582814 195.187121 
L 295.201823 195.14534 
L 296.768606 195.103559 
L 298.387615 194.894654 
L 299.954398 194.894654 
L 301.573408 194.811093 
L 303.192417 194.602188 
L 304.706974 194.560407 
L 306.325983 194.476846 
L 307.892767 194.059037 
L 309.511776 194.059037 
L 311.078559 193.850132 
L 312.697568 193.390543 
L 314.316577 193.2652 
L 315.883361 193.181638 
L 317.50237 192.972734 
L 319.069153 192.847391 
L 320.688162 192.053554 
L 322.307172 191.969992 
L 323.769503 191.928212 
L 325.388512 191.635745 
L 326.955295 191.552184 
L 328.574304 191.510403 
L 330.141088 191.593965 
L 331.760097 192.262459 
L 333.379106 191.468622 
L 334.945889 191.176156 
L 336.564899 189.337797 
L 338.131682 189.170673 
L 339.750691 189.00355 
L 341.3697 188.961769 
L 342.832031 188.794645 
L 344.45104 188.627522 
L 346.017824 188.293275 
L 347.636833 188.126151 
L 349.203616 187.875466 
L 350.822625 187.750123 
L 352.441635 187.62478 
L 354.008418 187.62478 
L 355.627427 187.583 
L 357.19421 187.499438 
L 358.81322 187.457657 
L 360.432229 187.415876 
L 361.89456 187.415876 
L 363.513569 187.374095 
L 365.080352 187.290533 
L 366.699361 187.206972 
L 368.266145 187.081629 
L 369.885154 186.830944 
L 371.504163 186.66382 
L 373.070946 186.580258 
L 374.689956 186.454916 
L 376.256739 186.454916 
L 377.875748 186.454916 
L 379.494757 186.371354 
L 381.009314 186.287792 
L 382.628324 186.16245 
L 384.195107 185.786422 
L 385.814116 185.70286 
L 387.380899 185.70286 
L 388.999909 185.619298 
L 390.618918 185.577517 
L 392.185701 185.410394 
L 393.80471 185.326832 
L 395.371493 185.159708 
L 396.990503 185.117927 
L 398.609512 184.658338 
L 400.071843 184.532995 
L 401.690852 183.989844 
L 403.257635 183.82272 
L 404.876645 183.82272 
L 406.443428 183.530254 
L 408.062437 183.321349 
L 409.681446 183.36313 
L 411.24823 183.112445 
L 412.867239 182.778198 
L 414.434022 182.569293 
L 416.053031 182.360389 
L 417.672041 182.360389 
L 419.134372 182.318608 
L 420.753381 182.360389 
L 422.320164 182.443951 
L 423.939173 182.360389 
L 425.505956 182.40217 
L 427.124966 182.40217 
L 428.743975 182.360389 
L 430.310758 182.360389 
L 431.929767 182.109704 
L 433.496551 181.984361 
L 435.11556 181.859018 
L 436.734569 181.900799 
L 438.1969 181.274086 
L 439.815909 180.898058 
L 441.382693 180.898058 
L 443.001702 180.772715 
L 444.568485 180.52203 
L 446.187494 180.020659 
L 447.806504 179.895317 
L 449.373287 179.853536 
L 449.373287 100.093827 
L 449.373287 100.093827 
L 447.806504 100.177389 
L 446.187494 100.177389 
L 444.568485 100.469855 
L 443.001702 100.720541 
L 441.382693 100.845883 
L 439.815909 100.845883 
L 438.1969 100.887664 
L 436.734569 101.054788 
L 435.11556 101.18013 
L 433.496551 101.263692 
L 431.929767 101.263692 
L 430.310758 101.305473 
L 428.743975 101.18013 
L 427.124966 101.221911 
L 425.505956 101.221911 
L 423.939173 101.430816 
L 422.320164 101.389035 
L 420.753381 101.389035 
L 419.134372 101.430816 
L 417.672041 101.514377 
L 416.053031 101.514377 
L 414.434022 101.63972 
L 412.867239 101.597939 
L 411.24823 101.723282 
L 409.681446 101.765063 
L 408.062437 101.806844 
L 406.443428 101.848625 
L 404.876645 101.890405 
L 403.257635 101.848625 
L 401.690852 101.973967 
L 400.071843 102.182872 
L 398.609512 102.349995 
L 396.990503 102.391776 
L 395.371493 102.391776 
L 393.80471 102.475338 
L 392.185701 102.517119 
L 390.618918 102.60068 
L 388.999909 102.60068 
L 387.380899 102.642461 
L 385.814116 102.684242 
L 384.195107 102.5589 
L 382.628324 102.517119 
L 381.009314 102.5589 
L 379.494757 102.475338 
L 377.875748 102.475338 
L 376.256739 102.475338 
L 374.689956 102.475338 
L 373.070946 102.475338 
L 371.504163 102.517119 
L 369.885154 102.475338 
L 368.266145 102.517119 
L 366.699361 102.517119 
L 365.080352 102.391776 
L 363.513569 102.391776 
L 361.89456 102.433557 
L 360.432229 102.433557 
L 358.81322 102.517119 
L 357.19421 102.517119 
L 355.627427 102.60068 
L 354.008418 102.60068 
L 352.441635 102.60068 
L 350.822625 102.642461 
L 349.203616 102.642461 
L 347.636833 102.642461 
L 346.017824 102.684242 
L 344.45104 102.726023 
L 342.832031 103.06027 
L 341.3697 103.185613 
L 339.750691 103.102051 
L 338.131682 103.185613 
L 336.564899 103.310956 
L 334.945889 103.352736 
L 333.379106 103.937669 
L 331.760097 104.271916 
L 330.141088 106.569864 
L 328.574304 107.865072 
L 326.955295 108.324662 
L 325.388512 108.324662 
L 323.769503 108.658909 
L 322.307172 108.575347 
L 320.688162 107.739729 
L 319.069153 107.948634 
L 317.50237 108.408223 
L 315.883361 108.408223 
L 314.316577 108.282881 
L 312.697568 108.450004 
L 311.078559 108.491785 
L 309.511776 108.491785 
L 307.892767 108.533566 
L 306.325983 108.617128 
L 304.706974 108.617128 
L 303.192417 108.658909 
L 301.573408 108.658909 
L 299.954398 108.784251 
L 298.387615 108.826032 
L 296.768606 108.867813 
L 295.201823 108.867813 
L 293.582814 108.826032 
L 291.963804 108.867813 
L 290.397021 108.826032 
L 288.778012 109.494526 
L 287.211229 109.452746 
L 285.592219 109.536307 
L 284.129888 109.619869 
L 282.510879 109.745212 
L 280.89187 109.703431 
L 279.325087 109.995897 
L 277.706077 110.12124 
L 276.139294 110.288363 
L 274.520285 110.497268 
L 272.901276 110.539049 
L 271.334493 110.455487 
L 269.715483 110.539049 
L 268.1487 110.580829 
L 266.529691 110.580829 
L 265.06736 110.580829 
L 263.448351 110.580829 
L 261.829341 110.747953 
L 260.262558 110.831515 
L 258.643549 111.0822 
L 257.076766 111.123981 
L 255.457756 111.374666 
L 253.838747 111.458228 
L 252.271964 111.708913 
L 250.652955 111.834256 
L 249.086172 112.001379 
L 247.467162 112.04316 
L 246.004831 112.084941 
L 244.385822 112.252065 
L 242.766813 112.252065 
L 241.20003 112.460969 
L 239.58102 112.753435 
L 238.014237 112.920559 
L 236.395228 113.087682 
L 234.776219 113.296587 
L 233.209435 113.380149 
L 231.590426 113.714396 
L 230.023643 113.714396 
L 228.404634 113.756177 
L 226.890077 113.756177 
L 225.271067 113.756177 
L 223.652058 113.756177 
L 222.085275 113.756177 
L 220.466266 113.797958 
L 218.899482 113.965081 
L 217.280473 114.048643 
L 214.199133 114.550013 
L 212.89348 115.176727 
L 211.796732 115.469193 
L 210.491079 114.884261 
L 209.446557 115.218508 
L 207.984226 115.34385 
L 205.007338 115.510974 
L 202.134903 115.510974 
L 201.247059 115.678097 
L 199.836954 116.221249 
L 198.374623 116.179468 
L 196.598935 117.140428 
L 195.502187 117.140428 
L 194.405439 117.600018 
L 189.600637 117.892484 
L 188.608341 117.976046 
L 183.490183 119.145911 
L 180.931104 120.190433 
L 180.095486 120.232214 
L 179.050964 120.232214 
L 178.372024 120.232214 
L 177.797537 120.273995 
L 174.350614 119.814405 
L 170.642561 120.357556 
L 168.762421 120.566461 
L 166.934507 120.775365 
L 163.644263 120.900708 
L 162.808645 120.98427 
L 161.450766 121.193174 
L 159.25727 121.527421 
L 155.862573 121.360298 
L 154.609146 121.694545 
L 151.684484 121.652764 
L 150.117701 121.569202 
L 148.289788 121.94523 
L 146.200743 121.861668 
L 144.686186 121.736326 
L 143.537212 122.028792 
L 142.75382 122.070573 
L 141.604846 121.276736 
L 140.508098 121.318517 
L 139.776932 121.48564 
L 139.568028 121.48564 
L 138.784636 121.443859 
L 137.740114 121.987011 
L 136.277783 121.402079 
L 135.755522 121.402079 
L 135.181035 121.443859 
L 134.345417 121.48564 
L 133.562026 121.276736 
L 132.83086 121.736326 
L 131.786338 121.861668 
L 131.420755 121.610983 
L 130.428459 121.778106 
L 129.175033 121.736326 
L 128.234963 122.279477 
L 127.712702 122.195915 
L 126.824858 122.195915 
L 126.250371 120.315776 
L 125.362527 120.733584 
L 124.631362 119.689062 
L 123.743518 119.438377 
L 120.296595 119.730843 
L 120.035464 119.56372 
L 117.94642 119.856186 
L 113.402749 121.736326 
L 110.948122 122.655505 
L 101.442971 124.869892 
L 86.140722 128.045239 
L 65.354732 132.097985 
L 47.441178 138.574022 
L 38.719418 142.668549 
L 29.893206 143.002796 
z
" clip-path="url(#pd6b7895064)" style="fill: #fdc92c"/>
   </g>
   <g id="PolyCollection_3">
    <path d="M 29.893206 110.079459 
L 29.893206 143.002796 
L 38.719418 142.668549 
L 47.441178 138.574022 
L 65.354732 132.097985 
L 86.140722 128.045239 
L 101.442971 124.869892 
L 110.948122 122.655505 
L 113.402749 121.736326 
L 117.94642 119.856186 
L 120.035464 119.56372 
L 120.296595 119.730843 
L 123.743518 119.438377 
L 124.631362 119.689062 
L 125.362527 120.733584 
L 126.250371 120.315776 
L 126.824858 122.195915 
L 127.712702 122.195915 
L 128.234963 122.279477 
L 129.175033 121.736326 
L 130.428459 121.778106 
L 131.420755 121.610983 
L 131.786338 121.861668 
L 132.83086 121.736326 
L 133.562026 121.276736 
L 134.345417 121.48564 
L 135.181035 121.443859 
L 135.755522 121.402079 
L 136.277783 121.402079 
L 137.740114 121.987011 
L 138.784636 121.443859 
L 139.568028 121.48564 
L 139.776932 121.48564 
L 140.508098 121.318517 
L 141.604846 121.276736 
L 142.75382 122.070573 
L 143.537212 122.028792 
L 144.686186 121.736326 
L 146.200743 121.861668 
L 148.289788 121.94523 
L 150.117701 121.569202 
L 151.684484 121.652764 
L 154.609146 121.694545 
L 155.862573 121.360298 
L 159.25727 121.527421 
L 161.450766 121.193174 
L 162.808645 120.98427 
L 163.644263 120.900708 
L 166.934507 120.775365 
L 168.762421 120.566461 
L 170.642561 120.357556 
L 174.350614 119.814405 
L 177.797537 120.273995 
L 178.372024 120.232214 
L 179.050964 120.232214 
L 180.095486 120.232214 
L 180.931104 120.190433 
L 183.490183 119.145911 
L 188.608341 117.976046 
L 189.600637 117.892484 
L 194.405439 117.600018 
L 195.502187 117.140428 
L 196.598935 117.140428 
L 198.374623 116.179468 
L 199.836954 116.221249 
L 201.247059 115.678097 
L 202.134903 115.510974 
L 205.007338 115.510974 
L 207.984226 115.34385 
L 209.446557 115.218508 
L 210.491079 114.884261 
L 211.796732 115.469193 
L 212.89348 115.176727 
L 214.199133 114.550013 
L 217.280473 114.048643 
L 218.899482 113.965081 
L 220.466266 113.797958 
L 222.085275 113.756177 
L 223.652058 113.756177 
L 225.271067 113.756177 
L 226.890077 113.756177 
L 228.404634 113.756177 
L 230.023643 113.714396 
L 231.590426 113.714396 
L 233.209435 113.380149 
L 234.776219 113.296587 
L 236.395228 113.087682 
L 238.014237 112.920559 
L 239.58102 112.753435 
L 241.20003 112.460969 
L 242.766813 112.252065 
L 244.385822 112.252065 
L 246.004831 112.084941 
L 247.467162 112.04316 
L 249.086172 112.001379 
L 250.652955 111.834256 
L 252.271964 111.708913 
L 253.838747 111.458228 
L 255.457756 111.374666 
L 257.076766 111.123981 
L 258.643549 111.0822 
L 260.262558 110.831515 
L 261.829341 110.747953 
L 263.448351 110.580829 
L 265.06736 110.580829 
L 266.529691 110.580829 
L 268.1487 110.580829 
L 269.715483 110.539049 
L 271.334493 110.455487 
L 272.901276 110.539049 
L 274.520285 110.497268 
L 276.139294 110.288363 
L 277.706077 110.12124 
L 279.325087 109.995897 
L 280.89187 109.703431 
L 282.510879 109.745212 
L 284.129888 109.619869 
L 285.592219 109.536307 
L 287.211229 109.452746 
L 288.778012 109.494526 
L 290.397021 108.826032 
L 291.963804 108.867813 
L 293.582814 108.826032 
L 295.201823 108.867813 
L 296.768606 108.867813 
L 298.387615 108.826032 
L 299.954398 108.784251 
L 301.573408 108.658909 
L 303.192417 108.658909 
L 304.706974 108.617128 
L 306.325983 108.617128 
L 307.892767 108.533566 
L 309.511776 108.491785 
L 311.078559 108.491785 
L 312.697568 108.450004 
L 314.316577 108.282881 
L 315.883361 108.408223 
L 317.50237 108.408223 
L 319.069153 107.948634 
L 320.688162 107.739729 
L 322.307172 108.575347 
L 323.769503 108.658909 
L 325.388512 108.324662 
L 326.955295 108.324662 
L 328.574304 107.865072 
L 330.141088 106.569864 
L 331.760097 104.271916 
L 333.379106 103.937669 
L 334.945889 103.352736 
L 336.564899 103.310956 
L 338.131682 103.185613 
L 339.750691 103.102051 
L 341.3697 103.185613 
L 342.832031 103.06027 
L 344.45104 102.726023 
L 346.017824 102.684242 
L 347.636833 102.642461 
L 349.203616 102.642461 
L 350.822625 102.642461 
L 352.441635 102.60068 
L 354.008418 102.60068 
L 355.627427 102.60068 
L 357.19421 102.517119 
L 358.81322 102.517119 
L 360.432229 102.433557 
L 361.89456 102.433557 
L 363.513569 102.391776 
L 365.080352 102.391776 
L 366.699361 102.517119 
L 368.266145 102.517119 
L 369.885154 102.475338 
L 371.504163 102.517119 
L 373.070946 102.475338 
L 374.689956 102.475338 
L 376.256739 102.475338 
L 377.875748 102.475338 
L 379.494757 102.475338 
L 381.009314 102.5589 
L 382.628324 102.517119 
L 384.195107 102.5589 
L 385.814116 102.684242 
L 387.380899 102.642461 
L 388.999909 102.60068 
L 390.618918 102.60068 
L 392.185701 102.517119 
L 393.80471 102.475338 
L 395.371493 102.391776 
L 396.990503 102.391776 
L 398.609512 102.349995 
L 400.071843 102.182872 
L 401.690852 101.973967 
L 403.257635 101.848625 
L 404.876645 101.890405 
L 406.443428 101.848625 
L 408.062437 101.806844 
L 409.681446 101.765063 
L 411.24823 101.723282 
L 412.867239 101.597939 
L 414.434022 101.63972 
L 416.053031 101.514377 
L 417.672041 101.514377 
L 419.134372 101.430816 
L 420.753381 101.389035 
L 422.320164 101.389035 
L 423.939173 101.430816 
L 425.505956 101.221911 
L 427.124966 101.221911 
L 428.743975 101.18013 
L 430.310758 101.305473 
L 431.929767 101.263692 
L 433.496551 101.263692 
L 435.11556 101.18013 
L 436.734569 101.054788 
L 438.1969 100.887664 
L 439.815909 100.845883 
L 441.382693 100.845883 
L 443.001702 100.720541 
L 444.568485 100.469855 
L 446.187494 100.177389 
L 447.806504 100.177389 
L 449.373287 100.093827 
L 449.373287 84.969147 
L 449.373287 84.969147 
L 447.806504 84.969147 
L 446.187494 84.969147 
L 444.568485 85.052709 
L 443.001702 85.052709 
L 441.382693 85.052709 
L 439.815909 85.052709 
L 438.1969 85.052709 
L 436.734569 85.09449 
L 435.11556 85.09449 
L 433.496551 85.178052 
L 431.929767 85.178052 
L 430.310758 85.219833 
L 428.743975 85.219833 
L 427.124966 85.219833 
L 425.505956 85.219833 
L 423.939173 85.303394 
L 422.320164 85.386956 
L 420.753381 85.386956 
L 419.134372 85.386956 
L 417.672041 85.386956 
L 416.053031 85.386956 
L 414.434022 85.428737 
L 412.867239 85.386956 
L 411.24823 85.470518 
L 409.681446 85.470518 
L 408.062437 85.470518 
L 406.443428 85.512299 
L 404.876645 85.512299 
L 403.257635 85.512299 
L 401.690852 85.55408 
L 400.071843 85.59586 
L 398.609512 85.637641 
L 396.990503 85.637641 
L 395.371493 85.59586 
L 393.80471 85.59586 
L 392.185701 85.59586 
L 390.618918 85.55408 
L 388.999909 85.55408 
L 387.380899 85.59586 
L 385.814116 85.59586 
L 384.195107 85.512299 
L 382.628324 85.470518 
L 381.009314 85.470518 
L 379.494757 85.512299 
L 377.875748 85.512299 
L 376.256739 85.512299 
L 374.689956 85.512299 
L 373.070946 85.512299 
L 371.504163 85.512299 
L 369.885154 85.512299 
L 368.266145 85.512299 
L 366.699361 85.512299 
L 365.080352 85.428737 
L 363.513569 85.428737 
L 361.89456 85.428737 
L 360.432229 85.428737 
L 358.81322 85.386956 
L 357.19421 85.386956 
L 355.627427 85.470518 
L 354.008418 85.470518 
L 352.441635 85.470518 
L 350.822625 85.512299 
L 349.203616 85.512299 
L 347.636833 85.512299 
L 346.017824 85.55408 
L 344.45104 85.59586 
L 342.832031 85.679422 
L 341.3697 85.679422 
L 339.750691 85.679422 
L 338.131682 85.846546 
L 336.564899 85.846546 
L 334.945889 85.846546 
L 333.379106 85.721203 
L 331.760097 85.762984 
L 330.141088 85.971888 
L 328.574304 86.97463 
L 326.955295 87.141753 
L 325.388512 87.183534 
L 323.769503 87.225315 
L 322.307172 87.225315 
L 320.688162 87.225315 
L 319.069153 87.225315 
L 317.50237 87.267096 
L 315.883361 87.267096 
L 314.316577 87.308877 
L 312.697568 87.350658 
L 311.078559 87.392438 
L 309.511776 87.392438 
L 307.892767 87.392438 
L 306.325983 87.392438 
L 304.706974 87.392438 
L 303.192417 87.434219 
L 301.573408 87.434219 
L 299.954398 87.476 
L 298.387615 87.517781 
L 296.768606 87.517781 
L 295.201823 87.517781 
L 293.582814 87.517781 
L 291.963804 87.517781 
L 290.397021 87.517781 
L 288.778012 87.517781 
L 287.211229 87.517781 
L 285.592219 87.601343 
L 284.129888 87.601343 
L 282.510879 87.601343 
L 280.89187 87.643124 
L 279.325087 87.643124 
L 277.706077 87.684905 
L 276.139294 87.852028 
L 274.520285 88.854769 
L 272.901276 88.854769 
L 271.334493 88.854769 
L 269.715483 88.938331 
L 268.1487 88.938331 
L 266.529691 88.938331 
L 265.06736 88.938331 
L 263.448351 88.938331 
L 261.829341 88.938331 
L 260.262558 89.021893 
L 258.643549 88.938331 
L 257.076766 88.980112 
L 255.457756 89.063674 
L 253.838747 89.147236 
L 252.271964 89.35614 
L 250.652955 89.397921 
L 249.086172 89.397921 
L 247.467162 89.397921 
L 246.004831 89.397921 
L 244.385822 89.481483 
L 242.766813 89.481483 
L 241.20003 89.565044 
L 239.58102 89.565044 
L 238.014237 89.439702 
L 236.395228 89.523264 
L 234.776219 89.523264 
L 233.209435 89.523264 
L 231.590426 89.565044 
L 230.023643 89.565044 
L 228.404634 89.565044 
L 226.890077 89.606825 
L 225.271067 89.606825 
L 223.652058 89.648606 
L 222.085275 89.606825 
L 220.466266 89.606825 
L 218.899482 89.690387 
L 217.280473 89.732168 
L 214.199133 90.024634 
L 212.89348 90.651347 
L 211.796732 90.943814 
L 210.491079 90.27532 
L 209.446557 90.818471 
L 207.984226 90.860252 
L 205.007338 91.821212 
L 202.134903 91.821212 
L 201.247059 91.779431 
L 199.836954 91.946555 
L 198.374623 91.946555 
L 196.598935 92.030117 
L 195.502187 92.030117 
L 194.405439 92.071898 
L 189.600637 92.239021 
L 188.608341 92.239021 
L 183.490183 93.325324 
L 180.931104 93.450667 
L 180.095486 93.492448 
L 179.050964 93.61779 
L 178.372024 93.61779 
L 177.797537 93.61779 
L 174.350614 93.61779 
L 170.642561 93.868476 
L 168.762421 93.993818 
L 166.934507 94.035599 
L 163.644263 94.119161 
L 162.808645 94.244504 
L 161.450766 94.453408 
L 159.25727 94.704093 
L 155.862573 94.871217 
L 154.609146 95.539711 
L 151.684484 95.581492 
L 150.117701 95.873958 
L 148.289788 96.208205 
L 146.200743 96.291767 
L 144.686186 96.291767 
L 143.537212 96.291767 
L 142.75382 96.291767 
L 141.604846 96.45889 
L 140.508098 96.626014 
L 139.776932 96.751357 
L 139.568028 96.751357 
L 138.784636 96.709576 
L 137.740114 97.294508 
L 136.277783 96.793138 
L 135.755522 96.793138 
L 135.181035 96.876699 
L 134.345417 96.876699 
L 133.562026 96.876699 
L 132.83086 97.503413 
L 131.786338 97.503413 
L 131.420755 97.002042 
L 130.428459 97.628755 
L 129.175033 98.79862 
L 128.234963 99.75958 
L 127.712702 99.801361 
L 126.824858 99.801361 
L 126.250371 99.843142 
L 125.362527 100.469855 
L 124.631362 99.884923 
L 123.743518 99.884923 
L 120.296595 100.177389 
L 120.035464 100.21917 
L 117.94642 100.260951 
L 113.402749 97.503413 
L 110.948122 100.428074 
L 101.442971 102.433557 
L 86.140722 104.48082 
L 65.354732 105.90137 
L 47.441178 108.032195 
L 38.719418 110.539049 
L 29.893206 110.079459 
z
" clip-path="url(#pd6b7895064)" style="fill: #aeaeae"/>
   </g>
   <g id="PolyCollection_4">
    <path d="M 29.893206 84.718462 
L 29.893206 110.079459 
L 38.719418 110.539049 
L 47.441178 108.032195 
L 65.354732 105.90137 
L 86.140722 104.48082 
L 101.442971 102.433557 
L 110.948122 100.428074 
L 113.402749 97.503413 
L 117.94642 100.260951 
L 120.035464 100.21917 
L 120.296595 100.177389 
L 123.743518 99.884923 
L 124.631362 99.884923 
L 125.362527 100.469855 
L 126.250371 99.843142 
L 126.824858 99.801361 
L 127.712702 99.801361 
L 128.234963 99.75958 
L 129.175033 98.79862 
L 130.428459 97.628755 
L 131.420755 97.002042 
L 131.786338 97.503413 
L 132.83086 97.503413 
L 133.562026 96.876699 
L 134.345417 96.876699 
L 135.181035 96.876699 
L 135.755522 96.793138 
L 136.277783 96.793138 
L 137.740114 97.294508 
L 138.784636 96.709576 
L 139.568028 96.751357 
L 139.776932 96.751357 
L 140.508098 96.626014 
L 141.604846 96.45889 
L 142.75382 96.291767 
L 143.537212 96.291767 
L 144.686186 96.291767 
L 146.200743 96.291767 
L 148.289788 96.208205 
L 150.117701 95.873958 
L 151.684484 95.581492 
L 154.609146 95.539711 
L 155.862573 94.871217 
L 159.25727 94.704093 
L 161.450766 94.453408 
L 162.808645 94.244504 
L 163.644263 94.119161 
L 166.934507 94.035599 
L 168.762421 93.993818 
L 170.642561 93.868476 
L 174.350614 93.61779 
L 177.797537 93.61779 
L 178.372024 93.61779 
L 179.050964 93.61779 
L 180.095486 93.492448 
L 180.931104 93.450667 
L 183.490183 93.325324 
L 188.608341 92.239021 
L 189.600637 92.239021 
L 194.405439 92.071898 
L 195.502187 92.030117 
L 196.598935 92.030117 
L 198.374623 91.946555 
L 199.836954 91.946555 
L 201.247059 91.779431 
L 202.134903 91.821212 
L 205.007338 91.821212 
L 207.984226 90.860252 
L 209.446557 90.818471 
L 210.491079 90.27532 
L 211.796732 90.943814 
L 212.89348 90.651347 
L 214.199133 90.024634 
L 217.280473 89.732168 
L 218.899482 89.690387 
L 220.466266 89.606825 
L 222.085275 89.606825 
L 223.652058 89.648606 
L 225.271067 89.606825 
L 226.890077 89.606825 
L 228.404634 89.565044 
L 230.023643 89.565044 
L 231.590426 89.565044 
L 233.209435 89.523264 
L 234.776219 89.523264 
L 236.395228 89.523264 
L 238.014237 89.439702 
L 239.58102 89.565044 
L 241.20003 89.565044 
L 242.766813 89.481483 
L 244.385822 89.481483 
L 246.004831 89.397921 
L 247.467162 89.397921 
L 249.086172 89.397921 
L 250.652955 89.397921 
L 252.271964 89.35614 
L 253.838747 89.147236 
L 255.457756 89.063674 
L 257.076766 88.980112 
L 258.643549 88.938331 
L 260.262558 89.021893 
L 261.829341 88.938331 
L 263.448351 88.938331 
L 265.06736 88.938331 
L 266.529691 88.938331 
L 268.1487 88.938331 
L 269.715483 88.938331 
L 271.334493 88.854769 
L 272.901276 88.854769 
L 274.520285 88.854769 
L 276.139294 87.852028 
L 277.706077 87.684905 
L 279.325087 87.643124 
L 280.89187 87.643124 
L 282.510879 87.601343 
L 284.129888 87.601343 
L 285.592219 87.601343 
L 287.211229 87.517781 
L 288.778012 87.517781 
L 290.397021 87.517781 
L 291.963804 87.517781 
L 293.582814 87.517781 
L 295.201823 87.517781 
L 296.768606 87.517781 
L 298.387615 87.517781 
L 299.954398 87.476 
L 301.573408 87.434219 
L 303.192417 87.434219 
L 304.706974 87.392438 
L 306.325983 87.392438 
L 307.892767 87.392438 
L 309.511776 87.392438 
L 311.078559 87.392438 
L 312.697568 87.350658 
L 314.316577 87.308877 
L 315.883361 87.267096 
L 317.50237 87.267096 
L 319.069153 87.225315 
L 320.688162 87.225315 
L 322.307172 87.225315 
L 323.769503 87.225315 
L 325.388512 87.183534 
L 326.955295 87.141753 
L 328.574304 86.97463 
L 330.141088 85.971888 
L 331.760097 85.762984 
L 333.379106 85.721203 
L 334.945889 85.846546 
L 336.564899 85.846546 
L 338.131682 85.846546 
L 339.750691 85.679422 
L 341.3697 85.679422 
L 342.832031 85.679422 
L 344.45104 85.59586 
L 346.017824 85.55408 
L 347.636833 85.512299 
L 349.203616 85.512299 
L 350.822625 85.512299 
L 352.441635 85.470518 
L 354.008418 85.470518 
L 355.627427 85.470518 
L 357.19421 85.386956 
L 358.81322 85.386956 
L 360.432229 85.428737 
L 361.89456 85.428737 
L 363.513569 85.428737 
L 365.080352 85.428737 
L 366.699361 85.512299 
L 368.266145 85.512299 
L 369.885154 85.512299 
L 371.504163 85.512299 
L 373.070946 85.512299 
L 374.689956 85.512299 
L 376.256739 85.512299 
L 377.875748 85.512299 
L 379.494757 85.512299 
L 381.009314 85.470518 
L 382.628324 85.470518 
L 384.195107 85.512299 
L 385.814116 85.59586 
L 387.380899 85.59586 
L 388.999909 85.55408 
L 390.618918 85.55408 
L 392.185701 85.59586 
L 393.80471 85.59586 
L 395.371493 85.59586 
L 396.990503 85.637641 
L 398.609512 85.637641 
L 400.071843 85.59586 
L 401.690852 85.55408 
L 403.257635 85.512299 
L 404.876645 85.512299 
L 406.443428 85.512299 
L 408.062437 85.470518 
L 409.681446 85.470518 
L 411.24823 85.470518 
L 412.867239 85.386956 
L 414.434022 85.428737 
L 416.053031 85.386956 
L 417.672041 85.386956 
L 419.134372 85.386956 
L 420.753381 85.386956 
L 422.320164 85.386956 
L 423.939173 85.303394 
L 425.505956 85.219833 
L 427.124966 85.219833 
L 428.743975 85.219833 
L 430.310758 85.219833 
L 431.929767 85.178052 
L 433.496551 85.178052 
L 435.11556 85.09449 
L 436.734569 85.09449 
L 438.1969 85.052709 
L 439.815909 85.052709 
L 441.382693 85.052709 
L 443.001702 85.052709 
L 444.568485 85.052709 
L 446.187494 84.969147 
L 447.806504 84.969147 
L 449.373287 84.969147 
L 449.373287 74.064336 
L 449.373287 74.064336 
L 447.806504 74.064336 
L 446.187494 74.064336 
L 444.568485 74.064336 
L 443.001702 74.064336 
L 441.382693 74.064336 
L 439.815909 74.064336 
L 438.1969 74.064336 
L 436.734569 74.273241 
L 435.11556 74.315022 
L 433.496551 74.356803 
L 431.929767 74.356803 
L 430.310758 74.356803 
L 428.743975 74.356803 
L 427.124966 74.356803 
L 425.505956 74.356803 
L 423.939173 74.356803 
L 422.320164 74.356803 
L 420.753381 74.356803 
L 419.134372 74.398583 
L 417.672041 74.356803 
L 416.053031 74.356803 
L 414.434022 74.398583 
L 412.867239 74.106117 
L 411.24823 74.106117 
L 409.681446 73.730089 
L 408.062437 73.730089 
L 406.443428 73.730089 
L 404.876645 73.730089 
L 403.257635 73.730089 
L 401.690852 73.730089 
L 400.071843 73.77187 
L 398.609512 73.77187 
L 396.990503 73.77187 
L 395.371493 73.730089 
L 393.80471 73.730089 
L 392.185701 73.730089 
L 390.618918 73.77187 
L 388.999909 73.77187 
L 387.380899 73.77187 
L 385.814116 73.77187 
L 384.195107 73.688308 
L 382.628324 73.646527 
L 381.009314 73.646527 
L 379.494757 73.646527 
L 377.875748 73.646527 
L 376.256739 73.646527 
L 374.689956 73.646527 
L 373.070946 73.646527 
L 371.504163 73.646527 
L 369.885154 73.646527 
L 368.266145 73.646527 
L 366.699361 73.646527 
L 365.080352 73.562966 
L 363.513569 73.562966 
L 361.89456 73.562966 
L 360.432229 73.562966 
L 358.81322 73.562966 
L 357.19421 73.562966 
L 355.627427 73.562966 
L 354.008418 73.562966 
L 352.441635 73.562966 
L 350.822625 73.521185 
L 349.203616 73.521185 
L 347.636833 73.521185 
L 346.017824 73.521185 
L 344.45104 73.521185 
L 342.832031 73.521185 
L 341.3697 73.521185 
L 339.750691 73.521185 
L 338.131682 73.521185 
L 336.564899 73.521185 
L 334.945889 73.521185 
L 333.379106 73.521185 
L 331.760097 73.521185 
L 330.141088 73.521185 
L 328.574304 73.521185 
L 326.955295 73.521185 
L 325.388512 73.521185 
L 323.769503 73.521185 
L 322.307172 73.521185 
L 320.688162 73.521185 
L 319.069153 73.521185 
L 317.50237 73.521185 
L 315.883361 73.521185 
L 314.316577 73.521185 
L 312.697568 73.521185 
L 311.078559 73.521185 
L 309.511776 73.521185 
L 307.892767 73.521185 
L 306.325983 73.521185 
L 304.706974 73.897213 
L 303.192417 73.938994 
L 301.573408 73.938994 
L 299.954398 73.938994 
L 298.387615 74.106117 
L 296.768606 74.106117 
L 295.201823 74.106117 
L 293.582814 74.106117 
L 291.963804 74.106117 
L 290.397021 74.106117 
L 288.778012 74.106117 
L 287.211229 74.106117 
L 285.592219 74.106117 
L 284.129888 74.106117 
L 282.510879 74.106117 
L 280.89187 74.147898 
L 279.325087 74.147898 
L 277.706077 74.147898 
L 276.139294 74.147898 
L 274.520285 73.855432 
L 272.901276 74.022555 
L 271.334493 73.980775 
L 269.715483 73.980775 
L 268.1487 73.980775 
L 266.529691 73.980775 
L 265.06736 73.980775 
L 263.448351 73.980775 
L 261.829341 73.980775 
L 260.262558 74.022555 
L 258.643549 74.022555 
L 257.076766 74.022555 
L 255.457756 73.980775 
L 253.838747 73.980775 
L 252.271964 73.980775 
L 250.652955 73.980775 
L 249.086172 73.980775 
L 247.467162 73.980775 
L 246.004831 73.980775 
L 244.385822 73.980775 
L 242.766813 73.980775 
L 241.20003 73.980775 
L 239.58102 74.022555 
L 238.014237 73.980775 
L 236.395228 74.022555 
L 234.776219 73.980775 
L 233.209435 73.980775 
L 231.590426 73.980775 
L 230.023643 73.980775 
L 228.404634 73.980775 
L 226.890077 73.980775 
L 225.271067 74.022555 
L 223.652058 74.022555 
L 222.085275 73.980775 
L 220.466266 73.980775 
L 218.899482 73.980775 
L 217.280473 74.064336 
L 214.199133 74.356803 
L 212.89348 75.067078 
L 211.796732 75.150639 
L 210.491079 74.482145 
L 209.446557 76.1116 
L 207.984226 76.1116 
L 205.007338 77.615712 
L 202.134903 77.615712 
L 201.247059 77.573931 
L 199.836954 77.741054 
L 198.374623 77.699273 
L 196.598935 77.699273 
L 195.502187 77.699273 
L 194.405439 77.699273 
L 189.600637 78.03352 
L 188.608341 78.03352 
L 183.490183 78.242425 
L 180.931104 78.200644 
L 180.095486 78.200644 
L 179.050964 78.284206 
L 178.372024 78.284206 
L 177.797537 78.284206 
L 174.350614 78.869138 
L 170.642561 78.994481 
L 168.762421 78.994481 
L 166.934507 78.994481 
L 163.644263 78.994481 
L 162.808645 78.9527 
L 161.450766 78.9527 
L 159.25727 78.827357 
L 155.862573 78.785576 
L 154.609146 79.871879 
L 151.684484 79.997222 
L 150.117701 80.122565 
L 148.289788 79.997222 
L 146.200743 79.997222 
L 144.686186 79.955441 
L 143.537212 79.955441 
L 142.75382 79.955441 
L 141.604846 79.91366 
L 140.508098 79.91366 
L 139.776932 79.955441 
L 139.568028 79.955441 
L 138.784636 79.955441 
L 137.740114 80.415031 
L 136.277783 79.955441 
L 135.755522 79.955441 
L 135.181035 79.997222 
L 134.345417 79.91366 
L 133.562026 79.91366 
L 132.83086 80.331469 
L 131.786338 80.247907 
L 131.420755 79.788318 
L 130.428459 80.37325 
L 129.175033 80.206126 
L 128.234963 80.247907 
L 127.712702 80.247907 
L 126.824858 80.247907 
L 126.250371 80.289688 
L 125.362527 80.83284 
L 124.631362 80.247907 
L 123.743518 80.247907 
L 120.296595 81.292429 
L 120.035464 81.33421 
L 117.94642 81.292429 
L 113.402749 80.331469 
L 110.948122 81.292429 
L 101.442971 82.128047 
L 86.140722 82.587637 
L 65.354732 83.339693 
L 47.441178 83.799282 
L 38.719418 84.885585 
L 29.893206 84.718462 
z
" clip-path="url(#pd6b7895064)" style="fill: #d5dce5"/>
   </g>
   <g id="matplotlib.axis_1">
    <g id="xtick_1">
     <g id="line2d_1">
      <defs>
       <path id="ma0805fe0e1" d="M 0 0 
L 0 3.5 
" style="stroke: #000000; stroke-width: 0.8"/>
      </defs>
      <g>
       <use xlink:href="#ma0805fe0e1" x="72.666387" y="285.350269" style="stroke: #000000; stroke-width: 0.8"/>
      </g>
     </g>
     <g id="text_1">
      <!-- 2004 -->
      <g transform="translate(59.941387 299.948707) scale(0.1 -0.1)">
       <defs>
        <path id="DejaVuSans-32" d="M 1228 531 
L 3431 531 
L 3431 0 
L 469 0 
L 469 531 
Q 828 903 1448 1529 
Q 2069 2156 2228 2338 
Q 2531 2678 2651 2914 
Q 2772 3150 2772 3378 
Q 2772 3750 2511 3984 
Q 2250 4219 1831 4219 
Q 1534 4219 1204 4116 
Q 875 4013 500 3803 
L 500 4441 
Q 881 4594 1212 4672 
Q 1544 4750 1819 4750 
Q 2544 4750 2975 4387 
Q 3406 4025 3406 3419 
Q 3406 3131 3298 2873 
Q 3191 2616 2906 2266 
Q 2828 2175 2409 1742 
Q 1991 1309 1228 531 
z
" transform="scale(0.015625)"/>
        <path id="DejaVuSans-30" d="M 2034 4250 
Q 1547 4250 1301 3770 
Q 1056 3291 1056 2328 
Q 1056 1369 1301 889 
Q 1547 409 2034 409 
Q 2525 409 2770 889 
Q 3016 1369 3016 2328 
Q 3016 3291 2770 3770 
Q 2525 4250 2034 4250 
z
M 2034 4750 
Q 2819 4750 3233 4129 
Q 3647 3509 3647 2328 
Q 3647 1150 3233 529 
Q 2819 -91 2034 -91 
Q 1250 -91 836 529 
Q 422 1150 422 2328 
Q 422 3509 836 4129 
Q 1250 4750 2034 4750 
z
" transform="scale(0.015625)"/>
        <path id="DejaVuSans-34" d="M 2419 4116 
L 825 1625 
L 2419 1625 
L 2419 4116 
z
M 2253 4666 
L 3047 4666 
L 3047 1625 
L 3713 1625 
L 3713 1100 
L 3047 1100 
L 3047 0 
L 2419 0 
L 2419 1100 
L 313 1100 
L 313 1709 
L 2253 4666 
z
" transform="scale(0.015625)"/>
       </defs>
       <use xlink:href="#DejaVuSans-32"/>
       <use xlink:href="#DejaVuSans-30" x="63.623047"/>
       <use xlink:href="#DejaVuSans-30" x="127.246094"/>
       <use xlink:href="#DejaVuSans-34" x="190.869141"/>
      </g>
     </g>
    </g>
    <g id="xtick_2">
     <g id="line2d_2">
      <g>
       <use xlink:href="#ma0805fe0e1" x="110.84367" y="285.350269" style="stroke: #000000; stroke-width: 0.8"/>
      </g>
     </g>
     <g id="text_2">
      <!-- 2006 -->
      <g transform="translate(98.11867 299.948707) scale(0.1 -0.1)">
       <defs>
        <path id="DejaVuSans-36" d="M 2113 2584 
Q 1688 2584 1439 2293 
Q 1191 2003 1191 1497 
Q 1191 994 1439 701 
Q 1688 409 2113 409 
Q 2538 409 2786 701 
Q 3034 994 3034 1497 
Q 3034 2003 2786 2293 
Q 2538 2584 2113 2584 
z
M 3366 4563 
L 3366 3988 
Q 3128 4100 2886 4159 
Q 2644 4219 2406 4219 
Q 1781 4219 1451 3797 
Q 1122 3375 1075 2522 
Q 1259 2794 1537 2939 
Q 1816 3084 2150 3084 
Q 2853 3084 3261 2657 
Q 3669 2231 3669 1497 
Q 3669 778 3244 343 
Q 2819 -91 2113 -91 
Q 1303 -91 875 529 
Q 447 1150 447 2328 
Q 447 3434 972 4092 
Q 1497 4750 2381 4750 
Q 2619 4750 2861 4703 
Q 3103 4656 3366 4563 
z
" transform="scale(0.015625)"/>
       </defs>
       <use xlink:href="#DejaVuSans-32"/>
       <use xlink:href="#DejaVuSans-30" x="63.623047"/>
       <use xlink:href="#DejaVuSans-30" x="127.246094"/>
       <use xlink:href="#DejaVuSans-36" x="190.869141"/>
      </g>
     </g>
    </g>
    <g id="xtick_3">
     <g id="line2d_3">
      <g>
       <use xlink:href="#ma0805fe0e1" x="148.968727" y="285.350269" style="stroke: #000000; stroke-width: 0.8"/>
      </g>
     </g>
     <g id="text_3">
      <!-- 2008 -->
      <g transform="translate(136.243727 299.948707) scale(0.1 -0.1)">
       <defs>
        <path id="DejaVuSans-38" d="M 2034 2216 
Q 1584 2216 1326 1975 
Q 1069 1734 1069 1313 
Q 1069 891 1326 650 
Q 1584 409 2034 409 
Q 2484 409 2743 651 
Q 3003 894 3003 1313 
Q 3003 1734 2745 1975 
Q 2488 2216 2034 2216 
z
M 1403 2484 
Q 997 2584 770 2862 
Q 544 3141 544 3541 
Q 544 4100 942 4425 
Q 1341 4750 2034 4750 
Q 2731 4750 3128 4425 
Q 3525 4100 3525 3541 
Q 3525 3141 3298 2862 
Q 3072 2584 2669 2484 
Q 3125 2378 3379 2068 
Q 3634 1759 3634 1313 
Q 3634 634 3220 271 
Q 2806 -91 2034 -91 
Q 1263 -91 848 271 
Q 434 634 434 1313 
Q 434 1759 690 2068 
Q 947 2378 1403 2484 
z
M 1172 3481 
Q 1172 3119 1398 2916 
Q 1625 2713 2034 2713 
Q 2441 2713 2670 2916 
Q 2900 3119 2900 3481 
Q 2900 3844 2670 4047 
Q 2441 4250 2034 4250 
Q 1625 4250 1398 4047 
Q 1172 3844 1172 3481 
z
" transform="scale(0.015625)"/>
       </defs>
       <use xlink:href="#DejaVuSans-32"/>
       <use xlink:href="#DejaVuSans-30" x="63.623047"/>
       <use xlink:href="#DejaVuSans-30" x="127.246094"/>
       <use xlink:href="#DejaVuSans-38" x="190.869141"/>
      </g>
     </g>
    </g>
    <g id="xtick_4">
     <g id="line2d_4">
      <g>
       <use xlink:href="#ma0805fe0e1" x="187.14601" y="285.350269" style="stroke: #000000; stroke-width: 0.8"/>
      </g>
     </g>
     <g id="text_4">
      <!-- 2010 -->
      <g transform="translate(174.42101 299.948707) scale(0.1 -0.1)">
       <defs>
        <path id="DejaVuSans-31" d="M 794 531 
L 1825 531 
L 1825 4091 
L 703 3866 
L 703 4441 
L 1819 4666 
L 2450 4666 
L 2450 531 
L 3481 531 
L 3481 0 
L 794 0 
L 794 531 
z
" transform="scale(0.015625)"/>
       </defs>
       <use xlink:href="#DejaVuSans-32"/>
       <use xlink:href="#DejaVuSans-30" x="63.623047"/>
       <use xlink:href="#DejaVuSans-31" x="127.246094"/>
       <use xlink:href="#DejaVuSans-30" x="190.869141"/>
      </g>
     </g>
    </g>
    <g id="xtick_5">
     <g id="line2d_5">
      <g>
       <use xlink:href="#ma0805fe0e1" x="225.271067" y="285.350269" style="stroke: #000000; stroke-width: 0.8"/>
      </g>
     </g>
     <g id="text_5">
      <!-- 2012 -->
      <g transform="translate(212.546067 299.948707) scale(0.1 -0.1)">
       <use xlink:href="#DejaVuSans-32"/>
       <use xlink:href="#DejaVuSans-30" x="63.623047"/>
       <use xlink:href="#DejaVuSans-31" x="127.246094"/>
       <use xlink:href="#DejaVuSans-32" x="190.869141"/>
      </g>
     </g>
    </g>
    <g id="xtick_6">
     <g id="line2d_6">
      <g>
       <use xlink:href="#ma0805fe0e1" x="263.448351" y="285.350269" style="stroke: #000000; stroke-width: 0.8"/>
      </g>
     </g>
     <g id="text_6">
      <!-- 2014 -->
      <g transform="translate(250.723351 299.948707) scale(0.1 -0.1)">
       <use xlink:href="#DejaVuSans-32"/>
       <use xlink:href="#DejaVuSans-30" x="63.623047"/>
       <use xlink:href="#DejaVuSans-31" x="127.246094"/>
       <use xlink:href="#DejaVuSans-34" x="190.869141"/>
      </g>
     </g>
    </g>
    <g id="xtick_7">
     <g id="line2d_7">
      <g>
       <use xlink:href="#ma0805fe0e1" x="301.573408" y="285.350269" style="stroke: #000000; stroke-width: 0.8"/>
      </g>
     </g>
     <g id="text_7">
      <!-- 2016 -->
      <g transform="translate(288.848408 299.948707) scale(0.1 -0.1)">
       <use xlink:href="#DejaVuSans-32"/>
       <use xlink:href="#DejaVuSans-30" x="63.623047"/>
       <use xlink:href="#DejaVuSans-31" x="127.246094"/>
       <use xlink:href="#DejaVuSans-36" x="190.869141"/>
      </g>
     </g>
    </g>
    <g id="xtick_8">
     <g id="line2d_8">
      <g>
       <use xlink:href="#ma0805fe0e1" x="339.750691" y="285.350269" style="stroke: #000000; stroke-width: 0.8"/>
      </g>
     </g>
     <g id="text_8">
      <!-- 2018 -->
      <g transform="translate(327.025691 299.948707) scale(0.1 -0.1)">
       <use xlink:href="#DejaVuSans-32"/>
       <use xlink:href="#DejaVuSans-30" x="63.623047"/>
       <use xlink:href="#DejaVuSans-31" x="127.246094"/>
       <use xlink:href="#DejaVuSans-38" x="190.869141"/>
      </g>
     </g>
    </g>
    <g id="xtick_9">
     <g id="line2d_9">
      <g>
       <use xlink:href="#ma0805fe0e1" x="377.875748" y="285.350269" style="stroke: #000000; stroke-width: 0.8"/>
      </g>
     </g>
     <g id="text_9">
      <!-- 2020 -->
      <g transform="translate(365.150748 299.948707) scale(0.1 -0.1)">
       <use xlink:href="#DejaVuSans-32"/>
       <use xlink:href="#DejaVuSans-30" x="63.623047"/>
       <use xlink:href="#DejaVuSans-32" x="127.246094"/>
       <use xlink:href="#DejaVuSans-30" x="190.869141"/>
      </g>
     </g>
    </g>
    <g id="xtick_10">
     <g id="line2d_10">
      <g>
       <use xlink:href="#ma0805fe0e1" x="416.053031" y="285.350269" style="stroke: #000000; stroke-width: 0.8"/>
      </g>
     </g>
     <g id="text_10">
      <!-- 2022 -->
      <g transform="translate(403.328031 299.948707) scale(0.1 -0.1)">
       <use xlink:href="#DejaVuSans-32"/>
       <use xlink:href="#DejaVuSans-30" x="63.623047"/>
       <use xlink:href="#DejaVuSans-32" x="127.246094"/>
       <use xlink:href="#DejaVuSans-32" x="190.869141"/>
      </g>
     </g>
    </g>
    <g id="text_11">
     <!-- Year -->
     <g transform="translate(239.86375 317.426051) scale(0.15 -0.15)">
      <defs>
       <path id="DejaVuSans-59" d="M -13 4666 
L 666 4666 
L 1959 2747 
L 3244 4666 
L 3922 4666 
L 2272 2222 
L 2272 0 
L 1638 0 
L 1638 2222 
L -13 4666 
z
" transform="scale(0.015625)"/>
       <path id="DejaVuSans-65" d="M 3597 1894 
L 3597 1613 
L 953 1613 
Q 991 1019 1311 708 
Q 1631 397 2203 397 
Q 2534 397 2845 478 
Q 3156 559 3463 722 
L 3463 178 
Q 3153 47 2828 -22 
Q 2503 -91 2169 -91 
Q 1331 -91 842 396 
Q 353 884 353 1716 
Q 353 2575 817 3079 
Q 1281 3584 2069 3584 
Q 2775 3584 3186 3129 
Q 3597 2675 3597 1894 
z
M 3022 2063 
Q 3016 2534 2758 2815 
Q 2500 3097 2075 3097 
Q 1594 3097 1305 2825 
Q 1016 2553 972 2059 
L 3022 2063 
z
" transform="scale(0.015625)"/>
       <path id="DejaVuSans-61" d="M 2194 1759 
Q 1497 1759 1228 1600 
Q 959 1441 959 1056 
Q 959 750 1161 570 
Q 1363 391 1709 391 
Q 2188 391 2477 730 
Q 2766 1069 2766 1631 
L 2766 1759 
L 2194 1759 
z
M 3341 1997 
L 3341 0 
L 2766 0 
L 2766 531 
Q 2569 213 2275 61 
Q 1981 -91 1556 -91 
Q 1019 -91 701 211 
Q 384 513 384 1019 
Q 384 1609 779 1909 
Q 1175 2209 1959 2209 
L 2766 2209 
L 2766 2266 
Q 2766 2663 2505 2880 
Q 2244 3097 1772 3097 
Q 1472 3097 1187 3025 
Q 903 2953 641 2809 
L 641 3341 
Q 956 3463 1253 3523 
Q 1550 3584 1831 3584 
Q 2591 3584 2966 3190 
Q 3341 2797 3341 1997 
z
" transform="scale(0.015625)"/>
       <path id="DejaVuSans-72" d="M 2631 2963 
Q 2534 3019 2420 3045 
Q 2306 3072 2169 3072 
Q 1681 3072 1420 2755 
Q 1159 2438 1159 1844 
L 1159 0 
L 581 0 
L 581 3500 
L 1159 3500 
L 1159 2956 
Q 1341 3275 1631 3429 
Q 1922 3584 2338 3584 
Q 2397 3584 2469 3576 
Q 2541 3569 2628 3553 
L 2631 2963 
z
" transform="scale(0.015625)"/>
      </defs>
      <use xlink:href="#DejaVuSans-59"/>
      <use xlink:href="#DejaVuSans-65" x="47.833984"/>
      <use xlink:href="#DejaVuSans-61" x="109.357422"/>
      <use xlink:href="#DejaVuSans-72" x="170.636719"/>
     </g>
    </g>
   </g>
   <g id="matplotlib.axis_2">
    <g id="ytick_1">
     <g id="line2d_11">
      <defs>
       <path id="mf64e5eaf8b" d="M 0 0 
L -3.5 0 
" style="stroke: #000000; stroke-width: 0.8"/>
      </defs>
      <g>
       <use xlink:href="#mf64e5eaf8b" x="61.49" y="285.350269" style="stroke: #000000; stroke-width: 0.8"/>
      </g>
     </g>
     <g id="text_12">
      <!-- 0 -->
      <g transform="translate(48.1275 289.149488) scale(0.1 -0.1)">
       <use xlink:href="#DejaVuSans-30"/>
      </g>
     </g>
    </g>
    <g id="ytick_2">
     <g id="line2d_12">
      <g>
       <use xlink:href="#mf64e5eaf8b" x="61.49" y="243.569385" style="stroke: #000000; stroke-width: 0.8"/>
      </g>
     </g>
     <g id="text_13">
      <!-- 1000 -->
      <g transform="translate(29.04 247.368604) scale(0.1 -0.1)">
       <use xlink:href="#DejaVuSans-31"/>
       <use xlink:href="#DejaVuSans-30" x="63.623047"/>
       <use xlink:href="#DejaVuSans-30" x="127.246094"/>
       <use xlink:href="#DejaVuSans-30" x="190.869141"/>
      </g>
     </g>
    </g>
    <g id="ytick_3">
     <g id="line2d_13">
      <g>
       <use xlink:href="#mf64e5eaf8b" x="61.49" y="201.7885" style="stroke: #000000; stroke-width: 0.8"/>
      </g>
     </g>
     <g id="text_14">
      <!-- 2000 -->
      <g transform="translate(29.04 205.587719) scale(0.1 -0.1)">
       <use xlink:href="#DejaVuSans-32"/>
       <use xlink:href="#DejaVuSans-30" x="63.623047"/>
       <use xlink:href="#DejaVuSans-30" x="127.246094"/>
       <use xlink:href="#DejaVuSans-30" x="190.869141"/>
      </g>
     </g>
    </g>
    <g id="ytick_4">
     <g id="line2d_14">
      <g>
       <use xlink:href="#mf64e5eaf8b" x="61.49" y="160.007616" style="stroke: #000000; stroke-width: 0.8"/>
      </g>
     </g>
     <g id="text_15">
      <!-- 3000 -->
      <g transform="translate(29.04 163.806835) scale(0.1 -0.1)">
       <defs>
        <path id="DejaVuSans-33" d="M 2597 2516 
Q 3050 2419 3304 2112 
Q 3559 1806 3559 1356 
Q 3559 666 3084 287 
Q 2609 -91 1734 -91 
Q 1441 -91 1130 -33 
Q 819 25 488 141 
L 488 750 
Q 750 597 1062 519 
Q 1375 441 1716 441 
Q 2309 441 2620 675 
Q 2931 909 2931 1356 
Q 2931 1769 2642 2001 
Q 2353 2234 1838 2234 
L 1294 2234 
L 1294 2753 
L 1863 2753 
Q 2328 2753 2575 2939 
Q 2822 3125 2822 3475 
Q 2822 3834 2567 4026 
Q 2313 4219 1838 4219 
Q 1578 4219 1281 4162 
Q 984 4106 628 3988 
L 628 4550 
Q 988 4650 1302 4700 
Q 1616 4750 1894 4750 
Q 2613 4750 3031 4423 
Q 3450 4097 3450 3541 
Q 3450 3153 3228 2886 
Q 3006 2619 2597 2516 
z
" transform="scale(0.015625)"/>
       </defs>
       <use xlink:href="#DejaVuSans-33"/>
       <use xlink:href="#DejaVuSans-30" x="63.623047"/>
       <use xlink:href="#DejaVuSans-30" x="127.246094"/>
       <use xlink:href="#DejaVuSans-30" x="190.869141"/>
      </g>
     </g>
    </g>
    <g id="ytick_5">
     <g id="line2d_15">
      <g>
       <use xlink:href="#mf64e5eaf8b" x="61.49" y="118.226731" style="stroke: #000000; stroke-width: 0.8"/>
      </g>
     </g>
     <g id="text_16">
      <!-- 4000 -->
      <g transform="translate(29.04 122.02595) scale(0.1 -0.1)">
       <use xlink:href="#DejaVuSans-34"/>
       <use xlink:href="#DejaVuSans-30" x="63.623047"/>
       <use xlink:href="#DejaVuSans-30" x="127.246094"/>
       <use xlink:href="#DejaVuSans-30" x="190.869141"/>
      </g>
     </g>
    </g>
    <g id="ytick_6">
     <g id="line2d_16">
      <g>
       <use xlink:href="#mf64e5eaf8b" x="61.49" y="76.445847" style="stroke: #000000; stroke-width: 0.8"/>
      </g>
     </g>
     <g id="text_17">
      <!-- 5000 -->
      <g transform="translate(29.04 80.245066) scale(0.1 -0.1)">
       <defs>
        <path id="DejaVuSans-35" d="M 691 4666 
L 3169 4666 
L 3169 4134 
L 1269 4134 
L 1269 2991 
Q 1406 3038 1543 3061 
Q 1681 3084 1819 3084 
Q 2600 3084 3056 2656 
Q 3513 2228 3513 1497 
Q 3513 744 3044 326 
Q 2575 -91 1722 -91 
Q 1428 -91 1123 -41 
Q 819 9 494 109 
L 494 744 
Q 775 591 1075 516 
Q 1375 441 1709 441 
Q 2250 441 2565 725 
Q 2881 1009 2881 1497 
Q 2881 1984 2565 2268 
Q 2250 2553 1709 2553 
Q 1456 2553 1204 2497 
Q 953 2441 691 2322 
L 691 4666 
z
" transform="scale(0.015625)"/>
       </defs>
       <use xlink:href="#DejaVuSans-35"/>
       <use xlink:href="#DejaVuSans-30" x="63.623047"/>
       <use xlink:href="#DejaVuSans-30" x="127.246094"/>
       <use xlink:href="#DejaVuSans-30" x="190.869141"/>
      </g>
     </g>
    </g>
    <g id="text_18">
     <!-- Number of proteins -->
     <g transform="translate(21.920469 246.829063) rotate(-90) scale(0.15 -0.15)">
      <defs>
       <path id="DejaVuSans-4e" d="M 628 4666 
L 1478 4666 
L 3547 763 
L 3547 4666 
L 4159 4666 
L 4159 0 
L 3309 0 
L 1241 3903 
L 1241 0 
L 628 0 
L 628 4666 
z
" transform="scale(0.015625)"/>
       <path id="DejaVuSans-75" d="M 544 1381 
L 544 3500 
L 1119 3500 
L 1119 1403 
Q 1119 906 1312 657 
Q 1506 409 1894 409 
Q 2359 409 2629 706 
Q 2900 1003 2900 1516 
L 2900 3500 
L 3475 3500 
L 3475 0 
L 2900 0 
L 2900 538 
Q 2691 219 2414 64 
Q 2138 -91 1772 -91 
Q 1169 -91 856 284 
Q 544 659 544 1381 
z
M 1991 3584 
L 1991 3584 
z
" transform="scale(0.015625)"/>
       <path id="DejaVuSans-6d" d="M 3328 2828 
Q 3544 3216 3844 3400 
Q 4144 3584 4550 3584 
Q 5097 3584 5394 3201 
Q 5691 2819 5691 2113 
L 5691 0 
L 5113 0 
L 5113 2094 
Q 5113 2597 4934 2840 
Q 4756 3084 4391 3084 
Q 3944 3084 3684 2787 
Q 3425 2491 3425 1978 
L 3425 0 
L 2847 0 
L 2847 2094 
Q 2847 2600 2669 2842 
Q 2491 3084 2119 3084 
Q 1678 3084 1418 2786 
Q 1159 2488 1159 1978 
L 1159 0 
L 581 0 
L 581 3500 
L 1159 3500 
L 1159 2956 
Q 1356 3278 1631 3431 
Q 1906 3584 2284 3584 
Q 2666 3584 2933 3390 
Q 3200 3197 3328 2828 
z
" transform="scale(0.015625)"/>
       <path id="DejaVuSans-62" d="M 3116 1747 
Q 3116 2381 2855 2742 
Q 2594 3103 2138 3103 
Q 1681 3103 1420 2742 
Q 1159 2381 1159 1747 
Q 1159 1113 1420 752 
Q 1681 391 2138 391 
Q 2594 391 2855 752 
Q 3116 1113 3116 1747 
z
M 1159 2969 
Q 1341 3281 1617 3432 
Q 1894 3584 2278 3584 
Q 2916 3584 3314 3078 
Q 3713 2572 3713 1747 
Q 3713 922 3314 415 
Q 2916 -91 2278 -91 
Q 1894 -91 1617 61 
Q 1341 213 1159 525 
L 1159 0 
L 581 0 
L 581 4863 
L 1159 4863 
L 1159 2969 
z
" transform="scale(0.015625)"/>
       <path id="DejaVuSans-20" transform="scale(0.015625)"/>
       <path id="DejaVuSans-6f" d="M 1959 3097 
Q 1497 3097 1228 2736 
Q 959 2375 959 1747 
Q 959 1119 1226 758 
Q 1494 397 1959 397 
Q 2419 397 2687 759 
Q 2956 1122 2956 1747 
Q 2956 2369 2687 2733 
Q 2419 3097 1959 3097 
z
M 1959 3584 
Q 2709 3584 3137 3096 
Q 3566 2609 3566 1747 
Q 3566 888 3137 398 
Q 2709 -91 1959 -91 
Q 1206 -91 779 398 
Q 353 888 353 1747 
Q 353 2609 779 3096 
Q 1206 3584 1959 3584 
z
" transform="scale(0.015625)"/>
       <path id="DejaVuSans-66" d="M 2375 4863 
L 2375 4384 
L 1825 4384 
Q 1516 4384 1395 4259 
Q 1275 4134 1275 3809 
L 1275 3500 
L 2222 3500 
L 2222 3053 
L 1275 3053 
L 1275 0 
L 697 0 
L 697 3053 
L 147 3053 
L 147 3500 
L 697 3500 
L 697 3744 
Q 697 4328 969 4595 
Q 1241 4863 1831 4863 
L 2375 4863 
z
" transform="scale(0.015625)"/>
       <path id="DejaVuSans-70" d="M 1159 525 
L 1159 -1331 
L 581 -1331 
L 581 3500 
L 1159 3500 
L 1159 2969 
Q 1341 3281 1617 3432 
Q 1894 3584 2278 3584 
Q 2916 3584 3314 3078 
Q 3713 2572 3713 1747 
Q 3713 922 3314 415 
Q 2916 -91 2278 -91 
Q 1894 -91 1617 61 
Q 1341 213 1159 525 
z
M 3116 1747 
Q 3116 2381 2855 2742 
Q 2594 3103 2138 3103 
Q 1681 3103 1420 2742 
Q 1159 2381 1159 1747 
Q 1159 1113 1420 752 
Q 1681 391 2138 391 
Q 2594 391 2855 752 
Q 3116 1113 3116 1747 
z
" transform="scale(0.015625)"/>
       <path id="DejaVuSans-74" d="M 1172 4494 
L 1172 3500 
L 2356 3500 
L 2356 3053 
L 1172 3053 
L 1172 1153 
Q 1172 725 1289 603 
Q 1406 481 1766 481 
L 2356 481 
L 2356 0 
L 1766 0 
Q 1100 0 847 248 
Q 594 497 594 1153 
L 594 3053 
L 172 3053 
L 172 3500 
L 594 3500 
L 594 4494 
L 1172 4494 
z
" transform="scale(0.015625)"/>
       <path id="DejaVuSans-69" d="M 603 3500 
L 1178 3500 
L 1178 0 
L 603 0 
L 603 3500 
z
M 603 4863 
L 1178 4863 
L 1178 4134 
L 603 4134 
L 603 4863 
z
" transform="scale(0.015625)"/>
       <path id="DejaVuSans-6e" d="M 3513 2113 
L 3513 0 
L 2938 0 
L 2938 2094 
Q 2938 2591 2744 2837 
Q 2550 3084 2163 3084 
Q 1697 3084 1428 2787 
Q 1159 2491 1159 1978 
L 1159 0 
L 581 0 
L 581 3500 
L 1159 3500 
L 1159 2956 
Q 1366 3272 1645 3428 
Q 1925 3584 2291 3584 
Q 2894 3584 3203 3211 
Q 3513 2838 3513 2113 
z
" transform="scale(0.015625)"/>
       <path id="DejaVuSans-73" d="M 2834 3397 
L 2834 2853 
Q 2591 2978 2328 3040 
Q 2066 3103 1784 3103 
Q 1356 3103 1142 2972 
Q 928 2841 928 2578 
Q 928 2378 1081 2264 
Q 1234 2150 1697 2047 
L 1894 2003 
Q 2506 1872 2764 1633 
Q 3022 1394 3022 966 
Q 3022 478 2636 193 
Q 2250 -91 1575 -91 
Q 1294 -91 989 -36 
Q 684 19 347 128 
L 347 722 
Q 666 556 975 473 
Q 1284 391 1588 391 
Q 1994 391 2212 530 
Q 2431 669 2431 922 
Q 2431 1156 2273 1281 
Q 2116 1406 1581 1522 
L 1381 1569 
Q 847 1681 609 1914 
Q 372 2147 372 2553 
Q 372 3047 722 3315 
Q 1072 3584 1716 3584 
Q 2034 3584 2315 3537 
Q 2597 3491 2834 3397 
z
" transform="scale(0.015625)"/>
      </defs>
      <use xlink:href="#DejaVuSans-4e"/>
      <use xlink:href="#DejaVuSans-75" x="74.804688"/>
      <use xlink:href="#DejaVuSans-6d" x="138.183594"/>
      <use xlink:href="#DejaVuSans-62" x="235.595703"/>
      <use xlink:href="#DejaVuSans-65" x="299.072266"/>
      <use xlink:href="#DejaVuSans-72" x="360.595703"/>
      <use xlink:href="#DejaVuSans-20" x="401.708984"/>
      <use xlink:href="#DejaVuSans-6f" x="433.496094"/>
      <use xlink:href="#DejaVuSans-66" x="494.677734"/>
      <use xlink:href="#DejaVuSans-20" x="529.882812"/>
      <use xlink:href="#DejaVuSans-70" x="561.669922"/>
      <use xlink:href="#DejaVuSans-72" x="625.146484"/>
      <use xlink:href="#DejaVuSans-6f" x="664.009766"/>
      <use xlink:href="#DejaVuSans-74" x="725.191406"/>
      <use xlink:href="#DejaVuSans-65" x="764.400391"/>
      <use xlink:href="#DejaVuSans-69" x="825.923828"/>
      <use xlink:href="#DejaVuSans-6e" x="853.707031"/>
      <use xlink:href="#DejaVuSans-73" x="917.085938"/>
     </g>
    </g>
   </g>
   <g id="patch_3">
    <path d="M 61.49 285.350269 
L 61.49 62.929731 
" style="fill: none; stroke: #000000; stroke-width: 0.8; stroke-linejoin: miter; stroke-linecap: square"/>
   </g>
   <g id="patch_4">
    <path d="M 61.49 285.350269 
L 450 285.350269 
" style="fill: none; stroke: #000000; stroke-width: 0.8; stroke-linejoin: miter; stroke-linecap: square"/>
   </g>
   <g id="legend_1">
    <g id="patch_5">
     <path d="M 128.755156 57.929731 
L 382.734844 57.929731 
Q 384.734844 57.929731 384.734844 55.929731 
L 384.734844 27.573481 
Q 384.734844 25.573481 382.734844 25.573481 
L 128.755156 25.573481 
Q 126.755156 25.573481 126.755156 27.573481 
L 126.755156 55.929731 
Q 126.755156 57.929731 128.755156 57.929731 
z
" style="fill: #ffffff; opacity: 0.8; stroke: #cccccc; stroke-linejoin: miter"/>
    </g>
    <g id="patch_6">
     <path d="M 130.755156 37.171918 
L 150.755156 37.171918 
L 150.755156 30.171918 
L 130.755156 30.171918 
z
" style="fill: #fb363b"/>
    </g>
    <g id="text_19">
     <!-- Published -->
     <g transform="translate(158.755156 37.171918) scale(0.1 -0.1)">
      <defs>
       <path id="DejaVuSans-50" d="M 1259 4147 
L 1259 2394 
L 2053 2394 
Q 2494 2394 2734 2622 
Q 2975 2850 2975 3272 
Q 2975 3691 2734 3919 
Q 2494 4147 2053 4147 
L 1259 4147 
z
M 628 4666 
L 2053 4666 
Q 2838 4666 3239 4311 
Q 3641 3956 3641 3272 
Q 3641 2581 3239 2228 
Q 2838 1875 2053 1875 
L 1259 1875 
L 1259 0 
L 628 0 
L 628 4666 
z
" transform="scale(0.015625)"/>
       <path id="DejaVuSans-6c" d="M 603 4863 
L 1178 4863 
L 1178 0 
L 603 0 
L 603 4863 
z
" transform="scale(0.015625)"/>
       <path id="DejaVuSans-68" d="M 3513 2113 
L 3513 0 
L 2938 0 
L 2938 2094 
Q 2938 2591 2744 2837 
Q 2550 3084 2163 3084 
Q 1697 3084 1428 2787 
Q 1159 2491 1159 1978 
L 1159 0 
L 581 0 
L 581 4863 
L 1159 4863 
L 1159 2956 
Q 1366 3272 1645 3428 
Q 1925 3584 2291 3584 
Q 2894 3584 3203 3211 
Q 3513 2838 3513 2113 
z
" transform="scale(0.015625)"/>
       <path id="DejaVuSans-64" d="M 2906 2969 
L 2906 4863 
L 3481 4863 
L 3481 0 
L 2906 0 
L 2906 525 
Q 2725 213 2448 61 
Q 2172 -91 1784 -91 
Q 1150 -91 751 415 
Q 353 922 353 1747 
Q 353 2572 751 3078 
Q 1150 3584 1784 3584 
Q 2172 3584 2448 3432 
Q 2725 3281 2906 2969 
z
M 947 1747 
Q 947 1113 1208 752 
Q 1469 391 1925 391 
Q 2381 391 2643 752 
Q 2906 1113 2906 1747 
Q 2906 2381 2643 2742 
Q 2381 3103 1925 3103 
Q 1469 3103 1208 2742 
Q 947 2381 947 1747 
z
" transform="scale(0.015625)"/>
      </defs>
      <use xlink:href="#DejaVuSans-50"/>
      <use xlink:href="#DejaVuSans-75" x="58.552734"/>
      <use xlink:href="#DejaVuSans-62" x="121.931641"/>
      <use xlink:href="#DejaVuSans-6c" x="185.408203"/>
      <use xlink:href="#DejaVuSans-69" x="213.191406"/>
      <use xlink:href="#DejaVuSans-73" x="240.974609"/>
      <use xlink:href="#DejaVuSans-68" x="293.074219"/>
      <use xlink:href="#DejaVuSans-65" x="356.453125"/>
      <use xlink:href="#DejaVuSans-64" x="417.976562"/>
     </g>
    </g>
    <g id="patch_7">
     <path d="M 130.755156 51.850043 
L 150.755156 51.850043 
L 150.755156 44.850043 
L 130.755156 44.850043 
z
" style="fill: #fdc92c"/>
    </g>
    <g id="text_20">
     <!-- Inferred role -->
     <g transform="translate(158.755156 51.850043) scale(0.1 -0.1)">
      <defs>
       <path id="DejaVuSans-49" d="M 628 4666 
L 1259 4666 
L 1259 0 
L 628 0 
L 628 4666 
z
" transform="scale(0.015625)"/>
      </defs>
      <use xlink:href="#DejaVuSans-49"/>
      <use xlink:href="#DejaVuSans-6e" x="29.492188"/>
      <use xlink:href="#DejaVuSans-66" x="92.871094"/>
      <use xlink:href="#DejaVuSans-65" x="128.076172"/>
      <use xlink:href="#DejaVuSans-72" x="189.599609"/>
      <use xlink:href="#DejaVuSans-72" x="228.962891"/>
      <use xlink:href="#DejaVuSans-65" x="267.826172"/>
      <use xlink:href="#DejaVuSans-64" x="329.349609"/>
      <use xlink:href="#DejaVuSans-20" x="392.826172"/>
      <use xlink:href="#DejaVuSans-72" x="424.613281"/>
      <use xlink:href="#DejaVuSans-6f" x="463.476562"/>
      <use xlink:href="#DejaVuSans-6c" x="524.658203"/>
      <use xlink:href="#DejaVuSans-65" x="552.441406"/>
     </g>
    </g>
    <g id="patch_8">
     <path d="M 240.153594 37.171918 
L 260.153594 37.171918 
L 260.153594 30.171918 
L 240.153594 30.171918 
z
" style="fill: #aeaeae"/>
    </g>
    <g id="text_21">
     <!-- Conserved unknown -->
     <g transform="translate(268.153594 37.171918) scale(0.1 -0.1)">
      <defs>
       <path id="DejaVuSans-43" d="M 4122 4306 
L 4122 3641 
Q 3803 3938 3442 4084 
Q 3081 4231 2675 4231 
Q 1875 4231 1450 3742 
Q 1025 3253 1025 2328 
Q 1025 1406 1450 917 
Q 1875 428 2675 428 
Q 3081 428 3442 575 
Q 3803 722 4122 1019 
L 4122 359 
Q 3791 134 3420 21 
Q 3050 -91 2638 -91 
Q 1578 -91 968 557 
Q 359 1206 359 2328 
Q 359 3453 968 4101 
Q 1578 4750 2638 4750 
Q 3056 4750 3426 4639 
Q 3797 4528 4122 4306 
z
" transform="scale(0.015625)"/>
       <path id="DejaVuSans-76" d="M 191 3500 
L 800 3500 
L 1894 563 
L 2988 3500 
L 3597 3500 
L 2284 0 
L 1503 0 
L 191 3500 
z
" transform="scale(0.015625)"/>
       <path id="DejaVuSans-6b" d="M 581 4863 
L 1159 4863 
L 1159 1991 
L 2875 3500 
L 3609 3500 
L 1753 1863 
L 3688 0 
L 2938 0 
L 1159 1709 
L 1159 0 
L 581 0 
L 581 4863 
z
" transform="scale(0.015625)"/>
       <path id="DejaVuSans-77" d="M 269 3500 
L 844 3500 
L 1563 769 
L 2278 3500 
L 2956 3500 
L 3675 769 
L 4391 3500 
L 4966 3500 
L 4050 0 
L 3372 0 
L 2619 2869 
L 1863 0 
L 1184 0 
L 269 3500 
z
" transform="scale(0.015625)"/>
      </defs>
      <use xlink:href="#DejaVuSans-43"/>
      <use xlink:href="#DejaVuSans-6f" x="69.824219"/>
      <use xlink:href="#DejaVuSans-6e" x="131.005859"/>
      <use xlink:href="#DejaVuSans-73" x="194.384766"/>
      <use xlink:href="#DejaVuSans-65" x="246.484375"/>
      <use xlink:href="#DejaVuSans-72" x="308.007812"/>
      <use xlink:href="#DejaVuSans-76" x="349.121094"/>
      <use xlink:href="#DejaVuSans-65" x="408.300781"/>
      <use xlink:href="#DejaVuSans-64" x="469.824219"/>
      <use xlink:href="#DejaVuSans-20" x="533.300781"/>
      <use xlink:href="#DejaVuSans-75" x="565.087891"/>
      <use xlink:href="#DejaVuSans-6e" x="628.466797"/>
      <use xlink:href="#DejaVuSans-6b" x="691.845703"/>
      <use xlink:href="#DejaVuSans-6e" x="749.755859"/>
      <use xlink:href="#DejaVuSans-6f" x="813.134766"/>
      <use xlink:href="#DejaVuSans-77" x="874.316406"/>
      <use xlink:href="#DejaVuSans-6e" x="956.103516"/>
     </g>
    </g>
    <g id="patch_9">
     <path d="M 240.153594 51.850043 
L 260.153594 51.850043 
L 260.153594 44.850043 
L 240.153594 44.850043 
z
" style="fill: #d5dce5"/>
    </g>
    <g id="text_22">
     <!-- Fission yeast unknown -->
     <g transform="translate(268.153594 51.850043) scale(0.1 -0.1)">
      <defs>
       <path id="DejaVuSans-46" d="M 628 4666 
L 3309 4666 
L 3309 4134 
L 1259 4134 
L 1259 2759 
L 3109 2759 
L 3109 2228 
L 1259 2228 
L 1259 0 
L 628 0 
L 628 4666 
z
" transform="scale(0.015625)"/>
       <path id="DejaVuSans-79" d="M 2059 -325 
Q 1816 -950 1584 -1140 
Q 1353 -1331 966 -1331 
L 506 -1331 
L 506 -850 
L 844 -850 
Q 1081 -850 1212 -737 
Q 1344 -625 1503 -206 
L 1606 56 
L 191 3500 
L 800 3500 
L 1894 763 
L 2988 3500 
L 3597 3500 
L 2059 -325 
z
" transform="scale(0.015625)"/>
      </defs>
      <use xlink:href="#DejaVuSans-46"/>
      <use xlink:href="#DejaVuSans-69" x="50.269531"/>
      <use xlink:href="#DejaVuSans-73" x="78.052734"/>
      <use xlink:href="#DejaVuSans-73" x="130.152344"/>
      <use xlink:href="#DejaVuSans-69" x="182.251953"/>
      <use xlink:href="#DejaVuSans-6f" x="210.035156"/>
      <use xlink:href="#DejaVuSans-6e" x="271.216797"/>
      <use xlink:href="#DejaVuSans-20" x="334.595703"/>
      <use xlink:href="#DejaVuSans-79" x="366.382812"/>
      <use xlink:href="#DejaVuSans-65" x="425.5625"/>
      <use xlink:href="#DejaVuSans-61" x="487.085938"/>
      <use xlink:href="#DejaVuSans-73" x="548.365234"/>
      <use xlink:href="#DejaVuSans-74" x="600.464844"/>
      <use xlink:href="#DejaVuSans-20" x="639.673828"/>
      <use xlink:href="#DejaVuSans-75" x="671.460938"/>
      <use xlink:href="#DejaVuSans-6e" x="734.839844"/>
      <use xlink:href="#DejaVuSans-6b" x="798.21875"/>
      <use xlink:href="#DejaVuSans-6e" x="856.128906"/>
      <use xlink:href="#DejaVuSans-6f" x="919.507812"/>
      <use xlink:href="#DejaVuSans-77" x="980.689453"/>
      <use xlink:href="#DejaVuSans-6e" x="1062.476562"/>
     </g>
    </g>
   </g>
  </g>
 </g>
 <defs>
  <clipPath id="pd6b7895064">
   <rect x="61.49" y="62.929731" width="388.51" height="222.420539"/>
  </clipPath>
 </defs>
</svg>
