<?xml version="1.0" encoding="utf-8" standalone="no"?>
<!DOCTYPE svg PUBLIC "-//W3C//DTD SVG 1.1//EN"
  "http://www.w3.org/Graphics/SVG/1.1/DTD/svg11.dtd">
<svg xmlns:xlink="http://www.w3.org/1999/xlink" width="460.8pt" height="345.6pt" viewBox="0 0 460.8 345.6" xmlns="http://www.w3.org/2000/svg" version="1.1">
 <metadata>
  <rdf:RDF xmlns:dc="http://purl.org/dc/elements/1.1/" xmlns:cc="http://creativecommons.org/ns#" xmlns:rdf="http://www.w3.org/1999/02/22-rdf-syntax-ns#">
   <cc:Work>
    <dc:type rdf:resource="http://purl.org/dc/dcmitype/StillImage"/>
    <dc:date>2025-12-02T00:53:10.574563</dc:date>
    <dc:format>image/svg+xml</dc:format>
    <dc:creator>
     <cc:Agent>
      <dc:title>Matplotlib v3.7.1, https://matplotlib.org/</dc:title>
     </cc:Agent>
    </dc:creator>
   </cc:Work>
  </rdf:RDF>
 </metadata>
 <defs>
  <style type="text/css">*{stroke-linejoin: round; stroke-linecap: butt}</style>
 </defs>
 <g id="figure_1">
  <g id="patch_1">
   <path d="M 0 345.6 
L 460.8 345.6 
L 460.8 0 
L 0 0 
z
" style="fill: #ffffff"/>
  </g>
  <g id="axes_1">
   <g id="patch_2">
    <path d="M 61.49 273.443941 
L 450 273.443941 
L 450 72.156059 
L 61.49 72.156059 
z
" style="fill: #ffffff"/>
   </g>
   <g id="PolyCollection_1">
    <path d="M 32.895286 222.36102 
L 32.895286 273.443941 
L 40.8829 273.443941 
L 48.775987 273.443941 
L 64.987535 273.443941 
L 83.798603 273.443941 
L 97.646953 273.443941 
L 106.248999 273.443941 
L 108.470406 273.443941 
L 112.582373 273.443941 
L 114.472933 273.443941 
L 114.709253 273.443941 
L 117.828676 273.443941 
L 118.632164 273.443941 
L 119.29386 273.443941 
L 120.097348 273.443941 
L 120.617252 273.443941 
L 121.42074 273.443941 
L 121.89338 273.443941 
L 122.744131 273.443941 
L 123.878467 273.443941 
L 124.776483 273.443941 
L 125.107331 273.443941 
L 126.052611 273.443941 
L 126.714307 273.443941 
L 127.423266 273.443941 
L 128.17949 273.443941 
L 128.699394 273.443941 
L 129.172034 273.443941 
L 130.495426 273.443941 
L 131.440706 273.443941 
L 132.149665 273.443941 
L 132.338721 273.443941 
L 133.000417 273.443941 
L 133.992961 273.443941 
L 135.032769 273.443941 
L 135.741729 273.443941 
L 136.781536 273.443941 
L 138.152192 273.443941 
L 140.042752 273.443941 
L 141.696991 273.443941 
L 143.114911 273.443941 
L 145.761695 273.443941 
L 146.89603 273.443941 
L 149.96819 273.443941 
L 151.953277 273.443941 
L 153.182141 273.443941 
L 153.938365 273.443941 
L 156.915996 273.443941 
L 158.570236 273.443941 
L 160.27174 273.443941 
L 163.627483 273.443941 
L 166.746906 273.443941 
L 167.26681 273.443941 
L 167.881242 273.443941 
L 168.826522 273.443941 
L 169.582746 273.443941 
L 171.898681 273.443941 
L 176.530552 273.443941 
L 177.428568 273.443941 
L 181.776855 273.443941 
L 182.769399 273.443941 
L 183.761943 273.443941 
L 185.368918 273.443941 
L 186.69231 273.443941 
L 187.968438 273.443941 
L 188.771926 273.443941 
L 191.371445 273.443941 
L 194.065493 273.443941 
L 195.388884 273.443941 
L 196.334164 273.443941 
L 197.515764 273.443941 
L 198.508308 273.443941 
L 199.689908 273.443941 
L 202.478483 273.443941 
L 203.943667 273.443941 
L 205.361586 273.443941 
L 206.82677 273.443941 
L 208.24469 273.443941 
L 209.709873 273.443941 
L 211.175057 273.443941 
L 212.545713 273.443941 
L 214.010897 273.443941 
L 215.428816 273.443941 
L 216.894 273.443941 
L 218.31192 273.443941 
L 219.777103 273.443941 
L 221.242287 273.443941 
L 222.660207 273.443941 
L 224.125391 273.443941 
L 225.54331 273.443941 
L 227.008494 273.443941 
L 228.473678 273.443941 
L 229.797069 273.443941 
L 231.262253 273.443941 
L 232.680173 273.443941 
L 234.145356 273.443941 
L 235.563276 273.443941 
L 237.02846 273.443941 
L 238.493644 273.443941 
L 239.911563 273.443941 
L 241.376747 273.443941 
L 242.794667 273.443941 
L 244.25985 273.443941 
L 245.725034 273.443941 
L 247.048426 273.443941 
L 248.513609 273.443941 
L 249.931529 273.443941 
L 251.396713 273.443941 
L 252.814633 273.443941 
L 254.279816 273.443941 
L 255.745 273.443941 
L 257.16292 273.443941 
L 258.628103 273.443941 
L 260.046023 273.443941 
L 261.511207 273.443941 
L 262.976391 273.443941 
L 264.299782 273.443941 
L 265.764966 273.443941 
L 267.182886 273.443941 
L 268.648069 273.443941 
L 270.065989 273.443941 
L 271.531173 273.443941 
L 272.996356 273.443941 
L 274.414276 273.443941 
L 275.87946 273.443941 
L 277.29738 273.443941 
L 278.762563 273.443941 
L 280.227747 273.443941 
L 281.598403 273.443941 
L 283.063586 273.443941 
L 284.481506 273.443941 
L 285.94669 273.443941 
L 287.364609 273.443941 
L 288.829793 273.443941 
L 290.294977 273.443941 
L 291.712897 273.443941 
L 293.17808 273.443941 
L 294.596 273.443941 
L 296.061184 273.443941 
L 297.526367 273.443941 
L 298.849759 273.443941 
L 300.314943 273.443941 
L 301.732863 273.443941 
L 303.198046 273.443941 
L 304.615966 273.443941 
L 306.08115 273.443941 
L 307.546333 273.443941 
L 308.964253 273.443941 
L 310.429437 273.443941 
L 311.847356 273.443941 
L 313.31254 273.443941 
L 314.777724 273.443941 
L 316.101116 273.443941 
L 317.566299 273.443941 
L 318.984219 273.443941 
L 320.449403 273.443941 
L 321.867322 273.443941 
L 323.332506 273.443941 
L 324.79769 273.443941 
L 326.215609 273.443941 
L 327.680793 273.443941 
L 329.098713 273.443941 
L 330.563897 273.443941 
L 332.02908 273.443941 
L 333.352472 273.443941 
L 334.817656 273.443941 
L 336.235575 273.443941 
L 337.700759 273.443941 
L 339.118679 273.443941 
L 340.583863 273.443941 
L 342.049046 273.443941 
L 343.466966 273.443941 
L 344.93215 273.443941 
L 346.350069 273.443941 
L 347.815253 273.443941 
L 349.280437 273.443941 
L 350.651092 273.443941 
L 352.116276 273.443941 
L 353.534196 273.443941 
L 354.99938 273.443941 
L 356.417299 273.443941 
L 357.882483 273.443941 
L 359.347667 273.443941 
L 360.765586 273.443941 
L 362.23077 273.443941 
L 363.64869 273.443941 
L 365.113873 273.443941 
L 366.579057 273.443941 
L 367.902449 273.443941 
L 369.367633 273.443941 
L 370.785552 273.443941 
L 372.250736 273.443941 
L 373.668656 273.443941 
L 375.133839 273.443941 
L 376.599023 273.443941 
L 378.016943 273.443941 
L 379.482127 273.443941 
L 380.900046 273.443941 
L 382.36523 273.443941 
L 383.830414 273.443941 
L 385.153805 273.443941 
L 386.618989 273.443941 
L 388.036909 273.443941 
L 389.502092 273.443941 
L 390.920012 273.443941 
L 392.385196 273.443941 
L 393.85038 273.443941 
L 395.268299 273.443941 
L 396.733483 273.443941 
L 398.151403 273.443941 
L 399.616586 273.443941 
L 401.08177 273.443941 
L 402.405162 273.443941 
L 403.870345 273.443941 
L 405.288265 273.443941 
L 406.753449 273.443941 
L 408.171369 273.443941 
L 409.636552 273.443941 
L 411.101736 273.443941 
L 412.519656 273.443941 
L 413.984839 273.443941 
L 415.402759 273.443941 
L 416.867943 273.443941 
L 418.333127 273.443941 
L 419.703782 273.443941 
L 421.168966 273.443941 
L 422.586886 273.443941 
L 424.052069 273.443941 
L 425.469989 273.443941 
L 426.935173 273.443941 
L 428.400356 273.443941 
L 429.818276 273.443941 
L 431.28346 273.443941 
L 432.70138 273.443941 
L 434.166563 273.443941 
L 435.631747 273.443941 
L 436.955139 273.443941 
L 438.420322 273.443941 
L 439.838242 273.443941 
L 441.303426 273.443941 
L 442.721345 273.443941 
L 444.186529 273.443941 
L 445.651713 273.443941 
L 447.069633 273.443941 
L 448.534816 273.443941 
L 449.952736 273.443941 
L 449.952736 170.143764 
L 449.952736 170.143764 
L 448.534816 170.143764 
L 447.069633 170.105953 
L 445.651713 169.500973 
L 444.186529 169.38754 
L 442.721345 169.463162 
L 441.303426 169.500973 
L 439.838242 169.500973 
L 438.420322 169.803463 
L 436.955139 169.841274 
L 435.631747 170.824365 
L 434.166563 172.979603 
L 432.70138 173.735827 
L 431.28346 173.962694 
L 429.818276 173.962694 
L 428.400356 174.189561 
L 426.935173 174.189561 
L 425.469989 175.021408 
L 424.052069 175.550764 
L 422.586886 175.664198 
L 421.168966 175.777631 
L 419.703782 175.853254 
L 418.333127 177.479135 
L 416.867943 177.592569 
L 415.402759 177.63038 
L 413.984839 177.857247 
L 412.519656 177.970681 
L 411.101736 178.008492 
L 409.636552 178.121925 
L 408.171369 178.57566 
L 406.753449 178.802527 
L 405.288265 178.91596 
L 403.870345 178.91596 
L 402.405162 179.256261 
L 401.08177 179.823429 
L 399.616586 179.785618 
L 398.151403 179.899051 
L 396.733483 180.012485 
L 395.268299 180.239352 
L 393.85038 180.239352 
L 392.385196 180.277163 
L 390.920012 180.277163 
L 389.502092 180.239352 
L 388.036909 180.314974 
L 386.618989 180.239352 
L 385.153805 180.201541 
L 383.830414 180.239352 
L 382.36523 180.239352 
L 380.900046 180.428408 
L 379.482127 180.617464 
L 378.016943 180.919954 
L 376.599023 181.146821 
L 375.133839 181.109009 
L 373.668656 181.298065 
L 372.250736 181.562744 
L 370.785552 181.562744 
L 369.367633 181.713989 
L 367.902449 182.205534 
L 366.579057 182.318968 
L 365.113873 182.734891 
L 363.64869 182.772702 
L 362.23077 182.923947 
L 360.765586 182.999569 
L 359.347667 183.150814 
L 357.882483 183.188625 
L 356.417299 183.264247 
L 354.99938 183.264247 
L 353.534196 183.33987 
L 352.116276 183.680171 
L 350.651092 183.793604 
L 349.280437 183.869227 
L 347.815253 183.944849 
L 346.350069 183.944849 
L 344.93215 183.944849 
L 343.466966 184.058282 
L 342.049046 184.133905 
L 340.583863 184.28515 
L 339.118679 184.512017 
L 337.700759 184.62545 
L 336.235575 184.701073 
L 334.817656 184.776695 
L 333.352472 184.814506 
L 332.02908 184.814506 
L 330.563897 184.852318 
L 329.098713 184.890129 
L 327.680793 184.965751 
L 326.215609 185.003562 
L 324.79769 185.003562 
L 323.332506 185.116996 
L 321.867322 185.230429 
L 320.449403 185.457297 
L 318.984219 185.608541 
L 317.566299 185.911031 
L 316.101116 186.062276 
L 314.777724 186.21352 
L 313.31254 186.251332 
L 311.847356 186.402576 
L 310.429437 186.553821 
L 308.964253 188.217514 
L 307.546333 188.482192 
L 306.08115 189.200605 
L 304.615966 188.595626 
L 303.198046 188.520003 
L 301.732863 188.557814 
L 300.314943 188.633437 
L 298.849759 188.898115 
L 297.526367 188.935926 
L 296.061184 189.011549 
L 294.596 189.729961 
L 293.17808 189.843395 
L 291.712897 190.032451 
L 290.294977 190.108073 
L 288.829793 190.221507 
L 287.364609 190.63743 
L 285.94669 190.826486 
L 284.481506 190.826486 
L 283.063586 191.204598 
L 281.598403 191.28022 
L 280.227747 191.318031 
L 278.762563 191.507087 
L 277.29738 191.58271 
L 275.87946 191.58271 
L 274.414276 191.771766 
L 272.996356 191.809577 
L 271.531173 191.847388 
L 270.065989 191.998633 
L 268.648069 192.112066 
L 267.182886 191.544899 
L 265.764966 191.620521 
L 264.299782 191.809577 
L 262.976391 191.809577 
L 261.511207 192.036444 
L 260.046023 192.187689 
L 258.628103 192.452367 
L 257.16292 192.792668 
L 255.745 193.095157 
L 254.279816 193.17078 
L 252.814633 193.435458 
L 251.396713 193.662325 
L 249.931529 194.002626 
L 248.513609 194.153871 
L 247.048426 194.342927 
L 245.725034 194.380738 
L 244.25985 194.380738 
L 242.794667 194.569794 
L 241.376747 195.023528 
L 239.911563 195.061339 
L 238.493644 195.288207 
L 237.02846 195.930997 
L 235.563276 196.006619 
L 234.145356 196.460354 
L 232.680173 196.762843 
L 231.262253 197.783745 
L 229.797069 197.859368 
L 228.473678 197.972801 
L 227.008494 198.23748 
L 225.54331 198.313102 
L 224.125391 198.539969 
L 222.660207 198.729025 
L 221.242287 199.069326 
L 219.777103 199.258382 
L 218.31192 199.371815 
L 216.894 199.598682 
L 215.428816 199.636494 
L 214.010897 199.749927 
L 212.545713 199.901172 
L 211.175057 199.901172 
L 209.709873 199.976794 
L 208.24469 200.014606 
L 206.82677 200.052417 
L 205.361586 200.090228 
L 203.943667 200.128039 
L 202.478483 200.241473 
L 199.689908 200.959885 
L 198.508308 201.148941 
L 197.515764 201.186753 
L 196.334164 201.073319 
L 195.388884 201.073319 
L 194.065493 201.186753 
L 191.371445 201.300186 
L 188.771926 201.905165 
L 187.968438 202.812634 
L 186.69231 202.661389 
L 185.368918 202.623578 
L 183.761943 203.304179 
L 182.769399 203.304179 
L 181.776855 203.077312 
L 177.428568 203.568858 
L 176.530552 203.64448 
L 171.898681 204.28727 
L 169.582746 204.362893 
L 168.826522 204.211648 
L 167.881242 204.325082 
L 167.26681 204.514137 
L 166.746906 204.551949 
L 163.627483 204.665382 
L 160.27174 204.741005 
L 158.570236 204.930061 
L 156.915996 206.934054 
L 153.938365 206.858431 
L 153.182141 206.896243 
L 151.953277 207.312166 
L 149.96819 208.370879 
L 146.89603 208.597746 
L 145.761695 208.975858 
L 143.114911 209.240536 
L 141.696991 210.034572 
L 140.042752 210.563928 
L 138.152192 210.979851 
L 136.781536 211.017663 
L 135.741729 211.093285 
L 135.032769 211.131096 
L 133.992961 211.168907 
L 133.000417 211.849509 
L 132.338721 212.189809 
L 132.149665 212.189809 
L 131.440706 212.189809 
L 130.495426 212.416677 
L 129.172034 212.189809 
L 128.699394 212.378865 
L 128.17949 212.454488 
L 127.423266 212.567921 
L 126.714307 212.567921 
L 126.052611 212.870411 
L 125.107331 213.551012 
L 124.776483 213.513201 
L 123.878467 213.853502 
L 122.744131 213.929124 
L 121.89338 214.004747 
L 121.42074 214.080369 
L 120.617252 214.193803 
L 120.097348 214.42067 
L 119.29386 214.609726 
L 118.632164 214.534103 
L 117.828676 214.609726 
L 114.709253 214.874404 
L 114.472933 214.836593 
L 112.582373 215.139082 
L 108.470406 213.324145 
L 106.248999 216.00874 
L 97.646953 219.525181 
L 83.798603 222.814755 
L 64.987535 227.049608 
L 48.775987 222.171964 
L 40.8829 221.566985 
L 32.895286 222.36102 
z
" clip-path="url(#pcbfda0a56f)" style="fill: #fb363b"/>
   </g>
   <g id="PolyCollection_2">
    <path d="M 32.895286 144.621209 
L 32.895286 222.36102 
L 40.8829 221.566985 
L 48.775987 222.171964 
L 64.987535 227.049608 
L 83.798603 222.814755 
L 97.646953 219.525181 
L 106.248999 216.00874 
L 108.470406 213.324145 
L 112.582373 215.139082 
L 114.472933 214.836593 
L 114.709253 214.874404 
L 117.828676 214.609726 
L 118.632164 214.534103 
L 119.29386 214.609726 
L 120.097348 214.42067 
L 120.617252 214.193803 
L 121.42074 214.080369 
L 121.89338 214.004747 
L 122.744131 213.929124 
L 123.878467 213.853502 
L 124.776483 213.513201 
L 125.107331 213.551012 
L 126.052611 212.870411 
L 126.714307 212.567921 
L 127.423266 212.567921 
L 128.17949 212.454488 
L 128.699394 212.378865 
L 129.172034 212.189809 
L 130.495426 212.416677 
L 131.440706 212.189809 
L 132.149665 212.189809 
L 132.338721 212.189809 
L 133.000417 211.849509 
L 133.992961 211.168907 
L 135.032769 211.131096 
L 135.741729 211.093285 
L 136.781536 211.017663 
L 138.152192 210.979851 
L 140.042752 210.563928 
L 141.696991 210.034572 
L 143.114911 209.240536 
L 145.761695 208.975858 
L 146.89603 208.597746 
L 149.96819 208.370879 
L 151.953277 207.312166 
L 153.182141 206.896243 
L 153.938365 206.858431 
L 156.915996 206.934054 
L 158.570236 204.930061 
L 160.27174 204.741005 
L 163.627483 204.665382 
L 166.746906 204.551949 
L 167.26681 204.514137 
L 167.881242 204.325082 
L 168.826522 204.211648 
L 169.582746 204.362893 
L 171.898681 204.28727 
L 176.530552 203.64448 
L 177.428568 203.568858 
L 181.776855 203.077312 
L 182.769399 203.304179 
L 183.761943 203.304179 
L 185.368918 202.623578 
L 186.69231 202.661389 
L 187.968438 202.812634 
L 188.771926 201.905165 
L 191.371445 201.300186 
L 194.065493 201.186753 
L 195.388884 201.073319 
L 196.334164 201.073319 
L 197.515764 201.186753 
L 198.508308 201.148941 
L 199.689908 200.959885 
L 202.478483 200.241473 
L 203.943667 200.128039 
L 205.361586 200.090228 
L 206.82677 200.052417 
L 208.24469 200.014606 
L 209.709873 199.976794 
L 211.175057 199.901172 
L 212.545713 199.901172 
L 214.010897 199.749927 
L 215.428816 199.636494 
L 216.894 199.598682 
L 218.31192 199.371815 
L 219.777103 199.258382 
L 221.242287 199.069326 
L 222.660207 198.729025 
L 224.125391 198.539969 
L 225.54331 198.313102 
L 227.008494 198.23748 
L 228.473678 197.972801 
L 229.797069 197.859368 
L 231.262253 197.783745 
L 232.680173 196.762843 
L 234.145356 196.460354 
L 235.563276 196.006619 
L 237.02846 195.930997 
L 238.493644 195.288207 
L 239.911563 195.061339 
L 241.376747 195.023528 
L 242.794667 194.569794 
L 244.25985 194.380738 
L 245.725034 194.380738 
L 247.048426 194.342927 
L 248.513609 194.153871 
L 249.931529 194.002626 
L 251.396713 193.662325 
L 252.814633 193.435458 
L 254.279816 193.17078 
L 255.745 193.095157 
L 257.16292 192.792668 
L 258.628103 192.452367 
L 260.046023 192.187689 
L 261.511207 192.036444 
L 262.976391 191.809577 
L 264.299782 191.809577 
L 265.764966 191.620521 
L 267.182886 191.544899 
L 268.648069 192.112066 
L 270.065989 191.998633 
L 271.531173 191.847388 
L 272.996356 191.809577 
L 274.414276 191.771766 
L 275.87946 191.58271 
L 277.29738 191.58271 
L 278.762563 191.507087 
L 280.227747 191.318031 
L 281.598403 191.28022 
L 283.063586 191.204598 
L 284.481506 190.826486 
L 285.94669 190.826486 
L 287.364609 190.63743 
L 288.829793 190.221507 
L 290.294977 190.108073 
L 291.712897 190.032451 
L 293.17808 189.843395 
L 294.596 189.729961 
L 296.061184 189.011549 
L 297.526367 188.935926 
L 298.849759 188.898115 
L 300.314943 188.633437 
L 301.732863 188.557814 
L 303.198046 188.520003 
L 304.615966 188.595626 
L 306.08115 189.200605 
L 307.546333 188.482192 
L 308.964253 188.217514 
L 310.429437 186.553821 
L 311.847356 186.402576 
L 313.31254 186.251332 
L 314.777724 186.21352 
L 316.101116 186.062276 
L 317.566299 185.911031 
L 318.984219 185.608541 
L 320.449403 185.457297 
L 321.867322 185.230429 
L 323.332506 185.116996 
L 324.79769 185.003562 
L 326.215609 185.003562 
L 327.680793 184.965751 
L 329.098713 184.890129 
L 330.563897 184.852318 
L 332.02908 184.814506 
L 333.352472 184.814506 
L 334.817656 184.776695 
L 336.235575 184.701073 
L 337.700759 184.62545 
L 339.118679 184.512017 
L 340.583863 184.28515 
L 342.049046 184.133905 
L 343.466966 184.058282 
L 344.93215 183.944849 
L 346.350069 183.944849 
L 347.815253 183.944849 
L 349.280437 183.869227 
L 350.651092 183.793604 
L 352.116276 183.680171 
L 353.534196 183.33987 
L 354.99938 183.264247 
L 356.417299 183.264247 
L 357.882483 183.188625 
L 359.347667 183.150814 
L 360.765586 182.999569 
L 362.23077 182.923947 
L 363.64869 182.772702 
L 365.113873 182.734891 
L 366.579057 182.318968 
L 367.902449 182.205534 
L 369.367633 181.713989 
L 370.785552 181.562744 
L 372.250736 181.562744 
L 373.668656 181.298065 
L 375.133839 181.109009 
L 376.599023 181.146821 
L 378.016943 180.919954 
L 379.482127 180.617464 
L 380.900046 180.428408 
L 382.36523 180.239352 
L 383.830414 180.239352 
L 385.153805 180.201541 
L 386.618989 180.239352 
L 388.036909 180.314974 
L 389.502092 180.239352 
L 390.920012 180.277163 
L 392.385196 180.277163 
L 393.85038 180.239352 
L 395.268299 180.239352 
L 396.733483 180.012485 
L 398.151403 179.899051 
L 399.616586 179.785618 
L 401.08177 179.823429 
L 402.405162 179.256261 
L 403.870345 178.91596 
L 405.288265 178.91596 
L 406.753449 178.802527 
L 408.171369 178.57566 
L 409.636552 178.121925 
L 411.101736 178.008492 
L 412.519656 177.970681 
L 413.984839 177.857247 
L 415.402759 177.63038 
L 416.867943 177.592569 
L 418.333127 177.479135 
L 419.703782 175.853254 
L 421.168966 175.777631 
L 422.586886 175.664198 
L 424.052069 175.550764 
L 425.469989 175.021408 
L 426.935173 174.189561 
L 428.400356 174.189561 
L 429.818276 173.962694 
L 431.28346 173.962694 
L 432.70138 173.735827 
L 434.166563 172.979603 
L 435.631747 170.824365 
L 436.955139 169.841274 
L 438.420322 169.803463 
L 439.838242 169.500973 
L 441.303426 169.500973 
L 442.721345 169.463162 
L 444.186529 169.38754 
L 445.651713 169.500973 
L 447.069633 170.105953 
L 448.534816 170.143764 
L 449.952736 170.143764 
L 449.952736 106.242849 
L 449.952736 106.242849 
L 448.534816 106.205038 
L 447.069633 106.129415 
L 445.651713 105.184136 
L 444.186529 104.579156 
L 442.721345 104.503534 
L 441.303426 104.314478 
L 439.838242 104.238856 
L 438.420322 104.201045 
L 436.955139 103.974177 
L 435.631747 104.011989 
L 434.166563 103.974177 
L 432.70138 104.503534 
L 431.28346 104.579156 
L 429.818276 104.69259 
L 428.400356 104.730401 
L 426.935173 104.957268 
L 425.469989 104.843835 
L 424.052069 104.806024 
L 422.586886 104.957268 
L 421.168966 105.032891 
L 419.703782 104.99508 
L 418.333127 105.259758 
L 416.867943 105.524436 
L 415.402759 105.524436 
L 413.984839 105.63787 
L 412.519656 105.789115 
L 411.101736 105.864737 
L 409.636552 105.864737 
L 408.171369 106.129415 
L 406.753449 106.356282 
L 405.288265 106.469716 
L 403.870345 106.469716 
L 402.405162 106.507527 
L 401.08177 106.658772 
L 399.616586 106.772206 
L 398.151403 106.847828 
L 396.733483 106.847828 
L 395.268299 106.885639 
L 393.85038 106.772206 
L 392.385196 106.810017 
L 390.920012 106.810017 
L 389.502092 106.999073 
L 388.036909 106.961262 
L 386.618989 106.961262 
L 385.153805 106.999073 
L 383.830414 107.074695 
L 382.36523 107.074695 
L 380.900046 107.188129 
L 379.482127 107.150318 
L 378.016943 107.263751 
L 376.599023 107.301562 
L 375.133839 107.339373 
L 373.668656 107.377185 
L 372.250736 107.414996 
L 370.785552 107.377185 
L 369.367633 107.490618 
L 367.902449 107.679674 
L 366.579057 107.830919 
L 365.113873 107.86873 
L 363.64869 107.86873 
L 362.23077 107.944353 
L 360.765586 107.982164 
L 359.347667 108.057786 
L 357.882483 108.057786 
L 356.417299 108.095597 
L 354.99938 108.133409 
L 353.534196 108.019975 
L 352.116276 107.982164 
L 350.651092 108.019975 
L 349.280437 107.944353 
L 347.815253 107.944353 
L 346.350069 107.944353 
L 344.93215 107.944353 
L 343.466966 107.944353 
L 342.049046 107.982164 
L 340.583863 107.944353 
L 339.118679 107.982164 
L 337.700759 107.982164 
L 336.235575 107.86873 
L 334.817656 107.86873 
L 333.352472 107.906541 
L 332.02908 107.906541 
L 330.563897 107.982164 
L 329.098713 107.982164 
L 327.680793 108.057786 
L 326.215609 108.057786 
L 324.79769 108.057786 
L 323.332506 108.095597 
L 321.867322 108.095597 
L 320.449403 108.095597 
L 318.984219 108.133409 
L 317.566299 108.17122 
L 316.101116 108.473709 
L 314.777724 108.587143 
L 313.31254 108.51152 
L 311.847356 108.587143 
L 310.429437 108.700576 
L 308.964253 108.738388 
L 307.546333 109.267744 
L 306.08115 109.570234 
L 304.615966 111.649849 
L 303.198046 112.821996 
L 301.732863 113.237919 
L 300.314943 113.237919 
L 298.849759 113.540409 
L 297.526367 113.464787 
L 296.061184 112.708563 
L 294.596 112.897619 
L 293.17808 113.313542 
L 291.712897 113.313542 
L 290.294977 113.200108 
L 288.829793 113.351353 
L 287.364609 113.389164 
L 285.94669 113.389164 
L 284.481506 113.426975 
L 283.063586 113.502598 
L 281.598403 113.502598 
L 280.227747 113.540409 
L 278.762563 113.540409 
L 277.29738 113.653843 
L 275.87946 113.691654 
L 274.414276 113.729465 
L 272.996356 113.729465 
L 271.531173 113.691654 
L 270.065989 113.729465 
L 268.648069 113.691654 
L 267.182886 114.296633 
L 265.764966 114.258822 
L 264.299782 114.334444 
L 262.976391 114.410066 
L 261.511207 114.5235 
L 260.046023 114.485689 
L 258.628103 114.750367 
L 257.16292 114.863801 
L 255.745 115.015045 
L 254.279816 115.204101 
L 252.814633 115.241913 
L 251.396713 115.16629 
L 249.931529 115.241913 
L 248.513609 115.279724 
L 247.048426 115.279724 
L 245.725034 115.279724 
L 244.25985 115.279724 
L 242.794667 115.430969 
L 241.376747 115.506591 
L 239.911563 115.733458 
L 238.493644 115.771269 
L 237.02846 115.998136 
L 235.563276 116.073759 
L 234.145356 116.300626 
L 232.680173 116.41406 
L 231.262253 116.565304 
L 229.797069 116.603116 
L 228.473678 116.640927 
L 227.008494 116.792172 
L 225.54331 116.792172 
L 224.125391 116.981227 
L 222.660207 117.245906 
L 221.242287 117.397151 
L 219.777103 117.548395 
L 218.31192 117.737451 
L 216.894 117.813074 
L 215.428816 118.115563 
L 214.010897 118.115563 
L 212.545713 118.153374 
L 211.175057 118.153374 
L 209.709873 118.153374 
L 208.24469 118.153374 
L 206.82677 118.153374 
L 205.361586 118.191186 
L 203.943667 118.34243 
L 202.478483 118.418053 
L 199.689908 118.871787 
L 198.508308 119.438955 
L 197.515764 119.703633 
L 196.334164 119.174277 
L 195.388884 119.476766 
L 194.065493 119.5902 
L 191.371445 119.741445 
L 188.771926 119.741445 
L 187.968438 119.892689 
L 186.69231 120.384235 
L 185.368918 120.346424 
L 183.761943 121.216081 
L 182.769399 121.216081 
L 181.776855 121.632004 
L 177.428568 121.896682 
L 176.530552 121.972305 
L 171.898681 123.031018 
L 169.582746 123.976298 
L 168.826522 124.014109 
L 167.881242 124.014109 
L 167.26681 124.014109 
L 166.746906 124.05192 
L 163.627483 123.635997 
L 160.27174 124.127543 
L 158.570236 124.316599 
L 156.915996 124.505655 
L 153.938365 124.619088 
L 153.182141 124.694711 
L 151.953277 124.883767 
L 149.96819 125.186256 
L 146.89603 125.035011 
L 145.761695 125.337501 
L 143.114911 125.29969 
L 141.696991 125.224067 
L 140.042752 125.564368 
L 138.152192 125.488746 
L 136.781536 125.375312 
L 135.741729 125.639991 
L 135.032769 125.677802 
L 133.992961 124.959389 
L 133.000417 124.9972 
L 132.338721 125.148445 
L 132.149665 125.148445 
L 131.440706 125.110634 
L 130.495426 125.602179 
L 129.172034 125.072823 
L 128.699394 125.072823 
L 128.17949 125.110634 
L 127.423266 125.148445 
L 126.714307 124.959389 
L 126.052611 125.375312 
L 125.107331 125.488746 
L 124.776483 125.261879 
L 123.878467 125.413123 
L 122.744131 125.375312 
L 121.89338 125.866858 
L 121.42074 125.791235 
L 120.617252 125.791235 
L 120.097348 124.089732 
L 119.29386 124.467844 
L 118.632164 123.522564 
L 117.828676 123.295697 
L 114.709253 123.560375 
L 114.472933 123.40913 
L 112.582373 123.673809 
L 108.470406 125.375312 
L 106.248999 126.207158 
L 97.646953 128.211152 
L 83.798603 131.084802 
L 64.987535 134.752488 
L 48.775987 140.613223 
L 40.8829 144.318719 
L 32.895286 144.621209 
z
" clip-path="url(#pcbfda0a56f)" style="fill: #fdc92c"/>
   </g>
   <g id="PolyCollection_3">
    <path d="M 32.895286 114.82599 
L 32.895286 144.621209 
L 40.8829 144.318719 
L 48.775987 140.613223 
L 64.987535 134.752488 
L 83.798603 131.084802 
L 97.646953 128.211152 
L 106.248999 126.207158 
L 108.470406 125.375312 
L 112.582373 123.673809 
L 114.472933 123.40913 
L 114.709253 123.560375 
L 117.828676 123.295697 
L 118.632164 123.522564 
L 119.29386 124.467844 
L 120.097348 124.089732 
L 120.617252 125.791235 
L 121.42074 125.791235 
L 121.89338 125.866858 
L 122.744131 125.375312 
L 123.878467 125.413123 
L 124.776483 125.261879 
L 125.107331 125.488746 
L 126.052611 125.375312 
L 126.714307 124.959389 
L 127.423266 125.148445 
L 128.17949 125.110634 
L 128.699394 125.072823 
L 129.172034 125.072823 
L 130.495426 125.602179 
L 131.440706 125.110634 
L 132.149665 125.148445 
L 132.338721 125.148445 
L 133.000417 124.9972 
L 133.992961 124.959389 
L 135.032769 125.677802 
L 135.741729 125.639991 
L 136.781536 125.375312 
L 138.152192 125.488746 
L 140.042752 125.564368 
L 141.696991 125.224067 
L 143.114911 125.29969 
L 145.761695 125.337501 
L 146.89603 125.035011 
L 149.96819 125.186256 
L 151.953277 124.883767 
L 153.182141 124.694711 
L 153.938365 124.619088 
L 156.915996 124.505655 
L 158.570236 124.316599 
L 160.27174 124.127543 
L 163.627483 123.635997 
L 166.746906 124.05192 
L 167.26681 124.014109 
L 167.881242 124.014109 
L 168.826522 124.014109 
L 169.582746 123.976298 
L 171.898681 123.031018 
L 176.530552 121.972305 
L 177.428568 121.896682 
L 181.776855 121.632004 
L 182.769399 121.216081 
L 183.761943 121.216081 
L 185.368918 120.346424 
L 186.69231 120.384235 
L 187.968438 119.892689 
L 188.771926 119.741445 
L 191.371445 119.741445 
L 194.065493 119.5902 
L 195.388884 119.476766 
L 196.334164 119.174277 
L 197.515764 119.703633 
L 198.508308 119.438955 
L 199.689908 118.871787 
L 202.478483 118.418053 
L 203.943667 118.34243 
L 205.361586 118.191186 
L 206.82677 118.153374 
L 208.24469 118.153374 
L 209.709873 118.153374 
L 211.175057 118.153374 
L 212.545713 118.153374 
L 214.010897 118.115563 
L 215.428816 118.115563 
L 216.894 117.813074 
L 218.31192 117.737451 
L 219.777103 117.548395 
L 221.242287 117.397151 
L 222.660207 117.245906 
L 224.125391 116.981227 
L 225.54331 116.792172 
L 227.008494 116.792172 
L 228.473678 116.640927 
L 229.797069 116.603116 
L 231.262253 116.565304 
L 232.680173 116.41406 
L 234.145356 116.300626 
L 235.563276 116.073759 
L 237.02846 115.998136 
L 238.493644 115.771269 
L 239.911563 115.733458 
L 241.376747 115.506591 
L 242.794667 115.430969 
L 244.25985 115.279724 
L 245.725034 115.279724 
L 247.048426 115.279724 
L 248.513609 115.279724 
L 249.931529 115.241913 
L 251.396713 115.16629 
L 252.814633 115.241913 
L 254.279816 115.204101 
L 255.745 115.015045 
L 257.16292 114.863801 
L 258.628103 114.750367 
L 260.046023 114.485689 
L 261.511207 114.5235 
L 262.976391 114.410066 
L 264.299782 114.334444 
L 265.764966 114.258822 
L 267.182886 114.296633 
L 268.648069 113.691654 
L 270.065989 113.729465 
L 271.531173 113.691654 
L 272.996356 113.729465 
L 274.414276 113.729465 
L 275.87946 113.691654 
L 277.29738 113.653843 
L 278.762563 113.540409 
L 280.227747 113.540409 
L 281.598403 113.502598 
L 283.063586 113.502598 
L 284.481506 113.426975 
L 285.94669 113.389164 
L 287.364609 113.389164 
L 288.829793 113.351353 
L 290.294977 113.200108 
L 291.712897 113.313542 
L 293.17808 113.313542 
L 294.596 112.897619 
L 296.061184 112.708563 
L 297.526367 113.464787 
L 298.849759 113.540409 
L 300.314943 113.237919 
L 301.732863 113.237919 
L 303.198046 112.821996 
L 304.615966 111.649849 
L 306.08115 109.570234 
L 307.546333 109.267744 
L 308.964253 108.738388 
L 310.429437 108.700576 
L 311.847356 108.587143 
L 313.31254 108.51152 
L 314.777724 108.587143 
L 316.101116 108.473709 
L 317.566299 108.17122 
L 318.984219 108.133409 
L 320.449403 108.095597 
L 321.867322 108.095597 
L 323.332506 108.095597 
L 324.79769 108.057786 
L 326.215609 108.057786 
L 327.680793 108.057786 
L 329.098713 107.982164 
L 330.563897 107.982164 
L 332.02908 107.906541 
L 333.352472 107.906541 
L 334.817656 107.86873 
L 336.235575 107.86873 
L 337.700759 107.982164 
L 339.118679 107.982164 
L 340.583863 107.944353 
L 342.049046 107.982164 
L 343.466966 107.944353 
L 344.93215 107.944353 
L 346.350069 107.944353 
L 347.815253 107.944353 
L 349.280437 107.944353 
L 350.651092 108.019975 
L 352.116276 107.982164 
L 353.534196 108.019975 
L 354.99938 108.133409 
L 356.417299 108.095597 
L 357.882483 108.057786 
L 359.347667 108.057786 
L 360.765586 107.982164 
L 362.23077 107.944353 
L 363.64869 107.86873 
L 365.113873 107.86873 
L 366.579057 107.830919 
L 367.902449 107.679674 
L 369.367633 107.490618 
L 370.785552 107.377185 
L 372.250736 107.414996 
L 373.668656 107.377185 
L 375.133839 107.339373 
L 376.599023 107.301562 
L 378.016943 107.263751 
L 379.482127 107.150318 
L 380.900046 107.188129 
L 382.36523 107.074695 
L 383.830414 107.074695 
L 385.153805 106.999073 
L 386.618989 106.961262 
L 388.036909 106.961262 
L 389.502092 106.999073 
L 390.920012 106.810017 
L 392.385196 106.810017 
L 393.85038 106.772206 
L 395.268299 106.885639 
L 396.733483 106.847828 
L 398.151403 106.847828 
L 399.616586 106.772206 
L 401.08177 106.658772 
L 402.405162 106.507527 
L 403.870345 106.469716 
L 405.288265 106.469716 
L 406.753449 106.356282 
L 408.171369 106.129415 
L 409.636552 105.864737 
L 411.101736 105.864737 
L 412.519656 105.789115 
L 413.984839 105.63787 
L 415.402759 105.524436 
L 416.867943 105.524436 
L 418.333127 105.259758 
L 419.703782 104.99508 
L 421.168966 105.032891 
L 422.586886 104.957268 
L 424.052069 104.806024 
L 425.469989 104.843835 
L 426.935173 104.957268 
L 428.400356 104.730401 
L 429.818276 104.69259 
L 431.28346 104.579156 
L 432.70138 104.503534 
L 434.166563 103.974177 
L 435.631747 104.011989 
L 436.955139 103.974177 
L 438.420322 104.201045 
L 439.838242 104.238856 
L 441.303426 104.314478 
L 442.721345 104.503534 
L 444.186529 104.579156 
L 445.651713 105.184136 
L 447.069633 106.129415 
L 448.534816 106.205038 
L 449.952736 106.242849 
L 449.952736 92.403953 
L 449.952736 92.403953 
L 448.534816 92.403953 
L 447.069633 92.403953 
L 445.651713 91.496484 
L 444.186529 91.496484 
L 442.721345 91.496484 
L 441.303426 91.496484 
L 439.838242 91.496484 
L 438.420322 91.458673 
L 436.955139 91.458673 
L 435.631747 91.458673 
L 434.166563 91.458673 
L 432.70138 91.458673 
L 431.28346 91.458673 
L 429.818276 91.458673 
L 428.400356 91.420862 
L 426.935173 91.761162 
L 425.469989 91.988029 
L 424.052069 91.988029 
L 422.586886 92.025841 
L 421.168966 92.025841 
L 419.703782 92.025841 
L 418.333127 92.063652 
L 416.867943 92.063652 
L 415.402759 92.063652 
L 413.984839 92.101463 
L 412.519656 92.101463 
L 411.101736 92.101463 
L 409.636552 92.101463 
L 408.171369 92.177085 
L 406.753449 92.177085 
L 405.288265 92.177085 
L 403.870345 92.177085 
L 402.405162 92.177085 
L 401.08177 92.214897 
L 399.616586 92.214897 
L 398.151403 92.290519 
L 396.733483 92.290519 
L 395.268299 92.32833 
L 393.85038 92.32833 
L 392.385196 92.32833 
L 390.920012 92.32833 
L 389.502092 92.403953 
L 388.036909 92.479575 
L 386.618989 92.479575 
L 385.153805 92.479575 
L 383.830414 92.479575 
L 382.36523 92.479575 
L 380.900046 92.517386 
L 379.482127 92.479575 
L 378.016943 92.555197 
L 376.599023 92.555197 
L 375.133839 92.555197 
L 373.668656 92.593009 
L 372.250736 92.593009 
L 370.785552 92.593009 
L 369.367633 92.63082 
L 367.902449 92.668631 
L 366.579057 92.706442 
L 365.113873 92.706442 
L 363.64869 92.668631 
L 362.23077 92.668631 
L 360.765586 92.668631 
L 359.347667 92.63082 
L 357.882483 92.63082 
L 356.417299 92.668631 
L 354.99938 92.668631 
L 353.534196 92.593009 
L 352.116276 92.555197 
L 350.651092 92.555197 
L 349.280437 92.593009 
L 347.815253 92.593009 
L 346.350069 92.593009 
L 344.93215 92.593009 
L 343.466966 92.593009 
L 342.049046 92.593009 
L 340.583863 92.593009 
L 339.118679 92.593009 
L 337.700759 92.593009 
L 336.235575 92.517386 
L 334.817656 92.517386 
L 333.352472 92.517386 
L 332.02908 92.517386 
L 330.563897 92.479575 
L 329.098713 92.479575 
L 327.680793 92.555197 
L 326.215609 92.555197 
L 324.79769 92.555197 
L 323.332506 92.593009 
L 321.867322 92.593009 
L 320.449403 92.593009 
L 318.984219 92.63082 
L 317.566299 92.668631 
L 316.101116 92.744253 
L 314.777724 92.744253 
L 313.31254 92.744253 
L 311.847356 92.895498 
L 310.429437 92.895498 
L 308.964253 92.895498 
L 307.546333 92.782064 
L 306.08115 92.819876 
L 304.615966 93.008932 
L 303.198046 93.9164 
L 301.732863 94.067645 
L 300.314943 94.105456 
L 298.849759 94.143267 
L 297.526367 94.143267 
L 296.061184 94.143267 
L 294.596 94.143267 
L 293.17808 94.181079 
L 291.712897 94.181079 
L 290.294977 94.21889 
L 288.829793 94.256701 
L 287.364609 94.294512 
L 285.94669 94.294512 
L 284.481506 94.294512 
L 283.063586 94.294512 
L 281.598403 94.294512 
L 280.227747 94.332323 
L 278.762563 94.332323 
L 277.29738 94.370135 
L 275.87946 94.407946 
L 274.414276 94.407946 
L 272.996356 94.407946 
L 271.531173 94.407946 
L 270.065989 94.407946 
L 268.648069 94.407946 
L 267.182886 94.407946 
L 265.764966 94.407946 
L 264.299782 94.483568 
L 262.976391 94.483568 
L 261.511207 94.483568 
L 260.046023 94.521379 
L 258.628103 94.521379 
L 257.16292 94.559191 
L 255.745 94.710435 
L 254.279816 95.617904 
L 252.814633 95.617904 
L 251.396713 95.617904 
L 249.931529 95.693526 
L 248.513609 95.693526 
L 247.048426 95.693526 
L 245.725034 95.693526 
L 244.25985 95.693526 
L 242.794667 95.693526 
L 241.376747 95.769149 
L 239.911563 95.693526 
L 238.493644 95.731337 
L 237.02846 95.80696 
L 235.563276 95.882582 
L 234.145356 96.071638 
L 232.680173 96.109449 
L 231.262253 96.109449 
L 229.797069 96.109449 
L 228.473678 96.109449 
L 227.008494 96.185072 
L 225.54331 96.185072 
L 224.125391 96.260694 
L 222.660207 96.260694 
L 221.242287 96.147261 
L 219.777103 96.222883 
L 218.31192 96.222883 
L 216.894 96.222883 
L 215.428816 96.260694 
L 214.010897 96.260694 
L 212.545713 96.260694 
L 211.175057 96.298505 
L 209.709873 96.298505 
L 208.24469 96.336317 
L 206.82677 96.298505 
L 205.361586 96.298505 
L 203.943667 96.374128 
L 202.478483 96.411939 
L 199.689908 96.676617 
L 198.508308 97.243785 
L 197.515764 97.508464 
L 196.334164 96.903484 
L 195.388884 97.39503 
L 194.065493 97.432841 
L 191.371445 98.302499 
L 188.771926 98.302499 
L 187.968438 98.264687 
L 186.69231 98.415932 
L 185.368918 98.415932 
L 183.761943 98.491555 
L 182.769399 98.491555 
L 181.776855 98.529366 
L 177.428568 98.68061 
L 176.530552 98.68061 
L 171.898681 99.663701 
L 169.582746 99.777135 
L 168.826522 99.814946 
L 167.881242 99.92838 
L 167.26681 99.92838 
L 166.746906 99.92838 
L 163.627483 99.92838 
L 160.27174 100.155247 
L 158.570236 100.268681 
L 156.915996 100.306492 
L 153.938365 100.382114 
L 153.182141 100.495548 
L 151.953277 100.684604 
L 149.96819 100.911471 
L 146.89603 101.062716 
L 145.761695 101.667695 
L 143.114911 101.705506 
L 141.696991 101.970184 
L 140.042752 102.272674 
L 138.152192 102.348296 
L 136.781536 102.348296 
L 135.741729 102.348296 
L 135.032769 102.348296 
L 133.992961 102.499541 
L 133.000417 102.650786 
L 132.338721 102.764219 
L 132.149665 102.764219 
L 131.440706 102.726408 
L 130.495426 103.255765 
L 129.172034 102.80203 
L 128.699394 102.80203 
L 128.17949 102.877653 
L 127.423266 102.877653 
L 126.714307 102.877653 
L 126.052611 103.444821 
L 125.107331 103.444821 
L 124.776483 102.991086 
L 123.878467 103.558254 
L 122.744131 104.616968 
L 121.89338 105.486625 
L 121.42074 105.524436 
L 120.617252 105.524436 
L 120.097348 105.562247 
L 119.29386 106.129415 
L 118.632164 105.600059 
L 117.828676 105.600059 
L 114.709253 105.864737 
L 114.472933 105.902548 
L 112.582373 105.940359 
L 108.470406 103.444821 
L 106.248999 106.091604 
L 97.646953 107.906541 
L 83.798603 109.75929 
L 64.987535 111.04487 
L 48.775987 112.973241 
L 40.8829 115.241913 
L 32.895286 114.82599 
z
" clip-path="url(#pcbfda0a56f)" style="fill: #aeaeae"/>
   </g>
   <g id="PolyCollection_4">
    <path d="M 32.895286 91.874596 
L 32.895286 114.82599 
L 40.8829 115.241913 
L 48.775987 112.973241 
L 64.987535 111.04487 
L 83.798603 109.75929 
L 97.646953 107.906541 
L 106.248999 106.091604 
L 108.470406 103.444821 
L 112.582373 105.940359 
L 114.472933 105.902548 
L 114.709253 105.864737 
L 117.828676 105.600059 
L 118.632164 105.600059 
L 119.29386 106.129415 
L 120.097348 105.562247 
L 120.617252 105.524436 
L 121.42074 105.524436 
L 121.89338 105.486625 
L 122.744131 104.616968 
L 123.878467 103.558254 
L 124.776483 102.991086 
L 125.107331 103.444821 
L 126.052611 103.444821 
L 126.714307 102.877653 
L 127.423266 102.877653 
L 128.17949 102.877653 
L 128.699394 102.80203 
L 129.172034 102.80203 
L 130.495426 103.255765 
L 131.440706 102.726408 
L 132.149665 102.764219 
L 132.338721 102.764219 
L 133.000417 102.650786 
L 133.992961 102.499541 
L 135.032769 102.348296 
L 135.741729 102.348296 
L 136.781536 102.348296 
L 138.152192 102.348296 
L 140.042752 102.272674 
L 141.696991 101.970184 
L 143.114911 101.705506 
L 145.761695 101.667695 
L 146.89603 101.062716 
L 149.96819 100.911471 
L 151.953277 100.684604 
L 153.182141 100.495548 
L 153.938365 100.382114 
L 156.915996 100.306492 
L 158.570236 100.268681 
L 160.27174 100.155247 
L 163.627483 99.92838 
L 166.746906 99.92838 
L 167.26681 99.92838 
L 167.881242 99.92838 
L 168.826522 99.814946 
L 169.582746 99.777135 
L 171.898681 99.663701 
L 176.530552 98.68061 
L 177.428568 98.68061 
L 181.776855 98.529366 
L 182.769399 98.491555 
L 183.761943 98.491555 
L 185.368918 98.415932 
L 186.69231 98.415932 
L 187.968438 98.264687 
L 188.771926 98.302499 
L 191.371445 98.302499 
L 194.065493 97.432841 
L 195.388884 97.39503 
L 196.334164 96.903484 
L 197.515764 97.508464 
L 198.508308 97.243785 
L 199.689908 96.676617 
L 202.478483 96.411939 
L 203.943667 96.374128 
L 205.361586 96.298505 
L 206.82677 96.298505 
L 208.24469 96.336317 
L 209.709873 96.298505 
L 211.175057 96.298505 
L 212.545713 96.260694 
L 214.010897 96.260694 
L 215.428816 96.260694 
L 216.894 96.222883 
L 218.31192 96.222883 
L 219.777103 96.222883 
L 221.242287 96.147261 
L 222.660207 96.260694 
L 224.125391 96.260694 
L 225.54331 96.185072 
L 227.008494 96.185072 
L 228.473678 96.109449 
L 229.797069 96.109449 
L 231.262253 96.109449 
L 232.680173 96.109449 
L 234.145356 96.071638 
L 235.563276 95.882582 
L 237.02846 95.80696 
L 238.493644 95.731337 
L 239.911563 95.693526 
L 241.376747 95.769149 
L 242.794667 95.693526 
L 244.25985 95.693526 
L 245.725034 95.693526 
L 247.048426 95.693526 
L 248.513609 95.693526 
L 249.931529 95.693526 
L 251.396713 95.617904 
L 252.814633 95.617904 
L 254.279816 95.617904 
L 255.745 94.710435 
L 257.16292 94.559191 
L 258.628103 94.521379 
L 260.046023 94.521379 
L 261.511207 94.483568 
L 262.976391 94.483568 
L 264.299782 94.483568 
L 265.764966 94.407946 
L 267.182886 94.407946 
L 268.648069 94.407946 
L 270.065989 94.407946 
L 271.531173 94.407946 
L 272.996356 94.407946 
L 274.414276 94.407946 
L 275.87946 94.407946 
L 277.29738 94.370135 
L 278.762563 94.332323 
L 280.227747 94.332323 
L 281.598403 94.294512 
L 283.063586 94.294512 
L 284.481506 94.294512 
L 285.94669 94.294512 
L 287.364609 94.294512 
L 288.829793 94.256701 
L 290.294977 94.21889 
L 291.712897 94.181079 
L 293.17808 94.181079 
L 294.596 94.143267 
L 296.061184 94.143267 
L 297.526367 94.143267 
L 298.849759 94.143267 
L 300.314943 94.105456 
L 301.732863 94.067645 
L 303.198046 93.9164 
L 304.615966 93.008932 
L 306.08115 92.819876 
L 307.546333 92.782064 
L 308.964253 92.895498 
L 310.429437 92.895498 
L 311.847356 92.895498 
L 313.31254 92.744253 
L 314.777724 92.744253 
L 316.101116 92.744253 
L 317.566299 92.668631 
L 318.984219 92.63082 
L 320.449403 92.593009 
L 321.867322 92.593009 
L 323.332506 92.593009 
L 324.79769 92.555197 
L 326.215609 92.555197 
L 327.680793 92.555197 
L 329.098713 92.479575 
L 330.563897 92.479575 
L 332.02908 92.517386 
L 333.352472 92.517386 
L 334.817656 92.517386 
L 336.235575 92.517386 
L 337.700759 92.593009 
L 339.118679 92.593009 
L 340.583863 92.593009 
L 342.049046 92.593009 
L 343.466966 92.593009 
L 344.93215 92.593009 
L 346.350069 92.593009 
L 347.815253 92.593009 
L 349.280437 92.593009 
L 350.651092 92.555197 
L 352.116276 92.555197 
L 353.534196 92.593009 
L 354.99938 92.668631 
L 356.417299 92.668631 
L 357.882483 92.63082 
L 359.347667 92.63082 
L 360.765586 92.668631 
L 362.23077 92.668631 
L 363.64869 92.668631 
L 365.113873 92.706442 
L 366.579057 92.706442 
L 367.902449 92.668631 
L 369.367633 92.63082 
L 370.785552 92.593009 
L 372.250736 92.593009 
L 373.668656 92.593009 
L 375.133839 92.555197 
L 376.599023 92.555197 
L 378.016943 92.555197 
L 379.482127 92.479575 
L 380.900046 92.517386 
L 382.36523 92.479575 
L 383.830414 92.479575 
L 385.153805 92.479575 
L 386.618989 92.479575 
L 388.036909 92.479575 
L 389.502092 92.403953 
L 390.920012 92.32833 
L 392.385196 92.32833 
L 393.85038 92.32833 
L 395.268299 92.32833 
L 396.733483 92.290519 
L 398.151403 92.290519 
L 399.616586 92.214897 
L 401.08177 92.214897 
L 402.405162 92.177085 
L 403.870345 92.177085 
L 405.288265 92.177085 
L 406.753449 92.177085 
L 408.171369 92.177085 
L 409.636552 92.101463 
L 411.101736 92.101463 
L 412.519656 92.101463 
L 413.984839 92.101463 
L 415.402759 92.063652 
L 416.867943 92.063652 
L 418.333127 92.063652 
L 419.703782 92.025841 
L 421.168966 92.025841 
L 422.586886 92.025841 
L 424.052069 91.988029 
L 425.469989 91.988029 
L 426.935173 91.761162 
L 428.400356 91.420862 
L 429.818276 91.458673 
L 431.28346 91.458673 
L 432.70138 91.458673 
L 434.166563 91.458673 
L 435.631747 91.458673 
L 436.955139 91.458673 
L 438.420322 91.458673 
L 439.838242 91.496484 
L 441.303426 91.496484 
L 442.721345 91.496484 
L 444.186529 91.496484 
L 445.651713 91.496484 
L 447.069633 92.403953 
L 448.534816 92.403953 
L 449.952736 92.403953 
L 449.952736 83.064588 
L 449.952736 83.064588 
L 448.534816 83.064588 
L 447.069633 83.064588 
L 445.651713 82.157119 
L 444.186529 82.157119 
L 442.721345 82.157119 
L 441.303426 82.157119 
L 439.838242 82.157119 
L 438.420322 82.157119 
L 436.955139 82.157119 
L 435.631747 82.157119 
L 434.166563 82.157119 
L 432.70138 82.157119 
L 431.28346 82.157119 
L 429.818276 82.194931 
L 428.400356 82.194931 
L 426.935173 82.194931 
L 425.469989 82.232742 
L 424.052069 82.232742 
L 422.586886 82.232742 
L 421.168966 82.232742 
L 419.703782 82.232742 
L 418.333127 82.232742 
L 416.867943 82.232742 
L 415.402759 82.232742 
L 413.984839 82.232742 
L 412.519656 82.232742 
L 411.101736 82.232742 
L 409.636552 82.232742 
L 408.171369 82.232742 
L 406.753449 82.232742 
L 405.288265 82.232742 
L 403.870345 82.232742 
L 402.405162 82.232742 
L 401.08177 82.421798 
L 399.616586 82.459609 
L 398.151403 82.49742 
L 396.733483 82.49742 
L 395.268299 82.49742 
L 393.85038 82.49742 
L 392.385196 82.49742 
L 390.920012 82.49742 
L 389.502092 82.49742 
L 388.036909 82.49742 
L 386.618989 82.49742 
L 385.153805 82.535231 
L 383.830414 82.49742 
L 382.36523 82.49742 
L 380.900046 82.535231 
L 379.482127 82.270553 
L 378.016943 82.270553 
L 376.599023 81.930252 
L 375.133839 81.930252 
L 373.668656 81.930252 
L 372.250736 81.930252 
L 370.785552 81.930252 
L 369.367633 81.930252 
L 367.902449 81.968064 
L 366.579057 81.968064 
L 365.113873 81.968064 
L 363.64869 81.930252 
L 362.23077 81.930252 
L 360.765586 81.930252 
L 359.347667 81.968064 
L 357.882483 81.968064 
L 356.417299 81.968064 
L 354.99938 81.968064 
L 353.534196 81.892441 
L 352.116276 81.85463 
L 350.651092 81.85463 
L 349.280437 81.85463 
L 347.815253 81.85463 
L 346.350069 81.85463 
L 344.93215 81.85463 
L 343.466966 81.85463 
L 342.049046 81.85463 
L 340.583863 81.85463 
L 339.118679 81.85463 
L 337.700759 81.85463 
L 336.235575 81.779008 
L 334.817656 81.779008 
L 333.352472 81.779008 
L 332.02908 81.779008 
L 330.563897 81.779008 
L 329.098713 81.779008 
L 327.680793 81.779008 
L 326.215609 81.779008 
L 324.79769 81.779008 
L 323.332506 81.741196 
L 321.867322 81.741196 
L 320.449403 81.741196 
L 318.984219 81.741196 
L 317.566299 81.741196 
L 316.101116 81.741196 
L 314.777724 81.741196 
L 313.31254 81.741196 
L 311.847356 81.741196 
L 310.429437 81.741196 
L 308.964253 81.741196 
L 307.546333 81.741196 
L 306.08115 81.741196 
L 304.615966 81.741196 
L 303.198046 81.741196 
L 301.732863 81.741196 
L 300.314943 81.741196 
L 298.849759 81.741196 
L 297.526367 81.741196 
L 296.061184 81.741196 
L 294.596 81.741196 
L 293.17808 81.741196 
L 291.712897 81.741196 
L 290.294977 81.741196 
L 288.829793 81.741196 
L 287.364609 81.741196 
L 285.94669 81.741196 
L 284.481506 81.741196 
L 283.063586 81.741196 
L 281.598403 82.081497 
L 280.227747 82.119308 
L 278.762563 82.119308 
L 277.29738 82.119308 
L 275.87946 82.270553 
L 274.414276 82.270553 
L 272.996356 82.270553 
L 271.531173 82.270553 
L 270.065989 82.270553 
L 268.648069 82.270553 
L 267.182886 82.270553 
L 265.764966 82.270553 
L 264.299782 82.270553 
L 262.976391 82.270553 
L 261.511207 82.270553 
L 260.046023 82.308364 
L 258.628103 82.308364 
L 257.16292 82.308364 
L 255.745 82.308364 
L 254.279816 82.043686 
L 252.814633 82.194931 
L 251.396713 82.157119 
L 249.931529 82.157119 
L 248.513609 82.157119 
L 247.048426 82.157119 
L 245.725034 82.157119 
L 244.25985 82.157119 
L 242.794667 82.157119 
L 241.376747 82.194931 
L 239.911563 82.194931 
L 238.493644 82.194931 
L 237.02846 82.157119 
L 235.563276 82.157119 
L 234.145356 82.157119 
L 232.680173 82.157119 
L 231.262253 82.157119 
L 229.797069 82.157119 
L 228.473678 82.157119 
L 227.008494 82.157119 
L 225.54331 82.157119 
L 224.125391 82.157119 
L 222.660207 82.194931 
L 221.242287 82.157119 
L 219.777103 82.194931 
L 218.31192 82.157119 
L 216.894 82.157119 
L 215.428816 82.157119 
L 214.010897 82.157119 
L 212.545713 82.157119 
L 211.175057 82.157119 
L 209.709873 82.194931 
L 208.24469 82.194931 
L 206.82677 82.157119 
L 205.361586 82.157119 
L 203.943667 82.157119 
L 202.478483 82.232742 
L 199.689908 82.49742 
L 198.508308 83.14021 
L 197.515764 83.215833 
L 196.334164 82.610854 
L 195.388884 84.08549 
L 194.065493 84.08549 
L 191.371445 85.446693 
L 188.771926 85.446693 
L 187.968438 85.408882 
L 186.69231 85.560127 
L 185.368918 85.522316 
L 183.761943 85.522316 
L 182.769399 85.522316 
L 181.776855 85.522316 
L 177.428568 85.824805 
L 176.530552 85.824805 
L 171.898681 86.013861 
L 169.582746 85.97605 
L 168.826522 85.97605 
L 167.881242 86.051672 
L 167.26681 86.051672 
L 166.746906 86.051672 
L 163.627483 86.581029 
L 160.27174 86.694463 
L 158.570236 86.694463 
L 156.915996 86.694463 
L 153.938365 86.694463 
L 153.182141 86.656651 
L 151.953277 86.656651 
L 149.96819 86.543218 
L 146.89603 86.505407 
L 145.761695 87.488498 
L 143.114911 87.601931 
L 141.696991 87.715365 
L 140.042752 87.601931 
L 138.152192 87.601931 
L 136.781536 87.56412 
L 135.741729 87.56412 
L 135.032769 87.56412 
L 133.992961 87.526309 
L 133.000417 87.526309 
L 132.338721 87.56412 
L 132.149665 87.56412 
L 131.440706 87.56412 
L 130.495426 87.980043 
L 129.172034 87.56412 
L 128.699394 87.56412 
L 128.17949 87.601931 
L 127.423266 87.526309 
L 126.714307 87.526309 
L 126.052611 87.904421 
L 125.107331 87.828798 
L 124.776483 87.412875 
L 123.878467 87.942232 
L 122.744131 87.790987 
L 121.89338 87.828798 
L 121.42074 87.828798 
L 120.617252 87.828798 
L 120.097348 87.866609 
L 119.29386 88.358155 
L 118.632164 87.828798 
L 117.828676 87.828798 
L 114.709253 88.774078 
L 114.472933 88.811889 
L 112.582373 88.774078 
L 108.470406 87.904421 
L 106.248999 88.774078 
L 97.646953 89.530302 
L 83.798603 89.946225 
L 64.987535 90.626827 
L 48.775987 91.04275 
L 40.8829 92.025841 
L 32.895286 91.874596 
z
" clip-path="url(#pcbfda0a56f)" style="fill: #d5dce5"/>
   </g>
   <g id="matplotlib.axis_1">
    <g id="xtick_1">
     <g id="line2d_1">
      <defs>
       <path id="mb37aff3751" d="M 0 0 
L 0 3.5 
" style="stroke: #000000; stroke-width: 0.8"/>
      </defs>
      <g>
       <use xlink:href="#mb37aff3751" x="71.604494" y="273.443941" style="stroke: #000000; stroke-width: 0.8"/>
      </g>
     </g>
     <g id="text_1">
      <!-- 2004 -->
      <g transform="translate(58.879494 288.042378) scale(0.1 -0.1)">
       <defs>
        <path id="DejaVuSans-32" d="M 1228 531 
L 3431 531 
L 3431 0 
L 469 0 
L 469 531 
Q 828 903 1448 1529 
Q 2069 2156 2228 2338 
Q 2531 2678 2651 2914 
Q 2772 3150 2772 3378 
Q 2772 3750 2511 3984 
Q 2250 4219 1831 4219 
Q 1534 4219 1204 4116 
Q 875 4013 500 3803 
L 500 4441 
Q 881 4594 1212 4672 
Q 1544 4750 1819 4750 
Q 2544 4750 2975 4387 
Q 3406 4025 3406 3419 
Q 3406 3131 3298 2873 
Q 3191 2616 2906 2266 
Q 2828 2175 2409 1742 
Q 1991 1309 1228 531 
z
" transform="scale(0.015625)"/>
        <path id="DejaVuSans-30" d="M 2034 4250 
Q 1547 4250 1301 3770 
Q 1056 3291 1056 2328 
Q 1056 1369 1301 889 
Q 1547 409 2034 409 
Q 2525 409 2770 889 
Q 3016 1369 3016 2328 
Q 3016 3291 2770 3770 
Q 2525 4250 2034 4250 
z
M 2034 4750 
Q 2819 4750 3233 4129 
Q 3647 3509 3647 2328 
Q 3647 1150 3233 529 
Q 2819 -91 2034 -91 
Q 1250 -91 836 529 
Q 422 1150 422 2328 
Q 422 3509 836 4129 
Q 1250 4750 2034 4750 
z
" transform="scale(0.015625)"/>
        <path id="DejaVuSans-34" d="M 2419 4116 
L 825 1625 
L 2419 1625 
L 2419 4116 
z
M 2253 4666 
L 3047 4666 
L 3047 1625 
L 3713 1625 
L 3713 1100 
L 3047 1100 
L 3047 0 
L 2419 0 
L 2419 1100 
L 313 1100 
L 313 1709 
L 2253 4666 
z
" transform="scale(0.015625)"/>
       </defs>
       <use xlink:href="#DejaVuSans-32"/>
       <use xlink:href="#DejaVuSans-30" x="63.623047"/>
       <use xlink:href="#DejaVuSans-30" x="127.246094"/>
       <use xlink:href="#DejaVuSans-34" x="190.869141"/>
      </g>
     </g>
    </g>
    <g id="xtick_2">
     <g id="line2d_2">
      <g>
       <use xlink:href="#mb37aff3751" x="140.657184" y="273.443941" style="stroke: #000000; stroke-width: 0.8"/>
      </g>
     </g>
     <g id="text_2">
      <!-- 2008 -->
      <g transform="translate(127.932184 288.042378) scale(0.1 -0.1)">
       <defs>
        <path id="DejaVuSans-38" d="M 2034 2216 
Q 1584 2216 1326 1975 
Q 1069 1734 1069 1313 
Q 1069 891 1326 650 
Q 1584 409 2034 409 
Q 2484 409 2743 651 
Q 3003 894 3003 1313 
Q 3003 1734 2745 1975 
Q 2488 2216 2034 2216 
z
M 1403 2484 
Q 997 2584 770 2862 
Q 544 3141 544 3541 
Q 544 4100 942 4425 
Q 1341 4750 2034 4750 
Q 2731 4750 3128 4425 
Q 3525 4100 3525 3541 
Q 3525 3141 3298 2862 
Q 3072 2584 2669 2484 
Q 3125 2378 3379 2068 
Q 3634 1759 3634 1313 
Q 3634 634 3220 271 
Q 2806 -91 2034 -91 
Q 1263 -91 848 271 
Q 434 634 434 1313 
Q 434 1759 690 2068 
Q 947 2378 1403 2484 
z
M 1172 3481 
Q 1172 3119 1398 2916 
Q 1625 2713 2034 2713 
Q 2441 2713 2670 2916 
Q 2900 3119 2900 3481 
Q 2900 3844 2670 4047 
Q 2441 4250 2034 4250 
Q 1625 4250 1398 4047 
Q 1172 3844 1172 3481 
z
" transform="scale(0.015625)"/>
       </defs>
       <use xlink:href="#DejaVuSans-32"/>
       <use xlink:href="#DejaVuSans-30" x="63.623047"/>
       <use xlink:href="#DejaVuSans-30" x="127.246094"/>
       <use xlink:href="#DejaVuSans-38" x="190.869141"/>
      </g>
     </g>
    </g>
    <g id="xtick_3">
     <g id="line2d_3">
      <g>
       <use xlink:href="#mb37aff3751" x="209.709873" y="273.443941" style="stroke: #000000; stroke-width: 0.8"/>
      </g>
     </g>
     <g id="text_3">
      <!-- 2012 -->
      <g transform="translate(196.984873 288.042378) scale(0.1 -0.1)">
       <defs>
        <path id="DejaVuSans-31" d="M 794 531 
L 1825 531 
L 1825 4091 
L 703 3866 
L 703 4441 
L 1819 4666 
L 2450 4666 
L 2450 531 
L 3481 531 
L 3481 0 
L 794 0 
L 794 531 
z
" transform="scale(0.015625)"/>
       </defs>
       <use xlink:href="#DejaVuSans-32"/>
       <use xlink:href="#DejaVuSans-30" x="63.623047"/>
       <use xlink:href="#DejaVuSans-31" x="127.246094"/>
       <use xlink:href="#DejaVuSans-32" x="190.869141"/>
      </g>
     </g>
    </g>
    <g id="xtick_4">
     <g id="line2d_4">
      <g>
       <use xlink:href="#mb37aff3751" x="278.762563" y="273.443941" style="stroke: #000000; stroke-width: 0.8"/>
      </g>
     </g>
     <g id="text_4">
      <!-- 2016 -->
      <g transform="translate(266.037563 288.042378) scale(0.1 -0.1)">
       <defs>
        <path id="DejaVuSans-36" d="M 2113 2584 
Q 1688 2584 1439 2293 
Q 1191 2003 1191 1497 
Q 1191 994 1439 701 
Q 1688 409 2113 409 
Q 2538 409 2786 701 
Q 3034 994 3034 1497 
Q 3034 2003 2786 2293 
Q 2538 2584 2113 2584 
z
M 3366 4563 
L 3366 3988 
Q 3128 4100 2886 4159 
Q 2644 4219 2406 4219 
Q 1781 4219 1451 3797 
Q 1122 3375 1075 2522 
Q 1259 2794 1537 2939 
Q 1816 3084 2150 3084 
Q 2853 3084 3261 2657 
Q 3669 2231 3669 1497 
Q 3669 778 3244 343 
Q 2819 -91 2113 -91 
Q 1303 -91 875 529 
Q 447 1150 447 2328 
Q 447 3434 972 4092 
Q 1497 4750 2381 4750 
Q 2619 4750 2861 4703 
Q 3103 4656 3366 4563 
z
" transform="scale(0.015625)"/>
       </defs>
       <use xlink:href="#DejaVuSans-32"/>
       <use xlink:href="#DejaVuSans-30" x="63.623047"/>
       <use xlink:href="#DejaVuSans-31" x="127.246094"/>
       <use xlink:href="#DejaVuSans-36" x="190.869141"/>
      </g>
     </g>
    </g>
    <g id="xtick_5">
     <g id="line2d_5">
      <g>
       <use xlink:href="#mb37aff3751" x="347.815253" y="273.443941" style="stroke: #000000; stroke-width: 0.8"/>
      </g>
     </g>
     <g id="text_5">
      <!-- 2020 -->
      <g transform="translate(335.090253 288.042378) scale(0.1 -0.1)">
       <use xlink:href="#DejaVuSans-32"/>
       <use xlink:href="#DejaVuSans-30" x="63.623047"/>
       <use xlink:href="#DejaVuSans-32" x="127.246094"/>
       <use xlink:href="#DejaVuSans-30" x="190.869141"/>
      </g>
     </g>
    </g>
    <g id="xtick_6">
     <g id="line2d_6">
      <g>
       <use xlink:href="#mb37aff3751" x="416.867943" y="273.443941" style="stroke: #000000; stroke-width: 0.8"/>
      </g>
     </g>
     <g id="text_6">
      <!-- 2024 -->
      <g transform="translate(404.142943 288.042378) scale(0.1 -0.1)">
       <use xlink:href="#DejaVuSans-32"/>
       <use xlink:href="#DejaVuSans-30" x="63.623047"/>
       <use xlink:href="#DejaVuSans-32" x="127.246094"/>
       <use xlink:href="#DejaVuSans-34" x="190.869141"/>
      </g>
     </g>
    </g>
    <g id="text_7">
     <!-- Year -->
     <g transform="translate(239.86375 305.519722) scale(0.15 -0.15)">
      <defs>
       <path id="DejaVuSans-59" d="M -13 4666 
L 666 4666 
L 1959 2747 
L 3244 4666 
L 3922 4666 
L 2272 2222 
L 2272 0 
L 1638 0 
L 1638 2222 
L -13 4666 
z
" transform="scale(0.015625)"/>
       <path id="DejaVuSans-65" d="M 3597 1894 
L 3597 1613 
L 953 1613 
Q 991 1019 1311 708 
Q 1631 397 2203 397 
Q 2534 397 2845 478 
Q 3156 559 3463 722 
L 3463 178 
Q 3153 47 2828 -22 
Q 2503 -91 2169 -91 
Q 1331 -91 842 396 
Q 353 884 353 1716 
Q 353 2575 817 3079 
Q 1281 3584 2069 3584 
Q 2775 3584 3186 3129 
Q 3597 2675 3597 1894 
z
M 3022 2063 
Q 3016 2534 2758 2815 
Q 2500 3097 2075 3097 
Q 1594 3097 1305 2825 
Q 1016 2553 972 2059 
L 3022 2063 
z
" transform="scale(0.015625)"/>
       <path id="DejaVuSans-61" d="M 2194 1759 
Q 1497 1759 1228 1600 
Q 959 1441 959 1056 
Q 959 750 1161 570 
Q 1363 391 1709 391 
Q 2188 391 2477 730 
Q 2766 1069 2766 1631 
L 2766 1759 
L 2194 1759 
z
M 3341 1997 
L 3341 0 
L 2766 0 
L 2766 531 
Q 2569 213 2275 61 
Q 1981 -91 1556 -91 
Q 1019 -91 701 211 
Q 384 513 384 1019 
Q 384 1609 779 1909 
Q 1175 2209 1959 2209 
L 2766 2209 
L 2766 2266 
Q 2766 2663 2505 2880 
Q 2244 3097 1772 3097 
Q 1472 3097 1187 3025 
Q 903 2953 641 2809 
L 641 3341 
Q 956 3463 1253 3523 
Q 1550 3584 1831 3584 
Q 2591 3584 2966 3190 
Q 3341 2797 3341 1997 
z
" transform="scale(0.015625)"/>
       <path id="DejaVuSans-72" d="M 2631 2963 
Q 2534 3019 2420 3045 
Q 2306 3072 2169 3072 
Q 1681 3072 1420 2755 
Q 1159 2438 1159 1844 
L 1159 0 
L 581 0 
L 581 3500 
L 1159 3500 
L 1159 2956 
Q 1341 3275 1631 3429 
Q 1922 3584 2338 3584 
Q 2397 3584 2469 3576 
Q 2541 3569 2628 3553 
L 2631 2963 
z
" transform="scale(0.015625)"/>
      </defs>
      <use xlink:href="#DejaVuSans-59"/>
      <use xlink:href="#DejaVuSans-65" x="47.833984"/>
      <use xlink:href="#DejaVuSans-61" x="109.357422"/>
      <use xlink:href="#DejaVuSans-72" x="170.636719"/>
     </g>
    </g>
   </g>
   <g id="matplotlib.axis_2">
    <g id="ytick_1">
     <g id="line2d_7">
      <defs>
       <path id="m8a3dbd726c" d="M 0 0 
L -3.5 0 
" style="stroke: #000000; stroke-width: 0.8"/>
      </defs>
      <g>
       <use xlink:href="#m8a3dbd726c" x="61.49" y="273.443941" style="stroke: #000000; stroke-width: 0.8"/>
      </g>
     </g>
     <g id="text_8">
      <!-- 0 -->
      <g transform="translate(48.1275 277.24316) scale(0.1 -0.1)">
       <use xlink:href="#DejaVuSans-30"/>
      </g>
     </g>
    </g>
    <g id="ytick_2">
     <g id="line2d_8">
      <g>
       <use xlink:href="#m8a3dbd726c" x="61.49" y="235.632749" style="stroke: #000000; stroke-width: 0.8"/>
      </g>
     </g>
     <g id="text_9">
      <!-- 1000 -->
      <g transform="translate(29.04 239.431967) scale(0.1 -0.1)">
       <use xlink:href="#DejaVuSans-31"/>
       <use xlink:href="#DejaVuSans-30" x="63.623047"/>
       <use xlink:href="#DejaVuSans-30" x="127.246094"/>
       <use xlink:href="#DejaVuSans-30" x="190.869141"/>
      </g>
     </g>
    </g>
    <g id="ytick_3">
     <g id="line2d_9">
      <g>
       <use xlink:href="#m8a3dbd726c" x="61.49" y="197.821556" style="stroke: #000000; stroke-width: 0.8"/>
      </g>
     </g>
     <g id="text_10">
      <!-- 2000 -->
      <g transform="translate(29.04 201.620775) scale(0.1 -0.1)">
       <use xlink:href="#DejaVuSans-32"/>
       <use xlink:href="#DejaVuSans-30" x="63.623047"/>
       <use xlink:href="#DejaVuSans-30" x="127.246094"/>
       <use xlink:href="#DejaVuSans-30" x="190.869141"/>
      </g>
     </g>
    </g>
    <g id="ytick_4">
     <g id="line2d_10">
      <g>
       <use xlink:href="#m8a3dbd726c" x="61.49" y="160.010364" style="stroke: #000000; stroke-width: 0.8"/>
      </g>
     </g>
     <g id="text_11">
      <!-- 3000 -->
      <g transform="translate(29.04 163.809583) scale(0.1 -0.1)">
       <defs>
        <path id="DejaVuSans-33" d="M 2597 2516 
Q 3050 2419 3304 2112 
Q 3559 1806 3559 1356 
Q 3559 666 3084 287 
Q 2609 -91 1734 -91 
Q 1441 -91 1130 -33 
Q 819 25 488 141 
L 488 750 
Q 750 597 1062 519 
Q 1375 441 1716 441 
Q 2309 441 2620 675 
Q 2931 909 2931 1356 
Q 2931 1769 2642 2001 
Q 2353 2234 1838 2234 
L 1294 2234 
L 1294 2753 
L 1863 2753 
Q 2328 2753 2575 2939 
Q 2822 3125 2822 3475 
Q 2822 3834 2567 4026 
Q 2313 4219 1838 4219 
Q 1578 4219 1281 4162 
Q 984 4106 628 3988 
L 628 4550 
Q 988 4650 1302 4700 
Q 1616 4750 1894 4750 
Q 2613 4750 3031 4423 
Q 3450 4097 3450 3541 
Q 3450 3153 3228 2886 
Q 3006 2619 2597 2516 
z
" transform="scale(0.015625)"/>
       </defs>
       <use xlink:href="#DejaVuSans-33"/>
       <use xlink:href="#DejaVuSans-30" x="63.623047"/>
       <use xlink:href="#DejaVuSans-30" x="127.246094"/>
       <use xlink:href="#DejaVuSans-30" x="190.869141"/>
      </g>
     </g>
    </g>
    <g id="ytick_5">
     <g id="line2d_11">
      <g>
       <use xlink:href="#m8a3dbd726c" x="61.49" y="122.199172" style="stroke: #000000; stroke-width: 0.8"/>
      </g>
     </g>
     <g id="text_12">
      <!-- 4000 -->
      <g transform="translate(29.04 125.998391) scale(0.1 -0.1)">
       <use xlink:href="#DejaVuSans-34"/>
       <use xlink:href="#DejaVuSans-30" x="63.623047"/>
       <use xlink:href="#DejaVuSans-30" x="127.246094"/>
       <use xlink:href="#DejaVuSans-30" x="190.869141"/>
      </g>
     </g>
    </g>
    <g id="ytick_6">
     <g id="line2d_12">
      <g>
       <use xlink:href="#m8a3dbd726c" x="61.49" y="84.38798" style="stroke: #000000; stroke-width: 0.8"/>
      </g>
     </g>
     <g id="text_13">
      <!-- 5000 -->
      <g transform="translate(29.04 88.187199) scale(0.1 -0.1)">
       <defs>
        <path id="DejaVuSans-35" d="M 691 4666 
L 3169 4666 
L 3169 4134 
L 1269 4134 
L 1269 2991 
Q 1406 3038 1543 3061 
Q 1681 3084 1819 3084 
Q 2600 3084 3056 2656 
Q 3513 2228 3513 1497 
Q 3513 744 3044 326 
Q 2575 -91 1722 -91 
Q 1428 -91 1123 -41 
Q 819 9 494 109 
L 494 744 
Q 775 591 1075 516 
Q 1375 441 1709 441 
Q 2250 441 2565 725 
Q 2881 1009 2881 1497 
Q 2881 1984 2565 2268 
Q 2250 2553 1709 2553 
Q 1456 2553 1204 2497 
Q 953 2441 691 2322 
L 691 4666 
z
" transform="scale(0.015625)"/>
       </defs>
       <use xlink:href="#DejaVuSans-35"/>
       <use xlink:href="#DejaVuSans-30" x="63.623047"/>
       <use xlink:href="#DejaVuSans-30" x="127.246094"/>
       <use xlink:href="#DejaVuSans-30" x="190.869141"/>
      </g>
     </g>
    </g>
    <g id="text_14">
     <!-- Number of proteins -->
     <g transform="translate(21.920469 245.489062) rotate(-90) scale(0.15 -0.15)">
      <defs>
       <path id="DejaVuSans-4e" d="M 628 4666 
L 1478 4666 
L 3547 763 
L 3547 4666 
L 4159 4666 
L 4159 0 
L 3309 0 
L 1241 3903 
L 1241 0 
L 628 0 
L 628 4666 
z
" transform="scale(0.015625)"/>
       <path id="DejaVuSans-75" d="M 544 1381 
L 544 3500 
L 1119 3500 
L 1119 1403 
Q 1119 906 1312 657 
Q 1506 409 1894 409 
Q 2359 409 2629 706 
Q 2900 1003 2900 1516 
L 2900 3500 
L 3475 3500 
L 3475 0 
L 2900 0 
L 2900 538 
Q 2691 219 2414 64 
Q 2138 -91 1772 -91 
Q 1169 -91 856 284 
Q 544 659 544 1381 
z
M 1991 3584 
L 1991 3584 
z
" transform="scale(0.015625)"/>
       <path id="DejaVuSans-6d" d="M 3328 2828 
Q 3544 3216 3844 3400 
Q 4144 3584 4550 3584 
Q 5097 3584 5394 3201 
Q 5691 2819 5691 2113 
L 5691 0 
L 5113 0 
L 5113 2094 
Q 5113 2597 4934 2840 
Q 4756 3084 4391 3084 
Q 3944 3084 3684 2787 
Q 3425 2491 3425 1978 
L 3425 0 
L 2847 0 
L 2847 2094 
Q 2847 2600 2669 2842 
Q 2491 3084 2119 3084 
Q 1678 3084 1418 2786 
Q 1159 2488 1159 1978 
L 1159 0 
L 581 0 
L 581 3500 
L 1159 3500 
L 1159 2956 
Q 1356 3278 1631 3431 
Q 1906 3584 2284 3584 
Q 2666 3584 2933 3390 
Q 3200 3197 3328 2828 
z
" transform="scale(0.015625)"/>
       <path id="DejaVuSans-62" d="M 3116 1747 
Q 3116 2381 2855 2742 
Q 2594 3103 2138 3103 
Q 1681 3103 1420 2742 
Q 1159 2381 1159 1747 
Q 1159 1113 1420 752 
Q 1681 391 2138 391 
Q 2594 391 2855 752 
Q 3116 1113 3116 1747 
z
M 1159 2969 
Q 1341 3281 1617 3432 
Q 1894 3584 2278 3584 
Q 2916 3584 3314 3078 
Q 3713 2572 3713 1747 
Q 3713 922 3314 415 
Q 2916 -91 2278 -91 
Q 1894 -91 1617 61 
Q 1341 213 1159 525 
L 1159 0 
L 581 0 
L 581 4863 
L 1159 4863 
L 1159 2969 
z
" transform="scale(0.015625)"/>
       <path id="DejaVuSans-20" transform="scale(0.015625)"/>
       <path id="DejaVuSans-6f" d="M 1959 3097 
Q 1497 3097 1228 2736 
Q 959 2375 959 1747 
Q 959 1119 1226 758 
Q 1494 397 1959 397 
Q 2419 397 2687 759 
Q 2956 1122 2956 1747 
Q 2956 2369 2687 2733 
Q 2419 3097 1959 3097 
z
M 1959 3584 
Q 2709 3584 3137 3096 
Q 3566 2609 3566 1747 
Q 3566 888 3137 398 
Q 2709 -91 1959 -91 
Q 1206 -91 779 398 
Q 353 888 353 1747 
Q 353 2609 779 3096 
Q 1206 3584 1959 3584 
z
" transform="scale(0.015625)"/>
       <path id="DejaVuSans-66" d="M 2375 4863 
L 2375 4384 
L 1825 4384 
Q 1516 4384 1395 4259 
Q 1275 4134 1275 3809 
L 1275 3500 
L 2222 3500 
L 2222 3053 
L 1275 3053 
L 1275 0 
L 697 0 
L 697 3053 
L 147 3053 
L 147 3500 
L 697 3500 
L 697 3744 
Q 697 4328 969 4595 
Q 1241 4863 1831 4863 
L 2375 4863 
z
" transform="scale(0.015625)"/>
       <path id="DejaVuSans-70" d="M 1159 525 
L 1159 -1331 
L 581 -1331 
L 581 3500 
L 1159 3500 
L 1159 2969 
Q 1341 3281 1617 3432 
Q 1894 3584 2278 3584 
Q 2916 3584 3314 3078 
Q 3713 2572 3713 1747 
Q 3713 922 3314 415 
Q 2916 -91 2278 -91 
Q 1894 -91 1617 61 
Q 1341 213 1159 525 
z
M 3116 1747 
Q 3116 2381 2855 2742 
Q 2594 3103 2138 3103 
Q 1681 3103 1420 2742 
Q 1159 2381 1159 1747 
Q 1159 1113 1420 752 
Q 1681 391 2138 391 
Q 2594 391 2855 752 
Q 3116 1113 3116 1747 
z
" transform="scale(0.015625)"/>
       <path id="DejaVuSans-74" d="M 1172 4494 
L 1172 3500 
L 2356 3500 
L 2356 3053 
L 1172 3053 
L 1172 1153 
Q 1172 725 1289 603 
Q 1406 481 1766 481 
L 2356 481 
L 2356 0 
L 1766 0 
Q 1100 0 847 248 
Q 594 497 594 1153 
L 594 3053 
L 172 3053 
L 172 3500 
L 594 3500 
L 594 4494 
L 1172 4494 
z
" transform="scale(0.015625)"/>
       <path id="DejaVuSans-69" d="M 603 3500 
L 1178 3500 
L 1178 0 
L 603 0 
L 603 3500 
z
M 603 4863 
L 1178 4863 
L 1178 4134 
L 603 4134 
L 603 4863 
z
" transform="scale(0.015625)"/>
       <path id="DejaVuSans-6e" d="M 3513 2113 
L 3513 0 
L 2938 0 
L 2938 2094 
Q 2938 2591 2744 2837 
Q 2550 3084 2163 3084 
Q 1697 3084 1428 2787 
Q 1159 2491 1159 1978 
L 1159 0 
L 581 0 
L 581 3500 
L 1159 3500 
L 1159 2956 
Q 1366 3272 1645 3428 
Q 1925 3584 2291 3584 
Q 2894 3584 3203 3211 
Q 3513 2838 3513 2113 
z
" transform="scale(0.015625)"/>
       <path id="DejaVuSans-73" d="M 2834 3397 
L 2834 2853 
Q 2591 2978 2328 3040 
Q 2066 3103 1784 3103 
Q 1356 3103 1142 2972 
Q 928 2841 928 2578 
Q 928 2378 1081 2264 
Q 1234 2150 1697 2047 
L 1894 2003 
Q 2506 1872 2764 1633 
Q 3022 1394 3022 966 
Q 3022 478 2636 193 
Q 2250 -91 1575 -91 
Q 1294 -91 989 -36 
Q 684 19 347 128 
L 347 722 
Q 666 556 975 473 
Q 1284 391 1588 391 
Q 1994 391 2212 530 
Q 2431 669 2431 922 
Q 2431 1156 2273 1281 
Q 2116 1406 1581 1522 
L 1381 1569 
Q 847 1681 609 1914 
Q 372 2147 372 2553 
Q 372 3047 722 3315 
Q 1072 3584 1716 3584 
Q 2034 3584 2315 3537 
Q 2597 3491 2834 3397 
z
" transform="scale(0.015625)"/>
      </defs>
      <use xlink:href="#DejaVuSans-4e"/>
      <use xlink:href="#DejaVuSans-75" x="74.804688"/>
      <use xlink:href="#DejaVuSans-6d" x="138.183594"/>
      <use xlink:href="#DejaVuSans-62" x="235.595703"/>
      <use xlink:href="#DejaVuSans-65" x="299.072266"/>
      <use xlink:href="#DejaVuSans-72" x="360.595703"/>
      <use xlink:href="#DejaVuSans-20" x="401.708984"/>
      <use xlink:href="#DejaVuSans-6f" x="433.496094"/>
      <use xlink:href="#DejaVuSans-66" x="494.677734"/>
      <use xlink:href="#DejaVuSans-20" x="529.882812"/>
      <use xlink:href="#DejaVuSans-70" x="561.669922"/>
      <use xlink:href="#DejaVuSans-72" x="625.146484"/>
      <use xlink:href="#DejaVuSans-6f" x="664.009766"/>
      <use xlink:href="#DejaVuSans-74" x="725.191406"/>
      <use xlink:href="#DejaVuSans-65" x="764.400391"/>
      <use xlink:href="#DejaVuSans-69" x="825.923828"/>
      <use xlink:href="#DejaVuSans-6e" x="853.707031"/>
      <use xlink:href="#DejaVuSans-73" x="917.085938"/>
     </g>
    </g>
   </g>
   <g id="patch_3">
    <path d="M 61.49 273.443941 
L 61.49 72.156059 
" style="fill: none; stroke: #000000; stroke-width: 0.8; stroke-linejoin: miter; stroke-linecap: square"/>
   </g>
   <g id="patch_4">
    <path d="M 61.49 273.443941 
L 450 273.443941 
" style="fill: none; stroke: #000000; stroke-width: 0.8; stroke-linejoin: miter; stroke-linecap: square"/>
   </g>
   <g id="legend_1">
    <g id="patch_5">
     <path d="M 98.395781 67.156059 
L 413.094219 67.156059 
Q 415.094219 67.156059 415.094219 65.156059 
L 415.094219 36.799809 
Q 415.094219 34.799809 413.094219 34.799809 
L 98.395781 34.799809 
Q 96.395781 34.799809 96.395781 36.799809 
L 96.395781 65.156059 
Q 96.395781 67.156059 98.395781 67.156059 
z
" style="fill: #ffffff; opacity: 0.8; stroke: #cccccc; stroke-linejoin: miter"/>
    </g>
    <g id="patch_6">
     <path d="M 100.395781 46.398247 
L 120.395781 46.398247 
L 120.395781 39.398247 
L 100.395781 39.398247 
z
" style="fill: #fb363b"/>
    </g>
    <g id="text_15">
     <!-- Biological role published -->
     <g transform="translate(128.395781 46.398247) scale(0.1 -0.1)">
      <defs>
       <path id="DejaVuSans-42" d="M 1259 2228 
L 1259 519 
L 2272 519 
Q 2781 519 3026 730 
Q 3272 941 3272 1375 
Q 3272 1813 3026 2020 
Q 2781 2228 2272 2228 
L 1259 2228 
z
M 1259 4147 
L 1259 2741 
L 2194 2741 
Q 2656 2741 2882 2914 
Q 3109 3088 3109 3444 
Q 3109 3797 2882 3972 
Q 2656 4147 2194 4147 
L 1259 4147 
z
M 628 4666 
L 2241 4666 
Q 2963 4666 3353 4366 
Q 3744 4066 3744 3513 
Q 3744 3084 3544 2831 
Q 3344 2578 2956 2516 
Q 3422 2416 3680 2098 
Q 3938 1781 3938 1306 
Q 3938 681 3513 340 
Q 3088 0 2303 0 
L 628 0 
L 628 4666 
z
" transform="scale(0.015625)"/>
       <path id="DejaVuSans-6c" d="M 603 4863 
L 1178 4863 
L 1178 0 
L 603 0 
L 603 4863 
z
" transform="scale(0.015625)"/>
       <path id="DejaVuSans-67" d="M 2906 1791 
Q 2906 2416 2648 2759 
Q 2391 3103 1925 3103 
Q 1463 3103 1205 2759 
Q 947 2416 947 1791 
Q 947 1169 1205 825 
Q 1463 481 1925 481 
Q 2391 481 2648 825 
Q 2906 1169 2906 1791 
z
M 3481 434 
Q 3481 -459 3084 -895 
Q 2688 -1331 1869 -1331 
Q 1566 -1331 1297 -1286 
Q 1028 -1241 775 -1147 
L 775 -588 
Q 1028 -725 1275 -790 
Q 1522 -856 1778 -856 
Q 2344 -856 2625 -561 
Q 2906 -266 2906 331 
L 2906 616 
Q 2728 306 2450 153 
Q 2172 0 1784 0 
Q 1141 0 747 490 
Q 353 981 353 1791 
Q 353 2603 747 3093 
Q 1141 3584 1784 3584 
Q 2172 3584 2450 3431 
Q 2728 3278 2906 2969 
L 2906 3500 
L 3481 3500 
L 3481 434 
z
" transform="scale(0.015625)"/>
       <path id="DejaVuSans-63" d="M 3122 3366 
L 3122 2828 
Q 2878 2963 2633 3030 
Q 2388 3097 2138 3097 
Q 1578 3097 1268 2742 
Q 959 2388 959 1747 
Q 959 1106 1268 751 
Q 1578 397 2138 397 
Q 2388 397 2633 464 
Q 2878 531 3122 666 
L 3122 134 
Q 2881 22 2623 -34 
Q 2366 -91 2075 -91 
Q 1284 -91 818 406 
Q 353 903 353 1747 
Q 353 2603 823 3093 
Q 1294 3584 2113 3584 
Q 2378 3584 2631 3529 
Q 2884 3475 3122 3366 
z
" transform="scale(0.015625)"/>
       <path id="DejaVuSans-68" d="M 3513 2113 
L 3513 0 
L 2938 0 
L 2938 2094 
Q 2938 2591 2744 2837 
Q 2550 3084 2163 3084 
Q 1697 3084 1428 2787 
Q 1159 2491 1159 1978 
L 1159 0 
L 581 0 
L 581 4863 
L 1159 4863 
L 1159 2956 
Q 1366 3272 1645 3428 
Q 1925 3584 2291 3584 
Q 2894 3584 3203 3211 
Q 3513 2838 3513 2113 
z
" transform="scale(0.015625)"/>
       <path id="DejaVuSans-64" d="M 2906 2969 
L 2906 4863 
L 3481 4863 
L 3481 0 
L 2906 0 
L 2906 525 
Q 2725 213 2448 61 
Q 2172 -91 1784 -91 
Q 1150 -91 751 415 
Q 353 922 353 1747 
Q 353 2572 751 3078 
Q 1150 3584 1784 3584 
Q 2172 3584 2448 3432 
Q 2725 3281 2906 2969 
z
M 947 1747 
Q 947 1113 1208 752 
Q 1469 391 1925 391 
Q 2381 391 2643 752 
Q 2906 1113 2906 1747 
Q 2906 2381 2643 2742 
Q 2381 3103 1925 3103 
Q 1469 3103 1208 2742 
Q 947 2381 947 1747 
z
" transform="scale(0.015625)"/>
      </defs>
      <use xlink:href="#DejaVuSans-42"/>
      <use xlink:href="#DejaVuSans-69" x="68.603516"/>
      <use xlink:href="#DejaVuSans-6f" x="96.386719"/>
      <use xlink:href="#DejaVuSans-6c" x="157.568359"/>
      <use xlink:href="#DejaVuSans-6f" x="185.351562"/>
      <use xlink:href="#DejaVuSans-67" x="246.533203"/>
      <use xlink:href="#DejaVuSans-69" x="310.009766"/>
      <use xlink:href="#DejaVuSans-63" x="337.792969"/>
      <use xlink:href="#DejaVuSans-61" x="392.773438"/>
      <use xlink:href="#DejaVuSans-6c" x="454.052734"/>
      <use xlink:href="#DejaVuSans-20" x="481.835938"/>
      <use xlink:href="#DejaVuSans-72" x="513.623047"/>
      <use xlink:href="#DejaVuSans-6f" x="552.486328"/>
      <use xlink:href="#DejaVuSans-6c" x="613.667969"/>
      <use xlink:href="#DejaVuSans-65" x="641.451172"/>
      <use xlink:href="#DejaVuSans-20" x="702.974609"/>
      <use xlink:href="#DejaVuSans-70" x="734.761719"/>
      <use xlink:href="#DejaVuSans-75" x="798.238281"/>
      <use xlink:href="#DejaVuSans-62" x="861.617188"/>
      <use xlink:href="#DejaVuSans-6c" x="925.09375"/>
      <use xlink:href="#DejaVuSans-69" x="952.876953"/>
      <use xlink:href="#DejaVuSans-73" x="980.660156"/>
      <use xlink:href="#DejaVuSans-68" x="1032.759766"/>
      <use xlink:href="#DejaVuSans-65" x="1096.138672"/>
      <use xlink:href="#DejaVuSans-64" x="1157.662109"/>
     </g>
    </g>
    <g id="patch_7">
     <path d="M 100.395781 61.076372 
L 120.395781 61.076372 
L 120.395781 54.076372 
L 100.395781 54.076372 
z
" style="fill: #fdc92c"/>
    </g>
    <g id="text_16">
     <!-- Biological role inferred -->
     <g transform="translate(128.395781 61.076372) scale(0.1 -0.1)">
      <use xlink:href="#DejaVuSans-42"/>
      <use xlink:href="#DejaVuSans-69" x="68.603516"/>
      <use xlink:href="#DejaVuSans-6f" x="96.386719"/>
      <use xlink:href="#DejaVuSans-6c" x="157.568359"/>
      <use xlink:href="#DejaVuSans-6f" x="185.351562"/>
      <use xlink:href="#DejaVuSans-67" x="246.533203"/>
      <use xlink:href="#DejaVuSans-69" x="310.009766"/>
      <use xlink:href="#DejaVuSans-63" x="337.792969"/>
      <use xlink:href="#DejaVuSans-61" x="392.773438"/>
      <use xlink:href="#DejaVuSans-6c" x="454.052734"/>
      <use xlink:href="#DejaVuSans-20" x="481.835938"/>
      <use xlink:href="#DejaVuSans-72" x="513.623047"/>
      <use xlink:href="#DejaVuSans-6f" x="552.486328"/>
      <use xlink:href="#DejaVuSans-6c" x="613.667969"/>
      <use xlink:href="#DejaVuSans-65" x="641.451172"/>
      <use xlink:href="#DejaVuSans-20" x="702.974609"/>
      <use xlink:href="#DejaVuSans-69" x="734.761719"/>
      <use xlink:href="#DejaVuSans-6e" x="762.544922"/>
      <use xlink:href="#DejaVuSans-66" x="825.923828"/>
      <use xlink:href="#DejaVuSans-65" x="861.128906"/>
      <use xlink:href="#DejaVuSans-72" x="922.652344"/>
      <use xlink:href="#DejaVuSans-72" x="962.015625"/>
      <use xlink:href="#DejaVuSans-65" x="1000.878906"/>
      <use xlink:href="#DejaVuSans-64" x="1062.402344"/>
     </g>
    </g>
    <g id="patch_8">
     <path d="M 270.512969 46.398247 
L 290.512969 46.398247 
L 290.512969 39.398247 
L 270.512969 39.398247 
z
" style="fill: #aeaeae"/>
    </g>
    <g id="text_17">
     <!-- Conserved unknown -->
     <g transform="translate(298.512969 46.398247) scale(0.1 -0.1)">
      <defs>
       <path id="DejaVuSans-43" d="M 4122 4306 
L 4122 3641 
Q 3803 3938 3442 4084 
Q 3081 4231 2675 4231 
Q 1875 4231 1450 3742 
Q 1025 3253 1025 2328 
Q 1025 1406 1450 917 
Q 1875 428 2675 428 
Q 3081 428 3442 575 
Q 3803 722 4122 1019 
L 4122 359 
Q 3791 134 3420 21 
Q 3050 -91 2638 -91 
Q 1578 -91 968 557 
Q 359 1206 359 2328 
Q 359 3453 968 4101 
Q 1578 4750 2638 4750 
Q 3056 4750 3426 4639 
Q 3797 4528 4122 4306 
z
" transform="scale(0.015625)"/>
       <path id="DejaVuSans-76" d="M 191 3500 
L 800 3500 
L 1894 563 
L 2988 3500 
L 3597 3500 
L 2284 0 
L 1503 0 
L 191 3500 
z
" transform="scale(0.015625)"/>
       <path id="DejaVuSans-6b" d="M 581 4863 
L 1159 4863 
L 1159 1991 
L 2875 3500 
L 3609 3500 
L 1753 1863 
L 3688 0 
L 2938 0 
L 1159 1709 
L 1159 0 
L 581 0 
L 581 4863 
z
" transform="scale(0.015625)"/>
       <path id="DejaVuSans-77" d="M 269 3500 
L 844 3500 
L 1563 769 
L 2278 3500 
L 2956 3500 
L 3675 769 
L 4391 3500 
L 4966 3500 
L 4050 0 
L 3372 0 
L 2619 2869 
L 1863 0 
L 1184 0 
L 269 3500 
z
" transform="scale(0.015625)"/>
      </defs>
      <use xlink:href="#DejaVuSans-43"/>
      <use xlink:href="#DejaVuSans-6f" x="69.824219"/>
      <use xlink:href="#DejaVuSans-6e" x="131.005859"/>
      <use xlink:href="#DejaVuSans-73" x="194.384766"/>
      <use xlink:href="#DejaVuSans-65" x="246.484375"/>
      <use xlink:href="#DejaVuSans-72" x="308.007812"/>
      <use xlink:href="#DejaVuSans-76" x="349.121094"/>
      <use xlink:href="#DejaVuSans-65" x="408.300781"/>
      <use xlink:href="#DejaVuSans-64" x="469.824219"/>
      <use xlink:href="#DejaVuSans-20" x="533.300781"/>
      <use xlink:href="#DejaVuSans-75" x="565.087891"/>
      <use xlink:href="#DejaVuSans-6e" x="628.466797"/>
      <use xlink:href="#DejaVuSans-6b" x="691.845703"/>
      <use xlink:href="#DejaVuSans-6e" x="749.755859"/>
      <use xlink:href="#DejaVuSans-6f" x="813.134766"/>
      <use xlink:href="#DejaVuSans-77" x="874.316406"/>
      <use xlink:href="#DejaVuSans-6e" x="956.103516"/>
     </g>
    </g>
    <g id="patch_9">
     <path d="M 270.512969 61.076372 
L 290.512969 61.076372 
L 290.512969 54.076372 
L 270.512969 54.076372 
z
" style="fill: #d5dce5"/>
    </g>
    <g id="text_18">
     <!-- Fission yeast unknown -->
     <g transform="translate(298.512969 61.076372) scale(0.1 -0.1)">
      <defs>
       <path id="DejaVuSans-46" d="M 628 4666 
L 3309 4666 
L 3309 4134 
L 1259 4134 
L 1259 2759 
L 3109 2759 
L 3109 2228 
L 1259 2228 
L 1259 0 
L 628 0 
L 628 4666 
z
" transform="scale(0.015625)"/>
       <path id="DejaVuSans-79" d="M 2059 -325 
Q 1816 -950 1584 -1140 
Q 1353 -1331 966 -1331 
L 506 -1331 
L 506 -850 
L 844 -850 
Q 1081 -850 1212 -737 
Q 1344 -625 1503 -206 
L 1606 56 
L 191 3500 
L 800 3500 
L 1894 763 
L 2988 3500 
L 3597 3500 
L 2059 -325 
z
" transform="scale(0.015625)"/>
      </defs>
      <use xlink:href="#DejaVuSans-46"/>
      <use xlink:href="#DejaVuSans-69" x="50.269531"/>
      <use xlink:href="#DejaVuSans-73" x="78.052734"/>
      <use xlink:href="#DejaVuSans-73" x="130.152344"/>
      <use xlink:href="#DejaVuSans-69" x="182.251953"/>
      <use xlink:href="#DejaVuSans-6f" x="210.035156"/>
      <use xlink:href="#DejaVuSans-6e" x="271.216797"/>
      <use xlink:href="#DejaVuSans-20" x="334.595703"/>
      <use xlink:href="#DejaVuSans-79" x="366.382812"/>
      <use xlink:href="#DejaVuSans-65" x="425.5625"/>
      <use xlink:href="#DejaVuSans-61" x="487.085938"/>
      <use xlink:href="#DejaVuSans-73" x="548.365234"/>
      <use xlink:href="#DejaVuSans-74" x="600.464844"/>
      <use xlink:href="#DejaVuSans-20" x="639.673828"/>
      <use xlink:href="#DejaVuSans-75" x="671.460938"/>
      <use xlink:href="#DejaVuSans-6e" x="734.839844"/>
      <use xlink:href="#DejaVuSans-6b" x="798.21875"/>
      <use xlink:href="#DejaVuSans-6e" x="856.128906"/>
      <use xlink:href="#DejaVuSans-6f" x="919.507812"/>
      <use xlink:href="#DejaVuSans-77" x="980.689453"/>
      <use xlink:href="#DejaVuSans-6e" x="1062.476562"/>
     </g>
    </g>
   </g>
  </g>
 </g>
 <defs>
  <clipPath id="pcbfda0a56f">
   <rect x="61.49" y="72.156059" width="388.51" height="201.287882"/>
  </clipPath>
 </defs>
</svg>
