<?xml version="1.0" encoding="utf-8" standalone="no"?>
<!DOCTYPE svg PUBLIC "-//W3C//DTD SVG 1.1//EN"
  "http://www.w3.org/Graphics/SVG/1.1/DTD/svg11.dtd">
<svg xmlns:xlink="http://www.w3.org/1999/xlink" width="460.8pt" height="345.6pt" viewBox="0 0 460.8 345.6" xmlns="http://www.w3.org/2000/svg" version="1.1">
 <metadata>
  <rdf:RDF xmlns:dc="http://purl.org/dc/elements/1.1/" xmlns:cc="http://creativecommons.org/ns#" xmlns:rdf="http://www.w3.org/1999/02/22-rdf-syntax-ns#">
   <cc:Work>
    <dc:type rdf:resource="http://purl.org/dc/dcmitype/StillImage"/>
    <dc:date>2024-06-03T16:13:41.664358</dc:date>
    <dc:format>image/svg+xml</dc:format>
    <dc:creator>
     <cc:Agent>
      <dc:title>Matplotlib v3.7.1, https://matplotlib.org/</dc:title>
     </cc:Agent>
    </dc:creator>
   </cc:Work>
  </rdf:RDF>
 </metadata>
 <defs>
  <style type="text/css">*{stroke-linejoin: round; stroke-linecap: butt}</style>
 </defs>
 <g id="figure_1">
  <g id="patch_1">
   <path d="M 0 345.6 
L 460.8 345.6 
L 460.8 0 
L 0 0 
z
" style="fill: #ffffff"/>
  </g>
  <g id="axes_1">
   <g id="patch_2">
    <path d="M 61.49 280.45113 
L 444.567533 280.45113 
L 444.567533 67.82887 
L 61.49 67.82887 
z
" style="fill: #ffffff"/>
   </g>
   <g id="PolyCollection_1">
    <path d="M 31.285138 226.491766 
L 31.285138 280.45113 
L 39.722529 280.45113 
L 48.06007 280.45113 
L 65.184479 280.45113 
L 85.054785 280.45113 
L 99.682925 280.45113 
L 108.769346 280.45113 
L 111.11584 280.45113 
L 115.459349 280.45113 
L 117.456364 280.45113 
L 117.705991 280.45113 
L 121.001067 280.45113 
L 121.849799 280.45113 
L 122.548754 280.45113 
L 123.397486 280.45113 
L 123.946665 280.45113 
L 124.795397 280.45113 
L 125.294651 280.45113 
L 126.193308 280.45113 
L 127.391517 280.45113 
L 128.3401 280.45113 
L 128.689578 280.45113 
L 129.688085 280.45113 
L 130.387041 280.45113 
L 131.135922 280.45113 
L 131.934728 280.45113 
L 132.483907 280.45113 
L 132.983161 280.45113 
L 134.381072 280.45113 
L 135.37958 280.45113 
L 136.128461 280.45113 
L 136.328163 280.45113 
L 137.027118 280.45113 
L 138.075551 280.45113 
L 139.17391 280.45113 
L 139.922791 280.45113 
L 141.021149 280.45113 
L 142.468986 280.45113 
L 144.466002 280.45113 
L 146.21339 280.45113 
L 147.711152 280.45113 
L 150.506974 280.45113 
L 151.705183 280.45113 
L 154.950334 280.45113 
L 157.0472 280.45113 
L 158.345261 280.45113 
L 159.144067 280.45113 
L 162.289366 280.45113 
L 164.036755 280.45113 
L 165.834069 280.45113 
L 169.378772 280.45113 
L 172.673848 280.45113 
L 173.223027 280.45113 
L 173.872057 280.45113 
L 174.870565 280.45113 
L 175.669372 280.45113 
L 178.115716 280.45113 
L 183.008404 280.45113 
L 183.956987 280.45113 
L 188.550123 280.45113 
L 189.598556 280.45113 
L 190.646989 280.45113 
L 192.344452 280.45113 
L 193.742363 280.45113 
L 195.090349 280.45113 
L 195.939081 280.45113 
L 198.684977 280.45113 
L 201.530725 280.45113 
L 202.928636 280.45113 
L 203.927143 280.45113 
L 205.175278 280.45113 
L 206.223711 280.45113 
L 207.471846 280.45113 
L 210.417444 280.45113 
L 211.965132 280.45113 
L 213.462893 280.45113 
L 215.01058 280.45113 
L 216.508342 280.45113 
L 218.056029 280.45113 
L 219.603717 280.45113 
L 221.051553 280.45113 
L 222.59924 280.45113 
L 224.097002 280.45113 
L 225.644689 280.45113 
L 227.142451 280.45113 
L 228.690138 280.45113 
L 230.237825 280.45113 
L 231.735587 280.45113 
L 233.283274 280.45113 
L 234.781036 280.45113 
L 236.328723 280.45113 
L 237.87641 280.45113 
L 239.274321 280.45113 
L 240.822008 280.45113 
L 242.31977 280.45113 
L 243.867457 280.45113 
L 245.365219 280.45113 
L 246.912906 280.45113 
L 248.460593 280.45113 
L 249.958355 280.45113 
L 251.506042 280.45113 
L 253.003804 280.45113 
L 254.551491 280.45113 
L 256.099178 280.45113 
L 257.497089 280.45113 
L 259.044776 280.45113 
L 260.542538 280.45113 
L 262.090225 280.45113 
L 263.587987 280.45113 
L 265.135674 280.45113 
L 266.683361 280.45113 
L 268.181123 280.45113 
L 269.72881 280.45113 
L 271.226572 280.45113 
L 272.774259 280.45113 
L 274.321946 280.45113 
L 275.719857 280.45113 
L 277.267544 280.45113 
L 278.765306 280.45113 
L 280.312993 280.45113 
L 281.810755 280.45113 
L 283.358442 280.45113 
L 284.906129 280.45113 
L 286.403891 280.45113 
L 287.951578 280.45113 
L 289.44934 280.45113 
L 290.997027 280.45113 
L 292.544714 280.45113 
L 293.992551 280.45113 
L 295.540238 280.45113 
L 297.038 280.45113 
L 298.585687 280.45113 
L 300.083448 280.45113 
L 301.631136 280.45113 
L 303.178823 280.45113 
L 304.676584 280.45113 
L 306.224272 280.45113 
L 307.722033 280.45113 
L 309.269721 280.45113 
L 310.817408 280.45113 
L 312.215319 280.45113 
L 313.763006 280.45113 
L 315.260768 280.45113 
L 316.808455 280.45113 
L 318.306217 280.45113 
L 319.853904 280.45113 
L 321.401591 280.45113 
L 322.899353 280.45113 
L 324.44704 280.45113 
L 325.944801 280.45113 
L 327.492489 280.45113 
L 329.040176 280.45113 
L 330.438087 280.45113 
L 331.985774 280.45113 
L 333.483536 280.45113 
L 335.031223 280.45113 
L 336.528985 280.45113 
L 338.076672 280.45113 
L 339.624359 280.45113 
L 341.122121 280.45113 
L 342.669808 280.45113 
L 344.16757 280.45113 
L 345.715257 280.45113 
L 347.262944 280.45113 
L 348.660855 280.45113 
L 350.208542 280.45113 
L 351.706304 280.45113 
L 353.253991 280.45113 
L 354.751753 280.45113 
L 356.29944 280.45113 
L 357.847127 280.45113 
L 359.344889 280.45113 
L 360.892576 280.45113 
L 362.390338 280.45113 
L 363.938025 280.45113 
L 365.485712 280.45113 
L 366.933548 280.45113 
L 368.481235 280.45113 
L 369.978997 280.45113 
L 371.526684 280.45113 
L 373.024446 280.45113 
L 374.572133 280.45113 
L 376.11982 280.45113 
L 377.617582 280.45113 
L 379.165269 280.45113 
L 380.663031 280.45113 
L 382.210718 280.45113 
L 383.758405 280.45113 
L 385.156316 280.45113 
L 386.704004 280.45113 
L 388.201765 280.45113 
L 389.749452 280.45113 
L 391.247214 280.45113 
L 392.794901 280.45113 
L 394.342589 280.45113 
L 395.84035 280.45113 
L 397.388037 280.45113 
L 398.885799 280.45113 
L 400.433486 280.45113 
L 401.981174 280.45113 
L 403.379084 280.45113 
L 404.926772 280.45113 
L 406.424533 280.45113 
L 407.972221 280.45113 
L 409.469982 280.45113 
L 411.017669 280.45113 
L 412.565357 280.45113 
L 414.063118 280.45113 
L 415.610806 280.45113 
L 417.108567 280.45113 
L 418.656254 280.45113 
L 420.203942 280.45113 
L 421.601853 280.45113 
L 423.14954 280.45113 
L 424.647301 280.45113 
L 426.194989 280.45113 
L 427.69275 280.45113 
L 429.240438 280.45113 
L 430.788125 280.45113 
L 432.285886 280.45113 
L 433.833574 280.45113 
L 435.331335 280.45113 
L 436.879023 280.45113 
L 438.42671 280.45113 
L 439.874546 280.45113 
L 441.422233 280.45113 
L 442.919995 280.45113 
L 444.467682 280.45113 
L 444.467682 177.045658 
L 444.467682 177.045658 
L 442.919995 177.165479 
L 441.422233 177.2853 
L 439.874546 177.36518 
L 438.42671 179.082614 
L 436.879023 179.202435 
L 435.331335 179.242375 
L 433.833574 179.482017 
L 432.285886 179.601838 
L 430.788125 179.641778 
L 429.240438 179.761599 
L 427.69275 180.240883 
L 426.194989 180.480525 
L 424.647301 180.600346 
L 423.14954 180.600346 
L 421.601853 180.959809 
L 420.203942 181.558913 
L 418.656254 181.518973 
L 417.108567 181.638794 
L 415.610806 181.758615 
L 414.063118 181.998257 
L 412.565357 181.998257 
L 411.017669 182.038197 
L 409.469982 182.038197 
L 407.972221 181.998257 
L 406.424533 182.078137 
L 404.926772 181.998257 
L 403.379084 181.958316 
L 401.981174 181.998257 
L 400.433486 181.998257 
L 398.885799 182.197958 
L 397.388037 182.39766 
L 395.84035 182.717182 
L 394.342589 182.956824 
L 392.794901 182.916884 
L 391.247214 183.116585 
L 389.749452 183.396168 
L 388.201765 183.396168 
L 386.704004 183.555929 
L 385.156316 184.075153 
L 383.758405 184.194974 
L 382.210718 184.634317 
L 380.663031 184.674258 
L 379.165269 184.834019 
L 377.617582 184.9139 
L 376.11982 185.073661 
L 374.572133 185.113601 
L 373.024446 185.193482 
L 371.526684 185.193482 
L 369.978997 185.273362 
L 368.481235 185.632825 
L 366.933548 185.752646 
L 365.485712 185.832527 
L 363.938025 185.912407 
L 362.390338 185.912407 
L 360.892576 185.912407 
L 359.344889 186.032228 
L 357.847127 186.112109 
L 356.29944 186.27187 
L 354.751753 186.511512 
L 353.253991 186.631333 
L 351.706304 186.711214 
L 350.208542 186.791094 
L 348.660855 186.831035 
L 347.262944 186.831035 
L 345.715257 186.870975 
L 344.16757 186.910915 
L 342.669808 186.990796 
L 341.122121 187.030736 
L 339.624359 187.030736 
L 338.076672 187.150557 
L 336.528985 187.270378 
L 335.031223 187.51002 
L 333.483536 187.669781 
L 331.985774 187.989304 
L 330.438087 188.149065 
L 329.040176 188.308826 
L 327.492489 188.348767 
L 325.944801 188.508528 
L 324.44704 188.668289 
L 322.899353 190.425663 
L 321.401591 190.705245 
L 319.853904 191.464111 
L 318.306217 190.825066 
L 316.808455 190.745185 
L 315.260768 190.785126 
L 313.763006 190.865006 
L 312.215319 191.144589 
L 310.817408 191.184529 
L 309.269721 191.264409 
L 307.722033 192.023275 
L 306.224272 192.143096 
L 304.676584 192.342798 
L 303.178823 192.422679 
L 301.631136 192.542499 
L 300.083448 192.981843 
L 298.585687 193.181545 
L 297.038 193.181545 
L 295.540238 193.580948 
L 293.992551 193.660828 
L 292.544714 193.700769 
L 290.997027 193.90047 
L 289.44934 193.980351 
L 287.951578 193.980351 
L 286.403891 194.180052 
L 284.906129 194.219993 
L 283.358442 194.259933 
L 281.810755 194.419694 
L 280.312993 194.539515 
L 278.765306 193.94041 
L 277.267544 194.020291 
L 275.719857 194.219993 
L 274.321946 194.219993 
L 272.774259 194.459635 
L 271.226572 194.619396 
L 269.72881 194.898978 
L 268.181123 195.258441 
L 266.683361 195.577963 
L 265.135674 195.657844 
L 263.587987 195.937426 
L 262.090225 196.177068 
L 260.542538 196.536531 
L 259.044776 196.696292 
L 257.497089 196.895994 
L 256.099178 196.935934 
L 254.551491 196.935934 
L 253.003804 197.135636 
L 251.506042 197.614919 
L 249.958355 197.65486 
L 248.460593 197.894502 
L 246.912906 198.573487 
L 245.365219 198.653367 
L 243.867457 199.132651 
L 242.31977 199.452174 
L 240.822008 200.530562 
L 239.274321 200.610443 
L 237.87641 200.730264 
L 236.328723 201.009846 
L 234.781036 201.089727 
L 233.283274 201.329368 
L 231.735587 201.52907 
L 230.237825 201.888533 
L 228.690138 202.088234 
L 227.142451 202.208055 
L 225.644689 202.447697 
L 224.097002 202.487638 
L 222.59924 202.607459 
L 221.051553 202.76722 
L 219.603717 202.76722 
L 218.056029 202.8471 
L 216.508342 202.887041 
L 215.01058 202.926981 
L 213.462893 202.966921 
L 211.965132 203.006862 
L 210.417444 203.126683 
L 207.471846 203.885549 
L 206.223711 204.08525 
L 205.175278 204.12519 
L 203.927143 204.00537 
L 202.928636 204.00537 
L 201.530725 204.12519 
L 198.684977 204.245011 
L 195.939081 204.884056 
L 195.090349 205.842624 
L 193.742363 205.682863 
L 192.344452 205.642922 
L 190.646989 206.361848 
L 189.598556 206.361848 
L 188.550123 206.122206 
L 183.956987 206.64143 
L 183.008404 206.721311 
L 178.115716 207.400296 
L 175.669372 207.480177 
L 174.870565 207.320416 
L 173.872057 207.440236 
L 173.223027 207.639938 
L 172.673848 207.679878 
L 169.378772 207.799699 
L 165.834069 207.87958 
L 164.036755 208.079281 
L 162.289366 210.196118 
L 159.144067 210.116237 
L 158.345261 210.156178 
L 157.0472 210.595521 
L 154.950334 211.71385 
L 151.705183 211.953492 
L 150.506974 212.352895 
L 147.711152 212.632477 
L 146.21339 213.471224 
L 144.466002 214.030388 
L 142.468986 214.469732 
L 141.021149 214.509672 
L 139.922791 214.589553 
L 139.17391 214.629493 
L 138.075551 214.669433 
L 137.027118 215.388359 
L 136.328163 215.747822 
L 136.128461 215.747822 
L 135.37958 215.747822 
L 134.381072 215.987464 
L 132.983161 215.747822 
L 132.483907 215.947523 
L 131.934728 216.027404 
L 131.135922 216.147225 
L 130.387041 216.147225 
L 129.688085 216.466747 
L 128.689578 217.185673 
L 128.3401 217.145733 
L 127.391517 217.505196 
L 126.193308 217.585076 
L 125.294651 217.664957 
L 124.795397 217.744837 
L 123.946665 217.864658 
L 123.397486 218.1043 
L 122.548754 218.304002 
L 121.849799 218.224121 
L 121.001067 218.304002 
L 117.705991 218.583584 
L 117.456364 218.543644 
L 115.459349 218.863166 
L 111.11584 216.946031 
L 108.769346 219.781793 
L 99.682925 223.496243 
L 85.054785 226.97105 
L 65.184479 231.444365 
L 48.06007 226.292064 
L 39.722529 225.653019 
L 31.285138 226.491766 
z
" clip-path="url(#p1d42e30b57)" style="fill: #fb363b"/>
   </g>
   <g id="PolyCollection_2">
    <path d="M 31.285138 144.374481 
L 31.285138 226.491766 
L 39.722529 225.653019 
L 48.06007 226.292064 
L 65.184479 231.444365 
L 85.054785 226.97105 
L 99.682925 223.496243 
L 108.769346 219.781793 
L 111.11584 216.946031 
L 115.459349 218.863166 
L 117.456364 218.543644 
L 117.705991 218.583584 
L 121.001067 218.304002 
L 121.849799 218.224121 
L 122.548754 218.304002 
L 123.397486 218.1043 
L 123.946665 217.864658 
L 124.795397 217.744837 
L 125.294651 217.664957 
L 126.193308 217.585076 
L 127.391517 217.505196 
L 128.3401 217.145733 
L 128.689578 217.185673 
L 129.688085 216.466747 
L 130.387041 216.147225 
L 131.135922 216.147225 
L 131.934728 216.027404 
L 132.483907 215.947523 
L 132.983161 215.747822 
L 134.381072 215.987464 
L 135.37958 215.747822 
L 136.128461 215.747822 
L 136.328163 215.747822 
L 137.027118 215.388359 
L 138.075551 214.669433 
L 139.17391 214.629493 
L 139.922791 214.589553 
L 141.021149 214.509672 
L 142.468986 214.469732 
L 144.466002 214.030388 
L 146.21339 213.471224 
L 147.711152 212.632477 
L 150.506974 212.352895 
L 151.705183 211.953492 
L 154.950334 211.71385 
L 157.0472 210.595521 
L 158.345261 210.156178 
L 159.144067 210.116237 
L 162.289366 210.196118 
L 164.036755 208.079281 
L 165.834069 207.87958 
L 169.378772 207.799699 
L 172.673848 207.679878 
L 173.223027 207.639938 
L 173.872057 207.440236 
L 174.870565 207.320416 
L 175.669372 207.480177 
L 178.115716 207.400296 
L 183.008404 206.721311 
L 183.956987 206.64143 
L 188.550123 206.122206 
L 189.598556 206.361848 
L 190.646989 206.361848 
L 192.344452 205.642922 
L 193.742363 205.682863 
L 195.090349 205.842624 
L 195.939081 204.884056 
L 198.684977 204.245011 
L 201.530725 204.12519 
L 202.928636 204.00537 
L 203.927143 204.00537 
L 205.175278 204.12519 
L 206.223711 204.08525 
L 207.471846 203.885549 
L 210.417444 203.126683 
L 211.965132 203.006862 
L 213.462893 202.966921 
L 215.01058 202.926981 
L 216.508342 202.887041 
L 218.056029 202.8471 
L 219.603717 202.76722 
L 221.051553 202.76722 
L 222.59924 202.607459 
L 224.097002 202.487638 
L 225.644689 202.447697 
L 227.142451 202.208055 
L 228.690138 202.088234 
L 230.237825 201.888533 
L 231.735587 201.52907 
L 233.283274 201.329368 
L 234.781036 201.089727 
L 236.328723 201.009846 
L 237.87641 200.730264 
L 239.274321 200.610443 
L 240.822008 200.530562 
L 242.31977 199.452174 
L 243.867457 199.132651 
L 245.365219 198.653367 
L 246.912906 198.573487 
L 248.460593 197.894502 
L 249.958355 197.65486 
L 251.506042 197.614919 
L 253.003804 197.135636 
L 254.551491 196.935934 
L 256.099178 196.935934 
L 257.497089 196.895994 
L 259.044776 196.696292 
L 260.542538 196.536531 
L 262.090225 196.177068 
L 263.587987 195.937426 
L 265.135674 195.657844 
L 266.683361 195.577963 
L 268.181123 195.258441 
L 269.72881 194.898978 
L 271.226572 194.619396 
L 272.774259 194.459635 
L 274.321946 194.219993 
L 275.719857 194.219993 
L 277.267544 194.020291 
L 278.765306 193.94041 
L 280.312993 194.539515 
L 281.810755 194.419694 
L 283.358442 194.259933 
L 284.906129 194.219993 
L 286.403891 194.180052 
L 287.951578 193.980351 
L 289.44934 193.980351 
L 290.997027 193.90047 
L 292.544714 193.700769 
L 293.992551 193.660828 
L 295.540238 193.580948 
L 297.038 193.181545 
L 298.585687 193.181545 
L 300.083448 192.981843 
L 301.631136 192.542499 
L 303.178823 192.422679 
L 304.676584 192.342798 
L 306.224272 192.143096 
L 307.722033 192.023275 
L 309.269721 191.264409 
L 310.817408 191.184529 
L 312.215319 191.144589 
L 313.763006 190.865006 
L 315.260768 190.785126 
L 316.808455 190.745185 
L 318.306217 190.825066 
L 319.853904 191.464111 
L 321.401591 190.705245 
L 322.899353 190.425663 
L 324.44704 188.668289 
L 325.944801 188.508528 
L 327.492489 188.348767 
L 329.040176 188.308826 
L 330.438087 188.149065 
L 331.985774 187.989304 
L 333.483536 187.669781 
L 335.031223 187.51002 
L 336.528985 187.270378 
L 338.076672 187.150557 
L 339.624359 187.030736 
L 341.122121 187.030736 
L 342.669808 186.990796 
L 344.16757 186.910915 
L 345.715257 186.870975 
L 347.262944 186.831035 
L 348.660855 186.831035 
L 350.208542 186.791094 
L 351.706304 186.711214 
L 353.253991 186.631333 
L 354.751753 186.511512 
L 356.29944 186.27187 
L 357.847127 186.112109 
L 359.344889 186.032228 
L 360.892576 185.912407 
L 362.390338 185.912407 
L 363.938025 185.912407 
L 365.485712 185.832527 
L 366.933548 185.752646 
L 368.481235 185.632825 
L 369.978997 185.273362 
L 371.526684 185.193482 
L 373.024446 185.193482 
L 374.572133 185.113601 
L 376.11982 185.073661 
L 377.617582 184.9139 
L 379.165269 184.834019 
L 380.663031 184.674258 
L 382.210718 184.634317 
L 383.758405 184.194974 
L 385.156316 184.075153 
L 386.704004 183.555929 
L 388.201765 183.396168 
L 389.749452 183.396168 
L 391.247214 183.116585 
L 392.794901 182.916884 
L 394.342589 182.956824 
L 395.84035 182.717182 
L 397.388037 182.39766 
L 398.885799 182.197958 
L 400.433486 181.998257 
L 401.981174 181.998257 
L 403.379084 181.958316 
L 404.926772 181.998257 
L 406.424533 182.078137 
L 407.972221 181.998257 
L 409.469982 182.038197 
L 411.017669 182.038197 
L 412.565357 181.998257 
L 414.063118 181.998257 
L 415.610806 181.758615 
L 417.108567 181.638794 
L 418.656254 181.518973 
L 420.203942 181.558913 
L 421.601853 180.959809 
L 423.14954 180.600346 
L 424.647301 180.600346 
L 426.194989 180.480525 
L 427.69275 180.240883 
L 429.240438 179.761599 
L 430.788125 179.641778 
L 432.285886 179.601838 
L 433.833574 179.482017 
L 435.331335 179.242375 
L 436.879023 179.202435 
L 438.42671 179.082614 
L 439.874546 177.36518 
L 441.422233 177.2853 
L 442.919995 177.165479 
L 444.467682 177.045658 
L 444.467682 102.317331 
L 444.467682 102.317331 
L 442.919995 102.477092 
L 441.422233 102.556973 
L 439.874546 102.517033 
L 438.42671 102.796615 
L 436.879023 103.076197 
L 435.331335 103.076197 
L 433.833574 103.196018 
L 432.285886 103.355779 
L 430.788125 103.43566 
L 429.240438 103.43566 
L 427.69275 103.715242 
L 426.194989 103.954884 
L 424.647301 104.074705 
L 423.14954 104.074705 
L 421.601853 104.114645 
L 420.203942 104.274406 
L 418.656254 104.394227 
L 417.108567 104.474108 
L 415.610806 104.474108 
L 414.063118 104.514048 
L 412.565357 104.394227 
L 411.017669 104.434168 
L 409.469982 104.434168 
L 407.972221 104.633869 
L 406.424533 104.593929 
L 404.926772 104.593929 
L 403.379084 104.633869 
L 401.981174 104.71375 
L 400.433486 104.71375 
L 398.885799 104.833571 
L 397.388037 104.79363 
L 395.84035 104.913451 
L 394.342589 104.953392 
L 392.794901 104.993332 
L 391.247214 105.033272 
L 389.749452 105.073213 
L 388.201765 105.033272 
L 386.704004 105.153093 
L 385.156316 105.352795 
L 383.758405 105.512556 
L 382.210718 105.552496 
L 380.663031 105.552496 
L 379.165269 105.632377 
L 377.617582 105.672317 
L 376.11982 105.752198 
L 374.572133 105.752198 
L 373.024446 105.792138 
L 371.526684 105.832079 
L 369.978997 105.712258 
L 368.481235 105.672317 
L 366.933548 105.712258 
L 365.485712 105.632377 
L 363.938025 105.632377 
L 362.390338 105.632377 
L 360.892576 105.632377 
L 359.344889 105.632377 
L 357.847127 105.672317 
L 356.29944 105.632377 
L 354.751753 105.672317 
L 353.253991 105.672317 
L 351.706304 105.552496 
L 350.208542 105.552496 
L 348.660855 105.592437 
L 347.262944 105.592437 
L 345.715257 105.672317 
L 344.16757 105.672317 
L 342.669808 105.752198 
L 341.122121 105.752198 
L 339.624359 105.752198 
L 338.076672 105.792138 
L 336.528985 105.792138 
L 335.031223 105.792138 
L 333.483536 105.832079 
L 331.985774 105.872019 
L 330.438087 106.191541 
L 329.040176 106.311362 
L 327.492489 106.231482 
L 325.944801 106.311362 
L 324.44704 106.431183 
L 322.899353 106.471124 
L 321.401591 107.030288 
L 319.853904 107.349811 
L 318.306217 109.546528 
L 316.808455 110.784678 
L 315.260768 111.224021 
L 313.763006 111.224021 
L 312.215319 111.543543 
L 310.817408 111.463663 
L 309.269721 110.664857 
L 307.722033 110.864558 
L 306.224272 111.303902 
L 304.676584 111.303902 
L 303.178823 111.184081 
L 301.631136 111.343842 
L 300.083448 111.383782 
L 298.585687 111.383782 
L 297.038 111.423723 
L 295.540238 111.503603 
L 293.992551 111.503603 
L 292.544714 111.543543 
L 290.997027 111.543543 
L 289.44934 111.663364 
L 287.951578 111.703305 
L 286.403891 111.743245 
L 284.906129 111.743245 
L 283.358442 111.703305 
L 281.810755 111.743245 
L 280.312993 111.703305 
L 278.765306 112.34235 
L 277.267544 112.302409 
L 275.719857 112.38229 
L 274.321946 112.462171 
L 272.774259 112.581992 
L 271.226572 112.542051 
L 269.72881 112.821634 
L 268.181123 112.941454 
L 266.683361 113.101216 
L 265.135674 113.300917 
L 263.587987 113.340858 
L 262.090225 113.260977 
L 260.542538 113.340858 
L 259.044776 113.380798 
L 257.497089 113.380798 
L 256.099178 113.380798 
L 254.551491 113.380798 
L 253.003804 113.540559 
L 251.506042 113.62044 
L 249.958355 113.860082 
L 248.460593 113.900022 
L 246.912906 114.139664 
L 245.365219 114.219545 
L 243.867457 114.459186 
L 242.31977 114.579007 
L 240.822008 114.738769 
L 239.274321 114.778709 
L 237.87641 114.818649 
L 236.328723 114.97841 
L 234.781036 114.97841 
L 233.283274 115.178112 
L 231.735587 115.457694 
L 230.237825 115.617455 
L 228.690138 115.777217 
L 227.142451 115.976918 
L 225.644689 116.056799 
L 224.097002 116.376321 
L 222.59924 116.376321 
L 221.051553 116.416262 
L 219.603717 116.416262 
L 218.056029 116.416262 
L 216.508342 116.416262 
L 215.01058 116.416262 
L 213.462893 116.456202 
L 211.965132 116.615963 
L 210.417444 116.695844 
L 207.471846 117.175128 
L 206.223711 117.774232 
L 205.175278 118.053815 
L 203.927143 117.49465 
L 202.928636 117.814173 
L 201.530725 117.933994 
L 198.684977 118.093755 
L 195.939081 118.093755 
L 195.090349 118.253516 
L 193.742363 118.77274 
L 192.344452 118.7328 
L 190.646989 119.651427 
L 189.598556 119.651427 
L 188.550123 120.090771 
L 183.956987 120.370353 
L 183.008404 120.450233 
L 178.115716 121.568562 
L 175.669372 122.56707 
L 174.870565 122.60701 
L 173.872057 122.60701 
L 173.223027 122.60701 
L 172.673848 122.646951 
L 169.378772 122.207607 
L 165.834069 122.726831 
L 164.036755 122.926533 
L 162.289366 123.126234 
L 159.144067 123.246055 
L 158.345261 123.325936 
L 157.0472 123.525638 
L 154.950334 123.84516 
L 151.705183 123.685399 
L 150.506974 124.004921 
L 147.711152 123.964981 
L 146.21339 123.8851 
L 144.466002 124.244563 
L 142.468986 124.164683 
L 141.021149 124.044862 
L 139.922791 124.324444 
L 139.17391 124.364384 
L 138.075551 123.605518 
L 137.027118 123.645459 
L 136.328163 123.80522 
L 136.128461 123.80522 
L 135.37958 123.765279 
L 134.381072 124.284504 
L 132.983161 123.725339 
L 132.483907 123.725339 
L 131.934728 123.765279 
L 131.135922 123.80522 
L 130.387041 123.605518 
L 129.688085 124.044862 
L 128.689578 124.164683 
L 128.3401 123.925041 
L 127.391517 124.084802 
L 126.193308 124.044862 
L 125.294651 124.564086 
L 124.795397 124.484205 
L 123.946665 124.484205 
L 123.397486 122.686891 
L 122.548754 123.086294 
L 121.849799 122.087786 
L 121.001067 121.848144 
L 117.705991 122.127727 
L 117.456364 121.967965 
L 115.459349 122.247548 
L 111.11584 124.044862 
L 108.769346 124.923549 
L 99.682925 127.040385 
L 85.054785 130.075849 
L 65.184479 133.950059 
L 48.06007 140.140808 
L 39.722529 144.054959 
L 31.285138 144.374481 
z
" clip-path="url(#p1d42e30b57)" style="fill: #fdc92c"/>
   </g>
   <g id="PolyCollection_3">
    <path d="M 31.285138 112.901514 
L 31.285138 144.374481 
L 39.722529 144.054959 
L 48.06007 140.140808 
L 65.184479 133.950059 
L 85.054785 130.075849 
L 99.682925 127.040385 
L 108.769346 124.923549 
L 111.11584 124.044862 
L 115.459349 122.247548 
L 117.456364 121.967965 
L 117.705991 122.127727 
L 121.001067 121.848144 
L 121.849799 122.087786 
L 122.548754 123.086294 
L 123.397486 122.686891 
L 123.946665 124.484205 
L 124.795397 124.484205 
L 125.294651 124.564086 
L 126.193308 124.044862 
L 127.391517 124.084802 
L 128.3401 123.925041 
L 128.689578 124.164683 
L 129.688085 124.044862 
L 130.387041 123.605518 
L 131.135922 123.80522 
L 131.934728 123.765279 
L 132.483907 123.725339 
L 132.983161 123.725339 
L 134.381072 124.284504 
L 135.37958 123.765279 
L 136.128461 123.80522 
L 136.328163 123.80522 
L 137.027118 123.645459 
L 138.075551 123.605518 
L 139.17391 124.364384 
L 139.922791 124.324444 
L 141.021149 124.044862 
L 142.468986 124.164683 
L 144.466002 124.244563 
L 146.21339 123.8851 
L 147.711152 123.964981 
L 150.506974 124.004921 
L 151.705183 123.685399 
L 154.950334 123.84516 
L 157.0472 123.525638 
L 158.345261 123.325936 
L 159.144067 123.246055 
L 162.289366 123.126234 
L 164.036755 122.926533 
L 165.834069 122.726831 
L 169.378772 122.207607 
L 172.673848 122.646951 
L 173.223027 122.60701 
L 173.872057 122.60701 
L 174.870565 122.60701 
L 175.669372 122.56707 
L 178.115716 121.568562 
L 183.008404 120.450233 
L 183.956987 120.370353 
L 188.550123 120.090771 
L 189.598556 119.651427 
L 190.646989 119.651427 
L 192.344452 118.7328 
L 193.742363 118.77274 
L 195.090349 118.253516 
L 195.939081 118.093755 
L 198.684977 118.093755 
L 201.530725 117.933994 
L 202.928636 117.814173 
L 203.927143 117.49465 
L 205.175278 118.053815 
L 206.223711 117.774232 
L 207.471846 117.175128 
L 210.417444 116.695844 
L 211.965132 116.615963 
L 213.462893 116.456202 
L 215.01058 116.416262 
L 216.508342 116.416262 
L 218.056029 116.416262 
L 219.603717 116.416262 
L 221.051553 116.416262 
L 222.59924 116.376321 
L 224.097002 116.376321 
L 225.644689 116.056799 
L 227.142451 115.976918 
L 228.690138 115.777217 
L 230.237825 115.617455 
L 231.735587 115.457694 
L 233.283274 115.178112 
L 234.781036 114.97841 
L 236.328723 114.97841 
L 237.87641 114.818649 
L 239.274321 114.778709 
L 240.822008 114.738769 
L 242.31977 114.579007 
L 243.867457 114.459186 
L 245.365219 114.219545 
L 246.912906 114.139664 
L 248.460593 113.900022 
L 249.958355 113.860082 
L 251.506042 113.62044 
L 253.003804 113.540559 
L 254.551491 113.380798 
L 256.099178 113.380798 
L 257.497089 113.380798 
L 259.044776 113.380798 
L 260.542538 113.340858 
L 262.090225 113.260977 
L 263.587987 113.340858 
L 265.135674 113.300917 
L 266.683361 113.101216 
L 268.181123 112.941454 
L 269.72881 112.821634 
L 271.226572 112.542051 
L 272.774259 112.581992 
L 274.321946 112.462171 
L 275.719857 112.38229 
L 277.267544 112.302409 
L 278.765306 112.34235 
L 280.312993 111.703305 
L 281.810755 111.743245 
L 283.358442 111.703305 
L 284.906129 111.743245 
L 286.403891 111.743245 
L 287.951578 111.703305 
L 289.44934 111.663364 
L 290.997027 111.543543 
L 292.544714 111.543543 
L 293.992551 111.503603 
L 295.540238 111.503603 
L 297.038 111.423723 
L 298.585687 111.383782 
L 300.083448 111.383782 
L 301.631136 111.343842 
L 303.178823 111.184081 
L 304.676584 111.303902 
L 306.224272 111.303902 
L 307.722033 110.864558 
L 309.269721 110.664857 
L 310.817408 111.463663 
L 312.215319 111.543543 
L 313.763006 111.224021 
L 315.260768 111.224021 
L 316.808455 110.784678 
L 318.306217 109.546528 
L 319.853904 107.349811 
L 321.401591 107.030288 
L 322.899353 106.471124 
L 324.44704 106.431183 
L 325.944801 106.311362 
L 327.492489 106.231482 
L 329.040176 106.311362 
L 330.438087 106.191541 
L 331.985774 105.872019 
L 333.483536 105.832079 
L 335.031223 105.792138 
L 336.528985 105.792138 
L 338.076672 105.792138 
L 339.624359 105.752198 
L 341.122121 105.752198 
L 342.669808 105.752198 
L 344.16757 105.672317 
L 345.715257 105.672317 
L 347.262944 105.592437 
L 348.660855 105.592437 
L 350.208542 105.552496 
L 351.706304 105.552496 
L 353.253991 105.672317 
L 354.751753 105.672317 
L 356.29944 105.632377 
L 357.847127 105.672317 
L 359.344889 105.632377 
L 360.892576 105.632377 
L 362.390338 105.632377 
L 363.938025 105.632377 
L 365.485712 105.632377 
L 366.933548 105.712258 
L 368.481235 105.672317 
L 369.978997 105.712258 
L 371.526684 105.832079 
L 373.024446 105.792138 
L 374.572133 105.752198 
L 376.11982 105.752198 
L 377.617582 105.672317 
L 379.165269 105.632377 
L 380.663031 105.552496 
L 382.210718 105.552496 
L 383.758405 105.512556 
L 385.156316 105.352795 
L 386.704004 105.153093 
L 388.201765 105.033272 
L 389.749452 105.073213 
L 391.247214 105.033272 
L 392.794901 104.993332 
L 394.342589 104.953392 
L 395.84035 104.913451 
L 397.388037 104.79363 
L 398.885799 104.833571 
L 400.433486 104.71375 
L 401.981174 104.71375 
L 403.379084 104.633869 
L 404.926772 104.593929 
L 406.424533 104.593929 
L 407.972221 104.633869 
L 409.469982 104.434168 
L 411.017669 104.434168 
L 412.565357 104.394227 
L 414.063118 104.514048 
L 415.610806 104.474108 
L 417.108567 104.474108 
L 418.656254 104.394227 
L 420.203942 104.274406 
L 421.601853 104.114645 
L 423.14954 104.074705 
L 424.647301 104.074705 
L 426.194989 103.954884 
L 427.69275 103.715242 
L 429.240438 103.43566 
L 430.788125 103.43566 
L 432.285886 103.355779 
L 433.833574 103.196018 
L 435.331335 103.076197 
L 436.879023 103.076197 
L 438.42671 102.796615 
L 439.874546 102.517033 
L 441.422233 102.556973 
L 442.919995 102.477092 
L 444.467682 102.317331 
L 444.467682 88.777565 
L 444.467682 88.777565 
L 442.919995 88.817505 
L 441.422233 88.817505 
L 439.874546 88.817505 
L 438.42671 88.857445 
L 436.879023 88.857445 
L 435.331335 88.857445 
L 433.833574 88.897386 
L 432.285886 88.897386 
L 430.788125 88.897386 
L 429.240438 88.897386 
L 427.69275 88.977266 
L 426.194989 88.977266 
L 424.647301 88.977266 
L 423.14954 88.977266 
L 421.601853 88.977266 
L 420.203942 89.017207 
L 418.656254 89.017207 
L 417.108567 89.097087 
L 415.610806 89.097087 
L 414.063118 89.137028 
L 412.565357 89.137028 
L 411.017669 89.137028 
L 409.469982 89.137028 
L 407.972221 89.216908 
L 406.424533 89.296789 
L 404.926772 89.296789 
L 403.379084 89.296789 
L 401.981174 89.296789 
L 400.433486 89.296789 
L 398.885799 89.336729 
L 397.388037 89.296789 
L 395.84035 89.376669 
L 394.342589 89.376669 
L 392.794901 89.376669 
L 391.247214 89.41661 
L 389.749452 89.41661 
L 388.201765 89.41661 
L 386.704004 89.45655 
L 385.156316 89.49649 
L 383.758405 89.536431 
L 382.210718 89.536431 
L 380.663031 89.49649 
L 379.165269 89.49649 
L 377.617582 89.49649 
L 376.11982 89.45655 
L 374.572133 89.45655 
L 373.024446 89.49649 
L 371.526684 89.49649 
L 369.978997 89.41661 
L 368.481235 89.376669 
L 366.933548 89.376669 
L 365.485712 89.41661 
L 363.938025 89.41661 
L 362.390338 89.41661 
L 360.892576 89.41661 
L 359.344889 89.41661 
L 357.847127 89.41661 
L 356.29944 89.41661 
L 354.751753 89.41661 
L 353.253991 89.41661 
L 351.706304 89.336729 
L 350.208542 89.336729 
L 348.660855 89.336729 
L 347.262944 89.336729 
L 345.715257 89.296789 
L 344.16757 89.296789 
L 342.669808 89.376669 
L 341.122121 89.376669 
L 339.624359 89.376669 
L 338.076672 89.41661 
L 336.528985 89.41661 
L 335.031223 89.41661 
L 333.483536 89.45655 
L 331.985774 89.49649 
L 330.438087 89.576371 
L 329.040176 89.576371 
L 327.492489 89.576371 
L 325.944801 89.736132 
L 324.44704 89.736132 
L 322.899353 89.736132 
L 321.401591 89.616311 
L 319.853904 89.656252 
L 318.306217 89.855953 
L 316.808455 90.814521 
L 315.260768 90.974282 
L 313.763006 91.014222 
L 312.215319 91.054163 
L 310.817408 91.054163 
L 309.269721 91.054163 
L 307.722033 91.054163 
L 306.224272 91.094103 
L 304.676584 91.094103 
L 303.178823 91.134043 
L 301.631136 91.173984 
L 300.083448 91.213924 
L 298.585687 91.213924 
L 297.038 91.213924 
L 295.540238 91.213924 
L 293.992551 91.213924 
L 292.544714 91.253864 
L 290.997027 91.253864 
L 289.44934 91.293804 
L 287.951578 91.333745 
L 286.403891 91.333745 
L 284.906129 91.333745 
L 283.358442 91.333745 
L 281.810755 91.333745 
L 280.312993 91.333745 
L 278.765306 91.333745 
L 277.267544 91.333745 
L 275.719857 91.413625 
L 274.321946 91.413625 
L 272.774259 91.413625 
L 271.226572 91.453566 
L 269.72881 91.453566 
L 268.181123 91.493506 
L 266.683361 91.653267 
L 265.135674 92.611835 
L 263.587987 92.611835 
L 262.090225 92.611835 
L 260.542538 92.691715 
L 259.044776 92.691715 
L 257.497089 92.691715 
L 256.099178 92.691715 
L 254.551491 92.691715 
L 253.003804 92.691715 
L 251.506042 92.771596 
L 249.958355 92.691715 
L 248.460593 92.731656 
L 246.912906 92.811536 
L 245.365219 92.891417 
L 243.867457 93.091119 
L 242.31977 93.131059 
L 240.822008 93.131059 
L 239.274321 93.131059 
L 237.87641 93.131059 
L 236.328723 93.21094 
L 234.781036 93.21094 
L 233.283274 93.29082 
L 231.735587 93.29082 
L 230.237825 93.170999 
L 228.690138 93.25088 
L 227.142451 93.25088 
L 225.644689 93.25088 
L 224.097002 93.29082 
L 222.59924 93.29082 
L 221.051553 93.29082 
L 219.603717 93.33076 
L 218.056029 93.33076 
L 216.508342 93.370701 
L 215.01058 93.33076 
L 213.462893 93.33076 
L 211.965132 93.410641 
L 210.417444 93.450581 
L 207.471846 93.730164 
L 206.223711 94.329268 
L 205.175278 94.608851 
L 203.927143 93.969806 
L 202.928636 94.48903 
L 201.530725 94.52897 
L 198.684977 95.447597 
L 195.939081 95.447597 
L 195.090349 95.407657 
L 193.742363 95.567418 
L 192.344452 95.567418 
L 190.646989 95.647299 
L 189.598556 95.647299 
L 188.550123 95.687239 
L 183.956987 95.847 
L 183.008404 95.847 
L 178.115716 96.885448 
L 175.669372 97.005269 
L 174.870565 97.04521 
L 173.872057 97.165031 
L 173.223027 97.165031 
L 172.673848 97.165031 
L 169.378772 97.165031 
L 165.834069 97.404672 
L 164.036755 97.524493 
L 162.289366 97.564434 
L 159.144067 97.644314 
L 158.345261 97.764135 
L 157.0472 97.963837 
L 154.950334 98.203479 
L 151.705183 98.36324 
L 150.506974 99.002285 
L 147.711152 99.042225 
L 146.21339 99.321808 
L 144.466002 99.64133 
L 142.468986 99.721211 
L 141.021149 99.721211 
L 139.922791 99.721211 
L 139.17391 99.721211 
L 138.075551 99.880972 
L 137.027118 100.040733 
L 136.328163 100.160554 
L 136.128461 100.160554 
L 135.37958 100.120614 
L 134.381072 100.679778 
L 132.983161 100.200494 
L 132.483907 100.200494 
L 131.934728 100.280375 
L 131.135922 100.280375 
L 130.387041 100.280375 
L 129.688085 100.87948 
L 128.689578 100.87948 
L 128.3401 100.400196 
L 127.391517 100.999301 
L 126.193308 102.117629 
L 125.294651 103.036257 
L 124.795397 103.076197 
L 123.946665 103.076197 
L 123.397486 103.116137 
L 122.548754 103.715242 
L 121.849799 103.156078 
L 121.001067 103.156078 
L 117.705991 103.43566 
L 117.456364 103.4756 
L 115.459349 103.51554 
L 111.11584 100.87948 
L 108.769346 103.675302 
L 99.682925 105.592437 
L 85.054785 107.549512 
L 65.184479 108.907483 
L 48.06007 110.944439 
L 39.722529 113.340858 
L 31.285138 112.901514 
z
" clip-path="url(#p1d42e30b57)" style="fill: #aeaeae"/>
   </g>
   <g id="PolyCollection_4">
    <path d="M 31.285138 88.657744 
L 31.285138 112.901514 
L 39.722529 113.340858 
L 48.06007 110.944439 
L 65.184479 108.907483 
L 85.054785 107.549512 
L 99.682925 105.592437 
L 108.769346 103.675302 
L 111.11584 100.87948 
L 115.459349 103.51554 
L 117.456364 103.4756 
L 117.705991 103.43566 
L 121.001067 103.156078 
L 121.849799 103.156078 
L 122.548754 103.715242 
L 123.397486 103.116137 
L 123.946665 103.076197 
L 124.795397 103.076197 
L 125.294651 103.036257 
L 126.193308 102.117629 
L 127.391517 100.999301 
L 128.3401 100.400196 
L 128.689578 100.87948 
L 129.688085 100.87948 
L 130.387041 100.280375 
L 131.135922 100.280375 
L 131.934728 100.280375 
L 132.483907 100.200494 
L 132.983161 100.200494 
L 134.381072 100.679778 
L 135.37958 100.120614 
L 136.128461 100.160554 
L 136.328163 100.160554 
L 137.027118 100.040733 
L 138.075551 99.880972 
L 139.17391 99.721211 
L 139.922791 99.721211 
L 141.021149 99.721211 
L 142.468986 99.721211 
L 144.466002 99.64133 
L 146.21339 99.321808 
L 147.711152 99.042225 
L 150.506974 99.002285 
L 151.705183 98.36324 
L 154.950334 98.203479 
L 157.0472 97.963837 
L 158.345261 97.764135 
L 159.144067 97.644314 
L 162.289366 97.564434 
L 164.036755 97.524493 
L 165.834069 97.404672 
L 169.378772 97.165031 
L 172.673848 97.165031 
L 173.223027 97.165031 
L 173.872057 97.165031 
L 174.870565 97.04521 
L 175.669372 97.005269 
L 178.115716 96.885448 
L 183.008404 95.847 
L 183.956987 95.847 
L 188.550123 95.687239 
L 189.598556 95.647299 
L 190.646989 95.647299 
L 192.344452 95.567418 
L 193.742363 95.567418 
L 195.090349 95.407657 
L 195.939081 95.447597 
L 198.684977 95.447597 
L 201.530725 94.52897 
L 202.928636 94.48903 
L 203.927143 93.969806 
L 205.175278 94.608851 
L 206.223711 94.329268 
L 207.471846 93.730164 
L 210.417444 93.450581 
L 211.965132 93.410641 
L 213.462893 93.33076 
L 215.01058 93.33076 
L 216.508342 93.370701 
L 218.056029 93.33076 
L 219.603717 93.33076 
L 221.051553 93.29082 
L 222.59924 93.29082 
L 224.097002 93.29082 
L 225.644689 93.25088 
L 227.142451 93.25088 
L 228.690138 93.25088 
L 230.237825 93.170999 
L 231.735587 93.29082 
L 233.283274 93.29082 
L 234.781036 93.21094 
L 236.328723 93.21094 
L 237.87641 93.131059 
L 239.274321 93.131059 
L 240.822008 93.131059 
L 242.31977 93.131059 
L 243.867457 93.091119 
L 245.365219 92.891417 
L 246.912906 92.811536 
L 248.460593 92.731656 
L 249.958355 92.691715 
L 251.506042 92.771596 
L 253.003804 92.691715 
L 254.551491 92.691715 
L 256.099178 92.691715 
L 257.497089 92.691715 
L 259.044776 92.691715 
L 260.542538 92.691715 
L 262.090225 92.611835 
L 263.587987 92.611835 
L 265.135674 92.611835 
L 266.683361 91.653267 
L 268.181123 91.493506 
L 269.72881 91.453566 
L 271.226572 91.453566 
L 272.774259 91.413625 
L 274.321946 91.413625 
L 275.719857 91.413625 
L 277.267544 91.333745 
L 278.765306 91.333745 
L 280.312993 91.333745 
L 281.810755 91.333745 
L 283.358442 91.333745 
L 284.906129 91.333745 
L 286.403891 91.333745 
L 287.951578 91.333745 
L 289.44934 91.293804 
L 290.997027 91.253864 
L 292.544714 91.253864 
L 293.992551 91.213924 
L 295.540238 91.213924 
L 297.038 91.213924 
L 298.585687 91.213924 
L 300.083448 91.213924 
L 301.631136 91.173984 
L 303.178823 91.134043 
L 304.676584 91.094103 
L 306.224272 91.094103 
L 307.722033 91.054163 
L 309.269721 91.054163 
L 310.817408 91.054163 
L 312.215319 91.054163 
L 313.763006 91.014222 
L 315.260768 90.974282 
L 316.808455 90.814521 
L 318.306217 89.855953 
L 319.853904 89.656252 
L 321.401591 89.616311 
L 322.899353 89.736132 
L 324.44704 89.736132 
L 325.944801 89.736132 
L 327.492489 89.576371 
L 329.040176 89.576371 
L 330.438087 89.576371 
L 331.985774 89.49649 
L 333.483536 89.45655 
L 335.031223 89.41661 
L 336.528985 89.41661 
L 338.076672 89.41661 
L 339.624359 89.376669 
L 341.122121 89.376669 
L 342.669808 89.376669 
L 344.16757 89.296789 
L 345.715257 89.296789 
L 347.262944 89.336729 
L 348.660855 89.336729 
L 350.208542 89.336729 
L 351.706304 89.336729 
L 353.253991 89.41661 
L 354.751753 89.41661 
L 356.29944 89.41661 
L 357.847127 89.41661 
L 359.344889 89.41661 
L 360.892576 89.41661 
L 362.390338 89.41661 
L 363.938025 89.41661 
L 365.485712 89.41661 
L 366.933548 89.376669 
L 368.481235 89.376669 
L 369.978997 89.41661 
L 371.526684 89.49649 
L 373.024446 89.49649 
L 374.572133 89.45655 
L 376.11982 89.45655 
L 377.617582 89.49649 
L 379.165269 89.49649 
L 380.663031 89.49649 
L 382.210718 89.536431 
L 383.758405 89.536431 
L 385.156316 89.49649 
L 386.704004 89.45655 
L 388.201765 89.41661 
L 389.749452 89.41661 
L 391.247214 89.41661 
L 392.794901 89.376669 
L 394.342589 89.376669 
L 395.84035 89.376669 
L 397.388037 89.296789 
L 398.885799 89.336729 
L 400.433486 89.296789 
L 401.981174 89.296789 
L 403.379084 89.296789 
L 404.926772 89.296789 
L 406.424533 89.296789 
L 407.972221 89.216908 
L 409.469982 89.137028 
L 411.017669 89.137028 
L 412.565357 89.137028 
L 414.063118 89.137028 
L 415.610806 89.097087 
L 417.108567 89.097087 
L 418.656254 89.017207 
L 420.203942 89.017207 
L 421.601853 88.977266 
L 423.14954 88.977266 
L 424.647301 88.977266 
L 426.194989 88.977266 
L 427.69275 88.977266 
L 429.240438 88.897386 
L 430.788125 88.897386 
L 432.285886 88.897386 
L 433.833574 88.897386 
L 435.331335 88.857445 
L 436.879023 88.857445 
L 438.42671 88.857445 
L 439.874546 88.817505 
L 441.422233 88.817505 
L 442.919995 88.817505 
L 444.467682 88.777565 
L 444.467682 78.472964 
L 444.467682 78.472964 
L 442.919995 78.472964 
L 441.422233 78.472964 
L 439.874546 78.472964 
L 438.42671 78.472964 
L 436.879023 78.472964 
L 435.331335 78.472964 
L 433.833574 78.472964 
L 432.285886 78.472964 
L 430.788125 78.472964 
L 429.240438 78.472964 
L 427.69275 78.472964 
L 426.194989 78.472964 
L 424.647301 78.472964 
L 423.14954 78.472964 
L 421.601853 78.472964 
L 420.203942 78.672665 
L 418.656254 78.712606 
L 417.108567 78.752546 
L 415.610806 78.752546 
L 414.063118 78.752546 
L 412.565357 78.752546 
L 411.017669 78.752546 
L 409.469982 78.752546 
L 407.972221 78.752546 
L 406.424533 78.752546 
L 404.926772 78.752546 
L 403.379084 78.792486 
L 401.981174 78.752546 
L 400.433486 78.752546 
L 398.885799 78.792486 
L 397.388037 78.512904 
L 395.84035 78.512904 
L 394.342589 78.153441 
L 392.794901 78.153441 
L 391.247214 78.153441 
L 389.749452 78.153441 
L 388.201765 78.153441 
L 386.704004 78.153441 
L 385.156316 78.193382 
L 383.758405 78.193382 
L 382.210718 78.193382 
L 380.663031 78.153441 
L 379.165269 78.153441 
L 377.617582 78.153441 
L 376.11982 78.193382 
L 374.572133 78.193382 
L 373.024446 78.193382 
L 371.526684 78.193382 
L 369.978997 78.113501 
L 368.481235 78.073561 
L 366.933548 78.073561 
L 365.485712 78.073561 
L 363.938025 78.073561 
L 362.390338 78.073561 
L 360.892576 78.073561 
L 359.344889 78.073561 
L 357.847127 78.073561 
L 356.29944 78.073561 
L 354.751753 78.073561 
L 353.253991 78.073561 
L 351.706304 77.99368 
L 350.208542 77.99368 
L 348.660855 77.99368 
L 347.262944 77.99368 
L 345.715257 77.99368 
L 344.16757 77.99368 
L 342.669808 77.99368 
L 341.122121 77.99368 
L 339.624359 77.99368 
L 338.076672 77.95374 
L 336.528985 77.95374 
L 335.031223 77.95374 
L 333.483536 77.95374 
L 331.985774 77.95374 
L 330.438087 77.95374 
L 329.040176 77.95374 
L 327.492489 77.95374 
L 325.944801 77.95374 
L 324.44704 77.95374 
L 322.899353 77.95374 
L 321.401591 77.95374 
L 319.853904 77.95374 
L 318.306217 77.95374 
L 316.808455 77.95374 
L 315.260768 77.95374 
L 313.763006 77.95374 
L 312.215319 77.95374 
L 310.817408 77.95374 
L 309.269721 77.95374 
L 307.722033 77.95374 
L 306.224272 77.95374 
L 304.676584 77.95374 
L 303.178823 77.95374 
L 301.631136 77.95374 
L 300.083448 77.95374 
L 298.585687 77.95374 
L 297.038 77.95374 
L 295.540238 77.95374 
L 293.992551 78.313203 
L 292.544714 78.353143 
L 290.997027 78.353143 
L 289.44934 78.353143 
L 287.951578 78.512904 
L 286.403891 78.512904 
L 284.906129 78.512904 
L 283.358442 78.512904 
L 281.810755 78.512904 
L 280.312993 78.512904 
L 278.765306 78.512904 
L 277.267544 78.512904 
L 275.719857 78.512904 
L 274.321946 78.512904 
L 272.774259 78.512904 
L 271.226572 78.552844 
L 269.72881 78.552844 
L 268.181123 78.552844 
L 266.683361 78.552844 
L 265.135674 78.273262 
L 263.587987 78.433024 
L 262.090225 78.393083 
L 260.542538 78.393083 
L 259.044776 78.393083 
L 257.497089 78.393083 
L 256.099178 78.393083 
L 254.551491 78.393083 
L 253.003804 78.393083 
L 251.506042 78.433024 
L 249.958355 78.433024 
L 248.460593 78.433024 
L 246.912906 78.393083 
L 245.365219 78.393083 
L 243.867457 78.393083 
L 242.31977 78.393083 
L 240.822008 78.393083 
L 239.274321 78.393083 
L 237.87641 78.393083 
L 236.328723 78.393083 
L 234.781036 78.393083 
L 233.283274 78.393083 
L 231.735587 78.433024 
L 230.237825 78.393083 
L 228.690138 78.433024 
L 227.142451 78.393083 
L 225.644689 78.393083 
L 224.097002 78.393083 
L 222.59924 78.393083 
L 221.051553 78.393083 
L 219.603717 78.393083 
L 218.056029 78.433024 
L 216.508342 78.433024 
L 215.01058 78.393083 
L 213.462893 78.393083 
L 211.965132 78.393083 
L 210.417444 78.472964 
L 207.471846 78.752546 
L 206.223711 79.431531 
L 205.175278 79.511412 
L 203.927143 78.872367 
L 202.928636 80.430039 
L 201.530725 80.430039 
L 198.684977 81.86789 
L 195.939081 81.86789 
L 195.090349 81.82795 
L 193.742363 81.987711 
L 192.344452 81.947771 
L 190.646989 81.947771 
L 189.598556 81.947771 
L 188.550123 81.947771 
L 183.956987 82.267294 
L 183.008404 82.267294 
L 178.115716 82.466995 
L 175.669372 82.427055 
L 174.870565 82.427055 
L 173.872057 82.506936 
L 173.223027 82.506936 
L 172.673848 82.506936 
L 169.378772 83.0661 
L 165.834069 83.185921 
L 164.036755 83.185921 
L 162.289366 83.185921 
L 159.144067 83.185921 
L 158.345261 83.145981 
L 157.0472 83.145981 
L 154.950334 83.02616 
L 151.705183 82.986219 
L 150.506974 84.024667 
L 147.711152 84.144488 
L 146.21339 84.264309 
L 144.466002 84.144488 
L 142.468986 84.144488 
L 141.021149 84.104548 
L 139.922791 84.104548 
L 139.17391 84.104548 
L 138.075551 84.064608 
L 137.027118 84.064608 
L 136.328163 84.104548 
L 136.128461 84.104548 
L 135.37958 84.104548 
L 134.381072 84.543891 
L 132.983161 84.104548 
L 132.483907 84.104548 
L 131.934728 84.144488 
L 131.135922 84.064608 
L 130.387041 84.064608 
L 129.688085 84.464011 
L 128.689578 84.38413 
L 128.3401 83.944787 
L 127.391517 84.503951 
L 126.193308 84.34419 
L 125.294651 84.38413 
L 124.795397 84.38413 
L 123.946665 84.38413 
L 123.397486 84.424071 
L 122.548754 84.943295 
L 121.849799 84.38413 
L 121.001067 84.38413 
L 117.705991 85.382638 
L 117.456364 85.422578 
L 115.459349 85.382638 
L 111.11584 84.464011 
L 108.769346 85.382638 
L 99.682925 86.181444 
L 85.054785 86.620788 
L 65.184479 87.339713 
L 48.06007 87.779057 
L 39.722529 88.817505 
L 31.285138 88.657744 
z
" clip-path="url(#p1d42e30b57)" style="fill: #d5dce5"/>
   </g>
   <g id="matplotlib.axis_1">
    <g id="xtick_1">
     <g id="line2d_1">
      <defs>
       <path id="m960adfa821" d="M 0 0 
L 0 3.5 
" style="stroke: #000000; stroke-width: 0.8"/>
      </defs>
      <g>
       <use xlink:href="#m960adfa821" x="72.174034" y="280.45113" style="stroke: #000000; stroke-width: 0.8"/>
      </g>
     </g>
     <g id="text_1">
      <!-- 2004 -->
      <g transform="translate(59.449034 295.049567) scale(0.1 -0.1)">
       <defs>
        <path id="DejaVuSans-32" d="M 1228 531 
L 3431 531 
L 3431 0 
L 469 0 
L 469 531 
Q 828 903 1448 1529 
Q 2069 2156 2228 2338 
Q 2531 2678 2651 2914 
Q 2772 3150 2772 3378 
Q 2772 3750 2511 3984 
Q 2250 4219 1831 4219 
Q 1534 4219 1204 4116 
Q 875 4013 500 3803 
L 500 4441 
Q 881 4594 1212 4672 
Q 1544 4750 1819 4750 
Q 2544 4750 2975 4387 
Q 3406 4025 3406 3419 
Q 3406 3131 3298 2873 
Q 3191 2616 2906 2266 
Q 2828 2175 2409 1742 
Q 1991 1309 1228 531 
z
" transform="scale(0.015625)"/>
        <path id="DejaVuSans-30" d="M 2034 4250 
Q 1547 4250 1301 3770 
Q 1056 3291 1056 2328 
Q 1056 1369 1301 889 
Q 1547 409 2034 409 
Q 2525 409 2770 889 
Q 3016 1369 3016 2328 
Q 3016 3291 2770 3770 
Q 2525 4250 2034 4250 
z
M 2034 4750 
Q 2819 4750 3233 4129 
Q 3647 3509 3647 2328 
Q 3647 1150 3233 529 
Q 2819 -91 2034 -91 
Q 1250 -91 836 529 
Q 422 1150 422 2328 
Q 422 3509 836 4129 
Q 1250 4750 2034 4750 
z
" transform="scale(0.015625)"/>
        <path id="DejaVuSans-34" d="M 2419 4116 
L 825 1625 
L 2419 1625 
L 2419 4116 
z
M 2253 4666 
L 3047 4666 
L 3047 1625 
L 3713 1625 
L 3713 1100 
L 3047 1100 
L 3047 0 
L 2419 0 
L 2419 1100 
L 313 1100 
L 313 1709 
L 2253 4666 
z
" transform="scale(0.015625)"/>
       </defs>
       <use xlink:href="#DejaVuSans-32"/>
       <use xlink:href="#DejaVuSans-30" x="63.623047"/>
       <use xlink:href="#DejaVuSans-30" x="127.246094"/>
       <use xlink:href="#DejaVuSans-34" x="190.869141"/>
      </g>
     </g>
    </g>
    <g id="xtick_2">
     <g id="line2d_2">
      <g>
       <use xlink:href="#m960adfa821" x="145.115032" y="280.45113" style="stroke: #000000; stroke-width: 0.8"/>
      </g>
     </g>
     <g id="text_2">
      <!-- 2008 -->
      <g transform="translate(132.390032 295.049567) scale(0.1 -0.1)">
       <defs>
        <path id="DejaVuSans-38" d="M 2034 2216 
Q 1584 2216 1326 1975 
Q 1069 1734 1069 1313 
Q 1069 891 1326 650 
Q 1584 409 2034 409 
Q 2484 409 2743 651 
Q 3003 894 3003 1313 
Q 3003 1734 2745 1975 
Q 2488 2216 2034 2216 
z
M 1403 2484 
Q 997 2584 770 2862 
Q 544 3141 544 3541 
Q 544 4100 942 4425 
Q 1341 4750 2034 4750 
Q 2731 4750 3128 4425 
Q 3525 4100 3525 3541 
Q 3525 3141 3298 2862 
Q 3072 2584 2669 2484 
Q 3125 2378 3379 2068 
Q 3634 1759 3634 1313 
Q 3634 634 3220 271 
Q 2806 -91 2034 -91 
Q 1263 -91 848 271 
Q 434 634 434 1313 
Q 434 1759 690 2068 
Q 947 2378 1403 2484 
z
M 1172 3481 
Q 1172 3119 1398 2916 
Q 1625 2713 2034 2713 
Q 2441 2713 2670 2916 
Q 2900 3119 2900 3481 
Q 2900 3844 2670 4047 
Q 2441 4250 2034 4250 
Q 1625 4250 1398 4047 
Q 1172 3844 1172 3481 
z
" transform="scale(0.015625)"/>
       </defs>
       <use xlink:href="#DejaVuSans-32"/>
       <use xlink:href="#DejaVuSans-30" x="63.623047"/>
       <use xlink:href="#DejaVuSans-30" x="127.246094"/>
       <use xlink:href="#DejaVuSans-38" x="190.869141"/>
      </g>
     </g>
    </g>
    <g id="xtick_3">
     <g id="line2d_3">
      <g>
       <use xlink:href="#m960adfa821" x="218.056029" y="280.45113" style="stroke: #000000; stroke-width: 0.8"/>
      </g>
     </g>
     <g id="text_3">
      <!-- 2012 -->
      <g transform="translate(205.331029 295.049567) scale(0.1 -0.1)">
       <defs>
        <path id="DejaVuSans-31" d="M 794 531 
L 1825 531 
L 1825 4091 
L 703 3866 
L 703 4441 
L 1819 4666 
L 2450 4666 
L 2450 531 
L 3481 531 
L 3481 0 
L 794 0 
L 794 531 
z
" transform="scale(0.015625)"/>
       </defs>
       <use xlink:href="#DejaVuSans-32"/>
       <use xlink:href="#DejaVuSans-30" x="63.623047"/>
       <use xlink:href="#DejaVuSans-31" x="127.246094"/>
       <use xlink:href="#DejaVuSans-32" x="190.869141"/>
      </g>
     </g>
    </g>
    <g id="xtick_4">
     <g id="line2d_4">
      <g>
       <use xlink:href="#m960adfa821" x="290.997027" y="280.45113" style="stroke: #000000; stroke-width: 0.8"/>
      </g>
     </g>
     <g id="text_4">
      <!-- 2016 -->
      <g transform="translate(278.272027 295.049567) scale(0.1 -0.1)">
       <defs>
        <path id="DejaVuSans-36" d="M 2113 2584 
Q 1688 2584 1439 2293 
Q 1191 2003 1191 1497 
Q 1191 994 1439 701 
Q 1688 409 2113 409 
Q 2538 409 2786 701 
Q 3034 994 3034 1497 
Q 3034 2003 2786 2293 
Q 2538 2584 2113 2584 
z
M 3366 4563 
L 3366 3988 
Q 3128 4100 2886 4159 
Q 2644 4219 2406 4219 
Q 1781 4219 1451 3797 
Q 1122 3375 1075 2522 
Q 1259 2794 1537 2939 
Q 1816 3084 2150 3084 
Q 2853 3084 3261 2657 
Q 3669 2231 3669 1497 
Q 3669 778 3244 343 
Q 2819 -91 2113 -91 
Q 1303 -91 875 529 
Q 447 1150 447 2328 
Q 447 3434 972 4092 
Q 1497 4750 2381 4750 
Q 2619 4750 2861 4703 
Q 3103 4656 3366 4563 
z
" transform="scale(0.015625)"/>
       </defs>
       <use xlink:href="#DejaVuSans-32"/>
       <use xlink:href="#DejaVuSans-30" x="63.623047"/>
       <use xlink:href="#DejaVuSans-31" x="127.246094"/>
       <use xlink:href="#DejaVuSans-36" x="190.869141"/>
      </g>
     </g>
    </g>
    <g id="xtick_5">
     <g id="line2d_5">
      <g>
       <use xlink:href="#m960adfa821" x="363.938025" y="280.45113" style="stroke: #000000; stroke-width: 0.8"/>
      </g>
     </g>
     <g id="text_5">
      <!-- 2020 -->
      <g transform="translate(351.213025 295.049567) scale(0.1 -0.1)">
       <use xlink:href="#DejaVuSans-32"/>
       <use xlink:href="#DejaVuSans-30" x="63.623047"/>
       <use xlink:href="#DejaVuSans-32" x="127.246094"/>
       <use xlink:href="#DejaVuSans-30" x="190.869141"/>
      </g>
     </g>
    </g>
    <g id="xtick_6">
     <g id="line2d_6">
      <g>
       <use xlink:href="#m960adfa821" x="436.879023" y="280.45113" style="stroke: #000000; stroke-width: 0.8"/>
      </g>
     </g>
     <g id="text_6">
      <!-- 2024 -->
      <g transform="translate(424.154023 295.049567) scale(0.1 -0.1)">
       <use xlink:href="#DejaVuSans-32"/>
       <use xlink:href="#DejaVuSans-30" x="63.623047"/>
       <use xlink:href="#DejaVuSans-32" x="127.246094"/>
       <use xlink:href="#DejaVuSans-34" x="190.869141"/>
      </g>
     </g>
    </g>
    <g id="text_7">
     <!-- Year -->
     <g transform="translate(237.147516 312.526911) scale(0.15 -0.15)">
      <defs>
       <path id="DejaVuSans-59" d="M -13 4666 
L 666 4666 
L 1959 2747 
L 3244 4666 
L 3922 4666 
L 2272 2222 
L 2272 0 
L 1638 0 
L 1638 2222 
L -13 4666 
z
" transform="scale(0.015625)"/>
       <path id="DejaVuSans-65" d="M 3597 1894 
L 3597 1613 
L 953 1613 
Q 991 1019 1311 708 
Q 1631 397 2203 397 
Q 2534 397 2845 478 
Q 3156 559 3463 722 
L 3463 178 
Q 3153 47 2828 -22 
Q 2503 -91 2169 -91 
Q 1331 -91 842 396 
Q 353 884 353 1716 
Q 353 2575 817 3079 
Q 1281 3584 2069 3584 
Q 2775 3584 3186 3129 
Q 3597 2675 3597 1894 
z
M 3022 2063 
Q 3016 2534 2758 2815 
Q 2500 3097 2075 3097 
Q 1594 3097 1305 2825 
Q 1016 2553 972 2059 
L 3022 2063 
z
" transform="scale(0.015625)"/>
       <path id="DejaVuSans-61" d="M 2194 1759 
Q 1497 1759 1228 1600 
Q 959 1441 959 1056 
Q 959 750 1161 570 
Q 1363 391 1709 391 
Q 2188 391 2477 730 
Q 2766 1069 2766 1631 
L 2766 1759 
L 2194 1759 
z
M 3341 1997 
L 3341 0 
L 2766 0 
L 2766 531 
Q 2569 213 2275 61 
Q 1981 -91 1556 -91 
Q 1019 -91 701 211 
Q 384 513 384 1019 
Q 384 1609 779 1909 
Q 1175 2209 1959 2209 
L 2766 2209 
L 2766 2266 
Q 2766 2663 2505 2880 
Q 2244 3097 1772 3097 
Q 1472 3097 1187 3025 
Q 903 2953 641 2809 
L 641 3341 
Q 956 3463 1253 3523 
Q 1550 3584 1831 3584 
Q 2591 3584 2966 3190 
Q 3341 2797 3341 1997 
z
" transform="scale(0.015625)"/>
       <path id="DejaVuSans-72" d="M 2631 2963 
Q 2534 3019 2420 3045 
Q 2306 3072 2169 3072 
Q 1681 3072 1420 2755 
Q 1159 2438 1159 1844 
L 1159 0 
L 581 0 
L 581 3500 
L 1159 3500 
L 1159 2956 
Q 1341 3275 1631 3429 
Q 1922 3584 2338 3584 
Q 2397 3584 2469 3576 
Q 2541 3569 2628 3553 
L 2631 2963 
z
" transform="scale(0.015625)"/>
      </defs>
      <use xlink:href="#DejaVuSans-59"/>
      <use xlink:href="#DejaVuSans-65" x="47.833984"/>
      <use xlink:href="#DejaVuSans-61" x="109.357422"/>
      <use xlink:href="#DejaVuSans-72" x="170.636719"/>
     </g>
    </g>
   </g>
   <g id="matplotlib.axis_2">
    <g id="ytick_1">
     <g id="line2d_7">
      <defs>
       <path id="m962caacc77" d="M 0 0 
L -3.5 0 
" style="stroke: #000000; stroke-width: 0.8"/>
      </defs>
      <g>
       <use xlink:href="#m962caacc77" x="61.49" y="280.45113" style="stroke: #000000; stroke-width: 0.8"/>
      </g>
     </g>
     <g id="text_8">
      <!-- 0 -->
      <g transform="translate(48.1275 284.250349) scale(0.1 -0.1)">
       <use xlink:href="#DejaVuSans-30"/>
      </g>
     </g>
    </g>
    <g id="ytick_2">
     <g id="line2d_8">
      <g>
       <use xlink:href="#m962caacc77" x="61.49" y="240.510816" style="stroke: #000000; stroke-width: 0.8"/>
      </g>
     </g>
     <g id="text_9">
      <!-- 1000 -->
      <g transform="translate(29.04 244.310035) scale(0.1 -0.1)">
       <use xlink:href="#DejaVuSans-31"/>
       <use xlink:href="#DejaVuSans-30" x="63.623047"/>
       <use xlink:href="#DejaVuSans-30" x="127.246094"/>
       <use xlink:href="#DejaVuSans-30" x="190.869141"/>
      </g>
     </g>
    </g>
    <g id="ytick_3">
     <g id="line2d_9">
      <g>
       <use xlink:href="#m962caacc77" x="61.49" y="200.570503" style="stroke: #000000; stroke-width: 0.8"/>
      </g>
     </g>
     <g id="text_10">
      <!-- 2000 -->
      <g transform="translate(29.04 204.369721) scale(0.1 -0.1)">
       <use xlink:href="#DejaVuSans-32"/>
       <use xlink:href="#DejaVuSans-30" x="63.623047"/>
       <use xlink:href="#DejaVuSans-30" x="127.246094"/>
       <use xlink:href="#DejaVuSans-30" x="190.869141"/>
      </g>
     </g>
    </g>
    <g id="ytick_4">
     <g id="line2d_10">
      <g>
       <use xlink:href="#m962caacc77" x="61.49" y="160.630189" style="stroke: #000000; stroke-width: 0.8"/>
      </g>
     </g>
     <g id="text_11">
      <!-- 3000 -->
      <g transform="translate(29.04 164.429408) scale(0.1 -0.1)">
       <defs>
        <path id="DejaVuSans-33" d="M 2597 2516 
Q 3050 2419 3304 2112 
Q 3559 1806 3559 1356 
Q 3559 666 3084 287 
Q 2609 -91 1734 -91 
Q 1441 -91 1130 -33 
Q 819 25 488 141 
L 488 750 
Q 750 597 1062 519 
Q 1375 441 1716 441 
Q 2309 441 2620 675 
Q 2931 909 2931 1356 
Q 2931 1769 2642 2001 
Q 2353 2234 1838 2234 
L 1294 2234 
L 1294 2753 
L 1863 2753 
Q 2328 2753 2575 2939 
Q 2822 3125 2822 3475 
Q 2822 3834 2567 4026 
Q 2313 4219 1838 4219 
Q 1578 4219 1281 4162 
Q 984 4106 628 3988 
L 628 4550 
Q 988 4650 1302 4700 
Q 1616 4750 1894 4750 
Q 2613 4750 3031 4423 
Q 3450 4097 3450 3541 
Q 3450 3153 3228 2886 
Q 3006 2619 2597 2516 
z
" transform="scale(0.015625)"/>
       </defs>
       <use xlink:href="#DejaVuSans-33"/>
       <use xlink:href="#DejaVuSans-30" x="63.623047"/>
       <use xlink:href="#DejaVuSans-30" x="127.246094"/>
       <use xlink:href="#DejaVuSans-30" x="190.869141"/>
      </g>
     </g>
    </g>
    <g id="ytick_5">
     <g id="line2d_11">
      <g>
       <use xlink:href="#m962caacc77" x="61.49" y="120.689875" style="stroke: #000000; stroke-width: 0.8"/>
      </g>
     </g>
     <g id="text_12">
      <!-- 4000 -->
      <g transform="translate(29.04 124.489094) scale(0.1 -0.1)">
       <use xlink:href="#DejaVuSans-34"/>
       <use xlink:href="#DejaVuSans-30" x="63.623047"/>
       <use xlink:href="#DejaVuSans-30" x="127.246094"/>
       <use xlink:href="#DejaVuSans-30" x="190.869141"/>
      </g>
     </g>
    </g>
    <g id="ytick_6">
     <g id="line2d_12">
      <g>
       <use xlink:href="#m962caacc77" x="61.49" y="80.749562" style="stroke: #000000; stroke-width: 0.8"/>
      </g>
     </g>
     <g id="text_13">
      <!-- 5000 -->
      <g transform="translate(29.04 84.54878) scale(0.1 -0.1)">
       <defs>
        <path id="DejaVuSans-35" d="M 691 4666 
L 3169 4666 
L 3169 4134 
L 1269 4134 
L 1269 2991 
Q 1406 3038 1543 3061 
Q 1681 3084 1819 3084 
Q 2600 3084 3056 2656 
Q 3513 2228 3513 1497 
Q 3513 744 3044 326 
Q 2575 -91 1722 -91 
Q 1428 -91 1123 -41 
Q 819 9 494 109 
L 494 744 
Q 775 591 1075 516 
Q 1375 441 1709 441 
Q 2250 441 2565 725 
Q 2881 1009 2881 1497 
Q 2881 1984 2565 2268 
Q 2250 2553 1709 2553 
Q 1456 2553 1204 2497 
Q 953 2441 691 2322 
L 691 4666 
z
" transform="scale(0.015625)"/>
       </defs>
       <use xlink:href="#DejaVuSans-35"/>
       <use xlink:href="#DejaVuSans-30" x="63.623047"/>
       <use xlink:href="#DejaVuSans-30" x="127.246094"/>
       <use xlink:href="#DejaVuSans-30" x="190.869141"/>
      </g>
     </g>
    </g>
    <g id="text_14">
     <!-- Number of proteins -->
     <g transform="translate(21.920469 246.829062) rotate(-90) scale(0.15 -0.15)">
      <defs>
       <path id="DejaVuSans-4e" d="M 628 4666 
L 1478 4666 
L 3547 763 
L 3547 4666 
L 4159 4666 
L 4159 0 
L 3309 0 
L 1241 3903 
L 1241 0 
L 628 0 
L 628 4666 
z
" transform="scale(0.015625)"/>
       <path id="DejaVuSans-75" d="M 544 1381 
L 544 3500 
L 1119 3500 
L 1119 1403 
Q 1119 906 1312 657 
Q 1506 409 1894 409 
Q 2359 409 2629 706 
Q 2900 1003 2900 1516 
L 2900 3500 
L 3475 3500 
L 3475 0 
L 2900 0 
L 2900 538 
Q 2691 219 2414 64 
Q 2138 -91 1772 -91 
Q 1169 -91 856 284 
Q 544 659 544 1381 
z
M 1991 3584 
L 1991 3584 
z
" transform="scale(0.015625)"/>
       <path id="DejaVuSans-6d" d="M 3328 2828 
Q 3544 3216 3844 3400 
Q 4144 3584 4550 3584 
Q 5097 3584 5394 3201 
Q 5691 2819 5691 2113 
L 5691 0 
L 5113 0 
L 5113 2094 
Q 5113 2597 4934 2840 
Q 4756 3084 4391 3084 
Q 3944 3084 3684 2787 
Q 3425 2491 3425 1978 
L 3425 0 
L 2847 0 
L 2847 2094 
Q 2847 2600 2669 2842 
Q 2491 3084 2119 3084 
Q 1678 3084 1418 2786 
Q 1159 2488 1159 1978 
L 1159 0 
L 581 0 
L 581 3500 
L 1159 3500 
L 1159 2956 
Q 1356 3278 1631 3431 
Q 1906 3584 2284 3584 
Q 2666 3584 2933 3390 
Q 3200 3197 3328 2828 
z
" transform="scale(0.015625)"/>
       <path id="DejaVuSans-62" d="M 3116 1747 
Q 3116 2381 2855 2742 
Q 2594 3103 2138 3103 
Q 1681 3103 1420 2742 
Q 1159 2381 1159 1747 
Q 1159 1113 1420 752 
Q 1681 391 2138 391 
Q 2594 391 2855 752 
Q 3116 1113 3116 1747 
z
M 1159 2969 
Q 1341 3281 1617 3432 
Q 1894 3584 2278 3584 
Q 2916 3584 3314 3078 
Q 3713 2572 3713 1747 
Q 3713 922 3314 415 
Q 2916 -91 2278 -91 
Q 1894 -91 1617 61 
Q 1341 213 1159 525 
L 1159 0 
L 581 0 
L 581 4863 
L 1159 4863 
L 1159 2969 
z
" transform="scale(0.015625)"/>
       <path id="DejaVuSans-20" transform="scale(0.015625)"/>
       <path id="DejaVuSans-6f" d="M 1959 3097 
Q 1497 3097 1228 2736 
Q 959 2375 959 1747 
Q 959 1119 1226 758 
Q 1494 397 1959 397 
Q 2419 397 2687 759 
Q 2956 1122 2956 1747 
Q 2956 2369 2687 2733 
Q 2419 3097 1959 3097 
z
M 1959 3584 
Q 2709 3584 3137 3096 
Q 3566 2609 3566 1747 
Q 3566 888 3137 398 
Q 2709 -91 1959 -91 
Q 1206 -91 779 398 
Q 353 888 353 1747 
Q 353 2609 779 3096 
Q 1206 3584 1959 3584 
z
" transform="scale(0.015625)"/>
       <path id="DejaVuSans-66" d="M 2375 4863 
L 2375 4384 
L 1825 4384 
Q 1516 4384 1395 4259 
Q 1275 4134 1275 3809 
L 1275 3500 
L 2222 3500 
L 2222 3053 
L 1275 3053 
L 1275 0 
L 697 0 
L 697 3053 
L 147 3053 
L 147 3500 
L 697 3500 
L 697 3744 
Q 697 4328 969 4595 
Q 1241 4863 1831 4863 
L 2375 4863 
z
" transform="scale(0.015625)"/>
       <path id="DejaVuSans-70" d="M 1159 525 
L 1159 -1331 
L 581 -1331 
L 581 3500 
L 1159 3500 
L 1159 2969 
Q 1341 3281 1617 3432 
Q 1894 3584 2278 3584 
Q 2916 3584 3314 3078 
Q 3713 2572 3713 1747 
Q 3713 922 3314 415 
Q 2916 -91 2278 -91 
Q 1894 -91 1617 61 
Q 1341 213 1159 525 
z
M 3116 1747 
Q 3116 2381 2855 2742 
Q 2594 3103 2138 3103 
Q 1681 3103 1420 2742 
Q 1159 2381 1159 1747 
Q 1159 1113 1420 752 
Q 1681 391 2138 391 
Q 2594 391 2855 752 
Q 3116 1113 3116 1747 
z
" transform="scale(0.015625)"/>
       <path id="DejaVuSans-74" d="M 1172 4494 
L 1172 3500 
L 2356 3500 
L 2356 3053 
L 1172 3053 
L 1172 1153 
Q 1172 725 1289 603 
Q 1406 481 1766 481 
L 2356 481 
L 2356 0 
L 1766 0 
Q 1100 0 847 248 
Q 594 497 594 1153 
L 594 3053 
L 172 3053 
L 172 3500 
L 594 3500 
L 594 4494 
L 1172 4494 
z
" transform="scale(0.015625)"/>
       <path id="DejaVuSans-69" d="M 603 3500 
L 1178 3500 
L 1178 0 
L 603 0 
L 603 3500 
z
M 603 4863 
L 1178 4863 
L 1178 4134 
L 603 4134 
L 603 4863 
z
" transform="scale(0.015625)"/>
       <path id="DejaVuSans-6e" d="M 3513 2113 
L 3513 0 
L 2938 0 
L 2938 2094 
Q 2938 2591 2744 2837 
Q 2550 3084 2163 3084 
Q 1697 3084 1428 2787 
Q 1159 2491 1159 1978 
L 1159 0 
L 581 0 
L 581 3500 
L 1159 3500 
L 1159 2956 
Q 1366 3272 1645 3428 
Q 1925 3584 2291 3584 
Q 2894 3584 3203 3211 
Q 3513 2838 3513 2113 
z
" transform="scale(0.015625)"/>
       <path id="DejaVuSans-73" d="M 2834 3397 
L 2834 2853 
Q 2591 2978 2328 3040 
Q 2066 3103 1784 3103 
Q 1356 3103 1142 2972 
Q 928 2841 928 2578 
Q 928 2378 1081 2264 
Q 1234 2150 1697 2047 
L 1894 2003 
Q 2506 1872 2764 1633 
Q 3022 1394 3022 966 
Q 3022 478 2636 193 
Q 2250 -91 1575 -91 
Q 1294 -91 989 -36 
Q 684 19 347 128 
L 347 722 
Q 666 556 975 473 
Q 1284 391 1588 391 
Q 1994 391 2212 530 
Q 2431 669 2431 922 
Q 2431 1156 2273 1281 
Q 2116 1406 1581 1522 
L 1381 1569 
Q 847 1681 609 1914 
Q 372 2147 372 2553 
Q 372 3047 722 3315 
Q 1072 3584 1716 3584 
Q 2034 3584 2315 3537 
Q 2597 3491 2834 3397 
z
" transform="scale(0.015625)"/>
      </defs>
      <use xlink:href="#DejaVuSans-4e"/>
      <use xlink:href="#DejaVuSans-75" x="74.804688"/>
      <use xlink:href="#DejaVuSans-6d" x="138.183594"/>
      <use xlink:href="#DejaVuSans-62" x="235.595703"/>
      <use xlink:href="#DejaVuSans-65" x="299.072266"/>
      <use xlink:href="#DejaVuSans-72" x="360.595703"/>
      <use xlink:href="#DejaVuSans-20" x="401.708984"/>
      <use xlink:href="#DejaVuSans-6f" x="433.496094"/>
      <use xlink:href="#DejaVuSans-66" x="494.677734"/>
      <use xlink:href="#DejaVuSans-20" x="529.882812"/>
      <use xlink:href="#DejaVuSans-70" x="561.669922"/>
      <use xlink:href="#DejaVuSans-72" x="625.146484"/>
      <use xlink:href="#DejaVuSans-6f" x="664.009766"/>
      <use xlink:href="#DejaVuSans-74" x="725.191406"/>
      <use xlink:href="#DejaVuSans-65" x="764.400391"/>
      <use xlink:href="#DejaVuSans-69" x="825.923828"/>
      <use xlink:href="#DejaVuSans-6e" x="853.707031"/>
      <use xlink:href="#DejaVuSans-73" x="917.085938"/>
     </g>
    </g>
   </g>
   <g id="patch_3">
    <path d="M 61.49 280.45113 
L 61.49 67.82887 
" style="fill: none; stroke: #000000; stroke-width: 0.8; stroke-linejoin: miter; stroke-linecap: square"/>
   </g>
   <g id="patch_4">
    <path d="M 61.49 280.45113 
L 444.567533 280.45113 
" style="fill: none; stroke: #000000; stroke-width: 0.8; stroke-linejoin: miter; stroke-linecap: square"/>
   </g>
   <g id="legend_1">
    <g id="patch_5">
     <path d="M 126.038923 62.82887 
L 380.01861 62.82887 
Q 382.01861 62.82887 382.01861 60.82887 
L 382.01861 32.47262 
Q 382.01861 30.47262 380.01861 30.47262 
L 126.038923 30.47262 
Q 124.038923 30.47262 124.038923 32.47262 
L 124.038923 60.82887 
Q 124.038923 62.82887 126.038923 62.82887 
z
" style="fill: #ffffff; opacity: 0.8; stroke: #cccccc; stroke-linejoin: miter"/>
    </g>
    <g id="patch_6">
     <path d="M 128.038923 42.071058 
L 148.038923 42.071058 
L 148.038923 35.071058 
L 128.038923 35.071058 
z
" style="fill: #fb363b"/>
    </g>
    <g id="text_15">
     <!-- Published -->
     <g transform="translate(156.038923 42.071058) scale(0.1 -0.1)">
      <defs>
       <path id="DejaVuSans-50" d="M 1259 4147 
L 1259 2394 
L 2053 2394 
Q 2494 2394 2734 2622 
Q 2975 2850 2975 3272 
Q 2975 3691 2734 3919 
Q 2494 4147 2053 4147 
L 1259 4147 
z
M 628 4666 
L 2053 4666 
Q 2838 4666 3239 4311 
Q 3641 3956 3641 3272 
Q 3641 2581 3239 2228 
Q 2838 1875 2053 1875 
L 1259 1875 
L 1259 0 
L 628 0 
L 628 4666 
z
" transform="scale(0.015625)"/>
       <path id="DejaVuSans-6c" d="M 603 4863 
L 1178 4863 
L 1178 0 
L 603 0 
L 603 4863 
z
" transform="scale(0.015625)"/>
       <path id="DejaVuSans-68" d="M 3513 2113 
L 3513 0 
L 2938 0 
L 2938 2094 
Q 2938 2591 2744 2837 
Q 2550 3084 2163 3084 
Q 1697 3084 1428 2787 
Q 1159 2491 1159 1978 
L 1159 0 
L 581 0 
L 581 4863 
L 1159 4863 
L 1159 2956 
Q 1366 3272 1645 3428 
Q 1925 3584 2291 3584 
Q 2894 3584 3203 3211 
Q 3513 2838 3513 2113 
z
" transform="scale(0.015625)"/>
       <path id="DejaVuSans-64" d="M 2906 2969 
L 2906 4863 
L 3481 4863 
L 3481 0 
L 2906 0 
L 2906 525 
Q 2725 213 2448 61 
Q 2172 -91 1784 -91 
Q 1150 -91 751 415 
Q 353 922 353 1747 
Q 353 2572 751 3078 
Q 1150 3584 1784 3584 
Q 2172 3584 2448 3432 
Q 2725 3281 2906 2969 
z
M 947 1747 
Q 947 1113 1208 752 
Q 1469 391 1925 391 
Q 2381 391 2643 752 
Q 2906 1113 2906 1747 
Q 2906 2381 2643 2742 
Q 2381 3103 1925 3103 
Q 1469 3103 1208 2742 
Q 947 2381 947 1747 
z
" transform="scale(0.015625)"/>
      </defs>
      <use xlink:href="#DejaVuSans-50"/>
      <use xlink:href="#DejaVuSans-75" x="58.552734"/>
      <use xlink:href="#DejaVuSans-62" x="121.931641"/>
      <use xlink:href="#DejaVuSans-6c" x="185.408203"/>
      <use xlink:href="#DejaVuSans-69" x="213.191406"/>
      <use xlink:href="#DejaVuSans-73" x="240.974609"/>
      <use xlink:href="#DejaVuSans-68" x="293.074219"/>
      <use xlink:href="#DejaVuSans-65" x="356.453125"/>
      <use xlink:href="#DejaVuSans-64" x="417.976562"/>
     </g>
    </g>
    <g id="patch_7">
     <path d="M 128.038923 56.749183 
L 148.038923 56.749183 
L 148.038923 49.749183 
L 128.038923 49.749183 
z
" style="fill: #fdc92c"/>
    </g>
    <g id="text_16">
     <!-- Inferred role -->
     <g transform="translate(156.038923 56.749183) scale(0.1 -0.1)">
      <defs>
       <path id="DejaVuSans-49" d="M 628 4666 
L 1259 4666 
L 1259 0 
L 628 0 
L 628 4666 
z
" transform="scale(0.015625)"/>
      </defs>
      <use xlink:href="#DejaVuSans-49"/>
      <use xlink:href="#DejaVuSans-6e" x="29.492188"/>
      <use xlink:href="#DejaVuSans-66" x="92.871094"/>
      <use xlink:href="#DejaVuSans-65" x="128.076172"/>
      <use xlink:href="#DejaVuSans-72" x="189.599609"/>
      <use xlink:href="#DejaVuSans-72" x="228.962891"/>
      <use xlink:href="#DejaVuSans-65" x="267.826172"/>
      <use xlink:href="#DejaVuSans-64" x="329.349609"/>
      <use xlink:href="#DejaVuSans-20" x="392.826172"/>
      <use xlink:href="#DejaVuSans-72" x="424.613281"/>
      <use xlink:href="#DejaVuSans-6f" x="463.476562"/>
      <use xlink:href="#DejaVuSans-6c" x="524.658203"/>
      <use xlink:href="#DejaVuSans-65" x="552.441406"/>
     </g>
    </g>
    <g id="patch_8">
     <path d="M 237.43736 42.071058 
L 257.43736 42.071058 
L 257.43736 35.071058 
L 237.43736 35.071058 
z
" style="fill: #aeaeae"/>
    </g>
    <g id="text_17">
     <!-- Conserved unknown -->
     <g transform="translate(265.43736 42.071058) scale(0.1 -0.1)">
      <defs>
       <path id="DejaVuSans-43" d="M 4122 4306 
L 4122 3641 
Q 3803 3938 3442 4084 
Q 3081 4231 2675 4231 
Q 1875 4231 1450 3742 
Q 1025 3253 1025 2328 
Q 1025 1406 1450 917 
Q 1875 428 2675 428 
Q 3081 428 3442 575 
Q 3803 722 4122 1019 
L 4122 359 
Q 3791 134 3420 21 
Q 3050 -91 2638 -91 
Q 1578 -91 968 557 
Q 359 1206 359 2328 
Q 359 3453 968 4101 
Q 1578 4750 2638 4750 
Q 3056 4750 3426 4639 
Q 3797 4528 4122 4306 
z
" transform="scale(0.015625)"/>
       <path id="DejaVuSans-76" d="M 191 3500 
L 800 3500 
L 1894 563 
L 2988 3500 
L 3597 3500 
L 2284 0 
L 1503 0 
L 191 3500 
z
" transform="scale(0.015625)"/>
       <path id="DejaVuSans-6b" d="M 581 4863 
L 1159 4863 
L 1159 1991 
L 2875 3500 
L 3609 3500 
L 1753 1863 
L 3688 0 
L 2938 0 
L 1159 1709 
L 1159 0 
L 581 0 
L 581 4863 
z
" transform="scale(0.015625)"/>
       <path id="DejaVuSans-77" d="M 269 3500 
L 844 3500 
L 1563 769 
L 2278 3500 
L 2956 3500 
L 3675 769 
L 4391 3500 
L 4966 3500 
L 4050 0 
L 3372 0 
L 2619 2869 
L 1863 0 
L 1184 0 
L 269 3500 
z
" transform="scale(0.015625)"/>
      </defs>
      <use xlink:href="#DejaVuSans-43"/>
      <use xlink:href="#DejaVuSans-6f" x="69.824219"/>
      <use xlink:href="#DejaVuSans-6e" x="131.005859"/>
      <use xlink:href="#DejaVuSans-73" x="194.384766"/>
      <use xlink:href="#DejaVuSans-65" x="246.484375"/>
      <use xlink:href="#DejaVuSans-72" x="308.007812"/>
      <use xlink:href="#DejaVuSans-76" x="349.121094"/>
      <use xlink:href="#DejaVuSans-65" x="408.300781"/>
      <use xlink:href="#DejaVuSans-64" x="469.824219"/>
      <use xlink:href="#DejaVuSans-20" x="533.300781"/>
      <use xlink:href="#DejaVuSans-75" x="565.087891"/>
      <use xlink:href="#DejaVuSans-6e" x="628.466797"/>
      <use xlink:href="#DejaVuSans-6b" x="691.845703"/>
      <use xlink:href="#DejaVuSans-6e" x="749.755859"/>
      <use xlink:href="#DejaVuSans-6f" x="813.134766"/>
      <use xlink:href="#DejaVuSans-77" x="874.316406"/>
      <use xlink:href="#DejaVuSans-6e" x="956.103516"/>
     </g>
    </g>
    <g id="patch_9">
     <path d="M 237.43736 56.749183 
L 257.43736 56.749183 
L 257.43736 49.749183 
L 237.43736 49.749183 
z
" style="fill: #d5dce5"/>
    </g>
    <g id="text_18">
     <!-- Fission yeast unknown -->
     <g transform="translate(265.43736 56.749183) scale(0.1 -0.1)">
      <defs>
       <path id="DejaVuSans-46" d="M 628 4666 
L 3309 4666 
L 3309 4134 
L 1259 4134 
L 1259 2759 
L 3109 2759 
L 3109 2228 
L 1259 2228 
L 1259 0 
L 628 0 
L 628 4666 
z
" transform="scale(0.015625)"/>
       <path id="DejaVuSans-79" d="M 2059 -325 
Q 1816 -950 1584 -1140 
Q 1353 -1331 966 -1331 
L 506 -1331 
L 506 -850 
L 844 -850 
Q 1081 -850 1212 -737 
Q 1344 -625 1503 -206 
L 1606 56 
L 191 3500 
L 800 3500 
L 1894 763 
L 2988 3500 
L 3597 3500 
L 2059 -325 
z
" transform="scale(0.015625)"/>
      </defs>
      <use xlink:href="#DejaVuSans-46"/>
      <use xlink:href="#DejaVuSans-69" x="50.269531"/>
      <use xlink:href="#DejaVuSans-73" x="78.052734"/>
      <use xlink:href="#DejaVuSans-73" x="130.152344"/>
      <use xlink:href="#DejaVuSans-69" x="182.251953"/>
      <use xlink:href="#DejaVuSans-6f" x="210.035156"/>
      <use xlink:href="#DejaVuSans-6e" x="271.216797"/>
      <use xlink:href="#DejaVuSans-20" x="334.595703"/>
      <use xlink:href="#DejaVuSans-79" x="366.382812"/>
      <use xlink:href="#DejaVuSans-65" x="425.5625"/>
      <use xlink:href="#DejaVuSans-61" x="487.085938"/>
      <use xlink:href="#DejaVuSans-73" x="548.365234"/>
      <use xlink:href="#DejaVuSans-74" x="600.464844"/>
      <use xlink:href="#DejaVuSans-20" x="639.673828"/>
      <use xlink:href="#DejaVuSans-75" x="671.460938"/>
      <use xlink:href="#DejaVuSans-6e" x="734.839844"/>
      <use xlink:href="#DejaVuSans-6b" x="798.21875"/>
      <use xlink:href="#DejaVuSans-6e" x="856.128906"/>
      <use xlink:href="#DejaVuSans-6f" x="919.507812"/>
      <use xlink:href="#DejaVuSans-77" x="980.689453"/>
      <use xlink:href="#DejaVuSans-6e" x="1062.476562"/>
     </g>
    </g>
   </g>
  </g>
 </g>
 <defs>
  <clipPath id="p1d42e30b57">
   <rect x="61.49" y="67.82887" width="383.077533" height="212.62226"/>
  </clipPath>
 </defs>
</svg>
