<?xml version="1.0" encoding="utf-8" standalone="no"?>
<!DOCTYPE svg PUBLIC "-//W3C//DTD SVG 1.1//EN"
  "http://www.w3.org/Graphics/SVG/1.1/DTD/svg11.dtd">
<svg xmlns:xlink="http://www.w3.org/1999/xlink" width="460.8pt" height="345.6pt" viewBox="0 0 460.8 345.6" xmlns="http://www.w3.org/2000/svg" version="1.1">
 <metadata>
  <rdf:RDF xmlns:dc="http://purl.org/dc/elements/1.1/" xmlns:cc="http://creativecommons.org/ns#" xmlns:rdf="http://www.w3.org/1999/02/22-rdf-syntax-ns#">
   <cc:Work>
    <dc:type rdf:resource="http://purl.org/dc/dcmitype/StillImage"/>
    <dc:date>2024-11-02T01:01:45.398561</dc:date>
    <dc:format>image/svg+xml</dc:format>
    <dc:creator>
     <cc:Agent>
      <dc:title>Matplotlib v3.7.1, https://matplotlib.org/</dc:title>
     </cc:Agent>
    </dc:creator>
   </cc:Work>
  </rdf:RDF>
 </metadata>
 <defs>
  <style type="text/css">*{stroke-linejoin: round; stroke-linecap: butt}</style>
 </defs>
 <g id="figure_1">
  <g id="patch_1">
   <path d="M 0 345.6 
L 460.8 345.6 
L 460.8 0 
L 0 0 
z
" style="fill: #ffffff"/>
  </g>
  <g id="axes_1">
   <g id="patch_2">
    <path d="M 61.49 279.667509 
L 450 279.667509 
L 450 68.218769 
L 61.49 68.218769 
z
" style="fill: #ffffff"/>
   </g>
   <g id="PolyCollection_1">
    <path d="M 31.451847 226.005962 
L 31.451847 279.667509 
L 39.84267 279.667509 
L 48.134193 279.667509 
L 65.164088 279.667509 
L 84.924725 279.667509 
L 99.472128 279.667509 
L 108.508399 279.667509 
L 110.841941 279.667509 
L 115.161477 279.667509 
L 117.147471 279.667509 
L 117.39572 279.667509 
L 120.67261 279.667509 
L 121.516657 279.667509 
L 122.211755 279.667509 
L 123.055802 279.667509 
L 123.60195 279.667509 
L 124.445997 279.667509 
L 124.942496 279.667509 
L 125.836193 279.667509 
L 127.027789 279.667509 
L 127.971136 279.667509 
L 128.318685 279.667509 
L 129.311682 279.667509 
L 130.00678 279.667509 
L 130.751527 279.667509 
L 131.545925 279.667509 
L 132.092073 279.667509 
L 132.588571 279.667509 
L 133.978767 279.667509 
L 134.971764 279.667509 
L 135.716511 279.667509 
L 135.915111 279.667509 
L 136.610208 279.667509 
L 137.652855 279.667509 
L 138.745151 279.667509 
L 139.489899 279.667509 
L 140.582196 279.667509 
L 142.022041 279.667509 
L 144.008035 279.667509 
L 145.745779 279.667509 
L 147.235274 279.667509 
L 150.015665 279.667509 
L 151.207261 279.667509 
L 154.434501 279.667509 
L 156.519794 279.667509 
L 157.81069 279.667509 
L 158.605088 279.667509 
L 161.733027 279.667509 
L 163.470772 279.667509 
L 165.258166 279.667509 
L 168.783305 279.667509 
L 172.060194 279.667509 
L 172.606342 279.667509 
L 173.25179 279.667509 
L 174.244787 279.667509 
L 175.039185 279.667509 
L 177.472027 279.667509 
L 182.337711 279.667509 
L 183.281058 279.667509 
L 187.848843 279.667509 
L 188.89149 279.667509 
L 189.934137 279.667509 
L 191.622231 279.667509 
L 193.012427 279.667509 
L 194.352973 279.667509 
L 195.19702 279.667509 
L 197.927761 279.667509 
L 200.757802 279.667509 
L 202.147997 279.667509 
L 203.140994 279.667509 
L 204.38224 279.667509 
L 205.424887 279.667509 
L 206.666133 279.667509 
L 209.595473 279.667509 
L 211.134619 279.667509 
L 212.624114 279.667509 
L 214.163259 279.667509 
L 215.652754 279.667509 
L 217.191899 279.667509 
L 218.731044 279.667509 
L 220.170889 279.667509 
L 221.710035 279.667509 
L 223.19953 279.667509 
L 224.738675 279.667509 
L 226.22817 279.667509 
L 227.767315 279.667509 
L 229.30646 279.667509 
L 230.795955 279.667509 
L 232.3351 279.667509 
L 233.824596 279.667509 
L 235.363741 279.667509 
L 236.902886 279.667509 
L 238.293081 279.667509 
L 239.832226 279.667509 
L 241.321721 279.667509 
L 242.860866 279.667509 
L 244.350362 279.667509 
L 245.889507 279.667509 
L 247.428652 279.667509 
L 248.918147 279.667509 
L 250.457292 279.667509 
L 251.946787 279.667509 
L 253.485932 279.667509 
L 255.025077 279.667509 
L 256.415273 279.667509 
L 257.954418 279.667509 
L 259.443913 279.667509 
L 260.983058 279.667509 
L 262.472553 279.667509 
L 264.011698 279.667509 
L 265.550843 279.667509 
L 267.040339 279.667509 
L 268.579484 279.667509 
L 270.068979 279.667509 
L 271.608124 279.667509 
L 273.147269 279.667509 
L 274.537465 279.667509 
L 276.07661 279.667509 
L 277.566105 279.667509 
L 279.10525 279.667509 
L 280.594745 279.667509 
L 282.13389 279.667509 
L 283.673035 279.667509 
L 285.16253 279.667509 
L 286.701675 279.667509 
L 288.191171 279.667509 
L 289.730316 279.667509 
L 291.269461 279.667509 
L 292.709306 279.667509 
L 294.248451 279.667509 
L 295.737946 279.667509 
L 297.277091 279.667509 
L 298.766587 279.667509 
L 300.305732 279.667509 
L 301.844877 279.667509 
L 303.334372 279.667509 
L 304.873517 279.667509 
L 306.363012 279.667509 
L 307.902157 279.667509 
L 309.441302 279.667509 
L 310.831498 279.667509 
L 312.370643 279.667509 
L 313.860138 279.667509 
L 315.399283 279.667509 
L 316.888778 279.667509 
L 318.427923 279.667509 
L 319.967068 279.667509 
L 321.456564 279.667509 
L 322.995709 279.667509 
L 324.485204 279.667509 
L 326.024349 279.667509 
L 327.563494 279.667509 
L 328.953689 279.667509 
L 330.492835 279.667509 
L 331.98233 279.667509 
L 333.521475 279.667509 
L 335.01097 279.667509 
L 336.550115 279.667509 
L 338.08926 279.667509 
L 339.578755 279.667509 
L 341.1179 279.667509 
L 342.607396 279.667509 
L 344.146541 279.667509 
L 345.685686 279.667509 
L 347.075881 279.667509 
L 348.615026 279.667509 
L 350.104521 279.667509 
L 351.643666 279.667509 
L 353.133162 279.667509 
L 354.672307 279.667509 
L 356.211452 279.667509 
L 357.700947 279.667509 
L 359.240092 279.667509 
L 360.729587 279.667509 
L 362.268732 279.667509 
L 363.807877 279.667509 
L 365.247723 279.667509 
L 366.786868 279.667509 
L 368.276363 279.667509 
L 369.815508 279.667509 
L 371.305003 279.667509 
L 372.844148 279.667509 
L 374.383293 279.667509 
L 375.872788 279.667509 
L 377.411934 279.667509 
L 378.901429 279.667509 
L 380.440574 279.667509 
L 381.979719 279.667509 
L 383.369914 279.667509 
L 384.909059 279.667509 
L 386.398555 279.667509 
L 387.9377 279.667509 
L 389.427195 279.667509 
L 390.96634 279.667509 
L 392.505485 279.667509 
L 393.99498 279.667509 
L 395.534125 279.667509 
L 397.02362 279.667509 
L 398.562765 279.667509 
L 400.101911 279.667509 
L 401.492106 279.667509 
L 403.031251 279.667509 
L 404.520746 279.667509 
L 406.059891 279.667509 
L 407.549387 279.667509 
L 409.088532 279.667509 
L 410.627677 279.667509 
L 412.117172 279.667509 
L 413.656317 279.667509 
L 415.145812 279.667509 
L 416.684957 279.667509 
L 418.224102 279.667509 
L 419.614298 279.667509 
L 421.153443 279.667509 
L 422.642938 279.667509 
L 424.182083 279.667509 
L 425.671578 279.667509 
L 427.210723 279.667509 
L 428.749868 279.667509 
L 430.239364 279.667509 
L 431.778509 279.667509 
L 433.268004 279.667509 
L 434.807149 279.667509 
L 436.346294 279.667509 
L 437.786139 279.667509 
L 439.325284 279.667509 
L 440.81478 279.667509 
L 442.353925 279.667509 
L 443.84342 279.667509 
L 445.382565 279.667509 
L 446.92171 279.667509 
L 448.411205 279.667509 
L 449.95035 279.667509 
L 449.95035 175.164525 
L 449.95035 175.164525 
L 448.411205 175.164525 
L 446.92171 175.402844 
L 445.382565 175.402844 
L 443.84342 176.276682 
L 442.353925 176.83276 
L 440.81478 176.951919 
L 439.325284 177.071079 
L 437.786139 177.150519 
L 436.346294 178.858473 
L 434.807149 178.977633 
L 433.268004 179.017353 
L 431.778509 179.255672 
L 430.239364 179.374832 
L 428.749868 179.414552 
L 427.210723 179.533711 
L 425.671578 180.01035 
L 424.182083 180.248669 
L 422.642938 180.367828 
L 421.153443 180.367828 
L 419.614298 180.725307 
L 418.224102 181.321105 
L 416.684957 181.281386 
L 415.145812 181.400545 
L 413.656317 181.519705 
L 412.117172 181.758024 
L 410.627677 181.758024 
L 409.088532 181.797744 
L 407.549387 181.797744 
L 406.059891 181.758024 
L 404.520746 181.837464 
L 403.031251 181.758024 
L 401.492106 181.718304 
L 400.101911 181.758024 
L 398.562765 181.758024 
L 397.02362 181.956623 
L 395.534125 182.155223 
L 393.99498 182.472982 
L 392.505485 182.711301 
L 390.96634 182.671581 
L 389.427195 182.87018 
L 387.9377 183.14822 
L 386.398555 183.14822 
L 384.909059 183.307099 
L 383.369914 183.823457 
L 381.979719 183.942617 
L 380.440574 184.379536 
L 378.901429 184.419255 
L 377.411934 184.578135 
L 375.872788 184.657575 
L 374.383293 184.816454 
L 372.844148 184.856174 
L 371.305003 184.935614 
L 369.815508 184.935614 
L 368.276363 185.015054 
L 366.786868 185.372532 
L 365.247723 185.491692 
L 363.807877 185.571132 
L 362.268732 185.650572 
L 360.729587 185.650572 
L 359.240092 185.650572 
L 357.700947 185.769731 
L 356.211452 185.849171 
L 354.672307 186.00805 
L 353.133162 186.24637 
L 351.643666 186.365529 
L 350.104521 186.444969 
L 348.615026 186.524409 
L 347.075881 186.564129 
L 345.685686 186.564129 
L 344.146541 186.603848 
L 342.607396 186.643568 
L 341.1179 186.723008 
L 339.578755 186.762728 
L 338.08926 186.762728 
L 336.550115 186.881888 
L 335.01097 187.001047 
L 333.521475 187.239366 
L 331.98233 187.398246 
L 330.492835 187.716005 
L 328.953689 187.874884 
L 327.563494 188.033764 
L 326.024349 188.073484 
L 324.485204 188.232363 
L 322.995709 188.391243 
L 321.456564 190.138917 
L 319.967068 190.416956 
L 318.427923 191.171634 
L 316.888778 190.536116 
L 315.399283 190.456676 
L 313.860138 190.496396 
L 312.370643 190.575836 
L 310.831498 190.853875 
L 309.441302 190.893595 
L 307.902157 190.973034 
L 306.363012 191.727712 
L 304.873517 191.846872 
L 303.334372 192.045471 
L 301.844877 192.124911 
L 300.305732 192.24407 
L 298.766587 192.680989 
L 297.277091 192.879588 
L 295.737946 192.879588 
L 294.248451 193.276787 
L 292.709306 193.356227 
L 291.269461 193.395947 
L 289.730316 193.594546 
L 288.191171 193.673986 
L 286.701675 193.673986 
L 285.16253 193.872585 
L 283.673035 193.912305 
L 282.13389 193.952025 
L 280.594745 194.110904 
L 279.10525 194.230064 
L 277.566105 193.634266 
L 276.07661 193.713706 
L 274.537465 193.912305 
L 273.147269 193.912305 
L 271.608124 194.150624 
L 270.068979 194.309504 
L 268.579484 194.587543 
L 267.040339 194.945022 
L 265.550843 195.262781 
L 264.011698 195.34222 
L 262.472553 195.620259 
L 260.983058 195.858579 
L 259.443913 196.216058 
L 257.954418 196.374937 
L 256.415273 196.573536 
L 255.025077 196.613256 
L 253.485932 196.613256 
L 251.946787 196.811856 
L 250.457292 197.288494 
L 248.918147 197.328214 
L 247.428652 197.566533 
L 245.889507 198.241771 
L 244.350362 198.321211 
L 242.860866 198.797849 
L 241.321721 199.115608 
L 239.832226 200.188045 
L 238.293081 200.267484 
L 236.902886 200.386644 
L 235.363741 200.664683 
L 233.824596 200.744123 
L 232.3351 200.982442 
L 230.795955 201.181042 
L 229.30646 201.53852 
L 227.767315 201.73712 
L 226.22817 201.856279 
L 224.738675 202.094599 
L 223.19953 202.134318 
L 221.710035 202.253478 
L 220.170889 202.412358 
L 218.731044 202.412358 
L 217.191899 202.491797 
L 215.652754 202.531517 
L 214.163259 202.571237 
L 212.624114 202.610957 
L 211.134619 202.650677 
L 209.595473 202.769836 
L 206.666133 203.524514 
L 205.424887 203.723113 
L 204.38224 203.762833 
L 203.140994 203.643674 
L 202.147997 203.643674 
L 200.757802 203.762833 
L 197.927761 203.881993 
L 195.19702 204.517511 
L 194.352973 205.470788 
L 193.012427 205.311908 
L 191.622231 205.272188 
L 189.934137 205.987146 
L 188.89149 205.987146 
L 187.848843 205.748827 
L 183.281058 206.265185 
L 182.337711 206.344625 
L 177.472027 207.019863 
L 175.039185 207.099302 
L 174.244787 206.940423 
L 173.25179 207.059583 
L 172.606342 207.258182 
L 172.060194 207.297902 
L 168.783305 207.417061 
L 165.258166 207.496501 
L 163.470772 207.695101 
L 161.733027 209.800254 
L 158.605088 209.720814 
L 157.81069 209.760534 
L 156.519794 210.197453 
L 154.434501 211.309609 
L 151.207261 211.547928 
L 150.015665 211.945127 
L 147.235274 212.223166 
L 145.745779 213.057283 
L 144.008035 213.613362 
L 142.022041 214.05028 
L 140.582196 214.09 
L 139.489899 214.16944 
L 138.745151 214.20916 
L 137.652855 214.248879 
L 136.610208 214.963837 
L 135.915111 215.321316 
L 135.716511 215.321316 
L 134.971764 215.321316 
L 133.978767 215.559635 
L 132.588571 215.321316 
L 132.092073 215.519915 
L 131.545925 215.599355 
L 130.751527 215.718515 
L 130.00678 215.718515 
L 129.311682 216.036274 
L 128.318685 216.751231 
L 127.971136 216.711512 
L 127.027789 217.06899 
L 125.836193 217.14843 
L 124.942496 217.22787 
L 124.445997 217.30731 
L 123.60195 217.426469 
L 123.055802 217.664788 
L 122.211755 217.863388 
L 121.516657 217.783948 
L 120.67261 217.863388 
L 117.39572 218.141427 
L 117.147471 218.101707 
L 115.161477 218.419466 
L 110.841941 216.512912 
L 108.508399 219.333023 
L 99.472128 223.026971 
L 84.924725 226.4826 
L 65.164088 230.931226 
L 48.134193 225.807362 
L 39.84267 225.171844 
L 31.451847 226.005962 
z
" clip-path="url(#p096a0d040b)" style="fill: #fb363b"/>
   </g>
   <g id="PolyCollection_2">
    <path d="M 31.451847 144.341904 
L 31.451847 226.005962 
L 39.84267 225.171844 
L 48.134193 225.807362 
L 65.164088 230.931226 
L 84.924725 226.4826 
L 99.472128 223.026971 
L 108.508399 219.333023 
L 110.841941 216.512912 
L 115.161477 218.419466 
L 117.147471 218.101707 
L 117.39572 218.141427 
L 120.67261 217.863388 
L 121.516657 217.783948 
L 122.211755 217.863388 
L 123.055802 217.664788 
L 123.60195 217.426469 
L 124.445997 217.30731 
L 124.942496 217.22787 
L 125.836193 217.14843 
L 127.027789 217.06899 
L 127.971136 216.711512 
L 128.318685 216.751231 
L 129.311682 216.036274 
L 130.00678 215.718515 
L 130.751527 215.718515 
L 131.545925 215.599355 
L 132.092073 215.519915 
L 132.588571 215.321316 
L 133.978767 215.559635 
L 134.971764 215.321316 
L 135.716511 215.321316 
L 135.915111 215.321316 
L 136.610208 214.963837 
L 137.652855 214.248879 
L 138.745151 214.20916 
L 139.489899 214.16944 
L 140.582196 214.09 
L 142.022041 214.05028 
L 144.008035 213.613362 
L 145.745779 213.057283 
L 147.235274 212.223166 
L 150.015665 211.945127 
L 151.207261 211.547928 
L 154.434501 211.309609 
L 156.519794 210.197453 
L 157.81069 209.760534 
L 158.605088 209.720814 
L 161.733027 209.800254 
L 163.470772 207.695101 
L 165.258166 207.496501 
L 168.783305 207.417061 
L 172.060194 207.297902 
L 172.606342 207.258182 
L 173.25179 207.059583 
L 174.244787 206.940423 
L 175.039185 207.099302 
L 177.472027 207.019863 
L 182.337711 206.344625 
L 183.281058 206.265185 
L 187.848843 205.748827 
L 188.89149 205.987146 
L 189.934137 205.987146 
L 191.622231 205.272188 
L 193.012427 205.311908 
L 194.352973 205.470788 
L 195.19702 204.517511 
L 197.927761 203.881993 
L 200.757802 203.762833 
L 202.147997 203.643674 
L 203.140994 203.643674 
L 204.38224 203.762833 
L 205.424887 203.723113 
L 206.666133 203.524514 
L 209.595473 202.769836 
L 211.134619 202.650677 
L 212.624114 202.610957 
L 214.163259 202.571237 
L 215.652754 202.531517 
L 217.191899 202.491797 
L 218.731044 202.412358 
L 220.170889 202.412358 
L 221.710035 202.253478 
L 223.19953 202.134318 
L 224.738675 202.094599 
L 226.22817 201.856279 
L 227.767315 201.73712 
L 229.30646 201.53852 
L 230.795955 201.181042 
L 232.3351 200.982442 
L 233.824596 200.744123 
L 235.363741 200.664683 
L 236.902886 200.386644 
L 238.293081 200.267484 
L 239.832226 200.188045 
L 241.321721 199.115608 
L 242.860866 198.797849 
L 244.350362 198.321211 
L 245.889507 198.241771 
L 247.428652 197.566533 
L 248.918147 197.328214 
L 250.457292 197.288494 
L 251.946787 196.811856 
L 253.485932 196.613256 
L 255.025077 196.613256 
L 256.415273 196.573536 
L 257.954418 196.374937 
L 259.443913 196.216058 
L 260.983058 195.858579 
L 262.472553 195.620259 
L 264.011698 195.34222 
L 265.550843 195.262781 
L 267.040339 194.945022 
L 268.579484 194.587543 
L 270.068979 194.309504 
L 271.608124 194.150624 
L 273.147269 193.912305 
L 274.537465 193.912305 
L 276.07661 193.713706 
L 277.566105 193.634266 
L 279.10525 194.230064 
L 280.594745 194.110904 
L 282.13389 193.952025 
L 283.673035 193.912305 
L 285.16253 193.872585 
L 286.701675 193.673986 
L 288.191171 193.673986 
L 289.730316 193.594546 
L 291.269461 193.395947 
L 292.709306 193.356227 
L 294.248451 193.276787 
L 295.737946 192.879588 
L 297.277091 192.879588 
L 298.766587 192.680989 
L 300.305732 192.24407 
L 301.844877 192.124911 
L 303.334372 192.045471 
L 304.873517 191.846872 
L 306.363012 191.727712 
L 307.902157 190.973034 
L 309.441302 190.893595 
L 310.831498 190.853875 
L 312.370643 190.575836 
L 313.860138 190.496396 
L 315.399283 190.456676 
L 316.888778 190.536116 
L 318.427923 191.171634 
L 319.967068 190.416956 
L 321.456564 190.138917 
L 322.995709 188.391243 
L 324.485204 188.232363 
L 326.024349 188.073484 
L 327.563494 188.033764 
L 328.953689 187.874884 
L 330.492835 187.716005 
L 331.98233 187.398246 
L 333.521475 187.239366 
L 335.01097 187.001047 
L 336.550115 186.881888 
L 338.08926 186.762728 
L 339.578755 186.762728 
L 341.1179 186.723008 
L 342.607396 186.643568 
L 344.146541 186.603848 
L 345.685686 186.564129 
L 347.075881 186.564129 
L 348.615026 186.524409 
L 350.104521 186.444969 
L 351.643666 186.365529 
L 353.133162 186.24637 
L 354.672307 186.00805 
L 356.211452 185.849171 
L 357.700947 185.769731 
L 359.240092 185.650572 
L 360.729587 185.650572 
L 362.268732 185.650572 
L 363.807877 185.571132 
L 365.247723 185.491692 
L 366.786868 185.372532 
L 368.276363 185.015054 
L 369.815508 184.935614 
L 371.305003 184.935614 
L 372.844148 184.856174 
L 374.383293 184.816454 
L 375.872788 184.657575 
L 377.411934 184.578135 
L 378.901429 184.419255 
L 380.440574 184.379536 
L 381.979719 183.942617 
L 383.369914 183.823457 
L 384.909059 183.307099 
L 386.398555 183.14822 
L 387.9377 183.14822 
L 389.427195 182.87018 
L 390.96634 182.671581 
L 392.505485 182.711301 
L 393.99498 182.472982 
L 395.534125 182.155223 
L 397.02362 181.956623 
L 398.562765 181.758024 
L 400.101911 181.758024 
L 401.492106 181.718304 
L 403.031251 181.758024 
L 404.520746 181.837464 
L 406.059891 181.758024 
L 407.549387 181.797744 
L 409.088532 181.797744 
L 410.627677 181.758024 
L 412.117172 181.758024 
L 413.656317 181.519705 
L 415.145812 181.400545 
L 416.684957 181.281386 
L 418.224102 181.321105 
L 419.614298 180.725307 
L 421.153443 180.367828 
L 422.642938 180.367828 
L 424.182083 180.248669 
L 425.671578 180.01035 
L 427.210723 179.533711 
L 428.749868 179.414552 
L 430.239364 179.374832 
L 431.778509 179.255672 
L 433.268004 179.017353 
L 434.807149 178.977633 
L 436.346294 178.858473 
L 437.786139 177.150519 
L 439.325284 177.071079 
L 440.81478 176.951919 
L 442.353925 176.83276 
L 443.84342 176.276682 
L 445.382565 175.402844 
L 446.92171 175.402844 
L 448.411205 175.164525 
L 449.95035 175.164525 
L 449.95035 102.27856 
L 449.95035 102.27856 
L 448.411205 102.397719 
L 446.92171 102.437439 
L 445.382565 102.675758 
L 443.84342 102.556599 
L 442.353925 102.516879 
L 440.81478 102.675758 
L 439.325284 102.755198 
L 437.786139 102.715478 
L 436.346294 102.993517 
L 434.807149 103.271557 
L 433.268004 103.271557 
L 431.778509 103.390716 
L 430.239364 103.549596 
L 428.749868 103.629035 
L 427.210723 103.629035 
L 425.671578 103.907075 
L 424.182083 104.145394 
L 422.642938 104.264553 
L 421.153443 104.264553 
L 419.614298 104.304273 
L 418.224102 104.463153 
L 416.684957 104.582312 
L 415.145812 104.661752 
L 413.656317 104.661752 
L 412.117172 104.701472 
L 410.627677 104.582312 
L 409.088532 104.622032 
L 407.549387 104.622032 
L 406.059891 104.820632 
L 404.520746 104.780912 
L 403.031251 104.780912 
L 401.492106 104.820632 
L 400.101911 104.900071 
L 398.562765 104.900071 
L 397.02362 105.019231 
L 395.534125 104.979511 
L 393.99498 105.098671 
L 392.505485 105.138391 
L 390.96634 105.17811 
L 389.427195 105.21783 
L 387.9377 105.25755 
L 386.398555 105.21783 
L 384.909059 105.33699 
L 383.369914 105.535589 
L 381.979719 105.694469 
L 380.440574 105.734189 
L 378.901429 105.734189 
L 377.411934 105.813628 
L 375.872788 105.853348 
L 374.383293 105.932788 
L 372.844148 105.932788 
L 371.305003 105.972508 
L 369.815508 106.012228 
L 368.276363 105.893068 
L 366.786868 105.853348 
L 365.247723 105.893068 
L 363.807877 105.813628 
L 362.268732 105.813628 
L 360.729587 105.813628 
L 359.240092 105.813628 
L 357.700947 105.813628 
L 356.211452 105.853348 
L 354.672307 105.813628 
L 353.133162 105.853348 
L 351.643666 105.853348 
L 350.104521 105.734189 
L 348.615026 105.734189 
L 347.075881 105.773908 
L 345.685686 105.773908 
L 344.146541 105.853348 
L 342.607396 105.853348 
L 341.1179 105.932788 
L 339.578755 105.932788 
L 338.08926 105.932788 
L 336.550115 105.972508 
L 335.01097 105.972508 
L 333.521475 105.972508 
L 331.98233 106.012228 
L 330.492835 106.051948 
L 328.953689 106.369707 
L 327.563494 106.488866 
L 326.024349 106.409426 
L 324.485204 106.488866 
L 322.995709 106.608026 
L 321.456564 106.647746 
L 319.967068 107.203824 
L 318.427923 107.521583 
L 316.888778 109.706176 
L 315.399283 110.937492 
L 313.860138 111.37441 
L 312.370643 111.37441 
L 310.831498 111.692169 
L 309.441302 111.61273 
L 307.902157 110.818332 
L 306.363012 111.016932 
L 304.873517 111.45385 
L 303.334372 111.45385 
L 301.844877 111.334691 
L 300.305732 111.49357 
L 298.766587 111.53329 
L 297.277091 111.53329 
L 295.737946 111.57301 
L 294.248451 111.65245 
L 292.709306 111.65245 
L 291.269461 111.692169 
L 289.730316 111.692169 
L 288.191171 111.811329 
L 286.701675 111.851049 
L 285.16253 111.890769 
L 283.673035 111.890769 
L 282.13389 111.851049 
L 280.594745 111.890769 
L 279.10525 111.851049 
L 277.566105 112.486567 
L 276.07661 112.446847 
L 274.537465 112.526287 
L 273.147269 112.605727 
L 271.608124 112.724886 
L 270.068979 112.685166 
L 268.579484 112.963205 
L 267.040339 113.082365 
L 265.550843 113.241244 
L 264.011698 113.439844 
L 262.472553 113.479564 
L 260.983058 113.400124 
L 259.443913 113.479564 
L 257.954418 113.519284 
L 256.415273 113.519284 
L 255.025077 113.519284 
L 253.485932 113.519284 
L 251.946787 113.678163 
L 250.457292 113.757603 
L 248.918147 113.995922 
L 247.428652 114.035642 
L 245.889507 114.273961 
L 244.350362 114.353401 
L 242.860866 114.59172 
L 241.321721 114.71088 
L 239.832226 114.869759 
L 238.293081 114.909479 
L 236.902886 114.949199 
L 235.363741 115.108078 
L 233.824596 115.108078 
L 232.3351 115.306678 
L 230.795955 115.584717 
L 229.30646 115.743596 
L 227.767315 115.902476 
L 226.22817 116.101075 
L 224.738675 116.180515 
L 223.19953 116.498274 
L 221.710035 116.498274 
L 220.170889 116.537994 
L 218.731044 116.537994 
L 217.191899 116.537994 
L 215.652754 116.537994 
L 214.163259 116.537994 
L 212.624114 116.577714 
L 211.134619 116.736593 
L 209.595473 116.816033 
L 206.666133 117.292671 
L 205.424887 117.88847 
L 204.38224 118.166509 
L 203.140994 117.61043 
L 202.147997 117.928189 
L 200.757802 118.047349 
L 197.927761 118.206228 
L 195.19702 118.206228 
L 194.352973 118.365108 
L 193.012427 118.881466 
L 191.622231 118.841746 
L 189.934137 119.755304 
L 188.89149 119.755304 
L 187.848843 120.192222 
L 183.281058 120.470261 
L 182.337711 120.549701 
L 177.472027 121.661857 
L 175.039185 122.654854 
L 174.244787 122.694574 
L 173.25179 122.694574 
L 172.606342 122.694574 
L 172.060194 122.734294 
L 168.783305 122.297375 
L 165.258166 122.813734 
L 163.470772 123.012333 
L 161.733027 123.210932 
L 158.605088 123.330092 
L 157.81069 123.409532 
L 156.519794 123.608131 
L 154.434501 123.92589 
L 151.207261 123.767011 
L 150.015665 124.08477 
L 147.235274 124.04505 
L 145.745779 123.96561 
L 144.008035 124.323089 
L 142.022041 124.243649 
L 140.582196 124.124489 
L 139.489899 124.402529 
L 138.745151 124.442248 
L 137.652855 123.687571 
L 136.610208 123.727291 
L 135.915111 123.88617 
L 135.716511 123.88617 
L 134.971764 123.84645 
L 133.978767 124.362809 
L 132.588571 123.80673 
L 132.092073 123.80673 
L 131.545925 123.84645 
L 130.751527 123.88617 
L 130.00678 123.687571 
L 129.311682 124.124489 
L 128.318685 124.243649 
L 127.971136 124.00533 
L 127.027789 124.164209 
L 125.836193 124.124489 
L 124.942496 124.640848 
L 124.445997 124.561408 
L 123.60195 124.561408 
L 123.055802 122.774014 
L 122.211755 123.171213 
L 121.516657 122.178216 
L 120.67261 121.939896 
L 117.39572 122.217936 
L 117.147471 122.059056 
L 115.161477 122.337095 
L 110.841941 124.124489 
L 108.508399 124.998327 
L 99.472128 127.10348 
L 84.924725 130.12219 
L 65.164088 133.975018 
L 48.134193 140.131598 
L 39.84267 144.024145 
L 31.451847 144.341904 
z
" clip-path="url(#p096a0d040b)" style="fill: #fdc92c"/>
   </g>
   <g id="PolyCollection_3">
    <path d="M 31.451847 113.042645 
L 31.451847 144.341904 
L 39.84267 144.024145 
L 48.134193 140.131598 
L 65.164088 133.975018 
L 84.924725 130.12219 
L 99.472128 127.10348 
L 108.508399 124.998327 
L 110.841941 124.124489 
L 115.161477 122.337095 
L 117.147471 122.059056 
L 117.39572 122.217936 
L 120.67261 121.939896 
L 121.516657 122.178216 
L 122.211755 123.171213 
L 123.055802 122.774014 
L 123.60195 124.561408 
L 124.445997 124.561408 
L 124.942496 124.640848 
L 125.836193 124.124489 
L 127.027789 124.164209 
L 127.971136 124.00533 
L 128.318685 124.243649 
L 129.311682 124.124489 
L 130.00678 123.687571 
L 130.751527 123.88617 
L 131.545925 123.84645 
L 132.092073 123.80673 
L 132.588571 123.80673 
L 133.978767 124.362809 
L 134.971764 123.84645 
L 135.716511 123.88617 
L 135.915111 123.88617 
L 136.610208 123.727291 
L 137.652855 123.687571 
L 138.745151 124.442248 
L 139.489899 124.402529 
L 140.582196 124.124489 
L 142.022041 124.243649 
L 144.008035 124.323089 
L 145.745779 123.96561 
L 147.235274 124.04505 
L 150.015665 124.08477 
L 151.207261 123.767011 
L 154.434501 123.92589 
L 156.519794 123.608131 
L 157.81069 123.409532 
L 158.605088 123.330092 
L 161.733027 123.210932 
L 163.470772 123.012333 
L 165.258166 122.813734 
L 168.783305 122.297375 
L 172.060194 122.734294 
L 172.606342 122.694574 
L 173.25179 122.694574 
L 174.244787 122.694574 
L 175.039185 122.654854 
L 177.472027 121.661857 
L 182.337711 120.549701 
L 183.281058 120.470261 
L 187.848843 120.192222 
L 188.89149 119.755304 
L 189.934137 119.755304 
L 191.622231 118.841746 
L 193.012427 118.881466 
L 194.352973 118.365108 
L 195.19702 118.206228 
L 197.927761 118.206228 
L 200.757802 118.047349 
L 202.147997 117.928189 
L 203.140994 117.61043 
L 204.38224 118.166509 
L 205.424887 117.88847 
L 206.666133 117.292671 
L 209.595473 116.816033 
L 211.134619 116.736593 
L 212.624114 116.577714 
L 214.163259 116.537994 
L 215.652754 116.537994 
L 217.191899 116.537994 
L 218.731044 116.537994 
L 220.170889 116.537994 
L 221.710035 116.498274 
L 223.19953 116.498274 
L 224.738675 116.180515 
L 226.22817 116.101075 
L 227.767315 115.902476 
L 229.30646 115.743596 
L 230.795955 115.584717 
L 232.3351 115.306678 
L 233.824596 115.108078 
L 235.363741 115.108078 
L 236.902886 114.949199 
L 238.293081 114.909479 
L 239.832226 114.869759 
L 241.321721 114.71088 
L 242.860866 114.59172 
L 244.350362 114.353401 
L 245.889507 114.273961 
L 247.428652 114.035642 
L 248.918147 113.995922 
L 250.457292 113.757603 
L 251.946787 113.678163 
L 253.485932 113.519284 
L 255.025077 113.519284 
L 256.415273 113.519284 
L 257.954418 113.519284 
L 259.443913 113.479564 
L 260.983058 113.400124 
L 262.472553 113.479564 
L 264.011698 113.439844 
L 265.550843 113.241244 
L 267.040339 113.082365 
L 268.579484 112.963205 
L 270.068979 112.685166 
L 271.608124 112.724886 
L 273.147269 112.605727 
L 274.537465 112.526287 
L 276.07661 112.446847 
L 277.566105 112.486567 
L 279.10525 111.851049 
L 280.594745 111.890769 
L 282.13389 111.851049 
L 283.673035 111.890769 
L 285.16253 111.890769 
L 286.701675 111.851049 
L 288.191171 111.811329 
L 289.730316 111.692169 
L 291.269461 111.692169 
L 292.709306 111.65245 
L 294.248451 111.65245 
L 295.737946 111.57301 
L 297.277091 111.53329 
L 298.766587 111.53329 
L 300.305732 111.49357 
L 301.844877 111.334691 
L 303.334372 111.45385 
L 304.873517 111.45385 
L 306.363012 111.016932 
L 307.902157 110.818332 
L 309.441302 111.61273 
L 310.831498 111.692169 
L 312.370643 111.37441 
L 313.860138 111.37441 
L 315.399283 110.937492 
L 316.888778 109.706176 
L 318.427923 107.521583 
L 319.967068 107.203824 
L 321.456564 106.647746 
L 322.995709 106.608026 
L 324.485204 106.488866 
L 326.024349 106.409426 
L 327.563494 106.488866 
L 328.953689 106.369707 
L 330.492835 106.051948 
L 331.98233 106.012228 
L 333.521475 105.972508 
L 335.01097 105.972508 
L 336.550115 105.972508 
L 338.08926 105.932788 
L 339.578755 105.932788 
L 341.1179 105.932788 
L 342.607396 105.853348 
L 344.146541 105.853348 
L 345.685686 105.773908 
L 347.075881 105.773908 
L 348.615026 105.734189 
L 350.104521 105.734189 
L 351.643666 105.853348 
L 353.133162 105.853348 
L 354.672307 105.813628 
L 356.211452 105.853348 
L 357.700947 105.813628 
L 359.240092 105.813628 
L 360.729587 105.813628 
L 362.268732 105.813628 
L 363.807877 105.813628 
L 365.247723 105.893068 
L 366.786868 105.853348 
L 368.276363 105.893068 
L 369.815508 106.012228 
L 371.305003 105.972508 
L 372.844148 105.932788 
L 374.383293 105.932788 
L 375.872788 105.853348 
L 377.411934 105.813628 
L 378.901429 105.734189 
L 380.440574 105.734189 
L 381.979719 105.694469 
L 383.369914 105.535589 
L 384.909059 105.33699 
L 386.398555 105.21783 
L 387.9377 105.25755 
L 389.427195 105.21783 
L 390.96634 105.17811 
L 392.505485 105.138391 
L 393.99498 105.098671 
L 395.534125 104.979511 
L 397.02362 105.019231 
L 398.562765 104.900071 
L 400.101911 104.900071 
L 401.492106 104.820632 
L 403.031251 104.780912 
L 404.520746 104.780912 
L 406.059891 104.820632 
L 407.549387 104.622032 
L 409.088532 104.622032 
L 410.627677 104.582312 
L 412.117172 104.701472 
L 413.656317 104.661752 
L 415.145812 104.661752 
L 416.684957 104.582312 
L 418.224102 104.463153 
L 419.614298 104.304273 
L 421.153443 104.264553 
L 422.642938 104.264553 
L 424.182083 104.145394 
L 425.671578 103.907075 
L 427.210723 103.629035 
L 428.749868 103.629035 
L 430.239364 103.549596 
L 431.778509 103.390716 
L 433.268004 103.271557 
L 434.807149 103.271557 
L 436.346294 102.993517 
L 437.786139 102.715478 
L 439.325284 102.755198 
L 440.81478 102.675758 
L 442.353925 102.516879 
L 443.84342 102.556599 
L 445.382565 102.675758 
L 446.92171 102.437439 
L 448.411205 102.397719 
L 449.95035 102.27856 
L 449.95035 88.495764 
L 449.95035 88.495764 
L 448.411205 88.495764 
L 446.92171 88.456044 
L 445.382565 88.813523 
L 443.84342 89.051842 
L 442.353925 89.051842 
L 440.81478 89.091562 
L 439.325284 89.091562 
L 437.786139 89.091562 
L 436.346294 89.131282 
L 434.807149 89.131282 
L 433.268004 89.131282 
L 431.778509 89.171002 
L 430.239364 89.171002 
L 428.749868 89.171002 
L 427.210723 89.171002 
L 425.671578 89.250442 
L 424.182083 89.250442 
L 422.642938 89.250442 
L 421.153443 89.250442 
L 419.614298 89.250442 
L 418.224102 89.290162 
L 416.684957 89.290162 
L 415.145812 89.369601 
L 413.656317 89.369601 
L 412.117172 89.409321 
L 410.627677 89.409321 
L 409.088532 89.409321 
L 407.549387 89.409321 
L 406.059891 89.488761 
L 404.520746 89.568201 
L 403.031251 89.568201 
L 401.492106 89.568201 
L 400.101911 89.568201 
L 398.562765 89.568201 
L 397.02362 89.607921 
L 395.534125 89.568201 
L 393.99498 89.64764 
L 392.505485 89.64764 
L 390.96634 89.64764 
L 389.427195 89.68736 
L 387.9377 89.68736 
L 386.398555 89.68736 
L 384.909059 89.72708 
L 383.369914 89.7668 
L 381.979719 89.80652 
L 380.440574 89.80652 
L 378.901429 89.7668 
L 377.411934 89.7668 
L 375.872788 89.7668 
L 374.383293 89.72708 
L 372.844148 89.72708 
L 371.305003 89.7668 
L 369.815508 89.7668 
L 368.276363 89.68736 
L 366.786868 89.64764 
L 365.247723 89.64764 
L 363.807877 89.68736 
L 362.268732 89.68736 
L 360.729587 89.68736 
L 359.240092 89.68736 
L 357.700947 89.68736 
L 356.211452 89.68736 
L 354.672307 89.68736 
L 353.133162 89.68736 
L 351.643666 89.68736 
L 350.104521 89.607921 
L 348.615026 89.607921 
L 347.075881 89.607921 
L 345.685686 89.607921 
L 344.146541 89.568201 
L 342.607396 89.568201 
L 341.1179 89.64764 
L 339.578755 89.64764 
L 338.08926 89.64764 
L 336.550115 89.68736 
L 335.01097 89.68736 
L 333.521475 89.68736 
L 331.98233 89.72708 
L 330.492835 89.7668 
L 328.953689 89.84624 
L 327.563494 89.84624 
L 326.024349 89.84624 
L 324.485204 90.005119 
L 322.995709 90.005119 
L 321.456564 90.005119 
L 319.967068 89.88596 
L 318.427923 89.925679 
L 316.888778 90.124279 
L 315.399283 91.077556 
L 313.860138 91.236435 
L 312.370643 91.276155 
L 310.831498 91.315875 
L 309.441302 91.315875 
L 307.902157 91.315875 
L 306.363012 91.315875 
L 304.873517 91.355595 
L 303.334372 91.355595 
L 301.844877 91.395315 
L 300.305732 91.435035 
L 298.766587 91.474755 
L 297.277091 91.474755 
L 295.737946 91.474755 
L 294.248451 91.474755 
L 292.709306 91.474755 
L 291.269461 91.514474 
L 289.730316 91.514474 
L 288.191171 91.554194 
L 286.701675 91.593914 
L 285.16253 91.593914 
L 283.673035 91.593914 
L 282.13389 91.593914 
L 280.594745 91.593914 
L 279.10525 91.593914 
L 277.566105 91.593914 
L 276.07661 91.593914 
L 274.537465 91.673354 
L 273.147269 91.673354 
L 271.608124 91.673354 
L 270.068979 91.713074 
L 268.579484 91.713074 
L 267.040339 91.752794 
L 265.550843 91.911673 
L 264.011698 92.86495 
L 262.472553 92.86495 
L 260.983058 92.86495 
L 259.443913 92.94439 
L 257.954418 92.94439 
L 256.415273 92.94439 
L 255.025077 92.94439 
L 253.485932 92.94439 
L 251.946787 92.94439 
L 250.457292 93.02383 
L 248.918147 92.94439 
L 247.428652 92.98411 
L 245.889507 93.063549 
L 244.350362 93.142989 
L 242.860866 93.341588 
L 241.321721 93.381308 
L 239.832226 93.381308 
L 238.293081 93.381308 
L 236.902886 93.381308 
L 235.363741 93.460748 
L 233.824596 93.460748 
L 232.3351 93.540188 
L 230.795955 93.540188 
L 229.30646 93.421028 
L 227.767315 93.500468 
L 226.22817 93.500468 
L 224.738675 93.500468 
L 223.19953 93.540188 
L 221.710035 93.540188 
L 220.170889 93.540188 
L 218.731044 93.579908 
L 217.191899 93.579908 
L 215.652754 93.619628 
L 214.163259 93.579908 
L 212.624114 93.579908 
L 211.134619 93.659347 
L 209.595473 93.699067 
L 206.666133 93.977106 
L 205.424887 94.572905 
L 204.38224 94.850944 
L 203.140994 94.215426 
L 202.147997 94.731784 
L 200.757802 94.771504 
L 197.927761 95.685061 
L 195.19702 95.685061 
L 194.352973 95.645341 
L 193.012427 95.804221 
L 191.622231 95.804221 
L 189.934137 95.88366 
L 188.89149 95.88366 
L 187.848843 95.92338 
L 183.281058 96.08226 
L 182.337711 96.08226 
L 177.472027 97.114976 
L 175.039185 97.234136 
L 174.244787 97.273856 
L 173.25179 97.393015 
L 172.606342 97.393015 
L 172.060194 97.393015 
L 168.783305 97.393015 
L 165.258166 97.631335 
L 163.470772 97.750494 
L 161.733027 97.790214 
L 158.605088 97.869654 
L 157.81069 97.988814 
L 156.519794 98.187413 
L 154.434501 98.425732 
L 151.207261 98.584612 
L 150.015665 99.22013 
L 147.235274 99.259849 
L 145.745779 99.537889 
L 144.008035 99.855648 
L 142.022041 99.935087 
L 140.582196 99.935087 
L 139.489899 99.935087 
L 138.745151 99.935087 
L 137.652855 100.093967 
L 136.610208 100.252846 
L 135.915111 100.372006 
L 135.716511 100.372006 
L 134.971764 100.332286 
L 133.978767 100.888364 
L 132.588571 100.411726 
L 132.092073 100.411726 
L 131.545925 100.491165 
L 130.751527 100.491165 
L 130.00678 100.491165 
L 129.311682 101.086964 
L 128.318685 101.086964 
L 127.971136 100.610325 
L 127.027789 101.206123 
L 125.836193 102.31828 
L 124.942496 103.231837 
L 124.445997 103.271557 
L 123.60195 103.271557 
L 123.055802 103.311276 
L 122.211755 103.907075 
L 121.516657 103.350996 
L 120.67261 103.350996 
L 117.39572 103.629035 
L 117.147471 103.668755 
L 115.161477 103.708475 
L 110.841941 101.086964 
L 108.508399 103.867355 
L 99.472128 105.773908 
L 84.924725 107.720182 
L 65.164088 109.070658 
L 48.134193 111.096371 
L 39.84267 113.479564 
L 31.451847 113.042645 
z
" clip-path="url(#p096a0d040b)" style="fill: #aeaeae"/>
   </g>
   <g id="PolyCollection_4">
    <path d="M 31.451847 88.932683 
L 31.451847 113.042645 
L 39.84267 113.479564 
L 48.134193 111.096371 
L 65.164088 109.070658 
L 84.924725 107.720182 
L 99.472128 105.773908 
L 108.508399 103.867355 
L 110.841941 101.086964 
L 115.161477 103.708475 
L 117.147471 103.668755 
L 117.39572 103.629035 
L 120.67261 103.350996 
L 121.516657 103.350996 
L 122.211755 103.907075 
L 123.055802 103.311276 
L 123.60195 103.271557 
L 124.445997 103.271557 
L 124.942496 103.231837 
L 125.836193 102.31828 
L 127.027789 101.206123 
L 127.971136 100.610325 
L 128.318685 101.086964 
L 129.311682 101.086964 
L 130.00678 100.491165 
L 130.751527 100.491165 
L 131.545925 100.491165 
L 132.092073 100.411726 
L 132.588571 100.411726 
L 133.978767 100.888364 
L 134.971764 100.332286 
L 135.716511 100.372006 
L 135.915111 100.372006 
L 136.610208 100.252846 
L 137.652855 100.093967 
L 138.745151 99.935087 
L 139.489899 99.935087 
L 140.582196 99.935087 
L 142.022041 99.935087 
L 144.008035 99.855648 
L 145.745779 99.537889 
L 147.235274 99.259849 
L 150.015665 99.22013 
L 151.207261 98.584612 
L 154.434501 98.425732 
L 156.519794 98.187413 
L 157.81069 97.988814 
L 158.605088 97.869654 
L 161.733027 97.790214 
L 163.470772 97.750494 
L 165.258166 97.631335 
L 168.783305 97.393015 
L 172.060194 97.393015 
L 172.606342 97.393015 
L 173.25179 97.393015 
L 174.244787 97.273856 
L 175.039185 97.234136 
L 177.472027 97.114976 
L 182.337711 96.08226 
L 183.281058 96.08226 
L 187.848843 95.92338 
L 188.89149 95.88366 
L 189.934137 95.88366 
L 191.622231 95.804221 
L 193.012427 95.804221 
L 194.352973 95.645341 
L 195.19702 95.685061 
L 197.927761 95.685061 
L 200.757802 94.771504 
L 202.147997 94.731784 
L 203.140994 94.215426 
L 204.38224 94.850944 
L 205.424887 94.572905 
L 206.666133 93.977106 
L 209.595473 93.699067 
L 211.134619 93.659347 
L 212.624114 93.579908 
L 214.163259 93.579908 
L 215.652754 93.619628 
L 217.191899 93.579908 
L 218.731044 93.579908 
L 220.170889 93.540188 
L 221.710035 93.540188 
L 223.19953 93.540188 
L 224.738675 93.500468 
L 226.22817 93.500468 
L 227.767315 93.500468 
L 229.30646 93.421028 
L 230.795955 93.540188 
L 232.3351 93.540188 
L 233.824596 93.460748 
L 235.363741 93.460748 
L 236.902886 93.381308 
L 238.293081 93.381308 
L 239.832226 93.381308 
L 241.321721 93.381308 
L 242.860866 93.341588 
L 244.350362 93.142989 
L 245.889507 93.063549 
L 247.428652 92.98411 
L 248.918147 92.94439 
L 250.457292 93.02383 
L 251.946787 92.94439 
L 253.485932 92.94439 
L 255.025077 92.94439 
L 256.415273 92.94439 
L 257.954418 92.94439 
L 259.443913 92.94439 
L 260.983058 92.86495 
L 262.472553 92.86495 
L 264.011698 92.86495 
L 265.550843 91.911673 
L 267.040339 91.752794 
L 268.579484 91.713074 
L 270.068979 91.713074 
L 271.608124 91.673354 
L 273.147269 91.673354 
L 274.537465 91.673354 
L 276.07661 91.593914 
L 277.566105 91.593914 
L 279.10525 91.593914 
L 280.594745 91.593914 
L 282.13389 91.593914 
L 283.673035 91.593914 
L 285.16253 91.593914 
L 286.701675 91.593914 
L 288.191171 91.554194 
L 289.730316 91.514474 
L 291.269461 91.514474 
L 292.709306 91.474755 
L 294.248451 91.474755 
L 295.737946 91.474755 
L 297.277091 91.474755 
L 298.766587 91.474755 
L 300.305732 91.435035 
L 301.844877 91.395315 
L 303.334372 91.355595 
L 304.873517 91.355595 
L 306.363012 91.315875 
L 307.902157 91.315875 
L 309.441302 91.315875 
L 310.831498 91.315875 
L 312.370643 91.276155 
L 313.860138 91.236435 
L 315.399283 91.077556 
L 316.888778 90.124279 
L 318.427923 89.925679 
L 319.967068 89.88596 
L 321.456564 90.005119 
L 322.995709 90.005119 
L 324.485204 90.005119 
L 326.024349 89.84624 
L 327.563494 89.84624 
L 328.953689 89.84624 
L 330.492835 89.7668 
L 331.98233 89.72708 
L 333.521475 89.68736 
L 335.01097 89.68736 
L 336.550115 89.68736 
L 338.08926 89.64764 
L 339.578755 89.64764 
L 341.1179 89.64764 
L 342.607396 89.568201 
L 344.146541 89.568201 
L 345.685686 89.607921 
L 347.075881 89.607921 
L 348.615026 89.607921 
L 350.104521 89.607921 
L 351.643666 89.68736 
L 353.133162 89.68736 
L 354.672307 89.68736 
L 356.211452 89.68736 
L 357.700947 89.68736 
L 359.240092 89.68736 
L 360.729587 89.68736 
L 362.268732 89.68736 
L 363.807877 89.68736 
L 365.247723 89.64764 
L 366.786868 89.64764 
L 368.276363 89.68736 
L 369.815508 89.7668 
L 371.305003 89.7668 
L 372.844148 89.72708 
L 374.383293 89.72708 
L 375.872788 89.7668 
L 377.411934 89.7668 
L 378.901429 89.7668 
L 380.440574 89.80652 
L 381.979719 89.80652 
L 383.369914 89.7668 
L 384.909059 89.72708 
L 386.398555 89.68736 
L 387.9377 89.68736 
L 389.427195 89.68736 
L 390.96634 89.64764 
L 392.505485 89.64764 
L 393.99498 89.64764 
L 395.534125 89.568201 
L 397.02362 89.607921 
L 398.562765 89.568201 
L 400.101911 89.568201 
L 401.492106 89.568201 
L 403.031251 89.568201 
L 404.520746 89.568201 
L 406.059891 89.488761 
L 407.549387 89.409321 
L 409.088532 89.409321 
L 410.627677 89.409321 
L 412.117172 89.409321 
L 413.656317 89.369601 
L 415.145812 89.369601 
L 416.684957 89.290162 
L 418.224102 89.290162 
L 419.614298 89.250442 
L 421.153443 89.250442 
L 422.642938 89.250442 
L 424.182083 89.250442 
L 425.671578 89.250442 
L 427.210723 89.171002 
L 428.749868 89.171002 
L 430.239364 89.171002 
L 431.778509 89.171002 
L 433.268004 89.131282 
L 434.807149 89.131282 
L 436.346294 89.131282 
L 437.786139 89.091562 
L 439.325284 89.091562 
L 440.81478 89.091562 
L 442.353925 89.051842 
L 443.84342 89.051842 
L 445.382565 88.813523 
L 446.92171 88.456044 
L 448.411205 88.495764 
L 449.95035 88.495764 
L 449.95035 78.724676 
L 449.95035 78.724676 
L 448.411205 78.764395 
L 446.92171 78.764395 
L 445.382565 78.764395 
L 443.84342 78.804115 
L 442.353925 78.804115 
L 440.81478 78.804115 
L 439.325284 78.804115 
L 437.786139 78.804115 
L 436.346294 78.804115 
L 434.807149 78.804115 
L 433.268004 78.804115 
L 431.778509 78.804115 
L 430.239364 78.804115 
L 428.749868 78.804115 
L 427.210723 78.804115 
L 425.671578 78.804115 
L 424.182083 78.804115 
L 422.642938 78.804115 
L 421.153443 78.804115 
L 419.614298 78.804115 
L 418.224102 79.002715 
L 416.684957 79.042435 
L 415.145812 79.082154 
L 413.656317 79.082154 
L 412.117172 79.082154 
L 410.627677 79.082154 
L 409.088532 79.082154 
L 407.549387 79.082154 
L 406.059891 79.082154 
L 404.520746 79.082154 
L 403.031251 79.082154 
L 401.492106 79.121874 
L 400.101911 79.082154 
L 398.562765 79.082154 
L 397.02362 79.121874 
L 395.534125 78.843835 
L 393.99498 78.843835 
L 392.505485 78.486356 
L 390.96634 78.486356 
L 389.427195 78.486356 
L 387.9377 78.486356 
L 386.398555 78.486356 
L 384.909059 78.486356 
L 383.369914 78.526076 
L 381.979719 78.526076 
L 380.440574 78.526076 
L 378.901429 78.486356 
L 377.411934 78.486356 
L 375.872788 78.486356 
L 374.383293 78.526076 
L 372.844148 78.526076 
L 371.305003 78.526076 
L 369.815508 78.526076 
L 368.276363 78.446636 
L 366.786868 78.406917 
L 365.247723 78.406917 
L 363.807877 78.406917 
L 362.268732 78.406917 
L 360.729587 78.406917 
L 359.240092 78.406917 
L 357.700947 78.406917 
L 356.211452 78.406917 
L 354.672307 78.406917 
L 353.133162 78.406917 
L 351.643666 78.406917 
L 350.104521 78.327477 
L 348.615026 78.327477 
L 347.075881 78.327477 
L 345.685686 78.327477 
L 344.146541 78.327477 
L 342.607396 78.327477 
L 341.1179 78.327477 
L 339.578755 78.327477 
L 338.08926 78.327477 
L 336.550115 78.287757 
L 335.01097 78.287757 
L 333.521475 78.287757 
L 331.98233 78.287757 
L 330.492835 78.287757 
L 328.953689 78.287757 
L 327.563494 78.287757 
L 326.024349 78.287757 
L 324.485204 78.287757 
L 322.995709 78.287757 
L 321.456564 78.287757 
L 319.967068 78.287757 
L 318.427923 78.287757 
L 316.888778 78.287757 
L 315.399283 78.287757 
L 313.860138 78.287757 
L 312.370643 78.287757 
L 310.831498 78.287757 
L 309.441302 78.287757 
L 307.902157 78.287757 
L 306.363012 78.287757 
L 304.873517 78.287757 
L 303.334372 78.287757 
L 301.844877 78.287757 
L 300.305732 78.287757 
L 298.766587 78.287757 
L 297.277091 78.287757 
L 295.737946 78.287757 
L 294.248451 78.287757 
L 292.709306 78.645236 
L 291.269461 78.684956 
L 289.730316 78.684956 
L 288.191171 78.684956 
L 286.701675 78.843835 
L 285.16253 78.843835 
L 283.673035 78.843835 
L 282.13389 78.843835 
L 280.594745 78.843835 
L 279.10525 78.843835 
L 277.566105 78.843835 
L 276.07661 78.843835 
L 274.537465 78.843835 
L 273.147269 78.843835 
L 271.608124 78.843835 
L 270.068979 78.883555 
L 268.579484 78.883555 
L 267.040339 78.883555 
L 265.550843 78.883555 
L 264.011698 78.605516 
L 262.472553 78.764395 
L 260.983058 78.724676 
L 259.443913 78.724676 
L 257.954418 78.724676 
L 256.415273 78.724676 
L 255.025077 78.724676 
L 253.485932 78.724676 
L 251.946787 78.724676 
L 250.457292 78.764395 
L 248.918147 78.764395 
L 247.428652 78.764395 
L 245.889507 78.724676 
L 244.350362 78.724676 
L 242.860866 78.724676 
L 241.321721 78.724676 
L 239.832226 78.724676 
L 238.293081 78.724676 
L 236.902886 78.724676 
L 235.363741 78.724676 
L 233.824596 78.724676 
L 232.3351 78.724676 
L 230.795955 78.764395 
L 229.30646 78.724676 
L 227.767315 78.764395 
L 226.22817 78.724676 
L 224.738675 78.724676 
L 223.19953 78.724676 
L 221.710035 78.724676 
L 220.170889 78.724676 
L 218.731044 78.724676 
L 217.191899 78.764395 
L 215.652754 78.764395 
L 214.163259 78.724676 
L 212.624114 78.724676 
L 211.134619 78.724676 
L 209.595473 78.804115 
L 206.666133 79.082154 
L 205.424887 79.757392 
L 204.38224 79.836832 
L 203.140994 79.201314 
L 202.147997 80.750389 
L 200.757802 80.750389 
L 197.927761 82.180304 
L 195.19702 82.180304 
L 194.352973 82.140585 
L 193.012427 82.299464 
L 191.622231 82.259744 
L 189.934137 82.259744 
L 188.89149 82.259744 
L 187.848843 82.259744 
L 183.281058 82.577503 
L 182.337711 82.577503 
L 177.472027 82.776102 
L 175.039185 82.736383 
L 174.244787 82.736383 
L 173.25179 82.815822 
L 172.606342 82.815822 
L 172.060194 82.815822 
L 168.783305 83.371901 
L 165.258166 83.49106 
L 163.470772 83.49106 
L 161.733027 83.49106 
L 158.605088 83.49106 
L 157.81069 83.45134 
L 156.519794 83.45134 
L 154.434501 83.332181 
L 151.207261 83.292461 
L 150.015665 84.325178 
L 147.235274 84.444337 
L 145.745779 84.563497 
L 144.008035 84.444337 
L 142.022041 84.444337 
L 140.582196 84.404617 
L 139.489899 84.404617 
L 138.745151 84.404617 
L 137.652855 84.364897 
L 136.610208 84.364897 
L 135.915111 84.404617 
L 135.716511 84.404617 
L 134.971764 84.404617 
L 133.978767 84.841536 
L 132.588571 84.404617 
L 132.092073 84.404617 
L 131.545925 84.444337 
L 130.751527 84.364897 
L 130.00678 84.364897 
L 129.311682 84.762096 
L 128.318685 84.682656 
L 127.971136 84.245738 
L 127.027789 84.801816 
L 125.836193 84.642936 
L 124.942496 84.682656 
L 124.445997 84.682656 
L 123.60195 84.682656 
L 123.055802 84.722376 
L 122.211755 85.238735 
L 121.516657 84.682656 
L 120.67261 84.682656 
L 117.39572 85.675653 
L 117.147471 85.715373 
L 115.161477 85.675653 
L 110.841941 84.762096 
L 108.508399 85.675653 
L 99.472128 86.470051 
L 84.924725 86.906969 
L 65.164088 87.621927 
L 48.134193 88.058845 
L 39.84267 89.091562 
L 31.451847 88.932683 
z
" clip-path="url(#p096a0d040b)" style="fill: #d5dce5"/>
   </g>
   <g id="matplotlib.axis_1">
    <g id="xtick_1">
     <g id="line2d_1">
      <defs>
       <path id="m21bdee7752" d="M 0 0 
L 0 3.5 
" style="stroke: #000000; stroke-width: 0.8"/>
      </defs>
      <g>
       <use xlink:href="#m21bdee7752" x="72.115066" y="279.667509" style="stroke: #000000; stroke-width: 0.8"/>
      </g>
     </g>
     <g id="text_1">
      <!-- 2004 -->
      <g transform="translate(59.390066 294.265947) scale(0.1 -0.1)">
       <defs>
        <path id="DejaVuSans-32" d="M 1228 531 
L 3431 531 
L 3431 0 
L 469 0 
L 469 531 
Q 828 903 1448 1529 
Q 2069 2156 2228 2338 
Q 2531 2678 2651 2914 
Q 2772 3150 2772 3378 
Q 2772 3750 2511 3984 
Q 2250 4219 1831 4219 
Q 1534 4219 1204 4116 
Q 875 4013 500 3803 
L 500 4441 
Q 881 4594 1212 4672 
Q 1544 4750 1819 4750 
Q 2544 4750 2975 4387 
Q 3406 4025 3406 3419 
Q 3406 3131 3298 2873 
Q 3191 2616 2906 2266 
Q 2828 2175 2409 1742 
Q 1991 1309 1228 531 
z
" transform="scale(0.015625)"/>
        <path id="DejaVuSans-30" d="M 2034 4250 
Q 1547 4250 1301 3770 
Q 1056 3291 1056 2328 
Q 1056 1369 1301 889 
Q 1547 409 2034 409 
Q 2525 409 2770 889 
Q 3016 1369 3016 2328 
Q 3016 3291 2770 3770 
Q 2525 4250 2034 4250 
z
M 2034 4750 
Q 2819 4750 3233 4129 
Q 3647 3509 3647 2328 
Q 3647 1150 3233 529 
Q 2819 -91 2034 -91 
Q 1250 -91 836 529 
Q 422 1150 422 2328 
Q 422 3509 836 4129 
Q 1250 4750 2034 4750 
z
" transform="scale(0.015625)"/>
        <path id="DejaVuSans-34" d="M 2419 4116 
L 825 1625 
L 2419 1625 
L 2419 4116 
z
M 2253 4666 
L 3047 4666 
L 3047 1625 
L 3713 1625 
L 3713 1100 
L 3047 1100 
L 3047 0 
L 2419 0 
L 2419 1100 
L 313 1100 
L 313 1709 
L 2253 4666 
z
" transform="scale(0.015625)"/>
       </defs>
       <use xlink:href="#DejaVuSans-32"/>
       <use xlink:href="#DejaVuSans-30" x="63.623047"/>
       <use xlink:href="#DejaVuSans-30" x="127.246094"/>
       <use xlink:href="#DejaVuSans-34" x="190.869141"/>
      </g>
     </g>
    </g>
    <g id="xtick_2">
     <g id="line2d_2">
      <g>
       <use xlink:href="#m21bdee7752" x="144.653482" y="279.667509" style="stroke: #000000; stroke-width: 0.8"/>
      </g>
     </g>
     <g id="text_2">
      <!-- 2008 -->
      <g transform="translate(131.928482 294.265947) scale(0.1 -0.1)">
       <defs>
        <path id="DejaVuSans-38" d="M 2034 2216 
Q 1584 2216 1326 1975 
Q 1069 1734 1069 1313 
Q 1069 891 1326 650 
Q 1584 409 2034 409 
Q 2484 409 2743 651 
Q 3003 894 3003 1313 
Q 3003 1734 2745 1975 
Q 2488 2216 2034 2216 
z
M 1403 2484 
Q 997 2584 770 2862 
Q 544 3141 544 3541 
Q 544 4100 942 4425 
Q 1341 4750 2034 4750 
Q 2731 4750 3128 4425 
Q 3525 4100 3525 3541 
Q 3525 3141 3298 2862 
Q 3072 2584 2669 2484 
Q 3125 2378 3379 2068 
Q 3634 1759 3634 1313 
Q 3634 634 3220 271 
Q 2806 -91 2034 -91 
Q 1263 -91 848 271 
Q 434 634 434 1313 
Q 434 1759 690 2068 
Q 947 2378 1403 2484 
z
M 1172 3481 
Q 1172 3119 1398 2916 
Q 1625 2713 2034 2713 
Q 2441 2713 2670 2916 
Q 2900 3119 2900 3481 
Q 2900 3844 2670 4047 
Q 2441 4250 2034 4250 
Q 1625 4250 1398 4047 
Q 1172 3844 1172 3481 
z
" transform="scale(0.015625)"/>
       </defs>
       <use xlink:href="#DejaVuSans-32"/>
       <use xlink:href="#DejaVuSans-30" x="63.623047"/>
       <use xlink:href="#DejaVuSans-30" x="127.246094"/>
       <use xlink:href="#DejaVuSans-38" x="190.869141"/>
      </g>
     </g>
    </g>
    <g id="xtick_3">
     <g id="line2d_3">
      <g>
       <use xlink:href="#m21bdee7752" x="217.191899" y="279.667509" style="stroke: #000000; stroke-width: 0.8"/>
      </g>
     </g>
     <g id="text_3">
      <!-- 2012 -->
      <g transform="translate(204.466899 294.265947) scale(0.1 -0.1)">
       <defs>
        <path id="DejaVuSans-31" d="M 794 531 
L 1825 531 
L 1825 4091 
L 703 3866 
L 703 4441 
L 1819 4666 
L 2450 4666 
L 2450 531 
L 3481 531 
L 3481 0 
L 794 0 
L 794 531 
z
" transform="scale(0.015625)"/>
       </defs>
       <use xlink:href="#DejaVuSans-32"/>
       <use xlink:href="#DejaVuSans-30" x="63.623047"/>
       <use xlink:href="#DejaVuSans-31" x="127.246094"/>
       <use xlink:href="#DejaVuSans-32" x="190.869141"/>
      </g>
     </g>
    </g>
    <g id="xtick_4">
     <g id="line2d_4">
      <g>
       <use xlink:href="#m21bdee7752" x="289.730316" y="279.667509" style="stroke: #000000; stroke-width: 0.8"/>
      </g>
     </g>
     <g id="text_4">
      <!-- 2016 -->
      <g transform="translate(277.005316 294.265947) scale(0.1 -0.1)">
       <defs>
        <path id="DejaVuSans-36" d="M 2113 2584 
Q 1688 2584 1439 2293 
Q 1191 2003 1191 1497 
Q 1191 994 1439 701 
Q 1688 409 2113 409 
Q 2538 409 2786 701 
Q 3034 994 3034 1497 
Q 3034 2003 2786 2293 
Q 2538 2584 2113 2584 
z
M 3366 4563 
L 3366 3988 
Q 3128 4100 2886 4159 
Q 2644 4219 2406 4219 
Q 1781 4219 1451 3797 
Q 1122 3375 1075 2522 
Q 1259 2794 1537 2939 
Q 1816 3084 2150 3084 
Q 2853 3084 3261 2657 
Q 3669 2231 3669 1497 
Q 3669 778 3244 343 
Q 2819 -91 2113 -91 
Q 1303 -91 875 529 
Q 447 1150 447 2328 
Q 447 3434 972 4092 
Q 1497 4750 2381 4750 
Q 2619 4750 2861 4703 
Q 3103 4656 3366 4563 
z
" transform="scale(0.015625)"/>
       </defs>
       <use xlink:href="#DejaVuSans-32"/>
       <use xlink:href="#DejaVuSans-30" x="63.623047"/>
       <use xlink:href="#DejaVuSans-31" x="127.246094"/>
       <use xlink:href="#DejaVuSans-36" x="190.869141"/>
      </g>
     </g>
    </g>
    <g id="xtick_5">
     <g id="line2d_5">
      <g>
       <use xlink:href="#m21bdee7752" x="362.268732" y="279.667509" style="stroke: #000000; stroke-width: 0.8"/>
      </g>
     </g>
     <g id="text_5">
      <!-- 2020 -->
      <g transform="translate(349.543732 294.265947) scale(0.1 -0.1)">
       <use xlink:href="#DejaVuSans-32"/>
       <use xlink:href="#DejaVuSans-30" x="63.623047"/>
       <use xlink:href="#DejaVuSans-32" x="127.246094"/>
       <use xlink:href="#DejaVuSans-30" x="190.869141"/>
      </g>
     </g>
    </g>
    <g id="xtick_6">
     <g id="line2d_6">
      <g>
       <use xlink:href="#m21bdee7752" x="434.807149" y="279.667509" style="stroke: #000000; stroke-width: 0.8"/>
      </g>
     </g>
     <g id="text_6">
      <!-- 2024 -->
      <g transform="translate(422.082149 294.265947) scale(0.1 -0.1)">
       <use xlink:href="#DejaVuSans-32"/>
       <use xlink:href="#DejaVuSans-30" x="63.623047"/>
       <use xlink:href="#DejaVuSans-32" x="127.246094"/>
       <use xlink:href="#DejaVuSans-34" x="190.869141"/>
      </g>
     </g>
    </g>
    <g id="text_7">
     <!-- Year -->
     <g transform="translate(239.86375 311.74329) scale(0.15 -0.15)">
      <defs>
       <path id="DejaVuSans-59" d="M -13 4666 
L 666 4666 
L 1959 2747 
L 3244 4666 
L 3922 4666 
L 2272 2222 
L 2272 0 
L 1638 0 
L 1638 2222 
L -13 4666 
z
" transform="scale(0.015625)"/>
       <path id="DejaVuSans-65" d="M 3597 1894 
L 3597 1613 
L 953 1613 
Q 991 1019 1311 708 
Q 1631 397 2203 397 
Q 2534 397 2845 478 
Q 3156 559 3463 722 
L 3463 178 
Q 3153 47 2828 -22 
Q 2503 -91 2169 -91 
Q 1331 -91 842 396 
Q 353 884 353 1716 
Q 353 2575 817 3079 
Q 1281 3584 2069 3584 
Q 2775 3584 3186 3129 
Q 3597 2675 3597 1894 
z
M 3022 2063 
Q 3016 2534 2758 2815 
Q 2500 3097 2075 3097 
Q 1594 3097 1305 2825 
Q 1016 2553 972 2059 
L 3022 2063 
z
" transform="scale(0.015625)"/>
       <path id="DejaVuSans-61" d="M 2194 1759 
Q 1497 1759 1228 1600 
Q 959 1441 959 1056 
Q 959 750 1161 570 
Q 1363 391 1709 391 
Q 2188 391 2477 730 
Q 2766 1069 2766 1631 
L 2766 1759 
L 2194 1759 
z
M 3341 1997 
L 3341 0 
L 2766 0 
L 2766 531 
Q 2569 213 2275 61 
Q 1981 -91 1556 -91 
Q 1019 -91 701 211 
Q 384 513 384 1019 
Q 384 1609 779 1909 
Q 1175 2209 1959 2209 
L 2766 2209 
L 2766 2266 
Q 2766 2663 2505 2880 
Q 2244 3097 1772 3097 
Q 1472 3097 1187 3025 
Q 903 2953 641 2809 
L 641 3341 
Q 956 3463 1253 3523 
Q 1550 3584 1831 3584 
Q 2591 3584 2966 3190 
Q 3341 2797 3341 1997 
z
" transform="scale(0.015625)"/>
       <path id="DejaVuSans-72" d="M 2631 2963 
Q 2534 3019 2420 3045 
Q 2306 3072 2169 3072 
Q 1681 3072 1420 2755 
Q 1159 2438 1159 1844 
L 1159 0 
L 581 0 
L 581 3500 
L 1159 3500 
L 1159 2956 
Q 1341 3275 1631 3429 
Q 1922 3584 2338 3584 
Q 2397 3584 2469 3576 
Q 2541 3569 2628 3553 
L 2631 2963 
z
" transform="scale(0.015625)"/>
      </defs>
      <use xlink:href="#DejaVuSans-59"/>
      <use xlink:href="#DejaVuSans-65" x="47.833984"/>
      <use xlink:href="#DejaVuSans-61" x="109.357422"/>
      <use xlink:href="#DejaVuSans-72" x="170.636719"/>
     </g>
    </g>
   </g>
   <g id="matplotlib.axis_2">
    <g id="ytick_1">
     <g id="line2d_7">
      <defs>
       <path id="m82dacf6e88" d="M 0 0 
L -3.5 0 
" style="stroke: #000000; stroke-width: 0.8"/>
      </defs>
      <g>
       <use xlink:href="#m82dacf6e88" x="61.49" y="279.667509" style="stroke: #000000; stroke-width: 0.8"/>
      </g>
     </g>
     <g id="text_8">
      <!-- 0 -->
      <g transform="translate(48.1275 283.466728) scale(0.1 -0.1)">
       <use xlink:href="#DejaVuSans-30"/>
      </g>
     </g>
    </g>
    <g id="ytick_2">
     <g id="line2d_8">
      <g>
       <use xlink:href="#m82dacf6e88" x="61.49" y="239.947637" style="stroke: #000000; stroke-width: 0.8"/>
      </g>
     </g>
     <g id="text_9">
      <!-- 1000 -->
      <g transform="translate(29.04 243.746856) scale(0.1 -0.1)">
       <use xlink:href="#DejaVuSans-31"/>
       <use xlink:href="#DejaVuSans-30" x="63.623047"/>
       <use xlink:href="#DejaVuSans-30" x="127.246094"/>
       <use xlink:href="#DejaVuSans-30" x="190.869141"/>
      </g>
     </g>
    </g>
    <g id="ytick_3">
     <g id="line2d_9">
      <g>
       <use xlink:href="#m82dacf6e88" x="61.49" y="200.227765" style="stroke: #000000; stroke-width: 0.8"/>
      </g>
     </g>
     <g id="text_10">
      <!-- 2000 -->
      <g transform="translate(29.04 204.026983) scale(0.1 -0.1)">
       <use xlink:href="#DejaVuSans-32"/>
       <use xlink:href="#DejaVuSans-30" x="63.623047"/>
       <use xlink:href="#DejaVuSans-30" x="127.246094"/>
       <use xlink:href="#DejaVuSans-30" x="190.869141"/>
      </g>
     </g>
    </g>
    <g id="ytick_4">
     <g id="line2d_10">
      <g>
       <use xlink:href="#m82dacf6e88" x="61.49" y="160.507892" style="stroke: #000000; stroke-width: 0.8"/>
      </g>
     </g>
     <g id="text_11">
      <!-- 3000 -->
      <g transform="translate(29.04 164.307111) scale(0.1 -0.1)">
       <defs>
        <path id="DejaVuSans-33" d="M 2597 2516 
Q 3050 2419 3304 2112 
Q 3559 1806 3559 1356 
Q 3559 666 3084 287 
Q 2609 -91 1734 -91 
Q 1441 -91 1130 -33 
Q 819 25 488 141 
L 488 750 
Q 750 597 1062 519 
Q 1375 441 1716 441 
Q 2309 441 2620 675 
Q 2931 909 2931 1356 
Q 2931 1769 2642 2001 
Q 2353 2234 1838 2234 
L 1294 2234 
L 1294 2753 
L 1863 2753 
Q 2328 2753 2575 2939 
Q 2822 3125 2822 3475 
Q 2822 3834 2567 4026 
Q 2313 4219 1838 4219 
Q 1578 4219 1281 4162 
Q 984 4106 628 3988 
L 628 4550 
Q 988 4650 1302 4700 
Q 1616 4750 1894 4750 
Q 2613 4750 3031 4423 
Q 3450 4097 3450 3541 
Q 3450 3153 3228 2886 
Q 3006 2619 2597 2516 
z
" transform="scale(0.015625)"/>
       </defs>
       <use xlink:href="#DejaVuSans-33"/>
       <use xlink:href="#DejaVuSans-30" x="63.623047"/>
       <use xlink:href="#DejaVuSans-30" x="127.246094"/>
       <use xlink:href="#DejaVuSans-30" x="190.869141"/>
      </g>
     </g>
    </g>
    <g id="ytick_5">
     <g id="line2d_11">
      <g>
       <use xlink:href="#m82dacf6e88" x="61.49" y="120.78802" style="stroke: #000000; stroke-width: 0.8"/>
      </g>
     </g>
     <g id="text_12">
      <!-- 4000 -->
      <g transform="translate(29.04 124.587239) scale(0.1 -0.1)">
       <use xlink:href="#DejaVuSans-34"/>
       <use xlink:href="#DejaVuSans-30" x="63.623047"/>
       <use xlink:href="#DejaVuSans-30" x="127.246094"/>
       <use xlink:href="#DejaVuSans-30" x="190.869141"/>
      </g>
     </g>
    </g>
    <g id="ytick_6">
     <g id="line2d_12">
      <g>
       <use xlink:href="#m82dacf6e88" x="61.49" y="81.068148" style="stroke: #000000; stroke-width: 0.8"/>
      </g>
     </g>
     <g id="text_13">
      <!-- 5000 -->
      <g transform="translate(29.04 84.867367) scale(0.1 -0.1)">
       <defs>
        <path id="DejaVuSans-35" d="M 691 4666 
L 3169 4666 
L 3169 4134 
L 1269 4134 
L 1269 2991 
Q 1406 3038 1543 3061 
Q 1681 3084 1819 3084 
Q 2600 3084 3056 2656 
Q 3513 2228 3513 1497 
Q 3513 744 3044 326 
Q 2575 -91 1722 -91 
Q 1428 -91 1123 -41 
Q 819 9 494 109 
L 494 744 
Q 775 591 1075 516 
Q 1375 441 1709 441 
Q 2250 441 2565 725 
Q 2881 1009 2881 1497 
Q 2881 1984 2565 2268 
Q 2250 2553 1709 2553 
Q 1456 2553 1204 2497 
Q 953 2441 691 2322 
L 691 4666 
z
" transform="scale(0.015625)"/>
       </defs>
       <use xlink:href="#DejaVuSans-35"/>
       <use xlink:href="#DejaVuSans-30" x="63.623047"/>
       <use xlink:href="#DejaVuSans-30" x="127.246094"/>
       <use xlink:href="#DejaVuSans-30" x="190.869141"/>
      </g>
     </g>
    </g>
    <g id="text_14">
     <!-- Number of proteins -->
     <g transform="translate(21.920469 246.632202) rotate(-90) scale(0.15 -0.15)">
      <defs>
       <path id="DejaVuSans-4e" d="M 628 4666 
L 1478 4666 
L 3547 763 
L 3547 4666 
L 4159 4666 
L 4159 0 
L 3309 0 
L 1241 3903 
L 1241 0 
L 628 0 
L 628 4666 
z
" transform="scale(0.015625)"/>
       <path id="DejaVuSans-75" d="M 544 1381 
L 544 3500 
L 1119 3500 
L 1119 1403 
Q 1119 906 1312 657 
Q 1506 409 1894 409 
Q 2359 409 2629 706 
Q 2900 1003 2900 1516 
L 2900 3500 
L 3475 3500 
L 3475 0 
L 2900 0 
L 2900 538 
Q 2691 219 2414 64 
Q 2138 -91 1772 -91 
Q 1169 -91 856 284 
Q 544 659 544 1381 
z
M 1991 3584 
L 1991 3584 
z
" transform="scale(0.015625)"/>
       <path id="DejaVuSans-6d" d="M 3328 2828 
Q 3544 3216 3844 3400 
Q 4144 3584 4550 3584 
Q 5097 3584 5394 3201 
Q 5691 2819 5691 2113 
L 5691 0 
L 5113 0 
L 5113 2094 
Q 5113 2597 4934 2840 
Q 4756 3084 4391 3084 
Q 3944 3084 3684 2787 
Q 3425 2491 3425 1978 
L 3425 0 
L 2847 0 
L 2847 2094 
Q 2847 2600 2669 2842 
Q 2491 3084 2119 3084 
Q 1678 3084 1418 2786 
Q 1159 2488 1159 1978 
L 1159 0 
L 581 0 
L 581 3500 
L 1159 3500 
L 1159 2956 
Q 1356 3278 1631 3431 
Q 1906 3584 2284 3584 
Q 2666 3584 2933 3390 
Q 3200 3197 3328 2828 
z
" transform="scale(0.015625)"/>
       <path id="DejaVuSans-62" d="M 3116 1747 
Q 3116 2381 2855 2742 
Q 2594 3103 2138 3103 
Q 1681 3103 1420 2742 
Q 1159 2381 1159 1747 
Q 1159 1113 1420 752 
Q 1681 391 2138 391 
Q 2594 391 2855 752 
Q 3116 1113 3116 1747 
z
M 1159 2969 
Q 1341 3281 1617 3432 
Q 1894 3584 2278 3584 
Q 2916 3584 3314 3078 
Q 3713 2572 3713 1747 
Q 3713 922 3314 415 
Q 2916 -91 2278 -91 
Q 1894 -91 1617 61 
Q 1341 213 1159 525 
L 1159 0 
L 581 0 
L 581 4863 
L 1159 4863 
L 1159 2969 
z
" transform="scale(0.015625)"/>
       <path id="DejaVuSans-20" transform="scale(0.015625)"/>
       <path id="DejaVuSans-6f" d="M 1959 3097 
Q 1497 3097 1228 2736 
Q 959 2375 959 1747 
Q 959 1119 1226 758 
Q 1494 397 1959 397 
Q 2419 397 2687 759 
Q 2956 1122 2956 1747 
Q 2956 2369 2687 2733 
Q 2419 3097 1959 3097 
z
M 1959 3584 
Q 2709 3584 3137 3096 
Q 3566 2609 3566 1747 
Q 3566 888 3137 398 
Q 2709 -91 1959 -91 
Q 1206 -91 779 398 
Q 353 888 353 1747 
Q 353 2609 779 3096 
Q 1206 3584 1959 3584 
z
" transform="scale(0.015625)"/>
       <path id="DejaVuSans-66" d="M 2375 4863 
L 2375 4384 
L 1825 4384 
Q 1516 4384 1395 4259 
Q 1275 4134 1275 3809 
L 1275 3500 
L 2222 3500 
L 2222 3053 
L 1275 3053 
L 1275 0 
L 697 0 
L 697 3053 
L 147 3053 
L 147 3500 
L 697 3500 
L 697 3744 
Q 697 4328 969 4595 
Q 1241 4863 1831 4863 
L 2375 4863 
z
" transform="scale(0.015625)"/>
       <path id="DejaVuSans-70" d="M 1159 525 
L 1159 -1331 
L 581 -1331 
L 581 3500 
L 1159 3500 
L 1159 2969 
Q 1341 3281 1617 3432 
Q 1894 3584 2278 3584 
Q 2916 3584 3314 3078 
Q 3713 2572 3713 1747 
Q 3713 922 3314 415 
Q 2916 -91 2278 -91 
Q 1894 -91 1617 61 
Q 1341 213 1159 525 
z
M 3116 1747 
Q 3116 2381 2855 2742 
Q 2594 3103 2138 3103 
Q 1681 3103 1420 2742 
Q 1159 2381 1159 1747 
Q 1159 1113 1420 752 
Q 1681 391 2138 391 
Q 2594 391 2855 752 
Q 3116 1113 3116 1747 
z
" transform="scale(0.015625)"/>
       <path id="DejaVuSans-74" d="M 1172 4494 
L 1172 3500 
L 2356 3500 
L 2356 3053 
L 1172 3053 
L 1172 1153 
Q 1172 725 1289 603 
Q 1406 481 1766 481 
L 2356 481 
L 2356 0 
L 1766 0 
Q 1100 0 847 248 
Q 594 497 594 1153 
L 594 3053 
L 172 3053 
L 172 3500 
L 594 3500 
L 594 4494 
L 1172 4494 
z
" transform="scale(0.015625)"/>
       <path id="DejaVuSans-69" d="M 603 3500 
L 1178 3500 
L 1178 0 
L 603 0 
L 603 3500 
z
M 603 4863 
L 1178 4863 
L 1178 4134 
L 603 4134 
L 603 4863 
z
" transform="scale(0.015625)"/>
       <path id="DejaVuSans-6e" d="M 3513 2113 
L 3513 0 
L 2938 0 
L 2938 2094 
Q 2938 2591 2744 2837 
Q 2550 3084 2163 3084 
Q 1697 3084 1428 2787 
Q 1159 2491 1159 1978 
L 1159 0 
L 581 0 
L 581 3500 
L 1159 3500 
L 1159 2956 
Q 1366 3272 1645 3428 
Q 1925 3584 2291 3584 
Q 2894 3584 3203 3211 
Q 3513 2838 3513 2113 
z
" transform="scale(0.015625)"/>
       <path id="DejaVuSans-73" d="M 2834 3397 
L 2834 2853 
Q 2591 2978 2328 3040 
Q 2066 3103 1784 3103 
Q 1356 3103 1142 2972 
Q 928 2841 928 2578 
Q 928 2378 1081 2264 
Q 1234 2150 1697 2047 
L 1894 2003 
Q 2506 1872 2764 1633 
Q 3022 1394 3022 966 
Q 3022 478 2636 193 
Q 2250 -91 1575 -91 
Q 1294 -91 989 -36 
Q 684 19 347 128 
L 347 722 
Q 666 556 975 473 
Q 1284 391 1588 391 
Q 1994 391 2212 530 
Q 2431 669 2431 922 
Q 2431 1156 2273 1281 
Q 2116 1406 1581 1522 
L 1381 1569 
Q 847 1681 609 1914 
Q 372 2147 372 2553 
Q 372 3047 722 3315 
Q 1072 3584 1716 3584 
Q 2034 3584 2315 3537 
Q 2597 3491 2834 3397 
z
" transform="scale(0.015625)"/>
      </defs>
      <use xlink:href="#DejaVuSans-4e"/>
      <use xlink:href="#DejaVuSans-75" x="74.804688"/>
      <use xlink:href="#DejaVuSans-6d" x="138.183594"/>
      <use xlink:href="#DejaVuSans-62" x="235.595703"/>
      <use xlink:href="#DejaVuSans-65" x="299.072266"/>
      <use xlink:href="#DejaVuSans-72" x="360.595703"/>
      <use xlink:href="#DejaVuSans-20" x="401.708984"/>
      <use xlink:href="#DejaVuSans-6f" x="433.496094"/>
      <use xlink:href="#DejaVuSans-66" x="494.677734"/>
      <use xlink:href="#DejaVuSans-20" x="529.882812"/>
      <use xlink:href="#DejaVuSans-70" x="561.669922"/>
      <use xlink:href="#DejaVuSans-72" x="625.146484"/>
      <use xlink:href="#DejaVuSans-6f" x="664.009766"/>
      <use xlink:href="#DejaVuSans-74" x="725.191406"/>
      <use xlink:href="#DejaVuSans-65" x="764.400391"/>
      <use xlink:href="#DejaVuSans-69" x="825.923828"/>
      <use xlink:href="#DejaVuSans-6e" x="853.707031"/>
      <use xlink:href="#DejaVuSans-73" x="917.085938"/>
     </g>
    </g>
   </g>
   <g id="patch_3">
    <path d="M 61.49 279.667509 
L 61.49 68.218769 
" style="fill: none; stroke: #000000; stroke-width: 0.8; stroke-linejoin: miter; stroke-linecap: square"/>
   </g>
   <g id="patch_4">
    <path d="M 61.49 279.667509 
L 450 279.667509 
" style="fill: none; stroke: #000000; stroke-width: 0.8; stroke-linejoin: miter; stroke-linecap: square"/>
   </g>
   <g id="legend_1">
    <g id="patch_5">
     <path d="M 128.755156 63.218769 
L 382.734844 63.218769 
Q 384.734844 63.218769 384.734844 61.218769 
L 384.734844 32.862519 
Q 384.734844 30.862519 382.734844 30.862519 
L 128.755156 30.862519 
Q 126.755156 30.862519 126.755156 32.862519 
L 126.755156 61.218769 
Q 126.755156 63.218769 128.755156 63.218769 
z
" style="fill: #ffffff; opacity: 0.8; stroke: #cccccc; stroke-linejoin: miter"/>
    </g>
    <g id="patch_6">
     <path d="M 130.755156 42.460957 
L 150.755156 42.460957 
L 150.755156 35.460957 
L 130.755156 35.460957 
z
" style="fill: #fb363b"/>
    </g>
    <g id="text_15">
     <!-- Published -->
     <g transform="translate(158.755156 42.460957) scale(0.1 -0.1)">
      <defs>
       <path id="DejaVuSans-50" d="M 1259 4147 
L 1259 2394 
L 2053 2394 
Q 2494 2394 2734 2622 
Q 2975 2850 2975 3272 
Q 2975 3691 2734 3919 
Q 2494 4147 2053 4147 
L 1259 4147 
z
M 628 4666 
L 2053 4666 
Q 2838 4666 3239 4311 
Q 3641 3956 3641 3272 
Q 3641 2581 3239 2228 
Q 2838 1875 2053 1875 
L 1259 1875 
L 1259 0 
L 628 0 
L 628 4666 
z
" transform="scale(0.015625)"/>
       <path id="DejaVuSans-6c" d="M 603 4863 
L 1178 4863 
L 1178 0 
L 603 0 
L 603 4863 
z
" transform="scale(0.015625)"/>
       <path id="DejaVuSans-68" d="M 3513 2113 
L 3513 0 
L 2938 0 
L 2938 2094 
Q 2938 2591 2744 2837 
Q 2550 3084 2163 3084 
Q 1697 3084 1428 2787 
Q 1159 2491 1159 1978 
L 1159 0 
L 581 0 
L 581 4863 
L 1159 4863 
L 1159 2956 
Q 1366 3272 1645 3428 
Q 1925 3584 2291 3584 
Q 2894 3584 3203 3211 
Q 3513 2838 3513 2113 
z
" transform="scale(0.015625)"/>
       <path id="DejaVuSans-64" d="M 2906 2969 
L 2906 4863 
L 3481 4863 
L 3481 0 
L 2906 0 
L 2906 525 
Q 2725 213 2448 61 
Q 2172 -91 1784 -91 
Q 1150 -91 751 415 
Q 353 922 353 1747 
Q 353 2572 751 3078 
Q 1150 3584 1784 3584 
Q 2172 3584 2448 3432 
Q 2725 3281 2906 2969 
z
M 947 1747 
Q 947 1113 1208 752 
Q 1469 391 1925 391 
Q 2381 391 2643 752 
Q 2906 1113 2906 1747 
Q 2906 2381 2643 2742 
Q 2381 3103 1925 3103 
Q 1469 3103 1208 2742 
Q 947 2381 947 1747 
z
" transform="scale(0.015625)"/>
      </defs>
      <use xlink:href="#DejaVuSans-50"/>
      <use xlink:href="#DejaVuSans-75" x="58.552734"/>
      <use xlink:href="#DejaVuSans-62" x="121.931641"/>
      <use xlink:href="#DejaVuSans-6c" x="185.408203"/>
      <use xlink:href="#DejaVuSans-69" x="213.191406"/>
      <use xlink:href="#DejaVuSans-73" x="240.974609"/>
      <use xlink:href="#DejaVuSans-68" x="293.074219"/>
      <use xlink:href="#DejaVuSans-65" x="356.453125"/>
      <use xlink:href="#DejaVuSans-64" x="417.976562"/>
     </g>
    </g>
    <g id="patch_7">
     <path d="M 130.755156 57.139082 
L 150.755156 57.139082 
L 150.755156 50.139082 
L 130.755156 50.139082 
z
" style="fill: #fdc92c"/>
    </g>
    <g id="text_16">
     <!-- Inferred role -->
     <g transform="translate(158.755156 57.139082) scale(0.1 -0.1)">
      <defs>
       <path id="DejaVuSans-49" d="M 628 4666 
L 1259 4666 
L 1259 0 
L 628 0 
L 628 4666 
z
" transform="scale(0.015625)"/>
      </defs>
      <use xlink:href="#DejaVuSans-49"/>
      <use xlink:href="#DejaVuSans-6e" x="29.492188"/>
      <use xlink:href="#DejaVuSans-66" x="92.871094"/>
      <use xlink:href="#DejaVuSans-65" x="128.076172"/>
      <use xlink:href="#DejaVuSans-72" x="189.599609"/>
      <use xlink:href="#DejaVuSans-72" x="228.962891"/>
      <use xlink:href="#DejaVuSans-65" x="267.826172"/>
      <use xlink:href="#DejaVuSans-64" x="329.349609"/>
      <use xlink:href="#DejaVuSans-20" x="392.826172"/>
      <use xlink:href="#DejaVuSans-72" x="424.613281"/>
      <use xlink:href="#DejaVuSans-6f" x="463.476562"/>
      <use xlink:href="#DejaVuSans-6c" x="524.658203"/>
      <use xlink:href="#DejaVuSans-65" x="552.441406"/>
     </g>
    </g>
    <g id="patch_8">
     <path d="M 240.153594 42.460957 
L 260.153594 42.460957 
L 260.153594 35.460957 
L 240.153594 35.460957 
z
" style="fill: #aeaeae"/>
    </g>
    <g id="text_17">
     <!-- Conserved unknown -->
     <g transform="translate(268.153594 42.460957) scale(0.1 -0.1)">
      <defs>
       <path id="DejaVuSans-43" d="M 4122 4306 
L 4122 3641 
Q 3803 3938 3442 4084 
Q 3081 4231 2675 4231 
Q 1875 4231 1450 3742 
Q 1025 3253 1025 2328 
Q 1025 1406 1450 917 
Q 1875 428 2675 428 
Q 3081 428 3442 575 
Q 3803 722 4122 1019 
L 4122 359 
Q 3791 134 3420 21 
Q 3050 -91 2638 -91 
Q 1578 -91 968 557 
Q 359 1206 359 2328 
Q 359 3453 968 4101 
Q 1578 4750 2638 4750 
Q 3056 4750 3426 4639 
Q 3797 4528 4122 4306 
z
" transform="scale(0.015625)"/>
       <path id="DejaVuSans-76" d="M 191 3500 
L 800 3500 
L 1894 563 
L 2988 3500 
L 3597 3500 
L 2284 0 
L 1503 0 
L 191 3500 
z
" transform="scale(0.015625)"/>
       <path id="DejaVuSans-6b" d="M 581 4863 
L 1159 4863 
L 1159 1991 
L 2875 3500 
L 3609 3500 
L 1753 1863 
L 3688 0 
L 2938 0 
L 1159 1709 
L 1159 0 
L 581 0 
L 581 4863 
z
" transform="scale(0.015625)"/>
       <path id="DejaVuSans-77" d="M 269 3500 
L 844 3500 
L 1563 769 
L 2278 3500 
L 2956 3500 
L 3675 769 
L 4391 3500 
L 4966 3500 
L 4050 0 
L 3372 0 
L 2619 2869 
L 1863 0 
L 1184 0 
L 269 3500 
z
" transform="scale(0.015625)"/>
      </defs>
      <use xlink:href="#DejaVuSans-43"/>
      <use xlink:href="#DejaVuSans-6f" x="69.824219"/>
      <use xlink:href="#DejaVuSans-6e" x="131.005859"/>
      <use xlink:href="#DejaVuSans-73" x="194.384766"/>
      <use xlink:href="#DejaVuSans-65" x="246.484375"/>
      <use xlink:href="#DejaVuSans-72" x="308.007812"/>
      <use xlink:href="#DejaVuSans-76" x="349.121094"/>
      <use xlink:href="#DejaVuSans-65" x="408.300781"/>
      <use xlink:href="#DejaVuSans-64" x="469.824219"/>
      <use xlink:href="#DejaVuSans-20" x="533.300781"/>
      <use xlink:href="#DejaVuSans-75" x="565.087891"/>
      <use xlink:href="#DejaVuSans-6e" x="628.466797"/>
      <use xlink:href="#DejaVuSans-6b" x="691.845703"/>
      <use xlink:href="#DejaVuSans-6e" x="749.755859"/>
      <use xlink:href="#DejaVuSans-6f" x="813.134766"/>
      <use xlink:href="#DejaVuSans-77" x="874.316406"/>
      <use xlink:href="#DejaVuSans-6e" x="956.103516"/>
     </g>
    </g>
    <g id="patch_9">
     <path d="M 240.153594 57.139082 
L 260.153594 57.139082 
L 260.153594 50.139082 
L 240.153594 50.139082 
z
" style="fill: #d5dce5"/>
    </g>
    <g id="text_18">
     <!-- Fission yeast unknown -->
     <g transform="translate(268.153594 57.139082) scale(0.1 -0.1)">
      <defs>
       <path id="DejaVuSans-46" d="M 628 4666 
L 3309 4666 
L 3309 4134 
L 1259 4134 
L 1259 2759 
L 3109 2759 
L 3109 2228 
L 1259 2228 
L 1259 0 
L 628 0 
L 628 4666 
z
" transform="scale(0.015625)"/>
       <path id="DejaVuSans-79" d="M 2059 -325 
Q 1816 -950 1584 -1140 
Q 1353 -1331 966 -1331 
L 506 -1331 
L 506 -850 
L 844 -850 
Q 1081 -850 1212 -737 
Q 1344 -625 1503 -206 
L 1606 56 
L 191 3500 
L 800 3500 
L 1894 763 
L 2988 3500 
L 3597 3500 
L 2059 -325 
z
" transform="scale(0.015625)"/>
      </defs>
      <use xlink:href="#DejaVuSans-46"/>
      <use xlink:href="#DejaVuSans-69" x="50.269531"/>
      <use xlink:href="#DejaVuSans-73" x="78.052734"/>
      <use xlink:href="#DejaVuSans-73" x="130.152344"/>
      <use xlink:href="#DejaVuSans-69" x="182.251953"/>
      <use xlink:href="#DejaVuSans-6f" x="210.035156"/>
      <use xlink:href="#DejaVuSans-6e" x="271.216797"/>
      <use xlink:href="#DejaVuSans-20" x="334.595703"/>
      <use xlink:href="#DejaVuSans-79" x="366.382812"/>
      <use xlink:href="#DejaVuSans-65" x="425.5625"/>
      <use xlink:href="#DejaVuSans-61" x="487.085938"/>
      <use xlink:href="#DejaVuSans-73" x="548.365234"/>
      <use xlink:href="#DejaVuSans-74" x="600.464844"/>
      <use xlink:href="#DejaVuSans-20" x="639.673828"/>
      <use xlink:href="#DejaVuSans-75" x="671.460938"/>
      <use xlink:href="#DejaVuSans-6e" x="734.839844"/>
      <use xlink:href="#DejaVuSans-6b" x="798.21875"/>
      <use xlink:href="#DejaVuSans-6e" x="856.128906"/>
      <use xlink:href="#DejaVuSans-6f" x="919.507812"/>
      <use xlink:href="#DejaVuSans-77" x="980.689453"/>
      <use xlink:href="#DejaVuSans-6e" x="1062.476562"/>
     </g>
    </g>
   </g>
  </g>
 </g>
 <defs>
  <clipPath id="p096a0d040b">
   <rect x="61.49" y="68.218769" width="388.51" height="211.44874"/>
  </clipPath>
 </defs>
</svg>
