<?xml version="1.0" encoding="utf-8" standalone="no"?>
<!DOCTYPE svg PUBLIC "-//W3C//DTD SVG 1.1//EN"
  "http://www.w3.org/Graphics/SVG/1.1/DTD/svg11.dtd">
<svg xmlns:xlink="http://www.w3.org/1999/xlink" width="460.8pt" height="345.6pt" viewBox="0 0 460.8 345.6" xmlns="http://www.w3.org/2000/svg" version="1.1">
 <metadata>
  <rdf:RDF xmlns:dc="http://purl.org/dc/elements/1.1/" xmlns:cc="http://creativecommons.org/ns#" xmlns:rdf="http://www.w3.org/1999/02/22-rdf-syntax-ns#">
   <cc:Work>
    <dc:type rdf:resource="http://purl.org/dc/dcmitype/StillImage"/>
    <dc:date>2024-07-02T00:52:15.952892</dc:date>
    <dc:format>image/svg+xml</dc:format>
    <dc:creator>
     <cc:Agent>
      <dc:title>Matplotlib v3.7.1, https://matplotlib.org/</dc:title>
     </cc:Agent>
    </dc:creator>
   </cc:Work>
  </rdf:RDF>
 </metadata>
 <defs>
  <style type="text/css">*{stroke-linejoin: round; stroke-linecap: butt}</style>
 </defs>
 <g id="figure_1">
  <g id="patch_1">
   <path d="M 0 345.6 
L 460.8 345.6 
L 460.8 0 
L 0 0 
z
" style="fill: #ffffff"/>
  </g>
  <g id="axes_1">
   <g id="patch_2">
    <path d="M 61.49 280.41514 
L 445.885193 280.41514 
L 445.885193 67.86486 
L 61.49 67.86486 
z
" style="fill: #ffffff"/>
   </g>
   <g id="PolyCollection_1">
    <path d="M 31.295363 226.474043 
L 31.295363 280.41514 
L 39.729898 280.41514 
L 48.064616 280.41514 
L 65.183228 280.41514 
L 85.046807 280.41514 
L 99.669995 280.41514 
L 108.75334 280.41514 
L 111.09904 280.41514 
L 115.441078 280.41514 
L 117.437418 280.41514 
L 117.68696 280.41514 
L 120.980921 280.41514 
L 121.829365 280.41514 
L 122.528084 280.41514 
L 123.376528 280.41514 
L 123.925522 280.41514 
L 124.773966 280.41514 
L 125.273051 280.41514 
L 126.171404 280.41514 
L 127.369207 280.41514 
L 128.317469 280.41514 
L 128.666828 280.41514 
L 129.664998 280.41514 
L 130.363717 280.41514 
L 131.112344 280.41514 
L 131.91088 280.41514 
L 132.459873 280.41514 
L 132.958958 280.41514 
L 134.356396 280.41514 
L 135.354566 280.41514 
L 136.103193 280.41514 
L 136.302827 280.41514 
L 137.001546 280.41514 
L 138.049624 280.41514 
L 139.147611 280.41514 
L 139.896238 280.41514 
L 140.994225 280.41514 
L 142.441572 280.41514 
L 144.437911 280.41514 
L 146.184708 280.41514 
L 147.681963 280.41514 
L 150.476838 280.41514 
L 151.674642 280.41514 
L 154.918694 280.41514 
L 157.014851 280.41514 
L 158.312471 280.41514 
L 159.111007 280.41514 
L 162.255242 280.41514 
L 164.002039 280.41514 
L 165.798745 280.41514 
L 169.342248 280.41514 
L 172.636208 280.41514 
L 173.185202 280.41514 
L 173.834012 280.41514 
L 174.832182 280.41514 
L 175.630718 280.41514 
L 178.076234 280.41514 
L 182.967266 280.41514 
L 183.915527 280.41514 
L 188.507108 280.41514 
L 189.555186 280.41514 
L 190.603265 280.41514 
L 192.300153 280.41514 
L 193.697591 280.41514 
L 195.04512 280.41514 
L 195.893565 280.41514 
L 198.638532 280.41514 
L 201.483316 280.41514 
L 202.880753 280.41514 
L 203.878923 280.41514 
L 205.126636 280.41514 
L 206.174714 280.41514 
L 207.422426 280.41514 
L 210.367027 280.41514 
L 211.91419 280.41514 
L 213.411445 280.41514 
L 214.958608 280.41514 
L 216.455863 280.41514 
L 218.003026 280.41514 
L 219.550189 280.41514 
L 220.997535 280.41514 
L 222.544699 280.41514 
L 224.041953 280.41514 
L 225.589117 280.41514 
L 227.086371 280.41514 
L 228.633535 280.41514 
L 230.180698 280.41514 
L 231.677952 280.41514 
L 233.225116 280.41514 
L 234.72237 280.41514 
L 236.269534 280.41514 
L 237.816697 280.41514 
L 239.214134 280.41514 
L 240.761298 280.41514 
L 242.258552 280.41514 
L 243.805716 280.41514 
L 245.30297 280.41514 
L 246.850134 280.41514 
L 248.397297 280.41514 
L 249.894551 280.41514 
L 251.441715 280.41514 
L 252.938969 280.41514 
L 254.486133 280.41514 
L 256.033296 280.41514 
L 257.430734 280.41514 
L 258.977897 280.41514 
L 260.475151 280.41514 
L 262.022315 280.41514 
L 263.519569 280.41514 
L 265.066733 280.41514 
L 266.613896 280.41514 
L 268.11115 280.41514 
L 269.658314 280.41514 
L 271.155568 280.41514 
L 272.702732 280.41514 
L 274.249895 280.41514 
L 275.647333 280.41514 
L 277.194496 280.41514 
L 278.69175 280.41514 
L 280.238914 280.41514 
L 281.736168 280.41514 
L 283.283332 280.41514 
L 284.830495 280.41514 
L 286.327749 280.41514 
L 287.874913 280.41514 
L 289.372167 280.41514 
L 290.919331 280.41514 
L 292.466494 280.41514 
L 293.91384 280.41514 
L 295.461003 280.41514 
L 296.958258 280.41514 
L 298.505421 280.41514 
L 300.002676 280.41514 
L 301.549839 280.41514 
L 303.097002 280.41514 
L 304.594257 280.41514 
L 306.14142 280.41514 
L 307.638675 280.41514 
L 309.185838 280.41514 
L 310.733001 280.41514 
L 312.130439 280.41514 
L 313.677602 280.41514 
L 315.174857 280.41514 
L 316.72202 280.41514 
L 318.219275 280.41514 
L 319.766438 280.41514 
L 321.313601 280.41514 
L 322.810856 280.41514 
L 324.358019 280.41514 
L 325.855274 280.41514 
L 327.402437 280.41514 
L 328.9496 280.41514 
L 330.347038 280.41514 
L 331.894201 280.41514 
L 333.391456 280.41514 
L 334.938619 280.41514 
L 336.435874 280.41514 
L 337.983037 280.41514 
L 339.5302 280.41514 
L 341.027455 280.41514 
L 342.574618 280.41514 
L 344.071873 280.41514 
L 345.619036 280.41514 
L 347.166199 280.41514 
L 348.563637 280.41514 
L 350.1108 280.41514 
L 351.608055 280.41514 
L 353.155218 280.41514 
L 354.652473 280.41514 
L 356.199636 280.41514 
L 357.746799 280.41514 
L 359.244054 280.41514 
L 360.791217 280.41514 
L 362.288472 280.41514 
L 363.835635 280.41514 
L 365.382798 280.41514 
L 366.830145 280.41514 
L 368.377308 280.41514 
L 369.874562 280.41514 
L 371.421726 280.41514 
L 372.91898 280.41514 
L 374.466144 280.41514 
L 376.013307 280.41514 
L 377.510562 280.41514 
L 379.057725 280.41514 
L 380.554979 280.41514 
L 382.102143 280.41514 
L 383.649306 280.41514 
L 385.046744 280.41514 
L 386.593907 280.41514 
L 388.091162 280.41514 
L 389.638325 280.41514 
L 391.135579 280.41514 
L 392.682743 280.41514 
L 394.229906 280.41514 
L 395.727161 280.41514 
L 397.274324 280.41514 
L 398.771578 280.41514 
L 400.318742 280.41514 
L 401.865905 280.41514 
L 403.263343 280.41514 
L 404.810506 280.41514 
L 406.307761 280.41514 
L 407.854924 280.41514 
L 409.352178 280.41514 
L 410.899342 280.41514 
L 412.446505 280.41514 
L 413.94376 280.41514 
L 415.490923 280.41514 
L 416.988177 280.41514 
L 418.535341 280.41514 
L 420.082504 280.41514 
L 421.479942 280.41514 
L 423.027105 280.41514 
L 424.52436 280.41514 
L 426.071523 280.41514 
L 427.568777 280.41514 
L 429.115941 280.41514 
L 430.663104 280.41514 
L 432.160359 280.41514 
L 433.707522 280.41514 
L 435.204776 280.41514 
L 436.75194 280.41514 
L 438.299103 280.41514 
L 439.746449 280.41514 
L 441.293612 280.41514 
L 442.790867 280.41514 
L 444.33803 280.41514 
L 445.835285 280.41514 
L 445.835285 176.485699 
L 445.835285 176.485699 
L 444.33803 177.044674 
L 442.790867 177.164455 
L 441.293612 177.284235 
L 439.746449 177.364088 
L 438.299103 179.080941 
L 436.75194 179.200721 
L 435.204776 179.240648 
L 433.707522 179.480208 
L 432.160359 179.599989 
L 430.663104 179.639916 
L 429.115941 179.759696 
L 427.568777 180.238818 
L 426.071523 180.478378 
L 424.52436 180.598159 
L 423.027105 180.598159 
L 421.479942 180.9575 
L 420.082504 181.556402 
L 418.535341 181.516475 
L 416.988177 181.636255 
L 415.490923 181.756036 
L 413.94376 181.995596 
L 412.446505 181.995596 
L 410.899342 182.035523 
L 409.352178 182.035523 
L 407.854924 181.995596 
L 406.307761 182.07545 
L 404.810506 181.995596 
L 403.263343 181.95567 
L 401.865905 181.995596 
L 400.318742 181.995596 
L 398.771578 182.19523 
L 397.274324 182.394864 
L 395.727161 182.714279 
L 394.229906 182.953839 
L 392.682743 182.913913 
L 391.135579 183.113547 
L 389.638325 183.393034 
L 388.091162 183.393034 
L 386.593907 183.552741 
L 385.046744 184.07179 
L 383.649306 184.19157 
L 382.102143 184.630765 
L 380.554979 184.670691 
L 379.057725 184.830399 
L 377.510562 184.910252 
L 376.013307 185.069959 
L 374.466144 185.109886 
L 372.91898 185.18974 
L 371.421726 185.18974 
L 369.874562 185.269593 
L 368.377308 185.628935 
L 366.830145 185.748715 
L 365.382798 185.828568 
L 363.835635 185.908422 
L 362.288472 185.908422 
L 360.791217 185.908422 
L 359.244054 186.028202 
L 357.746799 186.108056 
L 356.199636 186.267763 
L 354.652473 186.507324 
L 353.155218 186.627104 
L 351.608055 186.706958 
L 350.1108 186.786811 
L 348.563637 186.826738 
L 347.166199 186.826738 
L 345.619036 186.866665 
L 344.071873 186.906592 
L 342.574618 186.986445 
L 341.027455 187.026372 
L 339.5302 187.026372 
L 337.983037 187.146153 
L 336.435874 187.265933 
L 334.938619 187.505494 
L 333.391456 187.665201 
L 331.894201 187.984615 
L 330.347038 188.144322 
L 328.9496 188.30403 
L 327.402437 188.343956 
L 325.855274 188.503664 
L 324.358019 188.663371 
L 322.810856 190.42015 
L 321.313601 190.699637 
L 319.766438 191.458246 
L 318.219275 190.819418 
L 316.72202 190.739564 
L 315.174857 190.779491 
L 313.677602 190.859344 
L 312.130439 191.138832 
L 310.733001 191.178759 
L 309.185838 191.258612 
L 307.638675 192.017221 
L 306.14142 192.137002 
L 304.594257 192.336636 
L 303.097002 192.416489 
L 301.549839 192.53627 
L 300.002676 192.975464 
L 298.505421 193.175098 
L 296.958258 193.175098 
L 295.461003 193.574366 
L 293.91384 193.65422 
L 292.466494 193.694147 
L 290.919331 193.893781 
L 289.372167 193.973634 
L 287.874913 193.973634 
L 286.327749 194.173268 
L 284.830495 194.213195 
L 283.283332 194.253122 
L 281.736168 194.412829 
L 280.238914 194.532609 
L 278.69175 193.933707 
L 277.194496 194.013561 
L 275.647333 194.213195 
L 274.249895 194.213195 
L 272.702732 194.452756 
L 271.155568 194.612463 
L 269.658314 194.89195 
L 268.11115 195.251291 
L 266.613896 195.570706 
L 265.066733 195.650559 
L 263.519569 195.930047 
L 262.022315 196.169608 
L 260.475151 196.528949 
L 258.977897 196.688656 
L 257.430734 196.88829 
L 256.033296 196.928217 
L 254.486133 196.928217 
L 252.938969 197.127851 
L 251.441715 197.606972 
L 249.894551 197.646899 
L 248.397297 197.88646 
L 246.850134 198.565215 
L 245.30297 198.645069 
L 243.805716 199.12419 
L 242.258552 199.443605 
L 240.761298 200.521628 
L 239.214134 200.601482 
L 237.816697 200.721262 
L 236.269534 201.00075 
L 234.72237 201.080603 
L 233.225116 201.320164 
L 231.677952 201.519798 
L 230.180698 201.879139 
L 228.633535 202.078773 
L 227.086371 202.198553 
L 225.589117 202.438114 
L 224.041953 202.478041 
L 222.544699 202.597821 
L 220.997535 202.757528 
L 219.550189 202.757528 
L 218.003026 202.837382 
L 216.455863 202.877309 
L 214.958608 202.917236 
L 213.411445 202.957162 
L 211.91419 202.997089 
L 210.367027 203.11687 
L 207.422426 203.875479 
L 206.174714 204.075113 
L 205.126636 204.115039 
L 203.878923 203.995259 
L 202.880753 203.995259 
L 201.483316 204.115039 
L 198.638532 204.23482 
L 195.893565 204.873648 
L 195.04512 205.831891 
L 193.697591 205.672184 
L 192.300153 205.632257 
L 190.603265 206.35094 
L 189.555186 206.35094 
L 188.507108 206.111379 
L 183.915527 206.630427 
L 182.967266 206.710281 
L 178.076234 207.389036 
L 175.630718 207.46889 
L 174.832182 207.309183 
L 173.834012 207.428963 
L 173.185202 207.628597 
L 172.636208 207.668524 
L 169.342248 207.788304 
L 165.798745 207.868158 
L 164.002039 208.067792 
L 162.255242 210.183912 
L 159.111007 210.104058 
L 158.312471 210.143985 
L 157.014851 210.58318 
L 154.918694 211.70113 
L 151.674642 211.940691 
L 150.476838 212.339959 
L 147.681963 212.619446 
L 146.184708 213.457909 
L 144.437911 214.016884 
L 142.441572 214.456079 
L 140.994225 214.496005 
L 139.896238 214.575859 
L 139.147611 214.615786 
L 138.049624 214.655713 
L 137.001546 215.374395 
L 136.302827 215.733736 
L 136.103193 215.733736 
L 135.354566 215.733736 
L 134.356396 215.973297 
L 132.958958 215.733736 
L 132.459873 215.93337 
L 131.91088 216.013223 
L 131.112344 216.133004 
L 130.363717 216.133004 
L 129.664998 216.452418 
L 128.666828 217.1711 
L 128.317469 217.131174 
L 127.369207 217.490515 
L 126.171404 217.570368 
L 125.273051 217.650222 
L 124.773966 217.730076 
L 123.925522 217.849856 
L 123.376528 218.089417 
L 122.528084 218.289051 
L 121.829365 218.209197 
L 120.980921 218.289051 
L 117.68696 218.568538 
L 117.437418 218.528611 
L 115.441078 218.848026 
L 111.09904 216.93154 
L 108.75334 219.766342 
L 99.669995 223.479534 
L 85.046807 226.953165 
L 65.183228 231.424965 
L 48.064616 226.274409 
L 39.729898 225.63558 
L 31.295363 226.474043 
z
" clip-path="url(#p76910191b2)" style="fill: #fb363b"/>
   </g>
   <g id="PolyCollection_2">
    <path d="M 31.295363 144.384558 
L 31.295363 226.474043 
L 39.729898 225.63558 
L 48.064616 226.274409 
L 65.183228 231.424965 
L 85.046807 226.953165 
L 99.669995 223.479534 
L 108.75334 219.766342 
L 111.09904 216.93154 
L 115.441078 218.848026 
L 117.437418 218.528611 
L 117.68696 218.568538 
L 120.980921 218.289051 
L 121.829365 218.209197 
L 122.528084 218.289051 
L 123.376528 218.089417 
L 123.925522 217.849856 
L 124.773966 217.730076 
L 125.273051 217.650222 
L 126.171404 217.570368 
L 127.369207 217.490515 
L 128.317469 217.131174 
L 128.666828 217.1711 
L 129.664998 216.452418 
L 130.363717 216.133004 
L 131.112344 216.133004 
L 131.91088 216.013223 
L 132.459873 215.93337 
L 132.958958 215.733736 
L 134.356396 215.973297 
L 135.354566 215.733736 
L 136.103193 215.733736 
L 136.302827 215.733736 
L 137.001546 215.374395 
L 138.049624 214.655713 
L 139.147611 214.615786 
L 139.896238 214.575859 
L 140.994225 214.496005 
L 142.441572 214.456079 
L 144.437911 214.016884 
L 146.184708 213.457909 
L 147.681963 212.619446 
L 150.476838 212.339959 
L 151.674642 211.940691 
L 154.918694 211.70113 
L 157.014851 210.58318 
L 158.312471 210.143985 
L 159.111007 210.104058 
L 162.255242 210.183912 
L 164.002039 208.067792 
L 165.798745 207.868158 
L 169.342248 207.788304 
L 172.636208 207.668524 
L 173.185202 207.628597 
L 173.834012 207.428963 
L 174.832182 207.309183 
L 175.630718 207.46889 
L 178.076234 207.389036 
L 182.967266 206.710281 
L 183.915527 206.630427 
L 188.507108 206.111379 
L 189.555186 206.35094 
L 190.603265 206.35094 
L 192.300153 205.632257 
L 193.697591 205.672184 
L 195.04512 205.831891 
L 195.893565 204.873648 
L 198.638532 204.23482 
L 201.483316 204.115039 
L 202.880753 203.995259 
L 203.878923 203.995259 
L 205.126636 204.115039 
L 206.174714 204.075113 
L 207.422426 203.875479 
L 210.367027 203.11687 
L 211.91419 202.997089 
L 213.411445 202.957162 
L 214.958608 202.917236 
L 216.455863 202.877309 
L 218.003026 202.837382 
L 219.550189 202.757528 
L 220.997535 202.757528 
L 222.544699 202.597821 
L 224.041953 202.478041 
L 225.589117 202.438114 
L 227.086371 202.198553 
L 228.633535 202.078773 
L 230.180698 201.879139 
L 231.677952 201.519798 
L 233.225116 201.320164 
L 234.72237 201.080603 
L 236.269534 201.00075 
L 237.816697 200.721262 
L 239.214134 200.601482 
L 240.761298 200.521628 
L 242.258552 199.443605 
L 243.805716 199.12419 
L 245.30297 198.645069 
L 246.850134 198.565215 
L 248.397297 197.88646 
L 249.894551 197.646899 
L 251.441715 197.606972 
L 252.938969 197.127851 
L 254.486133 196.928217 
L 256.033296 196.928217 
L 257.430734 196.88829 
L 258.977897 196.688656 
L 260.475151 196.528949 
L 262.022315 196.169608 
L 263.519569 195.930047 
L 265.066733 195.650559 
L 266.613896 195.570706 
L 268.11115 195.251291 
L 269.658314 194.89195 
L 271.155568 194.612463 
L 272.702732 194.452756 
L 274.249895 194.213195 
L 275.647333 194.213195 
L 277.194496 194.013561 
L 278.69175 193.933707 
L 280.238914 194.532609 
L 281.736168 194.412829 
L 283.283332 194.253122 
L 284.830495 194.213195 
L 286.327749 194.173268 
L 287.874913 193.973634 
L 289.372167 193.973634 
L 290.919331 193.893781 
L 292.466494 193.694147 
L 293.91384 193.65422 
L 295.461003 193.574366 
L 296.958258 193.175098 
L 298.505421 193.175098 
L 300.002676 192.975464 
L 301.549839 192.53627 
L 303.097002 192.416489 
L 304.594257 192.336636 
L 306.14142 192.137002 
L 307.638675 192.017221 
L 309.185838 191.258612 
L 310.733001 191.178759 
L 312.130439 191.138832 
L 313.677602 190.859344 
L 315.174857 190.779491 
L 316.72202 190.739564 
L 318.219275 190.819418 
L 319.766438 191.458246 
L 321.313601 190.699637 
L 322.810856 190.42015 
L 324.358019 188.663371 
L 325.855274 188.503664 
L 327.402437 188.343956 
L 328.9496 188.30403 
L 330.347038 188.144322 
L 331.894201 187.984615 
L 333.391456 187.665201 
L 334.938619 187.505494 
L 336.435874 187.265933 
L 337.983037 187.146153 
L 339.5302 187.026372 
L 341.027455 187.026372 
L 342.574618 186.986445 
L 344.071873 186.906592 
L 345.619036 186.866665 
L 347.166199 186.826738 
L 348.563637 186.826738 
L 350.1108 186.786811 
L 351.608055 186.706958 
L 353.155218 186.627104 
L 354.652473 186.507324 
L 356.199636 186.267763 
L 357.746799 186.108056 
L 359.244054 186.028202 
L 360.791217 185.908422 
L 362.288472 185.908422 
L 363.835635 185.908422 
L 365.382798 185.828568 
L 366.830145 185.748715 
L 368.377308 185.628935 
L 369.874562 185.269593 
L 371.421726 185.18974 
L 372.91898 185.18974 
L 374.466144 185.109886 
L 376.013307 185.069959 
L 377.510562 184.910252 
L 379.057725 184.830399 
L 380.554979 184.670691 
L 382.102143 184.630765 
L 383.649306 184.19157 
L 385.046744 184.07179 
L 386.593907 183.552741 
L 388.091162 183.393034 
L 389.638325 183.393034 
L 391.135579 183.113547 
L 392.682743 182.913913 
L 394.229906 182.953839 
L 395.727161 182.714279 
L 397.274324 182.394864 
L 398.771578 182.19523 
L 400.318742 181.995596 
L 401.865905 181.995596 
L 403.263343 181.95567 
L 404.810506 181.995596 
L 406.307761 182.07545 
L 407.854924 181.995596 
L 409.352178 182.035523 
L 410.899342 182.035523 
L 412.446505 181.995596 
L 413.94376 181.995596 
L 415.490923 181.756036 
L 416.988177 181.636255 
L 418.535341 181.516475 
L 420.082504 181.556402 
L 421.479942 180.9575 
L 423.027105 180.598159 
L 424.52436 180.598159 
L 426.071523 180.478378 
L 427.568777 180.238818 
L 429.115941 179.759696 
L 430.663104 179.639916 
L 432.160359 179.599989 
L 433.707522 179.480208 
L 435.204776 179.240648 
L 436.75194 179.200721 
L 438.299103 179.080941 
L 439.746449 177.364088 
L 441.293612 177.284235 
L 442.790867 177.164455 
L 444.33803 177.044674 
L 445.835285 176.485699 
L 445.835285 102.381572 
L 445.835285 102.381572 
L 444.33803 102.341646 
L 442.790867 102.501353 
L 441.293612 102.581206 
L 439.746449 102.54128 
L 438.299103 102.820767 
L 436.75194 103.100255 
L 435.204776 103.100255 
L 433.707522 103.220035 
L 432.160359 103.379742 
L 430.663104 103.459596 
L 429.115941 103.459596 
L 427.568777 103.739083 
L 426.071523 103.978644 
L 424.52436 104.098425 
L 423.027105 104.098425 
L 421.479942 104.138351 
L 420.082504 104.298058 
L 418.535341 104.417839 
L 416.988177 104.497692 
L 415.490923 104.497692 
L 413.94376 104.537619 
L 412.446505 104.417839 
L 410.899342 104.457766 
L 409.352178 104.457766 
L 407.854924 104.6574 
L 406.307761 104.617473 
L 404.810506 104.617473 
L 403.263343 104.6574 
L 401.865905 104.737253 
L 400.318742 104.737253 
L 398.771578 104.857034 
L 397.274324 104.817107 
L 395.727161 104.936887 
L 394.229906 104.976814 
L 392.682743 105.016741 
L 391.135579 105.056668 
L 389.638325 105.096594 
L 388.091162 105.056668 
L 386.593907 105.176448 
L 385.046744 105.376082 
L 383.649306 105.535789 
L 382.102143 105.575716 
L 380.554979 105.575716 
L 379.057725 105.655569 
L 377.510562 105.695496 
L 376.013307 105.77535 
L 374.466144 105.77535 
L 372.91898 105.815277 
L 371.421726 105.855203 
L 369.874562 105.735423 
L 368.377308 105.695496 
L 366.830145 105.735423 
L 365.382798 105.655569 
L 363.835635 105.655569 
L 362.288472 105.655569 
L 360.791217 105.655569 
L 359.244054 105.655569 
L 357.746799 105.695496 
L 356.199636 105.655569 
L 354.652473 105.695496 
L 353.155218 105.695496 
L 351.608055 105.575716 
L 350.1108 105.575716 
L 348.563637 105.615643 
L 347.166199 105.615643 
L 345.619036 105.695496 
L 344.071873 105.695496 
L 342.574618 105.77535 
L 341.027455 105.77535 
L 339.5302 105.77535 
L 337.983037 105.815277 
L 336.435874 105.815277 
L 334.938619 105.815277 
L 333.391456 105.855203 
L 331.894201 105.89513 
L 330.347038 106.214544 
L 328.9496 106.334325 
L 327.402437 106.254471 
L 325.855274 106.334325 
L 324.358019 106.454105 
L 322.810856 106.494032 
L 321.313601 107.053007 
L 319.766438 107.372421 
L 318.219275 109.568395 
L 316.72202 110.806126 
L 315.174857 111.24532 
L 313.677602 111.24532 
L 312.130439 111.564735 
L 310.733001 111.484881 
L 309.185838 110.686345 
L 307.638675 110.885979 
L 306.14142 111.325174 
L 304.594257 111.325174 
L 303.097002 111.205394 
L 301.549839 111.365101 
L 300.002676 111.405028 
L 298.505421 111.405028 
L 296.958258 111.444954 
L 295.461003 111.524808 
L 293.91384 111.524808 
L 292.466494 111.564735 
L 290.919331 111.564735 
L 289.372167 111.684515 
L 287.874913 111.724442 
L 286.327749 111.764369 
L 284.830495 111.764369 
L 283.283332 111.724442 
L 281.736168 111.764369 
L 280.238914 111.724442 
L 278.69175 112.363271 
L 277.194496 112.323344 
L 275.647333 112.403197 
L 274.249895 112.483051 
L 272.702732 112.602831 
L 271.155568 112.562904 
L 269.658314 112.842392 
L 268.11115 112.962172 
L 266.613896 113.12188 
L 265.066733 113.321514 
L 263.519569 113.36144 
L 262.022315 113.281587 
L 260.475151 113.36144 
L 258.977897 113.401367 
L 257.430734 113.401367 
L 256.033296 113.401367 
L 254.486133 113.401367 
L 252.938969 113.561074 
L 251.441715 113.640928 
L 249.894551 113.880489 
L 248.397297 113.920415 
L 246.850134 114.159976 
L 245.30297 114.23983 
L 243.805716 114.479391 
L 242.258552 114.599171 
L 240.761298 114.758878 
L 239.214134 114.798805 
L 237.816697 114.838732 
L 236.269534 114.998439 
L 234.72237 114.998439 
L 233.225116 115.198073 
L 231.677952 115.47756 
L 230.180698 115.637267 
L 228.633535 115.796975 
L 227.086371 115.996609 
L 225.589117 116.076462 
L 224.041953 116.395877 
L 222.544699 116.395877 
L 220.997535 116.435803 
L 219.550189 116.435803 
L 218.003026 116.435803 
L 216.455863 116.435803 
L 214.958608 116.435803 
L 213.411445 116.47573 
L 211.91419 116.635437 
L 210.367027 116.715291 
L 207.422426 117.194412 
L 206.174714 117.793314 
L 205.126636 118.072802 
L 203.878923 117.513827 
L 202.880753 117.833241 
L 201.483316 117.953021 
L 198.638532 118.112729 
L 195.893565 118.112729 
L 195.04512 118.272436 
L 193.697591 118.791484 
L 192.300153 118.751557 
L 190.603265 119.669874 
L 189.555186 119.669874 
L 188.507108 120.109068 
L 183.915527 120.388556 
L 182.967266 120.468409 
L 178.076234 121.58636 
L 175.630718 122.584529 
L 174.832182 122.624456 
L 173.834012 122.624456 
L 173.185202 122.624456 
L 172.636208 122.664383 
L 169.342248 122.225188 
L 165.798745 122.744237 
L 164.002039 122.94387 
L 162.255242 123.143504 
L 159.111007 123.263285 
L 158.312471 123.343138 
L 157.014851 123.542772 
L 154.918694 123.862187 
L 151.674642 123.70248 
L 150.476838 124.021894 
L 147.681963 123.981967 
L 146.184708 123.902114 
L 144.437911 124.261455 
L 142.441572 124.181601 
L 140.994225 124.061821 
L 139.896238 124.341308 
L 139.147611 124.381235 
L 138.049624 123.622626 
L 137.001546 123.662553 
L 136.302827 123.82226 
L 136.103193 123.82226 
L 135.354566 123.782333 
L 134.356396 124.301381 
L 132.958958 123.742406 
L 132.459873 123.742406 
L 131.91088 123.782333 
L 131.112344 123.82226 
L 130.363717 123.622626 
L 129.664998 124.061821 
L 128.666828 124.181601 
L 128.317469 123.94204 
L 127.369207 124.101747 
L 126.171404 124.061821 
L 125.273051 124.580869 
L 124.773966 124.501015 
L 123.925522 124.501015 
L 123.376528 122.70431 
L 122.528084 123.103578 
L 121.829365 122.105408 
L 120.980921 121.865847 
L 117.68696 122.145335 
L 117.437418 121.985627 
L 115.441078 122.265115 
L 111.09904 124.061821 
L 108.75334 124.94021 
L 99.669995 127.05633 
L 85.046807 130.090766 
L 65.183228 133.963665 
L 48.064616 140.152318 
L 39.729898 144.065144 
L 31.295363 144.384558 
z
" clip-path="url(#p76910191b2)" style="fill: #fdc92c"/>
   </g>
   <g id="PolyCollection_3">
    <path d="M 31.295363 112.922246 
L 31.295363 144.384558 
L 39.729898 144.065144 
L 48.064616 140.152318 
L 65.183228 133.963665 
L 85.046807 130.090766 
L 99.669995 127.05633 
L 108.75334 124.94021 
L 111.09904 124.061821 
L 115.441078 122.265115 
L 117.437418 121.985627 
L 117.68696 122.145335 
L 120.980921 121.865847 
L 121.829365 122.105408 
L 122.528084 123.103578 
L 123.376528 122.70431 
L 123.925522 124.501015 
L 124.773966 124.501015 
L 125.273051 124.580869 
L 126.171404 124.061821 
L 127.369207 124.101747 
L 128.317469 123.94204 
L 128.666828 124.181601 
L 129.664998 124.061821 
L 130.363717 123.622626 
L 131.112344 123.82226 
L 131.91088 123.782333 
L 132.459873 123.742406 
L 132.958958 123.742406 
L 134.356396 124.301381 
L 135.354566 123.782333 
L 136.103193 123.82226 
L 136.302827 123.82226 
L 137.001546 123.662553 
L 138.049624 123.622626 
L 139.147611 124.381235 
L 139.896238 124.341308 
L 140.994225 124.061821 
L 142.441572 124.181601 
L 144.437911 124.261455 
L 146.184708 123.902114 
L 147.681963 123.981967 
L 150.476838 124.021894 
L 151.674642 123.70248 
L 154.918694 123.862187 
L 157.014851 123.542772 
L 158.312471 123.343138 
L 159.111007 123.263285 
L 162.255242 123.143504 
L 164.002039 122.94387 
L 165.798745 122.744237 
L 169.342248 122.225188 
L 172.636208 122.664383 
L 173.185202 122.624456 
L 173.834012 122.624456 
L 174.832182 122.624456 
L 175.630718 122.584529 
L 178.076234 121.58636 
L 182.967266 120.468409 
L 183.915527 120.388556 
L 188.507108 120.109068 
L 189.555186 119.669874 
L 190.603265 119.669874 
L 192.300153 118.751557 
L 193.697591 118.791484 
L 195.04512 118.272436 
L 195.893565 118.112729 
L 198.638532 118.112729 
L 201.483316 117.953021 
L 202.880753 117.833241 
L 203.878923 117.513827 
L 205.126636 118.072802 
L 206.174714 117.793314 
L 207.422426 117.194412 
L 210.367027 116.715291 
L 211.91419 116.635437 
L 213.411445 116.47573 
L 214.958608 116.435803 
L 216.455863 116.435803 
L 218.003026 116.435803 
L 219.550189 116.435803 
L 220.997535 116.435803 
L 222.544699 116.395877 
L 224.041953 116.395877 
L 225.589117 116.076462 
L 227.086371 115.996609 
L 228.633535 115.796975 
L 230.180698 115.637267 
L 231.677952 115.47756 
L 233.225116 115.198073 
L 234.72237 114.998439 
L 236.269534 114.998439 
L 237.816697 114.838732 
L 239.214134 114.798805 
L 240.761298 114.758878 
L 242.258552 114.599171 
L 243.805716 114.479391 
L 245.30297 114.23983 
L 246.850134 114.159976 
L 248.397297 113.920415 
L 249.894551 113.880489 
L 251.441715 113.640928 
L 252.938969 113.561074 
L 254.486133 113.401367 
L 256.033296 113.401367 
L 257.430734 113.401367 
L 258.977897 113.401367 
L 260.475151 113.36144 
L 262.022315 113.281587 
L 263.519569 113.36144 
L 265.066733 113.321514 
L 266.613896 113.12188 
L 268.11115 112.962172 
L 269.658314 112.842392 
L 271.155568 112.562904 
L 272.702732 112.602831 
L 274.249895 112.483051 
L 275.647333 112.403197 
L 277.194496 112.323344 
L 278.69175 112.363271 
L 280.238914 111.724442 
L 281.736168 111.764369 
L 283.283332 111.724442 
L 284.830495 111.764369 
L 286.327749 111.764369 
L 287.874913 111.724442 
L 289.372167 111.684515 
L 290.919331 111.564735 
L 292.466494 111.564735 
L 293.91384 111.524808 
L 295.461003 111.524808 
L 296.958258 111.444954 
L 298.505421 111.405028 
L 300.002676 111.405028 
L 301.549839 111.365101 
L 303.097002 111.205394 
L 304.594257 111.325174 
L 306.14142 111.325174 
L 307.638675 110.885979 
L 309.185838 110.686345 
L 310.733001 111.484881 
L 312.130439 111.564735 
L 313.677602 111.24532 
L 315.174857 111.24532 
L 316.72202 110.806126 
L 318.219275 109.568395 
L 319.766438 107.372421 
L 321.313601 107.053007 
L 322.810856 106.494032 
L 324.358019 106.454105 
L 325.855274 106.334325 
L 327.402437 106.254471 
L 328.9496 106.334325 
L 330.347038 106.214544 
L 331.894201 105.89513 
L 333.391456 105.855203 
L 334.938619 105.815277 
L 336.435874 105.815277 
L 337.983037 105.815277 
L 339.5302 105.77535 
L 341.027455 105.77535 
L 342.574618 105.77535 
L 344.071873 105.695496 
L 345.619036 105.695496 
L 347.166199 105.615643 
L 348.563637 105.615643 
L 350.1108 105.575716 
L 351.608055 105.575716 
L 353.155218 105.695496 
L 354.652473 105.695496 
L 356.199636 105.655569 
L 357.746799 105.695496 
L 359.244054 105.655569 
L 360.791217 105.655569 
L 362.288472 105.655569 
L 363.835635 105.655569 
L 365.382798 105.655569 
L 366.830145 105.735423 
L 368.377308 105.695496 
L 369.874562 105.735423 
L 371.421726 105.855203 
L 372.91898 105.815277 
L 374.466144 105.77535 
L 376.013307 105.77535 
L 377.510562 105.695496 
L 379.057725 105.655569 
L 380.554979 105.575716 
L 382.102143 105.575716 
L 383.649306 105.535789 
L 385.046744 105.376082 
L 386.593907 105.176448 
L 388.091162 105.056668 
L 389.638325 105.096594 
L 391.135579 105.056668 
L 392.682743 105.016741 
L 394.229906 104.976814 
L 395.727161 104.936887 
L 397.274324 104.817107 
L 398.771578 104.857034 
L 400.318742 104.737253 
L 401.865905 104.737253 
L 403.263343 104.6574 
L 404.810506 104.617473 
L 406.307761 104.617473 
L 407.854924 104.6574 
L 409.352178 104.457766 
L 410.899342 104.457766 
L 412.446505 104.417839 
L 413.94376 104.537619 
L 415.490923 104.497692 
L 416.988177 104.497692 
L 418.535341 104.417839 
L 420.082504 104.298058 
L 421.479942 104.138351 
L 423.027105 104.098425 
L 424.52436 104.098425 
L 426.071523 103.978644 
L 427.568777 103.739083 
L 429.115941 103.459596 
L 430.663104 103.459596 
L 432.160359 103.379742 
L 433.707522 103.220035 
L 435.204776 103.100255 
L 436.75194 103.100255 
L 438.299103 102.820767 
L 439.746449 102.54128 
L 441.293612 102.581206 
L 442.790867 102.501353 
L 444.33803 102.341646 
L 445.835285 102.381572 
L 445.835285 88.806463 
L 445.835285 88.806463 
L 444.33803 88.806463 
L 442.790867 88.84639 
L 441.293612 88.84639 
L 439.746449 88.84639 
L 438.299103 88.886317 
L 436.75194 88.886317 
L 435.204776 88.886317 
L 433.707522 88.926243 
L 432.160359 88.926243 
L 430.663104 88.926243 
L 429.115941 88.926243 
L 427.568777 89.006097 
L 426.071523 89.006097 
L 424.52436 89.006097 
L 423.027105 89.006097 
L 421.479942 89.006097 
L 420.082504 89.046024 
L 418.535341 89.046024 
L 416.988177 89.125877 
L 415.490923 89.125877 
L 413.94376 89.165804 
L 412.446505 89.165804 
L 410.899342 89.165804 
L 409.352178 89.165804 
L 407.854924 89.245658 
L 406.307761 89.325511 
L 404.810506 89.325511 
L 403.263343 89.325511 
L 401.865905 89.325511 
L 400.318742 89.325511 
L 398.771578 89.365438 
L 397.274324 89.325511 
L 395.727161 89.405365 
L 394.229906 89.405365 
L 392.682743 89.405365 
L 391.135579 89.445292 
L 389.638325 89.445292 
L 388.091162 89.445292 
L 386.593907 89.485218 
L 385.046744 89.525145 
L 383.649306 89.565072 
L 382.102143 89.565072 
L 380.554979 89.525145 
L 379.057725 89.525145 
L 377.510562 89.525145 
L 376.013307 89.485218 
L 374.466144 89.485218 
L 372.91898 89.525145 
L 371.421726 89.525145 
L 369.874562 89.445292 
L 368.377308 89.405365 
L 366.830145 89.405365 
L 365.382798 89.445292 
L 363.835635 89.445292 
L 362.288472 89.445292 
L 360.791217 89.445292 
L 359.244054 89.445292 
L 357.746799 89.445292 
L 356.199636 89.445292 
L 354.652473 89.445292 
L 353.155218 89.445292 
L 351.608055 89.365438 
L 350.1108 89.365438 
L 348.563637 89.365438 
L 347.166199 89.365438 
L 345.619036 89.325511 
L 344.071873 89.325511 
L 342.574618 89.405365 
L 341.027455 89.405365 
L 339.5302 89.405365 
L 337.983037 89.445292 
L 336.435874 89.445292 
L 334.938619 89.445292 
L 333.391456 89.485218 
L 331.894201 89.525145 
L 330.347038 89.604999 
L 328.9496 89.604999 
L 327.402437 89.604999 
L 325.855274 89.764706 
L 324.358019 89.764706 
L 322.810856 89.764706 
L 321.313601 89.644926 
L 319.766438 89.684852 
L 318.219275 89.884486 
L 316.72202 90.842729 
L 315.174857 91.002437 
L 313.677602 91.042363 
L 312.130439 91.08229 
L 310.733001 91.08229 
L 309.185838 91.08229 
L 307.638675 91.08229 
L 306.14142 91.122217 
L 304.594257 91.122217 
L 303.097002 91.162144 
L 301.549839 91.202071 
L 300.002676 91.241997 
L 298.505421 91.241997 
L 296.958258 91.241997 
L 295.461003 91.241997 
L 293.91384 91.241997 
L 292.466494 91.281924 
L 290.919331 91.281924 
L 289.372167 91.321851 
L 287.874913 91.361778 
L 286.327749 91.361778 
L 284.830495 91.361778 
L 283.283332 91.361778 
L 281.736168 91.361778 
L 280.238914 91.361778 
L 278.69175 91.361778 
L 277.194496 91.361778 
L 275.647333 91.441631 
L 274.249895 91.441631 
L 272.702732 91.441631 
L 271.155568 91.481558 
L 269.658314 91.481558 
L 268.11115 91.521485 
L 266.613896 91.681192 
L 265.066733 92.639435 
L 263.519569 92.639435 
L 262.022315 92.639435 
L 260.475151 92.719289 
L 258.977897 92.719289 
L 257.430734 92.719289 
L 256.033296 92.719289 
L 254.486133 92.719289 
L 252.938969 92.719289 
L 251.441715 92.799142 
L 249.894551 92.719289 
L 248.397297 92.759215 
L 246.850134 92.839069 
L 245.30297 92.918923 
L 243.805716 93.118557 
L 242.258552 93.158483 
L 240.761298 93.158483 
L 239.214134 93.158483 
L 237.816697 93.158483 
L 236.269534 93.238337 
L 234.72237 93.238337 
L 233.225116 93.318191 
L 231.677952 93.318191 
L 230.180698 93.19841 
L 228.633535 93.278264 
L 227.086371 93.278264 
L 225.589117 93.278264 
L 224.041953 93.318191 
L 222.544699 93.318191 
L 220.997535 93.318191 
L 219.550189 93.358117 
L 218.003026 93.358117 
L 216.455863 93.398044 
L 214.958608 93.358117 
L 213.411445 93.358117 
L 211.91419 93.437971 
L 210.367027 93.477898 
L 207.422426 93.757385 
L 206.174714 94.356287 
L 205.126636 94.635775 
L 203.878923 93.996946 
L 202.880753 94.515994 
L 201.483316 94.555921 
L 198.638532 95.474237 
L 195.893565 95.474237 
L 195.04512 95.434311 
L 193.697591 95.594018 
L 192.300153 95.594018 
L 190.603265 95.673871 
L 189.555186 95.673871 
L 188.507108 95.713798 
L 183.915527 95.873505 
L 182.967266 95.873505 
L 178.076234 96.911602 
L 175.630718 97.031382 
L 174.832182 97.071309 
L 173.834012 97.191089 
L 173.185202 97.191089 
L 172.636208 97.191089 
L 169.342248 97.191089 
L 165.798745 97.43065 
L 164.002039 97.550431 
L 162.255242 97.590357 
L 159.111007 97.670211 
L 158.312471 97.789991 
L 157.014851 97.989625 
L 154.918694 98.229186 
L 151.674642 98.388893 
L 150.476838 99.027722 
L 147.681963 99.067649 
L 146.184708 99.347136 
L 144.437911 99.666551 
L 142.441572 99.746404 
L 140.994225 99.746404 
L 139.896238 99.746404 
L 139.147611 99.746404 
L 138.049624 99.906111 
L 137.001546 100.065818 
L 136.302827 100.185599 
L 136.103193 100.185599 
L 135.354566 100.145672 
L 134.356396 100.704647 
L 132.958958 100.225526 
L 132.459873 100.225526 
L 131.91088 100.305379 
L 131.112344 100.305379 
L 130.363717 100.305379 
L 129.664998 100.904281 
L 128.666828 100.904281 
L 128.317469 100.42516 
L 127.369207 101.024061 
L 126.171404 102.142012 
L 125.273051 103.060328 
L 124.773966 103.100255 
L 123.925522 103.100255 
L 123.376528 103.140181 
L 122.528084 103.739083 
L 121.829365 103.180108 
L 120.980921 103.180108 
L 117.68696 103.459596 
L 117.437418 103.499523 
L 115.441078 103.539449 
L 111.09904 100.904281 
L 108.75334 103.699157 
L 99.669995 105.615643 
L 85.046807 107.572055 
L 65.183228 108.929566 
L 48.064616 110.965833 
L 39.729898 113.36144 
L 31.295363 112.922246 
z
" clip-path="url(#p76910191b2)" style="fill: #aeaeae"/>
   </g>
   <g id="PolyCollection_4">
    <path d="M 31.295363 88.686683 
L 31.295363 112.922246 
L 39.729898 113.36144 
L 48.064616 110.965833 
L 65.183228 108.929566 
L 85.046807 107.572055 
L 99.669995 105.615643 
L 108.75334 103.699157 
L 111.09904 100.904281 
L 115.441078 103.539449 
L 117.437418 103.499523 
L 117.68696 103.459596 
L 120.980921 103.180108 
L 121.829365 103.180108 
L 122.528084 103.739083 
L 123.376528 103.140181 
L 123.925522 103.100255 
L 124.773966 103.100255 
L 125.273051 103.060328 
L 126.171404 102.142012 
L 127.369207 101.024061 
L 128.317469 100.42516 
L 128.666828 100.904281 
L 129.664998 100.904281 
L 130.363717 100.305379 
L 131.112344 100.305379 
L 131.91088 100.305379 
L 132.459873 100.225526 
L 132.958958 100.225526 
L 134.356396 100.704647 
L 135.354566 100.145672 
L 136.103193 100.185599 
L 136.302827 100.185599 
L 137.001546 100.065818 
L 138.049624 99.906111 
L 139.147611 99.746404 
L 139.896238 99.746404 
L 140.994225 99.746404 
L 142.441572 99.746404 
L 144.437911 99.666551 
L 146.184708 99.347136 
L 147.681963 99.067649 
L 150.476838 99.027722 
L 151.674642 98.388893 
L 154.918694 98.229186 
L 157.014851 97.989625 
L 158.312471 97.789991 
L 159.111007 97.670211 
L 162.255242 97.590357 
L 164.002039 97.550431 
L 165.798745 97.43065 
L 169.342248 97.191089 
L 172.636208 97.191089 
L 173.185202 97.191089 
L 173.834012 97.191089 
L 174.832182 97.071309 
L 175.630718 97.031382 
L 178.076234 96.911602 
L 182.967266 95.873505 
L 183.915527 95.873505 
L 188.507108 95.713798 
L 189.555186 95.673871 
L 190.603265 95.673871 
L 192.300153 95.594018 
L 193.697591 95.594018 
L 195.04512 95.434311 
L 195.893565 95.474237 
L 198.638532 95.474237 
L 201.483316 94.555921 
L 202.880753 94.515994 
L 203.878923 93.996946 
L 205.126636 94.635775 
L 206.174714 94.356287 
L 207.422426 93.757385 
L 210.367027 93.477898 
L 211.91419 93.437971 
L 213.411445 93.358117 
L 214.958608 93.358117 
L 216.455863 93.398044 
L 218.003026 93.358117 
L 219.550189 93.358117 
L 220.997535 93.318191 
L 222.544699 93.318191 
L 224.041953 93.318191 
L 225.589117 93.278264 
L 227.086371 93.278264 
L 228.633535 93.278264 
L 230.180698 93.19841 
L 231.677952 93.318191 
L 233.225116 93.318191 
L 234.72237 93.238337 
L 236.269534 93.238337 
L 237.816697 93.158483 
L 239.214134 93.158483 
L 240.761298 93.158483 
L 242.258552 93.158483 
L 243.805716 93.118557 
L 245.30297 92.918923 
L 246.850134 92.839069 
L 248.397297 92.759215 
L 249.894551 92.719289 
L 251.441715 92.799142 
L 252.938969 92.719289 
L 254.486133 92.719289 
L 256.033296 92.719289 
L 257.430734 92.719289 
L 258.977897 92.719289 
L 260.475151 92.719289 
L 262.022315 92.639435 
L 263.519569 92.639435 
L 265.066733 92.639435 
L 266.613896 91.681192 
L 268.11115 91.521485 
L 269.658314 91.481558 
L 271.155568 91.481558 
L 272.702732 91.441631 
L 274.249895 91.441631 
L 275.647333 91.441631 
L 277.194496 91.361778 
L 278.69175 91.361778 
L 280.238914 91.361778 
L 281.736168 91.361778 
L 283.283332 91.361778 
L 284.830495 91.361778 
L 286.327749 91.361778 
L 287.874913 91.361778 
L 289.372167 91.321851 
L 290.919331 91.281924 
L 292.466494 91.281924 
L 293.91384 91.241997 
L 295.461003 91.241997 
L 296.958258 91.241997 
L 298.505421 91.241997 
L 300.002676 91.241997 
L 301.549839 91.202071 
L 303.097002 91.162144 
L 304.594257 91.122217 
L 306.14142 91.122217 
L 307.638675 91.08229 
L 309.185838 91.08229 
L 310.733001 91.08229 
L 312.130439 91.08229 
L 313.677602 91.042363 
L 315.174857 91.002437 
L 316.72202 90.842729 
L 318.219275 89.884486 
L 319.766438 89.684852 
L 321.313601 89.644926 
L 322.810856 89.764706 
L 324.358019 89.764706 
L 325.855274 89.764706 
L 327.402437 89.604999 
L 328.9496 89.604999 
L 330.347038 89.604999 
L 331.894201 89.525145 
L 333.391456 89.485218 
L 334.938619 89.445292 
L 336.435874 89.445292 
L 337.983037 89.445292 
L 339.5302 89.405365 
L 341.027455 89.405365 
L 342.574618 89.405365 
L 344.071873 89.325511 
L 345.619036 89.325511 
L 347.166199 89.365438 
L 348.563637 89.365438 
L 350.1108 89.365438 
L 351.608055 89.365438 
L 353.155218 89.445292 
L 354.652473 89.445292 
L 356.199636 89.445292 
L 357.746799 89.445292 
L 359.244054 89.445292 
L 360.791217 89.445292 
L 362.288472 89.445292 
L 363.835635 89.445292 
L 365.382798 89.445292 
L 366.830145 89.405365 
L 368.377308 89.405365 
L 369.874562 89.445292 
L 371.421726 89.525145 
L 372.91898 89.525145 
L 374.466144 89.485218 
L 376.013307 89.485218 
L 377.510562 89.525145 
L 379.057725 89.525145 
L 380.554979 89.525145 
L 382.102143 89.565072 
L 383.649306 89.565072 
L 385.046744 89.525145 
L 386.593907 89.485218 
L 388.091162 89.445292 
L 389.638325 89.445292 
L 391.135579 89.445292 
L 392.682743 89.405365 
L 394.229906 89.405365 
L 395.727161 89.405365 
L 397.274324 89.325511 
L 398.771578 89.365438 
L 400.318742 89.325511 
L 401.865905 89.325511 
L 403.263343 89.325511 
L 404.810506 89.325511 
L 406.307761 89.325511 
L 407.854924 89.245658 
L 409.352178 89.165804 
L 410.899342 89.165804 
L 412.446505 89.165804 
L 413.94376 89.165804 
L 415.490923 89.125877 
L 416.988177 89.125877 
L 418.535341 89.046024 
L 420.082504 89.046024 
L 421.479942 89.006097 
L 423.027105 89.006097 
L 424.52436 89.006097 
L 426.071523 89.006097 
L 427.568777 89.006097 
L 429.115941 88.926243 
L 430.663104 88.926243 
L 432.160359 88.926243 
L 433.707522 88.926243 
L 435.204776 88.886317 
L 436.75194 88.886317 
L 438.299103 88.886317 
L 439.746449 88.84639 
L 441.293612 88.84639 
L 442.790867 88.84639 
L 444.33803 88.806463 
L 445.835285 88.806463 
L 445.835285 78.505351 
L 445.835285 78.505351 
L 444.33803 78.505351 
L 442.790867 78.505351 
L 441.293612 78.505351 
L 439.746449 78.505351 
L 438.299103 78.505351 
L 436.75194 78.505351 
L 435.204776 78.505351 
L 433.707522 78.505351 
L 432.160359 78.505351 
L 430.663104 78.505351 
L 429.115941 78.505351 
L 427.568777 78.505351 
L 426.071523 78.505351 
L 424.52436 78.505351 
L 423.027105 78.505351 
L 421.479942 78.505351 
L 420.082504 78.704985 
L 418.535341 78.744911 
L 416.988177 78.784838 
L 415.490923 78.784838 
L 413.94376 78.784838 
L 412.446505 78.784838 
L 410.899342 78.784838 
L 409.352178 78.784838 
L 407.854924 78.784838 
L 406.307761 78.784838 
L 404.810506 78.784838 
L 403.263343 78.824765 
L 401.865905 78.784838 
L 400.318742 78.784838 
L 398.771578 78.824765 
L 397.274324 78.545277 
L 395.727161 78.545277 
L 394.229906 78.185936 
L 392.682743 78.185936 
L 391.135579 78.185936 
L 389.638325 78.185936 
L 388.091162 78.185936 
L 386.593907 78.185936 
L 385.046744 78.225863 
L 383.649306 78.225863 
L 382.102143 78.225863 
L 380.554979 78.185936 
L 379.057725 78.185936 
L 377.510562 78.185936 
L 376.013307 78.225863 
L 374.466144 78.225863 
L 372.91898 78.225863 
L 371.421726 78.225863 
L 369.874562 78.146009 
L 368.377308 78.106083 
L 366.830145 78.106083 
L 365.382798 78.106083 
L 363.835635 78.106083 
L 362.288472 78.106083 
L 360.791217 78.106083 
L 359.244054 78.106083 
L 357.746799 78.106083 
L 356.199636 78.106083 
L 354.652473 78.106083 
L 353.155218 78.106083 
L 351.608055 78.026229 
L 350.1108 78.026229 
L 348.563637 78.026229 
L 347.166199 78.026229 
L 345.619036 78.026229 
L 344.071873 78.026229 
L 342.574618 78.026229 
L 341.027455 78.026229 
L 339.5302 78.026229 
L 337.983037 77.986302 
L 336.435874 77.986302 
L 334.938619 77.986302 
L 333.391456 77.986302 
L 331.894201 77.986302 
L 330.347038 77.986302 
L 328.9496 77.986302 
L 327.402437 77.986302 
L 325.855274 77.986302 
L 324.358019 77.986302 
L 322.810856 77.986302 
L 321.313601 77.986302 
L 319.766438 77.986302 
L 318.219275 77.986302 
L 316.72202 77.986302 
L 315.174857 77.986302 
L 313.677602 77.986302 
L 312.130439 77.986302 
L 310.733001 77.986302 
L 309.185838 77.986302 
L 307.638675 77.986302 
L 306.14142 77.986302 
L 304.594257 77.986302 
L 303.097002 77.986302 
L 301.549839 77.986302 
L 300.002676 77.986302 
L 298.505421 77.986302 
L 296.958258 77.986302 
L 295.461003 77.986302 
L 293.91384 78.345643 
L 292.466494 78.38557 
L 290.919331 78.38557 
L 289.372167 78.38557 
L 287.874913 78.545277 
L 286.327749 78.545277 
L 284.830495 78.545277 
L 283.283332 78.545277 
L 281.736168 78.545277 
L 280.238914 78.545277 
L 278.69175 78.545277 
L 277.194496 78.545277 
L 275.647333 78.545277 
L 274.249895 78.545277 
L 272.702732 78.545277 
L 271.155568 78.585204 
L 269.658314 78.585204 
L 268.11115 78.585204 
L 266.613896 78.585204 
L 265.066733 78.305717 
L 263.519569 78.465424 
L 262.022315 78.425497 
L 260.475151 78.425497 
L 258.977897 78.425497 
L 257.430734 78.425497 
L 256.033296 78.425497 
L 254.486133 78.425497 
L 252.938969 78.425497 
L 251.441715 78.465424 
L 249.894551 78.465424 
L 248.397297 78.465424 
L 246.850134 78.425497 
L 245.30297 78.425497 
L 243.805716 78.425497 
L 242.258552 78.425497 
L 240.761298 78.425497 
L 239.214134 78.425497 
L 237.816697 78.425497 
L 236.269534 78.425497 
L 234.72237 78.425497 
L 233.225116 78.425497 
L 231.677952 78.465424 
L 230.180698 78.425497 
L 228.633535 78.465424 
L 227.086371 78.425497 
L 225.589117 78.425497 
L 224.041953 78.425497 
L 222.544699 78.425497 
L 220.997535 78.425497 
L 219.550189 78.425497 
L 218.003026 78.465424 
L 216.455863 78.465424 
L 214.958608 78.425497 
L 213.411445 78.425497 
L 211.91419 78.425497 
L 210.367027 78.505351 
L 207.422426 78.784838 
L 206.174714 79.463594 
L 205.126636 79.543447 
L 203.878923 78.904619 
L 202.880753 80.461763 
L 201.483316 80.461763 
L 198.638532 81.899128 
L 195.893565 81.899128 
L 195.04512 81.859201 
L 193.697591 82.018908 
L 192.300153 81.978982 
L 190.603265 81.978982 
L 189.555186 81.978982 
L 188.507108 81.978982 
L 183.915527 82.298396 
L 182.967266 82.298396 
L 178.076234 82.49803 
L 175.630718 82.458103 
L 174.832182 82.458103 
L 173.834012 82.537957 
L 173.185202 82.537957 
L 172.636208 82.537957 
L 169.342248 83.096932 
L 165.798745 83.216712 
L 164.002039 83.216712 
L 162.255242 83.216712 
L 159.111007 83.216712 
L 158.312471 83.176785 
L 157.014851 83.176785 
L 154.918694 83.057005 
L 151.674642 83.017078 
L 150.476838 84.055175 
L 147.681963 84.174955 
L 146.184708 84.294735 
L 144.437911 84.174955 
L 142.441572 84.174955 
L 140.994225 84.135028 
L 139.896238 84.135028 
L 139.147611 84.135028 
L 138.049624 84.095102 
L 137.001546 84.095102 
L 136.302827 84.135028 
L 136.103193 84.135028 
L 135.354566 84.135028 
L 134.356396 84.574223 
L 132.958958 84.135028 
L 132.459873 84.135028 
L 131.91088 84.174955 
L 131.112344 84.095102 
L 130.363717 84.095102 
L 129.664998 84.494369 
L 128.666828 84.414516 
L 128.317469 83.975321 
L 127.369207 84.534296 
L 126.171404 84.374589 
L 125.273051 84.414516 
L 124.773966 84.414516 
L 123.925522 84.414516 
L 123.376528 84.454443 
L 122.528084 84.973491 
L 121.829365 84.414516 
L 120.980921 84.414516 
L 117.68696 85.412686 
L 117.437418 85.452612 
L 115.441078 85.412686 
L 111.09904 84.494369 
L 108.75334 85.412686 
L 99.669995 86.211222 
L 85.046807 86.650416 
L 65.183228 87.369099 
L 48.064616 87.808293 
L 39.729898 88.84639 
L 31.295363 88.686683 
z
" clip-path="url(#p76910191b2)" style="fill: #d5dce5"/>
   </g>
   <g id="matplotlib.axis_1">
    <g id="xtick_1">
     <g id="line2d_1">
      <defs>
       <path id="m96860644ea" d="M 0 0 
L 0 3.5 
" style="stroke: #000000; stroke-width: 0.8"/>
      </defs>
      <g>
       <use xlink:href="#m96860644ea" x="72.170417" y="280.41514" style="stroke: #000000; stroke-width: 0.8"/>
      </g>
     </g>
     <g id="text_1">
      <!-- 2004 -->
      <g transform="translate(59.445417 295.013577) scale(0.1 -0.1)">
       <defs>
        <path id="DejaVuSans-32" d="M 1228 531 
L 3431 531 
L 3431 0 
L 469 0 
L 469 531 
Q 828 903 1448 1529 
Q 2069 2156 2228 2338 
Q 2531 2678 2651 2914 
Q 2772 3150 2772 3378 
Q 2772 3750 2511 3984 
Q 2250 4219 1831 4219 
Q 1534 4219 1204 4116 
Q 875 4013 500 3803 
L 500 4441 
Q 881 4594 1212 4672 
Q 1544 4750 1819 4750 
Q 2544 4750 2975 4387 
Q 3406 4025 3406 3419 
Q 3406 3131 3298 2873 
Q 3191 2616 2906 2266 
Q 2828 2175 2409 1742 
Q 1991 1309 1228 531 
z
" transform="scale(0.015625)"/>
        <path id="DejaVuSans-30" d="M 2034 4250 
Q 1547 4250 1301 3770 
Q 1056 3291 1056 2328 
Q 1056 1369 1301 889 
Q 1547 409 2034 409 
Q 2525 409 2770 889 
Q 3016 1369 3016 2328 
Q 3016 3291 2770 3770 
Q 2525 4250 2034 4250 
z
M 2034 4750 
Q 2819 4750 3233 4129 
Q 3647 3509 3647 2328 
Q 3647 1150 3233 529 
Q 2819 -91 2034 -91 
Q 1250 -91 836 529 
Q 422 1150 422 2328 
Q 422 3509 836 4129 
Q 1250 4750 2034 4750 
z
" transform="scale(0.015625)"/>
        <path id="DejaVuSans-34" d="M 2419 4116 
L 825 1625 
L 2419 1625 
L 2419 4116 
z
M 2253 4666 
L 3047 4666 
L 3047 1625 
L 3713 1625 
L 3713 1100 
L 3047 1100 
L 3047 0 
L 2419 0 
L 2419 1100 
L 313 1100 
L 313 1709 
L 2253 4666 
z
" transform="scale(0.015625)"/>
       </defs>
       <use xlink:href="#DejaVuSans-32"/>
       <use xlink:href="#DejaVuSans-30" x="63.623047"/>
       <use xlink:href="#DejaVuSans-30" x="127.246094"/>
       <use xlink:href="#DejaVuSans-34" x="190.869141"/>
      </g>
     </g>
    </g>
    <g id="xtick_2">
     <g id="line2d_2">
      <g>
       <use xlink:href="#m96860644ea" x="145.086722" y="280.41514" style="stroke: #000000; stroke-width: 0.8"/>
      </g>
     </g>
     <g id="text_2">
      <!-- 2008 -->
      <g transform="translate(132.361722 295.013577) scale(0.1 -0.1)">
       <defs>
        <path id="DejaVuSans-38" d="M 2034 2216 
Q 1584 2216 1326 1975 
Q 1069 1734 1069 1313 
Q 1069 891 1326 650 
Q 1584 409 2034 409 
Q 2484 409 2743 651 
Q 3003 894 3003 1313 
Q 3003 1734 2745 1975 
Q 2488 2216 2034 2216 
z
M 1403 2484 
Q 997 2584 770 2862 
Q 544 3141 544 3541 
Q 544 4100 942 4425 
Q 1341 4750 2034 4750 
Q 2731 4750 3128 4425 
Q 3525 4100 3525 3541 
Q 3525 3141 3298 2862 
Q 3072 2584 2669 2484 
Q 3125 2378 3379 2068 
Q 3634 1759 3634 1313 
Q 3634 634 3220 271 
Q 2806 -91 2034 -91 
Q 1263 -91 848 271 
Q 434 634 434 1313 
Q 434 1759 690 2068 
Q 947 2378 1403 2484 
z
M 1172 3481 
Q 1172 3119 1398 2916 
Q 1625 2713 2034 2713 
Q 2441 2713 2670 2916 
Q 2900 3119 2900 3481 
Q 2900 3844 2670 4047 
Q 2441 4250 2034 4250 
Q 1625 4250 1398 4047 
Q 1172 3844 1172 3481 
z
" transform="scale(0.015625)"/>
       </defs>
       <use xlink:href="#DejaVuSans-32"/>
       <use xlink:href="#DejaVuSans-30" x="63.623047"/>
       <use xlink:href="#DejaVuSans-30" x="127.246094"/>
       <use xlink:href="#DejaVuSans-38" x="190.869141"/>
      </g>
     </g>
    </g>
    <g id="xtick_3">
     <g id="line2d_3">
      <g>
       <use xlink:href="#m96860644ea" x="218.003026" y="280.41514" style="stroke: #000000; stroke-width: 0.8"/>
      </g>
     </g>
     <g id="text_3">
      <!-- 2012 -->
      <g transform="translate(205.278026 295.013577) scale(0.1 -0.1)">
       <defs>
        <path id="DejaVuSans-31" d="M 794 531 
L 1825 531 
L 1825 4091 
L 703 3866 
L 703 4441 
L 1819 4666 
L 2450 4666 
L 2450 531 
L 3481 531 
L 3481 0 
L 794 0 
L 794 531 
z
" transform="scale(0.015625)"/>
       </defs>
       <use xlink:href="#DejaVuSans-32"/>
       <use xlink:href="#DejaVuSans-30" x="63.623047"/>
       <use xlink:href="#DejaVuSans-31" x="127.246094"/>
       <use xlink:href="#DejaVuSans-32" x="190.869141"/>
      </g>
     </g>
    </g>
    <g id="xtick_4">
     <g id="line2d_4">
      <g>
       <use xlink:href="#m96860644ea" x="290.919331" y="280.41514" style="stroke: #000000; stroke-width: 0.8"/>
      </g>
     </g>
     <g id="text_4">
      <!-- 2016 -->
      <g transform="translate(278.194331 295.013577) scale(0.1 -0.1)">
       <defs>
        <path id="DejaVuSans-36" d="M 2113 2584 
Q 1688 2584 1439 2293 
Q 1191 2003 1191 1497 
Q 1191 994 1439 701 
Q 1688 409 2113 409 
Q 2538 409 2786 701 
Q 3034 994 3034 1497 
Q 3034 2003 2786 2293 
Q 2538 2584 2113 2584 
z
M 3366 4563 
L 3366 3988 
Q 3128 4100 2886 4159 
Q 2644 4219 2406 4219 
Q 1781 4219 1451 3797 
Q 1122 3375 1075 2522 
Q 1259 2794 1537 2939 
Q 1816 3084 2150 3084 
Q 2853 3084 3261 2657 
Q 3669 2231 3669 1497 
Q 3669 778 3244 343 
Q 2819 -91 2113 -91 
Q 1303 -91 875 529 
Q 447 1150 447 2328 
Q 447 3434 972 4092 
Q 1497 4750 2381 4750 
Q 2619 4750 2861 4703 
Q 3103 4656 3366 4563 
z
" transform="scale(0.015625)"/>
       </defs>
       <use xlink:href="#DejaVuSans-32"/>
       <use xlink:href="#DejaVuSans-30" x="63.623047"/>
       <use xlink:href="#DejaVuSans-31" x="127.246094"/>
       <use xlink:href="#DejaVuSans-36" x="190.869141"/>
      </g>
     </g>
    </g>
    <g id="xtick_5">
     <g id="line2d_5">
      <g>
       <use xlink:href="#m96860644ea" x="363.835635" y="280.41514" style="stroke: #000000; stroke-width: 0.8"/>
      </g>
     </g>
     <g id="text_5">
      <!-- 2020 -->
      <g transform="translate(351.110635 295.013577) scale(0.1 -0.1)">
       <use xlink:href="#DejaVuSans-32"/>
       <use xlink:href="#DejaVuSans-30" x="63.623047"/>
       <use xlink:href="#DejaVuSans-32" x="127.246094"/>
       <use xlink:href="#DejaVuSans-30" x="190.869141"/>
      </g>
     </g>
    </g>
    <g id="xtick_6">
     <g id="line2d_6">
      <g>
       <use xlink:href="#m96860644ea" x="436.75194" y="280.41514" style="stroke: #000000; stroke-width: 0.8"/>
      </g>
     </g>
     <g id="text_6">
      <!-- 2024 -->
      <g transform="translate(424.02694 295.013577) scale(0.1 -0.1)">
       <use xlink:href="#DejaVuSans-32"/>
       <use xlink:href="#DejaVuSans-30" x="63.623047"/>
       <use xlink:href="#DejaVuSans-32" x="127.246094"/>
       <use xlink:href="#DejaVuSans-34" x="190.869141"/>
      </g>
     </g>
    </g>
    <g id="text_7">
     <!-- Year -->
     <g transform="translate(237.806347 312.490921) scale(0.15 -0.15)">
      <defs>
       <path id="DejaVuSans-59" d="M -13 4666 
L 666 4666 
L 1959 2747 
L 3244 4666 
L 3922 4666 
L 2272 2222 
L 2272 0 
L 1638 0 
L 1638 2222 
L -13 4666 
z
" transform="scale(0.015625)"/>
       <path id="DejaVuSans-65" d="M 3597 1894 
L 3597 1613 
L 953 1613 
Q 991 1019 1311 708 
Q 1631 397 2203 397 
Q 2534 397 2845 478 
Q 3156 559 3463 722 
L 3463 178 
Q 3153 47 2828 -22 
Q 2503 -91 2169 -91 
Q 1331 -91 842 396 
Q 353 884 353 1716 
Q 353 2575 817 3079 
Q 1281 3584 2069 3584 
Q 2775 3584 3186 3129 
Q 3597 2675 3597 1894 
z
M 3022 2063 
Q 3016 2534 2758 2815 
Q 2500 3097 2075 3097 
Q 1594 3097 1305 2825 
Q 1016 2553 972 2059 
L 3022 2063 
z
" transform="scale(0.015625)"/>
       <path id="DejaVuSans-61" d="M 2194 1759 
Q 1497 1759 1228 1600 
Q 959 1441 959 1056 
Q 959 750 1161 570 
Q 1363 391 1709 391 
Q 2188 391 2477 730 
Q 2766 1069 2766 1631 
L 2766 1759 
L 2194 1759 
z
M 3341 1997 
L 3341 0 
L 2766 0 
L 2766 531 
Q 2569 213 2275 61 
Q 1981 -91 1556 -91 
Q 1019 -91 701 211 
Q 384 513 384 1019 
Q 384 1609 779 1909 
Q 1175 2209 1959 2209 
L 2766 2209 
L 2766 2266 
Q 2766 2663 2505 2880 
Q 2244 3097 1772 3097 
Q 1472 3097 1187 3025 
Q 903 2953 641 2809 
L 641 3341 
Q 956 3463 1253 3523 
Q 1550 3584 1831 3584 
Q 2591 3584 2966 3190 
Q 3341 2797 3341 1997 
z
" transform="scale(0.015625)"/>
       <path id="DejaVuSans-72" d="M 2631 2963 
Q 2534 3019 2420 3045 
Q 2306 3072 2169 3072 
Q 1681 3072 1420 2755 
Q 1159 2438 1159 1844 
L 1159 0 
L 581 0 
L 581 3500 
L 1159 3500 
L 1159 2956 
Q 1341 3275 1631 3429 
Q 1922 3584 2338 3584 
Q 2397 3584 2469 3576 
Q 2541 3569 2628 3553 
L 2631 2963 
z
" transform="scale(0.015625)"/>
      </defs>
      <use xlink:href="#DejaVuSans-59"/>
      <use xlink:href="#DejaVuSans-65" x="47.833984"/>
      <use xlink:href="#DejaVuSans-61" x="109.357422"/>
      <use xlink:href="#DejaVuSans-72" x="170.636719"/>
     </g>
    </g>
   </g>
   <g id="matplotlib.axis_2">
    <g id="ytick_1">
     <g id="line2d_7">
      <defs>
       <path id="m58f4448eb1" d="M 0 0 
L -3.5 0 
" style="stroke: #000000; stroke-width: 0.8"/>
      </defs>
      <g>
       <use xlink:href="#m58f4448eb1" x="61.49" y="280.41514" style="stroke: #000000; stroke-width: 0.8"/>
      </g>
     </g>
     <g id="text_8">
      <!-- 0 -->
      <g transform="translate(48.1275 284.214358) scale(0.1 -0.1)">
       <use xlink:href="#DejaVuSans-30"/>
      </g>
     </g>
    </g>
    <g id="ytick_2">
     <g id="line2d_8">
      <g>
       <use xlink:href="#m58f4448eb1" x="61.49" y="240.488347" style="stroke: #000000; stroke-width: 0.8"/>
      </g>
     </g>
     <g id="text_9">
      <!-- 1000 -->
      <g transform="translate(29.04 244.287566) scale(0.1 -0.1)">
       <use xlink:href="#DejaVuSans-31"/>
       <use xlink:href="#DejaVuSans-30" x="63.623047"/>
       <use xlink:href="#DejaVuSans-30" x="127.246094"/>
       <use xlink:href="#DejaVuSans-30" x="190.869141"/>
      </g>
     </g>
    </g>
    <g id="ytick_3">
     <g id="line2d_9">
      <g>
       <use xlink:href="#m58f4448eb1" x="61.49" y="200.561555" style="stroke: #000000; stroke-width: 0.8"/>
      </g>
     </g>
     <g id="text_10">
      <!-- 2000 -->
      <g transform="translate(29.04 204.360774) scale(0.1 -0.1)">
       <use xlink:href="#DejaVuSans-32"/>
       <use xlink:href="#DejaVuSans-30" x="63.623047"/>
       <use xlink:href="#DejaVuSans-30" x="127.246094"/>
       <use xlink:href="#DejaVuSans-30" x="190.869141"/>
      </g>
     </g>
    </g>
    <g id="ytick_4">
     <g id="line2d_10">
      <g>
       <use xlink:href="#m58f4448eb1" x="61.49" y="160.634762" style="stroke: #000000; stroke-width: 0.8"/>
      </g>
     </g>
     <g id="text_11">
      <!-- 3000 -->
      <g transform="translate(29.04 164.433981) scale(0.1 -0.1)">
       <defs>
        <path id="DejaVuSans-33" d="M 2597 2516 
Q 3050 2419 3304 2112 
Q 3559 1806 3559 1356 
Q 3559 666 3084 287 
Q 2609 -91 1734 -91 
Q 1441 -91 1130 -33 
Q 819 25 488 141 
L 488 750 
Q 750 597 1062 519 
Q 1375 441 1716 441 
Q 2309 441 2620 675 
Q 2931 909 2931 1356 
Q 2931 1769 2642 2001 
Q 2353 2234 1838 2234 
L 1294 2234 
L 1294 2753 
L 1863 2753 
Q 2328 2753 2575 2939 
Q 2822 3125 2822 3475 
Q 2822 3834 2567 4026 
Q 2313 4219 1838 4219 
Q 1578 4219 1281 4162 
Q 984 4106 628 3988 
L 628 4550 
Q 988 4650 1302 4700 
Q 1616 4750 1894 4750 
Q 2613 4750 3031 4423 
Q 3450 4097 3450 3541 
Q 3450 3153 3228 2886 
Q 3006 2619 2597 2516 
z
" transform="scale(0.015625)"/>
       </defs>
       <use xlink:href="#DejaVuSans-33"/>
       <use xlink:href="#DejaVuSans-30" x="63.623047"/>
       <use xlink:href="#DejaVuSans-30" x="127.246094"/>
       <use xlink:href="#DejaVuSans-30" x="190.869141"/>
      </g>
     </g>
    </g>
    <g id="ytick_5">
     <g id="line2d_11">
      <g>
       <use xlink:href="#m58f4448eb1" x="61.49" y="120.70797" style="stroke: #000000; stroke-width: 0.8"/>
      </g>
     </g>
     <g id="text_12">
      <!-- 4000 -->
      <g transform="translate(29.04 124.507189) scale(0.1 -0.1)">
       <use xlink:href="#DejaVuSans-34"/>
       <use xlink:href="#DejaVuSans-30" x="63.623047"/>
       <use xlink:href="#DejaVuSans-30" x="127.246094"/>
       <use xlink:href="#DejaVuSans-30" x="190.869141"/>
      </g>
     </g>
    </g>
    <g id="ytick_6">
     <g id="line2d_12">
      <g>
       <use xlink:href="#m58f4448eb1" x="61.49" y="80.781178" style="stroke: #000000; stroke-width: 0.8"/>
      </g>
     </g>
     <g id="text_13">
      <!-- 5000 -->
      <g transform="translate(29.04 84.580397) scale(0.1 -0.1)">
       <defs>
        <path id="DejaVuSans-35" d="M 691 4666 
L 3169 4666 
L 3169 4134 
L 1269 4134 
L 1269 2991 
Q 1406 3038 1543 3061 
Q 1681 3084 1819 3084 
Q 2600 3084 3056 2656 
Q 3513 2228 3513 1497 
Q 3513 744 3044 326 
Q 2575 -91 1722 -91 
Q 1428 -91 1123 -41 
Q 819 9 494 109 
L 494 744 
Q 775 591 1075 516 
Q 1375 441 1709 441 
Q 2250 441 2565 725 
Q 2881 1009 2881 1497 
Q 2881 1984 2565 2268 
Q 2250 2553 1709 2553 
Q 1456 2553 1204 2497 
Q 953 2441 691 2322 
L 691 4666 
z
" transform="scale(0.015625)"/>
       </defs>
       <use xlink:href="#DejaVuSans-35"/>
       <use xlink:href="#DejaVuSans-30" x="63.623047"/>
       <use xlink:href="#DejaVuSans-30" x="127.246094"/>
       <use xlink:href="#DejaVuSans-30" x="190.869141"/>
      </g>
     </g>
    </g>
    <g id="text_14">
     <!-- Number of proteins -->
     <g transform="translate(21.920469 246.829062) rotate(-90) scale(0.15 -0.15)">
      <defs>
       <path id="DejaVuSans-4e" d="M 628 4666 
L 1478 4666 
L 3547 763 
L 3547 4666 
L 4159 4666 
L 4159 0 
L 3309 0 
L 1241 3903 
L 1241 0 
L 628 0 
L 628 4666 
z
" transform="scale(0.015625)"/>
       <path id="DejaVuSans-75" d="M 544 1381 
L 544 3500 
L 1119 3500 
L 1119 1403 
Q 1119 906 1312 657 
Q 1506 409 1894 409 
Q 2359 409 2629 706 
Q 2900 1003 2900 1516 
L 2900 3500 
L 3475 3500 
L 3475 0 
L 2900 0 
L 2900 538 
Q 2691 219 2414 64 
Q 2138 -91 1772 -91 
Q 1169 -91 856 284 
Q 544 659 544 1381 
z
M 1991 3584 
L 1991 3584 
z
" transform="scale(0.015625)"/>
       <path id="DejaVuSans-6d" d="M 3328 2828 
Q 3544 3216 3844 3400 
Q 4144 3584 4550 3584 
Q 5097 3584 5394 3201 
Q 5691 2819 5691 2113 
L 5691 0 
L 5113 0 
L 5113 2094 
Q 5113 2597 4934 2840 
Q 4756 3084 4391 3084 
Q 3944 3084 3684 2787 
Q 3425 2491 3425 1978 
L 3425 0 
L 2847 0 
L 2847 2094 
Q 2847 2600 2669 2842 
Q 2491 3084 2119 3084 
Q 1678 3084 1418 2786 
Q 1159 2488 1159 1978 
L 1159 0 
L 581 0 
L 581 3500 
L 1159 3500 
L 1159 2956 
Q 1356 3278 1631 3431 
Q 1906 3584 2284 3584 
Q 2666 3584 2933 3390 
Q 3200 3197 3328 2828 
z
" transform="scale(0.015625)"/>
       <path id="DejaVuSans-62" d="M 3116 1747 
Q 3116 2381 2855 2742 
Q 2594 3103 2138 3103 
Q 1681 3103 1420 2742 
Q 1159 2381 1159 1747 
Q 1159 1113 1420 752 
Q 1681 391 2138 391 
Q 2594 391 2855 752 
Q 3116 1113 3116 1747 
z
M 1159 2969 
Q 1341 3281 1617 3432 
Q 1894 3584 2278 3584 
Q 2916 3584 3314 3078 
Q 3713 2572 3713 1747 
Q 3713 922 3314 415 
Q 2916 -91 2278 -91 
Q 1894 -91 1617 61 
Q 1341 213 1159 525 
L 1159 0 
L 581 0 
L 581 4863 
L 1159 4863 
L 1159 2969 
z
" transform="scale(0.015625)"/>
       <path id="DejaVuSans-20" transform="scale(0.015625)"/>
       <path id="DejaVuSans-6f" d="M 1959 3097 
Q 1497 3097 1228 2736 
Q 959 2375 959 1747 
Q 959 1119 1226 758 
Q 1494 397 1959 397 
Q 2419 397 2687 759 
Q 2956 1122 2956 1747 
Q 2956 2369 2687 2733 
Q 2419 3097 1959 3097 
z
M 1959 3584 
Q 2709 3584 3137 3096 
Q 3566 2609 3566 1747 
Q 3566 888 3137 398 
Q 2709 -91 1959 -91 
Q 1206 -91 779 398 
Q 353 888 353 1747 
Q 353 2609 779 3096 
Q 1206 3584 1959 3584 
z
" transform="scale(0.015625)"/>
       <path id="DejaVuSans-66" d="M 2375 4863 
L 2375 4384 
L 1825 4384 
Q 1516 4384 1395 4259 
Q 1275 4134 1275 3809 
L 1275 3500 
L 2222 3500 
L 2222 3053 
L 1275 3053 
L 1275 0 
L 697 0 
L 697 3053 
L 147 3053 
L 147 3500 
L 697 3500 
L 697 3744 
Q 697 4328 969 4595 
Q 1241 4863 1831 4863 
L 2375 4863 
z
" transform="scale(0.015625)"/>
       <path id="DejaVuSans-70" d="M 1159 525 
L 1159 -1331 
L 581 -1331 
L 581 3500 
L 1159 3500 
L 1159 2969 
Q 1341 3281 1617 3432 
Q 1894 3584 2278 3584 
Q 2916 3584 3314 3078 
Q 3713 2572 3713 1747 
Q 3713 922 3314 415 
Q 2916 -91 2278 -91 
Q 1894 -91 1617 61 
Q 1341 213 1159 525 
z
M 3116 1747 
Q 3116 2381 2855 2742 
Q 2594 3103 2138 3103 
Q 1681 3103 1420 2742 
Q 1159 2381 1159 1747 
Q 1159 1113 1420 752 
Q 1681 391 2138 391 
Q 2594 391 2855 752 
Q 3116 1113 3116 1747 
z
" transform="scale(0.015625)"/>
       <path id="DejaVuSans-74" d="M 1172 4494 
L 1172 3500 
L 2356 3500 
L 2356 3053 
L 1172 3053 
L 1172 1153 
Q 1172 725 1289 603 
Q 1406 481 1766 481 
L 2356 481 
L 2356 0 
L 1766 0 
Q 1100 0 847 248 
Q 594 497 594 1153 
L 594 3053 
L 172 3053 
L 172 3500 
L 594 3500 
L 594 4494 
L 1172 4494 
z
" transform="scale(0.015625)"/>
       <path id="DejaVuSans-69" d="M 603 3500 
L 1178 3500 
L 1178 0 
L 603 0 
L 603 3500 
z
M 603 4863 
L 1178 4863 
L 1178 4134 
L 603 4134 
L 603 4863 
z
" transform="scale(0.015625)"/>
       <path id="DejaVuSans-6e" d="M 3513 2113 
L 3513 0 
L 2938 0 
L 2938 2094 
Q 2938 2591 2744 2837 
Q 2550 3084 2163 3084 
Q 1697 3084 1428 2787 
Q 1159 2491 1159 1978 
L 1159 0 
L 581 0 
L 581 3500 
L 1159 3500 
L 1159 2956 
Q 1366 3272 1645 3428 
Q 1925 3584 2291 3584 
Q 2894 3584 3203 3211 
Q 3513 2838 3513 2113 
z
" transform="scale(0.015625)"/>
       <path id="DejaVuSans-73" d="M 2834 3397 
L 2834 2853 
Q 2591 2978 2328 3040 
Q 2066 3103 1784 3103 
Q 1356 3103 1142 2972 
Q 928 2841 928 2578 
Q 928 2378 1081 2264 
Q 1234 2150 1697 2047 
L 1894 2003 
Q 2506 1872 2764 1633 
Q 3022 1394 3022 966 
Q 3022 478 2636 193 
Q 2250 -91 1575 -91 
Q 1294 -91 989 -36 
Q 684 19 347 128 
L 347 722 
Q 666 556 975 473 
Q 1284 391 1588 391 
Q 1994 391 2212 530 
Q 2431 669 2431 922 
Q 2431 1156 2273 1281 
Q 2116 1406 1581 1522 
L 1381 1569 
Q 847 1681 609 1914 
Q 372 2147 372 2553 
Q 372 3047 722 3315 
Q 1072 3584 1716 3584 
Q 2034 3584 2315 3537 
Q 2597 3491 2834 3397 
z
" transform="scale(0.015625)"/>
      </defs>
      <use xlink:href="#DejaVuSans-4e"/>
      <use xlink:href="#DejaVuSans-75" x="74.804688"/>
      <use xlink:href="#DejaVuSans-6d" x="138.183594"/>
      <use xlink:href="#DejaVuSans-62" x="235.595703"/>
      <use xlink:href="#DejaVuSans-65" x="299.072266"/>
      <use xlink:href="#DejaVuSans-72" x="360.595703"/>
      <use xlink:href="#DejaVuSans-20" x="401.708984"/>
      <use xlink:href="#DejaVuSans-6f" x="433.496094"/>
      <use xlink:href="#DejaVuSans-66" x="494.677734"/>
      <use xlink:href="#DejaVuSans-20" x="529.882812"/>
      <use xlink:href="#DejaVuSans-70" x="561.669922"/>
      <use xlink:href="#DejaVuSans-72" x="625.146484"/>
      <use xlink:href="#DejaVuSans-6f" x="664.009766"/>
      <use xlink:href="#DejaVuSans-74" x="725.191406"/>
      <use xlink:href="#DejaVuSans-65" x="764.400391"/>
      <use xlink:href="#DejaVuSans-69" x="825.923828"/>
      <use xlink:href="#DejaVuSans-6e" x="853.707031"/>
      <use xlink:href="#DejaVuSans-73" x="917.085938"/>
     </g>
    </g>
   </g>
   <g id="patch_3">
    <path d="M 61.49 280.41514 
L 61.49 67.86486 
" style="fill: none; stroke: #000000; stroke-width: 0.8; stroke-linejoin: miter; stroke-linecap: square"/>
   </g>
   <g id="patch_4">
    <path d="M 61.49 280.41514 
L 445.885193 280.41514 
" style="fill: none; stroke: #000000; stroke-width: 0.8; stroke-linejoin: miter; stroke-linecap: square"/>
   </g>
   <g id="legend_1">
    <g id="patch_5">
     <path d="M 126.697753 62.86486 
L 380.67744 62.86486 
Q 382.67744 62.86486 382.67744 60.86486 
L 382.67744 32.50861 
Q 382.67744 30.50861 380.67744 30.50861 
L 126.697753 30.50861 
Q 124.697753 30.50861 124.697753 32.50861 
L 124.697753 60.86486 
Q 124.697753 62.86486 126.697753 62.86486 
z
" style="fill: #ffffff; opacity: 0.8; stroke: #cccccc; stroke-linejoin: miter"/>
    </g>
    <g id="patch_6">
     <path d="M 128.697753 42.107048 
L 148.697753 42.107048 
L 148.697753 35.107048 
L 128.697753 35.107048 
z
" style="fill: #fb363b"/>
    </g>
    <g id="text_15">
     <!-- Published -->
     <g transform="translate(156.697753 42.107048) scale(0.1 -0.1)">
      <defs>
       <path id="DejaVuSans-50" d="M 1259 4147 
L 1259 2394 
L 2053 2394 
Q 2494 2394 2734 2622 
Q 2975 2850 2975 3272 
Q 2975 3691 2734 3919 
Q 2494 4147 2053 4147 
L 1259 4147 
z
M 628 4666 
L 2053 4666 
Q 2838 4666 3239 4311 
Q 3641 3956 3641 3272 
Q 3641 2581 3239 2228 
Q 2838 1875 2053 1875 
L 1259 1875 
L 1259 0 
L 628 0 
L 628 4666 
z
" transform="scale(0.015625)"/>
       <path id="DejaVuSans-6c" d="M 603 4863 
L 1178 4863 
L 1178 0 
L 603 0 
L 603 4863 
z
" transform="scale(0.015625)"/>
       <path id="DejaVuSans-68" d="M 3513 2113 
L 3513 0 
L 2938 0 
L 2938 2094 
Q 2938 2591 2744 2837 
Q 2550 3084 2163 3084 
Q 1697 3084 1428 2787 
Q 1159 2491 1159 1978 
L 1159 0 
L 581 0 
L 581 4863 
L 1159 4863 
L 1159 2956 
Q 1366 3272 1645 3428 
Q 1925 3584 2291 3584 
Q 2894 3584 3203 3211 
Q 3513 2838 3513 2113 
z
" transform="scale(0.015625)"/>
       <path id="DejaVuSans-64" d="M 2906 2969 
L 2906 4863 
L 3481 4863 
L 3481 0 
L 2906 0 
L 2906 525 
Q 2725 213 2448 61 
Q 2172 -91 1784 -91 
Q 1150 -91 751 415 
Q 353 922 353 1747 
Q 353 2572 751 3078 
Q 1150 3584 1784 3584 
Q 2172 3584 2448 3432 
Q 2725 3281 2906 2969 
z
M 947 1747 
Q 947 1113 1208 752 
Q 1469 391 1925 391 
Q 2381 391 2643 752 
Q 2906 1113 2906 1747 
Q 2906 2381 2643 2742 
Q 2381 3103 1925 3103 
Q 1469 3103 1208 2742 
Q 947 2381 947 1747 
z
" transform="scale(0.015625)"/>
      </defs>
      <use xlink:href="#DejaVuSans-50"/>
      <use xlink:href="#DejaVuSans-75" x="58.552734"/>
      <use xlink:href="#DejaVuSans-62" x="121.931641"/>
      <use xlink:href="#DejaVuSans-6c" x="185.408203"/>
      <use xlink:href="#DejaVuSans-69" x="213.191406"/>
      <use xlink:href="#DejaVuSans-73" x="240.974609"/>
      <use xlink:href="#DejaVuSans-68" x="293.074219"/>
      <use xlink:href="#DejaVuSans-65" x="356.453125"/>
      <use xlink:href="#DejaVuSans-64" x="417.976562"/>
     </g>
    </g>
    <g id="patch_7">
     <path d="M 128.697753 56.785173 
L 148.697753 56.785173 
L 148.697753 49.785173 
L 128.697753 49.785173 
z
" style="fill: #fdc92c"/>
    </g>
    <g id="text_16">
     <!-- Inferred role -->
     <g transform="translate(156.697753 56.785173) scale(0.1 -0.1)">
      <defs>
       <path id="DejaVuSans-49" d="M 628 4666 
L 1259 4666 
L 1259 0 
L 628 0 
L 628 4666 
z
" transform="scale(0.015625)"/>
      </defs>
      <use xlink:href="#DejaVuSans-49"/>
      <use xlink:href="#DejaVuSans-6e" x="29.492188"/>
      <use xlink:href="#DejaVuSans-66" x="92.871094"/>
      <use xlink:href="#DejaVuSans-65" x="128.076172"/>
      <use xlink:href="#DejaVuSans-72" x="189.599609"/>
      <use xlink:href="#DejaVuSans-72" x="228.962891"/>
      <use xlink:href="#DejaVuSans-65" x="267.826172"/>
      <use xlink:href="#DejaVuSans-64" x="329.349609"/>
      <use xlink:href="#DejaVuSans-20" x="392.826172"/>
      <use xlink:href="#DejaVuSans-72" x="424.613281"/>
      <use xlink:href="#DejaVuSans-6f" x="463.476562"/>
      <use xlink:href="#DejaVuSans-6c" x="524.658203"/>
      <use xlink:href="#DejaVuSans-65" x="552.441406"/>
     </g>
    </g>
    <g id="patch_8">
     <path d="M 238.09619 42.107048 
L 258.09619 42.107048 
L 258.09619 35.107048 
L 238.09619 35.107048 
z
" style="fill: #aeaeae"/>
    </g>
    <g id="text_17">
     <!-- Conserved unknown -->
     <g transform="translate(266.09619 42.107048) scale(0.1 -0.1)">
      <defs>
       <path id="DejaVuSans-43" d="M 4122 4306 
L 4122 3641 
Q 3803 3938 3442 4084 
Q 3081 4231 2675 4231 
Q 1875 4231 1450 3742 
Q 1025 3253 1025 2328 
Q 1025 1406 1450 917 
Q 1875 428 2675 428 
Q 3081 428 3442 575 
Q 3803 722 4122 1019 
L 4122 359 
Q 3791 134 3420 21 
Q 3050 -91 2638 -91 
Q 1578 -91 968 557 
Q 359 1206 359 2328 
Q 359 3453 968 4101 
Q 1578 4750 2638 4750 
Q 3056 4750 3426 4639 
Q 3797 4528 4122 4306 
z
" transform="scale(0.015625)"/>
       <path id="DejaVuSans-76" d="M 191 3500 
L 800 3500 
L 1894 563 
L 2988 3500 
L 3597 3500 
L 2284 0 
L 1503 0 
L 191 3500 
z
" transform="scale(0.015625)"/>
       <path id="DejaVuSans-6b" d="M 581 4863 
L 1159 4863 
L 1159 1991 
L 2875 3500 
L 3609 3500 
L 1753 1863 
L 3688 0 
L 2938 0 
L 1159 1709 
L 1159 0 
L 581 0 
L 581 4863 
z
" transform="scale(0.015625)"/>
       <path id="DejaVuSans-77" d="M 269 3500 
L 844 3500 
L 1563 769 
L 2278 3500 
L 2956 3500 
L 3675 769 
L 4391 3500 
L 4966 3500 
L 4050 0 
L 3372 0 
L 2619 2869 
L 1863 0 
L 1184 0 
L 269 3500 
z
" transform="scale(0.015625)"/>
      </defs>
      <use xlink:href="#DejaVuSans-43"/>
      <use xlink:href="#DejaVuSans-6f" x="69.824219"/>
      <use xlink:href="#DejaVuSans-6e" x="131.005859"/>
      <use xlink:href="#DejaVuSans-73" x="194.384766"/>
      <use xlink:href="#DejaVuSans-65" x="246.484375"/>
      <use xlink:href="#DejaVuSans-72" x="308.007812"/>
      <use xlink:href="#DejaVuSans-76" x="349.121094"/>
      <use xlink:href="#DejaVuSans-65" x="408.300781"/>
      <use xlink:href="#DejaVuSans-64" x="469.824219"/>
      <use xlink:href="#DejaVuSans-20" x="533.300781"/>
      <use xlink:href="#DejaVuSans-75" x="565.087891"/>
      <use xlink:href="#DejaVuSans-6e" x="628.466797"/>
      <use xlink:href="#DejaVuSans-6b" x="691.845703"/>
      <use xlink:href="#DejaVuSans-6e" x="749.755859"/>
      <use xlink:href="#DejaVuSans-6f" x="813.134766"/>
      <use xlink:href="#DejaVuSans-77" x="874.316406"/>
      <use xlink:href="#DejaVuSans-6e" x="956.103516"/>
     </g>
    </g>
    <g id="patch_9">
     <path d="M 238.09619 56.785173 
L 258.09619 56.785173 
L 258.09619 49.785173 
L 238.09619 49.785173 
z
" style="fill: #d5dce5"/>
    </g>
    <g id="text_18">
     <!-- Fission yeast unknown -->
     <g transform="translate(266.09619 56.785173) scale(0.1 -0.1)">
      <defs>
       <path id="DejaVuSans-46" d="M 628 4666 
L 3309 4666 
L 3309 4134 
L 1259 4134 
L 1259 2759 
L 3109 2759 
L 3109 2228 
L 1259 2228 
L 1259 0 
L 628 0 
L 628 4666 
z
" transform="scale(0.015625)"/>
       <path id="DejaVuSans-79" d="M 2059 -325 
Q 1816 -950 1584 -1140 
Q 1353 -1331 966 -1331 
L 506 -1331 
L 506 -850 
L 844 -850 
Q 1081 -850 1212 -737 
Q 1344 -625 1503 -206 
L 1606 56 
L 191 3500 
L 800 3500 
L 1894 763 
L 2988 3500 
L 3597 3500 
L 2059 -325 
z
" transform="scale(0.015625)"/>
      </defs>
      <use xlink:href="#DejaVuSans-46"/>
      <use xlink:href="#DejaVuSans-69" x="50.269531"/>
      <use xlink:href="#DejaVuSans-73" x="78.052734"/>
      <use xlink:href="#DejaVuSans-73" x="130.152344"/>
      <use xlink:href="#DejaVuSans-69" x="182.251953"/>
      <use xlink:href="#DejaVuSans-6f" x="210.035156"/>
      <use xlink:href="#DejaVuSans-6e" x="271.216797"/>
      <use xlink:href="#DejaVuSans-20" x="334.595703"/>
      <use xlink:href="#DejaVuSans-79" x="366.382812"/>
      <use xlink:href="#DejaVuSans-65" x="425.5625"/>
      <use xlink:href="#DejaVuSans-61" x="487.085938"/>
      <use xlink:href="#DejaVuSans-73" x="548.365234"/>
      <use xlink:href="#DejaVuSans-74" x="600.464844"/>
      <use xlink:href="#DejaVuSans-20" x="639.673828"/>
      <use xlink:href="#DejaVuSans-75" x="671.460938"/>
      <use xlink:href="#DejaVuSans-6e" x="734.839844"/>
      <use xlink:href="#DejaVuSans-6b" x="798.21875"/>
      <use xlink:href="#DejaVuSans-6e" x="856.128906"/>
      <use xlink:href="#DejaVuSans-6f" x="919.507812"/>
      <use xlink:href="#DejaVuSans-77" x="980.689453"/>
      <use xlink:href="#DejaVuSans-6e" x="1062.476562"/>
     </g>
    </g>
   </g>
  </g>
 </g>
 <defs>
  <clipPath id="p76910191b2">
   <rect x="61.49" y="67.86486" width="384.395193" height="212.550279"/>
  </clipPath>
 </defs>
</svg>
