<?xml version="1.0" encoding="utf-8" standalone="no"?>
<!DOCTYPE svg PUBLIC "-//W3C//DTD SVG 1.1//EN"
  "http://www.w3.org/Graphics/SVG/1.1/DTD/svg11.dtd">
<svg xmlns:xlink="http://www.w3.org/1999/xlink" width="460.8pt" height="345.6pt" viewBox="0 0 460.8 345.6" xmlns="http://www.w3.org/2000/svg" version="1.1">
 <metadata>
  <rdf:RDF xmlns:dc="http://purl.org/dc/elements/1.1/" xmlns:cc="http://creativecommons.org/ns#" xmlns:rdf="http://www.w3.org/1999/02/22-rdf-syntax-ns#">
   <cc:Work>
    <dc:type rdf:resource="http://purl.org/dc/dcmitype/StillImage"/>
    <dc:date>2026-04-02T01:17:58.944200</dc:date>
    <dc:format>image/svg+xml</dc:format>
    <dc:creator>
     <cc:Agent>
      <dc:title>Matplotlib v3.7.1, https://matplotlib.org/</dc:title>
     </cc:Agent>
    </dc:creator>
   </cc:Work>
  </rdf:RDF>
 </metadata>
 <defs>
  <style type="text/css">*{stroke-linejoin: round; stroke-linecap: butt}</style>
 </defs>
 <g id="figure_1">
  <g id="patch_1">
   <path d="M 0 345.6 
L 460.8 345.6 
L 460.8 0 
L 0 0 
z
" style="fill: #ffffff"/>
  </g>
  <g id="axes_1">
   <g id="patch_2">
    <path d="M 61.49 271.983934 
L 450 271.983934 
L 450 73.616066 
L 61.49 73.616066 
z
" style="fill: #ffffff"/>
   </g>
   <g id="PolyCollection_1">
    <path d="M 33.3101 221.642056 
L 33.3101 271.983934 
L 41.18184 271.983934 
L 48.960424 271.983934 
L 64.936798 271.983934 
L 83.47498 271.983934 
L 97.122436 271.983934 
L 105.599695 271.983934 
L 107.788878 271.983934 
L 111.841194 271.983934 
L 113.704328 271.983934 
L 113.93722 271.983934 
L 117.011391 271.983934 
L 117.803223 271.983934 
L 118.45532 271.983934 
L 119.247151 271.983934 
L 119.759513 271.983934 
L 120.551345 271.983934 
L 121.017129 271.983934 
L 121.855539 271.983934 
L 122.973419 271.983934 
L 123.858408 271.983934 
L 124.184456 271.983934 
L 125.116023 271.983934 
L 125.76812 271.983934 
L 126.466795 271.983934 
L 127.212049 271.983934 
L 127.724411 271.983934 
L 128.190194 271.983934 
L 129.494388 271.983934 
L 130.425955 271.983934 
L 131.12463 271.983934 
L 131.310944 271.983934 
L 131.96304 271.983934 
L 132.941186 271.983934 
L 133.965909 271.983934 
L 134.664585 271.983934 
L 135.689308 271.983934 
L 137.04008 271.983934 
L 138.903214 271.983934 
L 140.533456 271.983934 
L 141.930807 271.983934 
L 144.539194 271.983934 
L 145.657075 271.983934 
L 148.684667 271.983934 
L 150.640958 271.983934 
L 151.851995 271.983934 
L 152.597249 271.983934 
L 155.531684 271.983934 
L 157.161927 271.983934 
L 158.838747 271.983934 
L 162.14581 271.983934 
L 165.219981 271.983934 
L 165.732343 271.983934 
L 166.337861 271.983934 
L 167.269428 271.983934 
L 168.014682 271.983934 
L 170.297021 271.983934 
L 174.861699 271.983934 
L 175.746687 271.983934 
L 180.031895 271.983934 
L 181.010041 271.983934 
L 181.988186 271.983934 
L 183.57185 271.983934 
L 184.876044 271.983934 
L 186.133659 271.983934 
L 186.925491 271.983934 
L 189.4873 271.983934 
L 192.142266 271.983934 
L 193.44646 271.983934 
L 194.378027 271.983934 
L 195.542485 271.983934 
L 196.520631 271.983934 
L 197.685089 271.983934 
L 200.433212 271.983934 
L 201.877141 271.983934 
L 203.274491 271.983934 
L 204.71842 271.983934 
L 206.11577 271.983934 
L 207.559699 271.983934 
L 209.003628 271.983934 
L 210.3544 271.983934 
L 211.798329 271.983934 
L 213.195679 271.983934 
L 214.639608 271.983934 
L 216.036958 271.983934 
L 217.480887 271.983934 
L 218.924816 271.983934 
L 220.322166 271.983934 
L 221.766095 271.983934 
L 223.163446 271.983934 
L 224.607374 271.983934 
L 226.051303 271.983934 
L 227.355497 271.983934 
L 228.799426 271.983934 
L 230.196776 271.983934 
L 231.640705 271.983934 
L 233.038055 271.983934 
L 234.481984 271.983934 
L 235.925913 271.983934 
L 237.323263 271.983934 
L 238.767192 271.983934 
L 240.164543 271.983934 
L 241.608471 271.983934 
L 243.0524 271.983934 
L 244.356594 271.983934 
L 245.800523 271.983934 
L 247.197873 271.983934 
L 248.641802 271.983934 
L 250.039152 271.983934 
L 251.483081 271.983934 
L 252.92701 271.983934 
L 254.32436 271.983934 
L 255.768289 271.983934 
L 257.16564 271.983934 
L 258.609568 271.983934 
L 260.053497 271.983934 
L 261.357691 271.983934 
L 262.80162 271.983934 
L 264.19897 271.983934 
L 265.642899 271.983934 
L 267.040249 271.983934 
L 268.484178 271.983934 
L 269.928107 271.983934 
L 271.325457 271.983934 
L 272.769386 271.983934 
L 274.166737 271.983934 
L 275.610665 271.983934 
L 277.054594 271.983934 
L 278.405366 271.983934 
L 279.849295 271.983934 
L 281.246645 271.983934 
L 282.690574 271.983934 
L 284.087925 271.983934 
L 285.531853 271.983934 
L 286.975782 271.983934 
L 288.373133 271.983934 
L 289.817062 271.983934 
L 291.214412 271.983934 
L 292.658341 271.983934 
L 294.10227 271.983934 
L 295.406463 271.983934 
L 296.850392 271.983934 
L 298.247742 271.983934 
L 299.691671 271.983934 
L 301.089022 271.983934 
L 302.53295 271.983934 
L 303.976879 271.983934 
L 305.37423 271.983934 
L 306.818158 271.983934 
L 308.215509 271.983934 
L 309.659438 271.983934 
L 311.103367 271.983934 
L 312.40756 271.983934 
L 313.851489 271.983934 
L 315.248839 271.983934 
L 316.692768 271.983934 
L 318.090119 271.983934 
L 319.534047 271.983934 
L 320.977976 271.983934 
L 322.375327 271.983934 
L 323.819255 271.983934 
L 325.216606 271.983934 
L 326.660535 271.983934 
L 328.104463 271.983934 
L 329.408657 271.983934 
L 330.852586 271.983934 
L 332.249936 271.983934 
L 333.693865 271.983934 
L 335.091216 271.983934 
L 336.535144 271.983934 
L 337.979073 271.983934 
L 339.376424 271.983934 
L 340.820352 271.983934 
L 342.217703 271.983934 
L 343.661632 271.983934 
L 345.10556 271.983934 
L 346.456333 271.983934 
L 347.900261 271.983934 
L 349.297612 271.983934 
L 350.741541 271.983934 
L 352.138891 271.983934 
L 353.58282 271.983934 
L 355.026749 271.983934 
L 356.424099 271.983934 
L 357.868028 271.983934 
L 359.265378 271.983934 
L 360.709307 271.983934 
L 362.153236 271.983934 
L 363.45743 271.983934 
L 364.901358 271.983934 
L 366.298709 271.983934 
L 367.742638 271.983934 
L 369.139988 271.983934 
L 370.583917 271.983934 
L 372.027846 271.983934 
L 373.425196 271.983934 
L 374.869125 271.983934 
L 376.266475 271.983934 
L 377.710404 271.983934 
L 379.154333 271.983934 
L 380.458527 271.983934 
L 381.902455 271.983934 
L 383.299806 271.983934 
L 384.743735 271.983934 
L 386.141085 271.983934 
L 387.585014 271.983934 
L 389.028943 271.983934 
L 390.426293 271.983934 
L 391.870222 271.983934 
L 393.267572 271.983934 
L 394.711501 271.983934 
L 396.15543 271.983934 
L 397.459624 271.983934 
L 398.903552 271.983934 
L 400.300903 271.983934 
L 401.744832 271.983934 
L 403.142182 271.983934 
L 404.586111 271.983934 
L 406.03004 271.983934 
L 407.42739 271.983934 
L 408.871319 271.983934 
L 410.268669 271.983934 
L 411.712598 271.983934 
L 413.156527 271.983934 
L 414.507299 271.983934 
L 415.951228 271.983934 
L 417.348578 271.983934 
L 418.792507 271.983934 
L 420.189857 271.983934 
L 421.633786 271.983934 
L 423.077715 271.983934 
L 424.475065 271.983934 
L 425.918994 271.983934 
L 427.316345 271.983934 
L 428.760273 271.983934 
L 430.204202 271.983934 
L 431.508396 271.983934 
L 432.952325 271.983934 
L 434.349675 271.983934 
L 435.793604 271.983934 
L 437.190954 271.983934 
L 438.634883 271.983934 
L 440.078812 271.983934 
L 441.476162 271.983934 
L 442.920091 271.983934 
L 444.317442 271.983934 
L 445.76137 271.983934 
L 447.205299 271.983934 
L 448.509493 271.983934 
L 449.953422 271.983934 
L 449.953422 170.629449 
L 449.953422 170.629449 
L 448.509493 170.592186 
L 447.205299 170.592186 
L 445.76137 170.256822 
L 444.317442 170.182297 
L 442.920091 170.182297 
L 441.476162 170.145034 
L 440.078812 169.548831 
L 438.634883 169.437043 
L 437.190954 169.511569 
L 435.793604 169.548831 
L 434.349675 169.548831 
L 432.952325 169.846933 
L 431.508396 169.884195 
L 430.204202 170.853025 
L 428.760273 172.976998 
L 427.316345 173.722251 
L 425.918994 173.945827 
L 424.475065 173.945827 
L 423.077715 174.169403 
L 421.633786 174.169403 
L 420.189857 174.989182 
L 418.792507 175.51086 
L 417.348578 175.622648 
L 415.951228 175.734436 
L 414.507299 175.808961 
L 413.156527 177.411256 
L 411.712598 177.523044 
L 410.268669 177.560307 
L 408.871319 177.783883 
L 407.42739 177.895671 
L 406.03004 177.932934 
L 404.586111 178.044722 
L 403.142182 178.491874 
L 401.744832 178.71545 
L 400.300903 178.827238 
L 398.903552 178.827238 
L 397.459624 179.162602 
L 396.15543 179.721543 
L 394.711501 179.68428 
L 393.267572 179.796068 
L 391.870222 179.907856 
L 390.426293 180.131432 
L 389.028943 180.131432 
L 387.585014 180.168695 
L 386.141085 180.168695 
L 384.743735 180.131432 
L 383.299806 180.205957 
L 381.902455 180.131432 
L 380.458527 180.094169 
L 379.154333 180.131432 
L 377.710404 180.131432 
L 376.266475 180.317745 
L 374.869125 180.504059 
L 373.425196 180.80216 
L 372.027846 181.025736 
L 370.583917 180.988474 
L 369.139988 181.174787 
L 367.742638 181.435626 
L 366.298709 181.435626 
L 364.901358 181.584676 
L 363.45743 182.069091 
L 362.153236 182.180879 
L 360.709307 182.590769 
L 359.265378 182.628031 
L 357.868028 182.777082 
L 356.424099 182.851607 
L 355.026749 183.000658 
L 353.58282 183.037921 
L 352.138891 183.112446 
L 350.741541 183.112446 
L 349.297612 183.186972 
L 347.900261 183.522336 
L 346.456333 183.634124 
L 345.10556 183.708649 
L 343.661632 183.783174 
L 342.217703 183.783174 
L 340.820352 183.783174 
L 339.376424 183.894962 
L 337.979073 183.969488 
L 336.535144 184.118539 
L 335.091216 184.342115 
L 333.693865 184.453903 
L 332.249936 184.528428 
L 330.852586 184.602953 
L 329.408657 184.640216 
L 328.104463 184.640216 
L 326.660535 184.677479 
L 325.216606 184.714741 
L 323.819255 184.789267 
L 322.375327 184.826529 
L 320.977976 184.826529 
L 319.534047 184.938317 
L 318.090119 185.050106 
L 316.692768 185.273682 
L 315.248839 185.422732 
L 313.851489 185.720834 
L 312.40756 185.869884 
L 311.103367 186.018935 
L 309.659438 186.056198 
L 308.215509 186.205249 
L 306.818158 186.354299 
L 305.37423 187.993857 
L 303.976879 188.254696 
L 302.53295 188.962687 
L 301.089022 188.366484 
L 299.691671 188.291959 
L 298.247742 188.329221 
L 296.850392 188.403747 
L 295.406463 188.664585 
L 294.10227 188.701848 
L 292.658341 188.776373 
L 291.214412 189.484364 
L 289.817062 189.596152 
L 288.373133 189.782466 
L 286.975782 189.856991 
L 285.531853 189.968779 
L 284.087925 190.378669 
L 282.690574 190.564982 
L 281.246645 190.564982 
L 279.849295 190.937609 
L 278.405366 191.012134 
L 277.054594 191.049397 
L 275.610665 191.23571 
L 274.166737 191.310235 
L 272.769386 191.310235 
L 271.325457 191.496549 
L 269.928107 191.533812 
L 268.484178 191.571074 
L 267.040249 191.720125 
L 265.642899 191.831913 
L 264.19897 191.272973 
L 262.80162 191.347498 
L 261.357691 191.533812 
L 260.053497 191.533812 
L 258.609568 191.757388 
L 257.16564 191.906438 
L 255.768289 192.167277 
L 254.32436 192.502641 
L 252.92701 192.800743 
L 251.483081 192.875268 
L 250.039152 193.136107 
L 248.641802 193.359683 
L 247.197873 193.695047 
L 245.800523 193.844098 
L 244.356594 194.030411 
L 243.0524 194.067674 
L 241.608471 194.067674 
L 240.164543 194.253987 
L 238.767192 194.701139 
L 237.323263 194.738402 
L 235.925913 194.961978 
L 234.481984 195.595443 
L 233.038055 195.669969 
L 231.640705 196.117121 
L 230.196776 196.415222 
L 228.799426 197.421315 
L 227.355497 197.49584 
L 226.051303 197.607628 
L 224.607374 197.868467 
L 223.163446 197.942992 
L 221.766095 198.166568 
L 220.322166 198.352882 
L 218.924816 198.688246 
L 217.480887 198.874559 
L 216.036958 198.986347 
L 214.639608 199.209923 
L 213.195679 199.247186 
L 211.798329 199.358974 
L 210.3544 199.508025 
L 209.003628 199.508025 
L 207.559699 199.58255 
L 206.11577 199.619813 
L 204.71842 199.657075 
L 203.274491 199.694338 
L 201.877141 199.731601 
L 200.433212 199.843389 
L 197.685089 200.55138 
L 196.520631 200.737693 
L 195.542485 200.774956 
L 194.378027 200.663168 
L 193.44646 200.663168 
L 192.142266 200.774956 
L 189.4873 200.886744 
L 186.925491 201.482947 
L 186.133659 202.377251 
L 184.876044 202.2282 
L 183.57185 202.190938 
L 181.988186 202.861666 
L 181.010041 202.861666 
L 180.031895 202.63809 
L 175.746687 203.122504 
L 174.861699 203.19703 
L 170.297021 203.830495 
L 168.014682 203.905021 
L 167.269428 203.75597 
L 166.337861 203.867758 
L 165.732343 204.054071 
L 165.219981 204.091334 
L 162.14581 204.203122 
L 158.838747 204.277648 
L 157.161927 204.463961 
L 155.531684 206.438883 
L 152.597249 206.364358 
L 151.851995 206.40162 
L 150.640958 206.81151 
L 148.684667 207.854865 
L 145.657075 208.078441 
L 144.539194 208.451067 
L 141.930807 208.711906 
L 140.533456 209.494422 
L 138.903214 210.0161 
L 137.04008 210.425989 
L 135.689308 210.463252 
L 134.664585 210.537777 
L 133.965909 210.57504 
L 132.941186 210.612303 
L 131.96304 211.283031 
L 131.310944 211.618395 
L 131.12463 211.618395 
L 130.425955 211.618395 
L 129.494388 211.841971 
L 128.190194 211.618395 
L 127.724411 211.804709 
L 127.212049 211.879234 
L 126.466795 211.991022 
L 125.76812 211.991022 
L 125.116023 212.289123 
L 124.184456 212.959852 
L 123.858408 212.922589 
L 122.973419 213.257953 
L 121.855539 213.332478 
L 121.017129 213.407004 
L 120.551345 213.481529 
L 119.759513 213.593317 
L 119.247151 213.816893 
L 118.45532 214.003207 
L 117.803223 213.928681 
L 117.011391 214.003207 
L 113.93722 214.264045 
L 113.704328 214.226783 
L 111.841194 214.524884 
L 107.788878 212.736276 
L 105.599695 215.381926 
L 97.122436 218.847355 
L 83.47498 222.089208 
L 64.936798 226.262628 
L 48.960424 221.455742 
L 41.18184 220.859539 
L 33.3101 221.642056 
z
" clip-path="url(#pb5122239b3)" style="fill: #fb363b"/>
   </g>
   <g id="PolyCollection_2">
    <path d="M 33.3101 145.029989 
L 33.3101 221.642056 
L 41.18184 220.859539 
L 48.960424 221.455742 
L 64.936798 226.262628 
L 83.47498 222.089208 
L 97.122436 218.847355 
L 105.599695 215.381926 
L 107.788878 212.736276 
L 111.841194 214.524884 
L 113.704328 214.226783 
L 113.93722 214.264045 
L 117.011391 214.003207 
L 117.803223 213.928681 
L 118.45532 214.003207 
L 119.247151 213.816893 
L 119.759513 213.593317 
L 120.551345 213.481529 
L 121.017129 213.407004 
L 121.855539 213.332478 
L 122.973419 213.257953 
L 123.858408 212.922589 
L 124.184456 212.959852 
L 125.116023 212.289123 
L 125.76812 211.991022 
L 126.466795 211.991022 
L 127.212049 211.879234 
L 127.724411 211.804709 
L 128.190194 211.618395 
L 129.494388 211.841971 
L 130.425955 211.618395 
L 131.12463 211.618395 
L 131.310944 211.618395 
L 131.96304 211.283031 
L 132.941186 210.612303 
L 133.965909 210.57504 
L 134.664585 210.537777 
L 135.689308 210.463252 
L 137.04008 210.425989 
L 138.903214 210.0161 
L 140.533456 209.494422 
L 141.930807 208.711906 
L 144.539194 208.451067 
L 145.657075 208.078441 
L 148.684667 207.854865 
L 150.640958 206.81151 
L 151.851995 206.40162 
L 152.597249 206.364358 
L 155.531684 206.438883 
L 157.161927 204.463961 
L 158.838747 204.277648 
L 162.14581 204.203122 
L 165.219981 204.091334 
L 165.732343 204.054071 
L 166.337861 203.867758 
L 167.269428 203.75597 
L 168.014682 203.905021 
L 170.297021 203.830495 
L 174.861699 203.19703 
L 175.746687 203.122504 
L 180.031895 202.63809 
L 181.010041 202.861666 
L 181.988186 202.861666 
L 183.57185 202.190938 
L 184.876044 202.2282 
L 186.133659 202.377251 
L 186.925491 201.482947 
L 189.4873 200.886744 
L 192.142266 200.774956 
L 193.44646 200.663168 
L 194.378027 200.663168 
L 195.542485 200.774956 
L 196.520631 200.737693 
L 197.685089 200.55138 
L 200.433212 199.843389 
L 201.877141 199.731601 
L 203.274491 199.694338 
L 204.71842 199.657075 
L 206.11577 199.619813 
L 207.559699 199.58255 
L 209.003628 199.508025 
L 210.3544 199.508025 
L 211.798329 199.358974 
L 213.195679 199.247186 
L 214.639608 199.209923 
L 216.036958 198.986347 
L 217.480887 198.874559 
L 218.924816 198.688246 
L 220.322166 198.352882 
L 221.766095 198.166568 
L 223.163446 197.942992 
L 224.607374 197.868467 
L 226.051303 197.607628 
L 227.355497 197.49584 
L 228.799426 197.421315 
L 230.196776 196.415222 
L 231.640705 196.117121 
L 233.038055 195.669969 
L 234.481984 195.595443 
L 235.925913 194.961978 
L 237.323263 194.738402 
L 238.767192 194.701139 
L 240.164543 194.253987 
L 241.608471 194.067674 
L 243.0524 194.067674 
L 244.356594 194.030411 
L 245.800523 193.844098 
L 247.197873 193.695047 
L 248.641802 193.359683 
L 250.039152 193.136107 
L 251.483081 192.875268 
L 252.92701 192.800743 
L 254.32436 192.502641 
L 255.768289 192.167277 
L 257.16564 191.906438 
L 258.609568 191.757388 
L 260.053497 191.533812 
L 261.357691 191.533812 
L 262.80162 191.347498 
L 264.19897 191.272973 
L 265.642899 191.831913 
L 267.040249 191.720125 
L 268.484178 191.571074 
L 269.928107 191.533812 
L 271.325457 191.496549 
L 272.769386 191.310235 
L 274.166737 191.310235 
L 275.610665 191.23571 
L 277.054594 191.049397 
L 278.405366 191.012134 
L 279.849295 190.937609 
L 281.246645 190.564982 
L 282.690574 190.564982 
L 284.087925 190.378669 
L 285.531853 189.968779 
L 286.975782 189.856991 
L 288.373133 189.782466 
L 289.817062 189.596152 
L 291.214412 189.484364 
L 292.658341 188.776373 
L 294.10227 188.701848 
L 295.406463 188.664585 
L 296.850392 188.403747 
L 298.247742 188.329221 
L 299.691671 188.291959 
L 301.089022 188.366484 
L 302.53295 188.962687 
L 303.976879 188.254696 
L 305.37423 187.993857 
L 306.818158 186.354299 
L 308.215509 186.205249 
L 309.659438 186.056198 
L 311.103367 186.018935 
L 312.40756 185.869884 
L 313.851489 185.720834 
L 315.248839 185.422732 
L 316.692768 185.273682 
L 318.090119 185.050106 
L 319.534047 184.938317 
L 320.977976 184.826529 
L 322.375327 184.826529 
L 323.819255 184.789267 
L 325.216606 184.714741 
L 326.660535 184.677479 
L 328.104463 184.640216 
L 329.408657 184.640216 
L 330.852586 184.602953 
L 332.249936 184.528428 
L 333.693865 184.453903 
L 335.091216 184.342115 
L 336.535144 184.118539 
L 337.979073 183.969488 
L 339.376424 183.894962 
L 340.820352 183.783174 
L 342.217703 183.783174 
L 343.661632 183.783174 
L 345.10556 183.708649 
L 346.456333 183.634124 
L 347.900261 183.522336 
L 349.297612 183.186972 
L 350.741541 183.112446 
L 352.138891 183.112446 
L 353.58282 183.037921 
L 355.026749 183.000658 
L 356.424099 182.851607 
L 357.868028 182.777082 
L 359.265378 182.628031 
L 360.709307 182.590769 
L 362.153236 182.180879 
L 363.45743 182.069091 
L 364.901358 181.584676 
L 366.298709 181.435626 
L 367.742638 181.435626 
L 369.139988 181.174787 
L 370.583917 180.988474 
L 372.027846 181.025736 
L 373.425196 180.80216 
L 374.869125 180.504059 
L 376.266475 180.317745 
L 377.710404 180.131432 
L 379.154333 180.131432 
L 380.458527 180.094169 
L 381.902455 180.131432 
L 383.299806 180.205957 
L 384.743735 180.131432 
L 386.141085 180.168695 
L 387.585014 180.168695 
L 389.028943 180.131432 
L 390.426293 180.131432 
L 391.870222 179.907856 
L 393.267572 179.796068 
L 394.711501 179.68428 
L 396.15543 179.721543 
L 397.459624 179.162602 
L 398.903552 178.827238 
L 400.300903 178.827238 
L 401.744832 178.71545 
L 403.142182 178.491874 
L 404.586111 178.044722 
L 406.03004 177.932934 
L 407.42739 177.895671 
L 408.871319 177.783883 
L 410.268669 177.560307 
L 411.712598 177.523044 
L 413.156527 177.411256 
L 414.507299 175.808961 
L 415.951228 175.734436 
L 417.348578 175.622648 
L 418.792507 175.51086 
L 420.189857 174.989182 
L 421.633786 174.169403 
L 423.077715 174.169403 
L 424.475065 173.945827 
L 425.918994 173.945827 
L 427.316345 173.722251 
L 428.760273 172.976998 
L 430.204202 170.853025 
L 431.508396 169.884195 
L 432.952325 169.846933 
L 434.349675 169.548831 
L 435.793604 169.548831 
L 437.190954 169.511569 
L 438.634883 169.437043 
L 440.078812 169.548831 
L 441.476162 170.145034 
L 442.920091 170.182297 
L 444.317442 170.182297 
L 445.76137 170.256822 
L 447.205299 170.592186 
L 448.509493 170.592186 
L 449.953422 170.629449 
L 449.953422 108.847928 
L 449.953422 108.847928 
L 448.509493 108.661615 
L 447.205299 108.58709 
L 445.76137 107.543735 
L 444.317442 107.20837 
L 442.920091 107.171108 
L 441.476162 107.096582 
L 440.078812 106.165015 
L 438.634883 105.568813 
L 437.190954 105.494287 
L 435.793604 105.307974 
L 434.349675 105.233449 
L 432.952325 105.196186 
L 431.508396 104.97261 
L 430.204202 105.009872 
L 428.760273 104.97261 
L 427.316345 105.494287 
L 425.918994 105.568813 
L 424.475065 105.680601 
L 423.077715 105.717863 
L 421.633786 105.941439 
L 420.189857 105.829651 
L 418.792507 105.792389 
L 417.348578 105.941439 
L 415.951228 106.015965 
L 414.507299 105.978702 
L 413.156527 106.239541 
L 411.712598 106.50038 
L 410.268669 106.50038 
L 408.871319 106.612168 
L 407.42739 106.761218 
L 406.03004 106.835744 
L 404.586111 106.835744 
L 403.142182 107.096582 
L 401.744832 107.320158 
L 400.300903 107.431947 
L 398.903552 107.431947 
L 397.459624 107.469209 
L 396.15543 107.61826 
L 394.711501 107.730048 
L 393.267572 107.804573 
L 391.870222 107.804573 
L 390.426293 107.841836 
L 389.028943 107.730048 
L 387.585014 107.767311 
L 386.141085 107.767311 
L 384.743735 107.953624 
L 383.299806 107.916361 
L 381.902455 107.916361 
L 380.458527 107.953624 
L 379.154333 108.028149 
L 377.710404 108.028149 
L 376.266475 108.139937 
L 374.869125 108.102675 
L 373.425196 108.214463 
L 372.027846 108.251725 
L 370.583917 108.288988 
L 369.139988 108.326251 
L 367.742638 108.363513 
L 366.298709 108.326251 
L 364.901358 108.438039 
L 363.45743 108.624352 
L 362.153236 108.773403 
L 360.709307 108.810666 
L 359.265378 108.810666 
L 357.868028 108.885191 
L 356.424099 108.922454 
L 355.026749 108.996979 
L 353.58282 108.996979 
L 352.138891 109.034242 
L 350.741541 109.071504 
L 349.297612 108.959716 
L 347.900261 108.922454 
L 346.456333 108.959716 
L 345.10556 108.885191 
L 343.661632 108.885191 
L 342.217703 108.885191 
L 340.820352 108.885191 
L 339.376424 108.885191 
L 337.979073 108.922454 
L 336.535144 108.885191 
L 335.091216 108.922454 
L 333.693865 108.922454 
L 332.249936 108.810666 
L 330.852586 108.810666 
L 329.408657 108.847928 
L 328.104463 108.847928 
L 326.660535 108.922454 
L 325.216606 108.922454 
L 323.819255 108.996979 
L 322.375327 108.996979 
L 320.977976 108.996979 
L 319.534047 109.034242 
L 318.090119 109.034242 
L 316.692768 109.034242 
L 315.248839 109.071504 
L 313.851489 109.108767 
L 312.40756 109.406868 
L 311.103367 109.518657 
L 309.659438 109.444131 
L 308.215509 109.518657 
L 306.818158 109.630445 
L 305.37423 109.667707 
L 303.976879 110.189385 
L 302.53295 110.487486 
L 301.089022 112.536933 
L 299.691671 113.692076 
L 298.247742 114.101966 
L 296.850392 114.101966 
L 295.406463 114.400067 
L 294.10227 114.325542 
L 292.658341 113.580288 
L 291.214412 113.766602 
L 289.817062 114.176491 
L 288.373133 114.176491 
L 286.975782 114.064703 
L 285.531853 114.213754 
L 284.087925 114.251017 
L 282.690574 114.251017 
L 281.246645 114.288279 
L 279.849295 114.362805 
L 278.405366 114.362805 
L 277.054594 114.400067 
L 275.610665 114.400067 
L 274.166737 114.511855 
L 272.769386 114.549118 
L 271.325457 114.586381 
L 269.928107 114.586381 
L 268.484178 114.549118 
L 267.040249 114.586381 
L 265.642899 114.549118 
L 264.19897 115.145321 
L 262.80162 115.108058 
L 261.357691 115.182584 
L 260.053497 115.257109 
L 258.609568 115.368897 
L 257.16564 115.331634 
L 255.768289 115.592473 
L 254.32436 115.704261 
L 252.92701 115.853312 
L 251.483081 116.039625 
L 250.039152 116.076888 
L 248.641802 116.002363 
L 247.197873 116.076888 
L 245.800523 116.114151 
L 244.356594 116.114151 
L 243.0524 116.114151 
L 241.608471 116.114151 
L 240.164543 116.263201 
L 238.767192 116.337727 
L 237.323263 116.561303 
L 235.925913 116.598565 
L 234.481984 116.822141 
L 233.038055 116.896667 
L 231.640705 117.120243 
L 230.196776 117.232031 
L 228.799426 117.381082 
L 227.355497 117.418344 
L 226.051303 117.455607 
L 224.607374 117.604658 
L 223.163446 117.604658 
L 221.766095 117.790971 
L 220.322166 118.05181 
L 218.924816 118.200861 
L 217.480887 118.349911 
L 216.036958 118.536225 
L 214.639608 118.61075 
L 213.195679 118.908851 
L 211.798329 118.908851 
L 210.3544 118.946114 
L 209.003628 118.946114 
L 207.559699 118.946114 
L 206.11577 118.946114 
L 204.71842 118.946114 
L 203.274491 118.983377 
L 201.877141 119.132428 
L 200.433212 119.206953 
L 197.685089 119.654105 
L 196.520631 120.213045 
L 195.542485 120.473884 
L 194.378027 119.952206 
L 193.44646 120.250308 
L 192.142266 120.362096 
L 189.4873 120.511147 
L 186.925491 120.511147 
L 186.133659 120.660197 
L 184.876044 121.144612 
L 183.57185 121.107349 
L 181.988186 121.964391 
L 181.010041 121.964391 
L 180.031895 122.374281 
L 175.746687 122.635119 
L 174.861699 122.709645 
L 170.297021 123.753 
L 168.014682 124.684567 
L 167.269428 124.721829 
L 166.337861 124.721829 
L 165.732343 124.721829 
L 165.219981 124.759092 
L 162.14581 124.349202 
L 158.838747 124.833617 
L 157.161927 125.019931 
L 155.531684 125.206244 
L 152.597249 125.318032 
L 151.851995 125.392557 
L 150.640958 125.578871 
L 148.684667 125.876972 
L 145.657075 125.727922 
L 144.539194 126.026023 
L 141.930807 125.98876 
L 140.533456 125.914235 
L 138.903214 126.249599 
L 137.04008 126.175074 
L 135.689308 126.063286 
L 134.664585 126.324124 
L 133.965909 126.361387 
L 132.941186 125.653396 
L 131.96304 125.690659 
L 131.310944 125.83971 
L 131.12463 125.83971 
L 130.425955 125.802447 
L 129.494388 126.286862 
L 128.190194 125.765184 
L 127.724411 125.765184 
L 127.212049 125.802447 
L 126.466795 125.83971 
L 125.76812 125.653396 
L 125.116023 126.063286 
L 124.184456 126.175074 
L 123.858408 125.951498 
L 122.973419 126.100548 
L 121.855539 126.063286 
L 121.017129 126.547701 
L 120.551345 126.473175 
L 119.759513 126.473175 
L 119.247151 124.796355 
L 118.45532 125.168981 
L 117.803223 124.237414 
L 117.011391 124.013838 
L 113.93722 124.274677 
L 113.704328 124.125626 
L 111.841194 124.386465 
L 107.788878 126.063286 
L 105.599695 126.883065 
L 97.122436 128.857987 
L 83.47498 131.68995 
L 64.936798 135.30443 
L 48.960424 141.080145 
L 41.18184 144.731888 
L 33.3101 145.029989 
z
" clip-path="url(#pb5122239b3)" style="fill: #fdc92c"/>
   </g>
   <g id="PolyCollection_3">
    <path d="M 33.3101 115.666998 
L 33.3101 145.029989 
L 41.18184 144.731888 
L 48.960424 141.080145 
L 64.936798 135.30443 
L 83.47498 131.68995 
L 97.122436 128.857987 
L 105.599695 126.883065 
L 107.788878 126.063286 
L 111.841194 124.386465 
L 113.704328 124.125626 
L 113.93722 124.274677 
L 117.011391 124.013838 
L 117.803223 124.237414 
L 118.45532 125.168981 
L 119.247151 124.796355 
L 119.759513 126.473175 
L 120.551345 126.473175 
L 121.017129 126.547701 
L 121.855539 126.063286 
L 122.973419 126.100548 
L 123.858408 125.951498 
L 124.184456 126.175074 
L 125.116023 126.063286 
L 125.76812 125.653396 
L 126.466795 125.83971 
L 127.212049 125.802447 
L 127.724411 125.765184 
L 128.190194 125.765184 
L 129.494388 126.286862 
L 130.425955 125.802447 
L 131.12463 125.83971 
L 131.310944 125.83971 
L 131.96304 125.690659 
L 132.941186 125.653396 
L 133.965909 126.361387 
L 134.664585 126.324124 
L 135.689308 126.063286 
L 137.04008 126.175074 
L 138.903214 126.249599 
L 140.533456 125.914235 
L 141.930807 125.98876 
L 144.539194 126.026023 
L 145.657075 125.727922 
L 148.684667 125.876972 
L 150.640958 125.578871 
L 151.851995 125.392557 
L 152.597249 125.318032 
L 155.531684 125.206244 
L 157.161927 125.019931 
L 158.838747 124.833617 
L 162.14581 124.349202 
L 165.219981 124.759092 
L 165.732343 124.721829 
L 166.337861 124.721829 
L 167.269428 124.721829 
L 168.014682 124.684567 
L 170.297021 123.753 
L 174.861699 122.709645 
L 175.746687 122.635119 
L 180.031895 122.374281 
L 181.010041 121.964391 
L 181.988186 121.964391 
L 183.57185 121.107349 
L 184.876044 121.144612 
L 186.133659 120.660197 
L 186.925491 120.511147 
L 189.4873 120.511147 
L 192.142266 120.362096 
L 193.44646 120.250308 
L 194.378027 119.952206 
L 195.542485 120.473884 
L 196.520631 120.213045 
L 197.685089 119.654105 
L 200.433212 119.206953 
L 201.877141 119.132428 
L 203.274491 118.983377 
L 204.71842 118.946114 
L 206.11577 118.946114 
L 207.559699 118.946114 
L 209.003628 118.946114 
L 210.3544 118.946114 
L 211.798329 118.908851 
L 213.195679 118.908851 
L 214.639608 118.61075 
L 216.036958 118.536225 
L 217.480887 118.349911 
L 218.924816 118.200861 
L 220.322166 118.05181 
L 221.766095 117.790971 
L 223.163446 117.604658 
L 224.607374 117.604658 
L 226.051303 117.455607 
L 227.355497 117.418344 
L 228.799426 117.381082 
L 230.196776 117.232031 
L 231.640705 117.120243 
L 233.038055 116.896667 
L 234.481984 116.822141 
L 235.925913 116.598565 
L 237.323263 116.561303 
L 238.767192 116.337727 
L 240.164543 116.263201 
L 241.608471 116.114151 
L 243.0524 116.114151 
L 244.356594 116.114151 
L 245.800523 116.114151 
L 247.197873 116.076888 
L 248.641802 116.002363 
L 250.039152 116.076888 
L 251.483081 116.039625 
L 252.92701 115.853312 
L 254.32436 115.704261 
L 255.768289 115.592473 
L 257.16564 115.331634 
L 258.609568 115.368897 
L 260.053497 115.257109 
L 261.357691 115.182584 
L 262.80162 115.108058 
L 264.19897 115.145321 
L 265.642899 114.549118 
L 267.040249 114.586381 
L 268.484178 114.549118 
L 269.928107 114.586381 
L 271.325457 114.586381 
L 272.769386 114.549118 
L 274.166737 114.511855 
L 275.610665 114.400067 
L 277.054594 114.400067 
L 278.405366 114.362805 
L 279.849295 114.362805 
L 281.246645 114.288279 
L 282.690574 114.251017 
L 284.087925 114.251017 
L 285.531853 114.213754 
L 286.975782 114.064703 
L 288.373133 114.176491 
L 289.817062 114.176491 
L 291.214412 113.766602 
L 292.658341 113.580288 
L 294.10227 114.325542 
L 295.406463 114.400067 
L 296.850392 114.101966 
L 298.247742 114.101966 
L 299.691671 113.692076 
L 301.089022 112.536933 
L 302.53295 110.487486 
L 303.976879 110.189385 
L 305.37423 109.667707 
L 306.818158 109.630445 
L 308.215509 109.518657 
L 309.659438 109.444131 
L 311.103367 109.518657 
L 312.40756 109.406868 
L 313.851489 109.108767 
L 315.248839 109.071504 
L 316.692768 109.034242 
L 318.090119 109.034242 
L 319.534047 109.034242 
L 320.977976 108.996979 
L 322.375327 108.996979 
L 323.819255 108.996979 
L 325.216606 108.922454 
L 326.660535 108.922454 
L 328.104463 108.847928 
L 329.408657 108.847928 
L 330.852586 108.810666 
L 332.249936 108.810666 
L 333.693865 108.922454 
L 335.091216 108.922454 
L 336.535144 108.885191 
L 337.979073 108.922454 
L 339.376424 108.885191 
L 340.820352 108.885191 
L 342.217703 108.885191 
L 343.661632 108.885191 
L 345.10556 108.885191 
L 346.456333 108.959716 
L 347.900261 108.922454 
L 349.297612 108.959716 
L 350.741541 109.071504 
L 352.138891 109.034242 
L 353.58282 108.996979 
L 355.026749 108.996979 
L 356.424099 108.922454 
L 357.868028 108.885191 
L 359.265378 108.810666 
L 360.709307 108.810666 
L 362.153236 108.773403 
L 363.45743 108.624352 
L 364.901358 108.438039 
L 366.298709 108.326251 
L 367.742638 108.363513 
L 369.139988 108.326251 
L 370.583917 108.288988 
L 372.027846 108.251725 
L 373.425196 108.214463 
L 374.869125 108.102675 
L 376.266475 108.139937 
L 377.710404 108.028149 
L 379.154333 108.028149 
L 380.458527 107.953624 
L 381.902455 107.916361 
L 383.299806 107.916361 
L 384.743735 107.953624 
L 386.141085 107.767311 
L 387.585014 107.767311 
L 389.028943 107.730048 
L 390.426293 107.841836 
L 391.870222 107.804573 
L 393.267572 107.804573 
L 394.711501 107.730048 
L 396.15543 107.61826 
L 397.459624 107.469209 
L 398.903552 107.431947 
L 400.300903 107.431947 
L 401.744832 107.320158 
L 403.142182 107.096582 
L 404.586111 106.835744 
L 406.03004 106.835744 
L 407.42739 106.761218 
L 408.871319 106.612168 
L 410.268669 106.50038 
L 411.712598 106.50038 
L 413.156527 106.239541 
L 414.507299 105.978702 
L 415.951228 106.015965 
L 417.348578 105.941439 
L 418.792507 105.792389 
L 420.189857 105.829651 
L 421.633786 105.941439 
L 423.077715 105.717863 
L 424.475065 105.680601 
L 425.918994 105.568813 
L 427.316345 105.494287 
L 428.760273 104.97261 
L 430.204202 105.009872 
L 431.508396 104.97261 
L 432.952325 105.196186 
L 434.349675 105.233449 
L 435.793604 105.307974 
L 437.190954 105.494287 
L 438.634883 105.568813 
L 440.078812 106.165015 
L 441.476162 107.096582 
L 442.920091 107.171108 
L 444.317442 107.20837 
L 445.76137 107.543735 
L 447.205299 108.58709 
L 448.509493 108.661615 
L 449.953422 108.847928 
L 449.953422 93.793806 
L 449.953422 93.793806 
L 448.509493 93.644756 
L 447.205299 93.607493 
L 445.76137 93.57023 
L 444.317442 93.57023 
L 442.920091 93.57023 
L 441.476162 93.57023 
L 440.078812 92.675926 
L 438.634883 92.675926 
L 437.190954 92.675926 
L 435.793604 92.675926 
L 434.349675 92.675926 
L 432.952325 92.638663 
L 431.508396 92.638663 
L 430.204202 92.638663 
L 428.760273 92.638663 
L 427.316345 92.638663 
L 425.918994 92.638663 
L 424.475065 92.638663 
L 423.077715 92.601401 
L 421.633786 92.936765 
L 420.189857 93.160341 
L 418.792507 93.160341 
L 417.348578 93.197603 
L 415.951228 93.197603 
L 414.507299 93.197603 
L 413.156527 93.234866 
L 411.712598 93.234866 
L 410.268669 93.234866 
L 408.871319 93.272129 
L 407.42739 93.272129 
L 406.03004 93.272129 
L 404.586111 93.272129 
L 403.142182 93.346654 
L 401.744832 93.346654 
L 400.300903 93.346654 
L 398.903552 93.346654 
L 397.459624 93.346654 
L 396.15543 93.383917 
L 394.711501 93.383917 
L 393.267572 93.458442 
L 391.870222 93.458442 
L 390.426293 93.495705 
L 389.028943 93.495705 
L 387.585014 93.495705 
L 386.141085 93.495705 
L 384.743735 93.57023 
L 383.299806 93.644756 
L 381.902455 93.644756 
L 380.458527 93.644756 
L 379.154333 93.644756 
L 377.710404 93.644756 
L 376.266475 93.682018 
L 374.869125 93.644756 
L 373.425196 93.719281 
L 372.027846 93.719281 
L 370.583917 93.719281 
L 369.139988 93.756544 
L 367.742638 93.756544 
L 366.298709 93.756544 
L 364.901358 93.793806 
L 363.45743 93.831069 
L 362.153236 93.868332 
L 360.709307 93.868332 
L 359.265378 93.831069 
L 357.868028 93.831069 
L 356.424099 93.831069 
L 355.026749 93.793806 
L 353.58282 93.793806 
L 352.138891 93.831069 
L 350.741541 93.831069 
L 349.297612 93.756544 
L 347.900261 93.719281 
L 346.456333 93.719281 
L 345.10556 93.756544 
L 343.661632 93.756544 
L 342.217703 93.756544 
L 340.820352 93.756544 
L 339.376424 93.756544 
L 337.979073 93.756544 
L 336.535144 93.756544 
L 335.091216 93.756544 
L 333.693865 93.756544 
L 332.249936 93.682018 
L 330.852586 93.682018 
L 329.408657 93.682018 
L 328.104463 93.682018 
L 326.660535 93.644756 
L 325.216606 93.644756 
L 323.819255 93.719281 
L 322.375327 93.719281 
L 320.977976 93.719281 
L 319.534047 93.756544 
L 318.090119 93.756544 
L 316.692768 93.756544 
L 315.248839 93.793806 
L 313.851489 93.831069 
L 312.40756 93.905594 
L 311.103367 93.905594 
L 309.659438 93.905594 
L 308.215509 94.054645 
L 306.818158 94.054645 
L 305.37423 94.054645 
L 303.976879 93.942857 
L 302.53295 93.98012 
L 301.089022 94.166433 
L 299.691671 95.060737 
L 298.247742 95.209788 
L 296.850392 95.247051 
L 295.406463 95.284313 
L 294.10227 95.284313 
L 292.658341 95.284313 
L 291.214412 95.284313 
L 289.817062 95.321576 
L 288.373133 95.321576 
L 286.975782 95.358839 
L 285.531853 95.396101 
L 284.087925 95.433364 
L 282.690574 95.433364 
L 281.246645 95.433364 
L 279.849295 95.433364 
L 278.405366 95.433364 
L 277.054594 95.470627 
L 275.610665 95.470627 
L 274.166737 95.507889 
L 272.769386 95.545152 
L 271.325457 95.545152 
L 269.928107 95.545152 
L 268.484178 95.545152 
L 267.040249 95.545152 
L 265.642899 95.545152 
L 264.19897 95.545152 
L 262.80162 95.545152 
L 261.357691 95.619677 
L 260.053497 95.619677 
L 258.609568 95.619677 
L 257.16564 95.65694 
L 255.768289 95.65694 
L 254.32436 95.694203 
L 252.92701 95.843254 
L 251.483081 96.737558 
L 250.039152 96.737558 
L 248.641802 96.737558 
L 247.197873 96.812083 
L 245.800523 96.812083 
L 244.356594 96.812083 
L 243.0524 96.812083 
L 241.608471 96.812083 
L 240.164543 96.812083 
L 238.767192 96.886609 
L 237.323263 96.812083 
L 235.925913 96.849346 
L 234.481984 96.923871 
L 233.038055 96.998397 
L 231.640705 97.18471 
L 230.196776 97.221973 
L 228.799426 97.221973 
L 227.355497 97.221973 
L 226.051303 97.221973 
L 224.607374 97.296498 
L 223.163446 97.296498 
L 221.766095 97.371023 
L 220.322166 97.371023 
L 218.924816 97.259235 
L 217.480887 97.333761 
L 216.036958 97.333761 
L 214.639608 97.333761 
L 213.195679 97.371023 
L 211.798329 97.371023 
L 210.3544 97.371023 
L 209.003628 97.408286 
L 207.559699 97.408286 
L 206.11577 97.445549 
L 204.71842 97.408286 
L 203.274491 97.408286 
L 201.877141 97.482811 
L 200.433212 97.520074 
L 197.685089 97.780913 
L 196.520631 98.339853 
L 195.542485 98.600692 
L 194.378027 98.004489 
L 193.44646 98.488904 
L 192.142266 98.526166 
L 189.4873 99.383208 
L 186.925491 99.383208 
L 186.133659 99.345945 
L 184.876044 99.494996 
L 183.57185 99.494996 
L 181.988186 99.569521 
L 181.010041 99.569521 
L 180.031895 99.606784 
L 175.746687 99.755835 
L 174.861699 99.755835 
L 170.297021 100.724664 
L 168.014682 100.836452 
L 167.269428 100.873715 
L 166.337861 100.985503 
L 165.732343 100.985503 
L 165.219981 100.985503 
L 162.14581 100.985503 
L 158.838747 101.209079 
L 157.161927 101.320867 
L 155.531684 101.35813 
L 152.597249 101.432655 
L 151.851995 101.544443 
L 150.640958 101.730757 
L 148.684667 101.954333 
L 145.657075 102.103384 
L 144.539194 102.699586 
L 141.930807 102.736849 
L 140.533456 102.997688 
L 138.903214 103.295789 
L 137.04008 103.370315 
L 135.689308 103.370315 
L 134.664585 103.370315 
L 133.965909 103.370315 
L 132.941186 103.519365 
L 131.96304 103.668416 
L 131.310944 103.780204 
L 131.12463 103.780204 
L 130.425955 103.742941 
L 129.494388 104.264619 
L 128.190194 103.817467 
L 127.724411 103.817467 
L 127.212049 103.891992 
L 126.466795 103.891992 
L 125.76812 103.891992 
L 125.116023 104.450932 
L 124.184456 104.450932 
L 123.858408 104.00378 
L 122.973419 104.56272 
L 121.855539 105.606075 
L 121.017129 106.463117 
L 120.551345 106.50038 
L 119.759513 106.50038 
L 119.247151 106.537642 
L 118.45532 107.096582 
L 117.803223 106.574905 
L 117.011391 106.574905 
L 113.93722 106.835744 
L 113.704328 106.873006 
L 111.841194 106.910269 
L 107.788878 104.450932 
L 105.599695 107.05932 
L 97.122436 108.847928 
L 83.47498 110.6738 
L 64.936798 111.940731 
L 48.960424 113.841127 
L 41.18184 116.076888 
L 33.3101 115.666998 
z
" clip-path="url(#pb5122239b3)" style="fill: #aeaeae"/>
   </g>
   <g id="PolyCollection_4">
    <path d="M 33.3101 93.048553 
L 33.3101 115.666998 
L 41.18184 116.076888 
L 48.960424 113.841127 
L 64.936798 111.940731 
L 83.47498 110.6738 
L 97.122436 108.847928 
L 105.599695 107.05932 
L 107.788878 104.450932 
L 111.841194 106.910269 
L 113.704328 106.873006 
L 113.93722 106.835744 
L 117.011391 106.574905 
L 117.803223 106.574905 
L 118.45532 107.096582 
L 119.247151 106.537642 
L 119.759513 106.50038 
L 120.551345 106.50038 
L 121.017129 106.463117 
L 121.855539 105.606075 
L 122.973419 104.56272 
L 123.858408 104.00378 
L 124.184456 104.450932 
L 125.116023 104.450932 
L 125.76812 103.891992 
L 126.466795 103.891992 
L 127.212049 103.891992 
L 127.724411 103.817467 
L 128.190194 103.817467 
L 129.494388 104.264619 
L 130.425955 103.742941 
L 131.12463 103.780204 
L 131.310944 103.780204 
L 131.96304 103.668416 
L 132.941186 103.519365 
L 133.965909 103.370315 
L 134.664585 103.370315 
L 135.689308 103.370315 
L 137.04008 103.370315 
L 138.903214 103.295789 
L 140.533456 102.997688 
L 141.930807 102.736849 
L 144.539194 102.699586 
L 145.657075 102.103384 
L 148.684667 101.954333 
L 150.640958 101.730757 
L 151.851995 101.544443 
L 152.597249 101.432655 
L 155.531684 101.35813 
L 157.161927 101.320867 
L 158.838747 101.209079 
L 162.14581 100.985503 
L 165.219981 100.985503 
L 165.732343 100.985503 
L 166.337861 100.985503 
L 167.269428 100.873715 
L 168.014682 100.836452 
L 170.297021 100.724664 
L 174.861699 99.755835 
L 175.746687 99.755835 
L 180.031895 99.606784 
L 181.010041 99.569521 
L 181.988186 99.569521 
L 183.57185 99.494996 
L 184.876044 99.494996 
L 186.133659 99.345945 
L 186.925491 99.383208 
L 189.4873 99.383208 
L 192.142266 98.526166 
L 193.44646 98.488904 
L 194.378027 98.004489 
L 195.542485 98.600692 
L 196.520631 98.339853 
L 197.685089 97.780913 
L 200.433212 97.520074 
L 201.877141 97.482811 
L 203.274491 97.408286 
L 204.71842 97.408286 
L 206.11577 97.445549 
L 207.559699 97.408286 
L 209.003628 97.408286 
L 210.3544 97.371023 
L 211.798329 97.371023 
L 213.195679 97.371023 
L 214.639608 97.333761 
L 216.036958 97.333761 
L 217.480887 97.333761 
L 218.924816 97.259235 
L 220.322166 97.371023 
L 221.766095 97.371023 
L 223.163446 97.296498 
L 224.607374 97.296498 
L 226.051303 97.221973 
L 227.355497 97.221973 
L 228.799426 97.221973 
L 230.196776 97.221973 
L 231.640705 97.18471 
L 233.038055 96.998397 
L 234.481984 96.923871 
L 235.925913 96.849346 
L 237.323263 96.812083 
L 238.767192 96.886609 
L 240.164543 96.812083 
L 241.608471 96.812083 
L 243.0524 96.812083 
L 244.356594 96.812083 
L 245.800523 96.812083 
L 247.197873 96.812083 
L 248.641802 96.737558 
L 250.039152 96.737558 
L 251.483081 96.737558 
L 252.92701 95.843254 
L 254.32436 95.694203 
L 255.768289 95.65694 
L 257.16564 95.65694 
L 258.609568 95.619677 
L 260.053497 95.619677 
L 261.357691 95.619677 
L 262.80162 95.545152 
L 264.19897 95.545152 
L 265.642899 95.545152 
L 267.040249 95.545152 
L 268.484178 95.545152 
L 269.928107 95.545152 
L 271.325457 95.545152 
L 272.769386 95.545152 
L 274.166737 95.507889 
L 275.610665 95.470627 
L 277.054594 95.470627 
L 278.405366 95.433364 
L 279.849295 95.433364 
L 281.246645 95.433364 
L 282.690574 95.433364 
L 284.087925 95.433364 
L 285.531853 95.396101 
L 286.975782 95.358839 
L 288.373133 95.321576 
L 289.817062 95.321576 
L 291.214412 95.284313 
L 292.658341 95.284313 
L 294.10227 95.284313 
L 295.406463 95.284313 
L 296.850392 95.247051 
L 298.247742 95.209788 
L 299.691671 95.060737 
L 301.089022 94.166433 
L 302.53295 93.98012 
L 303.976879 93.942857 
L 305.37423 94.054645 
L 306.818158 94.054645 
L 308.215509 94.054645 
L 309.659438 93.905594 
L 311.103367 93.905594 
L 312.40756 93.905594 
L 313.851489 93.831069 
L 315.248839 93.793806 
L 316.692768 93.756544 
L 318.090119 93.756544 
L 319.534047 93.756544 
L 320.977976 93.719281 
L 322.375327 93.719281 
L 323.819255 93.719281 
L 325.216606 93.644756 
L 326.660535 93.644756 
L 328.104463 93.682018 
L 329.408657 93.682018 
L 330.852586 93.682018 
L 332.249936 93.682018 
L 333.693865 93.756544 
L 335.091216 93.756544 
L 336.535144 93.756544 
L 337.979073 93.756544 
L 339.376424 93.756544 
L 340.820352 93.756544 
L 342.217703 93.756544 
L 343.661632 93.756544 
L 345.10556 93.756544 
L 346.456333 93.719281 
L 347.900261 93.719281 
L 349.297612 93.756544 
L 350.741541 93.831069 
L 352.138891 93.831069 
L 353.58282 93.793806 
L 355.026749 93.793806 
L 356.424099 93.831069 
L 357.868028 93.831069 
L 359.265378 93.831069 
L 360.709307 93.868332 
L 362.153236 93.868332 
L 363.45743 93.831069 
L 364.901358 93.793806 
L 366.298709 93.756544 
L 367.742638 93.756544 
L 369.139988 93.756544 
L 370.583917 93.719281 
L 372.027846 93.719281 
L 373.425196 93.719281 
L 374.869125 93.644756 
L 376.266475 93.682018 
L 377.710404 93.644756 
L 379.154333 93.644756 
L 380.458527 93.644756 
L 381.902455 93.644756 
L 383.299806 93.644756 
L 384.743735 93.57023 
L 386.141085 93.495705 
L 387.585014 93.495705 
L 389.028943 93.495705 
L 390.426293 93.495705 
L 391.870222 93.458442 
L 393.267572 93.458442 
L 394.711501 93.383917 
L 396.15543 93.383917 
L 397.459624 93.346654 
L 398.903552 93.346654 
L 400.300903 93.346654 
L 401.744832 93.346654 
L 403.142182 93.346654 
L 404.586111 93.272129 
L 406.03004 93.272129 
L 407.42739 93.272129 
L 408.871319 93.272129 
L 410.268669 93.234866 
L 411.712598 93.234866 
L 413.156527 93.234866 
L 414.507299 93.197603 
L 415.951228 93.197603 
L 417.348578 93.197603 
L 418.792507 93.160341 
L 420.189857 93.160341 
L 421.633786 92.936765 
L 423.077715 92.601401 
L 424.475065 92.638663 
L 425.918994 92.638663 
L 427.316345 92.638663 
L 428.760273 92.638663 
L 430.204202 92.638663 
L 431.508396 92.638663 
L 432.952325 92.638663 
L 434.349675 92.675926 
L 435.793604 92.675926 
L 437.190954 92.675926 
L 438.634883 92.675926 
L 440.078812 92.675926 
L 441.476162 93.57023 
L 442.920091 93.57023 
L 444.317442 93.57023 
L 445.76137 93.57023 
L 447.205299 93.607493 
L 448.509493 93.644756 
L 449.953422 93.793806 
L 449.953422 86.005906 
L 449.953422 86.005906 
L 448.509493 84.403611 
L 447.205299 84.403611 
L 445.76137 84.366349 
L 444.317442 84.366349 
L 442.920091 84.366349 
L 441.476162 84.366349 
L 440.078812 83.472044 
L 438.634883 83.472044 
L 437.190954 83.472044 
L 435.793604 83.472044 
L 434.349675 83.472044 
L 432.952325 83.472044 
L 431.508396 83.472044 
L 430.204202 83.472044 
L 428.760273 83.472044 
L 427.316345 83.472044 
L 425.918994 83.472044 
L 424.475065 83.509307 
L 423.077715 83.509307 
L 421.633786 83.509307 
L 420.189857 83.54657 
L 418.792507 83.54657 
L 417.348578 83.54657 
L 415.951228 83.54657 
L 414.507299 83.54657 
L 413.156527 83.54657 
L 411.712598 83.54657 
L 410.268669 83.54657 
L 408.871319 83.54657 
L 407.42739 83.54657 
L 406.03004 83.54657 
L 404.586111 83.54657 
L 403.142182 83.54657 
L 401.744832 83.54657 
L 400.300903 83.54657 
L 398.903552 83.54657 
L 397.459624 83.54657 
L 396.15543 83.732883 
L 394.711501 83.770146 
L 393.267572 83.807408 
L 391.870222 83.807408 
L 390.426293 83.807408 
L 389.028943 83.807408 
L 387.585014 83.807408 
L 386.141085 83.807408 
L 384.743735 83.807408 
L 383.299806 83.807408 
L 381.902455 83.807408 
L 380.458527 83.844671 
L 379.154333 83.807408 
L 377.710404 83.807408 
L 376.266475 83.844671 
L 374.869125 83.583832 
L 373.425196 83.583832 
L 372.027846 83.248468 
L 370.583917 83.248468 
L 369.139988 83.248468 
L 367.742638 83.248468 
L 366.298709 83.248468 
L 364.901358 83.248468 
L 363.45743 83.285731 
L 362.153236 83.285731 
L 360.709307 83.285731 
L 359.265378 83.248468 
L 357.868028 83.248468 
L 356.424099 83.248468 
L 355.026749 83.285731 
L 353.58282 83.285731 
L 352.138891 83.285731 
L 350.741541 83.285731 
L 349.297612 83.211206 
L 347.900261 83.173943 
L 346.456333 83.173943 
L 345.10556 83.173943 
L 343.661632 83.173943 
L 342.217703 83.173943 
L 340.820352 83.173943 
L 339.376424 83.173943 
L 337.979073 83.173943 
L 336.535144 83.173943 
L 335.091216 83.173943 
L 333.693865 83.173943 
L 332.249936 83.099418 
L 330.852586 83.099418 
L 329.408657 83.099418 
L 328.104463 83.099418 
L 326.660535 83.099418 
L 325.216606 83.099418 
L 323.819255 83.099418 
L 322.375327 83.099418 
L 320.977976 83.099418 
L 319.534047 83.062155 
L 318.090119 83.062155 
L 316.692768 83.062155 
L 315.248839 83.062155 
L 313.851489 83.062155 
L 312.40756 83.062155 
L 311.103367 83.062155 
L 309.659438 83.062155 
L 308.215509 83.062155 
L 306.818158 83.062155 
L 305.37423 83.062155 
L 303.976879 83.062155 
L 302.53295 83.062155 
L 301.089022 83.062155 
L 299.691671 83.062155 
L 298.247742 83.062155 
L 296.850392 83.062155 
L 295.406463 83.062155 
L 294.10227 83.062155 
L 292.658341 83.062155 
L 291.214412 83.062155 
L 289.817062 83.062155 
L 288.373133 83.062155 
L 286.975782 83.062155 
L 285.531853 83.062155 
L 284.087925 83.062155 
L 282.690574 83.062155 
L 281.246645 83.062155 
L 279.849295 83.062155 
L 278.405366 83.397519 
L 277.054594 83.434782 
L 275.610665 83.434782 
L 274.166737 83.434782 
L 272.769386 83.583832 
L 271.325457 83.583832 
L 269.928107 83.583832 
L 268.484178 83.583832 
L 267.040249 83.583832 
L 265.642899 83.583832 
L 264.19897 83.583832 
L 262.80162 83.583832 
L 261.357691 83.583832 
L 260.053497 83.583832 
L 258.609568 83.583832 
L 257.16564 83.621095 
L 255.768289 83.621095 
L 254.32436 83.621095 
L 252.92701 83.621095 
L 251.483081 83.360256 
L 250.039152 83.509307 
L 248.641802 83.472044 
L 247.197873 83.472044 
L 245.800523 83.472044 
L 244.356594 83.472044 
L 243.0524 83.472044 
L 241.608471 83.472044 
L 240.164543 83.472044 
L 238.767192 83.509307 
L 237.323263 83.509307 
L 235.925913 83.509307 
L 234.481984 83.472044 
L 233.038055 83.472044 
L 231.640705 83.472044 
L 230.196776 83.472044 
L 228.799426 83.472044 
L 227.355497 83.472044 
L 226.051303 83.472044 
L 224.607374 83.472044 
L 223.163446 83.472044 
L 221.766095 83.472044 
L 220.322166 83.509307 
L 218.924816 83.472044 
L 217.480887 83.509307 
L 216.036958 83.472044 
L 214.639608 83.472044 
L 213.195679 83.472044 
L 211.798329 83.472044 
L 210.3544 83.472044 
L 209.003628 83.472044 
L 207.559699 83.509307 
L 206.11577 83.509307 
L 204.71842 83.472044 
L 203.274491 83.472044 
L 201.877141 83.472044 
L 200.433212 83.54657 
L 197.685089 83.807408 
L 196.520631 84.440874 
L 195.542485 84.515399 
L 194.378027 83.919196 
L 193.44646 85.372441 
L 192.142266 85.372441 
L 189.4873 86.713897 
L 186.925491 86.713897 
L 186.133659 86.676635 
L 184.876044 86.825685 
L 183.57185 86.788423 
L 181.988186 86.788423 
L 181.010041 86.788423 
L 180.031895 86.788423 
L 175.746687 87.086524 
L 174.861699 87.086524 
L 170.297021 87.272838 
L 168.014682 87.235575 
L 167.269428 87.235575 
L 166.337861 87.3101 
L 165.732343 87.3101 
L 165.219981 87.3101 
L 162.14581 87.831778 
L 158.838747 87.943566 
L 157.161927 87.943566 
L 155.531684 87.943566 
L 152.597249 87.943566 
L 151.851995 87.906303 
L 150.640958 87.906303 
L 148.684667 87.794515 
L 145.657075 87.757252 
L 144.539194 88.726082 
L 141.930807 88.83787 
L 140.533456 88.949658 
L 138.903214 88.83787 
L 137.04008 88.83787 
L 135.689308 88.800607 
L 134.664585 88.800607 
L 133.965909 88.800607 
L 132.941186 88.763345 
L 131.96304 88.763345 
L 131.310944 88.800607 
L 131.12463 88.800607 
L 130.425955 88.800607 
L 129.494388 89.210497 
L 128.190194 88.800607 
L 127.724411 88.800607 
L 127.212049 88.83787 
L 126.466795 88.763345 
L 125.76812 88.763345 
L 125.116023 89.135971 
L 124.184456 89.061446 
L 123.858408 88.651557 
L 122.973419 89.173234 
L 121.855539 89.024183 
L 121.017129 89.061446 
L 120.551345 89.061446 
L 119.759513 89.061446 
L 119.247151 89.098709 
L 118.45532 89.583124 
L 117.803223 89.061446 
L 117.011391 89.061446 
L 113.93722 89.993013 
L 113.704328 90.030276 
L 111.841194 89.993013 
L 107.788878 89.135971 
L 105.599695 89.993013 
L 97.122436 90.738267 
L 83.47498 91.148156 
L 64.936798 91.818884 
L 48.960424 92.228774 
L 41.18184 93.197603 
L 33.3101 93.048553 
z
" clip-path="url(#pb5122239b3)" style="fill: #d5dce5"/>
   </g>
   <g id="matplotlib.axis_1">
    <g id="xtick_1">
     <g id="line2d_1">
      <defs>
       <path id="m29e22a91b9" d="M 0 0 
L 0 3.5 
" style="stroke: #000000; stroke-width: 0.8"/>
      </defs>
      <g>
       <use xlink:href="#m29e22a91b9" x="71.457766" y="271.983934" style="stroke: #000000; stroke-width: 0.8"/>
      </g>
     </g>
     <g id="text_1">
      <!-- 2004 -->
      <g transform="translate(58.732766 286.582372) scale(0.1 -0.1)">
       <defs>
        <path id="DejaVuSans-32" d="M 1228 531 
L 3431 531 
L 3431 0 
L 469 0 
L 469 531 
Q 828 903 1448 1529 
Q 2069 2156 2228 2338 
Q 2531 2678 2651 2914 
Q 2772 3150 2772 3378 
Q 2772 3750 2511 3984 
Q 2250 4219 1831 4219 
Q 1534 4219 1204 4116 
Q 875 4013 500 3803 
L 500 4441 
Q 881 4594 1212 4672 
Q 1544 4750 1819 4750 
Q 2544 4750 2975 4387 
Q 3406 4025 3406 3419 
Q 3406 3131 3298 2873 
Q 3191 2616 2906 2266 
Q 2828 2175 2409 1742 
Q 1991 1309 1228 531 
z
" transform="scale(0.015625)"/>
        <path id="DejaVuSans-30" d="M 2034 4250 
Q 1547 4250 1301 3770 
Q 1056 3291 1056 2328 
Q 1056 1369 1301 889 
Q 1547 409 2034 409 
Q 2525 409 2770 889 
Q 3016 1369 3016 2328 
Q 3016 3291 2770 3770 
Q 2525 4250 2034 4250 
z
M 2034 4750 
Q 2819 4750 3233 4129 
Q 3647 3509 3647 2328 
Q 3647 1150 3233 529 
Q 2819 -91 2034 -91 
Q 1250 -91 836 529 
Q 422 1150 422 2328 
Q 422 3509 836 4129 
Q 1250 4750 2034 4750 
z
" transform="scale(0.015625)"/>
        <path id="DejaVuSans-34" d="M 2419 4116 
L 825 1625 
L 2419 1625 
L 2419 4116 
z
M 2253 4666 
L 3047 4666 
L 3047 1625 
L 3713 1625 
L 3713 1100 
L 3047 1100 
L 3047 0 
L 2419 0 
L 2419 1100 
L 313 1100 
L 313 1709 
L 2253 4666 
z
" transform="scale(0.015625)"/>
       </defs>
       <use xlink:href="#DejaVuSans-32"/>
       <use xlink:href="#DejaVuSans-30" x="63.623047"/>
       <use xlink:href="#DejaVuSans-30" x="127.246094"/>
       <use xlink:href="#DejaVuSans-34" x="190.869141"/>
      </g>
     </g>
    </g>
    <g id="xtick_2">
     <g id="line2d_2">
      <g>
       <use xlink:href="#m29e22a91b9" x="139.508733" y="271.983934" style="stroke: #000000; stroke-width: 0.8"/>
      </g>
     </g>
     <g id="text_2">
      <!-- 2008 -->
      <g transform="translate(126.783733 286.582372) scale(0.1 -0.1)">
       <defs>
        <path id="DejaVuSans-38" d="M 2034 2216 
Q 1584 2216 1326 1975 
Q 1069 1734 1069 1313 
Q 1069 891 1326 650 
Q 1584 409 2034 409 
Q 2484 409 2743 651 
Q 3003 894 3003 1313 
Q 3003 1734 2745 1975 
Q 2488 2216 2034 2216 
z
M 1403 2484 
Q 997 2584 770 2862 
Q 544 3141 544 3541 
Q 544 4100 942 4425 
Q 1341 4750 2034 4750 
Q 2731 4750 3128 4425 
Q 3525 4100 3525 3541 
Q 3525 3141 3298 2862 
Q 3072 2584 2669 2484 
Q 3125 2378 3379 2068 
Q 3634 1759 3634 1313 
Q 3634 634 3220 271 
Q 2806 -91 2034 -91 
Q 1263 -91 848 271 
Q 434 634 434 1313 
Q 434 1759 690 2068 
Q 947 2378 1403 2484 
z
M 1172 3481 
Q 1172 3119 1398 2916 
Q 1625 2713 2034 2713 
Q 2441 2713 2670 2916 
Q 2900 3119 2900 3481 
Q 2900 3844 2670 4047 
Q 2441 4250 2034 4250 
Q 1625 4250 1398 4047 
Q 1172 3844 1172 3481 
z
" transform="scale(0.015625)"/>
       </defs>
       <use xlink:href="#DejaVuSans-32"/>
       <use xlink:href="#DejaVuSans-30" x="63.623047"/>
       <use xlink:href="#DejaVuSans-30" x="127.246094"/>
       <use xlink:href="#DejaVuSans-38" x="190.869141"/>
      </g>
     </g>
    </g>
    <g id="xtick_3">
     <g id="line2d_3">
      <g>
       <use xlink:href="#m29e22a91b9" x="207.559699" y="271.983934" style="stroke: #000000; stroke-width: 0.8"/>
      </g>
     </g>
     <g id="text_3">
      <!-- 2012 -->
      <g transform="translate(194.834699 286.582372) scale(0.1 -0.1)">
       <defs>
        <path id="DejaVuSans-31" d="M 794 531 
L 1825 531 
L 1825 4091 
L 703 3866 
L 703 4441 
L 1819 4666 
L 2450 4666 
L 2450 531 
L 3481 531 
L 3481 0 
L 794 0 
L 794 531 
z
" transform="scale(0.015625)"/>
       </defs>
       <use xlink:href="#DejaVuSans-32"/>
       <use xlink:href="#DejaVuSans-30" x="63.623047"/>
       <use xlink:href="#DejaVuSans-31" x="127.246094"/>
       <use xlink:href="#DejaVuSans-32" x="190.869141"/>
      </g>
     </g>
    </g>
    <g id="xtick_4">
     <g id="line2d_4">
      <g>
       <use xlink:href="#m29e22a91b9" x="275.610665" y="271.983934" style="stroke: #000000; stroke-width: 0.8"/>
      </g>
     </g>
     <g id="text_4">
      <!-- 2016 -->
      <g transform="translate(262.885665 286.582372) scale(0.1 -0.1)">
       <defs>
        <path id="DejaVuSans-36" d="M 2113 2584 
Q 1688 2584 1439 2293 
Q 1191 2003 1191 1497 
Q 1191 994 1439 701 
Q 1688 409 2113 409 
Q 2538 409 2786 701 
Q 3034 994 3034 1497 
Q 3034 2003 2786 2293 
Q 2538 2584 2113 2584 
z
M 3366 4563 
L 3366 3988 
Q 3128 4100 2886 4159 
Q 2644 4219 2406 4219 
Q 1781 4219 1451 3797 
Q 1122 3375 1075 2522 
Q 1259 2794 1537 2939 
Q 1816 3084 2150 3084 
Q 2853 3084 3261 2657 
Q 3669 2231 3669 1497 
Q 3669 778 3244 343 
Q 2819 -91 2113 -91 
Q 1303 -91 875 529 
Q 447 1150 447 2328 
Q 447 3434 972 4092 
Q 1497 4750 2381 4750 
Q 2619 4750 2861 4703 
Q 3103 4656 3366 4563 
z
" transform="scale(0.015625)"/>
       </defs>
       <use xlink:href="#DejaVuSans-32"/>
       <use xlink:href="#DejaVuSans-30" x="63.623047"/>
       <use xlink:href="#DejaVuSans-31" x="127.246094"/>
       <use xlink:href="#DejaVuSans-36" x="190.869141"/>
      </g>
     </g>
    </g>
    <g id="xtick_5">
     <g id="line2d_5">
      <g>
       <use xlink:href="#m29e22a91b9" x="343.661632" y="271.983934" style="stroke: #000000; stroke-width: 0.8"/>
      </g>
     </g>
     <g id="text_5">
      <!-- 2020 -->
      <g transform="translate(330.936632 286.582372) scale(0.1 -0.1)">
       <use xlink:href="#DejaVuSans-32"/>
       <use xlink:href="#DejaVuSans-30" x="63.623047"/>
       <use xlink:href="#DejaVuSans-32" x="127.246094"/>
       <use xlink:href="#DejaVuSans-30" x="190.869141"/>
      </g>
     </g>
    </g>
    <g id="xtick_6">
     <g id="line2d_6">
      <g>
       <use xlink:href="#m29e22a91b9" x="411.712598" y="271.983934" style="stroke: #000000; stroke-width: 0.8"/>
      </g>
     </g>
     <g id="text_6">
      <!-- 2024 -->
      <g transform="translate(398.987598 286.582372) scale(0.1 -0.1)">
       <use xlink:href="#DejaVuSans-32"/>
       <use xlink:href="#DejaVuSans-30" x="63.623047"/>
       <use xlink:href="#DejaVuSans-32" x="127.246094"/>
       <use xlink:href="#DejaVuSans-34" x="190.869141"/>
      </g>
     </g>
    </g>
    <g id="text_7">
     <!-- Year -->
     <g transform="translate(239.86375 304.059715) scale(0.15 -0.15)">
      <defs>
       <path id="DejaVuSans-59" d="M -13 4666 
L 666 4666 
L 1959 2747 
L 3244 4666 
L 3922 4666 
L 2272 2222 
L 2272 0 
L 1638 0 
L 1638 2222 
L -13 4666 
z
" transform="scale(0.015625)"/>
       <path id="DejaVuSans-65" d="M 3597 1894 
L 3597 1613 
L 953 1613 
Q 991 1019 1311 708 
Q 1631 397 2203 397 
Q 2534 397 2845 478 
Q 3156 559 3463 722 
L 3463 178 
Q 3153 47 2828 -22 
Q 2503 -91 2169 -91 
Q 1331 -91 842 396 
Q 353 884 353 1716 
Q 353 2575 817 3079 
Q 1281 3584 2069 3584 
Q 2775 3584 3186 3129 
Q 3597 2675 3597 1894 
z
M 3022 2063 
Q 3016 2534 2758 2815 
Q 2500 3097 2075 3097 
Q 1594 3097 1305 2825 
Q 1016 2553 972 2059 
L 3022 2063 
z
" transform="scale(0.015625)"/>
       <path id="DejaVuSans-61" d="M 2194 1759 
Q 1497 1759 1228 1600 
Q 959 1441 959 1056 
Q 959 750 1161 570 
Q 1363 391 1709 391 
Q 2188 391 2477 730 
Q 2766 1069 2766 1631 
L 2766 1759 
L 2194 1759 
z
M 3341 1997 
L 3341 0 
L 2766 0 
L 2766 531 
Q 2569 213 2275 61 
Q 1981 -91 1556 -91 
Q 1019 -91 701 211 
Q 384 513 384 1019 
Q 384 1609 779 1909 
Q 1175 2209 1959 2209 
L 2766 2209 
L 2766 2266 
Q 2766 2663 2505 2880 
Q 2244 3097 1772 3097 
Q 1472 3097 1187 3025 
Q 903 2953 641 2809 
L 641 3341 
Q 956 3463 1253 3523 
Q 1550 3584 1831 3584 
Q 2591 3584 2966 3190 
Q 3341 2797 3341 1997 
z
" transform="scale(0.015625)"/>
       <path id="DejaVuSans-72" d="M 2631 2963 
Q 2534 3019 2420 3045 
Q 2306 3072 2169 3072 
Q 1681 3072 1420 2755 
Q 1159 2438 1159 1844 
L 1159 0 
L 581 0 
L 581 3500 
L 1159 3500 
L 1159 2956 
Q 1341 3275 1631 3429 
Q 1922 3584 2338 3584 
Q 2397 3584 2469 3576 
Q 2541 3569 2628 3553 
L 2631 2963 
z
" transform="scale(0.015625)"/>
      </defs>
      <use xlink:href="#DejaVuSans-59"/>
      <use xlink:href="#DejaVuSans-65" x="47.833984"/>
      <use xlink:href="#DejaVuSans-61" x="109.357422"/>
      <use xlink:href="#DejaVuSans-72" x="170.636719"/>
     </g>
    </g>
   </g>
   <g id="matplotlib.axis_2">
    <g id="ytick_1">
     <g id="line2d_7">
      <defs>
       <path id="m50b756817a" d="M 0 0 
L -3.5 0 
" style="stroke: #000000; stroke-width: 0.8"/>
      </defs>
      <g>
       <use xlink:href="#m50b756817a" x="61.49" y="271.983934" style="stroke: #000000; stroke-width: 0.8"/>
      </g>
     </g>
     <g id="text_8">
      <!-- 0 -->
      <g transform="translate(48.1275 275.783153) scale(0.1 -0.1)">
       <use xlink:href="#DejaVuSans-30"/>
      </g>
     </g>
    </g>
    <g id="ytick_2">
     <g id="line2d_8">
      <g>
       <use xlink:href="#m50b756817a" x="61.49" y="234.721256" style="stroke: #000000; stroke-width: 0.8"/>
      </g>
     </g>
     <g id="text_9">
      <!-- 1000 -->
      <g transform="translate(29.04 238.520474) scale(0.1 -0.1)">
       <use xlink:href="#DejaVuSans-31"/>
       <use xlink:href="#DejaVuSans-30" x="63.623047"/>
       <use xlink:href="#DejaVuSans-30" x="127.246094"/>
       <use xlink:href="#DejaVuSans-30" x="190.869141"/>
      </g>
     </g>
    </g>
    <g id="ytick_3">
     <g id="line2d_9">
      <g>
       <use xlink:href="#m50b756817a" x="61.49" y="197.458577" style="stroke: #000000; stroke-width: 0.8"/>
      </g>
     </g>
     <g id="text_10">
      <!-- 2000 -->
      <g transform="translate(29.04 201.257796) scale(0.1 -0.1)">
       <use xlink:href="#DejaVuSans-32"/>
       <use xlink:href="#DejaVuSans-30" x="63.623047"/>
       <use xlink:href="#DejaVuSans-30" x="127.246094"/>
       <use xlink:href="#DejaVuSans-30" x="190.869141"/>
      </g>
     </g>
    </g>
    <g id="ytick_4">
     <g id="line2d_10">
      <g>
       <use xlink:href="#m50b756817a" x="61.49" y="160.195899" style="stroke: #000000; stroke-width: 0.8"/>
      </g>
     </g>
     <g id="text_11">
      <!-- 3000 -->
      <g transform="translate(29.04 163.995118) scale(0.1 -0.1)">
       <defs>
        <path id="DejaVuSans-33" d="M 2597 2516 
Q 3050 2419 3304 2112 
Q 3559 1806 3559 1356 
Q 3559 666 3084 287 
Q 2609 -91 1734 -91 
Q 1441 -91 1130 -33 
Q 819 25 488 141 
L 488 750 
Q 750 597 1062 519 
Q 1375 441 1716 441 
Q 2309 441 2620 675 
Q 2931 909 2931 1356 
Q 2931 1769 2642 2001 
Q 2353 2234 1838 2234 
L 1294 2234 
L 1294 2753 
L 1863 2753 
Q 2328 2753 2575 2939 
Q 2822 3125 2822 3475 
Q 2822 3834 2567 4026 
Q 2313 4219 1838 4219 
Q 1578 4219 1281 4162 
Q 984 4106 628 3988 
L 628 4550 
Q 988 4650 1302 4700 
Q 1616 4750 1894 4750 
Q 2613 4750 3031 4423 
Q 3450 4097 3450 3541 
Q 3450 3153 3228 2886 
Q 3006 2619 2597 2516 
z
" transform="scale(0.015625)"/>
       </defs>
       <use xlink:href="#DejaVuSans-33"/>
       <use xlink:href="#DejaVuSans-30" x="63.623047"/>
       <use xlink:href="#DejaVuSans-30" x="127.246094"/>
       <use xlink:href="#DejaVuSans-30" x="190.869141"/>
      </g>
     </g>
    </g>
    <g id="ytick_5">
     <g id="line2d_11">
      <g>
       <use xlink:href="#m50b756817a" x="61.49" y="122.933221" style="stroke: #000000; stroke-width: 0.8"/>
      </g>
     </g>
     <g id="text_12">
      <!-- 4000 -->
      <g transform="translate(29.04 126.732439) scale(0.1 -0.1)">
       <use xlink:href="#DejaVuSans-34"/>
       <use xlink:href="#DejaVuSans-30" x="63.623047"/>
       <use xlink:href="#DejaVuSans-30" x="127.246094"/>
       <use xlink:href="#DejaVuSans-30" x="190.869141"/>
      </g>
     </g>
    </g>
    <g id="ytick_6">
     <g id="line2d_12">
      <g>
       <use xlink:href="#m50b756817a" x="61.49" y="85.670542" style="stroke: #000000; stroke-width: 0.8"/>
      </g>
     </g>
     <g id="text_13">
      <!-- 5000 -->
      <g transform="translate(29.04 89.469761) scale(0.1 -0.1)">
       <defs>
        <path id="DejaVuSans-35" d="M 691 4666 
L 3169 4666 
L 3169 4134 
L 1269 4134 
L 1269 2991 
Q 1406 3038 1543 3061 
Q 1681 3084 1819 3084 
Q 2600 3084 3056 2656 
Q 3513 2228 3513 1497 
Q 3513 744 3044 326 
Q 2575 -91 1722 -91 
Q 1428 -91 1123 -41 
Q 819 9 494 109 
L 494 744 
Q 775 591 1075 516 
Q 1375 441 1709 441 
Q 2250 441 2565 725 
Q 2881 1009 2881 1497 
Q 2881 1984 2565 2268 
Q 2250 2553 1709 2553 
Q 1456 2553 1204 2497 
Q 953 2441 691 2322 
L 691 4666 
z
" transform="scale(0.015625)"/>
       </defs>
       <use xlink:href="#DejaVuSans-35"/>
       <use xlink:href="#DejaVuSans-30" x="63.623047"/>
       <use xlink:href="#DejaVuSans-30" x="127.246094"/>
       <use xlink:href="#DejaVuSans-30" x="190.869141"/>
      </g>
     </g>
    </g>
    <g id="text_14">
     <!-- Number of proteins -->
     <g transform="translate(21.920469 245.489062) rotate(-90) scale(0.15 -0.15)">
      <defs>
       <path id="DejaVuSans-4e" d="M 628 4666 
L 1478 4666 
L 3547 763 
L 3547 4666 
L 4159 4666 
L 4159 0 
L 3309 0 
L 1241 3903 
L 1241 0 
L 628 0 
L 628 4666 
z
" transform="scale(0.015625)"/>
       <path id="DejaVuSans-75" d="M 544 1381 
L 544 3500 
L 1119 3500 
L 1119 1403 
Q 1119 906 1312 657 
Q 1506 409 1894 409 
Q 2359 409 2629 706 
Q 2900 1003 2900 1516 
L 2900 3500 
L 3475 3500 
L 3475 0 
L 2900 0 
L 2900 538 
Q 2691 219 2414 64 
Q 2138 -91 1772 -91 
Q 1169 -91 856 284 
Q 544 659 544 1381 
z
M 1991 3584 
L 1991 3584 
z
" transform="scale(0.015625)"/>
       <path id="DejaVuSans-6d" d="M 3328 2828 
Q 3544 3216 3844 3400 
Q 4144 3584 4550 3584 
Q 5097 3584 5394 3201 
Q 5691 2819 5691 2113 
L 5691 0 
L 5113 0 
L 5113 2094 
Q 5113 2597 4934 2840 
Q 4756 3084 4391 3084 
Q 3944 3084 3684 2787 
Q 3425 2491 3425 1978 
L 3425 0 
L 2847 0 
L 2847 2094 
Q 2847 2600 2669 2842 
Q 2491 3084 2119 3084 
Q 1678 3084 1418 2786 
Q 1159 2488 1159 1978 
L 1159 0 
L 581 0 
L 581 3500 
L 1159 3500 
L 1159 2956 
Q 1356 3278 1631 3431 
Q 1906 3584 2284 3584 
Q 2666 3584 2933 3390 
Q 3200 3197 3328 2828 
z
" transform="scale(0.015625)"/>
       <path id="DejaVuSans-62" d="M 3116 1747 
Q 3116 2381 2855 2742 
Q 2594 3103 2138 3103 
Q 1681 3103 1420 2742 
Q 1159 2381 1159 1747 
Q 1159 1113 1420 752 
Q 1681 391 2138 391 
Q 2594 391 2855 752 
Q 3116 1113 3116 1747 
z
M 1159 2969 
Q 1341 3281 1617 3432 
Q 1894 3584 2278 3584 
Q 2916 3584 3314 3078 
Q 3713 2572 3713 1747 
Q 3713 922 3314 415 
Q 2916 -91 2278 -91 
Q 1894 -91 1617 61 
Q 1341 213 1159 525 
L 1159 0 
L 581 0 
L 581 4863 
L 1159 4863 
L 1159 2969 
z
" transform="scale(0.015625)"/>
       <path id="DejaVuSans-20" transform="scale(0.015625)"/>
       <path id="DejaVuSans-6f" d="M 1959 3097 
Q 1497 3097 1228 2736 
Q 959 2375 959 1747 
Q 959 1119 1226 758 
Q 1494 397 1959 397 
Q 2419 397 2687 759 
Q 2956 1122 2956 1747 
Q 2956 2369 2687 2733 
Q 2419 3097 1959 3097 
z
M 1959 3584 
Q 2709 3584 3137 3096 
Q 3566 2609 3566 1747 
Q 3566 888 3137 398 
Q 2709 -91 1959 -91 
Q 1206 -91 779 398 
Q 353 888 353 1747 
Q 353 2609 779 3096 
Q 1206 3584 1959 3584 
z
" transform="scale(0.015625)"/>
       <path id="DejaVuSans-66" d="M 2375 4863 
L 2375 4384 
L 1825 4384 
Q 1516 4384 1395 4259 
Q 1275 4134 1275 3809 
L 1275 3500 
L 2222 3500 
L 2222 3053 
L 1275 3053 
L 1275 0 
L 697 0 
L 697 3053 
L 147 3053 
L 147 3500 
L 697 3500 
L 697 3744 
Q 697 4328 969 4595 
Q 1241 4863 1831 4863 
L 2375 4863 
z
" transform="scale(0.015625)"/>
       <path id="DejaVuSans-70" d="M 1159 525 
L 1159 -1331 
L 581 -1331 
L 581 3500 
L 1159 3500 
L 1159 2969 
Q 1341 3281 1617 3432 
Q 1894 3584 2278 3584 
Q 2916 3584 3314 3078 
Q 3713 2572 3713 1747 
Q 3713 922 3314 415 
Q 2916 -91 2278 -91 
Q 1894 -91 1617 61 
Q 1341 213 1159 525 
z
M 3116 1747 
Q 3116 2381 2855 2742 
Q 2594 3103 2138 3103 
Q 1681 3103 1420 2742 
Q 1159 2381 1159 1747 
Q 1159 1113 1420 752 
Q 1681 391 2138 391 
Q 2594 391 2855 752 
Q 3116 1113 3116 1747 
z
" transform="scale(0.015625)"/>
       <path id="DejaVuSans-74" d="M 1172 4494 
L 1172 3500 
L 2356 3500 
L 2356 3053 
L 1172 3053 
L 1172 1153 
Q 1172 725 1289 603 
Q 1406 481 1766 481 
L 2356 481 
L 2356 0 
L 1766 0 
Q 1100 0 847 248 
Q 594 497 594 1153 
L 594 3053 
L 172 3053 
L 172 3500 
L 594 3500 
L 594 4494 
L 1172 4494 
z
" transform="scale(0.015625)"/>
       <path id="DejaVuSans-69" d="M 603 3500 
L 1178 3500 
L 1178 0 
L 603 0 
L 603 3500 
z
M 603 4863 
L 1178 4863 
L 1178 4134 
L 603 4134 
L 603 4863 
z
" transform="scale(0.015625)"/>
       <path id="DejaVuSans-6e" d="M 3513 2113 
L 3513 0 
L 2938 0 
L 2938 2094 
Q 2938 2591 2744 2837 
Q 2550 3084 2163 3084 
Q 1697 3084 1428 2787 
Q 1159 2491 1159 1978 
L 1159 0 
L 581 0 
L 581 3500 
L 1159 3500 
L 1159 2956 
Q 1366 3272 1645 3428 
Q 1925 3584 2291 3584 
Q 2894 3584 3203 3211 
Q 3513 2838 3513 2113 
z
" transform="scale(0.015625)"/>
       <path id="DejaVuSans-73" d="M 2834 3397 
L 2834 2853 
Q 2591 2978 2328 3040 
Q 2066 3103 1784 3103 
Q 1356 3103 1142 2972 
Q 928 2841 928 2578 
Q 928 2378 1081 2264 
Q 1234 2150 1697 2047 
L 1894 2003 
Q 2506 1872 2764 1633 
Q 3022 1394 3022 966 
Q 3022 478 2636 193 
Q 2250 -91 1575 -91 
Q 1294 -91 989 -36 
Q 684 19 347 128 
L 347 722 
Q 666 556 975 473 
Q 1284 391 1588 391 
Q 1994 391 2212 530 
Q 2431 669 2431 922 
Q 2431 1156 2273 1281 
Q 2116 1406 1581 1522 
L 1381 1569 
Q 847 1681 609 1914 
Q 372 2147 372 2553 
Q 372 3047 722 3315 
Q 1072 3584 1716 3584 
Q 2034 3584 2315 3537 
Q 2597 3491 2834 3397 
z
" transform="scale(0.015625)"/>
      </defs>
      <use xlink:href="#DejaVuSans-4e"/>
      <use xlink:href="#DejaVuSans-75" x="74.804688"/>
      <use xlink:href="#DejaVuSans-6d" x="138.183594"/>
      <use xlink:href="#DejaVuSans-62" x="235.595703"/>
      <use xlink:href="#DejaVuSans-65" x="299.072266"/>
      <use xlink:href="#DejaVuSans-72" x="360.595703"/>
      <use xlink:href="#DejaVuSans-20" x="401.708984"/>
      <use xlink:href="#DejaVuSans-6f" x="433.496094"/>
      <use xlink:href="#DejaVuSans-66" x="494.677734"/>
      <use xlink:href="#DejaVuSans-20" x="529.882812"/>
      <use xlink:href="#DejaVuSans-70" x="561.669922"/>
      <use xlink:href="#DejaVuSans-72" x="625.146484"/>
      <use xlink:href="#DejaVuSans-6f" x="664.009766"/>
      <use xlink:href="#DejaVuSans-74" x="725.191406"/>
      <use xlink:href="#DejaVuSans-65" x="764.400391"/>
      <use xlink:href="#DejaVuSans-69" x="825.923828"/>
      <use xlink:href="#DejaVuSans-6e" x="853.707031"/>
      <use xlink:href="#DejaVuSans-73" x="917.085938"/>
     </g>
    </g>
   </g>
   <g id="patch_3">
    <path d="M 61.49 271.983934 
L 61.49 73.616066 
" style="fill: none; stroke: #000000; stroke-width: 0.8; stroke-linejoin: miter; stroke-linecap: square"/>
   </g>
   <g id="patch_4">
    <path d="M 61.49 271.983934 
L 450 271.983934 
" style="fill: none; stroke: #000000; stroke-width: 0.8; stroke-linejoin: miter; stroke-linecap: square"/>
   </g>
   <g id="legend_1">
    <g id="patch_5">
     <path d="M 98.395781 68.616066 
L 413.094219 68.616066 
Q 415.094219 68.616066 415.094219 66.616066 
L 415.094219 38.259816 
Q 415.094219 36.259816 413.094219 36.259816 
L 98.395781 36.259816 
Q 96.395781 36.259816 96.395781 38.259816 
L 96.395781 66.616066 
Q 96.395781 68.616066 98.395781 68.616066 
z
" style="fill: #ffffff; opacity: 0.8; stroke: #cccccc; stroke-linejoin: miter"/>
    </g>
    <g id="patch_6">
     <path d="M 100.395781 47.858253 
L 120.395781 47.858253 
L 120.395781 40.858253 
L 100.395781 40.858253 
z
" style="fill: #fb363b"/>
    </g>
    <g id="text_15">
     <!-- Biological role published -->
     <g transform="translate(128.395781 47.858253) scale(0.1 -0.1)">
      <defs>
       <path id="DejaVuSans-42" d="M 1259 2228 
L 1259 519 
L 2272 519 
Q 2781 519 3026 730 
Q 3272 941 3272 1375 
Q 3272 1813 3026 2020 
Q 2781 2228 2272 2228 
L 1259 2228 
z
M 1259 4147 
L 1259 2741 
L 2194 2741 
Q 2656 2741 2882 2914 
Q 3109 3088 3109 3444 
Q 3109 3797 2882 3972 
Q 2656 4147 2194 4147 
L 1259 4147 
z
M 628 4666 
L 2241 4666 
Q 2963 4666 3353 4366 
Q 3744 4066 3744 3513 
Q 3744 3084 3544 2831 
Q 3344 2578 2956 2516 
Q 3422 2416 3680 2098 
Q 3938 1781 3938 1306 
Q 3938 681 3513 340 
Q 3088 0 2303 0 
L 628 0 
L 628 4666 
z
" transform="scale(0.015625)"/>
       <path id="DejaVuSans-6c" d="M 603 4863 
L 1178 4863 
L 1178 0 
L 603 0 
L 603 4863 
z
" transform="scale(0.015625)"/>
       <path id="DejaVuSans-67" d="M 2906 1791 
Q 2906 2416 2648 2759 
Q 2391 3103 1925 3103 
Q 1463 3103 1205 2759 
Q 947 2416 947 1791 
Q 947 1169 1205 825 
Q 1463 481 1925 481 
Q 2391 481 2648 825 
Q 2906 1169 2906 1791 
z
M 3481 434 
Q 3481 -459 3084 -895 
Q 2688 -1331 1869 -1331 
Q 1566 -1331 1297 -1286 
Q 1028 -1241 775 -1147 
L 775 -588 
Q 1028 -725 1275 -790 
Q 1522 -856 1778 -856 
Q 2344 -856 2625 -561 
Q 2906 -266 2906 331 
L 2906 616 
Q 2728 306 2450 153 
Q 2172 0 1784 0 
Q 1141 0 747 490 
Q 353 981 353 1791 
Q 353 2603 747 3093 
Q 1141 3584 1784 3584 
Q 2172 3584 2450 3431 
Q 2728 3278 2906 2969 
L 2906 3500 
L 3481 3500 
L 3481 434 
z
" transform="scale(0.015625)"/>
       <path id="DejaVuSans-63" d="M 3122 3366 
L 3122 2828 
Q 2878 2963 2633 3030 
Q 2388 3097 2138 3097 
Q 1578 3097 1268 2742 
Q 959 2388 959 1747 
Q 959 1106 1268 751 
Q 1578 397 2138 397 
Q 2388 397 2633 464 
Q 2878 531 3122 666 
L 3122 134 
Q 2881 22 2623 -34 
Q 2366 -91 2075 -91 
Q 1284 -91 818 406 
Q 353 903 353 1747 
Q 353 2603 823 3093 
Q 1294 3584 2113 3584 
Q 2378 3584 2631 3529 
Q 2884 3475 3122 3366 
z
" transform="scale(0.015625)"/>
       <path id="DejaVuSans-68" d="M 3513 2113 
L 3513 0 
L 2938 0 
L 2938 2094 
Q 2938 2591 2744 2837 
Q 2550 3084 2163 3084 
Q 1697 3084 1428 2787 
Q 1159 2491 1159 1978 
L 1159 0 
L 581 0 
L 581 4863 
L 1159 4863 
L 1159 2956 
Q 1366 3272 1645 3428 
Q 1925 3584 2291 3584 
Q 2894 3584 3203 3211 
Q 3513 2838 3513 2113 
z
" transform="scale(0.015625)"/>
       <path id="DejaVuSans-64" d="M 2906 2969 
L 2906 4863 
L 3481 4863 
L 3481 0 
L 2906 0 
L 2906 525 
Q 2725 213 2448 61 
Q 2172 -91 1784 -91 
Q 1150 -91 751 415 
Q 353 922 353 1747 
Q 353 2572 751 3078 
Q 1150 3584 1784 3584 
Q 2172 3584 2448 3432 
Q 2725 3281 2906 2969 
z
M 947 1747 
Q 947 1113 1208 752 
Q 1469 391 1925 391 
Q 2381 391 2643 752 
Q 2906 1113 2906 1747 
Q 2906 2381 2643 2742 
Q 2381 3103 1925 3103 
Q 1469 3103 1208 2742 
Q 947 2381 947 1747 
z
" transform="scale(0.015625)"/>
      </defs>
      <use xlink:href="#DejaVuSans-42"/>
      <use xlink:href="#DejaVuSans-69" x="68.603516"/>
      <use xlink:href="#DejaVuSans-6f" x="96.386719"/>
      <use xlink:href="#DejaVuSans-6c" x="157.568359"/>
      <use xlink:href="#DejaVuSans-6f" x="185.351562"/>
      <use xlink:href="#DejaVuSans-67" x="246.533203"/>
      <use xlink:href="#DejaVuSans-69" x="310.009766"/>
      <use xlink:href="#DejaVuSans-63" x="337.792969"/>
      <use xlink:href="#DejaVuSans-61" x="392.773438"/>
      <use xlink:href="#DejaVuSans-6c" x="454.052734"/>
      <use xlink:href="#DejaVuSans-20" x="481.835938"/>
      <use xlink:href="#DejaVuSans-72" x="513.623047"/>
      <use xlink:href="#DejaVuSans-6f" x="552.486328"/>
      <use xlink:href="#DejaVuSans-6c" x="613.667969"/>
      <use xlink:href="#DejaVuSans-65" x="641.451172"/>
      <use xlink:href="#DejaVuSans-20" x="702.974609"/>
      <use xlink:href="#DejaVuSans-70" x="734.761719"/>
      <use xlink:href="#DejaVuSans-75" x="798.238281"/>
      <use xlink:href="#DejaVuSans-62" x="861.617188"/>
      <use xlink:href="#DejaVuSans-6c" x="925.09375"/>
      <use xlink:href="#DejaVuSans-69" x="952.876953"/>
      <use xlink:href="#DejaVuSans-73" x="980.660156"/>
      <use xlink:href="#DejaVuSans-68" x="1032.759766"/>
      <use xlink:href="#DejaVuSans-65" x="1096.138672"/>
      <use xlink:href="#DejaVuSans-64" x="1157.662109"/>
     </g>
    </g>
    <g id="patch_7">
     <path d="M 100.395781 62.536378 
L 120.395781 62.536378 
L 120.395781 55.536378 
L 100.395781 55.536378 
z
" style="fill: #fdc92c"/>
    </g>
    <g id="text_16">
     <!-- Biological role inferred -->
     <g transform="translate(128.395781 62.536378) scale(0.1 -0.1)">
      <use xlink:href="#DejaVuSans-42"/>
      <use xlink:href="#DejaVuSans-69" x="68.603516"/>
      <use xlink:href="#DejaVuSans-6f" x="96.386719"/>
      <use xlink:href="#DejaVuSans-6c" x="157.568359"/>
      <use xlink:href="#DejaVuSans-6f" x="185.351562"/>
      <use xlink:href="#DejaVuSans-67" x="246.533203"/>
      <use xlink:href="#DejaVuSans-69" x="310.009766"/>
      <use xlink:href="#DejaVuSans-63" x="337.792969"/>
      <use xlink:href="#DejaVuSans-61" x="392.773438"/>
      <use xlink:href="#DejaVuSans-6c" x="454.052734"/>
      <use xlink:href="#DejaVuSans-20" x="481.835938"/>
      <use xlink:href="#DejaVuSans-72" x="513.623047"/>
      <use xlink:href="#DejaVuSans-6f" x="552.486328"/>
      <use xlink:href="#DejaVuSans-6c" x="613.667969"/>
      <use xlink:href="#DejaVuSans-65" x="641.451172"/>
      <use xlink:href="#DejaVuSans-20" x="702.974609"/>
      <use xlink:href="#DejaVuSans-69" x="734.761719"/>
      <use xlink:href="#DejaVuSans-6e" x="762.544922"/>
      <use xlink:href="#DejaVuSans-66" x="825.923828"/>
      <use xlink:href="#DejaVuSans-65" x="861.128906"/>
      <use xlink:href="#DejaVuSans-72" x="922.652344"/>
      <use xlink:href="#DejaVuSans-72" x="962.015625"/>
      <use xlink:href="#DejaVuSans-65" x="1000.878906"/>
      <use xlink:href="#DejaVuSans-64" x="1062.402344"/>
     </g>
    </g>
    <g id="patch_8">
     <path d="M 270.512969 47.858253 
L 290.512969 47.858253 
L 290.512969 40.858253 
L 270.512969 40.858253 
z
" style="fill: #aeaeae"/>
    </g>
    <g id="text_17">
     <!-- Conserved unknown -->
     <g transform="translate(298.512969 47.858253) scale(0.1 -0.1)">
      <defs>
       <path id="DejaVuSans-43" d="M 4122 4306 
L 4122 3641 
Q 3803 3938 3442 4084 
Q 3081 4231 2675 4231 
Q 1875 4231 1450 3742 
Q 1025 3253 1025 2328 
Q 1025 1406 1450 917 
Q 1875 428 2675 428 
Q 3081 428 3442 575 
Q 3803 722 4122 1019 
L 4122 359 
Q 3791 134 3420 21 
Q 3050 -91 2638 -91 
Q 1578 -91 968 557 
Q 359 1206 359 2328 
Q 359 3453 968 4101 
Q 1578 4750 2638 4750 
Q 3056 4750 3426 4639 
Q 3797 4528 4122 4306 
z
" transform="scale(0.015625)"/>
       <path id="DejaVuSans-76" d="M 191 3500 
L 800 3500 
L 1894 563 
L 2988 3500 
L 3597 3500 
L 2284 0 
L 1503 0 
L 191 3500 
z
" transform="scale(0.015625)"/>
       <path id="DejaVuSans-6b" d="M 581 4863 
L 1159 4863 
L 1159 1991 
L 2875 3500 
L 3609 3500 
L 1753 1863 
L 3688 0 
L 2938 0 
L 1159 1709 
L 1159 0 
L 581 0 
L 581 4863 
z
" transform="scale(0.015625)"/>
       <path id="DejaVuSans-77" d="M 269 3500 
L 844 3500 
L 1563 769 
L 2278 3500 
L 2956 3500 
L 3675 769 
L 4391 3500 
L 4966 3500 
L 4050 0 
L 3372 0 
L 2619 2869 
L 1863 0 
L 1184 0 
L 269 3500 
z
" transform="scale(0.015625)"/>
      </defs>
      <use xlink:href="#DejaVuSans-43"/>
      <use xlink:href="#DejaVuSans-6f" x="69.824219"/>
      <use xlink:href="#DejaVuSans-6e" x="131.005859"/>
      <use xlink:href="#DejaVuSans-73" x="194.384766"/>
      <use xlink:href="#DejaVuSans-65" x="246.484375"/>
      <use xlink:href="#DejaVuSans-72" x="308.007812"/>
      <use xlink:href="#DejaVuSans-76" x="349.121094"/>
      <use xlink:href="#DejaVuSans-65" x="408.300781"/>
      <use xlink:href="#DejaVuSans-64" x="469.824219"/>
      <use xlink:href="#DejaVuSans-20" x="533.300781"/>
      <use xlink:href="#DejaVuSans-75" x="565.087891"/>
      <use xlink:href="#DejaVuSans-6e" x="628.466797"/>
      <use xlink:href="#DejaVuSans-6b" x="691.845703"/>
      <use xlink:href="#DejaVuSans-6e" x="749.755859"/>
      <use xlink:href="#DejaVuSans-6f" x="813.134766"/>
      <use xlink:href="#DejaVuSans-77" x="874.316406"/>
      <use xlink:href="#DejaVuSans-6e" x="956.103516"/>
     </g>
    </g>
    <g id="patch_9">
     <path d="M 270.512969 62.536378 
L 290.512969 62.536378 
L 290.512969 55.536378 
L 270.512969 55.536378 
z
" style="fill: #d5dce5"/>
    </g>
    <g id="text_18">
     <!-- Fission yeast unknown -->
     <g transform="translate(298.512969 62.536378) scale(0.1 -0.1)">
      <defs>
       <path id="DejaVuSans-46" d="M 628 4666 
L 3309 4666 
L 3309 4134 
L 1259 4134 
L 1259 2759 
L 3109 2759 
L 3109 2228 
L 1259 2228 
L 1259 0 
L 628 0 
L 628 4666 
z
" transform="scale(0.015625)"/>
       <path id="DejaVuSans-79" d="M 2059 -325 
Q 1816 -950 1584 -1140 
Q 1353 -1331 966 -1331 
L 506 -1331 
L 506 -850 
L 844 -850 
Q 1081 -850 1212 -737 
Q 1344 -625 1503 -206 
L 1606 56 
L 191 3500 
L 800 3500 
L 1894 763 
L 2988 3500 
L 3597 3500 
L 2059 -325 
z
" transform="scale(0.015625)"/>
      </defs>
      <use xlink:href="#DejaVuSans-46"/>
      <use xlink:href="#DejaVuSans-69" x="50.269531"/>
      <use xlink:href="#DejaVuSans-73" x="78.052734"/>
      <use xlink:href="#DejaVuSans-73" x="130.152344"/>
      <use xlink:href="#DejaVuSans-69" x="182.251953"/>
      <use xlink:href="#DejaVuSans-6f" x="210.035156"/>
      <use xlink:href="#DejaVuSans-6e" x="271.216797"/>
      <use xlink:href="#DejaVuSans-20" x="334.595703"/>
      <use xlink:href="#DejaVuSans-79" x="366.382812"/>
      <use xlink:href="#DejaVuSans-65" x="425.5625"/>
      <use xlink:href="#DejaVuSans-61" x="487.085938"/>
      <use xlink:href="#DejaVuSans-73" x="548.365234"/>
      <use xlink:href="#DejaVuSans-74" x="600.464844"/>
      <use xlink:href="#DejaVuSans-20" x="639.673828"/>
      <use xlink:href="#DejaVuSans-75" x="671.460938"/>
      <use xlink:href="#DejaVuSans-6e" x="734.839844"/>
      <use xlink:href="#DejaVuSans-6b" x="798.21875"/>
      <use xlink:href="#DejaVuSans-6e" x="856.128906"/>
      <use xlink:href="#DejaVuSans-6f" x="919.507812"/>
      <use xlink:href="#DejaVuSans-77" x="980.689453"/>
      <use xlink:href="#DejaVuSans-6e" x="1062.476562"/>
     </g>
    </g>
   </g>
  </g>
 </g>
 <defs>
  <clipPath id="pb5122239b3">
   <rect x="61.49" y="73.616066" width="388.51" height="198.367868"/>
  </clipPath>
 </defs>
</svg>
