<?xml version="1.0" encoding="utf-8" standalone="no"?>
<!DOCTYPE svg PUBLIC "-//W3C//DTD SVG 1.1//EN"
  "http://www.w3.org/Graphics/SVG/1.1/DTD/svg11.dtd">
<svg xmlns:xlink="http://www.w3.org/1999/xlink" width="460.8pt" height="345.6pt" viewBox="0 0 460.8 345.6" xmlns="http://www.w3.org/2000/svg" version="1.1">
 <metadata>
  <rdf:RDF xmlns:dc="http://purl.org/dc/elements/1.1/" xmlns:cc="http://creativecommons.org/ns#" xmlns:rdf="http://www.w3.org/1999/02/22-rdf-syntax-ns#">
   <cc:Work>
    <dc:type rdf:resource="http://purl.org/dc/dcmitype/StillImage"/>
    <dc:date>2023-12-02T00:46:39.762535</dc:date>
    <dc:format>image/svg+xml</dc:format>
    <dc:creator>
     <cc:Agent>
      <dc:title>Matplotlib v3.7.1, https://matplotlib.org/</dc:title>
     </cc:Agent>
    </dc:creator>
   </cc:Work>
  </rdf:RDF>
 </metadata>
 <defs>
  <style type="text/css">*{stroke-linejoin: round; stroke-linecap: butt}</style>
 </defs>
 <g id="figure_1">
  <g id="patch_1">
   <path d="M 0 345.6 
L 460.8 345.6 
L 460.8 0 
L 0 0 
z
" style="fill: #ffffff"/>
  </g>
  <g id="axes_1">
   <g id="patch_2">
    <path d="M 61.49 284.607779 
L 450 284.607779 
L 450 63.672221 
L 61.49 63.672221 
z
" style="fill: #ffffff"/>
   </g>
   <g id="PolyCollection_1">
    <path d="M 30.104161 228.538663 
L 30.104161 284.607779 
L 38.871445 284.607779 
L 47.534974 284.607779 
L 65.328929 284.607779 
L 85.976142 284.607779 
L 101.176226 284.607779 
L 110.617917 284.607779 
L 113.056156 284.607779 
L 117.569491 284.607779 
L 119.644588 284.607779 
L 119.903975 284.607779 
L 123.327885 284.607779 
L 124.209801 284.607779 
L 124.936085 284.607779 
L 125.818001 284.607779 
L 126.388653 284.607779 
L 127.270569 284.607779 
L 127.789343 284.607779 
L 128.723137 284.607779 
L 129.968195 284.607779 
L 130.953866 284.607779 
L 131.317008 284.607779 
L 132.354556 284.607779 
L 133.08084 284.607779 
L 133.859001 284.607779 
L 134.68904 284.607779 
L 135.259692 284.607779 
L 135.778466 284.607779 
L 137.231034 284.607779 
L 138.268582 284.607779 
L 139.046743 284.607779 
L 139.254253 284.607779 
L 139.980537 284.607779 
L 141.069963 284.607779 
L 142.211266 284.607779 
L 142.989427 284.607779 
L 144.13073 284.607779 
L 145.635176 284.607779 
L 147.710272 284.607779 
L 149.525982 284.607779 
L 151.082305 284.607779 
L 153.98744 284.607779 
L 155.232498 284.607779 
L 158.604531 284.607779 
L 160.783382 284.607779 
L 162.132195 284.607779 
L 162.962234 284.607779 
L 166.230511 284.607779 
L 168.046221 284.607779 
L 169.913808 284.607779 
L 173.597105 284.607779 
L 177.021015 284.607779 
L 177.591666 284.607779 
L 178.266073 284.607779 
L 179.303621 284.607779 
L 180.13366 284.607779 
L 182.675654 284.607779 
L 187.759641 284.607779 
L 188.745312 284.607779 
L 193.518034 284.607779 
L 194.60746 284.607779 
L 195.696886 284.607779 
L 197.460718 284.607779 
L 198.913286 284.607779 
L 200.313976 284.607779 
L 201.195893 284.607779 
L 204.049151 284.607779 
L 207.006164 284.607779 
L 208.458731 284.607779 
L 209.49628 284.607779 
L 210.793215 284.607779 
L 211.882641 284.607779 
L 213.179577 284.607779 
L 216.240345 284.607779 
L 217.848545 284.607779 
L 219.404867 284.607779 
L 221.013067 284.607779 
L 222.56939 284.607779 
L 224.17759 284.607779 
L 225.78579 284.607779 
L 227.290235 284.607779 
L 228.898435 284.607779 
L 230.454758 284.607779 
L 232.062958 284.607779 
L 233.61928 284.607779 
L 235.22748 284.607779 
L 236.83568 284.607779 
L 238.392003 284.607779 
L 240.000203 284.607779 
L 241.556526 284.607779 
L 243.164726 284.607779 
L 244.772926 284.607779 
L 246.225493 284.607779 
L 247.833693 284.607779 
L 249.390016 284.607779 
L 250.998216 284.607779 
L 252.554539 284.607779 
L 254.162739 284.607779 
L 255.770939 284.607779 
L 257.327261 284.607779 
L 258.935461 284.607779 
L 260.491784 284.607779 
L 262.099984 284.607779 
L 263.708184 284.607779 
L 265.160752 284.607779 
L 266.768952 284.607779 
L 268.325274 284.607779 
L 269.933474 284.607779 
L 271.489797 284.607779 
L 273.097997 284.607779 
L 274.706197 284.607779 
L 276.26252 284.607779 
L 277.87072 284.607779 
L 279.427042 284.607779 
L 281.035242 284.607779 
L 282.643442 284.607779 
L 284.09601 284.607779 
L 285.70421 284.607779 
L 287.260533 284.607779 
L 288.868733 284.607779 
L 290.425055 284.607779 
L 292.033255 284.607779 
L 293.641455 284.607779 
L 295.197778 284.607779 
L 296.805978 284.607779 
L 298.362301 284.607779 
L 299.970501 284.607779 
L 301.578701 284.607779 
L 303.083146 284.607779 
L 304.691346 284.607779 
L 306.247669 284.607779 
L 307.855869 284.607779 
L 309.412191 284.607779 
L 311.020391 284.607779 
L 312.628591 284.607779 
L 314.184914 284.607779 
L 315.793114 284.607779 
L 317.349437 284.607779 
L 318.957637 284.607779 
L 320.565837 284.607779 
L 322.018404 284.607779 
L 323.626604 284.607779 
L 325.182927 284.607779 
L 326.791127 284.607779 
L 328.34745 284.607779 
L 329.95565 284.607779 
L 331.56385 284.607779 
L 333.120172 284.607779 
L 334.728372 284.607779 
L 336.284695 284.607779 
L 337.892895 284.607779 
L 339.501095 284.607779 
L 340.953663 284.607779 
L 342.561863 284.607779 
L 344.118185 284.607779 
L 345.726385 284.607779 
L 347.282708 284.607779 
L 348.890908 284.607779 
L 350.499108 284.607779 
L 352.055431 284.607779 
L 353.663631 284.607779 
L 355.219953 284.607779 
L 356.828153 284.607779 
L 358.436353 284.607779 
L 359.888921 284.607779 
L 361.497121 284.607779 
L 363.053444 284.607779 
L 364.661644 284.607779 
L 366.217966 284.607779 
L 367.826166 284.607779 
L 369.434366 284.607779 
L 370.990689 284.607779 
L 372.598889 284.607779 
L 374.155212 284.607779 
L 375.763412 284.607779 
L 377.371612 284.607779 
L 378.876057 284.607779 
L 380.484257 284.607779 
L 382.04058 284.607779 
L 383.64878 284.607779 
L 385.205102 284.607779 
L 386.813302 284.607779 
L 388.421502 284.607779 
L 389.977825 284.607779 
L 391.586025 284.607779 
L 393.142347 284.607779 
L 394.750547 284.607779 
L 396.358747 284.607779 
L 397.811315 284.607779 
L 399.419515 284.607779 
L 400.975838 284.607779 
L 402.584038 284.607779 
L 404.140361 284.607779 
L 405.748561 284.607779 
L 407.356761 284.607779 
L 408.913083 284.607779 
L 410.521283 284.607779 
L 412.077606 284.607779 
L 413.685806 284.607779 
L 415.294006 284.607779 
L 416.746574 284.607779 
L 418.354774 284.607779 
L 419.911096 284.607779 
L 421.519296 284.607779 
L 423.075619 284.607779 
L 424.683819 284.607779 
L 426.292019 284.607779 
L 427.848342 284.607779 
L 429.456542 284.607779 
L 431.012864 284.607779 
L 432.621064 284.607779 
L 434.229264 284.607779 
L 435.681832 284.607779 
L 437.290032 284.607779 
L 438.846355 284.607779 
L 440.454555 284.607779 
L 442.010877 284.607779 
L 443.619077 284.607779 
L 445.227277 284.607779 
L 446.7836 284.607779 
L 448.3918 284.607779 
L 449.948123 284.607779 
L 449.948123 179.441872 
L 449.948123 179.441872 
L 448.3918 179.690884 
L 446.7836 179.81539 
L 445.227277 179.856892 
L 443.619077 179.981398 
L 442.010877 180.479421 
L 440.454555 180.728432 
L 438.846355 180.852938 
L 437.290032 180.852938 
L 435.681832 181.226456 
L 434.229264 181.848985 
L 432.621064 181.807483 
L 431.012864 181.931989 
L 429.456542 182.056494 
L 427.848342 182.305506 
L 426.292019 182.305506 
L 424.683819 182.347008 
L 423.075619 182.347008 
L 421.519296 182.305506 
L 419.911096 182.38851 
L 418.354774 182.305506 
L 416.746574 182.264004 
L 415.294006 182.305506 
L 413.685806 182.305506 
L 412.077606 182.513016 
L 410.521283 182.720525 
L 408.913083 183.052541 
L 407.356761 183.301552 
L 405.748561 183.26005 
L 404.140361 183.46756 
L 402.584038 183.758074 
L 400.975838 183.758074 
L 399.419515 183.924081 
L 397.811315 184.463607 
L 396.358747 184.588112 
L 394.750547 185.044634 
L 393.142347 185.086136 
L 391.586025 185.252143 
L 389.977825 185.335147 
L 388.421502 185.501155 
L 386.813302 185.542657 
L 385.205102 185.625661 
L 383.64878 185.625661 
L 382.04058 185.708665 
L 380.484257 186.082182 
L 378.876057 186.206688 
L 377.371612 186.289692 
L 375.763412 186.372696 
L 374.155212 186.372696 
L 372.598889 186.372696 
L 370.990689 186.497201 
L 369.434366 186.580205 
L 367.826166 186.746213 
L 366.217966 186.995225 
L 364.661644 187.119731 
L 363.053444 187.202734 
L 361.497121 187.285738 
L 359.888921 187.32724 
L 358.436353 187.32724 
L 356.828153 187.368742 
L 355.219953 187.410244 
L 353.663631 187.493248 
L 352.055431 187.53475 
L 350.499108 187.53475 
L 348.890908 187.659256 
L 347.282708 187.783762 
L 345.726385 188.032773 
L 344.118185 188.198781 
L 342.561863 188.530796 
L 340.953663 188.696804 
L 339.501095 188.862812 
L 337.892895 188.904314 
L 336.284695 189.070322 
L 334.728372 189.236329 
L 333.120172 191.062414 
L 331.56385 191.352928 
L 329.95565 192.141465 
L 328.34745 191.477434 
L 326.791127 191.39443 
L 325.182927 191.435932 
L 323.626604 191.518936 
L 322.018404 191.809449 
L 320.565837 191.850951 
L 318.957637 191.933955 
L 317.349437 192.722492 
L 315.793114 192.846998 
L 314.184914 193.054507 
L 312.628591 193.137511 
L 311.020391 193.262017 
L 309.412191 193.718538 
L 307.855869 193.926048 
L 306.247669 193.926048 
L 304.691346 194.341067 
L 303.083146 194.424071 
L 301.578701 194.465573 
L 299.970501 194.673083 
L 298.362301 194.756087 
L 296.805978 194.756087 
L 295.197778 194.963596 
L 293.641455 195.005098 
L 292.033255 195.0466 
L 290.425055 195.212608 
L 288.868733 195.337114 
L 287.260533 194.714585 
L 285.70421 194.797589 
L 284.09601 195.005098 
L 282.643442 195.005098 
L 281.035242 195.25411 
L 279.427042 195.420118 
L 277.87072 195.710631 
L 276.26252 196.084149 
L 274.706197 196.416164 
L 273.097997 196.499168 
L 271.489797 196.789682 
L 269.933474 197.038693 
L 268.325274 197.412211 
L 266.768952 197.578218 
L 265.160752 197.785728 
L 263.708184 197.82723 
L 262.099984 197.82723 
L 260.491784 198.03474 
L 258.935461 198.532763 
L 257.327261 198.574265 
L 255.770939 198.823277 
L 254.162739 199.528809 
L 252.554539 199.611813 
L 250.998216 200.109837 
L 249.390016 200.441852 
L 247.833693 201.562404 
L 246.225493 201.645408 
L 244.772926 201.769914 
L 243.164726 202.060428 
L 241.556526 202.143431 
L 240.000203 202.392443 
L 238.392003 202.599953 
L 236.83568 202.97347 
L 235.22748 203.18098 
L 233.61928 203.305486 
L 232.062958 203.554497 
L 230.454758 203.595999 
L 228.898435 203.720505 
L 227.290235 203.886513 
L 225.78579 203.886513 
L 224.17759 203.969517 
L 222.56939 204.011019 
L 221.013067 204.05252 
L 219.404867 204.094022 
L 217.848545 204.135524 
L 216.240345 204.26003 
L 213.179577 205.048567 
L 211.882641 205.256077 
L 210.793215 205.297579 
L 209.49628 205.173073 
L 208.458731 205.173073 
L 207.006164 205.297579 
L 204.049151 205.422084 
L 201.195893 206.086115 
L 200.313976 207.082162 
L 198.913286 206.916154 
L 197.460718 206.874652 
L 195.696886 207.621687 
L 194.60746 207.621687 
L 193.518034 207.372675 
L 188.745312 207.912201 
L 187.759641 207.995204 
L 182.675654 208.700737 
L 180.13366 208.783741 
L 179.303621 208.617733 
L 178.266073 208.742239 
L 177.591666 208.949749 
L 177.021015 208.991251 
L 173.597105 209.115757 
L 169.913808 209.198761 
L 168.046221 209.40627 
L 166.230511 211.605873 
L 162.962234 211.522869 
L 162.132195 211.564371 
L 160.783382 212.020892 
L 158.604531 213.182946 
L 155.232498 213.431958 
L 153.98744 213.846977 
L 151.082305 214.137491 
L 149.525982 215.009032 
L 147.710272 215.590059 
L 145.635176 216.04658 
L 144.13073 216.088082 
L 142.989427 216.171086 
L 142.211266 216.212588 
L 141.069963 216.25409 
L 139.980537 217.001125 
L 139.254253 217.374642 
L 139.046743 217.374642 
L 138.268582 217.374642 
L 137.231034 217.623654 
L 135.778466 217.374642 
L 135.259692 217.582152 
L 134.68904 217.665156 
L 133.859001 217.789661 
L 133.08084 217.789661 
L 132.354556 218.121677 
L 131.317008 218.868712 
L 130.953866 218.82721 
L 129.968195 219.200727 
L 128.723137 219.283731 
L 127.789343 219.366735 
L 127.270569 219.449739 
L 126.388653 219.574245 
L 125.818001 219.823256 
L 124.936085 220.030766 
L 124.209801 219.947762 
L 123.327885 220.030766 
L 119.903975 220.321279 
L 119.644588 220.279778 
L 117.569491 220.611793 
L 113.056156 218.6197 
L 110.617917 221.566338 
L 101.176226 225.426018 
L 85.976142 229.036686 
L 65.328929 233.684903 
L 47.534974 228.331153 
L 38.871445 227.667122 
L 30.104161 228.538663 
z
" clip-path="url(#p443331121a)" style="fill: #fb363b"/>
   </g>
   <g id="PolyCollection_2">
    <path d="M 30.104161 143.210682 
L 30.104161 228.538663 
L 38.871445 227.667122 
L 47.534974 228.331153 
L 65.328929 233.684903 
L 85.976142 229.036686 
L 101.176226 225.426018 
L 110.617917 221.566338 
L 113.056156 218.6197 
L 117.569491 220.611793 
L 119.644588 220.279778 
L 119.903975 220.321279 
L 123.327885 220.030766 
L 124.209801 219.947762 
L 124.936085 220.030766 
L 125.818001 219.823256 
L 126.388653 219.574245 
L 127.270569 219.449739 
L 127.789343 219.366735 
L 128.723137 219.283731 
L 129.968195 219.200727 
L 130.953866 218.82721 
L 131.317008 218.868712 
L 132.354556 218.121677 
L 133.08084 217.789661 
L 133.859001 217.789661 
L 134.68904 217.665156 
L 135.259692 217.582152 
L 135.778466 217.374642 
L 137.231034 217.623654 
L 138.268582 217.374642 
L 139.046743 217.374642 
L 139.254253 217.374642 
L 139.980537 217.001125 
L 141.069963 216.25409 
L 142.211266 216.212588 
L 142.989427 216.171086 
L 144.13073 216.088082 
L 145.635176 216.04658 
L 147.710272 215.590059 
L 149.525982 215.009032 
L 151.082305 214.137491 
L 153.98744 213.846977 
L 155.232498 213.431958 
L 158.604531 213.182946 
L 160.783382 212.020892 
L 162.132195 211.564371 
L 162.962234 211.522869 
L 166.230511 211.605873 
L 168.046221 209.40627 
L 169.913808 209.198761 
L 173.597105 209.115757 
L 177.021015 208.991251 
L 177.591666 208.949749 
L 178.266073 208.742239 
L 179.303621 208.617733 
L 180.13366 208.783741 
L 182.675654 208.700737 
L 187.759641 207.995204 
L 188.745312 207.912201 
L 193.518034 207.372675 
L 194.60746 207.621687 
L 195.696886 207.621687 
L 197.460718 206.874652 
L 198.913286 206.916154 
L 200.313976 207.082162 
L 201.195893 206.086115 
L 204.049151 205.422084 
L 207.006164 205.297579 
L 208.458731 205.173073 
L 209.49628 205.173073 
L 210.793215 205.297579 
L 211.882641 205.256077 
L 213.179577 205.048567 
L 216.240345 204.26003 
L 217.848545 204.135524 
L 219.404867 204.094022 
L 221.013067 204.05252 
L 222.56939 204.011019 
L 224.17759 203.969517 
L 225.78579 203.886513 
L 227.290235 203.886513 
L 228.898435 203.720505 
L 230.454758 203.595999 
L 232.062958 203.554497 
L 233.61928 203.305486 
L 235.22748 203.18098 
L 236.83568 202.97347 
L 238.392003 202.599953 
L 240.000203 202.392443 
L 241.556526 202.143431 
L 243.164726 202.060428 
L 244.772926 201.769914 
L 246.225493 201.645408 
L 247.833693 201.562404 
L 249.390016 200.441852 
L 250.998216 200.109837 
L 252.554539 199.611813 
L 254.162739 199.528809 
L 255.770939 198.823277 
L 257.327261 198.574265 
L 258.935461 198.532763 
L 260.491784 198.03474 
L 262.099984 197.82723 
L 263.708184 197.82723 
L 265.160752 197.785728 
L 266.768952 197.578218 
L 268.325274 197.412211 
L 269.933474 197.038693 
L 271.489797 196.789682 
L 273.097997 196.499168 
L 274.706197 196.416164 
L 276.26252 196.084149 
L 277.87072 195.710631 
L 279.427042 195.420118 
L 281.035242 195.25411 
L 282.643442 195.005098 
L 284.09601 195.005098 
L 285.70421 194.797589 
L 287.260533 194.714585 
L 288.868733 195.337114 
L 290.425055 195.212608 
L 292.033255 195.0466 
L 293.641455 195.005098 
L 295.197778 194.963596 
L 296.805978 194.756087 
L 298.362301 194.756087 
L 299.970501 194.673083 
L 301.578701 194.465573 
L 303.083146 194.424071 
L 304.691346 194.341067 
L 306.247669 193.926048 
L 307.855869 193.926048 
L 309.412191 193.718538 
L 311.020391 193.262017 
L 312.628591 193.137511 
L 314.184914 193.054507 
L 315.793114 192.846998 
L 317.349437 192.722492 
L 318.957637 191.933955 
L 320.565837 191.850951 
L 322.018404 191.809449 
L 323.626604 191.518936 
L 325.182927 191.435932 
L 326.791127 191.39443 
L 328.34745 191.477434 
L 329.95565 192.141465 
L 331.56385 191.352928 
L 333.120172 191.062414 
L 334.728372 189.236329 
L 336.284695 189.070322 
L 337.892895 188.904314 
L 339.501095 188.862812 
L 340.953663 188.696804 
L 342.561863 188.530796 
L 344.118185 188.198781 
L 345.726385 188.032773 
L 347.282708 187.783762 
L 348.890908 187.659256 
L 350.499108 187.53475 
L 352.055431 187.53475 
L 353.663631 187.493248 
L 355.219953 187.410244 
L 356.828153 187.368742 
L 358.436353 187.32724 
L 359.888921 187.32724 
L 361.497121 187.285738 
L 363.053444 187.202734 
L 364.661644 187.119731 
L 366.217966 186.995225 
L 367.826166 186.746213 
L 369.434366 186.580205 
L 370.990689 186.497201 
L 372.598889 186.372696 
L 374.155212 186.372696 
L 375.763412 186.372696 
L 377.371612 186.289692 
L 378.876057 186.206688 
L 380.484257 186.082182 
L 382.04058 185.708665 
L 383.64878 185.625661 
L 385.205102 185.625661 
L 386.813302 185.542657 
L 388.421502 185.501155 
L 389.977825 185.335147 
L 391.586025 185.252143 
L 393.142347 185.086136 
L 394.750547 185.044634 
L 396.358747 184.588112 
L 397.811315 184.463607 
L 399.419515 183.924081 
L 400.975838 183.758074 
L 402.584038 183.758074 
L 404.140361 183.46756 
L 405.748561 183.26005 
L 407.356761 183.301552 
L 408.913083 183.052541 
L 410.521283 182.720525 
L 412.077606 182.513016 
L 413.685806 182.305506 
L 415.294006 182.305506 
L 416.746574 182.264004 
L 418.354774 182.305506 
L 419.911096 182.38851 
L 421.519296 182.305506 
L 423.075619 182.347008 
L 424.683819 182.347008 
L 426.292019 182.305506 
L 427.848342 182.305506 
L 429.456542 182.056494 
L 431.012864 181.931989 
L 432.621064 181.807483 
L 434.229264 181.848985 
L 435.681832 181.226456 
L 437.290032 180.852938 
L 438.846355 180.852938 
L 440.454555 180.728432 
L 442.010877 180.479421 
L 443.619077 179.981398 
L 445.227277 179.856892 
L 446.7836 179.81539 
L 448.3918 179.690884 
L 449.948123 179.441872 
L 449.948123 100.29768 
L 449.948123 100.29768 
L 448.3918 100.422186 
L 446.7836 100.588194 
L 445.227277 100.671197 
L 443.619077 100.671197 
L 442.010877 100.961711 
L 440.454555 101.210723 
L 438.846355 101.335228 
L 437.290032 101.335228 
L 435.681832 101.37673 
L 434.229264 101.542738 
L 432.621064 101.667244 
L 431.012864 101.750248 
L 429.456542 101.750248 
L 427.848342 101.79175 
L 426.292019 101.667244 
L 424.683819 101.708746 
L 423.075619 101.708746 
L 421.519296 101.916256 
L 419.911096 101.874754 
L 418.354774 101.874754 
L 416.746574 101.916256 
L 415.294006 101.999259 
L 413.685806 101.999259 
L 412.077606 102.123765 
L 410.521283 102.082263 
L 408.913083 102.206769 
L 407.356761 102.248271 
L 405.748561 102.289773 
L 404.140361 102.331275 
L 402.584038 102.372777 
L 400.975838 102.331275 
L 399.419515 102.455781 
L 397.811315 102.66329 
L 396.358747 102.829298 
L 394.750547 102.8708 
L 393.142347 102.8708 
L 391.586025 102.953804 
L 389.977825 102.995306 
L 388.421502 103.07831 
L 386.813302 103.07831 
L 385.205102 103.119812 
L 383.64878 103.161314 
L 382.04058 103.036808 
L 380.484257 102.995306 
L 378.876057 103.036808 
L 377.371612 102.953804 
L 375.763412 102.953804 
L 374.155212 102.953804 
L 372.598889 102.953804 
L 370.990689 102.953804 
L 369.434366 102.995306 
L 367.826166 102.953804 
L 366.217966 102.995306 
L 364.661644 102.995306 
L 363.053444 102.8708 
L 361.497121 102.8708 
L 359.888921 102.912302 
L 358.436353 102.912302 
L 356.828153 102.995306 
L 355.219953 102.995306 
L 353.663631 103.07831 
L 352.055431 103.07831 
L 350.499108 103.07831 
L 348.890908 103.119812 
L 347.282708 103.119812 
L 345.726385 103.119812 
L 344.118185 103.161314 
L 342.561863 103.202816 
L 340.953663 103.534831 
L 339.501095 103.659337 
L 337.892895 103.576333 
L 336.284695 103.659337 
L 334.728372 103.783843 
L 333.120172 103.825345 
L 331.56385 104.406372 
L 329.95565 104.738387 
L 328.34745 107.020994 
L 326.791127 108.307554 
L 325.182927 108.764075 
L 323.626604 108.764075 
L 322.018404 109.096091 
L 320.565837 109.013087 
L 318.957637 108.183048 
L 317.349437 108.390558 
L 315.793114 108.847079 
L 314.184914 108.847079 
L 312.628591 108.722573 
L 311.020391 108.888581 
L 309.412191 108.930083 
L 307.855869 108.930083 
L 306.247669 108.971585 
L 304.691346 109.054589 
L 303.083146 109.054589 
L 301.578701 109.096091 
L 299.970501 109.096091 
L 298.362301 109.220596 
L 296.805978 109.262098 
L 295.197778 109.3036 
L 293.641455 109.3036 
L 292.033255 109.262098 
L 290.425055 109.3036 
L 288.868733 109.262098 
L 287.260533 109.926129 
L 285.70421 109.884627 
L 284.09601 109.967631 
L 282.643442 110.050635 
L 281.035242 110.175141 
L 279.427042 110.133639 
L 277.87072 110.424152 
L 276.26252 110.548658 
L 274.706197 110.714666 
L 273.097997 110.922176 
L 271.489797 110.963678 
L 269.933474 110.880674 
L 268.325274 110.963678 
L 266.768952 111.00518 
L 265.160752 111.00518 
L 263.708184 111.00518 
L 262.099984 111.00518 
L 260.491784 111.171187 
L 258.935461 111.254191 
L 257.327261 111.503203 
L 255.770939 111.544705 
L 254.162739 111.793716 
L 252.554539 111.87672 
L 250.998216 112.125732 
L 249.390016 112.250238 
L 247.833693 112.416245 
L 246.225493 112.457747 
L 244.772926 112.499249 
L 243.164726 112.665257 
L 241.556526 112.665257 
L 240.000203 112.872767 
L 238.392003 113.16328 
L 236.83568 113.329288 
L 235.22748 113.495296 
L 233.61928 113.702805 
L 232.062958 113.785809 
L 230.454758 114.117825 
L 228.898435 114.117825 
L 227.290235 114.159327 
L 225.78579 114.159327 
L 224.17759 114.159327 
L 222.56939 114.159327 
L 221.013067 114.159327 
L 219.404867 114.200829 
L 217.848545 114.366836 
L 216.240345 114.44984 
L 213.179577 114.947864 
L 211.882641 115.570393 
L 210.793215 115.860906 
L 209.49628 115.279879 
L 208.458731 115.611895 
L 207.006164 115.7364 
L 204.049151 115.902408 
L 201.195893 115.902408 
L 200.313976 116.068416 
L 198.913286 116.607941 
L 197.460718 116.566439 
L 195.696886 117.520984 
L 194.60746 117.520984 
L 193.518034 117.977505 
L 188.745312 118.268018 
L 187.759641 118.351022 
L 182.675654 119.513077 
L 180.13366 120.550625 
L 179.303621 120.592127 
L 178.266073 120.592127 
L 177.591666 120.592127 
L 177.021015 120.633629 
L 173.597105 120.177107 
L 169.913808 120.716633 
L 168.046221 120.924142 
L 166.230511 121.131652 
L 162.962234 121.256158 
L 162.132195 121.339162 
L 160.783382 121.546671 
L 158.604531 121.878687 
L 155.232498 121.712679 
L 153.98744 122.044695 
L 151.082305 122.003193 
L 149.525982 121.920189 
L 147.710272 122.293706 
L 145.635176 122.210702 
L 144.13073 122.086197 
L 142.989427 122.37671 
L 142.211266 122.418212 
L 141.069963 121.629675 
L 139.980537 121.671177 
L 139.254253 121.837185 
L 139.046743 121.837185 
L 138.268582 121.795683 
L 137.231034 122.335208 
L 135.778466 121.754181 
L 135.259692 121.754181 
L 134.68904 121.795683 
L 133.859001 121.837185 
L 133.08084 121.629675 
L 132.354556 122.086197 
L 131.317008 122.210702 
L 130.953866 121.961691 
L 129.968195 122.127698 
L 128.723137 122.086197 
L 127.789343 122.625722 
L 127.270569 122.542718 
L 126.388653 122.542718 
L 125.818001 120.675131 
L 124.936085 121.09015 
L 124.209801 120.052602 
L 123.327885 119.80359 
L 119.903975 120.094104 
L 119.644588 119.928096 
L 117.569491 120.218609 
L 113.056156 122.086197 
L 110.617917 122.999239 
L 101.176226 125.198842 
L 85.976142 128.352989 
L 65.328929 132.378677 
L 47.534974 138.811477 
L 38.871445 142.878667 
L 30.104161 143.210682 
z
" clip-path="url(#p443331121a)" style="fill: #fdc92c"/>
   </g>
   <g id="PolyCollection_3">
    <path d="M 30.104161 110.507156 
L 30.104161 143.210682 
L 38.871445 142.878667 
L 47.534974 138.811477 
L 65.328929 132.378677 
L 85.976142 128.352989 
L 101.176226 125.198842 
L 110.617917 122.999239 
L 113.056156 122.086197 
L 117.569491 120.218609 
L 119.644588 119.928096 
L 119.903975 120.094104 
L 123.327885 119.80359 
L 124.209801 120.052602 
L 124.936085 121.09015 
L 125.818001 120.675131 
L 126.388653 122.542718 
L 127.270569 122.542718 
L 127.789343 122.625722 
L 128.723137 122.086197 
L 129.968195 122.127698 
L 130.953866 121.961691 
L 131.317008 122.210702 
L 132.354556 122.086197 
L 133.08084 121.629675 
L 133.859001 121.837185 
L 134.68904 121.795683 
L 135.259692 121.754181 
L 135.778466 121.754181 
L 137.231034 122.335208 
L 138.268582 121.795683 
L 139.046743 121.837185 
L 139.254253 121.837185 
L 139.980537 121.671177 
L 141.069963 121.629675 
L 142.211266 122.418212 
L 142.989427 122.37671 
L 144.13073 122.086197 
L 145.635176 122.210702 
L 147.710272 122.293706 
L 149.525982 121.920189 
L 151.082305 122.003193 
L 153.98744 122.044695 
L 155.232498 121.712679 
L 158.604531 121.878687 
L 160.783382 121.546671 
L 162.132195 121.339162 
L 162.962234 121.256158 
L 166.230511 121.131652 
L 168.046221 120.924142 
L 169.913808 120.716633 
L 173.597105 120.177107 
L 177.021015 120.633629 
L 177.591666 120.592127 
L 178.266073 120.592127 
L 179.303621 120.592127 
L 180.13366 120.550625 
L 182.675654 119.513077 
L 187.759641 118.351022 
L 188.745312 118.268018 
L 193.518034 117.977505 
L 194.60746 117.520984 
L 195.696886 117.520984 
L 197.460718 116.566439 
L 198.913286 116.607941 
L 200.313976 116.068416 
L 201.195893 115.902408 
L 204.049151 115.902408 
L 207.006164 115.7364 
L 208.458731 115.611895 
L 209.49628 115.279879 
L 210.793215 115.860906 
L 211.882641 115.570393 
L 213.179577 114.947864 
L 216.240345 114.44984 
L 217.848545 114.366836 
L 219.404867 114.200829 
L 221.013067 114.159327 
L 222.56939 114.159327 
L 224.17759 114.159327 
L 225.78579 114.159327 
L 227.290235 114.159327 
L 228.898435 114.117825 
L 230.454758 114.117825 
L 232.062958 113.785809 
L 233.61928 113.702805 
L 235.22748 113.495296 
L 236.83568 113.329288 
L 238.392003 113.16328 
L 240.000203 112.872767 
L 241.556526 112.665257 
L 243.164726 112.665257 
L 244.772926 112.499249 
L 246.225493 112.457747 
L 247.833693 112.416245 
L 249.390016 112.250238 
L 250.998216 112.125732 
L 252.554539 111.87672 
L 254.162739 111.793716 
L 255.770939 111.544705 
L 257.327261 111.503203 
L 258.935461 111.254191 
L 260.491784 111.171187 
L 262.099984 111.00518 
L 263.708184 111.00518 
L 265.160752 111.00518 
L 266.768952 111.00518 
L 268.325274 110.963678 
L 269.933474 110.880674 
L 271.489797 110.963678 
L 273.097997 110.922176 
L 274.706197 110.714666 
L 276.26252 110.548658 
L 277.87072 110.424152 
L 279.427042 110.133639 
L 281.035242 110.175141 
L 282.643442 110.050635 
L 284.09601 109.967631 
L 285.70421 109.884627 
L 287.260533 109.926129 
L 288.868733 109.262098 
L 290.425055 109.3036 
L 292.033255 109.262098 
L 293.641455 109.3036 
L 295.197778 109.3036 
L 296.805978 109.262098 
L 298.362301 109.220596 
L 299.970501 109.096091 
L 301.578701 109.096091 
L 303.083146 109.054589 
L 304.691346 109.054589 
L 306.247669 108.971585 
L 307.855869 108.930083 
L 309.412191 108.930083 
L 311.020391 108.888581 
L 312.628591 108.722573 
L 314.184914 108.847079 
L 315.793114 108.847079 
L 317.349437 108.390558 
L 318.957637 108.183048 
L 320.565837 109.013087 
L 322.018404 109.096091 
L 323.626604 108.764075 
L 325.182927 108.764075 
L 326.791127 108.307554 
L 328.34745 107.020994 
L 329.95565 104.738387 
L 331.56385 104.406372 
L 333.120172 103.825345 
L 334.728372 103.783843 
L 336.284695 103.659337 
L 337.892895 103.576333 
L 339.501095 103.659337 
L 340.953663 103.534831 
L 342.561863 103.202816 
L 344.118185 103.161314 
L 345.726385 103.119812 
L 347.282708 103.119812 
L 348.890908 103.119812 
L 350.499108 103.07831 
L 352.055431 103.07831 
L 353.663631 103.07831 
L 355.219953 102.995306 
L 356.828153 102.995306 
L 358.436353 102.912302 
L 359.888921 102.912302 
L 361.497121 102.8708 
L 363.053444 102.8708 
L 364.661644 102.995306 
L 366.217966 102.995306 
L 367.826166 102.953804 
L 369.434366 102.995306 
L 370.990689 102.953804 
L 372.598889 102.953804 
L 374.155212 102.953804 
L 375.763412 102.953804 
L 377.371612 102.953804 
L 378.876057 103.036808 
L 380.484257 102.995306 
L 382.04058 103.036808 
L 383.64878 103.161314 
L 385.205102 103.119812 
L 386.813302 103.07831 
L 388.421502 103.07831 
L 389.977825 102.995306 
L 391.586025 102.953804 
L 393.142347 102.8708 
L 394.750547 102.8708 
L 396.358747 102.829298 
L 397.811315 102.66329 
L 399.419515 102.455781 
L 400.975838 102.331275 
L 402.584038 102.372777 
L 404.140361 102.331275 
L 405.748561 102.289773 
L 407.356761 102.248271 
L 408.913083 102.206769 
L 410.521283 102.082263 
L 412.077606 102.123765 
L 413.685806 101.999259 
L 415.294006 101.999259 
L 416.746574 101.916256 
L 418.354774 101.874754 
L 419.911096 101.874754 
L 421.519296 101.916256 
L 423.075619 101.708746 
L 424.683819 101.708746 
L 426.292019 101.667244 
L 427.848342 101.79175 
L 429.456542 101.750248 
L 431.012864 101.750248 
L 432.621064 101.667244 
L 434.229264 101.542738 
L 435.681832 101.37673 
L 437.290032 101.335228 
L 438.846355 101.335228 
L 440.454555 101.210723 
L 442.010877 100.961711 
L 443.619077 100.671197 
L 445.227277 100.671197 
L 446.7836 100.588194 
L 448.3918 100.422186 
L 449.948123 100.29768 
L 449.948123 85.522991 
L 449.948123 85.522991 
L 448.3918 85.564493 
L 446.7836 85.564493 
L 445.227277 85.564493 
L 443.619077 85.564493 
L 442.010877 85.647497 
L 440.454555 85.647497 
L 438.846355 85.647497 
L 437.290032 85.647497 
L 435.681832 85.647497 
L 434.229264 85.688999 
L 432.621064 85.688999 
L 431.012864 85.772002 
L 429.456542 85.772002 
L 427.848342 85.813504 
L 426.292019 85.813504 
L 424.683819 85.813504 
L 423.075619 85.813504 
L 421.519296 85.896508 
L 419.911096 85.979512 
L 418.354774 85.979512 
L 416.746574 85.979512 
L 415.294006 85.979512 
L 413.685806 85.979512 
L 412.077606 86.021014 
L 410.521283 85.979512 
L 408.913083 86.062516 
L 407.356761 86.062516 
L 405.748561 86.062516 
L 404.140361 86.104018 
L 402.584038 86.104018 
L 400.975838 86.104018 
L 399.419515 86.14552 
L 397.811315 86.187022 
L 396.358747 86.228524 
L 394.750547 86.228524 
L 393.142347 86.187022 
L 391.586025 86.187022 
L 389.977825 86.187022 
L 388.421502 86.14552 
L 386.813302 86.14552 
L 385.205102 86.187022 
L 383.64878 86.187022 
L 382.04058 86.104018 
L 380.484257 86.062516 
L 378.876057 86.062516 
L 377.371612 86.104018 
L 375.763412 86.104018 
L 374.155212 86.104018 
L 372.598889 86.104018 
L 370.990689 86.104018 
L 369.434366 86.104018 
L 367.826166 86.104018 
L 366.217966 86.104018 
L 364.661644 86.104018 
L 363.053444 86.021014 
L 361.497121 86.021014 
L 359.888921 86.021014 
L 358.436353 86.021014 
L 356.828153 85.979512 
L 355.219953 85.979512 
L 353.663631 86.062516 
L 352.055431 86.062516 
L 350.499108 86.062516 
L 348.890908 86.104018 
L 347.282708 86.104018 
L 345.726385 86.104018 
L 344.118185 86.14552 
L 342.561863 86.187022 
L 340.953663 86.270026 
L 339.501095 86.270026 
L 337.892895 86.270026 
L 336.284695 86.436033 
L 334.728372 86.436033 
L 333.120172 86.436033 
L 331.56385 86.311528 
L 329.95565 86.35303 
L 328.34745 86.560539 
L 326.791127 87.556586 
L 325.182927 87.722593 
L 323.626604 87.764095 
L 322.018404 87.805597 
L 320.565837 87.805597 
L 318.957637 87.805597 
L 317.349437 87.805597 
L 315.793114 87.847099 
L 314.184914 87.847099 
L 312.628591 87.888601 
L 311.020391 87.930103 
L 309.412191 87.971605 
L 307.855869 87.971605 
L 306.247669 87.971605 
L 304.691346 87.971605 
L 303.083146 87.971605 
L 301.578701 88.013107 
L 299.970501 88.013107 
L 298.362301 88.054609 
L 296.805978 88.096111 
L 295.197778 88.096111 
L 293.641455 88.096111 
L 292.033255 88.096111 
L 290.425055 88.096111 
L 288.868733 88.096111 
L 287.260533 88.096111 
L 285.70421 88.096111 
L 284.09601 88.179115 
L 282.643442 88.179115 
L 281.035242 88.179115 
L 279.427042 88.220617 
L 277.87072 88.220617 
L 276.26252 88.262119 
L 274.706197 88.428126 
L 273.097997 89.424173 
L 271.489797 89.424173 
L 269.933474 89.424173 
L 268.325274 89.507177 
L 266.768952 89.507177 
L 265.160752 89.507177 
L 263.708184 89.507177 
L 262.099984 89.507177 
L 260.491784 89.507177 
L 258.935461 89.590181 
L 257.327261 89.507177 
L 255.770939 89.548679 
L 254.162739 89.631682 
L 252.554539 89.714686 
L 250.998216 89.922196 
L 249.390016 89.963698 
L 247.833693 89.963698 
L 246.225493 89.963698 
L 244.772926 89.963698 
L 243.164726 90.046702 
L 241.556526 90.046702 
L 240.000203 90.129706 
L 238.392003 90.129706 
L 236.83568 90.0052 
L 235.22748 90.088204 
L 233.61928 90.088204 
L 232.062958 90.088204 
L 230.454758 90.129706 
L 228.898435 90.129706 
L 227.290235 90.129706 
L 225.78579 90.171208 
L 224.17759 90.171208 
L 222.56939 90.21271 
L 221.013067 90.171208 
L 219.404867 90.171208 
L 217.848545 90.254212 
L 216.240345 90.295713 
L 213.179577 90.586227 
L 211.882641 91.208756 
L 210.793215 91.49927 
L 209.49628 90.835239 
L 208.458731 91.374764 
L 207.006164 91.416266 
L 204.049151 92.37081 
L 201.195893 92.37081 
L 200.313976 92.329308 
L 198.913286 92.495316 
L 197.460718 92.495316 
L 195.696886 92.57832 
L 194.60746 92.57832 
L 193.518034 92.619822 
L 188.745312 92.78583 
L 187.759641 92.78583 
L 182.675654 93.86488 
L 180.13366 93.989386 
L 179.303621 94.030888 
L 178.266073 94.155394 
L 177.591666 94.155394 
L 177.021015 94.155394 
L 173.597105 94.155394 
L 169.913808 94.404405 
L 168.046221 94.528911 
L 166.230511 94.570413 
L 162.962234 94.653417 
L 162.132195 94.777923 
L 160.783382 94.985432 
L 158.604531 95.234444 
L 155.232498 95.400452 
L 153.98744 96.064483 
L 151.082305 96.105985 
L 149.525982 96.396498 
L 147.710272 96.728514 
L 145.635176 96.811517 
L 144.13073 96.811517 
L 142.989427 96.811517 
L 142.211266 96.811517 
L 141.069963 96.977525 
L 139.980537 97.143533 
L 139.254253 97.268039 
L 139.046743 97.268039 
L 138.268582 97.226537 
L 137.231034 97.807564 
L 135.778466 97.309541 
L 135.259692 97.309541 
L 134.68904 97.392545 
L 133.859001 97.392545 
L 133.08084 97.392545 
L 132.354556 98.015074 
L 131.317008 98.015074 
L 130.953866 97.51705 
L 129.968195 98.139579 
L 128.723137 99.301634 
L 127.789343 100.256178 
L 127.270569 100.29768 
L 126.388653 100.29768 
L 125.818001 100.339182 
L 124.936085 100.961711 
L 124.209801 100.380684 
L 123.327885 100.380684 
L 119.903975 100.671197 
L 119.644588 100.712699 
L 117.569491 100.754201 
L 113.056156 98.015074 
L 110.617917 100.920209 
L 101.176226 102.912302 
L 85.976142 104.945897 
L 65.328929 106.356963 
L 47.534974 108.473561 
L 38.871445 110.963678 
L 30.104161 110.507156 
z
" clip-path="url(#p443331121a)" style="fill: #aeaeae"/>
   </g>
   <g id="PolyCollection_4">
    <path d="M 30.104161 85.315481 
L 30.104161 110.507156 
L 38.871445 110.963678 
L 47.534974 108.473561 
L 65.328929 106.356963 
L 85.976142 104.945897 
L 101.176226 102.912302 
L 110.617917 100.920209 
L 113.056156 98.015074 
L 117.569491 100.754201 
L 119.644588 100.712699 
L 119.903975 100.671197 
L 123.327885 100.380684 
L 124.209801 100.380684 
L 124.936085 100.961711 
L 125.818001 100.339182 
L 126.388653 100.29768 
L 127.270569 100.29768 
L 127.789343 100.256178 
L 128.723137 99.301634 
L 129.968195 98.139579 
L 130.953866 97.51705 
L 131.317008 98.015074 
L 132.354556 98.015074 
L 133.08084 97.392545 
L 133.859001 97.392545 
L 134.68904 97.392545 
L 135.259692 97.309541 
L 135.778466 97.309541 
L 137.231034 97.807564 
L 138.268582 97.226537 
L 139.046743 97.268039 
L 139.254253 97.268039 
L 139.980537 97.143533 
L 141.069963 96.977525 
L 142.211266 96.811517 
L 142.989427 96.811517 
L 144.13073 96.811517 
L 145.635176 96.811517 
L 147.710272 96.728514 
L 149.525982 96.396498 
L 151.082305 96.105985 
L 153.98744 96.064483 
L 155.232498 95.400452 
L 158.604531 95.234444 
L 160.783382 94.985432 
L 162.132195 94.777923 
L 162.962234 94.653417 
L 166.230511 94.570413 
L 168.046221 94.528911 
L 169.913808 94.404405 
L 173.597105 94.155394 
L 177.021015 94.155394 
L 177.591666 94.155394 
L 178.266073 94.155394 
L 179.303621 94.030888 
L 180.13366 93.989386 
L 182.675654 93.86488 
L 187.759641 92.78583 
L 188.745312 92.78583 
L 193.518034 92.619822 
L 194.60746 92.57832 
L 195.696886 92.57832 
L 197.460718 92.495316 
L 198.913286 92.495316 
L 200.313976 92.329308 
L 201.195893 92.37081 
L 204.049151 92.37081 
L 207.006164 91.416266 
L 208.458731 91.374764 
L 209.49628 90.835239 
L 210.793215 91.49927 
L 211.882641 91.208756 
L 213.179577 90.586227 
L 216.240345 90.295713 
L 217.848545 90.254212 
L 219.404867 90.171208 
L 221.013067 90.171208 
L 222.56939 90.21271 
L 224.17759 90.171208 
L 225.78579 90.171208 
L 227.290235 90.129706 
L 228.898435 90.129706 
L 230.454758 90.129706 
L 232.062958 90.088204 
L 233.61928 90.088204 
L 235.22748 90.088204 
L 236.83568 90.0052 
L 238.392003 90.129706 
L 240.000203 90.129706 
L 241.556526 90.046702 
L 243.164726 90.046702 
L 244.772926 89.963698 
L 246.225493 89.963698 
L 247.833693 89.963698 
L 249.390016 89.963698 
L 250.998216 89.922196 
L 252.554539 89.714686 
L 254.162739 89.631682 
L 255.770939 89.548679 
L 257.327261 89.507177 
L 258.935461 89.590181 
L 260.491784 89.507177 
L 262.099984 89.507177 
L 263.708184 89.507177 
L 265.160752 89.507177 
L 266.768952 89.507177 
L 268.325274 89.507177 
L 269.933474 89.424173 
L 271.489797 89.424173 
L 273.097997 89.424173 
L 274.706197 88.428126 
L 276.26252 88.262119 
L 277.87072 88.220617 
L 279.427042 88.220617 
L 281.035242 88.179115 
L 282.643442 88.179115 
L 284.09601 88.179115 
L 285.70421 88.096111 
L 287.260533 88.096111 
L 288.868733 88.096111 
L 290.425055 88.096111 
L 292.033255 88.096111 
L 293.641455 88.096111 
L 295.197778 88.096111 
L 296.805978 88.096111 
L 298.362301 88.054609 
L 299.970501 88.013107 
L 301.578701 88.013107 
L 303.083146 87.971605 
L 304.691346 87.971605 
L 306.247669 87.971605 
L 307.855869 87.971605 
L 309.412191 87.971605 
L 311.020391 87.930103 
L 312.628591 87.888601 
L 314.184914 87.847099 
L 315.793114 87.847099 
L 317.349437 87.805597 
L 318.957637 87.805597 
L 320.565837 87.805597 
L 322.018404 87.805597 
L 323.626604 87.764095 
L 325.182927 87.722593 
L 326.791127 87.556586 
L 328.34745 86.560539 
L 329.95565 86.35303 
L 331.56385 86.311528 
L 333.120172 86.436033 
L 334.728372 86.436033 
L 336.284695 86.436033 
L 337.892895 86.270026 
L 339.501095 86.270026 
L 340.953663 86.270026 
L 342.561863 86.187022 
L 344.118185 86.14552 
L 345.726385 86.104018 
L 347.282708 86.104018 
L 348.890908 86.104018 
L 350.499108 86.062516 
L 352.055431 86.062516 
L 353.663631 86.062516 
L 355.219953 85.979512 
L 356.828153 85.979512 
L 358.436353 86.021014 
L 359.888921 86.021014 
L 361.497121 86.021014 
L 363.053444 86.021014 
L 364.661644 86.104018 
L 366.217966 86.104018 
L 367.826166 86.104018 
L 369.434366 86.104018 
L 370.990689 86.104018 
L 372.598889 86.104018 
L 374.155212 86.104018 
L 375.763412 86.104018 
L 377.371612 86.104018 
L 378.876057 86.062516 
L 380.484257 86.062516 
L 382.04058 86.104018 
L 383.64878 86.187022 
L 385.205102 86.187022 
L 386.813302 86.14552 
L 388.421502 86.14552 
L 389.977825 86.187022 
L 391.586025 86.187022 
L 393.142347 86.187022 
L 394.750547 86.228524 
L 396.358747 86.228524 
L 397.811315 86.187022 
L 399.419515 86.14552 
L 400.975838 86.104018 
L 402.584038 86.104018 
L 404.140361 86.104018 
L 405.748561 86.062516 
L 407.356761 86.062516 
L 408.913083 86.062516 
L 410.521283 85.979512 
L 412.077606 86.021014 
L 413.685806 85.979512 
L 415.294006 85.979512 
L 416.746574 85.979512 
L 418.354774 85.979512 
L 419.911096 85.979512 
L 421.519296 85.896508 
L 423.075619 85.813504 
L 424.683819 85.813504 
L 426.292019 85.813504 
L 427.848342 85.813504 
L 429.456542 85.772002 
L 431.012864 85.772002 
L 432.621064 85.688999 
L 434.229264 85.688999 
L 435.681832 85.647497 
L 437.290032 85.647497 
L 438.846355 85.647497 
L 440.454555 85.647497 
L 442.010877 85.647497 
L 443.619077 85.564493 
L 445.227277 85.564493 
L 446.7836 85.564493 
L 448.3918 85.564493 
L 449.948123 85.522991 
L 449.948123 74.732487 
L 449.948123 74.732487 
L 448.3918 74.732487 
L 446.7836 74.732487 
L 445.227277 74.732487 
L 443.619077 74.732487 
L 442.010877 74.732487 
L 440.454555 74.732487 
L 438.846355 74.732487 
L 437.290032 74.732487 
L 435.681832 74.732487 
L 434.229264 74.939997 
L 432.621064 74.981499 
L 431.012864 75.023001 
L 429.456542 75.023001 
L 427.848342 75.023001 
L 426.292019 75.023001 
L 424.683819 75.023001 
L 423.075619 75.023001 
L 421.519296 75.023001 
L 419.911096 75.023001 
L 418.354774 75.023001 
L 416.746574 75.064503 
L 415.294006 75.023001 
L 413.685806 75.023001 
L 412.077606 75.064503 
L 410.521283 74.773989 
L 408.913083 74.773989 
L 407.356761 74.400472 
L 405.748561 74.400472 
L 404.140361 74.400472 
L 402.584038 74.400472 
L 400.975838 74.400472 
L 399.419515 74.400472 
L 397.811315 74.441974 
L 396.358747 74.441974 
L 394.750547 74.441974 
L 393.142347 74.400472 
L 391.586025 74.400472 
L 389.977825 74.400472 
L 388.421502 74.441974 
L 386.813302 74.441974 
L 385.205102 74.441974 
L 383.64878 74.441974 
L 382.04058 74.35897 
L 380.484257 74.317468 
L 378.876057 74.317468 
L 377.371612 74.317468 
L 375.763412 74.317468 
L 374.155212 74.317468 
L 372.598889 74.317468 
L 370.990689 74.317468 
L 369.434366 74.317468 
L 367.826166 74.317468 
L 366.217966 74.317468 
L 364.661644 74.317468 
L 363.053444 74.234464 
L 361.497121 74.234464 
L 359.888921 74.234464 
L 358.436353 74.234464 
L 356.828153 74.234464 
L 355.219953 74.234464 
L 353.663631 74.234464 
L 352.055431 74.234464 
L 350.499108 74.234464 
L 348.890908 74.192962 
L 347.282708 74.192962 
L 345.726385 74.192962 
L 344.118185 74.192962 
L 342.561863 74.192962 
L 340.953663 74.192962 
L 339.501095 74.192962 
L 337.892895 74.192962 
L 336.284695 74.192962 
L 334.728372 74.192962 
L 333.120172 74.192962 
L 331.56385 74.192962 
L 329.95565 74.192962 
L 328.34745 74.192962 
L 326.791127 74.192962 
L 325.182927 74.192962 
L 323.626604 74.192962 
L 322.018404 74.192962 
L 320.565837 74.192962 
L 318.957637 74.192962 
L 317.349437 74.192962 
L 315.793114 74.192962 
L 314.184914 74.192962 
L 312.628591 74.192962 
L 311.020391 74.192962 
L 309.412191 74.192962 
L 307.855869 74.192962 
L 306.247669 74.192962 
L 304.691346 74.192962 
L 303.083146 74.56648 
L 301.578701 74.607982 
L 299.970501 74.607982 
L 298.362301 74.607982 
L 296.805978 74.773989 
L 295.197778 74.773989 
L 293.641455 74.773989 
L 292.033255 74.773989 
L 290.425055 74.773989 
L 288.868733 74.773989 
L 287.260533 74.773989 
L 285.70421 74.773989 
L 284.09601 74.773989 
L 282.643442 74.773989 
L 281.035242 74.773989 
L 279.427042 74.815491 
L 277.87072 74.815491 
L 276.26252 74.815491 
L 274.706197 74.815491 
L 273.097997 74.524978 
L 271.489797 74.690985 
L 269.933474 74.649484 
L 268.325274 74.649484 
L 266.768952 74.649484 
L 265.160752 74.649484 
L 263.708184 74.649484 
L 262.099984 74.649484 
L 260.491784 74.649484 
L 258.935461 74.690985 
L 257.327261 74.690985 
L 255.770939 74.690985 
L 254.162739 74.649484 
L 252.554539 74.649484 
L 250.998216 74.649484 
L 249.390016 74.649484 
L 247.833693 74.649484 
L 246.225493 74.649484 
L 244.772926 74.649484 
L 243.164726 74.649484 
L 241.556526 74.649484 
L 240.000203 74.649484 
L 238.392003 74.690985 
L 236.83568 74.649484 
L 235.22748 74.690985 
L 233.61928 74.649484 
L 232.062958 74.649484 
L 230.454758 74.649484 
L 228.898435 74.649484 
L 227.290235 74.649484 
L 225.78579 74.649484 
L 224.17759 74.690985 
L 222.56939 74.690985 
L 221.013067 74.649484 
L 219.404867 74.649484 
L 217.848545 74.649484 
L 216.240345 74.732487 
L 213.179577 75.023001 
L 211.882641 75.728534 
L 210.793215 75.811538 
L 209.49628 75.147507 
L 208.458731 76.766082 
L 207.006164 76.766082 
L 204.049151 78.260152 
L 201.195893 78.260152 
L 200.313976 78.21865 
L 198.913286 78.384658 
L 197.460718 78.343156 
L 195.696886 78.343156 
L 194.60746 78.343156 
L 193.518034 78.343156 
L 188.745312 78.675171 
L 187.759641 78.675171 
L 182.675654 78.882681 
L 180.13366 78.841179 
L 179.303621 78.841179 
L 178.266073 78.924183 
L 177.591666 78.924183 
L 177.021015 78.924183 
L 173.597105 79.50521 
L 169.913808 79.629716 
L 168.046221 79.629716 
L 166.230511 79.629716 
L 162.962234 79.629716 
L 162.132195 79.588214 
L 160.783382 79.588214 
L 158.604531 79.463708 
L 155.232498 79.422206 
L 153.98744 80.501257 
L 151.082305 80.625762 
L 149.525982 80.750268 
L 147.710272 80.625762 
L 145.635176 80.625762 
L 144.13073 80.58426 
L 142.989427 80.58426 
L 142.211266 80.58426 
L 141.069963 80.542758 
L 139.980537 80.542758 
L 139.254253 80.58426 
L 139.046743 80.58426 
L 138.268582 80.58426 
L 137.231034 81.040782 
L 135.778466 80.58426 
L 135.259692 80.58426 
L 134.68904 80.625762 
L 133.859001 80.542758 
L 133.08084 80.542758 
L 132.354556 80.957778 
L 131.317008 80.874774 
L 130.953866 80.418253 
L 129.968195 80.99928 
L 128.723137 80.833272 
L 127.789343 80.874774 
L 127.270569 80.874774 
L 126.388653 80.874774 
L 125.818001 80.916276 
L 124.936085 81.455801 
L 124.209801 80.874774 
L 123.327885 80.874774 
L 119.903975 81.912322 
L 119.644588 81.953824 
L 117.569491 81.912322 
L 113.056156 80.957778 
L 110.617917 81.912322 
L 101.176226 82.742361 
L 85.976142 83.198882 
L 65.328929 83.945917 
L 47.534974 84.402439 
L 38.871445 85.481489 
L 30.104161 85.315481 
z
" clip-path="url(#p443331121a)" style="fill: #d5dce5"/>
   </g>
   <g id="matplotlib.axis_1">
    <g id="xtick_1">
     <g id="line2d_1">
      <defs>
       <path id="m145f881f4d" d="M 0 0 
L 0 3.5 
" style="stroke: #000000; stroke-width: 0.8"/>
      </defs>
      <g>
       <use xlink:href="#m145f881f4d" x="72.591768" y="284.607779" style="stroke: #000000; stroke-width: 0.8"/>
      </g>
     </g>
     <g id="text_1">
      <!-- 2004 -->
      <g transform="translate(59.866768 299.206216) scale(0.1 -0.1)">
       <defs>
        <path id="DejaVuSans-32" d="M 1228 531 
L 3431 531 
L 3431 0 
L 469 0 
L 469 531 
Q 828 903 1448 1529 
Q 2069 2156 2228 2338 
Q 2531 2678 2651 2914 
Q 2772 3150 2772 3378 
Q 2772 3750 2511 3984 
Q 2250 4219 1831 4219 
Q 1534 4219 1204 4116 
Q 875 4013 500 3803 
L 500 4441 
Q 881 4594 1212 4672 
Q 1544 4750 1819 4750 
Q 2544 4750 2975 4387 
Q 3406 4025 3406 3419 
Q 3406 3131 3298 2873 
Q 3191 2616 2906 2266 
Q 2828 2175 2409 1742 
Q 1991 1309 1228 531 
z
" transform="scale(0.015625)"/>
        <path id="DejaVuSans-30" d="M 2034 4250 
Q 1547 4250 1301 3770 
Q 1056 3291 1056 2328 
Q 1056 1369 1301 889 
Q 1547 409 2034 409 
Q 2525 409 2770 889 
Q 3016 1369 3016 2328 
Q 3016 3291 2770 3770 
Q 2525 4250 2034 4250 
z
M 2034 4750 
Q 2819 4750 3233 4129 
Q 3647 3509 3647 2328 
Q 3647 1150 3233 529 
Q 2819 -91 2034 -91 
Q 1250 -91 836 529 
Q 422 1150 422 2328 
Q 422 3509 836 4129 
Q 1250 4750 2034 4750 
z
" transform="scale(0.015625)"/>
        <path id="DejaVuSans-34" d="M 2419 4116 
L 825 1625 
L 2419 1625 
L 2419 4116 
z
M 2253 4666 
L 3047 4666 
L 3047 1625 
L 3713 1625 
L 3713 1100 
L 3047 1100 
L 3047 0 
L 2419 0 
L 2419 1100 
L 313 1100 
L 313 1709 
L 2253 4666 
z
" transform="scale(0.015625)"/>
       </defs>
       <use xlink:href="#DejaVuSans-32"/>
       <use xlink:href="#DejaVuSans-30" x="63.623047"/>
       <use xlink:href="#DejaVuSans-30" x="127.246094"/>
       <use xlink:href="#DejaVuSans-34" x="190.869141"/>
      </g>
     </g>
    </g>
    <g id="xtick_2">
     <g id="line2d_2">
      <g>
       <use xlink:href="#m145f881f4d" x="110.514162" y="284.607779" style="stroke: #000000; stroke-width: 0.8"/>
      </g>
     </g>
     <g id="text_2">
      <!-- 2006 -->
      <g transform="translate(97.789162 299.206216) scale(0.1 -0.1)">
       <defs>
        <path id="DejaVuSans-36" d="M 2113 2584 
Q 1688 2584 1439 2293 
Q 1191 2003 1191 1497 
Q 1191 994 1439 701 
Q 1688 409 2113 409 
Q 2538 409 2786 701 
Q 3034 994 3034 1497 
Q 3034 2003 2786 2293 
Q 2538 2584 2113 2584 
z
M 3366 4563 
L 3366 3988 
Q 3128 4100 2886 4159 
Q 2644 4219 2406 4219 
Q 1781 4219 1451 3797 
Q 1122 3375 1075 2522 
Q 1259 2794 1537 2939 
Q 1816 3084 2150 3084 
Q 2853 3084 3261 2657 
Q 3669 2231 3669 1497 
Q 3669 778 3244 343 
Q 2819 -91 2113 -91 
Q 1303 -91 875 529 
Q 447 1150 447 2328 
Q 447 3434 972 4092 
Q 1497 4750 2381 4750 
Q 2619 4750 2861 4703 
Q 3103 4656 3366 4563 
z
" transform="scale(0.015625)"/>
       </defs>
       <use xlink:href="#DejaVuSans-32"/>
       <use xlink:href="#DejaVuSans-30" x="63.623047"/>
       <use xlink:href="#DejaVuSans-30" x="127.246094"/>
       <use xlink:href="#DejaVuSans-36" x="190.869141"/>
      </g>
     </g>
    </g>
    <g id="xtick_3">
     <g id="line2d_3">
      <g>
       <use xlink:href="#m145f881f4d" x="148.384679" y="284.607779" style="stroke: #000000; stroke-width: 0.8"/>
      </g>
     </g>
     <g id="text_3">
      <!-- 2008 -->
      <g transform="translate(135.659679 299.206216) scale(0.1 -0.1)">
       <defs>
        <path id="DejaVuSans-38" d="M 2034 2216 
Q 1584 2216 1326 1975 
Q 1069 1734 1069 1313 
Q 1069 891 1326 650 
Q 1584 409 2034 409 
Q 2484 409 2743 651 
Q 3003 894 3003 1313 
Q 3003 1734 2745 1975 
Q 2488 2216 2034 2216 
z
M 1403 2484 
Q 997 2584 770 2862 
Q 544 3141 544 3541 
Q 544 4100 942 4425 
Q 1341 4750 2034 4750 
Q 2731 4750 3128 4425 
Q 3525 4100 3525 3541 
Q 3525 3141 3298 2862 
Q 3072 2584 2669 2484 
Q 3125 2378 3379 2068 
Q 3634 1759 3634 1313 
Q 3634 634 3220 271 
Q 2806 -91 2034 -91 
Q 1263 -91 848 271 
Q 434 634 434 1313 
Q 434 1759 690 2068 
Q 947 2378 1403 2484 
z
M 1172 3481 
Q 1172 3119 1398 2916 
Q 1625 2713 2034 2713 
Q 2441 2713 2670 2916 
Q 2900 3119 2900 3481 
Q 2900 3844 2670 4047 
Q 2441 4250 2034 4250 
Q 1625 4250 1398 4047 
Q 1172 3844 1172 3481 
z
" transform="scale(0.015625)"/>
       </defs>
       <use xlink:href="#DejaVuSans-32"/>
       <use xlink:href="#DejaVuSans-30" x="63.623047"/>
       <use xlink:href="#DejaVuSans-30" x="127.246094"/>
       <use xlink:href="#DejaVuSans-38" x="190.869141"/>
      </g>
     </g>
    </g>
    <g id="xtick_4">
     <g id="line2d_4">
      <g>
       <use xlink:href="#m145f881f4d" x="186.307073" y="284.607779" style="stroke: #000000; stroke-width: 0.8"/>
      </g>
     </g>
     <g id="text_4">
      <!-- 2010 -->
      <g transform="translate(173.582073 299.206216) scale(0.1 -0.1)">
       <defs>
        <path id="DejaVuSans-31" d="M 794 531 
L 1825 531 
L 1825 4091 
L 703 3866 
L 703 4441 
L 1819 4666 
L 2450 4666 
L 2450 531 
L 3481 531 
L 3481 0 
L 794 0 
L 794 531 
z
" transform="scale(0.015625)"/>
       </defs>
       <use xlink:href="#DejaVuSans-32"/>
       <use xlink:href="#DejaVuSans-30" x="63.623047"/>
       <use xlink:href="#DejaVuSans-31" x="127.246094"/>
       <use xlink:href="#DejaVuSans-30" x="190.869141"/>
      </g>
     </g>
    </g>
    <g id="xtick_5">
     <g id="line2d_5">
      <g>
       <use xlink:href="#m145f881f4d" x="224.17759" y="284.607779" style="stroke: #000000; stroke-width: 0.8"/>
      </g>
     </g>
     <g id="text_5">
      <!-- 2012 -->
      <g transform="translate(211.45259 299.206216) scale(0.1 -0.1)">
       <use xlink:href="#DejaVuSans-32"/>
       <use xlink:href="#DejaVuSans-30" x="63.623047"/>
       <use xlink:href="#DejaVuSans-31" x="127.246094"/>
       <use xlink:href="#DejaVuSans-32" x="190.869141"/>
      </g>
     </g>
    </g>
    <g id="xtick_6">
     <g id="line2d_6">
      <g>
       <use xlink:href="#m145f881f4d" x="262.099984" y="284.607779" style="stroke: #000000; stroke-width: 0.8"/>
      </g>
     </g>
     <g id="text_6">
      <!-- 2014 -->
      <g transform="translate(249.374984 299.206216) scale(0.1 -0.1)">
       <use xlink:href="#DejaVuSans-32"/>
       <use xlink:href="#DejaVuSans-30" x="63.623047"/>
       <use xlink:href="#DejaVuSans-31" x="127.246094"/>
       <use xlink:href="#DejaVuSans-34" x="190.869141"/>
      </g>
     </g>
    </g>
    <g id="xtick_7">
     <g id="line2d_7">
      <g>
       <use xlink:href="#m145f881f4d" x="299.970501" y="284.607779" style="stroke: #000000; stroke-width: 0.8"/>
      </g>
     </g>
     <g id="text_7">
      <!-- 2016 -->
      <g transform="translate(287.245501 299.206216) scale(0.1 -0.1)">
       <use xlink:href="#DejaVuSans-32"/>
       <use xlink:href="#DejaVuSans-30" x="63.623047"/>
       <use xlink:href="#DejaVuSans-31" x="127.246094"/>
       <use xlink:href="#DejaVuSans-36" x="190.869141"/>
      </g>
     </g>
    </g>
    <g id="xtick_8">
     <g id="line2d_8">
      <g>
       <use xlink:href="#m145f881f4d" x="337.892895" y="284.607779" style="stroke: #000000; stroke-width: 0.8"/>
      </g>
     </g>
     <g id="text_8">
      <!-- 2018 -->
      <g transform="translate(325.167895 299.206216) scale(0.1 -0.1)">
       <use xlink:href="#DejaVuSans-32"/>
       <use xlink:href="#DejaVuSans-30" x="63.623047"/>
       <use xlink:href="#DejaVuSans-31" x="127.246094"/>
       <use xlink:href="#DejaVuSans-38" x="190.869141"/>
      </g>
     </g>
    </g>
    <g id="xtick_9">
     <g id="line2d_9">
      <g>
       <use xlink:href="#m145f881f4d" x="375.763412" y="284.607779" style="stroke: #000000; stroke-width: 0.8"/>
      </g>
     </g>
     <g id="text_9">
      <!-- 2020 -->
      <g transform="translate(363.038412 299.206216) scale(0.1 -0.1)">
       <use xlink:href="#DejaVuSans-32"/>
       <use xlink:href="#DejaVuSans-30" x="63.623047"/>
       <use xlink:href="#DejaVuSans-32" x="127.246094"/>
       <use xlink:href="#DejaVuSans-30" x="190.869141"/>
      </g>
     </g>
    </g>
    <g id="xtick_10">
     <g id="line2d_10">
      <g>
       <use xlink:href="#m145f881f4d" x="413.685806" y="284.607779" style="stroke: #000000; stroke-width: 0.8"/>
      </g>
     </g>
     <g id="text_10">
      <!-- 2022 -->
      <g transform="translate(400.960806 299.206216) scale(0.1 -0.1)">
       <use xlink:href="#DejaVuSans-32"/>
       <use xlink:href="#DejaVuSans-30" x="63.623047"/>
       <use xlink:href="#DejaVuSans-32" x="127.246094"/>
       <use xlink:href="#DejaVuSans-32" x="190.869141"/>
      </g>
     </g>
    </g>
    <g id="text_11">
     <!-- Year -->
     <g transform="translate(239.86375 316.68356) scale(0.15 -0.15)">
      <defs>
       <path id="DejaVuSans-59" d="M -13 4666 
L 666 4666 
L 1959 2747 
L 3244 4666 
L 3922 4666 
L 2272 2222 
L 2272 0 
L 1638 0 
L 1638 2222 
L -13 4666 
z
" transform="scale(0.015625)"/>
       <path id="DejaVuSans-65" d="M 3597 1894 
L 3597 1613 
L 953 1613 
Q 991 1019 1311 708 
Q 1631 397 2203 397 
Q 2534 397 2845 478 
Q 3156 559 3463 722 
L 3463 178 
Q 3153 47 2828 -22 
Q 2503 -91 2169 -91 
Q 1331 -91 842 396 
Q 353 884 353 1716 
Q 353 2575 817 3079 
Q 1281 3584 2069 3584 
Q 2775 3584 3186 3129 
Q 3597 2675 3597 1894 
z
M 3022 2063 
Q 3016 2534 2758 2815 
Q 2500 3097 2075 3097 
Q 1594 3097 1305 2825 
Q 1016 2553 972 2059 
L 3022 2063 
z
" transform="scale(0.015625)"/>
       <path id="DejaVuSans-61" d="M 2194 1759 
Q 1497 1759 1228 1600 
Q 959 1441 959 1056 
Q 959 750 1161 570 
Q 1363 391 1709 391 
Q 2188 391 2477 730 
Q 2766 1069 2766 1631 
L 2766 1759 
L 2194 1759 
z
M 3341 1997 
L 3341 0 
L 2766 0 
L 2766 531 
Q 2569 213 2275 61 
Q 1981 -91 1556 -91 
Q 1019 -91 701 211 
Q 384 513 384 1019 
Q 384 1609 779 1909 
Q 1175 2209 1959 2209 
L 2766 2209 
L 2766 2266 
Q 2766 2663 2505 2880 
Q 2244 3097 1772 3097 
Q 1472 3097 1187 3025 
Q 903 2953 641 2809 
L 641 3341 
Q 956 3463 1253 3523 
Q 1550 3584 1831 3584 
Q 2591 3584 2966 3190 
Q 3341 2797 3341 1997 
z
" transform="scale(0.015625)"/>
       <path id="DejaVuSans-72" d="M 2631 2963 
Q 2534 3019 2420 3045 
Q 2306 3072 2169 3072 
Q 1681 3072 1420 2755 
Q 1159 2438 1159 1844 
L 1159 0 
L 581 0 
L 581 3500 
L 1159 3500 
L 1159 2956 
Q 1341 3275 1631 3429 
Q 1922 3584 2338 3584 
Q 2397 3584 2469 3576 
Q 2541 3569 2628 3553 
L 2631 2963 
z
" transform="scale(0.015625)"/>
      </defs>
      <use xlink:href="#DejaVuSans-59"/>
      <use xlink:href="#DejaVuSans-65" x="47.833984"/>
      <use xlink:href="#DejaVuSans-61" x="109.357422"/>
      <use xlink:href="#DejaVuSans-72" x="170.636719"/>
     </g>
    </g>
   </g>
   <g id="matplotlib.axis_2">
    <g id="ytick_1">
     <g id="line2d_11">
      <defs>
       <path id="m27398a9db9" d="M 0 0 
L -3.5 0 
" style="stroke: #000000; stroke-width: 0.8"/>
      </defs>
      <g>
       <use xlink:href="#m27398a9db9" x="61.49" y="284.607779" style="stroke: #000000; stroke-width: 0.8"/>
      </g>
     </g>
     <g id="text_12">
      <!-- 0 -->
      <g transform="translate(48.1275 288.406997) scale(0.1 -0.1)">
       <use xlink:href="#DejaVuSans-30"/>
      </g>
     </g>
    </g>
    <g id="ytick_2">
     <g id="line2d_12">
      <g>
       <use xlink:href="#m27398a9db9" x="61.49" y="243.105842" style="stroke: #000000; stroke-width: 0.8"/>
      </g>
     </g>
     <g id="text_13">
      <!-- 1000 -->
      <g transform="translate(29.04 246.905061) scale(0.1 -0.1)">
       <use xlink:href="#DejaVuSans-31"/>
       <use xlink:href="#DejaVuSans-30" x="63.623047"/>
       <use xlink:href="#DejaVuSans-30" x="127.246094"/>
       <use xlink:href="#DejaVuSans-30" x="190.869141"/>
      </g>
     </g>
    </g>
    <g id="ytick_3">
     <g id="line2d_13">
      <g>
       <use xlink:href="#m27398a9db9" x="61.49" y="201.603906" style="stroke: #000000; stroke-width: 0.8"/>
      </g>
     </g>
     <g id="text_14">
      <!-- 2000 -->
      <g transform="translate(29.04 205.403125) scale(0.1 -0.1)">
       <use xlink:href="#DejaVuSans-32"/>
       <use xlink:href="#DejaVuSans-30" x="63.623047"/>
       <use xlink:href="#DejaVuSans-30" x="127.246094"/>
       <use xlink:href="#DejaVuSans-30" x="190.869141"/>
      </g>
     </g>
    </g>
    <g id="ytick_4">
     <g id="line2d_14">
      <g>
       <use xlink:href="#m27398a9db9" x="61.49" y="160.10197" style="stroke: #000000; stroke-width: 0.8"/>
      </g>
     </g>
     <g id="text_15">
      <!-- 3000 -->
      <g transform="translate(29.04 163.901189) scale(0.1 -0.1)">
       <defs>
        <path id="DejaVuSans-33" d="M 2597 2516 
Q 3050 2419 3304 2112 
Q 3559 1806 3559 1356 
Q 3559 666 3084 287 
Q 2609 -91 1734 -91 
Q 1441 -91 1130 -33 
Q 819 25 488 141 
L 488 750 
Q 750 597 1062 519 
Q 1375 441 1716 441 
Q 2309 441 2620 675 
Q 2931 909 2931 1356 
Q 2931 1769 2642 2001 
Q 2353 2234 1838 2234 
L 1294 2234 
L 1294 2753 
L 1863 2753 
Q 2328 2753 2575 2939 
Q 2822 3125 2822 3475 
Q 2822 3834 2567 4026 
Q 2313 4219 1838 4219 
Q 1578 4219 1281 4162 
Q 984 4106 628 3988 
L 628 4550 
Q 988 4650 1302 4700 
Q 1616 4750 1894 4750 
Q 2613 4750 3031 4423 
Q 3450 4097 3450 3541 
Q 3450 3153 3228 2886 
Q 3006 2619 2597 2516 
z
" transform="scale(0.015625)"/>
       </defs>
       <use xlink:href="#DejaVuSans-33"/>
       <use xlink:href="#DejaVuSans-30" x="63.623047"/>
       <use xlink:href="#DejaVuSans-30" x="127.246094"/>
       <use xlink:href="#DejaVuSans-30" x="190.869141"/>
      </g>
     </g>
    </g>
    <g id="ytick_5">
     <g id="line2d_15">
      <g>
       <use xlink:href="#m27398a9db9" x="61.49" y="118.600034" style="stroke: #000000; stroke-width: 0.8"/>
      </g>
     </g>
     <g id="text_16">
      <!-- 4000 -->
      <g transform="translate(29.04 122.399253) scale(0.1 -0.1)">
       <use xlink:href="#DejaVuSans-34"/>
       <use xlink:href="#DejaVuSans-30" x="63.623047"/>
       <use xlink:href="#DejaVuSans-30" x="127.246094"/>
       <use xlink:href="#DejaVuSans-30" x="190.869141"/>
      </g>
     </g>
    </g>
    <g id="ytick_6">
     <g id="line2d_16">
      <g>
       <use xlink:href="#m27398a9db9" x="61.49" y="77.098098" style="stroke: #000000; stroke-width: 0.8"/>
      </g>
     </g>
     <g id="text_17">
      <!-- 5000 -->
      <g transform="translate(29.04 80.897316) scale(0.1 -0.1)">
       <defs>
        <path id="DejaVuSans-35" d="M 691 4666 
L 3169 4666 
L 3169 4134 
L 1269 4134 
L 1269 2991 
Q 1406 3038 1543 3061 
Q 1681 3084 1819 3084 
Q 2600 3084 3056 2656 
Q 3513 2228 3513 1497 
Q 3513 744 3044 326 
Q 2575 -91 1722 -91 
Q 1428 -91 1123 -41 
Q 819 9 494 109 
L 494 744 
Q 775 591 1075 516 
Q 1375 441 1709 441 
Q 2250 441 2565 725 
Q 2881 1009 2881 1497 
Q 2881 1984 2565 2268 
Q 2250 2553 1709 2553 
Q 1456 2553 1204 2497 
Q 953 2441 691 2322 
L 691 4666 
z
" transform="scale(0.015625)"/>
       </defs>
       <use xlink:href="#DejaVuSans-35"/>
       <use xlink:href="#DejaVuSans-30" x="63.623047"/>
       <use xlink:href="#DejaVuSans-30" x="127.246094"/>
       <use xlink:href="#DejaVuSans-30" x="190.869141"/>
      </g>
     </g>
    </g>
    <g id="text_18">
     <!-- Number of proteins -->
     <g transform="translate(21.920469 246.829062) rotate(-90) scale(0.15 -0.15)">
      <defs>
       <path id="DejaVuSans-4e" d="M 628 4666 
L 1478 4666 
L 3547 763 
L 3547 4666 
L 4159 4666 
L 4159 0 
L 3309 0 
L 1241 3903 
L 1241 0 
L 628 0 
L 628 4666 
z
" transform="scale(0.015625)"/>
       <path id="DejaVuSans-75" d="M 544 1381 
L 544 3500 
L 1119 3500 
L 1119 1403 
Q 1119 906 1312 657 
Q 1506 409 1894 409 
Q 2359 409 2629 706 
Q 2900 1003 2900 1516 
L 2900 3500 
L 3475 3500 
L 3475 0 
L 2900 0 
L 2900 538 
Q 2691 219 2414 64 
Q 2138 -91 1772 -91 
Q 1169 -91 856 284 
Q 544 659 544 1381 
z
M 1991 3584 
L 1991 3584 
z
" transform="scale(0.015625)"/>
       <path id="DejaVuSans-6d" d="M 3328 2828 
Q 3544 3216 3844 3400 
Q 4144 3584 4550 3584 
Q 5097 3584 5394 3201 
Q 5691 2819 5691 2113 
L 5691 0 
L 5113 0 
L 5113 2094 
Q 5113 2597 4934 2840 
Q 4756 3084 4391 3084 
Q 3944 3084 3684 2787 
Q 3425 2491 3425 1978 
L 3425 0 
L 2847 0 
L 2847 2094 
Q 2847 2600 2669 2842 
Q 2491 3084 2119 3084 
Q 1678 3084 1418 2786 
Q 1159 2488 1159 1978 
L 1159 0 
L 581 0 
L 581 3500 
L 1159 3500 
L 1159 2956 
Q 1356 3278 1631 3431 
Q 1906 3584 2284 3584 
Q 2666 3584 2933 3390 
Q 3200 3197 3328 2828 
z
" transform="scale(0.015625)"/>
       <path id="DejaVuSans-62" d="M 3116 1747 
Q 3116 2381 2855 2742 
Q 2594 3103 2138 3103 
Q 1681 3103 1420 2742 
Q 1159 2381 1159 1747 
Q 1159 1113 1420 752 
Q 1681 391 2138 391 
Q 2594 391 2855 752 
Q 3116 1113 3116 1747 
z
M 1159 2969 
Q 1341 3281 1617 3432 
Q 1894 3584 2278 3584 
Q 2916 3584 3314 3078 
Q 3713 2572 3713 1747 
Q 3713 922 3314 415 
Q 2916 -91 2278 -91 
Q 1894 -91 1617 61 
Q 1341 213 1159 525 
L 1159 0 
L 581 0 
L 581 4863 
L 1159 4863 
L 1159 2969 
z
" transform="scale(0.015625)"/>
       <path id="DejaVuSans-20" transform="scale(0.015625)"/>
       <path id="DejaVuSans-6f" d="M 1959 3097 
Q 1497 3097 1228 2736 
Q 959 2375 959 1747 
Q 959 1119 1226 758 
Q 1494 397 1959 397 
Q 2419 397 2687 759 
Q 2956 1122 2956 1747 
Q 2956 2369 2687 2733 
Q 2419 3097 1959 3097 
z
M 1959 3584 
Q 2709 3584 3137 3096 
Q 3566 2609 3566 1747 
Q 3566 888 3137 398 
Q 2709 -91 1959 -91 
Q 1206 -91 779 398 
Q 353 888 353 1747 
Q 353 2609 779 3096 
Q 1206 3584 1959 3584 
z
" transform="scale(0.015625)"/>
       <path id="DejaVuSans-66" d="M 2375 4863 
L 2375 4384 
L 1825 4384 
Q 1516 4384 1395 4259 
Q 1275 4134 1275 3809 
L 1275 3500 
L 2222 3500 
L 2222 3053 
L 1275 3053 
L 1275 0 
L 697 0 
L 697 3053 
L 147 3053 
L 147 3500 
L 697 3500 
L 697 3744 
Q 697 4328 969 4595 
Q 1241 4863 1831 4863 
L 2375 4863 
z
" transform="scale(0.015625)"/>
       <path id="DejaVuSans-70" d="M 1159 525 
L 1159 -1331 
L 581 -1331 
L 581 3500 
L 1159 3500 
L 1159 2969 
Q 1341 3281 1617 3432 
Q 1894 3584 2278 3584 
Q 2916 3584 3314 3078 
Q 3713 2572 3713 1747 
Q 3713 922 3314 415 
Q 2916 -91 2278 -91 
Q 1894 -91 1617 61 
Q 1341 213 1159 525 
z
M 3116 1747 
Q 3116 2381 2855 2742 
Q 2594 3103 2138 3103 
Q 1681 3103 1420 2742 
Q 1159 2381 1159 1747 
Q 1159 1113 1420 752 
Q 1681 391 2138 391 
Q 2594 391 2855 752 
Q 3116 1113 3116 1747 
z
" transform="scale(0.015625)"/>
       <path id="DejaVuSans-74" d="M 1172 4494 
L 1172 3500 
L 2356 3500 
L 2356 3053 
L 1172 3053 
L 1172 1153 
Q 1172 725 1289 603 
Q 1406 481 1766 481 
L 2356 481 
L 2356 0 
L 1766 0 
Q 1100 0 847 248 
Q 594 497 594 1153 
L 594 3053 
L 172 3053 
L 172 3500 
L 594 3500 
L 594 4494 
L 1172 4494 
z
" transform="scale(0.015625)"/>
       <path id="DejaVuSans-69" d="M 603 3500 
L 1178 3500 
L 1178 0 
L 603 0 
L 603 3500 
z
M 603 4863 
L 1178 4863 
L 1178 4134 
L 603 4134 
L 603 4863 
z
" transform="scale(0.015625)"/>
       <path id="DejaVuSans-6e" d="M 3513 2113 
L 3513 0 
L 2938 0 
L 2938 2094 
Q 2938 2591 2744 2837 
Q 2550 3084 2163 3084 
Q 1697 3084 1428 2787 
Q 1159 2491 1159 1978 
L 1159 0 
L 581 0 
L 581 3500 
L 1159 3500 
L 1159 2956 
Q 1366 3272 1645 3428 
Q 1925 3584 2291 3584 
Q 2894 3584 3203 3211 
Q 3513 2838 3513 2113 
z
" transform="scale(0.015625)"/>
       <path id="DejaVuSans-73" d="M 2834 3397 
L 2834 2853 
Q 2591 2978 2328 3040 
Q 2066 3103 1784 3103 
Q 1356 3103 1142 2972 
Q 928 2841 928 2578 
Q 928 2378 1081 2264 
Q 1234 2150 1697 2047 
L 1894 2003 
Q 2506 1872 2764 1633 
Q 3022 1394 3022 966 
Q 3022 478 2636 193 
Q 2250 -91 1575 -91 
Q 1294 -91 989 -36 
Q 684 19 347 128 
L 347 722 
Q 666 556 975 473 
Q 1284 391 1588 391 
Q 1994 391 2212 530 
Q 2431 669 2431 922 
Q 2431 1156 2273 1281 
Q 2116 1406 1581 1522 
L 1381 1569 
Q 847 1681 609 1914 
Q 372 2147 372 2553 
Q 372 3047 722 3315 
Q 1072 3584 1716 3584 
Q 2034 3584 2315 3537 
Q 2597 3491 2834 3397 
z
" transform="scale(0.015625)"/>
      </defs>
      <use xlink:href="#DejaVuSans-4e"/>
      <use xlink:href="#DejaVuSans-75" x="74.804688"/>
      <use xlink:href="#DejaVuSans-6d" x="138.183594"/>
      <use xlink:href="#DejaVuSans-62" x="235.595703"/>
      <use xlink:href="#DejaVuSans-65" x="299.072266"/>
      <use xlink:href="#DejaVuSans-72" x="360.595703"/>
      <use xlink:href="#DejaVuSans-20" x="401.708984"/>
      <use xlink:href="#DejaVuSans-6f" x="433.496094"/>
      <use xlink:href="#DejaVuSans-66" x="494.677734"/>
      <use xlink:href="#DejaVuSans-20" x="529.882812"/>
      <use xlink:href="#DejaVuSans-70" x="561.669922"/>
      <use xlink:href="#DejaVuSans-72" x="625.146484"/>
      <use xlink:href="#DejaVuSans-6f" x="664.009766"/>
      <use xlink:href="#DejaVuSans-74" x="725.191406"/>
      <use xlink:href="#DejaVuSans-65" x="764.400391"/>
      <use xlink:href="#DejaVuSans-69" x="825.923828"/>
      <use xlink:href="#DejaVuSans-6e" x="853.707031"/>
      <use xlink:href="#DejaVuSans-73" x="917.085938"/>
     </g>
    </g>
   </g>
   <g id="patch_3">
    <path d="M 61.49 284.607779 
L 61.49 63.672221 
" style="fill: none; stroke: #000000; stroke-width: 0.8; stroke-linejoin: miter; stroke-linecap: square"/>
   </g>
   <g id="patch_4">
    <path d="M 61.49 284.607779 
L 450 284.607779 
" style="fill: none; stroke: #000000; stroke-width: 0.8; stroke-linejoin: miter; stroke-linecap: square"/>
   </g>
   <g id="legend_1">
    <g id="patch_5">
     <path d="M 128.755156 58.672221 
L 382.734844 58.672221 
Q 384.734844 58.672221 384.734844 56.672221 
L 384.734844 28.315971 
Q 384.734844 26.315971 382.734844 26.315971 
L 128.755156 26.315971 
Q 126.755156 26.315971 126.755156 28.315971 
L 126.755156 56.672221 
Q 126.755156 58.672221 128.755156 58.672221 
z
" style="fill: #ffffff; opacity: 0.8; stroke: #cccccc; stroke-linejoin: miter"/>
    </g>
    <g id="patch_6">
     <path d="M 130.755156 37.914409 
L 150.755156 37.914409 
L 150.755156 30.914409 
L 130.755156 30.914409 
z
" style="fill: #fb363b"/>
    </g>
    <g id="text_19">
     <!-- Published -->
     <g transform="translate(158.755156 37.914409) scale(0.1 -0.1)">
      <defs>
       <path id="DejaVuSans-50" d="M 1259 4147 
L 1259 2394 
L 2053 2394 
Q 2494 2394 2734 2622 
Q 2975 2850 2975 3272 
Q 2975 3691 2734 3919 
Q 2494 4147 2053 4147 
L 1259 4147 
z
M 628 4666 
L 2053 4666 
Q 2838 4666 3239 4311 
Q 3641 3956 3641 3272 
Q 3641 2581 3239 2228 
Q 2838 1875 2053 1875 
L 1259 1875 
L 1259 0 
L 628 0 
L 628 4666 
z
" transform="scale(0.015625)"/>
       <path id="DejaVuSans-6c" d="M 603 4863 
L 1178 4863 
L 1178 0 
L 603 0 
L 603 4863 
z
" transform="scale(0.015625)"/>
       <path id="DejaVuSans-68" d="M 3513 2113 
L 3513 0 
L 2938 0 
L 2938 2094 
Q 2938 2591 2744 2837 
Q 2550 3084 2163 3084 
Q 1697 3084 1428 2787 
Q 1159 2491 1159 1978 
L 1159 0 
L 581 0 
L 581 4863 
L 1159 4863 
L 1159 2956 
Q 1366 3272 1645 3428 
Q 1925 3584 2291 3584 
Q 2894 3584 3203 3211 
Q 3513 2838 3513 2113 
z
" transform="scale(0.015625)"/>
       <path id="DejaVuSans-64" d="M 2906 2969 
L 2906 4863 
L 3481 4863 
L 3481 0 
L 2906 0 
L 2906 525 
Q 2725 213 2448 61 
Q 2172 -91 1784 -91 
Q 1150 -91 751 415 
Q 353 922 353 1747 
Q 353 2572 751 3078 
Q 1150 3584 1784 3584 
Q 2172 3584 2448 3432 
Q 2725 3281 2906 2969 
z
M 947 1747 
Q 947 1113 1208 752 
Q 1469 391 1925 391 
Q 2381 391 2643 752 
Q 2906 1113 2906 1747 
Q 2906 2381 2643 2742 
Q 2381 3103 1925 3103 
Q 1469 3103 1208 2742 
Q 947 2381 947 1747 
z
" transform="scale(0.015625)"/>
      </defs>
      <use xlink:href="#DejaVuSans-50"/>
      <use xlink:href="#DejaVuSans-75" x="58.552734"/>
      <use xlink:href="#DejaVuSans-62" x="121.931641"/>
      <use xlink:href="#DejaVuSans-6c" x="185.408203"/>
      <use xlink:href="#DejaVuSans-69" x="213.191406"/>
      <use xlink:href="#DejaVuSans-73" x="240.974609"/>
      <use xlink:href="#DejaVuSans-68" x="293.074219"/>
      <use xlink:href="#DejaVuSans-65" x="356.453125"/>
      <use xlink:href="#DejaVuSans-64" x="417.976562"/>
     </g>
    </g>
    <g id="patch_7">
     <path d="M 130.755156 52.592534 
L 150.755156 52.592534 
L 150.755156 45.592534 
L 130.755156 45.592534 
z
" style="fill: #fdc92c"/>
    </g>
    <g id="text_20">
     <!-- Inferred role -->
     <g transform="translate(158.755156 52.592534) scale(0.1 -0.1)">
      <defs>
       <path id="DejaVuSans-49" d="M 628 4666 
L 1259 4666 
L 1259 0 
L 628 0 
L 628 4666 
z
" transform="scale(0.015625)"/>
      </defs>
      <use xlink:href="#DejaVuSans-49"/>
      <use xlink:href="#DejaVuSans-6e" x="29.492188"/>
      <use xlink:href="#DejaVuSans-66" x="92.871094"/>
      <use xlink:href="#DejaVuSans-65" x="128.076172"/>
      <use xlink:href="#DejaVuSans-72" x="189.599609"/>
      <use xlink:href="#DejaVuSans-72" x="228.962891"/>
      <use xlink:href="#DejaVuSans-65" x="267.826172"/>
      <use xlink:href="#DejaVuSans-64" x="329.349609"/>
      <use xlink:href="#DejaVuSans-20" x="392.826172"/>
      <use xlink:href="#DejaVuSans-72" x="424.613281"/>
      <use xlink:href="#DejaVuSans-6f" x="463.476562"/>
      <use xlink:href="#DejaVuSans-6c" x="524.658203"/>
      <use xlink:href="#DejaVuSans-65" x="552.441406"/>
     </g>
    </g>
    <g id="patch_8">
     <path d="M 240.153594 37.914409 
L 260.153594 37.914409 
L 260.153594 30.914409 
L 240.153594 30.914409 
z
" style="fill: #aeaeae"/>
    </g>
    <g id="text_21">
     <!-- Conserved unknown -->
     <g transform="translate(268.153594 37.914409) scale(0.1 -0.1)">
      <defs>
       <path id="DejaVuSans-43" d="M 4122 4306 
L 4122 3641 
Q 3803 3938 3442 4084 
Q 3081 4231 2675 4231 
Q 1875 4231 1450 3742 
Q 1025 3253 1025 2328 
Q 1025 1406 1450 917 
Q 1875 428 2675 428 
Q 3081 428 3442 575 
Q 3803 722 4122 1019 
L 4122 359 
Q 3791 134 3420 21 
Q 3050 -91 2638 -91 
Q 1578 -91 968 557 
Q 359 1206 359 2328 
Q 359 3453 968 4101 
Q 1578 4750 2638 4750 
Q 3056 4750 3426 4639 
Q 3797 4528 4122 4306 
z
" transform="scale(0.015625)"/>
       <path id="DejaVuSans-76" d="M 191 3500 
L 800 3500 
L 1894 563 
L 2988 3500 
L 3597 3500 
L 2284 0 
L 1503 0 
L 191 3500 
z
" transform="scale(0.015625)"/>
       <path id="DejaVuSans-6b" d="M 581 4863 
L 1159 4863 
L 1159 1991 
L 2875 3500 
L 3609 3500 
L 1753 1863 
L 3688 0 
L 2938 0 
L 1159 1709 
L 1159 0 
L 581 0 
L 581 4863 
z
" transform="scale(0.015625)"/>
       <path id="DejaVuSans-77" d="M 269 3500 
L 844 3500 
L 1563 769 
L 2278 3500 
L 2956 3500 
L 3675 769 
L 4391 3500 
L 4966 3500 
L 4050 0 
L 3372 0 
L 2619 2869 
L 1863 0 
L 1184 0 
L 269 3500 
z
" transform="scale(0.015625)"/>
      </defs>
      <use xlink:href="#DejaVuSans-43"/>
      <use xlink:href="#DejaVuSans-6f" x="69.824219"/>
      <use xlink:href="#DejaVuSans-6e" x="131.005859"/>
      <use xlink:href="#DejaVuSans-73" x="194.384766"/>
      <use xlink:href="#DejaVuSans-65" x="246.484375"/>
      <use xlink:href="#DejaVuSans-72" x="308.007812"/>
      <use xlink:href="#DejaVuSans-76" x="349.121094"/>
      <use xlink:href="#DejaVuSans-65" x="408.300781"/>
      <use xlink:href="#DejaVuSans-64" x="469.824219"/>
      <use xlink:href="#DejaVuSans-20" x="533.300781"/>
      <use xlink:href="#DejaVuSans-75" x="565.087891"/>
      <use xlink:href="#DejaVuSans-6e" x="628.466797"/>
      <use xlink:href="#DejaVuSans-6b" x="691.845703"/>
      <use xlink:href="#DejaVuSans-6e" x="749.755859"/>
      <use xlink:href="#DejaVuSans-6f" x="813.134766"/>
      <use xlink:href="#DejaVuSans-77" x="874.316406"/>
      <use xlink:href="#DejaVuSans-6e" x="956.103516"/>
     </g>
    </g>
    <g id="patch_9">
     <path d="M 240.153594 52.592534 
L 260.153594 52.592534 
L 260.153594 45.592534 
L 240.153594 45.592534 
z
" style="fill: #d5dce5"/>
    </g>
    <g id="text_22">
     <!-- Fission yeast unknown -->
     <g transform="translate(268.153594 52.592534) scale(0.1 -0.1)">
      <defs>
       <path id="DejaVuSans-46" d="M 628 4666 
L 3309 4666 
L 3309 4134 
L 1259 4134 
L 1259 2759 
L 3109 2759 
L 3109 2228 
L 1259 2228 
L 1259 0 
L 628 0 
L 628 4666 
z
" transform="scale(0.015625)"/>
       <path id="DejaVuSans-79" d="M 2059 -325 
Q 1816 -950 1584 -1140 
Q 1353 -1331 966 -1331 
L 506 -1331 
L 506 -850 
L 844 -850 
Q 1081 -850 1212 -737 
Q 1344 -625 1503 -206 
L 1606 56 
L 191 3500 
L 800 3500 
L 1894 763 
L 2988 3500 
L 3597 3500 
L 2059 -325 
z
" transform="scale(0.015625)"/>
      </defs>
      <use xlink:href="#DejaVuSans-46"/>
      <use xlink:href="#DejaVuSans-69" x="50.269531"/>
      <use xlink:href="#DejaVuSans-73" x="78.052734"/>
      <use xlink:href="#DejaVuSans-73" x="130.152344"/>
      <use xlink:href="#DejaVuSans-69" x="182.251953"/>
      <use xlink:href="#DejaVuSans-6f" x="210.035156"/>
      <use xlink:href="#DejaVuSans-6e" x="271.216797"/>
      <use xlink:href="#DejaVuSans-20" x="334.595703"/>
      <use xlink:href="#DejaVuSans-79" x="366.382812"/>
      <use xlink:href="#DejaVuSans-65" x="425.5625"/>
      <use xlink:href="#DejaVuSans-61" x="487.085938"/>
      <use xlink:href="#DejaVuSans-73" x="548.365234"/>
      <use xlink:href="#DejaVuSans-74" x="600.464844"/>
      <use xlink:href="#DejaVuSans-20" x="639.673828"/>
      <use xlink:href="#DejaVuSans-75" x="671.460938"/>
      <use xlink:href="#DejaVuSans-6e" x="734.839844"/>
      <use xlink:href="#DejaVuSans-6b" x="798.21875"/>
      <use xlink:href="#DejaVuSans-6e" x="856.128906"/>
      <use xlink:href="#DejaVuSans-6f" x="919.507812"/>
      <use xlink:href="#DejaVuSans-77" x="980.689453"/>
      <use xlink:href="#DejaVuSans-6e" x="1062.476562"/>
     </g>
    </g>
   </g>
  </g>
 </g>
 <defs>
  <clipPath id="p443331121a">
   <rect x="61.49" y="63.672221" width="388.51" height="220.935557"/>
  </clipPath>
 </defs>
</svg>
