<?xml version="1.0" encoding="utf-8" standalone="no"?>
<!DOCTYPE svg PUBLIC "-//W3C//DTD SVG 1.1//EN"
  "http://www.w3.org/Graphics/SVG/1.1/DTD/svg11.dtd">
<svg xmlns:xlink="http://www.w3.org/1999/xlink" width="460.8pt" height="345.6pt" viewBox="0 0 460.8 345.6" xmlns="http://www.w3.org/2000/svg" version="1.1">
 <metadata>
  <rdf:RDF xmlns:dc="http://purl.org/dc/elements/1.1/" xmlns:cc="http://creativecommons.org/ns#" xmlns:rdf="http://www.w3.org/1999/02/22-rdf-syntax-ns#">
   <cc:Work>
    <dc:type rdf:resource="http://purl.org/dc/dcmitype/StillImage"/>
    <dc:date>2026-07-02T02:07:41.194245</dc:date>
    <dc:format>image/svg+xml</dc:format>
    <dc:creator>
     <cc:Agent>
      <dc:title>Matplotlib v3.7.1, https://matplotlib.org/</dc:title>
     </cc:Agent>
    </dc:creator>
   </cc:Work>
  </rdf:RDF>
 </metadata>
 <defs>
  <style type="text/css">*{stroke-linejoin: round; stroke-linecap: butt}</style>
 </defs>
 <g id="figure_1">
  <g id="patch_1">
   <path d="M 0 345.6 
L 460.8 345.6 
L 460.8 0 
L 0 0 
z
" style="fill: #ffffff"/>
  </g>
  <g id="axes_1">
   <g id="patch_2">
    <path d="M 61.49 270.913519 
L 450 270.913519 
L 450 74.686481 
L 61.49 74.686481 
z
" style="fill: #ffffff"/>
   </g>
   <g id="PolyCollection_1">
    <path d="M 33.614223 221.114941 
L 33.614223 270.913519 
L 41.40101 270.913519 
L 49.095646 270.913519 
L 64.899599 270.913519 
L 83.237713 270.913519 
L 96.737883 270.913519 
L 105.123654 270.913519 
L 107.28921 270.913519 
L 111.297793 270.913519 
L 113.140819 270.913519 
L 113.371198 270.913519 
L 116.412192 270.913519 
L 117.195478 270.913519 
L 117.840537 270.913519 
L 118.623824 270.913519 
L 119.130656 270.913519 
L 119.913942 270.913519 
L 120.374699 270.913519 
L 121.204061 270.913519 
L 122.309877 270.913519 
L 123.185314 270.913519 
L 123.507844 270.913519 
L 124.429357 270.913519 
L 125.074417 270.913519 
L 125.765551 270.913519 
L 126.502762 270.913519 
L 127.009594 270.913519 
L 127.470351 270.913519 
L 128.76047 270.913519 
L 129.681983 270.913519 
L 130.373118 270.913519 
L 130.557421 270.913519 
L 131.20248 270.913519 
L 132.170069 270.913519 
L 133.183733 270.913519 
L 133.874868 270.913519 
L 134.888533 270.913519 
L 136.224727 270.913519 
L 138.067754 270.913519 
L 139.680402 270.913519 
L 141.062672 270.913519 
L 143.642909 270.913519 
L 144.748725 270.913519 
L 147.743643 270.913519 
L 149.678821 270.913519 
L 150.876788 270.913519 
L 151.613999 270.913519 
L 154.516766 270.913519 
L 156.129414 270.913519 
L 157.788138 270.913519 
L 161.05951 270.913519 
L 164.100504 270.913519 
L 164.607336 270.913519 
L 165.20632 270.913519 
L 166.127833 270.913519 
L 166.865044 270.913519 
L 169.122751 270.913519 
L 173.638167 270.913519 
L 174.513604 270.913519 
L 178.752565 270.913519 
L 179.720154 270.913519 
L 180.687743 270.913519 
L 182.254316 270.913519 
L 183.544434 270.913519 
L 184.788477 270.913519 
L 185.571764 270.913519 
L 188.105925 270.913519 
L 190.732238 270.913519 
L 192.022356 270.913519 
L 192.94387 270.913519 
L 194.095761 270.913519 
L 195.06335 270.913519 
L 196.215242 270.913519 
L 198.933706 270.913519 
L 200.362052 270.913519 
L 201.744322 270.913519 
L 203.172667 270.913519 
L 204.554937 270.913519 
L 205.983283 270.913519 
L 207.411628 270.913519 
L 208.747823 270.913519 
L 210.176168 270.913519 
L 211.558438 270.913519 
L 212.986784 270.913519 
L 214.369054 270.913519 
L 215.797399 270.913519 
L 217.225745 270.913519 
L 218.608015 270.913519 
L 220.03636 270.913519 
L 221.41863 270.913519 
L 222.846976 270.913519 
L 224.275321 270.913519 
L 225.56544 270.913519 
L 226.993786 270.913519 
L 228.376056 270.913519 
L 229.804401 270.913519 
L 231.186671 270.913519 
L 232.615017 270.913519 
L 234.043362 270.913519 
L 235.425632 270.913519 
L 236.853978 270.913519 
L 238.236248 270.913519 
L 239.664593 270.913519 
L 241.092939 270.913519 
L 242.383057 270.913519 
L 243.811403 270.913519 
L 245.193673 270.913519 
L 246.622019 270.913519 
L 248.004288 270.913519 
L 249.432634 270.913519 
L 250.86098 270.913519 
L 252.24325 270.913519 
L 253.671595 270.913519 
L 255.053865 270.913519 
L 256.482211 270.913519 
L 257.910556 270.913519 
L 259.200675 270.913519 
L 260.62902 270.913519 
L 262.01129 270.913519 
L 263.439636 270.913519 
L 264.821906 270.913519 
L 266.250251 270.913519 
L 267.678597 270.913519 
L 269.060867 270.913519 
L 270.489213 270.913519 
L 271.871482 270.913519 
L 273.299828 270.913519 
L 274.728174 270.913519 
L 276.064368 270.913519 
L 277.492713 270.913519 
L 278.874983 270.913519 
L 280.303329 270.913519 
L 281.685599 270.913519 
L 283.113944 270.913519 
L 284.54229 270.913519 
L 285.92456 270.913519 
L 287.352906 270.913519 
L 288.735176 270.913519 
L 290.163521 270.913519 
L 291.591867 270.913519 
L 292.881985 270.913519 
L 294.310331 270.913519 
L 295.692601 270.913519 
L 297.120946 270.913519 
L 298.503216 270.913519 
L 299.931562 270.913519 
L 301.359907 270.913519 
L 302.742177 270.913519 
L 304.170523 270.913519 
L 305.552793 270.913519 
L 306.981139 270.913519 
L 308.409484 270.913519 
L 309.699603 270.913519 
L 311.127948 270.913519 
L 312.510218 270.913519 
L 313.938564 270.913519 
L 315.320834 270.913519 
L 316.749179 270.913519 
L 318.177525 270.913519 
L 319.559795 270.913519 
L 320.98814 270.913519 
L 322.37041 270.913519 
L 323.798756 270.913519 
L 325.227102 270.913519 
L 326.51722 270.913519 
L 327.945566 270.913519 
L 329.327836 270.913519 
L 330.756181 270.913519 
L 332.138451 270.913519 
L 333.566797 270.913519 
L 334.995142 270.913519 
L 336.377412 270.913519 
L 337.805758 270.913519 
L 339.188028 270.913519 
L 340.616373 270.913519 
L 342.044719 270.913519 
L 343.380913 270.913519 
L 344.809259 270.913519 
L 346.191529 270.913519 
L 347.619874 270.913519 
L 349.002144 270.913519 
L 350.43049 270.913519 
L 351.858835 270.913519 
L 353.241105 270.913519 
L 354.669451 270.913519 
L 356.051721 270.913519 
L 357.480066 270.913519 
L 358.908412 270.913519 
L 360.198531 270.913519 
L 361.626876 270.913519 
L 363.009146 270.913519 
L 364.437492 270.913519 
L 365.819762 270.913519 
L 367.248107 270.913519 
L 368.676453 270.913519 
L 370.058723 270.913519 
L 371.487068 270.913519 
L 372.869338 270.913519 
L 374.297684 270.913519 
L 375.726029 270.913519 
L 377.016148 270.913519 
L 378.444494 270.913519 
L 379.826764 270.913519 
L 381.255109 270.913519 
L 382.637379 270.913519 
L 384.065725 270.913519 
L 385.49407 270.913519 
L 386.87634 270.913519 
L 388.304686 270.913519 
L 389.686956 270.913519 
L 391.115301 270.913519 
L 392.543647 270.913519 
L 393.833765 270.913519 
L 395.262111 270.913519 
L 396.644381 270.913519 
L 398.072727 270.913519 
L 399.454996 270.913519 
L 400.883342 270.913519 
L 402.311688 270.913519 
L 403.693958 270.913519 
L 405.122303 270.913519 
L 406.504573 270.913519 
L 407.932919 270.913519 
L 409.361264 270.913519 
L 410.697458 270.913519 
L 412.125804 270.913519 
L 413.508074 270.913519 
L 414.93642 270.913519 
L 416.31869 270.913519 
L 417.747035 270.913519 
L 419.175381 270.913519 
L 420.557651 270.913519 
L 421.985996 270.913519 
L 423.368266 270.913519 
L 424.796612 270.913519 
L 426.224957 270.913519 
L 427.515076 270.913519 
L 428.943421 270.913519 
L 430.325691 270.913519 
L 431.754037 270.913519 
L 433.136307 270.913519 
L 434.564653 270.913519 
L 435.992998 270.913519 
L 437.375268 270.913519 
L 438.803614 270.913519 
L 440.185884 270.913519 
L 441.614229 270.913519 
L 443.042575 270.913519 
L 444.332693 270.913519 
L 445.761039 270.913519 
L 447.143309 270.913519 
L 448.571654 270.913519 
L 449.953924 270.913519 
L 449.953924 170.321129 
L 449.953924 170.321129 
L 448.571654 170.763456 
L 447.143309 170.763456 
L 445.761039 170.652874 
L 444.332693 170.616014 
L 443.042575 170.616014 
L 441.614229 170.284269 
L 440.185884 170.210548 
L 438.803614 170.210548 
L 437.375268 170.173687 
L 435.992998 169.583919 
L 434.564653 169.473337 
L 433.136307 169.547058 
L 431.754037 169.583919 
L 430.325691 169.583919 
L 428.943421 169.878803 
L 427.515076 169.915663 
L 426.224957 170.874037 
L 424.796612 172.975088 
L 423.368266 173.712298 
L 421.985996 173.933461 
L 420.557651 173.933461 
L 419.175381 174.154625 
L 417.747035 174.154625 
L 416.31869 174.965556 
L 414.93642 175.481604 
L 413.508074 175.592185 
L 412.125804 175.702767 
L 410.697458 175.776488 
L 409.361264 177.361491 
L 407.932919 177.472072 
L 406.504573 177.508933 
L 405.122303 177.730096 
L 403.693958 177.840678 
L 402.311688 177.877538 
L 400.883342 177.98812 
L 399.454996 178.430446 
L 398.072727 178.651609 
L 396.644381 178.762191 
L 395.262111 178.762191 
L 393.833765 179.093936 
L 392.543647 179.646844 
L 391.115301 179.609983 
L 389.686956 179.720565 
L 388.304686 179.831146 
L 386.87634 180.05231 
L 385.49407 180.05231 
L 384.065725 180.08917 
L 382.637379 180.08917 
L 381.255109 180.05231 
L 379.826764 180.126031 
L 378.444494 180.05231 
L 377.016148 180.015449 
L 375.726029 180.05231 
L 374.297684 180.05231 
L 372.869338 180.236612 
L 371.487068 180.420915 
L 370.058723 180.715799 
L 368.676453 180.936962 
L 367.248107 180.900102 
L 365.819762 181.084404 
L 364.437492 181.342428 
L 363.009146 181.342428 
L 361.626876 181.48987 
L 360.198531 181.969057 
L 358.908412 182.079639 
L 357.480066 182.485105 
L 356.051721 182.521965 
L 354.669451 182.669407 
L 353.241105 182.743128 
L 351.858835 182.89057 
L 350.43049 182.927431 
L 349.002144 183.001152 
L 347.619874 183.001152 
L 346.191529 183.074873 
L 344.809259 183.406618 
L 343.380913 183.517199 
L 342.044719 183.590921 
L 340.616373 183.664642 
L 339.188028 183.664642 
L 337.805758 183.664642 
L 336.377412 183.775223 
L 334.995142 183.848944 
L 333.566797 183.996386 
L 332.138451 184.21755 
L 330.756181 184.328131 
L 329.327836 184.401852 
L 327.945566 184.475573 
L 326.51722 184.512434 
L 325.227102 184.512434 
L 323.798756 184.549294 
L 322.37041 184.586155 
L 320.98814 184.659876 
L 319.559795 184.696736 
L 318.177525 184.696736 
L 316.749179 184.807318 
L 315.320834 184.9179 
L 313.938564 185.139063 
L 312.510218 185.286505 
L 311.127948 185.581389 
L 309.699603 185.728831 
L 308.409484 185.876273 
L 306.981139 185.913134 
L 305.552793 186.060576 
L 304.170523 186.208018 
L 302.742177 187.829882 
L 301.359907 188.087905 
L 299.931562 188.788255 
L 298.503216 188.198487 
L 297.120946 188.124766 
L 295.692601 188.161626 
L 294.310331 188.235347 
L 292.881985 188.493371 
L 291.591867 188.530232 
L 290.163521 188.603953 
L 288.735176 189.304303 
L 287.352906 189.414884 
L 285.92456 189.599187 
L 284.54229 189.672908 
L 283.113944 189.78349 
L 281.685599 190.188956 
L 280.303329 190.373258 
L 278.874983 190.373258 
L 277.492713 190.741864 
L 276.064368 190.815585 
L 274.728174 190.852445 
L 273.299828 191.036748 
L 271.871482 191.110469 
L 270.489213 191.110469 
L 269.060867 191.294772 
L 267.678597 191.331632 
L 266.250251 191.368493 
L 264.821906 191.515935 
L 263.439636 191.626516 
L 262.01129 191.073608 
L 260.62902 191.147329 
L 259.200675 191.331632 
L 257.910556 191.331632 
L 256.482211 191.552795 
L 255.053865 191.700237 
L 253.671595 191.958261 
L 252.24325 192.290006 
L 250.86098 192.58489 
L 249.432634 192.658611 
L 248.004288 192.916635 
L 246.622019 193.137798 
L 245.193673 193.469543 
L 243.811403 193.616985 
L 242.383057 193.801288 
L 241.092939 193.838148 
L 239.664593 193.838148 
L 238.236248 194.022451 
L 236.853978 194.464777 
L 235.425632 194.501638 
L 234.043362 194.722801 
L 232.615017 195.34943 
L 231.186671 195.423151 
L 229.804401 195.865477 
L 228.376056 196.160362 
L 226.993786 197.155596 
L 225.56544 197.229317 
L 224.275321 197.339899 
L 222.846976 197.597922 
L 221.41863 197.671644 
L 220.03636 197.892807 
L 218.608015 198.077109 
L 217.225745 198.408854 
L 215.797399 198.593157 
L 214.369054 198.703738 
L 212.986784 198.924902 
L 211.558438 198.961762 
L 210.176168 199.072344 
L 208.747823 199.219786 
L 207.411628 199.219786 
L 205.983283 199.293507 
L 204.554937 199.330367 
L 203.172667 199.367228 
L 201.744322 199.404088 
L 200.362052 199.440949 
L 198.933706 199.551531 
L 196.215242 200.251881 
L 195.06335 200.436183 
L 194.095761 200.473044 
L 192.94387 200.362462 
L 192.022356 200.362462 
L 190.732238 200.473044 
L 188.105925 200.583625 
L 185.571764 201.173394 
L 184.788477 202.058047 
L 183.544434 201.910605 
L 182.254316 201.873744 
L 180.687743 202.537234 
L 179.720154 202.537234 
L 178.752565 202.31607 
L 174.513604 202.795257 
L 173.638167 202.868978 
L 169.122751 203.495607 
L 166.865044 203.569329 
L 166.127833 203.421886 
L 165.20632 203.532468 
L 164.607336 203.716771 
L 164.100504 203.753631 
L 161.05951 203.864213 
L 157.788138 203.937934 
L 156.129414 204.122236 
L 154.516766 206.075845 
L 151.613999 206.002124 
L 150.876788 206.038984 
L 149.678821 206.44445 
L 147.743643 207.476545 
L 144.748725 207.697708 
L 143.642909 208.066313 
L 141.062672 208.324337 
L 139.680402 209.098408 
L 138.067754 209.614456 
L 136.224727 210.019921 
L 134.888533 210.056782 
L 133.874868 210.130503 
L 133.183733 210.167364 
L 132.170069 210.204224 
L 131.20248 210.867714 
L 130.557421 211.199458 
L 130.373118 211.199458 
L 129.681983 211.199458 
L 128.76047 211.420622 
L 127.470351 211.199458 
L 127.009594 211.383761 
L 126.502762 211.457482 
L 125.765551 211.568064 
L 125.074417 211.568064 
L 124.429357 211.862948 
L 123.507844 212.526438 
L 123.185314 212.489577 
L 122.309877 212.821322 
L 121.204061 212.895043 
L 120.374699 212.968764 
L 119.913942 213.042485 
L 119.130656 213.153067 
L 118.623824 213.37423 
L 117.840537 213.558532 
L 117.195478 213.484811 
L 116.412192 213.558532 
L 113.371198 213.816556 
L 113.140819 213.779696 
L 111.297793 214.07458 
L 107.28921 212.305274 
L 105.123654 214.922372 
L 96.737883 218.350402 
L 83.237713 221.557268 
L 64.899599 225.685647 
L 49.095646 220.930639 
L 41.40101 220.34087 
L 33.614223 221.114941 
z
" clip-path="url(#pec4efb113c)" style="fill: #fb363b"/>
   </g>
   <g id="PolyCollection_2">
    <path d="M 33.614223 145.329689 
L 33.614223 221.114941 
L 41.40101 220.34087 
L 49.095646 220.930639 
L 64.899599 225.685647 
L 83.237713 221.557268 
L 96.737883 218.350402 
L 105.123654 214.922372 
L 107.28921 212.305274 
L 111.297793 214.07458 
L 113.140819 213.779696 
L 113.371198 213.816556 
L 116.412192 213.558532 
L 117.195478 213.484811 
L 117.840537 213.558532 
L 118.623824 213.37423 
L 119.130656 213.153067 
L 119.913942 213.042485 
L 120.374699 212.968764 
L 121.204061 212.895043 
L 122.309877 212.821322 
L 123.185314 212.489577 
L 123.507844 212.526438 
L 124.429357 211.862948 
L 125.074417 211.568064 
L 125.765551 211.568064 
L 126.502762 211.457482 
L 127.009594 211.383761 
L 127.470351 211.199458 
L 128.76047 211.420622 
L 129.681983 211.199458 
L 130.373118 211.199458 
L 130.557421 211.199458 
L 131.20248 210.867714 
L 132.170069 210.204224 
L 133.183733 210.167364 
L 133.874868 210.130503 
L 134.888533 210.056782 
L 136.224727 210.019921 
L 138.067754 209.614456 
L 139.680402 209.098408 
L 141.062672 208.324337 
L 143.642909 208.066313 
L 144.748725 207.697708 
L 147.743643 207.476545 
L 149.678821 206.44445 
L 150.876788 206.038984 
L 151.613999 206.002124 
L 154.516766 206.075845 
L 156.129414 204.122236 
L 157.788138 203.937934 
L 161.05951 203.864213 
L 164.100504 203.753631 
L 164.607336 203.716771 
L 165.20632 203.532468 
L 166.127833 203.421886 
L 166.865044 203.569329 
L 169.122751 203.495607 
L 173.638167 202.868978 
L 174.513604 202.795257 
L 178.752565 202.31607 
L 179.720154 202.537234 
L 180.687743 202.537234 
L 182.254316 201.873744 
L 183.544434 201.910605 
L 184.788477 202.058047 
L 185.571764 201.173394 
L 188.105925 200.583625 
L 190.732238 200.473044 
L 192.022356 200.362462 
L 192.94387 200.362462 
L 194.095761 200.473044 
L 195.06335 200.436183 
L 196.215242 200.251881 
L 198.933706 199.551531 
L 200.362052 199.440949 
L 201.744322 199.404088 
L 203.172667 199.367228 
L 204.554937 199.330367 
L 205.983283 199.293507 
L 207.411628 199.219786 
L 208.747823 199.219786 
L 210.176168 199.072344 
L 211.558438 198.961762 
L 212.986784 198.924902 
L 214.369054 198.703738 
L 215.797399 198.593157 
L 217.225745 198.408854 
L 218.608015 198.077109 
L 220.03636 197.892807 
L 221.41863 197.671644 
L 222.846976 197.597922 
L 224.275321 197.339899 
L 225.56544 197.229317 
L 226.993786 197.155596 
L 228.376056 196.160362 
L 229.804401 195.865477 
L 231.186671 195.423151 
L 232.615017 195.34943 
L 234.043362 194.722801 
L 235.425632 194.501638 
L 236.853978 194.464777 
L 238.236248 194.022451 
L 239.664593 193.838148 
L 241.092939 193.838148 
L 242.383057 193.801288 
L 243.811403 193.616985 
L 245.193673 193.469543 
L 246.622019 193.137798 
L 248.004288 192.916635 
L 249.432634 192.658611 
L 250.86098 192.58489 
L 252.24325 192.290006 
L 253.671595 191.958261 
L 255.053865 191.700237 
L 256.482211 191.552795 
L 257.910556 191.331632 
L 259.200675 191.331632 
L 260.62902 191.147329 
L 262.01129 191.073608 
L 263.439636 191.626516 
L 264.821906 191.515935 
L 266.250251 191.368493 
L 267.678597 191.331632 
L 269.060867 191.294772 
L 270.489213 191.110469 
L 271.871482 191.110469 
L 273.299828 191.036748 
L 274.728174 190.852445 
L 276.064368 190.815585 
L 277.492713 190.741864 
L 278.874983 190.373258 
L 280.303329 190.373258 
L 281.685599 190.188956 
L 283.113944 189.78349 
L 284.54229 189.672908 
L 285.92456 189.599187 
L 287.352906 189.414884 
L 288.735176 189.304303 
L 290.163521 188.603953 
L 291.591867 188.530232 
L 292.881985 188.493371 
L 294.310331 188.235347 
L 295.692601 188.161626 
L 297.120946 188.124766 
L 298.503216 188.198487 
L 299.931562 188.788255 
L 301.359907 188.087905 
L 302.742177 187.829882 
L 304.170523 186.208018 
L 305.552793 186.060576 
L 306.981139 185.913134 
L 308.409484 185.876273 
L 309.699603 185.728831 
L 311.127948 185.581389 
L 312.510218 185.286505 
L 313.938564 185.139063 
L 315.320834 184.9179 
L 316.749179 184.807318 
L 318.177525 184.696736 
L 319.559795 184.696736 
L 320.98814 184.659876 
L 322.37041 184.586155 
L 323.798756 184.549294 
L 325.227102 184.512434 
L 326.51722 184.512434 
L 327.945566 184.475573 
L 329.327836 184.401852 
L 330.756181 184.328131 
L 332.138451 184.21755 
L 333.566797 183.996386 
L 334.995142 183.848944 
L 336.377412 183.775223 
L 337.805758 183.664642 
L 339.188028 183.664642 
L 340.616373 183.664642 
L 342.044719 183.590921 
L 343.380913 183.517199 
L 344.809259 183.406618 
L 346.191529 183.074873 
L 347.619874 183.001152 
L 349.002144 183.001152 
L 350.43049 182.927431 
L 351.858835 182.89057 
L 353.241105 182.743128 
L 354.669451 182.669407 
L 356.051721 182.521965 
L 357.480066 182.485105 
L 358.908412 182.079639 
L 360.198531 181.969057 
L 361.626876 181.48987 
L 363.009146 181.342428 
L 364.437492 181.342428 
L 365.819762 181.084404 
L 367.248107 180.900102 
L 368.676453 180.936962 
L 370.058723 180.715799 
L 371.487068 180.420915 
L 372.869338 180.236612 
L 374.297684 180.05231 
L 375.726029 180.05231 
L 377.016148 180.015449 
L 378.444494 180.05231 
L 379.826764 180.126031 
L 381.255109 180.05231 
L 382.637379 180.08917 
L 384.065725 180.08917 
L 385.49407 180.05231 
L 386.87634 180.05231 
L 388.304686 179.831146 
L 389.686956 179.720565 
L 391.115301 179.609983 
L 392.543647 179.646844 
L 393.833765 179.093936 
L 395.262111 178.762191 
L 396.644381 178.762191 
L 398.072727 178.651609 
L 399.454996 178.430446 
L 400.883342 177.98812 
L 402.311688 177.877538 
L 403.693958 177.840678 
L 405.122303 177.730096 
L 406.504573 177.508933 
L 407.932919 177.472072 
L 409.361264 177.361491 
L 410.697458 175.776488 
L 412.125804 175.702767 
L 413.508074 175.592185 
L 414.93642 175.481604 
L 416.31869 174.965556 
L 417.747035 174.154625 
L 419.175381 174.154625 
L 420.557651 173.933461 
L 421.985996 173.933461 
L 423.368266 173.712298 
L 424.796612 172.975088 
L 426.224957 170.874037 
L 427.515076 169.915663 
L 428.943421 169.878803 
L 430.325691 169.583919 
L 431.754037 169.583919 
L 433.136307 169.547058 
L 434.564653 169.473337 
L 435.992998 169.583919 
L 437.375268 170.173687 
L 438.803614 170.210548 
L 440.185884 170.210548 
L 441.614229 170.284269 
L 443.042575 170.616014 
L 444.332693 170.616014 
L 445.761039 170.652874 
L 447.143309 170.763456 
L 448.571654 170.763456 
L 449.953924 170.321129 
L 449.953924 109.648695 
L 449.953924 109.648695 
L 448.571654 110.127882 
L 447.143309 110.0173 
L 445.761039 109.538113 
L 444.332693 109.35381 
L 443.042575 109.280089 
L 441.614229 108.247995 
L 440.185884 107.91625 
L 438.803614 107.879389 
L 437.375268 107.805668 
L 435.992998 106.884155 
L 434.564653 106.294386 
L 433.136307 106.220665 
L 431.754037 106.036363 
L 430.325691 105.962642 
L 428.943421 105.925781 
L 427.515076 105.704618 
L 426.224957 105.741478 
L 424.796612 105.704618 
L 423.368266 106.220665 
L 421.985996 106.294386 
L 420.557651 106.404968 
L 419.175381 106.441829 
L 417.747035 106.662992 
L 416.31869 106.55241 
L 414.93642 106.51555 
L 413.508074 106.662992 
L 412.125804 106.736713 
L 410.697458 106.699852 
L 409.361264 106.957876 
L 407.932919 107.2159 
L 406.504573 107.2159 
L 405.122303 107.326481 
L 403.693958 107.473923 
L 402.311688 107.547644 
L 400.883342 107.547644 
L 399.454996 107.805668 
L 398.072727 108.026831 
L 396.644381 108.137413 
L 395.262111 108.137413 
L 393.833765 108.174273 
L 392.543647 108.321716 
L 391.115301 108.432297 
L 389.686956 108.506018 
L 388.304686 108.506018 
L 386.87634 108.542879 
L 385.49407 108.432297 
L 384.065725 108.469158 
L 382.637379 108.469158 
L 381.255109 108.65346 
L 379.826764 108.6166 
L 378.444494 108.6166 
L 377.016148 108.65346 
L 375.726029 108.727181 
L 374.297684 108.727181 
L 372.869338 108.837763 
L 371.487068 108.800903 
L 370.058723 108.911484 
L 368.676453 108.948345 
L 367.248107 108.985205 
L 365.819762 109.022066 
L 364.437492 109.058926 
L 363.009146 109.022066 
L 361.626876 109.132647 
L 360.198531 109.31695 
L 358.908412 109.464392 
L 357.480066 109.501253 
L 356.051721 109.501253 
L 354.669451 109.574974 
L 353.241105 109.611834 
L 351.858835 109.685555 
L 350.43049 109.685555 
L 349.002144 109.722416 
L 347.619874 109.759276 
L 346.191529 109.648695 
L 344.809259 109.611834 
L 343.380913 109.648695 
L 342.044719 109.574974 
L 340.616373 109.574974 
L 339.188028 109.574974 
L 337.805758 109.574974 
L 336.377412 109.574974 
L 334.995142 109.611834 
L 333.566797 109.574974 
L 332.138451 109.611834 
L 330.756181 109.611834 
L 329.327836 109.501253 
L 327.945566 109.501253 
L 326.51722 109.538113 
L 325.227102 109.538113 
L 323.798756 109.611834 
L 322.37041 109.611834 
L 320.98814 109.685555 
L 319.559795 109.685555 
L 318.177525 109.685555 
L 316.749179 109.722416 
L 315.320834 109.722416 
L 313.938564 109.722416 
L 312.510218 109.759276 
L 311.127948 109.796137 
L 309.699603 110.091021 
L 308.409484 110.201603 
L 306.981139 110.127882 
L 305.552793 110.201603 
L 304.170523 110.312184 
L 302.742177 110.349045 
L 301.359907 110.865092 
L 299.931562 111.159977 
L 298.503216 113.187306 
L 297.120946 114.329982 
L 295.692601 114.735448 
L 294.310331 114.735448 
L 292.881985 115.030332 
L 291.591867 114.956611 
L 290.163521 114.219401 
L 288.735176 114.403703 
L 287.352906 114.809169 
L 285.92456 114.809169 
L 284.54229 114.698588 
L 283.113944 114.84603 
L 281.685599 114.88289 
L 280.303329 114.88289 
L 278.874983 114.919751 
L 277.492713 114.993472 
L 276.064368 114.993472 
L 274.728174 115.030332 
L 273.299828 115.030332 
L 271.871482 115.140914 
L 270.489213 115.177774 
L 269.060867 115.214635 
L 267.678597 115.214635 
L 266.250251 115.177774 
L 264.821906 115.214635 
L 263.439636 115.177774 
L 262.01129 115.767543 
L 260.62902 115.730682 
L 259.200675 115.804403 
L 257.910556 115.878125 
L 256.482211 115.988706 
L 255.053865 115.951846 
L 253.671595 116.209869 
L 252.24325 116.320451 
L 250.86098 116.467893 
L 249.432634 116.652196 
L 248.004288 116.689056 
L 246.622019 116.615335 
L 245.193673 116.689056 
L 243.811403 116.725917 
L 242.383057 116.725917 
L 241.092939 116.725917 
L 239.664593 116.725917 
L 238.236248 116.873359 
L 236.853978 116.94708 
L 235.425632 117.168243 
L 234.043362 117.205104 
L 232.615017 117.426267 
L 231.186671 117.499988 
L 229.804401 117.721151 
L 228.376056 117.831733 
L 226.993786 117.979175 
L 225.56544 118.016035 
L 224.275321 118.052896 
L 222.846976 118.200338 
L 221.41863 118.200338 
L 220.03636 118.384641 
L 218.608015 118.642664 
L 217.225745 118.790106 
L 215.797399 118.937549 
L 214.369054 119.121851 
L 212.986784 119.195572 
L 211.558438 119.490457 
L 210.176168 119.490457 
L 208.747823 119.527317 
L 207.411628 119.527317 
L 205.983283 119.527317 
L 204.554937 119.527317 
L 203.172667 119.527317 
L 201.744322 119.564178 
L 200.362052 119.71162 
L 198.933706 119.785341 
L 196.215242 120.227667 
L 195.06335 120.780575 
L 194.095761 121.038599 
L 192.94387 120.522551 
L 192.022356 120.817436 
L 190.732238 120.928017 
L 188.105925 121.075459 
L 185.571764 121.075459 
L 184.788477 121.222902 
L 183.544434 121.702088 
L 182.254316 121.665228 
L 180.687743 122.51302 
L 179.720154 122.51302 
L 178.752565 122.918486 
L 174.513604 123.17651 
L 173.638167 123.250231 
L 169.122751 124.282326 
L 166.865044 125.203839 
L 166.127833 125.240699 
L 165.20632 125.240699 
L 164.607336 125.240699 
L 164.100504 125.27756 
L 161.05951 124.872094 
L 157.788138 125.351281 
L 156.129414 125.535584 
L 154.516766 125.719886 
L 151.613999 125.830468 
L 150.876788 125.904189 
L 149.678821 126.088492 
L 147.743643 126.383376 
L 144.748725 126.235934 
L 143.642909 126.530818 
L 141.062672 126.493958 
L 139.680402 126.420236 
L 138.067754 126.751981 
L 136.224727 126.67826 
L 134.888533 126.567679 
L 133.874868 126.825702 
L 133.183733 126.862563 
L 132.170069 126.162213 
L 131.20248 126.199073 
L 130.557421 126.346515 
L 130.373118 126.346515 
L 129.681983 126.309655 
L 128.76047 126.788842 
L 127.470351 126.272794 
L 127.009594 126.272794 
L 126.502762 126.309655 
L 125.765551 126.346515 
L 125.074417 126.162213 
L 124.429357 126.567679 
L 123.507844 126.67826 
L 123.185314 126.457097 
L 122.309877 126.604539 
L 121.204061 126.567679 
L 120.374699 127.046866 
L 119.913942 126.973144 
L 119.130656 126.973144 
L 118.623824 125.314421 
L 117.840537 125.683026 
L 117.195478 124.761513 
L 116.412192 124.540349 
L 113.371198 124.798373 
L 113.140819 124.650931 
L 111.297793 124.908955 
L 107.28921 126.567679 
L 105.123654 127.37861 
L 96.737883 129.332218 
L 83.237713 132.133619 
L 64.899599 135.70909 
L 49.095646 141.422473 
L 41.40101 145.034805 
L 33.614223 145.329689 
z
" clip-path="url(#pec4efb113c)" style="fill: #fdc92c"/>
   </g>
   <g id="PolyCollection_3">
    <path d="M 33.614223 116.28359 
L 33.614223 145.329689 
L 41.40101 145.034805 
L 49.095646 141.422473 
L 64.899599 135.70909 
L 83.237713 132.133619 
L 96.737883 129.332218 
L 105.123654 127.37861 
L 107.28921 126.567679 
L 111.297793 124.908955 
L 113.140819 124.650931 
L 113.371198 124.798373 
L 116.412192 124.540349 
L 117.195478 124.761513 
L 117.840537 125.683026 
L 118.623824 125.314421 
L 119.130656 126.973144 
L 119.913942 126.973144 
L 120.374699 127.046866 
L 121.204061 126.567679 
L 122.309877 126.604539 
L 123.185314 126.457097 
L 123.507844 126.67826 
L 124.429357 126.567679 
L 125.074417 126.162213 
L 125.765551 126.346515 
L 126.502762 126.309655 
L 127.009594 126.272794 
L 127.470351 126.272794 
L 128.76047 126.788842 
L 129.681983 126.309655 
L 130.373118 126.346515 
L 130.557421 126.346515 
L 131.20248 126.199073 
L 132.170069 126.162213 
L 133.183733 126.862563 
L 133.874868 126.825702 
L 134.888533 126.567679 
L 136.224727 126.67826 
L 138.067754 126.751981 
L 139.680402 126.420236 
L 141.062672 126.493958 
L 143.642909 126.530818 
L 144.748725 126.235934 
L 147.743643 126.383376 
L 149.678821 126.088492 
L 150.876788 125.904189 
L 151.613999 125.830468 
L 154.516766 125.719886 
L 156.129414 125.535584 
L 157.788138 125.351281 
L 161.05951 124.872094 
L 164.100504 125.27756 
L 164.607336 125.240699 
L 165.20632 125.240699 
L 166.127833 125.240699 
L 166.865044 125.203839 
L 169.122751 124.282326 
L 173.638167 123.250231 
L 174.513604 123.17651 
L 178.752565 122.918486 
L 179.720154 122.51302 
L 180.687743 122.51302 
L 182.254316 121.665228 
L 183.544434 121.702088 
L 184.788477 121.222902 
L 185.571764 121.075459 
L 188.105925 121.075459 
L 190.732238 120.928017 
L 192.022356 120.817436 
L 192.94387 120.522551 
L 194.095761 121.038599 
L 195.06335 120.780575 
L 196.215242 120.227667 
L 198.933706 119.785341 
L 200.362052 119.71162 
L 201.744322 119.564178 
L 203.172667 119.527317 
L 204.554937 119.527317 
L 205.983283 119.527317 
L 207.411628 119.527317 
L 208.747823 119.527317 
L 210.176168 119.490457 
L 211.558438 119.490457 
L 212.986784 119.195572 
L 214.369054 119.121851 
L 215.797399 118.937549 
L 217.225745 118.790106 
L 218.608015 118.642664 
L 220.03636 118.384641 
L 221.41863 118.200338 
L 222.846976 118.200338 
L 224.275321 118.052896 
L 225.56544 118.016035 
L 226.993786 117.979175 
L 228.376056 117.831733 
L 229.804401 117.721151 
L 231.186671 117.499988 
L 232.615017 117.426267 
L 234.043362 117.205104 
L 235.425632 117.168243 
L 236.853978 116.94708 
L 238.236248 116.873359 
L 239.664593 116.725917 
L 241.092939 116.725917 
L 242.383057 116.725917 
L 243.811403 116.725917 
L 245.193673 116.689056 
L 246.622019 116.615335 
L 248.004288 116.689056 
L 249.432634 116.652196 
L 250.86098 116.467893 
L 252.24325 116.320451 
L 253.671595 116.209869 
L 255.053865 115.951846 
L 256.482211 115.988706 
L 257.910556 115.878125 
L 259.200675 115.804403 
L 260.62902 115.730682 
L 262.01129 115.767543 
L 263.439636 115.177774 
L 264.821906 115.214635 
L 266.250251 115.177774 
L 267.678597 115.214635 
L 269.060867 115.214635 
L 270.489213 115.177774 
L 271.871482 115.140914 
L 273.299828 115.030332 
L 274.728174 115.030332 
L 276.064368 114.993472 
L 277.492713 114.993472 
L 278.874983 114.919751 
L 280.303329 114.88289 
L 281.685599 114.88289 
L 283.113944 114.84603 
L 284.54229 114.698588 
L 285.92456 114.809169 
L 287.352906 114.809169 
L 288.735176 114.403703 
L 290.163521 114.219401 
L 291.591867 114.956611 
L 292.881985 115.030332 
L 294.310331 114.735448 
L 295.692601 114.735448 
L 297.120946 114.329982 
L 298.503216 113.187306 
L 299.931562 111.159977 
L 301.359907 110.865092 
L 302.742177 110.349045 
L 304.170523 110.312184 
L 305.552793 110.201603 
L 306.981139 110.127882 
L 308.409484 110.201603 
L 309.699603 110.091021 
L 311.127948 109.796137 
L 312.510218 109.759276 
L 313.938564 109.722416 
L 315.320834 109.722416 
L 316.749179 109.722416 
L 318.177525 109.685555 
L 319.559795 109.685555 
L 320.98814 109.685555 
L 322.37041 109.611834 
L 323.798756 109.611834 
L 325.227102 109.538113 
L 326.51722 109.538113 
L 327.945566 109.501253 
L 329.327836 109.501253 
L 330.756181 109.611834 
L 332.138451 109.611834 
L 333.566797 109.574974 
L 334.995142 109.611834 
L 336.377412 109.574974 
L 337.805758 109.574974 
L 339.188028 109.574974 
L 340.616373 109.574974 
L 342.044719 109.574974 
L 343.380913 109.648695 
L 344.809259 109.611834 
L 346.191529 109.648695 
L 347.619874 109.759276 
L 349.002144 109.722416 
L 350.43049 109.685555 
L 351.858835 109.685555 
L 353.241105 109.611834 
L 354.669451 109.574974 
L 356.051721 109.501253 
L 357.480066 109.501253 
L 358.908412 109.464392 
L 360.198531 109.31695 
L 361.626876 109.132647 
L 363.009146 109.022066 
L 364.437492 109.058926 
L 365.819762 109.022066 
L 367.248107 108.985205 
L 368.676453 108.948345 
L 370.058723 108.911484 
L 371.487068 108.800903 
L 372.869338 108.837763 
L 374.297684 108.727181 
L 375.726029 108.727181 
L 377.016148 108.65346 
L 378.444494 108.6166 
L 379.826764 108.6166 
L 381.255109 108.65346 
L 382.637379 108.469158 
L 384.065725 108.469158 
L 385.49407 108.432297 
L 386.87634 108.542879 
L 388.304686 108.506018 
L 389.686956 108.506018 
L 391.115301 108.432297 
L 392.543647 108.321716 
L 393.833765 108.174273 
L 395.262111 108.137413 
L 396.644381 108.137413 
L 398.072727 108.026831 
L 399.454996 107.805668 
L 400.883342 107.547644 
L 402.311688 107.547644 
L 403.693958 107.473923 
L 405.122303 107.326481 
L 406.504573 107.2159 
L 407.932919 107.2159 
L 409.361264 106.957876 
L 410.697458 106.699852 
L 412.125804 106.736713 
L 413.508074 106.662992 
L 414.93642 106.51555 
L 416.31869 106.55241 
L 417.747035 106.662992 
L 419.175381 106.441829 
L 420.557651 106.404968 
L 421.985996 106.294386 
L 423.368266 106.220665 
L 424.796612 105.704618 
L 426.224957 105.741478 
L 427.515076 105.704618 
L 428.943421 105.925781 
L 430.325691 105.962642 
L 431.754037 106.036363 
L 433.136307 106.220665 
L 434.564653 106.294386 
L 435.992998 106.884155 
L 437.375268 107.805668 
L 438.803614 107.879389 
L 440.185884 107.91625 
L 441.614229 108.247995 
L 443.042575 109.280089 
L 444.332693 109.35381 
L 445.761039 109.538113 
L 447.143309 110.0173 
L 448.571654 110.127882 
L 449.953924 109.648695 
L 449.953924 94.72018 
L 449.953924 94.72018 
L 448.571654 94.72018 
L 447.143309 94.683319 
L 445.761039 94.646458 
L 444.332693 94.499016 
L 443.042575 94.462156 
L 441.614229 94.425295 
L 440.185884 94.425295 
L 438.803614 94.425295 
L 437.375268 94.425295 
L 435.992998 93.540643 
L 434.564653 93.540643 
L 433.136307 93.540643 
L 431.754037 93.540643 
L 430.325691 93.540643 
L 428.943421 93.503782 
L 427.515076 93.503782 
L 426.224957 93.503782 
L 424.796612 93.503782 
L 423.368266 93.503782 
L 421.985996 93.503782 
L 420.557651 93.503782 
L 419.175381 93.466921 
L 417.747035 93.798666 
L 416.31869 94.019829 
L 414.93642 94.019829 
L 413.508074 94.05669 
L 412.125804 94.05669 
L 410.697458 94.05669 
L 409.361264 94.093551 
L 407.932919 94.093551 
L 406.504573 94.093551 
L 405.122303 94.130411 
L 403.693958 94.130411 
L 402.311688 94.130411 
L 400.883342 94.130411 
L 399.454996 94.204132 
L 398.072727 94.204132 
L 396.644381 94.204132 
L 395.262111 94.204132 
L 393.833765 94.204132 
L 392.543647 94.240993 
L 391.115301 94.240993 
L 389.686956 94.314714 
L 388.304686 94.314714 
L 386.87634 94.351574 
L 385.49407 94.351574 
L 384.065725 94.351574 
L 382.637379 94.351574 
L 381.255109 94.425295 
L 379.826764 94.499016 
L 378.444494 94.499016 
L 377.016148 94.499016 
L 375.726029 94.499016 
L 374.297684 94.499016 
L 372.869338 94.535877 
L 371.487068 94.499016 
L 370.058723 94.572737 
L 368.676453 94.572737 
L 367.248107 94.572737 
L 365.819762 94.609598 
L 364.437492 94.609598 
L 363.009146 94.609598 
L 361.626876 94.646458 
L 360.198531 94.683319 
L 358.908412 94.72018 
L 357.480066 94.72018 
L 356.051721 94.683319 
L 354.669451 94.683319 
L 353.241105 94.683319 
L 351.858835 94.646458 
L 350.43049 94.646458 
L 349.002144 94.683319 
L 347.619874 94.683319 
L 346.191529 94.609598 
L 344.809259 94.572737 
L 343.380913 94.572737 
L 342.044719 94.609598 
L 340.616373 94.609598 
L 339.188028 94.609598 
L 337.805758 94.609598 
L 336.377412 94.609598 
L 334.995142 94.609598 
L 333.566797 94.609598 
L 332.138451 94.609598 
L 330.756181 94.609598 
L 329.327836 94.535877 
L 327.945566 94.535877 
L 326.51722 94.535877 
L 325.227102 94.535877 
L 323.798756 94.499016 
L 322.37041 94.499016 
L 320.98814 94.572737 
L 319.559795 94.572737 
L 318.177525 94.572737 
L 316.749179 94.609598 
L 315.320834 94.609598 
L 313.938564 94.609598 
L 312.510218 94.646458 
L 311.127948 94.683319 
L 309.699603 94.75704 
L 308.409484 94.75704 
L 306.981139 94.75704 
L 305.552793 94.904482 
L 304.170523 94.904482 
L 302.742177 94.904482 
L 301.359907 94.793901 
L 299.931562 94.830761 
L 298.503216 95.015064 
L 297.120946 95.899717 
L 295.692601 96.047159 
L 294.310331 96.084019 
L 292.881985 96.12088 
L 291.591867 96.12088 
L 290.163521 96.12088 
L 288.735176 96.12088 
L 287.352906 96.15774 
L 285.92456 96.15774 
L 284.54229 96.194601 
L 283.113944 96.231461 
L 281.685599 96.268322 
L 280.303329 96.268322 
L 278.874983 96.268322 
L 277.492713 96.268322 
L 276.064368 96.268322 
L 274.728174 96.305182 
L 273.299828 96.305182 
L 271.871482 96.342043 
L 270.489213 96.378903 
L 269.060867 96.378903 
L 267.678597 96.378903 
L 266.250251 96.378903 
L 264.821906 96.378903 
L 263.439636 96.378903 
L 262.01129 96.378903 
L 260.62902 96.378903 
L 259.200675 96.452625 
L 257.910556 96.452625 
L 256.482211 96.452625 
L 255.053865 96.489485 
L 253.671595 96.489485 
L 252.24325 96.526346 
L 250.86098 96.673788 
L 249.432634 97.55844 
L 248.004288 97.55844 
L 246.622019 97.55844 
L 245.193673 97.632162 
L 243.811403 97.632162 
L 242.383057 97.632162 
L 241.092939 97.632162 
L 239.664593 97.632162 
L 238.236248 97.632162 
L 236.853978 97.705883 
L 235.425632 97.632162 
L 234.043362 97.669022 
L 232.615017 97.742743 
L 231.186671 97.816464 
L 229.804401 98.000767 
L 228.376056 98.037627 
L 226.993786 98.037627 
L 225.56544 98.037627 
L 224.275321 98.037627 
L 222.846976 98.111348 
L 221.41863 98.111348 
L 220.03636 98.185069 
L 218.608015 98.185069 
L 217.225745 98.074488 
L 215.797399 98.148209 
L 214.369054 98.148209 
L 212.986784 98.148209 
L 211.558438 98.185069 
L 210.176168 98.185069 
L 208.747823 98.185069 
L 207.411628 98.22193 
L 205.983283 98.22193 
L 204.554937 98.258791 
L 203.172667 98.22193 
L 201.744322 98.22193 
L 200.362052 98.295651 
L 198.933706 98.332512 
L 196.215242 98.590535 
L 195.06335 99.143443 
L 194.095761 99.401467 
L 192.94387 98.811699 
L 192.022356 99.290885 
L 190.732238 99.327746 
L 188.105925 100.175538 
L 185.571764 100.175538 
L 184.788477 100.138678 
L 183.544434 100.28612 
L 182.254316 100.28612 
L 180.687743 100.359841 
L 179.720154 100.359841 
L 178.752565 100.396701 
L 174.513604 100.544144 
L 173.638167 100.544144 
L 169.122751 101.502517 
L 166.865044 101.613099 
L 166.127833 101.649959 
L 165.20632 101.760541 
L 164.607336 101.760541 
L 164.100504 101.760541 
L 161.05951 101.760541 
L 157.788138 101.981704 
L 156.129414 102.092286 
L 154.516766 102.129146 
L 151.613999 102.202867 
L 150.876788 102.313449 
L 149.678821 102.497752 
L 147.743643 102.718915 
L 144.748725 102.866357 
L 143.642909 103.456125 
L 141.062672 103.492986 
L 139.680402 103.75101 
L 138.067754 104.045894 
L 136.224727 104.119615 
L 134.888533 104.119615 
L 133.874868 104.119615 
L 133.183733 104.119615 
L 132.170069 104.267057 
L 131.20248 104.414499 
L 130.557421 104.525081 
L 130.373118 104.525081 
L 129.681983 104.48822 
L 128.76047 105.004268 
L 127.470351 104.561941 
L 127.009594 104.561941 
L 126.502762 104.635662 
L 125.765551 104.635662 
L 125.074417 104.635662 
L 124.429357 105.18857 
L 123.507844 105.18857 
L 123.185314 104.746244 
L 122.309877 105.299152 
L 121.204061 106.331247 
L 120.374699 107.179039 
L 119.913942 107.2159 
L 119.130656 107.2159 
L 118.623824 107.25276 
L 117.840537 107.805668 
L 117.195478 107.289621 
L 116.412192 107.289621 
L 113.371198 107.547644 
L 113.140819 107.584505 
L 111.297793 107.621366 
L 107.28921 105.18857 
L 105.123654 107.768808 
L 96.737883 109.538113 
L 83.237713 111.344279 
L 64.899599 112.597537 
L 49.095646 114.477424 
L 41.40101 116.689056 
L 33.614223 116.28359 
z
" clip-path="url(#pec4efb113c)" style="fill: #aeaeae"/>
   </g>
   <g id="PolyCollection_4">
    <path d="M 33.614223 93.909248 
L 33.614223 116.28359 
L 41.40101 116.689056 
L 49.095646 114.477424 
L 64.899599 112.597537 
L 83.237713 111.344279 
L 96.737883 109.538113 
L 105.123654 107.768808 
L 107.28921 105.18857 
L 111.297793 107.621366 
L 113.140819 107.584505 
L 113.371198 107.547644 
L 116.412192 107.289621 
L 117.195478 107.289621 
L 117.840537 107.805668 
L 118.623824 107.25276 
L 119.130656 107.2159 
L 119.913942 107.2159 
L 120.374699 107.179039 
L 121.204061 106.331247 
L 122.309877 105.299152 
L 123.185314 104.746244 
L 123.507844 105.18857 
L 124.429357 105.18857 
L 125.074417 104.635662 
L 125.765551 104.635662 
L 126.502762 104.635662 
L 127.009594 104.561941 
L 127.470351 104.561941 
L 128.76047 105.004268 
L 129.681983 104.48822 
L 130.373118 104.525081 
L 130.557421 104.525081 
L 131.20248 104.414499 
L 132.170069 104.267057 
L 133.183733 104.119615 
L 133.874868 104.119615 
L 134.888533 104.119615 
L 136.224727 104.119615 
L 138.067754 104.045894 
L 139.680402 103.75101 
L 141.062672 103.492986 
L 143.642909 103.456125 
L 144.748725 102.866357 
L 147.743643 102.718915 
L 149.678821 102.497752 
L 150.876788 102.313449 
L 151.613999 102.202867 
L 154.516766 102.129146 
L 156.129414 102.092286 
L 157.788138 101.981704 
L 161.05951 101.760541 
L 164.100504 101.760541 
L 164.607336 101.760541 
L 165.20632 101.760541 
L 166.127833 101.649959 
L 166.865044 101.613099 
L 169.122751 101.502517 
L 173.638167 100.544144 
L 174.513604 100.544144 
L 178.752565 100.396701 
L 179.720154 100.359841 
L 180.687743 100.359841 
L 182.254316 100.28612 
L 183.544434 100.28612 
L 184.788477 100.138678 
L 185.571764 100.175538 
L 188.105925 100.175538 
L 190.732238 99.327746 
L 192.022356 99.290885 
L 192.94387 98.811699 
L 194.095761 99.401467 
L 195.06335 99.143443 
L 196.215242 98.590535 
L 198.933706 98.332512 
L 200.362052 98.295651 
L 201.744322 98.22193 
L 203.172667 98.22193 
L 204.554937 98.258791 
L 205.983283 98.22193 
L 207.411628 98.22193 
L 208.747823 98.185069 
L 210.176168 98.185069 
L 211.558438 98.185069 
L 212.986784 98.148209 
L 214.369054 98.148209 
L 215.797399 98.148209 
L 217.225745 98.074488 
L 218.608015 98.185069 
L 220.03636 98.185069 
L 221.41863 98.111348 
L 222.846976 98.111348 
L 224.275321 98.037627 
L 225.56544 98.037627 
L 226.993786 98.037627 
L 228.376056 98.037627 
L 229.804401 98.000767 
L 231.186671 97.816464 
L 232.615017 97.742743 
L 234.043362 97.669022 
L 235.425632 97.632162 
L 236.853978 97.705883 
L 238.236248 97.632162 
L 239.664593 97.632162 
L 241.092939 97.632162 
L 242.383057 97.632162 
L 243.811403 97.632162 
L 245.193673 97.632162 
L 246.622019 97.55844 
L 248.004288 97.55844 
L 249.432634 97.55844 
L 250.86098 96.673788 
L 252.24325 96.526346 
L 253.671595 96.489485 
L 255.053865 96.489485 
L 256.482211 96.452625 
L 257.910556 96.452625 
L 259.200675 96.452625 
L 260.62902 96.378903 
L 262.01129 96.378903 
L 263.439636 96.378903 
L 264.821906 96.378903 
L 266.250251 96.378903 
L 267.678597 96.378903 
L 269.060867 96.378903 
L 270.489213 96.378903 
L 271.871482 96.342043 
L 273.299828 96.305182 
L 274.728174 96.305182 
L 276.064368 96.268322 
L 277.492713 96.268322 
L 278.874983 96.268322 
L 280.303329 96.268322 
L 281.685599 96.268322 
L 283.113944 96.231461 
L 284.54229 96.194601 
L 285.92456 96.15774 
L 287.352906 96.15774 
L 288.735176 96.12088 
L 290.163521 96.12088 
L 291.591867 96.12088 
L 292.881985 96.12088 
L 294.310331 96.084019 
L 295.692601 96.047159 
L 297.120946 95.899717 
L 298.503216 95.015064 
L 299.931562 94.830761 
L 301.359907 94.793901 
L 302.742177 94.904482 
L 304.170523 94.904482 
L 305.552793 94.904482 
L 306.981139 94.75704 
L 308.409484 94.75704 
L 309.699603 94.75704 
L 311.127948 94.683319 
L 312.510218 94.646458 
L 313.938564 94.609598 
L 315.320834 94.609598 
L 316.749179 94.609598 
L 318.177525 94.572737 
L 319.559795 94.572737 
L 320.98814 94.572737 
L 322.37041 94.499016 
L 323.798756 94.499016 
L 325.227102 94.535877 
L 326.51722 94.535877 
L 327.945566 94.535877 
L 329.327836 94.535877 
L 330.756181 94.609598 
L 332.138451 94.609598 
L 333.566797 94.609598 
L 334.995142 94.609598 
L 336.377412 94.609598 
L 337.805758 94.609598 
L 339.188028 94.609598 
L 340.616373 94.609598 
L 342.044719 94.609598 
L 343.380913 94.572737 
L 344.809259 94.572737 
L 346.191529 94.609598 
L 347.619874 94.683319 
L 349.002144 94.683319 
L 350.43049 94.646458 
L 351.858835 94.646458 
L 353.241105 94.683319 
L 354.669451 94.683319 
L 356.051721 94.683319 
L 357.480066 94.72018 
L 358.908412 94.72018 
L 360.198531 94.683319 
L 361.626876 94.646458 
L 363.009146 94.609598 
L 364.437492 94.609598 
L 365.819762 94.609598 
L 367.248107 94.572737 
L 368.676453 94.572737 
L 370.058723 94.572737 
L 371.487068 94.499016 
L 372.869338 94.535877 
L 374.297684 94.499016 
L 375.726029 94.499016 
L 377.016148 94.499016 
L 378.444494 94.499016 
L 379.826764 94.499016 
L 381.255109 94.425295 
L 382.637379 94.351574 
L 384.065725 94.351574 
L 385.49407 94.351574 
L 386.87634 94.351574 
L 388.304686 94.314714 
L 389.686956 94.314714 
L 391.115301 94.240993 
L 392.543647 94.240993 
L 393.833765 94.204132 
L 395.262111 94.204132 
L 396.644381 94.204132 
L 398.072727 94.204132 
L 399.454996 94.204132 
L 400.883342 94.130411 
L 402.311688 94.130411 
L 403.693958 94.130411 
L 405.122303 94.130411 
L 406.504573 94.093551 
L 407.932919 94.093551 
L 409.361264 94.093551 
L 410.697458 94.05669 
L 412.125804 94.05669 
L 413.508074 94.05669 
L 414.93642 94.019829 
L 416.31869 94.019829 
L 417.747035 93.798666 
L 419.175381 93.466921 
L 420.557651 93.503782 
L 421.985996 93.503782 
L 423.368266 93.503782 
L 424.796612 93.503782 
L 426.224957 93.503782 
L 427.515076 93.503782 
L 428.943421 93.503782 
L 430.325691 93.540643 
L 431.754037 93.540643 
L 433.136307 93.540643 
L 434.564653 93.540643 
L 435.992998 93.540643 
L 437.375268 94.425295 
L 438.803614 94.425295 
L 440.185884 94.425295 
L 441.614229 94.425295 
L 443.042575 94.462156 
L 444.332693 94.499016 
L 445.761039 94.646458 
L 447.143309 94.683319 
L 448.571654 94.72018 
L 449.953924 94.72018 
L 449.953924 87.016329 
L 449.953924 87.016329 
L 448.571654 87.016329 
L 447.143309 86.979468 
L 445.761039 86.942607 
L 444.332693 85.357605 
L 443.042575 85.357605 
L 441.614229 85.320744 
L 440.185884 85.320744 
L 438.803614 85.320744 
L 437.375268 85.320744 
L 435.992998 84.436091 
L 434.564653 84.436091 
L 433.136307 84.436091 
L 431.754037 84.436091 
L 430.325691 84.436091 
L 428.943421 84.436091 
L 427.515076 84.436091 
L 426.224957 84.436091 
L 424.796612 84.436091 
L 423.368266 84.436091 
L 421.985996 84.436091 
L 420.557651 84.472952 
L 419.175381 84.472952 
L 417.747035 84.472952 
L 416.31869 84.509812 
L 414.93642 84.509812 
L 413.508074 84.509812 
L 412.125804 84.509812 
L 410.697458 84.509812 
L 409.361264 84.509812 
L 407.932919 84.509812 
L 406.504573 84.509812 
L 405.122303 84.509812 
L 403.693958 84.509812 
L 402.311688 84.509812 
L 400.883342 84.509812 
L 399.454996 84.509812 
L 398.072727 84.509812 
L 396.644381 84.509812 
L 395.262111 84.509812 
L 393.833765 84.509812 
L 392.543647 84.694115 
L 391.115301 84.730976 
L 389.686956 84.767836 
L 388.304686 84.767836 
L 386.87634 84.767836 
L 385.49407 84.767836 
L 384.065725 84.767836 
L 382.637379 84.767836 
L 381.255109 84.767836 
L 379.826764 84.767836 
L 378.444494 84.767836 
L 377.016148 84.804697 
L 375.726029 84.767836 
L 374.297684 84.767836 
L 372.869338 84.804697 
L 371.487068 84.546673 
L 370.058723 84.546673 
L 368.676453 84.214928 
L 367.248107 84.214928 
L 365.819762 84.214928 
L 364.437492 84.214928 
L 363.009146 84.214928 
L 361.626876 84.214928 
L 360.198531 84.251789 
L 358.908412 84.251789 
L 357.480066 84.251789 
L 356.051721 84.214928 
L 354.669451 84.214928 
L 353.241105 84.214928 
L 351.858835 84.251789 
L 350.43049 84.251789 
L 349.002144 84.251789 
L 347.619874 84.251789 
L 346.191529 84.178068 
L 344.809259 84.141207 
L 343.380913 84.141207 
L 342.044719 84.141207 
L 340.616373 84.141207 
L 339.188028 84.141207 
L 337.805758 84.141207 
L 336.377412 84.141207 
L 334.995142 84.141207 
L 333.566797 84.141207 
L 332.138451 84.141207 
L 330.756181 84.141207 
L 329.327836 84.067486 
L 327.945566 84.067486 
L 326.51722 84.067486 
L 325.227102 84.067486 
L 323.798756 84.067486 
L 322.37041 84.067486 
L 320.98814 84.067486 
L 319.559795 84.067486 
L 318.177525 84.067486 
L 316.749179 84.030625 
L 315.320834 84.030625 
L 313.938564 84.030625 
L 312.510218 84.030625 
L 311.127948 84.030625 
L 309.699603 84.030625 
L 308.409484 84.030625 
L 306.981139 84.030625 
L 305.552793 84.030625 
L 304.170523 84.030625 
L 302.742177 84.030625 
L 301.359907 84.030625 
L 299.931562 84.030625 
L 298.503216 84.030625 
L 297.120946 84.030625 
L 295.692601 84.030625 
L 294.310331 84.030625 
L 292.881985 84.030625 
L 291.591867 84.030625 
L 290.163521 84.030625 
L 288.735176 84.030625 
L 287.352906 84.030625 
L 285.92456 84.030625 
L 284.54229 84.030625 
L 283.113944 84.030625 
L 281.685599 84.030625 
L 280.303329 84.030625 
L 278.874983 84.030625 
L 277.492713 84.030625 
L 276.064368 84.36237 
L 274.728174 84.399231 
L 273.299828 84.399231 
L 271.871482 84.399231 
L 270.489213 84.546673 
L 269.060867 84.546673 
L 267.678597 84.546673 
L 266.250251 84.546673 
L 264.821906 84.546673 
L 263.439636 84.546673 
L 262.01129 84.546673 
L 260.62902 84.546673 
L 259.200675 84.546673 
L 257.910556 84.546673 
L 256.482211 84.546673 
L 255.053865 84.583533 
L 253.671595 84.583533 
L 252.24325 84.583533 
L 250.86098 84.583533 
L 249.432634 84.32551 
L 248.004288 84.472952 
L 246.622019 84.436091 
L 245.193673 84.436091 
L 243.811403 84.436091 
L 242.383057 84.436091 
L 241.092939 84.436091 
L 239.664593 84.436091 
L 238.236248 84.436091 
L 236.853978 84.472952 
L 235.425632 84.472952 
L 234.043362 84.472952 
L 232.615017 84.436091 
L 231.186671 84.436091 
L 229.804401 84.436091 
L 228.376056 84.436091 
L 226.993786 84.436091 
L 225.56544 84.436091 
L 224.275321 84.436091 
L 222.846976 84.436091 
L 221.41863 84.436091 
L 220.03636 84.436091 
L 218.608015 84.472952 
L 217.225745 84.436091 
L 215.797399 84.472952 
L 214.369054 84.436091 
L 212.986784 84.436091 
L 211.558438 84.436091 
L 210.176168 84.436091 
L 208.747823 84.436091 
L 207.411628 84.436091 
L 205.983283 84.472952 
L 204.554937 84.472952 
L 203.172667 84.436091 
L 201.744322 84.436091 
L 200.362052 84.436091 
L 198.933706 84.509812 
L 196.215242 84.767836 
L 195.06335 85.394465 
L 194.095761 85.468186 
L 192.94387 84.878418 
L 192.022356 86.315978 
L 190.732238 86.315978 
L 188.105925 87.642958 
L 185.571764 87.642958 
L 184.788477 87.606097 
L 183.544434 87.753539 
L 182.254316 87.716679 
L 180.687743 87.716679 
L 179.720154 87.716679 
L 178.752565 87.716679 
L 174.513604 88.011563 
L 173.638167 88.011563 
L 169.122751 88.195866 
L 166.865044 88.159005 
L 166.127833 88.159005 
L 165.20632 88.232726 
L 164.607336 88.232726 
L 164.100504 88.232726 
L 161.05951 88.748773 
L 157.788138 88.859355 
L 156.129414 88.859355 
L 154.516766 88.859355 
L 151.613999 88.859355 
L 150.876788 88.822495 
L 149.678821 88.822495 
L 147.743643 88.711913 
L 144.748725 88.675052 
L 143.642909 89.633426 
L 141.062672 89.744008 
L 139.680402 89.854589 
L 138.067754 89.744008 
L 136.224727 89.744008 
L 134.888533 89.707147 
L 133.874868 89.707147 
L 133.183733 89.707147 
L 132.170069 89.670287 
L 131.20248 89.670287 
L 130.557421 89.707147 
L 130.373118 89.707147 
L 129.681983 89.707147 
L 128.76047 90.112613 
L 127.470351 89.707147 
L 127.009594 89.707147 
L 126.502762 89.744008 
L 125.765551 89.670287 
L 125.074417 89.670287 
L 124.429357 90.038892 
L 123.507844 89.965171 
L 123.185314 89.559705 
L 122.309877 90.075753 
L 121.204061 89.92831 
L 120.374699 89.965171 
L 119.913942 89.965171 
L 119.130656 89.965171 
L 118.623824 90.002032 
L 117.840537 90.481218 
L 117.195478 89.965171 
L 116.412192 89.965171 
L 113.371198 90.886684 
L 113.140819 90.923545 
L 111.297793 90.886684 
L 107.28921 90.038892 
L 105.123654 90.886684 
L 96.737883 91.623895 
L 83.237713 92.029361 
L 64.899599 92.69285 
L 49.095646 93.098316 
L 41.40101 94.05669 
L 33.614223 93.909248 
z
" clip-path="url(#pec4efb113c)" style="fill: #d5dce5"/>
   </g>
   <g id="matplotlib.axis_1">
    <g id="xtick_1">
     <g id="line2d_1">
      <defs>
       <path id="ma1da577c9b" d="M 0 0 
L 0 3.5 
" style="stroke: #000000; stroke-width: 0.8"/>
      </defs>
      <g>
       <use xlink:href="#ma1da577c9b" x="71.350192" y="270.913519" style="stroke: #000000; stroke-width: 0.8"/>
      </g>
     </g>
     <g id="text_1">
      <!-- 2004 -->
      <g transform="translate(58.625192 285.511957) scale(0.1 -0.1)">
       <defs>
        <path id="DejaVuSans-32" d="M 1228 531 
L 3431 531 
L 3431 0 
L 469 0 
L 469 531 
Q 828 903 1448 1529 
Q 2069 2156 2228 2338 
Q 2531 2678 2651 2914 
Q 2772 3150 2772 3378 
Q 2772 3750 2511 3984 
Q 2250 4219 1831 4219 
Q 1534 4219 1204 4116 
Q 875 4013 500 3803 
L 500 4441 
Q 881 4594 1212 4672 
Q 1544 4750 1819 4750 
Q 2544 4750 2975 4387 
Q 3406 4025 3406 3419 
Q 3406 3131 3298 2873 
Q 3191 2616 2906 2266 
Q 2828 2175 2409 1742 
Q 1991 1309 1228 531 
z
" transform="scale(0.015625)"/>
        <path id="DejaVuSans-30" d="M 2034 4250 
Q 1547 4250 1301 3770 
Q 1056 3291 1056 2328 
Q 1056 1369 1301 889 
Q 1547 409 2034 409 
Q 2525 409 2770 889 
Q 3016 1369 3016 2328 
Q 3016 3291 2770 3770 
Q 2525 4250 2034 4250 
z
M 2034 4750 
Q 2819 4750 3233 4129 
Q 3647 3509 3647 2328 
Q 3647 1150 3233 529 
Q 2819 -91 2034 -91 
Q 1250 -91 836 529 
Q 422 1150 422 2328 
Q 422 3509 836 4129 
Q 1250 4750 2034 4750 
z
" transform="scale(0.015625)"/>
        <path id="DejaVuSans-34" d="M 2419 4116 
L 825 1625 
L 2419 1625 
L 2419 4116 
z
M 2253 4666 
L 3047 4666 
L 3047 1625 
L 3713 1625 
L 3713 1100 
L 3047 1100 
L 3047 0 
L 2419 0 
L 2419 1100 
L 313 1100 
L 313 1709 
L 2253 4666 
z
" transform="scale(0.015625)"/>
       </defs>
       <use xlink:href="#DejaVuSans-32"/>
       <use xlink:href="#DejaVuSans-30" x="63.623047"/>
       <use xlink:href="#DejaVuSans-30" x="127.246094"/>
       <use xlink:href="#DejaVuSans-34" x="190.869141"/>
      </g>
     </g>
    </g>
    <g id="xtick_2">
     <g id="line2d_2">
      <g>
       <use xlink:href="#ma1da577c9b" x="138.666737" y="270.913519" style="stroke: #000000; stroke-width: 0.8"/>
      </g>
     </g>
     <g id="text_2">
      <!-- 2008 -->
      <g transform="translate(125.941737 285.511957) scale(0.1 -0.1)">
       <defs>
        <path id="DejaVuSans-38" d="M 2034 2216 
Q 1584 2216 1326 1975 
Q 1069 1734 1069 1313 
Q 1069 891 1326 650 
Q 1584 409 2034 409 
Q 2484 409 2743 651 
Q 3003 894 3003 1313 
Q 3003 1734 2745 1975 
Q 2488 2216 2034 2216 
z
M 1403 2484 
Q 997 2584 770 2862 
Q 544 3141 544 3541 
Q 544 4100 942 4425 
Q 1341 4750 2034 4750 
Q 2731 4750 3128 4425 
Q 3525 4100 3525 3541 
Q 3525 3141 3298 2862 
Q 3072 2584 2669 2484 
Q 3125 2378 3379 2068 
Q 3634 1759 3634 1313 
Q 3634 634 3220 271 
Q 2806 -91 2034 -91 
Q 1263 -91 848 271 
Q 434 634 434 1313 
Q 434 1759 690 2068 
Q 947 2378 1403 2484 
z
M 1172 3481 
Q 1172 3119 1398 2916 
Q 1625 2713 2034 2713 
Q 2441 2713 2670 2916 
Q 2900 3119 2900 3481 
Q 2900 3844 2670 4047 
Q 2441 4250 2034 4250 
Q 1625 4250 1398 4047 
Q 1172 3844 1172 3481 
z
" transform="scale(0.015625)"/>
       </defs>
       <use xlink:href="#DejaVuSans-32"/>
       <use xlink:href="#DejaVuSans-30" x="63.623047"/>
       <use xlink:href="#DejaVuSans-30" x="127.246094"/>
       <use xlink:href="#DejaVuSans-38" x="190.869141"/>
      </g>
     </g>
    </g>
    <g id="xtick_3">
     <g id="line2d_3">
      <g>
       <use xlink:href="#ma1da577c9b" x="205.983283" y="270.913519" style="stroke: #000000; stroke-width: 0.8"/>
      </g>
     </g>
     <g id="text_3">
      <!-- 2012 -->
      <g transform="translate(193.258283 285.511957) scale(0.1 -0.1)">
       <defs>
        <path id="DejaVuSans-31" d="M 794 531 
L 1825 531 
L 1825 4091 
L 703 3866 
L 703 4441 
L 1819 4666 
L 2450 4666 
L 2450 531 
L 3481 531 
L 3481 0 
L 794 0 
L 794 531 
z
" transform="scale(0.015625)"/>
       </defs>
       <use xlink:href="#DejaVuSans-32"/>
       <use xlink:href="#DejaVuSans-30" x="63.623047"/>
       <use xlink:href="#DejaVuSans-31" x="127.246094"/>
       <use xlink:href="#DejaVuSans-32" x="190.869141"/>
      </g>
     </g>
    </g>
    <g id="xtick_4">
     <g id="line2d_4">
      <g>
       <use xlink:href="#ma1da577c9b" x="273.299828" y="270.913519" style="stroke: #000000; stroke-width: 0.8"/>
      </g>
     </g>
     <g id="text_4">
      <!-- 2016 -->
      <g transform="translate(260.574828 285.511957) scale(0.1 -0.1)">
       <defs>
        <path id="DejaVuSans-36" d="M 2113 2584 
Q 1688 2584 1439 2293 
Q 1191 2003 1191 1497 
Q 1191 994 1439 701 
Q 1688 409 2113 409 
Q 2538 409 2786 701 
Q 3034 994 3034 1497 
Q 3034 2003 2786 2293 
Q 2538 2584 2113 2584 
z
M 3366 4563 
L 3366 3988 
Q 3128 4100 2886 4159 
Q 2644 4219 2406 4219 
Q 1781 4219 1451 3797 
Q 1122 3375 1075 2522 
Q 1259 2794 1537 2939 
Q 1816 3084 2150 3084 
Q 2853 3084 3261 2657 
Q 3669 2231 3669 1497 
Q 3669 778 3244 343 
Q 2819 -91 2113 -91 
Q 1303 -91 875 529 
Q 447 1150 447 2328 
Q 447 3434 972 4092 
Q 1497 4750 2381 4750 
Q 2619 4750 2861 4703 
Q 3103 4656 3366 4563 
z
" transform="scale(0.015625)"/>
       </defs>
       <use xlink:href="#DejaVuSans-32"/>
       <use xlink:href="#DejaVuSans-30" x="63.623047"/>
       <use xlink:href="#DejaVuSans-31" x="127.246094"/>
       <use xlink:href="#DejaVuSans-36" x="190.869141"/>
      </g>
     </g>
    </g>
    <g id="xtick_5">
     <g id="line2d_5">
      <g>
       <use xlink:href="#ma1da577c9b" x="340.616373" y="270.913519" style="stroke: #000000; stroke-width: 0.8"/>
      </g>
     </g>
     <g id="text_5">
      <!-- 2020 -->
      <g transform="translate(327.891373 285.511957) scale(0.1 -0.1)">
       <use xlink:href="#DejaVuSans-32"/>
       <use xlink:href="#DejaVuSans-30" x="63.623047"/>
       <use xlink:href="#DejaVuSans-32" x="127.246094"/>
       <use xlink:href="#DejaVuSans-30" x="190.869141"/>
      </g>
     </g>
    </g>
    <g id="xtick_6">
     <g id="line2d_6">
      <g>
       <use xlink:href="#ma1da577c9b" x="407.932919" y="270.913519" style="stroke: #000000; stroke-width: 0.8"/>
      </g>
     </g>
     <g id="text_6">
      <!-- 2024 -->
      <g transform="translate(395.207919 285.511957) scale(0.1 -0.1)">
       <use xlink:href="#DejaVuSans-32"/>
       <use xlink:href="#DejaVuSans-30" x="63.623047"/>
       <use xlink:href="#DejaVuSans-32" x="127.246094"/>
       <use xlink:href="#DejaVuSans-34" x="190.869141"/>
      </g>
     </g>
    </g>
    <g id="text_7">
     <!-- Year -->
     <g transform="translate(239.86375 302.9893) scale(0.15 -0.15)">
      <defs>
       <path id="DejaVuSans-59" d="M -13 4666 
L 666 4666 
L 1959 2747 
L 3244 4666 
L 3922 4666 
L 2272 2222 
L 2272 0 
L 1638 0 
L 1638 2222 
L -13 4666 
z
" transform="scale(0.015625)"/>
       <path id="DejaVuSans-65" d="M 3597 1894 
L 3597 1613 
L 953 1613 
Q 991 1019 1311 708 
Q 1631 397 2203 397 
Q 2534 397 2845 478 
Q 3156 559 3463 722 
L 3463 178 
Q 3153 47 2828 -22 
Q 2503 -91 2169 -91 
Q 1331 -91 842 396 
Q 353 884 353 1716 
Q 353 2575 817 3079 
Q 1281 3584 2069 3584 
Q 2775 3584 3186 3129 
Q 3597 2675 3597 1894 
z
M 3022 2063 
Q 3016 2534 2758 2815 
Q 2500 3097 2075 3097 
Q 1594 3097 1305 2825 
Q 1016 2553 972 2059 
L 3022 2063 
z
" transform="scale(0.015625)"/>
       <path id="DejaVuSans-61" d="M 2194 1759 
Q 1497 1759 1228 1600 
Q 959 1441 959 1056 
Q 959 750 1161 570 
Q 1363 391 1709 391 
Q 2188 391 2477 730 
Q 2766 1069 2766 1631 
L 2766 1759 
L 2194 1759 
z
M 3341 1997 
L 3341 0 
L 2766 0 
L 2766 531 
Q 2569 213 2275 61 
Q 1981 -91 1556 -91 
Q 1019 -91 701 211 
Q 384 513 384 1019 
Q 384 1609 779 1909 
Q 1175 2209 1959 2209 
L 2766 2209 
L 2766 2266 
Q 2766 2663 2505 2880 
Q 2244 3097 1772 3097 
Q 1472 3097 1187 3025 
Q 903 2953 641 2809 
L 641 3341 
Q 956 3463 1253 3523 
Q 1550 3584 1831 3584 
Q 2591 3584 2966 3190 
Q 3341 2797 3341 1997 
z
" transform="scale(0.015625)"/>
       <path id="DejaVuSans-72" d="M 2631 2963 
Q 2534 3019 2420 3045 
Q 2306 3072 2169 3072 
Q 1681 3072 1420 2755 
Q 1159 2438 1159 1844 
L 1159 0 
L 581 0 
L 581 3500 
L 1159 3500 
L 1159 2956 
Q 1341 3275 1631 3429 
Q 1922 3584 2338 3584 
Q 2397 3584 2469 3576 
Q 2541 3569 2628 3553 
L 2631 2963 
z
" transform="scale(0.015625)"/>
      </defs>
      <use xlink:href="#DejaVuSans-59"/>
      <use xlink:href="#DejaVuSans-65" x="47.833984"/>
      <use xlink:href="#DejaVuSans-61" x="109.357422"/>
      <use xlink:href="#DejaVuSans-72" x="170.636719"/>
     </g>
    </g>
   </g>
   <g id="matplotlib.axis_2">
    <g id="ytick_1">
     <g id="line2d_7">
      <defs>
       <path id="m6bf28e5246" d="M 0 0 
L -3.5 0 
" style="stroke: #000000; stroke-width: 0.8"/>
      </defs>
      <g>
       <use xlink:href="#m6bf28e5246" x="61.49" y="270.913519" style="stroke: #000000; stroke-width: 0.8"/>
      </g>
     </g>
     <g id="text_8">
      <!-- 0 -->
      <g transform="translate(48.1275 274.712738) scale(0.1 -0.1)">
       <use xlink:href="#DejaVuSans-30"/>
      </g>
     </g>
    </g>
    <g id="ytick_2">
     <g id="line2d_8">
      <g>
       <use xlink:href="#m6bf28e5246" x="61.49" y="234.052988" style="stroke: #000000; stroke-width: 0.8"/>
      </g>
     </g>
     <g id="text_9">
      <!-- 1000 -->
      <g transform="translate(29.04 237.852207) scale(0.1 -0.1)">
       <use xlink:href="#DejaVuSans-31"/>
       <use xlink:href="#DejaVuSans-30" x="63.623047"/>
       <use xlink:href="#DejaVuSans-30" x="127.246094"/>
       <use xlink:href="#DejaVuSans-30" x="190.869141"/>
      </g>
     </g>
    </g>
    <g id="ytick_3">
     <g id="line2d_9">
      <g>
       <use xlink:href="#m6bf28e5246" x="61.49" y="197.192457" style="stroke: #000000; stroke-width: 0.8"/>
      </g>
     </g>
     <g id="text_10">
      <!-- 2000 -->
      <g transform="translate(29.04 200.991675) scale(0.1 -0.1)">
       <use xlink:href="#DejaVuSans-32"/>
       <use xlink:href="#DejaVuSans-30" x="63.623047"/>
       <use xlink:href="#DejaVuSans-30" x="127.246094"/>
       <use xlink:href="#DejaVuSans-30" x="190.869141"/>
      </g>
     </g>
    </g>
    <g id="ytick_4">
     <g id="line2d_10">
      <g>
       <use xlink:href="#m6bf28e5246" x="61.49" y="160.331925" style="stroke: #000000; stroke-width: 0.8"/>
      </g>
     </g>
     <g id="text_11">
      <!-- 3000 -->
      <g transform="translate(29.04 164.131144) scale(0.1 -0.1)">
       <defs>
        <path id="DejaVuSans-33" d="M 2597 2516 
Q 3050 2419 3304 2112 
Q 3559 1806 3559 1356 
Q 3559 666 3084 287 
Q 2609 -91 1734 -91 
Q 1441 -91 1130 -33 
Q 819 25 488 141 
L 488 750 
Q 750 597 1062 519 
Q 1375 441 1716 441 
Q 2309 441 2620 675 
Q 2931 909 2931 1356 
Q 2931 1769 2642 2001 
Q 2353 2234 1838 2234 
L 1294 2234 
L 1294 2753 
L 1863 2753 
Q 2328 2753 2575 2939 
Q 2822 3125 2822 3475 
Q 2822 3834 2567 4026 
Q 2313 4219 1838 4219 
Q 1578 4219 1281 4162 
Q 984 4106 628 3988 
L 628 4550 
Q 988 4650 1302 4700 
Q 1616 4750 1894 4750 
Q 2613 4750 3031 4423 
Q 3450 4097 3450 3541 
Q 3450 3153 3228 2886 
Q 3006 2619 2597 2516 
z
" transform="scale(0.015625)"/>
       </defs>
       <use xlink:href="#DejaVuSans-33"/>
       <use xlink:href="#DejaVuSans-30" x="63.623047"/>
       <use xlink:href="#DejaVuSans-30" x="127.246094"/>
       <use xlink:href="#DejaVuSans-30" x="190.869141"/>
      </g>
     </g>
    </g>
    <g id="ytick_5">
     <g id="line2d_11">
      <g>
       <use xlink:href="#m6bf28e5246" x="61.49" y="123.471394" style="stroke: #000000; stroke-width: 0.8"/>
      </g>
     </g>
     <g id="text_12">
      <!-- 4000 -->
      <g transform="translate(29.04 127.270613) scale(0.1 -0.1)">
       <use xlink:href="#DejaVuSans-34"/>
       <use xlink:href="#DejaVuSans-30" x="63.623047"/>
       <use xlink:href="#DejaVuSans-30" x="127.246094"/>
       <use xlink:href="#DejaVuSans-30" x="190.869141"/>
      </g>
     </g>
    </g>
    <g id="ytick_6">
     <g id="line2d_12">
      <g>
       <use xlink:href="#m6bf28e5246" x="61.49" y="86.610863" style="stroke: #000000; stroke-width: 0.8"/>
      </g>
     </g>
     <g id="text_13">
      <!-- 5000 -->
      <g transform="translate(29.04 90.410081) scale(0.1 -0.1)">
       <defs>
        <path id="DejaVuSans-35" d="M 691 4666 
L 3169 4666 
L 3169 4134 
L 1269 4134 
L 1269 2991 
Q 1406 3038 1543 3061 
Q 1681 3084 1819 3084 
Q 2600 3084 3056 2656 
Q 3513 2228 3513 1497 
Q 3513 744 3044 326 
Q 2575 -91 1722 -91 
Q 1428 -91 1123 -41 
Q 819 9 494 109 
L 494 744 
Q 775 591 1075 516 
Q 1375 441 1709 441 
Q 2250 441 2565 725 
Q 2881 1009 2881 1497 
Q 2881 1984 2565 2268 
Q 2250 2553 1709 2553 
Q 1456 2553 1204 2497 
Q 953 2441 691 2322 
L 691 4666 
z
" transform="scale(0.015625)"/>
       </defs>
       <use xlink:href="#DejaVuSans-35"/>
       <use xlink:href="#DejaVuSans-30" x="63.623047"/>
       <use xlink:href="#DejaVuSans-30" x="127.246094"/>
       <use xlink:href="#DejaVuSans-30" x="190.869141"/>
      </g>
     </g>
    </g>
    <g id="text_14">
     <!-- Number of proteins -->
     <g transform="translate(21.920469 245.489062) rotate(-90) scale(0.15 -0.15)">
      <defs>
       <path id="DejaVuSans-4e" d="M 628 4666 
L 1478 4666 
L 3547 763 
L 3547 4666 
L 4159 4666 
L 4159 0 
L 3309 0 
L 1241 3903 
L 1241 0 
L 628 0 
L 628 4666 
z
" transform="scale(0.015625)"/>
       <path id="DejaVuSans-75" d="M 544 1381 
L 544 3500 
L 1119 3500 
L 1119 1403 
Q 1119 906 1312 657 
Q 1506 409 1894 409 
Q 2359 409 2629 706 
Q 2900 1003 2900 1516 
L 2900 3500 
L 3475 3500 
L 3475 0 
L 2900 0 
L 2900 538 
Q 2691 219 2414 64 
Q 2138 -91 1772 -91 
Q 1169 -91 856 284 
Q 544 659 544 1381 
z
M 1991 3584 
L 1991 3584 
z
" transform="scale(0.015625)"/>
       <path id="DejaVuSans-6d" d="M 3328 2828 
Q 3544 3216 3844 3400 
Q 4144 3584 4550 3584 
Q 5097 3584 5394 3201 
Q 5691 2819 5691 2113 
L 5691 0 
L 5113 0 
L 5113 2094 
Q 5113 2597 4934 2840 
Q 4756 3084 4391 3084 
Q 3944 3084 3684 2787 
Q 3425 2491 3425 1978 
L 3425 0 
L 2847 0 
L 2847 2094 
Q 2847 2600 2669 2842 
Q 2491 3084 2119 3084 
Q 1678 3084 1418 2786 
Q 1159 2488 1159 1978 
L 1159 0 
L 581 0 
L 581 3500 
L 1159 3500 
L 1159 2956 
Q 1356 3278 1631 3431 
Q 1906 3584 2284 3584 
Q 2666 3584 2933 3390 
Q 3200 3197 3328 2828 
z
" transform="scale(0.015625)"/>
       <path id="DejaVuSans-62" d="M 3116 1747 
Q 3116 2381 2855 2742 
Q 2594 3103 2138 3103 
Q 1681 3103 1420 2742 
Q 1159 2381 1159 1747 
Q 1159 1113 1420 752 
Q 1681 391 2138 391 
Q 2594 391 2855 752 
Q 3116 1113 3116 1747 
z
M 1159 2969 
Q 1341 3281 1617 3432 
Q 1894 3584 2278 3584 
Q 2916 3584 3314 3078 
Q 3713 2572 3713 1747 
Q 3713 922 3314 415 
Q 2916 -91 2278 -91 
Q 1894 -91 1617 61 
Q 1341 213 1159 525 
L 1159 0 
L 581 0 
L 581 4863 
L 1159 4863 
L 1159 2969 
z
" transform="scale(0.015625)"/>
       <path id="DejaVuSans-20" transform="scale(0.015625)"/>
       <path id="DejaVuSans-6f" d="M 1959 3097 
Q 1497 3097 1228 2736 
Q 959 2375 959 1747 
Q 959 1119 1226 758 
Q 1494 397 1959 397 
Q 2419 397 2687 759 
Q 2956 1122 2956 1747 
Q 2956 2369 2687 2733 
Q 2419 3097 1959 3097 
z
M 1959 3584 
Q 2709 3584 3137 3096 
Q 3566 2609 3566 1747 
Q 3566 888 3137 398 
Q 2709 -91 1959 -91 
Q 1206 -91 779 398 
Q 353 888 353 1747 
Q 353 2609 779 3096 
Q 1206 3584 1959 3584 
z
" transform="scale(0.015625)"/>
       <path id="DejaVuSans-66" d="M 2375 4863 
L 2375 4384 
L 1825 4384 
Q 1516 4384 1395 4259 
Q 1275 4134 1275 3809 
L 1275 3500 
L 2222 3500 
L 2222 3053 
L 1275 3053 
L 1275 0 
L 697 0 
L 697 3053 
L 147 3053 
L 147 3500 
L 697 3500 
L 697 3744 
Q 697 4328 969 4595 
Q 1241 4863 1831 4863 
L 2375 4863 
z
" transform="scale(0.015625)"/>
       <path id="DejaVuSans-70" d="M 1159 525 
L 1159 -1331 
L 581 -1331 
L 581 3500 
L 1159 3500 
L 1159 2969 
Q 1341 3281 1617 3432 
Q 1894 3584 2278 3584 
Q 2916 3584 3314 3078 
Q 3713 2572 3713 1747 
Q 3713 922 3314 415 
Q 2916 -91 2278 -91 
Q 1894 -91 1617 61 
Q 1341 213 1159 525 
z
M 3116 1747 
Q 3116 2381 2855 2742 
Q 2594 3103 2138 3103 
Q 1681 3103 1420 2742 
Q 1159 2381 1159 1747 
Q 1159 1113 1420 752 
Q 1681 391 2138 391 
Q 2594 391 2855 752 
Q 3116 1113 3116 1747 
z
" transform="scale(0.015625)"/>
       <path id="DejaVuSans-74" d="M 1172 4494 
L 1172 3500 
L 2356 3500 
L 2356 3053 
L 1172 3053 
L 1172 1153 
Q 1172 725 1289 603 
Q 1406 481 1766 481 
L 2356 481 
L 2356 0 
L 1766 0 
Q 1100 0 847 248 
Q 594 497 594 1153 
L 594 3053 
L 172 3053 
L 172 3500 
L 594 3500 
L 594 4494 
L 1172 4494 
z
" transform="scale(0.015625)"/>
       <path id="DejaVuSans-69" d="M 603 3500 
L 1178 3500 
L 1178 0 
L 603 0 
L 603 3500 
z
M 603 4863 
L 1178 4863 
L 1178 4134 
L 603 4134 
L 603 4863 
z
" transform="scale(0.015625)"/>
       <path id="DejaVuSans-6e" d="M 3513 2113 
L 3513 0 
L 2938 0 
L 2938 2094 
Q 2938 2591 2744 2837 
Q 2550 3084 2163 3084 
Q 1697 3084 1428 2787 
Q 1159 2491 1159 1978 
L 1159 0 
L 581 0 
L 581 3500 
L 1159 3500 
L 1159 2956 
Q 1366 3272 1645 3428 
Q 1925 3584 2291 3584 
Q 2894 3584 3203 3211 
Q 3513 2838 3513 2113 
z
" transform="scale(0.015625)"/>
       <path id="DejaVuSans-73" d="M 2834 3397 
L 2834 2853 
Q 2591 2978 2328 3040 
Q 2066 3103 1784 3103 
Q 1356 3103 1142 2972 
Q 928 2841 928 2578 
Q 928 2378 1081 2264 
Q 1234 2150 1697 2047 
L 1894 2003 
Q 2506 1872 2764 1633 
Q 3022 1394 3022 966 
Q 3022 478 2636 193 
Q 2250 -91 1575 -91 
Q 1294 -91 989 -36 
Q 684 19 347 128 
L 347 722 
Q 666 556 975 473 
Q 1284 391 1588 391 
Q 1994 391 2212 530 
Q 2431 669 2431 922 
Q 2431 1156 2273 1281 
Q 2116 1406 1581 1522 
L 1381 1569 
Q 847 1681 609 1914 
Q 372 2147 372 2553 
Q 372 3047 722 3315 
Q 1072 3584 1716 3584 
Q 2034 3584 2315 3537 
Q 2597 3491 2834 3397 
z
" transform="scale(0.015625)"/>
      </defs>
      <use xlink:href="#DejaVuSans-4e"/>
      <use xlink:href="#DejaVuSans-75" x="74.804688"/>
      <use xlink:href="#DejaVuSans-6d" x="138.183594"/>
      <use xlink:href="#DejaVuSans-62" x="235.595703"/>
      <use xlink:href="#DejaVuSans-65" x="299.072266"/>
      <use xlink:href="#DejaVuSans-72" x="360.595703"/>
      <use xlink:href="#DejaVuSans-20" x="401.708984"/>
      <use xlink:href="#DejaVuSans-6f" x="433.496094"/>
      <use xlink:href="#DejaVuSans-66" x="494.677734"/>
      <use xlink:href="#DejaVuSans-20" x="529.882812"/>
      <use xlink:href="#DejaVuSans-70" x="561.669922"/>
      <use xlink:href="#DejaVuSans-72" x="625.146484"/>
      <use xlink:href="#DejaVuSans-6f" x="664.009766"/>
      <use xlink:href="#DejaVuSans-74" x="725.191406"/>
      <use xlink:href="#DejaVuSans-65" x="764.400391"/>
      <use xlink:href="#DejaVuSans-69" x="825.923828"/>
      <use xlink:href="#DejaVuSans-6e" x="853.707031"/>
      <use xlink:href="#DejaVuSans-73" x="917.085938"/>
     </g>
    </g>
   </g>
   <g id="patch_3">
    <path d="M 61.49 270.913519 
L 61.49 74.686481 
" style="fill: none; stroke: #000000; stroke-width: 0.8; stroke-linejoin: miter; stroke-linecap: square"/>
   </g>
   <g id="patch_4">
    <path d="M 61.49 270.913519 
L 450 270.913519 
" style="fill: none; stroke: #000000; stroke-width: 0.8; stroke-linejoin: miter; stroke-linecap: square"/>
   </g>
   <g id="legend_1">
    <g id="patch_5">
     <path d="M 98.395781 69.686481 
L 413.094219 69.686481 
Q 415.094219 69.686481 415.094219 67.686481 
L 415.094219 39.330231 
Q 415.094219 37.330231 413.094219 37.330231 
L 98.395781 37.330231 
Q 96.395781 37.330231 96.395781 39.330231 
L 96.395781 67.686481 
Q 96.395781 69.686481 98.395781 69.686481 
z
" style="fill: #ffffff; opacity: 0.8; stroke: #cccccc; stroke-linejoin: miter"/>
    </g>
    <g id="patch_6">
     <path d="M 100.395781 48.928668 
L 120.395781 48.928668 
L 120.395781 41.928668 
L 100.395781 41.928668 
z
" style="fill: #fb363b"/>
    </g>
    <g id="text_15">
     <!-- Biological role published -->
     <g transform="translate(128.395781 48.928668) scale(0.1 -0.1)">
      <defs>
       <path id="DejaVuSans-42" d="M 1259 2228 
L 1259 519 
L 2272 519 
Q 2781 519 3026 730 
Q 3272 941 3272 1375 
Q 3272 1813 3026 2020 
Q 2781 2228 2272 2228 
L 1259 2228 
z
M 1259 4147 
L 1259 2741 
L 2194 2741 
Q 2656 2741 2882 2914 
Q 3109 3088 3109 3444 
Q 3109 3797 2882 3972 
Q 2656 4147 2194 4147 
L 1259 4147 
z
M 628 4666 
L 2241 4666 
Q 2963 4666 3353 4366 
Q 3744 4066 3744 3513 
Q 3744 3084 3544 2831 
Q 3344 2578 2956 2516 
Q 3422 2416 3680 2098 
Q 3938 1781 3938 1306 
Q 3938 681 3513 340 
Q 3088 0 2303 0 
L 628 0 
L 628 4666 
z
" transform="scale(0.015625)"/>
       <path id="DejaVuSans-6c" d="M 603 4863 
L 1178 4863 
L 1178 0 
L 603 0 
L 603 4863 
z
" transform="scale(0.015625)"/>
       <path id="DejaVuSans-67" d="M 2906 1791 
Q 2906 2416 2648 2759 
Q 2391 3103 1925 3103 
Q 1463 3103 1205 2759 
Q 947 2416 947 1791 
Q 947 1169 1205 825 
Q 1463 481 1925 481 
Q 2391 481 2648 825 
Q 2906 1169 2906 1791 
z
M 3481 434 
Q 3481 -459 3084 -895 
Q 2688 -1331 1869 -1331 
Q 1566 -1331 1297 -1286 
Q 1028 -1241 775 -1147 
L 775 -588 
Q 1028 -725 1275 -790 
Q 1522 -856 1778 -856 
Q 2344 -856 2625 -561 
Q 2906 -266 2906 331 
L 2906 616 
Q 2728 306 2450 153 
Q 2172 0 1784 0 
Q 1141 0 747 490 
Q 353 981 353 1791 
Q 353 2603 747 3093 
Q 1141 3584 1784 3584 
Q 2172 3584 2450 3431 
Q 2728 3278 2906 2969 
L 2906 3500 
L 3481 3500 
L 3481 434 
z
" transform="scale(0.015625)"/>
       <path id="DejaVuSans-63" d="M 3122 3366 
L 3122 2828 
Q 2878 2963 2633 3030 
Q 2388 3097 2138 3097 
Q 1578 3097 1268 2742 
Q 959 2388 959 1747 
Q 959 1106 1268 751 
Q 1578 397 2138 397 
Q 2388 397 2633 464 
Q 2878 531 3122 666 
L 3122 134 
Q 2881 22 2623 -34 
Q 2366 -91 2075 -91 
Q 1284 -91 818 406 
Q 353 903 353 1747 
Q 353 2603 823 3093 
Q 1294 3584 2113 3584 
Q 2378 3584 2631 3529 
Q 2884 3475 3122 3366 
z
" transform="scale(0.015625)"/>
       <path id="DejaVuSans-68" d="M 3513 2113 
L 3513 0 
L 2938 0 
L 2938 2094 
Q 2938 2591 2744 2837 
Q 2550 3084 2163 3084 
Q 1697 3084 1428 2787 
Q 1159 2491 1159 1978 
L 1159 0 
L 581 0 
L 581 4863 
L 1159 4863 
L 1159 2956 
Q 1366 3272 1645 3428 
Q 1925 3584 2291 3584 
Q 2894 3584 3203 3211 
Q 3513 2838 3513 2113 
z
" transform="scale(0.015625)"/>
       <path id="DejaVuSans-64" d="M 2906 2969 
L 2906 4863 
L 3481 4863 
L 3481 0 
L 2906 0 
L 2906 525 
Q 2725 213 2448 61 
Q 2172 -91 1784 -91 
Q 1150 -91 751 415 
Q 353 922 353 1747 
Q 353 2572 751 3078 
Q 1150 3584 1784 3584 
Q 2172 3584 2448 3432 
Q 2725 3281 2906 2969 
z
M 947 1747 
Q 947 1113 1208 752 
Q 1469 391 1925 391 
Q 2381 391 2643 752 
Q 2906 1113 2906 1747 
Q 2906 2381 2643 2742 
Q 2381 3103 1925 3103 
Q 1469 3103 1208 2742 
Q 947 2381 947 1747 
z
" transform="scale(0.015625)"/>
      </defs>
      <use xlink:href="#DejaVuSans-42"/>
      <use xlink:href="#DejaVuSans-69" x="68.603516"/>
      <use xlink:href="#DejaVuSans-6f" x="96.386719"/>
      <use xlink:href="#DejaVuSans-6c" x="157.568359"/>
      <use xlink:href="#DejaVuSans-6f" x="185.351562"/>
      <use xlink:href="#DejaVuSans-67" x="246.533203"/>
      <use xlink:href="#DejaVuSans-69" x="310.009766"/>
      <use xlink:href="#DejaVuSans-63" x="337.792969"/>
      <use xlink:href="#DejaVuSans-61" x="392.773438"/>
      <use xlink:href="#DejaVuSans-6c" x="454.052734"/>
      <use xlink:href="#DejaVuSans-20" x="481.835938"/>
      <use xlink:href="#DejaVuSans-72" x="513.623047"/>
      <use xlink:href="#DejaVuSans-6f" x="552.486328"/>
      <use xlink:href="#DejaVuSans-6c" x="613.667969"/>
      <use xlink:href="#DejaVuSans-65" x="641.451172"/>
      <use xlink:href="#DejaVuSans-20" x="702.974609"/>
      <use xlink:href="#DejaVuSans-70" x="734.761719"/>
      <use xlink:href="#DejaVuSans-75" x="798.238281"/>
      <use xlink:href="#DejaVuSans-62" x="861.617188"/>
      <use xlink:href="#DejaVuSans-6c" x="925.09375"/>
      <use xlink:href="#DejaVuSans-69" x="952.876953"/>
      <use xlink:href="#DejaVuSans-73" x="980.660156"/>
      <use xlink:href="#DejaVuSans-68" x="1032.759766"/>
      <use xlink:href="#DejaVuSans-65" x="1096.138672"/>
      <use xlink:href="#DejaVuSans-64" x="1157.662109"/>
     </g>
    </g>
    <g id="patch_7">
     <path d="M 100.395781 63.606793 
L 120.395781 63.606793 
L 120.395781 56.606793 
L 100.395781 56.606793 
z
" style="fill: #fdc92c"/>
    </g>
    <g id="text_16">
     <!-- Biological role inferred -->
     <g transform="translate(128.395781 63.606793) scale(0.1 -0.1)">
      <use xlink:href="#DejaVuSans-42"/>
      <use xlink:href="#DejaVuSans-69" x="68.603516"/>
      <use xlink:href="#DejaVuSans-6f" x="96.386719"/>
      <use xlink:href="#DejaVuSans-6c" x="157.568359"/>
      <use xlink:href="#DejaVuSans-6f" x="185.351562"/>
      <use xlink:href="#DejaVuSans-67" x="246.533203"/>
      <use xlink:href="#DejaVuSans-69" x="310.009766"/>
      <use xlink:href="#DejaVuSans-63" x="337.792969"/>
      <use xlink:href="#DejaVuSans-61" x="392.773438"/>
      <use xlink:href="#DejaVuSans-6c" x="454.052734"/>
      <use xlink:href="#DejaVuSans-20" x="481.835938"/>
      <use xlink:href="#DejaVuSans-72" x="513.623047"/>
      <use xlink:href="#DejaVuSans-6f" x="552.486328"/>
      <use xlink:href="#DejaVuSans-6c" x="613.667969"/>
      <use xlink:href="#DejaVuSans-65" x="641.451172"/>
      <use xlink:href="#DejaVuSans-20" x="702.974609"/>
      <use xlink:href="#DejaVuSans-69" x="734.761719"/>
      <use xlink:href="#DejaVuSans-6e" x="762.544922"/>
      <use xlink:href="#DejaVuSans-66" x="825.923828"/>
      <use xlink:href="#DejaVuSans-65" x="861.128906"/>
      <use xlink:href="#DejaVuSans-72" x="922.652344"/>
      <use xlink:href="#DejaVuSans-72" x="962.015625"/>
      <use xlink:href="#DejaVuSans-65" x="1000.878906"/>
      <use xlink:href="#DejaVuSans-64" x="1062.402344"/>
     </g>
    </g>
    <g id="patch_8">
     <path d="M 270.512969 48.928668 
L 290.512969 48.928668 
L 290.512969 41.928668 
L 270.512969 41.928668 
z
" style="fill: #aeaeae"/>
    </g>
    <g id="text_17">
     <!-- Conserved unknown -->
     <g transform="translate(298.512969 48.928668) scale(0.1 -0.1)">
      <defs>
       <path id="DejaVuSans-43" d="M 4122 4306 
L 4122 3641 
Q 3803 3938 3442 4084 
Q 3081 4231 2675 4231 
Q 1875 4231 1450 3742 
Q 1025 3253 1025 2328 
Q 1025 1406 1450 917 
Q 1875 428 2675 428 
Q 3081 428 3442 575 
Q 3803 722 4122 1019 
L 4122 359 
Q 3791 134 3420 21 
Q 3050 -91 2638 -91 
Q 1578 -91 968 557 
Q 359 1206 359 2328 
Q 359 3453 968 4101 
Q 1578 4750 2638 4750 
Q 3056 4750 3426 4639 
Q 3797 4528 4122 4306 
z
" transform="scale(0.015625)"/>
       <path id="DejaVuSans-76" d="M 191 3500 
L 800 3500 
L 1894 563 
L 2988 3500 
L 3597 3500 
L 2284 0 
L 1503 0 
L 191 3500 
z
" transform="scale(0.015625)"/>
       <path id="DejaVuSans-6b" d="M 581 4863 
L 1159 4863 
L 1159 1991 
L 2875 3500 
L 3609 3500 
L 1753 1863 
L 3688 0 
L 2938 0 
L 1159 1709 
L 1159 0 
L 581 0 
L 581 4863 
z
" transform="scale(0.015625)"/>
       <path id="DejaVuSans-77" d="M 269 3500 
L 844 3500 
L 1563 769 
L 2278 3500 
L 2956 3500 
L 3675 769 
L 4391 3500 
L 4966 3500 
L 4050 0 
L 3372 0 
L 2619 2869 
L 1863 0 
L 1184 0 
L 269 3500 
z
" transform="scale(0.015625)"/>
      </defs>
      <use xlink:href="#DejaVuSans-43"/>
      <use xlink:href="#DejaVuSans-6f" x="69.824219"/>
      <use xlink:href="#DejaVuSans-6e" x="131.005859"/>
      <use xlink:href="#DejaVuSans-73" x="194.384766"/>
      <use xlink:href="#DejaVuSans-65" x="246.484375"/>
      <use xlink:href="#DejaVuSans-72" x="308.007812"/>
      <use xlink:href="#DejaVuSans-76" x="349.121094"/>
      <use xlink:href="#DejaVuSans-65" x="408.300781"/>
      <use xlink:href="#DejaVuSans-64" x="469.824219"/>
      <use xlink:href="#DejaVuSans-20" x="533.300781"/>
      <use xlink:href="#DejaVuSans-75" x="565.087891"/>
      <use xlink:href="#DejaVuSans-6e" x="628.466797"/>
      <use xlink:href="#DejaVuSans-6b" x="691.845703"/>
      <use xlink:href="#DejaVuSans-6e" x="749.755859"/>
      <use xlink:href="#DejaVuSans-6f" x="813.134766"/>
      <use xlink:href="#DejaVuSans-77" x="874.316406"/>
      <use xlink:href="#DejaVuSans-6e" x="956.103516"/>
     </g>
    </g>
    <g id="patch_9">
     <path d="M 270.512969 63.606793 
L 290.512969 63.606793 
L 290.512969 56.606793 
L 270.512969 56.606793 
z
" style="fill: #d5dce5"/>
    </g>
    <g id="text_18">
     <!-- Fission yeast unknown -->
     <g transform="translate(298.512969 63.606793) scale(0.1 -0.1)">
      <defs>
       <path id="DejaVuSans-46" d="M 628 4666 
L 3309 4666 
L 3309 4134 
L 1259 4134 
L 1259 2759 
L 3109 2759 
L 3109 2228 
L 1259 2228 
L 1259 0 
L 628 0 
L 628 4666 
z
" transform="scale(0.015625)"/>
       <path id="DejaVuSans-79" d="M 2059 -325 
Q 1816 -950 1584 -1140 
Q 1353 -1331 966 -1331 
L 506 -1331 
L 506 -850 
L 844 -850 
Q 1081 -850 1212 -737 
Q 1344 -625 1503 -206 
L 1606 56 
L 191 3500 
L 800 3500 
L 1894 763 
L 2988 3500 
L 3597 3500 
L 2059 -325 
z
" transform="scale(0.015625)"/>
      </defs>
      <use xlink:href="#DejaVuSans-46"/>
      <use xlink:href="#DejaVuSans-69" x="50.269531"/>
      <use xlink:href="#DejaVuSans-73" x="78.052734"/>
      <use xlink:href="#DejaVuSans-73" x="130.152344"/>
      <use xlink:href="#DejaVuSans-69" x="182.251953"/>
      <use xlink:href="#DejaVuSans-6f" x="210.035156"/>
      <use xlink:href="#DejaVuSans-6e" x="271.216797"/>
      <use xlink:href="#DejaVuSans-20" x="334.595703"/>
      <use xlink:href="#DejaVuSans-79" x="366.382812"/>
      <use xlink:href="#DejaVuSans-65" x="425.5625"/>
      <use xlink:href="#DejaVuSans-61" x="487.085938"/>
      <use xlink:href="#DejaVuSans-73" x="548.365234"/>
      <use xlink:href="#DejaVuSans-74" x="600.464844"/>
      <use xlink:href="#DejaVuSans-20" x="639.673828"/>
      <use xlink:href="#DejaVuSans-75" x="671.460938"/>
      <use xlink:href="#DejaVuSans-6e" x="734.839844"/>
      <use xlink:href="#DejaVuSans-6b" x="798.21875"/>
      <use xlink:href="#DejaVuSans-6e" x="856.128906"/>
      <use xlink:href="#DejaVuSans-6f" x="919.507812"/>
      <use xlink:href="#DejaVuSans-77" x="980.689453"/>
      <use xlink:href="#DejaVuSans-6e" x="1062.476562"/>
     </g>
    </g>
   </g>
  </g>
 </g>
 <defs>
  <clipPath id="pec4efb113c">
   <rect x="61.49" y="74.686481" width="388.51" height="196.227038"/>
  </clipPath>
 </defs>
</svg>
