<?xml version="1.0" encoding="utf-8" standalone="no"?>
<!DOCTYPE svg PUBLIC "-//W3C//DTD SVG 1.1//EN"
  "http://www.w3.org/Graphics/SVG/1.1/DTD/svg11.dtd">
<svg xmlns:xlink="http://www.w3.org/1999/xlink" width="460.8pt" height="345.6pt" viewBox="0 0 460.8 345.6" xmlns="http://www.w3.org/2000/svg" version="1.1">
 <metadata>
  <rdf:RDF xmlns:dc="http://purl.org/dc/elements/1.1/" xmlns:cc="http://creativecommons.org/ns#" xmlns:rdf="http://www.w3.org/1999/02/22-rdf-syntax-ns#">
   <cc:Work>
    <dc:type rdf:resource="http://purl.org/dc/dcmitype/StillImage"/>
    <dc:date>2025-05-02T00:51:11.864377</dc:date>
    <dc:format>image/svg+xml</dc:format>
    <dc:creator>
     <cc:Agent>
      <dc:title>Matplotlib v3.7.1, https://matplotlib.org/</dc:title>
     </cc:Agent>
    </dc:creator>
   </cc:Work>
  </rdf:RDF>
 </metadata>
 <defs>
  <style type="text/css">*{stroke-linejoin: round; stroke-linecap: butt}</style>
 </defs>
 <g id="figure_1">
  <g id="patch_1">
   <path d="M 0 345.6 
L 460.8 345.6 
L 460.8 0 
L 0 0 
z
" style="fill: #ffffff"/>
  </g>
  <g id="axes_1">
   <g id="patch_2">
    <path d="M 61.49 276.178737 
L 450 276.178737 
L 450 69.51044 
L 61.49 69.51044 
z
" style="fill: #ffffff"/>
   </g>
   <g id="PolyCollection_1">
    <path d="M 32.130951 223.730372 
L 32.130951 276.178737 
L 40.332073 276.178737 
L 48.436142 276.178737 
L 65.081024 276.178737 
L 84.394911 276.178737 
L 98.613426 276.178737 
L 107.445405 276.178737 
L 109.72619 276.178737 
L 113.94807 276.178737 
L 115.889164 276.178737 
L 116.131801 276.178737 
L 119.334607 276.178737 
L 120.159572 276.178737 
L 120.838955 276.178737 
L 121.66392 276.178737 
L 122.19772 276.178737 
L 123.022685 276.178737 
L 123.507959 276.178737 
L 124.381451 276.178737 
L 125.546108 276.178737 
L 126.468128 276.178737 
L 126.807819 276.178737 
L 127.778366 276.178737 
L 128.457749 276.178737 
L 129.18566 276.178737 
L 129.962097 276.178737 
L 130.495898 276.178737 
L 130.981172 276.178737 
L 132.339938 276.178737 
L 133.310485 276.178737 
L 134.038395 276.178737 
L 134.232504 276.178737 
L 134.911887 276.178737 
L 135.930962 276.178737 
L 136.998564 276.178737 
L 137.726474 276.178737 
L 138.794076 276.178737 
L 140.201369 276.178737 
L 142.142463 276.178737 
L 143.840921 276.178737 
L 145.296741 276.178737 
L 148.014273 276.178737 
L 149.17893 276.178737 
L 152.333208 276.178737 
L 154.371356 276.178737 
L 155.633068 276.178737 
L 156.409505 276.178737 
L 159.466729 276.178737 
L 161.165186 276.178737 
L 162.912171 276.178737 
L 166.357613 276.178737 
L 169.560418 276.178737 
L 170.094219 276.178737 
L 170.725075 276.178737 
L 171.695622 276.178737 
L 172.47206 276.178737 
L 174.8499 276.178737 
L 179.605581 276.178737 
L 180.527601 276.178737 
L 184.992117 276.178737 
L 186.011192 276.178737 
L 187.030266 276.178737 
L 188.680196 276.178737 
L 190.038962 276.178737 
L 191.349201 276.178737 
L 192.174166 276.178737 
L 194.84317 276.178737 
L 197.609229 276.178737 
L 198.967995 276.178737 
L 199.938542 276.178737 
L 201.151726 276.178737 
L 202.170801 276.178737 
L 203.383985 276.178737 
L 206.247098 276.178737 
L 207.751446 276.178737 
L 209.207267 276.178737 
L 210.711615 276.178737 
L 212.167436 276.178737 
L 213.671784 276.178737 
L 215.176132 276.178737 
L 216.583425 276.178737 
L 218.087773 276.178737 
L 219.543594 276.178737 
L 221.047942 276.178737 
L 222.503762 276.178737 
L 224.00811 276.178737 
L 225.512458 276.178737 
L 226.968279 276.178737 
L 228.472627 276.178737 
L 229.928447 276.178737 
L 231.432795 276.178737 
L 232.937143 276.178737 
L 234.295909 276.178737 
L 235.800257 276.178737 
L 237.256078 276.178737 
L 238.760426 276.178737 
L 240.216247 276.178737 
L 241.720595 276.178737 
L 243.224943 276.178737 
L 244.680763 276.178737 
L 246.185111 276.178737 
L 247.640932 276.178737 
L 249.14528 276.178737 
L 250.649628 276.178737 
L 252.008394 276.178737 
L 253.512742 276.178737 
L 254.968562 276.178737 
L 256.47291 276.178737 
L 257.928731 276.178737 
L 259.433079 276.178737 
L 260.937427 276.178737 
L 262.393248 276.178737 
L 263.897596 276.178737 
L 265.353416 276.178737 
L 266.857764 276.178737 
L 268.362112 276.178737 
L 269.720878 276.178737 
L 271.225226 276.178737 
L 272.681047 276.178737 
L 274.185395 276.178737 
L 275.641215 276.178737 
L 277.145563 276.178737 
L 278.649911 276.178737 
L 280.105732 276.178737 
L 281.61008 276.178737 
L 283.065901 276.178737 
L 284.570249 276.178737 
L 286.074597 276.178737 
L 287.48189 276.178737 
L 288.986238 276.178737 
L 290.442058 276.178737 
L 291.946406 276.178737 
L 293.402227 276.178737 
L 294.906575 276.178737 
L 296.410923 276.178737 
L 297.866744 276.178737 
L 299.371092 276.178737 
L 300.826912 276.178737 
L 302.33126 276.178737 
L 303.835608 276.178737 
L 305.194374 276.178737 
L 306.698722 276.178737 
L 308.154543 276.178737 
L 309.658891 276.178737 
L 311.114711 276.178737 
L 312.619059 276.178737 
L 314.123407 276.178737 
L 315.579228 276.178737 
L 317.083576 276.178737 
L 318.539397 276.178737 
L 320.043745 276.178737 
L 321.548093 276.178737 
L 322.906859 276.178737 
L 324.411207 276.178737 
L 325.867027 276.178737 
L 327.371375 276.178737 
L 328.827196 276.178737 
L 330.331544 276.178737 
L 331.835892 276.178737 
L 333.291712 276.178737 
L 334.79606 276.178737 
L 336.251881 276.178737 
L 337.756229 276.178737 
L 339.260577 276.178737 
L 340.619343 276.178737 
L 342.123691 276.178737 
L 343.579512 276.178737 
L 345.08386 276.178737 
L 346.53968 276.178737 
L 348.044028 276.178737 
L 349.548376 276.178737 
L 351.004197 276.178737 
L 352.508545 276.178737 
L 353.964365 276.178737 
L 355.468713 276.178737 
L 356.973061 276.178737 
L 358.380355 276.178737 
L 359.884703 276.178737 
L 361.340523 276.178737 
L 362.844871 276.178737 
L 364.300692 276.178737 
L 365.80504 276.178737 
L 367.309388 276.178737 
L 368.765209 276.178737 
L 370.269557 276.178737 
L 371.725377 276.178737 
L 373.229725 276.178737 
L 374.734073 276.178737 
L 376.092839 276.178737 
L 377.597187 276.178737 
L 379.053008 276.178737 
L 380.557356 276.178737 
L 382.013176 276.178737 
L 383.517524 276.178737 
L 385.021872 276.178737 
L 386.477693 276.178737 
L 387.982041 276.178737 
L 389.437862 276.178737 
L 390.94221 276.178737 
L 392.446558 276.178737 
L 393.805324 276.178737 
L 395.309671 276.178737 
L 396.765492 276.178737 
L 398.26984 276.178737 
L 399.725661 276.178737 
L 401.230009 276.178737 
L 402.734357 276.178737 
L 404.190177 276.178737 
L 405.694525 276.178737 
L 407.150346 276.178737 
L 408.654694 276.178737 
L 410.159042 276.178737 
L 411.517808 276.178737 
L 413.022156 276.178737 
L 414.477977 276.178737 
L 415.982325 276.178737 
L 417.438145 276.178737 
L 418.942493 276.178737 
L 420.446841 276.178737 
L 421.902662 276.178737 
L 423.40701 276.178737 
L 424.86283 276.178737 
L 426.367178 276.178737 
L 427.871526 276.178737 
L 429.27882 276.178737 
L 430.783168 276.178737 
L 432.238988 276.178737 
L 433.743336 276.178737 
L 435.199157 276.178737 
L 436.703505 276.178737 
L 438.207853 276.178737 
L 439.663673 276.178737 
L 441.168021 276.178737 
L 442.623842 276.178737 
L 444.12819 276.178737 
L 445.632538 276.178737 
L 446.991304 276.178737 
L 448.495652 276.178737 
L 449.951473 276.178737 
L 449.951473 169.457379 
L 449.951473 169.457379 
L 448.495652 169.767954 
L 446.991304 169.806776 
L 445.632538 170.816145 
L 444.12819 173.028993 
L 442.623842 173.80543 
L 441.168021 174.038361 
L 439.663673 174.038361 
L 438.207853 174.271293 
L 436.703505 174.271293 
L 435.199157 175.125374 
L 433.743336 175.668881 
L 432.238988 175.785346 
L 430.783168 175.901812 
L 429.27882 175.979456 
L 427.871526 177.648797 
L 426.367178 177.765262 
L 424.86283 177.804084 
L 423.40701 178.037015 
L 421.902662 178.153481 
L 420.446841 178.192303 
L 418.942493 178.308769 
L 417.438145 178.774631 
L 415.982325 179.007563 
L 414.477977 179.124028 
L 413.022156 179.124028 
L 411.517808 179.473425 
L 410.159042 180.055753 
L 408.654694 180.016932 
L 407.150346 180.133397 
L 405.694525 180.249863 
L 404.190177 180.482794 
L 402.734357 180.482794 
L 401.230009 180.521616 
L 399.725661 180.521616 
L 398.26984 180.482794 
L 396.765492 180.560438 
L 395.309671 180.482794 
L 393.805324 180.443972 
L 392.446558 180.482794 
L 390.94221 180.482794 
L 389.437862 180.676904 
L 387.982041 180.871013 
L 386.477693 181.181588 
L 385.021872 181.414519 
L 383.517524 181.375697 
L 382.013176 181.569807 
L 380.557356 181.84156 
L 379.053008 181.84156 
L 377.597187 181.996848 
L 376.092839 182.501532 
L 374.734073 182.617998 
L 373.229725 183.045038 
L 371.725377 183.08386 
L 370.269557 183.239148 
L 368.765209 183.316792 
L 367.309388 183.472079 
L 365.80504 183.510901 
L 364.300692 183.588545 
L 362.844871 183.588545 
L 361.340523 183.666189 
L 359.884703 184.015586 
L 358.380355 184.132051 
L 356.973061 184.209695 
L 355.468713 184.287339 
L 353.964365 184.287339 
L 352.508545 184.287339 
L 351.004197 184.403804 
L 349.548376 184.481448 
L 348.044028 184.636736 
L 346.53968 184.869667 
L 345.08386 184.986133 
L 343.579512 185.063776 
L 342.123691 185.14142 
L 340.619343 185.180242 
L 339.260577 185.180242 
L 337.756229 185.219064 
L 336.251881 185.257886 
L 334.79606 185.33553 
L 333.291712 185.374351 
L 331.835892 185.374351 
L 330.331544 185.490817 
L 328.827196 185.607283 
L 327.371375 185.840214 
L 325.867027 185.995502 
L 324.411207 186.306077 
L 322.906859 186.461364 
L 321.548093 186.616652 
L 320.043745 186.655474 
L 318.539397 186.810761 
L 317.083576 186.966049 
L 315.579228 188.674212 
L 314.123407 188.945965 
L 312.619059 189.683581 
L 311.114711 189.06243 
L 309.658891 188.984787 
L 308.154543 189.023609 
L 306.698722 189.101252 
L 305.194374 189.373005 
L 303.835608 189.411827 
L 302.33126 189.489471 
L 300.826912 190.227087 
L 299.371092 190.343553 
L 297.866744 190.537662 
L 296.410923 190.615306 
L 294.906575 190.731771 
L 293.402227 191.158812 
L 291.946406 191.352922 
L 290.442058 191.352922 
L 288.986238 191.74114 
L 287.48189 191.818784 
L 286.074597 191.857606 
L 284.570249 192.051715 
L 283.065901 192.129359 
L 281.61008 192.129359 
L 280.105732 192.323469 
L 278.649911 192.362291 
L 277.145563 192.401112 
L 275.641215 192.5564 
L 274.185395 192.672866 
L 272.681047 192.090537 
L 271.225226 192.168181 
L 269.720878 192.362291 
L 268.362112 192.362291 
L 266.857764 192.595222 
L 265.353416 192.750509 
L 263.897596 193.022263 
L 262.393248 193.37166 
L 260.937427 193.682235 
L 259.433079 193.759878 
L 257.928731 194.031632 
L 256.47291 194.264563 
L 254.968562 194.61396 
L 253.512742 194.769247 
L 252.008394 194.963357 
L 250.649628 195.002179 
L 249.14528 195.002179 
L 247.640932 195.196288 
L 246.185111 195.662151 
L 244.680763 195.700973 
L 243.224943 195.933904 
L 241.720595 196.593876 
L 240.216247 196.67152 
L 238.760426 197.137382 
L 237.256078 197.447957 
L 235.800257 198.496148 
L 234.295909 198.573792 
L 232.937143 198.690258 
L 231.432795 198.962011 
L 229.928447 199.039655 
L 228.472627 199.272586 
L 226.968279 199.466695 
L 225.512458 199.816092 
L 224.00811 200.010202 
L 222.503762 200.126667 
L 221.047942 200.359599 
L 219.543594 200.39842 
L 218.087773 200.514886 
L 216.583425 200.670174 
L 215.176132 200.670174 
L 213.671784 200.747817 
L 212.167436 200.786639 
L 210.711615 200.825461 
L 209.207267 200.864283 
L 207.751446 200.903105 
L 206.247098 201.019571 
L 203.383985 201.757186 
L 202.170801 201.951296 
L 201.151726 201.990118 
L 199.938542 201.873652 
L 198.967995 201.873652 
L 197.609229 201.990118 
L 194.84317 202.106583 
L 192.174166 202.727733 
L 191.349201 203.659459 
L 190.038962 203.504171 
L 188.680196 203.465349 
L 187.030266 204.164143 
L 186.011192 204.164143 
L 184.992117 203.931212 
L 180.527601 204.435896 
L 179.605581 204.51354 
L 174.8499 205.173512 
L 172.47206 205.251156 
L 171.695622 205.095868 
L 170.725075 205.212334 
L 170.094219 205.406443 
L 169.560418 205.445265 
L 166.357613 205.561731 
L 162.912171 205.639375 
L 161.165186 205.833484 
L 159.466729 207.891044 
L 156.409505 207.8134 
L 155.633068 207.852222 
L 154.371356 208.279263 
L 152.333208 209.366276 
L 149.17893 209.599207 
L 148.014273 209.987426 
L 145.296741 210.259179 
L 143.840921 211.074438 
L 142.142463 211.617945 
L 140.201369 212.044986 
L 138.794076 212.083807 
L 137.726474 212.161451 
L 136.998564 212.200273 
L 135.930962 212.239095 
L 134.911887 212.937889 
L 134.232504 213.287286 
L 134.038395 213.287286 
L 133.310485 213.287286 
L 132.339938 213.520217 
L 130.981172 213.287286 
L 130.495898 213.481395 
L 129.962097 213.559039 
L 129.18566 213.675505 
L 128.457749 213.675505 
L 127.778366 213.98608 
L 126.807819 214.684874 
L 126.468128 214.646052 
L 125.546108 214.995449 
L 124.381451 215.073092 
L 123.507959 215.150736 
L 123.022685 215.22838 
L 122.19772 215.344846 
L 121.66392 215.577777 
L 120.838955 215.771886 
L 120.159572 215.694243 
L 119.334607 215.771886 
L 116.131801 216.04364 
L 115.889164 216.004818 
L 113.94807 216.315393 
L 109.72619 214.451942 
L 107.445405 217.208296 
L 98.613426 220.818731 
L 84.394911 224.196235 
L 65.081024 228.544286 
L 48.436142 223.536263 
L 40.332073 222.915113 
L 32.130951 223.730372 
z
" clip-path="url(#pecc7581db1)" style="fill: #fb363b"/>
   </g>
   <g id="PolyCollection_2">
    <path d="M 32.130951 143.91258 
L 32.130951 223.730372 
L 40.332073 222.915113 
L 48.436142 223.536263 
L 65.081024 228.544286 
L 84.394911 224.196235 
L 98.613426 220.818731 
L 107.445405 217.208296 
L 109.72619 214.451942 
L 113.94807 216.315393 
L 115.889164 216.004818 
L 116.131801 216.04364 
L 119.334607 215.771886 
L 120.159572 215.694243 
L 120.838955 215.771886 
L 121.66392 215.577777 
L 122.19772 215.344846 
L 123.022685 215.22838 
L 123.507959 215.150736 
L 124.381451 215.073092 
L 125.546108 214.995449 
L 126.468128 214.646052 
L 126.807819 214.684874 
L 127.778366 213.98608 
L 128.457749 213.675505 
L 129.18566 213.675505 
L 129.962097 213.559039 
L 130.495898 213.481395 
L 130.981172 213.287286 
L 132.339938 213.520217 
L 133.310485 213.287286 
L 134.038395 213.287286 
L 134.232504 213.287286 
L 134.911887 212.937889 
L 135.930962 212.239095 
L 136.998564 212.200273 
L 137.726474 212.161451 
L 138.794076 212.083807 
L 140.201369 212.044986 
L 142.142463 211.617945 
L 143.840921 211.074438 
L 145.296741 210.259179 
L 148.014273 209.987426 
L 149.17893 209.599207 
L 152.333208 209.366276 
L 154.371356 208.279263 
L 155.633068 207.852222 
L 156.409505 207.8134 
L 159.466729 207.891044 
L 161.165186 205.833484 
L 162.912171 205.639375 
L 166.357613 205.561731 
L 169.560418 205.445265 
L 170.094219 205.406443 
L 170.725075 205.212334 
L 171.695622 205.095868 
L 172.47206 205.251156 
L 174.8499 205.173512 
L 179.605581 204.51354 
L 180.527601 204.435896 
L 184.992117 203.931212 
L 186.011192 204.164143 
L 187.030266 204.164143 
L 188.680196 203.465349 
L 190.038962 203.504171 
L 191.349201 203.659459 
L 192.174166 202.727733 
L 194.84317 202.106583 
L 197.609229 201.990118 
L 198.967995 201.873652 
L 199.938542 201.873652 
L 201.151726 201.990118 
L 202.170801 201.951296 
L 203.383985 201.757186 
L 206.247098 201.019571 
L 207.751446 200.903105 
L 209.207267 200.864283 
L 210.711615 200.825461 
L 212.167436 200.786639 
L 213.671784 200.747817 
L 215.176132 200.670174 
L 216.583425 200.670174 
L 218.087773 200.514886 
L 219.543594 200.39842 
L 221.047942 200.359599 
L 222.503762 200.126667 
L 224.00811 200.010202 
L 225.512458 199.816092 
L 226.968279 199.466695 
L 228.472627 199.272586 
L 229.928447 199.039655 
L 231.432795 198.962011 
L 232.937143 198.690258 
L 234.295909 198.573792 
L 235.800257 198.496148 
L 237.256078 197.447957 
L 238.760426 197.137382 
L 240.216247 196.67152 
L 241.720595 196.593876 
L 243.224943 195.933904 
L 244.680763 195.700973 
L 246.185111 195.662151 
L 247.640932 195.196288 
L 249.14528 195.002179 
L 250.649628 195.002179 
L 252.008394 194.963357 
L 253.512742 194.769247 
L 254.968562 194.61396 
L 256.47291 194.264563 
L 257.928731 194.031632 
L 259.433079 193.759878 
L 260.937427 193.682235 
L 262.393248 193.37166 
L 263.897596 193.022263 
L 265.353416 192.750509 
L 266.857764 192.595222 
L 268.362112 192.362291 
L 269.720878 192.362291 
L 271.225226 192.168181 
L 272.681047 192.090537 
L 274.185395 192.672866 
L 275.641215 192.5564 
L 277.145563 192.401112 
L 278.649911 192.362291 
L 280.105732 192.323469 
L 281.61008 192.129359 
L 283.065901 192.129359 
L 284.570249 192.051715 
L 286.074597 191.857606 
L 287.48189 191.818784 
L 288.986238 191.74114 
L 290.442058 191.352922 
L 291.946406 191.352922 
L 293.402227 191.158812 
L 294.906575 190.731771 
L 296.410923 190.615306 
L 297.866744 190.537662 
L 299.371092 190.343553 
L 300.826912 190.227087 
L 302.33126 189.489471 
L 303.835608 189.411827 
L 305.194374 189.373005 
L 306.698722 189.101252 
L 308.154543 189.023609 
L 309.658891 188.984787 
L 311.114711 189.06243 
L 312.619059 189.683581 
L 314.123407 188.945965 
L 315.579228 188.674212 
L 317.083576 186.966049 
L 318.539397 186.810761 
L 320.043745 186.655474 
L 321.548093 186.616652 
L 322.906859 186.461364 
L 324.411207 186.306077 
L 325.867027 185.995502 
L 327.371375 185.840214 
L 328.827196 185.607283 
L 330.331544 185.490817 
L 331.835892 185.374351 
L 333.291712 185.374351 
L 334.79606 185.33553 
L 336.251881 185.257886 
L 337.756229 185.219064 
L 339.260577 185.180242 
L 340.619343 185.180242 
L 342.123691 185.14142 
L 343.579512 185.063776 
L 345.08386 184.986133 
L 346.53968 184.869667 
L 348.044028 184.636736 
L 349.548376 184.481448 
L 351.004197 184.403804 
L 352.508545 184.287339 
L 353.964365 184.287339 
L 355.468713 184.287339 
L 356.973061 184.209695 
L 358.380355 184.132051 
L 359.884703 184.015586 
L 361.340523 183.666189 
L 362.844871 183.588545 
L 364.300692 183.588545 
L 365.80504 183.510901 
L 367.309388 183.472079 
L 368.765209 183.316792 
L 370.269557 183.239148 
L 371.725377 183.08386 
L 373.229725 183.045038 
L 374.734073 182.617998 
L 376.092839 182.501532 
L 377.597187 181.996848 
L 379.053008 181.84156 
L 380.557356 181.84156 
L 382.013176 181.569807 
L 383.517524 181.375697 
L 385.021872 181.414519 
L 386.477693 181.181588 
L 387.982041 180.871013 
L 389.437862 180.676904 
L 390.94221 180.482794 
L 392.446558 180.482794 
L 393.805324 180.443972 
L 395.309671 180.482794 
L 396.765492 180.560438 
L 398.26984 180.482794 
L 399.725661 180.521616 
L 401.230009 180.521616 
L 402.734357 180.482794 
L 404.190177 180.482794 
L 405.694525 180.249863 
L 407.150346 180.133397 
L 408.654694 180.016932 
L 410.159042 180.055753 
L 411.517808 179.473425 
L 413.022156 179.124028 
L 414.477977 179.124028 
L 415.982325 179.007563 
L 417.438145 178.774631 
L 418.942493 178.308769 
L 420.446841 178.192303 
L 421.902662 178.153481 
L 423.40701 178.037015 
L 424.86283 177.804084 
L 426.367178 177.765262 
L 427.871526 177.648797 
L 429.27882 175.979456 
L 430.783168 175.901812 
L 432.238988 175.785346 
L 433.743336 175.668881 
L 435.199157 175.125374 
L 436.703505 174.271293 
L 438.207853 174.271293 
L 439.663673 174.038361 
L 441.168021 174.038361 
L 442.623842 173.80543 
L 444.12819 173.028993 
L 445.632538 170.816145 
L 446.991304 169.806776 
L 448.495652 169.767954 
L 449.951473 169.457379 
L 449.951473 102.450808 
L 449.951473 102.450808 
L 448.495652 102.411986 
L 446.991304 102.179055 
L 445.632538 102.217877 
L 444.12819 102.179055 
L 442.623842 102.722561 
L 441.168021 102.800205 
L 439.663673 102.916671 
L 438.207853 102.955493 
L 436.703505 103.188424 
L 435.199157 103.071958 
L 433.743336 103.033136 
L 432.238988 103.188424 
L 430.783168 103.266068 
L 429.27882 103.227246 
L 427.871526 103.498999 
L 426.367178 103.770752 
L 424.86283 103.770752 
L 423.40701 103.887218 
L 421.902662 104.042505 
L 420.446841 104.120149 
L 418.942493 104.120149 
L 417.438145 104.391902 
L 415.982325 104.624834 
L 414.477977 104.741299 
L 413.022156 104.741299 
L 411.517808 104.780121 
L 410.159042 104.935409 
L 408.654694 105.051874 
L 407.150346 105.129518 
L 405.694525 105.129518 
L 404.190177 105.16834 
L 402.734357 105.051874 
L 401.230009 105.090696 
L 399.725661 105.090696 
L 398.26984 105.284806 
L 396.765492 105.245984 
L 395.309671 105.245984 
L 393.805324 105.284806 
L 392.446558 105.362449 
L 390.94221 105.362449 
L 389.437862 105.478915 
L 387.982041 105.440093 
L 386.477693 105.556559 
L 385.021872 105.595381 
L 383.517524 105.634203 
L 382.013176 105.673024 
L 380.557356 105.711846 
L 379.053008 105.673024 
L 377.597187 105.78949 
L 376.092839 105.9836 
L 374.734073 106.138887 
L 373.229725 106.177709 
L 371.725377 106.177709 
L 370.269557 106.255353 
L 368.765209 106.294175 
L 367.309388 106.371818 
L 365.80504 106.371818 
L 364.300692 106.41064 
L 362.844871 106.449462 
L 361.340523 106.332997 
L 359.884703 106.294175 
L 358.380355 106.332997 
L 356.973061 106.255353 
L 355.468713 106.255353 
L 353.964365 106.255353 
L 352.508545 106.255353 
L 351.004197 106.255353 
L 349.548376 106.294175 
L 348.044028 106.255353 
L 346.53968 106.294175 
L 345.08386 106.294175 
L 343.579512 106.177709 
L 342.123691 106.177709 
L 340.619343 106.216531 
L 339.260577 106.216531 
L 337.756229 106.294175 
L 336.251881 106.294175 
L 334.79606 106.371818 
L 333.291712 106.371818 
L 331.835892 106.371818 
L 330.331544 106.41064 
L 328.827196 106.41064 
L 327.371375 106.41064 
L 325.867027 106.449462 
L 324.411207 106.488284 
L 322.906859 106.798859 
L 321.548093 106.915325 
L 320.043745 106.837681 
L 318.539397 106.915325 
L 317.083576 107.03179 
L 315.579228 107.070612 
L 314.123407 107.614119 
L 312.619059 107.924694 
L 311.114711 110.059897 
L 309.658891 111.263376 
L 308.154543 111.690416 
L 306.698722 111.690416 
L 305.194374 112.000992 
L 303.835608 111.923348 
L 302.33126 111.14691 
L 300.826912 111.341019 
L 299.371092 111.76806 
L 297.866744 111.76806 
L 296.410923 111.651595 
L 294.906575 111.806882 
L 293.402227 111.845704 
L 291.946406 111.845704 
L 290.442058 111.884526 
L 288.986238 111.96217 
L 287.48189 111.96217 
L 286.074597 112.000992 
L 284.570249 112.000992 
L 283.065901 112.117457 
L 281.61008 112.156279 
L 280.105732 112.195101 
L 278.649911 112.195101 
L 277.145563 112.156279 
L 275.641215 112.195101 
L 274.185395 112.156279 
L 272.681047 112.777429 
L 271.225226 112.738607 
L 269.720878 112.816251 
L 268.362112 112.893895 
L 266.857764 113.01036 
L 265.353416 112.971539 
L 263.897596 113.243292 
L 262.393248 113.359757 
L 260.937427 113.515045 
L 259.433079 113.709154 
L 257.928731 113.747976 
L 256.47291 113.670333 
L 254.968562 113.747976 
L 253.512742 113.786798 
L 252.008394 113.786798 
L 250.649628 113.786798 
L 249.14528 113.786798 
L 247.640932 113.942086 
L 246.185111 114.019729 
L 244.680763 114.252661 
L 243.224943 114.291483 
L 241.720595 114.524414 
L 240.216247 114.602058 
L 238.760426 114.834989 
L 237.256078 114.951455 
L 235.800257 115.106742 
L 234.295909 115.145564 
L 232.937143 115.184386 
L 231.432795 115.339673 
L 229.928447 115.339673 
L 228.472627 115.533783 
L 226.968279 115.805536 
L 225.512458 115.960824 
L 224.00811 116.116111 
L 222.503762 116.310221 
L 221.047942 116.387864 
L 219.543594 116.698439 
L 218.087773 116.698439 
L 216.583425 116.737261 
L 215.176132 116.737261 
L 213.671784 116.737261 
L 212.167436 116.737261 
L 210.711615 116.737261 
L 209.207267 116.776083 
L 207.751446 116.931371 
L 206.247098 117.009014 
L 203.383985 117.474877 
L 202.170801 118.057205 
L 201.151726 118.328959 
L 199.938542 117.785452 
L 198.967995 118.096027 
L 197.609229 118.212493 
L 194.84317 118.36778 
L 192.174166 118.36778 
L 191.349201 118.523068 
L 190.038962 119.027752 
L 188.680196 118.988931 
L 187.030266 119.881834 
L 186.011192 119.881834 
L 184.992117 120.308875 
L 180.527601 120.580628 
L 179.605581 120.658272 
L 174.8499 121.745284 
L 172.47206 122.715831 
L 171.695622 122.754653 
L 170.725075 122.754653 
L 170.094219 122.754653 
L 169.560418 122.793475 
L 166.357613 122.366434 
L 162.912171 122.871119 
L 161.165186 123.065228 
L 159.466729 123.259338 
L 156.409505 123.375803 
L 155.633068 123.453447 
L 154.371356 123.647557 
L 152.333208 123.958132 
L 149.17893 123.802844 
L 148.014273 124.113419 
L 145.296741 124.074597 
L 143.840921 123.996954 
L 142.142463 124.34635 
L 140.201369 124.268707 
L 138.794076 124.152241 
L 137.726474 124.423994 
L 136.998564 124.462816 
L 135.930962 123.7252 
L 134.911887 123.764022 
L 134.232504 123.91931 
L 134.038395 123.91931 
L 133.310485 123.880488 
L 132.339938 124.385172 
L 130.981172 123.841666 
L 130.495898 123.841666 
L 129.962097 123.880488 
L 129.18566 123.91931 
L 128.457749 123.7252 
L 127.778366 124.152241 
L 126.807819 124.268707 
L 126.468128 124.035775 
L 125.546108 124.191063 
L 124.381451 124.152241 
L 123.507959 124.656926 
L 123.022685 124.579282 
L 122.19772 124.579282 
L 121.66392 122.832297 
L 120.838955 123.220516 
L 120.159572 122.249969 
L 119.334607 122.017037 
L 116.131801 122.288791 
L 115.889164 122.133503 
L 113.94807 122.405256 
L 109.72619 124.152241 
L 107.445405 125.006323 
L 98.613426 127.063882 
L 84.394911 130.014345 
L 65.081024 133.780068 
L 48.436142 139.79746 
L 40.332073 143.602005 
L 32.130951 143.91258 
z
" clip-path="url(#pecc7581db1)" style="fill: #fdc92c"/>
   </g>
   <g id="PolyCollection_3">
    <path d="M 32.130951 113.320936 
L 32.130951 143.91258 
L 40.332073 143.602005 
L 48.436142 139.79746 
L 65.081024 133.780068 
L 84.394911 130.014345 
L 98.613426 127.063882 
L 107.445405 125.006323 
L 109.72619 124.152241 
L 113.94807 122.405256 
L 115.889164 122.133503 
L 116.131801 122.288791 
L 119.334607 122.017037 
L 120.159572 122.249969 
L 120.838955 123.220516 
L 121.66392 122.832297 
L 122.19772 124.579282 
L 123.022685 124.579282 
L 123.507959 124.656926 
L 124.381451 124.152241 
L 125.546108 124.191063 
L 126.468128 124.035775 
L 126.807819 124.268707 
L 127.778366 124.152241 
L 128.457749 123.7252 
L 129.18566 123.91931 
L 129.962097 123.880488 
L 130.495898 123.841666 
L 130.981172 123.841666 
L 132.339938 124.385172 
L 133.310485 123.880488 
L 134.038395 123.91931 
L 134.232504 123.91931 
L 134.911887 123.764022 
L 135.930962 123.7252 
L 136.998564 124.462816 
L 137.726474 124.423994 
L 138.794076 124.152241 
L 140.201369 124.268707 
L 142.142463 124.34635 
L 143.840921 123.996954 
L 145.296741 124.074597 
L 148.014273 124.113419 
L 149.17893 123.802844 
L 152.333208 123.958132 
L 154.371356 123.647557 
L 155.633068 123.453447 
L 156.409505 123.375803 
L 159.466729 123.259338 
L 161.165186 123.065228 
L 162.912171 122.871119 
L 166.357613 122.366434 
L 169.560418 122.793475 
L 170.094219 122.754653 
L 170.725075 122.754653 
L 171.695622 122.754653 
L 172.47206 122.715831 
L 174.8499 121.745284 
L 179.605581 120.658272 
L 180.527601 120.580628 
L 184.992117 120.308875 
L 186.011192 119.881834 
L 187.030266 119.881834 
L 188.680196 118.988931 
L 190.038962 119.027752 
L 191.349201 118.523068 
L 192.174166 118.36778 
L 194.84317 118.36778 
L 197.609229 118.212493 
L 198.967995 118.096027 
L 199.938542 117.785452 
L 201.151726 118.328959 
L 202.170801 118.057205 
L 203.383985 117.474877 
L 206.247098 117.009014 
L 207.751446 116.931371 
L 209.207267 116.776083 
L 210.711615 116.737261 
L 212.167436 116.737261 
L 213.671784 116.737261 
L 215.176132 116.737261 
L 216.583425 116.737261 
L 218.087773 116.698439 
L 219.543594 116.698439 
L 221.047942 116.387864 
L 222.503762 116.310221 
L 224.00811 116.116111 
L 225.512458 115.960824 
L 226.968279 115.805536 
L 228.472627 115.533783 
L 229.928447 115.339673 
L 231.432795 115.339673 
L 232.937143 115.184386 
L 234.295909 115.145564 
L 235.800257 115.106742 
L 237.256078 114.951455 
L 238.760426 114.834989 
L 240.216247 114.602058 
L 241.720595 114.524414 
L 243.224943 114.291483 
L 244.680763 114.252661 
L 246.185111 114.019729 
L 247.640932 113.942086 
L 249.14528 113.786798 
L 250.649628 113.786798 
L 252.008394 113.786798 
L 253.512742 113.786798 
L 254.968562 113.747976 
L 256.47291 113.670333 
L 257.928731 113.747976 
L 259.433079 113.709154 
L 260.937427 113.515045 
L 262.393248 113.359757 
L 263.897596 113.243292 
L 265.353416 112.971539 
L 266.857764 113.01036 
L 268.362112 112.893895 
L 269.720878 112.816251 
L 271.225226 112.738607 
L 272.681047 112.777429 
L 274.185395 112.156279 
L 275.641215 112.195101 
L 277.145563 112.156279 
L 278.649911 112.195101 
L 280.105732 112.195101 
L 281.61008 112.156279 
L 283.065901 112.117457 
L 284.570249 112.000992 
L 286.074597 112.000992 
L 287.48189 111.96217 
L 288.986238 111.96217 
L 290.442058 111.884526 
L 291.946406 111.845704 
L 293.402227 111.845704 
L 294.906575 111.806882 
L 296.410923 111.651595 
L 297.866744 111.76806 
L 299.371092 111.76806 
L 300.826912 111.341019 
L 302.33126 111.14691 
L 303.835608 111.923348 
L 305.194374 112.000992 
L 306.698722 111.690416 
L 308.154543 111.690416 
L 309.658891 111.263376 
L 311.114711 110.059897 
L 312.619059 107.924694 
L 314.123407 107.614119 
L 315.579228 107.070612 
L 317.083576 107.03179 
L 318.539397 106.915325 
L 320.043745 106.837681 
L 321.548093 106.915325 
L 322.906859 106.798859 
L 324.411207 106.488284 
L 325.867027 106.449462 
L 327.371375 106.41064 
L 328.827196 106.41064 
L 330.331544 106.41064 
L 331.835892 106.371818 
L 333.291712 106.371818 
L 334.79606 106.371818 
L 336.251881 106.294175 
L 337.756229 106.294175 
L 339.260577 106.216531 
L 340.619343 106.216531 
L 342.123691 106.177709 
L 343.579512 106.177709 
L 345.08386 106.294175 
L 346.53968 106.294175 
L 348.044028 106.255353 
L 349.548376 106.294175 
L 351.004197 106.255353 
L 352.508545 106.255353 
L 353.964365 106.255353 
L 355.468713 106.255353 
L 356.973061 106.255353 
L 358.380355 106.332997 
L 359.884703 106.294175 
L 361.340523 106.332997 
L 362.844871 106.449462 
L 364.300692 106.41064 
L 365.80504 106.371818 
L 367.309388 106.371818 
L 368.765209 106.294175 
L 370.269557 106.255353 
L 371.725377 106.177709 
L 373.229725 106.177709 
L 374.734073 106.138887 
L 376.092839 105.9836 
L 377.597187 105.78949 
L 379.053008 105.673024 
L 380.557356 105.711846 
L 382.013176 105.673024 
L 383.517524 105.634203 
L 385.021872 105.595381 
L 386.477693 105.556559 
L 387.982041 105.440093 
L 389.437862 105.478915 
L 390.94221 105.362449 
L 392.446558 105.362449 
L 393.805324 105.284806 
L 395.309671 105.245984 
L 396.765492 105.245984 
L 398.26984 105.284806 
L 399.725661 105.090696 
L 401.230009 105.090696 
L 402.734357 105.051874 
L 404.190177 105.16834 
L 405.694525 105.129518 
L 407.150346 105.129518 
L 408.654694 105.051874 
L 410.159042 104.935409 
L 411.517808 104.780121 
L 413.022156 104.741299 
L 414.477977 104.741299 
L 415.982325 104.624834 
L 417.438145 104.391902 
L 418.942493 104.120149 
L 420.446841 104.120149 
L 421.902662 104.042505 
L 423.40701 103.887218 
L 424.86283 103.770752 
L 426.367178 103.770752 
L 427.871526 103.498999 
L 429.27882 103.227246 
L 430.783168 103.266068 
L 432.238988 103.188424 
L 433.743336 103.033136 
L 435.199157 103.071958 
L 436.703505 103.188424 
L 438.207853 102.955493 
L 439.663673 102.916671 
L 441.168021 102.800205 
L 442.623842 102.722561 
L 444.12819 102.179055 
L 445.632538 102.217877 
L 446.991304 102.179055 
L 448.495652 102.411986 
L 449.951473 102.450808 
L 449.951473 89.367833 
L 449.951473 89.367833 
L 448.495652 89.329011 
L 446.991304 89.329011 
L 445.632538 89.329011 
L 444.12819 89.329011 
L 442.623842 89.329011 
L 441.168021 89.329011 
L 439.663673 89.329011 
L 438.207853 89.29019 
L 436.703505 89.639587 
L 435.199157 89.872518 
L 433.743336 89.872518 
L 432.238988 89.91134 
L 430.783168 89.91134 
L 429.27882 89.91134 
L 427.871526 89.950162 
L 426.367178 89.950162 
L 424.86283 89.950162 
L 423.40701 89.988984 
L 421.902662 89.988984 
L 420.446841 89.988984 
L 418.942493 89.988984 
L 417.438145 90.066627 
L 415.982325 90.066627 
L 414.477977 90.066627 
L 413.022156 90.066627 
L 411.517808 90.066627 
L 410.159042 90.105449 
L 408.654694 90.105449 
L 407.150346 90.183093 
L 405.694525 90.183093 
L 404.190177 90.221915 
L 402.734357 90.221915 
L 401.230009 90.221915 
L 399.725661 90.221915 
L 398.26984 90.299559 
L 396.765492 90.377202 
L 395.309671 90.377202 
L 393.805324 90.377202 
L 392.446558 90.377202 
L 390.94221 90.377202 
L 389.437862 90.416024 
L 387.982041 90.377202 
L 386.477693 90.454846 
L 385.021872 90.454846 
L 383.517524 90.454846 
L 382.013176 90.493668 
L 380.557356 90.493668 
L 379.053008 90.493668 
L 377.597187 90.53249 
L 376.092839 90.571312 
L 374.734073 90.610134 
L 373.229725 90.610134 
L 371.725377 90.571312 
L 370.269557 90.571312 
L 368.765209 90.571312 
L 367.309388 90.53249 
L 365.80504 90.53249 
L 364.300692 90.571312 
L 362.844871 90.571312 
L 361.340523 90.493668 
L 359.884703 90.454846 
L 358.380355 90.454846 
L 356.973061 90.493668 
L 355.468713 90.493668 
L 353.964365 90.493668 
L 352.508545 90.493668 
L 351.004197 90.493668 
L 349.548376 90.493668 
L 348.044028 90.493668 
L 346.53968 90.493668 
L 345.08386 90.493668 
L 343.579512 90.416024 
L 342.123691 90.416024 
L 340.619343 90.416024 
L 339.260577 90.416024 
L 337.756229 90.377202 
L 336.251881 90.377202 
L 334.79606 90.454846 
L 333.291712 90.454846 
L 331.835892 90.454846 
L 330.331544 90.493668 
L 328.827196 90.493668 
L 327.371375 90.493668 
L 325.867027 90.53249 
L 324.411207 90.571312 
L 322.906859 90.648956 
L 321.548093 90.648956 
L 320.043745 90.648956 
L 318.539397 90.804243 
L 317.083576 90.804243 
L 315.579228 90.804243 
L 314.123407 90.687777 
L 312.619059 90.726599 
L 311.114711 90.920709 
L 309.658891 91.852434 
L 308.154543 92.007721 
L 306.698722 92.046543 
L 305.194374 92.085365 
L 303.835608 92.085365 
L 302.33126 92.085365 
L 300.826912 92.085365 
L 299.371092 92.124187 
L 297.866744 92.124187 
L 296.410923 92.163009 
L 294.906575 92.201831 
L 293.402227 92.240653 
L 291.946406 92.240653 
L 290.442058 92.240653 
L 288.986238 92.240653 
L 287.48189 92.240653 
L 286.074597 92.279475 
L 284.570249 92.279475 
L 283.065901 92.318297 
L 281.61008 92.357118 
L 280.105732 92.357118 
L 278.649911 92.357118 
L 277.145563 92.357118 
L 275.641215 92.357118 
L 274.185395 92.357118 
L 272.681047 92.357118 
L 271.225226 92.357118 
L 269.720878 92.434762 
L 268.362112 92.434762 
L 266.857764 92.434762 
L 265.353416 92.473584 
L 263.897596 92.473584 
L 262.393248 92.512406 
L 260.937427 92.667693 
L 259.433079 93.599419 
L 257.928731 93.599419 
L 256.47291 93.599419 
L 254.968562 93.677062 
L 253.512742 93.677062 
L 252.008394 93.677062 
L 250.649628 93.677062 
L 249.14528 93.677062 
L 247.640932 93.677062 
L 246.185111 93.754706 
L 244.680763 93.677062 
L 243.224943 93.715884 
L 241.720595 93.793528 
L 240.216247 93.871172 
L 238.760426 94.065281 
L 237.256078 94.104103 
L 235.800257 94.104103 
L 234.295909 94.104103 
L 232.937143 94.104103 
L 231.432795 94.181747 
L 229.928447 94.181747 
L 228.472627 94.259391 
L 226.968279 94.259391 
L 225.512458 94.142925 
L 224.00811 94.220569 
L 222.503762 94.220569 
L 221.047942 94.220569 
L 219.543594 94.259391 
L 218.087773 94.259391 
L 216.583425 94.259391 
L 215.176132 94.298213 
L 213.671784 94.298213 
L 212.167436 94.337034 
L 210.711615 94.298213 
L 209.207267 94.298213 
L 207.751446 94.375856 
L 206.247098 94.414678 
L 203.383985 94.686431 
L 202.170801 95.26876 
L 201.151726 95.540513 
L 199.938542 94.919363 
L 198.967995 95.424047 
L 197.609229 95.462869 
L 194.84317 96.355772 
L 192.174166 96.355772 
L 191.349201 96.316951 
L 190.038962 96.472238 
L 188.680196 96.472238 
L 187.030266 96.549882 
L 186.011192 96.549882 
L 184.992117 96.588704 
L 180.527601 96.743991 
L 179.605581 96.743991 
L 174.8499 97.75336 
L 172.47206 97.869826 
L 171.695622 97.908648 
L 170.725075 98.025113 
L 170.094219 98.025113 
L 169.560418 98.025113 
L 166.357613 98.025113 
L 162.912171 98.258045 
L 161.165186 98.37451 
L 159.466729 98.413332 
L 156.409505 98.490976 
L 155.633068 98.607442 
L 154.371356 98.801551 
L 152.333208 99.034482 
L 149.17893 99.18977 
L 148.014273 99.81092 
L 145.296741 99.849742 
L 143.840921 100.121495 
L 142.142463 100.43207 
L 140.201369 100.509714 
L 138.794076 100.509714 
L 137.726474 100.509714 
L 136.998564 100.509714 
L 135.930962 100.665001 
L 134.911887 100.820289 
L 134.232504 100.936755 
L 134.038395 100.936755 
L 133.310485 100.897933 
L 132.339938 101.441439 
L 130.981172 100.975577 
L 130.495898 100.975577 
L 129.962097 101.05322 
L 129.18566 101.05322 
L 128.457749 101.05322 
L 127.778366 101.635549 
L 126.807819 101.635549 
L 126.468128 101.169686 
L 125.546108 101.752014 
L 124.381451 102.839027 
L 123.507959 103.73193 
L 123.022685 103.770752 
L 122.19772 103.770752 
L 121.66392 103.809574 
L 120.838955 104.391902 
L 120.159572 103.848396 
L 119.334607 103.848396 
L 116.131801 104.120149 
L 115.889164 104.158971 
L 113.94807 104.197793 
L 109.72619 101.635549 
L 107.445405 104.35308 
L 98.613426 106.216531 
L 84.394911 108.118803 
L 65.081024 109.438747 
L 48.436142 111.418663 
L 40.332073 113.747976 
L 32.130951 113.320936 
z
" clip-path="url(#pecc7581db1)" style="fill: #aeaeae"/>
   </g>
   <g id="PolyCollection_4">
    <path d="M 32.130951 89.756052 
L 32.130951 113.320936 
L 40.332073 113.747976 
L 48.436142 111.418663 
L 65.081024 109.438747 
L 84.394911 108.118803 
L 98.613426 106.216531 
L 107.445405 104.35308 
L 109.72619 101.635549 
L 113.94807 104.197793 
L 115.889164 104.158971 
L 116.131801 104.120149 
L 119.334607 103.848396 
L 120.159572 103.848396 
L 120.838955 104.391902 
L 121.66392 103.809574 
L 122.19772 103.770752 
L 123.022685 103.770752 
L 123.507959 103.73193 
L 124.381451 102.839027 
L 125.546108 101.752014 
L 126.468128 101.169686 
L 126.807819 101.635549 
L 127.778366 101.635549 
L 128.457749 101.05322 
L 129.18566 101.05322 
L 129.962097 101.05322 
L 130.495898 100.975577 
L 130.981172 100.975577 
L 132.339938 101.441439 
L 133.310485 100.897933 
L 134.038395 100.936755 
L 134.232504 100.936755 
L 134.911887 100.820289 
L 135.930962 100.665001 
L 136.998564 100.509714 
L 137.726474 100.509714 
L 138.794076 100.509714 
L 140.201369 100.509714 
L 142.142463 100.43207 
L 143.840921 100.121495 
L 145.296741 99.849742 
L 148.014273 99.81092 
L 149.17893 99.18977 
L 152.333208 99.034482 
L 154.371356 98.801551 
L 155.633068 98.607442 
L 156.409505 98.490976 
L 159.466729 98.413332 
L 161.165186 98.37451 
L 162.912171 98.258045 
L 166.357613 98.025113 
L 169.560418 98.025113 
L 170.094219 98.025113 
L 170.725075 98.025113 
L 171.695622 97.908648 
L 172.47206 97.869826 
L 174.8499 97.75336 
L 179.605581 96.743991 
L 180.527601 96.743991 
L 184.992117 96.588704 
L 186.011192 96.549882 
L 187.030266 96.549882 
L 188.680196 96.472238 
L 190.038962 96.472238 
L 191.349201 96.316951 
L 192.174166 96.355772 
L 194.84317 96.355772 
L 197.609229 95.462869 
L 198.967995 95.424047 
L 199.938542 94.919363 
L 201.151726 95.540513 
L 202.170801 95.26876 
L 203.383985 94.686431 
L 206.247098 94.414678 
L 207.751446 94.375856 
L 209.207267 94.298213 
L 210.711615 94.298213 
L 212.167436 94.337034 
L 213.671784 94.298213 
L 215.176132 94.298213 
L 216.583425 94.259391 
L 218.087773 94.259391 
L 219.543594 94.259391 
L 221.047942 94.220569 
L 222.503762 94.220569 
L 224.00811 94.220569 
L 225.512458 94.142925 
L 226.968279 94.259391 
L 228.472627 94.259391 
L 229.928447 94.181747 
L 231.432795 94.181747 
L 232.937143 94.104103 
L 234.295909 94.104103 
L 235.800257 94.104103 
L 237.256078 94.104103 
L 238.760426 94.065281 
L 240.216247 93.871172 
L 241.720595 93.793528 
L 243.224943 93.715884 
L 244.680763 93.677062 
L 246.185111 93.754706 
L 247.640932 93.677062 
L 249.14528 93.677062 
L 250.649628 93.677062 
L 252.008394 93.677062 
L 253.512742 93.677062 
L 254.968562 93.677062 
L 256.47291 93.599419 
L 257.928731 93.599419 
L 259.433079 93.599419 
L 260.937427 92.667693 
L 262.393248 92.512406 
L 263.897596 92.473584 
L 265.353416 92.473584 
L 266.857764 92.434762 
L 268.362112 92.434762 
L 269.720878 92.434762 
L 271.225226 92.357118 
L 272.681047 92.357118 
L 274.185395 92.357118 
L 275.641215 92.357118 
L 277.145563 92.357118 
L 278.649911 92.357118 
L 280.105732 92.357118 
L 281.61008 92.357118 
L 283.065901 92.318297 
L 284.570249 92.279475 
L 286.074597 92.279475 
L 287.48189 92.240653 
L 288.986238 92.240653 
L 290.442058 92.240653 
L 291.946406 92.240653 
L 293.402227 92.240653 
L 294.906575 92.201831 
L 296.410923 92.163009 
L 297.866744 92.124187 
L 299.371092 92.124187 
L 300.826912 92.085365 
L 302.33126 92.085365 
L 303.835608 92.085365 
L 305.194374 92.085365 
L 306.698722 92.046543 
L 308.154543 92.007721 
L 309.658891 91.852434 
L 311.114711 90.920709 
L 312.619059 90.726599 
L 314.123407 90.687777 
L 315.579228 90.804243 
L 317.083576 90.804243 
L 318.539397 90.804243 
L 320.043745 90.648956 
L 321.548093 90.648956 
L 322.906859 90.648956 
L 324.411207 90.571312 
L 325.867027 90.53249 
L 327.371375 90.493668 
L 328.827196 90.493668 
L 330.331544 90.493668 
L 331.835892 90.454846 
L 333.291712 90.454846 
L 334.79606 90.454846 
L 336.251881 90.377202 
L 337.756229 90.377202 
L 339.260577 90.416024 
L 340.619343 90.416024 
L 342.123691 90.416024 
L 343.579512 90.416024 
L 345.08386 90.493668 
L 346.53968 90.493668 
L 348.044028 90.493668 
L 349.548376 90.493668 
L 351.004197 90.493668 
L 352.508545 90.493668 
L 353.964365 90.493668 
L 355.468713 90.493668 
L 356.973061 90.493668 
L 358.380355 90.454846 
L 359.884703 90.454846 
L 361.340523 90.493668 
L 362.844871 90.571312 
L 364.300692 90.571312 
L 365.80504 90.53249 
L 367.309388 90.53249 
L 368.765209 90.571312 
L 370.269557 90.571312 
L 371.725377 90.571312 
L 373.229725 90.610134 
L 374.734073 90.610134 
L 376.092839 90.571312 
L 377.597187 90.53249 
L 379.053008 90.493668 
L 380.557356 90.493668 
L 382.013176 90.493668 
L 383.517524 90.454846 
L 385.021872 90.454846 
L 386.477693 90.454846 
L 387.982041 90.377202 
L 389.437862 90.416024 
L 390.94221 90.377202 
L 392.446558 90.377202 
L 393.805324 90.377202 
L 395.309671 90.377202 
L 396.765492 90.377202 
L 398.26984 90.299559 
L 399.725661 90.221915 
L 401.230009 90.221915 
L 402.734357 90.221915 
L 404.190177 90.221915 
L 405.694525 90.183093 
L 407.150346 90.183093 
L 408.654694 90.105449 
L 410.159042 90.105449 
L 411.517808 90.066627 
L 413.022156 90.066627 
L 414.477977 90.066627 
L 415.982325 90.066627 
L 417.438145 90.066627 
L 418.942493 89.988984 
L 420.446841 89.988984 
L 421.902662 89.988984 
L 423.40701 89.988984 
L 424.86283 89.950162 
L 426.367178 89.950162 
L 427.871526 89.950162 
L 429.27882 89.91134 
L 430.783168 89.91134 
L 432.238988 89.91134 
L 433.743336 89.872518 
L 435.199157 89.872518 
L 436.703505 89.639587 
L 438.207853 89.29019 
L 439.663673 89.329011 
L 441.168021 89.329011 
L 442.623842 89.329011 
L 444.12819 89.329011 
L 445.632538 89.329011 
L 446.991304 89.329011 
L 448.495652 89.329011 
L 449.951473 89.367833 
L 449.951473 79.778828 
L 449.951473 79.778828 
L 448.495652 79.778828 
L 446.991304 79.778828 
L 445.632538 79.778828 
L 444.12819 79.778828 
L 442.623842 79.778828 
L 441.168021 79.778828 
L 439.663673 79.81765 
L 438.207853 79.81765 
L 436.703505 79.81765 
L 435.199157 79.856472 
L 433.743336 79.856472 
L 432.238988 79.856472 
L 430.783168 79.856472 
L 429.27882 79.856472 
L 427.871526 79.856472 
L 426.367178 79.856472 
L 424.86283 79.856472 
L 423.40701 79.856472 
L 421.902662 79.856472 
L 420.446841 79.856472 
L 418.942493 79.856472 
L 417.438145 79.856472 
L 415.982325 79.856472 
L 414.477977 79.856472 
L 413.022156 79.856472 
L 411.517808 79.856472 
L 410.159042 80.050581 
L 408.654694 80.089403 
L 407.150346 80.128225 
L 405.694525 80.128225 
L 404.190177 80.128225 
L 402.734357 80.128225 
L 401.230009 80.128225 
L 399.725661 80.128225 
L 398.26984 80.128225 
L 396.765492 80.128225 
L 395.309671 80.128225 
L 393.805324 80.167047 
L 392.446558 80.128225 
L 390.94221 80.128225 
L 389.437862 80.167047 
L 387.982041 79.895294 
L 386.477693 79.895294 
L 385.021872 79.545897 
L 383.517524 79.545897 
L 382.013176 79.545897 
L 380.557356 79.545897 
L 379.053008 79.545897 
L 377.597187 79.545897 
L 376.092839 79.584719 
L 374.734073 79.584719 
L 373.229725 79.584719 
L 371.725377 79.545897 
L 370.269557 79.545897 
L 368.765209 79.545897 
L 367.309388 79.584719 
L 365.80504 79.584719 
L 364.300692 79.584719 
L 362.844871 79.584719 
L 361.340523 79.507075 
L 359.884703 79.468253 
L 358.380355 79.468253 
L 356.973061 79.468253 
L 355.468713 79.468253 
L 353.964365 79.468253 
L 352.508545 79.468253 
L 351.004197 79.468253 
L 349.548376 79.468253 
L 348.044028 79.468253 
L 346.53968 79.468253 
L 345.08386 79.468253 
L 343.579512 79.390609 
L 342.123691 79.390609 
L 340.619343 79.390609 
L 339.260577 79.390609 
L 337.756229 79.390609 
L 336.251881 79.390609 
L 334.79606 79.390609 
L 333.291712 79.390609 
L 331.835892 79.390609 
L 330.331544 79.351787 
L 328.827196 79.351787 
L 327.371375 79.351787 
L 325.867027 79.351787 
L 324.411207 79.351787 
L 322.906859 79.351787 
L 321.548093 79.351787 
L 320.043745 79.351787 
L 318.539397 79.351787 
L 317.083576 79.351787 
L 315.579228 79.351787 
L 314.123407 79.351787 
L 312.619059 79.351787 
L 311.114711 79.351787 
L 309.658891 79.351787 
L 308.154543 79.351787 
L 306.698722 79.351787 
L 305.194374 79.351787 
L 303.835608 79.351787 
L 302.33126 79.351787 
L 300.826912 79.351787 
L 299.371092 79.351787 
L 297.866744 79.351787 
L 296.410923 79.351787 
L 294.906575 79.351787 
L 293.402227 79.351787 
L 291.946406 79.351787 
L 290.442058 79.351787 
L 288.986238 79.351787 
L 287.48189 79.701184 
L 286.074597 79.740006 
L 284.570249 79.740006 
L 283.065901 79.740006 
L 281.61008 79.895294 
L 280.105732 79.895294 
L 278.649911 79.895294 
L 277.145563 79.895294 
L 275.641215 79.895294 
L 274.185395 79.895294 
L 272.681047 79.895294 
L 271.225226 79.895294 
L 269.720878 79.895294 
L 268.362112 79.895294 
L 266.857764 79.895294 
L 265.353416 79.934116 
L 263.897596 79.934116 
L 262.393248 79.934116 
L 260.937427 79.934116 
L 259.433079 79.662362 
L 257.928731 79.81765 
L 256.47291 79.778828 
L 254.968562 79.778828 
L 253.512742 79.778828 
L 252.008394 79.778828 
L 250.649628 79.778828 
L 249.14528 79.778828 
L 247.640932 79.778828 
L 246.185111 79.81765 
L 244.680763 79.81765 
L 243.224943 79.81765 
L 241.720595 79.778828 
L 240.216247 79.778828 
L 238.760426 79.778828 
L 237.256078 79.778828 
L 235.800257 79.778828 
L 234.295909 79.778828 
L 232.937143 79.778828 
L 231.432795 79.778828 
L 229.928447 79.778828 
L 228.472627 79.778828 
L 226.968279 79.81765 
L 225.512458 79.778828 
L 224.00811 79.81765 
L 222.503762 79.778828 
L 221.047942 79.778828 
L 219.543594 79.778828 
L 218.087773 79.778828 
L 216.583425 79.778828 
L 215.176132 79.778828 
L 213.671784 79.81765 
L 212.167436 79.81765 
L 210.711615 79.778828 
L 209.207267 79.778828 
L 207.751446 79.778828 
L 206.247098 79.856472 
L 203.383985 80.128225 
L 202.170801 80.788197 
L 201.151726 80.865841 
L 199.938542 80.244691 
L 198.967995 81.758744 
L 197.609229 81.758744 
L 194.84317 83.156332 
L 192.174166 83.156332 
L 191.349201 83.11751 
L 190.038962 83.272798 
L 188.680196 83.233976 
L 187.030266 83.233976 
L 186.011192 83.233976 
L 184.992117 83.233976 
L 180.527601 83.544551 
L 179.605581 83.544551 
L 174.8499 83.73866 
L 172.47206 83.699838 
L 171.695622 83.699838 
L 170.725075 83.777482 
L 170.094219 83.777482 
L 169.560418 83.777482 
L 166.357613 84.320989 
L 162.912171 84.437454 
L 161.165186 84.437454 
L 159.466729 84.437454 
L 156.409505 84.437454 
L 155.633068 84.398632 
L 154.371356 84.398632 
L 152.333208 84.282167 
L 149.17893 84.243345 
L 148.014273 85.252714 
L 145.296741 85.369179 
L 143.840921 85.485645 
L 142.142463 85.369179 
L 140.201369 85.369179 
L 138.794076 85.330357 
L 137.726474 85.330357 
L 136.998564 85.330357 
L 135.930962 85.291536 
L 134.911887 85.291536 
L 134.232504 85.330357 
L 134.038395 85.330357 
L 133.310485 85.330357 
L 132.339938 85.757398 
L 130.981172 85.330357 
L 130.495898 85.330357 
L 129.962097 85.369179 
L 129.18566 85.291536 
L 128.457749 85.291536 
L 127.778366 85.679754 
L 126.807819 85.602111 
L 126.468128 85.17507 
L 125.546108 85.718576 
L 124.381451 85.563289 
L 123.507959 85.602111 
L 123.022685 85.602111 
L 122.19772 85.602111 
L 121.66392 85.640933 
L 120.838955 86.145617 
L 120.159572 85.602111 
L 119.334607 85.602111 
L 116.131801 86.572658 
L 115.889164 86.61148 
L 113.94807 86.572658 
L 109.72619 85.679754 
L 107.445405 86.572658 
L 98.613426 87.349095 
L 84.394911 87.776136 
L 65.081024 88.47493 
L 48.436142 88.901971 
L 40.332073 89.91134 
L 32.130951 89.756052 
z
" clip-path="url(#pecc7581db1)" style="fill: #d5dce5"/>
   </g>
   <g id="matplotlib.axis_1">
    <g id="xtick_1">
     <g id="line2d_1">
      <defs>
       <path id="m92427b5f9b" d="M 0 0 
L 0 3.5 
" style="stroke: #000000; stroke-width: 0.8"/>
      </defs>
      <g>
       <use xlink:href="#m92427b5f9b" x="71.874854" y="276.178737" style="stroke: #000000; stroke-width: 0.8"/>
      </g>
     </g>
     <g id="text_1">
      <!-- 2004 -->
      <g transform="translate(59.149854 290.777175) scale(0.1 -0.1)">
       <defs>
        <path id="DejaVuSans-32" d="M 1228 531 
L 3431 531 
L 3431 0 
L 469 0 
L 469 531 
Q 828 903 1448 1529 
Q 2069 2156 2228 2338 
Q 2531 2678 2651 2914 
Q 2772 3150 2772 3378 
Q 2772 3750 2511 3984 
Q 2250 4219 1831 4219 
Q 1534 4219 1204 4116 
Q 875 4013 500 3803 
L 500 4441 
Q 881 4594 1212 4672 
Q 1544 4750 1819 4750 
Q 2544 4750 2975 4387 
Q 3406 4025 3406 3419 
Q 3406 3131 3298 2873 
Q 3191 2616 2906 2266 
Q 2828 2175 2409 1742 
Q 1991 1309 1228 531 
z
" transform="scale(0.015625)"/>
        <path id="DejaVuSans-30" d="M 2034 4250 
Q 1547 4250 1301 3770 
Q 1056 3291 1056 2328 
Q 1056 1369 1301 889 
Q 1547 409 2034 409 
Q 2525 409 2770 889 
Q 3016 1369 3016 2328 
Q 3016 3291 2770 3770 
Q 2525 4250 2034 4250 
z
M 2034 4750 
Q 2819 4750 3233 4129 
Q 3647 3509 3647 2328 
Q 3647 1150 3233 529 
Q 2819 -91 2034 -91 
Q 1250 -91 836 529 
Q 422 1150 422 2328 
Q 422 3509 836 4129 
Q 1250 4750 2034 4750 
z
" transform="scale(0.015625)"/>
        <path id="DejaVuSans-34" d="M 2419 4116 
L 825 1625 
L 2419 1625 
L 2419 4116 
z
M 2253 4666 
L 3047 4666 
L 3047 1625 
L 3713 1625 
L 3713 1100 
L 3047 1100 
L 3047 0 
L 2419 0 
L 2419 1100 
L 313 1100 
L 313 1709 
L 2253 4666 
z
" transform="scale(0.015625)"/>
       </defs>
       <use xlink:href="#DejaVuSans-32"/>
       <use xlink:href="#DejaVuSans-30" x="63.623047"/>
       <use xlink:href="#DejaVuSans-30" x="127.246094"/>
       <use xlink:href="#DejaVuSans-34" x="190.869141"/>
      </g>
     </g>
    </g>
    <g id="xtick_2">
     <g id="line2d_2">
      <g>
       <use xlink:href="#m92427b5f9b" x="142.773319" y="276.178737" style="stroke: #000000; stroke-width: 0.8"/>
      </g>
     </g>
     <g id="text_2">
      <!-- 2008 -->
      <g transform="translate(130.048319 290.777175) scale(0.1 -0.1)">
       <defs>
        <path id="DejaVuSans-38" d="M 2034 2216 
Q 1584 2216 1326 1975 
Q 1069 1734 1069 1313 
Q 1069 891 1326 650 
Q 1584 409 2034 409 
Q 2484 409 2743 651 
Q 3003 894 3003 1313 
Q 3003 1734 2745 1975 
Q 2488 2216 2034 2216 
z
M 1403 2484 
Q 997 2584 770 2862 
Q 544 3141 544 3541 
Q 544 4100 942 4425 
Q 1341 4750 2034 4750 
Q 2731 4750 3128 4425 
Q 3525 4100 3525 3541 
Q 3525 3141 3298 2862 
Q 3072 2584 2669 2484 
Q 3125 2378 3379 2068 
Q 3634 1759 3634 1313 
Q 3634 634 3220 271 
Q 2806 -91 2034 -91 
Q 1263 -91 848 271 
Q 434 634 434 1313 
Q 434 1759 690 2068 
Q 947 2378 1403 2484 
z
M 1172 3481 
Q 1172 3119 1398 2916 
Q 1625 2713 2034 2713 
Q 2441 2713 2670 2916 
Q 2900 3119 2900 3481 
Q 2900 3844 2670 4047 
Q 2441 4250 2034 4250 
Q 1625 4250 1398 4047 
Q 1172 3844 1172 3481 
z
" transform="scale(0.015625)"/>
       </defs>
       <use xlink:href="#DejaVuSans-32"/>
       <use xlink:href="#DejaVuSans-30" x="63.623047"/>
       <use xlink:href="#DejaVuSans-30" x="127.246094"/>
       <use xlink:href="#DejaVuSans-38" x="190.869141"/>
      </g>
     </g>
    </g>
    <g id="xtick_3">
     <g id="line2d_3">
      <g>
       <use xlink:href="#m92427b5f9b" x="213.671784" y="276.178737" style="stroke: #000000; stroke-width: 0.8"/>
      </g>
     </g>
     <g id="text_3">
      <!-- 2012 -->
      <g transform="translate(200.946784 290.777175) scale(0.1 -0.1)">
       <defs>
        <path id="DejaVuSans-31" d="M 794 531 
L 1825 531 
L 1825 4091 
L 703 3866 
L 703 4441 
L 1819 4666 
L 2450 4666 
L 2450 531 
L 3481 531 
L 3481 0 
L 794 0 
L 794 531 
z
" transform="scale(0.015625)"/>
       </defs>
       <use xlink:href="#DejaVuSans-32"/>
       <use xlink:href="#DejaVuSans-30" x="63.623047"/>
       <use xlink:href="#DejaVuSans-31" x="127.246094"/>
       <use xlink:href="#DejaVuSans-32" x="190.869141"/>
      </g>
     </g>
    </g>
    <g id="xtick_4">
     <g id="line2d_4">
      <g>
       <use xlink:href="#m92427b5f9b" x="284.570249" y="276.178737" style="stroke: #000000; stroke-width: 0.8"/>
      </g>
     </g>
     <g id="text_4">
      <!-- 2016 -->
      <g transform="translate(271.845249 290.777175) scale(0.1 -0.1)">
       <defs>
        <path id="DejaVuSans-36" d="M 2113 2584 
Q 1688 2584 1439 2293 
Q 1191 2003 1191 1497 
Q 1191 994 1439 701 
Q 1688 409 2113 409 
Q 2538 409 2786 701 
Q 3034 994 3034 1497 
Q 3034 2003 2786 2293 
Q 2538 2584 2113 2584 
z
M 3366 4563 
L 3366 3988 
Q 3128 4100 2886 4159 
Q 2644 4219 2406 4219 
Q 1781 4219 1451 3797 
Q 1122 3375 1075 2522 
Q 1259 2794 1537 2939 
Q 1816 3084 2150 3084 
Q 2853 3084 3261 2657 
Q 3669 2231 3669 1497 
Q 3669 778 3244 343 
Q 2819 -91 2113 -91 
Q 1303 -91 875 529 
Q 447 1150 447 2328 
Q 447 3434 972 4092 
Q 1497 4750 2381 4750 
Q 2619 4750 2861 4703 
Q 3103 4656 3366 4563 
z
" transform="scale(0.015625)"/>
       </defs>
       <use xlink:href="#DejaVuSans-32"/>
       <use xlink:href="#DejaVuSans-30" x="63.623047"/>
       <use xlink:href="#DejaVuSans-31" x="127.246094"/>
       <use xlink:href="#DejaVuSans-36" x="190.869141"/>
      </g>
     </g>
    </g>
    <g id="xtick_5">
     <g id="line2d_5">
      <g>
       <use xlink:href="#m92427b5f9b" x="355.468713" y="276.178737" style="stroke: #000000; stroke-width: 0.8"/>
      </g>
     </g>
     <g id="text_5">
      <!-- 2020 -->
      <g transform="translate(342.743713 290.777175) scale(0.1 -0.1)">
       <use xlink:href="#DejaVuSans-32"/>
       <use xlink:href="#DejaVuSans-30" x="63.623047"/>
       <use xlink:href="#DejaVuSans-32" x="127.246094"/>
       <use xlink:href="#DejaVuSans-30" x="190.869141"/>
      </g>
     </g>
    </g>
    <g id="xtick_6">
     <g id="line2d_6">
      <g>
       <use xlink:href="#m92427b5f9b" x="426.367178" y="276.178737" style="stroke: #000000; stroke-width: 0.8"/>
      </g>
     </g>
     <g id="text_6">
      <!-- 2024 -->
      <g transform="translate(413.642178 290.777175) scale(0.1 -0.1)">
       <use xlink:href="#DejaVuSans-32"/>
       <use xlink:href="#DejaVuSans-30" x="63.623047"/>
       <use xlink:href="#DejaVuSans-32" x="127.246094"/>
       <use xlink:href="#DejaVuSans-34" x="190.869141"/>
      </g>
     </g>
    </g>
    <g id="text_7">
     <!-- Year -->
     <g transform="translate(239.86375 308.254518) scale(0.15 -0.15)">
      <defs>
       <path id="DejaVuSans-59" d="M -13 4666 
L 666 4666 
L 1959 2747 
L 3244 4666 
L 3922 4666 
L 2272 2222 
L 2272 0 
L 1638 0 
L 1638 2222 
L -13 4666 
z
" transform="scale(0.015625)"/>
       <path id="DejaVuSans-65" d="M 3597 1894 
L 3597 1613 
L 953 1613 
Q 991 1019 1311 708 
Q 1631 397 2203 397 
Q 2534 397 2845 478 
Q 3156 559 3463 722 
L 3463 178 
Q 3153 47 2828 -22 
Q 2503 -91 2169 -91 
Q 1331 -91 842 396 
Q 353 884 353 1716 
Q 353 2575 817 3079 
Q 1281 3584 2069 3584 
Q 2775 3584 3186 3129 
Q 3597 2675 3597 1894 
z
M 3022 2063 
Q 3016 2534 2758 2815 
Q 2500 3097 2075 3097 
Q 1594 3097 1305 2825 
Q 1016 2553 972 2059 
L 3022 2063 
z
" transform="scale(0.015625)"/>
       <path id="DejaVuSans-61" d="M 2194 1759 
Q 1497 1759 1228 1600 
Q 959 1441 959 1056 
Q 959 750 1161 570 
Q 1363 391 1709 391 
Q 2188 391 2477 730 
Q 2766 1069 2766 1631 
L 2766 1759 
L 2194 1759 
z
M 3341 1997 
L 3341 0 
L 2766 0 
L 2766 531 
Q 2569 213 2275 61 
Q 1981 -91 1556 -91 
Q 1019 -91 701 211 
Q 384 513 384 1019 
Q 384 1609 779 1909 
Q 1175 2209 1959 2209 
L 2766 2209 
L 2766 2266 
Q 2766 2663 2505 2880 
Q 2244 3097 1772 3097 
Q 1472 3097 1187 3025 
Q 903 2953 641 2809 
L 641 3341 
Q 956 3463 1253 3523 
Q 1550 3584 1831 3584 
Q 2591 3584 2966 3190 
Q 3341 2797 3341 1997 
z
" transform="scale(0.015625)"/>
       <path id="DejaVuSans-72" d="M 2631 2963 
Q 2534 3019 2420 3045 
Q 2306 3072 2169 3072 
Q 1681 3072 1420 2755 
Q 1159 2438 1159 1844 
L 1159 0 
L 581 0 
L 581 3500 
L 1159 3500 
L 1159 2956 
Q 1341 3275 1631 3429 
Q 1922 3584 2338 3584 
Q 2397 3584 2469 3576 
Q 2541 3569 2628 3553 
L 2631 2963 
z
" transform="scale(0.015625)"/>
      </defs>
      <use xlink:href="#DejaVuSans-59"/>
      <use xlink:href="#DejaVuSans-65" x="47.833984"/>
      <use xlink:href="#DejaVuSans-61" x="109.357422"/>
      <use xlink:href="#DejaVuSans-72" x="170.636719"/>
     </g>
    </g>
   </g>
   <g id="matplotlib.axis_2">
    <g id="ytick_1">
     <g id="line2d_7">
      <defs>
       <path id="mc86a5b5ee1" d="M 0 0 
L -3.5 0 
" style="stroke: #000000; stroke-width: 0.8"/>
      </defs>
      <g>
       <use xlink:href="#mc86a5b5ee1" x="61.49" y="276.178737" style="stroke: #000000; stroke-width: 0.8"/>
      </g>
     </g>
     <g id="text_8">
      <!-- 0 -->
      <g transform="translate(48.1275 279.977956) scale(0.1 -0.1)">
       <use xlink:href="#DejaVuSans-30"/>
      </g>
     </g>
    </g>
    <g id="ytick_2">
     <g id="line2d_8">
      <g>
       <use xlink:href="#mc86a5b5ee1" x="61.49" y="237.356854" style="stroke: #000000; stroke-width: 0.8"/>
      </g>
     </g>
     <g id="text_9">
      <!-- 1000 -->
      <g transform="translate(29.04 241.156072) scale(0.1 -0.1)">
       <use xlink:href="#DejaVuSans-31"/>
       <use xlink:href="#DejaVuSans-30" x="63.623047"/>
       <use xlink:href="#DejaVuSans-30" x="127.246094"/>
       <use xlink:href="#DejaVuSans-30" x="190.869141"/>
      </g>
     </g>
    </g>
    <g id="ytick_3">
     <g id="line2d_9">
      <g>
       <use xlink:href="#mc86a5b5ee1" x="61.49" y="198.53497" style="stroke: #000000; stroke-width: 0.8"/>
      </g>
     </g>
     <g id="text_10">
      <!-- 2000 -->
      <g transform="translate(29.04 202.334189) scale(0.1 -0.1)">
       <use xlink:href="#DejaVuSans-32"/>
       <use xlink:href="#DejaVuSans-30" x="63.623047"/>
       <use xlink:href="#DejaVuSans-30" x="127.246094"/>
       <use xlink:href="#DejaVuSans-30" x="190.869141"/>
      </g>
     </g>
    </g>
    <g id="ytick_4">
     <g id="line2d_10">
      <g>
       <use xlink:href="#mc86a5b5ee1" x="61.49" y="159.713086" style="stroke: #000000; stroke-width: 0.8"/>
      </g>
     </g>
     <g id="text_11">
      <!-- 3000 -->
      <g transform="translate(29.04 163.512305) scale(0.1 -0.1)">
       <defs>
        <path id="DejaVuSans-33" d="M 2597 2516 
Q 3050 2419 3304 2112 
Q 3559 1806 3559 1356 
Q 3559 666 3084 287 
Q 2609 -91 1734 -91 
Q 1441 -91 1130 -33 
Q 819 25 488 141 
L 488 750 
Q 750 597 1062 519 
Q 1375 441 1716 441 
Q 2309 441 2620 675 
Q 2931 909 2931 1356 
Q 2931 1769 2642 2001 
Q 2353 2234 1838 2234 
L 1294 2234 
L 1294 2753 
L 1863 2753 
Q 2328 2753 2575 2939 
Q 2822 3125 2822 3475 
Q 2822 3834 2567 4026 
Q 2313 4219 1838 4219 
Q 1578 4219 1281 4162 
Q 984 4106 628 3988 
L 628 4550 
Q 988 4650 1302 4700 
Q 1616 4750 1894 4750 
Q 2613 4750 3031 4423 
Q 3450 4097 3450 3541 
Q 3450 3153 3228 2886 
Q 3006 2619 2597 2516 
z
" transform="scale(0.015625)"/>
       </defs>
       <use xlink:href="#DejaVuSans-33"/>
       <use xlink:href="#DejaVuSans-30" x="63.623047"/>
       <use xlink:href="#DejaVuSans-30" x="127.246094"/>
       <use xlink:href="#DejaVuSans-30" x="190.869141"/>
      </g>
     </g>
    </g>
    <g id="ytick_5">
     <g id="line2d_11">
      <g>
       <use xlink:href="#mc86a5b5ee1" x="61.49" y="120.891203" style="stroke: #000000; stroke-width: 0.8"/>
      </g>
     </g>
     <g id="text_12">
      <!-- 4000 -->
      <g transform="translate(29.04 124.690422) scale(0.1 -0.1)">
       <use xlink:href="#DejaVuSans-34"/>
       <use xlink:href="#DejaVuSans-30" x="63.623047"/>
       <use xlink:href="#DejaVuSans-30" x="127.246094"/>
       <use xlink:href="#DejaVuSans-30" x="190.869141"/>
      </g>
     </g>
    </g>
    <g id="ytick_6">
     <g id="line2d_12">
      <g>
       <use xlink:href="#mc86a5b5ee1" x="61.49" y="82.069319" style="stroke: #000000; stroke-width: 0.8"/>
      </g>
     </g>
     <g id="text_13">
      <!-- 5000 -->
      <g transform="translate(29.04 85.868538) scale(0.1 -0.1)">
       <defs>
        <path id="DejaVuSans-35" d="M 691 4666 
L 3169 4666 
L 3169 4134 
L 1269 4134 
L 1269 2991 
Q 1406 3038 1543 3061 
Q 1681 3084 1819 3084 
Q 2600 3084 3056 2656 
Q 3513 2228 3513 1497 
Q 3513 744 3044 326 
Q 2575 -91 1722 -91 
Q 1428 -91 1123 -41 
Q 819 9 494 109 
L 494 744 
Q 775 591 1075 516 
Q 1375 441 1709 441 
Q 2250 441 2565 725 
Q 2881 1009 2881 1497 
Q 2881 1984 2565 2268 
Q 2250 2553 1709 2553 
Q 1456 2553 1204 2497 
Q 953 2441 691 2322 
L 691 4666 
z
" transform="scale(0.015625)"/>
       </defs>
       <use xlink:href="#DejaVuSans-35"/>
       <use xlink:href="#DejaVuSans-30" x="63.623047"/>
       <use xlink:href="#DejaVuSans-30" x="127.246094"/>
       <use xlink:href="#DejaVuSans-30" x="190.869141"/>
      </g>
     </g>
    </g>
    <g id="text_14">
     <!-- Number of proteins -->
     <g transform="translate(21.920469 245.533651) rotate(-90) scale(0.15 -0.15)">
      <defs>
       <path id="DejaVuSans-4e" d="M 628 4666 
L 1478 4666 
L 3547 763 
L 3547 4666 
L 4159 4666 
L 4159 0 
L 3309 0 
L 1241 3903 
L 1241 0 
L 628 0 
L 628 4666 
z
" transform="scale(0.015625)"/>
       <path id="DejaVuSans-75" d="M 544 1381 
L 544 3500 
L 1119 3500 
L 1119 1403 
Q 1119 906 1312 657 
Q 1506 409 1894 409 
Q 2359 409 2629 706 
Q 2900 1003 2900 1516 
L 2900 3500 
L 3475 3500 
L 3475 0 
L 2900 0 
L 2900 538 
Q 2691 219 2414 64 
Q 2138 -91 1772 -91 
Q 1169 -91 856 284 
Q 544 659 544 1381 
z
M 1991 3584 
L 1991 3584 
z
" transform="scale(0.015625)"/>
       <path id="DejaVuSans-6d" d="M 3328 2828 
Q 3544 3216 3844 3400 
Q 4144 3584 4550 3584 
Q 5097 3584 5394 3201 
Q 5691 2819 5691 2113 
L 5691 0 
L 5113 0 
L 5113 2094 
Q 5113 2597 4934 2840 
Q 4756 3084 4391 3084 
Q 3944 3084 3684 2787 
Q 3425 2491 3425 1978 
L 3425 0 
L 2847 0 
L 2847 2094 
Q 2847 2600 2669 2842 
Q 2491 3084 2119 3084 
Q 1678 3084 1418 2786 
Q 1159 2488 1159 1978 
L 1159 0 
L 581 0 
L 581 3500 
L 1159 3500 
L 1159 2956 
Q 1356 3278 1631 3431 
Q 1906 3584 2284 3584 
Q 2666 3584 2933 3390 
Q 3200 3197 3328 2828 
z
" transform="scale(0.015625)"/>
       <path id="DejaVuSans-62" d="M 3116 1747 
Q 3116 2381 2855 2742 
Q 2594 3103 2138 3103 
Q 1681 3103 1420 2742 
Q 1159 2381 1159 1747 
Q 1159 1113 1420 752 
Q 1681 391 2138 391 
Q 2594 391 2855 752 
Q 3116 1113 3116 1747 
z
M 1159 2969 
Q 1341 3281 1617 3432 
Q 1894 3584 2278 3584 
Q 2916 3584 3314 3078 
Q 3713 2572 3713 1747 
Q 3713 922 3314 415 
Q 2916 -91 2278 -91 
Q 1894 -91 1617 61 
Q 1341 213 1159 525 
L 1159 0 
L 581 0 
L 581 4863 
L 1159 4863 
L 1159 2969 
z
" transform="scale(0.015625)"/>
       <path id="DejaVuSans-20" transform="scale(0.015625)"/>
       <path id="DejaVuSans-6f" d="M 1959 3097 
Q 1497 3097 1228 2736 
Q 959 2375 959 1747 
Q 959 1119 1226 758 
Q 1494 397 1959 397 
Q 2419 397 2687 759 
Q 2956 1122 2956 1747 
Q 2956 2369 2687 2733 
Q 2419 3097 1959 3097 
z
M 1959 3584 
Q 2709 3584 3137 3096 
Q 3566 2609 3566 1747 
Q 3566 888 3137 398 
Q 2709 -91 1959 -91 
Q 1206 -91 779 398 
Q 353 888 353 1747 
Q 353 2609 779 3096 
Q 1206 3584 1959 3584 
z
" transform="scale(0.015625)"/>
       <path id="DejaVuSans-66" d="M 2375 4863 
L 2375 4384 
L 1825 4384 
Q 1516 4384 1395 4259 
Q 1275 4134 1275 3809 
L 1275 3500 
L 2222 3500 
L 2222 3053 
L 1275 3053 
L 1275 0 
L 697 0 
L 697 3053 
L 147 3053 
L 147 3500 
L 697 3500 
L 697 3744 
Q 697 4328 969 4595 
Q 1241 4863 1831 4863 
L 2375 4863 
z
" transform="scale(0.015625)"/>
       <path id="DejaVuSans-70" d="M 1159 525 
L 1159 -1331 
L 581 -1331 
L 581 3500 
L 1159 3500 
L 1159 2969 
Q 1341 3281 1617 3432 
Q 1894 3584 2278 3584 
Q 2916 3584 3314 3078 
Q 3713 2572 3713 1747 
Q 3713 922 3314 415 
Q 2916 -91 2278 -91 
Q 1894 -91 1617 61 
Q 1341 213 1159 525 
z
M 3116 1747 
Q 3116 2381 2855 2742 
Q 2594 3103 2138 3103 
Q 1681 3103 1420 2742 
Q 1159 2381 1159 1747 
Q 1159 1113 1420 752 
Q 1681 391 2138 391 
Q 2594 391 2855 752 
Q 3116 1113 3116 1747 
z
" transform="scale(0.015625)"/>
       <path id="DejaVuSans-74" d="M 1172 4494 
L 1172 3500 
L 2356 3500 
L 2356 3053 
L 1172 3053 
L 1172 1153 
Q 1172 725 1289 603 
Q 1406 481 1766 481 
L 2356 481 
L 2356 0 
L 1766 0 
Q 1100 0 847 248 
Q 594 497 594 1153 
L 594 3053 
L 172 3053 
L 172 3500 
L 594 3500 
L 594 4494 
L 1172 4494 
z
" transform="scale(0.015625)"/>
       <path id="DejaVuSans-69" d="M 603 3500 
L 1178 3500 
L 1178 0 
L 603 0 
L 603 3500 
z
M 603 4863 
L 1178 4863 
L 1178 4134 
L 603 4134 
L 603 4863 
z
" transform="scale(0.015625)"/>
       <path id="DejaVuSans-6e" d="M 3513 2113 
L 3513 0 
L 2938 0 
L 2938 2094 
Q 2938 2591 2744 2837 
Q 2550 3084 2163 3084 
Q 1697 3084 1428 2787 
Q 1159 2491 1159 1978 
L 1159 0 
L 581 0 
L 581 3500 
L 1159 3500 
L 1159 2956 
Q 1366 3272 1645 3428 
Q 1925 3584 2291 3584 
Q 2894 3584 3203 3211 
Q 3513 2838 3513 2113 
z
" transform="scale(0.015625)"/>
       <path id="DejaVuSans-73" d="M 2834 3397 
L 2834 2853 
Q 2591 2978 2328 3040 
Q 2066 3103 1784 3103 
Q 1356 3103 1142 2972 
Q 928 2841 928 2578 
Q 928 2378 1081 2264 
Q 1234 2150 1697 2047 
L 1894 2003 
Q 2506 1872 2764 1633 
Q 3022 1394 3022 966 
Q 3022 478 2636 193 
Q 2250 -91 1575 -91 
Q 1294 -91 989 -36 
Q 684 19 347 128 
L 347 722 
Q 666 556 975 473 
Q 1284 391 1588 391 
Q 1994 391 2212 530 
Q 2431 669 2431 922 
Q 2431 1156 2273 1281 
Q 2116 1406 1581 1522 
L 1381 1569 
Q 847 1681 609 1914 
Q 372 2147 372 2553 
Q 372 3047 722 3315 
Q 1072 3584 1716 3584 
Q 2034 3584 2315 3537 
Q 2597 3491 2834 3397 
z
" transform="scale(0.015625)"/>
      </defs>
      <use xlink:href="#DejaVuSans-4e"/>
      <use xlink:href="#DejaVuSans-75" x="74.804688"/>
      <use xlink:href="#DejaVuSans-6d" x="138.183594"/>
      <use xlink:href="#DejaVuSans-62" x="235.595703"/>
      <use xlink:href="#DejaVuSans-65" x="299.072266"/>
      <use xlink:href="#DejaVuSans-72" x="360.595703"/>
      <use xlink:href="#DejaVuSans-20" x="401.708984"/>
      <use xlink:href="#DejaVuSans-6f" x="433.496094"/>
      <use xlink:href="#DejaVuSans-66" x="494.677734"/>
      <use xlink:href="#DejaVuSans-20" x="529.882812"/>
      <use xlink:href="#DejaVuSans-70" x="561.669922"/>
      <use xlink:href="#DejaVuSans-72" x="625.146484"/>
      <use xlink:href="#DejaVuSans-6f" x="664.009766"/>
      <use xlink:href="#DejaVuSans-74" x="725.191406"/>
      <use xlink:href="#DejaVuSans-65" x="764.400391"/>
      <use xlink:href="#DejaVuSans-69" x="825.923828"/>
      <use xlink:href="#DejaVuSans-6e" x="853.707031"/>
      <use xlink:href="#DejaVuSans-73" x="917.085938"/>
     </g>
    </g>
   </g>
   <g id="patch_3">
    <path d="M 61.49 276.178737 
L 61.49 69.51044 
" style="fill: none; stroke: #000000; stroke-width: 0.8; stroke-linejoin: miter; stroke-linecap: square"/>
   </g>
   <g id="patch_4">
    <path d="M 61.49 276.178737 
L 450 276.178737 
" style="fill: none; stroke: #000000; stroke-width: 0.8; stroke-linejoin: miter; stroke-linecap: square"/>
   </g>
   <g id="legend_1">
    <g id="patch_5">
     <path d="M 98.395781 64.51044 
L 413.094219 64.51044 
Q 415.094219 64.51044 415.094219 62.51044 
L 415.094219 34.15419 
Q 415.094219 32.15419 413.094219 32.15419 
L 98.395781 32.15419 
Q 96.395781 32.15419 96.395781 34.15419 
L 96.395781 62.51044 
Q 96.395781 64.51044 98.395781 64.51044 
z
" style="fill: #ffffff; opacity: 0.8; stroke: #cccccc; stroke-linejoin: miter"/>
    </g>
    <g id="patch_6">
     <path d="M 100.395781 43.752627 
L 120.395781 43.752627 
L 120.395781 36.752627 
L 100.395781 36.752627 
z
" style="fill: #fb363b"/>
    </g>
    <g id="text_15">
     <!-- Biological role published -->
     <g transform="translate(128.395781 43.752627) scale(0.1 -0.1)">
      <defs>
       <path id="DejaVuSans-42" d="M 1259 2228 
L 1259 519 
L 2272 519 
Q 2781 519 3026 730 
Q 3272 941 3272 1375 
Q 3272 1813 3026 2020 
Q 2781 2228 2272 2228 
L 1259 2228 
z
M 1259 4147 
L 1259 2741 
L 2194 2741 
Q 2656 2741 2882 2914 
Q 3109 3088 3109 3444 
Q 3109 3797 2882 3972 
Q 2656 4147 2194 4147 
L 1259 4147 
z
M 628 4666 
L 2241 4666 
Q 2963 4666 3353 4366 
Q 3744 4066 3744 3513 
Q 3744 3084 3544 2831 
Q 3344 2578 2956 2516 
Q 3422 2416 3680 2098 
Q 3938 1781 3938 1306 
Q 3938 681 3513 340 
Q 3088 0 2303 0 
L 628 0 
L 628 4666 
z
" transform="scale(0.015625)"/>
       <path id="DejaVuSans-6c" d="M 603 4863 
L 1178 4863 
L 1178 0 
L 603 0 
L 603 4863 
z
" transform="scale(0.015625)"/>
       <path id="DejaVuSans-67" d="M 2906 1791 
Q 2906 2416 2648 2759 
Q 2391 3103 1925 3103 
Q 1463 3103 1205 2759 
Q 947 2416 947 1791 
Q 947 1169 1205 825 
Q 1463 481 1925 481 
Q 2391 481 2648 825 
Q 2906 1169 2906 1791 
z
M 3481 434 
Q 3481 -459 3084 -895 
Q 2688 -1331 1869 -1331 
Q 1566 -1331 1297 -1286 
Q 1028 -1241 775 -1147 
L 775 -588 
Q 1028 -725 1275 -790 
Q 1522 -856 1778 -856 
Q 2344 -856 2625 -561 
Q 2906 -266 2906 331 
L 2906 616 
Q 2728 306 2450 153 
Q 2172 0 1784 0 
Q 1141 0 747 490 
Q 353 981 353 1791 
Q 353 2603 747 3093 
Q 1141 3584 1784 3584 
Q 2172 3584 2450 3431 
Q 2728 3278 2906 2969 
L 2906 3500 
L 3481 3500 
L 3481 434 
z
" transform="scale(0.015625)"/>
       <path id="DejaVuSans-63" d="M 3122 3366 
L 3122 2828 
Q 2878 2963 2633 3030 
Q 2388 3097 2138 3097 
Q 1578 3097 1268 2742 
Q 959 2388 959 1747 
Q 959 1106 1268 751 
Q 1578 397 2138 397 
Q 2388 397 2633 464 
Q 2878 531 3122 666 
L 3122 134 
Q 2881 22 2623 -34 
Q 2366 -91 2075 -91 
Q 1284 -91 818 406 
Q 353 903 353 1747 
Q 353 2603 823 3093 
Q 1294 3584 2113 3584 
Q 2378 3584 2631 3529 
Q 2884 3475 3122 3366 
z
" transform="scale(0.015625)"/>
       <path id="DejaVuSans-68" d="M 3513 2113 
L 3513 0 
L 2938 0 
L 2938 2094 
Q 2938 2591 2744 2837 
Q 2550 3084 2163 3084 
Q 1697 3084 1428 2787 
Q 1159 2491 1159 1978 
L 1159 0 
L 581 0 
L 581 4863 
L 1159 4863 
L 1159 2956 
Q 1366 3272 1645 3428 
Q 1925 3584 2291 3584 
Q 2894 3584 3203 3211 
Q 3513 2838 3513 2113 
z
" transform="scale(0.015625)"/>
       <path id="DejaVuSans-64" d="M 2906 2969 
L 2906 4863 
L 3481 4863 
L 3481 0 
L 2906 0 
L 2906 525 
Q 2725 213 2448 61 
Q 2172 -91 1784 -91 
Q 1150 -91 751 415 
Q 353 922 353 1747 
Q 353 2572 751 3078 
Q 1150 3584 1784 3584 
Q 2172 3584 2448 3432 
Q 2725 3281 2906 2969 
z
M 947 1747 
Q 947 1113 1208 752 
Q 1469 391 1925 391 
Q 2381 391 2643 752 
Q 2906 1113 2906 1747 
Q 2906 2381 2643 2742 
Q 2381 3103 1925 3103 
Q 1469 3103 1208 2742 
Q 947 2381 947 1747 
z
" transform="scale(0.015625)"/>
      </defs>
      <use xlink:href="#DejaVuSans-42"/>
      <use xlink:href="#DejaVuSans-69" x="68.603516"/>
      <use xlink:href="#DejaVuSans-6f" x="96.386719"/>
      <use xlink:href="#DejaVuSans-6c" x="157.568359"/>
      <use xlink:href="#DejaVuSans-6f" x="185.351562"/>
      <use xlink:href="#DejaVuSans-67" x="246.533203"/>
      <use xlink:href="#DejaVuSans-69" x="310.009766"/>
      <use xlink:href="#DejaVuSans-63" x="337.792969"/>
      <use xlink:href="#DejaVuSans-61" x="392.773438"/>
      <use xlink:href="#DejaVuSans-6c" x="454.052734"/>
      <use xlink:href="#DejaVuSans-20" x="481.835938"/>
      <use xlink:href="#DejaVuSans-72" x="513.623047"/>
      <use xlink:href="#DejaVuSans-6f" x="552.486328"/>
      <use xlink:href="#DejaVuSans-6c" x="613.667969"/>
      <use xlink:href="#DejaVuSans-65" x="641.451172"/>
      <use xlink:href="#DejaVuSans-20" x="702.974609"/>
      <use xlink:href="#DejaVuSans-70" x="734.761719"/>
      <use xlink:href="#DejaVuSans-75" x="798.238281"/>
      <use xlink:href="#DejaVuSans-62" x="861.617188"/>
      <use xlink:href="#DejaVuSans-6c" x="925.09375"/>
      <use xlink:href="#DejaVuSans-69" x="952.876953"/>
      <use xlink:href="#DejaVuSans-73" x="980.660156"/>
      <use xlink:href="#DejaVuSans-68" x="1032.759766"/>
      <use xlink:href="#DejaVuSans-65" x="1096.138672"/>
      <use xlink:href="#DejaVuSans-64" x="1157.662109"/>
     </g>
    </g>
    <g id="patch_7">
     <path d="M 100.395781 58.430752 
L 120.395781 58.430752 
L 120.395781 51.430752 
L 100.395781 51.430752 
z
" style="fill: #fdc92c"/>
    </g>
    <g id="text_16">
     <!-- Biological role inferred -->
     <g transform="translate(128.395781 58.430752) scale(0.1 -0.1)">
      <use xlink:href="#DejaVuSans-42"/>
      <use xlink:href="#DejaVuSans-69" x="68.603516"/>
      <use xlink:href="#DejaVuSans-6f" x="96.386719"/>
      <use xlink:href="#DejaVuSans-6c" x="157.568359"/>
      <use xlink:href="#DejaVuSans-6f" x="185.351562"/>
      <use xlink:href="#DejaVuSans-67" x="246.533203"/>
      <use xlink:href="#DejaVuSans-69" x="310.009766"/>
      <use xlink:href="#DejaVuSans-63" x="337.792969"/>
      <use xlink:href="#DejaVuSans-61" x="392.773438"/>
      <use xlink:href="#DejaVuSans-6c" x="454.052734"/>
      <use xlink:href="#DejaVuSans-20" x="481.835938"/>
      <use xlink:href="#DejaVuSans-72" x="513.623047"/>
      <use xlink:href="#DejaVuSans-6f" x="552.486328"/>
      <use xlink:href="#DejaVuSans-6c" x="613.667969"/>
      <use xlink:href="#DejaVuSans-65" x="641.451172"/>
      <use xlink:href="#DejaVuSans-20" x="702.974609"/>
      <use xlink:href="#DejaVuSans-69" x="734.761719"/>
      <use xlink:href="#DejaVuSans-6e" x="762.544922"/>
      <use xlink:href="#DejaVuSans-66" x="825.923828"/>
      <use xlink:href="#DejaVuSans-65" x="861.128906"/>
      <use xlink:href="#DejaVuSans-72" x="922.652344"/>
      <use xlink:href="#DejaVuSans-72" x="962.015625"/>
      <use xlink:href="#DejaVuSans-65" x="1000.878906"/>
      <use xlink:href="#DejaVuSans-64" x="1062.402344"/>
     </g>
    </g>
    <g id="patch_8">
     <path d="M 270.512969 43.752627 
L 290.512969 43.752627 
L 290.512969 36.752627 
L 270.512969 36.752627 
z
" style="fill: #aeaeae"/>
    </g>
    <g id="text_17">
     <!-- Conserved unknown -->
     <g transform="translate(298.512969 43.752627) scale(0.1 -0.1)">
      <defs>
       <path id="DejaVuSans-43" d="M 4122 4306 
L 4122 3641 
Q 3803 3938 3442 4084 
Q 3081 4231 2675 4231 
Q 1875 4231 1450 3742 
Q 1025 3253 1025 2328 
Q 1025 1406 1450 917 
Q 1875 428 2675 428 
Q 3081 428 3442 575 
Q 3803 722 4122 1019 
L 4122 359 
Q 3791 134 3420 21 
Q 3050 -91 2638 -91 
Q 1578 -91 968 557 
Q 359 1206 359 2328 
Q 359 3453 968 4101 
Q 1578 4750 2638 4750 
Q 3056 4750 3426 4639 
Q 3797 4528 4122 4306 
z
" transform="scale(0.015625)"/>
       <path id="DejaVuSans-76" d="M 191 3500 
L 800 3500 
L 1894 563 
L 2988 3500 
L 3597 3500 
L 2284 0 
L 1503 0 
L 191 3500 
z
" transform="scale(0.015625)"/>
       <path id="DejaVuSans-6b" d="M 581 4863 
L 1159 4863 
L 1159 1991 
L 2875 3500 
L 3609 3500 
L 1753 1863 
L 3688 0 
L 2938 0 
L 1159 1709 
L 1159 0 
L 581 0 
L 581 4863 
z
" transform="scale(0.015625)"/>
       <path id="DejaVuSans-77" d="M 269 3500 
L 844 3500 
L 1563 769 
L 2278 3500 
L 2956 3500 
L 3675 769 
L 4391 3500 
L 4966 3500 
L 4050 0 
L 3372 0 
L 2619 2869 
L 1863 0 
L 1184 0 
L 269 3500 
z
" transform="scale(0.015625)"/>
      </defs>
      <use xlink:href="#DejaVuSans-43"/>
      <use xlink:href="#DejaVuSans-6f" x="69.824219"/>
      <use xlink:href="#DejaVuSans-6e" x="131.005859"/>
      <use xlink:href="#DejaVuSans-73" x="194.384766"/>
      <use xlink:href="#DejaVuSans-65" x="246.484375"/>
      <use xlink:href="#DejaVuSans-72" x="308.007812"/>
      <use xlink:href="#DejaVuSans-76" x="349.121094"/>
      <use xlink:href="#DejaVuSans-65" x="408.300781"/>
      <use xlink:href="#DejaVuSans-64" x="469.824219"/>
      <use xlink:href="#DejaVuSans-20" x="533.300781"/>
      <use xlink:href="#DejaVuSans-75" x="565.087891"/>
      <use xlink:href="#DejaVuSans-6e" x="628.466797"/>
      <use xlink:href="#DejaVuSans-6b" x="691.845703"/>
      <use xlink:href="#DejaVuSans-6e" x="749.755859"/>
      <use xlink:href="#DejaVuSans-6f" x="813.134766"/>
      <use xlink:href="#DejaVuSans-77" x="874.316406"/>
      <use xlink:href="#DejaVuSans-6e" x="956.103516"/>
     </g>
    </g>
    <g id="patch_9">
     <path d="M 270.512969 58.430752 
L 290.512969 58.430752 
L 290.512969 51.430752 
L 270.512969 51.430752 
z
" style="fill: #d5dce5"/>
    </g>
    <g id="text_18">
     <!-- Fission yeast unknown -->
     <g transform="translate(298.512969 58.430752) scale(0.1 -0.1)">
      <defs>
       <path id="DejaVuSans-46" d="M 628 4666 
L 3309 4666 
L 3309 4134 
L 1259 4134 
L 1259 2759 
L 3109 2759 
L 3109 2228 
L 1259 2228 
L 1259 0 
L 628 0 
L 628 4666 
z
" transform="scale(0.015625)"/>
       <path id="DejaVuSans-79" d="M 2059 -325 
Q 1816 -950 1584 -1140 
Q 1353 -1331 966 -1331 
L 506 -1331 
L 506 -850 
L 844 -850 
Q 1081 -850 1212 -737 
Q 1344 -625 1503 -206 
L 1606 56 
L 191 3500 
L 800 3500 
L 1894 763 
L 2988 3500 
L 3597 3500 
L 2059 -325 
z
" transform="scale(0.015625)"/>
      </defs>
      <use xlink:href="#DejaVuSans-46"/>
      <use xlink:href="#DejaVuSans-69" x="50.269531"/>
      <use xlink:href="#DejaVuSans-73" x="78.052734"/>
      <use xlink:href="#DejaVuSans-73" x="130.152344"/>
      <use xlink:href="#DejaVuSans-69" x="182.251953"/>
      <use xlink:href="#DejaVuSans-6f" x="210.035156"/>
      <use xlink:href="#DejaVuSans-6e" x="271.216797"/>
      <use xlink:href="#DejaVuSans-20" x="334.595703"/>
      <use xlink:href="#DejaVuSans-79" x="366.382812"/>
      <use xlink:href="#DejaVuSans-65" x="425.5625"/>
      <use xlink:href="#DejaVuSans-61" x="487.085938"/>
      <use xlink:href="#DejaVuSans-73" x="548.365234"/>
      <use xlink:href="#DejaVuSans-74" x="600.464844"/>
      <use xlink:href="#DejaVuSans-20" x="639.673828"/>
      <use xlink:href="#DejaVuSans-75" x="671.460938"/>
      <use xlink:href="#DejaVuSans-6e" x="734.839844"/>
      <use xlink:href="#DejaVuSans-6b" x="798.21875"/>
      <use xlink:href="#DejaVuSans-6e" x="856.128906"/>
      <use xlink:href="#DejaVuSans-6f" x="919.507812"/>
      <use xlink:href="#DejaVuSans-77" x="980.689453"/>
      <use xlink:href="#DejaVuSans-6e" x="1062.476562"/>
     </g>
    </g>
   </g>
  </g>
 </g>
 <defs>
  <clipPath id="pecc7581db1">
   <rect x="61.49" y="69.51044" width="388.51" height="206.668297"/>
  </clipPath>
 </defs>
</svg>
