<?xml version="1.0" encoding="utf-8" standalone="no"?>
<!DOCTYPE svg PUBLIC "-//W3C//DTD SVG 1.1//EN"
  "http://www.w3.org/Graphics/SVG/1.1/DTD/svg11.dtd">
<svg xmlns:xlink="http://www.w3.org/1999/xlink" width="460.8pt" height="345.6pt" viewBox="0 0 460.8 345.6" xmlns="http://www.w3.org/2000/svg" version="1.1">
 <metadata>
  <rdf:RDF xmlns:dc="http://purl.org/dc/elements/1.1/" xmlns:cc="http://creativecommons.org/ns#" xmlns:rdf="http://www.w3.org/1999/02/22-rdf-syntax-ns#">
   <cc:Work>
    <dc:type rdf:resource="http://purl.org/dc/dcmitype/StillImage"/>
    <dc:date>2023-09-02T00:49:24.470111</dc:date>
    <dc:format>image/svg+xml</dc:format>
    <dc:creator>
     <cc:Agent>
      <dc:title>Matplotlib v3.7.1, https://matplotlib.org/</dc:title>
     </cc:Agent>
    </dc:creator>
   </cc:Work>
  </rdf:RDF>
 </metadata>
 <defs>
  <style type="text/css">*{stroke-linejoin: round; stroke-linecap: butt}</style>
 </defs>
 <g id="figure_1">
  <g id="patch_1">
   <path d="M 0 345.6 
L 460.8 345.6 
L 460.8 0 
L 0 0 
z
" style="fill: #ffffff"/>
  </g>
  <g id="axes_1">
   <g id="patch_2">
    <path d="M 61.49 299.32 
L 450 299.32 
L 450 48.96 
L 61.49 48.96 
z
" style="fill: #ffffff"/>
   </g>
   <g id="PolyCollection_1">
    <path d="M 29.718095 235.783537 
L 29.718095 299.32 
L 38.593222 299.32 
L 47.363318 299.32 
L 65.37615 299.32 
L 86.277337 299.32 
L 101.664392 299.32 
L 111.222221 299.32 
L 113.690451 299.32 
L 118.259304 299.32 
L 120.359926 299.32 
L 120.622503 299.32 
L 124.088529 299.32 
L 124.981294 299.32 
L 125.716511 299.32 
L 126.609275 299.32 
L 127.186946 299.32 
L 128.079711 299.32 
L 128.604866 299.32 
L 129.550146 299.32 
L 130.810519 299.32 
L 131.808314 299.32 
L 132.175923 299.32 
L 133.226234 299.32 
L 133.961452 299.32 
L 134.749185 299.32 
L 135.589434 299.32 
L 136.167105 299.32 
L 136.69226 299.32 
L 138.162695 299.32 
L 139.213006 299.32 
L 140.000739 299.32 
L 140.210802 299.32 
L 140.946019 299.32 
L 142.048846 299.32 
L 143.204188 299.32 
L 143.991921 299.32 
L 145.147263 299.32 
L 146.670214 299.32 
L 148.770835 299.32 
L 150.608879 299.32 
L 152.184346 299.32 
L 155.125216 299.32 
L 156.385589 299.32 
L 159.7991 299.32 
L 162.004753 299.32 
L 163.370157 299.32 
L 164.210406 299.32 
L 167.518885 299.32 
L 169.356929 299.32 
L 171.247489 299.32 
L 174.976092 299.32 
L 178.442118 299.32 
L 179.019789 299.32 
L 179.702491 299.32 
L 180.752802 299.32 
L 181.593051 299.32 
L 184.166313 299.32 
L 189.312836 299.32 
L 190.310631 299.32 
L 195.142061 299.32 
L 196.244888 299.32 
L 197.347714 299.32 
L 199.133243 299.32 
L 200.603678 299.32 
L 202.021598 299.32 
L 202.914362 299.32 
L 205.802717 299.32 
L 208.796103 299.32 
L 210.266538 299.32 
L 211.316849 299.32 
L 212.629738 299.32 
L 213.732564 299.32 
L 215.045453 299.32 
L 218.14387 299.32 
L 219.771852 299.32 
L 221.347318 299.32 
L 222.9753 299.32 
L 224.550766 299.32 
L 226.178748 299.32 
L 227.80673 299.32 
L 229.329681 299.32 
L 230.957663 299.32 
L 232.533129 299.32 
L 234.161111 299.32 
L 235.736577 299.32 
L 237.364559 299.32 
L 238.992541 299.32 
L 240.568008 299.32 
L 242.195989 299.32 
L 243.771456 299.32 
L 245.399438 299.32 
L 247.02742 299.32 
L 248.497855 299.32 
L 250.125837 299.32 
L 251.701303 299.32 
L 253.329285 299.32 
L 254.904751 299.32 
L 256.532733 299.32 
L 258.160715 299.32 
L 259.736181 299.32 
L 261.364163 299.32 
L 262.93963 299.32 
L 264.567612 299.32 
L 266.195593 299.32 
L 267.666029 299.32 
L 269.294011 299.32 
L 270.869477 299.32 
L 272.497459 299.32 
L 274.072925 299.32 
L 275.700907 299.32 
L 277.328889 299.32 
L 278.904355 299.32 
L 280.532337 299.32 
L 282.107803 299.32 
L 283.735785 299.32 
L 285.363767 299.32 
L 286.834202 299.32 
L 288.462184 299.32 
L 290.037651 299.32 
L 291.665633 299.32 
L 293.241099 299.32 
L 294.869081 299.32 
L 296.497063 299.32 
L 298.072529 299.32 
L 299.700511 299.32 
L 301.275977 299.32 
L 302.903959 299.32 
L 304.531941 299.32 
L 306.054892 299.32 
L 307.682874 299.32 
L 309.25834 299.32 
L 310.886322 299.32 
L 312.461788 299.32 
L 314.08977 299.32 
L 315.717752 299.32 
L 317.293218 299.32 
L 318.9212 299.32 
L 320.496667 299.32 
L 322.124649 299.32 
L 323.75263 299.32 
L 325.223066 299.32 
L 326.851048 299.32 
L 328.426514 299.32 
L 330.054496 299.32 
L 331.629962 299.32 
L 333.257944 299.32 
L 334.885926 299.32 
L 336.461392 299.32 
L 338.089374 299.32 
L 339.66484 299.32 
L 341.292822 299.32 
L 342.920804 299.32 
L 344.39124 299.32 
L 346.019221 299.32 
L 347.594688 299.32 
L 349.22267 299.32 
L 350.798136 299.32 
L 352.426118 299.32 
L 354.0541 299.32 
L 355.629566 299.32 
L 357.257548 299.32 
L 358.833014 299.32 
L 360.460996 299.32 
L 362.088978 299.32 
L 363.559413 299.32 
L 365.187395 299.32 
L 366.762862 299.32 
L 368.390843 299.32 
L 369.96631 299.32 
L 371.594292 299.32 
L 373.222274 299.32 
L 374.79774 299.32 
L 376.425722 299.32 
L 378.001188 299.32 
L 379.62917 299.32 
L 381.257152 299.32 
L 382.780103 299.32 
L 384.408085 299.32 
L 385.983551 299.32 
L 387.611533 299.32 
L 389.186999 299.32 
L 390.814981 299.32 
L 392.442963 299.32 
L 394.018429 299.32 
L 395.646411 299.32 
L 397.221878 299.32 
L 398.849859 299.32 
L 400.477841 299.32 
L 401.948277 299.32 
L 403.576258 299.32 
L 405.151725 299.32 
L 406.779707 299.32 
L 408.355173 299.32 
L 409.983155 299.32 
L 411.611137 299.32 
L 413.186603 299.32 
L 414.814585 299.32 
L 416.390051 299.32 
L 418.018033 299.32 
L 419.646015 299.32 
L 421.11645 299.32 
L 422.744432 299.32 
L 424.319899 299.32 
L 425.947881 299.32 
L 427.523347 299.32 
L 429.151329 299.32 
L 430.779311 299.32 
L 432.354777 299.32 
L 433.982759 299.32 
L 435.558225 299.32 
L 437.186207 299.32 
L 438.814189 299.32 
L 440.284624 299.32 
L 441.912606 299.32 
L 443.488072 299.32 
L 445.116054 299.32 
L 446.691521 299.32 
L 448.319503 299.32 
L 449.947484 299.32 
L 449.947484 180.618274 
L 449.947484 180.618274 
L 448.319503 180.759361 
L 446.691521 181.323712 
L 445.116054 181.605887 
L 443.488072 181.746975 
L 441.912606 181.746975 
L 440.284624 182.170238 
L 438.814189 182.875676 
L 437.186207 182.828647 
L 435.558225 182.969734 
L 433.982759 183.110822 
L 432.354777 183.392997 
L 430.779311 183.392997 
L 429.151329 183.440026 
L 427.523347 183.440026 
L 425.947881 183.392997 
L 424.319899 183.487056 
L 422.744432 183.392997 
L 421.11645 183.345968 
L 419.646015 183.392997 
L 418.018033 183.392997 
L 416.390051 183.628143 
L 414.814585 183.863289 
L 413.186603 184.239523 
L 411.611137 184.521698 
L 409.983155 184.474669 
L 408.355173 184.709815 
L 406.779707 185.039019 
L 405.151725 185.039019 
L 403.576258 185.227136 
L 401.948277 185.838516 
L 400.477841 185.979604 
L 398.849859 186.496925 
L 397.221878 186.543954 
L 395.646411 186.732071 
L 394.018429 186.826129 
L 392.442963 187.014246 
L 390.814981 187.061275 
L 389.186999 187.155334 
L 387.611533 187.155334 
L 385.983551 187.249392 
L 384.408085 187.672655 
L 382.780103 187.813743 
L 381.257152 187.907801 
L 379.62917 188.00186 
L 378.001188 188.00186 
L 376.425722 188.00186 
L 374.79774 188.142947 
L 373.222274 188.237006 
L 371.594292 188.425123 
L 369.96631 188.707298 
L 368.390843 188.848385 
L 366.762862 188.942444 
L 365.187395 189.036502 
L 363.559413 189.083532 
L 362.088978 189.083532 
L 360.460996 189.130561 
L 358.833014 189.17759 
L 357.257548 189.271648 
L 355.629566 189.318678 
L 354.0541 189.318678 
L 352.426118 189.459765 
L 350.798136 189.600853 
L 349.22267 189.883028 
L 347.594688 190.071145 
L 346.019221 190.447379 
L 344.39124 190.635495 
L 342.920804 190.823612 
L 341.292822 190.870641 
L 339.66484 191.058758 
L 338.089374 191.246875 
L 336.461392 193.31616 
L 334.885926 193.645365 
L 333.257944 194.53892 
L 331.629962 193.786453 
L 330.054496 193.692394 
L 328.426514 193.739423 
L 326.851048 193.833482 
L 325.223066 194.162686 
L 323.75263 194.209715 
L 322.124649 194.303774 
L 320.496667 195.197329 
L 318.9212 195.338416 
L 317.293218 195.573563 
L 315.717752 195.667621 
L 314.08977 195.808709 
L 312.461788 196.32603 
L 310.886322 196.561176 
L 309.25834 196.561176 
L 307.682874 197.031468 
L 306.054892 197.125526 
L 304.531941 197.172556 
L 302.903959 197.407702 
L 301.275977 197.50176 
L 299.700511 197.50176 
L 298.072529 197.736906 
L 296.497063 197.783935 
L 294.869081 197.830965 
L 293.241099 198.019081 
L 291.665633 198.160169 
L 290.037651 197.454731 
L 288.462184 197.548789 
L 286.834202 197.783935 
L 285.363767 197.783935 
L 283.735785 198.066111 
L 282.107803 198.254227 
L 280.532337 198.583432 
L 278.904355 199.006695 
L 277.328889 199.382929 
L 275.700907 199.476987 
L 274.072925 199.806191 
L 272.497459 200.088367 
L 270.869477 200.51163 
L 269.294011 200.699746 
L 267.666029 200.934892 
L 266.195593 200.981922 
L 264.567612 200.981922 
L 262.93963 201.217068 
L 261.364163 201.781418 
L 259.736181 201.828447 
L 258.160715 202.110623 
L 256.532733 202.910119 
L 254.904751 203.004178 
L 253.329285 203.568528 
L 251.701303 203.944762 
L 250.125837 205.214551 
L 248.497855 205.308609 
L 247.02742 205.449697 
L 245.399438 205.778901 
L 243.771456 205.87296 
L 242.195989 206.155135 
L 240.568008 206.390281 
L 238.992541 206.813544 
L 237.364559 207.04869 
L 235.736577 207.189777 
L 234.161111 207.471953 
L 232.533129 207.518982 
L 230.957663 207.66007 
L 229.329681 207.848186 
L 227.80673 207.848186 
L 226.178748 207.942245 
L 224.550766 207.989274 
L 222.9753 208.036303 
L 221.347318 208.083332 
L 219.771852 208.130362 
L 218.14387 208.271449 
L 215.045453 209.165004 
L 213.732564 209.40015 
L 212.629738 209.447179 
L 211.316849 209.306092 
L 210.266538 209.306092 
L 208.796103 209.447179 
L 205.802717 209.588267 
L 202.914362 210.340734 
L 202.021598 211.469436 
L 200.603678 211.281319 
L 199.133243 211.234289 
L 197.347714 212.080815 
L 196.244888 212.080815 
L 195.142061 211.79864 
L 190.310631 212.41002 
L 189.312836 212.504078 
L 184.166313 213.303575 
L 181.593051 213.397633 
L 180.752802 213.209516 
L 179.702491 213.350604 
L 179.019789 213.58575 
L 178.442118 213.632779 
L 174.976092 213.773867 
L 171.247489 213.867925 
L 169.356929 214.103071 
L 167.518885 216.595619 
L 164.210406 216.501561 
L 163.370157 216.54859 
L 162.004753 217.065912 
L 159.7991 218.382729 
L 156.385589 218.664905 
L 155.125216 219.135197 
L 152.184346 219.464401 
L 150.608879 220.452015 
L 148.770835 221.110424 
L 146.670214 221.627745 
L 145.147263 221.674774 
L 143.991921 221.768833 
L 143.204188 221.815862 
L 142.048846 221.862891 
L 140.946019 222.709417 
L 140.210802 223.13268 
L 140.000739 223.13268 
L 139.213006 223.13268 
L 138.162695 223.414855 
L 136.69226 223.13268 
L 136.167105 223.367826 
L 135.589434 223.461884 
L 134.749185 223.602972 
L 133.961452 223.602972 
L 133.226234 223.979205 
L 132.175923 224.825731 
L 131.808314 224.778702 
L 130.810519 225.201965 
L 129.550146 225.296023 
L 128.604866 225.390082 
L 128.079711 225.48414 
L 127.186946 225.625228 
L 126.609275 225.907403 
L 125.716511 226.142549 
L 124.981294 226.048491 
L 124.088529 226.142549 
L 120.622503 226.471754 
L 120.359926 226.424724 
L 118.259304 226.800958 
L 113.690451 224.543556 
L 111.222221 227.88263 
L 101.664392 232.256346 
L 86.277337 236.347888 
L 65.37615 241.615159 
L 47.363318 235.548391 
L 38.593222 234.795924 
L 29.718095 235.783537 
z
" clip-path="url(#pf4b43e9a4b)" style="fill: #fb363b"/>
   </g>
   <g id="PolyCollection_2">
    <path d="M 29.718095 139.091481 
L 29.718095 235.783537 
L 38.593222 234.795924 
L 47.363318 235.548391 
L 65.37615 241.615159 
L 86.277337 236.347888 
L 101.664392 232.256346 
L 111.222221 227.88263 
L 113.690451 224.543556 
L 118.259304 226.800958 
L 120.359926 226.424724 
L 120.622503 226.471754 
L 124.088529 226.142549 
L 124.981294 226.048491 
L 125.716511 226.142549 
L 126.609275 225.907403 
L 127.186946 225.625228 
L 128.079711 225.48414 
L 128.604866 225.390082 
L 129.550146 225.296023 
L 130.810519 225.201965 
L 131.808314 224.778702 
L 132.175923 224.825731 
L 133.226234 223.979205 
L 133.961452 223.602972 
L 134.749185 223.602972 
L 135.589434 223.461884 
L 136.167105 223.367826 
L 136.69226 223.13268 
L 138.162695 223.414855 
L 139.213006 223.13268 
L 140.000739 223.13268 
L 140.210802 223.13268 
L 140.946019 222.709417 
L 142.048846 221.862891 
L 143.204188 221.815862 
L 143.991921 221.768833 
L 145.147263 221.674774 
L 146.670214 221.627745 
L 148.770835 221.110424 
L 150.608879 220.452015 
L 152.184346 219.464401 
L 155.125216 219.135197 
L 156.385589 218.664905 
L 159.7991 218.382729 
L 162.004753 217.065912 
L 163.370157 216.54859 
L 164.210406 216.501561 
L 167.518885 216.595619 
L 169.356929 214.103071 
L 171.247489 213.867925 
L 174.976092 213.773867 
L 178.442118 213.632779 
L 179.019789 213.58575 
L 179.702491 213.350604 
L 180.752802 213.209516 
L 181.593051 213.397633 
L 184.166313 213.303575 
L 189.312836 212.504078 
L 190.310631 212.41002 
L 195.142061 211.79864 
L 196.244888 212.080815 
L 197.347714 212.080815 
L 199.133243 211.234289 
L 200.603678 211.281319 
L 202.021598 211.469436 
L 202.914362 210.340734 
L 205.802717 209.588267 
L 208.796103 209.447179 
L 210.266538 209.306092 
L 211.316849 209.306092 
L 212.629738 209.447179 
L 213.732564 209.40015 
L 215.045453 209.165004 
L 218.14387 208.271449 
L 219.771852 208.130362 
L 221.347318 208.083332 
L 222.9753 208.036303 
L 224.550766 207.989274 
L 226.178748 207.942245 
L 227.80673 207.848186 
L 229.329681 207.848186 
L 230.957663 207.66007 
L 232.533129 207.518982 
L 234.161111 207.471953 
L 235.736577 207.189777 
L 237.364559 207.04869 
L 238.992541 206.813544 
L 240.568008 206.390281 
L 242.195989 206.155135 
L 243.771456 205.87296 
L 245.399438 205.778901 
L 247.02742 205.449697 
L 248.497855 205.308609 
L 250.125837 205.214551 
L 251.701303 203.944762 
L 253.329285 203.568528 
L 254.904751 203.004178 
L 256.532733 202.910119 
L 258.160715 202.110623 
L 259.736181 201.828447 
L 261.364163 201.781418 
L 262.93963 201.217068 
L 264.567612 200.981922 
L 266.195593 200.981922 
L 267.666029 200.934892 
L 269.294011 200.699746 
L 270.869477 200.51163 
L 272.497459 200.088367 
L 274.072925 199.806191 
L 275.700907 199.476987 
L 277.328889 199.382929 
L 278.904355 199.006695 
L 280.532337 198.583432 
L 282.107803 198.254227 
L 283.735785 198.066111 
L 285.363767 197.783935 
L 286.834202 197.783935 
L 288.462184 197.548789 
L 290.037651 197.454731 
L 291.665633 198.160169 
L 293.241099 198.019081 
L 294.869081 197.830965 
L 296.497063 197.783935 
L 298.072529 197.736906 
L 299.700511 197.50176 
L 301.275977 197.50176 
L 302.903959 197.407702 
L 304.531941 197.172556 
L 306.054892 197.125526 
L 307.682874 197.031468 
L 309.25834 196.561176 
L 310.886322 196.561176 
L 312.461788 196.32603 
L 314.08977 195.808709 
L 315.717752 195.667621 
L 317.293218 195.573563 
L 318.9212 195.338416 
L 320.496667 195.197329 
L 322.124649 194.303774 
L 323.75263 194.209715 
L 325.223066 194.162686 
L 326.851048 193.833482 
L 328.426514 193.739423 
L 330.054496 193.692394 
L 331.629962 193.786453 
L 333.257944 194.53892 
L 334.885926 193.645365 
L 336.461392 193.31616 
L 338.089374 191.246875 
L 339.66484 191.058758 
L 341.292822 190.870641 
L 342.920804 190.823612 
L 344.39124 190.635495 
L 346.019221 190.447379 
L 347.594688 190.071145 
L 349.22267 189.883028 
L 350.798136 189.600853 
L 352.426118 189.459765 
L 354.0541 189.318678 
L 355.629566 189.318678 
L 357.257548 189.271648 
L 358.833014 189.17759 
L 360.460996 189.130561 
L 362.088978 189.083532 
L 363.559413 189.083532 
L 365.187395 189.036502 
L 366.762862 188.942444 
L 368.390843 188.848385 
L 369.96631 188.707298 
L 371.594292 188.425123 
L 373.222274 188.237006 
L 374.79774 188.142947 
L 376.425722 188.00186 
L 378.001188 188.00186 
L 379.62917 188.00186 
L 381.257152 187.907801 
L 382.780103 187.813743 
L 384.408085 187.672655 
L 385.983551 187.249392 
L 387.611533 187.155334 
L 389.186999 187.155334 
L 390.814981 187.061275 
L 392.442963 187.014246 
L 394.018429 186.826129 
L 395.646411 186.732071 
L 397.221878 186.543954 
L 398.849859 186.496925 
L 400.477841 185.979604 
L 401.948277 185.838516 
L 403.576258 185.227136 
L 405.151725 185.039019 
L 406.779707 185.039019 
L 408.355173 184.709815 
L 409.983155 184.474669 
L 411.611137 184.521698 
L 413.186603 184.239523 
L 414.814585 183.863289 
L 416.390051 183.628143 
L 418.018033 183.392997 
L 419.646015 183.392997 
L 421.11645 183.345968 
L 422.744432 183.392997 
L 424.319899 183.487056 
L 425.947881 183.392997 
L 427.523347 183.440026 
L 429.151329 183.440026 
L 430.779311 183.392997 
L 432.354777 183.392997 
L 433.982759 183.110822 
L 435.558225 182.969734 
L 437.186207 182.828647 
L 438.814189 182.875676 
L 440.284624 182.170238 
L 441.912606 181.746975 
L 443.488072 181.746975 
L 445.116054 181.605887 
L 446.691521 181.323712 
L 448.319503 180.759361 
L 449.947484 180.618274 
L 449.947484 90.886541 
L 449.947484 90.886541 
L 448.319503 90.886541 
L 446.691521 91.215745 
L 445.116054 91.497921 
L 443.488072 91.639008 
L 441.912606 91.639008 
L 440.284624 91.686037 
L 438.814189 91.874154 
L 437.186207 92.015242 
L 435.558225 92.1093 
L 433.982759 92.1093 
L 432.354777 92.156329 
L 430.779311 92.015242 
L 429.151329 92.062271 
L 427.523347 92.062271 
L 425.947881 92.297417 
L 424.319899 92.250388 
L 422.744432 92.250388 
L 421.11645 92.297417 
L 419.646015 92.391476 
L 418.018033 92.391476 
L 416.390051 92.532563 
L 414.814585 92.485534 
L 413.186603 92.626622 
L 411.611137 92.673651 
L 409.983155 92.72068 
L 408.355173 92.767709 
L 406.779707 92.814738 
L 405.151725 92.767709 
L 403.576258 92.908797 
L 401.948277 93.143943 
L 400.477841 93.33206 
L 398.849859 93.379089 
L 397.221878 93.379089 
L 395.646411 93.473147 
L 394.018429 93.520177 
L 392.442963 93.614235 
L 390.814981 93.614235 
L 389.186999 93.661264 
L 387.611533 93.708293 
L 385.983551 93.567206 
L 384.408085 93.520177 
L 382.780103 93.567206 
L 381.257152 93.473147 
L 379.62917 93.473147 
L 378.001188 93.473147 
L 376.425722 93.473147 
L 374.79774 93.473147 
L 373.222274 93.520177 
L 371.594292 93.473147 
L 369.96631 93.520177 
L 368.390843 93.520177 
L 366.762862 93.379089 
L 365.187395 93.379089 
L 363.559413 93.426118 
L 362.088978 93.426118 
L 360.460996 93.520177 
L 358.833014 93.520177 
L 357.257548 93.614235 
L 355.629566 93.614235 
L 354.0541 93.614235 
L 352.426118 93.661264 
L 350.798136 93.661264 
L 349.22267 93.661264 
L 347.594688 93.708293 
L 346.019221 93.755323 
L 344.39124 94.131556 
L 342.920804 94.272644 
L 341.292822 94.178586 
L 339.66484 94.272644 
L 338.089374 94.413732 
L 336.461392 94.460761 
L 334.885926 95.11917 
L 333.257944 95.495403 
L 331.629962 98.08201 
L 330.054496 99.539915 
L 328.426514 100.057237 
L 326.851048 100.057237 
L 325.223066 100.43347 
L 323.75263 100.339412 
L 322.124649 99.398828 
L 320.496667 99.633974 
L 318.9212 100.151295 
L 317.293218 100.151295 
L 315.717752 100.010208 
L 314.08977 100.198324 
L 312.461788 100.245354 
L 310.886322 100.245354 
L 309.25834 100.292383 
L 307.682874 100.386441 
L 306.054892 100.386441 
L 304.531941 100.43347 
L 302.903959 100.43347 
L 301.275977 100.574558 
L 299.700511 100.621587 
L 298.072529 100.668617 
L 296.497063 100.668617 
L 294.869081 100.621587 
L 293.241099 100.668617 
L 291.665633 100.621587 
L 290.037651 101.374055 
L 288.462184 101.327025 
L 286.834202 101.421084 
L 285.363767 101.515142 
L 283.735785 101.65623 
L 282.107803 101.609201 
L 280.532337 101.938405 
L 278.904355 102.079493 
L 277.328889 102.26761 
L 275.700907 102.502756 
L 274.072925 102.549785 
L 272.497459 102.455726 
L 270.869477 102.549785 
L 269.294011 102.596814 
L 267.666029 102.596814 
L 266.195593 102.596814 
L 264.567612 102.596814 
L 262.93963 102.784931 
L 261.364163 102.878989 
L 259.736181 103.161165 
L 258.160715 103.208194 
L 256.532733 103.490369 
L 254.904751 103.584428 
L 253.329285 103.866603 
L 251.701303 104.00769 
L 250.125837 104.195807 
L 248.497855 104.242836 
L 247.02742 104.289866 
L 245.399438 104.477983 
L 243.771456 104.477983 
L 242.195989 104.713129 
L 240.568008 105.042333 
L 238.992541 105.23045 
L 237.364559 105.418567 
L 235.736577 105.653713 
L 234.161111 105.747771 
L 232.533129 106.124005 
L 230.957663 106.124005 
L 229.329681 106.171034 
L 227.80673 106.171034 
L 226.178748 106.171034 
L 224.550766 106.171034 
L 222.9753 106.171034 
L 221.347318 106.218063 
L 219.771852 106.40618 
L 218.14387 106.500239 
L 215.045453 107.064589 
L 213.732564 107.770027 
L 212.629738 108.099232 
L 211.316849 107.440823 
L 210.266538 107.817056 
L 208.796103 107.958144 
L 205.802717 108.146261 
L 202.914362 108.146261 
L 202.021598 108.334378 
L 200.603678 108.945757 
L 199.133243 108.898728 
L 197.347714 109.9804 
L 196.244888 109.9804 
L 195.142061 110.497721 
L 190.310631 110.826926 
L 189.312836 110.920984 
L 184.166313 112.237802 
L 181.593051 113.413532 
L 180.752802 113.460562 
L 179.702491 113.460562 
L 179.019789 113.460562 
L 178.442118 113.507591 
L 174.976092 112.99027 
L 171.247489 113.601649 
L 169.356929 113.836795 
L 167.518885 114.071941 
L 164.210406 114.213029 
L 163.370157 114.307087 
L 162.004753 114.542233 
L 159.7991 114.918467 
L 156.385589 114.73035 
L 155.125216 115.106584 
L 152.184346 115.059555 
L 150.608879 114.965496 
L 148.770835 115.388759 
L 146.670214 115.294701 
L 145.147263 115.153613 
L 143.991921 115.482818 
L 143.204188 115.529847 
L 142.048846 114.636292 
L 140.946019 114.683321 
L 140.210802 114.871438 
L 140.000739 114.871438 
L 139.213006 114.824409 
L 138.162695 115.435788 
L 136.69226 114.77738 
L 136.167105 114.77738 
L 135.589434 114.824409 
L 134.749185 114.871438 
L 133.961452 114.636292 
L 133.226234 115.153613 
L 132.175923 115.294701 
L 131.808314 115.012526 
L 130.810519 115.200642 
L 129.550146 115.153613 
L 128.604866 115.764993 
L 128.079711 115.670935 
L 127.186946 115.670935 
L 126.609275 113.55462 
L 125.716511 114.024912 
L 124.981294 112.849182 
L 124.088529 112.567007 
L 120.622503 112.896211 
L 120.359926 112.708094 
L 118.259304 113.037299 
L 113.690451 115.153613 
L 111.222221 116.188256 
L 101.664392 118.680804 
L 86.277337 122.255024 
L 65.37615 126.816857 
L 47.363318 134.106385 
L 38.593222 138.715247 
L 29.718095 139.091481 
z
" clip-path="url(#pf4b43e9a4b)" style="fill: #fd852c"/>
   </g>
   <g id="PolyCollection_3">
    <path d="M 29.718095 102.032464 
L 29.718095 139.091481 
L 38.593222 138.715247 
L 47.363318 134.106385 
L 65.37615 126.816857 
L 86.277337 122.255024 
L 101.664392 118.680804 
L 111.222221 116.188256 
L 113.690451 115.153613 
L 118.259304 113.037299 
L 120.359926 112.708094 
L 120.622503 112.896211 
L 124.088529 112.567007 
L 124.981294 112.849182 
L 125.716511 114.024912 
L 126.609275 113.55462 
L 127.186946 115.670935 
L 128.079711 115.670935 
L 128.604866 115.764993 
L 129.550146 115.153613 
L 130.810519 115.200642 
L 131.808314 115.012526 
L 132.175923 115.294701 
L 133.226234 115.153613 
L 133.961452 114.636292 
L 134.749185 114.871438 
L 135.589434 114.824409 
L 136.167105 114.77738 
L 136.69226 114.77738 
L 138.162695 115.435788 
L 139.213006 114.824409 
L 140.000739 114.871438 
L 140.210802 114.871438 
L 140.946019 114.683321 
L 142.048846 114.636292 
L 143.204188 115.529847 
L 143.991921 115.482818 
L 145.147263 115.153613 
L 146.670214 115.294701 
L 148.770835 115.388759 
L 150.608879 114.965496 
L 152.184346 115.059555 
L 155.125216 115.106584 
L 156.385589 114.73035 
L 159.7991 114.918467 
L 162.004753 114.542233 
L 163.370157 114.307087 
L 164.210406 114.213029 
L 167.518885 114.071941 
L 169.356929 113.836795 
L 171.247489 113.601649 
L 174.976092 112.99027 
L 178.442118 113.507591 
L 179.019789 113.460562 
L 179.702491 113.460562 
L 180.752802 113.460562 
L 181.593051 113.413532 
L 184.166313 112.237802 
L 189.312836 110.920984 
L 190.310631 110.826926 
L 195.142061 110.497721 
L 196.244888 109.9804 
L 197.347714 109.9804 
L 199.133243 108.898728 
L 200.603678 108.945757 
L 202.021598 108.334378 
L 202.914362 108.146261 
L 205.802717 108.146261 
L 208.796103 107.958144 
L 210.266538 107.817056 
L 211.316849 107.440823 
L 212.629738 108.099232 
L 213.732564 107.770027 
L 215.045453 107.064589 
L 218.14387 106.500239 
L 219.771852 106.40618 
L 221.347318 106.218063 
L 222.9753 106.171034 
L 224.550766 106.171034 
L 226.178748 106.171034 
L 227.80673 106.171034 
L 229.329681 106.171034 
L 230.957663 106.124005 
L 232.533129 106.124005 
L 234.161111 105.747771 
L 235.736577 105.653713 
L 237.364559 105.418567 
L 238.992541 105.23045 
L 240.568008 105.042333 
L 242.195989 104.713129 
L 243.771456 104.477983 
L 245.399438 104.477983 
L 247.02742 104.289866 
L 248.497855 104.242836 
L 250.125837 104.195807 
L 251.701303 104.00769 
L 253.329285 103.866603 
L 254.904751 103.584428 
L 256.532733 103.490369 
L 258.160715 103.208194 
L 259.736181 103.161165 
L 261.364163 102.878989 
L 262.93963 102.784931 
L 264.567612 102.596814 
L 266.195593 102.596814 
L 267.666029 102.596814 
L 269.294011 102.596814 
L 270.869477 102.549785 
L 272.497459 102.455726 
L 274.072925 102.549785 
L 275.700907 102.502756 
L 277.328889 102.26761 
L 278.904355 102.079493 
L 280.532337 101.938405 
L 282.107803 101.609201 
L 283.735785 101.65623 
L 285.363767 101.515142 
L 286.834202 101.421084 
L 288.462184 101.327025 
L 290.037651 101.374055 
L 291.665633 100.621587 
L 293.241099 100.668617 
L 294.869081 100.621587 
L 296.497063 100.668617 
L 298.072529 100.668617 
L 299.700511 100.621587 
L 301.275977 100.574558 
L 302.903959 100.43347 
L 304.531941 100.43347 
L 306.054892 100.386441 
L 307.682874 100.386441 
L 309.25834 100.292383 
L 310.886322 100.245354 
L 312.461788 100.245354 
L 314.08977 100.198324 
L 315.717752 100.010208 
L 317.293218 100.151295 
L 318.9212 100.151295 
L 320.496667 99.633974 
L 322.124649 99.398828 
L 323.75263 100.339412 
L 325.223066 100.43347 
L 326.851048 100.057237 
L 328.426514 100.057237 
L 330.054496 99.539915 
L 331.629962 98.08201 
L 333.257944 95.495403 
L 334.885926 95.11917 
L 336.461392 94.460761 
L 338.089374 94.413732 
L 339.66484 94.272644 
L 341.292822 94.178586 
L 342.920804 94.272644 
L 344.39124 94.131556 
L 346.019221 93.755323 
L 347.594688 93.708293 
L 349.22267 93.661264 
L 350.798136 93.661264 
L 352.426118 93.661264 
L 354.0541 93.614235 
L 355.629566 93.614235 
L 357.257548 93.614235 
L 358.833014 93.520177 
L 360.460996 93.520177 
L 362.088978 93.426118 
L 363.559413 93.426118 
L 365.187395 93.379089 
L 366.762862 93.379089 
L 368.390843 93.520177 
L 369.96631 93.520177 
L 371.594292 93.473147 
L 373.222274 93.520177 
L 374.79774 93.473147 
L 376.425722 93.473147 
L 378.001188 93.473147 
L 379.62917 93.473147 
L 381.257152 93.473147 
L 382.780103 93.567206 
L 384.408085 93.520177 
L 385.983551 93.567206 
L 387.611533 93.708293 
L 389.186999 93.661264 
L 390.814981 93.614235 
L 392.442963 93.614235 
L 394.018429 93.520177 
L 395.646411 93.473147 
L 397.221878 93.379089 
L 398.849859 93.379089 
L 400.477841 93.33206 
L 401.948277 93.143943 
L 403.576258 92.908797 
L 405.151725 92.767709 
L 406.779707 92.814738 
L 408.355173 92.767709 
L 409.983155 92.72068 
L 411.611137 92.673651 
L 413.186603 92.626622 
L 414.814585 92.485534 
L 416.390051 92.532563 
L 418.018033 92.391476 
L 419.646015 92.391476 
L 421.11645 92.297417 
L 422.744432 92.250388 
L 424.319899 92.250388 
L 425.947881 92.297417 
L 427.523347 92.062271 
L 429.151329 92.062271 
L 430.779311 92.015242 
L 432.354777 92.156329 
L 433.982759 92.1093 
L 435.558225 92.1093 
L 437.186207 92.015242 
L 438.814189 91.874154 
L 440.284624 91.686037 
L 441.912606 91.639008 
L 443.488072 91.639008 
L 445.116054 91.497921 
L 446.691521 91.215745 
L 448.319503 90.886541 
L 449.947484 90.886541 
L 449.947484 73.767908 
L 449.947484 73.767908 
L 448.319503 73.767908 
L 446.691521 73.861967 
L 445.116054 73.861967 
L 443.488072 73.861967 
L 441.912606 73.861967 
L 440.284624 73.861967 
L 438.814189 73.908996 
L 437.186207 73.908996 
L 435.558225 74.003054 
L 433.982759 74.003054 
L 432.354777 74.050084 
L 430.779311 74.050084 
L 429.151329 74.050084 
L 427.523347 74.050084 
L 425.947881 74.144142 
L 424.319899 74.2382 
L 422.744432 74.2382 
L 421.11645 74.2382 
L 419.646015 74.2382 
L 418.018033 74.2382 
L 416.390051 74.28523 
L 414.814585 74.2382 
L 413.186603 74.332259 
L 411.611137 74.332259 
L 409.983155 74.332259 
L 408.355173 74.379288 
L 406.779707 74.379288 
L 405.151725 74.379288 
L 403.576258 74.426317 
L 401.948277 74.473346 
L 400.477841 74.520376 
L 398.849859 74.520376 
L 397.221878 74.473346 
L 395.646411 74.473346 
L 394.018429 74.473346 
L 392.442963 74.426317 
L 390.814981 74.426317 
L 389.186999 74.473346 
L 387.611533 74.473346 
L 385.983551 74.379288 
L 384.408085 74.332259 
L 382.780103 74.332259 
L 381.257152 74.379288 
L 379.62917 74.379288 
L 378.001188 74.379288 
L 376.425722 74.379288 
L 374.79774 74.379288 
L 373.222274 74.379288 
L 371.594292 74.379288 
L 369.96631 74.379288 
L 368.390843 74.379288 
L 366.762862 74.28523 
L 365.187395 74.28523 
L 363.559413 74.28523 
L 362.088978 74.28523 
L 360.460996 74.2382 
L 358.833014 74.2382 
L 357.257548 74.332259 
L 355.629566 74.332259 
L 354.0541 74.332259 
L 352.426118 74.379288 
L 350.798136 74.379288 
L 349.22267 74.379288 
L 347.594688 74.426317 
L 346.019221 74.473346 
L 344.39124 74.567405 
L 342.920804 74.567405 
L 341.292822 74.567405 
L 339.66484 74.755522 
L 338.089374 74.755522 
L 336.461392 74.755522 
L 334.885926 74.614434 
L 333.257944 74.661463 
L 331.629962 74.896609 
L 330.054496 76.02531 
L 328.426514 76.213427 
L 326.851048 76.260456 
L 325.223066 76.307486 
L 323.75263 76.307486 
L 322.124649 76.307486 
L 320.496667 76.307486 
L 318.9212 76.354515 
L 317.293218 76.354515 
L 315.717752 76.401544 
L 314.08977 76.448573 
L 312.461788 76.495603 
L 310.886322 76.495603 
L 309.25834 76.495603 
L 307.682874 76.495603 
L 306.054892 76.495603 
L 304.531941 76.542632 
L 302.903959 76.542632 
L 301.275977 76.589661 
L 299.700511 76.63669 
L 298.072529 76.63669 
L 296.497063 76.63669 
L 294.869081 76.63669 
L 293.241099 76.63669 
L 291.665633 76.63669 
L 290.037651 76.63669 
L 288.462184 76.63669 
L 286.834202 76.730749 
L 285.363767 76.730749 
L 283.735785 76.730749 
L 282.107803 76.777778 
L 280.532337 76.777778 
L 278.904355 76.824807 
L 277.328889 77.012924 
L 275.700907 78.141625 
L 274.072925 78.141625 
L 272.497459 78.141625 
L 270.869477 78.235683 
L 269.294011 78.235683 
L 267.666029 78.235683 
L 266.195593 78.235683 
L 264.567612 78.235683 
L 262.93963 78.235683 
L 261.364163 78.329742 
L 259.736181 78.235683 
L 258.160715 78.282713 
L 256.532733 78.376771 
L 254.904751 78.470829 
L 253.329285 78.705975 
L 251.701303 78.753005 
L 250.125837 78.753005 
L 248.497855 78.753005 
L 247.02742 78.753005 
L 245.399438 78.847063 
L 243.771456 78.847063 
L 242.195989 78.941121 
L 240.568008 78.941121 
L 238.992541 78.800034 
L 237.364559 78.894092 
L 235.736577 78.894092 
L 234.161111 78.894092 
L 232.533129 78.941121 
L 230.957663 78.941121 
L 229.329681 78.941121 
L 227.80673 78.988151 
L 226.178748 78.988151 
L 224.550766 79.03518 
L 222.9753 78.988151 
L 221.347318 78.988151 
L 219.771852 79.082209 
L 218.14387 79.129238 
L 215.045453 79.458443 
L 213.732564 80.163881 
L 212.629738 80.493085 
L 211.316849 79.740618 
L 210.266538 80.351998 
L 208.796103 80.399027 
L 205.802717 81.480699 
L 202.914362 81.480699 
L 202.021598 81.43367 
L 200.603678 81.621786 
L 199.133243 81.621786 
L 197.347714 81.715845 
L 196.244888 81.715845 
L 195.142061 81.762874 
L 190.310631 81.950991 
L 189.312836 81.950991 
L 184.166313 83.17375 
L 181.593051 83.314838 
L 180.752802 83.361867 
L 179.702491 83.502955 
L 179.019789 83.502955 
L 178.442118 83.502955 
L 174.976092 83.502955 
L 171.247489 83.78513 
L 169.356929 83.926218 
L 167.518885 83.973247 
L 164.210406 84.067305 
L 163.370157 84.208393 
L 162.004753 84.443539 
L 159.7991 84.725714 
L 156.385589 84.913831 
L 155.125216 85.666298 
L 152.184346 85.713328 
L 150.608879 86.042532 
L 148.770835 86.418766 
L 146.670214 86.512824 
L 145.147263 86.512824 
L 143.991921 86.512824 
L 143.204188 86.512824 
L 142.048846 86.700941 
L 140.946019 86.889058 
L 140.210802 87.030146 
L 140.000739 87.030146 
L 139.213006 86.983116 
L 138.162695 87.641525 
L 136.69226 87.077175 
L 136.167105 87.077175 
L 135.589434 87.171233 
L 134.749185 87.171233 
L 133.961452 87.171233 
L 133.226234 87.876671 
L 132.175923 87.876671 
L 131.808314 87.312321 
L 130.810519 88.017759 
L 129.550146 89.334577 
L 128.604866 90.416249 
L 128.079711 90.463278 
L 127.186946 90.463278 
L 126.609275 90.510307 
L 125.716511 91.215745 
L 124.981294 90.557336 
L 124.088529 90.557336 
L 120.622503 90.886541 
L 120.359926 90.93357 
L 118.259304 90.980599 
L 113.690451 87.876671 
L 111.222221 91.168716 
L 101.664392 93.426118 
L 86.277337 95.730549 
L 65.37615 97.329543 
L 47.363318 99.728032 
L 38.593222 102.549785 
L 29.718095 102.032464 
z
" clip-path="url(#pf4b43e9a4b)" style="fill: #f0edbf"/>
   </g>
   <g id="PolyCollection_4">
    <path d="M 29.718095 73.485733 
L 29.718095 102.032464 
L 38.593222 102.549785 
L 47.363318 99.728032 
L 65.37615 97.329543 
L 86.277337 95.730549 
L 101.664392 93.426118 
L 111.222221 91.168716 
L 113.690451 87.876671 
L 118.259304 90.980599 
L 120.359926 90.93357 
L 120.622503 90.886541 
L 124.088529 90.557336 
L 124.981294 90.557336 
L 125.716511 91.215745 
L 126.609275 90.510307 
L 127.186946 90.463278 
L 128.079711 90.463278 
L 128.604866 90.416249 
L 129.550146 89.334577 
L 130.810519 88.017759 
L 131.808314 87.312321 
L 132.175923 87.876671 
L 133.226234 87.876671 
L 133.961452 87.171233 
L 134.749185 87.171233 
L 135.589434 87.171233 
L 136.167105 87.077175 
L 136.69226 87.077175 
L 138.162695 87.641525 
L 139.213006 86.983116 
L 140.000739 87.030146 
L 140.210802 87.030146 
L 140.946019 86.889058 
L 142.048846 86.700941 
L 143.204188 86.512824 
L 143.991921 86.512824 
L 145.147263 86.512824 
L 146.670214 86.512824 
L 148.770835 86.418766 
L 150.608879 86.042532 
L 152.184346 85.713328 
L 155.125216 85.666298 
L 156.385589 84.913831 
L 159.7991 84.725714 
L 162.004753 84.443539 
L 163.370157 84.208393 
L 164.210406 84.067305 
L 167.518885 83.973247 
L 169.356929 83.926218 
L 171.247489 83.78513 
L 174.976092 83.502955 
L 178.442118 83.502955 
L 179.019789 83.502955 
L 179.702491 83.502955 
L 180.752802 83.361867 
L 181.593051 83.314838 
L 184.166313 83.17375 
L 189.312836 81.950991 
L 190.310631 81.950991 
L 195.142061 81.762874 
L 196.244888 81.715845 
L 197.347714 81.715845 
L 199.133243 81.621786 
L 200.603678 81.621786 
L 202.021598 81.43367 
L 202.914362 81.480699 
L 205.802717 81.480699 
L 208.796103 80.399027 
L 210.266538 80.351998 
L 211.316849 79.740618 
L 212.629738 80.493085 
L 213.732564 80.163881 
L 215.045453 79.458443 
L 218.14387 79.129238 
L 219.771852 79.082209 
L 221.347318 78.988151 
L 222.9753 78.988151 
L 224.550766 79.03518 
L 226.178748 78.988151 
L 227.80673 78.988151 
L 229.329681 78.941121 
L 230.957663 78.941121 
L 232.533129 78.941121 
L 234.161111 78.894092 
L 235.736577 78.894092 
L 237.364559 78.894092 
L 238.992541 78.800034 
L 240.568008 78.941121 
L 242.195989 78.941121 
L 243.771456 78.847063 
L 245.399438 78.847063 
L 247.02742 78.753005 
L 248.497855 78.753005 
L 250.125837 78.753005 
L 251.701303 78.753005 
L 253.329285 78.705975 
L 254.904751 78.470829 
L 256.532733 78.376771 
L 258.160715 78.282713 
L 259.736181 78.235683 
L 261.364163 78.329742 
L 262.93963 78.235683 
L 264.567612 78.235683 
L 266.195593 78.235683 
L 267.666029 78.235683 
L 269.294011 78.235683 
L 270.869477 78.235683 
L 272.497459 78.141625 
L 274.072925 78.141625 
L 275.700907 78.141625 
L 277.328889 77.012924 
L 278.904355 76.824807 
L 280.532337 76.777778 
L 282.107803 76.777778 
L 283.735785 76.730749 
L 285.363767 76.730749 
L 286.834202 76.730749 
L 288.462184 76.63669 
L 290.037651 76.63669 
L 291.665633 76.63669 
L 293.241099 76.63669 
L 294.869081 76.63669 
L 296.497063 76.63669 
L 298.072529 76.63669 
L 299.700511 76.63669 
L 301.275977 76.589661 
L 302.903959 76.542632 
L 304.531941 76.542632 
L 306.054892 76.495603 
L 307.682874 76.495603 
L 309.25834 76.495603 
L 310.886322 76.495603 
L 312.461788 76.495603 
L 314.08977 76.448573 
L 315.717752 76.401544 
L 317.293218 76.354515 
L 318.9212 76.354515 
L 320.496667 76.307486 
L 322.124649 76.307486 
L 323.75263 76.307486 
L 325.223066 76.307486 
L 326.851048 76.260456 
L 328.426514 76.213427 
L 330.054496 76.02531 
L 331.629962 74.896609 
L 333.257944 74.661463 
L 334.885926 74.614434 
L 336.461392 74.755522 
L 338.089374 74.755522 
L 339.66484 74.755522 
L 341.292822 74.567405 
L 342.920804 74.567405 
L 344.39124 74.567405 
L 346.019221 74.473346 
L 347.594688 74.426317 
L 349.22267 74.379288 
L 350.798136 74.379288 
L 352.426118 74.379288 
L 354.0541 74.332259 
L 355.629566 74.332259 
L 357.257548 74.332259 
L 358.833014 74.2382 
L 360.460996 74.2382 
L 362.088978 74.28523 
L 363.559413 74.28523 
L 365.187395 74.28523 
L 366.762862 74.28523 
L 368.390843 74.379288 
L 369.96631 74.379288 
L 371.594292 74.379288 
L 373.222274 74.379288 
L 374.79774 74.379288 
L 376.425722 74.379288 
L 378.001188 74.379288 
L 379.62917 74.379288 
L 381.257152 74.379288 
L 382.780103 74.332259 
L 384.408085 74.332259 
L 385.983551 74.379288 
L 387.611533 74.473346 
L 389.186999 74.473346 
L 390.814981 74.426317 
L 392.442963 74.426317 
L 394.018429 74.473346 
L 395.646411 74.473346 
L 397.221878 74.473346 
L 398.849859 74.520376 
L 400.477841 74.520376 
L 401.948277 74.473346 
L 403.576258 74.426317 
L 405.151725 74.379288 
L 406.779707 74.379288 
L 408.355173 74.379288 
L 409.983155 74.332259 
L 411.611137 74.332259 
L 413.186603 74.332259 
L 414.814585 74.2382 
L 416.390051 74.28523 
L 418.018033 74.2382 
L 419.646015 74.2382 
L 421.11645 74.2382 
L 422.744432 74.2382 
L 424.319899 74.2382 
L 425.947881 74.144142 
L 427.523347 74.050084 
L 429.151329 74.050084 
L 430.779311 74.050084 
L 432.354777 74.050084 
L 433.982759 74.003054 
L 435.558225 74.003054 
L 437.186207 73.908996 
L 438.814189 73.908996 
L 440.284624 73.861967 
L 441.912606 73.861967 
L 443.488072 73.861967 
L 445.116054 73.861967 
L 446.691521 73.861967 
L 448.319503 73.767908 
L 449.947484 73.767908 
L 449.947484 61.493284 
L 449.947484 61.493284 
L 448.319503 61.493284 
L 446.691521 61.493284 
L 445.116054 61.493284 
L 443.488072 61.493284 
L 441.912606 61.493284 
L 440.284624 61.493284 
L 438.814189 61.728431 
L 437.186207 61.77546 
L 435.558225 61.822489 
L 433.982759 61.822489 
L 432.354777 61.822489 
L 430.779311 61.822489 
L 429.151329 61.822489 
L 427.523347 61.822489 
L 425.947881 61.822489 
L 424.319899 61.822489 
L 422.744432 61.822489 
L 421.11645 61.869518 
L 419.646015 61.822489 
L 418.018033 61.822489 
L 416.390051 61.869518 
L 414.814585 61.540314 
L 413.186603 61.540314 
L 411.611137 61.117051 
L 409.983155 61.117051 
L 408.355173 61.117051 
L 406.779707 61.117051 
L 405.151725 61.117051 
L 403.576258 61.117051 
L 401.948277 61.16408 
L 400.477841 61.16408 
L 398.849859 61.16408 
L 397.221878 61.117051 
L 395.646411 61.117051 
L 394.018429 61.117051 
L 392.442963 61.16408 
L 390.814981 61.16408 
L 389.186999 61.16408 
L 387.611533 61.16408 
L 385.983551 61.070022 
L 384.408085 61.022992 
L 382.780103 61.022992 
L 381.257152 61.022992 
L 379.62917 61.022992 
L 378.001188 61.022992 
L 376.425722 61.022992 
L 374.79774 61.022992 
L 373.222274 61.022992 
L 371.594292 61.022992 
L 369.96631 61.022992 
L 368.390843 61.022992 
L 366.762862 60.928934 
L 365.187395 60.928934 
L 363.559413 60.928934 
L 362.088978 60.928934 
L 360.460996 60.928934 
L 358.833014 60.928934 
L 357.257548 60.928934 
L 355.629566 60.928934 
L 354.0541 60.928934 
L 352.426118 60.881905 
L 350.798136 60.881905 
L 349.22267 60.881905 
L 347.594688 60.881905 
L 346.019221 60.881905 
L 344.39124 60.881905 
L 342.920804 60.881905 
L 341.292822 60.881905 
L 339.66484 60.881905 
L 338.089374 60.881905 
L 336.461392 60.881905 
L 334.885926 60.881905 
L 333.257944 60.881905 
L 331.629962 60.881905 
L 330.054496 60.881905 
L 328.426514 60.881905 
L 326.851048 60.881905 
L 325.223066 60.881905 
L 323.75263 60.881905 
L 322.124649 60.881905 
L 320.496667 60.881905 
L 318.9212 60.881905 
L 317.293218 60.881905 
L 315.717752 60.881905 
L 314.08977 60.881905 
L 312.461788 60.881905 
L 310.886322 60.881905 
L 309.25834 60.881905 
L 307.682874 60.881905 
L 306.054892 61.305168 
L 304.531941 61.352197 
L 302.903959 61.352197 
L 301.275977 61.352197 
L 299.700511 61.540314 
L 298.072529 61.540314 
L 296.497063 61.540314 
L 294.869081 61.540314 
L 293.241099 61.540314 
L 291.665633 61.540314 
L 290.037651 61.540314 
L 288.462184 61.540314 
L 286.834202 61.540314 
L 285.363767 61.540314 
L 283.735785 61.540314 
L 282.107803 61.587343 
L 280.532337 61.587343 
L 278.904355 61.587343 
L 277.328889 61.587343 
L 275.700907 61.258138 
L 274.072925 61.446255 
L 272.497459 61.399226 
L 270.869477 61.399226 
L 269.294011 61.399226 
L 267.666029 61.399226 
L 266.195593 61.399226 
L 264.567612 61.399226 
L 262.93963 61.399226 
L 261.364163 61.446255 
L 259.736181 61.446255 
L 258.160715 61.446255 
L 256.532733 61.399226 
L 254.904751 61.399226 
L 253.329285 61.399226 
L 251.701303 61.399226 
L 250.125837 61.399226 
L 248.497855 61.399226 
L 247.02742 61.399226 
L 245.399438 61.399226 
L 243.771456 61.399226 
L 242.195989 61.399226 
L 240.568008 61.446255 
L 238.992541 61.399226 
L 237.364559 61.446255 
L 235.736577 61.399226 
L 234.161111 61.399226 
L 232.533129 61.399226 
L 230.957663 61.399226 
L 229.329681 61.399226 
L 227.80673 61.399226 
L 226.178748 61.446255 
L 224.550766 61.446255 
L 222.9753 61.399226 
L 221.347318 61.399226 
L 219.771852 61.399226 
L 218.14387 61.493284 
L 215.045453 61.822489 
L 213.732564 62.621986 
L 212.629738 62.716044 
L 211.316849 61.963577 
L 210.266538 63.797716 
L 208.796103 63.797716 
L 205.802717 65.490767 
L 202.914362 65.490767 
L 202.021598 65.443738 
L 200.603678 65.631855 
L 199.133243 65.584826 
L 197.347714 65.584826 
L 196.244888 65.584826 
L 195.142061 65.584826 
L 190.310631 65.961059 
L 189.312836 65.961059 
L 184.166313 66.196206 
L 181.593051 66.149176 
L 180.752802 66.149176 
L 179.702491 66.243235 
L 179.019789 66.243235 
L 178.442118 66.243235 
L 174.976092 66.901644 
L 171.247489 67.042731 
L 169.356929 67.042731 
L 167.518885 67.042731 
L 164.210406 67.042731 
L 163.370157 66.995702 
L 162.004753 66.995702 
L 159.7991 66.854614 
L 156.385589 66.807585 
L 155.125216 68.030345 
L 152.184346 68.171432 
L 150.608879 68.31252 
L 148.770835 68.171432 
L 146.670214 68.171432 
L 145.147263 68.124403 
L 143.991921 68.124403 
L 143.204188 68.124403 
L 142.048846 68.077374 
L 140.946019 68.077374 
L 140.210802 68.124403 
L 140.000739 68.124403 
L 139.213006 68.124403 
L 138.162695 68.641724 
L 136.69226 68.124403 
L 136.167105 68.124403 
L 135.589434 68.171432 
L 134.749185 68.077374 
L 133.961452 68.077374 
L 133.226234 68.547666 
L 132.175923 68.453608 
L 131.808314 67.936286 
L 130.810519 68.594695 
L 129.550146 68.406578 
L 128.604866 68.453608 
L 128.079711 68.453608 
L 127.186946 68.453608 
L 126.609275 68.500637 
L 125.716511 69.112017 
L 124.981294 68.453608 
L 124.088529 68.453608 
L 120.622503 69.629338 
L 120.359926 69.676367 
L 118.259304 69.629338 
L 113.690451 68.547666 
L 111.222221 69.629338 
L 101.664392 70.569922 
L 86.277337 71.087243 
L 65.37615 71.933769 
L 47.363318 72.45109 
L 38.593222 73.67385 
L 29.718095 73.485733 
z
" clip-path="url(#pf4b43e9a4b)" style="fill: #88bb92"/>
   </g>
   <g id="matplotlib.axis_1">
    <g id="xtick_1">
     <g id="line2d_1">
      <defs>
       <path id="mf18f1dc7cd" d="M 0 0 
L 0 3.5 
" style="stroke: #000000; stroke-width: 0.8"/>
      </defs>
      <g>
       <use xlink:href="#mf18f1dc7cd" x="72.728327" y="299.32" style="stroke: #000000; stroke-width: 0.8"/>
      </g>
     </g>
     <g id="text_1">
      <!-- 2004 -->
      <g transform="translate(60.003327 313.918437) scale(0.1 -0.1)">
       <defs>
        <path id="DejaVuSans-32" d="M 1228 531 
L 3431 531 
L 3431 0 
L 469 0 
L 469 531 
Q 828 903 1448 1529 
Q 2069 2156 2228 2338 
Q 2531 2678 2651 2914 
Q 2772 3150 2772 3378 
Q 2772 3750 2511 3984 
Q 2250 4219 1831 4219 
Q 1534 4219 1204 4116 
Q 875 4013 500 3803 
L 500 4441 
Q 881 4594 1212 4672 
Q 1544 4750 1819 4750 
Q 2544 4750 2975 4387 
Q 3406 4025 3406 3419 
Q 3406 3131 3298 2873 
Q 3191 2616 2906 2266 
Q 2828 2175 2409 1742 
Q 1991 1309 1228 531 
z
" transform="scale(0.015625)"/>
        <path id="DejaVuSans-30" d="M 2034 4250 
Q 1547 4250 1301 3770 
Q 1056 3291 1056 2328 
Q 1056 1369 1301 889 
Q 1547 409 2034 409 
Q 2525 409 2770 889 
Q 3016 1369 3016 2328 
Q 3016 3291 2770 3770 
Q 2525 4250 2034 4250 
z
M 2034 4750 
Q 2819 4750 3233 4129 
Q 3647 3509 3647 2328 
Q 3647 1150 3233 529 
Q 2819 -91 2034 -91 
Q 1250 -91 836 529 
Q 422 1150 422 2328 
Q 422 3509 836 4129 
Q 1250 4750 2034 4750 
z
" transform="scale(0.015625)"/>
        <path id="DejaVuSans-34" d="M 2419 4116 
L 825 1625 
L 2419 1625 
L 2419 4116 
z
M 2253 4666 
L 3047 4666 
L 3047 1625 
L 3713 1625 
L 3713 1100 
L 3047 1100 
L 3047 0 
L 2419 0 
L 2419 1100 
L 313 1100 
L 313 1709 
L 2253 4666 
z
" transform="scale(0.015625)"/>
       </defs>
       <use xlink:href="#DejaVuSans-32"/>
       <use xlink:href="#DejaVuSans-30" x="63.623047"/>
       <use xlink:href="#DejaVuSans-30" x="127.246094"/>
       <use xlink:href="#DejaVuSans-34" x="190.869141"/>
      </g>
     </g>
    </g>
    <g id="xtick_2">
     <g id="line2d_2">
      <g>
       <use xlink:href="#mf18f1dc7cd" x="111.11719" y="299.32" style="stroke: #000000; stroke-width: 0.8"/>
      </g>
     </g>
     <g id="text_2">
      <!-- 2006 -->
      <g transform="translate(98.39219 313.918437) scale(0.1 -0.1)">
       <defs>
        <path id="DejaVuSans-36" d="M 2113 2584 
Q 1688 2584 1439 2293 
Q 1191 2003 1191 1497 
Q 1191 994 1439 701 
Q 1688 409 2113 409 
Q 2538 409 2786 701 
Q 3034 994 3034 1497 
Q 3034 2003 2786 2293 
Q 2538 2584 2113 2584 
z
M 3366 4563 
L 3366 3988 
Q 3128 4100 2886 4159 
Q 2644 4219 2406 4219 
Q 1781 4219 1451 3797 
Q 1122 3375 1075 2522 
Q 1259 2794 1537 2939 
Q 1816 3084 2150 3084 
Q 2853 3084 3261 2657 
Q 3669 2231 3669 1497 
Q 3669 778 3244 343 
Q 2819 -91 2113 -91 
Q 1303 -91 875 529 
Q 447 1150 447 2328 
Q 447 3434 972 4092 
Q 1497 4750 2381 4750 
Q 2619 4750 2861 4703 
Q 3103 4656 3366 4563 
z
" transform="scale(0.015625)"/>
       </defs>
       <use xlink:href="#DejaVuSans-32"/>
       <use xlink:href="#DejaVuSans-30" x="63.623047"/>
       <use xlink:href="#DejaVuSans-30" x="127.246094"/>
       <use xlink:href="#DejaVuSans-36" x="190.869141"/>
      </g>
     </g>
    </g>
    <g id="xtick_3">
     <g id="line2d_3">
      <g>
       <use xlink:href="#mf18f1dc7cd" x="149.453537" y="299.32" style="stroke: #000000; stroke-width: 0.8"/>
      </g>
     </g>
     <g id="text_3">
      <!-- 2008 -->
      <g transform="translate(136.728537 313.918437) scale(0.1 -0.1)">
       <defs>
        <path id="DejaVuSans-38" d="M 2034 2216 
Q 1584 2216 1326 1975 
Q 1069 1734 1069 1313 
Q 1069 891 1326 650 
Q 1584 409 2034 409 
Q 2484 409 2743 651 
Q 3003 894 3003 1313 
Q 3003 1734 2745 1975 
Q 2488 2216 2034 2216 
z
M 1403 2484 
Q 997 2584 770 2862 
Q 544 3141 544 3541 
Q 544 4100 942 4425 
Q 1341 4750 2034 4750 
Q 2731 4750 3128 4425 
Q 3525 4100 3525 3541 
Q 3525 3141 3298 2862 
Q 3072 2584 2669 2484 
Q 3125 2378 3379 2068 
Q 3634 1759 3634 1313 
Q 3634 634 3220 271 
Q 2806 -91 2034 -91 
Q 1263 -91 848 271 
Q 434 634 434 1313 
Q 434 1759 690 2068 
Q 947 2378 1403 2484 
z
M 1172 3481 
Q 1172 3119 1398 2916 
Q 1625 2713 2034 2713 
Q 2441 2713 2670 2916 
Q 2900 3119 2900 3481 
Q 2900 3844 2670 4047 
Q 2441 4250 2034 4250 
Q 1625 4250 1398 4047 
Q 1172 3844 1172 3481 
z
" transform="scale(0.015625)"/>
       </defs>
       <use xlink:href="#DejaVuSans-32"/>
       <use xlink:href="#DejaVuSans-30" x="63.623047"/>
       <use xlink:href="#DejaVuSans-30" x="127.246094"/>
       <use xlink:href="#DejaVuSans-38" x="190.869141"/>
      </g>
     </g>
    </g>
    <g id="xtick_4">
     <g id="line2d_4">
      <g>
       <use xlink:href="#mf18f1dc7cd" x="187.842401" y="299.32" style="stroke: #000000; stroke-width: 0.8"/>
      </g>
     </g>
     <g id="text_4">
      <!-- 2010 -->
      <g transform="translate(175.117401 313.918437) scale(0.1 -0.1)">
       <defs>
        <path id="DejaVuSans-31" d="M 794 531 
L 1825 531 
L 1825 4091 
L 703 3866 
L 703 4441 
L 1819 4666 
L 2450 4666 
L 2450 531 
L 3481 531 
L 3481 0 
L 794 0 
L 794 531 
z
" transform="scale(0.015625)"/>
       </defs>
       <use xlink:href="#DejaVuSans-32"/>
       <use xlink:href="#DejaVuSans-30" x="63.623047"/>
       <use xlink:href="#DejaVuSans-31" x="127.246094"/>
       <use xlink:href="#DejaVuSans-30" x="190.869141"/>
      </g>
     </g>
    </g>
    <g id="xtick_5">
     <g id="line2d_5">
      <g>
       <use xlink:href="#mf18f1dc7cd" x="226.178748" y="299.32" style="stroke: #000000; stroke-width: 0.8"/>
      </g>
     </g>
     <g id="text_5">
      <!-- 2012 -->
      <g transform="translate(213.453748 313.918437) scale(0.1 -0.1)">
       <use xlink:href="#DejaVuSans-32"/>
       <use xlink:href="#DejaVuSans-30" x="63.623047"/>
       <use xlink:href="#DejaVuSans-31" x="127.246094"/>
       <use xlink:href="#DejaVuSans-32" x="190.869141"/>
      </g>
     </g>
    </g>
    <g id="xtick_6">
     <g id="line2d_6">
      <g>
       <use xlink:href="#mf18f1dc7cd" x="264.567612" y="299.32" style="stroke: #000000; stroke-width: 0.8"/>
      </g>
     </g>
     <g id="text_6">
      <!-- 2014 -->
      <g transform="translate(251.842612 313.918437) scale(0.1 -0.1)">
       <use xlink:href="#DejaVuSans-32"/>
       <use xlink:href="#DejaVuSans-30" x="63.623047"/>
       <use xlink:href="#DejaVuSans-31" x="127.246094"/>
       <use xlink:href="#DejaVuSans-34" x="190.869141"/>
      </g>
     </g>
    </g>
    <g id="xtick_7">
     <g id="line2d_7">
      <g>
       <use xlink:href="#mf18f1dc7cd" x="302.903959" y="299.32" style="stroke: #000000; stroke-width: 0.8"/>
      </g>
     </g>
     <g id="text_7">
      <!-- 2016 -->
      <g transform="translate(290.178959 313.918437) scale(0.1 -0.1)">
       <use xlink:href="#DejaVuSans-32"/>
       <use xlink:href="#DejaVuSans-30" x="63.623047"/>
       <use xlink:href="#DejaVuSans-31" x="127.246094"/>
       <use xlink:href="#DejaVuSans-36" x="190.869141"/>
      </g>
     </g>
    </g>
    <g id="xtick_8">
     <g id="line2d_8">
      <g>
       <use xlink:href="#mf18f1dc7cd" x="341.292822" y="299.32" style="stroke: #000000; stroke-width: 0.8"/>
      </g>
     </g>
     <g id="text_8">
      <!-- 2018 -->
      <g transform="translate(328.567822 313.918437) scale(0.1 -0.1)">
       <use xlink:href="#DejaVuSans-32"/>
       <use xlink:href="#DejaVuSans-30" x="63.623047"/>
       <use xlink:href="#DejaVuSans-31" x="127.246094"/>
       <use xlink:href="#DejaVuSans-38" x="190.869141"/>
      </g>
     </g>
    </g>
    <g id="xtick_9">
     <g id="line2d_9">
      <g>
       <use xlink:href="#mf18f1dc7cd" x="379.62917" y="299.32" style="stroke: #000000; stroke-width: 0.8"/>
      </g>
     </g>
     <g id="text_9">
      <!-- 2020 -->
      <g transform="translate(366.90417 313.918437) scale(0.1 -0.1)">
       <use xlink:href="#DejaVuSans-32"/>
       <use xlink:href="#DejaVuSans-30" x="63.623047"/>
       <use xlink:href="#DejaVuSans-32" x="127.246094"/>
       <use xlink:href="#DejaVuSans-30" x="190.869141"/>
      </g>
     </g>
    </g>
    <g id="xtick_10">
     <g id="line2d_10">
      <g>
       <use xlink:href="#mf18f1dc7cd" x="418.018033" y="299.32" style="stroke: #000000; stroke-width: 0.8"/>
      </g>
     </g>
     <g id="text_10">
      <!-- 2022 -->
      <g transform="translate(405.293033 313.918437) scale(0.1 -0.1)">
       <use xlink:href="#DejaVuSans-32"/>
       <use xlink:href="#DejaVuSans-30" x="63.623047"/>
       <use xlink:href="#DejaVuSans-32" x="127.246094"/>
       <use xlink:href="#DejaVuSans-32" x="190.869141"/>
      </g>
     </g>
    </g>
    <g id="text_11">
     <!-- Year -->
     <g transform="translate(239.86375 331.395781) scale(0.15 -0.15)">
      <defs>
       <path id="DejaVuSans-59" d="M -13 4666 
L 666 4666 
L 1959 2747 
L 3244 4666 
L 3922 4666 
L 2272 2222 
L 2272 0 
L 1638 0 
L 1638 2222 
L -13 4666 
z
" transform="scale(0.015625)"/>
       <path id="DejaVuSans-65" d="M 3597 1894 
L 3597 1613 
L 953 1613 
Q 991 1019 1311 708 
Q 1631 397 2203 397 
Q 2534 397 2845 478 
Q 3156 559 3463 722 
L 3463 178 
Q 3153 47 2828 -22 
Q 2503 -91 2169 -91 
Q 1331 -91 842 396 
Q 353 884 353 1716 
Q 353 2575 817 3079 
Q 1281 3584 2069 3584 
Q 2775 3584 3186 3129 
Q 3597 2675 3597 1894 
z
M 3022 2063 
Q 3016 2534 2758 2815 
Q 2500 3097 2075 3097 
Q 1594 3097 1305 2825 
Q 1016 2553 972 2059 
L 3022 2063 
z
" transform="scale(0.015625)"/>
       <path id="DejaVuSans-61" d="M 2194 1759 
Q 1497 1759 1228 1600 
Q 959 1441 959 1056 
Q 959 750 1161 570 
Q 1363 391 1709 391 
Q 2188 391 2477 730 
Q 2766 1069 2766 1631 
L 2766 1759 
L 2194 1759 
z
M 3341 1997 
L 3341 0 
L 2766 0 
L 2766 531 
Q 2569 213 2275 61 
Q 1981 -91 1556 -91 
Q 1019 -91 701 211 
Q 384 513 384 1019 
Q 384 1609 779 1909 
Q 1175 2209 1959 2209 
L 2766 2209 
L 2766 2266 
Q 2766 2663 2505 2880 
Q 2244 3097 1772 3097 
Q 1472 3097 1187 3025 
Q 903 2953 641 2809 
L 641 3341 
Q 956 3463 1253 3523 
Q 1550 3584 1831 3584 
Q 2591 3584 2966 3190 
Q 3341 2797 3341 1997 
z
" transform="scale(0.015625)"/>
       <path id="DejaVuSans-72" d="M 2631 2963 
Q 2534 3019 2420 3045 
Q 2306 3072 2169 3072 
Q 1681 3072 1420 2755 
Q 1159 2438 1159 1844 
L 1159 0 
L 581 0 
L 581 3500 
L 1159 3500 
L 1159 2956 
Q 1341 3275 1631 3429 
Q 1922 3584 2338 3584 
Q 2397 3584 2469 3576 
Q 2541 3569 2628 3553 
L 2631 2963 
z
" transform="scale(0.015625)"/>
      </defs>
      <use xlink:href="#DejaVuSans-59"/>
      <use xlink:href="#DejaVuSans-65" x="47.833984"/>
      <use xlink:href="#DejaVuSans-61" x="109.357422"/>
      <use xlink:href="#DejaVuSans-72" x="170.636719"/>
     </g>
    </g>
   </g>
   <g id="matplotlib.axis_2">
    <g id="ytick_1">
     <g id="line2d_11">
      <defs>
       <path id="me961a6bdc6" d="M 0 0 
L -3.5 0 
" style="stroke: #000000; stroke-width: 0.8"/>
      </defs>
      <g>
       <use xlink:href="#me961a6bdc6" x="61.49" y="299.32" style="stroke: #000000; stroke-width: 0.8"/>
      </g>
     </g>
     <g id="text_12">
      <!-- 0 -->
      <g transform="translate(48.1275 303.119219) scale(0.1 -0.1)">
       <use xlink:href="#DejaVuSans-30"/>
      </g>
     </g>
    </g>
    <g id="ytick_2">
     <g id="line2d_12">
      <g>
       <use xlink:href="#me961a6bdc6" x="61.49" y="252.29079" style="stroke: #000000; stroke-width: 0.8"/>
      </g>
     </g>
     <g id="text_13">
      <!-- 1000 -->
      <g transform="translate(29.04 256.090009) scale(0.1 -0.1)">
       <use xlink:href="#DejaVuSans-31"/>
       <use xlink:href="#DejaVuSans-30" x="63.623047"/>
       <use xlink:href="#DejaVuSans-30" x="127.246094"/>
       <use xlink:href="#DejaVuSans-30" x="190.869141"/>
      </g>
     </g>
    </g>
    <g id="ytick_3">
     <g id="line2d_13">
      <g>
       <use xlink:href="#me961a6bdc6" x="61.49" y="205.26158" style="stroke: #000000; stroke-width: 0.8"/>
      </g>
     </g>
     <g id="text_14">
      <!-- 2000 -->
      <g transform="translate(29.04 209.060799) scale(0.1 -0.1)">
       <use xlink:href="#DejaVuSans-32"/>
       <use xlink:href="#DejaVuSans-30" x="63.623047"/>
       <use xlink:href="#DejaVuSans-30" x="127.246094"/>
       <use xlink:href="#DejaVuSans-30" x="190.869141"/>
      </g>
     </g>
    </g>
    <g id="ytick_4">
     <g id="line2d_14">
      <g>
       <use xlink:href="#me961a6bdc6" x="61.49" y="158.23237" style="stroke: #000000; stroke-width: 0.8"/>
      </g>
     </g>
     <g id="text_15">
      <!-- 3000 -->
      <g transform="translate(29.04 162.031588) scale(0.1 -0.1)">
       <defs>
        <path id="DejaVuSans-33" d="M 2597 2516 
Q 3050 2419 3304 2112 
Q 3559 1806 3559 1356 
Q 3559 666 3084 287 
Q 2609 -91 1734 -91 
Q 1441 -91 1130 -33 
Q 819 25 488 141 
L 488 750 
Q 750 597 1062 519 
Q 1375 441 1716 441 
Q 2309 441 2620 675 
Q 2931 909 2931 1356 
Q 2931 1769 2642 2001 
Q 2353 2234 1838 2234 
L 1294 2234 
L 1294 2753 
L 1863 2753 
Q 2328 2753 2575 2939 
Q 2822 3125 2822 3475 
Q 2822 3834 2567 4026 
Q 2313 4219 1838 4219 
Q 1578 4219 1281 4162 
Q 984 4106 628 3988 
L 628 4550 
Q 988 4650 1302 4700 
Q 1616 4750 1894 4750 
Q 2613 4750 3031 4423 
Q 3450 4097 3450 3541 
Q 3450 3153 3228 2886 
Q 3006 2619 2597 2516 
z
" transform="scale(0.015625)"/>
       </defs>
       <use xlink:href="#DejaVuSans-33"/>
       <use xlink:href="#DejaVuSans-30" x="63.623047"/>
       <use xlink:href="#DejaVuSans-30" x="127.246094"/>
       <use xlink:href="#DejaVuSans-30" x="190.869141"/>
      </g>
     </g>
    </g>
    <g id="ytick_5">
     <g id="line2d_15">
      <g>
       <use xlink:href="#me961a6bdc6" x="61.49" y="111.20316" style="stroke: #000000; stroke-width: 0.8"/>
      </g>
     </g>
     <g id="text_16">
      <!-- 4000 -->
      <g transform="translate(29.04 115.002378) scale(0.1 -0.1)">
       <use xlink:href="#DejaVuSans-34"/>
       <use xlink:href="#DejaVuSans-30" x="63.623047"/>
       <use xlink:href="#DejaVuSans-30" x="127.246094"/>
       <use xlink:href="#DejaVuSans-30" x="190.869141"/>
      </g>
     </g>
    </g>
    <g id="ytick_6">
     <g id="line2d_16">
      <g>
       <use xlink:href="#me961a6bdc6" x="61.49" y="64.173949" style="stroke: #000000; stroke-width: 0.8"/>
      </g>
     </g>
     <g id="text_17">
      <!-- 5000 -->
      <g transform="translate(29.04 67.973168) scale(0.1 -0.1)">
       <defs>
        <path id="DejaVuSans-35" d="M 691 4666 
L 3169 4666 
L 3169 4134 
L 1269 4134 
L 1269 2991 
Q 1406 3038 1543 3061 
Q 1681 3084 1819 3084 
Q 2600 3084 3056 2656 
Q 3513 2228 3513 1497 
Q 3513 744 3044 326 
Q 2575 -91 1722 -91 
Q 1428 -91 1123 -41 
Q 819 9 494 109 
L 494 744 
Q 775 591 1075 516 
Q 1375 441 1709 441 
Q 2250 441 2565 725 
Q 2881 1009 2881 1497 
Q 2881 1984 2565 2268 
Q 2250 2553 1709 2553 
Q 1456 2553 1204 2497 
Q 953 2441 691 2322 
L 691 4666 
z
" transform="scale(0.015625)"/>
       </defs>
       <use xlink:href="#DejaVuSans-35"/>
       <use xlink:href="#DejaVuSans-30" x="63.623047"/>
       <use xlink:href="#DejaVuSans-30" x="127.246094"/>
       <use xlink:href="#DejaVuSans-30" x="190.869141"/>
      </g>
     </g>
    </g>
    <g id="text_18">
     <!-- Number of proteins -->
     <g transform="translate(21.920469 246.829062) rotate(-90) scale(0.15 -0.15)">
      <defs>
       <path id="DejaVuSans-4e" d="M 628 4666 
L 1478 4666 
L 3547 763 
L 3547 4666 
L 4159 4666 
L 4159 0 
L 3309 0 
L 1241 3903 
L 1241 0 
L 628 0 
L 628 4666 
z
" transform="scale(0.015625)"/>
       <path id="DejaVuSans-75" d="M 544 1381 
L 544 3500 
L 1119 3500 
L 1119 1403 
Q 1119 906 1312 657 
Q 1506 409 1894 409 
Q 2359 409 2629 706 
Q 2900 1003 2900 1516 
L 2900 3500 
L 3475 3500 
L 3475 0 
L 2900 0 
L 2900 538 
Q 2691 219 2414 64 
Q 2138 -91 1772 -91 
Q 1169 -91 856 284 
Q 544 659 544 1381 
z
M 1991 3584 
L 1991 3584 
z
" transform="scale(0.015625)"/>
       <path id="DejaVuSans-6d" d="M 3328 2828 
Q 3544 3216 3844 3400 
Q 4144 3584 4550 3584 
Q 5097 3584 5394 3201 
Q 5691 2819 5691 2113 
L 5691 0 
L 5113 0 
L 5113 2094 
Q 5113 2597 4934 2840 
Q 4756 3084 4391 3084 
Q 3944 3084 3684 2787 
Q 3425 2491 3425 1978 
L 3425 0 
L 2847 0 
L 2847 2094 
Q 2847 2600 2669 2842 
Q 2491 3084 2119 3084 
Q 1678 3084 1418 2786 
Q 1159 2488 1159 1978 
L 1159 0 
L 581 0 
L 581 3500 
L 1159 3500 
L 1159 2956 
Q 1356 3278 1631 3431 
Q 1906 3584 2284 3584 
Q 2666 3584 2933 3390 
Q 3200 3197 3328 2828 
z
" transform="scale(0.015625)"/>
       <path id="DejaVuSans-62" d="M 3116 1747 
Q 3116 2381 2855 2742 
Q 2594 3103 2138 3103 
Q 1681 3103 1420 2742 
Q 1159 2381 1159 1747 
Q 1159 1113 1420 752 
Q 1681 391 2138 391 
Q 2594 391 2855 752 
Q 3116 1113 3116 1747 
z
M 1159 2969 
Q 1341 3281 1617 3432 
Q 1894 3584 2278 3584 
Q 2916 3584 3314 3078 
Q 3713 2572 3713 1747 
Q 3713 922 3314 415 
Q 2916 -91 2278 -91 
Q 1894 -91 1617 61 
Q 1341 213 1159 525 
L 1159 0 
L 581 0 
L 581 4863 
L 1159 4863 
L 1159 2969 
z
" transform="scale(0.015625)"/>
       <path id="DejaVuSans-20" transform="scale(0.015625)"/>
       <path id="DejaVuSans-6f" d="M 1959 3097 
Q 1497 3097 1228 2736 
Q 959 2375 959 1747 
Q 959 1119 1226 758 
Q 1494 397 1959 397 
Q 2419 397 2687 759 
Q 2956 1122 2956 1747 
Q 2956 2369 2687 2733 
Q 2419 3097 1959 3097 
z
M 1959 3584 
Q 2709 3584 3137 3096 
Q 3566 2609 3566 1747 
Q 3566 888 3137 398 
Q 2709 -91 1959 -91 
Q 1206 -91 779 398 
Q 353 888 353 1747 
Q 353 2609 779 3096 
Q 1206 3584 1959 3584 
z
" transform="scale(0.015625)"/>
       <path id="DejaVuSans-66" d="M 2375 4863 
L 2375 4384 
L 1825 4384 
Q 1516 4384 1395 4259 
Q 1275 4134 1275 3809 
L 1275 3500 
L 2222 3500 
L 2222 3053 
L 1275 3053 
L 1275 0 
L 697 0 
L 697 3053 
L 147 3053 
L 147 3500 
L 697 3500 
L 697 3744 
Q 697 4328 969 4595 
Q 1241 4863 1831 4863 
L 2375 4863 
z
" transform="scale(0.015625)"/>
       <path id="DejaVuSans-70" d="M 1159 525 
L 1159 -1331 
L 581 -1331 
L 581 3500 
L 1159 3500 
L 1159 2969 
Q 1341 3281 1617 3432 
Q 1894 3584 2278 3584 
Q 2916 3584 3314 3078 
Q 3713 2572 3713 1747 
Q 3713 922 3314 415 
Q 2916 -91 2278 -91 
Q 1894 -91 1617 61 
Q 1341 213 1159 525 
z
M 3116 1747 
Q 3116 2381 2855 2742 
Q 2594 3103 2138 3103 
Q 1681 3103 1420 2742 
Q 1159 2381 1159 1747 
Q 1159 1113 1420 752 
Q 1681 391 2138 391 
Q 2594 391 2855 752 
Q 3116 1113 3116 1747 
z
" transform="scale(0.015625)"/>
       <path id="DejaVuSans-74" d="M 1172 4494 
L 1172 3500 
L 2356 3500 
L 2356 3053 
L 1172 3053 
L 1172 1153 
Q 1172 725 1289 603 
Q 1406 481 1766 481 
L 2356 481 
L 2356 0 
L 1766 0 
Q 1100 0 847 248 
Q 594 497 594 1153 
L 594 3053 
L 172 3053 
L 172 3500 
L 594 3500 
L 594 4494 
L 1172 4494 
z
" transform="scale(0.015625)"/>
       <path id="DejaVuSans-69" d="M 603 3500 
L 1178 3500 
L 1178 0 
L 603 0 
L 603 3500 
z
M 603 4863 
L 1178 4863 
L 1178 4134 
L 603 4134 
L 603 4863 
z
" transform="scale(0.015625)"/>
       <path id="DejaVuSans-6e" d="M 3513 2113 
L 3513 0 
L 2938 0 
L 2938 2094 
Q 2938 2591 2744 2837 
Q 2550 3084 2163 3084 
Q 1697 3084 1428 2787 
Q 1159 2491 1159 1978 
L 1159 0 
L 581 0 
L 581 3500 
L 1159 3500 
L 1159 2956 
Q 1366 3272 1645 3428 
Q 1925 3584 2291 3584 
Q 2894 3584 3203 3211 
Q 3513 2838 3513 2113 
z
" transform="scale(0.015625)"/>
       <path id="DejaVuSans-73" d="M 2834 3397 
L 2834 2853 
Q 2591 2978 2328 3040 
Q 2066 3103 1784 3103 
Q 1356 3103 1142 2972 
Q 928 2841 928 2578 
Q 928 2378 1081 2264 
Q 1234 2150 1697 2047 
L 1894 2003 
Q 2506 1872 2764 1633 
Q 3022 1394 3022 966 
Q 3022 478 2636 193 
Q 2250 -91 1575 -91 
Q 1294 -91 989 -36 
Q 684 19 347 128 
L 347 722 
Q 666 556 975 473 
Q 1284 391 1588 391 
Q 1994 391 2212 530 
Q 2431 669 2431 922 
Q 2431 1156 2273 1281 
Q 2116 1406 1581 1522 
L 1381 1569 
Q 847 1681 609 1914 
Q 372 2147 372 2553 
Q 372 3047 722 3315 
Q 1072 3584 1716 3584 
Q 2034 3584 2315 3537 
Q 2597 3491 2834 3397 
z
" transform="scale(0.015625)"/>
      </defs>
      <use xlink:href="#DejaVuSans-4e"/>
      <use xlink:href="#DejaVuSans-75" x="74.804688"/>
      <use xlink:href="#DejaVuSans-6d" x="138.183594"/>
      <use xlink:href="#DejaVuSans-62" x="235.595703"/>
      <use xlink:href="#DejaVuSans-65" x="299.072266"/>
      <use xlink:href="#DejaVuSans-72" x="360.595703"/>
      <use xlink:href="#DejaVuSans-20" x="401.708984"/>
      <use xlink:href="#DejaVuSans-6f" x="433.496094"/>
      <use xlink:href="#DejaVuSans-66" x="494.677734"/>
      <use xlink:href="#DejaVuSans-20" x="529.882812"/>
      <use xlink:href="#DejaVuSans-70" x="561.669922"/>
      <use xlink:href="#DejaVuSans-72" x="625.146484"/>
      <use xlink:href="#DejaVuSans-6f" x="664.009766"/>
      <use xlink:href="#DejaVuSans-74" x="725.191406"/>
      <use xlink:href="#DejaVuSans-65" x="764.400391"/>
      <use xlink:href="#DejaVuSans-69" x="825.923828"/>
      <use xlink:href="#DejaVuSans-6e" x="853.707031"/>
      <use xlink:href="#DejaVuSans-73" x="917.085938"/>
     </g>
    </g>
   </g>
   <g id="patch_3">
    <path d="M 61.49 299.32 
L 61.49 48.96 
" style="fill: none; stroke: #000000; stroke-width: 0.8; stroke-linejoin: miter; stroke-linecap: square"/>
   </g>
   <g id="patch_4">
    <path d="M 450 299.32 
L 450 48.96 
" style="fill: none; stroke: #000000; stroke-width: 0.8; stroke-linejoin: miter; stroke-linecap: square"/>
   </g>
   <g id="patch_5">
    <path d="M 61.49 299.32 
L 450 299.32 
" style="fill: none; stroke: #000000; stroke-width: 0.8; stroke-linejoin: miter; stroke-linecap: square"/>
   </g>
   <g id="patch_6">
    <path d="M 61.49 48.96 
L 450 48.96 
" style="fill: none; stroke: #000000; stroke-width: 0.8; stroke-linejoin: miter; stroke-linecap: square"/>
   </g>
   <g id="legend_1">
    <g id="patch_7">
     <path d="M 128.755156 43.96 
L 382.734844 43.96 
Q 384.734844 43.96 384.734844 41.96 
L 384.734844 13.60375 
Q 384.734844 11.60375 382.734844 11.60375 
L 128.755156 11.60375 
Q 126.755156 11.60375 126.755156 13.60375 
L 126.755156 41.96 
Q 126.755156 43.96 128.755156 43.96 
z
" style="fill: #ffffff; opacity: 0.8; stroke: #cccccc; stroke-linejoin: miter"/>
    </g>
    <g id="patch_8">
     <path d="M 130.755156 23.202187 
L 150.755156 23.202187 
L 150.755156 16.202187 
L 130.755156 16.202187 
z
" style="fill: #fb363b"/>
    </g>
    <g id="text_19">
     <!-- Published -->
     <g transform="translate(158.755156 23.202187) scale(0.1 -0.1)">
      <defs>
       <path id="DejaVuSans-50" d="M 1259 4147 
L 1259 2394 
L 2053 2394 
Q 2494 2394 2734 2622 
Q 2975 2850 2975 3272 
Q 2975 3691 2734 3919 
Q 2494 4147 2053 4147 
L 1259 4147 
z
M 628 4666 
L 2053 4666 
Q 2838 4666 3239 4311 
Q 3641 3956 3641 3272 
Q 3641 2581 3239 2228 
Q 2838 1875 2053 1875 
L 1259 1875 
L 1259 0 
L 628 0 
L 628 4666 
z
" transform="scale(0.015625)"/>
       <path id="DejaVuSans-6c" d="M 603 4863 
L 1178 4863 
L 1178 0 
L 603 0 
L 603 4863 
z
" transform="scale(0.015625)"/>
       <path id="DejaVuSans-68" d="M 3513 2113 
L 3513 0 
L 2938 0 
L 2938 2094 
Q 2938 2591 2744 2837 
Q 2550 3084 2163 3084 
Q 1697 3084 1428 2787 
Q 1159 2491 1159 1978 
L 1159 0 
L 581 0 
L 581 4863 
L 1159 4863 
L 1159 2956 
Q 1366 3272 1645 3428 
Q 1925 3584 2291 3584 
Q 2894 3584 3203 3211 
Q 3513 2838 3513 2113 
z
" transform="scale(0.015625)"/>
       <path id="DejaVuSans-64" d="M 2906 2969 
L 2906 4863 
L 3481 4863 
L 3481 0 
L 2906 0 
L 2906 525 
Q 2725 213 2448 61 
Q 2172 -91 1784 -91 
Q 1150 -91 751 415 
Q 353 922 353 1747 
Q 353 2572 751 3078 
Q 1150 3584 1784 3584 
Q 2172 3584 2448 3432 
Q 2725 3281 2906 2969 
z
M 947 1747 
Q 947 1113 1208 752 
Q 1469 391 1925 391 
Q 2381 391 2643 752 
Q 2906 1113 2906 1747 
Q 2906 2381 2643 2742 
Q 2381 3103 1925 3103 
Q 1469 3103 1208 2742 
Q 947 2381 947 1747 
z
" transform="scale(0.015625)"/>
      </defs>
      <use xlink:href="#DejaVuSans-50"/>
      <use xlink:href="#DejaVuSans-75" x="58.552734"/>
      <use xlink:href="#DejaVuSans-62" x="121.931641"/>
      <use xlink:href="#DejaVuSans-6c" x="185.408203"/>
      <use xlink:href="#DejaVuSans-69" x="213.191406"/>
      <use xlink:href="#DejaVuSans-73" x="240.974609"/>
      <use xlink:href="#DejaVuSans-68" x="293.074219"/>
      <use xlink:href="#DejaVuSans-65" x="356.453125"/>
      <use xlink:href="#DejaVuSans-64" x="417.976562"/>
     </g>
    </g>
    <g id="patch_9">
     <path d="M 130.755156 37.880313 
L 150.755156 37.880313 
L 150.755156 30.880313 
L 130.755156 30.880313 
z
" style="fill: #fd852c"/>
    </g>
    <g id="text_20">
     <!-- Inferred role -->
     <g transform="translate(158.755156 37.880313) scale(0.1 -0.1)">
      <defs>
       <path id="DejaVuSans-49" d="M 628 4666 
L 1259 4666 
L 1259 0 
L 628 0 
L 628 4666 
z
" transform="scale(0.015625)"/>
      </defs>
      <use xlink:href="#DejaVuSans-49"/>
      <use xlink:href="#DejaVuSans-6e" x="29.492188"/>
      <use xlink:href="#DejaVuSans-66" x="92.871094"/>
      <use xlink:href="#DejaVuSans-65" x="128.076172"/>
      <use xlink:href="#DejaVuSans-72" x="189.599609"/>
      <use xlink:href="#DejaVuSans-72" x="228.962891"/>
      <use xlink:href="#DejaVuSans-65" x="267.826172"/>
      <use xlink:href="#DejaVuSans-64" x="329.349609"/>
      <use xlink:href="#DejaVuSans-20" x="392.826172"/>
      <use xlink:href="#DejaVuSans-72" x="424.613281"/>
      <use xlink:href="#DejaVuSans-6f" x="463.476562"/>
      <use xlink:href="#DejaVuSans-6c" x="524.658203"/>
      <use xlink:href="#DejaVuSans-65" x="552.441406"/>
     </g>
    </g>
    <g id="patch_10">
     <path d="M 240.153594 23.202187 
L 260.153594 23.202187 
L 260.153594 16.202187 
L 240.153594 16.202187 
z
" style="fill: #f0edbf"/>
    </g>
    <g id="text_21">
     <!-- Conserved unknown -->
     <g transform="translate(268.153594 23.202187) scale(0.1 -0.1)">
      <defs>
       <path id="DejaVuSans-43" d="M 4122 4306 
L 4122 3641 
Q 3803 3938 3442 4084 
Q 3081 4231 2675 4231 
Q 1875 4231 1450 3742 
Q 1025 3253 1025 2328 
Q 1025 1406 1450 917 
Q 1875 428 2675 428 
Q 3081 428 3442 575 
Q 3803 722 4122 1019 
L 4122 359 
Q 3791 134 3420 21 
Q 3050 -91 2638 -91 
Q 1578 -91 968 557 
Q 359 1206 359 2328 
Q 359 3453 968 4101 
Q 1578 4750 2638 4750 
Q 3056 4750 3426 4639 
Q 3797 4528 4122 4306 
z
" transform="scale(0.015625)"/>
       <path id="DejaVuSans-76" d="M 191 3500 
L 800 3500 
L 1894 563 
L 2988 3500 
L 3597 3500 
L 2284 0 
L 1503 0 
L 191 3500 
z
" transform="scale(0.015625)"/>
       <path id="DejaVuSans-6b" d="M 581 4863 
L 1159 4863 
L 1159 1991 
L 2875 3500 
L 3609 3500 
L 1753 1863 
L 3688 0 
L 2938 0 
L 1159 1709 
L 1159 0 
L 581 0 
L 581 4863 
z
" transform="scale(0.015625)"/>
       <path id="DejaVuSans-77" d="M 269 3500 
L 844 3500 
L 1563 769 
L 2278 3500 
L 2956 3500 
L 3675 769 
L 4391 3500 
L 4966 3500 
L 4050 0 
L 3372 0 
L 2619 2869 
L 1863 0 
L 1184 0 
L 269 3500 
z
" transform="scale(0.015625)"/>
      </defs>
      <use xlink:href="#DejaVuSans-43"/>
      <use xlink:href="#DejaVuSans-6f" x="69.824219"/>
      <use xlink:href="#DejaVuSans-6e" x="131.005859"/>
      <use xlink:href="#DejaVuSans-73" x="194.384766"/>
      <use xlink:href="#DejaVuSans-65" x="246.484375"/>
      <use xlink:href="#DejaVuSans-72" x="308.007812"/>
      <use xlink:href="#DejaVuSans-76" x="349.121094"/>
      <use xlink:href="#DejaVuSans-65" x="408.300781"/>
      <use xlink:href="#DejaVuSans-64" x="469.824219"/>
      <use xlink:href="#DejaVuSans-20" x="533.300781"/>
      <use xlink:href="#DejaVuSans-75" x="565.087891"/>
      <use xlink:href="#DejaVuSans-6e" x="628.466797"/>
      <use xlink:href="#DejaVuSans-6b" x="691.845703"/>
      <use xlink:href="#DejaVuSans-6e" x="749.755859"/>
      <use xlink:href="#DejaVuSans-6f" x="813.134766"/>
      <use xlink:href="#DejaVuSans-77" x="874.316406"/>
      <use xlink:href="#DejaVuSans-6e" x="956.103516"/>
     </g>
    </g>
    <g id="patch_11">
     <path d="M 240.153594 37.880313 
L 260.153594 37.880313 
L 260.153594 30.880313 
L 240.153594 30.880313 
z
" style="fill: #88bb92"/>
    </g>
    <g id="text_22">
     <!-- Fission yeast unknown -->
     <g transform="translate(268.153594 37.880313) scale(0.1 -0.1)">
      <defs>
       <path id="DejaVuSans-46" d="M 628 4666 
L 3309 4666 
L 3309 4134 
L 1259 4134 
L 1259 2759 
L 3109 2759 
L 3109 2228 
L 1259 2228 
L 1259 0 
L 628 0 
L 628 4666 
z
" transform="scale(0.015625)"/>
       <path id="DejaVuSans-79" d="M 2059 -325 
Q 1816 -950 1584 -1140 
Q 1353 -1331 966 -1331 
L 506 -1331 
L 506 -850 
L 844 -850 
Q 1081 -850 1212 -737 
Q 1344 -625 1503 -206 
L 1606 56 
L 191 3500 
L 800 3500 
L 1894 763 
L 2988 3500 
L 3597 3500 
L 2059 -325 
z
" transform="scale(0.015625)"/>
      </defs>
      <use xlink:href="#DejaVuSans-46"/>
      <use xlink:href="#DejaVuSans-69" x="50.269531"/>
      <use xlink:href="#DejaVuSans-73" x="78.052734"/>
      <use xlink:href="#DejaVuSans-73" x="130.152344"/>
      <use xlink:href="#DejaVuSans-69" x="182.251953"/>
      <use xlink:href="#DejaVuSans-6f" x="210.035156"/>
      <use xlink:href="#DejaVuSans-6e" x="271.216797"/>
      <use xlink:href="#DejaVuSans-20" x="334.595703"/>
      <use xlink:href="#DejaVuSans-79" x="366.382812"/>
      <use xlink:href="#DejaVuSans-65" x="425.5625"/>
      <use xlink:href="#DejaVuSans-61" x="487.085938"/>
      <use xlink:href="#DejaVuSans-73" x="548.365234"/>
      <use xlink:href="#DejaVuSans-74" x="600.464844"/>
      <use xlink:href="#DejaVuSans-20" x="639.673828"/>
      <use xlink:href="#DejaVuSans-75" x="671.460938"/>
      <use xlink:href="#DejaVuSans-6e" x="734.839844"/>
      <use xlink:href="#DejaVuSans-6b" x="798.21875"/>
      <use xlink:href="#DejaVuSans-6e" x="856.128906"/>
      <use xlink:href="#DejaVuSans-6f" x="919.507812"/>
      <use xlink:href="#DejaVuSans-77" x="980.689453"/>
      <use xlink:href="#DejaVuSans-6e" x="1062.476562"/>
     </g>
    </g>
   </g>
  </g>
 </g>
 <defs>
  <clipPath id="pf4b43e9a4b">
   <rect x="61.49" y="48.96" width="388.51" height="250.36"/>
  </clipPath>
 </defs>
</svg>
