<?xml version="1.0" encoding="utf-8" standalone="no"?>
<!DOCTYPE svg PUBLIC "-//W3C//DTD SVG 1.1//EN"
  "http://www.w3.org/Graphics/SVG/1.1/DTD/svg11.dtd">
<svg xmlns:xlink="http://www.w3.org/1999/xlink" width="460.8pt" height="345.6pt" viewBox="0 0 460.8 345.6" xmlns="http://www.w3.org/2000/svg" version="1.1">
 <metadata>
  <rdf:RDF xmlns:dc="http://purl.org/dc/elements/1.1/" xmlns:cc="http://creativecommons.org/ns#" xmlns:rdf="http://www.w3.org/1999/02/22-rdf-syntax-ns#">
   <cc:Work>
    <dc:type rdf:resource="http://purl.org/dc/dcmitype/StillImage"/>
    <dc:date>2024-08-02T00:55:14.286899</dc:date>
    <dc:format>image/svg+xml</dc:format>
    <dc:creator>
     <cc:Agent>
      <dc:title>Matplotlib v3.7.1, https://matplotlib.org/</dc:title>
     </cc:Agent>
    </dc:creator>
   </cc:Work>
  </rdf:RDF>
 </metadata>
 <defs>
  <style type="text/css">*{stroke-linejoin: round; stroke-linecap: butt}</style>
 </defs>
 <g id="figure_1">
  <g id="patch_1">
   <path d="M 0 345.6 
L 460.8 345.6 
L 460.8 0 
L 0 0 
z
" style="fill: #ffffff"/>
  </g>
  <g id="axes_1">
   <g id="patch_2">
    <path d="M 61.49 280.373956 
L 447.282798 280.373956 
L 447.282798 67.906044 
L 61.49 67.906044 
z
" style="fill: #ffffff"/>
   </g>
   <g id="PolyCollection_1">
    <path d="M 31.307064 226.453763 
L 31.307064 280.373956 
L 39.738331 280.373956 
L 48.069819 280.373956 
L 65.181797 280.373956 
L 85.037679 280.373956 
L 99.6552 280.373956 
L 108.735025 280.373956 
L 111.079815 280.373956 
L 115.420171 280.373956 
L 117.415737 280.373956 
L 117.665183 280.373956 
L 120.957867 280.373956 
L 121.805983 280.373956 
L 122.504431 280.373956 
L 123.352546 280.373956 
L 123.901327 280.373956 
L 124.749442 280.373956 
L 125.248334 280.373956 
L 126.146339 280.373956 
L 127.343678 280.373956 
L 128.291572 280.373956 
L 128.640796 280.373956 
L 129.638579 280.373956 
L 130.337027 280.373956 
L 131.085365 280.373956 
L 131.883591 280.373956 
L 132.432372 280.373956 
L 132.931263 280.373956 
L 134.328159 280.373956 
L 135.325942 280.373956 
L 136.07428 280.373956 
L 136.273836 280.373956 
L 136.972284 280.373956 
L 138.019956 280.373956 
L 139.117518 280.373956 
L 139.865855 280.373956 
L 140.963416 280.373956 
L 142.410202 280.373956 
L 144.405768 280.373956 
L 146.151888 280.373956 
L 147.648562 280.373956 
L 150.442355 280.373956 
L 151.639694 280.373956 
L 154.882489 280.373956 
L 156.977833 280.373956 
L 158.274951 280.373956 
L 159.073178 280.373956 
L 162.216194 280.373956 
L 163.962314 280.373956 
L 165.758324 280.373956 
L 169.300454 280.373956 
L 172.593137 280.373956 
L 173.141918 280.373956 
L 173.790477 280.373956 
L 174.78826 280.373956 
L 175.586486 280.373956 
L 178.031055 280.373956 
L 182.920192 280.373956 
L 183.868085 280.373956 
L 188.457887 280.373956 
L 189.505559 280.373956 
L 190.553232 280.373956 
L 192.249463 280.373956 
L 193.646359 280.373956 
L 194.993366 280.373956 
L 195.841481 280.373956 
L 198.585385 280.373956 
L 201.429066 280.373956 
L 202.825962 280.373956 
L 203.823745 280.373956 
L 205.070974 280.373956 
L 206.118646 280.373956 
L 207.365875 280.373956 
L 210.309335 280.373956 
L 211.855899 280.373956 
L 213.352573 280.373956 
L 214.899137 280.373956 
L 216.395811 280.373956 
L 217.942375 280.373956 
L 219.488939 280.373956 
L 220.935724 280.373956 
L 222.482288 280.373956 
L 223.978962 280.373956 
L 225.525526 280.373956 
L 227.0222 280.373956 
L 228.568764 280.373956 
L 230.115328 280.373956 
L 231.612002 280.373956 
L 233.158566 280.373956 
L 234.65524 280.373956 
L 236.201804 280.373956 
L 237.748368 280.373956 
L 239.145264 280.373956 
L 240.691827 280.373956 
L 242.188502 280.373956 
L 243.735066 280.373956 
L 245.23174 280.373956 
L 246.778304 280.373956 
L 248.324867 280.373956 
L 249.821542 280.373956 
L 251.368106 280.373956 
L 252.86478 280.373956 
L 254.411344 280.373956 
L 255.957907 280.373956 
L 257.354804 280.373956 
L 258.901367 280.373956 
L 260.398042 280.373956 
L 261.944605 280.373956 
L 263.44128 280.373956 
L 264.987844 280.373956 
L 266.534407 280.373956 
L 268.031082 280.373956 
L 269.577645 280.373956 
L 271.07432 280.373956 
L 272.620884 280.373956 
L 274.167447 280.373956 
L 275.564343 280.373956 
L 277.110907 280.373956 
L 278.607582 280.373956 
L 280.154145 280.373956 
L 281.65082 280.373956 
L 283.197383 280.373956 
L 284.743947 280.373956 
L 286.240622 280.373956 
L 287.787185 280.373956 
L 289.28386 280.373956 
L 290.830423 280.373956 
L 292.376987 280.373956 
L 293.823772 280.373956 
L 295.370336 280.373956 
L 296.867011 280.373956 
L 298.413574 280.373956 
L 299.910249 280.373956 
L 301.456812 280.373956 
L 303.003376 280.373956 
L 304.500051 280.373956 
L 306.046614 280.373956 
L 307.543289 280.373956 
L 309.089852 280.373956 
L 310.636416 280.373956 
L 312.033312 280.373956 
L 313.579876 280.373956 
L 315.07655 280.373956 
L 316.623114 280.373956 
L 318.119789 280.373956 
L 319.666352 280.373956 
L 321.212916 280.373956 
L 322.70959 280.373956 
L 324.256154 280.373956 
L 325.752829 280.373956 
L 327.299392 280.373956 
L 328.845956 280.373956 
L 330.242852 280.373956 
L 331.789416 280.373956 
L 333.28609 280.373956 
L 334.832654 280.373956 
L 336.329328 280.373956 
L 337.875892 280.373956 
L 339.422456 280.373956 
L 340.91913 280.373956 
L 342.465694 280.373956 
L 343.962368 280.373956 
L 345.508932 280.373956 
L 347.055496 280.373956 
L 348.452392 280.373956 
L 349.998956 280.373956 
L 351.49563 280.373956 
L 353.042194 280.373956 
L 354.538868 280.373956 
L 356.085432 280.373956 
L 357.631996 280.373956 
L 359.12867 280.373956 
L 360.675234 280.373956 
L 362.171908 280.373956 
L 363.718472 280.373956 
L 365.265035 280.373956 
L 366.711821 280.373956 
L 368.258385 280.373956 
L 369.755059 280.373956 
L 371.301623 280.373956 
L 372.798297 280.373956 
L 374.344861 280.373956 
L 375.891424 280.373956 
L 377.388099 280.373956 
L 378.934663 280.373956 
L 380.431337 280.373956 
L 381.977901 280.373956 
L 383.524464 280.373956 
L 384.921361 280.373956 
L 386.467924 280.373956 
L 387.964599 280.373956 
L 389.511162 280.373956 
L 391.007837 280.373956 
L 392.554401 280.373956 
L 394.100964 280.373956 
L 395.597639 280.373956 
L 397.144202 280.373956 
L 398.640877 280.373956 
L 400.187441 280.373956 
L 401.734004 280.373956 
L 403.1309 280.373956 
L 404.677464 280.373956 
L 406.174139 280.373956 
L 407.720702 280.373956 
L 409.217377 280.373956 
L 410.76394 280.373956 
L 412.310504 280.373956 
L 413.807179 280.373956 
L 415.353742 280.373956 
L 416.850417 280.373956 
L 418.39698 280.373956 
L 419.943544 280.373956 
L 421.34044 280.373956 
L 422.887004 280.373956 
L 424.383678 280.373956 
L 425.930242 280.373956 
L 427.426917 280.373956 
L 428.97348 280.373956 
L 430.520044 280.373956 
L 432.016718 280.373956 
L 433.563282 280.373956 
L 435.059957 280.373956 
L 436.60652 280.373956 
L 438.153084 280.373956 
L 439.599869 280.373956 
L 441.146433 280.373956 
L 442.643107 280.373956 
L 444.189671 280.373956 
L 445.686346 280.373956 
L 447.232909 280.373956 
L 447.232909 175.606741 
L 447.232909 175.606741 
L 445.686346 176.48479 
L 444.189671 177.043549 
L 442.643107 177.163283 
L 441.146433 177.283016 
L 439.599869 177.362839 
L 438.153084 179.079026 
L 436.60652 179.19876 
L 435.059957 179.238671 
L 433.563282 179.478139 
L 432.016718 179.597873 
L 430.520044 179.637784 
L 428.97348 179.757518 
L 427.426917 180.236454 
L 425.930242 180.475922 
L 424.383678 180.595656 
L 422.887004 180.595656 
L 421.34044 180.954858 
L 419.943544 181.553528 
L 418.39698 181.513616 
L 416.850417 181.63335 
L 415.353742 181.753084 
L 413.807179 181.992552 
L 412.310504 181.992552 
L 410.76394 182.032464 
L 409.217377 182.032464 
L 407.720702 181.992552 
L 406.174139 182.072375 
L 404.677464 181.992552 
L 403.1309 181.952641 
L 401.734004 181.992552 
L 400.187441 181.992552 
L 398.640877 182.192109 
L 397.144202 182.391665 
L 395.597639 182.710956 
L 394.100964 182.950424 
L 392.554401 182.910513 
L 391.007837 183.110069 
L 389.511162 183.389448 
L 387.964599 183.389448 
L 386.467924 183.549094 
L 384.921361 184.067941 
L 383.524464 184.187675 
L 381.977901 184.626699 
L 380.431337 184.666611 
L 378.934663 184.826256 
L 377.388099 184.906079 
L 375.891424 185.065724 
L 374.344861 185.105635 
L 372.798297 185.185458 
L 371.301623 185.185458 
L 369.755059 185.26528 
L 368.258385 185.624482 
L 366.711821 185.744216 
L 365.265035 185.824039 
L 363.718472 185.903862 
L 362.171908 185.903862 
L 360.675234 185.903862 
L 359.12867 186.023596 
L 357.631996 186.103418 
L 356.085432 186.263063 
L 354.538868 186.502531 
L 353.042194 186.622265 
L 351.49563 186.702088 
L 349.998956 186.781911 
L 348.452392 186.821822 
L 347.055496 186.821822 
L 345.508932 186.861733 
L 343.962368 186.901645 
L 342.465694 186.981467 
L 340.91913 187.021379 
L 339.422456 187.021379 
L 337.875892 187.141113 
L 336.329328 187.260846 
L 334.832654 187.500314 
L 333.28609 187.65996 
L 331.789416 187.97925 
L 330.242852 188.138896 
L 328.845956 188.298541 
L 327.299392 188.338452 
L 325.752829 188.498097 
L 324.256154 188.657743 
L 322.70959 190.413841 
L 321.212916 190.69322 
L 319.666352 191.451535 
L 318.119789 190.812954 
L 316.623114 190.733131 
L 315.07655 190.773043 
L 313.579876 190.852865 
L 312.033312 191.132245 
L 310.636416 191.172156 
L 309.089852 191.251979 
L 307.543289 192.010294 
L 306.046614 192.130028 
L 304.500051 192.329584 
L 303.003376 192.409407 
L 301.456812 192.529141 
L 299.910249 192.968165 
L 298.413574 193.167722 
L 296.867011 193.167722 
L 295.370336 193.566835 
L 293.823772 193.646658 
L 292.376987 193.686569 
L 290.830423 193.886126 
L 289.28386 193.965948 
L 287.787185 193.965948 
L 286.240622 194.165505 
L 284.743947 194.205416 
L 283.197383 194.245328 
L 281.65082 194.404973 
L 280.154145 194.524707 
L 278.607582 193.926037 
L 277.110907 194.00586 
L 275.564343 194.205416 
L 274.167447 194.205416 
L 272.620884 194.444884 
L 271.07432 194.604529 
L 269.577645 194.883909 
L 268.031082 195.243111 
L 266.534407 195.562401 
L 264.987844 195.642224 
L 263.44128 195.921603 
L 261.944605 196.161071 
L 260.398042 196.520273 
L 258.901367 196.679918 
L 257.354804 196.879475 
L 255.957907 196.919386 
L 254.411344 196.919386 
L 252.86478 197.118943 
L 251.368106 197.597878 
L 249.821542 197.63779 
L 248.324867 197.877258 
L 246.778304 198.55575 
L 245.23174 198.635573 
L 243.735066 199.114509 
L 242.188502 199.433799 
L 240.691827 200.511405 
L 239.145264 200.591227 
L 237.748368 200.710961 
L 236.201804 200.990341 
L 234.65524 201.070163 
L 233.158566 201.309631 
L 231.612002 201.509188 
L 230.115328 201.86839 
L 228.568764 202.067946 
L 227.0222 202.18768 
L 225.525526 202.427148 
L 223.978962 202.467059 
L 222.482288 202.586793 
L 220.935724 202.746439 
L 219.488939 202.746439 
L 217.942375 202.826261 
L 216.395811 202.866173 
L 214.899137 202.906084 
L 213.352573 202.945995 
L 211.855899 202.985907 
L 210.309335 203.105641 
L 207.365875 203.863956 
L 206.118646 204.063512 
L 205.070974 204.103424 
L 203.823745 203.98369 
L 202.825962 203.98369 
L 201.429066 204.103424 
L 198.585385 204.223158 
L 195.841481 204.861739 
L 194.993366 205.81961 
L 193.646359 205.659965 
L 192.249463 205.620054 
L 190.553232 206.338458 
L 189.505559 206.338458 
L 188.457887 206.09899 
L 183.868085 206.617837 
L 182.920192 206.697659 
L 178.031055 207.376152 
L 175.586486 207.455974 
L 174.78826 207.296329 
L 173.790477 207.416063 
L 173.141918 207.61562 
L 172.593137 207.655531 
L 169.300454 207.775265 
L 165.758324 207.855088 
L 163.962314 208.054644 
L 162.216194 210.169944 
L 159.073178 210.090122 
L 158.274951 210.130033 
L 156.977833 210.569057 
L 154.882489 211.686574 
L 151.639694 211.926042 
L 150.442355 212.325156 
L 147.648562 212.604535 
L 146.151888 213.442673 
L 144.405768 214.001431 
L 142.410202 214.440456 
L 140.963416 214.480367 
L 139.865855 214.560189 
L 139.117518 214.600101 
L 138.019956 214.640012 
L 136.972284 215.358416 
L 136.273836 215.717618 
L 136.07428 215.717618 
L 135.325942 215.717618 
L 134.328159 215.957086 
L 132.931263 215.717618 
L 132.432372 215.917174 
L 131.883591 215.996997 
L 131.085365 216.116731 
L 130.337027 216.116731 
L 129.638579 216.436022 
L 128.640796 217.154425 
L 128.291572 217.114514 
L 127.343678 217.473716 
L 126.146339 217.553538 
L 125.248334 217.633361 
L 124.749442 217.713184 
L 123.901327 217.832918 
L 123.352546 218.072386 
L 122.504431 218.271942 
L 121.805983 218.19212 
L 120.957867 218.271942 
L 117.665183 218.551321 
L 117.415737 218.51141 
L 115.420171 218.830701 
L 111.079815 216.914957 
L 108.735025 219.748661 
L 99.6552 223.460414 
L 85.037679 226.932699 
L 65.181797 231.402767 
L 48.069819 226.254206 
L 39.738331 225.615625 
L 31.307064 226.453763 
z
" clip-path="url(#p10d5c77260)" style="fill: #fb363b"/>
   </g>
   <g id="PolyCollection_2">
    <path d="M 31.307064 144.396089 
L 31.307064 226.453763 
L 39.738331 225.615625 
L 48.069819 226.254206 
L 65.181797 231.402767 
L 85.037679 226.932699 
L 99.6552 223.460414 
L 108.735025 219.748661 
L 111.079815 216.914957 
L 115.420171 218.830701 
L 117.415737 218.51141 
L 117.665183 218.551321 
L 120.957867 218.271942 
L 121.805983 218.19212 
L 122.504431 218.271942 
L 123.352546 218.072386 
L 123.901327 217.832918 
L 124.749442 217.713184 
L 125.248334 217.633361 
L 126.146339 217.553538 
L 127.343678 217.473716 
L 128.291572 217.114514 
L 128.640796 217.154425 
L 129.638579 216.436022 
L 130.337027 216.116731 
L 131.085365 216.116731 
L 131.883591 215.996997 
L 132.432372 215.917174 
L 132.931263 215.717618 
L 134.328159 215.957086 
L 135.325942 215.717618 
L 136.07428 215.717618 
L 136.273836 215.717618 
L 136.972284 215.358416 
L 138.019956 214.640012 
L 139.117518 214.600101 
L 139.865855 214.560189 
L 140.963416 214.480367 
L 142.410202 214.440456 
L 144.405768 214.001431 
L 146.151888 213.442673 
L 147.648562 212.604535 
L 150.442355 212.325156 
L 151.639694 211.926042 
L 154.882489 211.686574 
L 156.977833 210.569057 
L 158.274951 210.130033 
L 159.073178 210.090122 
L 162.216194 210.169944 
L 163.962314 208.054644 
L 165.758324 207.855088 
L 169.300454 207.775265 
L 172.593137 207.655531 
L 173.141918 207.61562 
L 173.790477 207.416063 
L 174.78826 207.296329 
L 175.586486 207.455974 
L 178.031055 207.376152 
L 182.920192 206.697659 
L 183.868085 206.617837 
L 188.457887 206.09899 
L 189.505559 206.338458 
L 190.553232 206.338458 
L 192.249463 205.620054 
L 193.646359 205.659965 
L 194.993366 205.81961 
L 195.841481 204.861739 
L 198.585385 204.223158 
L 201.429066 204.103424 
L 202.825962 203.98369 
L 203.823745 203.98369 
L 205.070974 204.103424 
L 206.118646 204.063512 
L 207.365875 203.863956 
L 210.309335 203.105641 
L 211.855899 202.985907 
L 213.352573 202.945995 
L 214.899137 202.906084 
L 216.395811 202.866173 
L 217.942375 202.826261 
L 219.488939 202.746439 
L 220.935724 202.746439 
L 222.482288 202.586793 
L 223.978962 202.467059 
L 225.525526 202.427148 
L 227.0222 202.18768 
L 228.568764 202.067946 
L 230.115328 201.86839 
L 231.612002 201.509188 
L 233.158566 201.309631 
L 234.65524 201.070163 
L 236.201804 200.990341 
L 237.748368 200.710961 
L 239.145264 200.591227 
L 240.691827 200.511405 
L 242.188502 199.433799 
L 243.735066 199.114509 
L 245.23174 198.635573 
L 246.778304 198.55575 
L 248.324867 197.877258 
L 249.821542 197.63779 
L 251.368106 197.597878 
L 252.86478 197.118943 
L 254.411344 196.919386 
L 255.957907 196.919386 
L 257.354804 196.879475 
L 258.901367 196.679918 
L 260.398042 196.520273 
L 261.944605 196.161071 
L 263.44128 195.921603 
L 264.987844 195.642224 
L 266.534407 195.562401 
L 268.031082 195.243111 
L 269.577645 194.883909 
L 271.07432 194.604529 
L 272.620884 194.444884 
L 274.167447 194.205416 
L 275.564343 194.205416 
L 277.110907 194.00586 
L 278.607582 193.926037 
L 280.154145 194.524707 
L 281.65082 194.404973 
L 283.197383 194.245328 
L 284.743947 194.205416 
L 286.240622 194.165505 
L 287.787185 193.965948 
L 289.28386 193.965948 
L 290.830423 193.886126 
L 292.376987 193.686569 
L 293.823772 193.646658 
L 295.370336 193.566835 
L 296.867011 193.167722 
L 298.413574 193.167722 
L 299.910249 192.968165 
L 301.456812 192.529141 
L 303.003376 192.409407 
L 304.500051 192.329584 
L 306.046614 192.130028 
L 307.543289 192.010294 
L 309.089852 191.251979 
L 310.636416 191.172156 
L 312.033312 191.132245 
L 313.579876 190.852865 
L 315.07655 190.773043 
L 316.623114 190.733131 
L 318.119789 190.812954 
L 319.666352 191.451535 
L 321.212916 190.69322 
L 322.70959 190.413841 
L 324.256154 188.657743 
L 325.752829 188.498097 
L 327.299392 188.338452 
L 328.845956 188.298541 
L 330.242852 188.138896 
L 331.789416 187.97925 
L 333.28609 187.65996 
L 334.832654 187.500314 
L 336.329328 187.260846 
L 337.875892 187.141113 
L 339.422456 187.021379 
L 340.91913 187.021379 
L 342.465694 186.981467 
L 343.962368 186.901645 
L 345.508932 186.861733 
L 347.055496 186.821822 
L 348.452392 186.821822 
L 349.998956 186.781911 
L 351.49563 186.702088 
L 353.042194 186.622265 
L 354.538868 186.502531 
L 356.085432 186.263063 
L 357.631996 186.103418 
L 359.12867 186.023596 
L 360.675234 185.903862 
L 362.171908 185.903862 
L 363.718472 185.903862 
L 365.265035 185.824039 
L 366.711821 185.744216 
L 368.258385 185.624482 
L 369.755059 185.26528 
L 371.301623 185.185458 
L 372.798297 185.185458 
L 374.344861 185.105635 
L 375.891424 185.065724 
L 377.388099 184.906079 
L 378.934663 184.826256 
L 380.431337 184.666611 
L 381.977901 184.626699 
L 383.524464 184.187675 
L 384.921361 184.067941 
L 386.467924 183.549094 
L 387.964599 183.389448 
L 389.511162 183.389448 
L 391.007837 183.110069 
L 392.554401 182.910513 
L 394.100964 182.950424 
L 395.597639 182.710956 
L 397.144202 182.391665 
L 398.640877 182.192109 
L 400.187441 181.992552 
L 401.734004 181.992552 
L 403.1309 181.952641 
L 404.677464 181.992552 
L 406.174139 182.072375 
L 407.720702 181.992552 
L 409.217377 182.032464 
L 410.76394 182.032464 
L 412.310504 181.992552 
L 413.807179 181.992552 
L 415.353742 181.753084 
L 416.850417 181.63335 
L 418.39698 181.513616 
L 419.943544 181.553528 
L 421.34044 180.954858 
L 422.887004 180.595656 
L 424.383678 180.595656 
L 425.930242 180.475922 
L 427.426917 180.236454 
L 428.97348 179.757518 
L 430.520044 179.637784 
L 432.016718 179.597873 
L 433.563282 179.478139 
L 435.059957 179.238671 
L 436.60652 179.19876 
L 438.153084 179.079026 
L 439.599869 177.362839 
L 441.146433 177.283016 
L 442.643107 177.163283 
L 444.189671 177.043549 
L 445.686346 176.48479 
L 447.232909 175.606741 
L 447.232909 102.529114 
L 447.232909 102.529114 
L 445.686346 102.40938 
L 444.189671 102.369469 
L 442.643107 102.529114 
L 441.146433 102.608936 
L 439.599869 102.569025 
L 438.153084 102.848404 
L 436.60652 103.127784 
L 435.059957 103.127784 
L 433.563282 103.247518 
L 432.016718 103.407163 
L 430.520044 103.486986 
L 428.97348 103.486986 
L 427.426917 103.766365 
L 425.930242 104.005833 
L 424.383678 104.125567 
L 422.887004 104.125567 
L 421.34044 104.165478 
L 419.943544 104.325123 
L 418.39698 104.444857 
L 416.850417 104.52468 
L 415.353742 104.52468 
L 413.807179 104.564591 
L 412.310504 104.444857 
L 410.76394 104.484769 
L 409.217377 104.484769 
L 407.720702 104.684325 
L 406.174139 104.644414 
L 404.677464 104.644414 
L 403.1309 104.684325 
L 401.734004 104.764148 
L 400.187441 104.764148 
L 398.640877 104.883882 
L 397.144202 104.84397 
L 395.597639 104.963704 
L 394.100964 105.003616 
L 392.554401 105.043527 
L 391.007837 105.083438 
L 389.511162 105.12335 
L 387.964599 105.083438 
L 386.467924 105.203172 
L 384.921361 105.402729 
L 383.524464 105.562374 
L 381.977901 105.602285 
L 380.431337 105.602285 
L 378.934663 105.682108 
L 377.388099 105.722019 
L 375.891424 105.801842 
L 374.344861 105.801842 
L 372.798297 105.841753 
L 371.301623 105.881665 
L 369.755059 105.761931 
L 368.258385 105.722019 
L 366.711821 105.761931 
L 365.265035 105.682108 
L 363.718472 105.682108 
L 362.171908 105.682108 
L 360.675234 105.682108 
L 359.12867 105.682108 
L 357.631996 105.722019 
L 356.085432 105.682108 
L 354.538868 105.722019 
L 353.042194 105.722019 
L 351.49563 105.602285 
L 349.998956 105.602285 
L 348.452392 105.642197 
L 347.055496 105.642197 
L 345.508932 105.722019 
L 343.962368 105.722019 
L 342.465694 105.801842 
L 340.91913 105.801842 
L 339.422456 105.801842 
L 337.875892 105.841753 
L 336.329328 105.841753 
L 334.832654 105.841753 
L 333.28609 105.881665 
L 331.789416 105.921576 
L 330.242852 106.240867 
L 328.845956 106.360601 
L 327.299392 106.280778 
L 325.752829 106.360601 
L 324.256154 106.480335 
L 322.70959 106.520246 
L 321.212916 107.079004 
L 319.666352 107.398295 
L 318.119789 109.593417 
L 316.623114 110.830668 
L 315.07655 111.269693 
L 313.579876 111.269693 
L 312.033312 111.588983 
L 310.636416 111.509161 
L 309.089852 110.710934 
L 307.543289 110.910491 
L 306.046614 111.349516 
L 304.500051 111.349516 
L 303.003376 111.229782 
L 301.456812 111.389427 
L 299.910249 111.429338 
L 298.413574 111.429338 
L 296.867011 111.46925 
L 295.370336 111.549072 
L 293.823772 111.549072 
L 292.376987 111.588983 
L 290.830423 111.588983 
L 289.28386 111.708717 
L 287.787185 111.748629 
L 286.240622 111.78854 
L 284.743947 111.78854 
L 283.197383 111.748629 
L 281.65082 111.78854 
L 280.154145 111.748629 
L 278.607582 112.38721 
L 277.110907 112.347299 
L 275.564343 112.427121 
L 274.167447 112.506944 
L 272.620884 112.626678 
L 271.07432 112.586766 
L 269.577645 112.866146 
L 268.031082 112.98588 
L 266.534407 113.145525 
L 264.987844 113.345082 
L 263.44128 113.384993 
L 261.944605 113.30517 
L 260.398042 113.384993 
L 258.901367 113.424904 
L 257.354804 113.424904 
L 255.957907 113.424904 
L 254.411344 113.424904 
L 252.86478 113.58455 
L 251.368106 113.664372 
L 249.821542 113.90384 
L 248.324867 113.943751 
L 246.778304 114.183219 
L 245.23174 114.263042 
L 243.735066 114.50251 
L 242.188502 114.622244 
L 240.691827 114.781889 
L 239.145264 114.8218 
L 237.748368 114.861712 
L 236.201804 115.021357 
L 234.65524 115.021357 
L 233.158566 115.220914 
L 231.612002 115.500293 
L 230.115328 115.659938 
L 228.568764 115.819583 
L 227.0222 116.01914 
L 225.525526 116.098963 
L 223.978962 116.418253 
L 222.482288 116.418253 
L 220.935724 116.458165 
L 219.488939 116.458165 
L 217.942375 116.458165 
L 216.395811 116.458165 
L 214.899137 116.458165 
L 213.352573 116.498076 
L 211.855899 116.657721 
L 210.309335 116.737544 
L 207.365875 117.21648 
L 206.118646 117.815149 
L 205.070974 118.094529 
L 203.823745 117.53577 
L 202.825962 117.855061 
L 201.429066 117.974795 
L 198.585385 118.13444 
L 195.841481 118.13444 
L 194.993366 118.294085 
L 193.646359 118.812932 
L 192.249463 118.773021 
L 190.553232 119.690981 
L 189.505559 119.690981 
L 188.457887 120.130006 
L 183.868085 120.409385 
L 182.920192 120.489208 
L 178.031055 121.606725 
L 175.586486 122.604508 
L 174.78826 122.644419 
L 173.790477 122.644419 
L 173.141918 122.644419 
L 172.593137 122.68433 
L 169.300454 122.245306 
L 165.758324 122.764153 
L 163.962314 122.96371 
L 162.216194 123.163266 
L 159.073178 123.283 
L 158.274951 123.362823 
L 156.977833 123.56238 
L 154.882489 123.88167 
L 151.639694 123.722025 
L 150.442355 124.041315 
L 147.648562 124.001404 
L 146.151888 123.921581 
L 144.405768 124.280783 
L 142.410202 124.200961 
L 140.963416 124.081227 
L 139.865855 124.360606 
L 139.117518 124.400517 
L 138.019956 123.642202 
L 136.972284 123.682114 
L 136.273836 123.841759 
L 136.07428 123.841759 
L 135.325942 123.801847 
L 134.328159 124.320695 
L 132.931263 123.761936 
L 132.432372 123.761936 
L 131.883591 123.801847 
L 131.085365 123.841759 
L 130.337027 123.642202 
L 129.638579 124.081227 
L 128.640796 124.200961 
L 128.291572 123.961493 
L 127.343678 124.121138 
L 126.146339 124.081227 
L 125.248334 124.600074 
L 124.749442 124.520251 
L 123.901327 124.520251 
L 123.352546 122.724242 
L 122.504431 123.123355 
L 121.805983 122.125572 
L 120.957867 121.886104 
L 117.665183 122.165483 
L 117.415737 122.005838 
L 115.420171 122.285217 
L 111.079815 124.081227 
L 108.735025 124.959276 
L 99.6552 127.074576 
L 85.037679 130.107836 
L 65.181797 133.979234 
L 48.069819 140.165489 
L 39.738331 144.076798 
L 31.307064 144.396089 
z
" clip-path="url(#p10d5c77260)" style="fill: #fdc92c"/>
   </g>
   <g id="PolyCollection_3">
    <path d="M 31.307064 112.945968 
L 31.307064 144.396089 
L 39.738331 144.076798 
L 48.069819 140.165489 
L 65.181797 133.979234 
L 85.037679 130.107836 
L 99.6552 127.074576 
L 108.735025 124.959276 
L 111.079815 124.081227 
L 115.420171 122.285217 
L 117.415737 122.005838 
L 117.665183 122.165483 
L 120.957867 121.886104 
L 121.805983 122.125572 
L 122.504431 123.123355 
L 123.352546 122.724242 
L 123.901327 124.520251 
L 124.749442 124.520251 
L 125.248334 124.600074 
L 126.146339 124.081227 
L 127.343678 124.121138 
L 128.291572 123.961493 
L 128.640796 124.200961 
L 129.638579 124.081227 
L 130.337027 123.642202 
L 131.085365 123.841759 
L 131.883591 123.801847 
L 132.432372 123.761936 
L 132.931263 123.761936 
L 134.328159 124.320695 
L 135.325942 123.801847 
L 136.07428 123.841759 
L 136.273836 123.841759 
L 136.972284 123.682114 
L 138.019956 123.642202 
L 139.117518 124.400517 
L 139.865855 124.360606 
L 140.963416 124.081227 
L 142.410202 124.200961 
L 144.405768 124.280783 
L 146.151888 123.921581 
L 147.648562 124.001404 
L 150.442355 124.041315 
L 151.639694 123.722025 
L 154.882489 123.88167 
L 156.977833 123.56238 
L 158.274951 123.362823 
L 159.073178 123.283 
L 162.216194 123.163266 
L 163.962314 122.96371 
L 165.758324 122.764153 
L 169.300454 122.245306 
L 172.593137 122.68433 
L 173.141918 122.644419 
L 173.790477 122.644419 
L 174.78826 122.644419 
L 175.586486 122.604508 
L 178.031055 121.606725 
L 182.920192 120.489208 
L 183.868085 120.409385 
L 188.457887 120.130006 
L 189.505559 119.690981 
L 190.553232 119.690981 
L 192.249463 118.773021 
L 193.646359 118.812932 
L 194.993366 118.294085 
L 195.841481 118.13444 
L 198.585385 118.13444 
L 201.429066 117.974795 
L 202.825962 117.855061 
L 203.823745 117.53577 
L 205.070974 118.094529 
L 206.118646 117.815149 
L 207.365875 117.21648 
L 210.309335 116.737544 
L 211.855899 116.657721 
L 213.352573 116.498076 
L 214.899137 116.458165 
L 216.395811 116.458165 
L 217.942375 116.458165 
L 219.488939 116.458165 
L 220.935724 116.458165 
L 222.482288 116.418253 
L 223.978962 116.418253 
L 225.525526 116.098963 
L 227.0222 116.01914 
L 228.568764 115.819583 
L 230.115328 115.659938 
L 231.612002 115.500293 
L 233.158566 115.220914 
L 234.65524 115.021357 
L 236.201804 115.021357 
L 237.748368 114.861712 
L 239.145264 114.8218 
L 240.691827 114.781889 
L 242.188502 114.622244 
L 243.735066 114.50251 
L 245.23174 114.263042 
L 246.778304 114.183219 
L 248.324867 113.943751 
L 249.821542 113.90384 
L 251.368106 113.664372 
L 252.86478 113.58455 
L 254.411344 113.424904 
L 255.957907 113.424904 
L 257.354804 113.424904 
L 258.901367 113.424904 
L 260.398042 113.384993 
L 261.944605 113.30517 
L 263.44128 113.384993 
L 264.987844 113.345082 
L 266.534407 113.145525 
L 268.031082 112.98588 
L 269.577645 112.866146 
L 271.07432 112.586766 
L 272.620884 112.626678 
L 274.167447 112.506944 
L 275.564343 112.427121 
L 277.110907 112.347299 
L 278.607582 112.38721 
L 280.154145 111.748629 
L 281.65082 111.78854 
L 283.197383 111.748629 
L 284.743947 111.78854 
L 286.240622 111.78854 
L 287.787185 111.748629 
L 289.28386 111.708717 
L 290.830423 111.588983 
L 292.376987 111.588983 
L 293.823772 111.549072 
L 295.370336 111.549072 
L 296.867011 111.46925 
L 298.413574 111.429338 
L 299.910249 111.429338 
L 301.456812 111.389427 
L 303.003376 111.229782 
L 304.500051 111.349516 
L 306.046614 111.349516 
L 307.543289 110.910491 
L 309.089852 110.710934 
L 310.636416 111.509161 
L 312.033312 111.588983 
L 313.579876 111.269693 
L 315.07655 111.269693 
L 316.623114 110.830668 
L 318.119789 109.593417 
L 319.666352 107.398295 
L 321.212916 107.079004 
L 322.70959 106.520246 
L 324.256154 106.480335 
L 325.752829 106.360601 
L 327.299392 106.280778 
L 328.845956 106.360601 
L 330.242852 106.240867 
L 331.789416 105.921576 
L 333.28609 105.881665 
L 334.832654 105.841753 
L 336.329328 105.841753 
L 337.875892 105.841753 
L 339.422456 105.801842 
L 340.91913 105.801842 
L 342.465694 105.801842 
L 343.962368 105.722019 
L 345.508932 105.722019 
L 347.055496 105.642197 
L 348.452392 105.642197 
L 349.998956 105.602285 
L 351.49563 105.602285 
L 353.042194 105.722019 
L 354.538868 105.722019 
L 356.085432 105.682108 
L 357.631996 105.722019 
L 359.12867 105.682108 
L 360.675234 105.682108 
L 362.171908 105.682108 
L 363.718472 105.682108 
L 365.265035 105.682108 
L 366.711821 105.761931 
L 368.258385 105.722019 
L 369.755059 105.761931 
L 371.301623 105.881665 
L 372.798297 105.841753 
L 374.344861 105.801842 
L 375.891424 105.801842 
L 377.388099 105.722019 
L 378.934663 105.682108 
L 380.431337 105.602285 
L 381.977901 105.602285 
L 383.524464 105.562374 
L 384.921361 105.402729 
L 386.467924 105.203172 
L 387.964599 105.083438 
L 389.511162 105.12335 
L 391.007837 105.083438 
L 392.554401 105.043527 
L 394.100964 105.003616 
L 395.597639 104.963704 
L 397.144202 104.84397 
L 398.640877 104.883882 
L 400.187441 104.764148 
L 401.734004 104.764148 
L 403.1309 104.684325 
L 404.677464 104.644414 
L 406.174139 104.644414 
L 407.720702 104.684325 
L 409.217377 104.484769 
L 410.76394 104.484769 
L 412.310504 104.444857 
L 413.807179 104.564591 
L 415.353742 104.52468 
L 416.850417 104.52468 
L 418.39698 104.444857 
L 419.943544 104.325123 
L 421.34044 104.165478 
L 422.887004 104.125567 
L 424.383678 104.125567 
L 425.930242 104.005833 
L 427.426917 103.766365 
L 428.97348 103.486986 
L 430.520044 103.486986 
L 432.016718 103.407163 
L 433.563282 103.247518 
L 435.059957 103.127784 
L 436.60652 103.127784 
L 438.153084 102.848404 
L 439.599869 102.569025 
L 441.146433 102.608936 
L 442.643107 102.529114 
L 444.189671 102.369469 
L 445.686346 102.40938 
L 447.232909 102.529114 
L 447.232909 88.600063 
L 447.232909 88.600063 
L 445.686346 88.839531 
L 444.189671 88.839531 
L 442.643107 88.879442 
L 441.146433 88.879442 
L 439.599869 88.879442 
L 438.153084 88.919354 
L 436.60652 88.919354 
L 435.059957 88.919354 
L 433.563282 88.959265 
L 432.016718 88.959265 
L 430.520044 88.959265 
L 428.97348 88.959265 
L 427.426917 89.039088 
L 425.930242 89.039088 
L 424.383678 89.039088 
L 422.887004 89.039088 
L 421.34044 89.039088 
L 419.943544 89.078999 
L 418.39698 89.078999 
L 416.850417 89.158822 
L 415.353742 89.158822 
L 413.807179 89.198733 
L 412.310504 89.198733 
L 410.76394 89.198733 
L 409.217377 89.198733 
L 407.720702 89.278556 
L 406.174139 89.358378 
L 404.677464 89.358378 
L 403.1309 89.358378 
L 401.734004 89.358378 
L 400.187441 89.358378 
L 398.640877 89.398289 
L 397.144202 89.358378 
L 395.597639 89.438201 
L 394.100964 89.438201 
L 392.554401 89.438201 
L 391.007837 89.478112 
L 389.511162 89.478112 
L 387.964599 89.478112 
L 386.467924 89.518023 
L 384.921361 89.557935 
L 383.524464 89.597846 
L 381.977901 89.597846 
L 380.431337 89.557935 
L 378.934663 89.557935 
L 377.388099 89.557935 
L 375.891424 89.518023 
L 374.344861 89.518023 
L 372.798297 89.557935 
L 371.301623 89.557935 
L 369.755059 89.478112 
L 368.258385 89.438201 
L 366.711821 89.438201 
L 365.265035 89.478112 
L 363.718472 89.478112 
L 362.171908 89.478112 
L 360.675234 89.478112 
L 359.12867 89.478112 
L 357.631996 89.478112 
L 356.085432 89.478112 
L 354.538868 89.478112 
L 353.042194 89.478112 
L 351.49563 89.398289 
L 349.998956 89.398289 
L 348.452392 89.398289 
L 347.055496 89.398289 
L 345.508932 89.358378 
L 343.962368 89.358378 
L 342.465694 89.438201 
L 340.91913 89.438201 
L 339.422456 89.438201 
L 337.875892 89.478112 
L 336.329328 89.478112 
L 334.832654 89.478112 
L 333.28609 89.518023 
L 331.789416 89.557935 
L 330.242852 89.637757 
L 328.845956 89.637757 
L 327.299392 89.637757 
L 325.752829 89.797403 
L 324.256154 89.797403 
L 322.70959 89.797403 
L 321.212916 89.677669 
L 319.666352 89.71758 
L 318.119789 89.917137 
L 316.623114 90.875008 
L 315.07655 91.034654 
L 313.579876 91.074565 
L 312.033312 91.114476 
L 310.636416 91.114476 
L 309.089852 91.114476 
L 307.543289 91.114476 
L 306.046614 91.154388 
L 304.500051 91.154388 
L 303.003376 91.194299 
L 301.456812 91.23421 
L 299.910249 91.274122 
L 298.413574 91.274122 
L 296.867011 91.274122 
L 295.370336 91.274122 
L 293.823772 91.274122 
L 292.376987 91.314033 
L 290.830423 91.314033 
L 289.28386 91.353944 
L 287.787185 91.393855 
L 286.240622 91.393855 
L 284.743947 91.393855 
L 283.197383 91.393855 
L 281.65082 91.393855 
L 280.154145 91.393855 
L 278.607582 91.393855 
L 277.110907 91.393855 
L 275.564343 91.473678 
L 274.167447 91.473678 
L 272.620884 91.473678 
L 271.07432 91.513589 
L 269.577645 91.513589 
L 268.031082 91.553501 
L 266.534407 91.713146 
L 264.987844 92.671018 
L 263.44128 92.671018 
L 261.944605 92.671018 
L 260.398042 92.75084 
L 258.901367 92.75084 
L 257.354804 92.75084 
L 255.957907 92.75084 
L 254.411344 92.75084 
L 252.86478 92.75084 
L 251.368106 92.830663 
L 249.821542 92.75084 
L 248.324867 92.790752 
L 246.778304 92.870574 
L 245.23174 92.950397 
L 243.735066 93.149954 
L 242.188502 93.189865 
L 240.691827 93.189865 
L 239.145264 93.189865 
L 237.748368 93.189865 
L 236.201804 93.269688 
L 234.65524 93.269688 
L 233.158566 93.34951 
L 231.612002 93.34951 
L 230.115328 93.229776 
L 228.568764 93.309599 
L 227.0222 93.309599 
L 225.525526 93.309599 
L 223.978962 93.34951 
L 222.482288 93.34951 
L 220.935724 93.34951 
L 219.488939 93.389422 
L 217.942375 93.389422 
L 216.395811 93.429333 
L 214.899137 93.389422 
L 213.352573 93.389422 
L 211.855899 93.469244 
L 210.309335 93.509155 
L 207.365875 93.788535 
L 206.118646 94.387205 
L 205.070974 94.666584 
L 203.823745 94.028003 
L 202.825962 94.54685 
L 201.429066 94.586761 
L 198.585385 95.504721 
L 195.841481 95.504721 
L 194.993366 95.46481 
L 193.646359 95.624455 
L 192.249463 95.624455 
L 190.553232 95.704278 
L 189.505559 95.704278 
L 188.457887 95.744189 
L 183.868085 95.903835 
L 182.920192 95.903835 
L 178.031055 96.941529 
L 175.586486 97.061263 
L 174.78826 97.101174 
L 173.790477 97.220908 
L 173.141918 97.220908 
L 172.593137 97.220908 
L 169.300454 97.220908 
L 165.758324 97.460376 
L 163.962314 97.58011 
L 162.216194 97.620021 
L 159.073178 97.699844 
L 158.274951 97.819578 
L 156.977833 98.019135 
L 154.882489 98.258603 
L 151.639694 98.418248 
L 150.442355 99.056829 
L 147.648562 99.09674 
L 146.151888 99.37612 
L 144.405768 99.69541 
L 142.410202 99.775233 
L 140.963416 99.775233 
L 139.865855 99.775233 
L 139.117518 99.775233 
L 138.019956 99.934878 
L 136.972284 100.094523 
L 136.273836 100.214257 
L 136.07428 100.214257 
L 135.325942 100.174346 
L 134.328159 100.733104 
L 132.931263 100.254169 
L 132.432372 100.254169 
L 131.883591 100.333991 
L 131.085365 100.333991 
L 130.337027 100.333991 
L 129.638579 100.932661 
L 128.640796 100.932661 
L 128.291572 100.453725 
L 127.343678 101.052395 
L 126.146339 102.169912 
L 125.248334 103.087872 
L 124.749442 103.127784 
L 123.901327 103.127784 
L 123.352546 103.167695 
L 122.504431 103.766365 
L 121.805983 103.207606 
L 120.957867 103.207606 
L 117.665183 103.486986 
L 117.415737 103.526897 
L 115.420171 103.566808 
L 111.079815 100.932661 
L 108.735025 103.726453 
L 99.6552 105.642197 
L 85.037679 107.597851 
L 65.181797 108.954836 
L 48.069819 110.990314 
L 39.738331 113.384993 
L 31.307064 112.945968 
z
" clip-path="url(#p10d5c77260)" style="fill: #aeaeae"/>
   </g>
   <g id="PolyCollection_4">
    <path d="M 31.307064 88.719797 
L 31.307064 112.945968 
L 39.738331 113.384993 
L 48.069819 110.990314 
L 65.181797 108.954836 
L 85.037679 107.597851 
L 99.6552 105.642197 
L 108.735025 103.726453 
L 111.079815 100.932661 
L 115.420171 103.566808 
L 117.415737 103.526897 
L 117.665183 103.486986 
L 120.957867 103.207606 
L 121.805983 103.207606 
L 122.504431 103.766365 
L 123.352546 103.167695 
L 123.901327 103.127784 
L 124.749442 103.127784 
L 125.248334 103.087872 
L 126.146339 102.169912 
L 127.343678 101.052395 
L 128.291572 100.453725 
L 128.640796 100.932661 
L 129.638579 100.932661 
L 130.337027 100.333991 
L 131.085365 100.333991 
L 131.883591 100.333991 
L 132.432372 100.254169 
L 132.931263 100.254169 
L 134.328159 100.733104 
L 135.325942 100.174346 
L 136.07428 100.214257 
L 136.273836 100.214257 
L 136.972284 100.094523 
L 138.019956 99.934878 
L 139.117518 99.775233 
L 139.865855 99.775233 
L 140.963416 99.775233 
L 142.410202 99.775233 
L 144.405768 99.69541 
L 146.151888 99.37612 
L 147.648562 99.09674 
L 150.442355 99.056829 
L 151.639694 98.418248 
L 154.882489 98.258603 
L 156.977833 98.019135 
L 158.274951 97.819578 
L 159.073178 97.699844 
L 162.216194 97.620021 
L 163.962314 97.58011 
L 165.758324 97.460376 
L 169.300454 97.220908 
L 172.593137 97.220908 
L 173.141918 97.220908 
L 173.790477 97.220908 
L 174.78826 97.101174 
L 175.586486 97.061263 
L 178.031055 96.941529 
L 182.920192 95.903835 
L 183.868085 95.903835 
L 188.457887 95.744189 
L 189.505559 95.704278 
L 190.553232 95.704278 
L 192.249463 95.624455 
L 193.646359 95.624455 
L 194.993366 95.46481 
L 195.841481 95.504721 
L 198.585385 95.504721 
L 201.429066 94.586761 
L 202.825962 94.54685 
L 203.823745 94.028003 
L 205.070974 94.666584 
L 206.118646 94.387205 
L 207.365875 93.788535 
L 210.309335 93.509155 
L 211.855899 93.469244 
L 213.352573 93.389422 
L 214.899137 93.389422 
L 216.395811 93.429333 
L 217.942375 93.389422 
L 219.488939 93.389422 
L 220.935724 93.34951 
L 222.482288 93.34951 
L 223.978962 93.34951 
L 225.525526 93.309599 
L 227.0222 93.309599 
L 228.568764 93.309599 
L 230.115328 93.229776 
L 231.612002 93.34951 
L 233.158566 93.34951 
L 234.65524 93.269688 
L 236.201804 93.269688 
L 237.748368 93.189865 
L 239.145264 93.189865 
L 240.691827 93.189865 
L 242.188502 93.189865 
L 243.735066 93.149954 
L 245.23174 92.950397 
L 246.778304 92.870574 
L 248.324867 92.790752 
L 249.821542 92.75084 
L 251.368106 92.830663 
L 252.86478 92.75084 
L 254.411344 92.75084 
L 255.957907 92.75084 
L 257.354804 92.75084 
L 258.901367 92.75084 
L 260.398042 92.75084 
L 261.944605 92.671018 
L 263.44128 92.671018 
L 264.987844 92.671018 
L 266.534407 91.713146 
L 268.031082 91.553501 
L 269.577645 91.513589 
L 271.07432 91.513589 
L 272.620884 91.473678 
L 274.167447 91.473678 
L 275.564343 91.473678 
L 277.110907 91.393855 
L 278.607582 91.393855 
L 280.154145 91.393855 
L 281.65082 91.393855 
L 283.197383 91.393855 
L 284.743947 91.393855 
L 286.240622 91.393855 
L 287.787185 91.393855 
L 289.28386 91.353944 
L 290.830423 91.314033 
L 292.376987 91.314033 
L 293.823772 91.274122 
L 295.370336 91.274122 
L 296.867011 91.274122 
L 298.413574 91.274122 
L 299.910249 91.274122 
L 301.456812 91.23421 
L 303.003376 91.194299 
L 304.500051 91.154388 
L 306.046614 91.154388 
L 307.543289 91.114476 
L 309.089852 91.114476 
L 310.636416 91.114476 
L 312.033312 91.114476 
L 313.579876 91.074565 
L 315.07655 91.034654 
L 316.623114 90.875008 
L 318.119789 89.917137 
L 319.666352 89.71758 
L 321.212916 89.677669 
L 322.70959 89.797403 
L 324.256154 89.797403 
L 325.752829 89.797403 
L 327.299392 89.637757 
L 328.845956 89.637757 
L 330.242852 89.637757 
L 331.789416 89.557935 
L 333.28609 89.518023 
L 334.832654 89.478112 
L 336.329328 89.478112 
L 337.875892 89.478112 
L 339.422456 89.438201 
L 340.91913 89.438201 
L 342.465694 89.438201 
L 343.962368 89.358378 
L 345.508932 89.358378 
L 347.055496 89.398289 
L 348.452392 89.398289 
L 349.998956 89.398289 
L 351.49563 89.398289 
L 353.042194 89.478112 
L 354.538868 89.478112 
L 356.085432 89.478112 
L 357.631996 89.478112 
L 359.12867 89.478112 
L 360.675234 89.478112 
L 362.171908 89.478112 
L 363.718472 89.478112 
L 365.265035 89.478112 
L 366.711821 89.438201 
L 368.258385 89.438201 
L 369.755059 89.478112 
L 371.301623 89.557935 
L 372.798297 89.557935 
L 374.344861 89.518023 
L 375.891424 89.518023 
L 377.388099 89.557935 
L 378.934663 89.557935 
L 380.431337 89.557935 
L 381.977901 89.597846 
L 383.524464 89.597846 
L 384.921361 89.557935 
L 386.467924 89.518023 
L 387.964599 89.478112 
L 389.511162 89.478112 
L 391.007837 89.478112 
L 392.554401 89.438201 
L 394.100964 89.438201 
L 395.597639 89.438201 
L 397.144202 89.358378 
L 398.640877 89.398289 
L 400.187441 89.358378 
L 401.734004 89.358378 
L 403.1309 89.358378 
L 404.677464 89.358378 
L 406.174139 89.358378 
L 407.720702 89.278556 
L 409.217377 89.198733 
L 410.76394 89.198733 
L 412.310504 89.198733 
L 413.807179 89.198733 
L 415.353742 89.158822 
L 416.850417 89.158822 
L 418.39698 89.078999 
L 419.943544 89.078999 
L 421.34044 89.039088 
L 422.887004 89.039088 
L 424.383678 89.039088 
L 425.930242 89.039088 
L 427.426917 89.039088 
L 428.97348 88.959265 
L 430.520044 88.959265 
L 432.016718 88.959265 
L 433.563282 88.959265 
L 435.059957 88.919354 
L 436.60652 88.919354 
L 438.153084 88.919354 
L 439.599869 88.879442 
L 441.146433 88.879442 
L 442.643107 88.879442 
L 444.189671 88.839531 
L 445.686346 88.839531 
L 447.232909 88.600063 
L 447.232909 78.502499 
L 447.232909 78.502499 
L 445.686346 78.54241 
L 444.189671 78.54241 
L 442.643107 78.54241 
L 441.146433 78.54241 
L 439.599869 78.54241 
L 438.153084 78.54241 
L 436.60652 78.54241 
L 435.059957 78.54241 
L 433.563282 78.54241 
L 432.016718 78.54241 
L 430.520044 78.54241 
L 428.97348 78.54241 
L 427.426917 78.54241 
L 425.930242 78.54241 
L 424.383678 78.54241 
L 422.887004 78.54241 
L 421.34044 78.54241 
L 419.943544 78.741967 
L 418.39698 78.781878 
L 416.850417 78.82179 
L 415.353742 78.82179 
L 413.807179 78.82179 
L 412.310504 78.82179 
L 410.76394 78.82179 
L 409.217377 78.82179 
L 407.720702 78.82179 
L 406.174139 78.82179 
L 404.677464 78.82179 
L 403.1309 78.861701 
L 401.734004 78.82179 
L 400.187441 78.82179 
L 398.640877 78.861701 
L 397.144202 78.582322 
L 395.597639 78.582322 
L 394.100964 78.22312 
L 392.554401 78.22312 
L 391.007837 78.22312 
L 389.511162 78.22312 
L 387.964599 78.22312 
L 386.467924 78.22312 
L 384.921361 78.263031 
L 383.524464 78.263031 
L 381.977901 78.263031 
L 380.431337 78.22312 
L 378.934663 78.22312 
L 377.388099 78.22312 
L 375.891424 78.263031 
L 374.344861 78.263031 
L 372.798297 78.263031 
L 371.301623 78.263031 
L 369.755059 78.183209 
L 368.258385 78.143297 
L 366.711821 78.143297 
L 365.265035 78.143297 
L 363.718472 78.143297 
L 362.171908 78.143297 
L 360.675234 78.143297 
L 359.12867 78.143297 
L 357.631996 78.143297 
L 356.085432 78.143297 
L 354.538868 78.143297 
L 353.042194 78.143297 
L 351.49563 78.063475 
L 349.998956 78.063475 
L 348.452392 78.063475 
L 347.055496 78.063475 
L 345.508932 78.063475 
L 343.962368 78.063475 
L 342.465694 78.063475 
L 340.91913 78.063475 
L 339.422456 78.063475 
L 337.875892 78.023563 
L 336.329328 78.023563 
L 334.832654 78.023563 
L 333.28609 78.023563 
L 331.789416 78.023563 
L 330.242852 78.023563 
L 328.845956 78.023563 
L 327.299392 78.023563 
L 325.752829 78.023563 
L 324.256154 78.023563 
L 322.70959 78.023563 
L 321.212916 78.023563 
L 319.666352 78.023563 
L 318.119789 78.023563 
L 316.623114 78.023563 
L 315.07655 78.023563 
L 313.579876 78.023563 
L 312.033312 78.023563 
L 310.636416 78.023563 
L 309.089852 78.023563 
L 307.543289 78.023563 
L 306.046614 78.023563 
L 304.500051 78.023563 
L 303.003376 78.023563 
L 301.456812 78.023563 
L 299.910249 78.023563 
L 298.413574 78.023563 
L 296.867011 78.023563 
L 295.370336 78.023563 
L 293.823772 78.382765 
L 292.376987 78.422676 
L 290.830423 78.422676 
L 289.28386 78.422676 
L 287.787185 78.582322 
L 286.240622 78.582322 
L 284.743947 78.582322 
L 283.197383 78.582322 
L 281.65082 78.582322 
L 280.154145 78.582322 
L 278.607582 78.582322 
L 277.110907 78.582322 
L 275.564343 78.582322 
L 274.167447 78.582322 
L 272.620884 78.582322 
L 271.07432 78.622233 
L 269.577645 78.622233 
L 268.031082 78.622233 
L 266.534407 78.622233 
L 264.987844 78.342854 
L 263.44128 78.502499 
L 261.944605 78.462588 
L 260.398042 78.462588 
L 258.901367 78.462588 
L 257.354804 78.462588 
L 255.957907 78.462588 
L 254.411344 78.462588 
L 252.86478 78.462588 
L 251.368106 78.502499 
L 249.821542 78.502499 
L 248.324867 78.502499 
L 246.778304 78.462588 
L 245.23174 78.462588 
L 243.735066 78.462588 
L 242.188502 78.462588 
L 240.691827 78.462588 
L 239.145264 78.462588 
L 237.748368 78.462588 
L 236.201804 78.462588 
L 234.65524 78.462588 
L 233.158566 78.462588 
L 231.612002 78.502499 
L 230.115328 78.462588 
L 228.568764 78.502499 
L 227.0222 78.462588 
L 225.525526 78.462588 
L 223.978962 78.462588 
L 222.482288 78.462588 
L 220.935724 78.462588 
L 219.488939 78.462588 
L 217.942375 78.502499 
L 216.395811 78.502499 
L 214.899137 78.462588 
L 213.352573 78.462588 
L 211.855899 78.462588 
L 210.309335 78.54241 
L 207.365875 78.82179 
L 206.118646 79.500282 
L 205.070974 79.580105 
L 203.823745 78.941524 
L 202.825962 80.498065 
L 201.429066 80.498065 
L 198.585385 81.934873 
L 195.841481 81.934873 
L 194.993366 81.894961 
L 193.646359 82.054607 
L 192.249463 82.014695 
L 190.553232 82.014695 
L 189.505559 82.014695 
L 188.457887 82.014695 
L 183.868085 82.333986 
L 182.920192 82.333986 
L 178.031055 82.533542 
L 175.586486 82.493631 
L 174.78826 82.493631 
L 173.790477 82.573454 
L 173.141918 82.573454 
L 172.593137 82.573454 
L 169.300454 83.132212 
L 165.758324 83.251946 
L 163.962314 83.251946 
L 162.216194 83.251946 
L 159.073178 83.251946 
L 158.274951 83.212035 
L 156.977833 83.212035 
L 154.882489 83.092301 
L 151.639694 83.05239 
L 150.442355 84.090084 
L 147.648562 84.209818 
L 146.151888 84.329552 
L 144.405768 84.209818 
L 142.410202 84.209818 
L 140.963416 84.169907 
L 139.865855 84.169907 
L 139.117518 84.169907 
L 138.019956 84.129995 
L 136.972284 84.129995 
L 136.273836 84.169907 
L 136.07428 84.169907 
L 135.325942 84.169907 
L 134.328159 84.608931 
L 132.931263 84.169907 
L 132.432372 84.169907 
L 131.883591 84.209818 
L 131.085365 84.129995 
L 130.337027 84.129995 
L 129.638579 84.529108 
L 128.640796 84.449286 
L 128.291572 84.010261 
L 127.343678 84.56902 
L 126.146339 84.409374 
L 125.248334 84.449286 
L 124.749442 84.449286 
L 123.901327 84.449286 
L 123.352546 84.489197 
L 122.504431 85.008044 
L 121.805983 84.449286 
L 120.957867 84.449286 
L 117.665183 85.447069 
L 117.415737 85.48698 
L 115.420171 85.447069 
L 111.079815 84.529108 
L 108.735025 85.447069 
L 99.6552 86.245295 
L 85.037679 86.68432 
L 65.181797 87.402723 
L 48.069819 87.841748 
L 39.738331 88.879442 
L 31.307064 88.719797 
z
" clip-path="url(#p10d5c77260)" style="fill: #d5dce5"/>
   </g>
   <g id="matplotlib.axis_1">
    <g id="xtick_1">
     <g id="line2d_1">
      <defs>
       <path id="mf6b9947b4c" d="M 0 0 
L 0 3.5 
" style="stroke: #000000; stroke-width: 0.8"/>
      </defs>
      <g>
       <use xlink:href="#mf6b9947b4c" x="72.166278" y="280.373956" style="stroke: #000000; stroke-width: 0.8"/>
      </g>
     </g>
     <g id="text_1">
      <!-- 2004 -->
      <g transform="translate(59.441278 294.972394) scale(0.1 -0.1)">
       <defs>
        <path id="DejaVuSans-32" d="M 1228 531 
L 3431 531 
L 3431 0 
L 469 0 
L 469 531 
Q 828 903 1448 1529 
Q 2069 2156 2228 2338 
Q 2531 2678 2651 2914 
Q 2772 3150 2772 3378 
Q 2772 3750 2511 3984 
Q 2250 4219 1831 4219 
Q 1534 4219 1204 4116 
Q 875 4013 500 3803 
L 500 4441 
Q 881 4594 1212 4672 
Q 1544 4750 1819 4750 
Q 2544 4750 2975 4387 
Q 3406 4025 3406 3419 
Q 3406 3131 3298 2873 
Q 3191 2616 2906 2266 
Q 2828 2175 2409 1742 
Q 1991 1309 1228 531 
z
" transform="scale(0.015625)"/>
        <path id="DejaVuSans-30" d="M 2034 4250 
Q 1547 4250 1301 3770 
Q 1056 3291 1056 2328 
Q 1056 1369 1301 889 
Q 1547 409 2034 409 
Q 2525 409 2770 889 
Q 3016 1369 3016 2328 
Q 3016 3291 2770 3770 
Q 2525 4250 2034 4250 
z
M 2034 4750 
Q 2819 4750 3233 4129 
Q 3647 3509 3647 2328 
Q 3647 1150 3233 529 
Q 2819 -91 2034 -91 
Q 1250 -91 836 529 
Q 422 1150 422 2328 
Q 422 3509 836 4129 
Q 1250 4750 2034 4750 
z
" transform="scale(0.015625)"/>
        <path id="DejaVuSans-34" d="M 2419 4116 
L 825 1625 
L 2419 1625 
L 2419 4116 
z
M 2253 4666 
L 3047 4666 
L 3047 1625 
L 3713 1625 
L 3713 1100 
L 3047 1100 
L 3047 0 
L 2419 0 
L 2419 1100 
L 313 1100 
L 313 1709 
L 2253 4666 
z
" transform="scale(0.015625)"/>
       </defs>
       <use xlink:href="#DejaVuSans-32"/>
       <use xlink:href="#DejaVuSans-30" x="63.623047"/>
       <use xlink:href="#DejaVuSans-30" x="127.246094"/>
       <use xlink:href="#DejaVuSans-34" x="190.869141"/>
      </g>
     </g>
    </g>
    <g id="xtick_2">
     <g id="line2d_2">
      <g>
       <use xlink:href="#mf6b9947b4c" x="145.054327" y="280.373956" style="stroke: #000000; stroke-width: 0.8"/>
      </g>
     </g>
     <g id="text_2">
      <!-- 2008 -->
      <g transform="translate(132.329327 294.972394) scale(0.1 -0.1)">
       <defs>
        <path id="DejaVuSans-38" d="M 2034 2216 
Q 1584 2216 1326 1975 
Q 1069 1734 1069 1313 
Q 1069 891 1326 650 
Q 1584 409 2034 409 
Q 2484 409 2743 651 
Q 3003 894 3003 1313 
Q 3003 1734 2745 1975 
Q 2488 2216 2034 2216 
z
M 1403 2484 
Q 997 2584 770 2862 
Q 544 3141 544 3541 
Q 544 4100 942 4425 
Q 1341 4750 2034 4750 
Q 2731 4750 3128 4425 
Q 3525 4100 3525 3541 
Q 3525 3141 3298 2862 
Q 3072 2584 2669 2484 
Q 3125 2378 3379 2068 
Q 3634 1759 3634 1313 
Q 3634 634 3220 271 
Q 2806 -91 2034 -91 
Q 1263 -91 848 271 
Q 434 634 434 1313 
Q 434 1759 690 2068 
Q 947 2378 1403 2484 
z
M 1172 3481 
Q 1172 3119 1398 2916 
Q 1625 2713 2034 2713 
Q 2441 2713 2670 2916 
Q 2900 3119 2900 3481 
Q 2900 3844 2670 4047 
Q 2441 4250 2034 4250 
Q 1625 4250 1398 4047 
Q 1172 3844 1172 3481 
z
" transform="scale(0.015625)"/>
       </defs>
       <use xlink:href="#DejaVuSans-32"/>
       <use xlink:href="#DejaVuSans-30" x="63.623047"/>
       <use xlink:href="#DejaVuSans-30" x="127.246094"/>
       <use xlink:href="#DejaVuSans-38" x="190.869141"/>
      </g>
     </g>
    </g>
    <g id="xtick_3">
     <g id="line2d_3">
      <g>
       <use xlink:href="#mf6b9947b4c" x="217.942375" y="280.373956" style="stroke: #000000; stroke-width: 0.8"/>
      </g>
     </g>
     <g id="text_3">
      <!-- 2012 -->
      <g transform="translate(205.217375 294.972394) scale(0.1 -0.1)">
       <defs>
        <path id="DejaVuSans-31" d="M 794 531 
L 1825 531 
L 1825 4091 
L 703 3866 
L 703 4441 
L 1819 4666 
L 2450 4666 
L 2450 531 
L 3481 531 
L 3481 0 
L 794 0 
L 794 531 
z
" transform="scale(0.015625)"/>
       </defs>
       <use xlink:href="#DejaVuSans-32"/>
       <use xlink:href="#DejaVuSans-30" x="63.623047"/>
       <use xlink:href="#DejaVuSans-31" x="127.246094"/>
       <use xlink:href="#DejaVuSans-32" x="190.869141"/>
      </g>
     </g>
    </g>
    <g id="xtick_4">
     <g id="line2d_4">
      <g>
       <use xlink:href="#mf6b9947b4c" x="290.830423" y="280.373956" style="stroke: #000000; stroke-width: 0.8"/>
      </g>
     </g>
     <g id="text_4">
      <!-- 2016 -->
      <g transform="translate(278.105423 294.972394) scale(0.1 -0.1)">
       <defs>
        <path id="DejaVuSans-36" d="M 2113 2584 
Q 1688 2584 1439 2293 
Q 1191 2003 1191 1497 
Q 1191 994 1439 701 
Q 1688 409 2113 409 
Q 2538 409 2786 701 
Q 3034 994 3034 1497 
Q 3034 2003 2786 2293 
Q 2538 2584 2113 2584 
z
M 3366 4563 
L 3366 3988 
Q 3128 4100 2886 4159 
Q 2644 4219 2406 4219 
Q 1781 4219 1451 3797 
Q 1122 3375 1075 2522 
Q 1259 2794 1537 2939 
Q 1816 3084 2150 3084 
Q 2853 3084 3261 2657 
Q 3669 2231 3669 1497 
Q 3669 778 3244 343 
Q 2819 -91 2113 -91 
Q 1303 -91 875 529 
Q 447 1150 447 2328 
Q 447 3434 972 4092 
Q 1497 4750 2381 4750 
Q 2619 4750 2861 4703 
Q 3103 4656 3366 4563 
z
" transform="scale(0.015625)"/>
       </defs>
       <use xlink:href="#DejaVuSans-32"/>
       <use xlink:href="#DejaVuSans-30" x="63.623047"/>
       <use xlink:href="#DejaVuSans-31" x="127.246094"/>
       <use xlink:href="#DejaVuSans-36" x="190.869141"/>
      </g>
     </g>
    </g>
    <g id="xtick_5">
     <g id="line2d_5">
      <g>
       <use xlink:href="#mf6b9947b4c" x="363.718472" y="280.373956" style="stroke: #000000; stroke-width: 0.8"/>
      </g>
     </g>
     <g id="text_5">
      <!-- 2020 -->
      <g transform="translate(350.993472 294.972394) scale(0.1 -0.1)">
       <use xlink:href="#DejaVuSans-32"/>
       <use xlink:href="#DejaVuSans-30" x="63.623047"/>
       <use xlink:href="#DejaVuSans-32" x="127.246094"/>
       <use xlink:href="#DejaVuSans-30" x="190.869141"/>
      </g>
     </g>
    </g>
    <g id="xtick_6">
     <g id="line2d_6">
      <g>
       <use xlink:href="#mf6b9947b4c" x="436.60652" y="280.373956" style="stroke: #000000; stroke-width: 0.8"/>
      </g>
     </g>
     <g id="text_6">
      <!-- 2024 -->
      <g transform="translate(423.88152 294.972394) scale(0.1 -0.1)">
       <use xlink:href="#DejaVuSans-32"/>
       <use xlink:href="#DejaVuSans-30" x="63.623047"/>
       <use xlink:href="#DejaVuSans-32" x="127.246094"/>
       <use xlink:href="#DejaVuSans-34" x="190.869141"/>
      </g>
     </g>
    </g>
    <g id="text_7">
     <!-- Year -->
     <g transform="translate(238.505149 312.449738) scale(0.15 -0.15)">
      <defs>
       <path id="DejaVuSans-59" d="M -13 4666 
L 666 4666 
L 1959 2747 
L 3244 4666 
L 3922 4666 
L 2272 2222 
L 2272 0 
L 1638 0 
L 1638 2222 
L -13 4666 
z
" transform="scale(0.015625)"/>
       <path id="DejaVuSans-65" d="M 3597 1894 
L 3597 1613 
L 953 1613 
Q 991 1019 1311 708 
Q 1631 397 2203 397 
Q 2534 397 2845 478 
Q 3156 559 3463 722 
L 3463 178 
Q 3153 47 2828 -22 
Q 2503 -91 2169 -91 
Q 1331 -91 842 396 
Q 353 884 353 1716 
Q 353 2575 817 3079 
Q 1281 3584 2069 3584 
Q 2775 3584 3186 3129 
Q 3597 2675 3597 1894 
z
M 3022 2063 
Q 3016 2534 2758 2815 
Q 2500 3097 2075 3097 
Q 1594 3097 1305 2825 
Q 1016 2553 972 2059 
L 3022 2063 
z
" transform="scale(0.015625)"/>
       <path id="DejaVuSans-61" d="M 2194 1759 
Q 1497 1759 1228 1600 
Q 959 1441 959 1056 
Q 959 750 1161 570 
Q 1363 391 1709 391 
Q 2188 391 2477 730 
Q 2766 1069 2766 1631 
L 2766 1759 
L 2194 1759 
z
M 3341 1997 
L 3341 0 
L 2766 0 
L 2766 531 
Q 2569 213 2275 61 
Q 1981 -91 1556 -91 
Q 1019 -91 701 211 
Q 384 513 384 1019 
Q 384 1609 779 1909 
Q 1175 2209 1959 2209 
L 2766 2209 
L 2766 2266 
Q 2766 2663 2505 2880 
Q 2244 3097 1772 3097 
Q 1472 3097 1187 3025 
Q 903 2953 641 2809 
L 641 3341 
Q 956 3463 1253 3523 
Q 1550 3584 1831 3584 
Q 2591 3584 2966 3190 
Q 3341 2797 3341 1997 
z
" transform="scale(0.015625)"/>
       <path id="DejaVuSans-72" d="M 2631 2963 
Q 2534 3019 2420 3045 
Q 2306 3072 2169 3072 
Q 1681 3072 1420 2755 
Q 1159 2438 1159 1844 
L 1159 0 
L 581 0 
L 581 3500 
L 1159 3500 
L 1159 2956 
Q 1341 3275 1631 3429 
Q 1922 3584 2338 3584 
Q 2397 3584 2469 3576 
Q 2541 3569 2628 3553 
L 2631 2963 
z
" transform="scale(0.015625)"/>
      </defs>
      <use xlink:href="#DejaVuSans-59"/>
      <use xlink:href="#DejaVuSans-65" x="47.833984"/>
      <use xlink:href="#DejaVuSans-61" x="109.357422"/>
      <use xlink:href="#DejaVuSans-72" x="170.636719"/>
     </g>
    </g>
   </g>
   <g id="matplotlib.axis_2">
    <g id="ytick_1">
     <g id="line2d_7">
      <defs>
       <path id="m0d7310b1a5" d="M 0 0 
L -3.5 0 
" style="stroke: #000000; stroke-width: 0.8"/>
      </defs>
      <g>
       <use xlink:href="#m0d7310b1a5" x="61.49" y="280.373956" style="stroke: #000000; stroke-width: 0.8"/>
      </g>
     </g>
     <g id="text_8">
      <!-- 0 -->
      <g transform="translate(48.1275 284.173175) scale(0.1 -0.1)">
       <use xlink:href="#DejaVuSans-30"/>
      </g>
     </g>
    </g>
    <g id="ytick_2">
     <g id="line2d_8">
      <g>
       <use xlink:href="#m0d7310b1a5" x="61.49" y="240.462636" style="stroke: #000000; stroke-width: 0.8"/>
      </g>
     </g>
     <g id="text_9">
      <!-- 1000 -->
      <g transform="translate(29.04 244.261855) scale(0.1 -0.1)">
       <use xlink:href="#DejaVuSans-31"/>
       <use xlink:href="#DejaVuSans-30" x="63.623047"/>
       <use xlink:href="#DejaVuSans-30" x="127.246094"/>
       <use xlink:href="#DejaVuSans-30" x="190.869141"/>
      </g>
     </g>
    </g>
    <g id="ytick_3">
     <g id="line2d_9">
      <g>
       <use xlink:href="#m0d7310b1a5" x="61.49" y="200.551316" style="stroke: #000000; stroke-width: 0.8"/>
      </g>
     </g>
     <g id="text_10">
      <!-- 2000 -->
      <g transform="translate(29.04 204.350535) scale(0.1 -0.1)">
       <use xlink:href="#DejaVuSans-32"/>
       <use xlink:href="#DejaVuSans-30" x="63.623047"/>
       <use xlink:href="#DejaVuSans-30" x="127.246094"/>
       <use xlink:href="#DejaVuSans-30" x="190.869141"/>
      </g>
     </g>
    </g>
    <g id="ytick_4">
     <g id="line2d_10">
      <g>
       <use xlink:href="#m0d7310b1a5" x="61.49" y="160.639996" style="stroke: #000000; stroke-width: 0.8"/>
      </g>
     </g>
     <g id="text_11">
      <!-- 3000 -->
      <g transform="translate(29.04 164.439215) scale(0.1 -0.1)">
       <defs>
        <path id="DejaVuSans-33" d="M 2597 2516 
Q 3050 2419 3304 2112 
Q 3559 1806 3559 1356 
Q 3559 666 3084 287 
Q 2609 -91 1734 -91 
Q 1441 -91 1130 -33 
Q 819 25 488 141 
L 488 750 
Q 750 597 1062 519 
Q 1375 441 1716 441 
Q 2309 441 2620 675 
Q 2931 909 2931 1356 
Q 2931 1769 2642 2001 
Q 2353 2234 1838 2234 
L 1294 2234 
L 1294 2753 
L 1863 2753 
Q 2328 2753 2575 2939 
Q 2822 3125 2822 3475 
Q 2822 3834 2567 4026 
Q 2313 4219 1838 4219 
Q 1578 4219 1281 4162 
Q 984 4106 628 3988 
L 628 4550 
Q 988 4650 1302 4700 
Q 1616 4750 1894 4750 
Q 2613 4750 3031 4423 
Q 3450 4097 3450 3541 
Q 3450 3153 3228 2886 
Q 3006 2619 2597 2516 
z
" transform="scale(0.015625)"/>
       </defs>
       <use xlink:href="#DejaVuSans-33"/>
       <use xlink:href="#DejaVuSans-30" x="63.623047"/>
       <use xlink:href="#DejaVuSans-30" x="127.246094"/>
       <use xlink:href="#DejaVuSans-30" x="190.869141"/>
      </g>
     </g>
    </g>
    <g id="ytick_5">
     <g id="line2d_11">
      <g>
       <use xlink:href="#m0d7310b1a5" x="61.49" y="120.728676" style="stroke: #000000; stroke-width: 0.8"/>
      </g>
     </g>
     <g id="text_12">
      <!-- 4000 -->
      <g transform="translate(29.04 124.527895) scale(0.1 -0.1)">
       <use xlink:href="#DejaVuSans-34"/>
       <use xlink:href="#DejaVuSans-30" x="63.623047"/>
       <use xlink:href="#DejaVuSans-30" x="127.246094"/>
       <use xlink:href="#DejaVuSans-30" x="190.869141"/>
      </g>
     </g>
    </g>
    <g id="ytick_6">
     <g id="line2d_12">
      <g>
       <use xlink:href="#m0d7310b1a5" x="61.49" y="80.817356" style="stroke: #000000; stroke-width: 0.8"/>
      </g>
     </g>
     <g id="text_13">
      <!-- 5000 -->
      <g transform="translate(29.04 84.616574) scale(0.1 -0.1)">
       <defs>
        <path id="DejaVuSans-35" d="M 691 4666 
L 3169 4666 
L 3169 4134 
L 1269 4134 
L 1269 2991 
Q 1406 3038 1543 3061 
Q 1681 3084 1819 3084 
Q 2600 3084 3056 2656 
Q 3513 2228 3513 1497 
Q 3513 744 3044 326 
Q 2575 -91 1722 -91 
Q 1428 -91 1123 -41 
Q 819 9 494 109 
L 494 744 
Q 775 591 1075 516 
Q 1375 441 1709 441 
Q 2250 441 2565 725 
Q 2881 1009 2881 1497 
Q 2881 1984 2565 2268 
Q 2250 2553 1709 2553 
Q 1456 2553 1204 2497 
Q 953 2441 691 2322 
L 691 4666 
z
" transform="scale(0.015625)"/>
       </defs>
       <use xlink:href="#DejaVuSans-35"/>
       <use xlink:href="#DejaVuSans-30" x="63.623047"/>
       <use xlink:href="#DejaVuSans-30" x="127.246094"/>
       <use xlink:href="#DejaVuSans-30" x="190.869141"/>
      </g>
     </g>
    </g>
    <g id="text_14">
     <!-- Number of proteins -->
     <g transform="translate(21.920469 246.829062) rotate(-90) scale(0.15 -0.15)">
      <defs>
       <path id="DejaVuSans-4e" d="M 628 4666 
L 1478 4666 
L 3547 763 
L 3547 4666 
L 4159 4666 
L 4159 0 
L 3309 0 
L 1241 3903 
L 1241 0 
L 628 0 
L 628 4666 
z
" transform="scale(0.015625)"/>
       <path id="DejaVuSans-75" d="M 544 1381 
L 544 3500 
L 1119 3500 
L 1119 1403 
Q 1119 906 1312 657 
Q 1506 409 1894 409 
Q 2359 409 2629 706 
Q 2900 1003 2900 1516 
L 2900 3500 
L 3475 3500 
L 3475 0 
L 2900 0 
L 2900 538 
Q 2691 219 2414 64 
Q 2138 -91 1772 -91 
Q 1169 -91 856 284 
Q 544 659 544 1381 
z
M 1991 3584 
L 1991 3584 
z
" transform="scale(0.015625)"/>
       <path id="DejaVuSans-6d" d="M 3328 2828 
Q 3544 3216 3844 3400 
Q 4144 3584 4550 3584 
Q 5097 3584 5394 3201 
Q 5691 2819 5691 2113 
L 5691 0 
L 5113 0 
L 5113 2094 
Q 5113 2597 4934 2840 
Q 4756 3084 4391 3084 
Q 3944 3084 3684 2787 
Q 3425 2491 3425 1978 
L 3425 0 
L 2847 0 
L 2847 2094 
Q 2847 2600 2669 2842 
Q 2491 3084 2119 3084 
Q 1678 3084 1418 2786 
Q 1159 2488 1159 1978 
L 1159 0 
L 581 0 
L 581 3500 
L 1159 3500 
L 1159 2956 
Q 1356 3278 1631 3431 
Q 1906 3584 2284 3584 
Q 2666 3584 2933 3390 
Q 3200 3197 3328 2828 
z
" transform="scale(0.015625)"/>
       <path id="DejaVuSans-62" d="M 3116 1747 
Q 3116 2381 2855 2742 
Q 2594 3103 2138 3103 
Q 1681 3103 1420 2742 
Q 1159 2381 1159 1747 
Q 1159 1113 1420 752 
Q 1681 391 2138 391 
Q 2594 391 2855 752 
Q 3116 1113 3116 1747 
z
M 1159 2969 
Q 1341 3281 1617 3432 
Q 1894 3584 2278 3584 
Q 2916 3584 3314 3078 
Q 3713 2572 3713 1747 
Q 3713 922 3314 415 
Q 2916 -91 2278 -91 
Q 1894 -91 1617 61 
Q 1341 213 1159 525 
L 1159 0 
L 581 0 
L 581 4863 
L 1159 4863 
L 1159 2969 
z
" transform="scale(0.015625)"/>
       <path id="DejaVuSans-20" transform="scale(0.015625)"/>
       <path id="DejaVuSans-6f" d="M 1959 3097 
Q 1497 3097 1228 2736 
Q 959 2375 959 1747 
Q 959 1119 1226 758 
Q 1494 397 1959 397 
Q 2419 397 2687 759 
Q 2956 1122 2956 1747 
Q 2956 2369 2687 2733 
Q 2419 3097 1959 3097 
z
M 1959 3584 
Q 2709 3584 3137 3096 
Q 3566 2609 3566 1747 
Q 3566 888 3137 398 
Q 2709 -91 1959 -91 
Q 1206 -91 779 398 
Q 353 888 353 1747 
Q 353 2609 779 3096 
Q 1206 3584 1959 3584 
z
" transform="scale(0.015625)"/>
       <path id="DejaVuSans-66" d="M 2375 4863 
L 2375 4384 
L 1825 4384 
Q 1516 4384 1395 4259 
Q 1275 4134 1275 3809 
L 1275 3500 
L 2222 3500 
L 2222 3053 
L 1275 3053 
L 1275 0 
L 697 0 
L 697 3053 
L 147 3053 
L 147 3500 
L 697 3500 
L 697 3744 
Q 697 4328 969 4595 
Q 1241 4863 1831 4863 
L 2375 4863 
z
" transform="scale(0.015625)"/>
       <path id="DejaVuSans-70" d="M 1159 525 
L 1159 -1331 
L 581 -1331 
L 581 3500 
L 1159 3500 
L 1159 2969 
Q 1341 3281 1617 3432 
Q 1894 3584 2278 3584 
Q 2916 3584 3314 3078 
Q 3713 2572 3713 1747 
Q 3713 922 3314 415 
Q 2916 -91 2278 -91 
Q 1894 -91 1617 61 
Q 1341 213 1159 525 
z
M 3116 1747 
Q 3116 2381 2855 2742 
Q 2594 3103 2138 3103 
Q 1681 3103 1420 2742 
Q 1159 2381 1159 1747 
Q 1159 1113 1420 752 
Q 1681 391 2138 391 
Q 2594 391 2855 752 
Q 3116 1113 3116 1747 
z
" transform="scale(0.015625)"/>
       <path id="DejaVuSans-74" d="M 1172 4494 
L 1172 3500 
L 2356 3500 
L 2356 3053 
L 1172 3053 
L 1172 1153 
Q 1172 725 1289 603 
Q 1406 481 1766 481 
L 2356 481 
L 2356 0 
L 1766 0 
Q 1100 0 847 248 
Q 594 497 594 1153 
L 594 3053 
L 172 3053 
L 172 3500 
L 594 3500 
L 594 4494 
L 1172 4494 
z
" transform="scale(0.015625)"/>
       <path id="DejaVuSans-69" d="M 603 3500 
L 1178 3500 
L 1178 0 
L 603 0 
L 603 3500 
z
M 603 4863 
L 1178 4863 
L 1178 4134 
L 603 4134 
L 603 4863 
z
" transform="scale(0.015625)"/>
       <path id="DejaVuSans-6e" d="M 3513 2113 
L 3513 0 
L 2938 0 
L 2938 2094 
Q 2938 2591 2744 2837 
Q 2550 3084 2163 3084 
Q 1697 3084 1428 2787 
Q 1159 2491 1159 1978 
L 1159 0 
L 581 0 
L 581 3500 
L 1159 3500 
L 1159 2956 
Q 1366 3272 1645 3428 
Q 1925 3584 2291 3584 
Q 2894 3584 3203 3211 
Q 3513 2838 3513 2113 
z
" transform="scale(0.015625)"/>
       <path id="DejaVuSans-73" d="M 2834 3397 
L 2834 2853 
Q 2591 2978 2328 3040 
Q 2066 3103 1784 3103 
Q 1356 3103 1142 2972 
Q 928 2841 928 2578 
Q 928 2378 1081 2264 
Q 1234 2150 1697 2047 
L 1894 2003 
Q 2506 1872 2764 1633 
Q 3022 1394 3022 966 
Q 3022 478 2636 193 
Q 2250 -91 1575 -91 
Q 1294 -91 989 -36 
Q 684 19 347 128 
L 347 722 
Q 666 556 975 473 
Q 1284 391 1588 391 
Q 1994 391 2212 530 
Q 2431 669 2431 922 
Q 2431 1156 2273 1281 
Q 2116 1406 1581 1522 
L 1381 1569 
Q 847 1681 609 1914 
Q 372 2147 372 2553 
Q 372 3047 722 3315 
Q 1072 3584 1716 3584 
Q 2034 3584 2315 3537 
Q 2597 3491 2834 3397 
z
" transform="scale(0.015625)"/>
      </defs>
      <use xlink:href="#DejaVuSans-4e"/>
      <use xlink:href="#DejaVuSans-75" x="74.804688"/>
      <use xlink:href="#DejaVuSans-6d" x="138.183594"/>
      <use xlink:href="#DejaVuSans-62" x="235.595703"/>
      <use xlink:href="#DejaVuSans-65" x="299.072266"/>
      <use xlink:href="#DejaVuSans-72" x="360.595703"/>
      <use xlink:href="#DejaVuSans-20" x="401.708984"/>
      <use xlink:href="#DejaVuSans-6f" x="433.496094"/>
      <use xlink:href="#DejaVuSans-66" x="494.677734"/>
      <use xlink:href="#DejaVuSans-20" x="529.882812"/>
      <use xlink:href="#DejaVuSans-70" x="561.669922"/>
      <use xlink:href="#DejaVuSans-72" x="625.146484"/>
      <use xlink:href="#DejaVuSans-6f" x="664.009766"/>
      <use xlink:href="#DejaVuSans-74" x="725.191406"/>
      <use xlink:href="#DejaVuSans-65" x="764.400391"/>
      <use xlink:href="#DejaVuSans-69" x="825.923828"/>
      <use xlink:href="#DejaVuSans-6e" x="853.707031"/>
      <use xlink:href="#DejaVuSans-73" x="917.085938"/>
     </g>
    </g>
   </g>
   <g id="patch_3">
    <path d="M 61.49 280.373956 
L 61.49 67.906044 
" style="fill: none; stroke: #000000; stroke-width: 0.8; stroke-linejoin: miter; stroke-linecap: square"/>
   </g>
   <g id="patch_4">
    <path d="M 61.49 280.373956 
L 447.282798 280.373956 
" style="fill: none; stroke: #000000; stroke-width: 0.8; stroke-linejoin: miter; stroke-linecap: square"/>
   </g>
   <g id="legend_1">
    <g id="patch_5">
     <path d="M 127.396555 62.906044 
L 381.376243 62.906044 
Q 383.376243 62.906044 383.376243 60.906044 
L 383.376243 32.549794 
Q 383.376243 30.549794 381.376243 30.549794 
L 127.396555 30.549794 
Q 125.396555 30.549794 125.396555 32.549794 
L 125.396555 60.906044 
Q 125.396555 62.906044 127.396555 62.906044 
z
" style="fill: #ffffff; opacity: 0.8; stroke: #cccccc; stroke-linejoin: miter"/>
    </g>
    <g id="patch_6">
     <path d="M 129.396555 42.148231 
L 149.396555 42.148231 
L 149.396555 35.148231 
L 129.396555 35.148231 
z
" style="fill: #fb363b"/>
    </g>
    <g id="text_15">
     <!-- Published -->
     <g transform="translate(157.396555 42.148231) scale(0.1 -0.1)">
      <defs>
       <path id="DejaVuSans-50" d="M 1259 4147 
L 1259 2394 
L 2053 2394 
Q 2494 2394 2734 2622 
Q 2975 2850 2975 3272 
Q 2975 3691 2734 3919 
Q 2494 4147 2053 4147 
L 1259 4147 
z
M 628 4666 
L 2053 4666 
Q 2838 4666 3239 4311 
Q 3641 3956 3641 3272 
Q 3641 2581 3239 2228 
Q 2838 1875 2053 1875 
L 1259 1875 
L 1259 0 
L 628 0 
L 628 4666 
z
" transform="scale(0.015625)"/>
       <path id="DejaVuSans-6c" d="M 603 4863 
L 1178 4863 
L 1178 0 
L 603 0 
L 603 4863 
z
" transform="scale(0.015625)"/>
       <path id="DejaVuSans-68" d="M 3513 2113 
L 3513 0 
L 2938 0 
L 2938 2094 
Q 2938 2591 2744 2837 
Q 2550 3084 2163 3084 
Q 1697 3084 1428 2787 
Q 1159 2491 1159 1978 
L 1159 0 
L 581 0 
L 581 4863 
L 1159 4863 
L 1159 2956 
Q 1366 3272 1645 3428 
Q 1925 3584 2291 3584 
Q 2894 3584 3203 3211 
Q 3513 2838 3513 2113 
z
" transform="scale(0.015625)"/>
       <path id="DejaVuSans-64" d="M 2906 2969 
L 2906 4863 
L 3481 4863 
L 3481 0 
L 2906 0 
L 2906 525 
Q 2725 213 2448 61 
Q 2172 -91 1784 -91 
Q 1150 -91 751 415 
Q 353 922 353 1747 
Q 353 2572 751 3078 
Q 1150 3584 1784 3584 
Q 2172 3584 2448 3432 
Q 2725 3281 2906 2969 
z
M 947 1747 
Q 947 1113 1208 752 
Q 1469 391 1925 391 
Q 2381 391 2643 752 
Q 2906 1113 2906 1747 
Q 2906 2381 2643 2742 
Q 2381 3103 1925 3103 
Q 1469 3103 1208 2742 
Q 947 2381 947 1747 
z
" transform="scale(0.015625)"/>
      </defs>
      <use xlink:href="#DejaVuSans-50"/>
      <use xlink:href="#DejaVuSans-75" x="58.552734"/>
      <use xlink:href="#DejaVuSans-62" x="121.931641"/>
      <use xlink:href="#DejaVuSans-6c" x="185.408203"/>
      <use xlink:href="#DejaVuSans-69" x="213.191406"/>
      <use xlink:href="#DejaVuSans-73" x="240.974609"/>
      <use xlink:href="#DejaVuSans-68" x="293.074219"/>
      <use xlink:href="#DejaVuSans-65" x="356.453125"/>
      <use xlink:href="#DejaVuSans-64" x="417.976562"/>
     </g>
    </g>
    <g id="patch_7">
     <path d="M 129.396555 56.826356 
L 149.396555 56.826356 
L 149.396555 49.826356 
L 129.396555 49.826356 
z
" style="fill: #fdc92c"/>
    </g>
    <g id="text_16">
     <!-- Inferred role -->
     <g transform="translate(157.396555 56.826356) scale(0.1 -0.1)">
      <defs>
       <path id="DejaVuSans-49" d="M 628 4666 
L 1259 4666 
L 1259 0 
L 628 0 
L 628 4666 
z
" transform="scale(0.015625)"/>
      </defs>
      <use xlink:href="#DejaVuSans-49"/>
      <use xlink:href="#DejaVuSans-6e" x="29.492188"/>
      <use xlink:href="#DejaVuSans-66" x="92.871094"/>
      <use xlink:href="#DejaVuSans-65" x="128.076172"/>
      <use xlink:href="#DejaVuSans-72" x="189.599609"/>
      <use xlink:href="#DejaVuSans-72" x="228.962891"/>
      <use xlink:href="#DejaVuSans-65" x="267.826172"/>
      <use xlink:href="#DejaVuSans-64" x="329.349609"/>
      <use xlink:href="#DejaVuSans-20" x="392.826172"/>
      <use xlink:href="#DejaVuSans-72" x="424.613281"/>
      <use xlink:href="#DejaVuSans-6f" x="463.476562"/>
      <use xlink:href="#DejaVuSans-6c" x="524.658203"/>
      <use xlink:href="#DejaVuSans-65" x="552.441406"/>
     </g>
    </g>
    <g id="patch_8">
     <path d="M 238.794993 42.148231 
L 258.794993 42.148231 
L 258.794993 35.148231 
L 238.794993 35.148231 
z
" style="fill: #aeaeae"/>
    </g>
    <g id="text_17">
     <!-- Conserved unknown -->
     <g transform="translate(266.794993 42.148231) scale(0.1 -0.1)">
      <defs>
       <path id="DejaVuSans-43" d="M 4122 4306 
L 4122 3641 
Q 3803 3938 3442 4084 
Q 3081 4231 2675 4231 
Q 1875 4231 1450 3742 
Q 1025 3253 1025 2328 
Q 1025 1406 1450 917 
Q 1875 428 2675 428 
Q 3081 428 3442 575 
Q 3803 722 4122 1019 
L 4122 359 
Q 3791 134 3420 21 
Q 3050 -91 2638 -91 
Q 1578 -91 968 557 
Q 359 1206 359 2328 
Q 359 3453 968 4101 
Q 1578 4750 2638 4750 
Q 3056 4750 3426 4639 
Q 3797 4528 4122 4306 
z
" transform="scale(0.015625)"/>
       <path id="DejaVuSans-76" d="M 191 3500 
L 800 3500 
L 1894 563 
L 2988 3500 
L 3597 3500 
L 2284 0 
L 1503 0 
L 191 3500 
z
" transform="scale(0.015625)"/>
       <path id="DejaVuSans-6b" d="M 581 4863 
L 1159 4863 
L 1159 1991 
L 2875 3500 
L 3609 3500 
L 1753 1863 
L 3688 0 
L 2938 0 
L 1159 1709 
L 1159 0 
L 581 0 
L 581 4863 
z
" transform="scale(0.015625)"/>
       <path id="DejaVuSans-77" d="M 269 3500 
L 844 3500 
L 1563 769 
L 2278 3500 
L 2956 3500 
L 3675 769 
L 4391 3500 
L 4966 3500 
L 4050 0 
L 3372 0 
L 2619 2869 
L 1863 0 
L 1184 0 
L 269 3500 
z
" transform="scale(0.015625)"/>
      </defs>
      <use xlink:href="#DejaVuSans-43"/>
      <use xlink:href="#DejaVuSans-6f" x="69.824219"/>
      <use xlink:href="#DejaVuSans-6e" x="131.005859"/>
      <use xlink:href="#DejaVuSans-73" x="194.384766"/>
      <use xlink:href="#DejaVuSans-65" x="246.484375"/>
      <use xlink:href="#DejaVuSans-72" x="308.007812"/>
      <use xlink:href="#DejaVuSans-76" x="349.121094"/>
      <use xlink:href="#DejaVuSans-65" x="408.300781"/>
      <use xlink:href="#DejaVuSans-64" x="469.824219"/>
      <use xlink:href="#DejaVuSans-20" x="533.300781"/>
      <use xlink:href="#DejaVuSans-75" x="565.087891"/>
      <use xlink:href="#DejaVuSans-6e" x="628.466797"/>
      <use xlink:href="#DejaVuSans-6b" x="691.845703"/>
      <use xlink:href="#DejaVuSans-6e" x="749.755859"/>
      <use xlink:href="#DejaVuSans-6f" x="813.134766"/>
      <use xlink:href="#DejaVuSans-77" x="874.316406"/>
      <use xlink:href="#DejaVuSans-6e" x="956.103516"/>
     </g>
    </g>
    <g id="patch_9">
     <path d="M 238.794993 56.826356 
L 258.794993 56.826356 
L 258.794993 49.826356 
L 238.794993 49.826356 
z
" style="fill: #d5dce5"/>
    </g>
    <g id="text_18">
     <!-- Fission yeast unknown -->
     <g transform="translate(266.794993 56.826356) scale(0.1 -0.1)">
      <defs>
       <path id="DejaVuSans-46" d="M 628 4666 
L 3309 4666 
L 3309 4134 
L 1259 4134 
L 1259 2759 
L 3109 2759 
L 3109 2228 
L 1259 2228 
L 1259 0 
L 628 0 
L 628 4666 
z
" transform="scale(0.015625)"/>
       <path id="DejaVuSans-79" d="M 2059 -325 
Q 1816 -950 1584 -1140 
Q 1353 -1331 966 -1331 
L 506 -1331 
L 506 -850 
L 844 -850 
Q 1081 -850 1212 -737 
Q 1344 -625 1503 -206 
L 1606 56 
L 191 3500 
L 800 3500 
L 1894 763 
L 2988 3500 
L 3597 3500 
L 2059 -325 
z
" transform="scale(0.015625)"/>
      </defs>
      <use xlink:href="#DejaVuSans-46"/>
      <use xlink:href="#DejaVuSans-69" x="50.269531"/>
      <use xlink:href="#DejaVuSans-73" x="78.052734"/>
      <use xlink:href="#DejaVuSans-73" x="130.152344"/>
      <use xlink:href="#DejaVuSans-69" x="182.251953"/>
      <use xlink:href="#DejaVuSans-6f" x="210.035156"/>
      <use xlink:href="#DejaVuSans-6e" x="271.216797"/>
      <use xlink:href="#DejaVuSans-20" x="334.595703"/>
      <use xlink:href="#DejaVuSans-79" x="366.382812"/>
      <use xlink:href="#DejaVuSans-65" x="425.5625"/>
      <use xlink:href="#DejaVuSans-61" x="487.085938"/>
      <use xlink:href="#DejaVuSans-73" x="548.365234"/>
      <use xlink:href="#DejaVuSans-74" x="600.464844"/>
      <use xlink:href="#DejaVuSans-20" x="639.673828"/>
      <use xlink:href="#DejaVuSans-75" x="671.460938"/>
      <use xlink:href="#DejaVuSans-6e" x="734.839844"/>
      <use xlink:href="#DejaVuSans-6b" x="798.21875"/>
      <use xlink:href="#DejaVuSans-6e" x="856.128906"/>
      <use xlink:href="#DejaVuSans-6f" x="919.507812"/>
      <use xlink:href="#DejaVuSans-77" x="980.689453"/>
      <use xlink:href="#DejaVuSans-6e" x="1062.476562"/>
     </g>
    </g>
   </g>
  </g>
 </g>
 <defs>
  <clipPath id="p10d5c77260">
   <rect x="61.49" y="67.906044" width="385.792798" height="212.467913"/>
  </clipPath>
 </defs>
</svg>
