<?xml version="1.0" encoding="utf-8" standalone="no"?>
<!DOCTYPE svg PUBLIC "-//W3C//DTD SVG 1.1//EN"
  "http://www.w3.org/Graphics/SVG/1.1/DTD/svg11.dtd">
<svg xmlns:xlink="http://www.w3.org/1999/xlink" width="460.8pt" height="345.6pt" viewBox="0 0 460.8 345.6" xmlns="http://www.w3.org/2000/svg" version="1.1">
 <metadata>
  <rdf:RDF xmlns:dc="http://purl.org/dc/elements/1.1/" xmlns:cc="http://creativecommons.org/ns#" xmlns:rdf="http://www.w3.org/1999/02/22-rdf-syntax-ns#">
   <cc:Work>
    <dc:type rdf:resource="http://purl.org/dc/dcmitype/StillImage"/>
    <dc:date>2023-08-02T07:46:29.410657</dc:date>
    <dc:format>image/svg+xml</dc:format>
    <dc:creator>
     <cc:Agent>
      <dc:title>Matplotlib v3.7.1, https://matplotlib.org/</dc:title>
     </cc:Agent>
    </dc:creator>
   </cc:Work>
  </rdf:RDF>
 </metadata>
 <defs>
  <style type="text/css">*{stroke-linejoin: round; stroke-linecap: butt}</style>
 </defs>
 <g id="figure_1">
  <g id="patch_1">
   <path d="M 0 345.6 
L 460.8 345.6 
L 460.8 0 
L 0 0 
z
" style="fill: #ffffff"/>
  </g>
  <g id="axes_1">
   <g id="patch_2">
    <path d="M 61.49 299.32 
L 450 299.32 
L 450 48.96 
L 61.49 48.96 
z
" style="fill: #ffffff"/>
   </g>
   <g id="PolyCollection_1">
    <path d="M 29.584401 235.783537 
L 29.584401 299.32 
L 38.496874 299.32 
L 47.303874 299.32 
L 65.392503 299.32 
L 86.381641 299.32 
L 101.833444 299.32 
L 111.431492 299.32 
L 113.910109 299.32 
L 118.498187 299.32 
L 120.607648 299.32 
L 120.87133 299.32 
L 124.351941 299.32 
L 125.248462 299.32 
L 125.986773 299.32 
L 126.883294 299.32 
L 127.463396 299.32 
L 128.359917 299.32 
L 128.887282 299.32 
L 129.83654 299.32 
L 131.102217 299.32 
L 132.104211 299.32 
L 132.473366 299.32 
L 133.528097 299.32 
L 134.266408 299.32 
L 135.057456 299.32 
L 135.901241 299.32 
L 136.481342 299.32 
L 137.008708 299.32 
L 138.485331 299.32 
L 139.540061 299.32 
L 140.331109 299.32 
L 140.542055 299.32 
L 141.280366 299.32 
L 142.387834 299.32 
L 143.548037 299.32 
L 144.339085 299.32 
L 145.499289 299.32 
L 147.028648 299.32 
L 149.138109 299.32 
L 150.983888 299.32 
L 152.565983 299.32 
L 155.519229 299.32 
L 156.784906 299.32 
L 160.21278 299.32 
L 162.427714 299.32 
L 163.798864 299.32 
L 164.642648 299.32 
L 167.96505 299.32 
L 169.810828 299.32 
L 171.709343 299.32 
L 175.453636 299.32 
L 178.934247 299.32 
L 179.514349 299.32 
L 180.199924 299.32 
L 181.254655 299.32 
L 182.098439 299.32 
L 184.682529 299.32 
L 189.850709 299.32 
L 190.852703 299.32 
L 195.704463 299.32 
L 196.81193 299.32 
L 197.919397 299.32 
L 199.712439 299.32 
L 201.189062 299.32 
L 202.612948 299.32 
L 203.509469 299.32 
L 206.409978 299.32 
L 209.41596 299.32 
L 210.892583 299.32 
L 211.947314 299.32 
L 213.265727 299.32 
L 214.373194 299.32 
L 215.691607 299.32 
L 218.803062 299.32 
L 220.437895 299.32 
L 222.01999 299.32 
L 223.654823 299.32 
L 225.236919 299.32 
L 226.871751 299.32 
L 228.506583 299.32 
L 230.035943 299.32 
L 231.670775 299.32 
L 233.252871 299.32 
L 234.887703 299.32 
L 236.469799 299.32 
L 238.104631 299.32 
L 239.739464 299.32 
L 241.32156 299.32 
L 242.956392 299.32 
L 244.538488 299.32 
L 246.17332 299.32 
L 247.808153 299.32 
L 249.284775 299.32 
L 250.919608 299.32 
L 252.501704 299.32 
L 254.136536 299.32 
L 255.718632 299.32 
L 257.353464 299.32 
L 258.988296 299.32 
L 260.570392 299.32 
L 262.205225 299.32 
L 263.78732 299.32 
L 265.422153 299.32 
L 267.056985 299.32 
L 268.533608 299.32 
L 270.16844 299.32 
L 271.750536 299.32 
L 273.385369 299.32 
L 274.967464 299.32 
L 276.602297 299.32 
L 278.237129 299.32 
L 279.819225 299.32 
L 281.454057 299.32 
L 283.036153 299.32 
L 284.670985 299.32 
L 286.305818 299.32 
L 287.782441 299.32 
L 289.417273 299.32 
L 290.999369 299.32 
L 292.634201 299.32 
L 294.216297 299.32 
L 295.851129 299.32 
L 297.485962 299.32 
L 299.068058 299.32 
L 300.70289 299.32 
L 302.284986 299.32 
L 303.919818 299.32 
L 305.55465 299.32 
L 307.08401 299.32 
L 308.718842 299.32 
L 310.300938 299.32 
L 311.93577 299.32 
L 313.517866 299.32 
L 315.152699 299.32 
L 316.787531 299.32 
L 318.369627 299.32 
L 320.004459 299.32 
L 321.586555 299.32 
L 323.221387 299.32 
L 324.85622 299.32 
L 326.332842 299.32 
L 327.967675 299.32 
L 329.549771 299.32 
L 331.184603 299.32 
L 332.766699 299.32 
L 334.401531 299.32 
L 336.036364 299.32 
L 337.618459 299.32 
L 339.253292 299.32 
L 340.835388 299.32 
L 342.47022 299.32 
L 344.105052 299.32 
L 345.581675 299.32 
L 347.216507 299.32 
L 348.798603 299.32 
L 350.433436 299.32 
L 352.015531 299.32 
L 353.650364 299.32 
L 355.285196 299.32 
L 356.867292 299.32 
L 358.502124 299.32 
L 360.08422 299.32 
L 361.719053 299.32 
L 363.353885 299.32 
L 364.830508 299.32 
L 366.46534 299.32 
L 368.047436 299.32 
L 369.682268 299.32 
L 371.264364 299.32 
L 372.899196 299.32 
L 374.534029 299.32 
L 376.116125 299.32 
L 377.750957 299.32 
L 379.333053 299.32 
L 380.967885 299.32 
L 382.602718 299.32 
L 384.132077 299.32 
L 385.766909 299.32 
L 387.349005 299.32 
L 388.983837 299.32 
L 390.565933 299.32 
L 392.200766 299.32 
L 393.835598 299.32 
L 395.417694 299.32 
L 397.052526 299.32 
L 398.634622 299.32 
L 400.269454 299.32 
L 401.904287 299.32 
L 403.380909 299.32 
L 405.015742 299.32 
L 406.597838 299.32 
L 408.23267 299.32 
L 409.814766 299.32 
L 411.449598 299.32 
L 413.084431 299.32 
L 414.666526 299.32 
L 416.301359 299.32 
L 417.883455 299.32 
L 419.518287 299.32 
L 421.153119 299.32 
L 422.629742 299.32 
L 424.264574 299.32 
L 425.84667 299.32 
L 427.481503 299.32 
L 429.063598 299.32 
L 430.698431 299.32 
L 432.333263 299.32 
L 433.915359 299.32 
L 435.550191 299.32 
L 437.132287 299.32 
L 438.76712 299.32 
L 440.401952 299.32 
L 441.878575 299.32 
L 443.513407 299.32 
L 445.095503 299.32 
L 446.730335 299.32 
L 448.312431 299.32 
L 449.947263 299.32 
L 449.947263 180.759361 
L 449.947263 180.759361 
L 448.312431 181.323712 
L 446.730335 181.605887 
L 445.095503 181.746975 
L 443.513407 181.746975 
L 441.878575 182.170238 
L 440.401952 182.875676 
L 438.76712 182.828647 
L 437.132287 182.969734 
L 435.550191 183.110822 
L 433.915359 183.392997 
L 432.333263 183.392997 
L 430.698431 183.440026 
L 429.063598 183.440026 
L 427.481503 183.392997 
L 425.84667 183.487056 
L 424.264574 183.392997 
L 422.629742 183.345968 
L 421.153119 183.392997 
L 419.518287 183.392997 
L 417.883455 183.628143 
L 416.301359 183.863289 
L 414.666526 184.239523 
L 413.084431 184.521698 
L 411.449598 184.474669 
L 409.814766 184.709815 
L 408.23267 185.039019 
L 406.597838 185.039019 
L 405.015742 185.227136 
L 403.380909 185.838516 
L 401.904287 185.979604 
L 400.269454 186.496925 
L 398.634622 186.543954 
L 397.052526 186.732071 
L 395.417694 186.826129 
L 393.835598 187.014246 
L 392.200766 187.061275 
L 390.565933 187.155334 
L 388.983837 187.155334 
L 387.349005 187.249392 
L 385.766909 187.672655 
L 384.132077 187.813743 
L 382.602718 187.907801 
L 380.967885 188.00186 
L 379.333053 188.00186 
L 377.750957 188.00186 
L 376.116125 188.142947 
L 374.534029 188.237006 
L 372.899196 188.425123 
L 371.264364 188.707298 
L 369.682268 188.848385 
L 368.047436 188.942444 
L 366.46534 189.036502 
L 364.830508 189.083532 
L 363.353885 189.083532 
L 361.719053 189.130561 
L 360.08422 189.17759 
L 358.502124 189.271648 
L 356.867292 189.318678 
L 355.285196 189.318678 
L 353.650364 189.459765 
L 352.015531 189.600853 
L 350.433436 189.883028 
L 348.798603 190.071145 
L 347.216507 190.447379 
L 345.581675 190.635495 
L 344.105052 190.823612 
L 342.47022 190.870641 
L 340.835388 191.058758 
L 339.253292 191.246875 
L 337.618459 193.31616 
L 336.036364 193.645365 
L 334.401531 194.53892 
L 332.766699 193.786453 
L 331.184603 193.692394 
L 329.549771 193.739423 
L 327.967675 193.833482 
L 326.332842 194.162686 
L 324.85622 194.209715 
L 323.221387 194.303774 
L 321.586555 195.197329 
L 320.004459 195.338416 
L 318.369627 195.573563 
L 316.787531 195.667621 
L 315.152699 195.808709 
L 313.517866 196.32603 
L 311.93577 196.561176 
L 310.300938 196.561176 
L 308.718842 197.031468 
L 307.08401 197.125526 
L 305.55465 197.172556 
L 303.919818 197.407702 
L 302.284986 197.50176 
L 300.70289 197.50176 
L 299.068058 197.736906 
L 297.485962 197.783935 
L 295.851129 197.830965 
L 294.216297 198.019081 
L 292.634201 198.160169 
L 290.999369 197.454731 
L 289.417273 197.548789 
L 287.782441 197.783935 
L 286.305818 197.783935 
L 284.670985 198.066111 
L 283.036153 198.254227 
L 281.454057 198.583432 
L 279.819225 199.006695 
L 278.237129 199.382929 
L 276.602297 199.476987 
L 274.967464 199.806191 
L 273.385369 200.088367 
L 271.750536 200.51163 
L 270.16844 200.699746 
L 268.533608 200.934892 
L 267.056985 200.981922 
L 265.422153 200.981922 
L 263.78732 201.217068 
L 262.205225 201.781418 
L 260.570392 201.828447 
L 258.988296 202.110623 
L 257.353464 202.910119 
L 255.718632 203.004178 
L 254.136536 203.568528 
L 252.501704 203.944762 
L 250.919608 205.214551 
L 249.284775 205.308609 
L 247.808153 205.449697 
L 246.17332 205.778901 
L 244.538488 205.87296 
L 242.956392 206.155135 
L 241.32156 206.390281 
L 239.739464 206.813544 
L 238.104631 207.04869 
L 236.469799 207.189777 
L 234.887703 207.471953 
L 233.252871 207.518982 
L 231.670775 207.66007 
L 230.035943 207.848186 
L 228.506583 207.848186 
L 226.871751 207.942245 
L 225.236919 207.989274 
L 223.654823 208.036303 
L 222.01999 208.083332 
L 220.437895 208.130362 
L 218.803062 208.271449 
L 215.691607 209.165004 
L 214.373194 209.40015 
L 213.265727 209.447179 
L 211.947314 209.306092 
L 210.892583 209.306092 
L 209.41596 209.447179 
L 206.409978 209.588267 
L 203.509469 210.340734 
L 202.612948 211.469436 
L 201.189062 211.281319 
L 199.712439 211.234289 
L 197.919397 212.080815 
L 196.81193 212.080815 
L 195.704463 211.79864 
L 190.852703 212.41002 
L 189.850709 212.504078 
L 184.682529 213.303575 
L 182.098439 213.397633 
L 181.254655 213.209516 
L 180.199924 213.350604 
L 179.514349 213.58575 
L 178.934247 213.632779 
L 175.453636 213.773867 
L 171.709343 213.867925 
L 169.810828 214.103071 
L 167.96505 216.595619 
L 164.642648 216.501561 
L 163.798864 216.54859 
L 162.427714 217.065912 
L 160.21278 218.382729 
L 156.784906 218.664905 
L 155.519229 219.135197 
L 152.565983 219.464401 
L 150.983888 220.452015 
L 149.138109 221.110424 
L 147.028648 221.627745 
L 145.499289 221.674774 
L 144.339085 221.768833 
L 143.548037 221.815862 
L 142.387834 221.862891 
L 141.280366 222.709417 
L 140.542055 223.13268 
L 140.331109 223.13268 
L 139.540061 223.13268 
L 138.485331 223.414855 
L 137.008708 223.13268 
L 136.481342 223.367826 
L 135.901241 223.461884 
L 135.057456 223.602972 
L 134.266408 223.602972 
L 133.528097 223.979205 
L 132.473366 224.825731 
L 132.104211 224.778702 
L 131.102217 225.201965 
L 129.83654 225.296023 
L 128.887282 225.390082 
L 128.359917 225.48414 
L 127.463396 225.625228 
L 126.883294 225.907403 
L 125.986773 226.142549 
L 125.248462 226.048491 
L 124.351941 226.142549 
L 120.87133 226.471754 
L 120.607648 226.424724 
L 118.498187 226.800958 
L 113.910109 224.543556 
L 111.431492 227.88263 
L 101.833444 232.256346 
L 86.381641 236.347888 
L 65.392503 241.615159 
L 47.303874 235.548391 
L 38.496874 234.795924 
L 29.584401 235.783537 
z
" clip-path="url(#p5ca167a2c7)" style="fill: #1f77b4"/>
   </g>
   <g id="PolyCollection_2">
    <path d="M 29.584401 139.091481 
L 29.584401 235.783537 
L 38.496874 234.795924 
L 47.303874 235.548391 
L 65.392503 241.615159 
L 86.381641 236.347888 
L 101.833444 232.256346 
L 111.431492 227.88263 
L 113.910109 224.543556 
L 118.498187 226.800958 
L 120.607648 226.424724 
L 120.87133 226.471754 
L 124.351941 226.142549 
L 125.248462 226.048491 
L 125.986773 226.142549 
L 126.883294 225.907403 
L 127.463396 225.625228 
L 128.359917 225.48414 
L 128.887282 225.390082 
L 129.83654 225.296023 
L 131.102217 225.201965 
L 132.104211 224.778702 
L 132.473366 224.825731 
L 133.528097 223.979205 
L 134.266408 223.602972 
L 135.057456 223.602972 
L 135.901241 223.461884 
L 136.481342 223.367826 
L 137.008708 223.13268 
L 138.485331 223.414855 
L 139.540061 223.13268 
L 140.331109 223.13268 
L 140.542055 223.13268 
L 141.280366 222.709417 
L 142.387834 221.862891 
L 143.548037 221.815862 
L 144.339085 221.768833 
L 145.499289 221.674774 
L 147.028648 221.627745 
L 149.138109 221.110424 
L 150.983888 220.452015 
L 152.565983 219.464401 
L 155.519229 219.135197 
L 156.784906 218.664905 
L 160.21278 218.382729 
L 162.427714 217.065912 
L 163.798864 216.54859 
L 164.642648 216.501561 
L 167.96505 216.595619 
L 169.810828 214.103071 
L 171.709343 213.867925 
L 175.453636 213.773867 
L 178.934247 213.632779 
L 179.514349 213.58575 
L 180.199924 213.350604 
L 181.254655 213.209516 
L 182.098439 213.397633 
L 184.682529 213.303575 
L 189.850709 212.504078 
L 190.852703 212.41002 
L 195.704463 211.79864 
L 196.81193 212.080815 
L 197.919397 212.080815 
L 199.712439 211.234289 
L 201.189062 211.281319 
L 202.612948 211.469436 
L 203.509469 210.340734 
L 206.409978 209.588267 
L 209.41596 209.447179 
L 210.892583 209.306092 
L 211.947314 209.306092 
L 213.265727 209.447179 
L 214.373194 209.40015 
L 215.691607 209.165004 
L 218.803062 208.271449 
L 220.437895 208.130362 
L 222.01999 208.083332 
L 223.654823 208.036303 
L 225.236919 207.989274 
L 226.871751 207.942245 
L 228.506583 207.848186 
L 230.035943 207.848186 
L 231.670775 207.66007 
L 233.252871 207.518982 
L 234.887703 207.471953 
L 236.469799 207.189777 
L 238.104631 207.04869 
L 239.739464 206.813544 
L 241.32156 206.390281 
L 242.956392 206.155135 
L 244.538488 205.87296 
L 246.17332 205.778901 
L 247.808153 205.449697 
L 249.284775 205.308609 
L 250.919608 205.214551 
L 252.501704 203.944762 
L 254.136536 203.568528 
L 255.718632 203.004178 
L 257.353464 202.910119 
L 258.988296 202.110623 
L 260.570392 201.828447 
L 262.205225 201.781418 
L 263.78732 201.217068 
L 265.422153 200.981922 
L 267.056985 200.981922 
L 268.533608 200.934892 
L 270.16844 200.699746 
L 271.750536 200.51163 
L 273.385369 200.088367 
L 274.967464 199.806191 
L 276.602297 199.476987 
L 278.237129 199.382929 
L 279.819225 199.006695 
L 281.454057 198.583432 
L 283.036153 198.254227 
L 284.670985 198.066111 
L 286.305818 197.783935 
L 287.782441 197.783935 
L 289.417273 197.548789 
L 290.999369 197.454731 
L 292.634201 198.160169 
L 294.216297 198.019081 
L 295.851129 197.830965 
L 297.485962 197.783935 
L 299.068058 197.736906 
L 300.70289 197.50176 
L 302.284986 197.50176 
L 303.919818 197.407702 
L 305.55465 197.172556 
L 307.08401 197.125526 
L 308.718842 197.031468 
L 310.300938 196.561176 
L 311.93577 196.561176 
L 313.517866 196.32603 
L 315.152699 195.808709 
L 316.787531 195.667621 
L 318.369627 195.573563 
L 320.004459 195.338416 
L 321.586555 195.197329 
L 323.221387 194.303774 
L 324.85622 194.209715 
L 326.332842 194.162686 
L 327.967675 193.833482 
L 329.549771 193.739423 
L 331.184603 193.692394 
L 332.766699 193.786453 
L 334.401531 194.53892 
L 336.036364 193.645365 
L 337.618459 193.31616 
L 339.253292 191.246875 
L 340.835388 191.058758 
L 342.47022 190.870641 
L 344.105052 190.823612 
L 345.581675 190.635495 
L 347.216507 190.447379 
L 348.798603 190.071145 
L 350.433436 189.883028 
L 352.015531 189.600853 
L 353.650364 189.459765 
L 355.285196 189.318678 
L 356.867292 189.318678 
L 358.502124 189.271648 
L 360.08422 189.17759 
L 361.719053 189.130561 
L 363.353885 189.083532 
L 364.830508 189.083532 
L 366.46534 189.036502 
L 368.047436 188.942444 
L 369.682268 188.848385 
L 371.264364 188.707298 
L 372.899196 188.425123 
L 374.534029 188.237006 
L 376.116125 188.142947 
L 377.750957 188.00186 
L 379.333053 188.00186 
L 380.967885 188.00186 
L 382.602718 187.907801 
L 384.132077 187.813743 
L 385.766909 187.672655 
L 387.349005 187.249392 
L 388.983837 187.155334 
L 390.565933 187.155334 
L 392.200766 187.061275 
L 393.835598 187.014246 
L 395.417694 186.826129 
L 397.052526 186.732071 
L 398.634622 186.543954 
L 400.269454 186.496925 
L 401.904287 185.979604 
L 403.380909 185.838516 
L 405.015742 185.227136 
L 406.597838 185.039019 
L 408.23267 185.039019 
L 409.814766 184.709815 
L 411.449598 184.474669 
L 413.084431 184.521698 
L 414.666526 184.239523 
L 416.301359 183.863289 
L 417.883455 183.628143 
L 419.518287 183.392997 
L 421.153119 183.392997 
L 422.629742 183.345968 
L 424.264574 183.392997 
L 425.84667 183.487056 
L 427.481503 183.392997 
L 429.063598 183.440026 
L 430.698431 183.440026 
L 432.333263 183.392997 
L 433.915359 183.392997 
L 435.550191 183.110822 
L 437.132287 182.969734 
L 438.76712 182.828647 
L 440.401952 182.875676 
L 441.878575 182.170238 
L 443.513407 181.746975 
L 445.095503 181.746975 
L 446.730335 181.605887 
L 448.312431 181.323712 
L 449.947263 180.759361 
L 449.947263 90.886541 
L 449.947263 90.886541 
L 448.312431 91.215745 
L 446.730335 91.497921 
L 445.095503 91.639008 
L 443.513407 91.639008 
L 441.878575 91.686037 
L 440.401952 91.874154 
L 438.76712 92.015242 
L 437.132287 92.1093 
L 435.550191 92.1093 
L 433.915359 92.156329 
L 432.333263 92.015242 
L 430.698431 92.062271 
L 429.063598 92.062271 
L 427.481503 92.297417 
L 425.84667 92.250388 
L 424.264574 92.250388 
L 422.629742 92.297417 
L 421.153119 92.391476 
L 419.518287 92.391476 
L 417.883455 92.532563 
L 416.301359 92.485534 
L 414.666526 92.626622 
L 413.084431 92.673651 
L 411.449598 92.72068 
L 409.814766 92.767709 
L 408.23267 92.814738 
L 406.597838 92.767709 
L 405.015742 92.908797 
L 403.380909 93.143943 
L 401.904287 93.33206 
L 400.269454 93.379089 
L 398.634622 93.379089 
L 397.052526 93.473147 
L 395.417694 93.520177 
L 393.835598 93.614235 
L 392.200766 93.614235 
L 390.565933 93.661264 
L 388.983837 93.708293 
L 387.349005 93.567206 
L 385.766909 93.520177 
L 384.132077 93.567206 
L 382.602718 93.473147 
L 380.967885 93.473147 
L 379.333053 93.473147 
L 377.750957 93.473147 
L 376.116125 93.473147 
L 374.534029 93.520177 
L 372.899196 93.473147 
L 371.264364 93.520177 
L 369.682268 93.520177 
L 368.047436 93.379089 
L 366.46534 93.379089 
L 364.830508 93.426118 
L 363.353885 93.426118 
L 361.719053 93.520177 
L 360.08422 93.520177 
L 358.502124 93.614235 
L 356.867292 93.614235 
L 355.285196 93.614235 
L 353.650364 93.661264 
L 352.015531 93.661264 
L 350.433436 93.661264 
L 348.798603 93.708293 
L 347.216507 93.755323 
L 345.581675 94.131556 
L 344.105052 94.272644 
L 342.47022 94.178586 
L 340.835388 94.272644 
L 339.253292 94.413732 
L 337.618459 94.460761 
L 336.036364 95.11917 
L 334.401531 95.495403 
L 332.766699 98.08201 
L 331.184603 99.539915 
L 329.549771 100.057237 
L 327.967675 100.057237 
L 326.332842 100.43347 
L 324.85622 100.339412 
L 323.221387 99.398828 
L 321.586555 99.633974 
L 320.004459 100.151295 
L 318.369627 100.151295 
L 316.787531 100.010208 
L 315.152699 100.198324 
L 313.517866 100.245354 
L 311.93577 100.245354 
L 310.300938 100.292383 
L 308.718842 100.386441 
L 307.08401 100.386441 
L 305.55465 100.43347 
L 303.919818 100.43347 
L 302.284986 100.574558 
L 300.70289 100.621587 
L 299.068058 100.668617 
L 297.485962 100.668617 
L 295.851129 100.621587 
L 294.216297 100.668617 
L 292.634201 100.621587 
L 290.999369 101.374055 
L 289.417273 101.327025 
L 287.782441 101.421084 
L 286.305818 101.515142 
L 284.670985 101.65623 
L 283.036153 101.609201 
L 281.454057 101.938405 
L 279.819225 102.079493 
L 278.237129 102.26761 
L 276.602297 102.502756 
L 274.967464 102.549785 
L 273.385369 102.455726 
L 271.750536 102.549785 
L 270.16844 102.596814 
L 268.533608 102.596814 
L 267.056985 102.596814 
L 265.422153 102.596814 
L 263.78732 102.784931 
L 262.205225 102.878989 
L 260.570392 103.161165 
L 258.988296 103.208194 
L 257.353464 103.490369 
L 255.718632 103.584428 
L 254.136536 103.866603 
L 252.501704 104.00769 
L 250.919608 104.195807 
L 249.284775 104.242836 
L 247.808153 104.289866 
L 246.17332 104.477983 
L 244.538488 104.477983 
L 242.956392 104.713129 
L 241.32156 105.042333 
L 239.739464 105.23045 
L 238.104631 105.418567 
L 236.469799 105.653713 
L 234.887703 105.747771 
L 233.252871 106.124005 
L 231.670775 106.124005 
L 230.035943 106.171034 
L 228.506583 106.171034 
L 226.871751 106.171034 
L 225.236919 106.171034 
L 223.654823 106.171034 
L 222.01999 106.218063 
L 220.437895 106.40618 
L 218.803062 106.500239 
L 215.691607 107.064589 
L 214.373194 107.770027 
L 213.265727 108.099232 
L 211.947314 107.440823 
L 210.892583 107.817056 
L 209.41596 107.958144 
L 206.409978 108.146261 
L 203.509469 108.146261 
L 202.612948 108.334378 
L 201.189062 108.945757 
L 199.712439 108.898728 
L 197.919397 109.9804 
L 196.81193 109.9804 
L 195.704463 110.497721 
L 190.852703 110.826926 
L 189.850709 110.920984 
L 184.682529 112.237802 
L 182.098439 113.413532 
L 181.254655 113.460562 
L 180.199924 113.460562 
L 179.514349 113.460562 
L 178.934247 113.507591 
L 175.453636 112.99027 
L 171.709343 113.601649 
L 169.810828 113.836795 
L 167.96505 114.071941 
L 164.642648 114.213029 
L 163.798864 114.307087 
L 162.427714 114.542233 
L 160.21278 114.918467 
L 156.784906 114.73035 
L 155.519229 115.106584 
L 152.565983 115.059555 
L 150.983888 114.965496 
L 149.138109 115.388759 
L 147.028648 115.294701 
L 145.499289 115.153613 
L 144.339085 115.482818 
L 143.548037 115.529847 
L 142.387834 114.636292 
L 141.280366 114.683321 
L 140.542055 114.871438 
L 140.331109 114.871438 
L 139.540061 114.824409 
L 138.485331 115.435788 
L 137.008708 114.77738 
L 136.481342 114.77738 
L 135.901241 114.824409 
L 135.057456 114.871438 
L 134.266408 114.636292 
L 133.528097 115.153613 
L 132.473366 115.294701 
L 132.104211 115.012526 
L 131.102217 115.200642 
L 129.83654 115.153613 
L 128.887282 115.764993 
L 128.359917 115.670935 
L 127.463396 115.670935 
L 126.883294 113.55462 
L 125.986773 114.024912 
L 125.248462 112.849182 
L 124.351941 112.567007 
L 120.87133 112.896211 
L 120.607648 112.708094 
L 118.498187 113.037299 
L 113.910109 115.153613 
L 111.431492 116.188256 
L 101.833444 118.680804 
L 86.381641 122.255024 
L 65.392503 126.816857 
L 47.303874 134.106385 
L 38.496874 138.715247 
L 29.584401 139.091481 
z
" clip-path="url(#p5ca167a2c7)" style="fill: #ff7f0e"/>
   </g>
   <g id="PolyCollection_3">
    <path d="M 29.584401 102.032464 
L 29.584401 139.091481 
L 38.496874 138.715247 
L 47.303874 134.106385 
L 65.392503 126.816857 
L 86.381641 122.255024 
L 101.833444 118.680804 
L 111.431492 116.188256 
L 113.910109 115.153613 
L 118.498187 113.037299 
L 120.607648 112.708094 
L 120.87133 112.896211 
L 124.351941 112.567007 
L 125.248462 112.849182 
L 125.986773 114.024912 
L 126.883294 113.55462 
L 127.463396 115.670935 
L 128.359917 115.670935 
L 128.887282 115.764993 
L 129.83654 115.153613 
L 131.102217 115.200642 
L 132.104211 115.012526 
L 132.473366 115.294701 
L 133.528097 115.153613 
L 134.266408 114.636292 
L 135.057456 114.871438 
L 135.901241 114.824409 
L 136.481342 114.77738 
L 137.008708 114.77738 
L 138.485331 115.435788 
L 139.540061 114.824409 
L 140.331109 114.871438 
L 140.542055 114.871438 
L 141.280366 114.683321 
L 142.387834 114.636292 
L 143.548037 115.529847 
L 144.339085 115.482818 
L 145.499289 115.153613 
L 147.028648 115.294701 
L 149.138109 115.388759 
L 150.983888 114.965496 
L 152.565983 115.059555 
L 155.519229 115.106584 
L 156.784906 114.73035 
L 160.21278 114.918467 
L 162.427714 114.542233 
L 163.798864 114.307087 
L 164.642648 114.213029 
L 167.96505 114.071941 
L 169.810828 113.836795 
L 171.709343 113.601649 
L 175.453636 112.99027 
L 178.934247 113.507591 
L 179.514349 113.460562 
L 180.199924 113.460562 
L 181.254655 113.460562 
L 182.098439 113.413532 
L 184.682529 112.237802 
L 189.850709 110.920984 
L 190.852703 110.826926 
L 195.704463 110.497721 
L 196.81193 109.9804 
L 197.919397 109.9804 
L 199.712439 108.898728 
L 201.189062 108.945757 
L 202.612948 108.334378 
L 203.509469 108.146261 
L 206.409978 108.146261 
L 209.41596 107.958144 
L 210.892583 107.817056 
L 211.947314 107.440823 
L 213.265727 108.099232 
L 214.373194 107.770027 
L 215.691607 107.064589 
L 218.803062 106.500239 
L 220.437895 106.40618 
L 222.01999 106.218063 
L 223.654823 106.171034 
L 225.236919 106.171034 
L 226.871751 106.171034 
L 228.506583 106.171034 
L 230.035943 106.171034 
L 231.670775 106.124005 
L 233.252871 106.124005 
L 234.887703 105.747771 
L 236.469799 105.653713 
L 238.104631 105.418567 
L 239.739464 105.23045 
L 241.32156 105.042333 
L 242.956392 104.713129 
L 244.538488 104.477983 
L 246.17332 104.477983 
L 247.808153 104.289866 
L 249.284775 104.242836 
L 250.919608 104.195807 
L 252.501704 104.00769 
L 254.136536 103.866603 
L 255.718632 103.584428 
L 257.353464 103.490369 
L 258.988296 103.208194 
L 260.570392 103.161165 
L 262.205225 102.878989 
L 263.78732 102.784931 
L 265.422153 102.596814 
L 267.056985 102.596814 
L 268.533608 102.596814 
L 270.16844 102.596814 
L 271.750536 102.549785 
L 273.385369 102.455726 
L 274.967464 102.549785 
L 276.602297 102.502756 
L 278.237129 102.26761 
L 279.819225 102.079493 
L 281.454057 101.938405 
L 283.036153 101.609201 
L 284.670985 101.65623 
L 286.305818 101.515142 
L 287.782441 101.421084 
L 289.417273 101.327025 
L 290.999369 101.374055 
L 292.634201 100.621587 
L 294.216297 100.668617 
L 295.851129 100.621587 
L 297.485962 100.668617 
L 299.068058 100.668617 
L 300.70289 100.621587 
L 302.284986 100.574558 
L 303.919818 100.43347 
L 305.55465 100.43347 
L 307.08401 100.386441 
L 308.718842 100.386441 
L 310.300938 100.292383 
L 311.93577 100.245354 
L 313.517866 100.245354 
L 315.152699 100.198324 
L 316.787531 100.010208 
L 318.369627 100.151295 
L 320.004459 100.151295 
L 321.586555 99.633974 
L 323.221387 99.398828 
L 324.85622 100.339412 
L 326.332842 100.43347 
L 327.967675 100.057237 
L 329.549771 100.057237 
L 331.184603 99.539915 
L 332.766699 98.08201 
L 334.401531 95.495403 
L 336.036364 95.11917 
L 337.618459 94.460761 
L 339.253292 94.413732 
L 340.835388 94.272644 
L 342.47022 94.178586 
L 344.105052 94.272644 
L 345.581675 94.131556 
L 347.216507 93.755323 
L 348.798603 93.708293 
L 350.433436 93.661264 
L 352.015531 93.661264 
L 353.650364 93.661264 
L 355.285196 93.614235 
L 356.867292 93.614235 
L 358.502124 93.614235 
L 360.08422 93.520177 
L 361.719053 93.520177 
L 363.353885 93.426118 
L 364.830508 93.426118 
L 366.46534 93.379089 
L 368.047436 93.379089 
L 369.682268 93.520177 
L 371.264364 93.520177 
L 372.899196 93.473147 
L 374.534029 93.520177 
L 376.116125 93.473147 
L 377.750957 93.473147 
L 379.333053 93.473147 
L 380.967885 93.473147 
L 382.602718 93.473147 
L 384.132077 93.567206 
L 385.766909 93.520177 
L 387.349005 93.567206 
L 388.983837 93.708293 
L 390.565933 93.661264 
L 392.200766 93.614235 
L 393.835598 93.614235 
L 395.417694 93.520177 
L 397.052526 93.473147 
L 398.634622 93.379089 
L 400.269454 93.379089 
L 401.904287 93.33206 
L 403.380909 93.143943 
L 405.015742 92.908797 
L 406.597838 92.767709 
L 408.23267 92.814738 
L 409.814766 92.767709 
L 411.449598 92.72068 
L 413.084431 92.673651 
L 414.666526 92.626622 
L 416.301359 92.485534 
L 417.883455 92.532563 
L 419.518287 92.391476 
L 421.153119 92.391476 
L 422.629742 92.297417 
L 424.264574 92.250388 
L 425.84667 92.250388 
L 427.481503 92.297417 
L 429.063598 92.062271 
L 430.698431 92.062271 
L 432.333263 92.015242 
L 433.915359 92.156329 
L 435.550191 92.1093 
L 437.132287 92.1093 
L 438.76712 92.015242 
L 440.401952 91.874154 
L 441.878575 91.686037 
L 443.513407 91.639008 
L 445.095503 91.639008 
L 446.730335 91.497921 
L 448.312431 91.215745 
L 449.947263 90.886541 
L 449.947263 73.767908 
L 449.947263 73.767908 
L 448.312431 73.861967 
L 446.730335 73.861967 
L 445.095503 73.861967 
L 443.513407 73.861967 
L 441.878575 73.861967 
L 440.401952 73.908996 
L 438.76712 73.908996 
L 437.132287 74.003054 
L 435.550191 74.003054 
L 433.915359 74.050084 
L 432.333263 74.050084 
L 430.698431 74.050084 
L 429.063598 74.050084 
L 427.481503 74.144142 
L 425.84667 74.2382 
L 424.264574 74.2382 
L 422.629742 74.2382 
L 421.153119 74.2382 
L 419.518287 74.2382 
L 417.883455 74.28523 
L 416.301359 74.2382 
L 414.666526 74.332259 
L 413.084431 74.332259 
L 411.449598 74.332259 
L 409.814766 74.379288 
L 408.23267 74.379288 
L 406.597838 74.379288 
L 405.015742 74.426317 
L 403.380909 74.473346 
L 401.904287 74.520376 
L 400.269454 74.520376 
L 398.634622 74.473346 
L 397.052526 74.473346 
L 395.417694 74.473346 
L 393.835598 74.426317 
L 392.200766 74.426317 
L 390.565933 74.473346 
L 388.983837 74.473346 
L 387.349005 74.379288 
L 385.766909 74.332259 
L 384.132077 74.332259 
L 382.602718 74.379288 
L 380.967885 74.379288 
L 379.333053 74.379288 
L 377.750957 74.379288 
L 376.116125 74.379288 
L 374.534029 74.379288 
L 372.899196 74.379288 
L 371.264364 74.379288 
L 369.682268 74.379288 
L 368.047436 74.28523 
L 366.46534 74.28523 
L 364.830508 74.28523 
L 363.353885 74.28523 
L 361.719053 74.2382 
L 360.08422 74.2382 
L 358.502124 74.332259 
L 356.867292 74.332259 
L 355.285196 74.332259 
L 353.650364 74.379288 
L 352.015531 74.379288 
L 350.433436 74.379288 
L 348.798603 74.426317 
L 347.216507 74.473346 
L 345.581675 74.567405 
L 344.105052 74.567405 
L 342.47022 74.567405 
L 340.835388 74.755522 
L 339.253292 74.755522 
L 337.618459 74.755522 
L 336.036364 74.614434 
L 334.401531 74.661463 
L 332.766699 74.896609 
L 331.184603 76.02531 
L 329.549771 76.213427 
L 327.967675 76.260456 
L 326.332842 76.307486 
L 324.85622 76.307486 
L 323.221387 76.307486 
L 321.586555 76.307486 
L 320.004459 76.354515 
L 318.369627 76.354515 
L 316.787531 76.401544 
L 315.152699 76.448573 
L 313.517866 76.495603 
L 311.93577 76.495603 
L 310.300938 76.495603 
L 308.718842 76.495603 
L 307.08401 76.495603 
L 305.55465 76.542632 
L 303.919818 76.542632 
L 302.284986 76.589661 
L 300.70289 76.63669 
L 299.068058 76.63669 
L 297.485962 76.63669 
L 295.851129 76.63669 
L 294.216297 76.63669 
L 292.634201 76.63669 
L 290.999369 76.63669 
L 289.417273 76.63669 
L 287.782441 76.730749 
L 286.305818 76.730749 
L 284.670985 76.730749 
L 283.036153 76.777778 
L 281.454057 76.777778 
L 279.819225 76.824807 
L 278.237129 77.012924 
L 276.602297 78.141625 
L 274.967464 78.141625 
L 273.385369 78.141625 
L 271.750536 78.235683 
L 270.16844 78.235683 
L 268.533608 78.235683 
L 267.056985 78.235683 
L 265.422153 78.235683 
L 263.78732 78.235683 
L 262.205225 78.329742 
L 260.570392 78.235683 
L 258.988296 78.282713 
L 257.353464 78.376771 
L 255.718632 78.470829 
L 254.136536 78.705975 
L 252.501704 78.753005 
L 250.919608 78.753005 
L 249.284775 78.753005 
L 247.808153 78.753005 
L 246.17332 78.847063 
L 244.538488 78.847063 
L 242.956392 78.941121 
L 241.32156 78.941121 
L 239.739464 78.800034 
L 238.104631 78.894092 
L 236.469799 78.894092 
L 234.887703 78.894092 
L 233.252871 78.941121 
L 231.670775 78.941121 
L 230.035943 78.941121 
L 228.506583 78.988151 
L 226.871751 78.988151 
L 225.236919 79.03518 
L 223.654823 78.988151 
L 222.01999 78.988151 
L 220.437895 79.082209 
L 218.803062 79.129238 
L 215.691607 79.458443 
L 214.373194 80.163881 
L 213.265727 80.493085 
L 211.947314 79.740618 
L 210.892583 80.351998 
L 209.41596 80.399027 
L 206.409978 81.480699 
L 203.509469 81.480699 
L 202.612948 81.43367 
L 201.189062 81.621786 
L 199.712439 81.621786 
L 197.919397 81.715845 
L 196.81193 81.715845 
L 195.704463 81.762874 
L 190.852703 81.950991 
L 189.850709 81.950991 
L 184.682529 83.17375 
L 182.098439 83.314838 
L 181.254655 83.361867 
L 180.199924 83.502955 
L 179.514349 83.502955 
L 178.934247 83.502955 
L 175.453636 83.502955 
L 171.709343 83.78513 
L 169.810828 83.926218 
L 167.96505 83.973247 
L 164.642648 84.067305 
L 163.798864 84.208393 
L 162.427714 84.443539 
L 160.21278 84.725714 
L 156.784906 84.913831 
L 155.519229 85.666298 
L 152.565983 85.713328 
L 150.983888 86.042532 
L 149.138109 86.418766 
L 147.028648 86.512824 
L 145.499289 86.512824 
L 144.339085 86.512824 
L 143.548037 86.512824 
L 142.387834 86.700941 
L 141.280366 86.889058 
L 140.542055 87.030146 
L 140.331109 87.030146 
L 139.540061 86.983116 
L 138.485331 87.641525 
L 137.008708 87.077175 
L 136.481342 87.077175 
L 135.901241 87.171233 
L 135.057456 87.171233 
L 134.266408 87.171233 
L 133.528097 87.876671 
L 132.473366 87.876671 
L 132.104211 87.312321 
L 131.102217 88.017759 
L 129.83654 89.334577 
L 128.887282 90.416249 
L 128.359917 90.463278 
L 127.463396 90.463278 
L 126.883294 90.510307 
L 125.986773 91.215745 
L 125.248462 90.557336 
L 124.351941 90.557336 
L 120.87133 90.886541 
L 120.607648 90.93357 
L 118.498187 90.980599 
L 113.910109 87.876671 
L 111.431492 91.168716 
L 101.833444 93.426118 
L 86.381641 95.730549 
L 65.392503 97.329543 
L 47.303874 99.728032 
L 38.496874 102.549785 
L 29.584401 102.032464 
z
" clip-path="url(#p5ca167a2c7)" style="fill: #2ca02c"/>
   </g>
   <g id="PolyCollection_4">
    <path d="M 29.584401 73.485733 
L 29.584401 102.032464 
L 38.496874 102.549785 
L 47.303874 99.728032 
L 65.392503 97.329543 
L 86.381641 95.730549 
L 101.833444 93.426118 
L 111.431492 91.168716 
L 113.910109 87.876671 
L 118.498187 90.980599 
L 120.607648 90.93357 
L 120.87133 90.886541 
L 124.351941 90.557336 
L 125.248462 90.557336 
L 125.986773 91.215745 
L 126.883294 90.510307 
L 127.463396 90.463278 
L 128.359917 90.463278 
L 128.887282 90.416249 
L 129.83654 89.334577 
L 131.102217 88.017759 
L 132.104211 87.312321 
L 132.473366 87.876671 
L 133.528097 87.876671 
L 134.266408 87.171233 
L 135.057456 87.171233 
L 135.901241 87.171233 
L 136.481342 87.077175 
L 137.008708 87.077175 
L 138.485331 87.641525 
L 139.540061 86.983116 
L 140.331109 87.030146 
L 140.542055 87.030146 
L 141.280366 86.889058 
L 142.387834 86.700941 
L 143.548037 86.512824 
L 144.339085 86.512824 
L 145.499289 86.512824 
L 147.028648 86.512824 
L 149.138109 86.418766 
L 150.983888 86.042532 
L 152.565983 85.713328 
L 155.519229 85.666298 
L 156.784906 84.913831 
L 160.21278 84.725714 
L 162.427714 84.443539 
L 163.798864 84.208393 
L 164.642648 84.067305 
L 167.96505 83.973247 
L 169.810828 83.926218 
L 171.709343 83.78513 
L 175.453636 83.502955 
L 178.934247 83.502955 
L 179.514349 83.502955 
L 180.199924 83.502955 
L 181.254655 83.361867 
L 182.098439 83.314838 
L 184.682529 83.17375 
L 189.850709 81.950991 
L 190.852703 81.950991 
L 195.704463 81.762874 
L 196.81193 81.715845 
L 197.919397 81.715845 
L 199.712439 81.621786 
L 201.189062 81.621786 
L 202.612948 81.43367 
L 203.509469 81.480699 
L 206.409978 81.480699 
L 209.41596 80.399027 
L 210.892583 80.351998 
L 211.947314 79.740618 
L 213.265727 80.493085 
L 214.373194 80.163881 
L 215.691607 79.458443 
L 218.803062 79.129238 
L 220.437895 79.082209 
L 222.01999 78.988151 
L 223.654823 78.988151 
L 225.236919 79.03518 
L 226.871751 78.988151 
L 228.506583 78.988151 
L 230.035943 78.941121 
L 231.670775 78.941121 
L 233.252871 78.941121 
L 234.887703 78.894092 
L 236.469799 78.894092 
L 238.104631 78.894092 
L 239.739464 78.800034 
L 241.32156 78.941121 
L 242.956392 78.941121 
L 244.538488 78.847063 
L 246.17332 78.847063 
L 247.808153 78.753005 
L 249.284775 78.753005 
L 250.919608 78.753005 
L 252.501704 78.753005 
L 254.136536 78.705975 
L 255.718632 78.470829 
L 257.353464 78.376771 
L 258.988296 78.282713 
L 260.570392 78.235683 
L 262.205225 78.329742 
L 263.78732 78.235683 
L 265.422153 78.235683 
L 267.056985 78.235683 
L 268.533608 78.235683 
L 270.16844 78.235683 
L 271.750536 78.235683 
L 273.385369 78.141625 
L 274.967464 78.141625 
L 276.602297 78.141625 
L 278.237129 77.012924 
L 279.819225 76.824807 
L 281.454057 76.777778 
L 283.036153 76.777778 
L 284.670985 76.730749 
L 286.305818 76.730749 
L 287.782441 76.730749 
L 289.417273 76.63669 
L 290.999369 76.63669 
L 292.634201 76.63669 
L 294.216297 76.63669 
L 295.851129 76.63669 
L 297.485962 76.63669 
L 299.068058 76.63669 
L 300.70289 76.63669 
L 302.284986 76.589661 
L 303.919818 76.542632 
L 305.55465 76.542632 
L 307.08401 76.495603 
L 308.718842 76.495603 
L 310.300938 76.495603 
L 311.93577 76.495603 
L 313.517866 76.495603 
L 315.152699 76.448573 
L 316.787531 76.401544 
L 318.369627 76.354515 
L 320.004459 76.354515 
L 321.586555 76.307486 
L 323.221387 76.307486 
L 324.85622 76.307486 
L 326.332842 76.307486 
L 327.967675 76.260456 
L 329.549771 76.213427 
L 331.184603 76.02531 
L 332.766699 74.896609 
L 334.401531 74.661463 
L 336.036364 74.614434 
L 337.618459 74.755522 
L 339.253292 74.755522 
L 340.835388 74.755522 
L 342.47022 74.567405 
L 344.105052 74.567405 
L 345.581675 74.567405 
L 347.216507 74.473346 
L 348.798603 74.426317 
L 350.433436 74.379288 
L 352.015531 74.379288 
L 353.650364 74.379288 
L 355.285196 74.332259 
L 356.867292 74.332259 
L 358.502124 74.332259 
L 360.08422 74.2382 
L 361.719053 74.2382 
L 363.353885 74.28523 
L 364.830508 74.28523 
L 366.46534 74.28523 
L 368.047436 74.28523 
L 369.682268 74.379288 
L 371.264364 74.379288 
L 372.899196 74.379288 
L 374.534029 74.379288 
L 376.116125 74.379288 
L 377.750957 74.379288 
L 379.333053 74.379288 
L 380.967885 74.379288 
L 382.602718 74.379288 
L 384.132077 74.332259 
L 385.766909 74.332259 
L 387.349005 74.379288 
L 388.983837 74.473346 
L 390.565933 74.473346 
L 392.200766 74.426317 
L 393.835598 74.426317 
L 395.417694 74.473346 
L 397.052526 74.473346 
L 398.634622 74.473346 
L 400.269454 74.520376 
L 401.904287 74.520376 
L 403.380909 74.473346 
L 405.015742 74.426317 
L 406.597838 74.379288 
L 408.23267 74.379288 
L 409.814766 74.379288 
L 411.449598 74.332259 
L 413.084431 74.332259 
L 414.666526 74.332259 
L 416.301359 74.2382 
L 417.883455 74.28523 
L 419.518287 74.2382 
L 421.153119 74.2382 
L 422.629742 74.2382 
L 424.264574 74.2382 
L 425.84667 74.2382 
L 427.481503 74.144142 
L 429.063598 74.050084 
L 430.698431 74.050084 
L 432.333263 74.050084 
L 433.915359 74.050084 
L 435.550191 74.003054 
L 437.132287 74.003054 
L 438.76712 73.908996 
L 440.401952 73.908996 
L 441.878575 73.861967 
L 443.513407 73.861967 
L 445.095503 73.861967 
L 446.730335 73.861967 
L 448.312431 73.861967 
L 449.947263 73.767908 
L 449.947263 61.493284 
L 449.947263 61.493284 
L 448.312431 61.493284 
L 446.730335 61.493284 
L 445.095503 61.493284 
L 443.513407 61.493284 
L 441.878575 61.493284 
L 440.401952 61.728431 
L 438.76712 61.77546 
L 437.132287 61.822489 
L 435.550191 61.822489 
L 433.915359 61.822489 
L 432.333263 61.822489 
L 430.698431 61.822489 
L 429.063598 61.822489 
L 427.481503 61.822489 
L 425.84667 61.822489 
L 424.264574 61.822489 
L 422.629742 61.869518 
L 421.153119 61.822489 
L 419.518287 61.822489 
L 417.883455 61.869518 
L 416.301359 61.540314 
L 414.666526 61.540314 
L 413.084431 61.117051 
L 411.449598 61.117051 
L 409.814766 61.117051 
L 408.23267 61.117051 
L 406.597838 61.117051 
L 405.015742 61.117051 
L 403.380909 61.16408 
L 401.904287 61.16408 
L 400.269454 61.16408 
L 398.634622 61.117051 
L 397.052526 61.117051 
L 395.417694 61.117051 
L 393.835598 61.16408 
L 392.200766 61.16408 
L 390.565933 61.16408 
L 388.983837 61.16408 
L 387.349005 61.070022 
L 385.766909 61.022992 
L 384.132077 61.022992 
L 382.602718 61.022992 
L 380.967885 61.022992 
L 379.333053 61.022992 
L 377.750957 61.022992 
L 376.116125 61.022992 
L 374.534029 61.022992 
L 372.899196 61.022992 
L 371.264364 61.022992 
L 369.682268 61.022992 
L 368.047436 60.928934 
L 366.46534 60.928934 
L 364.830508 60.928934 
L 363.353885 60.928934 
L 361.719053 60.928934 
L 360.08422 60.928934 
L 358.502124 60.928934 
L 356.867292 60.928934 
L 355.285196 60.928934 
L 353.650364 60.881905 
L 352.015531 60.881905 
L 350.433436 60.881905 
L 348.798603 60.881905 
L 347.216507 60.881905 
L 345.581675 60.881905 
L 344.105052 60.881905 
L 342.47022 60.881905 
L 340.835388 60.881905 
L 339.253292 60.881905 
L 337.618459 60.881905 
L 336.036364 60.881905 
L 334.401531 60.881905 
L 332.766699 60.881905 
L 331.184603 60.881905 
L 329.549771 60.881905 
L 327.967675 60.881905 
L 326.332842 60.881905 
L 324.85622 60.881905 
L 323.221387 60.881905 
L 321.586555 60.881905 
L 320.004459 60.881905 
L 318.369627 60.881905 
L 316.787531 60.881905 
L 315.152699 60.881905 
L 313.517866 60.881905 
L 311.93577 60.881905 
L 310.300938 60.881905 
L 308.718842 60.881905 
L 307.08401 61.305168 
L 305.55465 61.352197 
L 303.919818 61.352197 
L 302.284986 61.352197 
L 300.70289 61.540314 
L 299.068058 61.540314 
L 297.485962 61.540314 
L 295.851129 61.540314 
L 294.216297 61.540314 
L 292.634201 61.540314 
L 290.999369 61.540314 
L 289.417273 61.540314 
L 287.782441 61.540314 
L 286.305818 61.540314 
L 284.670985 61.540314 
L 283.036153 61.587343 
L 281.454057 61.587343 
L 279.819225 61.587343 
L 278.237129 61.587343 
L 276.602297 61.258138 
L 274.967464 61.446255 
L 273.385369 61.399226 
L 271.750536 61.399226 
L 270.16844 61.399226 
L 268.533608 61.399226 
L 267.056985 61.399226 
L 265.422153 61.399226 
L 263.78732 61.399226 
L 262.205225 61.446255 
L 260.570392 61.446255 
L 258.988296 61.446255 
L 257.353464 61.399226 
L 255.718632 61.399226 
L 254.136536 61.399226 
L 252.501704 61.399226 
L 250.919608 61.399226 
L 249.284775 61.399226 
L 247.808153 61.399226 
L 246.17332 61.399226 
L 244.538488 61.399226 
L 242.956392 61.399226 
L 241.32156 61.446255 
L 239.739464 61.399226 
L 238.104631 61.446255 
L 236.469799 61.399226 
L 234.887703 61.399226 
L 233.252871 61.399226 
L 231.670775 61.399226 
L 230.035943 61.399226 
L 228.506583 61.399226 
L 226.871751 61.446255 
L 225.236919 61.446255 
L 223.654823 61.399226 
L 222.01999 61.399226 
L 220.437895 61.399226 
L 218.803062 61.493284 
L 215.691607 61.822489 
L 214.373194 62.621986 
L 213.265727 62.716044 
L 211.947314 61.963577 
L 210.892583 63.797716 
L 209.41596 63.797716 
L 206.409978 65.490767 
L 203.509469 65.490767 
L 202.612948 65.443738 
L 201.189062 65.631855 
L 199.712439 65.584826 
L 197.919397 65.584826 
L 196.81193 65.584826 
L 195.704463 65.584826 
L 190.852703 65.961059 
L 189.850709 65.961059 
L 184.682529 66.196206 
L 182.098439 66.149176 
L 181.254655 66.149176 
L 180.199924 66.243235 
L 179.514349 66.243235 
L 178.934247 66.243235 
L 175.453636 66.901644 
L 171.709343 67.042731 
L 169.810828 67.042731 
L 167.96505 67.042731 
L 164.642648 67.042731 
L 163.798864 66.995702 
L 162.427714 66.995702 
L 160.21278 66.854614 
L 156.784906 66.807585 
L 155.519229 68.030345 
L 152.565983 68.171432 
L 150.983888 68.31252 
L 149.138109 68.171432 
L 147.028648 68.171432 
L 145.499289 68.124403 
L 144.339085 68.124403 
L 143.548037 68.124403 
L 142.387834 68.077374 
L 141.280366 68.077374 
L 140.542055 68.124403 
L 140.331109 68.124403 
L 139.540061 68.124403 
L 138.485331 68.641724 
L 137.008708 68.124403 
L 136.481342 68.124403 
L 135.901241 68.171432 
L 135.057456 68.077374 
L 134.266408 68.077374 
L 133.528097 68.547666 
L 132.473366 68.453608 
L 132.104211 67.936286 
L 131.102217 68.594695 
L 129.83654 68.406578 
L 128.887282 68.453608 
L 128.359917 68.453608 
L 127.463396 68.453608 
L 126.883294 68.500637 
L 125.986773 69.112017 
L 125.248462 68.453608 
L 124.351941 68.453608 
L 120.87133 69.629338 
L 120.607648 69.676367 
L 118.498187 69.629338 
L 113.910109 68.547666 
L 111.431492 69.629338 
L 101.833444 70.569922 
L 86.381641 71.087243 
L 65.392503 71.933769 
L 47.303874 72.45109 
L 38.496874 73.67385 
L 29.584401 73.485733 
z
" clip-path="url(#p5ca167a2c7)" style="fill: #d62728"/>
   </g>
   <g id="matplotlib.axis_1">
    <g id="xtick_1">
     <g id="line2d_1">
      <defs>
       <path id="mac3b16b3df" d="M 0 0 
L 0 3.5 
" style="stroke: #000000; stroke-width: 0.8"/>
      </defs>
      <g>
       <use xlink:href="#mac3b16b3df" x="72.775617" y="299.32" style="stroke: #000000; stroke-width: 0.8"/>
      </g>
     </g>
     <g id="text_1">
      <!-- 2004 -->
      <g transform="translate(60.050617 313.918437) scale(0.1 -0.1)">
       <defs>
        <path id="DejaVuSans-32" d="M 1228 531 
L 3431 531 
L 3431 0 
L 469 0 
L 469 531 
Q 828 903 1448 1529 
Q 2069 2156 2228 2338 
Q 2531 2678 2651 2914 
Q 2772 3150 2772 3378 
Q 2772 3750 2511 3984 
Q 2250 4219 1831 4219 
Q 1534 4219 1204 4116 
Q 875 4013 500 3803 
L 500 4441 
Q 881 4594 1212 4672 
Q 1544 4750 1819 4750 
Q 2544 4750 2975 4387 
Q 3406 4025 3406 3419 
Q 3406 3131 3298 2873 
Q 3191 2616 2906 2266 
Q 2828 2175 2409 1742 
Q 1991 1309 1228 531 
z
" transform="scale(0.015625)"/>
        <path id="DejaVuSans-30" d="M 2034 4250 
Q 1547 4250 1301 3770 
Q 1056 3291 1056 2328 
Q 1056 1369 1301 889 
Q 1547 409 2034 409 
Q 2525 409 2770 889 
Q 3016 1369 3016 2328 
Q 3016 3291 2770 3770 
Q 2525 4250 2034 4250 
z
M 2034 4750 
Q 2819 4750 3233 4129 
Q 3647 3509 3647 2328 
Q 3647 1150 3233 529 
Q 2819 -91 2034 -91 
Q 1250 -91 836 529 
Q 422 1150 422 2328 
Q 422 3509 836 4129 
Q 1250 4750 2034 4750 
z
" transform="scale(0.015625)"/>
        <path id="DejaVuSans-34" d="M 2419 4116 
L 825 1625 
L 2419 1625 
L 2419 4116 
z
M 2253 4666 
L 3047 4666 
L 3047 1625 
L 3713 1625 
L 3713 1100 
L 3047 1100 
L 3047 0 
L 2419 0 
L 2419 1100 
L 313 1100 
L 313 1709 
L 2253 4666 
z
" transform="scale(0.015625)"/>
       </defs>
       <use xlink:href="#DejaVuSans-32"/>
       <use xlink:href="#DejaVuSans-30" x="63.623047"/>
       <use xlink:href="#DejaVuSans-30" x="127.246094"/>
       <use xlink:href="#DejaVuSans-34" x="190.869141"/>
      </g>
     </g>
    </g>
    <g id="xtick_2">
     <g id="line2d_2">
      <g>
       <use xlink:href="#mac3b16b3df" x="111.326019" y="299.32" style="stroke: #000000; stroke-width: 0.8"/>
      </g>
     </g>
     <g id="text_2">
      <!-- 2006 -->
      <g transform="translate(98.601019 313.918437) scale(0.1 -0.1)">
       <defs>
        <path id="DejaVuSans-36" d="M 2113 2584 
Q 1688 2584 1439 2293 
Q 1191 2003 1191 1497 
Q 1191 994 1439 701 
Q 1688 409 2113 409 
Q 2538 409 2786 701 
Q 3034 994 3034 1497 
Q 3034 2003 2786 2293 
Q 2538 2584 2113 2584 
z
M 3366 4563 
L 3366 3988 
Q 3128 4100 2886 4159 
Q 2644 4219 2406 4219 
Q 1781 4219 1451 3797 
Q 1122 3375 1075 2522 
Q 1259 2794 1537 2939 
Q 1816 3084 2150 3084 
Q 2853 3084 3261 2657 
Q 3669 2231 3669 1497 
Q 3669 778 3244 343 
Q 2819 -91 2113 -91 
Q 1303 -91 875 529 
Q 447 1150 447 2328 
Q 447 3434 972 4092 
Q 1497 4750 2381 4750 
Q 2619 4750 2861 4703 
Q 3103 4656 3366 4563 
z
" transform="scale(0.015625)"/>
       </defs>
       <use xlink:href="#DejaVuSans-32"/>
       <use xlink:href="#DejaVuSans-30" x="63.623047"/>
       <use xlink:href="#DejaVuSans-30" x="127.246094"/>
       <use xlink:href="#DejaVuSans-36" x="190.869141"/>
      </g>
     </g>
    </g>
    <g id="xtick_3">
     <g id="line2d_3">
      <g>
       <use xlink:href="#mac3b16b3df" x="149.823684" y="299.32" style="stroke: #000000; stroke-width: 0.8"/>
      </g>
     </g>
     <g id="text_3">
      <!-- 2008 -->
      <g transform="translate(137.098684 313.918437) scale(0.1 -0.1)">
       <defs>
        <path id="DejaVuSans-38" d="M 2034 2216 
Q 1584 2216 1326 1975 
Q 1069 1734 1069 1313 
Q 1069 891 1326 650 
Q 1584 409 2034 409 
Q 2484 409 2743 651 
Q 3003 894 3003 1313 
Q 3003 1734 2745 1975 
Q 2488 2216 2034 2216 
z
M 1403 2484 
Q 997 2584 770 2862 
Q 544 3141 544 3541 
Q 544 4100 942 4425 
Q 1341 4750 2034 4750 
Q 2731 4750 3128 4425 
Q 3525 4100 3525 3541 
Q 3525 3141 3298 2862 
Q 3072 2584 2669 2484 
Q 3125 2378 3379 2068 
Q 3634 1759 3634 1313 
Q 3634 634 3220 271 
Q 2806 -91 2034 -91 
Q 1263 -91 848 271 
Q 434 634 434 1313 
Q 434 1759 690 2068 
Q 947 2378 1403 2484 
z
M 1172 3481 
Q 1172 3119 1398 2916 
Q 1625 2713 2034 2713 
Q 2441 2713 2670 2916 
Q 2900 3119 2900 3481 
Q 2900 3844 2670 4047 
Q 2441 4250 2034 4250 
Q 1625 4250 1398 4047 
Q 1172 3844 1172 3481 
z
" transform="scale(0.015625)"/>
       </defs>
       <use xlink:href="#DejaVuSans-32"/>
       <use xlink:href="#DejaVuSans-30" x="63.623047"/>
       <use xlink:href="#DejaVuSans-30" x="127.246094"/>
       <use xlink:href="#DejaVuSans-38" x="190.869141"/>
      </g>
     </g>
    </g>
    <g id="xtick_4">
     <g id="line2d_4">
      <g>
       <use xlink:href="#mac3b16b3df" x="188.374086" y="299.32" style="stroke: #000000; stroke-width: 0.8"/>
      </g>
     </g>
     <g id="text_4">
      <!-- 2010 -->
      <g transform="translate(175.649086 313.918437) scale(0.1 -0.1)">
       <defs>
        <path id="DejaVuSans-31" d="M 794 531 
L 1825 531 
L 1825 4091 
L 703 3866 
L 703 4441 
L 1819 4666 
L 2450 4666 
L 2450 531 
L 3481 531 
L 3481 0 
L 794 0 
L 794 531 
z
" transform="scale(0.015625)"/>
       </defs>
       <use xlink:href="#DejaVuSans-32"/>
       <use xlink:href="#DejaVuSans-30" x="63.623047"/>
       <use xlink:href="#DejaVuSans-31" x="127.246094"/>
       <use xlink:href="#DejaVuSans-30" x="190.869141"/>
      </g>
     </g>
    </g>
    <g id="xtick_5">
     <g id="line2d_5">
      <g>
       <use xlink:href="#mac3b16b3df" x="226.871751" y="299.32" style="stroke: #000000; stroke-width: 0.8"/>
      </g>
     </g>
     <g id="text_5">
      <!-- 2012 -->
      <g transform="translate(214.146751 313.918437) scale(0.1 -0.1)">
       <use xlink:href="#DejaVuSans-32"/>
       <use xlink:href="#DejaVuSans-30" x="63.623047"/>
       <use xlink:href="#DejaVuSans-31" x="127.246094"/>
       <use xlink:href="#DejaVuSans-32" x="190.869141"/>
      </g>
     </g>
    </g>
    <g id="xtick_6">
     <g id="line2d_6">
      <g>
       <use xlink:href="#mac3b16b3df" x="265.422153" y="299.32" style="stroke: #000000; stroke-width: 0.8"/>
      </g>
     </g>
     <g id="text_6">
      <!-- 2014 -->
      <g transform="translate(252.697153 313.918437) scale(0.1 -0.1)">
       <use xlink:href="#DejaVuSans-32"/>
       <use xlink:href="#DejaVuSans-30" x="63.623047"/>
       <use xlink:href="#DejaVuSans-31" x="127.246094"/>
       <use xlink:href="#DejaVuSans-34" x="190.869141"/>
      </g>
     </g>
    </g>
    <g id="xtick_7">
     <g id="line2d_7">
      <g>
       <use xlink:href="#mac3b16b3df" x="303.919818" y="299.32" style="stroke: #000000; stroke-width: 0.8"/>
      </g>
     </g>
     <g id="text_7">
      <!-- 2016 -->
      <g transform="translate(291.194818 313.918437) scale(0.1 -0.1)">
       <use xlink:href="#DejaVuSans-32"/>
       <use xlink:href="#DejaVuSans-30" x="63.623047"/>
       <use xlink:href="#DejaVuSans-31" x="127.246094"/>
       <use xlink:href="#DejaVuSans-36" x="190.869141"/>
      </g>
     </g>
    </g>
    <g id="xtick_8">
     <g id="line2d_8">
      <g>
       <use xlink:href="#mac3b16b3df" x="342.47022" y="299.32" style="stroke: #000000; stroke-width: 0.8"/>
      </g>
     </g>
     <g id="text_8">
      <!-- 2018 -->
      <g transform="translate(329.74522 313.918437) scale(0.1 -0.1)">
       <use xlink:href="#DejaVuSans-32"/>
       <use xlink:href="#DejaVuSans-30" x="63.623047"/>
       <use xlink:href="#DejaVuSans-31" x="127.246094"/>
       <use xlink:href="#DejaVuSans-38" x="190.869141"/>
      </g>
     </g>
    </g>
    <g id="xtick_9">
     <g id="line2d_9">
      <g>
       <use xlink:href="#mac3b16b3df" x="380.967885" y="299.32" style="stroke: #000000; stroke-width: 0.8"/>
      </g>
     </g>
     <g id="text_9">
      <!-- 2020 -->
      <g transform="translate(368.242885 313.918437) scale(0.1 -0.1)">
       <use xlink:href="#DejaVuSans-32"/>
       <use xlink:href="#DejaVuSans-30" x="63.623047"/>
       <use xlink:href="#DejaVuSans-32" x="127.246094"/>
       <use xlink:href="#DejaVuSans-30" x="190.869141"/>
      </g>
     </g>
    </g>
    <g id="xtick_10">
     <g id="line2d_10">
      <g>
       <use xlink:href="#mac3b16b3df" x="419.518287" y="299.32" style="stroke: #000000; stroke-width: 0.8"/>
      </g>
     </g>
     <g id="text_10">
      <!-- 2022 -->
      <g transform="translate(406.793287 313.918437) scale(0.1 -0.1)">
       <use xlink:href="#DejaVuSans-32"/>
       <use xlink:href="#DejaVuSans-30" x="63.623047"/>
       <use xlink:href="#DejaVuSans-32" x="127.246094"/>
       <use xlink:href="#DejaVuSans-32" x="190.869141"/>
      </g>
     </g>
    </g>
    <g id="text_11">
     <!-- Year -->
     <g transform="translate(239.86375 331.395781) scale(0.15 -0.15)">
      <defs>
       <path id="DejaVuSans-59" d="M -13 4666 
L 666 4666 
L 1959 2747 
L 3244 4666 
L 3922 4666 
L 2272 2222 
L 2272 0 
L 1638 0 
L 1638 2222 
L -13 4666 
z
" transform="scale(0.015625)"/>
       <path id="DejaVuSans-65" d="M 3597 1894 
L 3597 1613 
L 953 1613 
Q 991 1019 1311 708 
Q 1631 397 2203 397 
Q 2534 397 2845 478 
Q 3156 559 3463 722 
L 3463 178 
Q 3153 47 2828 -22 
Q 2503 -91 2169 -91 
Q 1331 -91 842 396 
Q 353 884 353 1716 
Q 353 2575 817 3079 
Q 1281 3584 2069 3584 
Q 2775 3584 3186 3129 
Q 3597 2675 3597 1894 
z
M 3022 2063 
Q 3016 2534 2758 2815 
Q 2500 3097 2075 3097 
Q 1594 3097 1305 2825 
Q 1016 2553 972 2059 
L 3022 2063 
z
" transform="scale(0.015625)"/>
       <path id="DejaVuSans-61" d="M 2194 1759 
Q 1497 1759 1228 1600 
Q 959 1441 959 1056 
Q 959 750 1161 570 
Q 1363 391 1709 391 
Q 2188 391 2477 730 
Q 2766 1069 2766 1631 
L 2766 1759 
L 2194 1759 
z
M 3341 1997 
L 3341 0 
L 2766 0 
L 2766 531 
Q 2569 213 2275 61 
Q 1981 -91 1556 -91 
Q 1019 -91 701 211 
Q 384 513 384 1019 
Q 384 1609 779 1909 
Q 1175 2209 1959 2209 
L 2766 2209 
L 2766 2266 
Q 2766 2663 2505 2880 
Q 2244 3097 1772 3097 
Q 1472 3097 1187 3025 
Q 903 2953 641 2809 
L 641 3341 
Q 956 3463 1253 3523 
Q 1550 3584 1831 3584 
Q 2591 3584 2966 3190 
Q 3341 2797 3341 1997 
z
" transform="scale(0.015625)"/>
       <path id="DejaVuSans-72" d="M 2631 2963 
Q 2534 3019 2420 3045 
Q 2306 3072 2169 3072 
Q 1681 3072 1420 2755 
Q 1159 2438 1159 1844 
L 1159 0 
L 581 0 
L 581 3500 
L 1159 3500 
L 1159 2956 
Q 1341 3275 1631 3429 
Q 1922 3584 2338 3584 
Q 2397 3584 2469 3576 
Q 2541 3569 2628 3553 
L 2631 2963 
z
" transform="scale(0.015625)"/>
      </defs>
      <use xlink:href="#DejaVuSans-59"/>
      <use xlink:href="#DejaVuSans-65" x="47.833984"/>
      <use xlink:href="#DejaVuSans-61" x="109.357422"/>
      <use xlink:href="#DejaVuSans-72" x="170.636719"/>
     </g>
    </g>
   </g>
   <g id="matplotlib.axis_2">
    <g id="ytick_1">
     <g id="line2d_11">
      <defs>
       <path id="m5eafafd19a" d="M 0 0 
L -3.5 0 
" style="stroke: #000000; stroke-width: 0.8"/>
      </defs>
      <g>
       <use xlink:href="#m5eafafd19a" x="61.49" y="299.32" style="stroke: #000000; stroke-width: 0.8"/>
      </g>
     </g>
     <g id="text_12">
      <!-- 0 -->
      <g transform="translate(48.1275 303.119219) scale(0.1 -0.1)">
       <use xlink:href="#DejaVuSans-30"/>
      </g>
     </g>
    </g>
    <g id="ytick_2">
     <g id="line2d_12">
      <g>
       <use xlink:href="#m5eafafd19a" x="61.49" y="252.29079" style="stroke: #000000; stroke-width: 0.8"/>
      </g>
     </g>
     <g id="text_13">
      <!-- 1000 -->
      <g transform="translate(29.04 256.090009) scale(0.1 -0.1)">
       <use xlink:href="#DejaVuSans-31"/>
       <use xlink:href="#DejaVuSans-30" x="63.623047"/>
       <use xlink:href="#DejaVuSans-30" x="127.246094"/>
       <use xlink:href="#DejaVuSans-30" x="190.869141"/>
      </g>
     </g>
    </g>
    <g id="ytick_3">
     <g id="line2d_13">
      <g>
       <use xlink:href="#m5eafafd19a" x="61.49" y="205.26158" style="stroke: #000000; stroke-width: 0.8"/>
      </g>
     </g>
     <g id="text_14">
      <!-- 2000 -->
      <g transform="translate(29.04 209.060799) scale(0.1 -0.1)">
       <use xlink:href="#DejaVuSans-32"/>
       <use xlink:href="#DejaVuSans-30" x="63.623047"/>
       <use xlink:href="#DejaVuSans-30" x="127.246094"/>
       <use xlink:href="#DejaVuSans-30" x="190.869141"/>
      </g>
     </g>
    </g>
    <g id="ytick_4">
     <g id="line2d_14">
      <g>
       <use xlink:href="#m5eafafd19a" x="61.49" y="158.23237" style="stroke: #000000; stroke-width: 0.8"/>
      </g>
     </g>
     <g id="text_15">
      <!-- 3000 -->
      <g transform="translate(29.04 162.031588) scale(0.1 -0.1)">
       <defs>
        <path id="DejaVuSans-33" d="M 2597 2516 
Q 3050 2419 3304 2112 
Q 3559 1806 3559 1356 
Q 3559 666 3084 287 
Q 2609 -91 1734 -91 
Q 1441 -91 1130 -33 
Q 819 25 488 141 
L 488 750 
Q 750 597 1062 519 
Q 1375 441 1716 441 
Q 2309 441 2620 675 
Q 2931 909 2931 1356 
Q 2931 1769 2642 2001 
Q 2353 2234 1838 2234 
L 1294 2234 
L 1294 2753 
L 1863 2753 
Q 2328 2753 2575 2939 
Q 2822 3125 2822 3475 
Q 2822 3834 2567 4026 
Q 2313 4219 1838 4219 
Q 1578 4219 1281 4162 
Q 984 4106 628 3988 
L 628 4550 
Q 988 4650 1302 4700 
Q 1616 4750 1894 4750 
Q 2613 4750 3031 4423 
Q 3450 4097 3450 3541 
Q 3450 3153 3228 2886 
Q 3006 2619 2597 2516 
z
" transform="scale(0.015625)"/>
       </defs>
       <use xlink:href="#DejaVuSans-33"/>
       <use xlink:href="#DejaVuSans-30" x="63.623047"/>
       <use xlink:href="#DejaVuSans-30" x="127.246094"/>
       <use xlink:href="#DejaVuSans-30" x="190.869141"/>
      </g>
     </g>
    </g>
    <g id="ytick_5">
     <g id="line2d_15">
      <g>
       <use xlink:href="#m5eafafd19a" x="61.49" y="111.20316" style="stroke: #000000; stroke-width: 0.8"/>
      </g>
     </g>
     <g id="text_16">
      <!-- 4000 -->
      <g transform="translate(29.04 115.002378) scale(0.1 -0.1)">
       <use xlink:href="#DejaVuSans-34"/>
       <use xlink:href="#DejaVuSans-30" x="63.623047"/>
       <use xlink:href="#DejaVuSans-30" x="127.246094"/>
       <use xlink:href="#DejaVuSans-30" x="190.869141"/>
      </g>
     </g>
    </g>
    <g id="ytick_6">
     <g id="line2d_16">
      <g>
       <use xlink:href="#m5eafafd19a" x="61.49" y="64.173949" style="stroke: #000000; stroke-width: 0.8"/>
      </g>
     </g>
     <g id="text_17">
      <!-- 5000 -->
      <g transform="translate(29.04 67.973168) scale(0.1 -0.1)">
       <defs>
        <path id="DejaVuSans-35" d="M 691 4666 
L 3169 4666 
L 3169 4134 
L 1269 4134 
L 1269 2991 
Q 1406 3038 1543 3061 
Q 1681 3084 1819 3084 
Q 2600 3084 3056 2656 
Q 3513 2228 3513 1497 
Q 3513 744 3044 326 
Q 2575 -91 1722 -91 
Q 1428 -91 1123 -41 
Q 819 9 494 109 
L 494 744 
Q 775 591 1075 516 
Q 1375 441 1709 441 
Q 2250 441 2565 725 
Q 2881 1009 2881 1497 
Q 2881 1984 2565 2268 
Q 2250 2553 1709 2553 
Q 1456 2553 1204 2497 
Q 953 2441 691 2322 
L 691 4666 
z
" transform="scale(0.015625)"/>
       </defs>
       <use xlink:href="#DejaVuSans-35"/>
       <use xlink:href="#DejaVuSans-30" x="63.623047"/>
       <use xlink:href="#DejaVuSans-30" x="127.246094"/>
       <use xlink:href="#DejaVuSans-30" x="190.869141"/>
      </g>
     </g>
    </g>
    <g id="text_18">
     <!-- Number of genes -->
     <g transform="translate(21.920469 238.916562) rotate(-90) scale(0.15 -0.15)">
      <defs>
       <path id="DejaVuSans-4e" d="M 628 4666 
L 1478 4666 
L 3547 763 
L 3547 4666 
L 4159 4666 
L 4159 0 
L 3309 0 
L 1241 3903 
L 1241 0 
L 628 0 
L 628 4666 
z
" transform="scale(0.015625)"/>
       <path id="DejaVuSans-75" d="M 544 1381 
L 544 3500 
L 1119 3500 
L 1119 1403 
Q 1119 906 1312 657 
Q 1506 409 1894 409 
Q 2359 409 2629 706 
Q 2900 1003 2900 1516 
L 2900 3500 
L 3475 3500 
L 3475 0 
L 2900 0 
L 2900 538 
Q 2691 219 2414 64 
Q 2138 -91 1772 -91 
Q 1169 -91 856 284 
Q 544 659 544 1381 
z
M 1991 3584 
L 1991 3584 
z
" transform="scale(0.015625)"/>
       <path id="DejaVuSans-6d" d="M 3328 2828 
Q 3544 3216 3844 3400 
Q 4144 3584 4550 3584 
Q 5097 3584 5394 3201 
Q 5691 2819 5691 2113 
L 5691 0 
L 5113 0 
L 5113 2094 
Q 5113 2597 4934 2840 
Q 4756 3084 4391 3084 
Q 3944 3084 3684 2787 
Q 3425 2491 3425 1978 
L 3425 0 
L 2847 0 
L 2847 2094 
Q 2847 2600 2669 2842 
Q 2491 3084 2119 3084 
Q 1678 3084 1418 2786 
Q 1159 2488 1159 1978 
L 1159 0 
L 581 0 
L 581 3500 
L 1159 3500 
L 1159 2956 
Q 1356 3278 1631 3431 
Q 1906 3584 2284 3584 
Q 2666 3584 2933 3390 
Q 3200 3197 3328 2828 
z
" transform="scale(0.015625)"/>
       <path id="DejaVuSans-62" d="M 3116 1747 
Q 3116 2381 2855 2742 
Q 2594 3103 2138 3103 
Q 1681 3103 1420 2742 
Q 1159 2381 1159 1747 
Q 1159 1113 1420 752 
Q 1681 391 2138 391 
Q 2594 391 2855 752 
Q 3116 1113 3116 1747 
z
M 1159 2969 
Q 1341 3281 1617 3432 
Q 1894 3584 2278 3584 
Q 2916 3584 3314 3078 
Q 3713 2572 3713 1747 
Q 3713 922 3314 415 
Q 2916 -91 2278 -91 
Q 1894 -91 1617 61 
Q 1341 213 1159 525 
L 1159 0 
L 581 0 
L 581 4863 
L 1159 4863 
L 1159 2969 
z
" transform="scale(0.015625)"/>
       <path id="DejaVuSans-20" transform="scale(0.015625)"/>
       <path id="DejaVuSans-6f" d="M 1959 3097 
Q 1497 3097 1228 2736 
Q 959 2375 959 1747 
Q 959 1119 1226 758 
Q 1494 397 1959 397 
Q 2419 397 2687 759 
Q 2956 1122 2956 1747 
Q 2956 2369 2687 2733 
Q 2419 3097 1959 3097 
z
M 1959 3584 
Q 2709 3584 3137 3096 
Q 3566 2609 3566 1747 
Q 3566 888 3137 398 
Q 2709 -91 1959 -91 
Q 1206 -91 779 398 
Q 353 888 353 1747 
Q 353 2609 779 3096 
Q 1206 3584 1959 3584 
z
" transform="scale(0.015625)"/>
       <path id="DejaVuSans-66" d="M 2375 4863 
L 2375 4384 
L 1825 4384 
Q 1516 4384 1395 4259 
Q 1275 4134 1275 3809 
L 1275 3500 
L 2222 3500 
L 2222 3053 
L 1275 3053 
L 1275 0 
L 697 0 
L 697 3053 
L 147 3053 
L 147 3500 
L 697 3500 
L 697 3744 
Q 697 4328 969 4595 
Q 1241 4863 1831 4863 
L 2375 4863 
z
" transform="scale(0.015625)"/>
       <path id="DejaVuSans-67" d="M 2906 1791 
Q 2906 2416 2648 2759 
Q 2391 3103 1925 3103 
Q 1463 3103 1205 2759 
Q 947 2416 947 1791 
Q 947 1169 1205 825 
Q 1463 481 1925 481 
Q 2391 481 2648 825 
Q 2906 1169 2906 1791 
z
M 3481 434 
Q 3481 -459 3084 -895 
Q 2688 -1331 1869 -1331 
Q 1566 -1331 1297 -1286 
Q 1028 -1241 775 -1147 
L 775 -588 
Q 1028 -725 1275 -790 
Q 1522 -856 1778 -856 
Q 2344 -856 2625 -561 
Q 2906 -266 2906 331 
L 2906 616 
Q 2728 306 2450 153 
Q 2172 0 1784 0 
Q 1141 0 747 490 
Q 353 981 353 1791 
Q 353 2603 747 3093 
Q 1141 3584 1784 3584 
Q 2172 3584 2450 3431 
Q 2728 3278 2906 2969 
L 2906 3500 
L 3481 3500 
L 3481 434 
z
" transform="scale(0.015625)"/>
       <path id="DejaVuSans-6e" d="M 3513 2113 
L 3513 0 
L 2938 0 
L 2938 2094 
Q 2938 2591 2744 2837 
Q 2550 3084 2163 3084 
Q 1697 3084 1428 2787 
Q 1159 2491 1159 1978 
L 1159 0 
L 581 0 
L 581 3500 
L 1159 3500 
L 1159 2956 
Q 1366 3272 1645 3428 
Q 1925 3584 2291 3584 
Q 2894 3584 3203 3211 
Q 3513 2838 3513 2113 
z
" transform="scale(0.015625)"/>
       <path id="DejaVuSans-73" d="M 2834 3397 
L 2834 2853 
Q 2591 2978 2328 3040 
Q 2066 3103 1784 3103 
Q 1356 3103 1142 2972 
Q 928 2841 928 2578 
Q 928 2378 1081 2264 
Q 1234 2150 1697 2047 
L 1894 2003 
Q 2506 1872 2764 1633 
Q 3022 1394 3022 966 
Q 3022 478 2636 193 
Q 2250 -91 1575 -91 
Q 1294 -91 989 -36 
Q 684 19 347 128 
L 347 722 
Q 666 556 975 473 
Q 1284 391 1588 391 
Q 1994 391 2212 530 
Q 2431 669 2431 922 
Q 2431 1156 2273 1281 
Q 2116 1406 1581 1522 
L 1381 1569 
Q 847 1681 609 1914 
Q 372 2147 372 2553 
Q 372 3047 722 3315 
Q 1072 3584 1716 3584 
Q 2034 3584 2315 3537 
Q 2597 3491 2834 3397 
z
" transform="scale(0.015625)"/>
      </defs>
      <use xlink:href="#DejaVuSans-4e"/>
      <use xlink:href="#DejaVuSans-75" x="74.804688"/>
      <use xlink:href="#DejaVuSans-6d" x="138.183594"/>
      <use xlink:href="#DejaVuSans-62" x="235.595703"/>
      <use xlink:href="#DejaVuSans-65" x="299.072266"/>
      <use xlink:href="#DejaVuSans-72" x="360.595703"/>
      <use xlink:href="#DejaVuSans-20" x="401.708984"/>
      <use xlink:href="#DejaVuSans-6f" x="433.496094"/>
      <use xlink:href="#DejaVuSans-66" x="494.677734"/>
      <use xlink:href="#DejaVuSans-20" x="529.882812"/>
      <use xlink:href="#DejaVuSans-67" x="561.669922"/>
      <use xlink:href="#DejaVuSans-65" x="625.146484"/>
      <use xlink:href="#DejaVuSans-6e" x="686.669922"/>
      <use xlink:href="#DejaVuSans-65" x="750.048828"/>
      <use xlink:href="#DejaVuSans-73" x="811.572266"/>
     </g>
    </g>
   </g>
   <g id="patch_3">
    <path d="M 61.49 299.32 
L 61.49 48.96 
" style="fill: none; stroke: #000000; stroke-width: 0.8; stroke-linejoin: miter; stroke-linecap: square"/>
   </g>
   <g id="patch_4">
    <path d="M 450 299.32 
L 450 48.96 
" style="fill: none; stroke: #000000; stroke-width: 0.8; stroke-linejoin: miter; stroke-linecap: square"/>
   </g>
   <g id="patch_5">
    <path d="M 61.49 299.32 
L 450 299.32 
" style="fill: none; stroke: #000000; stroke-width: 0.8; stroke-linejoin: miter; stroke-linecap: square"/>
   </g>
   <g id="patch_6">
    <path d="M 61.49 48.96 
L 450 48.96 
" style="fill: none; stroke: #000000; stroke-width: 0.8; stroke-linejoin: miter; stroke-linecap: square"/>
   </g>
   <g id="legend_1">
    <g id="patch_7">
     <path d="M 128.755156 43.96 
L 382.734844 43.96 
Q 384.734844 43.96 384.734844 41.96 
L 384.734844 13.60375 
Q 384.734844 11.60375 382.734844 11.60375 
L 128.755156 11.60375 
Q 126.755156 11.60375 126.755156 13.60375 
L 126.755156 41.96 
Q 126.755156 43.96 128.755156 43.96 
z
" style="fill: #ffffff; opacity: 0.8; stroke: #cccccc; stroke-linejoin: miter"/>
    </g>
    <g id="patch_8">
     <path d="M 130.755156 23.202187 
L 150.755156 23.202187 
L 150.755156 16.202187 
L 130.755156 16.202187 
z
" style="fill: #1f77b4"/>
    </g>
    <g id="text_19">
     <!-- Published -->
     <g transform="translate(158.755156 23.202187) scale(0.1 -0.1)">
      <defs>
       <path id="DejaVuSans-50" d="M 1259 4147 
L 1259 2394 
L 2053 2394 
Q 2494 2394 2734 2622 
Q 2975 2850 2975 3272 
Q 2975 3691 2734 3919 
Q 2494 4147 2053 4147 
L 1259 4147 
z
M 628 4666 
L 2053 4666 
Q 2838 4666 3239 4311 
Q 3641 3956 3641 3272 
Q 3641 2581 3239 2228 
Q 2838 1875 2053 1875 
L 1259 1875 
L 1259 0 
L 628 0 
L 628 4666 
z
" transform="scale(0.015625)"/>
       <path id="DejaVuSans-6c" d="M 603 4863 
L 1178 4863 
L 1178 0 
L 603 0 
L 603 4863 
z
" transform="scale(0.015625)"/>
       <path id="DejaVuSans-69" d="M 603 3500 
L 1178 3500 
L 1178 0 
L 603 0 
L 603 3500 
z
M 603 4863 
L 1178 4863 
L 1178 4134 
L 603 4134 
L 603 4863 
z
" transform="scale(0.015625)"/>
       <path id="DejaVuSans-68" d="M 3513 2113 
L 3513 0 
L 2938 0 
L 2938 2094 
Q 2938 2591 2744 2837 
Q 2550 3084 2163 3084 
Q 1697 3084 1428 2787 
Q 1159 2491 1159 1978 
L 1159 0 
L 581 0 
L 581 4863 
L 1159 4863 
L 1159 2956 
Q 1366 3272 1645 3428 
Q 1925 3584 2291 3584 
Q 2894 3584 3203 3211 
Q 3513 2838 3513 2113 
z
" transform="scale(0.015625)"/>
       <path id="DejaVuSans-64" d="M 2906 2969 
L 2906 4863 
L 3481 4863 
L 3481 0 
L 2906 0 
L 2906 525 
Q 2725 213 2448 61 
Q 2172 -91 1784 -91 
Q 1150 -91 751 415 
Q 353 922 353 1747 
Q 353 2572 751 3078 
Q 1150 3584 1784 3584 
Q 2172 3584 2448 3432 
Q 2725 3281 2906 2969 
z
M 947 1747 
Q 947 1113 1208 752 
Q 1469 391 1925 391 
Q 2381 391 2643 752 
Q 2906 1113 2906 1747 
Q 2906 2381 2643 2742 
Q 2381 3103 1925 3103 
Q 1469 3103 1208 2742 
Q 947 2381 947 1747 
z
" transform="scale(0.015625)"/>
      </defs>
      <use xlink:href="#DejaVuSans-50"/>
      <use xlink:href="#DejaVuSans-75" x="58.552734"/>
      <use xlink:href="#DejaVuSans-62" x="121.931641"/>
      <use xlink:href="#DejaVuSans-6c" x="185.408203"/>
      <use xlink:href="#DejaVuSans-69" x="213.191406"/>
      <use xlink:href="#DejaVuSans-73" x="240.974609"/>
      <use xlink:href="#DejaVuSans-68" x="293.074219"/>
      <use xlink:href="#DejaVuSans-65" x="356.453125"/>
      <use xlink:href="#DejaVuSans-64" x="417.976562"/>
     </g>
    </g>
    <g id="patch_9">
     <path d="M 130.755156 37.880313 
L 150.755156 37.880313 
L 150.755156 30.880313 
L 130.755156 30.880313 
z
" style="fill: #ff7f0e"/>
    </g>
    <g id="text_20">
     <!-- Inferred role -->
     <g transform="translate(158.755156 37.880313) scale(0.1 -0.1)">
      <defs>
       <path id="DejaVuSans-49" d="M 628 4666 
L 1259 4666 
L 1259 0 
L 628 0 
L 628 4666 
z
" transform="scale(0.015625)"/>
      </defs>
      <use xlink:href="#DejaVuSans-49"/>
      <use xlink:href="#DejaVuSans-6e" x="29.492188"/>
      <use xlink:href="#DejaVuSans-66" x="92.871094"/>
      <use xlink:href="#DejaVuSans-65" x="128.076172"/>
      <use xlink:href="#DejaVuSans-72" x="189.599609"/>
      <use xlink:href="#DejaVuSans-72" x="228.962891"/>
      <use xlink:href="#DejaVuSans-65" x="267.826172"/>
      <use xlink:href="#DejaVuSans-64" x="329.349609"/>
      <use xlink:href="#DejaVuSans-20" x="392.826172"/>
      <use xlink:href="#DejaVuSans-72" x="424.613281"/>
      <use xlink:href="#DejaVuSans-6f" x="463.476562"/>
      <use xlink:href="#DejaVuSans-6c" x="524.658203"/>
      <use xlink:href="#DejaVuSans-65" x="552.441406"/>
     </g>
    </g>
    <g id="patch_10">
     <path d="M 240.153594 23.202187 
L 260.153594 23.202187 
L 260.153594 16.202187 
L 240.153594 16.202187 
z
" style="fill: #2ca02c"/>
    </g>
    <g id="text_21">
     <!-- Conserved unknown -->
     <g transform="translate(268.153594 23.202187) scale(0.1 -0.1)">
      <defs>
       <path id="DejaVuSans-43" d="M 4122 4306 
L 4122 3641 
Q 3803 3938 3442 4084 
Q 3081 4231 2675 4231 
Q 1875 4231 1450 3742 
Q 1025 3253 1025 2328 
Q 1025 1406 1450 917 
Q 1875 428 2675 428 
Q 3081 428 3442 575 
Q 3803 722 4122 1019 
L 4122 359 
Q 3791 134 3420 21 
Q 3050 -91 2638 -91 
Q 1578 -91 968 557 
Q 359 1206 359 2328 
Q 359 3453 968 4101 
Q 1578 4750 2638 4750 
Q 3056 4750 3426 4639 
Q 3797 4528 4122 4306 
z
" transform="scale(0.015625)"/>
       <path id="DejaVuSans-76" d="M 191 3500 
L 800 3500 
L 1894 563 
L 2988 3500 
L 3597 3500 
L 2284 0 
L 1503 0 
L 191 3500 
z
" transform="scale(0.015625)"/>
       <path id="DejaVuSans-6b" d="M 581 4863 
L 1159 4863 
L 1159 1991 
L 2875 3500 
L 3609 3500 
L 1753 1863 
L 3688 0 
L 2938 0 
L 1159 1709 
L 1159 0 
L 581 0 
L 581 4863 
z
" transform="scale(0.015625)"/>
       <path id="DejaVuSans-77" d="M 269 3500 
L 844 3500 
L 1563 769 
L 2278 3500 
L 2956 3500 
L 3675 769 
L 4391 3500 
L 4966 3500 
L 4050 0 
L 3372 0 
L 2619 2869 
L 1863 0 
L 1184 0 
L 269 3500 
z
" transform="scale(0.015625)"/>
      </defs>
      <use xlink:href="#DejaVuSans-43"/>
      <use xlink:href="#DejaVuSans-6f" x="69.824219"/>
      <use xlink:href="#DejaVuSans-6e" x="131.005859"/>
      <use xlink:href="#DejaVuSans-73" x="194.384766"/>
      <use xlink:href="#DejaVuSans-65" x="246.484375"/>
      <use xlink:href="#DejaVuSans-72" x="308.007812"/>
      <use xlink:href="#DejaVuSans-76" x="349.121094"/>
      <use xlink:href="#DejaVuSans-65" x="408.300781"/>
      <use xlink:href="#DejaVuSans-64" x="469.824219"/>
      <use xlink:href="#DejaVuSans-20" x="533.300781"/>
      <use xlink:href="#DejaVuSans-75" x="565.087891"/>
      <use xlink:href="#DejaVuSans-6e" x="628.466797"/>
      <use xlink:href="#DejaVuSans-6b" x="691.845703"/>
      <use xlink:href="#DejaVuSans-6e" x="749.755859"/>
      <use xlink:href="#DejaVuSans-6f" x="813.134766"/>
      <use xlink:href="#DejaVuSans-77" x="874.316406"/>
      <use xlink:href="#DejaVuSans-6e" x="956.103516"/>
     </g>
    </g>
    <g id="patch_11">
     <path d="M 240.153594 37.880313 
L 260.153594 37.880313 
L 260.153594 30.880313 
L 240.153594 30.880313 
z
" style="fill: #d62728"/>
    </g>
    <g id="text_22">
     <!-- Fission yeast unknown -->
     <g transform="translate(268.153594 37.880313) scale(0.1 -0.1)">
      <defs>
       <path id="DejaVuSans-46" d="M 628 4666 
L 3309 4666 
L 3309 4134 
L 1259 4134 
L 1259 2759 
L 3109 2759 
L 3109 2228 
L 1259 2228 
L 1259 0 
L 628 0 
L 628 4666 
z
" transform="scale(0.015625)"/>
       <path id="DejaVuSans-79" d="M 2059 -325 
Q 1816 -950 1584 -1140 
Q 1353 -1331 966 -1331 
L 506 -1331 
L 506 -850 
L 844 -850 
Q 1081 -850 1212 -737 
Q 1344 -625 1503 -206 
L 1606 56 
L 191 3500 
L 800 3500 
L 1894 763 
L 2988 3500 
L 3597 3500 
L 2059 -325 
z
" transform="scale(0.015625)"/>
       <path id="DejaVuSans-74" d="M 1172 4494 
L 1172 3500 
L 2356 3500 
L 2356 3053 
L 1172 3053 
L 1172 1153 
Q 1172 725 1289 603 
Q 1406 481 1766 481 
L 2356 481 
L 2356 0 
L 1766 0 
Q 1100 0 847 248 
Q 594 497 594 1153 
L 594 3053 
L 172 3053 
L 172 3500 
L 594 3500 
L 594 4494 
L 1172 4494 
z
" transform="scale(0.015625)"/>
      </defs>
      <use xlink:href="#DejaVuSans-46"/>
      <use xlink:href="#DejaVuSans-69" x="50.269531"/>
      <use xlink:href="#DejaVuSans-73" x="78.052734"/>
      <use xlink:href="#DejaVuSans-73" x="130.152344"/>
      <use xlink:href="#DejaVuSans-69" x="182.251953"/>
      <use xlink:href="#DejaVuSans-6f" x="210.035156"/>
      <use xlink:href="#DejaVuSans-6e" x="271.216797"/>
      <use xlink:href="#DejaVuSans-20" x="334.595703"/>
      <use xlink:href="#DejaVuSans-79" x="366.382812"/>
      <use xlink:href="#DejaVuSans-65" x="425.5625"/>
      <use xlink:href="#DejaVuSans-61" x="487.085938"/>
      <use xlink:href="#DejaVuSans-73" x="548.365234"/>
      <use xlink:href="#DejaVuSans-74" x="600.464844"/>
      <use xlink:href="#DejaVuSans-20" x="639.673828"/>
      <use xlink:href="#DejaVuSans-75" x="671.460938"/>
      <use xlink:href="#DejaVuSans-6e" x="734.839844"/>
      <use xlink:href="#DejaVuSans-6b" x="798.21875"/>
      <use xlink:href="#DejaVuSans-6e" x="856.128906"/>
      <use xlink:href="#DejaVuSans-6f" x="919.507812"/>
      <use xlink:href="#DejaVuSans-77" x="980.689453"/>
      <use xlink:href="#DejaVuSans-6e" x="1062.476562"/>
     </g>
    </g>
   </g>
  </g>
 </g>
 <defs>
  <clipPath id="p5ca167a2c7">
   <rect x="61.49" y="48.96" width="388.51" height="250.36"/>
  </clipPath>
 </defs>
</svg>
