<?xml version="1.0" encoding="utf-8" standalone="no"?>
<!DOCTYPE svg PUBLIC "-//W3C//DTD SVG 1.1//EN"
  "http://www.w3.org/Graphics/SVG/1.1/DTD/svg11.dtd">
<svg xmlns:xlink="http://www.w3.org/1999/xlink" width="460.8pt" height="345.6pt" viewBox="0 0 460.8 345.6" xmlns="http://www.w3.org/2000/svg" version="1.1">
 <metadata>
  <rdf:RDF xmlns:dc="http://purl.org/dc/elements/1.1/" xmlns:cc="http://creativecommons.org/ns#" xmlns:rdf="http://www.w3.org/1999/02/22-rdf-syntax-ns#">
   <cc:Work>
    <dc:type rdf:resource="http://purl.org/dc/dcmitype/StillImage"/>
    <dc:date>2026-06-02T02:17:54.855029</dc:date>
    <dc:format>image/svg+xml</dc:format>
    <dc:creator>
     <cc:Agent>
      <dc:title>Matplotlib v3.7.1, https://matplotlib.org/</dc:title>
     </cc:Agent>
    </dc:creator>
   </cc:Work>
  </rdf:RDF>
 </metadata>
 <defs>
  <style type="text/css">*{stroke-linejoin: round; stroke-linecap: butt}</style>
 </defs>
 <g id="figure_1">
  <g id="patch_1">
   <path d="M 0 345.6 
L 460.8 345.6 
L 460.8 0 
L 0 0 
z
" style="fill: #ffffff"/>
  </g>
  <g id="axes_1">
   <g id="patch_2">
    <path d="M 61.49 271.263841 
L 450 271.263841 
L 450 74.336159 
L 61.49 74.336159 
z
" style="fill: #ffffff"/>
   </g>
   <g id="PolyCollection_1">
    <path d="M 33.514691 221.287454 
L 33.514691 271.263841 
L 41.329281 271.263841 
L 49.051391 271.263841 
L 64.911773 271.263841 
L 83.315365 271.263841 
L 96.863738 271.263841 
L 105.279451 271.263841 
L 107.45274 271.263841 
L 111.475636 271.263841 
L 113.325243 271.263841 
L 113.556444 271.263841 
L 116.608296 271.263841 
L 117.394379 271.263841 
L 118.041741 271.263841 
L 118.827824 271.263841 
L 119.336466 271.263841 
L 120.122549 271.263841 
L 120.584951 271.263841 
L 121.417274 271.263841 
L 122.527039 271.263841 
L 123.405602 271.263841 
L 123.729284 271.263841 
L 124.654087 271.263841 
L 125.30145 271.263841 
L 125.995052 271.263841 
L 126.734895 271.263841 
L 127.243537 271.263841 
L 127.705939 271.263841 
L 129.000664 271.263841 
L 129.925468 271.263841 
L 130.61907 271.263841 
L 130.804031 271.263841 
L 131.451394 271.263841 
L 132.422438 271.263841 
L 133.439721 271.263841 
L 134.133324 271.263841 
L 135.150608 271.263841 
L 136.491573 271.263841 
L 138.341181 271.263841 
L 139.959587 271.263841 
L 141.346792 271.263841 
L 143.936243 271.263841 
L 145.046007 271.263841 
L 148.051619 271.263841 
L 149.993706 271.263841 
L 151.195951 271.263841 
L 151.935794 271.263841 
L 154.848925 271.263841 
L 156.467332 271.263841 
L 158.131978 271.263841 
L 161.415031 271.263841 
L 164.466883 271.263841 
L 164.975525 271.263841 
L 165.576647 271.263841 
L 166.501451 271.263841 
L 167.241294 271.263841 
L 169.507063 271.263841 
L 174.0386 271.263841 
L 174.917164 271.263841 
L 179.17126 271.263841 
L 180.142304 271.263841 
L 181.113348 271.263841 
L 182.685514 271.263841 
L 183.980239 271.263841 
L 185.228724 271.263841 
L 186.014807 271.263841 
L 188.558017 271.263841 
L 191.193707 271.263841 
L 192.488433 271.263841 
L 193.413236 271.263841 
L 194.569241 271.263841 
L 195.540284 271.263841 
L 196.696289 271.263841 
L 199.42446 271.263841 
L 200.857905 271.263841 
L 202.245111 271.263841 
L 203.678556 271.263841 
L 205.065762 271.263841 
L 206.499207 271.263841 
L 207.932653 271.263841 
L 209.273618 271.263841 
L 210.707064 271.263841 
L 212.094269 271.263841 
L 213.527715 271.263841 
L 214.91492 271.263841 
L 216.348366 271.263841 
L 217.781811 271.263841 
L 219.169017 271.263841 
L 220.602463 271.263841 
L 221.989668 271.263841 
L 223.423114 271.263841 
L 224.856559 271.263841 
L 226.151284 271.263841 
L 227.58473 271.263841 
L 228.971935 271.263841 
L 230.405381 271.263841 
L 231.792586 271.263841 
L 233.226032 271.263841 
L 234.659478 271.263841 
L 236.046683 271.263841 
L 237.480129 271.263841 
L 238.867334 271.263841 
L 240.30078 271.263841 
L 241.734225 271.263841 
L 243.02895 271.263841 
L 244.462396 271.263841 
L 245.849601 271.263841 
L 247.283047 271.263841 
L 248.670252 271.263841 
L 250.103698 271.263841 
L 251.537144 271.263841 
L 252.924349 271.263841 
L 254.357795 271.263841 
L 255.745 271.263841 
L 257.178446 271.263841 
L 258.611891 271.263841 
L 259.906616 271.263841 
L 261.340062 271.263841 
L 262.727267 271.263841 
L 264.160713 271.263841 
L 265.547918 271.263841 
L 266.981364 271.263841 
L 268.41481 271.263841 
L 269.802015 271.263841 
L 271.235461 271.263841 
L 272.622666 271.263841 
L 274.056112 271.263841 
L 275.489557 271.263841 
L 276.830522 271.263841 
L 278.263968 271.263841 
L 279.651174 271.263841 
L 281.084619 271.263841 
L 282.471825 271.263841 
L 283.90527 271.263841 
L 285.338716 271.263841 
L 286.725921 271.263841 
L 288.159367 271.263841 
L 289.546572 271.263841 
L 290.980018 271.263841 
L 292.413463 271.263841 
L 293.708189 271.263841 
L 295.141634 271.263841 
L 296.52884 271.263841 
L 297.962285 271.263841 
L 299.349491 271.263841 
L 300.782936 271.263841 
L 302.216382 271.263841 
L 303.603587 271.263841 
L 305.037033 271.263841 
L 306.424238 271.263841 
L 307.857684 271.263841 
L 309.291129 271.263841 
L 310.585855 271.263841 
L 312.0193 271.263841 
L 313.406506 271.263841 
L 314.839951 271.263841 
L 316.227157 271.263841 
L 317.660602 271.263841 
L 319.094048 271.263841 
L 320.481253 271.263841 
L 321.914699 271.263841 
L 323.301904 271.263841 
L 324.73535 271.263841 
L 326.168796 271.263841 
L 327.463521 271.263841 
L 328.896966 271.263841 
L 330.284172 271.263841 
L 331.717617 271.263841 
L 333.104823 271.263841 
L 334.538268 271.263841 
L 335.971714 271.263841 
L 337.358919 271.263841 
L 338.792365 271.263841 
L 340.17957 271.263841 
L 341.613016 271.263841 
L 343.046462 271.263841 
L 344.387427 271.263841 
L 345.820872 271.263841 
L 347.208078 271.263841 
L 348.641523 271.263841 
L 350.028729 271.263841 
L 351.462174 271.263841 
L 352.89562 271.263841 
L 354.282826 271.263841 
L 355.716271 271.263841 
L 357.103477 271.263841 
L 358.536922 271.263841 
L 359.970368 271.263841 
L 361.265093 271.263841 
L 362.698538 271.263841 
L 364.085744 271.263841 
L 365.519189 271.263841 
L 366.906395 271.263841 
L 368.339841 271.263841 
L 369.773286 271.263841 
L 371.160492 271.263841 
L 372.593937 271.263841 
L 373.981143 271.263841 
L 375.414588 271.263841 
L 376.848034 271.263841 
L 378.142759 271.263841 
L 379.576204 271.263841 
L 380.96341 271.263841 
L 382.396856 271.263841 
L 383.784061 271.263841 
L 385.217507 271.263841 
L 386.650952 271.263841 
L 388.038158 271.263841 
L 389.471603 271.263841 
L 390.858809 271.263841 
L 392.292254 271.263841 
L 393.7257 271.263841 
L 395.020425 271.263841 
L 396.453871 271.263841 
L 397.841076 271.263841 
L 399.274522 271.263841 
L 400.661727 271.263841 
L 402.095173 271.263841 
L 403.528618 271.263841 
L 404.915824 271.263841 
L 406.349269 271.263841 
L 407.736475 271.263841 
L 409.16992 271.263841 
L 410.603366 271.263841 
L 411.944331 271.263841 
L 413.377777 271.263841 
L 414.764982 271.263841 
L 416.198428 271.263841 
L 417.585633 271.263841 
L 419.019079 271.263841 
L 420.452524 271.263841 
L 421.83973 271.263841 
L 423.273175 271.263841 
L 424.660381 271.263841 
L 426.093826 271.263841 
L 427.527272 271.263841 
L 428.821997 271.263841 
L 430.255443 271.263841 
L 431.642648 271.263841 
L 433.076094 271.263841 
L 434.463299 271.263841 
L 435.896745 271.263841 
L 437.33019 271.263841 
L 438.717396 271.263841 
L 440.150841 271.263841 
L 441.538047 271.263841 
L 442.971493 271.263841 
L 444.404938 271.263841 
L 445.699663 271.263841 
L 447.133109 271.263841 
L 448.520314 271.263841 
L 449.95376 271.263841 
L 449.95376 170.756184 
L 449.95376 170.756184 
L 448.520314 170.756184 
L 447.133109 170.645208 
L 445.699663 170.608215 
L 444.404938 170.608215 
L 442.971493 170.275286 
L 441.538047 170.201302 
L 440.150841 170.201302 
L 438.717396 170.16431 
L 437.33019 169.572435 
L 435.896745 169.461459 
L 434.463299 169.535443 
L 433.076094 169.572435 
L 431.642648 169.572435 
L 430.255443 169.868373 
L 428.821997 169.905365 
L 427.527272 170.86716 
L 426.093826 172.975713 
L 424.660381 173.715556 
L 423.273175 173.937508 
L 421.83973 173.937508 
L 420.452524 174.159461 
L 419.019079 174.159461 
L 417.585633 174.973289 
L 416.198428 175.491179 
L 414.764982 175.602155 
L 413.377777 175.713131 
L 411.944331 175.787116 
L 410.603366 177.377778 
L 409.16992 177.488754 
L 407.736475 177.525746 
L 406.349269 177.747699 
L 404.915824 177.858676 
L 403.528618 177.895668 
L 402.095173 178.006644 
L 400.661727 178.45055 
L 399.274522 178.672503 
L 397.841076 178.783479 
L 396.453871 178.783479 
L 395.020425 179.116409 
L 393.7257 179.671291 
L 392.292254 179.634299 
L 390.858809 179.745275 
L 389.471603 179.856252 
L 388.038158 180.078204 
L 386.650952 180.078204 
L 385.217507 180.115197 
L 383.784061 180.115197 
L 382.396856 180.078204 
L 380.96341 180.152189 
L 379.576204 180.078204 
L 378.142759 180.041212 
L 376.848034 180.078204 
L 375.414588 180.078204 
L 373.981143 180.263165 
L 372.593937 180.448126 
L 371.160492 180.744063 
L 369.773286 180.966016 
L 368.339841 180.929024 
L 366.906395 181.113985 
L 365.519189 181.37293 
L 364.085744 181.37293 
L 362.698538 181.520898 
L 361.265093 182.001796 
L 359.970368 182.112772 
L 358.536922 182.519686 
L 357.103477 182.556678 
L 355.716271 182.704647 
L 354.282826 182.778631 
L 352.89562 182.9266 
L 351.462174 182.963592 
L 350.028729 183.037576 
L 348.641523 183.037576 
L 347.208078 183.11156 
L 345.820872 183.44449 
L 344.387427 183.555466 
L 343.046462 183.62945 
L 341.613016 183.703435 
L 340.17957 183.703435 
L 338.792365 183.703435 
L 337.358919 183.814411 
L 335.971714 183.888395 
L 334.538268 184.036364 
L 333.104823 184.258317 
L 331.717617 184.369293 
L 330.284172 184.443278 
L 328.896966 184.517262 
L 327.463521 184.554254 
L 326.168796 184.554254 
L 324.73535 184.591246 
L 323.301904 184.628238 
L 321.914699 184.702223 
L 320.481253 184.739215 
L 319.094048 184.739215 
L 317.660602 184.850191 
L 316.227157 184.961168 
L 314.839951 185.18312 
L 313.406506 185.331089 
L 312.0193 185.627026 
L 310.585855 185.774995 
L 309.291129 185.922963 
L 307.857684 185.959955 
L 306.424238 186.107924 
L 305.037033 186.255893 
L 303.603587 187.883547 
L 302.216382 188.142492 
L 300.782936 188.845343 
L 299.349491 188.253468 
L 297.962285 188.179484 
L 296.52884 188.216476 
L 295.141634 188.290461 
L 293.708189 188.549406 
L 292.413463 188.586398 
L 290.980018 188.660382 
L 289.546572 189.363233 
L 288.159367 189.474209 
L 286.725921 189.65917 
L 285.338716 189.733154 
L 283.90527 189.844131 
L 282.471825 190.251044 
L 281.084619 190.436005 
L 279.651174 190.436005 
L 278.263968 190.805926 
L 276.830522 190.879911 
L 275.489557 190.916903 
L 274.056112 191.101864 
L 272.622666 191.175848 
L 271.235461 191.175848 
L 269.802015 191.360809 
L 268.41481 191.397801 
L 266.981364 191.434793 
L 265.547918 191.582761 
L 264.160713 191.693738 
L 262.727267 191.138856 
L 261.340062 191.21284 
L 259.906616 191.397801 
L 258.611891 191.397801 
L 257.178446 191.619754 
L 255.745 191.767722 
L 254.357795 192.026667 
L 252.924349 192.359597 
L 251.537144 192.655534 
L 250.103698 192.729518 
L 248.670252 192.988463 
L 247.283047 193.210416 
L 245.849601 193.543345 
L 244.462396 193.691314 
L 243.02895 193.876274 
L 241.734225 193.913267 
L 240.30078 193.913267 
L 238.867334 194.098227 
L 237.480129 194.542133 
L 236.046683 194.579125 
L 234.659478 194.801078 
L 233.226032 195.429945 
L 231.792586 195.503929 
L 230.405381 195.947835 
L 228.971935 196.243772 
L 227.58473 197.24256 
L 226.151284 197.316544 
L 224.856559 197.42752 
L 223.423114 197.686465 
L 221.989668 197.76045 
L 220.602463 197.982403 
L 219.169017 198.167363 
L 217.781811 198.500293 
L 216.348366 198.685253 
L 214.91492 198.79623 
L 213.527715 199.018183 
L 212.094269 199.055175 
L 210.707064 199.166151 
L 209.273618 199.31412 
L 207.932653 199.31412 
L 206.499207 199.388104 
L 205.065762 199.425096 
L 203.678556 199.462088 
L 202.245111 199.49908 
L 200.857905 199.536073 
L 199.42446 199.647049 
L 196.696289 200.3499 
L 195.540284 200.534861 
L 194.569241 200.571853 
L 193.413236 200.460876 
L 192.488433 200.460876 
L 191.193707 200.571853 
L 188.558017 200.682829 
L 186.014807 201.274703 
L 185.228724 202.162515 
L 183.980239 202.014546 
L 182.685514 201.977554 
L 181.113348 202.643413 
L 180.142304 202.643413 
L 179.17126 202.42146 
L 174.917164 202.902358 
L 174.0386 202.976342 
L 169.507063 203.605209 
L 167.241294 203.679193 
L 166.501451 203.531224 
L 165.576647 203.642201 
L 164.975525 203.827161 
L 164.466883 203.864154 
L 161.415031 203.97513 
L 158.131978 204.049114 
L 156.467332 204.234075 
L 154.848925 206.194659 
L 151.935794 206.120674 
L 151.195951 206.157667 
L 149.993706 206.56458 
L 148.051619 207.60036 
L 145.046007 207.822313 
L 143.936243 208.192234 
L 141.346792 208.451179 
L 139.959587 209.228015 
L 138.341181 209.745905 
L 136.491573 210.152818 
L 135.150608 210.18981 
L 134.133324 210.263795 
L 133.439721 210.300787 
L 132.422438 210.337779 
L 131.451394 211.003637 
L 130.804031 211.336567 
L 130.61907 211.336567 
L 129.925468 211.336567 
L 129.000664 211.55852 
L 127.705939 211.336567 
L 127.243537 211.521527 
L 126.734895 211.595512 
L 125.995052 211.706488 
L 125.30145 211.706488 
L 124.654087 212.002425 
L 123.729284 212.668284 
L 123.405602 212.631292 
L 122.527039 212.964221 
L 121.417274 213.038205 
L 120.584951 213.11219 
L 120.122549 213.186174 
L 119.336466 213.29715 
L 118.827824 213.519103 
L 118.041741 213.704064 
L 117.394379 213.63008 
L 116.608296 213.704064 
L 113.556444 213.963009 
L 113.325243 213.926017 
L 111.475636 214.221954 
L 107.45274 212.446331 
L 105.279451 215.072773 
L 96.863738 218.513043 
L 83.315365 221.731359 
L 64.911773 225.87448 
L 49.051391 221.102493 
L 41.329281 220.510619 
L 33.514691 221.287454 
z
" clip-path="url(#p433a283303)" style="fill: #fb363b"/>
   </g>
   <g id="PolyCollection_2">
    <path d="M 33.514691 145.231604 
L 33.514691 221.287454 
L 41.329281 220.510619 
L 49.051391 221.102493 
L 64.911773 225.87448 
L 83.315365 221.731359 
L 96.863738 218.513043 
L 105.279451 215.072773 
L 107.45274 212.446331 
L 111.475636 214.221954 
L 113.325243 213.926017 
L 113.556444 213.963009 
L 116.608296 213.704064 
L 117.394379 213.63008 
L 118.041741 213.704064 
L 118.827824 213.519103 
L 119.336466 213.29715 
L 120.122549 213.186174 
L 120.584951 213.11219 
L 121.417274 213.038205 
L 122.527039 212.964221 
L 123.405602 212.631292 
L 123.729284 212.668284 
L 124.654087 212.002425 
L 125.30145 211.706488 
L 125.995052 211.706488 
L 126.734895 211.595512 
L 127.243537 211.521527 
L 127.705939 211.336567 
L 129.000664 211.55852 
L 129.925468 211.336567 
L 130.61907 211.336567 
L 130.804031 211.336567 
L 131.451394 211.003637 
L 132.422438 210.337779 
L 133.439721 210.300787 
L 134.133324 210.263795 
L 135.150608 210.18981 
L 136.491573 210.152818 
L 138.341181 209.745905 
L 139.959587 209.228015 
L 141.346792 208.451179 
L 143.936243 208.192234 
L 145.046007 207.822313 
L 148.051619 207.60036 
L 149.993706 206.56458 
L 151.195951 206.157667 
L 151.935794 206.120674 
L 154.848925 206.194659 
L 156.467332 204.234075 
L 158.131978 204.049114 
L 161.415031 203.97513 
L 164.466883 203.864154 
L 164.975525 203.827161 
L 165.576647 203.642201 
L 166.501451 203.531224 
L 167.241294 203.679193 
L 169.507063 203.605209 
L 174.0386 202.976342 
L 174.917164 202.902358 
L 179.17126 202.42146 
L 180.142304 202.643413 
L 181.113348 202.643413 
L 182.685514 201.977554 
L 183.980239 202.014546 
L 185.228724 202.162515 
L 186.014807 201.274703 
L 188.558017 200.682829 
L 191.193707 200.571853 
L 192.488433 200.460876 
L 193.413236 200.460876 
L 194.569241 200.571853 
L 195.540284 200.534861 
L 196.696289 200.3499 
L 199.42446 199.647049 
L 200.857905 199.536073 
L 202.245111 199.49908 
L 203.678556 199.462088 
L 205.065762 199.425096 
L 206.499207 199.388104 
L 207.932653 199.31412 
L 209.273618 199.31412 
L 210.707064 199.166151 
L 212.094269 199.055175 
L 213.527715 199.018183 
L 214.91492 198.79623 
L 216.348366 198.685253 
L 217.781811 198.500293 
L 219.169017 198.167363 
L 220.602463 197.982403 
L 221.989668 197.76045 
L 223.423114 197.686465 
L 224.856559 197.42752 
L 226.151284 197.316544 
L 227.58473 197.24256 
L 228.971935 196.243772 
L 230.405381 195.947835 
L 231.792586 195.503929 
L 233.226032 195.429945 
L 234.659478 194.801078 
L 236.046683 194.579125 
L 237.480129 194.542133 
L 238.867334 194.098227 
L 240.30078 193.913267 
L 241.734225 193.913267 
L 243.02895 193.876274 
L 244.462396 193.691314 
L 245.849601 193.543345 
L 247.283047 193.210416 
L 248.670252 192.988463 
L 250.103698 192.729518 
L 251.537144 192.655534 
L 252.924349 192.359597 
L 254.357795 192.026667 
L 255.745 191.767722 
L 257.178446 191.619754 
L 258.611891 191.397801 
L 259.906616 191.397801 
L 261.340062 191.21284 
L 262.727267 191.138856 
L 264.160713 191.693738 
L 265.547918 191.582761 
L 266.981364 191.434793 
L 268.41481 191.397801 
L 269.802015 191.360809 
L 271.235461 191.175848 
L 272.622666 191.175848 
L 274.056112 191.101864 
L 275.489557 190.916903 
L 276.830522 190.879911 
L 278.263968 190.805926 
L 279.651174 190.436005 
L 281.084619 190.436005 
L 282.471825 190.251044 
L 283.90527 189.844131 
L 285.338716 189.733154 
L 286.725921 189.65917 
L 288.159367 189.474209 
L 289.546572 189.363233 
L 290.980018 188.660382 
L 292.413463 188.586398 
L 293.708189 188.549406 
L 295.141634 188.290461 
L 296.52884 188.216476 
L 297.962285 188.179484 
L 299.349491 188.253468 
L 300.782936 188.845343 
L 302.216382 188.142492 
L 303.603587 187.883547 
L 305.037033 186.255893 
L 306.424238 186.107924 
L 307.857684 185.959955 
L 309.291129 185.922963 
L 310.585855 185.774995 
L 312.0193 185.627026 
L 313.406506 185.331089 
L 314.839951 185.18312 
L 316.227157 184.961168 
L 317.660602 184.850191 
L 319.094048 184.739215 
L 320.481253 184.739215 
L 321.914699 184.702223 
L 323.301904 184.628238 
L 324.73535 184.591246 
L 326.168796 184.554254 
L 327.463521 184.554254 
L 328.896966 184.517262 
L 330.284172 184.443278 
L 331.717617 184.369293 
L 333.104823 184.258317 
L 334.538268 184.036364 
L 335.971714 183.888395 
L 337.358919 183.814411 
L 338.792365 183.703435 
L 340.17957 183.703435 
L 341.613016 183.703435 
L 343.046462 183.62945 
L 344.387427 183.555466 
L 345.820872 183.44449 
L 347.208078 183.11156 
L 348.641523 183.037576 
L 350.028729 183.037576 
L 351.462174 182.963592 
L 352.89562 182.9266 
L 354.282826 182.778631 
L 355.716271 182.704647 
L 357.103477 182.556678 
L 358.536922 182.519686 
L 359.970368 182.112772 
L 361.265093 182.001796 
L 362.698538 181.520898 
L 364.085744 181.37293 
L 365.519189 181.37293 
L 366.906395 181.113985 
L 368.339841 180.929024 
L 369.773286 180.966016 
L 371.160492 180.744063 
L 372.593937 180.448126 
L 373.981143 180.263165 
L 375.414588 180.078204 
L 376.848034 180.078204 
L 378.142759 180.041212 
L 379.576204 180.078204 
L 380.96341 180.152189 
L 382.396856 180.078204 
L 383.784061 180.115197 
L 385.217507 180.115197 
L 386.650952 180.078204 
L 388.038158 180.078204 
L 389.471603 179.856252 
L 390.858809 179.745275 
L 392.292254 179.634299 
L 393.7257 179.671291 
L 395.020425 179.116409 
L 396.453871 178.783479 
L 397.841076 178.783479 
L 399.274522 178.672503 
L 400.661727 178.45055 
L 402.095173 178.006644 
L 403.528618 177.895668 
L 404.915824 177.858676 
L 406.349269 177.747699 
L 407.736475 177.525746 
L 409.16992 177.488754 
L 410.603366 177.377778 
L 411.944331 175.787116 
L 413.377777 175.713131 
L 414.764982 175.602155 
L 416.198428 175.491179 
L 417.585633 174.973289 
L 419.019079 174.159461 
L 420.452524 174.159461 
L 421.83973 173.937508 
L 423.273175 173.937508 
L 424.660381 173.715556 
L 426.093826 172.975713 
L 427.527272 170.86716 
L 428.821997 169.905365 
L 430.255443 169.868373 
L 431.642648 169.572435 
L 433.076094 169.572435 
L 434.463299 169.535443 
L 435.896745 169.461459 
L 437.33019 169.572435 
L 438.717396 170.16431 
L 440.150841 170.201302 
L 441.538047 170.201302 
L 442.971493 170.275286 
L 444.404938 170.608215 
L 445.699663 170.608215 
L 447.133109 170.645208 
L 448.520314 170.756184 
L 449.95376 170.756184 
L 449.95376 109.904106 
L 449.95376 109.904106 
L 448.520314 109.793129 
L 447.133109 109.312232 
L 445.699663 109.127271 
L 444.404938 109.053287 
L 442.971493 108.017507 
L 441.538047 107.684577 
L 440.150841 107.647585 
L 438.717396 107.573601 
L 437.33019 106.648797 
L 435.896745 106.056923 
L 434.463299 105.982939 
L 433.076094 105.797978 
L 431.642648 105.723994 
L 430.255443 105.687001 
L 428.821997 105.465049 
L 427.527272 105.502041 
L 426.093826 105.465049 
L 424.660381 105.982939 
L 423.273175 106.056923 
L 421.83973 106.167899 
L 420.452524 106.204891 
L 419.019079 106.426844 
L 417.585633 106.315868 
L 416.198428 106.278876 
L 414.764982 106.426844 
L 413.377777 106.500829 
L 411.944331 106.463836 
L 410.603366 106.722781 
L 409.16992 106.981726 
L 407.736475 106.981726 
L 406.349269 107.092703 
L 404.915824 107.240672 
L 403.528618 107.314656 
L 402.095173 107.314656 
L 400.661727 107.573601 
L 399.274522 107.795554 
L 397.841076 107.90653 
L 396.453871 107.90653 
L 395.020425 107.943522 
L 393.7257 108.091491 
L 392.292254 108.202467 
L 390.858809 108.276452 
L 389.471603 108.276452 
L 388.038158 108.313444 
L 386.650952 108.202467 
L 385.217507 108.239459 
L 383.784061 108.239459 
L 382.396856 108.42442 
L 380.96341 108.387428 
L 379.576204 108.387428 
L 378.142759 108.42442 
L 376.848034 108.498404 
L 375.414588 108.498404 
L 373.981143 108.609381 
L 372.593937 108.572389 
L 371.160492 108.683365 
L 369.773286 108.720357 
L 368.339841 108.757349 
L 366.906395 108.794342 
L 365.519189 108.831334 
L 364.085744 108.794342 
L 362.698538 108.905318 
L 361.265093 109.090279 
L 359.970368 109.238247 
L 358.536922 109.275239 
L 357.103477 109.275239 
L 355.716271 109.349224 
L 354.282826 109.386216 
L 352.89562 109.4602 
L 351.462174 109.4602 
L 350.028729 109.497192 
L 348.641523 109.534184 
L 347.208078 109.423208 
L 345.820872 109.386216 
L 344.387427 109.423208 
L 343.046462 109.349224 
L 341.613016 109.349224 
L 340.17957 109.349224 
L 338.792365 109.349224 
L 337.358919 109.349224 
L 335.971714 109.386216 
L 334.538268 109.349224 
L 333.104823 109.386216 
L 331.717617 109.386216 
L 330.284172 109.275239 
L 328.896966 109.275239 
L 327.463521 109.312232 
L 326.168796 109.312232 
L 324.73535 109.386216 
L 323.301904 109.386216 
L 321.914699 109.4602 
L 320.481253 109.4602 
L 319.094048 109.4602 
L 317.660602 109.497192 
L 316.227157 109.497192 
L 314.839951 109.497192 
L 313.406506 109.534184 
L 312.0193 109.571177 
L 310.585855 109.867114 
L 309.291129 109.97809 
L 307.857684 109.904106 
L 306.424238 109.97809 
L 305.037033 110.089067 
L 303.603587 110.126059 
L 302.216382 110.643949 
L 300.782936 110.939886 
L 299.349491 112.974454 
L 297.962285 114.12121 
L 296.52884 114.528124 
L 295.141634 114.528124 
L 293.708189 114.824061 
L 292.413463 114.750077 
L 290.980018 114.010234 
L 289.546572 114.195195 
L 288.159367 114.602108 
L 286.725921 114.602108 
L 285.338716 114.491132 
L 283.90527 114.6391 
L 282.471825 114.676093 
L 281.084619 114.676093 
L 279.651174 114.713085 
L 278.263968 114.787069 
L 276.830522 114.787069 
L 275.489557 114.824061 
L 274.056112 114.824061 
L 272.622666 114.935038 
L 271.235461 114.97203 
L 269.802015 115.009022 
L 268.41481 115.009022 
L 266.981364 114.97203 
L 265.547918 115.009022 
L 264.160713 114.97203 
L 262.727267 115.563904 
L 261.340062 115.526912 
L 259.906616 115.600896 
L 258.611891 115.674881 
L 257.178446 115.785857 
L 255.745 115.748865 
L 254.357795 116.00781 
L 252.924349 116.118786 
L 251.537144 116.266755 
L 250.103698 116.451716 
L 248.670252 116.488708 
L 247.283047 116.414723 
L 245.849601 116.488708 
L 244.462396 116.5257 
L 243.02895 116.5257 
L 241.734225 116.5257 
L 240.30078 116.5257 
L 238.867334 116.673668 
L 237.480129 116.747653 
L 236.046683 116.969606 
L 234.659478 117.006598 
L 233.226032 117.228551 
L 231.792586 117.302535 
L 230.405381 117.524488 
L 228.971935 117.635464 
L 227.58473 117.783433 
L 226.151284 117.820425 
L 224.856559 117.857417 
L 223.423114 118.005386 
L 221.989668 118.005386 
L 220.602463 118.190346 
L 219.169017 118.449291 
L 217.781811 118.59726 
L 216.348366 118.745229 
L 214.91492 118.930189 
L 213.527715 119.004174 
L 212.094269 119.300111 
L 210.707064 119.300111 
L 209.273618 119.337103 
L 207.932653 119.337103 
L 206.499207 119.337103 
L 205.065762 119.337103 
L 203.678556 119.337103 
L 202.245111 119.374095 
L 200.857905 119.522064 
L 199.42446 119.596048 
L 196.696289 120.039954 
L 195.540284 120.594836 
L 194.569241 120.853781 
L 193.413236 120.335891 
L 192.488433 120.631828 
L 191.193707 120.742804 
L 188.558017 120.890773 
L 186.014807 120.890773 
L 185.228724 121.038741 
L 183.980239 121.519639 
L 182.685514 121.482647 
L 181.113348 122.333467 
L 180.142304 122.333467 
L 179.17126 122.74038 
L 174.917164 122.999325 
L 174.0386 123.073309 
L 169.507063 124.10909 
L 167.241294 125.033893 
L 166.501451 125.070885 
L 165.576647 125.070885 
L 164.975525 125.070885 
L 164.466883 125.107877 
L 161.415031 124.700964 
L 158.131978 125.181862 
L 156.467332 125.366822 
L 154.848925 125.551783 
L 151.935794 125.66276 
L 151.195951 125.736744 
L 149.993706 125.921705 
L 148.051619 126.217642 
L 145.046007 126.069673 
L 143.936243 126.36561 
L 141.346792 126.328618 
L 139.959587 126.254634 
L 138.341181 126.587563 
L 136.491573 126.513579 
L 135.150608 126.402602 
L 134.133324 126.661547 
L 133.439721 126.69854 
L 132.422438 125.995689 
L 131.451394 126.032681 
L 130.804031 126.18065 
L 130.61907 126.18065 
L 129.925468 126.143657 
L 129.000664 126.624555 
L 127.705939 126.106665 
L 127.243537 126.106665 
L 126.734895 126.143657 
L 125.995052 126.18065 
L 125.30145 125.995689 
L 124.654087 126.402602 
L 123.729284 126.513579 
L 123.405602 126.291626 
L 122.527039 126.439595 
L 121.417274 126.402602 
L 120.584951 126.8835 
L 120.122549 126.809516 
L 119.336466 126.809516 
L 118.827824 125.14487 
L 118.041741 125.514791 
L 117.394379 124.589987 
L 116.608296 124.368035 
L 113.556444 124.62698 
L 113.325243 124.479011 
L 111.475636 124.737956 
L 107.45274 126.402602 
L 105.279451 127.21643 
L 96.863738 129.177013 
L 83.315365 131.988416 
L 64.911773 135.576654 
L 49.051391 141.310437 
L 41.329281 144.935667 
L 33.514691 145.231604 
z
" clip-path="url(#p433a283303)" style="fill: #fdc92c"/>
   </g>
   <g id="PolyCollection_3">
    <path d="M 33.514691 116.081794 
L 33.514691 145.231604 
L 41.329281 144.935667 
L 49.051391 141.310437 
L 64.911773 135.576654 
L 83.315365 131.988416 
L 96.863738 129.177013 
L 105.279451 127.21643 
L 107.45274 126.402602 
L 111.475636 124.737956 
L 113.325243 124.479011 
L 113.556444 124.62698 
L 116.608296 124.368035 
L 117.394379 124.589987 
L 118.041741 125.514791 
L 118.827824 125.14487 
L 119.336466 126.809516 
L 120.122549 126.809516 
L 120.584951 126.8835 
L 121.417274 126.402602 
L 122.527039 126.439595 
L 123.405602 126.291626 
L 123.729284 126.513579 
L 124.654087 126.402602 
L 125.30145 125.995689 
L 125.995052 126.18065 
L 126.734895 126.143657 
L 127.243537 126.106665 
L 127.705939 126.106665 
L 129.000664 126.624555 
L 129.925468 126.143657 
L 130.61907 126.18065 
L 130.804031 126.18065 
L 131.451394 126.032681 
L 132.422438 125.995689 
L 133.439721 126.69854 
L 134.133324 126.661547 
L 135.150608 126.402602 
L 136.491573 126.513579 
L 138.341181 126.587563 
L 139.959587 126.254634 
L 141.346792 126.328618 
L 143.936243 126.36561 
L 145.046007 126.069673 
L 148.051619 126.217642 
L 149.993706 125.921705 
L 151.195951 125.736744 
L 151.935794 125.66276 
L 154.848925 125.551783 
L 156.467332 125.366822 
L 158.131978 125.181862 
L 161.415031 124.700964 
L 164.466883 125.107877 
L 164.975525 125.070885 
L 165.576647 125.070885 
L 166.501451 125.070885 
L 167.241294 125.033893 
L 169.507063 124.10909 
L 174.0386 123.073309 
L 174.917164 122.999325 
L 179.17126 122.74038 
L 180.142304 122.333467 
L 181.113348 122.333467 
L 182.685514 121.482647 
L 183.980239 121.519639 
L 185.228724 121.038741 
L 186.014807 120.890773 
L 188.558017 120.890773 
L 191.193707 120.742804 
L 192.488433 120.631828 
L 193.413236 120.335891 
L 194.569241 120.853781 
L 195.540284 120.594836 
L 196.696289 120.039954 
L 199.42446 119.596048 
L 200.857905 119.522064 
L 202.245111 119.374095 
L 203.678556 119.337103 
L 205.065762 119.337103 
L 206.499207 119.337103 
L 207.932653 119.337103 
L 209.273618 119.337103 
L 210.707064 119.300111 
L 212.094269 119.300111 
L 213.527715 119.004174 
L 214.91492 118.930189 
L 216.348366 118.745229 
L 217.781811 118.59726 
L 219.169017 118.449291 
L 220.602463 118.190346 
L 221.989668 118.005386 
L 223.423114 118.005386 
L 224.856559 117.857417 
L 226.151284 117.820425 
L 227.58473 117.783433 
L 228.971935 117.635464 
L 230.405381 117.524488 
L 231.792586 117.302535 
L 233.226032 117.228551 
L 234.659478 117.006598 
L 236.046683 116.969606 
L 237.480129 116.747653 
L 238.867334 116.673668 
L 240.30078 116.5257 
L 241.734225 116.5257 
L 243.02895 116.5257 
L 244.462396 116.5257 
L 245.849601 116.488708 
L 247.283047 116.414723 
L 248.670252 116.488708 
L 250.103698 116.451716 
L 251.537144 116.266755 
L 252.924349 116.118786 
L 254.357795 116.00781 
L 255.745 115.748865 
L 257.178446 115.785857 
L 258.611891 115.674881 
L 259.906616 115.600896 
L 261.340062 115.526912 
L 262.727267 115.563904 
L 264.160713 114.97203 
L 265.547918 115.009022 
L 266.981364 114.97203 
L 268.41481 115.009022 
L 269.802015 115.009022 
L 271.235461 114.97203 
L 272.622666 114.935038 
L 274.056112 114.824061 
L 275.489557 114.824061 
L 276.830522 114.787069 
L 278.263968 114.787069 
L 279.651174 114.713085 
L 281.084619 114.676093 
L 282.471825 114.676093 
L 283.90527 114.6391 
L 285.338716 114.491132 
L 286.725921 114.602108 
L 288.159367 114.602108 
L 289.546572 114.195195 
L 290.980018 114.010234 
L 292.413463 114.750077 
L 293.708189 114.824061 
L 295.141634 114.528124 
L 296.52884 114.528124 
L 297.962285 114.12121 
L 299.349491 112.974454 
L 300.782936 110.939886 
L 302.216382 110.643949 
L 303.603587 110.126059 
L 305.037033 110.089067 
L 306.424238 109.97809 
L 307.857684 109.904106 
L 309.291129 109.97809 
L 310.585855 109.867114 
L 312.0193 109.571177 
L 313.406506 109.534184 
L 314.839951 109.497192 
L 316.227157 109.497192 
L 317.660602 109.497192 
L 319.094048 109.4602 
L 320.481253 109.4602 
L 321.914699 109.4602 
L 323.301904 109.386216 
L 324.73535 109.386216 
L 326.168796 109.312232 
L 327.463521 109.312232 
L 328.896966 109.275239 
L 330.284172 109.275239 
L 331.717617 109.386216 
L 333.104823 109.386216 
L 334.538268 109.349224 
L 335.971714 109.386216 
L 337.358919 109.349224 
L 338.792365 109.349224 
L 340.17957 109.349224 
L 341.613016 109.349224 
L 343.046462 109.349224 
L 344.387427 109.423208 
L 345.820872 109.386216 
L 347.208078 109.423208 
L 348.641523 109.534184 
L 350.028729 109.497192 
L 351.462174 109.4602 
L 352.89562 109.4602 
L 354.282826 109.386216 
L 355.716271 109.349224 
L 357.103477 109.275239 
L 358.536922 109.275239 
L 359.970368 109.238247 
L 361.265093 109.090279 
L 362.698538 108.905318 
L 364.085744 108.794342 
L 365.519189 108.831334 
L 366.906395 108.794342 
L 368.339841 108.757349 
L 369.773286 108.720357 
L 371.160492 108.683365 
L 372.593937 108.572389 
L 373.981143 108.609381 
L 375.414588 108.498404 
L 376.848034 108.498404 
L 378.142759 108.42442 
L 379.576204 108.387428 
L 380.96341 108.387428 
L 382.396856 108.42442 
L 383.784061 108.239459 
L 385.217507 108.239459 
L 386.650952 108.202467 
L 388.038158 108.313444 
L 389.471603 108.276452 
L 390.858809 108.276452 
L 392.292254 108.202467 
L 393.7257 108.091491 
L 395.020425 107.943522 
L 396.453871 107.90653 
L 397.841076 107.90653 
L 399.274522 107.795554 
L 400.661727 107.573601 
L 402.095173 107.314656 
L 403.528618 107.314656 
L 404.915824 107.240672 
L 406.349269 107.092703 
L 407.736475 106.981726 
L 409.16992 106.981726 
L 410.603366 106.722781 
L 411.944331 106.463836 
L 413.377777 106.500829 
L 414.764982 106.426844 
L 416.198428 106.278876 
L 417.585633 106.315868 
L 419.019079 106.426844 
L 420.452524 106.204891 
L 421.83973 106.167899 
L 423.273175 106.056923 
L 424.660381 105.982939 
L 426.093826 105.465049 
L 427.527272 105.502041 
L 428.821997 105.465049 
L 430.255443 105.687001 
L 431.642648 105.723994 
L 433.076094 105.797978 
L 434.463299 105.982939 
L 435.896745 106.056923 
L 437.33019 106.648797 
L 438.717396 107.573601 
L 440.150841 107.647585 
L 441.538047 107.684577 
L 442.971493 108.017507 
L 444.404938 109.053287 
L 445.699663 109.127271 
L 447.133109 109.312232 
L 448.520314 109.793129 
L 449.95376 109.904106 
L 449.95376 94.441389 
L 449.95376 94.441389 
L 448.520314 94.404397 
L 447.133109 94.367405 
L 445.699663 94.219437 
L 444.404938 94.182444 
L 442.971493 94.145452 
L 441.538047 94.145452 
L 440.150841 94.145452 
L 438.717396 94.145452 
L 437.33019 93.257641 
L 435.896745 93.257641 
L 434.463299 93.257641 
L 433.076094 93.257641 
L 431.642648 93.257641 
L 430.255443 93.220649 
L 428.821997 93.220649 
L 427.527272 93.220649 
L 426.093826 93.220649 
L 424.660381 93.220649 
L 423.273175 93.220649 
L 421.83973 93.220649 
L 420.452524 93.183657 
L 419.019079 93.516586 
L 417.585633 93.738539 
L 416.198428 93.738539 
L 414.764982 93.775531 
L 413.377777 93.775531 
L 411.944331 93.775531 
L 410.603366 93.812523 
L 409.16992 93.812523 
L 407.736475 93.812523 
L 406.349269 93.849515 
L 404.915824 93.849515 
L 403.528618 93.849515 
L 402.095173 93.849515 
L 400.661727 93.923499 
L 399.274522 93.923499 
L 397.841076 93.923499 
L 396.453871 93.923499 
L 395.020425 93.923499 
L 393.7257 93.960492 
L 392.292254 93.960492 
L 390.858809 94.034476 
L 389.471603 94.034476 
L 388.038158 94.071468 
L 386.650952 94.071468 
L 385.217507 94.071468 
L 383.784061 94.071468 
L 382.396856 94.145452 
L 380.96341 94.219437 
L 379.576204 94.219437 
L 378.142759 94.219437 
L 376.848034 94.219437 
L 375.414588 94.219437 
L 373.981143 94.256429 
L 372.593937 94.219437 
L 371.160492 94.293421 
L 369.773286 94.293421 
L 368.339841 94.293421 
L 366.906395 94.330413 
L 365.519189 94.330413 
L 364.085744 94.330413 
L 362.698538 94.367405 
L 361.265093 94.404397 
L 359.970368 94.441389 
L 358.536922 94.441389 
L 357.103477 94.404397 
L 355.716271 94.404397 
L 354.282826 94.404397 
L 352.89562 94.367405 
L 351.462174 94.367405 
L 350.028729 94.404397 
L 348.641523 94.404397 
L 347.208078 94.330413 
L 345.820872 94.293421 
L 344.387427 94.293421 
L 343.046462 94.330413 
L 341.613016 94.330413 
L 340.17957 94.330413 
L 338.792365 94.330413 
L 337.358919 94.330413 
L 335.971714 94.330413 
L 334.538268 94.330413 
L 333.104823 94.330413 
L 331.717617 94.330413 
L 330.284172 94.256429 
L 328.896966 94.256429 
L 327.463521 94.256429 
L 326.168796 94.256429 
L 324.73535 94.219437 
L 323.301904 94.219437 
L 321.914699 94.293421 
L 320.481253 94.293421 
L 319.094048 94.293421 
L 317.660602 94.330413 
L 316.227157 94.330413 
L 314.839951 94.330413 
L 313.406506 94.367405 
L 312.0193 94.404397 
L 310.585855 94.478382 
L 309.291129 94.478382 
L 307.857684 94.478382 
L 306.424238 94.62635 
L 305.037033 94.62635 
L 303.603587 94.62635 
L 302.216382 94.515374 
L 300.782936 94.552366 
L 299.349491 94.737327 
L 297.962285 95.625138 
L 296.52884 95.773107 
L 295.141634 95.810099 
L 293.708189 95.847091 
L 292.413463 95.847091 
L 290.980018 95.847091 
L 289.546572 95.847091 
L 288.159367 95.884083 
L 286.725921 95.884083 
L 285.338716 95.921075 
L 283.90527 95.958067 
L 282.471825 95.99506 
L 281.084619 95.99506 
L 279.651174 95.99506 
L 278.263968 95.99506 
L 276.830522 95.99506 
L 275.489557 96.032052 
L 274.056112 96.032052 
L 272.622666 96.069044 
L 271.235461 96.106036 
L 269.802015 96.106036 
L 268.41481 96.106036 
L 266.981364 96.106036 
L 265.547918 96.106036 
L 264.160713 96.106036 
L 262.727267 96.106036 
L 261.340062 96.106036 
L 259.906616 96.18002 
L 258.611891 96.18002 
L 257.178446 96.18002 
L 255.745 96.217012 
L 254.357795 96.217012 
L 252.924349 96.254005 
L 251.537144 96.401973 
L 250.103698 97.289785 
L 248.670252 97.289785 
L 247.283047 97.289785 
L 245.849601 97.363769 
L 244.462396 97.363769 
L 243.02895 97.363769 
L 241.734225 97.363769 
L 240.30078 97.363769 
L 238.867334 97.363769 
L 237.480129 97.437753 
L 236.046683 97.363769 
L 234.659478 97.400761 
L 233.226032 97.474745 
L 231.792586 97.54873 
L 230.405381 97.73369 
L 228.971935 97.770682 
L 227.58473 97.770682 
L 226.151284 97.770682 
L 224.856559 97.770682 
L 223.423114 97.844667 
L 221.989668 97.844667 
L 220.602463 97.918651 
L 219.169017 97.918651 
L 217.781811 97.807675 
L 216.348366 97.881659 
L 214.91492 97.881659 
L 213.527715 97.881659 
L 212.094269 97.918651 
L 210.707064 97.918651 
L 209.273618 97.918651 
L 207.932653 97.955643 
L 206.499207 97.955643 
L 205.065762 97.992635 
L 203.678556 97.955643 
L 202.245111 97.955643 
L 200.857905 98.029627 
L 199.42446 98.06662 
L 196.696289 98.325565 
L 195.540284 98.880447 
L 194.569241 99.139392 
L 193.413236 98.547517 
L 192.488433 99.028415 
L 191.193707 99.065408 
L 188.558017 99.916227 
L 186.014807 99.916227 
L 185.228724 99.879235 
L 183.980239 100.027203 
L 182.685514 100.027203 
L 181.113348 100.101188 
L 180.142304 100.101188 
L 179.17126 100.13818 
L 174.917164 100.286148 
L 174.0386 100.286148 
L 169.507063 101.247944 
L 167.241294 101.35892 
L 166.501451 101.395913 
L 165.576647 101.506889 
L 164.975525 101.506889 
L 164.466883 101.506889 
L 161.415031 101.506889 
L 158.131978 101.728842 
L 156.467332 101.839818 
L 154.848925 101.876811 
L 151.935794 101.950795 
L 151.195951 102.061771 
L 149.993706 102.246732 
L 148.051619 102.468685 
L 145.046007 102.616653 
L 143.936243 103.208528 
L 141.346792 103.24552 
L 139.959587 103.504465 
L 138.341181 103.800402 
L 136.491573 103.874386 
L 135.150608 103.874386 
L 134.133324 103.874386 
L 133.439721 103.874386 
L 132.422438 104.022355 
L 131.451394 104.170323 
L 130.804031 104.2813 
L 130.61907 104.2813 
L 129.925468 104.244308 
L 129.000664 104.762198 
L 127.705939 104.318292 
L 127.243537 104.318292 
L 126.734895 104.392276 
L 125.995052 104.392276 
L 125.30145 104.392276 
L 124.654087 104.947159 
L 123.729284 104.947159 
L 123.405602 104.503253 
L 122.527039 105.058135 
L 121.417274 106.093915 
L 120.584951 106.944734 
L 120.122549 106.981726 
L 119.336466 106.981726 
L 118.827824 107.018719 
L 118.041741 107.573601 
L 117.394379 107.055711 
L 116.608296 107.055711 
L 113.556444 107.314656 
L 113.325243 107.351648 
L 111.475636 107.38864 
L 107.45274 104.947159 
L 105.279451 107.536609 
L 96.863738 109.312232 
L 83.315365 111.124847 
L 64.911773 112.38258 
L 49.051391 114.269179 
L 41.329281 116.488708 
L 33.514691 116.081794 
z
" clip-path="url(#p433a283303)" style="fill: #aeaeae"/>
   </g>
   <g id="PolyCollection_4">
    <path d="M 33.514691 93.627562 
L 33.514691 116.081794 
L 41.329281 116.488708 
L 49.051391 114.269179 
L 64.911773 112.38258 
L 83.315365 111.124847 
L 96.863738 109.312232 
L 105.279451 107.536609 
L 107.45274 104.947159 
L 111.475636 107.38864 
L 113.325243 107.351648 
L 113.556444 107.314656 
L 116.608296 107.055711 
L 117.394379 107.055711 
L 118.041741 107.573601 
L 118.827824 107.018719 
L 119.336466 106.981726 
L 120.122549 106.981726 
L 120.584951 106.944734 
L 121.417274 106.093915 
L 122.527039 105.058135 
L 123.405602 104.503253 
L 123.729284 104.947159 
L 124.654087 104.947159 
L 125.30145 104.392276 
L 125.995052 104.392276 
L 126.734895 104.392276 
L 127.243537 104.318292 
L 127.705939 104.318292 
L 129.000664 104.762198 
L 129.925468 104.244308 
L 130.61907 104.2813 
L 130.804031 104.2813 
L 131.451394 104.170323 
L 132.422438 104.022355 
L 133.439721 103.874386 
L 134.133324 103.874386 
L 135.150608 103.874386 
L 136.491573 103.874386 
L 138.341181 103.800402 
L 139.959587 103.504465 
L 141.346792 103.24552 
L 143.936243 103.208528 
L 145.046007 102.616653 
L 148.051619 102.468685 
L 149.993706 102.246732 
L 151.195951 102.061771 
L 151.935794 101.950795 
L 154.848925 101.876811 
L 156.467332 101.839818 
L 158.131978 101.728842 
L 161.415031 101.506889 
L 164.466883 101.506889 
L 164.975525 101.506889 
L 165.576647 101.506889 
L 166.501451 101.395913 
L 167.241294 101.35892 
L 169.507063 101.247944 
L 174.0386 100.286148 
L 174.917164 100.286148 
L 179.17126 100.13818 
L 180.142304 100.101188 
L 181.113348 100.101188 
L 182.685514 100.027203 
L 183.980239 100.027203 
L 185.228724 99.879235 
L 186.014807 99.916227 
L 188.558017 99.916227 
L 191.193707 99.065408 
L 192.488433 99.028415 
L 193.413236 98.547517 
L 194.569241 99.139392 
L 195.540284 98.880447 
L 196.696289 98.325565 
L 199.42446 98.06662 
L 200.857905 98.029627 
L 202.245111 97.955643 
L 203.678556 97.955643 
L 205.065762 97.992635 
L 206.499207 97.955643 
L 207.932653 97.955643 
L 209.273618 97.918651 
L 210.707064 97.918651 
L 212.094269 97.918651 
L 213.527715 97.881659 
L 214.91492 97.881659 
L 216.348366 97.881659 
L 217.781811 97.807675 
L 219.169017 97.918651 
L 220.602463 97.918651 
L 221.989668 97.844667 
L 223.423114 97.844667 
L 224.856559 97.770682 
L 226.151284 97.770682 
L 227.58473 97.770682 
L 228.971935 97.770682 
L 230.405381 97.73369 
L 231.792586 97.54873 
L 233.226032 97.474745 
L 234.659478 97.400761 
L 236.046683 97.363769 
L 237.480129 97.437753 
L 238.867334 97.363769 
L 240.30078 97.363769 
L 241.734225 97.363769 
L 243.02895 97.363769 
L 244.462396 97.363769 
L 245.849601 97.363769 
L 247.283047 97.289785 
L 248.670252 97.289785 
L 250.103698 97.289785 
L 251.537144 96.401973 
L 252.924349 96.254005 
L 254.357795 96.217012 
L 255.745 96.217012 
L 257.178446 96.18002 
L 258.611891 96.18002 
L 259.906616 96.18002 
L 261.340062 96.106036 
L 262.727267 96.106036 
L 264.160713 96.106036 
L 265.547918 96.106036 
L 266.981364 96.106036 
L 268.41481 96.106036 
L 269.802015 96.106036 
L 271.235461 96.106036 
L 272.622666 96.069044 
L 274.056112 96.032052 
L 275.489557 96.032052 
L 276.830522 95.99506 
L 278.263968 95.99506 
L 279.651174 95.99506 
L 281.084619 95.99506 
L 282.471825 95.99506 
L 283.90527 95.958067 
L 285.338716 95.921075 
L 286.725921 95.884083 
L 288.159367 95.884083 
L 289.546572 95.847091 
L 290.980018 95.847091 
L 292.413463 95.847091 
L 293.708189 95.847091 
L 295.141634 95.810099 
L 296.52884 95.773107 
L 297.962285 95.625138 
L 299.349491 94.737327 
L 300.782936 94.552366 
L 302.216382 94.515374 
L 303.603587 94.62635 
L 305.037033 94.62635 
L 306.424238 94.62635 
L 307.857684 94.478382 
L 309.291129 94.478382 
L 310.585855 94.478382 
L 312.0193 94.404397 
L 313.406506 94.367405 
L 314.839951 94.330413 
L 316.227157 94.330413 
L 317.660602 94.330413 
L 319.094048 94.293421 
L 320.481253 94.293421 
L 321.914699 94.293421 
L 323.301904 94.219437 
L 324.73535 94.219437 
L 326.168796 94.256429 
L 327.463521 94.256429 
L 328.896966 94.256429 
L 330.284172 94.256429 
L 331.717617 94.330413 
L 333.104823 94.330413 
L 334.538268 94.330413 
L 335.971714 94.330413 
L 337.358919 94.330413 
L 338.792365 94.330413 
L 340.17957 94.330413 
L 341.613016 94.330413 
L 343.046462 94.330413 
L 344.387427 94.293421 
L 345.820872 94.293421 
L 347.208078 94.330413 
L 348.641523 94.404397 
L 350.028729 94.404397 
L 351.462174 94.367405 
L 352.89562 94.367405 
L 354.282826 94.404397 
L 355.716271 94.404397 
L 357.103477 94.404397 
L 358.536922 94.441389 
L 359.970368 94.441389 
L 361.265093 94.404397 
L 362.698538 94.367405 
L 364.085744 94.330413 
L 365.519189 94.330413 
L 366.906395 94.330413 
L 368.339841 94.293421 
L 369.773286 94.293421 
L 371.160492 94.293421 
L 372.593937 94.219437 
L 373.981143 94.256429 
L 375.414588 94.219437 
L 376.848034 94.219437 
L 378.142759 94.219437 
L 379.576204 94.219437 
L 380.96341 94.219437 
L 382.396856 94.145452 
L 383.784061 94.071468 
L 385.217507 94.071468 
L 386.650952 94.071468 
L 388.038158 94.071468 
L 389.471603 94.034476 
L 390.858809 94.034476 
L 392.292254 93.960492 
L 393.7257 93.960492 
L 395.020425 93.923499 
L 396.453871 93.923499 
L 397.841076 93.923499 
L 399.274522 93.923499 
L 400.661727 93.923499 
L 402.095173 93.849515 
L 403.528618 93.849515 
L 404.915824 93.849515 
L 406.349269 93.849515 
L 407.736475 93.812523 
L 409.16992 93.812523 
L 410.603366 93.812523 
L 411.944331 93.775531 
L 413.377777 93.775531 
L 414.764982 93.775531 
L 416.198428 93.738539 
L 417.585633 93.738539 
L 419.019079 93.516586 
L 420.452524 93.183657 
L 421.83973 93.220649 
L 423.273175 93.220649 
L 424.660381 93.220649 
L 426.093826 93.220649 
L 427.527272 93.220649 
L 428.821997 93.220649 
L 430.255443 93.220649 
L 431.642648 93.257641 
L 433.076094 93.257641 
L 434.463299 93.257641 
L 435.896745 93.257641 
L 437.33019 93.257641 
L 438.717396 94.145452 
L 440.150841 94.145452 
L 441.538047 94.145452 
L 442.971493 94.145452 
L 444.404938 94.182444 
L 445.699663 94.219437 
L 447.133109 94.367405 
L 448.520314 94.404397 
L 449.95376 94.441389 
L 449.95376 86.710031 
L 449.95376 86.710031 
L 448.520314 86.673039 
L 447.133109 86.636047 
L 445.699663 85.045385 
L 444.404938 85.045385 
L 442.971493 85.008393 
L 441.538047 85.008393 
L 440.150841 85.008393 
L 438.717396 85.008393 
L 437.33019 84.120581 
L 435.896745 84.120581 
L 434.463299 84.120581 
L 433.076094 84.120581 
L 431.642648 84.120581 
L 430.255443 84.120581 
L 428.821997 84.120581 
L 427.527272 84.120581 
L 426.093826 84.120581 
L 424.660381 84.120581 
L 423.273175 84.120581 
L 421.83973 84.157573 
L 420.452524 84.157573 
L 419.019079 84.157573 
L 417.585633 84.194565 
L 416.198428 84.194565 
L 414.764982 84.194565 
L 413.377777 84.194565 
L 411.944331 84.194565 
L 410.603366 84.194565 
L 409.16992 84.194565 
L 407.736475 84.194565 
L 406.349269 84.194565 
L 404.915824 84.194565 
L 403.528618 84.194565 
L 402.095173 84.194565 
L 400.661727 84.194565 
L 399.274522 84.194565 
L 397.841076 84.194565 
L 396.453871 84.194565 
L 395.020425 84.194565 
L 393.7257 84.379526 
L 392.292254 84.416518 
L 390.858809 84.45351 
L 389.471603 84.45351 
L 388.038158 84.45351 
L 386.650952 84.45351 
L 385.217507 84.45351 
L 383.784061 84.45351 
L 382.396856 84.45351 
L 380.96341 84.45351 
L 379.576204 84.45351 
L 378.142759 84.490502 
L 376.848034 84.45351 
L 375.414588 84.45351 
L 373.981143 84.490502 
L 372.593937 84.231557 
L 371.160492 84.231557 
L 369.773286 83.898628 
L 368.339841 83.898628 
L 366.906395 83.898628 
L 365.519189 83.898628 
L 364.085744 83.898628 
L 362.698538 83.898628 
L 361.265093 83.93562 
L 359.970368 83.93562 
L 358.536922 83.93562 
L 357.103477 83.898628 
L 355.716271 83.898628 
L 354.282826 83.898628 
L 352.89562 83.93562 
L 351.462174 83.93562 
L 350.028729 83.93562 
L 348.641523 83.93562 
L 347.208078 83.861636 
L 345.820872 83.824644 
L 344.387427 83.824644 
L 343.046462 83.824644 
L 341.613016 83.824644 
L 340.17957 83.824644 
L 338.792365 83.824644 
L 337.358919 83.824644 
L 335.971714 83.824644 
L 334.538268 83.824644 
L 333.104823 83.824644 
L 331.717617 83.824644 
L 330.284172 83.75066 
L 328.896966 83.75066 
L 327.463521 83.75066 
L 326.168796 83.75066 
L 324.73535 83.75066 
L 323.301904 83.75066 
L 321.914699 83.75066 
L 320.481253 83.75066 
L 319.094048 83.75066 
L 317.660602 83.713667 
L 316.227157 83.713667 
L 314.839951 83.713667 
L 313.406506 83.713667 
L 312.0193 83.713667 
L 310.585855 83.713667 
L 309.291129 83.713667 
L 307.857684 83.713667 
L 306.424238 83.713667 
L 305.037033 83.713667 
L 303.603587 83.713667 
L 302.216382 83.713667 
L 300.782936 83.713667 
L 299.349491 83.713667 
L 297.962285 83.713667 
L 296.52884 83.713667 
L 295.141634 83.713667 
L 293.708189 83.713667 
L 292.413463 83.713667 
L 290.980018 83.713667 
L 289.546572 83.713667 
L 288.159367 83.713667 
L 286.725921 83.713667 
L 285.338716 83.713667 
L 283.90527 83.713667 
L 282.471825 83.713667 
L 281.084619 83.713667 
L 279.651174 83.713667 
L 278.263968 83.713667 
L 276.830522 84.046597 
L 275.489557 84.083589 
L 274.056112 84.083589 
L 272.622666 84.083589 
L 271.235461 84.231557 
L 269.802015 84.231557 
L 268.41481 84.231557 
L 266.981364 84.231557 
L 265.547918 84.231557 
L 264.160713 84.231557 
L 262.727267 84.231557 
L 261.340062 84.231557 
L 259.906616 84.231557 
L 258.611891 84.231557 
L 257.178446 84.231557 
L 255.745 84.26855 
L 254.357795 84.26855 
L 252.924349 84.26855 
L 251.537144 84.26855 
L 250.103698 84.009605 
L 248.670252 84.157573 
L 247.283047 84.120581 
L 245.849601 84.120581 
L 244.462396 84.120581 
L 243.02895 84.120581 
L 241.734225 84.120581 
L 240.30078 84.120581 
L 238.867334 84.120581 
L 237.480129 84.157573 
L 236.046683 84.157573 
L 234.659478 84.157573 
L 233.226032 84.120581 
L 231.792586 84.120581 
L 230.405381 84.120581 
L 228.971935 84.120581 
L 227.58473 84.120581 
L 226.151284 84.120581 
L 224.856559 84.120581 
L 223.423114 84.120581 
L 221.989668 84.120581 
L 220.602463 84.120581 
L 219.169017 84.157573 
L 217.781811 84.120581 
L 216.348366 84.157573 
L 214.91492 84.120581 
L 213.527715 84.120581 
L 212.094269 84.120581 
L 210.707064 84.120581 
L 209.273618 84.120581 
L 207.932653 84.120581 
L 206.499207 84.157573 
L 205.065762 84.157573 
L 203.678556 84.120581 
L 202.245111 84.120581 
L 200.857905 84.120581 
L 199.42446 84.194565 
L 196.696289 84.45351 
L 195.540284 85.082377 
L 194.569241 85.156361 
L 193.413236 84.564487 
L 192.488433 86.00718 
L 191.193707 86.00718 
L 188.558017 87.338898 
L 186.014807 87.338898 
L 185.228724 87.301905 
L 183.980239 87.449874 
L 182.685514 87.412882 
L 181.113348 87.412882 
L 180.142304 87.412882 
L 179.17126 87.412882 
L 174.917164 87.708819 
L 174.0386 87.708819 
L 169.507063 87.89378 
L 167.241294 87.856788 
L 166.501451 87.856788 
L 165.576647 87.930772 
L 164.975525 87.930772 
L 164.466883 87.930772 
L 161.415031 88.448662 
L 158.131978 88.559638 
L 156.467332 88.559638 
L 154.848925 88.559638 
L 151.935794 88.559638 
L 151.195951 88.522646 
L 149.993706 88.522646 
L 148.051619 88.41167 
L 145.046007 88.374678 
L 143.936243 89.336473 
L 141.346792 89.44745 
L 139.959587 89.558426 
L 138.341181 89.44745 
L 136.491573 89.44745 
L 135.150608 89.410458 
L 134.133324 89.410458 
L 133.439721 89.410458 
L 132.422438 89.373466 
L 131.451394 89.373466 
L 130.804031 89.410458 
L 130.61907 89.410458 
L 129.925468 89.410458 
L 129.000664 89.817371 
L 127.705939 89.410458 
L 127.243537 89.410458 
L 126.734895 89.44745 
L 125.995052 89.373466 
L 125.30145 89.373466 
L 124.654087 89.743387 
L 123.729284 89.669403 
L 123.405602 89.262489 
L 122.527039 89.780379 
L 121.417274 89.632411 
L 120.584951 89.669403 
L 120.122549 89.669403 
L 119.336466 89.669403 
L 118.827824 89.706395 
L 118.041741 90.187293 
L 117.394379 89.669403 
L 116.608296 89.669403 
L 113.556444 90.594206 
L 113.325243 90.631199 
L 111.475636 90.594206 
L 107.45274 89.743387 
L 105.279451 90.594206 
L 96.863738 91.334049 
L 83.315365 91.740963 
L 64.911773 92.406821 
L 49.051391 92.813735 
L 41.329281 93.775531 
L 33.514691 93.627562 
z
" clip-path="url(#p433a283303)" style="fill: #d5dce5"/>
   </g>
   <g id="matplotlib.axis_1">
    <g id="xtick_1">
     <g id="line2d_1">
      <defs>
       <path id="mf5fdb6c13e" d="M 0 0 
L 0 3.5 
" style="stroke: #000000; stroke-width: 0.8"/>
      </defs>
      <g>
       <use xlink:href="#mf5fdb6c13e" x="71.385399" y="271.263841" style="stroke: #000000; stroke-width: 0.8"/>
      </g>
     </g>
     <g id="text_1">
      <!-- 2004 -->
      <g transform="translate(58.660399 285.862279) scale(0.1 -0.1)">
       <defs>
        <path id="DejaVuSans-32" d="M 1228 531 
L 3431 531 
L 3431 0 
L 469 0 
L 469 531 
Q 828 903 1448 1529 
Q 2069 2156 2228 2338 
Q 2531 2678 2651 2914 
Q 2772 3150 2772 3378 
Q 2772 3750 2511 3984 
Q 2250 4219 1831 4219 
Q 1534 4219 1204 4116 
Q 875 4013 500 3803 
L 500 4441 
Q 881 4594 1212 4672 
Q 1544 4750 1819 4750 
Q 2544 4750 2975 4387 
Q 3406 4025 3406 3419 
Q 3406 3131 3298 2873 
Q 3191 2616 2906 2266 
Q 2828 2175 2409 1742 
Q 1991 1309 1228 531 
z
" transform="scale(0.015625)"/>
        <path id="DejaVuSans-30" d="M 2034 4250 
Q 1547 4250 1301 3770 
Q 1056 3291 1056 2328 
Q 1056 1369 1301 889 
Q 1547 409 2034 409 
Q 2525 409 2770 889 
Q 3016 1369 3016 2328 
Q 3016 3291 2770 3770 
Q 2525 4250 2034 4250 
z
M 2034 4750 
Q 2819 4750 3233 4129 
Q 3647 3509 3647 2328 
Q 3647 1150 3233 529 
Q 2819 -91 2034 -91 
Q 1250 -91 836 529 
Q 422 1150 422 2328 
Q 422 3509 836 4129 
Q 1250 4750 2034 4750 
z
" transform="scale(0.015625)"/>
        <path id="DejaVuSans-34" d="M 2419 4116 
L 825 1625 
L 2419 1625 
L 2419 4116 
z
M 2253 4666 
L 3047 4666 
L 3047 1625 
L 3713 1625 
L 3713 1100 
L 3047 1100 
L 3047 0 
L 2419 0 
L 2419 1100 
L 313 1100 
L 313 1709 
L 2253 4666 
z
" transform="scale(0.015625)"/>
       </defs>
       <use xlink:href="#DejaVuSans-32"/>
       <use xlink:href="#DejaVuSans-30" x="63.623047"/>
       <use xlink:href="#DejaVuSans-30" x="127.246094"/>
       <use xlink:href="#DejaVuSans-34" x="190.869141"/>
      </g>
     </g>
    </g>
    <g id="xtick_2">
     <g id="line2d_2">
      <g>
       <use xlink:href="#mf5fdb6c13e" x="138.942303" y="271.263841" style="stroke: #000000; stroke-width: 0.8"/>
      </g>
     </g>
     <g id="text_2">
      <!-- 2008 -->
      <g transform="translate(126.217303 285.862279) scale(0.1 -0.1)">
       <defs>
        <path id="DejaVuSans-38" d="M 2034 2216 
Q 1584 2216 1326 1975 
Q 1069 1734 1069 1313 
Q 1069 891 1326 650 
Q 1584 409 2034 409 
Q 2484 409 2743 651 
Q 3003 894 3003 1313 
Q 3003 1734 2745 1975 
Q 2488 2216 2034 2216 
z
M 1403 2484 
Q 997 2584 770 2862 
Q 544 3141 544 3541 
Q 544 4100 942 4425 
Q 1341 4750 2034 4750 
Q 2731 4750 3128 4425 
Q 3525 4100 3525 3541 
Q 3525 3141 3298 2862 
Q 3072 2584 2669 2484 
Q 3125 2378 3379 2068 
Q 3634 1759 3634 1313 
Q 3634 634 3220 271 
Q 2806 -91 2034 -91 
Q 1263 -91 848 271 
Q 434 634 434 1313 
Q 434 1759 690 2068 
Q 947 2378 1403 2484 
z
M 1172 3481 
Q 1172 3119 1398 2916 
Q 1625 2713 2034 2713 
Q 2441 2713 2670 2916 
Q 2900 3119 2900 3481 
Q 2900 3844 2670 4047 
Q 2441 4250 2034 4250 
Q 1625 4250 1398 4047 
Q 1172 3844 1172 3481 
z
" transform="scale(0.015625)"/>
       </defs>
       <use xlink:href="#DejaVuSans-32"/>
       <use xlink:href="#DejaVuSans-30" x="63.623047"/>
       <use xlink:href="#DejaVuSans-30" x="127.246094"/>
       <use xlink:href="#DejaVuSans-38" x="190.869141"/>
      </g>
     </g>
    </g>
    <g id="xtick_3">
     <g id="line2d_3">
      <g>
       <use xlink:href="#mf5fdb6c13e" x="206.499207" y="271.263841" style="stroke: #000000; stroke-width: 0.8"/>
      </g>
     </g>
     <g id="text_3">
      <!-- 2012 -->
      <g transform="translate(193.774207 285.862279) scale(0.1 -0.1)">
       <defs>
        <path id="DejaVuSans-31" d="M 794 531 
L 1825 531 
L 1825 4091 
L 703 3866 
L 703 4441 
L 1819 4666 
L 2450 4666 
L 2450 531 
L 3481 531 
L 3481 0 
L 794 0 
L 794 531 
z
" transform="scale(0.015625)"/>
       </defs>
       <use xlink:href="#DejaVuSans-32"/>
       <use xlink:href="#DejaVuSans-30" x="63.623047"/>
       <use xlink:href="#DejaVuSans-31" x="127.246094"/>
       <use xlink:href="#DejaVuSans-32" x="190.869141"/>
      </g>
     </g>
    </g>
    <g id="xtick_4">
     <g id="line2d_4">
      <g>
       <use xlink:href="#mf5fdb6c13e" x="274.056112" y="271.263841" style="stroke: #000000; stroke-width: 0.8"/>
      </g>
     </g>
     <g id="text_4">
      <!-- 2016 -->
      <g transform="translate(261.331112 285.862279) scale(0.1 -0.1)">
       <defs>
        <path id="DejaVuSans-36" d="M 2113 2584 
Q 1688 2584 1439 2293 
Q 1191 2003 1191 1497 
Q 1191 994 1439 701 
Q 1688 409 2113 409 
Q 2538 409 2786 701 
Q 3034 994 3034 1497 
Q 3034 2003 2786 2293 
Q 2538 2584 2113 2584 
z
M 3366 4563 
L 3366 3988 
Q 3128 4100 2886 4159 
Q 2644 4219 2406 4219 
Q 1781 4219 1451 3797 
Q 1122 3375 1075 2522 
Q 1259 2794 1537 2939 
Q 1816 3084 2150 3084 
Q 2853 3084 3261 2657 
Q 3669 2231 3669 1497 
Q 3669 778 3244 343 
Q 2819 -91 2113 -91 
Q 1303 -91 875 529 
Q 447 1150 447 2328 
Q 447 3434 972 4092 
Q 1497 4750 2381 4750 
Q 2619 4750 2861 4703 
Q 3103 4656 3366 4563 
z
" transform="scale(0.015625)"/>
       </defs>
       <use xlink:href="#DejaVuSans-32"/>
       <use xlink:href="#DejaVuSans-30" x="63.623047"/>
       <use xlink:href="#DejaVuSans-31" x="127.246094"/>
       <use xlink:href="#DejaVuSans-36" x="190.869141"/>
      </g>
     </g>
    </g>
    <g id="xtick_5">
     <g id="line2d_5">
      <g>
       <use xlink:href="#mf5fdb6c13e" x="341.613016" y="271.263841" style="stroke: #000000; stroke-width: 0.8"/>
      </g>
     </g>
     <g id="text_5">
      <!-- 2020 -->
      <g transform="translate(328.888016 285.862279) scale(0.1 -0.1)">
       <use xlink:href="#DejaVuSans-32"/>
       <use xlink:href="#DejaVuSans-30" x="63.623047"/>
       <use xlink:href="#DejaVuSans-32" x="127.246094"/>
       <use xlink:href="#DejaVuSans-30" x="190.869141"/>
      </g>
     </g>
    </g>
    <g id="xtick_6">
     <g id="line2d_6">
      <g>
       <use xlink:href="#mf5fdb6c13e" x="409.16992" y="271.263841" style="stroke: #000000; stroke-width: 0.8"/>
      </g>
     </g>
     <g id="text_6">
      <!-- 2024 -->
      <g transform="translate(396.44492 285.862279) scale(0.1 -0.1)">
       <use xlink:href="#DejaVuSans-32"/>
       <use xlink:href="#DejaVuSans-30" x="63.623047"/>
       <use xlink:href="#DejaVuSans-32" x="127.246094"/>
       <use xlink:href="#DejaVuSans-34" x="190.869141"/>
      </g>
     </g>
    </g>
    <g id="text_7">
     <!-- Year -->
     <g transform="translate(239.86375 303.339622) scale(0.15 -0.15)">
      <defs>
       <path id="DejaVuSans-59" d="M -13 4666 
L 666 4666 
L 1959 2747 
L 3244 4666 
L 3922 4666 
L 2272 2222 
L 2272 0 
L 1638 0 
L 1638 2222 
L -13 4666 
z
" transform="scale(0.015625)"/>
       <path id="DejaVuSans-65" d="M 3597 1894 
L 3597 1613 
L 953 1613 
Q 991 1019 1311 708 
Q 1631 397 2203 397 
Q 2534 397 2845 478 
Q 3156 559 3463 722 
L 3463 178 
Q 3153 47 2828 -22 
Q 2503 -91 2169 -91 
Q 1331 -91 842 396 
Q 353 884 353 1716 
Q 353 2575 817 3079 
Q 1281 3584 2069 3584 
Q 2775 3584 3186 3129 
Q 3597 2675 3597 1894 
z
M 3022 2063 
Q 3016 2534 2758 2815 
Q 2500 3097 2075 3097 
Q 1594 3097 1305 2825 
Q 1016 2553 972 2059 
L 3022 2063 
z
" transform="scale(0.015625)"/>
       <path id="DejaVuSans-61" d="M 2194 1759 
Q 1497 1759 1228 1600 
Q 959 1441 959 1056 
Q 959 750 1161 570 
Q 1363 391 1709 391 
Q 2188 391 2477 730 
Q 2766 1069 2766 1631 
L 2766 1759 
L 2194 1759 
z
M 3341 1997 
L 3341 0 
L 2766 0 
L 2766 531 
Q 2569 213 2275 61 
Q 1981 -91 1556 -91 
Q 1019 -91 701 211 
Q 384 513 384 1019 
Q 384 1609 779 1909 
Q 1175 2209 1959 2209 
L 2766 2209 
L 2766 2266 
Q 2766 2663 2505 2880 
Q 2244 3097 1772 3097 
Q 1472 3097 1187 3025 
Q 903 2953 641 2809 
L 641 3341 
Q 956 3463 1253 3523 
Q 1550 3584 1831 3584 
Q 2591 3584 2966 3190 
Q 3341 2797 3341 1997 
z
" transform="scale(0.015625)"/>
       <path id="DejaVuSans-72" d="M 2631 2963 
Q 2534 3019 2420 3045 
Q 2306 3072 2169 3072 
Q 1681 3072 1420 2755 
Q 1159 2438 1159 1844 
L 1159 0 
L 581 0 
L 581 3500 
L 1159 3500 
L 1159 2956 
Q 1341 3275 1631 3429 
Q 1922 3584 2338 3584 
Q 2397 3584 2469 3576 
Q 2541 3569 2628 3553 
L 2631 2963 
z
" transform="scale(0.015625)"/>
      </defs>
      <use xlink:href="#DejaVuSans-59"/>
      <use xlink:href="#DejaVuSans-65" x="47.833984"/>
      <use xlink:href="#DejaVuSans-61" x="109.357422"/>
      <use xlink:href="#DejaVuSans-72" x="170.636719"/>
     </g>
    </g>
   </g>
   <g id="matplotlib.axis_2">
    <g id="ytick_1">
     <g id="line2d_7">
      <defs>
       <path id="m272a2c2289" d="M 0 0 
L -3.5 0 
" style="stroke: #000000; stroke-width: 0.8"/>
      </defs>
      <g>
       <use xlink:href="#m272a2c2289" x="61.49" y="271.263841" style="stroke: #000000; stroke-width: 0.8"/>
      </g>
     </g>
     <g id="text_8">
      <!-- 0 -->
      <g transform="translate(48.1275 275.06306) scale(0.1 -0.1)">
       <use xlink:href="#DejaVuSans-30"/>
      </g>
     </g>
    </g>
    <g id="ytick_2">
     <g id="line2d_8">
      <g>
       <use xlink:href="#m272a2c2289" x="61.49" y="234.271697" style="stroke: #000000; stroke-width: 0.8"/>
      </g>
     </g>
     <g id="text_9">
      <!-- 1000 -->
      <g transform="translate(29.04 238.070915) scale(0.1 -0.1)">
       <use xlink:href="#DejaVuSans-31"/>
       <use xlink:href="#DejaVuSans-30" x="63.623047"/>
       <use xlink:href="#DejaVuSans-30" x="127.246094"/>
       <use xlink:href="#DejaVuSans-30" x="190.869141"/>
      </g>
     </g>
    </g>
    <g id="ytick_3">
     <g id="line2d_9">
      <g>
       <use xlink:href="#m272a2c2289" x="61.49" y="197.279552" style="stroke: #000000; stroke-width: 0.8"/>
      </g>
     </g>
     <g id="text_10">
      <!-- 2000 -->
      <g transform="translate(29.04 201.078771) scale(0.1 -0.1)">
       <use xlink:href="#DejaVuSans-32"/>
       <use xlink:href="#DejaVuSans-30" x="63.623047"/>
       <use xlink:href="#DejaVuSans-30" x="127.246094"/>
       <use xlink:href="#DejaVuSans-30" x="190.869141"/>
      </g>
     </g>
    </g>
    <g id="ytick_4">
     <g id="line2d_10">
      <g>
       <use xlink:href="#m272a2c2289" x="61.49" y="160.287407" style="stroke: #000000; stroke-width: 0.8"/>
      </g>
     </g>
     <g id="text_11">
      <!-- 3000 -->
      <g transform="translate(29.04 164.086626) scale(0.1 -0.1)">
       <defs>
        <path id="DejaVuSans-33" d="M 2597 2516 
Q 3050 2419 3304 2112 
Q 3559 1806 3559 1356 
Q 3559 666 3084 287 
Q 2609 -91 1734 -91 
Q 1441 -91 1130 -33 
Q 819 25 488 141 
L 488 750 
Q 750 597 1062 519 
Q 1375 441 1716 441 
Q 2309 441 2620 675 
Q 2931 909 2931 1356 
Q 2931 1769 2642 2001 
Q 2353 2234 1838 2234 
L 1294 2234 
L 1294 2753 
L 1863 2753 
Q 2328 2753 2575 2939 
Q 2822 3125 2822 3475 
Q 2822 3834 2567 4026 
Q 2313 4219 1838 4219 
Q 1578 4219 1281 4162 
Q 984 4106 628 3988 
L 628 4550 
Q 988 4650 1302 4700 
Q 1616 4750 1894 4750 
Q 2613 4750 3031 4423 
Q 3450 4097 3450 3541 
Q 3450 3153 3228 2886 
Q 3006 2619 2597 2516 
z
" transform="scale(0.015625)"/>
       </defs>
       <use xlink:href="#DejaVuSans-33"/>
       <use xlink:href="#DejaVuSans-30" x="63.623047"/>
       <use xlink:href="#DejaVuSans-30" x="127.246094"/>
       <use xlink:href="#DejaVuSans-30" x="190.869141"/>
      </g>
     </g>
    </g>
    <g id="ytick_5">
     <g id="line2d_11">
      <g>
       <use xlink:href="#m272a2c2289" x="61.49" y="123.295262" style="stroke: #000000; stroke-width: 0.8"/>
      </g>
     </g>
     <g id="text_12">
      <!-- 4000 -->
      <g transform="translate(29.04 127.094481) scale(0.1 -0.1)">
       <use xlink:href="#DejaVuSans-34"/>
       <use xlink:href="#DejaVuSans-30" x="63.623047"/>
       <use xlink:href="#DejaVuSans-30" x="127.246094"/>
       <use xlink:href="#DejaVuSans-30" x="190.869141"/>
      </g>
     </g>
    </g>
    <g id="ytick_6">
     <g id="line2d_12">
      <g>
       <use xlink:href="#m272a2c2289" x="61.49" y="86.303118" style="stroke: #000000; stroke-width: 0.8"/>
      </g>
     </g>
     <g id="text_13">
      <!-- 5000 -->
      <g transform="translate(29.04 90.102336) scale(0.1 -0.1)">
       <defs>
        <path id="DejaVuSans-35" d="M 691 4666 
L 3169 4666 
L 3169 4134 
L 1269 4134 
L 1269 2991 
Q 1406 3038 1543 3061 
Q 1681 3084 1819 3084 
Q 2600 3084 3056 2656 
Q 3513 2228 3513 1497 
Q 3513 744 3044 326 
Q 2575 -91 1722 -91 
Q 1428 -91 1123 -41 
Q 819 9 494 109 
L 494 744 
Q 775 591 1075 516 
Q 1375 441 1709 441 
Q 2250 441 2565 725 
Q 2881 1009 2881 1497 
Q 2881 1984 2565 2268 
Q 2250 2553 1709 2553 
Q 1456 2553 1204 2497 
Q 953 2441 691 2322 
L 691 4666 
z
" transform="scale(0.015625)"/>
       </defs>
       <use xlink:href="#DejaVuSans-35"/>
       <use xlink:href="#DejaVuSans-30" x="63.623047"/>
       <use xlink:href="#DejaVuSans-30" x="127.246094"/>
       <use xlink:href="#DejaVuSans-30" x="190.869141"/>
      </g>
     </g>
    </g>
    <g id="text_14">
     <!-- Number of proteins -->
     <g transform="translate(21.920469 245.489062) rotate(-90) scale(0.15 -0.15)">
      <defs>
       <path id="DejaVuSans-4e" d="M 628 4666 
L 1478 4666 
L 3547 763 
L 3547 4666 
L 4159 4666 
L 4159 0 
L 3309 0 
L 1241 3903 
L 1241 0 
L 628 0 
L 628 4666 
z
" transform="scale(0.015625)"/>
       <path id="DejaVuSans-75" d="M 544 1381 
L 544 3500 
L 1119 3500 
L 1119 1403 
Q 1119 906 1312 657 
Q 1506 409 1894 409 
Q 2359 409 2629 706 
Q 2900 1003 2900 1516 
L 2900 3500 
L 3475 3500 
L 3475 0 
L 2900 0 
L 2900 538 
Q 2691 219 2414 64 
Q 2138 -91 1772 -91 
Q 1169 -91 856 284 
Q 544 659 544 1381 
z
M 1991 3584 
L 1991 3584 
z
" transform="scale(0.015625)"/>
       <path id="DejaVuSans-6d" d="M 3328 2828 
Q 3544 3216 3844 3400 
Q 4144 3584 4550 3584 
Q 5097 3584 5394 3201 
Q 5691 2819 5691 2113 
L 5691 0 
L 5113 0 
L 5113 2094 
Q 5113 2597 4934 2840 
Q 4756 3084 4391 3084 
Q 3944 3084 3684 2787 
Q 3425 2491 3425 1978 
L 3425 0 
L 2847 0 
L 2847 2094 
Q 2847 2600 2669 2842 
Q 2491 3084 2119 3084 
Q 1678 3084 1418 2786 
Q 1159 2488 1159 1978 
L 1159 0 
L 581 0 
L 581 3500 
L 1159 3500 
L 1159 2956 
Q 1356 3278 1631 3431 
Q 1906 3584 2284 3584 
Q 2666 3584 2933 3390 
Q 3200 3197 3328 2828 
z
" transform="scale(0.015625)"/>
       <path id="DejaVuSans-62" d="M 3116 1747 
Q 3116 2381 2855 2742 
Q 2594 3103 2138 3103 
Q 1681 3103 1420 2742 
Q 1159 2381 1159 1747 
Q 1159 1113 1420 752 
Q 1681 391 2138 391 
Q 2594 391 2855 752 
Q 3116 1113 3116 1747 
z
M 1159 2969 
Q 1341 3281 1617 3432 
Q 1894 3584 2278 3584 
Q 2916 3584 3314 3078 
Q 3713 2572 3713 1747 
Q 3713 922 3314 415 
Q 2916 -91 2278 -91 
Q 1894 -91 1617 61 
Q 1341 213 1159 525 
L 1159 0 
L 581 0 
L 581 4863 
L 1159 4863 
L 1159 2969 
z
" transform="scale(0.015625)"/>
       <path id="DejaVuSans-20" transform="scale(0.015625)"/>
       <path id="DejaVuSans-6f" d="M 1959 3097 
Q 1497 3097 1228 2736 
Q 959 2375 959 1747 
Q 959 1119 1226 758 
Q 1494 397 1959 397 
Q 2419 397 2687 759 
Q 2956 1122 2956 1747 
Q 2956 2369 2687 2733 
Q 2419 3097 1959 3097 
z
M 1959 3584 
Q 2709 3584 3137 3096 
Q 3566 2609 3566 1747 
Q 3566 888 3137 398 
Q 2709 -91 1959 -91 
Q 1206 -91 779 398 
Q 353 888 353 1747 
Q 353 2609 779 3096 
Q 1206 3584 1959 3584 
z
" transform="scale(0.015625)"/>
       <path id="DejaVuSans-66" d="M 2375 4863 
L 2375 4384 
L 1825 4384 
Q 1516 4384 1395 4259 
Q 1275 4134 1275 3809 
L 1275 3500 
L 2222 3500 
L 2222 3053 
L 1275 3053 
L 1275 0 
L 697 0 
L 697 3053 
L 147 3053 
L 147 3500 
L 697 3500 
L 697 3744 
Q 697 4328 969 4595 
Q 1241 4863 1831 4863 
L 2375 4863 
z
" transform="scale(0.015625)"/>
       <path id="DejaVuSans-70" d="M 1159 525 
L 1159 -1331 
L 581 -1331 
L 581 3500 
L 1159 3500 
L 1159 2969 
Q 1341 3281 1617 3432 
Q 1894 3584 2278 3584 
Q 2916 3584 3314 3078 
Q 3713 2572 3713 1747 
Q 3713 922 3314 415 
Q 2916 -91 2278 -91 
Q 1894 -91 1617 61 
Q 1341 213 1159 525 
z
M 3116 1747 
Q 3116 2381 2855 2742 
Q 2594 3103 2138 3103 
Q 1681 3103 1420 2742 
Q 1159 2381 1159 1747 
Q 1159 1113 1420 752 
Q 1681 391 2138 391 
Q 2594 391 2855 752 
Q 3116 1113 3116 1747 
z
" transform="scale(0.015625)"/>
       <path id="DejaVuSans-74" d="M 1172 4494 
L 1172 3500 
L 2356 3500 
L 2356 3053 
L 1172 3053 
L 1172 1153 
Q 1172 725 1289 603 
Q 1406 481 1766 481 
L 2356 481 
L 2356 0 
L 1766 0 
Q 1100 0 847 248 
Q 594 497 594 1153 
L 594 3053 
L 172 3053 
L 172 3500 
L 594 3500 
L 594 4494 
L 1172 4494 
z
" transform="scale(0.015625)"/>
       <path id="DejaVuSans-69" d="M 603 3500 
L 1178 3500 
L 1178 0 
L 603 0 
L 603 3500 
z
M 603 4863 
L 1178 4863 
L 1178 4134 
L 603 4134 
L 603 4863 
z
" transform="scale(0.015625)"/>
       <path id="DejaVuSans-6e" d="M 3513 2113 
L 3513 0 
L 2938 0 
L 2938 2094 
Q 2938 2591 2744 2837 
Q 2550 3084 2163 3084 
Q 1697 3084 1428 2787 
Q 1159 2491 1159 1978 
L 1159 0 
L 581 0 
L 581 3500 
L 1159 3500 
L 1159 2956 
Q 1366 3272 1645 3428 
Q 1925 3584 2291 3584 
Q 2894 3584 3203 3211 
Q 3513 2838 3513 2113 
z
" transform="scale(0.015625)"/>
       <path id="DejaVuSans-73" d="M 2834 3397 
L 2834 2853 
Q 2591 2978 2328 3040 
Q 2066 3103 1784 3103 
Q 1356 3103 1142 2972 
Q 928 2841 928 2578 
Q 928 2378 1081 2264 
Q 1234 2150 1697 2047 
L 1894 2003 
Q 2506 1872 2764 1633 
Q 3022 1394 3022 966 
Q 3022 478 2636 193 
Q 2250 -91 1575 -91 
Q 1294 -91 989 -36 
Q 684 19 347 128 
L 347 722 
Q 666 556 975 473 
Q 1284 391 1588 391 
Q 1994 391 2212 530 
Q 2431 669 2431 922 
Q 2431 1156 2273 1281 
Q 2116 1406 1581 1522 
L 1381 1569 
Q 847 1681 609 1914 
Q 372 2147 372 2553 
Q 372 3047 722 3315 
Q 1072 3584 1716 3584 
Q 2034 3584 2315 3537 
Q 2597 3491 2834 3397 
z
" transform="scale(0.015625)"/>
      </defs>
      <use xlink:href="#DejaVuSans-4e"/>
      <use xlink:href="#DejaVuSans-75" x="74.804688"/>
      <use xlink:href="#DejaVuSans-6d" x="138.183594"/>
      <use xlink:href="#DejaVuSans-62" x="235.595703"/>
      <use xlink:href="#DejaVuSans-65" x="299.072266"/>
      <use xlink:href="#DejaVuSans-72" x="360.595703"/>
      <use xlink:href="#DejaVuSans-20" x="401.708984"/>
      <use xlink:href="#DejaVuSans-6f" x="433.496094"/>
      <use xlink:href="#DejaVuSans-66" x="494.677734"/>
      <use xlink:href="#DejaVuSans-20" x="529.882812"/>
      <use xlink:href="#DejaVuSans-70" x="561.669922"/>
      <use xlink:href="#DejaVuSans-72" x="625.146484"/>
      <use xlink:href="#DejaVuSans-6f" x="664.009766"/>
      <use xlink:href="#DejaVuSans-74" x="725.191406"/>
      <use xlink:href="#DejaVuSans-65" x="764.400391"/>
      <use xlink:href="#DejaVuSans-69" x="825.923828"/>
      <use xlink:href="#DejaVuSans-6e" x="853.707031"/>
      <use xlink:href="#DejaVuSans-73" x="917.085938"/>
     </g>
    </g>
   </g>
   <g id="patch_3">
    <path d="M 61.49 271.263841 
L 61.49 74.336159 
" style="fill: none; stroke: #000000; stroke-width: 0.8; stroke-linejoin: miter; stroke-linecap: square"/>
   </g>
   <g id="patch_4">
    <path d="M 61.49 271.263841 
L 450 271.263841 
" style="fill: none; stroke: #000000; stroke-width: 0.8; stroke-linejoin: miter; stroke-linecap: square"/>
   </g>
   <g id="legend_1">
    <g id="patch_5">
     <path d="M 98.395781 69.336159 
L 413.094219 69.336159 
Q 415.094219 69.336159 415.094219 67.336159 
L 415.094219 38.979909 
Q 415.094219 36.979909 413.094219 36.979909 
L 98.395781 36.979909 
Q 96.395781 36.979909 96.395781 38.979909 
L 96.395781 67.336159 
Q 96.395781 69.336159 98.395781 69.336159 
z
" style="fill: #ffffff; opacity: 0.8; stroke: #cccccc; stroke-linejoin: miter"/>
    </g>
    <g id="patch_6">
     <path d="M 100.395781 48.578346 
L 120.395781 48.578346 
L 120.395781 41.578346 
L 100.395781 41.578346 
z
" style="fill: #fb363b"/>
    </g>
    <g id="text_15">
     <!-- Biological role published -->
     <g transform="translate(128.395781 48.578346) scale(0.1 -0.1)">
      <defs>
       <path id="DejaVuSans-42" d="M 1259 2228 
L 1259 519 
L 2272 519 
Q 2781 519 3026 730 
Q 3272 941 3272 1375 
Q 3272 1813 3026 2020 
Q 2781 2228 2272 2228 
L 1259 2228 
z
M 1259 4147 
L 1259 2741 
L 2194 2741 
Q 2656 2741 2882 2914 
Q 3109 3088 3109 3444 
Q 3109 3797 2882 3972 
Q 2656 4147 2194 4147 
L 1259 4147 
z
M 628 4666 
L 2241 4666 
Q 2963 4666 3353 4366 
Q 3744 4066 3744 3513 
Q 3744 3084 3544 2831 
Q 3344 2578 2956 2516 
Q 3422 2416 3680 2098 
Q 3938 1781 3938 1306 
Q 3938 681 3513 340 
Q 3088 0 2303 0 
L 628 0 
L 628 4666 
z
" transform="scale(0.015625)"/>
       <path id="DejaVuSans-6c" d="M 603 4863 
L 1178 4863 
L 1178 0 
L 603 0 
L 603 4863 
z
" transform="scale(0.015625)"/>
       <path id="DejaVuSans-67" d="M 2906 1791 
Q 2906 2416 2648 2759 
Q 2391 3103 1925 3103 
Q 1463 3103 1205 2759 
Q 947 2416 947 1791 
Q 947 1169 1205 825 
Q 1463 481 1925 481 
Q 2391 481 2648 825 
Q 2906 1169 2906 1791 
z
M 3481 434 
Q 3481 -459 3084 -895 
Q 2688 -1331 1869 -1331 
Q 1566 -1331 1297 -1286 
Q 1028 -1241 775 -1147 
L 775 -588 
Q 1028 -725 1275 -790 
Q 1522 -856 1778 -856 
Q 2344 -856 2625 -561 
Q 2906 -266 2906 331 
L 2906 616 
Q 2728 306 2450 153 
Q 2172 0 1784 0 
Q 1141 0 747 490 
Q 353 981 353 1791 
Q 353 2603 747 3093 
Q 1141 3584 1784 3584 
Q 2172 3584 2450 3431 
Q 2728 3278 2906 2969 
L 2906 3500 
L 3481 3500 
L 3481 434 
z
" transform="scale(0.015625)"/>
       <path id="DejaVuSans-63" d="M 3122 3366 
L 3122 2828 
Q 2878 2963 2633 3030 
Q 2388 3097 2138 3097 
Q 1578 3097 1268 2742 
Q 959 2388 959 1747 
Q 959 1106 1268 751 
Q 1578 397 2138 397 
Q 2388 397 2633 464 
Q 2878 531 3122 666 
L 3122 134 
Q 2881 22 2623 -34 
Q 2366 -91 2075 -91 
Q 1284 -91 818 406 
Q 353 903 353 1747 
Q 353 2603 823 3093 
Q 1294 3584 2113 3584 
Q 2378 3584 2631 3529 
Q 2884 3475 3122 3366 
z
" transform="scale(0.015625)"/>
       <path id="DejaVuSans-68" d="M 3513 2113 
L 3513 0 
L 2938 0 
L 2938 2094 
Q 2938 2591 2744 2837 
Q 2550 3084 2163 3084 
Q 1697 3084 1428 2787 
Q 1159 2491 1159 1978 
L 1159 0 
L 581 0 
L 581 4863 
L 1159 4863 
L 1159 2956 
Q 1366 3272 1645 3428 
Q 1925 3584 2291 3584 
Q 2894 3584 3203 3211 
Q 3513 2838 3513 2113 
z
" transform="scale(0.015625)"/>
       <path id="DejaVuSans-64" d="M 2906 2969 
L 2906 4863 
L 3481 4863 
L 3481 0 
L 2906 0 
L 2906 525 
Q 2725 213 2448 61 
Q 2172 -91 1784 -91 
Q 1150 -91 751 415 
Q 353 922 353 1747 
Q 353 2572 751 3078 
Q 1150 3584 1784 3584 
Q 2172 3584 2448 3432 
Q 2725 3281 2906 2969 
z
M 947 1747 
Q 947 1113 1208 752 
Q 1469 391 1925 391 
Q 2381 391 2643 752 
Q 2906 1113 2906 1747 
Q 2906 2381 2643 2742 
Q 2381 3103 1925 3103 
Q 1469 3103 1208 2742 
Q 947 2381 947 1747 
z
" transform="scale(0.015625)"/>
      </defs>
      <use xlink:href="#DejaVuSans-42"/>
      <use xlink:href="#DejaVuSans-69" x="68.603516"/>
      <use xlink:href="#DejaVuSans-6f" x="96.386719"/>
      <use xlink:href="#DejaVuSans-6c" x="157.568359"/>
      <use xlink:href="#DejaVuSans-6f" x="185.351562"/>
      <use xlink:href="#DejaVuSans-67" x="246.533203"/>
      <use xlink:href="#DejaVuSans-69" x="310.009766"/>
      <use xlink:href="#DejaVuSans-63" x="337.792969"/>
      <use xlink:href="#DejaVuSans-61" x="392.773438"/>
      <use xlink:href="#DejaVuSans-6c" x="454.052734"/>
      <use xlink:href="#DejaVuSans-20" x="481.835938"/>
      <use xlink:href="#DejaVuSans-72" x="513.623047"/>
      <use xlink:href="#DejaVuSans-6f" x="552.486328"/>
      <use xlink:href="#DejaVuSans-6c" x="613.667969"/>
      <use xlink:href="#DejaVuSans-65" x="641.451172"/>
      <use xlink:href="#DejaVuSans-20" x="702.974609"/>
      <use xlink:href="#DejaVuSans-70" x="734.761719"/>
      <use xlink:href="#DejaVuSans-75" x="798.238281"/>
      <use xlink:href="#DejaVuSans-62" x="861.617188"/>
      <use xlink:href="#DejaVuSans-6c" x="925.09375"/>
      <use xlink:href="#DejaVuSans-69" x="952.876953"/>
      <use xlink:href="#DejaVuSans-73" x="980.660156"/>
      <use xlink:href="#DejaVuSans-68" x="1032.759766"/>
      <use xlink:href="#DejaVuSans-65" x="1096.138672"/>
      <use xlink:href="#DejaVuSans-64" x="1157.662109"/>
     </g>
    </g>
    <g id="patch_7">
     <path d="M 100.395781 63.256471 
L 120.395781 63.256471 
L 120.395781 56.256471 
L 100.395781 56.256471 
z
" style="fill: #fdc92c"/>
    </g>
    <g id="text_16">
     <!-- Biological role inferred -->
     <g transform="translate(128.395781 63.256471) scale(0.1 -0.1)">
      <use xlink:href="#DejaVuSans-42"/>
      <use xlink:href="#DejaVuSans-69" x="68.603516"/>
      <use xlink:href="#DejaVuSans-6f" x="96.386719"/>
      <use xlink:href="#DejaVuSans-6c" x="157.568359"/>
      <use xlink:href="#DejaVuSans-6f" x="185.351562"/>
      <use xlink:href="#DejaVuSans-67" x="246.533203"/>
      <use xlink:href="#DejaVuSans-69" x="310.009766"/>
      <use xlink:href="#DejaVuSans-63" x="337.792969"/>
      <use xlink:href="#DejaVuSans-61" x="392.773438"/>
      <use xlink:href="#DejaVuSans-6c" x="454.052734"/>
      <use xlink:href="#DejaVuSans-20" x="481.835938"/>
      <use xlink:href="#DejaVuSans-72" x="513.623047"/>
      <use xlink:href="#DejaVuSans-6f" x="552.486328"/>
      <use xlink:href="#DejaVuSans-6c" x="613.667969"/>
      <use xlink:href="#DejaVuSans-65" x="641.451172"/>
      <use xlink:href="#DejaVuSans-20" x="702.974609"/>
      <use xlink:href="#DejaVuSans-69" x="734.761719"/>
      <use xlink:href="#DejaVuSans-6e" x="762.544922"/>
      <use xlink:href="#DejaVuSans-66" x="825.923828"/>
      <use xlink:href="#DejaVuSans-65" x="861.128906"/>
      <use xlink:href="#DejaVuSans-72" x="922.652344"/>
      <use xlink:href="#DejaVuSans-72" x="962.015625"/>
      <use xlink:href="#DejaVuSans-65" x="1000.878906"/>
      <use xlink:href="#DejaVuSans-64" x="1062.402344"/>
     </g>
    </g>
    <g id="patch_8">
     <path d="M 270.512969 48.578346 
L 290.512969 48.578346 
L 290.512969 41.578346 
L 270.512969 41.578346 
z
" style="fill: #aeaeae"/>
    </g>
    <g id="text_17">
     <!-- Conserved unknown -->
     <g transform="translate(298.512969 48.578346) scale(0.1 -0.1)">
      <defs>
       <path id="DejaVuSans-43" d="M 4122 4306 
L 4122 3641 
Q 3803 3938 3442 4084 
Q 3081 4231 2675 4231 
Q 1875 4231 1450 3742 
Q 1025 3253 1025 2328 
Q 1025 1406 1450 917 
Q 1875 428 2675 428 
Q 3081 428 3442 575 
Q 3803 722 4122 1019 
L 4122 359 
Q 3791 134 3420 21 
Q 3050 -91 2638 -91 
Q 1578 -91 968 557 
Q 359 1206 359 2328 
Q 359 3453 968 4101 
Q 1578 4750 2638 4750 
Q 3056 4750 3426 4639 
Q 3797 4528 4122 4306 
z
" transform="scale(0.015625)"/>
       <path id="DejaVuSans-76" d="M 191 3500 
L 800 3500 
L 1894 563 
L 2988 3500 
L 3597 3500 
L 2284 0 
L 1503 0 
L 191 3500 
z
" transform="scale(0.015625)"/>
       <path id="DejaVuSans-6b" d="M 581 4863 
L 1159 4863 
L 1159 1991 
L 2875 3500 
L 3609 3500 
L 1753 1863 
L 3688 0 
L 2938 0 
L 1159 1709 
L 1159 0 
L 581 0 
L 581 4863 
z
" transform="scale(0.015625)"/>
       <path id="DejaVuSans-77" d="M 269 3500 
L 844 3500 
L 1563 769 
L 2278 3500 
L 2956 3500 
L 3675 769 
L 4391 3500 
L 4966 3500 
L 4050 0 
L 3372 0 
L 2619 2869 
L 1863 0 
L 1184 0 
L 269 3500 
z
" transform="scale(0.015625)"/>
      </defs>
      <use xlink:href="#DejaVuSans-43"/>
      <use xlink:href="#DejaVuSans-6f" x="69.824219"/>
      <use xlink:href="#DejaVuSans-6e" x="131.005859"/>
      <use xlink:href="#DejaVuSans-73" x="194.384766"/>
      <use xlink:href="#DejaVuSans-65" x="246.484375"/>
      <use xlink:href="#DejaVuSans-72" x="308.007812"/>
      <use xlink:href="#DejaVuSans-76" x="349.121094"/>
      <use xlink:href="#DejaVuSans-65" x="408.300781"/>
      <use xlink:href="#DejaVuSans-64" x="469.824219"/>
      <use xlink:href="#DejaVuSans-20" x="533.300781"/>
      <use xlink:href="#DejaVuSans-75" x="565.087891"/>
      <use xlink:href="#DejaVuSans-6e" x="628.466797"/>
      <use xlink:href="#DejaVuSans-6b" x="691.845703"/>
      <use xlink:href="#DejaVuSans-6e" x="749.755859"/>
      <use xlink:href="#DejaVuSans-6f" x="813.134766"/>
      <use xlink:href="#DejaVuSans-77" x="874.316406"/>
      <use xlink:href="#DejaVuSans-6e" x="956.103516"/>
     </g>
    </g>
    <g id="patch_9">
     <path d="M 270.512969 63.256471 
L 290.512969 63.256471 
L 290.512969 56.256471 
L 270.512969 56.256471 
z
" style="fill: #d5dce5"/>
    </g>
    <g id="text_18">
     <!-- Fission yeast unknown -->
     <g transform="translate(298.512969 63.256471) scale(0.1 -0.1)">
      <defs>
       <path id="DejaVuSans-46" d="M 628 4666 
L 3309 4666 
L 3309 4134 
L 1259 4134 
L 1259 2759 
L 3109 2759 
L 3109 2228 
L 1259 2228 
L 1259 0 
L 628 0 
L 628 4666 
z
" transform="scale(0.015625)"/>
       <path id="DejaVuSans-79" d="M 2059 -325 
Q 1816 -950 1584 -1140 
Q 1353 -1331 966 -1331 
L 506 -1331 
L 506 -850 
L 844 -850 
Q 1081 -850 1212 -737 
Q 1344 -625 1503 -206 
L 1606 56 
L 191 3500 
L 800 3500 
L 1894 763 
L 2988 3500 
L 3597 3500 
L 2059 -325 
z
" transform="scale(0.015625)"/>
      </defs>
      <use xlink:href="#DejaVuSans-46"/>
      <use xlink:href="#DejaVuSans-69" x="50.269531"/>
      <use xlink:href="#DejaVuSans-73" x="78.052734"/>
      <use xlink:href="#DejaVuSans-73" x="130.152344"/>
      <use xlink:href="#DejaVuSans-69" x="182.251953"/>
      <use xlink:href="#DejaVuSans-6f" x="210.035156"/>
      <use xlink:href="#DejaVuSans-6e" x="271.216797"/>
      <use xlink:href="#DejaVuSans-20" x="334.595703"/>
      <use xlink:href="#DejaVuSans-79" x="366.382812"/>
      <use xlink:href="#DejaVuSans-65" x="425.5625"/>
      <use xlink:href="#DejaVuSans-61" x="487.085938"/>
      <use xlink:href="#DejaVuSans-73" x="548.365234"/>
      <use xlink:href="#DejaVuSans-74" x="600.464844"/>
      <use xlink:href="#DejaVuSans-20" x="639.673828"/>
      <use xlink:href="#DejaVuSans-75" x="671.460938"/>
      <use xlink:href="#DejaVuSans-6e" x="734.839844"/>
      <use xlink:href="#DejaVuSans-6b" x="798.21875"/>
      <use xlink:href="#DejaVuSans-6e" x="856.128906"/>
      <use xlink:href="#DejaVuSans-6f" x="919.507812"/>
      <use xlink:href="#DejaVuSans-77" x="980.689453"/>
      <use xlink:href="#DejaVuSans-6e" x="1062.476562"/>
     </g>
    </g>
   </g>
  </g>
 </g>
 <defs>
  <clipPath id="p433a283303">
   <rect x="61.49" y="74.336159" width="388.51" height="196.927682"/>
  </clipPath>
 </defs>
</svg>
