<?xml version="1.0" encoding="utf-8" standalone="no"?>
<!DOCTYPE svg PUBLIC "-//W3C//DTD SVG 1.1//EN"
  "http://www.w3.org/Graphics/SVG/1.1/DTD/svg11.dtd">
<svg xmlns:xlink="http://www.w3.org/1999/xlink" width="460.8pt" height="345.6pt" viewBox="0 0 460.8 345.6" xmlns="http://www.w3.org/2000/svg" version="1.1">
 <metadata>
  <rdf:RDF xmlns:dc="http://purl.org/dc/elements/1.1/" xmlns:cc="http://creativecommons.org/ns#" xmlns:rdf="http://www.w3.org/1999/02/22-rdf-syntax-ns#">
   <cc:Work>
    <dc:type rdf:resource="http://purl.org/dc/dcmitype/StillImage"/>
    <dc:date>2025-06-02T00:55:34.384976</dc:date>
    <dc:format>image/svg+xml</dc:format>
    <dc:creator>
     <cc:Agent>
      <dc:title>Matplotlib v3.7.1, https://matplotlib.org/</dc:title>
     </cc:Agent>
    </dc:creator>
   </cc:Work>
  </rdf:RDF>
 </metadata>
 <defs>
  <style type="text/css">*{stroke-linejoin: round; stroke-linecap: butt}</style>
 </defs>
 <g id="figure_1">
  <g id="patch_1">
   <path d="M 0 345.6 
L 460.8 345.6 
L 460.8 0 
L 0 0 
z
" style="fill: #ffffff"/>
  </g>
  <g id="axes_1">
   <g id="patch_2">
    <path d="M 61.49 275.735572 
L 450 275.735572 
L 450 69.864428 
L 61.49 69.864428 
z
" style="fill: #ffffff"/>
   </g>
   <g id="PolyCollection_1">
    <path d="M 32.244193 223.489509 
L 32.244193 275.735572 
L 40.413683 275.735572 
L 48.486492 275.735572 
L 65.067173 275.735572 
L 84.306563 275.735572 
L 98.470235 275.735572 
L 107.268147 275.735572 
L 109.540136 275.735572 
L 113.745731 275.735572 
L 115.679338 275.735572 
L 115.921039 275.735572 
L 119.111491 275.735572 
L 119.933274 275.735572 
L 120.610036 275.735572 
L 121.431819 275.735572 
L 121.963561 275.735572 
L 122.785344 275.735572 
L 123.268746 275.735572 
L 124.138869 275.735572 
L 125.299033 275.735572 
L 126.217497 275.735572 
L 126.555878 275.735572 
L 127.522681 275.735572 
L 128.199444 275.735572 
L 128.924546 275.735572 
L 129.697989 275.735572 
L 130.229731 275.735572 
L 130.713133 275.735572 
L 132.066658 275.735572 
L 133.033461 275.735572 
L 133.758564 275.735572 
L 133.951925 275.735572 
L 134.628687 275.735572 
L 135.643831 275.735572 
L 136.707315 275.735572 
L 137.432418 275.735572 
L 138.495901 275.735572 
L 139.897767 275.735572 
L 141.831374 275.735572 
L 143.52328 275.735572 
L 144.973485 275.735572 
L 147.680535 275.735572 
L 148.840699 275.735572 
L 151.982811 275.735572 
L 154.013098 275.735572 
L 155.269943 275.735572 
L 156.043386 275.735572 
L 159.088817 275.735572 
L 160.780723 275.735572 
L 162.520969 275.735572 
L 165.953122 275.735572 
L 169.143573 275.735572 
L 169.675315 275.735572 
L 170.303738 275.735572 
L 171.270541 275.735572 
L 172.043984 275.735572 
L 174.412653 275.735572 
L 179.14999 275.735572 
L 180.068453 275.735572 
L 184.51575 275.735572 
L 185.530893 275.735572 
L 186.546037 275.735572 
L 188.189603 275.735572 
L 189.543128 275.735572 
L 190.848313 275.735572 
L 191.670096 275.735572 
L 194.328806 275.735572 
L 197.084196 275.735572 
L 198.437721 275.735572 
L 199.404524 275.735572 
L 200.613028 275.735572 
L 201.628172 275.735572 
L 202.836677 275.735572 
L 205.688747 275.735572 
L 207.187293 275.735572 
L 208.637498 275.735572 
L 210.136043 275.735572 
L 211.586249 275.735572 
L 213.084794 275.735572 
L 214.58334 275.735572 
L 215.985205 275.735572 
L 217.48375 275.735572 
L 218.933955 275.735572 
L 220.432501 275.735572 
L 221.882706 275.735572 
L 223.381252 275.735572 
L 224.879797 275.735572 
L 226.330002 275.735572 
L 227.828548 275.735572 
L 229.278753 275.735572 
L 230.777299 275.735572 
L 232.275844 275.735572 
L 233.629369 275.735572 
L 235.127915 275.735572 
L 236.57812 275.735572 
L 238.076665 275.735572 
L 239.526871 275.735572 
L 241.025416 275.735572 
L 242.523962 275.735572 
L 243.974167 275.735572 
L 245.472712 275.735572 
L 246.922918 275.735572 
L 248.421463 275.735572 
L 249.920009 275.735572 
L 251.273534 275.735572 
L 252.772079 275.735572 
L 254.222284 275.735572 
L 255.72083 275.735572 
L 257.171035 275.735572 
L 258.669581 275.735572 
L 260.168126 275.735572 
L 261.618331 275.735572 
L 263.116877 275.735572 
L 264.567082 275.735572 
L 266.065628 275.735572 
L 267.564173 275.735572 
L 268.917698 275.735572 
L 270.416244 275.735572 
L 271.866449 275.735572 
L 273.364994 275.735572 
L 274.8152 275.735572 
L 276.313745 275.735572 
L 277.812291 275.735572 
L 279.262496 275.735572 
L 280.761041 275.735572 
L 282.211247 275.735572 
L 283.709792 275.735572 
L 285.208338 275.735572 
L 286.610203 275.735572 
L 288.108748 275.735572 
L 289.558954 275.735572 
L 291.057499 275.735572 
L 292.507704 275.735572 
L 294.00625 275.735572 
L 295.504795 275.735572 
L 296.955001 275.735572 
L 298.453546 275.735572 
L 299.903751 275.735572 
L 301.402297 275.735572 
L 302.900842 275.735572 
L 304.254367 275.735572 
L 305.752913 275.735572 
L 307.203118 275.735572 
L 308.701664 275.735572 
L 310.151869 275.735572 
L 311.650414 275.735572 
L 313.14896 275.735572 
L 314.599165 275.735572 
L 316.097711 275.735572 
L 317.547916 275.735572 
L 319.046461 275.735572 
L 320.545007 275.735572 
L 321.898532 275.735572 
L 323.397077 275.735572 
L 324.847283 275.735572 
L 326.345828 275.735572 
L 327.796033 275.735572 
L 329.294579 275.735572 
L 330.793124 275.735572 
L 332.24333 275.735572 
L 333.741875 275.735572 
L 335.19208 275.735572 
L 336.690626 275.735572 
L 338.189171 275.735572 
L 339.542696 275.735572 
L 341.041242 275.735572 
L 342.491447 275.735572 
L 343.989993 275.735572 
L 345.440198 275.735572 
L 346.938743 275.735572 
L 348.437289 275.735572 
L 349.887494 275.735572 
L 351.38604 275.735572 
L 352.836245 275.735572 
L 354.33479 275.735572 
L 355.833336 275.735572 
L 357.235201 275.735572 
L 358.733746 275.735572 
L 360.183952 275.735572 
L 361.682497 275.735572 
L 363.132703 275.735572 
L 364.631248 275.735572 
L 366.129793 275.735572 
L 367.579999 275.735572 
L 369.078544 275.735572 
L 370.52875 275.735572 
L 372.027295 275.735572 
L 373.52584 275.735572 
L 374.879365 275.735572 
L 376.377911 275.735572 
L 377.828116 275.735572 
L 379.326662 275.735572 
L 380.776867 275.735572 
L 382.275412 275.735572 
L 383.773958 275.735572 
L 385.224163 275.735572 
L 386.722709 275.735572 
L 388.172914 275.735572 
L 389.671459 275.735572 
L 391.170005 275.735572 
L 392.52353 275.735572 
L 394.022075 275.735572 
L 395.472281 275.735572 
L 396.970826 275.735572 
L 398.421031 275.735572 
L 399.919577 275.735572 
L 401.418122 275.735572 
L 402.868328 275.735572 
L 404.366873 275.735572 
L 405.817079 275.735572 
L 407.315624 275.735572 
L 408.814169 275.735572 
L 410.167694 275.735572 
L 411.66624 275.735572 
L 413.116445 275.735572 
L 414.614991 275.735572 
L 416.065196 275.735572 
L 417.563741 275.735572 
L 419.062287 275.735572 
L 420.512492 275.735572 
L 422.011038 275.735572 
L 423.461243 275.735572 
L 424.959788 275.735572 
L 426.458334 275.735572 
L 427.860199 275.735572 
L 429.358745 275.735572 
L 430.80895 275.735572 
L 432.307495 275.735572 
L 433.757701 275.735572 
L 435.256246 275.735572 
L 436.754792 275.735572 
L 438.204997 275.735572 
L 439.703542 275.735572 
L 441.153748 275.735572 
L 442.652293 275.735572 
L 444.150839 275.735572 
L 445.504364 275.735572 
L 447.002909 275.735572 
L 448.453114 275.735572 
L 449.95166 275.735572 
L 449.95166 169.425856 
L 449.95166 169.425856 
L 448.453114 169.425856 
L 447.002909 169.735233 
L 445.504364 169.773905 
L 444.150839 170.779381 
L 442.652293 172.983693 
L 441.153748 173.757135 
L 439.703542 173.989168 
L 438.204997 173.989168 
L 436.754792 174.221201 
L 435.256246 174.221201 
L 433.757701 175.071988 
L 432.307495 175.613398 
L 430.80895 175.729415 
L 429.358745 175.845431 
L 427.860199 175.922775 
L 426.458334 177.585677 
L 424.959788 177.701694 
L 423.461243 177.740366 
L 422.011038 177.972399 
L 420.512492 178.088415 
L 419.062287 178.127087 
L 417.563741 178.243104 
L 416.065196 178.70717 
L 414.614991 178.939202 
L 413.116445 179.055219 
L 411.66624 179.055219 
L 410.167694 179.403268 
L 408.814169 179.98335 
L 407.315624 179.944678 
L 405.817079 180.060695 
L 404.366873 180.176711 
L 402.868328 180.408744 
L 401.418122 180.408744 
L 399.919577 180.447416 
L 398.421031 180.447416 
L 396.970826 180.408744 
L 395.472281 180.486088 
L 394.022075 180.408744 
L 392.52353 180.370072 
L 391.170005 180.408744 
L 389.671459 180.408744 
L 388.172914 180.602105 
L 386.722709 180.795465 
L 385.224163 181.104842 
L 383.773958 181.336875 
L 382.275412 181.298203 
L 380.776867 181.491564 
L 379.326662 181.762269 
L 377.828116 181.762269 
L 376.377911 181.916957 
L 374.879365 182.419695 
L 373.52584 182.535712 
L 372.027295 182.961105 
L 370.52875 182.999777 
L 369.078544 183.154466 
L 367.579999 183.23181 
L 366.129793 183.386499 
L 364.631248 183.425171 
L 363.132703 183.502515 
L 361.682497 183.502515 
L 360.183952 183.579859 
L 358.733746 183.927909 
L 357.235201 184.043925 
L 355.833336 184.121269 
L 354.33479 184.198614 
L 352.836245 184.198614 
L 351.38604 184.198614 
L 349.887494 184.31463 
L 348.437289 184.391974 
L 346.938743 184.546663 
L 345.440198 184.778696 
L 343.989993 184.894712 
L 342.491447 184.972056 
L 341.041242 185.049401 
L 339.542696 185.088073 
L 338.189171 185.088073 
L 336.690626 185.126745 
L 335.19208 185.165417 
L 333.741875 185.242761 
L 332.24333 185.281434 
L 330.793124 185.281434 
L 329.294579 185.39745 
L 327.796033 185.513466 
L 326.345828 185.745499 
L 324.847283 185.900188 
L 323.397077 186.209565 
L 321.898532 186.364254 
L 320.545007 186.518942 
L 319.046461 186.557614 
L 317.547916 186.712303 
L 316.097711 186.866991 
L 314.599165 188.568566 
L 313.14896 188.839271 
L 311.650414 189.574041 
L 310.151869 188.955287 
L 308.701664 188.877943 
L 307.203118 188.916615 
L 305.752913 188.993959 
L 304.254367 189.264664 
L 302.900842 189.303336 
L 301.402297 189.380681 
L 299.903751 190.115451 
L 298.453546 190.231468 
L 296.955001 190.424828 
L 295.504795 190.502173 
L 294.00625 190.618189 
L 292.507704 191.043583 
L 291.057499 191.236943 
L 289.558954 191.236943 
L 288.108748 191.623665 
L 286.610203 191.701009 
L 285.208338 191.739681 
L 283.709792 191.933042 
L 282.211247 192.010386 
L 280.761041 192.010386 
L 279.262496 192.203747 
L 277.812291 192.242419 
L 276.313745 192.281091 
L 274.8152 192.43578 
L 273.364994 192.551796 
L 271.866449 191.971714 
L 270.416244 192.049058 
L 268.917698 192.242419 
L 267.564173 192.242419 
L 266.065628 192.474452 
L 264.567082 192.62914 
L 263.116877 192.899845 
L 261.618331 193.247895 
L 260.168126 193.557272 
L 258.669581 193.634616 
L 257.171035 193.905321 
L 255.72083 194.137354 
L 254.222284 194.485403 
L 252.772079 194.640092 
L 251.273534 194.833453 
L 249.920009 194.872125 
L 248.421463 194.872125 
L 246.922918 195.065485 
L 245.472712 195.529551 
L 243.974167 195.568223 
L 242.523962 195.800256 
L 241.025416 196.457682 
L 239.526871 196.535027 
L 238.076665 196.999092 
L 236.57812 197.30847 
L 235.127915 198.352617 
L 233.629369 198.429962 
L 232.275844 198.545978 
L 230.777299 198.816683 
L 229.278753 198.894027 
L 227.828548 199.12606 
L 226.330002 199.319421 
L 224.879797 199.66747 
L 223.381252 199.860831 
L 221.882706 199.976847 
L 220.432501 200.20888 
L 218.933955 200.247552 
L 217.48375 200.363569 
L 215.985205 200.518257 
L 214.58334 200.518257 
L 213.084794 200.595602 
L 211.586249 200.634274 
L 210.136043 200.672946 
L 208.637498 200.711618 
L 207.187293 200.75029 
L 205.688747 200.866307 
L 202.836677 201.601077 
L 201.628172 201.794438 
L 200.613028 201.83311 
L 199.404524 201.717094 
L 198.437721 201.717094 
L 197.084196 201.83311 
L 194.328806 201.949127 
L 191.670096 202.567881 
L 190.848313 203.496012 
L 189.543128 203.341324 
L 188.189603 203.302651 
L 186.546037 203.99875 
L 185.530893 203.99875 
L 184.51575 203.766717 
L 180.068453 204.269455 
L 179.14999 204.346799 
L 174.412653 205.004226 
L 172.043984 205.08157 
L 171.270541 204.926881 
L 170.303738 205.042898 
L 169.675315 205.236259 
L 169.143573 205.274931 
L 165.953122 205.390947 
L 162.520969 205.468291 
L 160.780723 205.661652 
L 159.088817 207.711276 
L 156.043386 207.633931 
L 155.269943 207.672603 
L 154.013098 208.097997 
L 151.982811 209.180817 
L 148.840699 209.41285 
L 147.680535 209.799571 
L 144.973485 210.070276 
L 143.52328 210.882391 
L 141.831374 211.423801 
L 139.897767 211.849195 
L 138.495901 211.887867 
L 137.432418 211.965211 
L 136.707315 212.003883 
L 135.643831 212.042555 
L 134.628687 212.738654 
L 133.951925 213.086703 
L 133.758564 213.086703 
L 133.033461 213.086703 
L 132.066658 213.318736 
L 130.713133 213.086703 
L 130.229731 213.280064 
L 129.697989 213.357408 
L 128.924546 213.473425 
L 128.199444 213.473425 
L 127.522681 213.782802 
L 126.555878 214.4789 
L 126.217497 214.440228 
L 125.299033 214.788277 
L 124.138869 214.865622 
L 123.268746 214.942966 
L 122.785344 215.02031 
L 121.963561 215.136327 
L 121.431819 215.36836 
L 120.610036 215.56172 
L 119.933274 215.484376 
L 119.111491 215.56172 
L 115.921039 215.832425 
L 115.679338 215.793753 
L 113.745731 216.10313 
L 109.540136 214.246867 
L 107.268147 216.99259 
L 98.470235 220.589099 
L 84.306563 223.953575 
L 65.067173 228.284855 
L 48.486492 223.296149 
L 40.413683 222.677394 
L 32.244193 223.489509 
z
" clip-path="url(#p7b706a7566)" style="fill: #fb363b"/>
   </g>
   <g id="PolyCollection_2">
    <path d="M 32.244193 143.979587 
L 32.244193 223.489509 
L 40.413683 222.677394 
L 48.486492 223.296149 
L 65.067173 228.284855 
L 84.306563 223.953575 
L 98.470235 220.589099 
L 107.268147 216.99259 
L 109.540136 214.246867 
L 113.745731 216.10313 
L 115.679338 215.793753 
L 115.921039 215.832425 
L 119.111491 215.56172 
L 119.933274 215.484376 
L 120.610036 215.56172 
L 121.431819 215.36836 
L 121.963561 215.136327 
L 122.785344 215.02031 
L 123.268746 214.942966 
L 124.138869 214.865622 
L 125.299033 214.788277 
L 126.217497 214.440228 
L 126.555878 214.4789 
L 127.522681 213.782802 
L 128.199444 213.473425 
L 128.924546 213.473425 
L 129.697989 213.357408 
L 130.229731 213.280064 
L 130.713133 213.086703 
L 132.066658 213.318736 
L 133.033461 213.086703 
L 133.758564 213.086703 
L 133.951925 213.086703 
L 134.628687 212.738654 
L 135.643831 212.042555 
L 136.707315 212.003883 
L 137.432418 211.965211 
L 138.495901 211.887867 
L 139.897767 211.849195 
L 141.831374 211.423801 
L 143.52328 210.882391 
L 144.973485 210.070276 
L 147.680535 209.799571 
L 148.840699 209.41285 
L 151.982811 209.180817 
L 154.013098 208.097997 
L 155.269943 207.672603 
L 156.043386 207.633931 
L 159.088817 207.711276 
L 160.780723 205.661652 
L 162.520969 205.468291 
L 165.953122 205.390947 
L 169.143573 205.274931 
L 169.675315 205.236259 
L 170.303738 205.042898 
L 171.270541 204.926881 
L 172.043984 205.08157 
L 174.412653 205.004226 
L 179.14999 204.346799 
L 180.068453 204.269455 
L 184.51575 203.766717 
L 185.530893 203.99875 
L 186.546037 203.99875 
L 188.189603 203.302651 
L 189.543128 203.341324 
L 190.848313 203.496012 
L 191.670096 202.567881 
L 194.328806 201.949127 
L 197.084196 201.83311 
L 198.437721 201.717094 
L 199.404524 201.717094 
L 200.613028 201.83311 
L 201.628172 201.794438 
L 202.836677 201.601077 
L 205.688747 200.866307 
L 207.187293 200.75029 
L 208.637498 200.711618 
L 210.136043 200.672946 
L 211.586249 200.634274 
L 213.084794 200.595602 
L 214.58334 200.518257 
L 215.985205 200.518257 
L 217.48375 200.363569 
L 218.933955 200.247552 
L 220.432501 200.20888 
L 221.882706 199.976847 
L 223.381252 199.860831 
L 224.879797 199.66747 
L 226.330002 199.319421 
L 227.828548 199.12606 
L 229.278753 198.894027 
L 230.777299 198.816683 
L 232.275844 198.545978 
L 233.629369 198.429962 
L 235.127915 198.352617 
L 236.57812 197.30847 
L 238.076665 196.999092 
L 239.526871 196.535027 
L 241.025416 196.457682 
L 242.523962 195.800256 
L 243.974167 195.568223 
L 245.472712 195.529551 
L 246.922918 195.065485 
L 248.421463 194.872125 
L 249.920009 194.872125 
L 251.273534 194.833453 
L 252.772079 194.640092 
L 254.222284 194.485403 
L 255.72083 194.137354 
L 257.171035 193.905321 
L 258.669581 193.634616 
L 260.168126 193.557272 
L 261.618331 193.247895 
L 263.116877 192.899845 
L 264.567082 192.62914 
L 266.065628 192.474452 
L 267.564173 192.242419 
L 268.917698 192.242419 
L 270.416244 192.049058 
L 271.866449 191.971714 
L 273.364994 192.551796 
L 274.8152 192.43578 
L 276.313745 192.281091 
L 277.812291 192.242419 
L 279.262496 192.203747 
L 280.761041 192.010386 
L 282.211247 192.010386 
L 283.709792 191.933042 
L 285.208338 191.739681 
L 286.610203 191.701009 
L 288.108748 191.623665 
L 289.558954 191.236943 
L 291.057499 191.236943 
L 292.507704 191.043583 
L 294.00625 190.618189 
L 295.504795 190.502173 
L 296.955001 190.424828 
L 298.453546 190.231468 
L 299.903751 190.115451 
L 301.402297 189.380681 
L 302.900842 189.303336 
L 304.254367 189.264664 
L 305.752913 188.993959 
L 307.203118 188.916615 
L 308.701664 188.877943 
L 310.151869 188.955287 
L 311.650414 189.574041 
L 313.14896 188.839271 
L 314.599165 188.568566 
L 316.097711 186.866991 
L 317.547916 186.712303 
L 319.046461 186.557614 
L 320.545007 186.518942 
L 321.898532 186.364254 
L 323.397077 186.209565 
L 324.847283 185.900188 
L 326.345828 185.745499 
L 327.796033 185.513466 
L 329.294579 185.39745 
L 330.793124 185.281434 
L 332.24333 185.281434 
L 333.741875 185.242761 
L 335.19208 185.165417 
L 336.690626 185.126745 
L 338.189171 185.088073 
L 339.542696 185.088073 
L 341.041242 185.049401 
L 342.491447 184.972056 
L 343.989993 184.894712 
L 345.440198 184.778696 
L 346.938743 184.546663 
L 348.437289 184.391974 
L 349.887494 184.31463 
L 351.38604 184.198614 
L 352.836245 184.198614 
L 354.33479 184.198614 
L 355.833336 184.121269 
L 357.235201 184.043925 
L 358.733746 183.927909 
L 360.183952 183.579859 
L 361.682497 183.502515 
L 363.132703 183.502515 
L 364.631248 183.425171 
L 366.129793 183.386499 
L 367.579999 183.23181 
L 369.078544 183.154466 
L 370.52875 182.999777 
L 372.027295 182.961105 
L 373.52584 182.535712 
L 374.879365 182.419695 
L 376.377911 181.916957 
L 377.828116 181.762269 
L 379.326662 181.762269 
L 380.776867 181.491564 
L 382.275412 181.298203 
L 383.773958 181.336875 
L 385.224163 181.104842 
L 386.722709 180.795465 
L 388.172914 180.602105 
L 389.671459 180.408744 
L 391.170005 180.408744 
L 392.52353 180.370072 
L 394.022075 180.408744 
L 395.472281 180.486088 
L 396.970826 180.408744 
L 398.421031 180.447416 
L 399.919577 180.447416 
L 401.418122 180.408744 
L 402.868328 180.408744 
L 404.366873 180.176711 
L 405.817079 180.060695 
L 407.315624 179.944678 
L 408.814169 179.98335 
L 410.167694 179.403268 
L 411.66624 179.055219 
L 413.116445 179.055219 
L 414.614991 178.939202 
L 416.065196 178.70717 
L 417.563741 178.243104 
L 419.062287 178.127087 
L 420.512492 178.088415 
L 422.011038 177.972399 
L 423.461243 177.740366 
L 424.959788 177.701694 
L 426.458334 177.585677 
L 427.860199 175.922775 
L 429.358745 175.845431 
L 430.80895 175.729415 
L 432.307495 175.613398 
L 433.757701 175.071988 
L 435.256246 174.221201 
L 436.754792 174.221201 
L 438.204997 173.989168 
L 439.703542 173.989168 
L 441.153748 173.757135 
L 442.652293 172.983693 
L 444.150839 170.779381 
L 445.504364 169.773905 
L 447.002909 169.735233 
L 448.453114 169.425856 
L 449.95166 169.425856 
L 449.95166 102.755084 
L 449.95166 102.755084 
L 448.453114 102.67774 
L 447.002909 102.639068 
L 445.504364 102.407035 
L 444.150839 102.445707 
L 442.652293 102.407035 
L 441.153748 102.948445 
L 439.703542 103.025789 
L 438.204997 103.141805 
L 436.754792 103.180478 
L 435.256246 103.41251 
L 433.757701 103.296494 
L 432.307495 103.257822 
L 430.80895 103.41251 
L 429.358745 103.489855 
L 427.860199 103.451183 
L 426.458334 103.721888 
L 424.959788 103.992593 
L 423.461243 103.992593 
L 422.011038 104.108609 
L 420.512492 104.263297 
L 419.062287 104.340642 
L 417.563741 104.340642 
L 416.065196 104.611347 
L 414.614991 104.84338 
L 413.116445 104.959396 
L 411.66624 104.959396 
L 410.167694 104.998068 
L 408.814169 105.152757 
L 407.315624 105.268773 
L 405.817079 105.346117 
L 404.366873 105.346117 
L 402.868328 105.38479 
L 401.418122 105.268773 
L 399.919577 105.307445 
L 398.421031 105.307445 
L 396.970826 105.500806 
L 395.472281 105.462134 
L 394.022075 105.462134 
L 392.52353 105.500806 
L 391.170005 105.57815 
L 389.671459 105.57815 
L 388.172914 105.694167 
L 386.722709 105.655495 
L 385.224163 105.771511 
L 383.773958 105.810183 
L 382.275412 105.848855 
L 380.776867 105.887527 
L 379.326662 105.9262 
L 377.828116 105.887527 
L 376.377911 106.003544 
L 374.879365 106.196905 
L 373.52584 106.351593 
L 372.027295 106.390265 
L 370.52875 106.390265 
L 369.078544 106.46761 
L 367.579999 106.506282 
L 366.129793 106.583626 
L 364.631248 106.583626 
L 363.132703 106.622298 
L 361.682497 106.66097 
L 360.183952 106.544954 
L 358.733746 106.506282 
L 357.235201 106.544954 
L 355.833336 106.46761 
L 354.33479 106.46761 
L 352.836245 106.46761 
L 351.38604 106.46761 
L 349.887494 106.46761 
L 348.437289 106.506282 
L 346.938743 106.46761 
L 345.440198 106.506282 
L 343.989993 106.506282 
L 342.491447 106.390265 
L 341.041242 106.390265 
L 339.542696 106.428937 
L 338.189171 106.428937 
L 336.690626 106.506282 
L 335.19208 106.506282 
L 333.741875 106.583626 
L 332.24333 106.583626 
L 330.793124 106.583626 
L 329.294579 106.622298 
L 327.796033 106.622298 
L 326.345828 106.622298 
L 324.847283 106.66097 
L 323.397077 106.699642 
L 321.898532 107.00902 
L 320.545007 107.125036 
L 319.046461 107.047692 
L 317.547916 107.125036 
L 316.097711 107.241052 
L 314.599165 107.279725 
L 313.14896 107.821135 
L 311.650414 108.130512 
L 310.151869 110.257479 
L 308.701664 111.456316 
L 307.203118 111.881709 
L 305.752913 111.881709 
L 304.254367 112.191086 
L 302.900842 112.113742 
L 301.402297 111.340299 
L 299.903751 111.53366 
L 298.453546 111.959054 
L 296.955001 111.959054 
L 295.504795 111.843037 
L 294.00625 111.997726 
L 292.507704 112.036398 
L 291.057499 112.036398 
L 289.558954 112.07507 
L 288.108748 112.152414 
L 286.610203 112.152414 
L 285.208338 112.191086 
L 283.709792 112.191086 
L 282.211247 112.307103 
L 280.761041 112.345775 
L 279.262496 112.384447 
L 277.812291 112.384447 
L 276.313745 112.345775 
L 274.8152 112.384447 
L 273.364994 112.345775 
L 271.866449 112.964529 
L 270.416244 112.925857 
L 268.917698 113.003201 
L 267.564173 113.080546 
L 266.065628 113.196562 
L 264.567082 113.15789 
L 263.116877 113.428595 
L 261.618331 113.544611 
L 260.168126 113.6993 
L 258.669581 113.892661 
L 257.171035 113.931333 
L 255.72083 113.853989 
L 254.222284 113.931333 
L 252.772079 113.970005 
L 251.273534 113.970005 
L 249.920009 113.970005 
L 248.421463 113.970005 
L 246.922918 114.124694 
L 245.472712 114.202038 
L 243.974167 114.434071 
L 242.523962 114.472743 
L 241.025416 114.704776 
L 239.526871 114.78212 
L 238.076665 115.014153 
L 236.57812 115.130169 
L 235.127915 115.284858 
L 233.629369 115.32353 
L 232.275844 115.362202 
L 230.777299 115.516891 
L 229.278753 115.516891 
L 227.828548 115.710251 
L 226.330002 115.980956 
L 224.879797 116.135645 
L 223.381252 116.290333 
L 221.882706 116.483694 
L 220.432501 116.561038 
L 218.933955 116.870416 
L 217.48375 116.870416 
L 215.985205 116.909088 
L 214.58334 116.909088 
L 213.084794 116.909088 
L 211.586249 116.909088 
L 210.136043 116.909088 
L 208.637498 116.94776 
L 207.187293 117.102448 
L 205.688747 117.179793 
L 202.836677 117.643858 
L 201.628172 118.223941 
L 200.613028 118.494646 
L 199.404524 117.953236 
L 198.437721 118.262613 
L 197.084196 118.378629 
L 194.328806 118.533318 
L 191.670096 118.533318 
L 190.848313 118.688006 
L 189.543128 119.190744 
L 188.189603 119.152072 
L 186.546037 120.041531 
L 185.530893 120.041531 
L 184.51575 120.466925 
L 180.068453 120.73763 
L 179.14999 120.814974 
L 174.412653 121.897794 
L 172.043984 122.864597 
L 171.270541 122.90327 
L 170.303738 122.90327 
L 169.675315 122.90327 
L 169.143573 122.941942 
L 165.953122 122.516548 
L 162.520969 123.019286 
L 160.780723 123.212647 
L 159.088817 123.406007 
L 156.043386 123.522024 
L 155.269943 123.599368 
L 154.013098 123.792729 
L 151.982811 124.102106 
L 148.840699 123.947417 
L 147.680535 124.256795 
L 144.973485 124.218122 
L 143.52328 124.140778 
L 141.831374 124.488827 
L 139.897767 124.411483 
L 138.495901 124.295467 
L 137.432418 124.566172 
L 136.707315 124.604844 
L 135.643831 123.870073 
L 134.628687 123.908745 
L 133.951925 124.063434 
L 133.758564 124.063434 
L 133.033461 124.024762 
L 132.066658 124.5275 
L 130.713133 123.98609 
L 130.229731 123.98609 
L 129.697989 124.024762 
L 128.924546 124.063434 
L 128.199444 123.870073 
L 127.522681 124.295467 
L 126.555878 124.411483 
L 126.217497 124.17945 
L 125.299033 124.334139 
L 124.138869 124.295467 
L 123.268746 124.798205 
L 122.785344 124.72086 
L 121.963561 124.72086 
L 121.431819 122.980614 
L 120.610036 123.367335 
L 119.933274 122.400532 
L 119.111491 122.168499 
L 115.921039 122.439204 
L 115.679338 122.284515 
L 113.745731 122.55522 
L 109.540136 124.295467 
L 107.268147 125.146254 
L 98.470235 127.195877 
L 84.306563 130.13496 
L 65.067173 133.886158 
L 48.486492 139.88034 
L 40.413683 143.67021 
L 32.244193 143.979587 
z
" clip-path="url(#p7b706a7566)" style="fill: #fdc92c"/>
   </g>
   <g id="PolyCollection_3">
    <path d="M 32.244193 113.505939 
L 32.244193 143.979587 
L 40.413683 143.67021 
L 48.486492 139.88034 
L 65.067173 133.886158 
L 84.306563 130.13496 
L 98.470235 127.195877 
L 107.268147 125.146254 
L 109.540136 124.295467 
L 113.745731 122.55522 
L 115.679338 122.284515 
L 115.921039 122.439204 
L 119.111491 122.168499 
L 119.933274 122.400532 
L 120.610036 123.367335 
L 121.431819 122.980614 
L 121.963561 124.72086 
L 122.785344 124.72086 
L 123.268746 124.798205 
L 124.138869 124.295467 
L 125.299033 124.334139 
L 126.217497 124.17945 
L 126.555878 124.411483 
L 127.522681 124.295467 
L 128.199444 123.870073 
L 128.924546 124.063434 
L 129.697989 124.024762 
L 130.229731 123.98609 
L 130.713133 123.98609 
L 132.066658 124.5275 
L 133.033461 124.024762 
L 133.758564 124.063434 
L 133.951925 124.063434 
L 134.628687 123.908745 
L 135.643831 123.870073 
L 136.707315 124.604844 
L 137.432418 124.566172 
L 138.495901 124.295467 
L 139.897767 124.411483 
L 141.831374 124.488827 
L 143.52328 124.140778 
L 144.973485 124.218122 
L 147.680535 124.256795 
L 148.840699 123.947417 
L 151.982811 124.102106 
L 154.013098 123.792729 
L 155.269943 123.599368 
L 156.043386 123.522024 
L 159.088817 123.406007 
L 160.780723 123.212647 
L 162.520969 123.019286 
L 165.953122 122.516548 
L 169.143573 122.941942 
L 169.675315 122.90327 
L 170.303738 122.90327 
L 171.270541 122.90327 
L 172.043984 122.864597 
L 174.412653 121.897794 
L 179.14999 120.814974 
L 180.068453 120.73763 
L 184.51575 120.466925 
L 185.530893 120.041531 
L 186.546037 120.041531 
L 188.189603 119.152072 
L 189.543128 119.190744 
L 190.848313 118.688006 
L 191.670096 118.533318 
L 194.328806 118.533318 
L 197.084196 118.378629 
L 198.437721 118.262613 
L 199.404524 117.953236 
L 200.613028 118.494646 
L 201.628172 118.223941 
L 202.836677 117.643858 
L 205.688747 117.179793 
L 207.187293 117.102448 
L 208.637498 116.94776 
L 210.136043 116.909088 
L 211.586249 116.909088 
L 213.084794 116.909088 
L 214.58334 116.909088 
L 215.985205 116.909088 
L 217.48375 116.870416 
L 218.933955 116.870416 
L 220.432501 116.561038 
L 221.882706 116.483694 
L 223.381252 116.290333 
L 224.879797 116.135645 
L 226.330002 115.980956 
L 227.828548 115.710251 
L 229.278753 115.516891 
L 230.777299 115.516891 
L 232.275844 115.362202 
L 233.629369 115.32353 
L 235.127915 115.284858 
L 236.57812 115.130169 
L 238.076665 115.014153 
L 239.526871 114.78212 
L 241.025416 114.704776 
L 242.523962 114.472743 
L 243.974167 114.434071 
L 245.472712 114.202038 
L 246.922918 114.124694 
L 248.421463 113.970005 
L 249.920009 113.970005 
L 251.273534 113.970005 
L 252.772079 113.970005 
L 254.222284 113.931333 
L 255.72083 113.853989 
L 257.171035 113.931333 
L 258.669581 113.892661 
L 260.168126 113.6993 
L 261.618331 113.544611 
L 263.116877 113.428595 
L 264.567082 113.15789 
L 266.065628 113.196562 
L 267.564173 113.080546 
L 268.917698 113.003201 
L 270.416244 112.925857 
L 271.866449 112.964529 
L 273.364994 112.345775 
L 274.8152 112.384447 
L 276.313745 112.345775 
L 277.812291 112.384447 
L 279.262496 112.384447 
L 280.761041 112.345775 
L 282.211247 112.307103 
L 283.709792 112.191086 
L 285.208338 112.191086 
L 286.610203 112.152414 
L 288.108748 112.152414 
L 289.558954 112.07507 
L 291.057499 112.036398 
L 292.507704 112.036398 
L 294.00625 111.997726 
L 295.504795 111.843037 
L 296.955001 111.959054 
L 298.453546 111.959054 
L 299.903751 111.53366 
L 301.402297 111.340299 
L 302.900842 112.113742 
L 304.254367 112.191086 
L 305.752913 111.881709 
L 307.203118 111.881709 
L 308.701664 111.456316 
L 310.151869 110.257479 
L 311.650414 108.130512 
L 313.14896 107.821135 
L 314.599165 107.279725 
L 316.097711 107.241052 
L 317.547916 107.125036 
L 319.046461 107.047692 
L 320.545007 107.125036 
L 321.898532 107.00902 
L 323.397077 106.699642 
L 324.847283 106.66097 
L 326.345828 106.622298 
L 327.796033 106.622298 
L 329.294579 106.622298 
L 330.793124 106.583626 
L 332.24333 106.583626 
L 333.741875 106.583626 
L 335.19208 106.506282 
L 336.690626 106.506282 
L 338.189171 106.428937 
L 339.542696 106.428937 
L 341.041242 106.390265 
L 342.491447 106.390265 
L 343.989993 106.506282 
L 345.440198 106.506282 
L 346.938743 106.46761 
L 348.437289 106.506282 
L 349.887494 106.46761 
L 351.38604 106.46761 
L 352.836245 106.46761 
L 354.33479 106.46761 
L 355.833336 106.46761 
L 357.235201 106.544954 
L 358.733746 106.506282 
L 360.183952 106.544954 
L 361.682497 106.66097 
L 363.132703 106.622298 
L 364.631248 106.583626 
L 366.129793 106.583626 
L 367.579999 106.506282 
L 369.078544 106.46761 
L 370.52875 106.390265 
L 372.027295 106.390265 
L 373.52584 106.351593 
L 374.879365 106.196905 
L 376.377911 106.003544 
L 377.828116 105.887527 
L 379.326662 105.9262 
L 380.776867 105.887527 
L 382.275412 105.848855 
L 383.773958 105.810183 
L 385.224163 105.771511 
L 386.722709 105.655495 
L 388.172914 105.694167 
L 389.671459 105.57815 
L 391.170005 105.57815 
L 392.52353 105.500806 
L 394.022075 105.462134 
L 395.472281 105.462134 
L 396.970826 105.500806 
L 398.421031 105.307445 
L 399.919577 105.307445 
L 401.418122 105.268773 
L 402.868328 105.38479 
L 404.366873 105.346117 
L 405.817079 105.346117 
L 407.315624 105.268773 
L 408.814169 105.152757 
L 410.167694 104.998068 
L 411.66624 104.959396 
L 413.116445 104.959396 
L 414.614991 104.84338 
L 416.065196 104.611347 
L 417.563741 104.340642 
L 419.062287 104.340642 
L 420.512492 104.263297 
L 422.011038 104.108609 
L 423.461243 103.992593 
L 424.959788 103.992593 
L 426.458334 103.721888 
L 427.860199 103.451183 
L 429.358745 103.489855 
L 430.80895 103.41251 
L 432.307495 103.257822 
L 433.757701 103.296494 
L 435.256246 103.41251 
L 436.754792 103.180478 
L 438.204997 103.141805 
L 439.703542 103.025789 
L 441.153748 102.948445 
L 442.652293 102.407035 
L 444.150839 102.445707 
L 445.504364 102.407035 
L 447.002909 102.639068 
L 448.453114 102.67774 
L 449.95166 102.755084 
L 449.95166 89.645228 
L 449.95166 89.645228 
L 448.453114 89.645228 
L 447.002909 89.606556 
L 445.504364 89.606556 
L 444.150839 89.606556 
L 442.652293 89.606556 
L 441.153748 89.606556 
L 439.703542 89.606556 
L 438.204997 89.606556 
L 436.754792 89.567884 
L 435.256246 89.915933 
L 433.757701 90.147966 
L 432.307495 90.147966 
L 430.80895 90.186638 
L 429.358745 90.186638 
L 427.860199 90.186638 
L 426.458334 90.22531 
L 424.959788 90.22531 
L 423.461243 90.22531 
L 422.011038 90.263982 
L 420.512492 90.263982 
L 419.062287 90.263982 
L 417.563741 90.263982 
L 416.065196 90.341327 
L 414.614991 90.341327 
L 413.116445 90.341327 
L 411.66624 90.341327 
L 410.167694 90.341327 
L 408.814169 90.379999 
L 407.315624 90.379999 
L 405.817079 90.457343 
L 404.366873 90.457343 
L 402.868328 90.496015 
L 401.418122 90.496015 
L 399.919577 90.496015 
L 398.421031 90.496015 
L 396.970826 90.573359 
L 395.472281 90.650704 
L 394.022075 90.650704 
L 392.52353 90.650704 
L 391.170005 90.650704 
L 389.671459 90.650704 
L 388.172914 90.689376 
L 386.722709 90.650704 
L 385.224163 90.728048 
L 383.773958 90.728048 
L 382.275412 90.728048 
L 380.776867 90.76672 
L 379.326662 90.76672 
L 377.828116 90.76672 
L 376.377911 90.805392 
L 374.879365 90.844064 
L 373.52584 90.882737 
L 372.027295 90.882737 
L 370.52875 90.844064 
L 369.078544 90.844064 
L 367.579999 90.844064 
L 366.129793 90.805392 
L 364.631248 90.805392 
L 363.132703 90.844064 
L 361.682497 90.844064 
L 360.183952 90.76672 
L 358.733746 90.728048 
L 357.235201 90.728048 
L 355.833336 90.76672 
L 354.33479 90.76672 
L 352.836245 90.76672 
L 351.38604 90.76672 
L 349.887494 90.76672 
L 348.437289 90.76672 
L 346.938743 90.76672 
L 345.440198 90.76672 
L 343.989993 90.76672 
L 342.491447 90.689376 
L 341.041242 90.689376 
L 339.542696 90.689376 
L 338.189171 90.689376 
L 336.690626 90.650704 
L 335.19208 90.650704 
L 333.741875 90.728048 
L 332.24333 90.728048 
L 330.793124 90.728048 
L 329.294579 90.76672 
L 327.796033 90.76672 
L 326.345828 90.76672 
L 324.847283 90.805392 
L 323.397077 90.844064 
L 321.898532 90.921409 
L 320.545007 90.921409 
L 319.046461 90.921409 
L 317.547916 91.076097 
L 316.097711 91.076097 
L 314.599165 91.076097 
L 313.14896 90.960081 
L 311.650414 90.998753 
L 310.151869 91.192114 
L 308.701664 92.120245 
L 307.203118 92.274934 
L 305.752913 92.313606 
L 304.254367 92.352278 
L 302.900842 92.352278 
L 301.402297 92.352278 
L 299.903751 92.352278 
L 298.453546 92.39095 
L 296.955001 92.39095 
L 295.504795 92.429622 
L 294.00625 92.468294 
L 292.507704 92.506967 
L 291.057499 92.506967 
L 289.558954 92.506967 
L 288.108748 92.506967 
L 286.610203 92.506967 
L 285.208338 92.545639 
L 283.709792 92.545639 
L 282.211247 92.584311 
L 280.761041 92.622983 
L 279.262496 92.622983 
L 277.812291 92.622983 
L 276.313745 92.622983 
L 274.8152 92.622983 
L 273.364994 92.622983 
L 271.866449 92.622983 
L 270.416244 92.622983 
L 268.917698 92.700327 
L 267.564173 92.700327 
L 266.065628 92.700327 
L 264.567082 92.738999 
L 263.116877 92.738999 
L 261.618331 92.777672 
L 260.168126 92.93236 
L 258.669581 93.860491 
L 257.171035 93.860491 
L 255.72083 93.860491 
L 254.222284 93.937836 
L 252.772079 93.937836 
L 251.273534 93.937836 
L 249.920009 93.937836 
L 248.421463 93.937836 
L 246.922918 93.937836 
L 245.472712 94.01518 
L 243.974167 93.937836 
L 242.523962 93.976508 
L 241.025416 94.053852 
L 239.526871 94.131196 
L 238.076665 94.324557 
L 236.57812 94.363229 
L 235.127915 94.363229 
L 233.629369 94.363229 
L 232.275844 94.363229 
L 230.777299 94.440574 
L 229.278753 94.440574 
L 227.828548 94.517918 
L 226.330002 94.517918 
L 224.879797 94.401901 
L 223.381252 94.479246 
L 221.882706 94.479246 
L 220.432501 94.479246 
L 218.933955 94.517918 
L 217.48375 94.517918 
L 215.985205 94.517918 
L 214.58334 94.55659 
L 213.084794 94.55659 
L 211.586249 94.595262 
L 210.136043 94.55659 
L 208.637498 94.55659 
L 207.187293 94.633934 
L 205.688747 94.672606 
L 202.836677 94.943311 
L 201.628172 95.523394 
L 200.613028 95.794099 
L 199.404524 95.175344 
L 198.437721 95.678082 
L 197.084196 95.716754 
L 194.328806 96.606214 
L 191.670096 96.606214 
L 190.848313 96.567541 
L 189.543128 96.72223 
L 188.189603 96.72223 
L 186.546037 96.799574 
L 185.530893 96.799574 
L 184.51575 96.838246 
L 180.068453 96.992935 
L 179.14999 96.992935 
L 174.412653 97.998411 
L 172.043984 98.114427 
L 171.270541 98.153099 
L 170.303738 98.269116 
L 169.675315 98.269116 
L 169.143573 98.269116 
L 165.953122 98.269116 
L 162.520969 98.501148 
L 160.780723 98.617165 
L 159.088817 98.655837 
L 156.043386 98.733181 
L 155.269943 98.849198 
L 154.013098 99.042558 
L 151.982811 99.274591 
L 148.840699 99.42928 
L 147.680535 100.048034 
L 144.973485 100.086706 
L 143.52328 100.357411 
L 141.831374 100.666788 
L 139.897767 100.744133 
L 138.495901 100.744133 
L 137.432418 100.744133 
L 136.707315 100.744133 
L 135.643831 100.898821 
L 134.628687 101.05351 
L 133.951925 101.169526 
L 133.758564 101.169526 
L 133.033461 101.130854 
L 132.066658 101.672264 
L 130.713133 101.208198 
L 130.229731 101.208198 
L 129.697989 101.285543 
L 128.924546 101.285543 
L 128.199444 101.285543 
L 127.522681 101.865625 
L 126.555878 101.865625 
L 126.217497 101.401559 
L 125.299033 101.981641 
L 124.138869 103.064461 
L 123.268746 103.95392 
L 122.785344 103.992593 
L 121.963561 103.992593 
L 121.431819 104.031265 
L 120.610036 104.611347 
L 119.933274 104.069937 
L 119.111491 104.069937 
L 115.921039 104.340642 
L 115.679338 104.379314 
L 113.745731 104.417986 
L 109.540136 101.865625 
L 107.268147 104.572675 
L 98.470235 106.428937 
L 84.306563 108.323872 
L 65.067173 109.638725 
L 48.486492 111.611004 
L 40.413683 113.931333 
L 32.244193 113.505939 
z
" clip-path="url(#p7b706a7566)" style="fill: #aeaeae"/>
   </g>
   <g id="PolyCollection_4">
    <path d="M 32.244193 90.031949 
L 32.244193 113.505939 
L 40.413683 113.931333 
L 48.486492 111.611004 
L 65.067173 109.638725 
L 84.306563 108.323872 
L 98.470235 106.428937 
L 107.268147 104.572675 
L 109.540136 101.865625 
L 113.745731 104.417986 
L 115.679338 104.379314 
L 115.921039 104.340642 
L 119.111491 104.069937 
L 119.933274 104.069937 
L 120.610036 104.611347 
L 121.431819 104.031265 
L 121.963561 103.992593 
L 122.785344 103.992593 
L 123.268746 103.95392 
L 124.138869 103.064461 
L 125.299033 101.981641 
L 126.217497 101.401559 
L 126.555878 101.865625 
L 127.522681 101.865625 
L 128.199444 101.285543 
L 128.924546 101.285543 
L 129.697989 101.285543 
L 130.229731 101.208198 
L 130.713133 101.208198 
L 132.066658 101.672264 
L 133.033461 101.130854 
L 133.758564 101.169526 
L 133.951925 101.169526 
L 134.628687 101.05351 
L 135.643831 100.898821 
L 136.707315 100.744133 
L 137.432418 100.744133 
L 138.495901 100.744133 
L 139.897767 100.744133 
L 141.831374 100.666788 
L 143.52328 100.357411 
L 144.973485 100.086706 
L 147.680535 100.048034 
L 148.840699 99.42928 
L 151.982811 99.274591 
L 154.013098 99.042558 
L 155.269943 98.849198 
L 156.043386 98.733181 
L 159.088817 98.655837 
L 160.780723 98.617165 
L 162.520969 98.501148 
L 165.953122 98.269116 
L 169.143573 98.269116 
L 169.675315 98.269116 
L 170.303738 98.269116 
L 171.270541 98.153099 
L 172.043984 98.114427 
L 174.412653 97.998411 
L 179.14999 96.992935 
L 180.068453 96.992935 
L 184.51575 96.838246 
L 185.530893 96.799574 
L 186.546037 96.799574 
L 188.189603 96.72223 
L 189.543128 96.72223 
L 190.848313 96.567541 
L 191.670096 96.606214 
L 194.328806 96.606214 
L 197.084196 95.716754 
L 198.437721 95.678082 
L 199.404524 95.175344 
L 200.613028 95.794099 
L 201.628172 95.523394 
L 202.836677 94.943311 
L 205.688747 94.672606 
L 207.187293 94.633934 
L 208.637498 94.55659 
L 210.136043 94.55659 
L 211.586249 94.595262 
L 213.084794 94.55659 
L 214.58334 94.55659 
L 215.985205 94.517918 
L 217.48375 94.517918 
L 218.933955 94.517918 
L 220.432501 94.479246 
L 221.882706 94.479246 
L 223.381252 94.479246 
L 224.879797 94.401901 
L 226.330002 94.517918 
L 227.828548 94.517918 
L 229.278753 94.440574 
L 230.777299 94.440574 
L 232.275844 94.363229 
L 233.629369 94.363229 
L 235.127915 94.363229 
L 236.57812 94.363229 
L 238.076665 94.324557 
L 239.526871 94.131196 
L 241.025416 94.053852 
L 242.523962 93.976508 
L 243.974167 93.937836 
L 245.472712 94.01518 
L 246.922918 93.937836 
L 248.421463 93.937836 
L 249.920009 93.937836 
L 251.273534 93.937836 
L 252.772079 93.937836 
L 254.222284 93.937836 
L 255.72083 93.860491 
L 257.171035 93.860491 
L 258.669581 93.860491 
L 260.168126 92.93236 
L 261.618331 92.777672 
L 263.116877 92.738999 
L 264.567082 92.738999 
L 266.065628 92.700327 
L 267.564173 92.700327 
L 268.917698 92.700327 
L 270.416244 92.622983 
L 271.866449 92.622983 
L 273.364994 92.622983 
L 274.8152 92.622983 
L 276.313745 92.622983 
L 277.812291 92.622983 
L 279.262496 92.622983 
L 280.761041 92.622983 
L 282.211247 92.584311 
L 283.709792 92.545639 
L 285.208338 92.545639 
L 286.610203 92.506967 
L 288.108748 92.506967 
L 289.558954 92.506967 
L 291.057499 92.506967 
L 292.507704 92.506967 
L 294.00625 92.468294 
L 295.504795 92.429622 
L 296.955001 92.39095 
L 298.453546 92.39095 
L 299.903751 92.352278 
L 301.402297 92.352278 
L 302.900842 92.352278 
L 304.254367 92.352278 
L 305.752913 92.313606 
L 307.203118 92.274934 
L 308.701664 92.120245 
L 310.151869 91.192114 
L 311.650414 90.998753 
L 313.14896 90.960081 
L 314.599165 91.076097 
L 316.097711 91.076097 
L 317.547916 91.076097 
L 319.046461 90.921409 
L 320.545007 90.921409 
L 321.898532 90.921409 
L 323.397077 90.844064 
L 324.847283 90.805392 
L 326.345828 90.76672 
L 327.796033 90.76672 
L 329.294579 90.76672 
L 330.793124 90.728048 
L 332.24333 90.728048 
L 333.741875 90.728048 
L 335.19208 90.650704 
L 336.690626 90.650704 
L 338.189171 90.689376 
L 339.542696 90.689376 
L 341.041242 90.689376 
L 342.491447 90.689376 
L 343.989993 90.76672 
L 345.440198 90.76672 
L 346.938743 90.76672 
L 348.437289 90.76672 
L 349.887494 90.76672 
L 351.38604 90.76672 
L 352.836245 90.76672 
L 354.33479 90.76672 
L 355.833336 90.76672 
L 357.235201 90.728048 
L 358.733746 90.728048 
L 360.183952 90.76672 
L 361.682497 90.844064 
L 363.132703 90.844064 
L 364.631248 90.805392 
L 366.129793 90.805392 
L 367.579999 90.844064 
L 369.078544 90.844064 
L 370.52875 90.844064 
L 372.027295 90.882737 
L 373.52584 90.882737 
L 374.879365 90.844064 
L 376.377911 90.805392 
L 377.828116 90.76672 
L 379.326662 90.76672 
L 380.776867 90.76672 
L 382.275412 90.728048 
L 383.773958 90.728048 
L 385.224163 90.728048 
L 386.722709 90.650704 
L 388.172914 90.689376 
L 389.671459 90.650704 
L 391.170005 90.650704 
L 392.52353 90.650704 
L 394.022075 90.650704 
L 395.472281 90.650704 
L 396.970826 90.573359 
L 398.421031 90.496015 
L 399.919577 90.496015 
L 401.418122 90.496015 
L 402.868328 90.496015 
L 404.366873 90.457343 
L 405.817079 90.457343 
L 407.315624 90.379999 
L 408.814169 90.379999 
L 410.167694 90.341327 
L 411.66624 90.341327 
L 413.116445 90.341327 
L 414.614991 90.341327 
L 416.065196 90.341327 
L 417.563741 90.263982 
L 419.062287 90.263982 
L 420.512492 90.263982 
L 422.011038 90.263982 
L 423.461243 90.22531 
L 424.959788 90.22531 
L 426.458334 90.22531 
L 427.860199 90.186638 
L 429.358745 90.186638 
L 430.80895 90.186638 
L 432.307495 90.147966 
L 433.757701 90.147966 
L 435.256246 89.915933 
L 436.754792 89.567884 
L 438.204997 89.606556 
L 439.703542 89.606556 
L 441.153748 89.606556 
L 442.652293 89.606556 
L 444.150839 89.606556 
L 445.504364 89.606556 
L 447.002909 89.606556 
L 448.453114 89.645228 
L 449.95166 89.645228 
L 449.95166 80.093209 
L 449.95166 80.093209 
L 448.453114 80.093209 
L 447.002909 80.093209 
L 445.504364 80.093209 
L 444.150839 80.093209 
L 442.652293 80.093209 
L 441.153748 80.093209 
L 439.703542 80.093209 
L 438.204997 80.131881 
L 436.754792 80.131881 
L 435.256246 80.131881 
L 433.757701 80.170553 
L 432.307495 80.170553 
L 430.80895 80.170553 
L 429.358745 80.170553 
L 427.860199 80.170553 
L 426.458334 80.170553 
L 424.959788 80.170553 
L 423.461243 80.170553 
L 422.011038 80.170553 
L 420.512492 80.170553 
L 419.062287 80.170553 
L 417.563741 80.170553 
L 416.065196 80.170553 
L 414.614991 80.170553 
L 413.116445 80.170553 
L 411.66624 80.170553 
L 410.167694 80.170553 
L 408.814169 80.363914 
L 407.315624 80.402586 
L 405.817079 80.441258 
L 404.366873 80.441258 
L 402.868328 80.441258 
L 401.418122 80.441258 
L 399.919577 80.441258 
L 398.421031 80.441258 
L 396.970826 80.441258 
L 395.472281 80.441258 
L 394.022075 80.441258 
L 392.52353 80.479931 
L 391.170005 80.441258 
L 389.671459 80.441258 
L 388.172914 80.479931 
L 386.722709 80.209226 
L 385.224163 80.209226 
L 383.773958 79.861176 
L 382.275412 79.861176 
L 380.776867 79.861176 
L 379.326662 79.861176 
L 377.828116 79.861176 
L 376.377911 79.861176 
L 374.879365 79.899848 
L 373.52584 79.899848 
L 372.027295 79.899848 
L 370.52875 79.861176 
L 369.078544 79.861176 
L 367.579999 79.861176 
L 366.129793 79.899848 
L 364.631248 79.899848 
L 363.132703 79.899848 
L 361.682497 79.899848 
L 360.183952 79.822504 
L 358.733746 79.783832 
L 357.235201 79.783832 
L 355.833336 79.783832 
L 354.33479 79.783832 
L 352.836245 79.783832 
L 351.38604 79.783832 
L 349.887494 79.783832 
L 348.437289 79.783832 
L 346.938743 79.783832 
L 345.440198 79.783832 
L 343.989993 79.783832 
L 342.491447 79.706488 
L 341.041242 79.706488 
L 339.542696 79.706488 
L 338.189171 79.706488 
L 336.690626 79.706488 
L 335.19208 79.706488 
L 333.741875 79.706488 
L 332.24333 79.706488 
L 330.793124 79.706488 
L 329.294579 79.667816 
L 327.796033 79.667816 
L 326.345828 79.667816 
L 324.847283 79.667816 
L 323.397077 79.667816 
L 321.898532 79.667816 
L 320.545007 79.667816 
L 319.046461 79.667816 
L 317.547916 79.667816 
L 316.097711 79.667816 
L 314.599165 79.667816 
L 313.14896 79.667816 
L 311.650414 79.667816 
L 310.151869 79.667816 
L 308.701664 79.667816 
L 307.203118 79.667816 
L 305.752913 79.667816 
L 304.254367 79.667816 
L 302.900842 79.667816 
L 301.402297 79.667816 
L 299.903751 79.667816 
L 298.453546 79.667816 
L 296.955001 79.667816 
L 295.504795 79.667816 
L 294.00625 79.667816 
L 292.507704 79.667816 
L 291.057499 79.667816 
L 289.558954 79.667816 
L 288.108748 79.667816 
L 286.610203 80.015865 
L 285.208338 80.054537 
L 283.709792 80.054537 
L 282.211247 80.054537 
L 280.761041 80.209226 
L 279.262496 80.209226 
L 277.812291 80.209226 
L 276.313745 80.209226 
L 274.8152 80.209226 
L 273.364994 80.209226 
L 271.866449 80.209226 
L 270.416244 80.209226 
L 268.917698 80.209226 
L 267.564173 80.209226 
L 266.065628 80.209226 
L 264.567082 80.247898 
L 263.116877 80.247898 
L 261.618331 80.247898 
L 260.168126 80.247898 
L 258.669581 79.977193 
L 257.171035 80.131881 
L 255.72083 80.093209 
L 254.222284 80.093209 
L 252.772079 80.093209 
L 251.273534 80.093209 
L 249.920009 80.093209 
L 248.421463 80.093209 
L 246.922918 80.093209 
L 245.472712 80.131881 
L 243.974167 80.131881 
L 242.523962 80.131881 
L 241.025416 80.093209 
L 239.526871 80.093209 
L 238.076665 80.093209 
L 236.57812 80.093209 
L 235.127915 80.093209 
L 233.629369 80.093209 
L 232.275844 80.093209 
L 230.777299 80.093209 
L 229.278753 80.093209 
L 227.828548 80.093209 
L 226.330002 80.131881 
L 224.879797 80.093209 
L 223.381252 80.131881 
L 221.882706 80.093209 
L 220.432501 80.093209 
L 218.933955 80.093209 
L 217.48375 80.093209 
L 215.985205 80.093209 
L 214.58334 80.093209 
L 213.084794 80.131881 
L 211.586249 80.131881 
L 210.136043 80.093209 
L 208.637498 80.093209 
L 207.187293 80.093209 
L 205.688747 80.170553 
L 202.836677 80.441258 
L 201.628172 81.098685 
L 200.613028 81.176029 
L 199.404524 80.557275 
L 198.437721 82.065488 
L 197.084196 82.065488 
L 194.328806 83.457685 
L 191.670096 83.457685 
L 190.848313 83.419013 
L 189.543128 83.573702 
L 188.189603 83.53503 
L 186.546037 83.53503 
L 185.530893 83.53503 
L 184.51575 83.53503 
L 180.068453 83.844407 
L 179.14999 83.844407 
L 174.412653 84.037768 
L 172.043984 83.999095 
L 171.270541 83.999095 
L 170.303738 84.07644 
L 169.675315 84.07644 
L 169.143573 84.07644 
L 165.953122 84.61785 
L 162.520969 84.733866 
L 160.780723 84.733866 
L 159.088817 84.733866 
L 156.043386 84.733866 
L 155.269943 84.695194 
L 154.013098 84.695194 
L 151.982811 84.579178 
L 148.840699 84.540505 
L 147.680535 85.545981 
L 144.973485 85.661998 
L 143.52328 85.778014 
L 141.831374 85.661998 
L 139.897767 85.661998 
L 138.495901 85.623325 
L 137.432418 85.623325 
L 136.707315 85.623325 
L 135.643831 85.584653 
L 134.628687 85.584653 
L 133.951925 85.623325 
L 133.758564 85.623325 
L 133.033461 85.623325 
L 132.066658 86.048719 
L 130.713133 85.623325 
L 130.229731 85.623325 
L 129.697989 85.661998 
L 128.924546 85.584653 
L 128.199444 85.584653 
L 127.522681 85.971375 
L 126.555878 85.89403 
L 126.217497 85.468637 
L 125.299033 86.010047 
L 124.138869 85.855358 
L 123.268746 85.89403 
L 122.785344 85.89403 
L 121.963561 85.89403 
L 121.431819 85.932703 
L 120.610036 86.43544 
L 119.933274 85.89403 
L 119.111491 85.89403 
L 115.921039 86.860834 
L 115.679338 86.899506 
L 113.745731 86.860834 
L 109.540136 85.971375 
L 107.268147 86.860834 
L 98.470235 87.634277 
L 84.306563 88.05967 
L 65.067173 88.755769 
L 48.486492 89.181162 
L 40.413683 90.186638 
L 32.244193 90.031949 
z
" clip-path="url(#p7b706a7566)" style="fill: #d5dce5"/>
   </g>
   <g id="matplotlib.axis_1">
    <g id="xtick_1">
     <g id="line2d_1">
      <defs>
       <path id="m8a135ae501" d="M 0 0 
L 0 3.5 
" style="stroke: #000000; stroke-width: 0.8"/>
      </defs>
      <g>
       <use xlink:href="#m8a135ae501" x="71.834798" y="275.735572" style="stroke: #000000; stroke-width: 0.8"/>
      </g>
     </g>
     <g id="text_1">
      <!-- 2004 -->
      <g transform="translate(59.109798 290.33401) scale(0.1 -0.1)">
       <defs>
        <path id="DejaVuSans-32" d="M 1228 531 
L 3431 531 
L 3431 0 
L 469 0 
L 469 531 
Q 828 903 1448 1529 
Q 2069 2156 2228 2338 
Q 2531 2678 2651 2914 
Q 2772 3150 2772 3378 
Q 2772 3750 2511 3984 
Q 2250 4219 1831 4219 
Q 1534 4219 1204 4116 
Q 875 4013 500 3803 
L 500 4441 
Q 881 4594 1212 4672 
Q 1544 4750 1819 4750 
Q 2544 4750 2975 4387 
Q 3406 4025 3406 3419 
Q 3406 3131 3298 2873 
Q 3191 2616 2906 2266 
Q 2828 2175 2409 1742 
Q 1991 1309 1228 531 
z
" transform="scale(0.015625)"/>
        <path id="DejaVuSans-30" d="M 2034 4250 
Q 1547 4250 1301 3770 
Q 1056 3291 1056 2328 
Q 1056 1369 1301 889 
Q 1547 409 2034 409 
Q 2525 409 2770 889 
Q 3016 1369 3016 2328 
Q 3016 3291 2770 3770 
Q 2525 4250 2034 4250 
z
M 2034 4750 
Q 2819 4750 3233 4129 
Q 3647 3509 3647 2328 
Q 3647 1150 3233 529 
Q 2819 -91 2034 -91 
Q 1250 -91 836 529 
Q 422 1150 422 2328 
Q 422 3509 836 4129 
Q 1250 4750 2034 4750 
z
" transform="scale(0.015625)"/>
        <path id="DejaVuSans-34" d="M 2419 4116 
L 825 1625 
L 2419 1625 
L 2419 4116 
z
M 2253 4666 
L 3047 4666 
L 3047 1625 
L 3713 1625 
L 3713 1100 
L 3047 1100 
L 3047 0 
L 2419 0 
L 2419 1100 
L 313 1100 
L 313 1709 
L 2253 4666 
z
" transform="scale(0.015625)"/>
       </defs>
       <use xlink:href="#DejaVuSans-32"/>
       <use xlink:href="#DejaVuSans-30" x="63.623047"/>
       <use xlink:href="#DejaVuSans-30" x="127.246094"/>
       <use xlink:href="#DejaVuSans-34" x="190.869141"/>
      </g>
     </g>
    </g>
    <g id="xtick_2">
     <g id="line2d_2">
      <g>
       <use xlink:href="#m8a135ae501" x="142.459796" y="275.735572" style="stroke: #000000; stroke-width: 0.8"/>
      </g>
     </g>
     <g id="text_2">
      <!-- 2008 -->
      <g transform="translate(129.734796 290.33401) scale(0.1 -0.1)">
       <defs>
        <path id="DejaVuSans-38" d="M 2034 2216 
Q 1584 2216 1326 1975 
Q 1069 1734 1069 1313 
Q 1069 891 1326 650 
Q 1584 409 2034 409 
Q 2484 409 2743 651 
Q 3003 894 3003 1313 
Q 3003 1734 2745 1975 
Q 2488 2216 2034 2216 
z
M 1403 2484 
Q 997 2584 770 2862 
Q 544 3141 544 3541 
Q 544 4100 942 4425 
Q 1341 4750 2034 4750 
Q 2731 4750 3128 4425 
Q 3525 4100 3525 3541 
Q 3525 3141 3298 2862 
Q 3072 2584 2669 2484 
Q 3125 2378 3379 2068 
Q 3634 1759 3634 1313 
Q 3634 634 3220 271 
Q 2806 -91 2034 -91 
Q 1263 -91 848 271 
Q 434 634 434 1313 
Q 434 1759 690 2068 
Q 947 2378 1403 2484 
z
M 1172 3481 
Q 1172 3119 1398 2916 
Q 1625 2713 2034 2713 
Q 2441 2713 2670 2916 
Q 2900 3119 2900 3481 
Q 2900 3844 2670 4047 
Q 2441 4250 2034 4250 
Q 1625 4250 1398 4047 
Q 1172 3844 1172 3481 
z
" transform="scale(0.015625)"/>
       </defs>
       <use xlink:href="#DejaVuSans-32"/>
       <use xlink:href="#DejaVuSans-30" x="63.623047"/>
       <use xlink:href="#DejaVuSans-30" x="127.246094"/>
       <use xlink:href="#DejaVuSans-38" x="190.869141"/>
      </g>
     </g>
    </g>
    <g id="xtick_3">
     <g id="line2d_3">
      <g>
       <use xlink:href="#m8a135ae501" x="213.084794" y="275.735572" style="stroke: #000000; stroke-width: 0.8"/>
      </g>
     </g>
     <g id="text_3">
      <!-- 2012 -->
      <g transform="translate(200.359794 290.33401) scale(0.1 -0.1)">
       <defs>
        <path id="DejaVuSans-31" d="M 794 531 
L 1825 531 
L 1825 4091 
L 703 3866 
L 703 4441 
L 1819 4666 
L 2450 4666 
L 2450 531 
L 3481 531 
L 3481 0 
L 794 0 
L 794 531 
z
" transform="scale(0.015625)"/>
       </defs>
       <use xlink:href="#DejaVuSans-32"/>
       <use xlink:href="#DejaVuSans-30" x="63.623047"/>
       <use xlink:href="#DejaVuSans-31" x="127.246094"/>
       <use xlink:href="#DejaVuSans-32" x="190.869141"/>
      </g>
     </g>
    </g>
    <g id="xtick_4">
     <g id="line2d_4">
      <g>
       <use xlink:href="#m8a135ae501" x="283.709792" y="275.735572" style="stroke: #000000; stroke-width: 0.8"/>
      </g>
     </g>
     <g id="text_4">
      <!-- 2016 -->
      <g transform="translate(270.984792 290.33401) scale(0.1 -0.1)">
       <defs>
        <path id="DejaVuSans-36" d="M 2113 2584 
Q 1688 2584 1439 2293 
Q 1191 2003 1191 1497 
Q 1191 994 1439 701 
Q 1688 409 2113 409 
Q 2538 409 2786 701 
Q 3034 994 3034 1497 
Q 3034 2003 2786 2293 
Q 2538 2584 2113 2584 
z
M 3366 4563 
L 3366 3988 
Q 3128 4100 2886 4159 
Q 2644 4219 2406 4219 
Q 1781 4219 1451 3797 
Q 1122 3375 1075 2522 
Q 1259 2794 1537 2939 
Q 1816 3084 2150 3084 
Q 2853 3084 3261 2657 
Q 3669 2231 3669 1497 
Q 3669 778 3244 343 
Q 2819 -91 2113 -91 
Q 1303 -91 875 529 
Q 447 1150 447 2328 
Q 447 3434 972 4092 
Q 1497 4750 2381 4750 
Q 2619 4750 2861 4703 
Q 3103 4656 3366 4563 
z
" transform="scale(0.015625)"/>
       </defs>
       <use xlink:href="#DejaVuSans-32"/>
       <use xlink:href="#DejaVuSans-30" x="63.623047"/>
       <use xlink:href="#DejaVuSans-31" x="127.246094"/>
       <use xlink:href="#DejaVuSans-36" x="190.869141"/>
      </g>
     </g>
    </g>
    <g id="xtick_5">
     <g id="line2d_5">
      <g>
       <use xlink:href="#m8a135ae501" x="354.33479" y="275.735572" style="stroke: #000000; stroke-width: 0.8"/>
      </g>
     </g>
     <g id="text_5">
      <!-- 2020 -->
      <g transform="translate(341.60979 290.33401) scale(0.1 -0.1)">
       <use xlink:href="#DejaVuSans-32"/>
       <use xlink:href="#DejaVuSans-30" x="63.623047"/>
       <use xlink:href="#DejaVuSans-32" x="127.246094"/>
       <use xlink:href="#DejaVuSans-30" x="190.869141"/>
      </g>
     </g>
    </g>
    <g id="xtick_6">
     <g id="line2d_6">
      <g>
       <use xlink:href="#m8a135ae501" x="424.959788" y="275.735572" style="stroke: #000000; stroke-width: 0.8"/>
      </g>
     </g>
     <g id="text_6">
      <!-- 2024 -->
      <g transform="translate(412.234788 290.33401) scale(0.1 -0.1)">
       <use xlink:href="#DejaVuSans-32"/>
       <use xlink:href="#DejaVuSans-30" x="63.623047"/>
       <use xlink:href="#DejaVuSans-32" x="127.246094"/>
       <use xlink:href="#DejaVuSans-34" x="190.869141"/>
      </g>
     </g>
    </g>
    <g id="text_7">
     <!-- Year -->
     <g transform="translate(239.86375 307.811353) scale(0.15 -0.15)">
      <defs>
       <path id="DejaVuSans-59" d="M -13 4666 
L 666 4666 
L 1959 2747 
L 3244 4666 
L 3922 4666 
L 2272 2222 
L 2272 0 
L 1638 0 
L 1638 2222 
L -13 4666 
z
" transform="scale(0.015625)"/>
       <path id="DejaVuSans-65" d="M 3597 1894 
L 3597 1613 
L 953 1613 
Q 991 1019 1311 708 
Q 1631 397 2203 397 
Q 2534 397 2845 478 
Q 3156 559 3463 722 
L 3463 178 
Q 3153 47 2828 -22 
Q 2503 -91 2169 -91 
Q 1331 -91 842 396 
Q 353 884 353 1716 
Q 353 2575 817 3079 
Q 1281 3584 2069 3584 
Q 2775 3584 3186 3129 
Q 3597 2675 3597 1894 
z
M 3022 2063 
Q 3016 2534 2758 2815 
Q 2500 3097 2075 3097 
Q 1594 3097 1305 2825 
Q 1016 2553 972 2059 
L 3022 2063 
z
" transform="scale(0.015625)"/>
       <path id="DejaVuSans-61" d="M 2194 1759 
Q 1497 1759 1228 1600 
Q 959 1441 959 1056 
Q 959 750 1161 570 
Q 1363 391 1709 391 
Q 2188 391 2477 730 
Q 2766 1069 2766 1631 
L 2766 1759 
L 2194 1759 
z
M 3341 1997 
L 3341 0 
L 2766 0 
L 2766 531 
Q 2569 213 2275 61 
Q 1981 -91 1556 -91 
Q 1019 -91 701 211 
Q 384 513 384 1019 
Q 384 1609 779 1909 
Q 1175 2209 1959 2209 
L 2766 2209 
L 2766 2266 
Q 2766 2663 2505 2880 
Q 2244 3097 1772 3097 
Q 1472 3097 1187 3025 
Q 903 2953 641 2809 
L 641 3341 
Q 956 3463 1253 3523 
Q 1550 3584 1831 3584 
Q 2591 3584 2966 3190 
Q 3341 2797 3341 1997 
z
" transform="scale(0.015625)"/>
       <path id="DejaVuSans-72" d="M 2631 2963 
Q 2534 3019 2420 3045 
Q 2306 3072 2169 3072 
Q 1681 3072 1420 2755 
Q 1159 2438 1159 1844 
L 1159 0 
L 581 0 
L 581 3500 
L 1159 3500 
L 1159 2956 
Q 1341 3275 1631 3429 
Q 1922 3584 2338 3584 
Q 2397 3584 2469 3576 
Q 2541 3569 2628 3553 
L 2631 2963 
z
" transform="scale(0.015625)"/>
      </defs>
      <use xlink:href="#DejaVuSans-59"/>
      <use xlink:href="#DejaVuSans-65" x="47.833984"/>
      <use xlink:href="#DejaVuSans-61" x="109.357422"/>
      <use xlink:href="#DejaVuSans-72" x="170.636719"/>
     </g>
    </g>
   </g>
   <g id="matplotlib.axis_2">
    <g id="ytick_1">
     <g id="line2d_7">
      <defs>
       <path id="mbfb444238c" d="M 0 0 
L -3.5 0 
" style="stroke: #000000; stroke-width: 0.8"/>
      </defs>
      <g>
       <use xlink:href="#mbfb444238c" x="61.49" y="275.735572" style="stroke: #000000; stroke-width: 0.8"/>
      </g>
     </g>
     <g id="text_8">
      <!-- 0 -->
      <g transform="translate(48.1275 279.534791) scale(0.1 -0.1)">
       <use xlink:href="#DejaVuSans-30"/>
      </g>
     </g>
    </g>
    <g id="ytick_2">
     <g id="line2d_8">
      <g>
       <use xlink:href="#mbfb444238c" x="61.49" y="237.063431" style="stroke: #000000; stroke-width: 0.8"/>
      </g>
     </g>
     <g id="text_9">
      <!-- 1000 -->
      <g transform="translate(29.04 240.86265) scale(0.1 -0.1)">
       <use xlink:href="#DejaVuSans-31"/>
       <use xlink:href="#DejaVuSans-30" x="63.623047"/>
       <use xlink:href="#DejaVuSans-30" x="127.246094"/>
       <use xlink:href="#DejaVuSans-30" x="190.869141"/>
      </g>
     </g>
    </g>
    <g id="ytick_3">
     <g id="line2d_9">
      <g>
       <use xlink:href="#mbfb444238c" x="61.49" y="198.39129" style="stroke: #000000; stroke-width: 0.8"/>
      </g>
     </g>
     <g id="text_10">
      <!-- 2000 -->
      <g transform="translate(29.04 202.190508) scale(0.1 -0.1)">
       <use xlink:href="#DejaVuSans-32"/>
       <use xlink:href="#DejaVuSans-30" x="63.623047"/>
       <use xlink:href="#DejaVuSans-30" x="127.246094"/>
       <use xlink:href="#DejaVuSans-30" x="190.869141"/>
      </g>
     </g>
    </g>
    <g id="ytick_4">
     <g id="line2d_10">
      <g>
       <use xlink:href="#mbfb444238c" x="61.49" y="159.719148" style="stroke: #000000; stroke-width: 0.8"/>
      </g>
     </g>
     <g id="text_11">
      <!-- 3000 -->
      <g transform="translate(29.04 163.518367) scale(0.1 -0.1)">
       <defs>
        <path id="DejaVuSans-33" d="M 2597 2516 
Q 3050 2419 3304 2112 
Q 3559 1806 3559 1356 
Q 3559 666 3084 287 
Q 2609 -91 1734 -91 
Q 1441 -91 1130 -33 
Q 819 25 488 141 
L 488 750 
Q 750 597 1062 519 
Q 1375 441 1716 441 
Q 2309 441 2620 675 
Q 2931 909 2931 1356 
Q 2931 1769 2642 2001 
Q 2353 2234 1838 2234 
L 1294 2234 
L 1294 2753 
L 1863 2753 
Q 2328 2753 2575 2939 
Q 2822 3125 2822 3475 
Q 2822 3834 2567 4026 
Q 2313 4219 1838 4219 
Q 1578 4219 1281 4162 
Q 984 4106 628 3988 
L 628 4550 
Q 988 4650 1302 4700 
Q 1616 4750 1894 4750 
Q 2613 4750 3031 4423 
Q 3450 4097 3450 3541 
Q 3450 3153 3228 2886 
Q 3006 2619 2597 2516 
z
" transform="scale(0.015625)"/>
       </defs>
       <use xlink:href="#DejaVuSans-33"/>
       <use xlink:href="#DejaVuSans-30" x="63.623047"/>
       <use xlink:href="#DejaVuSans-30" x="127.246094"/>
       <use xlink:href="#DejaVuSans-30" x="190.869141"/>
      </g>
     </g>
    </g>
    <g id="ytick_5">
     <g id="line2d_11">
      <g>
       <use xlink:href="#mbfb444238c" x="61.49" y="121.047007" style="stroke: #000000; stroke-width: 0.8"/>
      </g>
     </g>
     <g id="text_12">
      <!-- 4000 -->
      <g transform="translate(29.04 124.846226) scale(0.1 -0.1)">
       <use xlink:href="#DejaVuSans-34"/>
       <use xlink:href="#DejaVuSans-30" x="63.623047"/>
       <use xlink:href="#DejaVuSans-30" x="127.246094"/>
       <use xlink:href="#DejaVuSans-30" x="190.869141"/>
      </g>
     </g>
    </g>
    <g id="ytick_6">
     <g id="line2d_12">
      <g>
       <use xlink:href="#mbfb444238c" x="61.49" y="82.374865" style="stroke: #000000; stroke-width: 0.8"/>
      </g>
     </g>
     <g id="text_13">
      <!-- 5000 -->
      <g transform="translate(29.04 86.174084) scale(0.1 -0.1)">
       <defs>
        <path id="DejaVuSans-35" d="M 691 4666 
L 3169 4666 
L 3169 4134 
L 1269 4134 
L 1269 2991 
Q 1406 3038 1543 3061 
Q 1681 3084 1819 3084 
Q 2600 3084 3056 2656 
Q 3513 2228 3513 1497 
Q 3513 744 3044 326 
Q 2575 -91 1722 -91 
Q 1428 -91 1123 -41 
Q 819 9 494 109 
L 494 744 
Q 775 591 1075 516 
Q 1375 441 1709 441 
Q 2250 441 2565 725 
Q 2881 1009 2881 1497 
Q 2881 1984 2565 2268 
Q 2250 2553 1709 2553 
Q 1456 2553 1204 2497 
Q 953 2441 691 2322 
L 691 4666 
z
" transform="scale(0.015625)"/>
       </defs>
       <use xlink:href="#DejaVuSans-35"/>
       <use xlink:href="#DejaVuSans-30" x="63.623047"/>
       <use xlink:href="#DejaVuSans-30" x="127.246094"/>
       <use xlink:href="#DejaVuSans-30" x="190.869141"/>
      </g>
     </g>
    </g>
    <g id="text_14">
     <!-- Number of proteins -->
     <g transform="translate(21.920469 245.489062) rotate(-90) scale(0.15 -0.15)">
      <defs>
       <path id="DejaVuSans-4e" d="M 628 4666 
L 1478 4666 
L 3547 763 
L 3547 4666 
L 4159 4666 
L 4159 0 
L 3309 0 
L 1241 3903 
L 1241 0 
L 628 0 
L 628 4666 
z
" transform="scale(0.015625)"/>
       <path id="DejaVuSans-75" d="M 544 1381 
L 544 3500 
L 1119 3500 
L 1119 1403 
Q 1119 906 1312 657 
Q 1506 409 1894 409 
Q 2359 409 2629 706 
Q 2900 1003 2900 1516 
L 2900 3500 
L 3475 3500 
L 3475 0 
L 2900 0 
L 2900 538 
Q 2691 219 2414 64 
Q 2138 -91 1772 -91 
Q 1169 -91 856 284 
Q 544 659 544 1381 
z
M 1991 3584 
L 1991 3584 
z
" transform="scale(0.015625)"/>
       <path id="DejaVuSans-6d" d="M 3328 2828 
Q 3544 3216 3844 3400 
Q 4144 3584 4550 3584 
Q 5097 3584 5394 3201 
Q 5691 2819 5691 2113 
L 5691 0 
L 5113 0 
L 5113 2094 
Q 5113 2597 4934 2840 
Q 4756 3084 4391 3084 
Q 3944 3084 3684 2787 
Q 3425 2491 3425 1978 
L 3425 0 
L 2847 0 
L 2847 2094 
Q 2847 2600 2669 2842 
Q 2491 3084 2119 3084 
Q 1678 3084 1418 2786 
Q 1159 2488 1159 1978 
L 1159 0 
L 581 0 
L 581 3500 
L 1159 3500 
L 1159 2956 
Q 1356 3278 1631 3431 
Q 1906 3584 2284 3584 
Q 2666 3584 2933 3390 
Q 3200 3197 3328 2828 
z
" transform="scale(0.015625)"/>
       <path id="DejaVuSans-62" d="M 3116 1747 
Q 3116 2381 2855 2742 
Q 2594 3103 2138 3103 
Q 1681 3103 1420 2742 
Q 1159 2381 1159 1747 
Q 1159 1113 1420 752 
Q 1681 391 2138 391 
Q 2594 391 2855 752 
Q 3116 1113 3116 1747 
z
M 1159 2969 
Q 1341 3281 1617 3432 
Q 1894 3584 2278 3584 
Q 2916 3584 3314 3078 
Q 3713 2572 3713 1747 
Q 3713 922 3314 415 
Q 2916 -91 2278 -91 
Q 1894 -91 1617 61 
Q 1341 213 1159 525 
L 1159 0 
L 581 0 
L 581 4863 
L 1159 4863 
L 1159 2969 
z
" transform="scale(0.015625)"/>
       <path id="DejaVuSans-20" transform="scale(0.015625)"/>
       <path id="DejaVuSans-6f" d="M 1959 3097 
Q 1497 3097 1228 2736 
Q 959 2375 959 1747 
Q 959 1119 1226 758 
Q 1494 397 1959 397 
Q 2419 397 2687 759 
Q 2956 1122 2956 1747 
Q 2956 2369 2687 2733 
Q 2419 3097 1959 3097 
z
M 1959 3584 
Q 2709 3584 3137 3096 
Q 3566 2609 3566 1747 
Q 3566 888 3137 398 
Q 2709 -91 1959 -91 
Q 1206 -91 779 398 
Q 353 888 353 1747 
Q 353 2609 779 3096 
Q 1206 3584 1959 3584 
z
" transform="scale(0.015625)"/>
       <path id="DejaVuSans-66" d="M 2375 4863 
L 2375 4384 
L 1825 4384 
Q 1516 4384 1395 4259 
Q 1275 4134 1275 3809 
L 1275 3500 
L 2222 3500 
L 2222 3053 
L 1275 3053 
L 1275 0 
L 697 0 
L 697 3053 
L 147 3053 
L 147 3500 
L 697 3500 
L 697 3744 
Q 697 4328 969 4595 
Q 1241 4863 1831 4863 
L 2375 4863 
z
" transform="scale(0.015625)"/>
       <path id="DejaVuSans-70" d="M 1159 525 
L 1159 -1331 
L 581 -1331 
L 581 3500 
L 1159 3500 
L 1159 2969 
Q 1341 3281 1617 3432 
Q 1894 3584 2278 3584 
Q 2916 3584 3314 3078 
Q 3713 2572 3713 1747 
Q 3713 922 3314 415 
Q 2916 -91 2278 -91 
Q 1894 -91 1617 61 
Q 1341 213 1159 525 
z
M 3116 1747 
Q 3116 2381 2855 2742 
Q 2594 3103 2138 3103 
Q 1681 3103 1420 2742 
Q 1159 2381 1159 1747 
Q 1159 1113 1420 752 
Q 1681 391 2138 391 
Q 2594 391 2855 752 
Q 3116 1113 3116 1747 
z
" transform="scale(0.015625)"/>
       <path id="DejaVuSans-74" d="M 1172 4494 
L 1172 3500 
L 2356 3500 
L 2356 3053 
L 1172 3053 
L 1172 1153 
Q 1172 725 1289 603 
Q 1406 481 1766 481 
L 2356 481 
L 2356 0 
L 1766 0 
Q 1100 0 847 248 
Q 594 497 594 1153 
L 594 3053 
L 172 3053 
L 172 3500 
L 594 3500 
L 594 4494 
L 1172 4494 
z
" transform="scale(0.015625)"/>
       <path id="DejaVuSans-69" d="M 603 3500 
L 1178 3500 
L 1178 0 
L 603 0 
L 603 3500 
z
M 603 4863 
L 1178 4863 
L 1178 4134 
L 603 4134 
L 603 4863 
z
" transform="scale(0.015625)"/>
       <path id="DejaVuSans-6e" d="M 3513 2113 
L 3513 0 
L 2938 0 
L 2938 2094 
Q 2938 2591 2744 2837 
Q 2550 3084 2163 3084 
Q 1697 3084 1428 2787 
Q 1159 2491 1159 1978 
L 1159 0 
L 581 0 
L 581 3500 
L 1159 3500 
L 1159 2956 
Q 1366 3272 1645 3428 
Q 1925 3584 2291 3584 
Q 2894 3584 3203 3211 
Q 3513 2838 3513 2113 
z
" transform="scale(0.015625)"/>
       <path id="DejaVuSans-73" d="M 2834 3397 
L 2834 2853 
Q 2591 2978 2328 3040 
Q 2066 3103 1784 3103 
Q 1356 3103 1142 2972 
Q 928 2841 928 2578 
Q 928 2378 1081 2264 
Q 1234 2150 1697 2047 
L 1894 2003 
Q 2506 1872 2764 1633 
Q 3022 1394 3022 966 
Q 3022 478 2636 193 
Q 2250 -91 1575 -91 
Q 1294 -91 989 -36 
Q 684 19 347 128 
L 347 722 
Q 666 556 975 473 
Q 1284 391 1588 391 
Q 1994 391 2212 530 
Q 2431 669 2431 922 
Q 2431 1156 2273 1281 
Q 2116 1406 1581 1522 
L 1381 1569 
Q 847 1681 609 1914 
Q 372 2147 372 2553 
Q 372 3047 722 3315 
Q 1072 3584 1716 3584 
Q 2034 3584 2315 3537 
Q 2597 3491 2834 3397 
z
" transform="scale(0.015625)"/>
      </defs>
      <use xlink:href="#DejaVuSans-4e"/>
      <use xlink:href="#DejaVuSans-75" x="74.804688"/>
      <use xlink:href="#DejaVuSans-6d" x="138.183594"/>
      <use xlink:href="#DejaVuSans-62" x="235.595703"/>
      <use xlink:href="#DejaVuSans-65" x="299.072266"/>
      <use xlink:href="#DejaVuSans-72" x="360.595703"/>
      <use xlink:href="#DejaVuSans-20" x="401.708984"/>
      <use xlink:href="#DejaVuSans-6f" x="433.496094"/>
      <use xlink:href="#DejaVuSans-66" x="494.677734"/>
      <use xlink:href="#DejaVuSans-20" x="529.882812"/>
      <use xlink:href="#DejaVuSans-70" x="561.669922"/>
      <use xlink:href="#DejaVuSans-72" x="625.146484"/>
      <use xlink:href="#DejaVuSans-6f" x="664.009766"/>
      <use xlink:href="#DejaVuSans-74" x="725.191406"/>
      <use xlink:href="#DejaVuSans-65" x="764.400391"/>
      <use xlink:href="#DejaVuSans-69" x="825.923828"/>
      <use xlink:href="#DejaVuSans-6e" x="853.707031"/>
      <use xlink:href="#DejaVuSans-73" x="917.085938"/>
     </g>
    </g>
   </g>
   <g id="patch_3">
    <path d="M 61.49 275.735572 
L 61.49 69.864428 
" style="fill: none; stroke: #000000; stroke-width: 0.8; stroke-linejoin: miter; stroke-linecap: square"/>
   </g>
   <g id="patch_4">
    <path d="M 61.49 275.735572 
L 450 275.735572 
" style="fill: none; stroke: #000000; stroke-width: 0.8; stroke-linejoin: miter; stroke-linecap: square"/>
   </g>
   <g id="legend_1">
    <g id="patch_5">
     <path d="M 98.395781 64.864428 
L 413.094219 64.864428 
Q 415.094219 64.864428 415.094219 62.864428 
L 415.094219 34.508178 
Q 415.094219 32.508178 413.094219 32.508178 
L 98.395781 32.508178 
Q 96.395781 32.508178 96.395781 34.508178 
L 96.395781 62.864428 
Q 96.395781 64.864428 98.395781 64.864428 
z
" style="fill: #ffffff; opacity: 0.8; stroke: #cccccc; stroke-linejoin: miter"/>
    </g>
    <g id="patch_6">
     <path d="M 100.395781 44.106615 
L 120.395781 44.106615 
L 120.395781 37.106615 
L 100.395781 37.106615 
z
" style="fill: #fb363b"/>
    </g>
    <g id="text_15">
     <!-- Biological role published -->
     <g transform="translate(128.395781 44.106615) scale(0.1 -0.1)">
      <defs>
       <path id="DejaVuSans-42" d="M 1259 2228 
L 1259 519 
L 2272 519 
Q 2781 519 3026 730 
Q 3272 941 3272 1375 
Q 3272 1813 3026 2020 
Q 2781 2228 2272 2228 
L 1259 2228 
z
M 1259 4147 
L 1259 2741 
L 2194 2741 
Q 2656 2741 2882 2914 
Q 3109 3088 3109 3444 
Q 3109 3797 2882 3972 
Q 2656 4147 2194 4147 
L 1259 4147 
z
M 628 4666 
L 2241 4666 
Q 2963 4666 3353 4366 
Q 3744 4066 3744 3513 
Q 3744 3084 3544 2831 
Q 3344 2578 2956 2516 
Q 3422 2416 3680 2098 
Q 3938 1781 3938 1306 
Q 3938 681 3513 340 
Q 3088 0 2303 0 
L 628 0 
L 628 4666 
z
" transform="scale(0.015625)"/>
       <path id="DejaVuSans-6c" d="M 603 4863 
L 1178 4863 
L 1178 0 
L 603 0 
L 603 4863 
z
" transform="scale(0.015625)"/>
       <path id="DejaVuSans-67" d="M 2906 1791 
Q 2906 2416 2648 2759 
Q 2391 3103 1925 3103 
Q 1463 3103 1205 2759 
Q 947 2416 947 1791 
Q 947 1169 1205 825 
Q 1463 481 1925 481 
Q 2391 481 2648 825 
Q 2906 1169 2906 1791 
z
M 3481 434 
Q 3481 -459 3084 -895 
Q 2688 -1331 1869 -1331 
Q 1566 -1331 1297 -1286 
Q 1028 -1241 775 -1147 
L 775 -588 
Q 1028 -725 1275 -790 
Q 1522 -856 1778 -856 
Q 2344 -856 2625 -561 
Q 2906 -266 2906 331 
L 2906 616 
Q 2728 306 2450 153 
Q 2172 0 1784 0 
Q 1141 0 747 490 
Q 353 981 353 1791 
Q 353 2603 747 3093 
Q 1141 3584 1784 3584 
Q 2172 3584 2450 3431 
Q 2728 3278 2906 2969 
L 2906 3500 
L 3481 3500 
L 3481 434 
z
" transform="scale(0.015625)"/>
       <path id="DejaVuSans-63" d="M 3122 3366 
L 3122 2828 
Q 2878 2963 2633 3030 
Q 2388 3097 2138 3097 
Q 1578 3097 1268 2742 
Q 959 2388 959 1747 
Q 959 1106 1268 751 
Q 1578 397 2138 397 
Q 2388 397 2633 464 
Q 2878 531 3122 666 
L 3122 134 
Q 2881 22 2623 -34 
Q 2366 -91 2075 -91 
Q 1284 -91 818 406 
Q 353 903 353 1747 
Q 353 2603 823 3093 
Q 1294 3584 2113 3584 
Q 2378 3584 2631 3529 
Q 2884 3475 3122 3366 
z
" transform="scale(0.015625)"/>
       <path id="DejaVuSans-68" d="M 3513 2113 
L 3513 0 
L 2938 0 
L 2938 2094 
Q 2938 2591 2744 2837 
Q 2550 3084 2163 3084 
Q 1697 3084 1428 2787 
Q 1159 2491 1159 1978 
L 1159 0 
L 581 0 
L 581 4863 
L 1159 4863 
L 1159 2956 
Q 1366 3272 1645 3428 
Q 1925 3584 2291 3584 
Q 2894 3584 3203 3211 
Q 3513 2838 3513 2113 
z
" transform="scale(0.015625)"/>
       <path id="DejaVuSans-64" d="M 2906 2969 
L 2906 4863 
L 3481 4863 
L 3481 0 
L 2906 0 
L 2906 525 
Q 2725 213 2448 61 
Q 2172 -91 1784 -91 
Q 1150 -91 751 415 
Q 353 922 353 1747 
Q 353 2572 751 3078 
Q 1150 3584 1784 3584 
Q 2172 3584 2448 3432 
Q 2725 3281 2906 2969 
z
M 947 1747 
Q 947 1113 1208 752 
Q 1469 391 1925 391 
Q 2381 391 2643 752 
Q 2906 1113 2906 1747 
Q 2906 2381 2643 2742 
Q 2381 3103 1925 3103 
Q 1469 3103 1208 2742 
Q 947 2381 947 1747 
z
" transform="scale(0.015625)"/>
      </defs>
      <use xlink:href="#DejaVuSans-42"/>
      <use xlink:href="#DejaVuSans-69" x="68.603516"/>
      <use xlink:href="#DejaVuSans-6f" x="96.386719"/>
      <use xlink:href="#DejaVuSans-6c" x="157.568359"/>
      <use xlink:href="#DejaVuSans-6f" x="185.351562"/>
      <use xlink:href="#DejaVuSans-67" x="246.533203"/>
      <use xlink:href="#DejaVuSans-69" x="310.009766"/>
      <use xlink:href="#DejaVuSans-63" x="337.792969"/>
      <use xlink:href="#DejaVuSans-61" x="392.773438"/>
      <use xlink:href="#DejaVuSans-6c" x="454.052734"/>
      <use xlink:href="#DejaVuSans-20" x="481.835938"/>
      <use xlink:href="#DejaVuSans-72" x="513.623047"/>
      <use xlink:href="#DejaVuSans-6f" x="552.486328"/>
      <use xlink:href="#DejaVuSans-6c" x="613.667969"/>
      <use xlink:href="#DejaVuSans-65" x="641.451172"/>
      <use xlink:href="#DejaVuSans-20" x="702.974609"/>
      <use xlink:href="#DejaVuSans-70" x="734.761719"/>
      <use xlink:href="#DejaVuSans-75" x="798.238281"/>
      <use xlink:href="#DejaVuSans-62" x="861.617188"/>
      <use xlink:href="#DejaVuSans-6c" x="925.09375"/>
      <use xlink:href="#DejaVuSans-69" x="952.876953"/>
      <use xlink:href="#DejaVuSans-73" x="980.660156"/>
      <use xlink:href="#DejaVuSans-68" x="1032.759766"/>
      <use xlink:href="#DejaVuSans-65" x="1096.138672"/>
      <use xlink:href="#DejaVuSans-64" x="1157.662109"/>
     </g>
    </g>
    <g id="patch_7">
     <path d="M 100.395781 58.78474 
L 120.395781 58.78474 
L 120.395781 51.78474 
L 100.395781 51.78474 
z
" style="fill: #fdc92c"/>
    </g>
    <g id="text_16">
     <!-- Biological role inferred -->
     <g transform="translate(128.395781 58.78474) scale(0.1 -0.1)">
      <use xlink:href="#DejaVuSans-42"/>
      <use xlink:href="#DejaVuSans-69" x="68.603516"/>
      <use xlink:href="#DejaVuSans-6f" x="96.386719"/>
      <use xlink:href="#DejaVuSans-6c" x="157.568359"/>
      <use xlink:href="#DejaVuSans-6f" x="185.351562"/>
      <use xlink:href="#DejaVuSans-67" x="246.533203"/>
      <use xlink:href="#DejaVuSans-69" x="310.009766"/>
      <use xlink:href="#DejaVuSans-63" x="337.792969"/>
      <use xlink:href="#DejaVuSans-61" x="392.773438"/>
      <use xlink:href="#DejaVuSans-6c" x="454.052734"/>
      <use xlink:href="#DejaVuSans-20" x="481.835938"/>
      <use xlink:href="#DejaVuSans-72" x="513.623047"/>
      <use xlink:href="#DejaVuSans-6f" x="552.486328"/>
      <use xlink:href="#DejaVuSans-6c" x="613.667969"/>
      <use xlink:href="#DejaVuSans-65" x="641.451172"/>
      <use xlink:href="#DejaVuSans-20" x="702.974609"/>
      <use xlink:href="#DejaVuSans-69" x="734.761719"/>
      <use xlink:href="#DejaVuSans-6e" x="762.544922"/>
      <use xlink:href="#DejaVuSans-66" x="825.923828"/>
      <use xlink:href="#DejaVuSans-65" x="861.128906"/>
      <use xlink:href="#DejaVuSans-72" x="922.652344"/>
      <use xlink:href="#DejaVuSans-72" x="962.015625"/>
      <use xlink:href="#DejaVuSans-65" x="1000.878906"/>
      <use xlink:href="#DejaVuSans-64" x="1062.402344"/>
     </g>
    </g>
    <g id="patch_8">
     <path d="M 270.512969 44.106615 
L 290.512969 44.106615 
L 290.512969 37.106615 
L 270.512969 37.106615 
z
" style="fill: #aeaeae"/>
    </g>
    <g id="text_17">
     <!-- Conserved unknown -->
     <g transform="translate(298.512969 44.106615) scale(0.1 -0.1)">
      <defs>
       <path id="DejaVuSans-43" d="M 4122 4306 
L 4122 3641 
Q 3803 3938 3442 4084 
Q 3081 4231 2675 4231 
Q 1875 4231 1450 3742 
Q 1025 3253 1025 2328 
Q 1025 1406 1450 917 
Q 1875 428 2675 428 
Q 3081 428 3442 575 
Q 3803 722 4122 1019 
L 4122 359 
Q 3791 134 3420 21 
Q 3050 -91 2638 -91 
Q 1578 -91 968 557 
Q 359 1206 359 2328 
Q 359 3453 968 4101 
Q 1578 4750 2638 4750 
Q 3056 4750 3426 4639 
Q 3797 4528 4122 4306 
z
" transform="scale(0.015625)"/>
       <path id="DejaVuSans-76" d="M 191 3500 
L 800 3500 
L 1894 563 
L 2988 3500 
L 3597 3500 
L 2284 0 
L 1503 0 
L 191 3500 
z
" transform="scale(0.015625)"/>
       <path id="DejaVuSans-6b" d="M 581 4863 
L 1159 4863 
L 1159 1991 
L 2875 3500 
L 3609 3500 
L 1753 1863 
L 3688 0 
L 2938 0 
L 1159 1709 
L 1159 0 
L 581 0 
L 581 4863 
z
" transform="scale(0.015625)"/>
       <path id="DejaVuSans-77" d="M 269 3500 
L 844 3500 
L 1563 769 
L 2278 3500 
L 2956 3500 
L 3675 769 
L 4391 3500 
L 4966 3500 
L 4050 0 
L 3372 0 
L 2619 2869 
L 1863 0 
L 1184 0 
L 269 3500 
z
" transform="scale(0.015625)"/>
      </defs>
      <use xlink:href="#DejaVuSans-43"/>
      <use xlink:href="#DejaVuSans-6f" x="69.824219"/>
      <use xlink:href="#DejaVuSans-6e" x="131.005859"/>
      <use xlink:href="#DejaVuSans-73" x="194.384766"/>
      <use xlink:href="#DejaVuSans-65" x="246.484375"/>
      <use xlink:href="#DejaVuSans-72" x="308.007812"/>
      <use xlink:href="#DejaVuSans-76" x="349.121094"/>
      <use xlink:href="#DejaVuSans-65" x="408.300781"/>
      <use xlink:href="#DejaVuSans-64" x="469.824219"/>
      <use xlink:href="#DejaVuSans-20" x="533.300781"/>
      <use xlink:href="#DejaVuSans-75" x="565.087891"/>
      <use xlink:href="#DejaVuSans-6e" x="628.466797"/>
      <use xlink:href="#DejaVuSans-6b" x="691.845703"/>
      <use xlink:href="#DejaVuSans-6e" x="749.755859"/>
      <use xlink:href="#DejaVuSans-6f" x="813.134766"/>
      <use xlink:href="#DejaVuSans-77" x="874.316406"/>
      <use xlink:href="#DejaVuSans-6e" x="956.103516"/>
     </g>
    </g>
    <g id="patch_9">
     <path d="M 270.512969 58.78474 
L 290.512969 58.78474 
L 290.512969 51.78474 
L 270.512969 51.78474 
z
" style="fill: #d5dce5"/>
    </g>
    <g id="text_18">
     <!-- Fission yeast unknown -->
     <g transform="translate(298.512969 58.78474) scale(0.1 -0.1)">
      <defs>
       <path id="DejaVuSans-46" d="M 628 4666 
L 3309 4666 
L 3309 4134 
L 1259 4134 
L 1259 2759 
L 3109 2759 
L 3109 2228 
L 1259 2228 
L 1259 0 
L 628 0 
L 628 4666 
z
" transform="scale(0.015625)"/>
       <path id="DejaVuSans-79" d="M 2059 -325 
Q 1816 -950 1584 -1140 
Q 1353 -1331 966 -1331 
L 506 -1331 
L 506 -850 
L 844 -850 
Q 1081 -850 1212 -737 
Q 1344 -625 1503 -206 
L 1606 56 
L 191 3500 
L 800 3500 
L 1894 763 
L 2988 3500 
L 3597 3500 
L 2059 -325 
z
" transform="scale(0.015625)"/>
      </defs>
      <use xlink:href="#DejaVuSans-46"/>
      <use xlink:href="#DejaVuSans-69" x="50.269531"/>
      <use xlink:href="#DejaVuSans-73" x="78.052734"/>
      <use xlink:href="#DejaVuSans-73" x="130.152344"/>
      <use xlink:href="#DejaVuSans-69" x="182.251953"/>
      <use xlink:href="#DejaVuSans-6f" x="210.035156"/>
      <use xlink:href="#DejaVuSans-6e" x="271.216797"/>
      <use xlink:href="#DejaVuSans-20" x="334.595703"/>
      <use xlink:href="#DejaVuSans-79" x="366.382812"/>
      <use xlink:href="#DejaVuSans-65" x="425.5625"/>
      <use xlink:href="#DejaVuSans-61" x="487.085938"/>
      <use xlink:href="#DejaVuSans-73" x="548.365234"/>
      <use xlink:href="#DejaVuSans-74" x="600.464844"/>
      <use xlink:href="#DejaVuSans-20" x="639.673828"/>
      <use xlink:href="#DejaVuSans-75" x="671.460938"/>
      <use xlink:href="#DejaVuSans-6e" x="734.839844"/>
      <use xlink:href="#DejaVuSans-6b" x="798.21875"/>
      <use xlink:href="#DejaVuSans-6e" x="856.128906"/>
      <use xlink:href="#DejaVuSans-6f" x="919.507812"/>
      <use xlink:href="#DejaVuSans-77" x="980.689453"/>
      <use xlink:href="#DejaVuSans-6e" x="1062.476562"/>
     </g>
    </g>
   </g>
  </g>
 </g>
 <defs>
  <clipPath id="p7b706a7566">
   <rect x="61.49" y="69.864428" width="388.51" height="205.871144"/>
  </clipPath>
 </defs>
</svg>
