<?xml version="1.0" encoding="utf-8" standalone="no"?>
<!DOCTYPE svg PUBLIC "-//W3C//DTD SVG 1.1//EN"
  "http://www.w3.org/Graphics/SVG/1.1/DTD/svg11.dtd">
<svg xmlns:xlink="http://www.w3.org/1999/xlink" width="460.8pt" height="345.6pt" viewBox="0 0 460.8 345.6" xmlns="http://www.w3.org/2000/svg" version="1.1">
 <metadata>
  <rdf:RDF xmlns:dc="http://purl.org/dc/elements/1.1/" xmlns:cc="http://creativecommons.org/ns#" xmlns:rdf="http://www.w3.org/1999/02/22-rdf-syntax-ns#">
   <cc:Work>
    <dc:type rdf:resource="http://purl.org/dc/dcmitype/StillImage"/>
    <dc:date>2026-05-02T01:27:16.288173</dc:date>
    <dc:format>image/svg+xml</dc:format>
    <dc:creator>
     <cc:Agent>
      <dc:title>Matplotlib v3.7.1, https://matplotlib.org/</dc:title>
     </cc:Agent>
    </dc:creator>
   </cc:Work>
  </rdf:RDF>
 </metadata>
 <defs>
  <style type="text/css">*{stroke-linejoin: round; stroke-linecap: butt}</style>
 </defs>
 <g id="figure_1">
  <g id="patch_1">
   <path d="M 0 345.6 
L 460.8 345.6 
L 460.8 0 
L 0 0 
z
" style="fill: #ffffff"/>
  </g>
  <g id="axes_1">
   <g id="patch_2">
    <path d="M 61.49 271.628479 
L 450 271.628479 
L 450 73.971521 
L 61.49 73.971521 
z
" style="fill: #ffffff"/>
   </g>
   <g id="PolyCollection_1">
    <path d="M 33.411091 221.467015 
L 33.411091 271.628479 
L 41.254621 271.628479 
L 49.005328 271.628479 
L 64.924445 271.628479 
L 83.39619 271.628479 
L 96.994737 271.628479 
L 105.441615 271.628479 
L 107.622952 271.628479 
L 111.660745 271.628479 
L 113.517202 271.628479 
L 113.749259 271.628479 
L 116.812413 271.628479 
L 117.601407 271.628479 
L 118.251167 271.628479 
L 119.040161 271.628479 
L 119.550687 271.628479 
L 120.339681 271.628479 
L 120.803795 271.628479 
L 121.639201 271.628479 
L 122.753075 271.628479 
L 123.634892 271.628479 
L 123.959772 271.628479 
L 124.888 271.628479 
L 125.53776 271.628479 
L 126.233931 271.628479 
L 126.976514 271.628479 
L 127.48704 271.628479 
L 127.951154 271.628479 
L 129.250674 271.628479 
L 130.178902 271.628479 
L 130.875073 271.628479 
L 131.060719 271.628479 
L 131.710479 271.628479 
L 132.685119 271.628479 
L 133.70617 271.628479 
L 134.402341 271.628479 
L 135.423393 271.628479 
L 136.769324 271.628479 
L 138.625781 271.628479 
L 140.25018 271.628479 
L 141.642523 271.628479 
L 144.241563 271.628479 
L 145.355437 271.628479 
L 148.372179 271.628479 
L 150.321459 271.628479 
L 151.528156 271.628479 
L 152.270738 271.628479 
L 155.194658 271.628479 
L 156.819057 271.628479 
L 158.489869 271.628479 
L 161.785079 271.628479 
L 164.848233 271.628479 
L 165.358759 271.628479 
L 165.962107 271.628479 
L 166.890336 271.628479 
L 167.632918 271.628479 
L 169.907078 271.628479 
L 174.455397 271.628479 
L 175.337214 271.628479 
L 179.607065 271.628479 
L 180.581705 271.628479 
L 181.556345 271.628479 
L 183.134333 271.628479 
L 184.433853 271.628479 
L 185.686961 271.628479 
L 186.475955 271.628479 
L 189.028583 271.628479 
L 191.674034 271.628479 
L 192.973554 271.628479 
L 193.901782 271.628479 
L 195.062068 271.628479 
L 196.036708 271.628479 
L 197.196993 271.628479 
L 199.935267 271.628479 
L 201.374021 271.628479 
L 202.766364 271.628479 
L 204.205118 271.628479 
L 205.59746 271.628479 
L 207.036214 271.628479 
L 208.474968 271.628479 
L 209.8209 271.628479 
L 211.259654 271.628479 
L 212.651996 271.628479 
L 214.09075 271.628479 
L 215.483093 271.628479 
L 216.921847 271.628479 
L 218.360601 271.628479 
L 219.752943 271.628479 
L 221.191698 271.628479 
L 222.58404 271.628479 
L 224.022794 271.628479 
L 225.461548 271.628479 
L 226.761068 271.628479 
L 228.199822 271.628479 
L 229.592165 271.628479 
L 231.030919 271.628479 
L 232.423261 271.628479 
L 233.862015 271.628479 
L 235.300769 271.628479 
L 236.693112 271.628479 
L 238.131866 271.628479 
L 239.524209 271.628479 
L 240.962963 271.628479 
L 242.401717 271.628479 
L 243.701236 271.628479 
L 245.13999 271.628479 
L 246.532333 271.628479 
L 247.971087 271.628479 
L 249.36343 271.628479 
L 250.802184 271.628479 
L 252.240938 271.628479 
L 253.63328 271.628479 
L 255.072034 271.628479 
L 256.464377 271.628479 
L 257.903131 271.628479 
L 259.341885 271.628479 
L 260.641405 271.628479 
L 262.080159 271.628479 
L 263.472501 271.628479 
L 264.911256 271.628479 
L 266.303598 271.628479 
L 267.742352 271.628479 
L 269.181106 271.628479 
L 270.573449 271.628479 
L 272.012203 271.628479 
L 273.404545 271.628479 
L 274.843299 271.628479 
L 276.282054 271.628479 
L 277.627985 271.628479 
L 279.066739 271.628479 
L 280.459081 271.628479 
L 281.897835 271.628479 
L 283.290178 271.628479 
L 284.728932 271.628479 
L 286.167686 271.628479 
L 287.560029 271.628479 
L 288.998783 271.628479 
L 290.391125 271.628479 
L 291.829879 271.628479 
L 293.268633 271.628479 
L 294.568153 271.628479 
L 296.006907 271.628479 
L 297.39925 271.628479 
L 298.838004 271.628479 
L 300.230346 271.628479 
L 301.6691 271.628479 
L 303.107854 271.628479 
L 304.500197 271.628479 
L 305.938951 271.628479 
L 307.331294 271.628479 
L 308.770048 271.628479 
L 310.208802 271.628479 
L 311.508322 271.628479 
L 312.947076 271.628479 
L 314.339418 271.628479 
L 315.778172 271.628479 
L 317.170515 271.628479 
L 318.609269 271.628479 
L 320.048023 271.628479 
L 321.440366 271.628479 
L 322.87912 271.628479 
L 324.271462 271.628479 
L 325.710216 271.628479 
L 327.14897 271.628479 
L 328.44849 271.628479 
L 329.887244 271.628479 
L 331.279587 271.628479 
L 332.718341 271.628479 
L 334.110683 271.628479 
L 335.549437 271.628479 
L 336.988191 271.628479 
L 338.380534 271.628479 
L 339.819288 271.628479 
L 341.211631 271.628479 
L 342.650385 271.628479 
L 344.089139 271.628479 
L 345.43507 271.628479 
L 346.873824 271.628479 
L 348.266167 271.628479 
L 349.704921 271.628479 
L 351.097263 271.628479 
L 352.536017 271.628479 
L 353.974771 271.628479 
L 355.367114 271.628479 
L 356.805868 271.628479 
L 358.19821 271.628479 
L 359.636965 271.628479 
L 361.075719 271.628479 
L 362.375238 271.628479 
L 363.813992 271.628479 
L 365.206335 271.628479 
L 366.645089 271.628479 
L 368.037432 271.628479 
L 369.476186 271.628479 
L 370.91494 271.628479 
L 372.307282 271.628479 
L 373.746036 271.628479 
L 375.138379 271.628479 
L 376.577133 271.628479 
L 378.015887 271.628479 
L 379.315407 271.628479 
L 380.754161 271.628479 
L 382.146503 271.628479 
L 383.585257 271.628479 
L 384.9776 271.628479 
L 386.416354 271.628479 
L 387.855108 271.628479 
L 389.247451 271.628479 
L 390.686205 271.628479 
L 392.078547 271.628479 
L 393.517301 271.628479 
L 394.956055 271.628479 
L 396.255575 271.628479 
L 397.694329 271.628479 
L 399.086672 271.628479 
L 400.525426 271.628479 
L 401.917768 271.628479 
L 403.356523 271.628479 
L 404.795277 271.628479 
L 406.187619 271.628479 
L 407.626373 271.628479 
L 409.018716 271.628479 
L 410.45747 271.628479 
L 411.896224 271.628479 
L 413.242155 271.628479 
L 414.680909 271.628479 
L 416.073252 271.628479 
L 417.512006 271.628479 
L 418.904348 271.628479 
L 420.343102 271.628479 
L 421.781856 271.628479 
L 423.174199 271.628479 
L 424.612953 271.628479 
L 426.005296 271.628479 
L 427.44405 271.628479 
L 428.882804 271.628479 
L 430.182323 271.628479 
L 431.621078 271.628479 
L 433.01342 271.628479 
L 434.452174 271.628479 
L 435.844517 271.628479 
L 437.283271 271.628479 
L 438.722025 271.628479 
L 440.114367 271.628479 
L 441.553121 271.628479 
L 442.945464 271.628479 
L 444.384218 271.628479 
L 445.822972 271.628479 
L 447.122492 271.628479 
L 448.561246 271.628479 
L 449.953589 271.628479 
L 449.953589 170.748615 
L 449.953589 170.748615 
L 448.561246 170.637228 
L 447.122492 170.600099 
L 445.822972 170.600099 
L 444.384218 170.265936 
L 442.945464 170.191678 
L 441.553121 170.191678 
L 440.114367 170.154549 
L 438.722025 169.560483 
L 437.283271 169.449095 
L 435.844517 169.523354 
L 434.452174 169.560483 
L 433.01342 169.560483 
L 431.621078 169.857516 
L 430.182323 169.894645 
L 428.882804 170.860003 
L 427.44405 172.976363 
L 426.005296 173.718946 
L 424.612953 173.941721 
L 423.174199 173.941721 
L 421.781856 174.164496 
L 420.343102 174.164496 
L 418.904348 174.981337 
L 417.512006 175.501145 
L 416.073252 175.612532 
L 414.680909 175.723919 
L 413.242155 175.798178 
L 411.896224 177.394731 
L 410.45747 177.506118 
L 409.018716 177.543247 
L 407.626373 177.766022 
L 406.187619 177.877409 
L 404.795277 177.914539 
L 403.356523 178.025926 
L 401.917768 178.471476 
L 400.525426 178.69425 
L 399.086672 178.805638 
L 397.694329 178.805638 
L 396.255575 179.1398 
L 394.956055 179.696737 
L 393.517301 179.659608 
L 392.078547 179.770995 
L 390.686205 179.882383 
L 389.247451 180.105158 
L 387.855108 180.105158 
L 386.416354 180.142287 
L 384.9776 180.142287 
L 383.585257 180.105158 
L 382.146503 180.179416 
L 380.754161 180.105158 
L 379.315407 180.068028 
L 378.015887 180.105158 
L 376.577133 180.105158 
L 375.138379 180.290803 
L 373.746036 180.476449 
L 372.307282 180.773482 
L 370.91494 180.996257 
L 369.476186 180.959128 
L 368.037432 181.144773 
L 366.645089 181.404677 
L 365.206335 181.404677 
L 363.813992 181.553194 
L 362.375238 182.035873 
L 361.075719 182.14726 
L 359.636965 182.555681 
L 358.19821 182.59281 
L 356.805868 182.741326 
L 355.367114 182.815585 
L 353.974771 182.964101 
L 352.536017 183.00123 
L 351.097263 183.075488 
L 349.704921 183.075488 
L 348.266167 183.149747 
L 346.873824 183.483909 
L 345.43507 183.595296 
L 344.089139 183.669555 
L 342.650385 183.743813 
L 341.211631 183.743813 
L 339.819288 183.743813 
L 338.380534 183.8552 
L 336.988191 183.929459 
L 335.549437 184.077975 
L 334.110683 184.30075 
L 332.718341 184.412137 
L 331.279587 184.486396 
L 329.887244 184.560654 
L 328.44849 184.597783 
L 327.14897 184.597783 
L 325.710216 184.634912 
L 324.271462 184.672041 
L 322.87912 184.7463 
L 321.440366 184.783429 
L 320.048023 184.783429 
L 318.609269 184.894816 
L 317.170515 185.006204 
L 315.778172 185.228978 
L 314.339418 185.377495 
L 312.947076 185.674528 
L 311.508322 185.823045 
L 310.208802 185.971561 
L 308.770048 186.00869 
L 307.331294 186.157207 
L 305.938951 186.305723 
L 304.500197 187.939405 
L 303.107854 188.199309 
L 301.6691 188.904763 
L 300.230346 188.310697 
L 298.838004 188.236438 
L 297.39925 188.273568 
L 296.006907 188.347826 
L 294.568153 188.60773 
L 293.268633 188.644859 
L 291.829879 188.719117 
L 290.391125 189.424571 
L 288.998783 189.535958 
L 287.560029 189.721604 
L 286.167686 189.795862 
L 284.728932 189.90725 
L 283.290178 190.31567 
L 281.897835 190.501316 
L 280.459081 190.501316 
L 279.066739 190.872607 
L 277.627985 190.946865 
L 276.282054 190.983995 
L 274.843299 191.16964 
L 273.404545 191.243898 
L 272.012203 191.243898 
L 270.573449 191.429544 
L 269.181106 191.466673 
L 267.742352 191.503802 
L 266.303598 191.652319 
L 264.911256 191.763706 
L 263.472501 191.206769 
L 262.080159 191.281028 
L 260.641405 191.466673 
L 259.341885 191.466673 
L 257.903131 191.689448 
L 256.464377 191.837965 
L 255.072034 192.097869 
L 253.63328 192.432031 
L 252.240938 192.729064 
L 250.802184 192.803322 
L 249.36343 193.063226 
L 247.971087 193.286001 
L 246.532333 193.620163 
L 245.13999 193.76868 
L 243.701236 193.954325 
L 242.401717 193.991455 
L 240.962963 193.991455 
L 239.524209 194.1771 
L 238.131866 194.62265 
L 236.693112 194.659779 
L 235.300769 194.882554 
L 233.862015 195.513749 
L 232.423261 195.588007 
L 231.030919 196.033557 
L 229.592165 196.33059 
L 228.199822 197.333077 
L 226.761068 197.407335 
L 225.461548 197.518722 
L 224.022794 197.778626 
L 222.58404 197.852885 
L 221.191698 198.07566 
L 219.752943 198.261305 
L 218.360601 198.595467 
L 216.921847 198.781113 
L 215.483093 198.892501 
L 214.09075 199.115275 
L 212.651996 199.152404 
L 211.259654 199.263792 
L 209.8209 199.412308 
L 208.474968 199.412308 
L 207.036214 199.486567 
L 205.59746 199.523696 
L 204.205118 199.560825 
L 202.766364 199.597954 
L 201.374021 199.635083 
L 199.935267 199.746471 
L 197.196993 200.451924 
L 196.036708 200.63757 
L 195.062068 200.674699 
L 193.901782 200.563312 
L 192.973554 200.563312 
L 191.674034 200.674699 
L 189.028583 200.786086 
L 186.475955 201.380153 
L 185.686961 202.271252 
L 184.433853 202.122735 
L 183.134333 202.085606 
L 181.556345 202.753931 
L 180.581705 202.753931 
L 179.607065 202.531156 
L 175.337214 203.013835 
L 174.455397 203.088093 
L 169.907078 203.719288 
L 167.632918 203.793547 
L 166.890336 203.64503 
L 165.962107 203.756417 
L 165.358759 203.942063 
L 164.848233 203.979192 
L 161.785079 204.09058 
L 158.489869 204.164838 
L 156.819057 204.350484 
L 155.194658 206.318328 
L 152.270738 206.24407 
L 151.528156 206.281199 
L 150.321459 206.689619 
L 148.372179 207.729235 
L 145.355437 207.95201 
L 144.241563 208.323301 
L 141.642523 208.583205 
L 140.25018 209.362917 
L 138.625781 209.882725 
L 136.769324 210.291145 
L 135.423393 210.328275 
L 134.402341 210.402533 
L 133.70617 210.439662 
L 132.685119 210.476791 
L 131.710479 211.145116 
L 131.060719 211.479278 
L 130.875073 211.479278 
L 130.178902 211.479278 
L 129.250674 211.702053 
L 127.951154 211.479278 
L 127.48704 211.664923 
L 126.976514 211.739182 
L 126.233931 211.850569 
L 125.53776 211.850569 
L 124.888 212.147602 
L 123.959772 212.815927 
L 123.634892 212.778798 
L 122.753075 213.11296 
L 121.639201 213.187218 
L 120.803795 213.261476 
L 120.339681 213.335735 
L 119.550687 213.447122 
L 119.040161 213.669897 
L 118.251167 213.855542 
L 117.601407 213.781284 
L 116.812413 213.855542 
L 113.749259 214.115446 
L 113.517202 214.078317 
L 111.660745 214.37535 
L 107.622952 212.593152 
L 105.441615 215.229321 
L 96.994737 218.68233 
L 83.39619 221.912565 
L 64.924445 226.071028 
L 49.005328 221.28137 
L 41.254621 220.687304 
L 33.411091 221.467015 
z
" clip-path="url(#p0480de024f)" style="fill: #fb363b"/>
   </g>
   <g id="PolyCollection_2">
    <path d="M 33.411091 145.129511 
L 33.411091 221.467015 
L 41.254621 220.687304 
L 49.005328 221.28137 
L 64.924445 226.071028 
L 83.39619 221.912565 
L 96.994737 218.68233 
L 105.441615 215.229321 
L 107.622952 212.593152 
L 111.660745 214.37535 
L 113.517202 214.078317 
L 113.749259 214.115446 
L 116.812413 213.855542 
L 117.601407 213.781284 
L 118.251167 213.855542 
L 119.040161 213.669897 
L 119.550687 213.447122 
L 120.339681 213.335735 
L 120.803795 213.261476 
L 121.639201 213.187218 
L 122.753075 213.11296 
L 123.634892 212.778798 
L 123.959772 212.815927 
L 124.888 212.147602 
L 125.53776 211.850569 
L 126.233931 211.850569 
L 126.976514 211.739182 
L 127.48704 211.664923 
L 127.951154 211.479278 
L 129.250674 211.702053 
L 130.178902 211.479278 
L 130.875073 211.479278 
L 131.060719 211.479278 
L 131.710479 211.145116 
L 132.685119 210.476791 
L 133.70617 210.439662 
L 134.402341 210.402533 
L 135.423393 210.328275 
L 136.769324 210.291145 
L 138.625781 209.882725 
L 140.25018 209.362917 
L 141.642523 208.583205 
L 144.241563 208.323301 
L 145.355437 207.95201 
L 148.372179 207.729235 
L 150.321459 206.689619 
L 151.528156 206.281199 
L 152.270738 206.24407 
L 155.194658 206.318328 
L 156.819057 204.350484 
L 158.489869 204.164838 
L 161.785079 204.09058 
L 164.848233 203.979192 
L 165.358759 203.942063 
L 165.962107 203.756417 
L 166.890336 203.64503 
L 167.632918 203.793547 
L 169.907078 203.719288 
L 174.455397 203.088093 
L 175.337214 203.013835 
L 179.607065 202.531156 
L 180.581705 202.753931 
L 181.556345 202.753931 
L 183.134333 202.085606 
L 184.433853 202.122735 
L 185.686961 202.271252 
L 186.475955 201.380153 
L 189.028583 200.786086 
L 191.674034 200.674699 
L 192.973554 200.563312 
L 193.901782 200.563312 
L 195.062068 200.674699 
L 196.036708 200.63757 
L 197.196993 200.451924 
L 199.935267 199.746471 
L 201.374021 199.635083 
L 202.766364 199.597954 
L 204.205118 199.560825 
L 205.59746 199.523696 
L 207.036214 199.486567 
L 208.474968 199.412308 
L 209.8209 199.412308 
L 211.259654 199.263792 
L 212.651996 199.152404 
L 214.09075 199.115275 
L 215.483093 198.892501 
L 216.921847 198.781113 
L 218.360601 198.595467 
L 219.752943 198.261305 
L 221.191698 198.07566 
L 222.58404 197.852885 
L 224.022794 197.778626 
L 225.461548 197.518722 
L 226.761068 197.407335 
L 228.199822 197.333077 
L 229.592165 196.33059 
L 231.030919 196.033557 
L 232.423261 195.588007 
L 233.862015 195.513749 
L 235.300769 194.882554 
L 236.693112 194.659779 
L 238.131866 194.62265 
L 239.524209 194.1771 
L 240.962963 193.991455 
L 242.401717 193.991455 
L 243.701236 193.954325 
L 245.13999 193.76868 
L 246.532333 193.620163 
L 247.971087 193.286001 
L 249.36343 193.063226 
L 250.802184 192.803322 
L 252.240938 192.729064 
L 253.63328 192.432031 
L 255.072034 192.097869 
L 256.464377 191.837965 
L 257.903131 191.689448 
L 259.341885 191.466673 
L 260.641405 191.466673 
L 262.080159 191.281028 
L 263.472501 191.206769 
L 264.911256 191.763706 
L 266.303598 191.652319 
L 267.742352 191.503802 
L 269.181106 191.466673 
L 270.573449 191.429544 
L 272.012203 191.243898 
L 273.404545 191.243898 
L 274.843299 191.16964 
L 276.282054 190.983995 
L 277.627985 190.946865 
L 279.066739 190.872607 
L 280.459081 190.501316 
L 281.897835 190.501316 
L 283.290178 190.31567 
L 284.728932 189.90725 
L 286.167686 189.795862 
L 287.560029 189.721604 
L 288.998783 189.535958 
L 290.391125 189.424571 
L 291.829879 188.719117 
L 293.268633 188.644859 
L 294.568153 188.60773 
L 296.006907 188.347826 
L 297.39925 188.273568 
L 298.838004 188.236438 
L 300.230346 188.310697 
L 301.6691 188.904763 
L 303.107854 188.199309 
L 304.500197 187.939405 
L 305.938951 186.305723 
L 307.331294 186.157207 
L 308.770048 186.00869 
L 310.208802 185.971561 
L 311.508322 185.823045 
L 312.947076 185.674528 
L 314.339418 185.377495 
L 315.778172 185.228978 
L 317.170515 185.006204 
L 318.609269 184.894816 
L 320.048023 184.783429 
L 321.440366 184.783429 
L 322.87912 184.7463 
L 324.271462 184.672041 
L 325.710216 184.634912 
L 327.14897 184.597783 
L 328.44849 184.597783 
L 329.887244 184.560654 
L 331.279587 184.486396 
L 332.718341 184.412137 
L 334.110683 184.30075 
L 335.549437 184.077975 
L 336.988191 183.929459 
L 338.380534 183.8552 
L 339.819288 183.743813 
L 341.211631 183.743813 
L 342.650385 183.743813 
L 344.089139 183.669555 
L 345.43507 183.595296 
L 346.873824 183.483909 
L 348.266167 183.149747 
L 349.704921 183.075488 
L 351.097263 183.075488 
L 352.536017 183.00123 
L 353.974771 182.964101 
L 355.367114 182.815585 
L 356.805868 182.741326 
L 358.19821 182.59281 
L 359.636965 182.555681 
L 361.075719 182.14726 
L 362.375238 182.035873 
L 363.813992 181.553194 
L 365.206335 181.404677 
L 366.645089 181.404677 
L 368.037432 181.144773 
L 369.476186 180.959128 
L 370.91494 180.996257 
L 372.307282 180.773482 
L 373.746036 180.476449 
L 375.138379 180.290803 
L 376.577133 180.105158 
L 378.015887 180.105158 
L 379.315407 180.068028 
L 380.754161 180.105158 
L 382.146503 180.179416 
L 383.585257 180.105158 
L 384.9776 180.142287 
L 386.416354 180.142287 
L 387.855108 180.105158 
L 389.247451 180.105158 
L 390.686205 179.882383 
L 392.078547 179.770995 
L 393.517301 179.659608 
L 394.956055 179.696737 
L 396.255575 179.1398 
L 397.694329 178.805638 
L 399.086672 178.805638 
L 400.525426 178.69425 
L 401.917768 178.471476 
L 403.356523 178.025926 
L 404.795277 177.914539 
L 406.187619 177.877409 
L 407.626373 177.766022 
L 409.018716 177.543247 
L 410.45747 177.506118 
L 411.896224 177.394731 
L 413.242155 175.798178 
L 414.680909 175.723919 
L 416.073252 175.612532 
L 417.512006 175.501145 
L 418.904348 174.981337 
L 420.343102 174.164496 
L 421.781856 174.164496 
L 423.174199 173.941721 
L 424.612953 173.941721 
L 426.005296 173.718946 
L 427.44405 172.976363 
L 428.882804 170.860003 
L 430.182323 169.894645 
L 431.621078 169.857516 
L 433.01342 169.560483 
L 434.452174 169.560483 
L 435.844517 169.523354 
L 437.283271 169.449095 
L 438.722025 169.560483 
L 440.114367 170.154549 
L 441.553121 170.191678 
L 442.945464 170.191678 
L 444.384218 170.265936 
L 445.822972 170.600099 
L 447.122492 170.600099 
L 448.561246 170.637228 
L 449.953589 170.748615 
L 449.953589 109.559799 
L 449.953589 109.559799 
L 448.561246 109.07712 
L 447.122492 108.891474 
L 445.822972 108.817216 
L 444.384218 107.7776 
L 442.945464 107.443438 
L 441.553121 107.406309 
L 440.114367 107.33205 
L 438.722025 106.403822 
L 437.283271 105.809756 
L 435.844517 105.735498 
L 434.452174 105.549852 
L 433.01342 105.475594 
L 431.621078 105.438464 
L 430.182323 105.21569 
L 428.882804 105.252819 
L 427.44405 105.21569 
L 426.005296 105.735498 
L 424.612953 105.809756 
L 423.174199 105.921143 
L 421.781856 105.958272 
L 420.343102 106.181047 
L 418.904348 106.06966 
L 417.512006 106.032531 
L 416.073252 106.181047 
L 414.680909 106.255305 
L 413.242155 106.218176 
L 411.896224 106.47808 
L 410.45747 106.737984 
L 409.018716 106.737984 
L 407.626373 106.849372 
L 406.187619 106.997888 
L 404.795277 107.072146 
L 403.356523 107.072146 
L 401.917768 107.33205 
L 400.525426 107.554825 
L 399.086672 107.666213 
L 397.694329 107.666213 
L 396.255575 107.703342 
L 394.956055 107.851858 
L 393.517301 107.963246 
L 392.078547 108.037504 
L 390.686205 108.037504 
L 389.247451 108.074633 
L 387.855108 107.963246 
L 386.416354 108.000375 
L 384.9776 108.000375 
L 383.585257 108.186021 
L 382.146503 108.148891 
L 380.754161 108.148891 
L 379.315407 108.186021 
L 378.015887 108.260279 
L 376.577133 108.260279 
L 375.138379 108.371666 
L 373.746036 108.334537 
L 372.307282 108.445925 
L 370.91494 108.483054 
L 369.476186 108.520183 
L 368.037432 108.557312 
L 366.645089 108.594441 
L 365.206335 108.557312 
L 363.813992 108.668699 
L 362.375238 108.854345 
L 361.075719 109.002862 
L 359.636965 109.039991 
L 358.19821 109.039991 
L 356.805868 109.114249 
L 355.367114 109.151378 
L 353.974771 109.225636 
L 352.536017 109.225636 
L 351.097263 109.262765 
L 349.704921 109.299895 
L 348.266167 109.188507 
L 346.873824 109.151378 
L 345.43507 109.188507 
L 344.089139 109.114249 
L 342.650385 109.114249 
L 341.211631 109.114249 
L 339.819288 109.114249 
L 338.380534 109.114249 
L 336.988191 109.151378 
L 335.549437 109.114249 
L 334.110683 109.151378 
L 332.718341 109.151378 
L 331.279587 109.039991 
L 329.887244 109.039991 
L 328.44849 109.07712 
L 327.14897 109.07712 
L 325.710216 109.151378 
L 324.271462 109.151378 
L 322.87912 109.225636 
L 321.440366 109.225636 
L 320.048023 109.225636 
L 318.609269 109.262765 
L 317.170515 109.262765 
L 315.778172 109.262765 
L 314.339418 109.299895 
L 312.947076 109.337024 
L 311.508322 109.634057 
L 310.208802 109.745444 
L 308.770048 109.671186 
L 307.331294 109.745444 
L 305.938951 109.856832 
L 304.500197 109.893961 
L 303.107854 110.413769 
L 301.6691 110.710802 
L 300.230346 112.752904 
L 298.838004 113.903908 
L 297.39925 114.312328 
L 296.006907 114.312328 
L 294.568153 114.609361 
L 293.268633 114.535103 
L 291.829879 113.79252 
L 290.391125 113.978166 
L 288.998783 114.386586 
L 287.560029 114.386586 
L 286.167686 114.275199 
L 284.728932 114.423715 
L 283.290178 114.460845 
L 281.897835 114.460845 
L 280.459081 114.497974 
L 279.066739 114.572232 
L 277.627985 114.572232 
L 276.282054 114.609361 
L 274.843299 114.609361 
L 273.404545 114.720749 
L 272.012203 114.757878 
L 270.573449 114.795007 
L 269.181106 114.795007 
L 267.742352 114.757878 
L 266.303598 114.795007 
L 264.911256 114.757878 
L 263.472501 115.351944 
L 262.080159 115.314815 
L 260.641405 115.389073 
L 259.341885 115.463331 
L 257.903131 115.574719 
L 256.464377 115.53759 
L 255.072034 115.797493 
L 253.63328 115.908881 
L 252.240938 116.057397 
L 250.802184 116.243043 
L 249.36343 116.280172 
L 247.971087 116.205914 
L 246.532333 116.280172 
L 245.13999 116.317301 
L 243.701236 116.317301 
L 242.401717 116.317301 
L 240.962963 116.317301 
L 239.524209 116.465818 
L 238.131866 116.540076 
L 236.693112 116.762851 
L 235.300769 116.79998 
L 233.862015 117.022755 
L 232.423261 117.097013 
L 231.030919 117.319788 
L 229.592165 117.431175 
L 228.199822 117.579692 
L 226.761068 117.616821 
L 225.461548 117.65395 
L 224.022794 117.802467 
L 222.58404 117.802467 
L 221.191698 117.988113 
L 219.752943 118.248016 
L 218.360601 118.396533 
L 216.921847 118.54505 
L 215.483093 118.730695 
L 214.09075 118.804954 
L 212.651996 119.101987 
L 211.259654 119.101987 
L 209.8209 119.139116 
L 208.474968 119.139116 
L 207.036214 119.139116 
L 205.59746 119.139116 
L 204.205118 119.139116 
L 202.766364 119.176245 
L 201.374021 119.324761 
L 199.935267 119.39902 
L 197.196993 119.844569 
L 196.036708 120.401506 
L 195.062068 120.66141 
L 193.901782 120.141602 
L 192.973554 120.438636 
L 191.674034 120.550023 
L 189.028583 120.698539 
L 186.475955 120.698539 
L 185.686961 120.847056 
L 184.433853 121.329735 
L 183.134333 121.292606 
L 181.556345 122.146576 
L 180.581705 122.146576 
L 179.607065 122.554996 
L 175.337214 122.8149 
L 174.455397 122.889159 
L 169.907078 123.928774 
L 167.632918 124.857003 
L 166.890336 124.894132 
L 165.962107 124.894132 
L 165.358759 124.894132 
L 164.848233 124.931261 
L 161.785079 124.522841 
L 158.489869 125.005519 
L 156.819057 125.191165 
L 155.194658 125.376811 
L 152.270738 125.488198 
L 151.528156 125.562456 
L 150.321459 125.748102 
L 148.372179 126.045135 
L 145.355437 125.896619 
L 144.241563 126.193652 
L 141.642523 126.156523 
L 140.25018 126.082264 
L 138.625781 126.416426 
L 136.769324 126.342168 
L 135.423393 126.230781 
L 134.402341 126.490685 
L 133.70617 126.527814 
L 132.685119 125.82236 
L 131.710479 125.859489 
L 131.060719 126.008006 
L 130.875073 126.008006 
L 130.178902 125.970877 
L 129.250674 126.453556 
L 127.951154 125.933748 
L 127.48704 125.933748 
L 126.976514 125.970877 
L 126.233931 126.008006 
L 125.53776 125.82236 
L 124.888 126.230781 
L 123.959772 126.342168 
L 123.634892 126.119393 
L 122.753075 126.26791 
L 121.639201 126.230781 
L 120.803795 126.71346 
L 120.339681 126.639201 
L 119.550687 126.639201 
L 119.040161 124.96839 
L 118.251167 125.339682 
L 117.601407 124.411453 
L 116.812413 124.188678 
L 113.749259 124.448582 
L 113.517202 124.300066 
L 111.660745 124.55997 
L 107.622952 126.230781 
L 105.441615 127.047622 
L 96.994737 129.015466 
L 83.39619 131.83728 
L 64.924445 135.438807 
L 49.005328 141.193823 
L 41.254621 144.832478 
L 33.411091 145.129511 
z
" clip-path="url(#p0480de024f)" style="fill: #fdc92c"/>
   </g>
   <g id="PolyCollection_3">
    <path d="M 33.411091 115.871752 
L 33.411091 145.129511 
L 41.254621 144.832478 
L 49.005328 141.193823 
L 64.924445 135.438807 
L 83.39619 131.83728 
L 96.994737 129.015466 
L 105.441615 127.047622 
L 107.622952 126.230781 
L 111.660745 124.55997 
L 113.517202 124.300066 
L 113.749259 124.448582 
L 116.812413 124.188678 
L 117.601407 124.411453 
L 118.251167 125.339682 
L 119.040161 124.96839 
L 119.550687 126.639201 
L 120.339681 126.639201 
L 120.803795 126.71346 
L 121.639201 126.230781 
L 122.753075 126.26791 
L 123.634892 126.119393 
L 123.959772 126.342168 
L 124.888 126.230781 
L 125.53776 125.82236 
L 126.233931 126.008006 
L 126.976514 125.970877 
L 127.48704 125.933748 
L 127.951154 125.933748 
L 129.250674 126.453556 
L 130.178902 125.970877 
L 130.875073 126.008006 
L 131.060719 126.008006 
L 131.710479 125.859489 
L 132.685119 125.82236 
L 133.70617 126.527814 
L 134.402341 126.490685 
L 135.423393 126.230781 
L 136.769324 126.342168 
L 138.625781 126.416426 
L 140.25018 126.082264 
L 141.642523 126.156523 
L 144.241563 126.193652 
L 145.355437 125.896619 
L 148.372179 126.045135 
L 150.321459 125.748102 
L 151.528156 125.562456 
L 152.270738 125.488198 
L 155.194658 125.376811 
L 156.819057 125.191165 
L 158.489869 125.005519 
L 161.785079 124.522841 
L 164.848233 124.931261 
L 165.358759 124.894132 
L 165.962107 124.894132 
L 166.890336 124.894132 
L 167.632918 124.857003 
L 169.907078 123.928774 
L 174.455397 122.889159 
L 175.337214 122.8149 
L 179.607065 122.554996 
L 180.581705 122.146576 
L 181.556345 122.146576 
L 183.134333 121.292606 
L 184.433853 121.329735 
L 185.686961 120.847056 
L 186.475955 120.698539 
L 189.028583 120.698539 
L 191.674034 120.550023 
L 192.973554 120.438636 
L 193.901782 120.141602 
L 195.062068 120.66141 
L 196.036708 120.401506 
L 197.196993 119.844569 
L 199.935267 119.39902 
L 201.374021 119.324761 
L 202.766364 119.176245 
L 204.205118 119.139116 
L 205.59746 119.139116 
L 207.036214 119.139116 
L 208.474968 119.139116 
L 209.8209 119.139116 
L 211.259654 119.101987 
L 212.651996 119.101987 
L 214.09075 118.804954 
L 215.483093 118.730695 
L 216.921847 118.54505 
L 218.360601 118.396533 
L 219.752943 118.248016 
L 221.191698 117.988113 
L 222.58404 117.802467 
L 224.022794 117.802467 
L 225.461548 117.65395 
L 226.761068 117.616821 
L 228.199822 117.579692 
L 229.592165 117.431175 
L 231.030919 117.319788 
L 232.423261 117.097013 
L 233.862015 117.022755 
L 235.300769 116.79998 
L 236.693112 116.762851 
L 238.131866 116.540076 
L 239.524209 116.465818 
L 240.962963 116.317301 
L 242.401717 116.317301 
L 243.701236 116.317301 
L 245.13999 116.317301 
L 246.532333 116.280172 
L 247.971087 116.205914 
L 249.36343 116.280172 
L 250.802184 116.243043 
L 252.240938 116.057397 
L 253.63328 115.908881 
L 255.072034 115.797493 
L 256.464377 115.53759 
L 257.903131 115.574719 
L 259.341885 115.463331 
L 260.641405 115.389073 
L 262.080159 115.314815 
L 263.472501 115.351944 
L 264.911256 114.757878 
L 266.303598 114.795007 
L 267.742352 114.757878 
L 269.181106 114.795007 
L 270.573449 114.795007 
L 272.012203 114.757878 
L 273.404545 114.720749 
L 274.843299 114.609361 
L 276.282054 114.609361 
L 277.627985 114.572232 
L 279.066739 114.572232 
L 280.459081 114.497974 
L 281.897835 114.460845 
L 283.290178 114.460845 
L 284.728932 114.423715 
L 286.167686 114.275199 
L 287.560029 114.386586 
L 288.998783 114.386586 
L 290.391125 113.978166 
L 291.829879 113.79252 
L 293.268633 114.535103 
L 294.568153 114.609361 
L 296.006907 114.312328 
L 297.39925 114.312328 
L 298.838004 113.903908 
L 300.230346 112.752904 
L 301.6691 110.710802 
L 303.107854 110.413769 
L 304.500197 109.893961 
L 305.938951 109.856832 
L 307.331294 109.745444 
L 308.770048 109.671186 
L 310.208802 109.745444 
L 311.508322 109.634057 
L 312.947076 109.337024 
L 314.339418 109.299895 
L 315.778172 109.262765 
L 317.170515 109.262765 
L 318.609269 109.262765 
L 320.048023 109.225636 
L 321.440366 109.225636 
L 322.87912 109.225636 
L 324.271462 109.151378 
L 325.710216 109.151378 
L 327.14897 109.07712 
L 328.44849 109.07712 
L 329.887244 109.039991 
L 331.279587 109.039991 
L 332.718341 109.151378 
L 334.110683 109.151378 
L 335.549437 109.114249 
L 336.988191 109.151378 
L 338.380534 109.114249 
L 339.819288 109.114249 
L 341.211631 109.114249 
L 342.650385 109.114249 
L 344.089139 109.114249 
L 345.43507 109.188507 
L 346.873824 109.151378 
L 348.266167 109.188507 
L 349.704921 109.299895 
L 351.097263 109.262765 
L 352.536017 109.225636 
L 353.974771 109.225636 
L 355.367114 109.151378 
L 356.805868 109.114249 
L 358.19821 109.039991 
L 359.636965 109.039991 
L 361.075719 109.002862 
L 362.375238 108.854345 
L 363.813992 108.668699 
L 365.206335 108.557312 
L 366.645089 108.594441 
L 368.037432 108.557312 
L 369.476186 108.520183 
L 370.91494 108.483054 
L 372.307282 108.445925 
L 373.746036 108.334537 
L 375.138379 108.371666 
L 376.577133 108.260279 
L 378.015887 108.260279 
L 379.315407 108.186021 
L 380.754161 108.148891 
L 382.146503 108.148891 
L 383.585257 108.186021 
L 384.9776 108.000375 
L 386.416354 108.000375 
L 387.855108 107.963246 
L 389.247451 108.074633 
L 390.686205 108.037504 
L 392.078547 108.037504 
L 393.517301 107.963246 
L 394.956055 107.851858 
L 396.255575 107.703342 
L 397.694329 107.666213 
L 399.086672 107.666213 
L 400.525426 107.554825 
L 401.917768 107.33205 
L 403.356523 107.072146 
L 404.795277 107.072146 
L 406.187619 106.997888 
L 407.626373 106.849372 
L 409.018716 106.737984 
L 410.45747 106.737984 
L 411.896224 106.47808 
L 413.242155 106.218176 
L 414.680909 106.255305 
L 416.073252 106.181047 
L 417.512006 106.032531 
L 418.904348 106.06966 
L 420.343102 106.181047 
L 421.781856 105.958272 
L 423.174199 105.921143 
L 424.612953 105.809756 
L 426.005296 105.735498 
L 427.44405 105.21569 
L 428.882804 105.252819 
L 430.182323 105.21569 
L 431.621078 105.438464 
L 433.01342 105.475594 
L 434.452174 105.549852 
L 435.844517 105.735498 
L 437.283271 105.809756 
L 438.722025 106.403822 
L 440.114367 107.33205 
L 441.553121 107.406309 
L 442.945464 107.443438 
L 444.384218 107.7776 
L 445.822972 108.817216 
L 447.122492 108.891474 
L 448.561246 109.07712 
L 449.953589 109.559799 
L 449.953589 94.114078 
L 449.953589 94.114078 
L 448.561246 94.076949 
L 447.122492 93.928432 
L 445.822972 93.891303 
L 444.384218 93.854174 
L 442.945464 93.854174 
L 441.553121 93.854174 
L 440.114367 93.854174 
L 438.722025 92.963075 
L 437.283271 92.963075 
L 435.844517 92.963075 
L 434.452174 92.963075 
L 433.01342 92.963075 
L 431.621078 92.925946 
L 430.182323 92.925946 
L 428.882804 92.925946 
L 427.44405 92.925946 
L 426.005296 92.925946 
L 424.612953 92.925946 
L 423.174199 92.925946 
L 421.781856 92.888816 
L 420.343102 93.222979 
L 418.904348 93.445753 
L 417.512006 93.445753 
L 416.073252 93.482883 
L 414.680909 93.482883 
L 413.242155 93.482883 
L 411.896224 93.520012 
L 410.45747 93.520012 
L 409.018716 93.520012 
L 407.626373 93.557141 
L 406.187619 93.557141 
L 404.795277 93.557141 
L 403.356523 93.557141 
L 401.917768 93.631399 
L 400.525426 93.631399 
L 399.086672 93.631399 
L 397.694329 93.631399 
L 396.255575 93.631399 
L 394.956055 93.668528 
L 393.517301 93.668528 
L 392.078547 93.742787 
L 390.686205 93.742787 
L 389.247451 93.779916 
L 387.855108 93.779916 
L 386.416354 93.779916 
L 384.9776 93.779916 
L 383.585257 93.854174 
L 382.146503 93.928432 
L 380.754161 93.928432 
L 379.315407 93.928432 
L 378.015887 93.928432 
L 376.577133 93.928432 
L 375.138379 93.965561 
L 373.746036 93.928432 
L 372.307282 94.00269 
L 370.91494 94.00269 
L 369.476186 94.00269 
L 368.037432 94.03982 
L 366.645089 94.03982 
L 365.206335 94.03982 
L 363.813992 94.076949 
L 362.375238 94.114078 
L 361.075719 94.151207 
L 359.636965 94.151207 
L 358.19821 94.114078 
L 356.805868 94.114078 
L 355.367114 94.114078 
L 353.974771 94.076949 
L 352.536017 94.076949 
L 351.097263 94.114078 
L 349.704921 94.114078 
L 348.266167 94.03982 
L 346.873824 94.00269 
L 345.43507 94.00269 
L 344.089139 94.03982 
L 342.650385 94.03982 
L 341.211631 94.03982 
L 339.819288 94.03982 
L 338.380534 94.03982 
L 336.988191 94.03982 
L 335.549437 94.03982 
L 334.110683 94.03982 
L 332.718341 94.03982 
L 331.279587 93.965561 
L 329.887244 93.965561 
L 328.44849 93.965561 
L 327.14897 93.965561 
L 325.710216 93.928432 
L 324.271462 93.928432 
L 322.87912 94.00269 
L 321.440366 94.00269 
L 320.048023 94.00269 
L 318.609269 94.03982 
L 317.170515 94.03982 
L 315.778172 94.03982 
L 314.339418 94.076949 
L 312.947076 94.114078 
L 311.508322 94.188336 
L 310.208802 94.188336 
L 308.770048 94.188336 
L 307.331294 94.336853 
L 305.938951 94.336853 
L 304.500197 94.336853 
L 303.107854 94.225465 
L 301.6691 94.262594 
L 300.230346 94.44824 
L 298.838004 95.339339 
L 297.39925 95.487856 
L 296.006907 95.524985 
L 294.568153 95.562114 
L 293.268633 95.562114 
L 291.829879 95.562114 
L 290.391125 95.562114 
L 288.998783 95.599243 
L 287.560029 95.599243 
L 286.167686 95.636372 
L 284.728932 95.673502 
L 283.290178 95.710631 
L 281.897835 95.710631 
L 280.459081 95.710631 
L 279.066739 95.710631 
L 277.627985 95.710631 
L 276.282054 95.74776 
L 274.843299 95.74776 
L 273.404545 95.784889 
L 272.012203 95.822018 
L 270.573449 95.822018 
L 269.181106 95.822018 
L 267.742352 95.822018 
L 266.303598 95.822018 
L 264.911256 95.822018 
L 263.472501 95.822018 
L 262.080159 95.822018 
L 260.641405 95.896276 
L 259.341885 95.896276 
L 257.903131 95.896276 
L 256.464377 95.933406 
L 255.072034 95.933406 
L 253.63328 95.970535 
L 252.240938 96.119051 
L 250.802184 97.010151 
L 249.36343 97.010151 
L 247.971087 97.010151 
L 246.532333 97.084409 
L 245.13999 97.084409 
L 243.701236 97.084409 
L 242.401717 97.084409 
L 240.962963 97.084409 
L 239.524209 97.084409 
L 238.131866 97.158667 
L 236.693112 97.084409 
L 235.300769 97.121538 
L 233.862015 97.195796 
L 232.423261 97.270054 
L 231.030919 97.4557 
L 229.592165 97.492829 
L 228.199822 97.492829 
L 226.761068 97.492829 
L 225.461548 97.492829 
L 224.022794 97.567088 
L 222.58404 97.567088 
L 221.191698 97.641346 
L 219.752943 97.641346 
L 218.360601 97.529958 
L 216.921847 97.604217 
L 215.483093 97.604217 
L 214.09075 97.604217 
L 212.651996 97.641346 
L 211.259654 97.641346 
L 209.8209 97.641346 
L 208.474968 97.678475 
L 207.036214 97.678475 
L 205.59746 97.715604 
L 204.205118 97.678475 
L 202.766364 97.678475 
L 201.374021 97.752733 
L 199.935267 97.789862 
L 197.196993 98.049766 
L 196.036708 98.606703 
L 195.062068 98.866607 
L 193.901782 98.272541 
L 192.973554 98.75522 
L 191.674034 98.792349 
L 189.028583 99.646319 
L 186.475955 99.646319 
L 185.686961 99.60919 
L 184.433853 99.757707 
L 183.134333 99.757707 
L 181.556345 99.831965 
L 180.581705 99.831965 
L 179.607065 99.869094 
L 175.337214 100.017611 
L 174.455397 100.017611 
L 169.907078 100.982968 
L 167.632918 101.094356 
L 166.890336 101.131485 
L 165.962107 101.242872 
L 165.358759 101.242872 
L 164.848233 101.242872 
L 161.785079 101.242872 
L 158.489869 101.465647 
L 156.819057 101.577034 
L 155.194658 101.614163 
L 152.270738 101.688422 
L 151.528156 101.799809 
L 150.321459 101.985455 
L 148.372179 102.20823 
L 145.355437 102.356746 
L 144.241563 102.950812 
L 141.642523 102.987941 
L 140.25018 103.247845 
L 138.625781 103.544879 
L 136.769324 103.619137 
L 135.423393 103.619137 
L 134.402341 103.619137 
L 133.70617 103.619137 
L 132.685119 103.767653 
L 131.710479 103.91617 
L 131.060719 104.027557 
L 130.875073 104.027557 
L 130.178902 103.990428 
L 129.250674 104.510236 
L 127.951154 104.064686 
L 127.48704 104.064686 
L 126.976514 104.138945 
L 126.233931 104.138945 
L 125.53776 104.138945 
L 124.888 104.695882 
L 123.959772 104.695882 
L 123.634892 104.250332 
L 122.753075 104.807269 
L 121.639201 105.846885 
L 120.803795 106.700855 
L 120.339681 106.737984 
L 119.550687 106.737984 
L 119.040161 106.775113 
L 118.251167 107.33205 
L 117.601407 106.812243 
L 116.812413 106.812243 
L 113.749259 107.072146 
L 113.517202 107.109276 
L 111.660745 107.146405 
L 107.622952 104.695882 
L 105.441615 107.294921 
L 96.994737 109.07712 
L 83.39619 110.896447 
L 64.924445 112.158838 
L 49.005328 114.052424 
L 41.254621 116.280172 
L 33.411091 115.871752 
z
" clip-path="url(#p0480de024f)" style="fill: #aeaeae"/>
   </g>
   <g id="PolyCollection_4">
    <path d="M 33.411091 93.334366 
L 33.411091 115.871752 
L 41.254621 116.280172 
L 49.005328 114.052424 
L 64.924445 112.158838 
L 83.39619 110.896447 
L 96.994737 109.07712 
L 105.441615 107.294921 
L 107.622952 104.695882 
L 111.660745 107.146405 
L 113.517202 107.109276 
L 113.749259 107.072146 
L 116.812413 106.812243 
L 117.601407 106.812243 
L 118.251167 107.33205 
L 119.040161 106.775113 
L 119.550687 106.737984 
L 120.339681 106.737984 
L 120.803795 106.700855 
L 121.639201 105.846885 
L 122.753075 104.807269 
L 123.634892 104.250332 
L 123.959772 104.695882 
L 124.888 104.695882 
L 125.53776 104.138945 
L 126.233931 104.138945 
L 126.976514 104.138945 
L 127.48704 104.064686 
L 127.951154 104.064686 
L 129.250674 104.510236 
L 130.178902 103.990428 
L 130.875073 104.027557 
L 131.060719 104.027557 
L 131.710479 103.91617 
L 132.685119 103.767653 
L 133.70617 103.619137 
L 134.402341 103.619137 
L 135.423393 103.619137 
L 136.769324 103.619137 
L 138.625781 103.544879 
L 140.25018 103.247845 
L 141.642523 102.987941 
L 144.241563 102.950812 
L 145.355437 102.356746 
L 148.372179 102.20823 
L 150.321459 101.985455 
L 151.528156 101.799809 
L 152.270738 101.688422 
L 155.194658 101.614163 
L 156.819057 101.577034 
L 158.489869 101.465647 
L 161.785079 101.242872 
L 164.848233 101.242872 
L 165.358759 101.242872 
L 165.962107 101.242872 
L 166.890336 101.131485 
L 167.632918 101.094356 
L 169.907078 100.982968 
L 174.455397 100.017611 
L 175.337214 100.017611 
L 179.607065 99.869094 
L 180.581705 99.831965 
L 181.556345 99.831965 
L 183.134333 99.757707 
L 184.433853 99.757707 
L 185.686961 99.60919 
L 186.475955 99.646319 
L 189.028583 99.646319 
L 191.674034 98.792349 
L 192.973554 98.75522 
L 193.901782 98.272541 
L 195.062068 98.866607 
L 196.036708 98.606703 
L 197.196993 98.049766 
L 199.935267 97.789862 
L 201.374021 97.752733 
L 202.766364 97.678475 
L 204.205118 97.678475 
L 205.59746 97.715604 
L 207.036214 97.678475 
L 208.474968 97.678475 
L 209.8209 97.641346 
L 211.259654 97.641346 
L 212.651996 97.641346 
L 214.09075 97.604217 
L 215.483093 97.604217 
L 216.921847 97.604217 
L 218.360601 97.529958 
L 219.752943 97.641346 
L 221.191698 97.641346 
L 222.58404 97.567088 
L 224.022794 97.567088 
L 225.461548 97.492829 
L 226.761068 97.492829 
L 228.199822 97.492829 
L 229.592165 97.492829 
L 231.030919 97.4557 
L 232.423261 97.270054 
L 233.862015 97.195796 
L 235.300769 97.121538 
L 236.693112 97.084409 
L 238.131866 97.158667 
L 239.524209 97.084409 
L 240.962963 97.084409 
L 242.401717 97.084409 
L 243.701236 97.084409 
L 245.13999 97.084409 
L 246.532333 97.084409 
L 247.971087 97.010151 
L 249.36343 97.010151 
L 250.802184 97.010151 
L 252.240938 96.119051 
L 253.63328 95.970535 
L 255.072034 95.933406 
L 256.464377 95.933406 
L 257.903131 95.896276 
L 259.341885 95.896276 
L 260.641405 95.896276 
L 262.080159 95.822018 
L 263.472501 95.822018 
L 264.911256 95.822018 
L 266.303598 95.822018 
L 267.742352 95.822018 
L 269.181106 95.822018 
L 270.573449 95.822018 
L 272.012203 95.822018 
L 273.404545 95.784889 
L 274.843299 95.74776 
L 276.282054 95.74776 
L 277.627985 95.710631 
L 279.066739 95.710631 
L 280.459081 95.710631 
L 281.897835 95.710631 
L 283.290178 95.710631 
L 284.728932 95.673502 
L 286.167686 95.636372 
L 287.560029 95.599243 
L 288.998783 95.599243 
L 290.391125 95.562114 
L 291.829879 95.562114 
L 293.268633 95.562114 
L 294.568153 95.562114 
L 296.006907 95.524985 
L 297.39925 95.487856 
L 298.838004 95.339339 
L 300.230346 94.44824 
L 301.6691 94.262594 
L 303.107854 94.225465 
L 304.500197 94.336853 
L 305.938951 94.336853 
L 307.331294 94.336853 
L 308.770048 94.188336 
L 310.208802 94.188336 
L 311.508322 94.188336 
L 312.947076 94.114078 
L 314.339418 94.076949 
L 315.778172 94.03982 
L 317.170515 94.03982 
L 318.609269 94.03982 
L 320.048023 94.00269 
L 321.440366 94.00269 
L 322.87912 94.00269 
L 324.271462 93.928432 
L 325.710216 93.928432 
L 327.14897 93.965561 
L 328.44849 93.965561 
L 329.887244 93.965561 
L 331.279587 93.965561 
L 332.718341 94.03982 
L 334.110683 94.03982 
L 335.549437 94.03982 
L 336.988191 94.03982 
L 338.380534 94.03982 
L 339.819288 94.03982 
L 341.211631 94.03982 
L 342.650385 94.03982 
L 344.089139 94.03982 
L 345.43507 94.00269 
L 346.873824 94.00269 
L 348.266167 94.03982 
L 349.704921 94.114078 
L 351.097263 94.114078 
L 352.536017 94.076949 
L 353.974771 94.076949 
L 355.367114 94.114078 
L 356.805868 94.114078 
L 358.19821 94.114078 
L 359.636965 94.151207 
L 361.075719 94.151207 
L 362.375238 94.114078 
L 363.813992 94.076949 
L 365.206335 94.03982 
L 366.645089 94.03982 
L 368.037432 94.03982 
L 369.476186 94.00269 
L 370.91494 94.00269 
L 372.307282 94.00269 
L 373.746036 93.928432 
L 375.138379 93.965561 
L 376.577133 93.928432 
L 378.015887 93.928432 
L 379.315407 93.928432 
L 380.754161 93.928432 
L 382.146503 93.928432 
L 383.585257 93.854174 
L 384.9776 93.779916 
L 386.416354 93.779916 
L 387.855108 93.779916 
L 389.247451 93.779916 
L 390.686205 93.742787 
L 392.078547 93.742787 
L 393.517301 93.668528 
L 394.956055 93.668528 
L 396.255575 93.631399 
L 397.694329 93.631399 
L 399.086672 93.631399 
L 400.525426 93.631399 
L 401.917768 93.631399 
L 403.356523 93.557141 
L 404.795277 93.557141 
L 406.187619 93.557141 
L 407.626373 93.557141 
L 409.018716 93.520012 
L 410.45747 93.520012 
L 411.896224 93.520012 
L 413.242155 93.482883 
L 414.680909 93.482883 
L 416.073252 93.482883 
L 417.512006 93.445753 
L 418.904348 93.445753 
L 420.343102 93.222979 
L 421.781856 92.888816 
L 423.174199 92.925946 
L 424.612953 92.925946 
L 426.005296 92.925946 
L 427.44405 92.925946 
L 428.882804 92.925946 
L 430.182323 92.925946 
L 431.621078 92.925946 
L 433.01342 92.963075 
L 434.452174 92.963075 
L 435.844517 92.963075 
L 437.283271 92.963075 
L 438.722025 92.963075 
L 440.114367 93.854174 
L 441.553121 93.854174 
L 442.945464 93.854174 
L 444.384218 93.854174 
L 445.822972 93.891303 
L 447.122492 93.928432 
L 448.561246 94.076949 
L 449.953589 94.114078 
L 449.953589 86.354088 
L 449.953589 86.354088 
L 448.561246 86.316959 
L 447.122492 84.720406 
L 445.822972 84.720406 
L 444.384218 84.683277 
L 442.945464 84.683277 
L 441.553121 84.683277 
L 440.114367 84.683277 
L 438.722025 83.792178 
L 437.283271 83.792178 
L 435.844517 83.792178 
L 434.452174 83.792178 
L 433.01342 83.792178 
L 431.621078 83.792178 
L 430.182323 83.792178 
L 428.882804 83.792178 
L 427.44405 83.792178 
L 426.005296 83.792178 
L 424.612953 83.792178 
L 423.174199 83.829307 
L 421.781856 83.829307 
L 420.343102 83.829307 
L 418.904348 83.866436 
L 417.512006 83.866436 
L 416.073252 83.866436 
L 414.680909 83.866436 
L 413.242155 83.866436 
L 411.896224 83.866436 
L 410.45747 83.866436 
L 409.018716 83.866436 
L 407.626373 83.866436 
L 406.187619 83.866436 
L 404.795277 83.866436 
L 403.356523 83.866436 
L 401.917768 83.866436 
L 400.525426 83.866436 
L 399.086672 83.866436 
L 397.694329 83.866436 
L 396.255575 83.866436 
L 394.956055 84.052082 
L 393.517301 84.089211 
L 392.078547 84.12634 
L 390.686205 84.12634 
L 389.247451 84.12634 
L 387.855108 84.12634 
L 386.416354 84.12634 
L 384.9776 84.12634 
L 383.585257 84.12634 
L 382.146503 84.12634 
L 380.754161 84.12634 
L 379.315407 84.163469 
L 378.015887 84.12634 
L 376.577133 84.12634 
L 375.138379 84.163469 
L 373.746036 83.903565 
L 372.307282 83.903565 
L 370.91494 83.569403 
L 369.476186 83.569403 
L 368.037432 83.569403 
L 366.645089 83.569403 
L 365.206335 83.569403 
L 363.813992 83.569403 
L 362.375238 83.606532 
L 361.075719 83.606532 
L 359.636965 83.606532 
L 358.19821 83.569403 
L 356.805868 83.569403 
L 355.367114 83.569403 
L 353.974771 83.606532 
L 352.536017 83.606532 
L 351.097263 83.606532 
L 349.704921 83.606532 
L 348.266167 83.532274 
L 346.873824 83.495145 
L 345.43507 83.495145 
L 344.089139 83.495145 
L 342.650385 83.495145 
L 341.211631 83.495145 
L 339.819288 83.495145 
L 338.380534 83.495145 
L 336.988191 83.495145 
L 335.549437 83.495145 
L 334.110683 83.495145 
L 332.718341 83.495145 
L 331.279587 83.420887 
L 329.887244 83.420887 
L 328.44849 83.420887 
L 327.14897 83.420887 
L 325.710216 83.420887 
L 324.271462 83.420887 
L 322.87912 83.420887 
L 321.440366 83.420887 
L 320.048023 83.420887 
L 318.609269 83.383757 
L 317.170515 83.383757 
L 315.778172 83.383757 
L 314.339418 83.383757 
L 312.947076 83.383757 
L 311.508322 83.383757 
L 310.208802 83.383757 
L 308.770048 83.383757 
L 307.331294 83.383757 
L 305.938951 83.383757 
L 304.500197 83.383757 
L 303.107854 83.383757 
L 301.6691 83.383757 
L 300.230346 83.383757 
L 298.838004 83.383757 
L 297.39925 83.383757 
L 296.006907 83.383757 
L 294.568153 83.383757 
L 293.268633 83.383757 
L 291.829879 83.383757 
L 290.391125 83.383757 
L 288.998783 83.383757 
L 287.560029 83.383757 
L 286.167686 83.383757 
L 284.728932 83.383757 
L 283.290178 83.383757 
L 281.897835 83.383757 
L 280.459081 83.383757 
L 279.066739 83.383757 
L 277.627985 83.71792 
L 276.282054 83.755049 
L 274.843299 83.755049 
L 273.404545 83.755049 
L 272.012203 83.903565 
L 270.573449 83.903565 
L 269.181106 83.903565 
L 267.742352 83.903565 
L 266.303598 83.903565 
L 264.911256 83.903565 
L 263.472501 83.903565 
L 262.080159 83.903565 
L 260.641405 83.903565 
L 259.341885 83.903565 
L 257.903131 83.903565 
L 256.464377 83.940695 
L 255.072034 83.940695 
L 253.63328 83.940695 
L 252.240938 83.940695 
L 250.802184 83.680791 
L 249.36343 83.829307 
L 247.971087 83.792178 
L 246.532333 83.792178 
L 245.13999 83.792178 
L 243.701236 83.792178 
L 242.401717 83.792178 
L 240.962963 83.792178 
L 239.524209 83.792178 
L 238.131866 83.829307 
L 236.693112 83.829307 
L 235.300769 83.829307 
L 233.862015 83.792178 
L 232.423261 83.792178 
L 231.030919 83.792178 
L 229.592165 83.792178 
L 228.199822 83.792178 
L 226.761068 83.792178 
L 225.461548 83.792178 
L 224.022794 83.792178 
L 222.58404 83.792178 
L 221.191698 83.792178 
L 219.752943 83.829307 
L 218.360601 83.792178 
L 216.921847 83.829307 
L 215.483093 83.792178 
L 214.09075 83.792178 
L 212.651996 83.792178 
L 211.259654 83.792178 
L 209.8209 83.792178 
L 208.474968 83.792178 
L 207.036214 83.829307 
L 205.59746 83.829307 
L 204.205118 83.792178 
L 202.766364 83.792178 
L 201.374021 83.792178 
L 199.935267 83.866436 
L 197.196993 84.12634 
L 196.036708 84.757536 
L 195.062068 84.831794 
L 193.901782 84.237728 
L 192.973554 85.685764 
L 191.674034 85.685764 
L 189.028583 87.022413 
L 186.475955 87.022413 
L 185.686961 86.985284 
L 184.433853 87.1338 
L 183.134333 87.096671 
L 181.556345 87.096671 
L 180.581705 87.096671 
L 179.607065 87.096671 
L 175.337214 87.393704 
L 174.455397 87.393704 
L 169.907078 87.57935 
L 167.632918 87.542221 
L 166.890336 87.542221 
L 165.962107 87.616479 
L 165.358759 87.616479 
L 164.848233 87.616479 
L 161.785079 88.136287 
L 158.489869 88.247674 
L 156.819057 88.247674 
L 155.194658 88.247674 
L 152.270738 88.247674 
L 151.528156 88.210545 
L 150.321459 88.210545 
L 148.372179 88.099158 
L 145.355437 88.062029 
L 144.241563 89.027386 
L 141.642523 89.138774 
L 140.25018 89.250161 
L 138.625781 89.138774 
L 136.769324 89.138774 
L 135.423393 89.101644 
L 134.402341 89.101644 
L 133.70617 89.101644 
L 132.685119 89.064515 
L 131.710479 89.064515 
L 131.060719 89.101644 
L 130.875073 89.101644 
L 130.178902 89.101644 
L 129.250674 89.510065 
L 127.951154 89.101644 
L 127.48704 89.101644 
L 126.976514 89.138774 
L 126.233931 89.064515 
L 125.53776 89.064515 
L 124.888 89.435807 
L 123.959772 89.361548 
L 123.634892 88.953128 
L 122.753075 89.472936 
L 121.639201 89.324419 
L 120.803795 89.361548 
L 120.339681 89.361548 
L 119.550687 89.361548 
L 119.040161 89.398678 
L 118.251167 89.881356 
L 117.601407 89.361548 
L 116.812413 89.361548 
L 113.749259 90.289777 
L 113.517202 90.326906 
L 111.660745 90.289777 
L 107.622952 89.435807 
L 105.441615 90.289777 
L 96.994737 91.03236 
L 83.39619 91.44078 
L 64.924445 92.109105 
L 49.005328 92.517525 
L 41.254621 93.482883 
L 33.411091 93.334366 
z
" clip-path="url(#p0480de024f)" style="fill: #d5dce5"/>
   </g>
   <g id="matplotlib.axis_1">
    <g id="xtick_1">
     <g id="line2d_1">
      <defs>
       <path id="m8032a8cd3c" d="M 0 0 
L 0 3.5 
" style="stroke: #000000; stroke-width: 0.8"/>
      </defs>
      <g>
       <use xlink:href="#m8032a8cd3c" x="71.422044" y="271.628479" style="stroke: #000000; stroke-width: 0.8"/>
      </g>
     </g>
     <g id="text_1">
      <!-- 2004 -->
      <g transform="translate(58.697044 286.226916) scale(0.1 -0.1)">
       <defs>
        <path id="DejaVuSans-32" d="M 1228 531 
L 3431 531 
L 3431 0 
L 469 0 
L 469 531 
Q 828 903 1448 1529 
Q 2069 2156 2228 2338 
Q 2531 2678 2651 2914 
Q 2772 3150 2772 3378 
Q 2772 3750 2511 3984 
Q 2250 4219 1831 4219 
Q 1534 4219 1204 4116 
Q 875 4013 500 3803 
L 500 4441 
Q 881 4594 1212 4672 
Q 1544 4750 1819 4750 
Q 2544 4750 2975 4387 
Q 3406 4025 3406 3419 
Q 3406 3131 3298 2873 
Q 3191 2616 2906 2266 
Q 2828 2175 2409 1742 
Q 1991 1309 1228 531 
z
" transform="scale(0.015625)"/>
        <path id="DejaVuSans-30" d="M 2034 4250 
Q 1547 4250 1301 3770 
Q 1056 3291 1056 2328 
Q 1056 1369 1301 889 
Q 1547 409 2034 409 
Q 2525 409 2770 889 
Q 3016 1369 3016 2328 
Q 3016 3291 2770 3770 
Q 2525 4250 2034 4250 
z
M 2034 4750 
Q 2819 4750 3233 4129 
Q 3647 3509 3647 2328 
Q 3647 1150 3233 529 
Q 2819 -91 2034 -91 
Q 1250 -91 836 529 
Q 422 1150 422 2328 
Q 422 3509 836 4129 
Q 1250 4750 2034 4750 
z
" transform="scale(0.015625)"/>
        <path id="DejaVuSans-34" d="M 2419 4116 
L 825 1625 
L 2419 1625 
L 2419 4116 
z
M 2253 4666 
L 3047 4666 
L 3047 1625 
L 3713 1625 
L 3713 1100 
L 3047 1100 
L 3047 0 
L 2419 0 
L 2419 1100 
L 313 1100 
L 313 1709 
L 2253 4666 
z
" transform="scale(0.015625)"/>
       </defs>
       <use xlink:href="#DejaVuSans-32"/>
       <use xlink:href="#DejaVuSans-30" x="63.623047"/>
       <use xlink:href="#DejaVuSans-30" x="127.246094"/>
       <use xlink:href="#DejaVuSans-34" x="190.869141"/>
      </g>
     </g>
    </g>
    <g id="xtick_2">
     <g id="line2d_2">
      <g>
       <use xlink:href="#m8032a8cd3c" x="139.229129" y="271.628479" style="stroke: #000000; stroke-width: 0.8"/>
      </g>
     </g>
     <g id="text_2">
      <!-- 2008 -->
      <g transform="translate(126.504129 286.226916) scale(0.1 -0.1)">
       <defs>
        <path id="DejaVuSans-38" d="M 2034 2216 
Q 1584 2216 1326 1975 
Q 1069 1734 1069 1313 
Q 1069 891 1326 650 
Q 1584 409 2034 409 
Q 2484 409 2743 651 
Q 3003 894 3003 1313 
Q 3003 1734 2745 1975 
Q 2488 2216 2034 2216 
z
M 1403 2484 
Q 997 2584 770 2862 
Q 544 3141 544 3541 
Q 544 4100 942 4425 
Q 1341 4750 2034 4750 
Q 2731 4750 3128 4425 
Q 3525 4100 3525 3541 
Q 3525 3141 3298 2862 
Q 3072 2584 2669 2484 
Q 3125 2378 3379 2068 
Q 3634 1759 3634 1313 
Q 3634 634 3220 271 
Q 2806 -91 2034 -91 
Q 1263 -91 848 271 
Q 434 634 434 1313 
Q 434 1759 690 2068 
Q 947 2378 1403 2484 
z
M 1172 3481 
Q 1172 3119 1398 2916 
Q 1625 2713 2034 2713 
Q 2441 2713 2670 2916 
Q 2900 3119 2900 3481 
Q 2900 3844 2670 4047 
Q 2441 4250 2034 4250 
Q 1625 4250 1398 4047 
Q 1172 3844 1172 3481 
z
" transform="scale(0.015625)"/>
       </defs>
       <use xlink:href="#DejaVuSans-32"/>
       <use xlink:href="#DejaVuSans-30" x="63.623047"/>
       <use xlink:href="#DejaVuSans-30" x="127.246094"/>
       <use xlink:href="#DejaVuSans-38" x="190.869141"/>
      </g>
     </g>
    </g>
    <g id="xtick_3">
     <g id="line2d_3">
      <g>
       <use xlink:href="#m8032a8cd3c" x="207.036214" y="271.628479" style="stroke: #000000; stroke-width: 0.8"/>
      </g>
     </g>
     <g id="text_3">
      <!-- 2012 -->
      <g transform="translate(194.311214 286.226916) scale(0.1 -0.1)">
       <defs>
        <path id="DejaVuSans-31" d="M 794 531 
L 1825 531 
L 1825 4091 
L 703 3866 
L 703 4441 
L 1819 4666 
L 2450 4666 
L 2450 531 
L 3481 531 
L 3481 0 
L 794 0 
L 794 531 
z
" transform="scale(0.015625)"/>
       </defs>
       <use xlink:href="#DejaVuSans-32"/>
       <use xlink:href="#DejaVuSans-30" x="63.623047"/>
       <use xlink:href="#DejaVuSans-31" x="127.246094"/>
       <use xlink:href="#DejaVuSans-32" x="190.869141"/>
      </g>
     </g>
    </g>
    <g id="xtick_4">
     <g id="line2d_4">
      <g>
       <use xlink:href="#m8032a8cd3c" x="274.843299" y="271.628479" style="stroke: #000000; stroke-width: 0.8"/>
      </g>
     </g>
     <g id="text_4">
      <!-- 2016 -->
      <g transform="translate(262.118299 286.226916) scale(0.1 -0.1)">
       <defs>
        <path id="DejaVuSans-36" d="M 2113 2584 
Q 1688 2584 1439 2293 
Q 1191 2003 1191 1497 
Q 1191 994 1439 701 
Q 1688 409 2113 409 
Q 2538 409 2786 701 
Q 3034 994 3034 1497 
Q 3034 2003 2786 2293 
Q 2538 2584 2113 2584 
z
M 3366 4563 
L 3366 3988 
Q 3128 4100 2886 4159 
Q 2644 4219 2406 4219 
Q 1781 4219 1451 3797 
Q 1122 3375 1075 2522 
Q 1259 2794 1537 2939 
Q 1816 3084 2150 3084 
Q 2853 3084 3261 2657 
Q 3669 2231 3669 1497 
Q 3669 778 3244 343 
Q 2819 -91 2113 -91 
Q 1303 -91 875 529 
Q 447 1150 447 2328 
Q 447 3434 972 4092 
Q 1497 4750 2381 4750 
Q 2619 4750 2861 4703 
Q 3103 4656 3366 4563 
z
" transform="scale(0.015625)"/>
       </defs>
       <use xlink:href="#DejaVuSans-32"/>
       <use xlink:href="#DejaVuSans-30" x="63.623047"/>
       <use xlink:href="#DejaVuSans-31" x="127.246094"/>
       <use xlink:href="#DejaVuSans-36" x="190.869141"/>
      </g>
     </g>
    </g>
    <g id="xtick_5">
     <g id="line2d_5">
      <g>
       <use xlink:href="#m8032a8cd3c" x="342.650385" y="271.628479" style="stroke: #000000; stroke-width: 0.8"/>
      </g>
     </g>
     <g id="text_5">
      <!-- 2020 -->
      <g transform="translate(329.925385 286.226916) scale(0.1 -0.1)">
       <use xlink:href="#DejaVuSans-32"/>
       <use xlink:href="#DejaVuSans-30" x="63.623047"/>
       <use xlink:href="#DejaVuSans-32" x="127.246094"/>
       <use xlink:href="#DejaVuSans-30" x="190.869141"/>
      </g>
     </g>
    </g>
    <g id="xtick_6">
     <g id="line2d_6">
      <g>
       <use xlink:href="#m8032a8cd3c" x="410.45747" y="271.628479" style="stroke: #000000; stroke-width: 0.8"/>
      </g>
     </g>
     <g id="text_6">
      <!-- 2024 -->
      <g transform="translate(397.73247 286.226916) scale(0.1 -0.1)">
       <use xlink:href="#DejaVuSans-32"/>
       <use xlink:href="#DejaVuSans-30" x="63.623047"/>
       <use xlink:href="#DejaVuSans-32" x="127.246094"/>
       <use xlink:href="#DejaVuSans-34" x="190.869141"/>
      </g>
     </g>
    </g>
    <g id="text_7">
     <!-- Year -->
     <g transform="translate(239.86375 303.70426) scale(0.15 -0.15)">
      <defs>
       <path id="DejaVuSans-59" d="M -13 4666 
L 666 4666 
L 1959 2747 
L 3244 4666 
L 3922 4666 
L 2272 2222 
L 2272 0 
L 1638 0 
L 1638 2222 
L -13 4666 
z
" transform="scale(0.015625)"/>
       <path id="DejaVuSans-65" d="M 3597 1894 
L 3597 1613 
L 953 1613 
Q 991 1019 1311 708 
Q 1631 397 2203 397 
Q 2534 397 2845 478 
Q 3156 559 3463 722 
L 3463 178 
Q 3153 47 2828 -22 
Q 2503 -91 2169 -91 
Q 1331 -91 842 396 
Q 353 884 353 1716 
Q 353 2575 817 3079 
Q 1281 3584 2069 3584 
Q 2775 3584 3186 3129 
Q 3597 2675 3597 1894 
z
M 3022 2063 
Q 3016 2534 2758 2815 
Q 2500 3097 2075 3097 
Q 1594 3097 1305 2825 
Q 1016 2553 972 2059 
L 3022 2063 
z
" transform="scale(0.015625)"/>
       <path id="DejaVuSans-61" d="M 2194 1759 
Q 1497 1759 1228 1600 
Q 959 1441 959 1056 
Q 959 750 1161 570 
Q 1363 391 1709 391 
Q 2188 391 2477 730 
Q 2766 1069 2766 1631 
L 2766 1759 
L 2194 1759 
z
M 3341 1997 
L 3341 0 
L 2766 0 
L 2766 531 
Q 2569 213 2275 61 
Q 1981 -91 1556 -91 
Q 1019 -91 701 211 
Q 384 513 384 1019 
Q 384 1609 779 1909 
Q 1175 2209 1959 2209 
L 2766 2209 
L 2766 2266 
Q 2766 2663 2505 2880 
Q 2244 3097 1772 3097 
Q 1472 3097 1187 3025 
Q 903 2953 641 2809 
L 641 3341 
Q 956 3463 1253 3523 
Q 1550 3584 1831 3584 
Q 2591 3584 2966 3190 
Q 3341 2797 3341 1997 
z
" transform="scale(0.015625)"/>
       <path id="DejaVuSans-72" d="M 2631 2963 
Q 2534 3019 2420 3045 
Q 2306 3072 2169 3072 
Q 1681 3072 1420 2755 
Q 1159 2438 1159 1844 
L 1159 0 
L 581 0 
L 581 3500 
L 1159 3500 
L 1159 2956 
Q 1341 3275 1631 3429 
Q 1922 3584 2338 3584 
Q 2397 3584 2469 3576 
Q 2541 3569 2628 3553 
L 2631 2963 
z
" transform="scale(0.015625)"/>
      </defs>
      <use xlink:href="#DejaVuSans-59"/>
      <use xlink:href="#DejaVuSans-65" x="47.833984"/>
      <use xlink:href="#DejaVuSans-61" x="109.357422"/>
      <use xlink:href="#DejaVuSans-72" x="170.636719"/>
     </g>
    </g>
   </g>
   <g id="matplotlib.axis_2">
    <g id="ytick_1">
     <g id="line2d_7">
      <defs>
       <path id="m465f3d657d" d="M 0 0 
L -3.5 0 
" style="stroke: #000000; stroke-width: 0.8"/>
      </defs>
      <g>
       <use xlink:href="#m465f3d657d" x="61.49" y="271.628479" style="stroke: #000000; stroke-width: 0.8"/>
      </g>
     </g>
     <g id="text_8">
      <!-- 0 -->
      <g transform="translate(48.1275 275.427697) scale(0.1 -0.1)">
       <use xlink:href="#DejaVuSans-30"/>
      </g>
     </g>
    </g>
    <g id="ytick_2">
     <g id="line2d_8">
      <g>
       <use xlink:href="#m465f3d657d" x="61.49" y="234.499342" style="stroke: #000000; stroke-width: 0.8"/>
      </g>
     </g>
     <g id="text_9">
      <!-- 1000 -->
      <g transform="translate(29.04 238.298561) scale(0.1 -0.1)">
       <use xlink:href="#DejaVuSans-31"/>
       <use xlink:href="#DejaVuSans-30" x="63.623047"/>
       <use xlink:href="#DejaVuSans-30" x="127.246094"/>
       <use xlink:href="#DejaVuSans-30" x="190.869141"/>
      </g>
     </g>
    </g>
    <g id="ytick_3">
     <g id="line2d_9">
      <g>
       <use xlink:href="#m465f3d657d" x="61.49" y="197.370206" style="stroke: #000000; stroke-width: 0.8"/>
      </g>
     </g>
     <g id="text_10">
      <!-- 2000 -->
      <g transform="translate(29.04 201.169425) scale(0.1 -0.1)">
       <use xlink:href="#DejaVuSans-32"/>
       <use xlink:href="#DejaVuSans-30" x="63.623047"/>
       <use xlink:href="#DejaVuSans-30" x="127.246094"/>
       <use xlink:href="#DejaVuSans-30" x="190.869141"/>
      </g>
     </g>
    </g>
    <g id="ytick_4">
     <g id="line2d_10">
      <g>
       <use xlink:href="#m465f3d657d" x="61.49" y="160.24107" style="stroke: #000000; stroke-width: 0.8"/>
      </g>
     </g>
     <g id="text_11">
      <!-- 3000 -->
      <g transform="translate(29.04 164.040288) scale(0.1 -0.1)">
       <defs>
        <path id="DejaVuSans-33" d="M 2597 2516 
Q 3050 2419 3304 2112 
Q 3559 1806 3559 1356 
Q 3559 666 3084 287 
Q 2609 -91 1734 -91 
Q 1441 -91 1130 -33 
Q 819 25 488 141 
L 488 750 
Q 750 597 1062 519 
Q 1375 441 1716 441 
Q 2309 441 2620 675 
Q 2931 909 2931 1356 
Q 2931 1769 2642 2001 
Q 2353 2234 1838 2234 
L 1294 2234 
L 1294 2753 
L 1863 2753 
Q 2328 2753 2575 2939 
Q 2822 3125 2822 3475 
Q 2822 3834 2567 4026 
Q 2313 4219 1838 4219 
Q 1578 4219 1281 4162 
Q 984 4106 628 3988 
L 628 4550 
Q 988 4650 1302 4700 
Q 1616 4750 1894 4750 
Q 2613 4750 3031 4423 
Q 3450 4097 3450 3541 
Q 3450 3153 3228 2886 
Q 3006 2619 2597 2516 
z
" transform="scale(0.015625)"/>
       </defs>
       <use xlink:href="#DejaVuSans-33"/>
       <use xlink:href="#DejaVuSans-30" x="63.623047"/>
       <use xlink:href="#DejaVuSans-30" x="127.246094"/>
       <use xlink:href="#DejaVuSans-30" x="190.869141"/>
      </g>
     </g>
    </g>
    <g id="ytick_5">
     <g id="line2d_11">
      <g>
       <use xlink:href="#m465f3d657d" x="61.49" y="123.111933" style="stroke: #000000; stroke-width: 0.8"/>
      </g>
     </g>
     <g id="text_12">
      <!-- 4000 -->
      <g transform="translate(29.04 126.911152) scale(0.1 -0.1)">
       <use xlink:href="#DejaVuSans-34"/>
       <use xlink:href="#DejaVuSans-30" x="63.623047"/>
       <use xlink:href="#DejaVuSans-30" x="127.246094"/>
       <use xlink:href="#DejaVuSans-30" x="190.869141"/>
      </g>
     </g>
    </g>
    <g id="ytick_6">
     <g id="line2d_12">
      <g>
       <use xlink:href="#m465f3d657d" x="61.49" y="85.982797" style="stroke: #000000; stroke-width: 0.8"/>
      </g>
     </g>
     <g id="text_13">
      <!-- 5000 -->
      <g transform="translate(29.04 89.782016) scale(0.1 -0.1)">
       <defs>
        <path id="DejaVuSans-35" d="M 691 4666 
L 3169 4666 
L 3169 4134 
L 1269 4134 
L 1269 2991 
Q 1406 3038 1543 3061 
Q 1681 3084 1819 3084 
Q 2600 3084 3056 2656 
Q 3513 2228 3513 1497 
Q 3513 744 3044 326 
Q 2575 -91 1722 -91 
Q 1428 -91 1123 -41 
Q 819 9 494 109 
L 494 744 
Q 775 591 1075 516 
Q 1375 441 1709 441 
Q 2250 441 2565 725 
Q 2881 1009 2881 1497 
Q 2881 1984 2565 2268 
Q 2250 2553 1709 2553 
Q 1456 2553 1204 2497 
Q 953 2441 691 2322 
L 691 4666 
z
" transform="scale(0.015625)"/>
       </defs>
       <use xlink:href="#DejaVuSans-35"/>
       <use xlink:href="#DejaVuSans-30" x="63.623047"/>
       <use xlink:href="#DejaVuSans-30" x="127.246094"/>
       <use xlink:href="#DejaVuSans-30" x="190.869141"/>
      </g>
     </g>
    </g>
    <g id="text_14">
     <!-- Number of proteins -->
     <g transform="translate(21.920469 245.489062) rotate(-90) scale(0.15 -0.15)">
      <defs>
       <path id="DejaVuSans-4e" d="M 628 4666 
L 1478 4666 
L 3547 763 
L 3547 4666 
L 4159 4666 
L 4159 0 
L 3309 0 
L 1241 3903 
L 1241 0 
L 628 0 
L 628 4666 
z
" transform="scale(0.015625)"/>
       <path id="DejaVuSans-75" d="M 544 1381 
L 544 3500 
L 1119 3500 
L 1119 1403 
Q 1119 906 1312 657 
Q 1506 409 1894 409 
Q 2359 409 2629 706 
Q 2900 1003 2900 1516 
L 2900 3500 
L 3475 3500 
L 3475 0 
L 2900 0 
L 2900 538 
Q 2691 219 2414 64 
Q 2138 -91 1772 -91 
Q 1169 -91 856 284 
Q 544 659 544 1381 
z
M 1991 3584 
L 1991 3584 
z
" transform="scale(0.015625)"/>
       <path id="DejaVuSans-6d" d="M 3328 2828 
Q 3544 3216 3844 3400 
Q 4144 3584 4550 3584 
Q 5097 3584 5394 3201 
Q 5691 2819 5691 2113 
L 5691 0 
L 5113 0 
L 5113 2094 
Q 5113 2597 4934 2840 
Q 4756 3084 4391 3084 
Q 3944 3084 3684 2787 
Q 3425 2491 3425 1978 
L 3425 0 
L 2847 0 
L 2847 2094 
Q 2847 2600 2669 2842 
Q 2491 3084 2119 3084 
Q 1678 3084 1418 2786 
Q 1159 2488 1159 1978 
L 1159 0 
L 581 0 
L 581 3500 
L 1159 3500 
L 1159 2956 
Q 1356 3278 1631 3431 
Q 1906 3584 2284 3584 
Q 2666 3584 2933 3390 
Q 3200 3197 3328 2828 
z
" transform="scale(0.015625)"/>
       <path id="DejaVuSans-62" d="M 3116 1747 
Q 3116 2381 2855 2742 
Q 2594 3103 2138 3103 
Q 1681 3103 1420 2742 
Q 1159 2381 1159 1747 
Q 1159 1113 1420 752 
Q 1681 391 2138 391 
Q 2594 391 2855 752 
Q 3116 1113 3116 1747 
z
M 1159 2969 
Q 1341 3281 1617 3432 
Q 1894 3584 2278 3584 
Q 2916 3584 3314 3078 
Q 3713 2572 3713 1747 
Q 3713 922 3314 415 
Q 2916 -91 2278 -91 
Q 1894 -91 1617 61 
Q 1341 213 1159 525 
L 1159 0 
L 581 0 
L 581 4863 
L 1159 4863 
L 1159 2969 
z
" transform="scale(0.015625)"/>
       <path id="DejaVuSans-20" transform="scale(0.015625)"/>
       <path id="DejaVuSans-6f" d="M 1959 3097 
Q 1497 3097 1228 2736 
Q 959 2375 959 1747 
Q 959 1119 1226 758 
Q 1494 397 1959 397 
Q 2419 397 2687 759 
Q 2956 1122 2956 1747 
Q 2956 2369 2687 2733 
Q 2419 3097 1959 3097 
z
M 1959 3584 
Q 2709 3584 3137 3096 
Q 3566 2609 3566 1747 
Q 3566 888 3137 398 
Q 2709 -91 1959 -91 
Q 1206 -91 779 398 
Q 353 888 353 1747 
Q 353 2609 779 3096 
Q 1206 3584 1959 3584 
z
" transform="scale(0.015625)"/>
       <path id="DejaVuSans-66" d="M 2375 4863 
L 2375 4384 
L 1825 4384 
Q 1516 4384 1395 4259 
Q 1275 4134 1275 3809 
L 1275 3500 
L 2222 3500 
L 2222 3053 
L 1275 3053 
L 1275 0 
L 697 0 
L 697 3053 
L 147 3053 
L 147 3500 
L 697 3500 
L 697 3744 
Q 697 4328 969 4595 
Q 1241 4863 1831 4863 
L 2375 4863 
z
" transform="scale(0.015625)"/>
       <path id="DejaVuSans-70" d="M 1159 525 
L 1159 -1331 
L 581 -1331 
L 581 3500 
L 1159 3500 
L 1159 2969 
Q 1341 3281 1617 3432 
Q 1894 3584 2278 3584 
Q 2916 3584 3314 3078 
Q 3713 2572 3713 1747 
Q 3713 922 3314 415 
Q 2916 -91 2278 -91 
Q 1894 -91 1617 61 
Q 1341 213 1159 525 
z
M 3116 1747 
Q 3116 2381 2855 2742 
Q 2594 3103 2138 3103 
Q 1681 3103 1420 2742 
Q 1159 2381 1159 1747 
Q 1159 1113 1420 752 
Q 1681 391 2138 391 
Q 2594 391 2855 752 
Q 3116 1113 3116 1747 
z
" transform="scale(0.015625)"/>
       <path id="DejaVuSans-74" d="M 1172 4494 
L 1172 3500 
L 2356 3500 
L 2356 3053 
L 1172 3053 
L 1172 1153 
Q 1172 725 1289 603 
Q 1406 481 1766 481 
L 2356 481 
L 2356 0 
L 1766 0 
Q 1100 0 847 248 
Q 594 497 594 1153 
L 594 3053 
L 172 3053 
L 172 3500 
L 594 3500 
L 594 4494 
L 1172 4494 
z
" transform="scale(0.015625)"/>
       <path id="DejaVuSans-69" d="M 603 3500 
L 1178 3500 
L 1178 0 
L 603 0 
L 603 3500 
z
M 603 4863 
L 1178 4863 
L 1178 4134 
L 603 4134 
L 603 4863 
z
" transform="scale(0.015625)"/>
       <path id="DejaVuSans-6e" d="M 3513 2113 
L 3513 0 
L 2938 0 
L 2938 2094 
Q 2938 2591 2744 2837 
Q 2550 3084 2163 3084 
Q 1697 3084 1428 2787 
Q 1159 2491 1159 1978 
L 1159 0 
L 581 0 
L 581 3500 
L 1159 3500 
L 1159 2956 
Q 1366 3272 1645 3428 
Q 1925 3584 2291 3584 
Q 2894 3584 3203 3211 
Q 3513 2838 3513 2113 
z
" transform="scale(0.015625)"/>
       <path id="DejaVuSans-73" d="M 2834 3397 
L 2834 2853 
Q 2591 2978 2328 3040 
Q 2066 3103 1784 3103 
Q 1356 3103 1142 2972 
Q 928 2841 928 2578 
Q 928 2378 1081 2264 
Q 1234 2150 1697 2047 
L 1894 2003 
Q 2506 1872 2764 1633 
Q 3022 1394 3022 966 
Q 3022 478 2636 193 
Q 2250 -91 1575 -91 
Q 1294 -91 989 -36 
Q 684 19 347 128 
L 347 722 
Q 666 556 975 473 
Q 1284 391 1588 391 
Q 1994 391 2212 530 
Q 2431 669 2431 922 
Q 2431 1156 2273 1281 
Q 2116 1406 1581 1522 
L 1381 1569 
Q 847 1681 609 1914 
Q 372 2147 372 2553 
Q 372 3047 722 3315 
Q 1072 3584 1716 3584 
Q 2034 3584 2315 3537 
Q 2597 3491 2834 3397 
z
" transform="scale(0.015625)"/>
      </defs>
      <use xlink:href="#DejaVuSans-4e"/>
      <use xlink:href="#DejaVuSans-75" x="74.804688"/>
      <use xlink:href="#DejaVuSans-6d" x="138.183594"/>
      <use xlink:href="#DejaVuSans-62" x="235.595703"/>
      <use xlink:href="#DejaVuSans-65" x="299.072266"/>
      <use xlink:href="#DejaVuSans-72" x="360.595703"/>
      <use xlink:href="#DejaVuSans-20" x="401.708984"/>
      <use xlink:href="#DejaVuSans-6f" x="433.496094"/>
      <use xlink:href="#DejaVuSans-66" x="494.677734"/>
      <use xlink:href="#DejaVuSans-20" x="529.882812"/>
      <use xlink:href="#DejaVuSans-70" x="561.669922"/>
      <use xlink:href="#DejaVuSans-72" x="625.146484"/>
      <use xlink:href="#DejaVuSans-6f" x="664.009766"/>
      <use xlink:href="#DejaVuSans-74" x="725.191406"/>
      <use xlink:href="#DejaVuSans-65" x="764.400391"/>
      <use xlink:href="#DejaVuSans-69" x="825.923828"/>
      <use xlink:href="#DejaVuSans-6e" x="853.707031"/>
      <use xlink:href="#DejaVuSans-73" x="917.085938"/>
     </g>
    </g>
   </g>
   <g id="patch_3">
    <path d="M 61.49 271.628479 
L 61.49 73.971521 
" style="fill: none; stroke: #000000; stroke-width: 0.8; stroke-linejoin: miter; stroke-linecap: square"/>
   </g>
   <g id="patch_4">
    <path d="M 61.49 271.628479 
L 450 271.628479 
" style="fill: none; stroke: #000000; stroke-width: 0.8; stroke-linejoin: miter; stroke-linecap: square"/>
   </g>
   <g id="legend_1">
    <g id="patch_5">
     <path d="M 98.395781 68.971521 
L 413.094219 68.971521 
Q 415.094219 68.971521 415.094219 66.971521 
L 415.094219 38.615271 
Q 415.094219 36.615271 413.094219 36.615271 
L 98.395781 36.615271 
Q 96.395781 36.615271 96.395781 38.615271 
L 96.395781 66.971521 
Q 96.395781 68.971521 98.395781 68.971521 
z
" style="fill: #ffffff; opacity: 0.8; stroke: #cccccc; stroke-linejoin: miter"/>
    </g>
    <g id="patch_6">
     <path d="M 100.395781 48.213709 
L 120.395781 48.213709 
L 120.395781 41.213709 
L 100.395781 41.213709 
z
" style="fill: #fb363b"/>
    </g>
    <g id="text_15">
     <!-- Biological role published -->
     <g transform="translate(128.395781 48.213709) scale(0.1 -0.1)">
      <defs>
       <path id="DejaVuSans-42" d="M 1259 2228 
L 1259 519 
L 2272 519 
Q 2781 519 3026 730 
Q 3272 941 3272 1375 
Q 3272 1813 3026 2020 
Q 2781 2228 2272 2228 
L 1259 2228 
z
M 1259 4147 
L 1259 2741 
L 2194 2741 
Q 2656 2741 2882 2914 
Q 3109 3088 3109 3444 
Q 3109 3797 2882 3972 
Q 2656 4147 2194 4147 
L 1259 4147 
z
M 628 4666 
L 2241 4666 
Q 2963 4666 3353 4366 
Q 3744 4066 3744 3513 
Q 3744 3084 3544 2831 
Q 3344 2578 2956 2516 
Q 3422 2416 3680 2098 
Q 3938 1781 3938 1306 
Q 3938 681 3513 340 
Q 3088 0 2303 0 
L 628 0 
L 628 4666 
z
" transform="scale(0.015625)"/>
       <path id="DejaVuSans-6c" d="M 603 4863 
L 1178 4863 
L 1178 0 
L 603 0 
L 603 4863 
z
" transform="scale(0.015625)"/>
       <path id="DejaVuSans-67" d="M 2906 1791 
Q 2906 2416 2648 2759 
Q 2391 3103 1925 3103 
Q 1463 3103 1205 2759 
Q 947 2416 947 1791 
Q 947 1169 1205 825 
Q 1463 481 1925 481 
Q 2391 481 2648 825 
Q 2906 1169 2906 1791 
z
M 3481 434 
Q 3481 -459 3084 -895 
Q 2688 -1331 1869 -1331 
Q 1566 -1331 1297 -1286 
Q 1028 -1241 775 -1147 
L 775 -588 
Q 1028 -725 1275 -790 
Q 1522 -856 1778 -856 
Q 2344 -856 2625 -561 
Q 2906 -266 2906 331 
L 2906 616 
Q 2728 306 2450 153 
Q 2172 0 1784 0 
Q 1141 0 747 490 
Q 353 981 353 1791 
Q 353 2603 747 3093 
Q 1141 3584 1784 3584 
Q 2172 3584 2450 3431 
Q 2728 3278 2906 2969 
L 2906 3500 
L 3481 3500 
L 3481 434 
z
" transform="scale(0.015625)"/>
       <path id="DejaVuSans-63" d="M 3122 3366 
L 3122 2828 
Q 2878 2963 2633 3030 
Q 2388 3097 2138 3097 
Q 1578 3097 1268 2742 
Q 959 2388 959 1747 
Q 959 1106 1268 751 
Q 1578 397 2138 397 
Q 2388 397 2633 464 
Q 2878 531 3122 666 
L 3122 134 
Q 2881 22 2623 -34 
Q 2366 -91 2075 -91 
Q 1284 -91 818 406 
Q 353 903 353 1747 
Q 353 2603 823 3093 
Q 1294 3584 2113 3584 
Q 2378 3584 2631 3529 
Q 2884 3475 3122 3366 
z
" transform="scale(0.015625)"/>
       <path id="DejaVuSans-68" d="M 3513 2113 
L 3513 0 
L 2938 0 
L 2938 2094 
Q 2938 2591 2744 2837 
Q 2550 3084 2163 3084 
Q 1697 3084 1428 2787 
Q 1159 2491 1159 1978 
L 1159 0 
L 581 0 
L 581 4863 
L 1159 4863 
L 1159 2956 
Q 1366 3272 1645 3428 
Q 1925 3584 2291 3584 
Q 2894 3584 3203 3211 
Q 3513 2838 3513 2113 
z
" transform="scale(0.015625)"/>
       <path id="DejaVuSans-64" d="M 2906 2969 
L 2906 4863 
L 3481 4863 
L 3481 0 
L 2906 0 
L 2906 525 
Q 2725 213 2448 61 
Q 2172 -91 1784 -91 
Q 1150 -91 751 415 
Q 353 922 353 1747 
Q 353 2572 751 3078 
Q 1150 3584 1784 3584 
Q 2172 3584 2448 3432 
Q 2725 3281 2906 2969 
z
M 947 1747 
Q 947 1113 1208 752 
Q 1469 391 1925 391 
Q 2381 391 2643 752 
Q 2906 1113 2906 1747 
Q 2906 2381 2643 2742 
Q 2381 3103 1925 3103 
Q 1469 3103 1208 2742 
Q 947 2381 947 1747 
z
" transform="scale(0.015625)"/>
      </defs>
      <use xlink:href="#DejaVuSans-42"/>
      <use xlink:href="#DejaVuSans-69" x="68.603516"/>
      <use xlink:href="#DejaVuSans-6f" x="96.386719"/>
      <use xlink:href="#DejaVuSans-6c" x="157.568359"/>
      <use xlink:href="#DejaVuSans-6f" x="185.351562"/>
      <use xlink:href="#DejaVuSans-67" x="246.533203"/>
      <use xlink:href="#DejaVuSans-69" x="310.009766"/>
      <use xlink:href="#DejaVuSans-63" x="337.792969"/>
      <use xlink:href="#DejaVuSans-61" x="392.773438"/>
      <use xlink:href="#DejaVuSans-6c" x="454.052734"/>
      <use xlink:href="#DejaVuSans-20" x="481.835938"/>
      <use xlink:href="#DejaVuSans-72" x="513.623047"/>
      <use xlink:href="#DejaVuSans-6f" x="552.486328"/>
      <use xlink:href="#DejaVuSans-6c" x="613.667969"/>
      <use xlink:href="#DejaVuSans-65" x="641.451172"/>
      <use xlink:href="#DejaVuSans-20" x="702.974609"/>
      <use xlink:href="#DejaVuSans-70" x="734.761719"/>
      <use xlink:href="#DejaVuSans-75" x="798.238281"/>
      <use xlink:href="#DejaVuSans-62" x="861.617188"/>
      <use xlink:href="#DejaVuSans-6c" x="925.09375"/>
      <use xlink:href="#DejaVuSans-69" x="952.876953"/>
      <use xlink:href="#DejaVuSans-73" x="980.660156"/>
      <use xlink:href="#DejaVuSans-68" x="1032.759766"/>
      <use xlink:href="#DejaVuSans-65" x="1096.138672"/>
      <use xlink:href="#DejaVuSans-64" x="1157.662109"/>
     </g>
    </g>
    <g id="patch_7">
     <path d="M 100.395781 62.891834 
L 120.395781 62.891834 
L 120.395781 55.891834 
L 100.395781 55.891834 
z
" style="fill: #fdc92c"/>
    </g>
    <g id="text_16">
     <!-- Biological role inferred -->
     <g transform="translate(128.395781 62.891834) scale(0.1 -0.1)">
      <use xlink:href="#DejaVuSans-42"/>
      <use xlink:href="#DejaVuSans-69" x="68.603516"/>
      <use xlink:href="#DejaVuSans-6f" x="96.386719"/>
      <use xlink:href="#DejaVuSans-6c" x="157.568359"/>
      <use xlink:href="#DejaVuSans-6f" x="185.351562"/>
      <use xlink:href="#DejaVuSans-67" x="246.533203"/>
      <use xlink:href="#DejaVuSans-69" x="310.009766"/>
      <use xlink:href="#DejaVuSans-63" x="337.792969"/>
      <use xlink:href="#DejaVuSans-61" x="392.773438"/>
      <use xlink:href="#DejaVuSans-6c" x="454.052734"/>
      <use xlink:href="#DejaVuSans-20" x="481.835938"/>
      <use xlink:href="#DejaVuSans-72" x="513.623047"/>
      <use xlink:href="#DejaVuSans-6f" x="552.486328"/>
      <use xlink:href="#DejaVuSans-6c" x="613.667969"/>
      <use xlink:href="#DejaVuSans-65" x="641.451172"/>
      <use xlink:href="#DejaVuSans-20" x="702.974609"/>
      <use xlink:href="#DejaVuSans-69" x="734.761719"/>
      <use xlink:href="#DejaVuSans-6e" x="762.544922"/>
      <use xlink:href="#DejaVuSans-66" x="825.923828"/>
      <use xlink:href="#DejaVuSans-65" x="861.128906"/>
      <use xlink:href="#DejaVuSans-72" x="922.652344"/>
      <use xlink:href="#DejaVuSans-72" x="962.015625"/>
      <use xlink:href="#DejaVuSans-65" x="1000.878906"/>
      <use xlink:href="#DejaVuSans-64" x="1062.402344"/>
     </g>
    </g>
    <g id="patch_8">
     <path d="M 270.512969 48.213709 
L 290.512969 48.213709 
L 290.512969 41.213709 
L 270.512969 41.213709 
z
" style="fill: #aeaeae"/>
    </g>
    <g id="text_17">
     <!-- Conserved unknown -->
     <g transform="translate(298.512969 48.213709) scale(0.1 -0.1)">
      <defs>
       <path id="DejaVuSans-43" d="M 4122 4306 
L 4122 3641 
Q 3803 3938 3442 4084 
Q 3081 4231 2675 4231 
Q 1875 4231 1450 3742 
Q 1025 3253 1025 2328 
Q 1025 1406 1450 917 
Q 1875 428 2675 428 
Q 3081 428 3442 575 
Q 3803 722 4122 1019 
L 4122 359 
Q 3791 134 3420 21 
Q 3050 -91 2638 -91 
Q 1578 -91 968 557 
Q 359 1206 359 2328 
Q 359 3453 968 4101 
Q 1578 4750 2638 4750 
Q 3056 4750 3426 4639 
Q 3797 4528 4122 4306 
z
" transform="scale(0.015625)"/>
       <path id="DejaVuSans-76" d="M 191 3500 
L 800 3500 
L 1894 563 
L 2988 3500 
L 3597 3500 
L 2284 0 
L 1503 0 
L 191 3500 
z
" transform="scale(0.015625)"/>
       <path id="DejaVuSans-6b" d="M 581 4863 
L 1159 4863 
L 1159 1991 
L 2875 3500 
L 3609 3500 
L 1753 1863 
L 3688 0 
L 2938 0 
L 1159 1709 
L 1159 0 
L 581 0 
L 581 4863 
z
" transform="scale(0.015625)"/>
       <path id="DejaVuSans-77" d="M 269 3500 
L 844 3500 
L 1563 769 
L 2278 3500 
L 2956 3500 
L 3675 769 
L 4391 3500 
L 4966 3500 
L 4050 0 
L 3372 0 
L 2619 2869 
L 1863 0 
L 1184 0 
L 269 3500 
z
" transform="scale(0.015625)"/>
      </defs>
      <use xlink:href="#DejaVuSans-43"/>
      <use xlink:href="#DejaVuSans-6f" x="69.824219"/>
      <use xlink:href="#DejaVuSans-6e" x="131.005859"/>
      <use xlink:href="#DejaVuSans-73" x="194.384766"/>
      <use xlink:href="#DejaVuSans-65" x="246.484375"/>
      <use xlink:href="#DejaVuSans-72" x="308.007812"/>
      <use xlink:href="#DejaVuSans-76" x="349.121094"/>
      <use xlink:href="#DejaVuSans-65" x="408.300781"/>
      <use xlink:href="#DejaVuSans-64" x="469.824219"/>
      <use xlink:href="#DejaVuSans-20" x="533.300781"/>
      <use xlink:href="#DejaVuSans-75" x="565.087891"/>
      <use xlink:href="#DejaVuSans-6e" x="628.466797"/>
      <use xlink:href="#DejaVuSans-6b" x="691.845703"/>
      <use xlink:href="#DejaVuSans-6e" x="749.755859"/>
      <use xlink:href="#DejaVuSans-6f" x="813.134766"/>
      <use xlink:href="#DejaVuSans-77" x="874.316406"/>
      <use xlink:href="#DejaVuSans-6e" x="956.103516"/>
     </g>
    </g>
    <g id="patch_9">
     <path d="M 270.512969 62.891834 
L 290.512969 62.891834 
L 290.512969 55.891834 
L 270.512969 55.891834 
z
" style="fill: #d5dce5"/>
    </g>
    <g id="text_18">
     <!-- Fission yeast unknown -->
     <g transform="translate(298.512969 62.891834) scale(0.1 -0.1)">
      <defs>
       <path id="DejaVuSans-46" d="M 628 4666 
L 3309 4666 
L 3309 4134 
L 1259 4134 
L 1259 2759 
L 3109 2759 
L 3109 2228 
L 1259 2228 
L 1259 0 
L 628 0 
L 628 4666 
z
" transform="scale(0.015625)"/>
       <path id="DejaVuSans-79" d="M 2059 -325 
Q 1816 -950 1584 -1140 
Q 1353 -1331 966 -1331 
L 506 -1331 
L 506 -850 
L 844 -850 
Q 1081 -850 1212 -737 
Q 1344 -625 1503 -206 
L 1606 56 
L 191 3500 
L 800 3500 
L 1894 763 
L 2988 3500 
L 3597 3500 
L 2059 -325 
z
" transform="scale(0.015625)"/>
      </defs>
      <use xlink:href="#DejaVuSans-46"/>
      <use xlink:href="#DejaVuSans-69" x="50.269531"/>
      <use xlink:href="#DejaVuSans-73" x="78.052734"/>
      <use xlink:href="#DejaVuSans-73" x="130.152344"/>
      <use xlink:href="#DejaVuSans-69" x="182.251953"/>
      <use xlink:href="#DejaVuSans-6f" x="210.035156"/>
      <use xlink:href="#DejaVuSans-6e" x="271.216797"/>
      <use xlink:href="#DejaVuSans-20" x="334.595703"/>
      <use xlink:href="#DejaVuSans-79" x="366.382812"/>
      <use xlink:href="#DejaVuSans-65" x="425.5625"/>
      <use xlink:href="#DejaVuSans-61" x="487.085938"/>
      <use xlink:href="#DejaVuSans-73" x="548.365234"/>
      <use xlink:href="#DejaVuSans-74" x="600.464844"/>
      <use xlink:href="#DejaVuSans-20" x="639.673828"/>
      <use xlink:href="#DejaVuSans-75" x="671.460938"/>
      <use xlink:href="#DejaVuSans-6e" x="734.839844"/>
      <use xlink:href="#DejaVuSans-6b" x="798.21875"/>
      <use xlink:href="#DejaVuSans-6e" x="856.128906"/>
      <use xlink:href="#DejaVuSans-6f" x="919.507812"/>
      <use xlink:href="#DejaVuSans-77" x="980.689453"/>
      <use xlink:href="#DejaVuSans-6e" x="1062.476562"/>
     </g>
    </g>
   </g>
  </g>
 </g>
 <defs>
  <clipPath id="p0480de024f">
   <rect x="61.49" y="73.971521" width="388.51" height="197.656957"/>
  </clipPath>
 </defs>
</svg>
