<?xml version="1.0" encoding="utf-8" standalone="no"?>
<!DOCTYPE svg PUBLIC "-//W3C//DTD SVG 1.1//EN"
  "http://www.w3.org/Graphics/SVG/1.1/DTD/svg11.dtd">
<svg xmlns:xlink="http://www.w3.org/1999/xlink" width="460.8pt" height="345.6pt" viewBox="0 0 460.8 345.6" xmlns="http://www.w3.org/2000/svg" version="1.1">
 <metadata>
  <rdf:RDF xmlns:dc="http://purl.org/dc/elements/1.1/" xmlns:cc="http://creativecommons.org/ns#" xmlns:rdf="http://www.w3.org/1999/02/22-rdf-syntax-ns#">
   <cc:Work>
    <dc:type rdf:resource="http://purl.org/dc/dcmitype/StillImage"/>
    <dc:date>2025-02-02T01:11:15.050721</dc:date>
    <dc:format>image/svg+xml</dc:format>
    <dc:creator>
     <cc:Agent>
      <dc:title>Matplotlib v3.7.1, https://matplotlib.org/</dc:title>
     </cc:Agent>
    </dc:creator>
   </cc:Work>
  </rdf:RDF>
 </metadata>
 <defs>
  <style type="text/css">*{stroke-linejoin: round; stroke-linecap: butt}</style>
 </defs>
 <g id="figure_1">
  <g id="patch_1">
   <path d="M 0 345.6 
L 460.8 345.6 
L 460.8 0 
L 0 0 
z
" style="fill: #ffffff"/>
  </g>
  <g id="axes_1">
   <g id="patch_2">
    <path d="M 61.49 277.874276 
L 450 277.874276 
L 450 68.88269 
L 61.49 68.88269 
z
" style="fill: #ffffff"/>
   </g>
   <g id="PolyCollection_1">
    <path d="M 31.800907 224.836306 
L 31.800907 277.874276 
L 40.094224 277.874276 
L 48.289395 277.874276 
L 65.121393 277.874276 
L 84.6524 277.874276 
L 99.030754 277.874276 
L 107.962018 277.874276 
L 110.268444 277.874276 
L 114.537785 277.874276 
L 116.5007 277.874276 
L 116.746064 277.874276 
L 119.984874 277.874276 
L 120.819113 277.874276 
L 121.506134 277.874276 
L 122.340373 277.874276 
L 122.880174 277.874276 
L 123.714413 277.874276 
L 124.205142 277.874276 
L 125.088454 277.874276 
L 126.266203 277.874276 
L 127.198588 277.874276 
L 127.542098 277.874276 
L 128.523556 277.874276 
L 129.210576 277.874276 
L 129.946669 277.874276 
L 130.731835 277.874276 
L 131.271637 277.874276 
L 131.762366 277.874276 
L 133.136406 277.874276 
L 134.117864 277.874276 
L 134.853957 277.874276 
L 135.050249 277.874276 
L 135.737269 277.874276 
L 136.7678 277.874276 
L 137.847403 277.874276 
L 138.583496 277.874276 
L 139.6631 277.874276 
L 141.086213 277.874276 
L 143.049128 277.874276 
L 144.766679 277.874276 
L 146.238866 277.874276 
L 148.986947 277.874276 
L 150.164696 277.874276 
L 153.354433 277.874276 
L 155.415495 277.874276 
L 156.691389 277.874276 
L 157.476556 277.874276 
L 160.568147 277.874276 
L 162.285698 277.874276 
L 164.052322 277.874276 
L 167.536496 277.874276 
L 170.775306 277.874276 
L 171.315108 277.874276 
L 171.953055 277.874276 
L 172.934513 277.874276 
L 173.719679 277.874276 
L 176.12425 277.874276 
L 180.933393 277.874276 
L 181.865777 277.874276 
L 186.380483 277.874276 
L 187.411013 277.874276 
L 188.441544 277.874276 
L 190.110021 277.874276 
L 191.484062 277.874276 
L 192.80903 277.874276 
L 193.643269 277.874276 
L 196.342277 277.874276 
L 199.139432 277.874276 
L 200.513472 277.874276 
L 201.49493 277.874276 
L 202.721752 277.874276 
L 203.752282 277.874276 
L 204.979104 277.874276 
L 207.874404 277.874276 
L 209.395664 277.874276 
L 210.86785 277.874276 
L 212.38911 277.874276 
L 213.861296 277.874276 
L 215.382555 277.874276 
L 216.903815 277.874276 
L 218.326928 277.874276 
L 219.848187 277.874276 
L 221.320374 277.874276 
L 222.841633 277.874276 
L 224.31382 277.874276 
L 225.835079 277.874276 
L 227.356338 277.874276 
L 228.828525 277.874276 
L 230.349784 277.874276 
L 231.82197 277.874276 
L 233.34323 277.874276 
L 234.864489 277.874276 
L 236.23853 277.874276 
L 237.759789 277.874276 
L 239.231975 277.874276 
L 240.753235 277.874276 
L 242.225421 277.874276 
L 243.746681 277.874276 
L 245.26794 277.874276 
L 246.740126 277.874276 
L 248.261386 277.874276 
L 249.733572 277.874276 
L 251.254831 277.874276 
L 252.776091 277.874276 
L 254.150131 277.874276 
L 255.671391 277.874276 
L 257.143577 277.874276 
L 258.664836 277.874276 
L 260.137023 277.874276 
L 261.658282 277.874276 
L 263.179541 277.874276 
L 264.651728 277.874276 
L 266.172987 277.874276 
L 267.645174 277.874276 
L 269.166433 277.874276 
L 270.687692 277.874276 
L 272.061733 277.874276 
L 273.582992 277.874276 
L 275.055179 277.874276 
L 276.576438 277.874276 
L 278.048624 277.874276 
L 279.569884 277.874276 
L 281.091143 277.874276 
L 282.56333 277.874276 
L 284.084589 277.874276 
L 285.556775 277.874276 
L 287.078035 277.874276 
L 288.599294 277.874276 
L 290.022407 277.874276 
L 291.543667 277.874276 
L 293.015853 277.874276 
L 294.537113 277.874276 
L 296.009299 277.874276 
L 297.530558 277.874276 
L 299.051818 277.874276 
L 300.524004 277.874276 
L 302.045263 277.874276 
L 303.51745 277.874276 
L 305.038709 277.874276 
L 306.559968 277.874276 
L 307.934009 277.874276 
L 309.455268 277.874276 
L 310.927455 277.874276 
L 312.448714 277.874276 
L 313.920901 277.874276 
L 315.44216 277.874276 
L 316.963419 277.874276 
L 318.435606 277.874276 
L 319.956865 277.874276 
L 321.429051 277.874276 
L 322.950311 277.874276 
L 324.47157 277.874276 
L 325.845611 277.874276 
L 327.36687 277.874276 
L 328.839056 277.874276 
L 330.360316 277.874276 
L 331.832502 277.874276 
L 333.353762 277.874276 
L 334.875021 277.874276 
L 336.347207 277.874276 
L 337.868467 277.874276 
L 339.340653 277.874276 
L 340.861912 277.874276 
L 342.383172 277.874276 
L 343.757212 277.874276 
L 345.278472 277.874276 
L 346.750658 277.874276 
L 348.271917 277.874276 
L 349.744104 277.874276 
L 351.265363 277.874276 
L 352.786622 277.874276 
L 354.258809 277.874276 
L 355.780068 277.874276 
L 357.252255 277.874276 
L 358.773514 277.874276 
L 360.294773 277.874276 
L 361.717887 277.874276 
L 363.239146 277.874276 
L 364.711333 277.874276 
L 366.232592 277.874276 
L 367.704778 277.874276 
L 369.226038 277.874276 
L 370.747297 277.874276 
L 372.219483 277.874276 
L 373.740743 277.874276 
L 375.212929 277.874276 
L 376.734188 277.874276 
L 378.255448 277.874276 
L 379.629488 277.874276 
L 381.150748 277.874276 
L 382.622934 277.874276 
L 384.144194 277.874276 
L 385.61638 277.874276 
L 387.137639 277.874276 
L 388.658899 277.874276 
L 390.131085 277.874276 
L 391.652344 277.874276 
L 393.124531 277.874276 
L 394.64579 277.874276 
L 396.167049 277.874276 
L 397.54109 277.874276 
L 399.062349 277.874276 
L 400.534536 277.874276 
L 402.055795 277.874276 
L 403.527982 277.874276 
L 405.049241 277.874276 
L 406.5705 277.874276 
L 408.042687 277.874276 
L 409.563946 277.874276 
L 411.036132 277.874276 
L 412.557392 277.874276 
L 414.078651 277.874276 
L 415.452692 277.874276 
L 416.973951 277.874276 
L 418.446137 277.874276 
L 419.967397 277.874276 
L 421.439583 277.874276 
L 422.960842 277.874276 
L 424.482102 277.874276 
L 425.954288 277.874276 
L 427.475548 277.874276 
L 428.947734 277.874276 
L 430.468993 277.874276 
L 431.990253 277.874276 
L 433.413366 277.874276 
L 434.934625 277.874276 
L 436.406812 277.874276 
L 437.928071 277.874276 
L 439.400258 277.874276 
L 440.921517 277.874276 
L 442.442776 277.874276 
L 443.914963 277.874276 
L 445.436222 277.874276 
L 446.908408 277.874276 
L 448.429668 277.874276 
L 449.950927 277.874276 
L 449.950927 171.327236 
L 449.950927 171.327236 
L 448.429668 173.56496 
L 446.908408 174.350126 
L 445.436222 174.585676 
L 443.914963 174.585676 
L 442.442776 174.821225 
L 440.921517 174.821225 
L 439.400258 175.684908 
L 437.928071 176.234524 
L 436.406812 176.352299 
L 434.934625 176.470074 
L 433.413366 176.548591 
L 431.990253 178.236698 
L 430.468993 178.354473 
L 428.947734 178.393731 
L 427.475548 178.629281 
L 425.954288 178.747056 
L 424.482102 178.786314 
L 422.960842 178.904089 
L 421.439583 179.375189 
L 419.967397 179.610739 
L 418.446137 179.728514 
L 416.973951 179.728514 
L 415.452692 180.081838 
L 414.078651 180.670713 
L 412.557392 180.631455 
L 411.036132 180.74923 
L 409.563946 180.867004 
L 408.042687 181.102554 
L 406.5705 181.102554 
L 405.049241 181.141813 
L 403.527982 181.141813 
L 402.055795 181.102554 
L 400.534536 181.181071 
L 399.062349 181.102554 
L 397.54109 181.063296 
L 396.167049 181.102554 
L 394.64579 181.102554 
L 393.124531 181.298846 
L 391.652344 181.495137 
L 390.131085 181.809204 
L 388.658899 182.044754 
L 387.137639 182.005495 
L 385.61638 182.201787 
L 384.144194 182.476595 
L 382.622934 182.476595 
L 381.150748 182.633628 
L 379.629488 183.143986 
L 378.255448 183.261761 
L 376.734188 183.693602 
L 375.212929 183.732861 
L 373.740743 183.889894 
L 372.219483 183.968411 
L 370.747297 184.125444 
L 369.226038 184.164702 
L 367.704778 184.243219 
L 366.232592 184.243219 
L 364.711333 184.321735 
L 363.239146 184.67506 
L 361.717887 184.792835 
L 360.294773 184.871352 
L 358.773514 184.949868 
L 357.252255 184.949868 
L 355.780068 184.949868 
L 354.258809 185.067643 
L 352.786622 185.14616 
L 351.265363 185.303193 
L 349.744104 185.538743 
L 348.271917 185.656518 
L 346.750658 185.735034 
L 345.278472 185.813551 
L 343.757212 185.852809 
L 342.383172 185.852809 
L 340.861912 185.892067 
L 339.340653 185.931326 
L 337.868467 186.009842 
L 336.347207 186.049101 
L 334.875021 186.049101 
L 333.353762 186.166876 
L 331.832502 186.28465 
L 330.360316 186.5202 
L 328.839056 186.677234 
L 327.36687 186.9913 
L 325.845611 187.148333 
L 324.47157 187.305366 
L 322.950311 187.344625 
L 321.429051 187.501658 
L 319.956865 187.658691 
L 318.435606 189.386057 
L 316.963419 189.660865 
L 315.44216 190.406773 
L 313.920901 189.77864 
L 312.448714 189.700123 
L 310.927455 189.739381 
L 309.455268 189.817898 
L 307.934009 190.092706 
L 306.559968 190.131964 
L 305.038709 190.210481 
L 303.51745 190.956389 
L 302.045263 191.074164 
L 300.524004 191.270455 
L 299.051818 191.348972 
L 297.530558 191.466747 
L 296.009299 191.898588 
L 294.537113 192.09488 
L 293.015853 192.09488 
L 291.543667 192.487463 
L 290.022407 192.565979 
L 288.599294 192.605238 
L 287.078035 192.801529 
L 285.556775 192.880046 
L 284.084589 192.880046 
L 282.56333 193.076337 
L 281.091143 193.115596 
L 279.569884 193.154854 
L 278.048624 193.311887 
L 276.576438 193.429662 
L 275.055179 192.840787 
L 273.582992 192.919304 
L 272.061733 193.115596 
L 270.687692 193.115596 
L 269.166433 193.351145 
L 267.645174 193.508179 
L 266.172987 193.782987 
L 264.651728 194.136311 
L 263.179541 194.450378 
L 261.658282 194.528895 
L 260.137023 194.803703 
L 258.664836 195.039252 
L 257.143577 195.392577 
L 255.671391 195.54961 
L 254.150131 195.745902 
L 252.776091 195.78516 
L 251.254831 195.78516 
L 249.733572 195.981452 
L 248.261386 196.452551 
L 246.740126 196.49181 
L 245.26794 196.72736 
L 243.746681 197.394751 
L 242.225421 197.473267 
L 240.753235 197.944367 
L 239.231975 198.258433 
L 237.759789 199.318408 
L 236.23853 199.396924 
L 234.864489 199.514699 
L 233.34323 199.789507 
L 231.82197 199.868024 
L 230.349784 200.103574 
L 228.828525 200.299865 
L 227.356338 200.65319 
L 225.835079 200.849482 
L 224.31382 200.967257 
L 222.841633 201.202806 
L 221.320374 201.242065 
L 219.848187 201.35984 
L 218.326928 201.516873 
L 216.903815 201.516873 
L 215.382555 201.595389 
L 213.861296 201.634648 
L 212.38911 201.673906 
L 210.86785 201.713164 
L 209.395664 201.752423 
L 207.874404 201.870198 
L 204.979104 202.616105 
L 203.752282 202.812397 
L 202.721752 202.851655 
L 201.49493 202.73388 
L 200.513472 202.73388 
L 199.139432 202.851655 
L 196.342277 202.96943 
L 193.643269 203.597563 
L 192.80903 204.539762 
L 191.484062 204.382729 
L 190.110021 204.343471 
L 188.441544 205.05012 
L 187.411013 205.05012 
L 186.380483 204.81457 
L 181.865777 205.324928 
L 180.933393 205.403445 
L 176.12425 206.070836 
L 173.719679 206.149353 
L 172.934513 205.99232 
L 171.953055 206.110094 
L 171.315108 206.306386 
L 170.775306 206.345644 
L 167.536496 206.463419 
L 164.052322 206.541936 
L 162.285698 206.738227 
L 160.568147 208.818918 
L 157.476556 208.740401 
L 156.691389 208.779659 
L 155.415495 209.211501 
L 153.354433 210.310733 
L 150.164696 210.546283 
L 148.986947 210.938866 
L 146.238866 211.213674 
L 144.766679 212.038099 
L 143.049128 212.587715 
L 141.086213 213.019556 
L 139.6631 213.058814 
L 138.583496 213.137331 
L 137.847403 213.176589 
L 136.7678 213.215848 
L 135.737269 213.922497 
L 135.050249 214.275822 
L 134.853957 214.275822 
L 134.117864 214.275822 
L 133.136406 214.511372 
L 131.762366 214.275822 
L 131.271637 214.472113 
L 130.731835 214.55063 
L 129.946669 214.668405 
L 129.210576 214.668405 
L 128.523556 214.982471 
L 127.542098 215.689121 
L 127.198588 215.649863 
L 126.266203 216.003187 
L 125.088454 216.081704 
L 124.205142 216.160221 
L 123.714413 216.238737 
L 122.880174 216.356512 
L 122.340373 216.592062 
L 121.506134 216.788353 
L 120.819113 216.709837 
L 119.984874 216.788353 
L 116.746064 217.063162 
L 116.5007 217.023903 
L 114.537785 217.33797 
L 110.268444 215.453571 
L 107.962018 218.240911 
L 99.030754 221.891933 
L 84.6524 225.307406 
L 65.121393 229.704336 
L 48.289395 224.640014 
L 40.094224 224.011882 
L 31.800907 224.836306 
z
" clip-path="url(#pc113b6df6f)" style="fill: #fb363b"/>
   </g>
   <g id="PolyCollection_2">
    <path d="M 31.800907 144.121231 
L 31.800907 224.836306 
L 40.094224 224.011882 
L 48.289395 224.640014 
L 65.121393 229.704336 
L 84.6524 225.307406 
L 99.030754 221.891933 
L 107.962018 218.240911 
L 110.268444 215.453571 
L 114.537785 217.33797 
L 116.5007 217.023903 
L 116.746064 217.063162 
L 119.984874 216.788353 
L 120.819113 216.709837 
L 121.506134 216.788353 
L 122.340373 216.592062 
L 122.880174 216.356512 
L 123.714413 216.238737 
L 124.205142 216.160221 
L 125.088454 216.081704 
L 126.266203 216.003187 
L 127.198588 215.649863 
L 127.542098 215.689121 
L 128.523556 214.982471 
L 129.210576 214.668405 
L 129.946669 214.668405 
L 130.731835 214.55063 
L 131.271637 214.472113 
L 131.762366 214.275822 
L 133.136406 214.511372 
L 134.117864 214.275822 
L 134.853957 214.275822 
L 135.050249 214.275822 
L 135.737269 213.922497 
L 136.7678 213.215848 
L 137.847403 213.176589 
L 138.583496 213.137331 
L 139.6631 213.058814 
L 141.086213 213.019556 
L 143.049128 212.587715 
L 144.766679 212.038099 
L 146.238866 211.213674 
L 148.986947 210.938866 
L 150.164696 210.546283 
L 153.354433 210.310733 
L 155.415495 209.211501 
L 156.691389 208.779659 
L 157.476556 208.740401 
L 160.568147 208.818918 
L 162.285698 206.738227 
L 164.052322 206.541936 
L 167.536496 206.463419 
L 170.775306 206.345644 
L 171.315108 206.306386 
L 171.953055 206.110094 
L 172.934513 205.99232 
L 173.719679 206.149353 
L 176.12425 206.070836 
L 180.933393 205.403445 
L 181.865777 205.324928 
L 186.380483 204.81457 
L 187.411013 205.05012 
L 188.441544 205.05012 
L 190.110021 204.343471 
L 191.484062 204.382729 
L 192.80903 204.539762 
L 193.643269 203.597563 
L 196.342277 202.96943 
L 199.139432 202.851655 
L 200.513472 202.73388 
L 201.49493 202.73388 
L 202.721752 202.851655 
L 203.752282 202.812397 
L 204.979104 202.616105 
L 207.874404 201.870198 
L 209.395664 201.752423 
L 210.86785 201.713164 
L 212.38911 201.673906 
L 213.861296 201.634648 
L 215.382555 201.595389 
L 216.903815 201.516873 
L 218.326928 201.516873 
L 219.848187 201.35984 
L 221.320374 201.242065 
L 222.841633 201.202806 
L 224.31382 200.967257 
L 225.835079 200.849482 
L 227.356338 200.65319 
L 228.828525 200.299865 
L 230.349784 200.103574 
L 231.82197 199.868024 
L 233.34323 199.789507 
L 234.864489 199.514699 
L 236.23853 199.396924 
L 237.759789 199.318408 
L 239.231975 198.258433 
L 240.753235 197.944367 
L 242.225421 197.473267 
L 243.746681 197.394751 
L 245.26794 196.72736 
L 246.740126 196.49181 
L 248.261386 196.452551 
L 249.733572 195.981452 
L 251.254831 195.78516 
L 252.776091 195.78516 
L 254.150131 195.745902 
L 255.671391 195.54961 
L 257.143577 195.392577 
L 258.664836 195.039252 
L 260.137023 194.803703 
L 261.658282 194.528895 
L 263.179541 194.450378 
L 264.651728 194.136311 
L 266.172987 193.782987 
L 267.645174 193.508179 
L 269.166433 193.351145 
L 270.687692 193.115596 
L 272.061733 193.115596 
L 273.582992 192.919304 
L 275.055179 192.840787 
L 276.576438 193.429662 
L 278.048624 193.311887 
L 279.569884 193.154854 
L 281.091143 193.115596 
L 282.56333 193.076337 
L 284.084589 192.880046 
L 285.556775 192.880046 
L 287.078035 192.801529 
L 288.599294 192.605238 
L 290.022407 192.565979 
L 291.543667 192.487463 
L 293.015853 192.09488 
L 294.537113 192.09488 
L 296.009299 191.898588 
L 297.530558 191.466747 
L 299.051818 191.348972 
L 300.524004 191.270455 
L 302.045263 191.074164 
L 303.51745 190.956389 
L 305.038709 190.210481 
L 306.559968 190.131964 
L 307.934009 190.092706 
L 309.455268 189.817898 
L 310.927455 189.739381 
L 312.448714 189.700123 
L 313.920901 189.77864 
L 315.44216 190.406773 
L 316.963419 189.660865 
L 318.435606 189.386057 
L 319.956865 187.658691 
L 321.429051 187.501658 
L 322.950311 187.344625 
L 324.47157 187.305366 
L 325.845611 187.148333 
L 327.36687 186.9913 
L 328.839056 186.677234 
L 330.360316 186.5202 
L 331.832502 186.28465 
L 333.353762 186.166876 
L 334.875021 186.049101 
L 336.347207 186.049101 
L 337.868467 186.009842 
L 339.340653 185.931326 
L 340.861912 185.892067 
L 342.383172 185.852809 
L 343.757212 185.852809 
L 345.278472 185.813551 
L 346.750658 185.735034 
L 348.271917 185.656518 
L 349.744104 185.538743 
L 351.265363 185.303193 
L 352.786622 185.14616 
L 354.258809 185.067643 
L 355.780068 184.949868 
L 357.252255 184.949868 
L 358.773514 184.949868 
L 360.294773 184.871352 
L 361.717887 184.792835 
L 363.239146 184.67506 
L 364.711333 184.321735 
L 366.232592 184.243219 
L 367.704778 184.243219 
L 369.226038 184.164702 
L 370.747297 184.125444 
L 372.219483 183.968411 
L 373.740743 183.889894 
L 375.212929 183.732861 
L 376.734188 183.693602 
L 378.255448 183.261761 
L 379.629488 183.143986 
L 381.150748 182.633628 
L 382.622934 182.476595 
L 384.144194 182.476595 
L 385.61638 182.201787 
L 387.137639 182.005495 
L 388.658899 182.044754 
L 390.131085 181.809204 
L 391.652344 181.495137 
L 393.124531 181.298846 
L 394.64579 181.102554 
L 396.167049 181.102554 
L 397.54109 181.063296 
L 399.062349 181.102554 
L 400.534536 181.181071 
L 402.055795 181.102554 
L 403.527982 181.141813 
L 405.049241 181.141813 
L 406.5705 181.102554 
L 408.042687 181.102554 
L 409.563946 180.867004 
L 411.036132 180.74923 
L 412.557392 180.631455 
L 414.078651 180.670713 
L 415.452692 180.081838 
L 416.973951 179.728514 
L 418.446137 179.728514 
L 419.967397 179.610739 
L 421.439583 179.375189 
L 422.960842 178.904089 
L 424.482102 178.786314 
L 425.954288 178.747056 
L 427.475548 178.629281 
L 428.947734 178.393731 
L 430.468993 178.354473 
L 431.990253 178.236698 
L 433.413366 176.548591 
L 434.934625 176.470074 
L 436.406812 176.352299 
L 437.928071 176.234524 
L 439.400258 175.684908 
L 440.921517 174.821225 
L 442.442776 174.821225 
L 443.914963 174.585676 
L 445.436222 174.585676 
L 446.908408 174.350126 
L 448.429668 173.56496 
L 449.950927 171.327236 
L 449.950927 101.957812 
L 449.950927 101.957812 
L 448.429668 101.918553 
L 446.908408 102.46817 
L 445.436222 102.546686 
L 443.914963 102.664461 
L 442.442776 102.703719 
L 440.921517 102.939269 
L 439.400258 102.821494 
L 437.928071 102.782236 
L 436.406812 102.939269 
L 434.934625 103.017786 
L 433.413366 102.978527 
L 431.990253 103.253336 
L 430.468993 103.528144 
L 428.947734 103.528144 
L 427.475548 103.645919 
L 425.954288 103.802952 
L 424.482102 103.881468 
L 422.960842 103.881468 
L 421.439583 104.156277 
L 419.967397 104.391826 
L 418.446137 104.509601 
L 416.973951 104.509601 
L 415.452692 104.54886 
L 414.078651 104.705893 
L 412.557392 104.823668 
L 411.036132 104.902184 
L 409.563946 104.902184 
L 408.042687 104.941443 
L 406.5705 104.823668 
L 405.049241 104.862926 
L 403.527982 104.862926 
L 402.055795 105.059218 
L 400.534536 105.019959 
L 399.062349 105.019959 
L 397.54109 105.059218 
L 396.167049 105.137734 
L 394.64579 105.137734 
L 393.124531 105.255509 
L 391.652344 105.216251 
L 390.131085 105.334026 
L 388.658899 105.373284 
L 387.137639 105.412542 
L 385.61638 105.451801 
L 384.144194 105.491059 
L 382.622934 105.451801 
L 381.150748 105.569576 
L 379.629488 105.765867 
L 378.255448 105.9229 
L 376.734188 105.962159 
L 375.212929 105.962159 
L 373.740743 106.040675 
L 372.219483 106.079934 
L 370.747297 106.15845 
L 369.226038 106.15845 
L 367.704778 106.197708 
L 366.232592 106.236967 
L 364.711333 106.119192 
L 363.239146 106.079934 
L 361.717887 106.119192 
L 360.294773 106.040675 
L 358.773514 106.040675 
L 357.252255 106.040675 
L 355.780068 106.040675 
L 354.258809 106.040675 
L 352.786622 106.079934 
L 351.265363 106.040675 
L 349.744104 106.079934 
L 348.271917 106.079934 
L 346.750658 105.962159 
L 345.278472 105.962159 
L 343.757212 106.001417 
L 342.383172 106.001417 
L 340.861912 106.079934 
L 339.340653 106.079934 
L 337.868467 106.15845 
L 336.347207 106.15845 
L 334.875021 106.15845 
L 333.353762 106.197708 
L 331.832502 106.197708 
L 330.360316 106.197708 
L 328.839056 106.236967 
L 327.36687 106.276225 
L 325.845611 106.590292 
L 324.47157 106.708066 
L 322.950311 106.62955 
L 321.429051 106.708066 
L 319.956865 106.825841 
L 318.435606 106.8651 
L 316.963419 107.414716 
L 315.44216 107.728782 
L 313.920901 109.887989 
L 312.448714 111.104997 
L 310.927455 111.536838 
L 309.455268 111.536838 
L 307.934009 111.850904 
L 306.559968 111.772388 
L 305.038709 110.987222 
L 303.51745 111.183513 
L 302.045263 111.615355 
L 300.524004 111.615355 
L 299.051818 111.49758 
L 297.530558 111.654613 
L 296.009299 111.693871 
L 294.537113 111.693871 
L 293.015853 111.733129 
L 291.543667 111.811646 
L 290.022407 111.811646 
L 288.599294 111.850904 
L 287.078035 111.850904 
L 285.556775 111.968679 
L 284.084589 112.007938 
L 282.56333 112.047196 
L 281.091143 112.047196 
L 279.569884 112.007938 
L 278.048624 112.047196 
L 276.576438 112.007938 
L 275.055179 112.63607 
L 273.582992 112.596812 
L 272.061733 112.675329 
L 270.687692 112.753845 
L 269.166433 112.87162 
L 267.645174 112.832362 
L 266.172987 113.10717 
L 264.651728 113.224945 
L 263.179541 113.381978 
L 261.658282 113.57827 
L 260.137023 113.617528 
L 258.664836 113.539011 
L 257.143577 113.617528 
L 255.671391 113.656786 
L 254.150131 113.656786 
L 252.776091 113.656786 
L 251.254831 113.656786 
L 249.733572 113.81382 
L 248.261386 113.892336 
L 246.740126 114.127886 
L 245.26794 114.167144 
L 243.746681 114.402694 
L 242.225421 114.481211 
L 240.753235 114.716761 
L 239.231975 114.834536 
L 237.759789 114.991569 
L 236.23853 115.030827 
L 234.864489 115.070085 
L 233.34323 115.227119 
L 231.82197 115.227119 
L 230.349784 115.42341 
L 228.828525 115.698218 
L 227.356338 115.855251 
L 225.835079 116.012285 
L 224.31382 116.208576 
L 222.841633 116.287093 
L 221.320374 116.601159 
L 219.848187 116.601159 
L 218.326928 116.640418 
L 216.903815 116.640418 
L 215.382555 116.640418 
L 213.861296 116.640418 
L 212.38911 116.640418 
L 210.86785 116.679676 
L 209.395664 116.836709 
L 207.874404 116.915226 
L 204.979104 117.386325 
L 203.752282 117.9752 
L 202.721752 118.250008 
L 201.49493 117.700392 
L 200.513472 118.014458 
L 199.139432 118.132233 
L 196.342277 118.289266 
L 193.643269 118.289266 
L 192.80903 118.4463 
L 191.484062 118.956658 
L 190.110021 118.917399 
L 188.441544 119.82034 
L 187.411013 119.82034 
L 186.380483 120.252182 
L 181.865777 120.52699 
L 180.933393 120.605506 
L 176.12425 121.704739 
L 173.719679 122.686197 
L 172.934513 122.725455 
L 171.953055 122.725455 
L 171.315108 122.725455 
L 170.775306 122.764713 
L 167.536496 122.332872 
L 164.052322 122.84323 
L 162.285698 123.039521 
L 160.568147 123.235813 
L 157.476556 123.353588 
L 156.691389 123.432104 
L 155.415495 123.628396 
L 153.354433 123.942462 
L 150.164696 123.785429 
L 148.986947 124.099496 
L 146.238866 124.060237 
L 144.766679 123.981721 
L 143.049128 124.335045 
L 141.086213 124.256529 
L 139.6631 124.138754 
L 138.583496 124.413562 
L 137.847403 124.45282 
L 136.7678 123.706912 
L 135.737269 123.746171 
L 135.050249 123.903204 
L 134.853957 123.903204 
L 134.117864 123.863946 
L 133.136406 124.374304 
L 131.762366 123.824687 
L 131.271637 123.824687 
L 130.731835 123.863946 
L 129.946669 123.903204 
L 129.210576 123.706912 
L 128.523556 124.138754 
L 127.542098 124.256529 
L 127.198588 124.020979 
L 126.266203 124.178012 
L 125.088454 124.138754 
L 124.205142 124.649112 
L 123.714413 124.570595 
L 122.880174 124.570595 
L 122.340373 122.803971 
L 121.506134 123.196555 
L 120.819113 122.215097 
L 119.984874 121.979547 
L 116.746064 122.254355 
L 116.5007 122.097322 
L 114.537785 122.37213 
L 110.268444 124.138754 
L 107.962018 125.002437 
L 99.030754 127.083127 
L 84.6524 130.066758 
L 65.121393 133.874813 
L 48.289395 139.959851 
L 40.094224 143.807165 
L 31.800907 144.121231 
z
" clip-path="url(#pc113b6df6f)" style="fill: #fdc92c"/>
   </g>
   <g id="PolyCollection_3">
    <path d="M 31.800907 113.185687 
L 31.800907 144.121231 
L 40.094224 143.807165 
L 48.289395 139.959851 
L 65.121393 133.874813 
L 84.6524 130.066758 
L 99.030754 127.083127 
L 107.962018 125.002437 
L 110.268444 124.138754 
L 114.537785 122.37213 
L 116.5007 122.097322 
L 116.746064 122.254355 
L 119.984874 121.979547 
L 120.819113 122.215097 
L 121.506134 123.196555 
L 122.340373 122.803971 
L 122.880174 124.570595 
L 123.714413 124.570595 
L 124.205142 124.649112 
L 125.088454 124.138754 
L 126.266203 124.178012 
L 127.198588 124.020979 
L 127.542098 124.256529 
L 128.523556 124.138754 
L 129.210576 123.706912 
L 129.946669 123.903204 
L 130.731835 123.863946 
L 131.271637 123.824687 
L 131.762366 123.824687 
L 133.136406 124.374304 
L 134.117864 123.863946 
L 134.853957 123.903204 
L 135.050249 123.903204 
L 135.737269 123.746171 
L 136.7678 123.706912 
L 137.847403 124.45282 
L 138.583496 124.413562 
L 139.6631 124.138754 
L 141.086213 124.256529 
L 143.049128 124.335045 
L 144.766679 123.981721 
L 146.238866 124.060237 
L 148.986947 124.099496 
L 150.164696 123.785429 
L 153.354433 123.942462 
L 155.415495 123.628396 
L 156.691389 123.432104 
L 157.476556 123.353588 
L 160.568147 123.235813 
L 162.285698 123.039521 
L 164.052322 122.84323 
L 167.536496 122.332872 
L 170.775306 122.764713 
L 171.315108 122.725455 
L 171.953055 122.725455 
L 172.934513 122.725455 
L 173.719679 122.686197 
L 176.12425 121.704739 
L 180.933393 120.605506 
L 181.865777 120.52699 
L 186.380483 120.252182 
L 187.411013 119.82034 
L 188.441544 119.82034 
L 190.110021 118.917399 
L 191.484062 118.956658 
L 192.80903 118.4463 
L 193.643269 118.289266 
L 196.342277 118.289266 
L 199.139432 118.132233 
L 200.513472 118.014458 
L 201.49493 117.700392 
L 202.721752 118.250008 
L 203.752282 117.9752 
L 204.979104 117.386325 
L 207.874404 116.915226 
L 209.395664 116.836709 
L 210.86785 116.679676 
L 212.38911 116.640418 
L 213.861296 116.640418 
L 215.382555 116.640418 
L 216.903815 116.640418 
L 218.326928 116.640418 
L 219.848187 116.601159 
L 221.320374 116.601159 
L 222.841633 116.287093 
L 224.31382 116.208576 
L 225.835079 116.012285 
L 227.356338 115.855251 
L 228.828525 115.698218 
L 230.349784 115.42341 
L 231.82197 115.227119 
L 233.34323 115.227119 
L 234.864489 115.070085 
L 236.23853 115.030827 
L 237.759789 114.991569 
L 239.231975 114.834536 
L 240.753235 114.716761 
L 242.225421 114.481211 
L 243.746681 114.402694 
L 245.26794 114.167144 
L 246.740126 114.127886 
L 248.261386 113.892336 
L 249.733572 113.81382 
L 251.254831 113.656786 
L 252.776091 113.656786 
L 254.150131 113.656786 
L 255.671391 113.656786 
L 257.143577 113.617528 
L 258.664836 113.539011 
L 260.137023 113.617528 
L 261.658282 113.57827 
L 263.179541 113.381978 
L 264.651728 113.224945 
L 266.172987 113.10717 
L 267.645174 112.832362 
L 269.166433 112.87162 
L 270.687692 112.753845 
L 272.061733 112.675329 
L 273.582992 112.596812 
L 275.055179 112.63607 
L 276.576438 112.007938 
L 278.048624 112.047196 
L 279.569884 112.007938 
L 281.091143 112.047196 
L 282.56333 112.047196 
L 284.084589 112.007938 
L 285.556775 111.968679 
L 287.078035 111.850904 
L 288.599294 111.850904 
L 290.022407 111.811646 
L 291.543667 111.811646 
L 293.015853 111.733129 
L 294.537113 111.693871 
L 296.009299 111.693871 
L 297.530558 111.654613 
L 299.051818 111.49758 
L 300.524004 111.615355 
L 302.045263 111.615355 
L 303.51745 111.183513 
L 305.038709 110.987222 
L 306.559968 111.772388 
L 307.934009 111.850904 
L 309.455268 111.536838 
L 310.927455 111.536838 
L 312.448714 111.104997 
L 313.920901 109.887989 
L 315.44216 107.728782 
L 316.963419 107.414716 
L 318.435606 106.8651 
L 319.956865 106.825841 
L 321.429051 106.708066 
L 322.950311 106.62955 
L 324.47157 106.708066 
L 325.845611 106.590292 
L 327.36687 106.276225 
L 328.839056 106.236967 
L 330.360316 106.197708 
L 331.832502 106.197708 
L 333.353762 106.197708 
L 334.875021 106.15845 
L 336.347207 106.15845 
L 337.868467 106.15845 
L 339.340653 106.079934 
L 340.861912 106.079934 
L 342.383172 106.001417 
L 343.757212 106.001417 
L 345.278472 105.962159 
L 346.750658 105.962159 
L 348.271917 106.079934 
L 349.744104 106.079934 
L 351.265363 106.040675 
L 352.786622 106.079934 
L 354.258809 106.040675 
L 355.780068 106.040675 
L 357.252255 106.040675 
L 358.773514 106.040675 
L 360.294773 106.040675 
L 361.717887 106.119192 
L 363.239146 106.079934 
L 364.711333 106.119192 
L 366.232592 106.236967 
L 367.704778 106.197708 
L 369.226038 106.15845 
L 370.747297 106.15845 
L 372.219483 106.079934 
L 373.740743 106.040675 
L 375.212929 105.962159 
L 376.734188 105.962159 
L 378.255448 105.9229 
L 379.629488 105.765867 
L 381.150748 105.569576 
L 382.622934 105.451801 
L 384.144194 105.491059 
L 385.61638 105.451801 
L 387.137639 105.412542 
L 388.658899 105.373284 
L 390.131085 105.334026 
L 391.652344 105.216251 
L 393.124531 105.255509 
L 394.64579 105.137734 
L 396.167049 105.137734 
L 397.54109 105.059218 
L 399.062349 105.019959 
L 400.534536 105.019959 
L 402.055795 105.059218 
L 403.527982 104.862926 
L 405.049241 104.862926 
L 406.5705 104.823668 
L 408.042687 104.941443 
L 409.563946 104.902184 
L 411.036132 104.902184 
L 412.557392 104.823668 
L 414.078651 104.705893 
L 415.452692 104.54886 
L 416.973951 104.509601 
L 418.446137 104.509601 
L 419.967397 104.391826 
L 421.439583 104.156277 
L 422.960842 103.881468 
L 424.482102 103.881468 
L 425.954288 103.802952 
L 427.475548 103.645919 
L 428.947734 103.528144 
L 430.468993 103.528144 
L 431.990253 103.253336 
L 433.413366 102.978527 
L 434.934625 103.017786 
L 436.406812 102.939269 
L 437.928071 102.782236 
L 439.400258 102.821494 
L 440.921517 102.939269 
L 442.442776 102.703719 
L 443.914963 102.664461 
L 445.436222 102.546686 
L 446.908408 102.46817 
L 448.429668 101.918553 
L 449.950927 101.957812 
L 449.950927 88.924054 
L 449.950927 88.924054 
L 448.429668 88.924054 
L 446.908408 88.924054 
L 445.436222 88.924054 
L 443.914963 88.924054 
L 442.442776 88.884796 
L 440.921517 89.238121 
L 439.400258 89.473671 
L 437.928071 89.473671 
L 436.406812 89.512929 
L 434.934625 89.512929 
L 433.413366 89.512929 
L 431.990253 89.552187 
L 430.468993 89.552187 
L 428.947734 89.552187 
L 427.475548 89.591445 
L 425.954288 89.591445 
L 424.482102 89.591445 
L 422.960842 89.591445 
L 421.439583 89.669962 
L 419.967397 89.669962 
L 418.446137 89.669962 
L 416.973951 89.669962 
L 415.452692 89.669962 
L 414.078651 89.70922 
L 412.557392 89.70922 
L 411.036132 89.787737 
L 409.563946 89.787737 
L 408.042687 89.826995 
L 406.5705 89.826995 
L 405.049241 89.826995 
L 403.527982 89.826995 
L 402.055795 89.905512 
L 400.534536 89.984029 
L 399.062349 89.984029 
L 397.54109 89.984029 
L 396.167049 89.984029 
L 394.64579 89.984029 
L 393.124531 90.023287 
L 391.652344 89.984029 
L 390.131085 90.062545 
L 388.658899 90.062545 
L 387.137639 90.062545 
L 385.61638 90.101803 
L 384.144194 90.101803 
L 382.622934 90.101803 
L 381.150748 90.141062 
L 379.629488 90.18032 
L 378.255448 90.219578 
L 376.734188 90.219578 
L 375.212929 90.18032 
L 373.740743 90.18032 
L 372.219483 90.18032 
L 370.747297 90.141062 
L 369.226038 90.141062 
L 367.704778 90.18032 
L 366.232592 90.18032 
L 364.711333 90.101803 
L 363.239146 90.062545 
L 361.717887 90.062545 
L 360.294773 90.101803 
L 358.773514 90.101803 
L 357.252255 90.101803 
L 355.780068 90.101803 
L 354.258809 90.101803 
L 352.786622 90.101803 
L 351.265363 90.101803 
L 349.744104 90.101803 
L 348.271917 90.101803 
L 346.750658 90.023287 
L 345.278472 90.023287 
L 343.757212 90.023287 
L 342.383172 90.023287 
L 340.861912 89.984029 
L 339.340653 89.984029 
L 337.868467 90.062545 
L 336.347207 90.062545 
L 334.875021 90.062545 
L 333.353762 90.101803 
L 331.832502 90.101803 
L 330.360316 90.101803 
L 328.839056 90.141062 
L 327.36687 90.18032 
L 325.845611 90.258837 
L 324.47157 90.258837 
L 322.950311 90.258837 
L 321.429051 90.41587 
L 319.956865 90.41587 
L 318.435606 90.41587 
L 316.963419 90.298095 
L 315.44216 90.337353 
L 313.920901 90.533645 
L 312.448714 91.475844 
L 310.927455 91.632877 
L 309.455268 91.672136 
L 307.934009 91.711394 
L 306.559968 91.711394 
L 305.038709 91.711394 
L 303.51745 91.711394 
L 302.045263 91.750652 
L 300.524004 91.750652 
L 299.051818 91.789911 
L 297.530558 91.829169 
L 296.009299 91.868427 
L 294.537113 91.868427 
L 293.015853 91.868427 
L 291.543667 91.868427 
L 290.022407 91.868427 
L 288.599294 91.907685 
L 287.078035 91.907685 
L 285.556775 91.946944 
L 284.084589 91.986202 
L 282.56333 91.986202 
L 281.091143 91.986202 
L 279.569884 91.986202 
L 278.048624 91.986202 
L 276.576438 91.986202 
L 275.055179 91.986202 
L 273.582992 91.986202 
L 272.061733 92.064719 
L 270.687692 92.064719 
L 269.166433 92.064719 
L 267.645174 92.103977 
L 266.172987 92.103977 
L 264.651728 92.143235 
L 263.179541 92.300269 
L 261.658282 93.242468 
L 260.137023 93.242468 
L 258.664836 93.242468 
L 257.143577 93.320984 
L 255.671391 93.320984 
L 254.150131 93.320984 
L 252.776091 93.320984 
L 251.254831 93.320984 
L 249.733572 93.320984 
L 248.261386 93.399501 
L 246.740126 93.320984 
L 245.26794 93.360243 
L 243.746681 93.438759 
L 242.225421 93.517276 
L 240.753235 93.713568 
L 239.231975 93.752826 
L 237.759789 93.752826 
L 236.23853 93.752826 
L 234.864489 93.752826 
L 233.34323 93.831342 
L 231.82197 93.831342 
L 230.349784 93.909859 
L 228.828525 93.909859 
L 227.356338 93.792084 
L 225.835079 93.870601 
L 224.31382 93.870601 
L 222.841633 93.870601 
L 221.320374 93.909859 
L 219.848187 93.909859 
L 218.326928 93.909859 
L 216.903815 93.949117 
L 215.382555 93.949117 
L 213.861296 93.988376 
L 212.38911 93.949117 
L 210.86785 93.949117 
L 209.395664 94.027634 
L 207.874404 94.066892 
L 204.979104 94.3417 
L 203.752282 94.930575 
L 202.721752 95.205383 
L 201.49493 94.57725 
L 200.513472 95.087608 
L 199.139432 95.126866 
L 196.342277 96.029808 
L 193.643269 96.029808 
L 192.80903 95.990549 
L 191.484062 96.147582 
L 190.110021 96.147582 
L 188.441544 96.226099 
L 187.411013 96.226099 
L 186.380483 96.265357 
L 181.865777 96.422391 
L 180.933393 96.422391 
L 176.12425 97.443106 
L 173.719679 97.560881 
L 172.934513 97.60014 
L 171.953055 97.717915 
L 171.315108 97.717915 
L 170.775306 97.717915 
L 167.536496 97.717915 
L 164.052322 97.953464 
L 162.285698 98.071239 
L 160.568147 98.110498 
L 157.476556 98.189014 
L 156.691389 98.306789 
L 155.415495 98.503081 
L 153.354433 98.738631 
L 150.164696 98.895664 
L 148.986947 99.523797 
L 146.238866 99.563055 
L 144.766679 99.837863 
L 143.049128 100.15193 
L 141.086213 100.230446 
L 139.6631 100.230446 
L 138.583496 100.230446 
L 137.847403 100.230446 
L 136.7678 100.387479 
L 135.737269 100.544513 
L 135.050249 100.662287 
L 134.853957 100.662287 
L 134.117864 100.623029 
L 133.136406 101.172645 
L 131.762366 100.701546 
L 131.271637 100.701546 
L 130.731835 100.780062 
L 129.946669 100.780062 
L 129.210576 100.780062 
L 128.523556 101.368937 
L 127.542098 101.368937 
L 127.198588 100.897837 
L 126.266203 101.486712 
L 125.088454 102.585944 
L 124.205142 103.488885 
L 123.714413 103.528144 
L 122.880174 103.528144 
L 122.340373 103.567402 
L 121.506134 104.156277 
L 120.819113 103.60666 
L 119.984874 103.60666 
L 116.746064 103.881468 
L 116.5007 103.920727 
L 114.537785 103.959985 
L 110.268444 101.368937 
L 107.962018 104.117018 
L 99.030754 106.001417 
L 84.6524 107.925074 
L 65.121393 109.259856 
L 48.289395 111.26203 
L 40.094224 113.617528 
L 31.800907 113.185687 
z
" clip-path="url(#pc113b6df6f)" style="fill: #aeaeae"/>
   </g>
   <g id="PolyCollection_4">
    <path d="M 31.800907 89.355896 
L 31.800907 113.185687 
L 40.094224 113.617528 
L 48.289395 111.26203 
L 65.121393 109.259856 
L 84.6524 107.925074 
L 99.030754 106.001417 
L 107.962018 104.117018 
L 110.268444 101.368937 
L 114.537785 103.959985 
L 116.5007 103.920727 
L 116.746064 103.881468 
L 119.984874 103.60666 
L 120.819113 103.60666 
L 121.506134 104.156277 
L 122.340373 103.567402 
L 122.880174 103.528144 
L 123.714413 103.528144 
L 124.205142 103.488885 
L 125.088454 102.585944 
L 126.266203 101.486712 
L 127.198588 100.897837 
L 127.542098 101.368937 
L 128.523556 101.368937 
L 129.210576 100.780062 
L 129.946669 100.780062 
L 130.731835 100.780062 
L 131.271637 100.701546 
L 131.762366 100.701546 
L 133.136406 101.172645 
L 134.117864 100.623029 
L 134.853957 100.662287 
L 135.050249 100.662287 
L 135.737269 100.544513 
L 136.7678 100.387479 
L 137.847403 100.230446 
L 138.583496 100.230446 
L 139.6631 100.230446 
L 141.086213 100.230446 
L 143.049128 100.15193 
L 144.766679 99.837863 
L 146.238866 99.563055 
L 148.986947 99.523797 
L 150.164696 98.895664 
L 153.354433 98.738631 
L 155.415495 98.503081 
L 156.691389 98.306789 
L 157.476556 98.189014 
L 160.568147 98.110498 
L 162.285698 98.071239 
L 164.052322 97.953464 
L 167.536496 97.717915 
L 170.775306 97.717915 
L 171.315108 97.717915 
L 171.953055 97.717915 
L 172.934513 97.60014 
L 173.719679 97.560881 
L 176.12425 97.443106 
L 180.933393 96.422391 
L 181.865777 96.422391 
L 186.380483 96.265357 
L 187.411013 96.226099 
L 188.441544 96.226099 
L 190.110021 96.147582 
L 191.484062 96.147582 
L 192.80903 95.990549 
L 193.643269 96.029808 
L 196.342277 96.029808 
L 199.139432 95.126866 
L 200.513472 95.087608 
L 201.49493 94.57725 
L 202.721752 95.205383 
L 203.752282 94.930575 
L 204.979104 94.3417 
L 207.874404 94.066892 
L 209.395664 94.027634 
L 210.86785 93.949117 
L 212.38911 93.949117 
L 213.861296 93.988376 
L 215.382555 93.949117 
L 216.903815 93.949117 
L 218.326928 93.909859 
L 219.848187 93.909859 
L 221.320374 93.909859 
L 222.841633 93.870601 
L 224.31382 93.870601 
L 225.835079 93.870601 
L 227.356338 93.792084 
L 228.828525 93.909859 
L 230.349784 93.909859 
L 231.82197 93.831342 
L 233.34323 93.831342 
L 234.864489 93.752826 
L 236.23853 93.752826 
L 237.759789 93.752826 
L 239.231975 93.752826 
L 240.753235 93.713568 
L 242.225421 93.517276 
L 243.746681 93.438759 
L 245.26794 93.360243 
L 246.740126 93.320984 
L 248.261386 93.399501 
L 249.733572 93.320984 
L 251.254831 93.320984 
L 252.776091 93.320984 
L 254.150131 93.320984 
L 255.671391 93.320984 
L 257.143577 93.320984 
L 258.664836 93.242468 
L 260.137023 93.242468 
L 261.658282 93.242468 
L 263.179541 92.300269 
L 264.651728 92.143235 
L 266.172987 92.103977 
L 267.645174 92.103977 
L 269.166433 92.064719 
L 270.687692 92.064719 
L 272.061733 92.064719 
L 273.582992 91.986202 
L 275.055179 91.986202 
L 276.576438 91.986202 
L 278.048624 91.986202 
L 279.569884 91.986202 
L 281.091143 91.986202 
L 282.56333 91.986202 
L 284.084589 91.986202 
L 285.556775 91.946944 
L 287.078035 91.907685 
L 288.599294 91.907685 
L 290.022407 91.868427 
L 291.543667 91.868427 
L 293.015853 91.868427 
L 294.537113 91.868427 
L 296.009299 91.868427 
L 297.530558 91.829169 
L 299.051818 91.789911 
L 300.524004 91.750652 
L 302.045263 91.750652 
L 303.51745 91.711394 
L 305.038709 91.711394 
L 306.559968 91.711394 
L 307.934009 91.711394 
L 309.455268 91.672136 
L 310.927455 91.632877 
L 312.448714 91.475844 
L 313.920901 90.533645 
L 315.44216 90.337353 
L 316.963419 90.298095 
L 318.435606 90.41587 
L 319.956865 90.41587 
L 321.429051 90.41587 
L 322.950311 90.258837 
L 324.47157 90.258837 
L 325.845611 90.258837 
L 327.36687 90.18032 
L 328.839056 90.141062 
L 330.360316 90.101803 
L 331.832502 90.101803 
L 333.353762 90.101803 
L 334.875021 90.062545 
L 336.347207 90.062545 
L 337.868467 90.062545 
L 339.340653 89.984029 
L 340.861912 89.984029 
L 342.383172 90.023287 
L 343.757212 90.023287 
L 345.278472 90.023287 
L 346.750658 90.023287 
L 348.271917 90.101803 
L 349.744104 90.101803 
L 351.265363 90.101803 
L 352.786622 90.101803 
L 354.258809 90.101803 
L 355.780068 90.101803 
L 357.252255 90.101803 
L 358.773514 90.101803 
L 360.294773 90.101803 
L 361.717887 90.062545 
L 363.239146 90.062545 
L 364.711333 90.101803 
L 366.232592 90.18032 
L 367.704778 90.18032 
L 369.226038 90.141062 
L 370.747297 90.141062 
L 372.219483 90.18032 
L 373.740743 90.18032 
L 375.212929 90.18032 
L 376.734188 90.219578 
L 378.255448 90.219578 
L 379.629488 90.18032 
L 381.150748 90.141062 
L 382.622934 90.101803 
L 384.144194 90.101803 
L 385.61638 90.101803 
L 387.137639 90.062545 
L 388.658899 90.062545 
L 390.131085 90.062545 
L 391.652344 89.984029 
L 393.124531 90.023287 
L 394.64579 89.984029 
L 396.167049 89.984029 
L 397.54109 89.984029 
L 399.062349 89.984029 
L 400.534536 89.984029 
L 402.055795 89.905512 
L 403.527982 89.826995 
L 405.049241 89.826995 
L 406.5705 89.826995 
L 408.042687 89.826995 
L 409.563946 89.787737 
L 411.036132 89.787737 
L 412.557392 89.70922 
L 414.078651 89.70922 
L 415.452692 89.669962 
L 416.973951 89.669962 
L 418.446137 89.669962 
L 419.967397 89.669962 
L 421.439583 89.669962 
L 422.960842 89.591445 
L 424.482102 89.591445 
L 425.954288 89.591445 
L 427.475548 89.591445 
L 428.947734 89.552187 
L 430.468993 89.552187 
L 431.990253 89.552187 
L 433.413366 89.512929 
L 434.934625 89.512929 
L 436.406812 89.512929 
L 437.928071 89.473671 
L 439.400258 89.473671 
L 440.921517 89.238121 
L 442.442776 88.884796 
L 443.914963 88.924054 
L 445.436222 88.924054 
L 446.908408 88.924054 
L 448.429668 88.924054 
L 449.950927 88.924054 
L 449.950927 79.266511 
L 449.950927 79.266511 
L 448.429668 79.266511 
L 446.908408 79.266511 
L 445.436222 79.266511 
L 443.914963 79.30577 
L 442.442776 79.30577 
L 440.921517 79.30577 
L 439.400258 79.345028 
L 437.928071 79.345028 
L 436.406812 79.345028 
L 434.934625 79.345028 
L 433.413366 79.345028 
L 431.990253 79.345028 
L 430.468993 79.345028 
L 428.947734 79.345028 
L 427.475548 79.345028 
L 425.954288 79.345028 
L 424.482102 79.345028 
L 422.960842 79.345028 
L 421.439583 79.345028 
L 419.967397 79.345028 
L 418.446137 79.345028 
L 416.973951 79.345028 
L 415.452692 79.345028 
L 414.078651 79.541319 
L 412.557392 79.580578 
L 411.036132 79.619836 
L 409.563946 79.619836 
L 408.042687 79.619836 
L 406.5705 79.619836 
L 405.049241 79.619836 
L 403.527982 79.619836 
L 402.055795 79.619836 
L 400.534536 79.619836 
L 399.062349 79.619836 
L 397.54109 79.659094 
L 396.167049 79.619836 
L 394.64579 79.619836 
L 393.124531 79.659094 
L 391.652344 79.384286 
L 390.131085 79.384286 
L 388.658899 79.030961 
L 387.137639 79.030961 
L 385.61638 79.030961 
L 384.144194 79.030961 
L 382.622934 79.030961 
L 381.150748 79.030961 
L 379.629488 79.07022 
L 378.255448 79.07022 
L 376.734188 79.07022 
L 375.212929 79.030961 
L 373.740743 79.030961 
L 372.219483 79.030961 
L 370.747297 79.07022 
L 369.226038 79.07022 
L 367.704778 79.07022 
L 366.232592 79.07022 
L 364.711333 78.991703 
L 363.239146 78.952445 
L 361.717887 78.952445 
L 360.294773 78.952445 
L 358.773514 78.952445 
L 357.252255 78.952445 
L 355.780068 78.952445 
L 354.258809 78.952445 
L 352.786622 78.952445 
L 351.265363 78.952445 
L 349.744104 78.952445 
L 348.271917 78.952445 
L 346.750658 78.873928 
L 345.278472 78.873928 
L 343.757212 78.873928 
L 342.383172 78.873928 
L 340.861912 78.873928 
L 339.340653 78.873928 
L 337.868467 78.873928 
L 336.347207 78.873928 
L 334.875021 78.873928 
L 333.353762 78.83467 
L 331.832502 78.83467 
L 330.360316 78.83467 
L 328.839056 78.83467 
L 327.36687 78.83467 
L 325.845611 78.83467 
L 324.47157 78.83467 
L 322.950311 78.83467 
L 321.429051 78.83467 
L 319.956865 78.83467 
L 318.435606 78.83467 
L 316.963419 78.83467 
L 315.44216 78.83467 
L 313.920901 78.83467 
L 312.448714 78.83467 
L 310.927455 78.83467 
L 309.455268 78.83467 
L 307.934009 78.83467 
L 306.559968 78.83467 
L 305.038709 78.83467 
L 303.51745 78.83467 
L 302.045263 78.83467 
L 300.524004 78.83467 
L 299.051818 78.83467 
L 297.530558 78.83467 
L 296.009299 78.83467 
L 294.537113 78.83467 
L 293.015853 78.83467 
L 291.543667 78.83467 
L 290.022407 79.187995 
L 288.599294 79.227253 
L 287.078035 79.227253 
L 285.556775 79.227253 
L 284.084589 79.384286 
L 282.56333 79.384286 
L 281.091143 79.384286 
L 279.569884 79.384286 
L 278.048624 79.384286 
L 276.576438 79.384286 
L 275.055179 79.384286 
L 273.582992 79.384286 
L 272.061733 79.384286 
L 270.687692 79.384286 
L 269.166433 79.384286 
L 267.645174 79.423545 
L 266.172987 79.423545 
L 264.651728 79.423545 
L 263.179541 79.423545 
L 261.658282 79.148736 
L 260.137023 79.30577 
L 258.664836 79.266511 
L 257.143577 79.266511 
L 255.671391 79.266511 
L 254.150131 79.266511 
L 252.776091 79.266511 
L 251.254831 79.266511 
L 249.733572 79.266511 
L 248.261386 79.30577 
L 246.740126 79.30577 
L 245.26794 79.30577 
L 243.746681 79.266511 
L 242.225421 79.266511 
L 240.753235 79.266511 
L 239.231975 79.266511 
L 237.759789 79.266511 
L 236.23853 79.266511 
L 234.864489 79.266511 
L 233.34323 79.266511 
L 231.82197 79.266511 
L 230.349784 79.266511 
L 228.828525 79.30577 
L 227.356338 79.266511 
L 225.835079 79.30577 
L 224.31382 79.266511 
L 222.841633 79.266511 
L 221.320374 79.266511 
L 219.848187 79.266511 
L 218.326928 79.266511 
L 216.903815 79.266511 
L 215.382555 79.30577 
L 213.861296 79.30577 
L 212.38911 79.266511 
L 210.86785 79.266511 
L 209.395664 79.266511 
L 207.874404 79.345028 
L 204.979104 79.619836 
L 203.752282 80.287227 
L 202.721752 80.365744 
L 201.49493 79.737611 
L 200.513472 81.268685 
L 199.139432 81.268685 
L 196.342277 82.681984 
L 193.643269 82.681984 
L 192.80903 82.642726 
L 191.484062 82.799759 
L 190.110021 82.7605 
L 188.441544 82.7605 
L 187.411013 82.7605 
L 186.380483 82.7605 
L 181.865777 83.074567 
L 180.933393 83.074567 
L 176.12425 83.270858 
L 173.719679 83.2316 
L 172.934513 83.2316 
L 171.953055 83.310117 
L 171.315108 83.310117 
L 170.775306 83.310117 
L 167.536496 83.859733 
L 164.052322 83.977508 
L 162.285698 83.977508 
L 160.568147 83.977508 
L 157.476556 83.977508 
L 156.691389 83.93825 
L 155.415495 83.93825 
L 153.354433 83.820475 
L 150.164696 83.781216 
L 148.986947 84.801932 
L 146.238866 84.919707 
L 144.766679 85.037482 
L 143.049128 84.919707 
L 141.086213 84.919707 
L 139.6631 84.880449 
L 138.583496 84.880449 
L 137.847403 84.880449 
L 136.7678 84.841191 
L 135.737269 84.841191 
L 135.050249 84.880449 
L 134.853957 84.880449 
L 134.117864 84.880449 
L 133.136406 85.31229 
L 131.762366 84.880449 
L 131.271637 84.880449 
L 130.731835 84.919707 
L 129.946669 84.841191 
L 129.210576 84.841191 
L 128.523556 85.233774 
L 127.542098 85.155257 
L 127.198588 84.723416 
L 126.266203 85.273032 
L 125.088454 85.115999 
L 124.205142 85.155257 
L 123.714413 85.155257 
L 122.880174 85.155257 
L 122.340373 85.194515 
L 121.506134 85.704873 
L 120.819113 85.155257 
L 119.984874 85.155257 
L 116.746064 86.136715 
L 116.5007 86.175973 
L 114.537785 86.136715 
L 110.268444 85.233774 
L 107.962018 86.136715 
L 99.030754 86.921881 
L 84.6524 87.353722 
L 65.121393 88.060372 
L 48.289395 88.492213 
L 40.094224 89.512929 
L 31.800907 89.355896 
z
" clip-path="url(#pc113b6df6f)" style="fill: #d5dce5"/>
   </g>
   <g id="matplotlib.axis_1">
    <g id="xtick_1">
     <g id="line2d_1">
      <defs>
       <path id="m0b70e6f2e9" d="M 0 0 
L 0 3.5 
" style="stroke: #000000; stroke-width: 0.8"/>
      </defs>
      <g>
       <use xlink:href="#m0b70e6f2e9" x="71.991597" y="277.874276" style="stroke: #000000; stroke-width: 0.8"/>
      </g>
     </g>
     <g id="text_1">
      <!-- 2004 -->
      <g transform="translate(59.266597 292.472713) scale(0.1 -0.1)">
       <defs>
        <path id="DejaVuSans-32" d="M 1228 531 
L 3431 531 
L 3431 0 
L 469 0 
L 469 531 
Q 828 903 1448 1529 
Q 2069 2156 2228 2338 
Q 2531 2678 2651 2914 
Q 2772 3150 2772 3378 
Q 2772 3750 2511 3984 
Q 2250 4219 1831 4219 
Q 1534 4219 1204 4116 
Q 875 4013 500 3803 
L 500 4441 
Q 881 4594 1212 4672 
Q 1544 4750 1819 4750 
Q 2544 4750 2975 4387 
Q 3406 4025 3406 3419 
Q 3406 3131 3298 2873 
Q 3191 2616 2906 2266 
Q 2828 2175 2409 1742 
Q 1991 1309 1228 531 
z
" transform="scale(0.015625)"/>
        <path id="DejaVuSans-30" d="M 2034 4250 
Q 1547 4250 1301 3770 
Q 1056 3291 1056 2328 
Q 1056 1369 1301 889 
Q 1547 409 2034 409 
Q 2525 409 2770 889 
Q 3016 1369 3016 2328 
Q 3016 3291 2770 3770 
Q 2525 4250 2034 4250 
z
M 2034 4750 
Q 2819 4750 3233 4129 
Q 3647 3509 3647 2328 
Q 3647 1150 3233 529 
Q 2819 -91 2034 -91 
Q 1250 -91 836 529 
Q 422 1150 422 2328 
Q 422 3509 836 4129 
Q 1250 4750 2034 4750 
z
" transform="scale(0.015625)"/>
        <path id="DejaVuSans-34" d="M 2419 4116 
L 825 1625 
L 2419 1625 
L 2419 4116 
z
M 2253 4666 
L 3047 4666 
L 3047 1625 
L 3713 1625 
L 3713 1100 
L 3047 1100 
L 3047 0 
L 2419 0 
L 2419 1100 
L 313 1100 
L 313 1709 
L 2253 4666 
z
" transform="scale(0.015625)"/>
       </defs>
       <use xlink:href="#DejaVuSans-32"/>
       <use xlink:href="#DejaVuSans-30" x="63.623047"/>
       <use xlink:href="#DejaVuSans-30" x="127.246094"/>
       <use xlink:href="#DejaVuSans-34" x="190.869141"/>
      </g>
     </g>
    </g>
    <g id="xtick_2">
     <g id="line2d_2">
      <g>
       <use xlink:href="#m0b70e6f2e9" x="143.687076" y="277.874276" style="stroke: #000000; stroke-width: 0.8"/>
      </g>
     </g>
     <g id="text_2">
      <!-- 2008 -->
      <g transform="translate(130.962076 292.472713) scale(0.1 -0.1)">
       <defs>
        <path id="DejaVuSans-38" d="M 2034 2216 
Q 1584 2216 1326 1975 
Q 1069 1734 1069 1313 
Q 1069 891 1326 650 
Q 1584 409 2034 409 
Q 2484 409 2743 651 
Q 3003 894 3003 1313 
Q 3003 1734 2745 1975 
Q 2488 2216 2034 2216 
z
M 1403 2484 
Q 997 2584 770 2862 
Q 544 3141 544 3541 
Q 544 4100 942 4425 
Q 1341 4750 2034 4750 
Q 2731 4750 3128 4425 
Q 3525 4100 3525 3541 
Q 3525 3141 3298 2862 
Q 3072 2584 2669 2484 
Q 3125 2378 3379 2068 
Q 3634 1759 3634 1313 
Q 3634 634 3220 271 
Q 2806 -91 2034 -91 
Q 1263 -91 848 271 
Q 434 634 434 1313 
Q 434 1759 690 2068 
Q 947 2378 1403 2484 
z
M 1172 3481 
Q 1172 3119 1398 2916 
Q 1625 2713 2034 2713 
Q 2441 2713 2670 2916 
Q 2900 3119 2900 3481 
Q 2900 3844 2670 4047 
Q 2441 4250 2034 4250 
Q 1625 4250 1398 4047 
Q 1172 3844 1172 3481 
z
" transform="scale(0.015625)"/>
       </defs>
       <use xlink:href="#DejaVuSans-32"/>
       <use xlink:href="#DejaVuSans-30" x="63.623047"/>
       <use xlink:href="#DejaVuSans-30" x="127.246094"/>
       <use xlink:href="#DejaVuSans-38" x="190.869141"/>
      </g>
     </g>
    </g>
    <g id="xtick_3">
     <g id="line2d_3">
      <g>
       <use xlink:href="#m0b70e6f2e9" x="215.382555" y="277.874276" style="stroke: #000000; stroke-width: 0.8"/>
      </g>
     </g>
     <g id="text_3">
      <!-- 2012 -->
      <g transform="translate(202.657555 292.472713) scale(0.1 -0.1)">
       <defs>
        <path id="DejaVuSans-31" d="M 794 531 
L 1825 531 
L 1825 4091 
L 703 3866 
L 703 4441 
L 1819 4666 
L 2450 4666 
L 2450 531 
L 3481 531 
L 3481 0 
L 794 0 
L 794 531 
z
" transform="scale(0.015625)"/>
       </defs>
       <use xlink:href="#DejaVuSans-32"/>
       <use xlink:href="#DejaVuSans-30" x="63.623047"/>
       <use xlink:href="#DejaVuSans-31" x="127.246094"/>
       <use xlink:href="#DejaVuSans-32" x="190.869141"/>
      </g>
     </g>
    </g>
    <g id="xtick_4">
     <g id="line2d_4">
      <g>
       <use xlink:href="#m0b70e6f2e9" x="287.078035" y="277.874276" style="stroke: #000000; stroke-width: 0.8"/>
      </g>
     </g>
     <g id="text_4">
      <!-- 2016 -->
      <g transform="translate(274.353035 292.472713) scale(0.1 -0.1)">
       <defs>
        <path id="DejaVuSans-36" d="M 2113 2584 
Q 1688 2584 1439 2293 
Q 1191 2003 1191 1497 
Q 1191 994 1439 701 
Q 1688 409 2113 409 
Q 2538 409 2786 701 
Q 3034 994 3034 1497 
Q 3034 2003 2786 2293 
Q 2538 2584 2113 2584 
z
M 3366 4563 
L 3366 3988 
Q 3128 4100 2886 4159 
Q 2644 4219 2406 4219 
Q 1781 4219 1451 3797 
Q 1122 3375 1075 2522 
Q 1259 2794 1537 2939 
Q 1816 3084 2150 3084 
Q 2853 3084 3261 2657 
Q 3669 2231 3669 1497 
Q 3669 778 3244 343 
Q 2819 -91 2113 -91 
Q 1303 -91 875 529 
Q 447 1150 447 2328 
Q 447 3434 972 4092 
Q 1497 4750 2381 4750 
Q 2619 4750 2861 4703 
Q 3103 4656 3366 4563 
z
" transform="scale(0.015625)"/>
       </defs>
       <use xlink:href="#DejaVuSans-32"/>
       <use xlink:href="#DejaVuSans-30" x="63.623047"/>
       <use xlink:href="#DejaVuSans-31" x="127.246094"/>
       <use xlink:href="#DejaVuSans-36" x="190.869141"/>
      </g>
     </g>
    </g>
    <g id="xtick_5">
     <g id="line2d_5">
      <g>
       <use xlink:href="#m0b70e6f2e9" x="358.773514" y="277.874276" style="stroke: #000000; stroke-width: 0.8"/>
      </g>
     </g>
     <g id="text_5">
      <!-- 2020 -->
      <g transform="translate(346.048514 292.472713) scale(0.1 -0.1)">
       <use xlink:href="#DejaVuSans-32"/>
       <use xlink:href="#DejaVuSans-30" x="63.623047"/>
       <use xlink:href="#DejaVuSans-32" x="127.246094"/>
       <use xlink:href="#DejaVuSans-30" x="190.869141"/>
      </g>
     </g>
    </g>
    <g id="xtick_6">
     <g id="line2d_6">
      <g>
       <use xlink:href="#m0b70e6f2e9" x="430.468993" y="277.874276" style="stroke: #000000; stroke-width: 0.8"/>
      </g>
     </g>
     <g id="text_6">
      <!-- 2024 -->
      <g transform="translate(417.743993 292.472713) scale(0.1 -0.1)">
       <use xlink:href="#DejaVuSans-32"/>
       <use xlink:href="#DejaVuSans-30" x="63.623047"/>
       <use xlink:href="#DejaVuSans-32" x="127.246094"/>
       <use xlink:href="#DejaVuSans-34" x="190.869141"/>
      </g>
     </g>
    </g>
    <g id="text_7">
     <!-- Year -->
     <g transform="translate(239.86375 309.950057) scale(0.15 -0.15)">
      <defs>
       <path id="DejaVuSans-59" d="M -13 4666 
L 666 4666 
L 1959 2747 
L 3244 4666 
L 3922 4666 
L 2272 2222 
L 2272 0 
L 1638 0 
L 1638 2222 
L -13 4666 
z
" transform="scale(0.015625)"/>
       <path id="DejaVuSans-65" d="M 3597 1894 
L 3597 1613 
L 953 1613 
Q 991 1019 1311 708 
Q 1631 397 2203 397 
Q 2534 397 2845 478 
Q 3156 559 3463 722 
L 3463 178 
Q 3153 47 2828 -22 
Q 2503 -91 2169 -91 
Q 1331 -91 842 396 
Q 353 884 353 1716 
Q 353 2575 817 3079 
Q 1281 3584 2069 3584 
Q 2775 3584 3186 3129 
Q 3597 2675 3597 1894 
z
M 3022 2063 
Q 3016 2534 2758 2815 
Q 2500 3097 2075 3097 
Q 1594 3097 1305 2825 
Q 1016 2553 972 2059 
L 3022 2063 
z
" transform="scale(0.015625)"/>
       <path id="DejaVuSans-61" d="M 2194 1759 
Q 1497 1759 1228 1600 
Q 959 1441 959 1056 
Q 959 750 1161 570 
Q 1363 391 1709 391 
Q 2188 391 2477 730 
Q 2766 1069 2766 1631 
L 2766 1759 
L 2194 1759 
z
M 3341 1997 
L 3341 0 
L 2766 0 
L 2766 531 
Q 2569 213 2275 61 
Q 1981 -91 1556 -91 
Q 1019 -91 701 211 
Q 384 513 384 1019 
Q 384 1609 779 1909 
Q 1175 2209 1959 2209 
L 2766 2209 
L 2766 2266 
Q 2766 2663 2505 2880 
Q 2244 3097 1772 3097 
Q 1472 3097 1187 3025 
Q 903 2953 641 2809 
L 641 3341 
Q 956 3463 1253 3523 
Q 1550 3584 1831 3584 
Q 2591 3584 2966 3190 
Q 3341 2797 3341 1997 
z
" transform="scale(0.015625)"/>
       <path id="DejaVuSans-72" d="M 2631 2963 
Q 2534 3019 2420 3045 
Q 2306 3072 2169 3072 
Q 1681 3072 1420 2755 
Q 1159 2438 1159 1844 
L 1159 0 
L 581 0 
L 581 3500 
L 1159 3500 
L 1159 2956 
Q 1341 3275 1631 3429 
Q 1922 3584 2338 3584 
Q 2397 3584 2469 3576 
Q 2541 3569 2628 3553 
L 2631 2963 
z
" transform="scale(0.015625)"/>
      </defs>
      <use xlink:href="#DejaVuSans-59"/>
      <use xlink:href="#DejaVuSans-65" x="47.833984"/>
      <use xlink:href="#DejaVuSans-61" x="109.357422"/>
      <use xlink:href="#DejaVuSans-72" x="170.636719"/>
     </g>
    </g>
   </g>
   <g id="matplotlib.axis_2">
    <g id="ytick_1">
     <g id="line2d_7">
      <defs>
       <path id="m5b3d4940aa" d="M 0 0 
L -3.5 0 
" style="stroke: #000000; stroke-width: 0.8"/>
      </defs>
      <g>
       <use xlink:href="#m5b3d4940aa" x="61.49" y="277.874276" style="stroke: #000000; stroke-width: 0.8"/>
      </g>
     </g>
     <g id="text_8">
      <!-- 0 -->
      <g transform="translate(48.1275 281.673495) scale(0.1 -0.1)">
       <use xlink:href="#DejaVuSans-30"/>
      </g>
     </g>
    </g>
    <g id="ytick_2">
     <g id="line2d_8">
      <g>
       <use xlink:href="#m5b3d4940aa" x="61.49" y="238.615971" style="stroke: #000000; stroke-width: 0.8"/>
      </g>
     </g>
     <g id="text_9">
      <!-- 1000 -->
      <g transform="translate(29.04 242.41519) scale(0.1 -0.1)">
       <use xlink:href="#DejaVuSans-31"/>
       <use xlink:href="#DejaVuSans-30" x="63.623047"/>
       <use xlink:href="#DejaVuSans-30" x="127.246094"/>
       <use xlink:href="#DejaVuSans-30" x="190.869141"/>
      </g>
     </g>
    </g>
    <g id="ytick_3">
     <g id="line2d_9">
      <g>
       <use xlink:href="#m5b3d4940aa" x="61.49" y="199.357666" style="stroke: #000000; stroke-width: 0.8"/>
      </g>
     </g>
     <g id="text_10">
      <!-- 2000 -->
      <g transform="translate(29.04 203.156885) scale(0.1 -0.1)">
       <use xlink:href="#DejaVuSans-32"/>
       <use xlink:href="#DejaVuSans-30" x="63.623047"/>
       <use xlink:href="#DejaVuSans-30" x="127.246094"/>
       <use xlink:href="#DejaVuSans-30" x="190.869141"/>
      </g>
     </g>
    </g>
    <g id="ytick_4">
     <g id="line2d_10">
      <g>
       <use xlink:href="#m5b3d4940aa" x="61.49" y="160.099361" style="stroke: #000000; stroke-width: 0.8"/>
      </g>
     </g>
     <g id="text_11">
      <!-- 3000 -->
      <g transform="translate(29.04 163.89858) scale(0.1 -0.1)">
       <defs>
        <path id="DejaVuSans-33" d="M 2597 2516 
Q 3050 2419 3304 2112 
Q 3559 1806 3559 1356 
Q 3559 666 3084 287 
Q 2609 -91 1734 -91 
Q 1441 -91 1130 -33 
Q 819 25 488 141 
L 488 750 
Q 750 597 1062 519 
Q 1375 441 1716 441 
Q 2309 441 2620 675 
Q 2931 909 2931 1356 
Q 2931 1769 2642 2001 
Q 2353 2234 1838 2234 
L 1294 2234 
L 1294 2753 
L 1863 2753 
Q 2328 2753 2575 2939 
Q 2822 3125 2822 3475 
Q 2822 3834 2567 4026 
Q 2313 4219 1838 4219 
Q 1578 4219 1281 4162 
Q 984 4106 628 3988 
L 628 4550 
Q 988 4650 1302 4700 
Q 1616 4750 1894 4750 
Q 2613 4750 3031 4423 
Q 3450 4097 3450 3541 
Q 3450 3153 3228 2886 
Q 3006 2619 2597 2516 
z
" transform="scale(0.015625)"/>
       </defs>
       <use xlink:href="#DejaVuSans-33"/>
       <use xlink:href="#DejaVuSans-30" x="63.623047"/>
       <use xlink:href="#DejaVuSans-30" x="127.246094"/>
       <use xlink:href="#DejaVuSans-30" x="190.869141"/>
      </g>
     </g>
    </g>
    <g id="ytick_5">
     <g id="line2d_11">
      <g>
       <use xlink:href="#m5b3d4940aa" x="61.49" y="120.841056" style="stroke: #000000; stroke-width: 0.8"/>
      </g>
     </g>
     <g id="text_12">
      <!-- 4000 -->
      <g transform="translate(29.04 124.640275) scale(0.1 -0.1)">
       <use xlink:href="#DejaVuSans-34"/>
       <use xlink:href="#DejaVuSans-30" x="63.623047"/>
       <use xlink:href="#DejaVuSans-30" x="127.246094"/>
       <use xlink:href="#DejaVuSans-30" x="190.869141"/>
      </g>
     </g>
    </g>
    <g id="ytick_6">
     <g id="line2d_12">
      <g>
       <use xlink:href="#m5b3d4940aa" x="61.49" y="81.582751" style="stroke: #000000; stroke-width: 0.8"/>
      </g>
     </g>
     <g id="text_13">
      <!-- 5000 -->
      <g transform="translate(29.04 85.38197) scale(0.1 -0.1)">
       <defs>
        <path id="DejaVuSans-35" d="M 691 4666 
L 3169 4666 
L 3169 4134 
L 1269 4134 
L 1269 2991 
Q 1406 3038 1543 3061 
Q 1681 3084 1819 3084 
Q 2600 3084 3056 2656 
Q 3513 2228 3513 1497 
Q 3513 744 3044 326 
Q 2575 -91 1722 -91 
Q 1428 -91 1123 -41 
Q 819 9 494 109 
L 494 744 
Q 775 591 1075 516 
Q 1375 441 1709 441 
Q 2250 441 2565 725 
Q 2881 1009 2881 1497 
Q 2881 1984 2565 2268 
Q 2250 2553 1709 2553 
Q 1456 2553 1204 2497 
Q 953 2441 691 2322 
L 691 4666 
z
" transform="scale(0.015625)"/>
       </defs>
       <use xlink:href="#DejaVuSans-35"/>
       <use xlink:href="#DejaVuSans-30" x="63.623047"/>
       <use xlink:href="#DejaVuSans-30" x="127.246094"/>
       <use xlink:href="#DejaVuSans-30" x="190.869141"/>
      </g>
     </g>
    </g>
    <g id="text_14">
     <!-- Number of proteins -->
     <g transform="translate(21.920469 246.067545) rotate(-90) scale(0.15 -0.15)">
      <defs>
       <path id="DejaVuSans-4e" d="M 628 4666 
L 1478 4666 
L 3547 763 
L 3547 4666 
L 4159 4666 
L 4159 0 
L 3309 0 
L 1241 3903 
L 1241 0 
L 628 0 
L 628 4666 
z
" transform="scale(0.015625)"/>
       <path id="DejaVuSans-75" d="M 544 1381 
L 544 3500 
L 1119 3500 
L 1119 1403 
Q 1119 906 1312 657 
Q 1506 409 1894 409 
Q 2359 409 2629 706 
Q 2900 1003 2900 1516 
L 2900 3500 
L 3475 3500 
L 3475 0 
L 2900 0 
L 2900 538 
Q 2691 219 2414 64 
Q 2138 -91 1772 -91 
Q 1169 -91 856 284 
Q 544 659 544 1381 
z
M 1991 3584 
L 1991 3584 
z
" transform="scale(0.015625)"/>
       <path id="DejaVuSans-6d" d="M 3328 2828 
Q 3544 3216 3844 3400 
Q 4144 3584 4550 3584 
Q 5097 3584 5394 3201 
Q 5691 2819 5691 2113 
L 5691 0 
L 5113 0 
L 5113 2094 
Q 5113 2597 4934 2840 
Q 4756 3084 4391 3084 
Q 3944 3084 3684 2787 
Q 3425 2491 3425 1978 
L 3425 0 
L 2847 0 
L 2847 2094 
Q 2847 2600 2669 2842 
Q 2491 3084 2119 3084 
Q 1678 3084 1418 2786 
Q 1159 2488 1159 1978 
L 1159 0 
L 581 0 
L 581 3500 
L 1159 3500 
L 1159 2956 
Q 1356 3278 1631 3431 
Q 1906 3584 2284 3584 
Q 2666 3584 2933 3390 
Q 3200 3197 3328 2828 
z
" transform="scale(0.015625)"/>
       <path id="DejaVuSans-62" d="M 3116 1747 
Q 3116 2381 2855 2742 
Q 2594 3103 2138 3103 
Q 1681 3103 1420 2742 
Q 1159 2381 1159 1747 
Q 1159 1113 1420 752 
Q 1681 391 2138 391 
Q 2594 391 2855 752 
Q 3116 1113 3116 1747 
z
M 1159 2969 
Q 1341 3281 1617 3432 
Q 1894 3584 2278 3584 
Q 2916 3584 3314 3078 
Q 3713 2572 3713 1747 
Q 3713 922 3314 415 
Q 2916 -91 2278 -91 
Q 1894 -91 1617 61 
Q 1341 213 1159 525 
L 1159 0 
L 581 0 
L 581 4863 
L 1159 4863 
L 1159 2969 
z
" transform="scale(0.015625)"/>
       <path id="DejaVuSans-20" transform="scale(0.015625)"/>
       <path id="DejaVuSans-6f" d="M 1959 3097 
Q 1497 3097 1228 2736 
Q 959 2375 959 1747 
Q 959 1119 1226 758 
Q 1494 397 1959 397 
Q 2419 397 2687 759 
Q 2956 1122 2956 1747 
Q 2956 2369 2687 2733 
Q 2419 3097 1959 3097 
z
M 1959 3584 
Q 2709 3584 3137 3096 
Q 3566 2609 3566 1747 
Q 3566 888 3137 398 
Q 2709 -91 1959 -91 
Q 1206 -91 779 398 
Q 353 888 353 1747 
Q 353 2609 779 3096 
Q 1206 3584 1959 3584 
z
" transform="scale(0.015625)"/>
       <path id="DejaVuSans-66" d="M 2375 4863 
L 2375 4384 
L 1825 4384 
Q 1516 4384 1395 4259 
Q 1275 4134 1275 3809 
L 1275 3500 
L 2222 3500 
L 2222 3053 
L 1275 3053 
L 1275 0 
L 697 0 
L 697 3053 
L 147 3053 
L 147 3500 
L 697 3500 
L 697 3744 
Q 697 4328 969 4595 
Q 1241 4863 1831 4863 
L 2375 4863 
z
" transform="scale(0.015625)"/>
       <path id="DejaVuSans-70" d="M 1159 525 
L 1159 -1331 
L 581 -1331 
L 581 3500 
L 1159 3500 
L 1159 2969 
Q 1341 3281 1617 3432 
Q 1894 3584 2278 3584 
Q 2916 3584 3314 3078 
Q 3713 2572 3713 1747 
Q 3713 922 3314 415 
Q 2916 -91 2278 -91 
Q 1894 -91 1617 61 
Q 1341 213 1159 525 
z
M 3116 1747 
Q 3116 2381 2855 2742 
Q 2594 3103 2138 3103 
Q 1681 3103 1420 2742 
Q 1159 2381 1159 1747 
Q 1159 1113 1420 752 
Q 1681 391 2138 391 
Q 2594 391 2855 752 
Q 3116 1113 3116 1747 
z
" transform="scale(0.015625)"/>
       <path id="DejaVuSans-74" d="M 1172 4494 
L 1172 3500 
L 2356 3500 
L 2356 3053 
L 1172 3053 
L 1172 1153 
Q 1172 725 1289 603 
Q 1406 481 1766 481 
L 2356 481 
L 2356 0 
L 1766 0 
Q 1100 0 847 248 
Q 594 497 594 1153 
L 594 3053 
L 172 3053 
L 172 3500 
L 594 3500 
L 594 4494 
L 1172 4494 
z
" transform="scale(0.015625)"/>
       <path id="DejaVuSans-69" d="M 603 3500 
L 1178 3500 
L 1178 0 
L 603 0 
L 603 3500 
z
M 603 4863 
L 1178 4863 
L 1178 4134 
L 603 4134 
L 603 4863 
z
" transform="scale(0.015625)"/>
       <path id="DejaVuSans-6e" d="M 3513 2113 
L 3513 0 
L 2938 0 
L 2938 2094 
Q 2938 2591 2744 2837 
Q 2550 3084 2163 3084 
Q 1697 3084 1428 2787 
Q 1159 2491 1159 1978 
L 1159 0 
L 581 0 
L 581 3500 
L 1159 3500 
L 1159 2956 
Q 1366 3272 1645 3428 
Q 1925 3584 2291 3584 
Q 2894 3584 3203 3211 
Q 3513 2838 3513 2113 
z
" transform="scale(0.015625)"/>
       <path id="DejaVuSans-73" d="M 2834 3397 
L 2834 2853 
Q 2591 2978 2328 3040 
Q 2066 3103 1784 3103 
Q 1356 3103 1142 2972 
Q 928 2841 928 2578 
Q 928 2378 1081 2264 
Q 1234 2150 1697 2047 
L 1894 2003 
Q 2506 1872 2764 1633 
Q 3022 1394 3022 966 
Q 3022 478 2636 193 
Q 2250 -91 1575 -91 
Q 1294 -91 989 -36 
Q 684 19 347 128 
L 347 722 
Q 666 556 975 473 
Q 1284 391 1588 391 
Q 1994 391 2212 530 
Q 2431 669 2431 922 
Q 2431 1156 2273 1281 
Q 2116 1406 1581 1522 
L 1381 1569 
Q 847 1681 609 1914 
Q 372 2147 372 2553 
Q 372 3047 722 3315 
Q 1072 3584 1716 3584 
Q 2034 3584 2315 3537 
Q 2597 3491 2834 3397 
z
" transform="scale(0.015625)"/>
      </defs>
      <use xlink:href="#DejaVuSans-4e"/>
      <use xlink:href="#DejaVuSans-75" x="74.804688"/>
      <use xlink:href="#DejaVuSans-6d" x="138.183594"/>
      <use xlink:href="#DejaVuSans-62" x="235.595703"/>
      <use xlink:href="#DejaVuSans-65" x="299.072266"/>
      <use xlink:href="#DejaVuSans-72" x="360.595703"/>
      <use xlink:href="#DejaVuSans-20" x="401.708984"/>
      <use xlink:href="#DejaVuSans-6f" x="433.496094"/>
      <use xlink:href="#DejaVuSans-66" x="494.677734"/>
      <use xlink:href="#DejaVuSans-20" x="529.882812"/>
      <use xlink:href="#DejaVuSans-70" x="561.669922"/>
      <use xlink:href="#DejaVuSans-72" x="625.146484"/>
      <use xlink:href="#DejaVuSans-6f" x="664.009766"/>
      <use xlink:href="#DejaVuSans-74" x="725.191406"/>
      <use xlink:href="#DejaVuSans-65" x="764.400391"/>
      <use xlink:href="#DejaVuSans-69" x="825.923828"/>
      <use xlink:href="#DejaVuSans-6e" x="853.707031"/>
      <use xlink:href="#DejaVuSans-73" x="917.085938"/>
     </g>
    </g>
   </g>
   <g id="patch_3">
    <path d="M 61.49 277.874276 
L 61.49 68.88269 
" style="fill: none; stroke: #000000; stroke-width: 0.8; stroke-linejoin: miter; stroke-linecap: square"/>
   </g>
   <g id="patch_4">
    <path d="M 61.49 277.874276 
L 450 277.874276 
" style="fill: none; stroke: #000000; stroke-width: 0.8; stroke-linejoin: miter; stroke-linecap: square"/>
   </g>
   <g id="legend_1">
    <g id="patch_5">
     <path d="M 128.755156 63.88269 
L 382.734844 63.88269 
Q 384.734844 63.88269 384.734844 61.88269 
L 384.734844 33.52644 
Q 384.734844 31.52644 382.734844 31.52644 
L 128.755156 31.52644 
Q 126.755156 31.52644 126.755156 33.52644 
L 126.755156 61.88269 
Q 126.755156 63.88269 128.755156 63.88269 
z
" style="fill: #ffffff; opacity: 0.8; stroke: #cccccc; stroke-linejoin: miter"/>
    </g>
    <g id="patch_6">
     <path d="M 130.755156 43.124877 
L 150.755156 43.124877 
L 150.755156 36.124877 
L 130.755156 36.124877 
z
" style="fill: #fb363b"/>
    </g>
    <g id="text_15">
     <!-- Published -->
     <g transform="translate(158.755156 43.124877) scale(0.1 -0.1)">
      <defs>
       <path id="DejaVuSans-50" d="M 1259 4147 
L 1259 2394 
L 2053 2394 
Q 2494 2394 2734 2622 
Q 2975 2850 2975 3272 
Q 2975 3691 2734 3919 
Q 2494 4147 2053 4147 
L 1259 4147 
z
M 628 4666 
L 2053 4666 
Q 2838 4666 3239 4311 
Q 3641 3956 3641 3272 
Q 3641 2581 3239 2228 
Q 2838 1875 2053 1875 
L 1259 1875 
L 1259 0 
L 628 0 
L 628 4666 
z
" transform="scale(0.015625)"/>
       <path id="DejaVuSans-6c" d="M 603 4863 
L 1178 4863 
L 1178 0 
L 603 0 
L 603 4863 
z
" transform="scale(0.015625)"/>
       <path id="DejaVuSans-68" d="M 3513 2113 
L 3513 0 
L 2938 0 
L 2938 2094 
Q 2938 2591 2744 2837 
Q 2550 3084 2163 3084 
Q 1697 3084 1428 2787 
Q 1159 2491 1159 1978 
L 1159 0 
L 581 0 
L 581 4863 
L 1159 4863 
L 1159 2956 
Q 1366 3272 1645 3428 
Q 1925 3584 2291 3584 
Q 2894 3584 3203 3211 
Q 3513 2838 3513 2113 
z
" transform="scale(0.015625)"/>
       <path id="DejaVuSans-64" d="M 2906 2969 
L 2906 4863 
L 3481 4863 
L 3481 0 
L 2906 0 
L 2906 525 
Q 2725 213 2448 61 
Q 2172 -91 1784 -91 
Q 1150 -91 751 415 
Q 353 922 353 1747 
Q 353 2572 751 3078 
Q 1150 3584 1784 3584 
Q 2172 3584 2448 3432 
Q 2725 3281 2906 2969 
z
M 947 1747 
Q 947 1113 1208 752 
Q 1469 391 1925 391 
Q 2381 391 2643 752 
Q 2906 1113 2906 1747 
Q 2906 2381 2643 2742 
Q 2381 3103 1925 3103 
Q 1469 3103 1208 2742 
Q 947 2381 947 1747 
z
" transform="scale(0.015625)"/>
      </defs>
      <use xlink:href="#DejaVuSans-50"/>
      <use xlink:href="#DejaVuSans-75" x="58.552734"/>
      <use xlink:href="#DejaVuSans-62" x="121.931641"/>
      <use xlink:href="#DejaVuSans-6c" x="185.408203"/>
      <use xlink:href="#DejaVuSans-69" x="213.191406"/>
      <use xlink:href="#DejaVuSans-73" x="240.974609"/>
      <use xlink:href="#DejaVuSans-68" x="293.074219"/>
      <use xlink:href="#DejaVuSans-65" x="356.453125"/>
      <use xlink:href="#DejaVuSans-64" x="417.976562"/>
     </g>
    </g>
    <g id="patch_7">
     <path d="M 130.755156 57.803002 
L 150.755156 57.803002 
L 150.755156 50.803002 
L 130.755156 50.803002 
z
" style="fill: #fdc92c"/>
    </g>
    <g id="text_16">
     <!-- Inferred role -->
     <g transform="translate(158.755156 57.803002) scale(0.1 -0.1)">
      <defs>
       <path id="DejaVuSans-49" d="M 628 4666 
L 1259 4666 
L 1259 0 
L 628 0 
L 628 4666 
z
" transform="scale(0.015625)"/>
      </defs>
      <use xlink:href="#DejaVuSans-49"/>
      <use xlink:href="#DejaVuSans-6e" x="29.492188"/>
      <use xlink:href="#DejaVuSans-66" x="92.871094"/>
      <use xlink:href="#DejaVuSans-65" x="128.076172"/>
      <use xlink:href="#DejaVuSans-72" x="189.599609"/>
      <use xlink:href="#DejaVuSans-72" x="228.962891"/>
      <use xlink:href="#DejaVuSans-65" x="267.826172"/>
      <use xlink:href="#DejaVuSans-64" x="329.349609"/>
      <use xlink:href="#DejaVuSans-20" x="392.826172"/>
      <use xlink:href="#DejaVuSans-72" x="424.613281"/>
      <use xlink:href="#DejaVuSans-6f" x="463.476562"/>
      <use xlink:href="#DejaVuSans-6c" x="524.658203"/>
      <use xlink:href="#DejaVuSans-65" x="552.441406"/>
     </g>
    </g>
    <g id="patch_8">
     <path d="M 240.153594 43.124877 
L 260.153594 43.124877 
L 260.153594 36.124877 
L 240.153594 36.124877 
z
" style="fill: #aeaeae"/>
    </g>
    <g id="text_17">
     <!-- Conserved unknown -->
     <g transform="translate(268.153594 43.124877) scale(0.1 -0.1)">
      <defs>
       <path id="DejaVuSans-43" d="M 4122 4306 
L 4122 3641 
Q 3803 3938 3442 4084 
Q 3081 4231 2675 4231 
Q 1875 4231 1450 3742 
Q 1025 3253 1025 2328 
Q 1025 1406 1450 917 
Q 1875 428 2675 428 
Q 3081 428 3442 575 
Q 3803 722 4122 1019 
L 4122 359 
Q 3791 134 3420 21 
Q 3050 -91 2638 -91 
Q 1578 -91 968 557 
Q 359 1206 359 2328 
Q 359 3453 968 4101 
Q 1578 4750 2638 4750 
Q 3056 4750 3426 4639 
Q 3797 4528 4122 4306 
z
" transform="scale(0.015625)"/>
       <path id="DejaVuSans-76" d="M 191 3500 
L 800 3500 
L 1894 563 
L 2988 3500 
L 3597 3500 
L 2284 0 
L 1503 0 
L 191 3500 
z
" transform="scale(0.015625)"/>
       <path id="DejaVuSans-6b" d="M 581 4863 
L 1159 4863 
L 1159 1991 
L 2875 3500 
L 3609 3500 
L 1753 1863 
L 3688 0 
L 2938 0 
L 1159 1709 
L 1159 0 
L 581 0 
L 581 4863 
z
" transform="scale(0.015625)"/>
       <path id="DejaVuSans-77" d="M 269 3500 
L 844 3500 
L 1563 769 
L 2278 3500 
L 2956 3500 
L 3675 769 
L 4391 3500 
L 4966 3500 
L 4050 0 
L 3372 0 
L 2619 2869 
L 1863 0 
L 1184 0 
L 269 3500 
z
" transform="scale(0.015625)"/>
      </defs>
      <use xlink:href="#DejaVuSans-43"/>
      <use xlink:href="#DejaVuSans-6f" x="69.824219"/>
      <use xlink:href="#DejaVuSans-6e" x="131.005859"/>
      <use xlink:href="#DejaVuSans-73" x="194.384766"/>
      <use xlink:href="#DejaVuSans-65" x="246.484375"/>
      <use xlink:href="#DejaVuSans-72" x="308.007812"/>
      <use xlink:href="#DejaVuSans-76" x="349.121094"/>
      <use xlink:href="#DejaVuSans-65" x="408.300781"/>
      <use xlink:href="#DejaVuSans-64" x="469.824219"/>
      <use xlink:href="#DejaVuSans-20" x="533.300781"/>
      <use xlink:href="#DejaVuSans-75" x="565.087891"/>
      <use xlink:href="#DejaVuSans-6e" x="628.466797"/>
      <use xlink:href="#DejaVuSans-6b" x="691.845703"/>
      <use xlink:href="#DejaVuSans-6e" x="749.755859"/>
      <use xlink:href="#DejaVuSans-6f" x="813.134766"/>
      <use xlink:href="#DejaVuSans-77" x="874.316406"/>
      <use xlink:href="#DejaVuSans-6e" x="956.103516"/>
     </g>
    </g>
    <g id="patch_9">
     <path d="M 240.153594 57.803002 
L 260.153594 57.803002 
L 260.153594 50.803002 
L 240.153594 50.803002 
z
" style="fill: #d5dce5"/>
    </g>
    <g id="text_18">
     <!-- Fission yeast unknown -->
     <g transform="translate(268.153594 57.803002) scale(0.1 -0.1)">
      <defs>
       <path id="DejaVuSans-46" d="M 628 4666 
L 3309 4666 
L 3309 4134 
L 1259 4134 
L 1259 2759 
L 3109 2759 
L 3109 2228 
L 1259 2228 
L 1259 0 
L 628 0 
L 628 4666 
z
" transform="scale(0.015625)"/>
       <path id="DejaVuSans-79" d="M 2059 -325 
Q 1816 -950 1584 -1140 
Q 1353 -1331 966 -1331 
L 506 -1331 
L 506 -850 
L 844 -850 
Q 1081 -850 1212 -737 
Q 1344 -625 1503 -206 
L 1606 56 
L 191 3500 
L 800 3500 
L 1894 763 
L 2988 3500 
L 3597 3500 
L 2059 -325 
z
" transform="scale(0.015625)"/>
      </defs>
      <use xlink:href="#DejaVuSans-46"/>
      <use xlink:href="#DejaVuSans-69" x="50.269531"/>
      <use xlink:href="#DejaVuSans-73" x="78.052734"/>
      <use xlink:href="#DejaVuSans-73" x="130.152344"/>
      <use xlink:href="#DejaVuSans-69" x="182.251953"/>
      <use xlink:href="#DejaVuSans-6f" x="210.035156"/>
      <use xlink:href="#DejaVuSans-6e" x="271.216797"/>
      <use xlink:href="#DejaVuSans-20" x="334.595703"/>
      <use xlink:href="#DejaVuSans-79" x="366.382812"/>
      <use xlink:href="#DejaVuSans-65" x="425.5625"/>
      <use xlink:href="#DejaVuSans-61" x="487.085938"/>
      <use xlink:href="#DejaVuSans-73" x="548.365234"/>
      <use xlink:href="#DejaVuSans-74" x="600.464844"/>
      <use xlink:href="#DejaVuSans-20" x="639.673828"/>
      <use xlink:href="#DejaVuSans-75" x="671.460938"/>
      <use xlink:href="#DejaVuSans-6e" x="734.839844"/>
      <use xlink:href="#DejaVuSans-6b" x="798.21875"/>
      <use xlink:href="#DejaVuSans-6e" x="856.128906"/>
      <use xlink:href="#DejaVuSans-6f" x="919.507812"/>
      <use xlink:href="#DejaVuSans-77" x="980.689453"/>
      <use xlink:href="#DejaVuSans-6e" x="1062.476562"/>
     </g>
    </g>
   </g>
  </g>
 </g>
 <defs>
  <clipPath id="pc113b6df6f">
   <rect x="61.49" y="68.88269" width="388.51" height="208.991586"/>
  </clipPath>
 </defs>
</svg>
