<?xml version="1.0" encoding="utf-8" standalone="no"?>
<!DOCTYPE svg PUBLIC "-//W3C//DTD SVG 1.1//EN"
  "http://www.w3.org/Graphics/SVG/1.1/DTD/svg11.dtd">
<svg xmlns:xlink="http://www.w3.org/1999/xlink" width="460.8pt" height="345.6pt" viewBox="0 0 460.8 345.6" xmlns="http://www.w3.org/2000/svg" version="1.1">
 <metadata>
  <rdf:RDF xmlns:dc="http://purl.org/dc/elements/1.1/" xmlns:cc="http://creativecommons.org/ns#" xmlns:rdf="http://www.w3.org/1999/02/22-rdf-syntax-ns#">
   <cc:Work>
    <dc:type rdf:resource="http://purl.org/dc/dcmitype/StillImage"/>
    <dc:date>2025-11-02T00:56:08.774929</dc:date>
    <dc:format>image/svg+xml</dc:format>
    <dc:creator>
     <cc:Agent>
      <dc:title>Matplotlib v3.7.1, https://matplotlib.org/</dc:title>
     </cc:Agent>
    </dc:creator>
   </cc:Work>
  </rdf:RDF>
 </metadata>
 <defs>
  <style type="text/css">*{stroke-linejoin: round; stroke-linecap: butt}</style>
 </defs>
 <g id="figure_1">
  <g id="patch_1">
   <path d="M 0 345.6 
L 460.8 345.6 
L 460.8 0 
L 0 0 
z
" style="fill: #ffffff"/>
  </g>
  <g id="axes_1">
   <g id="patch_2">
    <path d="M 61.49 273.8126 
L 450 273.8126 
L 450 71.7874 
L 61.49 71.7874 
z
" style="fill: #ffffff"/>
   </g>
   <g id="PolyCollection_1">
    <path d="M 32.790543 222.542562 
L 32.790543 273.8126 
L 40.807416 273.8126 
L 48.729415 273.8126 
L 65.000347 273.8126 
L 83.88032 273.8126 
L 97.779396 273.8126 
L 106.412951 273.8126 
L 108.642496 273.8126 
L 112.769525 273.8126 
L 114.66701 273.8126 
L 114.904195 273.8126 
L 118.035045 273.8126 
L 118.841476 273.8126 
L 119.505596 273.8126 
L 120.312027 273.8126 
L 120.833835 273.8126 
L 121.640266 273.8126 
L 122.114637 273.8126 
L 122.968505 273.8126 
L 124.106996 273.8126 
L 125.008302 273.8126 
L 125.340361 273.8126 
L 126.289104 273.8126 
L 126.953223 273.8126 
L 127.66478 273.8126 
L 128.423774 273.8126 
L 128.945582 273.8126 
L 129.419954 273.8126 
L 130.748193 273.8126 
L 131.696935 273.8126 
L 132.408492 273.8126 
L 132.598241 273.8126 
L 133.26236 273.8126 
L 134.25854 273.8126 
L 135.302156 273.8126 
L 136.013713 273.8126 
L 137.05733 273.8126 
L 138.433006 273.8126 
L 140.330491 273.8126 
L 141.99079 273.8126 
L 143.413904 273.8126 
L 146.070382 273.8126 
L 147.208873 273.8126 
L 150.292286 273.8126 
L 152.284645 273.8126 
L 153.51801 273.8126 
L 154.277004 273.8126 
L 157.265542 273.8126 
L 158.925841 273.8126 
L 160.633578 273.8126 
L 164.001613 273.8126 
L 167.132463 273.8126 
L 167.654271 273.8126 
L 168.270954 273.8126 
L 169.219696 273.8126 
L 169.97869 273.8126 
L 172.303109 273.8126 
L 176.951946 273.8126 
L 177.853252 273.8126 
L 182.217466 273.8126 
L 183.213646 273.8126 
L 184.209825 273.8126 
L 185.822687 273.8126 
L 187.150927 273.8126 
L 188.431729 273.8126 
L 189.23816 273.8126 
L 191.847201 273.8126 
L 194.551117 273.8126 
L 195.879357 273.8126 
L 196.828099 273.8126 
L 198.014027 273.8126 
L 199.010206 273.8126 
L 200.196134 273.8126 
L 202.994924 273.8126 
L 204.465475 273.8126 
L 205.888589 273.8126 
L 207.359139 273.8126 
L 208.782253 273.8126 
L 210.252803 273.8126 
L 211.723354 273.8126 
L 213.099031 273.8126 
L 214.569581 273.8126 
L 215.992695 273.8126 
L 217.463245 273.8126 
L 218.886359 273.8126 
L 220.35691 273.8126 
L 221.82746 273.8126 
L 223.250574 273.8126 
L 224.721125 273.8126 
L 226.144238 273.8126 
L 227.614789 273.8126 
L 229.085339 273.8126 
L 230.413579 273.8126 
L 231.884129 273.8126 
L 233.307243 273.8126 
L 234.777794 273.8126 
L 236.200907 273.8126 
L 237.671458 273.8126 
L 239.142009 273.8126 
L 240.565122 273.8126 
L 242.035673 273.8126 
L 243.458786 273.8126 
L 244.929337 273.8126 
L 246.399888 273.8126 
L 247.728127 273.8126 
L 249.198678 273.8126 
L 250.621791 273.8126 
L 252.092342 273.8126 
L 253.515455 273.8126 
L 254.986006 273.8126 
L 256.456557 273.8126 
L 257.87967 273.8126 
L 259.350221 273.8126 
L 260.773335 273.8126 
L 262.243885 273.8126 
L 263.714436 273.8126 
L 265.042675 273.8126 
L 266.513226 273.8126 
L 267.936339 273.8126 
L 269.40689 273.8126 
L 270.830004 273.8126 
L 272.300554 273.8126 
L 273.771105 273.8126 
L 275.194219 273.8126 
L 276.664769 273.8126 
L 278.087883 273.8126 
L 279.558433 273.8126 
L 281.028984 273.8126 
L 282.404661 273.8126 
L 283.875211 273.8126 
L 285.298325 273.8126 
L 286.768875 273.8126 
L 288.191989 273.8126 
L 289.66254 273.8126 
L 291.13309 273.8126 
L 292.556204 273.8126 
L 294.026755 273.8126 
L 295.449868 273.8126 
L 296.920419 273.8126 
L 298.390969 273.8126 
L 299.719209 273.8126 
L 301.189759 273.8126 
L 302.612873 273.8126 
L 304.083424 273.8126 
L 305.506537 273.8126 
L 306.977088 273.8126 
L 308.447639 273.8126 
L 309.870752 273.8126 
L 311.341303 273.8126 
L 312.764416 273.8126 
L 314.234967 273.8126 
L 315.705518 273.8126 
L 317.033757 273.8126 
L 318.504308 273.8126 
L 319.927421 273.8126 
L 321.397972 273.8126 
L 322.821085 273.8126 
L 324.291636 273.8126 
L 325.762187 273.8126 
L 327.1853 273.8126 
L 328.655851 273.8126 
L 330.078965 273.8126 
L 331.549515 273.8126 
L 333.020066 273.8126 
L 334.348305 273.8126 
L 335.818856 273.8126 
L 337.241969 273.8126 
L 338.71252 273.8126 
L 340.135634 273.8126 
L 341.606184 273.8126 
L 343.076735 273.8126 
L 344.499849 273.8126 
L 345.970399 273.8126 
L 347.393513 273.8126 
L 348.864063 273.8126 
L 350.334614 273.8126 
L 351.710291 273.8126 
L 353.180841 273.8126 
L 354.603955 273.8126 
L 356.074505 273.8126 
L 357.497619 273.8126 
L 358.96817 273.8126 
L 360.43872 273.8126 
L 361.861834 273.8126 
L 363.332385 273.8126 
L 364.755498 273.8126 
L 366.226049 273.8126 
L 367.6966 273.8126 
L 369.024839 273.8126 
L 370.495389 273.8126 
L 371.918503 273.8126 
L 373.389054 273.8126 
L 374.812167 273.8126 
L 376.282718 273.8126 
L 377.753269 273.8126 
L 379.176382 273.8126 
L 380.646933 273.8126 
L 382.070046 273.8126 
L 383.540597 273.8126 
L 385.011148 273.8126 
L 386.339387 273.8126 
L 387.809938 273.8126 
L 389.233051 273.8126 
L 390.703602 273.8126 
L 392.126716 273.8126 
L 393.597266 273.8126 
L 395.067817 273.8126 
L 396.49093 273.8126 
L 397.961481 273.8126 
L 399.384595 273.8126 
L 400.855145 273.8126 
L 402.325696 273.8126 
L 403.653935 273.8126 
L 405.124486 273.8126 
L 406.5476 273.8126 
L 408.01815 273.8126 
L 409.441264 273.8126 
L 410.911814 273.8126 
L 412.382365 273.8126 
L 413.805479 273.8126 
L 415.276029 273.8126 
L 416.699143 273.8126 
L 418.169694 273.8126 
L 419.640244 273.8126 
L 421.015921 273.8126 
L 422.486471 273.8126 
L 423.909585 273.8126 
L 425.380136 273.8126 
L 426.803249 273.8126 
L 428.2738 273.8126 
L 429.74435 273.8126 
L 431.167464 273.8126 
L 432.638015 273.8126 
L 434.061128 273.8126 
L 435.531679 273.8126 
L 437.00223 273.8126 
L 438.330469 273.8126 
L 439.80102 273.8126 
L 441.224133 273.8126 
L 442.694684 273.8126 
L 444.117797 273.8126 
L 445.588348 273.8126 
L 447.058899 273.8126 
L 448.482012 273.8126 
L 449.952563 273.8126 
L 449.952563 170.134034 
L 449.952563 170.134034 
L 448.482012 170.096084 
L 447.058899 169.488889 
L 445.588348 169.37504 
L 444.117797 169.450939 
L 442.694684 169.488889 
L 441.224133 169.488889 
L 439.80102 169.792487 
L 438.330469 169.830436 
L 437.00223 170.817128 
L 435.531679 172.980261 
L 434.061128 173.739255 
L 432.638015 173.966953 
L 431.167464 173.966953 
L 429.74435 174.194651 
L 428.2738 174.194651 
L 426.803249 175.029545 
L 425.380136 175.56084 
L 423.909585 175.674689 
L 422.486471 175.788538 
L 421.015921 175.864438 
L 419.640244 177.496275 
L 418.169694 177.610124 
L 416.699143 177.648074 
L 415.276029 177.875772 
L 413.805479 177.989621 
L 412.382365 178.02757 
L 410.911814 178.14142 
L 409.441264 178.596816 
L 408.01815 178.824514 
L 406.5476 178.938363 
L 405.124486 178.938363 
L 403.653935 179.27991 
L 402.325696 179.849156 
L 400.855145 179.811206 
L 399.384595 179.925055 
L 397.961481 180.038904 
L 396.49093 180.266602 
L 395.067817 180.266602 
L 393.597266 180.304552 
L 392.126716 180.304552 
L 390.703602 180.266602 
L 389.233051 180.342502 
L 387.809938 180.266602 
L 386.339387 180.228653 
L 385.011148 180.266602 
L 383.540597 180.266602 
L 382.070046 180.456351 
L 380.646933 180.646099 
L 379.176382 180.949697 
L 377.753269 181.177395 
L 376.282718 181.139445 
L 374.812167 181.329194 
L 373.389054 181.594842 
L 371.918503 181.594842 
L 370.495389 181.746641 
L 369.024839 182.239987 
L 367.6966 182.353836 
L 366.226049 182.771282 
L 364.755498 182.809232 
L 363.332385 182.961031 
L 361.861834 183.03693 
L 360.43872 183.188729 
L 358.96817 183.226679 
L 357.497619 183.302578 
L 356.074505 183.302578 
L 354.603955 183.378477 
L 353.180841 183.720025 
L 351.710291 183.833874 
L 350.334614 183.909773 
L 348.864063 183.985673 
L 347.393513 183.985673 
L 345.970399 183.985673 
L 344.499849 184.099522 
L 343.076735 184.175421 
L 341.606184 184.32722 
L 340.135634 184.554918 
L 338.71252 184.668767 
L 337.241969 184.744666 
L 335.818856 184.820566 
L 334.348305 184.858516 
L 333.020066 184.858516 
L 331.549515 184.896465 
L 330.078965 184.934415 
L 328.655851 185.010314 
L 327.1853 185.048264 
L 325.762187 185.048264 
L 324.291636 185.162113 
L 322.821085 185.275962 
L 321.397972 185.50366 
L 319.927421 185.655459 
L 318.504308 185.959057 
L 317.033757 186.110855 
L 315.705518 186.262654 
L 314.234967 186.300604 
L 312.764416 186.452403 
L 311.341303 186.604201 
L 309.870752 188.273988 
L 308.447639 188.539636 
L 306.977088 189.26068 
L 305.506537 188.653485 
L 304.083424 188.577586 
L 302.612873 188.615535 
L 301.189759 188.691435 
L 299.719209 188.957083 
L 298.390969 188.995032 
L 296.920419 189.070932 
L 295.449868 189.791976 
L 294.026755 189.905825 
L 292.556204 190.095573 
L 291.13309 190.171473 
L 289.66254 190.285322 
L 288.191989 190.702768 
L 286.768875 190.892517 
L 285.298325 190.892517 
L 283.875211 191.272014 
L 282.404661 191.347913 
L 281.028984 191.385863 
L 279.558433 191.575611 
L 278.087883 191.651511 
L 276.664769 191.651511 
L 275.194219 191.841259 
L 273.771105 191.879209 
L 272.300554 191.917159 
L 270.830004 192.068958 
L 269.40689 192.182807 
L 267.936339 191.613561 
L 266.513226 191.689461 
L 265.042675 191.879209 
L 263.714436 191.879209 
L 262.243885 192.106907 
L 260.773335 192.258706 
L 259.350221 192.524354 
L 257.87967 192.865901 
L 256.456557 193.169499 
L 254.986006 193.245398 
L 253.515455 193.511046 
L 252.092342 193.738744 
L 250.621791 194.080291 
L 249.198678 194.23209 
L 247.728127 194.421839 
L 246.399888 194.459788 
L 244.929337 194.459788 
L 243.458786 194.649537 
L 242.035673 195.104933 
L 240.565122 195.142883 
L 239.142009 195.370581 
L 237.671458 196.015726 
L 236.200907 196.091625 
L 234.777794 196.547021 
L 233.307243 196.850619 
L 231.884129 197.875261 
L 230.413579 197.95116 
L 229.085339 198.065009 
L 227.614789 198.330657 
L 226.144238 198.406557 
L 224.721125 198.634255 
L 223.250574 198.824003 
L 221.82746 199.16555 
L 220.35691 199.355299 
L 218.886359 199.469148 
L 217.463245 199.696846 
L 215.992695 199.734796 
L 214.569581 199.848645 
L 213.099031 200.000444 
L 211.723354 200.000444 
L 210.252803 200.076343 
L 208.782253 200.114293 
L 207.359139 200.152242 
L 205.888589 200.190192 
L 204.465475 200.228142 
L 202.994924 200.341991 
L 200.196134 201.063035 
L 199.010206 201.252784 
L 198.014027 201.290733 
L 196.828099 201.176884 
L 195.879357 201.176884 
L 194.551117 201.290733 
L 191.847201 201.404582 
L 189.23816 202.011778 
L 188.431729 202.92257 
L 187.150927 202.770771 
L 185.822687 202.732822 
L 184.209825 203.415916 
L 183.213646 203.415916 
L 182.217466 203.188218 
L 177.853252 203.681564 
L 176.951946 203.757463 
L 172.303109 204.402608 
L 169.97869 204.478508 
L 169.219696 204.326709 
L 168.270954 204.440558 
L 167.654271 204.630306 
L 167.132463 204.668256 
L 164.001613 204.782105 
L 160.633578 204.858005 
L 158.925841 205.047753 
L 157.265542 207.059087 
L 154.277004 206.983188 
L 153.51801 207.021137 
L 152.284645 207.438584 
L 150.292286 208.501175 
L 147.208873 208.728874 
L 146.070382 209.10837 
L 143.413904 209.374018 
L 141.99079 210.170962 
L 140.330491 210.702258 
L 138.433006 211.119704 
L 137.05733 211.157654 
L 136.013713 211.233553 
L 135.302156 211.271503 
L 134.25854 211.309453 
L 133.26236 211.992547 
L 132.598241 212.334095 
L 132.408492 212.334095 
L 131.696935 212.334095 
L 130.748193 212.561793 
L 129.419954 212.334095 
L 128.945582 212.523843 
L 128.423774 212.599742 
L 127.66478 212.713591 
L 126.953223 212.713591 
L 126.289104 213.017189 
L 125.340361 213.700284 
L 125.008302 213.662334 
L 124.106996 214.003881 
L 122.968505 214.07978 
L 122.114637 214.15568 
L 121.640266 214.231579 
L 120.833835 214.345428 
L 120.312027 214.573126 
L 119.505596 214.762875 
L 118.841476 214.686976 
L 118.035045 214.762875 
L 114.904195 215.028523 
L 114.66701 214.990573 
L 112.769525 215.294171 
L 108.642496 213.472585 
L 106.412951 216.167014 
L 97.779396 219.696335 
L 83.88032 222.997959 
L 65.000347 227.248325 
L 48.729415 222.352814 
L 40.807416 221.745619 
L 32.790543 222.542562 
z
" clip-path="url(#pd89f43d5a0)" style="fill: #fb363b"/>
   </g>
   <g id="PolyCollection_2">
    <path d="M 32.790543 144.51799 
L 32.790543 222.542562 
L 40.807416 221.745619 
L 48.729415 222.352814 
L 65.000347 227.248325 
L 83.88032 222.997959 
L 97.779396 219.696335 
L 106.412951 216.167014 
L 108.642496 213.472585 
L 112.769525 215.294171 
L 114.66701 214.990573 
L 114.904195 215.028523 
L 118.035045 214.762875 
L 118.841476 214.686976 
L 119.505596 214.762875 
L 120.312027 214.573126 
L 120.833835 214.345428 
L 121.640266 214.231579 
L 122.114637 214.15568 
L 122.968505 214.07978 
L 124.106996 214.003881 
L 125.008302 213.662334 
L 125.340361 213.700284 
L 126.289104 213.017189 
L 126.953223 212.713591 
L 127.66478 212.713591 
L 128.423774 212.599742 
L 128.945582 212.523843 
L 129.419954 212.334095 
L 130.748193 212.561793 
L 131.696935 212.334095 
L 132.408492 212.334095 
L 132.598241 212.334095 
L 133.26236 211.992547 
L 134.25854 211.309453 
L 135.302156 211.271503 
L 136.013713 211.233553 
L 137.05733 211.157654 
L 138.433006 211.119704 
L 140.330491 210.702258 
L 141.99079 210.170962 
L 143.413904 209.374018 
L 146.070382 209.10837 
L 147.208873 208.728874 
L 150.292286 208.501175 
L 152.284645 207.438584 
L 153.51801 207.021137 
L 154.277004 206.983188 
L 157.265542 207.059087 
L 158.925841 205.047753 
L 160.633578 204.858005 
L 164.001613 204.782105 
L 167.132463 204.668256 
L 167.654271 204.630306 
L 168.270954 204.440558 
L 169.219696 204.326709 
L 169.97869 204.478508 
L 172.303109 204.402608 
L 176.951946 203.757463 
L 177.853252 203.681564 
L 182.217466 203.188218 
L 183.213646 203.415916 
L 184.209825 203.415916 
L 185.822687 202.732822 
L 187.150927 202.770771 
L 188.431729 202.92257 
L 189.23816 202.011778 
L 191.847201 201.404582 
L 194.551117 201.290733 
L 195.879357 201.176884 
L 196.828099 201.176884 
L 198.014027 201.290733 
L 199.010206 201.252784 
L 200.196134 201.063035 
L 202.994924 200.341991 
L 204.465475 200.228142 
L 205.888589 200.190192 
L 207.359139 200.152242 
L 208.782253 200.114293 
L 210.252803 200.076343 
L 211.723354 200.000444 
L 213.099031 200.000444 
L 214.569581 199.848645 
L 215.992695 199.734796 
L 217.463245 199.696846 
L 218.886359 199.469148 
L 220.35691 199.355299 
L 221.82746 199.16555 
L 223.250574 198.824003 
L 224.721125 198.634255 
L 226.144238 198.406557 
L 227.614789 198.330657 
L 229.085339 198.065009 
L 230.413579 197.95116 
L 231.884129 197.875261 
L 233.307243 196.850619 
L 234.777794 196.547021 
L 236.200907 196.091625 
L 237.671458 196.015726 
L 239.142009 195.370581 
L 240.565122 195.142883 
L 242.035673 195.104933 
L 243.458786 194.649537 
L 244.929337 194.459788 
L 246.399888 194.459788 
L 247.728127 194.421839 
L 249.198678 194.23209 
L 250.621791 194.080291 
L 252.092342 193.738744 
L 253.515455 193.511046 
L 254.986006 193.245398 
L 256.456557 193.169499 
L 257.87967 192.865901 
L 259.350221 192.524354 
L 260.773335 192.258706 
L 262.243885 192.106907 
L 263.714436 191.879209 
L 265.042675 191.879209 
L 266.513226 191.689461 
L 267.936339 191.613561 
L 269.40689 192.182807 
L 270.830004 192.068958 
L 272.300554 191.917159 
L 273.771105 191.879209 
L 275.194219 191.841259 
L 276.664769 191.651511 
L 278.087883 191.651511 
L 279.558433 191.575611 
L 281.028984 191.385863 
L 282.404661 191.347913 
L 283.875211 191.272014 
L 285.298325 190.892517 
L 286.768875 190.892517 
L 288.191989 190.702768 
L 289.66254 190.285322 
L 291.13309 190.171473 
L 292.556204 190.095573 
L 294.026755 189.905825 
L 295.449868 189.791976 
L 296.920419 189.070932 
L 298.390969 188.995032 
L 299.719209 188.957083 
L 301.189759 188.691435 
L 302.612873 188.615535 
L 304.083424 188.577586 
L 305.506537 188.653485 
L 306.977088 189.26068 
L 308.447639 188.539636 
L 309.870752 188.273988 
L 311.341303 186.604201 
L 312.764416 186.452403 
L 314.234967 186.300604 
L 315.705518 186.262654 
L 317.033757 186.110855 
L 318.504308 185.959057 
L 319.927421 185.655459 
L 321.397972 185.50366 
L 322.821085 185.275962 
L 324.291636 185.162113 
L 325.762187 185.048264 
L 327.1853 185.048264 
L 328.655851 185.010314 
L 330.078965 184.934415 
L 331.549515 184.896465 
L 333.020066 184.858516 
L 334.348305 184.858516 
L 335.818856 184.820566 
L 337.241969 184.744666 
L 338.71252 184.668767 
L 340.135634 184.554918 
L 341.606184 184.32722 
L 343.076735 184.175421 
L 344.499849 184.099522 
L 345.970399 183.985673 
L 347.393513 183.985673 
L 348.864063 183.985673 
L 350.334614 183.909773 
L 351.710291 183.833874 
L 353.180841 183.720025 
L 354.603955 183.378477 
L 356.074505 183.302578 
L 357.497619 183.302578 
L 358.96817 183.226679 
L 360.43872 183.188729 
L 361.861834 183.03693 
L 363.332385 182.961031 
L 364.755498 182.809232 
L 366.226049 182.771282 
L 367.6966 182.353836 
L 369.024839 182.239987 
L 370.495389 181.746641 
L 371.918503 181.594842 
L 373.389054 181.594842 
L 374.812167 181.329194 
L 376.282718 181.139445 
L 377.753269 181.177395 
L 379.176382 180.949697 
L 380.646933 180.646099 
L 382.070046 180.456351 
L 383.540597 180.266602 
L 385.011148 180.266602 
L 386.339387 180.228653 
L 387.809938 180.266602 
L 389.233051 180.342502 
L 390.703602 180.266602 
L 392.126716 180.304552 
L 393.597266 180.304552 
L 395.067817 180.266602 
L 396.49093 180.266602 
L 397.961481 180.038904 
L 399.384595 179.925055 
L 400.855145 179.811206 
L 402.325696 179.849156 
L 403.653935 179.27991 
L 405.124486 178.938363 
L 406.5476 178.938363 
L 408.01815 178.824514 
L 409.441264 178.596816 
L 410.911814 178.14142 
L 412.382365 178.02757 
L 413.805479 177.989621 
L 415.276029 177.875772 
L 416.699143 177.648074 
L 418.169694 177.610124 
L 419.640244 177.496275 
L 421.015921 175.864438 
L 422.486471 175.788538 
L 423.909585 175.674689 
L 425.380136 175.56084 
L 426.803249 175.029545 
L 428.2738 174.194651 
L 429.74435 174.194651 
L 431.167464 173.966953 
L 432.638015 173.966953 
L 434.061128 173.739255 
L 435.531679 172.980261 
L 437.00223 170.817128 
L 438.330469 169.830436 
L 439.80102 169.792487 
L 441.224133 169.488889 
L 442.694684 169.488889 
L 444.117797 169.450939 
L 445.588348 169.37504 
L 447.058899 169.488889 
L 448.482012 170.096084 
L 449.952563 170.134034 
L 449.952563 105.9611 
L 449.952563 105.9611 
L 448.482012 105.885201 
L 447.058899 104.936458 
L 445.588348 104.329263 
L 444.117797 104.253364 
L 442.694684 104.063615 
L 441.224133 103.987716 
L 439.80102 103.949766 
L 438.330469 103.722068 
L 437.00223 103.760018 
L 435.531679 103.722068 
L 434.061128 104.253364 
L 432.638015 104.329263 
L 431.167464 104.443112 
L 429.74435 104.481062 
L 428.2738 104.70876 
L 426.803249 104.594911 
L 425.380136 104.556961 
L 423.909585 104.70876 
L 422.486471 104.78466 
L 421.015921 104.74671 
L 419.640244 105.012358 
L 418.169694 105.278006 
L 416.699143 105.278006 
L 415.276029 105.391855 
L 413.805479 105.543653 
L 412.382365 105.619553 
L 410.911814 105.619553 
L 409.441264 105.885201 
L 408.01815 106.112899 
L 406.5476 106.226748 
L 405.124486 106.226748 
L 403.653935 106.264698 
L 402.325696 106.416496 
L 400.855145 106.530346 
L 399.384595 106.606245 
L 397.961481 106.606245 
L 396.49093 106.644195 
L 395.067817 106.530346 
L 393.597266 106.568295 
L 392.126716 106.568295 
L 390.703602 106.758044 
L 389.233051 106.720094 
L 387.809938 106.720094 
L 386.339387 106.758044 
L 385.011148 106.833943 
L 383.540597 106.833943 
L 382.070046 106.947792 
L 380.646933 106.909842 
L 379.176382 107.023692 
L 377.753269 107.061641 
L 376.282718 107.099591 
L 374.812167 107.137541 
L 373.389054 107.17549 
L 371.918503 107.137541 
L 370.495389 107.25139 
L 369.024839 107.441138 
L 367.6966 107.592937 
L 366.226049 107.630887 
L 364.755498 107.630887 
L 363.332385 107.706786 
L 361.861834 107.744736 
L 360.43872 107.820635 
L 358.96817 107.820635 
L 357.497619 107.858585 
L 356.074505 107.896535 
L 354.603955 107.782685 
L 353.180841 107.744736 
L 351.710291 107.782685 
L 350.334614 107.706786 
L 348.864063 107.706786 
L 347.393513 107.706786 
L 345.970399 107.706786 
L 344.499849 107.706786 
L 343.076735 107.744736 
L 341.606184 107.706786 
L 340.135634 107.744736 
L 338.71252 107.744736 
L 337.241969 107.630887 
L 335.818856 107.630887 
L 334.348305 107.668836 
L 333.020066 107.668836 
L 331.549515 107.744736 
L 330.078965 107.744736 
L 328.655851 107.820635 
L 327.1853 107.820635 
L 325.762187 107.820635 
L 324.291636 107.858585 
L 322.821085 107.858585 
L 321.397972 107.858585 
L 319.927421 107.896535 
L 318.504308 107.934484 
L 317.033757 108.238082 
L 315.705518 108.351931 
L 314.234967 108.276032 
L 312.764416 108.351931 
L 311.341303 108.46578 
L 309.870752 108.50373 
L 308.447639 109.035025 
L 306.977088 109.338623 
L 305.506537 111.425856 
L 304.083424 112.602297 
L 302.612873 113.019743 
L 301.189759 113.019743 
L 299.719209 113.323341 
L 298.390969 113.247442 
L 296.920419 112.488448 
L 295.449868 112.678196 
L 294.026755 113.095643 
L 292.556204 113.095643 
L 291.13309 112.981794 
L 289.66254 113.133592 
L 288.191989 113.171542 
L 286.768875 113.171542 
L 285.298325 113.209492 
L 283.875211 113.285391 
L 282.404661 113.285391 
L 281.028984 113.323341 
L 279.558433 113.323341 
L 278.087883 113.43719 
L 276.664769 113.47514 
L 275.194219 113.513089 
L 273.771105 113.513089 
L 272.300554 113.47514 
L 270.830004 113.513089 
L 269.40689 113.47514 
L 267.936339 114.082335 
L 266.513226 114.044385 
L 265.042675 114.120284 
L 263.714436 114.196184 
L 262.243885 114.310033 
L 260.773335 114.272083 
L 259.350221 114.537731 
L 257.87967 114.65158 
L 256.456557 114.803379 
L 254.986006 114.993127 
L 253.515455 115.031077 
L 252.092342 114.955178 
L 250.621791 115.031077 
L 249.198678 115.069027 
L 247.728127 115.069027 
L 246.399888 115.069027 
L 244.929337 115.069027 
L 243.458786 115.220826 
L 242.035673 115.296725 
L 240.565122 115.524423 
L 239.142009 115.562373 
L 237.671458 115.790071 
L 236.200907 115.86597 
L 234.777794 116.093669 
L 233.307243 116.207518 
L 231.884129 116.359316 
L 230.413579 116.397266 
L 229.085339 116.435216 
L 227.614789 116.587015 
L 226.144238 116.587015 
L 224.721125 116.776763 
L 223.250574 117.042411 
L 221.82746 117.19421 
L 220.35691 117.346009 
L 218.886359 117.535757 
L 217.463245 117.611656 
L 215.992695 117.915254 
L 214.569581 117.915254 
L 213.099031 117.953204 
L 211.723354 117.953204 
L 210.252803 117.953204 
L 208.782253 117.953204 
L 207.359139 117.953204 
L 205.888589 117.991153 
L 204.465475 118.142952 
L 202.994924 118.218852 
L 200.196134 118.674248 
L 199.010206 119.243493 
L 198.014027 119.509141 
L 196.828099 118.977845 
L 195.879357 119.281443 
L 194.551117 119.395292 
L 191.847201 119.547091 
L 189.23816 119.547091 
L 188.431729 119.69889 
L 187.150927 120.192236 
L 185.822687 120.154286 
L 184.209825 121.027129 
L 183.213646 121.027129 
L 182.217466 121.444576 
L 177.853252 121.710223 
L 176.951946 121.786123 
L 172.303109 122.848714 
L 169.97869 123.797457 
L 169.219696 123.835406 
L 168.270954 123.835406 
L 167.654271 123.835406 
L 167.132463 123.873356 
L 164.001613 123.455909 
L 160.633578 123.949255 
L 158.925841 124.139004 
L 157.265542 124.328752 
L 154.277004 124.442601 
L 153.51801 124.518501 
L 152.284645 124.708249 
L 150.292286 125.011847 
L 147.208873 124.860048 
L 146.070382 125.163646 
L 143.413904 125.125696 
L 141.99079 125.049797 
L 140.330491 125.391344 
L 138.433006 125.315444 
L 137.05733 125.201595 
L 136.013713 125.467243 
L 135.302156 125.505193 
L 134.25854 124.784149 
L 133.26236 124.822098 
L 132.598241 124.973897 
L 132.408492 124.973897 
L 131.696935 124.935947 
L 130.748193 125.429294 
L 129.419954 124.897998 
L 128.945582 124.897998 
L 128.423774 124.935947 
L 127.66478 124.973897 
L 126.953223 124.784149 
L 126.289104 125.201595 
L 125.340361 125.315444 
L 125.008302 125.087746 
L 124.106996 125.239545 
L 122.968505 125.201595 
L 122.114637 125.694941 
L 121.640266 125.619042 
L 120.833835 125.619042 
L 120.312027 123.911306 
L 119.505596 124.290803 
L 118.841476 123.34206 
L 118.035045 123.114362 
L 114.904195 123.38001 
L 114.66701 123.228211 
L 112.769525 123.493859 
L 108.642496 125.201595 
L 106.412951 126.036489 
L 97.779396 128.047822 
L 83.88032 130.931999 
L 65.000347 134.61312 
L 48.729415 140.495322 
L 40.807416 144.214392 
L 32.790543 144.51799 
z
" clip-path="url(#pd89f43d5a0)" style="fill: #fdc92c"/>
   </g>
   <g id="PolyCollection_3">
    <path d="M 32.790543 114.613631 
L 32.790543 144.51799 
L 40.807416 144.214392 
L 48.729415 140.495322 
L 65.000347 134.61312 
L 83.88032 130.931999 
L 97.779396 128.047822 
L 106.412951 126.036489 
L 108.642496 125.201595 
L 112.769525 123.493859 
L 114.66701 123.228211 
L 114.904195 123.38001 
L 118.035045 123.114362 
L 118.841476 123.34206 
L 119.505596 124.290803 
L 120.312027 123.911306 
L 120.833835 125.619042 
L 121.640266 125.619042 
L 122.114637 125.694941 
L 122.968505 125.201595 
L 124.106996 125.239545 
L 125.008302 125.087746 
L 125.340361 125.315444 
L 126.289104 125.201595 
L 126.953223 124.784149 
L 127.66478 124.973897 
L 128.423774 124.935947 
L 128.945582 124.897998 
L 129.419954 124.897998 
L 130.748193 125.429294 
L 131.696935 124.935947 
L 132.408492 124.973897 
L 132.598241 124.973897 
L 133.26236 124.822098 
L 134.25854 124.784149 
L 135.302156 125.505193 
L 136.013713 125.467243 
L 137.05733 125.201595 
L 138.433006 125.315444 
L 140.330491 125.391344 
L 141.99079 125.049797 
L 143.413904 125.125696 
L 146.070382 125.163646 
L 147.208873 124.860048 
L 150.292286 125.011847 
L 152.284645 124.708249 
L 153.51801 124.518501 
L 154.277004 124.442601 
L 157.265542 124.328752 
L 158.925841 124.139004 
L 160.633578 123.949255 
L 164.001613 123.455909 
L 167.132463 123.873356 
L 167.654271 123.835406 
L 168.270954 123.835406 
L 169.219696 123.835406 
L 169.97869 123.797457 
L 172.303109 122.848714 
L 176.951946 121.786123 
L 177.853252 121.710223 
L 182.217466 121.444576 
L 183.213646 121.027129 
L 184.209825 121.027129 
L 185.822687 120.154286 
L 187.150927 120.192236 
L 188.431729 119.69889 
L 189.23816 119.547091 
L 191.847201 119.547091 
L 194.551117 119.395292 
L 195.879357 119.281443 
L 196.828099 118.977845 
L 198.014027 119.509141 
L 199.010206 119.243493 
L 200.196134 118.674248 
L 202.994924 118.218852 
L 204.465475 118.142952 
L 205.888589 117.991153 
L 207.359139 117.953204 
L 208.782253 117.953204 
L 210.252803 117.953204 
L 211.723354 117.953204 
L 213.099031 117.953204 
L 214.569581 117.915254 
L 215.992695 117.915254 
L 217.463245 117.611656 
L 218.886359 117.535757 
L 220.35691 117.346009 
L 221.82746 117.19421 
L 223.250574 117.042411 
L 224.721125 116.776763 
L 226.144238 116.587015 
L 227.614789 116.587015 
L 229.085339 116.435216 
L 230.413579 116.397266 
L 231.884129 116.359316 
L 233.307243 116.207518 
L 234.777794 116.093669 
L 236.200907 115.86597 
L 237.671458 115.790071 
L 239.142009 115.562373 
L 240.565122 115.524423 
L 242.035673 115.296725 
L 243.458786 115.220826 
L 244.929337 115.069027 
L 246.399888 115.069027 
L 247.728127 115.069027 
L 249.198678 115.069027 
L 250.621791 115.031077 
L 252.092342 114.955178 
L 253.515455 115.031077 
L 254.986006 114.993127 
L 256.456557 114.803379 
L 257.87967 114.65158 
L 259.350221 114.537731 
L 260.773335 114.272083 
L 262.243885 114.310033 
L 263.714436 114.196184 
L 265.042675 114.120284 
L 266.513226 114.044385 
L 267.936339 114.082335 
L 269.40689 113.47514 
L 270.830004 113.513089 
L 272.300554 113.47514 
L 273.771105 113.513089 
L 275.194219 113.513089 
L 276.664769 113.47514 
L 278.087883 113.43719 
L 279.558433 113.323341 
L 281.028984 113.323341 
L 282.404661 113.285391 
L 283.875211 113.285391 
L 285.298325 113.209492 
L 286.768875 113.171542 
L 288.191989 113.171542 
L 289.66254 113.133592 
L 291.13309 112.981794 
L 292.556204 113.095643 
L 294.026755 113.095643 
L 295.449868 112.678196 
L 296.920419 112.488448 
L 298.390969 113.247442 
L 299.719209 113.323341 
L 301.189759 113.019743 
L 302.612873 113.019743 
L 304.083424 112.602297 
L 305.506537 111.425856 
L 306.977088 109.338623 
L 308.447639 109.035025 
L 309.870752 108.50373 
L 311.341303 108.46578 
L 312.764416 108.351931 
L 314.234967 108.276032 
L 315.705518 108.351931 
L 317.033757 108.238082 
L 318.504308 107.934484 
L 319.927421 107.896535 
L 321.397972 107.858585 
L 322.821085 107.858585 
L 324.291636 107.858585 
L 325.762187 107.820635 
L 327.1853 107.820635 
L 328.655851 107.820635 
L 330.078965 107.744736 
L 331.549515 107.744736 
L 333.020066 107.668836 
L 334.348305 107.668836 
L 335.818856 107.630887 
L 337.241969 107.630887 
L 338.71252 107.744736 
L 340.135634 107.744736 
L 341.606184 107.706786 
L 343.076735 107.744736 
L 344.499849 107.706786 
L 345.970399 107.706786 
L 347.393513 107.706786 
L 348.864063 107.706786 
L 350.334614 107.706786 
L 351.710291 107.782685 
L 353.180841 107.744736 
L 354.603955 107.782685 
L 356.074505 107.896535 
L 357.497619 107.858585 
L 358.96817 107.820635 
L 360.43872 107.820635 
L 361.861834 107.744736 
L 363.332385 107.706786 
L 364.755498 107.630887 
L 366.226049 107.630887 
L 367.6966 107.592937 
L 369.024839 107.441138 
L 370.495389 107.25139 
L 371.918503 107.137541 
L 373.389054 107.17549 
L 374.812167 107.137541 
L 376.282718 107.099591 
L 377.753269 107.061641 
L 379.176382 107.023692 
L 380.646933 106.909842 
L 382.070046 106.947792 
L 383.540597 106.833943 
L 385.011148 106.833943 
L 386.339387 106.758044 
L 387.809938 106.720094 
L 389.233051 106.720094 
L 390.703602 106.758044 
L 392.126716 106.568295 
L 393.597266 106.568295 
L 395.067817 106.530346 
L 396.49093 106.644195 
L 397.961481 106.606245 
L 399.384595 106.606245 
L 400.855145 106.530346 
L 402.325696 106.416496 
L 403.653935 106.264698 
L 405.124486 106.226748 
L 406.5476 106.226748 
L 408.01815 106.112899 
L 409.441264 105.885201 
L 410.911814 105.619553 
L 412.382365 105.619553 
L 413.805479 105.543653 
L 415.276029 105.391855 
L 416.699143 105.278006 
L 418.169694 105.278006 
L 419.640244 105.012358 
L 421.015921 104.74671 
L 422.486471 104.78466 
L 423.909585 104.70876 
L 425.380136 104.556961 
L 426.803249 104.594911 
L 428.2738 104.70876 
L 429.74435 104.481062 
L 431.167464 104.443112 
L 432.638015 104.329263 
L 434.061128 104.253364 
L 435.531679 103.722068 
L 437.00223 103.760018 
L 438.330469 103.722068 
L 439.80102 103.949766 
L 441.224133 103.987716 
L 442.694684 104.063615 
L 444.117797 104.253364 
L 445.588348 104.329263 
L 447.058899 104.936458 
L 448.482012 105.885201 
L 449.952563 105.9611 
L 449.952563 92.109462 
L 449.952563 92.109462 
L 448.482012 92.109462 
L 447.058899 91.198669 
L 445.588348 91.198669 
L 444.117797 91.198669 
L 442.694684 91.198669 
L 441.224133 91.198669 
L 439.80102 91.160719 
L 438.330469 91.160719 
L 437.00223 91.160719 
L 435.531679 91.160719 
L 434.061128 91.160719 
L 432.638015 91.160719 
L 431.167464 91.160719 
L 429.74435 91.122769 
L 428.2738 91.464317 
L 426.803249 91.692015 
L 425.380136 91.692015 
L 423.909585 91.729965 
L 422.486471 91.729965 
L 421.015921 91.729965 
L 419.640244 91.767914 
L 418.169694 91.767914 
L 416.699143 91.767914 
L 415.276029 91.805864 
L 413.805479 91.805864 
L 412.382365 91.805864 
L 410.911814 91.805864 
L 409.441264 91.881763 
L 408.01815 91.881763 
L 406.5476 91.881763 
L 405.124486 91.881763 
L 403.653935 91.881763 
L 402.325696 91.919713 
L 400.855145 91.919713 
L 399.384595 91.995612 
L 397.961481 91.995612 
L 396.49093 92.033562 
L 395.067817 92.033562 
L 393.597266 92.033562 
L 392.126716 92.033562 
L 390.703602 92.109462 
L 389.233051 92.185361 
L 387.809938 92.185361 
L 386.339387 92.185361 
L 385.011148 92.185361 
L 383.540597 92.185361 
L 382.070046 92.223311 
L 380.646933 92.185361 
L 379.176382 92.26126 
L 377.753269 92.26126 
L 376.282718 92.26126 
L 374.812167 92.29921 
L 373.389054 92.29921 
L 371.918503 92.29921 
L 370.495389 92.33716 
L 369.024839 92.375109 
L 367.6966 92.413059 
L 366.226049 92.413059 
L 364.755498 92.375109 
L 363.332385 92.375109 
L 361.861834 92.375109 
L 360.43872 92.33716 
L 358.96817 92.33716 
L 357.497619 92.375109 
L 356.074505 92.375109 
L 354.603955 92.29921 
L 353.180841 92.26126 
L 351.710291 92.26126 
L 350.334614 92.29921 
L 348.864063 92.29921 
L 347.393513 92.29921 
L 345.970399 92.29921 
L 344.499849 92.29921 
L 343.076735 92.29921 
L 341.606184 92.29921 
L 340.135634 92.29921 
L 338.71252 92.29921 
L 337.241969 92.223311 
L 335.818856 92.223311 
L 334.348305 92.223311 
L 333.020066 92.223311 
L 331.549515 92.185361 
L 330.078965 92.185361 
L 328.655851 92.26126 
L 327.1853 92.26126 
L 325.762187 92.26126 
L 324.291636 92.29921 
L 322.821085 92.29921 
L 321.397972 92.29921 
L 319.927421 92.33716 
L 318.504308 92.375109 
L 317.033757 92.451009 
L 315.705518 92.451009 
L 314.234967 92.451009 
L 312.764416 92.602808 
L 311.341303 92.602808 
L 309.870752 92.602808 
L 308.447639 92.488958 
L 306.977088 92.526908 
L 305.506537 92.716657 
L 304.083424 93.627449 
L 302.612873 93.779248 
L 301.189759 93.817198 
L 299.719209 93.855147 
L 298.390969 93.855147 
L 296.920419 93.855147 
L 295.449868 93.855147 
L 294.026755 93.893097 
L 292.556204 93.893097 
L 291.13309 93.931047 
L 289.66254 93.968997 
L 288.191989 94.006946 
L 286.768875 94.006946 
L 285.298325 94.006946 
L 283.875211 94.006946 
L 282.404661 94.006946 
L 281.028984 94.044896 
L 279.558433 94.044896 
L 278.087883 94.082846 
L 276.664769 94.120795 
L 275.194219 94.120795 
L 273.771105 94.120795 
L 272.300554 94.120795 
L 270.830004 94.120795 
L 269.40689 94.120795 
L 267.936339 94.120795 
L 266.513226 94.120795 
L 265.042675 94.196695 
L 263.714436 94.196695 
L 262.243885 94.196695 
L 260.773335 94.234644 
L 259.350221 94.234644 
L 257.87967 94.272594 
L 256.456557 94.424393 
L 254.986006 95.335186 
L 253.515455 95.335186 
L 252.092342 95.335186 
L 250.621791 95.411085 
L 249.198678 95.411085 
L 247.728127 95.411085 
L 246.399888 95.411085 
L 244.929337 95.411085 
L 243.458786 95.411085 
L 242.035673 95.486984 
L 240.565122 95.411085 
L 239.142009 95.449035 
L 237.671458 95.524934 
L 236.200907 95.600833 
L 234.777794 95.790582 
L 233.307243 95.828532 
L 231.884129 95.828532 
L 230.413579 95.828532 
L 229.085339 95.828532 
L 227.614789 95.904431 
L 226.144238 95.904431 
L 224.721125 95.98033 
L 223.250574 95.98033 
L 221.82746 95.866481 
L 220.35691 95.942381 
L 218.886359 95.942381 
L 217.463245 95.942381 
L 215.992695 95.98033 
L 214.569581 95.98033 
L 213.099031 95.98033 
L 211.723354 96.01828 
L 210.252803 96.01828 
L 208.782253 96.05623 
L 207.359139 96.01828 
L 205.888589 96.01828 
L 204.465475 96.094179 
L 202.994924 96.132129 
L 200.196134 96.397777 
L 199.010206 96.967022 
L 198.014027 97.23267 
L 196.828099 96.625475 
L 195.879357 97.118821 
L 194.551117 97.156771 
L 191.847201 98.029614 
L 189.23816 98.029614 
L 188.431729 97.991664 
L 187.150927 98.143463 
L 185.822687 98.143463 
L 184.209825 98.219362 
L 183.213646 98.219362 
L 182.217466 98.257312 
L 177.853252 98.409111 
L 176.951946 98.409111 
L 172.303109 99.395803 
L 169.97869 99.509652 
L 169.219696 99.547602 
L 168.270954 99.661451 
L 167.654271 99.661451 
L 167.132463 99.661451 
L 164.001613 99.661451 
L 160.633578 99.889149 
L 158.925841 100.002998 
L 157.265542 100.040948 
L 154.277004 100.116847 
L 153.51801 100.230696 
L 152.284645 100.420445 
L 150.292286 100.648143 
L 147.208873 100.799942 
L 146.070382 101.407137 
L 143.413904 101.445086 
L 141.99079 101.710734 
L 140.330491 102.014332 
L 138.433006 102.090231 
L 137.05733 102.090231 
L 136.013713 102.090231 
L 135.302156 102.090231 
L 134.25854 102.24203 
L 133.26236 102.393829 
L 132.598241 102.507678 
L 132.408492 102.507678 
L 131.696935 102.469728 
L 130.748193 103.001024 
L 129.419954 102.545628 
L 128.945582 102.545628 
L 128.423774 102.621527 
L 127.66478 102.621527 
L 126.953223 102.621527 
L 126.289104 103.190772 
L 125.340361 103.190772 
L 125.008302 102.735376 
L 124.106996 103.304621 
L 122.968505 104.367213 
L 122.114637 105.240056 
L 121.640266 105.278006 
L 120.833835 105.278006 
L 120.312027 105.315955 
L 119.505596 105.885201 
L 118.841476 105.353905 
L 118.035045 105.353905 
L 114.904195 105.619553 
L 114.66701 105.657503 
L 112.769525 105.695452 
L 108.642496 103.190772 
L 106.412951 105.847251 
L 97.779396 107.668836 
L 83.88032 109.528371 
L 65.000347 110.818661 
L 48.729415 112.754095 
L 40.807416 115.031077 
L 32.790543 114.613631 
z
" clip-path="url(#pd89f43d5a0)" style="fill: #aeaeae"/>
   </g>
   <g id="PolyCollection_4">
    <path d="M 32.790543 91.578166 
L 32.790543 114.613631 
L 40.807416 115.031077 
L 48.729415 112.754095 
L 65.000347 110.818661 
L 83.88032 109.528371 
L 97.779396 107.668836 
L 106.412951 105.847251 
L 108.642496 103.190772 
L 112.769525 105.695452 
L 114.66701 105.657503 
L 114.904195 105.619553 
L 118.035045 105.353905 
L 118.841476 105.353905 
L 119.505596 105.885201 
L 120.312027 105.315955 
L 120.833835 105.278006 
L 121.640266 105.278006 
L 122.114637 105.240056 
L 122.968505 104.367213 
L 124.106996 103.304621 
L 125.008302 102.735376 
L 125.340361 103.190772 
L 126.289104 103.190772 
L 126.953223 102.621527 
L 127.66478 102.621527 
L 128.423774 102.621527 
L 128.945582 102.545628 
L 129.419954 102.545628 
L 130.748193 103.001024 
L 131.696935 102.469728 
L 132.408492 102.507678 
L 132.598241 102.507678 
L 133.26236 102.393829 
L 134.25854 102.24203 
L 135.302156 102.090231 
L 136.013713 102.090231 
L 137.05733 102.090231 
L 138.433006 102.090231 
L 140.330491 102.014332 
L 141.99079 101.710734 
L 143.413904 101.445086 
L 146.070382 101.407137 
L 147.208873 100.799942 
L 150.292286 100.648143 
L 152.284645 100.420445 
L 153.51801 100.230696 
L 154.277004 100.116847 
L 157.265542 100.040948 
L 158.925841 100.002998 
L 160.633578 99.889149 
L 164.001613 99.661451 
L 167.132463 99.661451 
L 167.654271 99.661451 
L 168.270954 99.661451 
L 169.219696 99.547602 
L 169.97869 99.509652 
L 172.303109 99.395803 
L 176.951946 98.409111 
L 177.853252 98.409111 
L 182.217466 98.257312 
L 183.213646 98.219362 
L 184.209825 98.219362 
L 185.822687 98.143463 
L 187.150927 98.143463 
L 188.431729 97.991664 
L 189.23816 98.029614 
L 191.847201 98.029614 
L 194.551117 97.156771 
L 195.879357 97.118821 
L 196.828099 96.625475 
L 198.014027 97.23267 
L 199.010206 96.967022 
L 200.196134 96.397777 
L 202.994924 96.132129 
L 204.465475 96.094179 
L 205.888589 96.01828 
L 207.359139 96.01828 
L 208.782253 96.05623 
L 210.252803 96.01828 
L 211.723354 96.01828 
L 213.099031 95.98033 
L 214.569581 95.98033 
L 215.992695 95.98033 
L 217.463245 95.942381 
L 218.886359 95.942381 
L 220.35691 95.942381 
L 221.82746 95.866481 
L 223.250574 95.98033 
L 224.721125 95.98033 
L 226.144238 95.904431 
L 227.614789 95.904431 
L 229.085339 95.828532 
L 230.413579 95.828532 
L 231.884129 95.828532 
L 233.307243 95.828532 
L 234.777794 95.790582 
L 236.200907 95.600833 
L 237.671458 95.524934 
L 239.142009 95.449035 
L 240.565122 95.411085 
L 242.035673 95.486984 
L 243.458786 95.411085 
L 244.929337 95.411085 
L 246.399888 95.411085 
L 247.728127 95.411085 
L 249.198678 95.411085 
L 250.621791 95.411085 
L 252.092342 95.335186 
L 253.515455 95.335186 
L 254.986006 95.335186 
L 256.456557 94.424393 
L 257.87967 94.272594 
L 259.350221 94.234644 
L 260.773335 94.234644 
L 262.243885 94.196695 
L 263.714436 94.196695 
L 265.042675 94.196695 
L 266.513226 94.120795 
L 267.936339 94.120795 
L 269.40689 94.120795 
L 270.830004 94.120795 
L 272.300554 94.120795 
L 273.771105 94.120795 
L 275.194219 94.120795 
L 276.664769 94.120795 
L 278.087883 94.082846 
L 279.558433 94.044896 
L 281.028984 94.044896 
L 282.404661 94.006946 
L 283.875211 94.006946 
L 285.298325 94.006946 
L 286.768875 94.006946 
L 288.191989 94.006946 
L 289.66254 93.968997 
L 291.13309 93.931047 
L 292.556204 93.893097 
L 294.026755 93.893097 
L 295.449868 93.855147 
L 296.920419 93.855147 
L 298.390969 93.855147 
L 299.719209 93.855147 
L 301.189759 93.817198 
L 302.612873 93.779248 
L 304.083424 93.627449 
L 305.506537 92.716657 
L 306.977088 92.526908 
L 308.447639 92.488958 
L 309.870752 92.602808 
L 311.341303 92.602808 
L 312.764416 92.602808 
L 314.234967 92.451009 
L 315.705518 92.451009 
L 317.033757 92.451009 
L 318.504308 92.375109 
L 319.927421 92.33716 
L 321.397972 92.29921 
L 322.821085 92.29921 
L 324.291636 92.29921 
L 325.762187 92.26126 
L 327.1853 92.26126 
L 328.655851 92.26126 
L 330.078965 92.185361 
L 331.549515 92.185361 
L 333.020066 92.223311 
L 334.348305 92.223311 
L 335.818856 92.223311 
L 337.241969 92.223311 
L 338.71252 92.29921 
L 340.135634 92.29921 
L 341.606184 92.29921 
L 343.076735 92.29921 
L 344.499849 92.29921 
L 345.970399 92.29921 
L 347.393513 92.29921 
L 348.864063 92.29921 
L 350.334614 92.29921 
L 351.710291 92.26126 
L 353.180841 92.26126 
L 354.603955 92.29921 
L 356.074505 92.375109 
L 357.497619 92.375109 
L 358.96817 92.33716 
L 360.43872 92.33716 
L 361.861834 92.375109 
L 363.332385 92.375109 
L 364.755498 92.375109 
L 366.226049 92.413059 
L 367.6966 92.413059 
L 369.024839 92.375109 
L 370.495389 92.33716 
L 371.918503 92.29921 
L 373.389054 92.29921 
L 374.812167 92.29921 
L 376.282718 92.26126 
L 377.753269 92.26126 
L 379.176382 92.26126 
L 380.646933 92.185361 
L 382.070046 92.223311 
L 383.540597 92.185361 
L 385.011148 92.185361 
L 386.339387 92.185361 
L 387.809938 92.185361 
L 389.233051 92.185361 
L 390.703602 92.109462 
L 392.126716 92.033562 
L 393.597266 92.033562 
L 395.067817 92.033562 
L 396.49093 92.033562 
L 397.961481 91.995612 
L 399.384595 91.995612 
L 400.855145 91.919713 
L 402.325696 91.919713 
L 403.653935 91.881763 
L 405.124486 91.881763 
L 406.5476 91.881763 
L 408.01815 91.881763 
L 409.441264 91.881763 
L 410.911814 91.805864 
L 412.382365 91.805864 
L 413.805479 91.805864 
L 415.276029 91.805864 
L 416.699143 91.767914 
L 418.169694 91.767914 
L 419.640244 91.767914 
L 421.015921 91.729965 
L 422.486471 91.729965 
L 423.909585 91.729965 
L 425.380136 91.692015 
L 426.803249 91.692015 
L 428.2738 91.464317 
L 429.74435 91.122769 
L 431.167464 91.160719 
L 432.638015 91.160719 
L 434.061128 91.160719 
L 435.531679 91.160719 
L 437.00223 91.160719 
L 438.330469 91.160719 
L 439.80102 91.160719 
L 441.224133 91.198669 
L 442.694684 91.198669 
L 444.117797 91.198669 
L 445.588348 91.198669 
L 447.058899 91.198669 
L 448.482012 92.109462 
L 449.952563 92.109462 
L 449.952563 82.735887 
L 449.952563 82.735887 
L 448.482012 82.735887 
L 447.058899 81.825094 
L 445.588348 81.825094 
L 444.117797 81.825094 
L 442.694684 81.825094 
L 441.224133 81.825094 
L 439.80102 81.825094 
L 438.330469 81.825094 
L 437.00223 81.825094 
L 435.531679 81.825094 
L 434.061128 81.825094 
L 432.638015 81.825094 
L 431.167464 81.863044 
L 429.74435 81.863044 
L 428.2738 81.863044 
L 426.803249 81.900994 
L 425.380136 81.900994 
L 423.909585 81.900994 
L 422.486471 81.900994 
L 421.015921 81.900994 
L 419.640244 81.900994 
L 418.169694 81.900994 
L 416.699143 81.900994 
L 415.276029 81.900994 
L 413.805479 81.900994 
L 412.382365 81.900994 
L 410.911814 81.900994 
L 409.441264 81.900994 
L 408.01815 81.900994 
L 406.5476 81.900994 
L 405.124486 81.900994 
L 403.653935 81.900994 
L 402.325696 82.090742 
L 400.855145 82.128692 
L 399.384595 82.166642 
L 397.961481 82.166642 
L 396.49093 82.166642 
L 395.067817 82.166642 
L 393.597266 82.166642 
L 392.126716 82.166642 
L 390.703602 82.166642 
L 389.233051 82.166642 
L 387.809938 82.166642 
L 386.339387 82.204591 
L 385.011148 82.166642 
L 383.540597 82.166642 
L 382.070046 82.204591 
L 380.646933 81.938943 
L 379.176382 81.938943 
L 377.753269 81.597396 
L 376.282718 81.597396 
L 374.812167 81.597396 
L 373.389054 81.597396 
L 371.918503 81.597396 
L 370.495389 81.597396 
L 369.024839 81.635346 
L 367.6966 81.635346 
L 366.226049 81.635346 
L 364.755498 81.597396 
L 363.332385 81.597396 
L 361.861834 81.597396 
L 360.43872 81.635346 
L 358.96817 81.635346 
L 357.497619 81.635346 
L 356.074505 81.635346 
L 354.603955 81.559446 
L 353.180841 81.521497 
L 351.710291 81.521497 
L 350.334614 81.521497 
L 348.864063 81.521497 
L 347.393513 81.521497 
L 345.970399 81.521497 
L 344.499849 81.521497 
L 343.076735 81.521497 
L 341.606184 81.521497 
L 340.135634 81.521497 
L 338.71252 81.521497 
L 337.241969 81.445597 
L 335.818856 81.445597 
L 334.348305 81.445597 
L 333.020066 81.445597 
L 331.549515 81.445597 
L 330.078965 81.445597 
L 328.655851 81.445597 
L 327.1853 81.445597 
L 325.762187 81.445597 
L 324.291636 81.407648 
L 322.821085 81.407648 
L 321.397972 81.407648 
L 319.927421 81.407648 
L 318.504308 81.407648 
L 317.033757 81.407648 
L 315.705518 81.407648 
L 314.234967 81.407648 
L 312.764416 81.407648 
L 311.341303 81.407648 
L 309.870752 81.407648 
L 308.447639 81.407648 
L 306.977088 81.407648 
L 305.506537 81.407648 
L 304.083424 81.407648 
L 302.612873 81.407648 
L 301.189759 81.407648 
L 299.719209 81.407648 
L 298.390969 81.407648 
L 296.920419 81.407648 
L 295.449868 81.407648 
L 294.026755 81.407648 
L 292.556204 81.407648 
L 291.13309 81.407648 
L 289.66254 81.407648 
L 288.191989 81.407648 
L 286.768875 81.407648 
L 285.298325 81.407648 
L 283.875211 81.407648 
L 282.404661 81.749195 
L 281.028984 81.787145 
L 279.558433 81.787145 
L 278.087883 81.787145 
L 276.664769 81.938943 
L 275.194219 81.938943 
L 273.771105 81.938943 
L 272.300554 81.938943 
L 270.830004 81.938943 
L 269.40689 81.938943 
L 267.936339 81.938943 
L 266.513226 81.938943 
L 265.042675 81.938943 
L 263.714436 81.938943 
L 262.243885 81.938943 
L 260.773335 81.976893 
L 259.350221 81.976893 
L 257.87967 81.976893 
L 256.456557 81.976893 
L 254.986006 81.711245 
L 253.515455 81.863044 
L 252.092342 81.825094 
L 250.621791 81.825094 
L 249.198678 81.825094 
L 247.728127 81.825094 
L 246.399888 81.825094 
L 244.929337 81.825094 
L 243.458786 81.825094 
L 242.035673 81.863044 
L 240.565122 81.863044 
L 239.142009 81.863044 
L 237.671458 81.825094 
L 236.200907 81.825094 
L 234.777794 81.825094 
L 233.307243 81.825094 
L 231.884129 81.825094 
L 230.413579 81.825094 
L 229.085339 81.825094 
L 227.614789 81.825094 
L 226.144238 81.825094 
L 224.721125 81.825094 
L 223.250574 81.863044 
L 221.82746 81.825094 
L 220.35691 81.863044 
L 218.886359 81.825094 
L 217.463245 81.825094 
L 215.992695 81.825094 
L 214.569581 81.825094 
L 213.099031 81.825094 
L 211.723354 81.825094 
L 210.252803 81.863044 
L 208.782253 81.863044 
L 207.359139 81.825094 
L 205.888589 81.825094 
L 204.465475 81.825094 
L 202.994924 81.900994 
L 200.196134 82.166642 
L 199.010206 82.811786 
L 198.014027 82.887686 
L 196.828099 82.280491 
L 195.879357 83.760529 
L 194.551117 83.760529 
L 191.847201 85.126718 
L 189.23816 85.126718 
L 188.431729 85.088768 
L 187.150927 85.240567 
L 185.822687 85.202617 
L 184.209825 85.202617 
L 183.213646 85.202617 
L 182.217466 85.202617 
L 177.853252 85.506215 
L 176.951946 85.506215 
L 172.303109 85.695963 
L 169.97869 85.658013 
L 169.219696 85.658013 
L 168.270954 85.733913 
L 167.654271 85.733913 
L 167.132463 85.733913 
L 164.001613 86.265209 
L 160.633578 86.379058 
L 158.925841 86.379058 
L 157.265542 86.379058 
L 154.277004 86.379058 
L 153.51801 86.341108 
L 152.284645 86.341108 
L 150.292286 86.227259 
L 147.208873 86.189309 
L 146.070382 87.176001 
L 143.413904 87.28985 
L 141.99079 87.403699 
L 140.330491 87.28985 
L 138.433006 87.28985 
L 137.05733 87.251901 
L 136.013713 87.251901 
L 135.302156 87.251901 
L 134.25854 87.213951 
L 133.26236 87.213951 
L 132.598241 87.251901 
L 132.408492 87.251901 
L 131.696935 87.251901 
L 130.748193 87.669347 
L 129.419954 87.251901 
L 128.945582 87.251901 
L 128.423774 87.28985 
L 127.66478 87.213951 
L 126.953223 87.213951 
L 126.289104 87.593448 
L 125.340361 87.517548 
L 125.008302 87.100102 
L 124.106996 87.631398 
L 122.968505 87.479599 
L 122.114637 87.517548 
L 121.640266 87.517548 
L 120.833835 87.517548 
L 120.312027 87.555498 
L 119.505596 88.048844 
L 118.841476 87.517548 
L 118.035045 87.517548 
L 114.904195 88.466291 
L 114.66701 88.504241 
L 112.769525 88.466291 
L 108.642496 87.593448 
L 106.412951 88.466291 
L 97.779396 89.225285 
L 83.88032 89.642731 
L 65.000347 90.325826 
L 48.729415 90.743273 
L 40.807416 91.729965 
L 32.790543 91.578166 
z
" clip-path="url(#pd89f43d5a0)" style="fill: #d5dce5"/>
   </g>
   <g id="matplotlib.axis_1">
    <g id="xtick_1">
     <g id="line2d_1">
      <defs>
       <path id="m66730172cc" d="M 0 0 
L 0 3.5 
" style="stroke: #000000; stroke-width: 0.8"/>
      </defs>
      <g>
       <use xlink:href="#m66730172cc" x="71.641543" y="273.8126" style="stroke: #000000; stroke-width: 0.8"/>
      </g>
     </g>
     <g id="text_1">
      <!-- 2004 -->
      <g transform="translate(58.916543 288.411037) scale(0.1 -0.1)">
       <defs>
        <path id="DejaVuSans-32" d="M 1228 531 
L 3431 531 
L 3431 0 
L 469 0 
L 469 531 
Q 828 903 1448 1529 
Q 2069 2156 2228 2338 
Q 2531 2678 2651 2914 
Q 2772 3150 2772 3378 
Q 2772 3750 2511 3984 
Q 2250 4219 1831 4219 
Q 1534 4219 1204 4116 
Q 875 4013 500 3803 
L 500 4441 
Q 881 4594 1212 4672 
Q 1544 4750 1819 4750 
Q 2544 4750 2975 4387 
Q 3406 4025 3406 3419 
Q 3406 3131 3298 2873 
Q 3191 2616 2906 2266 
Q 2828 2175 2409 1742 
Q 1991 1309 1228 531 
z
" transform="scale(0.015625)"/>
        <path id="DejaVuSans-30" d="M 2034 4250 
Q 1547 4250 1301 3770 
Q 1056 3291 1056 2328 
Q 1056 1369 1301 889 
Q 1547 409 2034 409 
Q 2525 409 2770 889 
Q 3016 1369 3016 2328 
Q 3016 3291 2770 3770 
Q 2525 4250 2034 4250 
z
M 2034 4750 
Q 2819 4750 3233 4129 
Q 3647 3509 3647 2328 
Q 3647 1150 3233 529 
Q 2819 -91 2034 -91 
Q 1250 -91 836 529 
Q 422 1150 422 2328 
Q 422 3509 836 4129 
Q 1250 4750 2034 4750 
z
" transform="scale(0.015625)"/>
        <path id="DejaVuSans-34" d="M 2419 4116 
L 825 1625 
L 2419 1625 
L 2419 4116 
z
M 2253 4666 
L 3047 4666 
L 3047 1625 
L 3713 1625 
L 3713 1100 
L 3047 1100 
L 3047 0 
L 2419 0 
L 2419 1100 
L 313 1100 
L 313 1709 
L 2253 4666 
z
" transform="scale(0.015625)"/>
       </defs>
       <use xlink:href="#DejaVuSans-32"/>
       <use xlink:href="#DejaVuSans-30" x="63.623047"/>
       <use xlink:href="#DejaVuSans-30" x="127.246094"/>
       <use xlink:href="#DejaVuSans-34" x="190.869141"/>
      </g>
     </g>
    </g>
    <g id="xtick_2">
     <g id="line2d_2">
      <g>
       <use xlink:href="#m66730172cc" x="140.947173" y="273.8126" style="stroke: #000000; stroke-width: 0.8"/>
      </g>
     </g>
     <g id="text_2">
      <!-- 2008 -->
      <g transform="translate(128.222173 288.411037) scale(0.1 -0.1)">
       <defs>
        <path id="DejaVuSans-38" d="M 2034 2216 
Q 1584 2216 1326 1975 
Q 1069 1734 1069 1313 
Q 1069 891 1326 650 
Q 1584 409 2034 409 
Q 2484 409 2743 651 
Q 3003 894 3003 1313 
Q 3003 1734 2745 1975 
Q 2488 2216 2034 2216 
z
M 1403 2484 
Q 997 2584 770 2862 
Q 544 3141 544 3541 
Q 544 4100 942 4425 
Q 1341 4750 2034 4750 
Q 2731 4750 3128 4425 
Q 3525 4100 3525 3541 
Q 3525 3141 3298 2862 
Q 3072 2584 2669 2484 
Q 3125 2378 3379 2068 
Q 3634 1759 3634 1313 
Q 3634 634 3220 271 
Q 2806 -91 2034 -91 
Q 1263 -91 848 271 
Q 434 634 434 1313 
Q 434 1759 690 2068 
Q 947 2378 1403 2484 
z
M 1172 3481 
Q 1172 3119 1398 2916 
Q 1625 2713 2034 2713 
Q 2441 2713 2670 2916 
Q 2900 3119 2900 3481 
Q 2900 3844 2670 4047 
Q 2441 4250 2034 4250 
Q 1625 4250 1398 4047 
Q 1172 3844 1172 3481 
z
" transform="scale(0.015625)"/>
       </defs>
       <use xlink:href="#DejaVuSans-32"/>
       <use xlink:href="#DejaVuSans-30" x="63.623047"/>
       <use xlink:href="#DejaVuSans-30" x="127.246094"/>
       <use xlink:href="#DejaVuSans-38" x="190.869141"/>
      </g>
     </g>
    </g>
    <g id="xtick_3">
     <g id="line2d_3">
      <g>
       <use xlink:href="#m66730172cc" x="210.252803" y="273.8126" style="stroke: #000000; stroke-width: 0.8"/>
      </g>
     </g>
     <g id="text_3">
      <!-- 2012 -->
      <g transform="translate(197.527803 288.411037) scale(0.1 -0.1)">
       <defs>
        <path id="DejaVuSans-31" d="M 794 531 
L 1825 531 
L 1825 4091 
L 703 3866 
L 703 4441 
L 1819 4666 
L 2450 4666 
L 2450 531 
L 3481 531 
L 3481 0 
L 794 0 
L 794 531 
z
" transform="scale(0.015625)"/>
       </defs>
       <use xlink:href="#DejaVuSans-32"/>
       <use xlink:href="#DejaVuSans-30" x="63.623047"/>
       <use xlink:href="#DejaVuSans-31" x="127.246094"/>
       <use xlink:href="#DejaVuSans-32" x="190.869141"/>
      </g>
     </g>
    </g>
    <g id="xtick_4">
     <g id="line2d_4">
      <g>
       <use xlink:href="#m66730172cc" x="279.558433" y="273.8126" style="stroke: #000000; stroke-width: 0.8"/>
      </g>
     </g>
     <g id="text_4">
      <!-- 2016 -->
      <g transform="translate(266.833433 288.411037) scale(0.1 -0.1)">
       <defs>
        <path id="DejaVuSans-36" d="M 2113 2584 
Q 1688 2584 1439 2293 
Q 1191 2003 1191 1497 
Q 1191 994 1439 701 
Q 1688 409 2113 409 
Q 2538 409 2786 701 
Q 3034 994 3034 1497 
Q 3034 2003 2786 2293 
Q 2538 2584 2113 2584 
z
M 3366 4563 
L 3366 3988 
Q 3128 4100 2886 4159 
Q 2644 4219 2406 4219 
Q 1781 4219 1451 3797 
Q 1122 3375 1075 2522 
Q 1259 2794 1537 2939 
Q 1816 3084 2150 3084 
Q 2853 3084 3261 2657 
Q 3669 2231 3669 1497 
Q 3669 778 3244 343 
Q 2819 -91 2113 -91 
Q 1303 -91 875 529 
Q 447 1150 447 2328 
Q 447 3434 972 4092 
Q 1497 4750 2381 4750 
Q 2619 4750 2861 4703 
Q 3103 4656 3366 4563 
z
" transform="scale(0.015625)"/>
       </defs>
       <use xlink:href="#DejaVuSans-32"/>
       <use xlink:href="#DejaVuSans-30" x="63.623047"/>
       <use xlink:href="#DejaVuSans-31" x="127.246094"/>
       <use xlink:href="#DejaVuSans-36" x="190.869141"/>
      </g>
     </g>
    </g>
    <g id="xtick_5">
     <g id="line2d_5">
      <g>
       <use xlink:href="#m66730172cc" x="348.864063" y="273.8126" style="stroke: #000000; stroke-width: 0.8"/>
      </g>
     </g>
     <g id="text_5">
      <!-- 2020 -->
      <g transform="translate(336.139063 288.411037) scale(0.1 -0.1)">
       <use xlink:href="#DejaVuSans-32"/>
       <use xlink:href="#DejaVuSans-30" x="63.623047"/>
       <use xlink:href="#DejaVuSans-32" x="127.246094"/>
       <use xlink:href="#DejaVuSans-30" x="190.869141"/>
      </g>
     </g>
    </g>
    <g id="xtick_6">
     <g id="line2d_6">
      <g>
       <use xlink:href="#m66730172cc" x="418.169694" y="273.8126" style="stroke: #000000; stroke-width: 0.8"/>
      </g>
     </g>
     <g id="text_6">
      <!-- 2024 -->
      <g transform="translate(405.444694 288.411037) scale(0.1 -0.1)">
       <use xlink:href="#DejaVuSans-32"/>
       <use xlink:href="#DejaVuSans-30" x="63.623047"/>
       <use xlink:href="#DejaVuSans-32" x="127.246094"/>
       <use xlink:href="#DejaVuSans-34" x="190.869141"/>
      </g>
     </g>
    </g>
    <g id="text_7">
     <!-- Year -->
     <g transform="translate(239.86375 305.888381) scale(0.15 -0.15)">
      <defs>
       <path id="DejaVuSans-59" d="M -13 4666 
L 666 4666 
L 1959 2747 
L 3244 4666 
L 3922 4666 
L 2272 2222 
L 2272 0 
L 1638 0 
L 1638 2222 
L -13 4666 
z
" transform="scale(0.015625)"/>
       <path id="DejaVuSans-65" d="M 3597 1894 
L 3597 1613 
L 953 1613 
Q 991 1019 1311 708 
Q 1631 397 2203 397 
Q 2534 397 2845 478 
Q 3156 559 3463 722 
L 3463 178 
Q 3153 47 2828 -22 
Q 2503 -91 2169 -91 
Q 1331 -91 842 396 
Q 353 884 353 1716 
Q 353 2575 817 3079 
Q 1281 3584 2069 3584 
Q 2775 3584 3186 3129 
Q 3597 2675 3597 1894 
z
M 3022 2063 
Q 3016 2534 2758 2815 
Q 2500 3097 2075 3097 
Q 1594 3097 1305 2825 
Q 1016 2553 972 2059 
L 3022 2063 
z
" transform="scale(0.015625)"/>
       <path id="DejaVuSans-61" d="M 2194 1759 
Q 1497 1759 1228 1600 
Q 959 1441 959 1056 
Q 959 750 1161 570 
Q 1363 391 1709 391 
Q 2188 391 2477 730 
Q 2766 1069 2766 1631 
L 2766 1759 
L 2194 1759 
z
M 3341 1997 
L 3341 0 
L 2766 0 
L 2766 531 
Q 2569 213 2275 61 
Q 1981 -91 1556 -91 
Q 1019 -91 701 211 
Q 384 513 384 1019 
Q 384 1609 779 1909 
Q 1175 2209 1959 2209 
L 2766 2209 
L 2766 2266 
Q 2766 2663 2505 2880 
Q 2244 3097 1772 3097 
Q 1472 3097 1187 3025 
Q 903 2953 641 2809 
L 641 3341 
Q 956 3463 1253 3523 
Q 1550 3584 1831 3584 
Q 2591 3584 2966 3190 
Q 3341 2797 3341 1997 
z
" transform="scale(0.015625)"/>
       <path id="DejaVuSans-72" d="M 2631 2963 
Q 2534 3019 2420 3045 
Q 2306 3072 2169 3072 
Q 1681 3072 1420 2755 
Q 1159 2438 1159 1844 
L 1159 0 
L 581 0 
L 581 3500 
L 1159 3500 
L 1159 2956 
Q 1341 3275 1631 3429 
Q 1922 3584 2338 3584 
Q 2397 3584 2469 3576 
Q 2541 3569 2628 3553 
L 2631 2963 
z
" transform="scale(0.015625)"/>
      </defs>
      <use xlink:href="#DejaVuSans-59"/>
      <use xlink:href="#DejaVuSans-65" x="47.833984"/>
      <use xlink:href="#DejaVuSans-61" x="109.357422"/>
      <use xlink:href="#DejaVuSans-72" x="170.636719"/>
     </g>
    </g>
   </g>
   <g id="matplotlib.axis_2">
    <g id="ytick_1">
     <g id="line2d_7">
      <defs>
       <path id="m37ec4e7d89" d="M 0 0 
L -3.5 0 
" style="stroke: #000000; stroke-width: 0.8"/>
      </defs>
      <g>
       <use xlink:href="#m37ec4e7d89" x="61.49" y="273.8126" style="stroke: #000000; stroke-width: 0.8"/>
      </g>
     </g>
     <g id="text_8">
      <!-- 0 -->
      <g transform="translate(48.1275 277.611819) scale(0.1 -0.1)">
       <use xlink:href="#DejaVuSans-30"/>
      </g>
     </g>
    </g>
    <g id="ytick_2">
     <g id="line2d_8">
      <g>
       <use xlink:href="#m37ec4e7d89" x="61.49" y="235.862905" style="stroke: #000000; stroke-width: 0.8"/>
      </g>
     </g>
     <g id="text_9">
      <!-- 1000 -->
      <g transform="translate(29.04 239.662124) scale(0.1 -0.1)">
       <use xlink:href="#DejaVuSans-31"/>
       <use xlink:href="#DejaVuSans-30" x="63.623047"/>
       <use xlink:href="#DejaVuSans-30" x="127.246094"/>
       <use xlink:href="#DejaVuSans-30" x="190.869141"/>
      </g>
     </g>
    </g>
    <g id="ytick_3">
     <g id="line2d_9">
      <g>
       <use xlink:href="#m37ec4e7d89" x="61.49" y="197.913211" style="stroke: #000000; stroke-width: 0.8"/>
      </g>
     </g>
     <g id="text_10">
      <!-- 2000 -->
      <g transform="translate(29.04 201.712429) scale(0.1 -0.1)">
       <use xlink:href="#DejaVuSans-32"/>
       <use xlink:href="#DejaVuSans-30" x="63.623047"/>
       <use xlink:href="#DejaVuSans-30" x="127.246094"/>
       <use xlink:href="#DejaVuSans-30" x="190.869141"/>
      </g>
     </g>
    </g>
    <g id="ytick_4">
     <g id="line2d_10">
      <g>
       <use xlink:href="#m37ec4e7d89" x="61.49" y="159.963516" style="stroke: #000000; stroke-width: 0.8"/>
      </g>
     </g>
     <g id="text_11">
      <!-- 3000 -->
      <g transform="translate(29.04 163.762735) scale(0.1 -0.1)">
       <defs>
        <path id="DejaVuSans-33" d="M 2597 2516 
Q 3050 2419 3304 2112 
Q 3559 1806 3559 1356 
Q 3559 666 3084 287 
Q 2609 -91 1734 -91 
Q 1441 -91 1130 -33 
Q 819 25 488 141 
L 488 750 
Q 750 597 1062 519 
Q 1375 441 1716 441 
Q 2309 441 2620 675 
Q 2931 909 2931 1356 
Q 2931 1769 2642 2001 
Q 2353 2234 1838 2234 
L 1294 2234 
L 1294 2753 
L 1863 2753 
Q 2328 2753 2575 2939 
Q 2822 3125 2822 3475 
Q 2822 3834 2567 4026 
Q 2313 4219 1838 4219 
Q 1578 4219 1281 4162 
Q 984 4106 628 3988 
L 628 4550 
Q 988 4650 1302 4700 
Q 1616 4750 1894 4750 
Q 2613 4750 3031 4423 
Q 3450 4097 3450 3541 
Q 3450 3153 3228 2886 
Q 3006 2619 2597 2516 
z
" transform="scale(0.015625)"/>
       </defs>
       <use xlink:href="#DejaVuSans-33"/>
       <use xlink:href="#DejaVuSans-30" x="63.623047"/>
       <use xlink:href="#DejaVuSans-30" x="127.246094"/>
       <use xlink:href="#DejaVuSans-30" x="190.869141"/>
      </g>
     </g>
    </g>
    <g id="ytick_5">
     <g id="line2d_11">
      <g>
       <use xlink:href="#m37ec4e7d89" x="61.49" y="122.013821" style="stroke: #000000; stroke-width: 0.8"/>
      </g>
     </g>
     <g id="text_12">
      <!-- 4000 -->
      <g transform="translate(29.04 125.81304) scale(0.1 -0.1)">
       <use xlink:href="#DejaVuSans-34"/>
       <use xlink:href="#DejaVuSans-30" x="63.623047"/>
       <use xlink:href="#DejaVuSans-30" x="127.246094"/>
       <use xlink:href="#DejaVuSans-30" x="190.869141"/>
      </g>
     </g>
    </g>
    <g id="ytick_6">
     <g id="line2d_12">
      <g>
       <use xlink:href="#m37ec4e7d89" x="61.49" y="84.064126" style="stroke: #000000; stroke-width: 0.8"/>
      </g>
     </g>
     <g id="text_13">
      <!-- 5000 -->
      <g transform="translate(29.04 87.863345) scale(0.1 -0.1)">
       <defs>
        <path id="DejaVuSans-35" d="M 691 4666 
L 3169 4666 
L 3169 4134 
L 1269 4134 
L 1269 2991 
Q 1406 3038 1543 3061 
Q 1681 3084 1819 3084 
Q 2600 3084 3056 2656 
Q 3513 2228 3513 1497 
Q 3513 744 3044 326 
Q 2575 -91 1722 -91 
Q 1428 -91 1123 -41 
Q 819 9 494 109 
L 494 744 
Q 775 591 1075 516 
Q 1375 441 1709 441 
Q 2250 441 2565 725 
Q 2881 1009 2881 1497 
Q 2881 1984 2565 2268 
Q 2250 2553 1709 2553 
Q 1456 2553 1204 2497 
Q 953 2441 691 2322 
L 691 4666 
z
" transform="scale(0.015625)"/>
       </defs>
       <use xlink:href="#DejaVuSans-35"/>
       <use xlink:href="#DejaVuSans-30" x="63.623047"/>
       <use xlink:href="#DejaVuSans-30" x="127.246094"/>
       <use xlink:href="#DejaVuSans-30" x="190.869141"/>
      </g>
     </g>
    </g>
    <g id="text_14">
     <!-- Number of proteins -->
     <g transform="translate(21.920469 245.489062) rotate(-90) scale(0.15 -0.15)">
      <defs>
       <path id="DejaVuSans-4e" d="M 628 4666 
L 1478 4666 
L 3547 763 
L 3547 4666 
L 4159 4666 
L 4159 0 
L 3309 0 
L 1241 3903 
L 1241 0 
L 628 0 
L 628 4666 
z
" transform="scale(0.015625)"/>
       <path id="DejaVuSans-75" d="M 544 1381 
L 544 3500 
L 1119 3500 
L 1119 1403 
Q 1119 906 1312 657 
Q 1506 409 1894 409 
Q 2359 409 2629 706 
Q 2900 1003 2900 1516 
L 2900 3500 
L 3475 3500 
L 3475 0 
L 2900 0 
L 2900 538 
Q 2691 219 2414 64 
Q 2138 -91 1772 -91 
Q 1169 -91 856 284 
Q 544 659 544 1381 
z
M 1991 3584 
L 1991 3584 
z
" transform="scale(0.015625)"/>
       <path id="DejaVuSans-6d" d="M 3328 2828 
Q 3544 3216 3844 3400 
Q 4144 3584 4550 3584 
Q 5097 3584 5394 3201 
Q 5691 2819 5691 2113 
L 5691 0 
L 5113 0 
L 5113 2094 
Q 5113 2597 4934 2840 
Q 4756 3084 4391 3084 
Q 3944 3084 3684 2787 
Q 3425 2491 3425 1978 
L 3425 0 
L 2847 0 
L 2847 2094 
Q 2847 2600 2669 2842 
Q 2491 3084 2119 3084 
Q 1678 3084 1418 2786 
Q 1159 2488 1159 1978 
L 1159 0 
L 581 0 
L 581 3500 
L 1159 3500 
L 1159 2956 
Q 1356 3278 1631 3431 
Q 1906 3584 2284 3584 
Q 2666 3584 2933 3390 
Q 3200 3197 3328 2828 
z
" transform="scale(0.015625)"/>
       <path id="DejaVuSans-62" d="M 3116 1747 
Q 3116 2381 2855 2742 
Q 2594 3103 2138 3103 
Q 1681 3103 1420 2742 
Q 1159 2381 1159 1747 
Q 1159 1113 1420 752 
Q 1681 391 2138 391 
Q 2594 391 2855 752 
Q 3116 1113 3116 1747 
z
M 1159 2969 
Q 1341 3281 1617 3432 
Q 1894 3584 2278 3584 
Q 2916 3584 3314 3078 
Q 3713 2572 3713 1747 
Q 3713 922 3314 415 
Q 2916 -91 2278 -91 
Q 1894 -91 1617 61 
Q 1341 213 1159 525 
L 1159 0 
L 581 0 
L 581 4863 
L 1159 4863 
L 1159 2969 
z
" transform="scale(0.015625)"/>
       <path id="DejaVuSans-20" transform="scale(0.015625)"/>
       <path id="DejaVuSans-6f" d="M 1959 3097 
Q 1497 3097 1228 2736 
Q 959 2375 959 1747 
Q 959 1119 1226 758 
Q 1494 397 1959 397 
Q 2419 397 2687 759 
Q 2956 1122 2956 1747 
Q 2956 2369 2687 2733 
Q 2419 3097 1959 3097 
z
M 1959 3584 
Q 2709 3584 3137 3096 
Q 3566 2609 3566 1747 
Q 3566 888 3137 398 
Q 2709 -91 1959 -91 
Q 1206 -91 779 398 
Q 353 888 353 1747 
Q 353 2609 779 3096 
Q 1206 3584 1959 3584 
z
" transform="scale(0.015625)"/>
       <path id="DejaVuSans-66" d="M 2375 4863 
L 2375 4384 
L 1825 4384 
Q 1516 4384 1395 4259 
Q 1275 4134 1275 3809 
L 1275 3500 
L 2222 3500 
L 2222 3053 
L 1275 3053 
L 1275 0 
L 697 0 
L 697 3053 
L 147 3053 
L 147 3500 
L 697 3500 
L 697 3744 
Q 697 4328 969 4595 
Q 1241 4863 1831 4863 
L 2375 4863 
z
" transform="scale(0.015625)"/>
       <path id="DejaVuSans-70" d="M 1159 525 
L 1159 -1331 
L 581 -1331 
L 581 3500 
L 1159 3500 
L 1159 2969 
Q 1341 3281 1617 3432 
Q 1894 3584 2278 3584 
Q 2916 3584 3314 3078 
Q 3713 2572 3713 1747 
Q 3713 922 3314 415 
Q 2916 -91 2278 -91 
Q 1894 -91 1617 61 
Q 1341 213 1159 525 
z
M 3116 1747 
Q 3116 2381 2855 2742 
Q 2594 3103 2138 3103 
Q 1681 3103 1420 2742 
Q 1159 2381 1159 1747 
Q 1159 1113 1420 752 
Q 1681 391 2138 391 
Q 2594 391 2855 752 
Q 3116 1113 3116 1747 
z
" transform="scale(0.015625)"/>
       <path id="DejaVuSans-74" d="M 1172 4494 
L 1172 3500 
L 2356 3500 
L 2356 3053 
L 1172 3053 
L 1172 1153 
Q 1172 725 1289 603 
Q 1406 481 1766 481 
L 2356 481 
L 2356 0 
L 1766 0 
Q 1100 0 847 248 
Q 594 497 594 1153 
L 594 3053 
L 172 3053 
L 172 3500 
L 594 3500 
L 594 4494 
L 1172 4494 
z
" transform="scale(0.015625)"/>
       <path id="DejaVuSans-69" d="M 603 3500 
L 1178 3500 
L 1178 0 
L 603 0 
L 603 3500 
z
M 603 4863 
L 1178 4863 
L 1178 4134 
L 603 4134 
L 603 4863 
z
" transform="scale(0.015625)"/>
       <path id="DejaVuSans-6e" d="M 3513 2113 
L 3513 0 
L 2938 0 
L 2938 2094 
Q 2938 2591 2744 2837 
Q 2550 3084 2163 3084 
Q 1697 3084 1428 2787 
Q 1159 2491 1159 1978 
L 1159 0 
L 581 0 
L 581 3500 
L 1159 3500 
L 1159 2956 
Q 1366 3272 1645 3428 
Q 1925 3584 2291 3584 
Q 2894 3584 3203 3211 
Q 3513 2838 3513 2113 
z
" transform="scale(0.015625)"/>
       <path id="DejaVuSans-73" d="M 2834 3397 
L 2834 2853 
Q 2591 2978 2328 3040 
Q 2066 3103 1784 3103 
Q 1356 3103 1142 2972 
Q 928 2841 928 2578 
Q 928 2378 1081 2264 
Q 1234 2150 1697 2047 
L 1894 2003 
Q 2506 1872 2764 1633 
Q 3022 1394 3022 966 
Q 3022 478 2636 193 
Q 2250 -91 1575 -91 
Q 1294 -91 989 -36 
Q 684 19 347 128 
L 347 722 
Q 666 556 975 473 
Q 1284 391 1588 391 
Q 1994 391 2212 530 
Q 2431 669 2431 922 
Q 2431 1156 2273 1281 
Q 2116 1406 1581 1522 
L 1381 1569 
Q 847 1681 609 1914 
Q 372 2147 372 2553 
Q 372 3047 722 3315 
Q 1072 3584 1716 3584 
Q 2034 3584 2315 3537 
Q 2597 3491 2834 3397 
z
" transform="scale(0.015625)"/>
      </defs>
      <use xlink:href="#DejaVuSans-4e"/>
      <use xlink:href="#DejaVuSans-75" x="74.804688"/>
      <use xlink:href="#DejaVuSans-6d" x="138.183594"/>
      <use xlink:href="#DejaVuSans-62" x="235.595703"/>
      <use xlink:href="#DejaVuSans-65" x="299.072266"/>
      <use xlink:href="#DejaVuSans-72" x="360.595703"/>
      <use xlink:href="#DejaVuSans-20" x="401.708984"/>
      <use xlink:href="#DejaVuSans-6f" x="433.496094"/>
      <use xlink:href="#DejaVuSans-66" x="494.677734"/>
      <use xlink:href="#DejaVuSans-20" x="529.882812"/>
      <use xlink:href="#DejaVuSans-70" x="561.669922"/>
      <use xlink:href="#DejaVuSans-72" x="625.146484"/>
      <use xlink:href="#DejaVuSans-6f" x="664.009766"/>
      <use xlink:href="#DejaVuSans-74" x="725.191406"/>
      <use xlink:href="#DejaVuSans-65" x="764.400391"/>
      <use xlink:href="#DejaVuSans-69" x="825.923828"/>
      <use xlink:href="#DejaVuSans-6e" x="853.707031"/>
      <use xlink:href="#DejaVuSans-73" x="917.085938"/>
     </g>
    </g>
   </g>
   <g id="patch_3">
    <path d="M 61.49 273.8126 
L 61.49 71.7874 
" style="fill: none; stroke: #000000; stroke-width: 0.8; stroke-linejoin: miter; stroke-linecap: square"/>
   </g>
   <g id="patch_4">
    <path d="M 61.49 273.8126 
L 450 273.8126 
" style="fill: none; stroke: #000000; stroke-width: 0.8; stroke-linejoin: miter; stroke-linecap: square"/>
   </g>
   <g id="legend_1">
    <g id="patch_5">
     <path d="M 98.395781 66.7874 
L 413.094219 66.7874 
Q 415.094219 66.7874 415.094219 64.7874 
L 415.094219 36.43115 
Q 415.094219 34.43115 413.094219 34.43115 
L 98.395781 34.43115 
Q 96.395781 34.43115 96.395781 36.43115 
L 96.395781 64.7874 
Q 96.395781 66.7874 98.395781 66.7874 
z
" style="fill: #ffffff; opacity: 0.8; stroke: #cccccc; stroke-linejoin: miter"/>
    </g>
    <g id="patch_6">
     <path d="M 100.395781 46.029587 
L 120.395781 46.029587 
L 120.395781 39.029587 
L 100.395781 39.029587 
z
" style="fill: #fb363b"/>
    </g>
    <g id="text_15">
     <!-- Biological role published -->
     <g transform="translate(128.395781 46.029587) scale(0.1 -0.1)">
      <defs>
       <path id="DejaVuSans-42" d="M 1259 2228 
L 1259 519 
L 2272 519 
Q 2781 519 3026 730 
Q 3272 941 3272 1375 
Q 3272 1813 3026 2020 
Q 2781 2228 2272 2228 
L 1259 2228 
z
M 1259 4147 
L 1259 2741 
L 2194 2741 
Q 2656 2741 2882 2914 
Q 3109 3088 3109 3444 
Q 3109 3797 2882 3972 
Q 2656 4147 2194 4147 
L 1259 4147 
z
M 628 4666 
L 2241 4666 
Q 2963 4666 3353 4366 
Q 3744 4066 3744 3513 
Q 3744 3084 3544 2831 
Q 3344 2578 2956 2516 
Q 3422 2416 3680 2098 
Q 3938 1781 3938 1306 
Q 3938 681 3513 340 
Q 3088 0 2303 0 
L 628 0 
L 628 4666 
z
" transform="scale(0.015625)"/>
       <path id="DejaVuSans-6c" d="M 603 4863 
L 1178 4863 
L 1178 0 
L 603 0 
L 603 4863 
z
" transform="scale(0.015625)"/>
       <path id="DejaVuSans-67" d="M 2906 1791 
Q 2906 2416 2648 2759 
Q 2391 3103 1925 3103 
Q 1463 3103 1205 2759 
Q 947 2416 947 1791 
Q 947 1169 1205 825 
Q 1463 481 1925 481 
Q 2391 481 2648 825 
Q 2906 1169 2906 1791 
z
M 3481 434 
Q 3481 -459 3084 -895 
Q 2688 -1331 1869 -1331 
Q 1566 -1331 1297 -1286 
Q 1028 -1241 775 -1147 
L 775 -588 
Q 1028 -725 1275 -790 
Q 1522 -856 1778 -856 
Q 2344 -856 2625 -561 
Q 2906 -266 2906 331 
L 2906 616 
Q 2728 306 2450 153 
Q 2172 0 1784 0 
Q 1141 0 747 490 
Q 353 981 353 1791 
Q 353 2603 747 3093 
Q 1141 3584 1784 3584 
Q 2172 3584 2450 3431 
Q 2728 3278 2906 2969 
L 2906 3500 
L 3481 3500 
L 3481 434 
z
" transform="scale(0.015625)"/>
       <path id="DejaVuSans-63" d="M 3122 3366 
L 3122 2828 
Q 2878 2963 2633 3030 
Q 2388 3097 2138 3097 
Q 1578 3097 1268 2742 
Q 959 2388 959 1747 
Q 959 1106 1268 751 
Q 1578 397 2138 397 
Q 2388 397 2633 464 
Q 2878 531 3122 666 
L 3122 134 
Q 2881 22 2623 -34 
Q 2366 -91 2075 -91 
Q 1284 -91 818 406 
Q 353 903 353 1747 
Q 353 2603 823 3093 
Q 1294 3584 2113 3584 
Q 2378 3584 2631 3529 
Q 2884 3475 3122 3366 
z
" transform="scale(0.015625)"/>
       <path id="DejaVuSans-68" d="M 3513 2113 
L 3513 0 
L 2938 0 
L 2938 2094 
Q 2938 2591 2744 2837 
Q 2550 3084 2163 3084 
Q 1697 3084 1428 2787 
Q 1159 2491 1159 1978 
L 1159 0 
L 581 0 
L 581 4863 
L 1159 4863 
L 1159 2956 
Q 1366 3272 1645 3428 
Q 1925 3584 2291 3584 
Q 2894 3584 3203 3211 
Q 3513 2838 3513 2113 
z
" transform="scale(0.015625)"/>
       <path id="DejaVuSans-64" d="M 2906 2969 
L 2906 4863 
L 3481 4863 
L 3481 0 
L 2906 0 
L 2906 525 
Q 2725 213 2448 61 
Q 2172 -91 1784 -91 
Q 1150 -91 751 415 
Q 353 922 353 1747 
Q 353 2572 751 3078 
Q 1150 3584 1784 3584 
Q 2172 3584 2448 3432 
Q 2725 3281 2906 2969 
z
M 947 1747 
Q 947 1113 1208 752 
Q 1469 391 1925 391 
Q 2381 391 2643 752 
Q 2906 1113 2906 1747 
Q 2906 2381 2643 2742 
Q 2381 3103 1925 3103 
Q 1469 3103 1208 2742 
Q 947 2381 947 1747 
z
" transform="scale(0.015625)"/>
      </defs>
      <use xlink:href="#DejaVuSans-42"/>
      <use xlink:href="#DejaVuSans-69" x="68.603516"/>
      <use xlink:href="#DejaVuSans-6f" x="96.386719"/>
      <use xlink:href="#DejaVuSans-6c" x="157.568359"/>
      <use xlink:href="#DejaVuSans-6f" x="185.351562"/>
      <use xlink:href="#DejaVuSans-67" x="246.533203"/>
      <use xlink:href="#DejaVuSans-69" x="310.009766"/>
      <use xlink:href="#DejaVuSans-63" x="337.792969"/>
      <use xlink:href="#DejaVuSans-61" x="392.773438"/>
      <use xlink:href="#DejaVuSans-6c" x="454.052734"/>
      <use xlink:href="#DejaVuSans-20" x="481.835938"/>
      <use xlink:href="#DejaVuSans-72" x="513.623047"/>
      <use xlink:href="#DejaVuSans-6f" x="552.486328"/>
      <use xlink:href="#DejaVuSans-6c" x="613.667969"/>
      <use xlink:href="#DejaVuSans-65" x="641.451172"/>
      <use xlink:href="#DejaVuSans-20" x="702.974609"/>
      <use xlink:href="#DejaVuSans-70" x="734.761719"/>
      <use xlink:href="#DejaVuSans-75" x="798.238281"/>
      <use xlink:href="#DejaVuSans-62" x="861.617188"/>
      <use xlink:href="#DejaVuSans-6c" x="925.09375"/>
      <use xlink:href="#DejaVuSans-69" x="952.876953"/>
      <use xlink:href="#DejaVuSans-73" x="980.660156"/>
      <use xlink:href="#DejaVuSans-68" x="1032.759766"/>
      <use xlink:href="#DejaVuSans-65" x="1096.138672"/>
      <use xlink:href="#DejaVuSans-64" x="1157.662109"/>
     </g>
    </g>
    <g id="patch_7">
     <path d="M 100.395781 60.707713 
L 120.395781 60.707713 
L 120.395781 53.707713 
L 100.395781 53.707713 
z
" style="fill: #fdc92c"/>
    </g>
    <g id="text_16">
     <!-- Biological role inferred -->
     <g transform="translate(128.395781 60.707713) scale(0.1 -0.1)">
      <use xlink:href="#DejaVuSans-42"/>
      <use xlink:href="#DejaVuSans-69" x="68.603516"/>
      <use xlink:href="#DejaVuSans-6f" x="96.386719"/>
      <use xlink:href="#DejaVuSans-6c" x="157.568359"/>
      <use xlink:href="#DejaVuSans-6f" x="185.351562"/>
      <use xlink:href="#DejaVuSans-67" x="246.533203"/>
      <use xlink:href="#DejaVuSans-69" x="310.009766"/>
      <use xlink:href="#DejaVuSans-63" x="337.792969"/>
      <use xlink:href="#DejaVuSans-61" x="392.773438"/>
      <use xlink:href="#DejaVuSans-6c" x="454.052734"/>
      <use xlink:href="#DejaVuSans-20" x="481.835938"/>
      <use xlink:href="#DejaVuSans-72" x="513.623047"/>
      <use xlink:href="#DejaVuSans-6f" x="552.486328"/>
      <use xlink:href="#DejaVuSans-6c" x="613.667969"/>
      <use xlink:href="#DejaVuSans-65" x="641.451172"/>
      <use xlink:href="#DejaVuSans-20" x="702.974609"/>
      <use xlink:href="#DejaVuSans-69" x="734.761719"/>
      <use xlink:href="#DejaVuSans-6e" x="762.544922"/>
      <use xlink:href="#DejaVuSans-66" x="825.923828"/>
      <use xlink:href="#DejaVuSans-65" x="861.128906"/>
      <use xlink:href="#DejaVuSans-72" x="922.652344"/>
      <use xlink:href="#DejaVuSans-72" x="962.015625"/>
      <use xlink:href="#DejaVuSans-65" x="1000.878906"/>
      <use xlink:href="#DejaVuSans-64" x="1062.402344"/>
     </g>
    </g>
    <g id="patch_8">
     <path d="M 270.512969 46.029587 
L 290.512969 46.029587 
L 290.512969 39.029587 
L 270.512969 39.029587 
z
" style="fill: #aeaeae"/>
    </g>
    <g id="text_17">
     <!-- Conserved unknown -->
     <g transform="translate(298.512969 46.029587) scale(0.1 -0.1)">
      <defs>
       <path id="DejaVuSans-43" d="M 4122 4306 
L 4122 3641 
Q 3803 3938 3442 4084 
Q 3081 4231 2675 4231 
Q 1875 4231 1450 3742 
Q 1025 3253 1025 2328 
Q 1025 1406 1450 917 
Q 1875 428 2675 428 
Q 3081 428 3442 575 
Q 3803 722 4122 1019 
L 4122 359 
Q 3791 134 3420 21 
Q 3050 -91 2638 -91 
Q 1578 -91 968 557 
Q 359 1206 359 2328 
Q 359 3453 968 4101 
Q 1578 4750 2638 4750 
Q 3056 4750 3426 4639 
Q 3797 4528 4122 4306 
z
" transform="scale(0.015625)"/>
       <path id="DejaVuSans-76" d="M 191 3500 
L 800 3500 
L 1894 563 
L 2988 3500 
L 3597 3500 
L 2284 0 
L 1503 0 
L 191 3500 
z
" transform="scale(0.015625)"/>
       <path id="DejaVuSans-6b" d="M 581 4863 
L 1159 4863 
L 1159 1991 
L 2875 3500 
L 3609 3500 
L 1753 1863 
L 3688 0 
L 2938 0 
L 1159 1709 
L 1159 0 
L 581 0 
L 581 4863 
z
" transform="scale(0.015625)"/>
       <path id="DejaVuSans-77" d="M 269 3500 
L 844 3500 
L 1563 769 
L 2278 3500 
L 2956 3500 
L 3675 769 
L 4391 3500 
L 4966 3500 
L 4050 0 
L 3372 0 
L 2619 2869 
L 1863 0 
L 1184 0 
L 269 3500 
z
" transform="scale(0.015625)"/>
      </defs>
      <use xlink:href="#DejaVuSans-43"/>
      <use xlink:href="#DejaVuSans-6f" x="69.824219"/>
      <use xlink:href="#DejaVuSans-6e" x="131.005859"/>
      <use xlink:href="#DejaVuSans-73" x="194.384766"/>
      <use xlink:href="#DejaVuSans-65" x="246.484375"/>
      <use xlink:href="#DejaVuSans-72" x="308.007812"/>
      <use xlink:href="#DejaVuSans-76" x="349.121094"/>
      <use xlink:href="#DejaVuSans-65" x="408.300781"/>
      <use xlink:href="#DejaVuSans-64" x="469.824219"/>
      <use xlink:href="#DejaVuSans-20" x="533.300781"/>
      <use xlink:href="#DejaVuSans-75" x="565.087891"/>
      <use xlink:href="#DejaVuSans-6e" x="628.466797"/>
      <use xlink:href="#DejaVuSans-6b" x="691.845703"/>
      <use xlink:href="#DejaVuSans-6e" x="749.755859"/>
      <use xlink:href="#DejaVuSans-6f" x="813.134766"/>
      <use xlink:href="#DejaVuSans-77" x="874.316406"/>
      <use xlink:href="#DejaVuSans-6e" x="956.103516"/>
     </g>
    </g>
    <g id="patch_9">
     <path d="M 270.512969 60.707713 
L 290.512969 60.707713 
L 290.512969 53.707713 
L 270.512969 53.707713 
z
" style="fill: #d5dce5"/>
    </g>
    <g id="text_18">
     <!-- Fission yeast unknown -->
     <g transform="translate(298.512969 60.707713) scale(0.1 -0.1)">
      <defs>
       <path id="DejaVuSans-46" d="M 628 4666 
L 3309 4666 
L 3309 4134 
L 1259 4134 
L 1259 2759 
L 3109 2759 
L 3109 2228 
L 1259 2228 
L 1259 0 
L 628 0 
L 628 4666 
z
" transform="scale(0.015625)"/>
       <path id="DejaVuSans-79" d="M 2059 -325 
Q 1816 -950 1584 -1140 
Q 1353 -1331 966 -1331 
L 506 -1331 
L 506 -850 
L 844 -850 
Q 1081 -850 1212 -737 
Q 1344 -625 1503 -206 
L 1606 56 
L 191 3500 
L 800 3500 
L 1894 763 
L 2988 3500 
L 3597 3500 
L 2059 -325 
z
" transform="scale(0.015625)"/>
      </defs>
      <use xlink:href="#DejaVuSans-46"/>
      <use xlink:href="#DejaVuSans-69" x="50.269531"/>
      <use xlink:href="#DejaVuSans-73" x="78.052734"/>
      <use xlink:href="#DejaVuSans-73" x="130.152344"/>
      <use xlink:href="#DejaVuSans-69" x="182.251953"/>
      <use xlink:href="#DejaVuSans-6f" x="210.035156"/>
      <use xlink:href="#DejaVuSans-6e" x="271.216797"/>
      <use xlink:href="#DejaVuSans-20" x="334.595703"/>
      <use xlink:href="#DejaVuSans-79" x="366.382812"/>
      <use xlink:href="#DejaVuSans-65" x="425.5625"/>
      <use xlink:href="#DejaVuSans-61" x="487.085938"/>
      <use xlink:href="#DejaVuSans-73" x="548.365234"/>
      <use xlink:href="#DejaVuSans-74" x="600.464844"/>
      <use xlink:href="#DejaVuSans-20" x="639.673828"/>
      <use xlink:href="#DejaVuSans-75" x="671.460938"/>
      <use xlink:href="#DejaVuSans-6e" x="734.839844"/>
      <use xlink:href="#DejaVuSans-6b" x="798.21875"/>
      <use xlink:href="#DejaVuSans-6e" x="856.128906"/>
      <use xlink:href="#DejaVuSans-6f" x="919.507812"/>
      <use xlink:href="#DejaVuSans-77" x="980.689453"/>
      <use xlink:href="#DejaVuSans-6e" x="1062.476562"/>
     </g>
    </g>
   </g>
  </g>
 </g>
 <defs>
  <clipPath id="pd89f43d5a0">
   <rect x="61.49" y="71.7874" width="388.51" height="202.0252"/>
  </clipPath>
 </defs>
</svg>
