<?xml version="1.0" encoding="utf-8" standalone="no"?>
<!DOCTYPE svg PUBLIC "-//W3C//DTD SVG 1.1//EN"
  "http://www.w3.org/Graphics/SVG/1.1/DTD/svg11.dtd">
<svg xmlns:xlink="http://www.w3.org/1999/xlink" width="460.8pt" height="345.6pt" viewBox="0 0 460.8 345.6" xmlns="http://www.w3.org/2000/svg" version="1.1">
 <metadata>
  <rdf:RDF xmlns:dc="http://purl.org/dc/elements/1.1/" xmlns:cc="http://creativecommons.org/ns#" xmlns:rdf="http://www.w3.org/1999/02/22-rdf-syntax-ns#">
   <cc:Work>
    <dc:type rdf:resource="http://purl.org/dc/dcmitype/StillImage"/>
    <dc:date>2024-10-02T01:00:37.236308</dc:date>
    <dc:format>image/svg+xml</dc:format>
    <dc:creator>
     <cc:Agent>
      <dc:title>Matplotlib v3.7.1, https://matplotlib.org/</dc:title>
     </cc:Agent>
    </dc:creator>
   </cc:Work>
  </rdf:RDF>
 </metadata>
 <defs>
  <style type="text/css">*{stroke-linejoin: round; stroke-linecap: butt}</style>
 </defs>
 <g id="figure_1">
  <g id="patch_1">
   <path d="M 0 345.6 
L 460.8 345.6 
L 460.8 0 
L 0 0 
z
" style="fill: #ffffff"/>
  </g>
  <g id="axes_1">
   <g id="patch_2">
    <path d="M 61.49 280.281286 
L 450 280.281286 
L 450 67.991527 
L 61.49 67.991527 
z
" style="fill: #ffffff"/>
   </g>
   <g id="PolyCollection_1">
    <path d="M 31.332372 226.406305 
L 31.332372 280.281286 
L 39.756569 280.281286 
L 48.081071 280.281286 
L 65.178702 280.281286 
L 85.017934 280.281286 
L 99.623199 280.281286 
L 108.695411 280.281286 
L 111.038235 280.281286 
L 115.374951 280.281286 
L 117.368844 280.281286 
L 117.618081 280.281286 
L 120.908004 280.281286 
L 121.755408 280.281286 
L 122.45327 280.281286 
L 123.300675 280.281286 
L 123.848995 280.281286 
L 124.6964 280.281286 
L 125.194873 280.281286 
L 126.092125 280.281286 
L 127.28846 280.281286 
L 128.235559 280.281286 
L 128.584491 280.281286 
L 129.581437 280.281286 
L 130.279299 280.281286 
L 131.027009 280.281286 
L 131.824566 280.281286 
L 132.372887 280.281286 
L 132.87136 280.281286 
L 134.267085 280.281286 
L 135.264031 280.281286 
L 136.011741 280.281286 
L 136.21113 280.281286 
L 136.908993 280.281286 
L 137.955787 280.281286 
L 139.052428 280.281286 
L 139.800137 280.281286 
L 140.896778 280.281286 
L 142.342351 280.281286 
L 144.336243 280.281286 
L 146.080899 280.281286 
L 147.576319 280.281286 
L 150.367769 280.281286 
L 151.564104 280.281286 
L 154.80418 280.281286 
L 156.897768 280.281286 
L 158.193798 280.281286 
L 158.991355 280.281286 
L 162.131736 280.281286 
L 163.876392 280.281286 
L 165.670896 280.281286 
L 169.210055 280.281286 
L 172.499978 280.281286 
L 173.048299 280.281286 
L 173.696314 280.281286 
L 174.69326 280.281286 
L 175.490817 280.281286 
L 177.933336 280.281286 
L 182.818373 280.281286 
L 183.765472 280.281286 
L 188.351425 280.281286 
L 189.398219 280.281286 
L 190.445013 280.281286 
L 192.139822 280.281286 
L 193.535547 280.281286 
L 194.881424 280.281286 
L 195.728829 280.281286 
L 198.470431 280.281286 
L 201.311728 280.281286 
L 202.707453 280.281286 
L 203.7044 280.281286 
L 204.950582 280.281286 
L 205.997376 280.281286 
L 207.243559 280.281286 
L 210.184551 280.281286 
L 211.729818 280.281286 
L 213.225237 280.281286 
L 214.770504 280.281286 
L 216.265924 280.281286 
L 217.811191 280.281286 
L 219.356458 280.281286 
L 220.80203 280.281286 
L 222.347297 280.281286 
L 223.842716 280.281286 
L 225.387983 280.281286 
L 226.883403 280.281286 
L 228.428669 280.281286 
L 229.973936 280.281286 
L 231.469356 280.281286 
L 233.014623 280.281286 
L 234.510042 280.281286 
L 236.055309 280.281286 
L 237.600576 280.281286 
L 238.996301 280.281286 
L 240.541568 280.281286 
L 242.036987 280.281286 
L 243.582254 280.281286 
L 245.077674 280.281286 
L 246.622941 280.281286 
L 248.168208 280.281286 
L 249.663627 280.281286 
L 251.208894 280.281286 
L 252.704314 280.281286 
L 254.24958 280.281286 
L 255.794847 280.281286 
L 257.190572 280.281286 
L 258.735839 280.281286 
L 260.231259 280.281286 
L 261.776526 280.281286 
L 263.271945 280.281286 
L 264.817212 280.281286 
L 266.362479 280.281286 
L 267.857898 280.281286 
L 269.403165 280.281286 
L 270.898585 280.281286 
L 272.443852 280.281286 
L 273.989119 280.281286 
L 275.384843 280.281286 
L 276.93011 280.281286 
L 278.42553 280.281286 
L 279.970797 280.281286 
L 281.466216 280.281286 
L 283.011483 280.281286 
L 284.55675 280.281286 
L 286.05217 280.281286 
L 287.597436 280.281286 
L 289.092856 280.281286 
L 290.638123 280.281286 
L 292.18339 280.281286 
L 293.628962 280.281286 
L 295.174229 280.281286 
L 296.669648 280.281286 
L 298.214915 280.281286 
L 299.710335 280.281286 
L 301.255602 280.281286 
L 302.800869 280.281286 
L 304.296288 280.281286 
L 305.841555 280.281286 
L 307.336975 280.281286 
L 308.882241 280.281286 
L 310.427508 280.281286 
L 311.823233 280.281286 
L 313.3685 280.281286 
L 314.86392 280.281286 
L 316.409187 280.281286 
L 317.904606 280.281286 
L 319.449873 280.281286 
L 320.99514 280.281286 
L 322.490559 280.281286 
L 324.035826 280.281286 
L 325.531246 280.281286 
L 327.076513 280.281286 
L 328.62178 280.281286 
L 330.017504 280.281286 
L 331.562771 280.281286 
L 333.058191 280.281286 
L 334.603458 280.281286 
L 336.098877 280.281286 
L 337.644144 280.281286 
L 339.189411 280.281286 
L 340.684831 280.281286 
L 342.230098 280.281286 
L 343.725517 280.281286 
L 345.270784 280.281286 
L 346.816051 280.281286 
L 348.211776 280.281286 
L 349.757043 280.281286 
L 351.252462 280.281286 
L 352.797729 280.281286 
L 354.293149 280.281286 
L 355.838415 280.281286 
L 357.383682 280.281286 
L 358.879102 280.281286 
L 360.424369 280.281286 
L 361.919788 280.281286 
L 363.465055 280.281286 
L 365.010322 280.281286 
L 366.455894 280.281286 
L 368.001161 280.281286 
L 369.496581 280.281286 
L 371.041848 280.281286 
L 372.537267 280.281286 
L 374.082534 280.281286 
L 375.627801 280.281286 
L 377.12322 280.281286 
L 378.668487 280.281286 
L 380.163907 280.281286 
L 381.709174 280.281286 
L 383.254441 280.281286 
L 384.650166 280.281286 
L 386.195432 280.281286 
L 387.690852 280.281286 
L 389.236119 280.281286 
L 390.731538 280.281286 
L 392.276805 280.281286 
L 393.822072 280.281286 
L 395.317492 280.281286 
L 396.862759 280.281286 
L 398.358178 280.281286 
L 399.903445 280.281286 
L 401.448712 280.281286 
L 402.844437 280.281286 
L 404.389704 280.281286 
L 405.885123 280.281286 
L 407.43039 280.281286 
L 408.92581 280.281286 
L 410.471076 280.281286 
L 412.016343 280.281286 
L 413.511763 280.281286 
L 415.05703 280.281286 
L 416.552449 280.281286 
L 418.097716 280.281286 
L 419.642983 280.281286 
L 421.038708 280.281286 
L 422.583975 280.281286 
L 424.079394 280.281286 
L 425.624661 280.281286 
L 427.120081 280.281286 
L 428.665348 280.281286 
L 430.210615 280.281286 
L 431.706034 280.281286 
L 433.251301 280.281286 
L 434.746721 280.281286 
L 436.291987 280.281286 
L 437.837254 280.281286 
L 439.282827 280.281286 
L 440.828093 280.281286 
L 442.323513 280.281286 
L 443.86878 280.281286 
L 445.364199 280.281286 
L 446.909466 280.281286 
L 448.454733 280.281286 
L 449.950153 280.281286 
L 449.950153 175.362651 
L 449.950153 175.362651 
L 448.454733 175.601918 
L 446.909466 175.601918 
L 445.364199 176.47923 
L 443.86878 177.03752 
L 442.323513 177.157154 
L 440.828093 177.276788 
L 439.282827 177.356543 
L 437.837254 179.071291 
L 436.291987 179.190925 
L 434.746721 179.230802 
L 433.251301 179.47007 
L 431.706034 179.589703 
L 430.210615 179.629581 
L 428.665348 179.749215 
L 427.120081 180.227749 
L 425.624661 180.467016 
L 424.079394 180.586649 
L 422.583975 180.586649 
L 421.038708 180.94555 
L 419.642983 181.543718 
L 418.097716 181.50384 
L 416.552449 181.623474 
L 415.05703 181.743107 
L 413.511763 181.982374 
L 412.016343 181.982374 
L 410.471076 182.022252 
L 408.92581 182.022252 
L 407.43039 181.982374 
L 405.885123 182.06213 
L 404.389704 181.982374 
L 402.844437 181.942497 
L 401.448712 181.982374 
L 399.903445 181.982374 
L 398.358178 182.181764 
L 396.862759 182.381153 
L 395.317492 182.700176 
L 393.822072 182.939443 
L 392.276805 182.899565 
L 390.731538 183.098954 
L 389.236119 183.378099 
L 387.690852 183.378099 
L 386.195432 183.537611 
L 384.650166 184.056023 
L 383.254441 184.175656 
L 381.709174 184.614313 
L 380.163907 184.654191 
L 378.668487 184.813702 
L 377.12322 184.893458 
L 375.627801 185.052969 
L 374.082534 185.092847 
L 372.537267 185.172603 
L 371.041848 185.172603 
L 369.496581 185.252358 
L 368.001161 185.611259 
L 366.455894 185.730893 
L 365.010322 185.810648 
L 363.465055 185.890404 
L 361.919788 185.890404 
L 360.424369 185.890404 
L 358.879102 186.010038 
L 357.383682 186.089793 
L 355.838415 186.249305 
L 354.293149 186.488572 
L 352.797729 186.608206 
L 351.252462 186.687961 
L 349.757043 186.767717 
L 348.211776 186.807595 
L 346.816051 186.807595 
L 345.270784 186.847473 
L 343.725517 186.887351 
L 342.230098 186.967106 
L 340.684831 187.006984 
L 339.189411 187.006984 
L 337.644144 187.126618 
L 336.098877 187.246251 
L 334.603458 187.485518 
L 333.058191 187.64503 
L 331.562771 187.964053 
L 330.017504 188.123564 
L 328.62178 188.283075 
L 327.076513 188.322953 
L 325.531246 188.482465 
L 324.035826 188.641976 
L 322.490559 190.396602 
L 320.99514 190.675747 
L 319.449873 191.433426 
L 317.904606 190.79538 
L 316.409187 190.715625 
L 314.86392 190.755502 
L 313.3685 190.835258 
L 311.823233 191.114403 
L 310.427508 191.154281 
L 308.882241 191.234037 
L 307.336975 191.991716 
L 305.841555 192.111349 
L 304.296288 192.310739 
L 302.800869 192.390494 
L 301.255602 192.510128 
L 299.710335 192.948784 
L 298.214915 193.148174 
L 296.669648 193.148174 
L 295.174229 193.546952 
L 293.628962 193.626708 
L 292.18339 193.666586 
L 290.638123 193.865975 
L 289.092856 193.945731 
L 287.597436 193.945731 
L 286.05217 194.14512 
L 284.55675 194.184998 
L 283.011483 194.224876 
L 281.466216 194.384387 
L 279.970797 194.504021 
L 278.42553 193.905853 
L 276.93011 193.985609 
L 275.384843 194.184998 
L 273.989119 194.184998 
L 272.443852 194.424265 
L 270.898585 194.583776 
L 269.403165 194.862921 
L 267.857898 195.221822 
L 266.362479 195.540845 
L 264.817212 195.620601 
L 263.271945 195.899746 
L 261.776526 196.139013 
L 260.231259 196.497914 
L 258.735839 196.657425 
L 257.190572 196.856814 
L 255.794847 196.896692 
L 254.24958 196.896692 
L 252.704314 197.096081 
L 251.208894 197.574616 
L 249.663627 197.614493 
L 248.168208 197.853761 
L 246.622941 198.531684 
L 245.077674 198.61144 
L 243.582254 199.089974 
L 242.036987 199.408997 
L 240.541568 200.485699 
L 238.996301 200.565455 
L 237.600576 200.685088 
L 236.055309 200.964233 
L 234.510042 201.043989 
L 233.014623 201.283256 
L 231.469356 201.482645 
L 229.973936 201.841546 
L 228.428669 202.040935 
L 226.883403 202.160569 
L 225.387983 202.399836 
L 223.842716 202.439714 
L 222.347297 202.559347 
L 220.80203 202.718859 
L 219.356458 202.718859 
L 217.811191 202.798615 
L 216.265924 202.838492 
L 214.770504 202.87837 
L 213.225237 202.918248 
L 211.729818 202.958126 
L 210.184551 203.07776 
L 207.243559 203.835439 
L 205.997376 204.034828 
L 204.950582 204.074706 
L 203.7044 203.955072 
L 202.707453 203.955072 
L 201.311728 204.074706 
L 198.470431 204.194339 
L 195.728829 204.832385 
L 194.881424 205.789454 
L 193.535547 205.629942 
L 192.139822 205.590064 
L 190.445013 206.307866 
L 189.398219 206.307866 
L 188.351425 206.068599 
L 183.765472 206.587011 
L 182.818373 206.666766 
L 177.933336 207.34469 
L 175.490817 207.424446 
L 174.69326 207.264934 
L 173.696314 207.384568 
L 173.048299 207.583957 
L 172.499978 207.623835 
L 169.210055 207.743469 
L 165.670896 207.823224 
L 163.876392 208.022614 
L 162.131736 210.13614 
L 158.991355 210.056384 
L 158.193798 210.096262 
L 156.897768 210.534918 
L 154.80418 211.651498 
L 151.564104 211.890765 
L 150.367769 212.289544 
L 147.576319 212.568689 
L 146.080899 213.406124 
L 144.336243 213.964414 
L 142.342351 214.40307 
L 140.896778 214.442948 
L 139.800137 214.522704 
L 139.052428 214.562582 
L 137.955787 214.60246 
L 136.908993 215.320261 
L 136.21113 215.679162 
L 136.011741 215.679162 
L 135.264031 215.679162 
L 134.267085 215.918429 
L 132.87136 215.679162 
L 132.372887 215.878551 
L 131.824566 215.958307 
L 131.027009 216.07794 
L 130.279299 216.07794 
L 129.581437 216.396963 
L 128.584491 217.114764 
L 128.235559 217.074887 
L 127.28846 217.433787 
L 126.092125 217.513543 
L 125.194873 217.593299 
L 124.6964 217.673054 
L 123.848995 217.792688 
L 123.300675 218.031955 
L 122.45327 218.231344 
L 121.755408 218.151589 
L 120.908004 218.231344 
L 117.618081 218.510489 
L 117.368844 218.470611 
L 115.374951 218.789634 
L 111.038235 216.875497 
L 108.695411 219.706825 
L 99.623199 223.415465 
L 85.017934 226.884839 
L 65.178702 231.351159 
L 48.081071 226.206915 
L 39.756569 225.56887 
L 31.332372 226.406305 
z
" clip-path="url(#p4edd331ba8)" style="fill: #fb363b"/>
   </g>
   <g id="PolyCollection_2">
    <path d="M 31.332372 144.417435 
L 31.332372 226.406305 
L 39.756569 225.56887 
L 48.081071 226.206915 
L 65.178702 231.351159 
L 85.017934 226.884839 
L 99.623199 223.415465 
L 108.695411 219.706825 
L 111.038235 216.875497 
L 115.374951 218.789634 
L 117.368844 218.470611 
L 117.618081 218.510489 
L 120.908004 218.231344 
L 121.755408 218.151589 
L 122.45327 218.231344 
L 123.300675 218.031955 
L 123.848995 217.792688 
L 124.6964 217.673054 
L 125.194873 217.593299 
L 126.092125 217.513543 
L 127.28846 217.433787 
L 128.235559 217.074887 
L 128.584491 217.114764 
L 129.581437 216.396963 
L 130.279299 216.07794 
L 131.027009 216.07794 
L 131.824566 215.958307 
L 132.372887 215.878551 
L 132.87136 215.679162 
L 134.267085 215.918429 
L 135.264031 215.679162 
L 136.011741 215.679162 
L 136.21113 215.679162 
L 136.908993 215.320261 
L 137.955787 214.60246 
L 139.052428 214.562582 
L 139.800137 214.522704 
L 140.896778 214.442948 
L 142.342351 214.40307 
L 144.336243 213.964414 
L 146.080899 213.406124 
L 147.576319 212.568689 
L 150.367769 212.289544 
L 151.564104 211.890765 
L 154.80418 211.651498 
L 156.897768 210.534918 
L 158.193798 210.096262 
L 158.991355 210.056384 
L 162.131736 210.13614 
L 163.876392 208.022614 
L 165.670896 207.823224 
L 169.210055 207.743469 
L 172.499978 207.623835 
L 173.048299 207.583957 
L 173.696314 207.384568 
L 174.69326 207.264934 
L 175.490817 207.424446 
L 177.933336 207.34469 
L 182.818373 206.666766 
L 183.765472 206.587011 
L 188.351425 206.068599 
L 189.398219 206.307866 
L 190.445013 206.307866 
L 192.139822 205.590064 
L 193.535547 205.629942 
L 194.881424 205.789454 
L 195.728829 204.832385 
L 198.470431 204.194339 
L 201.311728 204.074706 
L 202.707453 203.955072 
L 203.7044 203.955072 
L 204.950582 204.074706 
L 205.997376 204.034828 
L 207.243559 203.835439 
L 210.184551 203.07776 
L 211.729818 202.958126 
L 213.225237 202.918248 
L 214.770504 202.87837 
L 216.265924 202.838492 
L 217.811191 202.798615 
L 219.356458 202.718859 
L 220.80203 202.718859 
L 222.347297 202.559347 
L 223.842716 202.439714 
L 225.387983 202.399836 
L 226.883403 202.160569 
L 228.428669 202.040935 
L 229.973936 201.841546 
L 231.469356 201.482645 
L 233.014623 201.283256 
L 234.510042 201.043989 
L 236.055309 200.964233 
L 237.600576 200.685088 
L 238.996301 200.565455 
L 240.541568 200.485699 
L 242.036987 199.408997 
L 243.582254 199.089974 
L 245.077674 198.61144 
L 246.622941 198.531684 
L 248.168208 197.853761 
L 249.663627 197.614493 
L 251.208894 197.574616 
L 252.704314 197.096081 
L 254.24958 196.896692 
L 255.794847 196.896692 
L 257.190572 196.856814 
L 258.735839 196.657425 
L 260.231259 196.497914 
L 261.776526 196.139013 
L 263.271945 195.899746 
L 264.817212 195.620601 
L 266.362479 195.540845 
L 267.857898 195.221822 
L 269.403165 194.862921 
L 270.898585 194.583776 
L 272.443852 194.424265 
L 273.989119 194.184998 
L 275.384843 194.184998 
L 276.93011 193.985609 
L 278.42553 193.905853 
L 279.970797 194.504021 
L 281.466216 194.384387 
L 283.011483 194.224876 
L 284.55675 194.184998 
L 286.05217 194.14512 
L 287.597436 193.945731 
L 289.092856 193.945731 
L 290.638123 193.865975 
L 292.18339 193.666586 
L 293.628962 193.626708 
L 295.174229 193.546952 
L 296.669648 193.148174 
L 298.214915 193.148174 
L 299.710335 192.948784 
L 301.255602 192.510128 
L 302.800869 192.390494 
L 304.296288 192.310739 
L 305.841555 192.111349 
L 307.336975 191.991716 
L 308.882241 191.234037 
L 310.427508 191.154281 
L 311.823233 191.114403 
L 313.3685 190.835258 
L 314.86392 190.755502 
L 316.409187 190.715625 
L 317.904606 190.79538 
L 319.449873 191.433426 
L 320.99514 190.675747 
L 322.490559 190.396602 
L 324.035826 188.641976 
L 325.531246 188.482465 
L 327.076513 188.322953 
L 328.62178 188.283075 
L 330.017504 188.123564 
L 331.562771 187.964053 
L 333.058191 187.64503 
L 334.603458 187.485518 
L 336.098877 187.246251 
L 337.644144 187.126618 
L 339.189411 187.006984 
L 340.684831 187.006984 
L 342.230098 186.967106 
L 343.725517 186.887351 
L 345.270784 186.847473 
L 346.816051 186.807595 
L 348.211776 186.807595 
L 349.757043 186.767717 
L 351.252462 186.687961 
L 352.797729 186.608206 
L 354.293149 186.488572 
L 355.838415 186.249305 
L 357.383682 186.089793 
L 358.879102 186.010038 
L 360.424369 185.890404 
L 361.919788 185.890404 
L 363.465055 185.890404 
L 365.010322 185.810648 
L 366.455894 185.730893 
L 368.001161 185.611259 
L 369.496581 185.252358 
L 371.041848 185.172603 
L 372.537267 185.172603 
L 374.082534 185.092847 
L 375.627801 185.052969 
L 377.12322 184.893458 
L 378.668487 184.813702 
L 380.163907 184.654191 
L 381.709174 184.614313 
L 383.254441 184.175656 
L 384.650166 184.056023 
L 386.195432 183.537611 
L 387.690852 183.378099 
L 389.236119 183.378099 
L 390.731538 183.098954 
L 392.276805 182.899565 
L 393.822072 182.939443 
L 395.317492 182.700176 
L 396.862759 182.381153 
L 398.358178 182.181764 
L 399.903445 181.982374 
L 401.448712 181.982374 
L 402.844437 181.942497 
L 404.389704 181.982374 
L 405.885123 182.06213 
L 407.43039 181.982374 
L 408.92581 182.022252 
L 410.471076 182.022252 
L 412.016343 181.982374 
L 413.511763 181.982374 
L 415.05703 181.743107 
L 416.552449 181.623474 
L 418.097716 181.50384 
L 419.642983 181.543718 
L 421.038708 180.94555 
L 422.583975 180.586649 
L 424.079394 180.586649 
L 425.624661 180.467016 
L 427.120081 180.227749 
L 428.665348 179.749215 
L 430.210615 179.629581 
L 431.706034 179.589703 
L 433.251301 179.47007 
L 434.746721 179.230802 
L 436.291987 179.190925 
L 437.837254 179.071291 
L 439.282827 177.356543 
L 440.828093 177.276788 
L 442.323513 177.157154 
L 443.86878 177.03752 
L 445.364199 176.47923 
L 446.909466 175.601918 
L 448.454733 175.601918 
L 449.950153 175.362651 
L 449.950153 102.306421 
L 449.950153 102.306421 
L 448.454733 102.346298 
L 446.909466 102.585566 
L 445.364199 102.465932 
L 443.86878 102.426054 
L 442.323513 102.585566 
L 440.828093 102.665321 
L 439.282827 102.625443 
L 437.837254 102.904588 
L 436.291987 103.183733 
L 434.746721 103.183733 
L 433.251301 103.303367 
L 431.706034 103.462878 
L 430.210615 103.542634 
L 428.665348 103.542634 
L 427.120081 103.821779 
L 425.624661 104.061046 
L 424.079394 104.18068 
L 422.583975 104.18068 
L 421.038708 104.220558 
L 419.642983 104.380069 
L 418.097716 104.499703 
L 416.552449 104.579458 
L 415.05703 104.579458 
L 413.511763 104.619336 
L 412.016343 104.499703 
L 410.471076 104.53958 
L 408.92581 104.53958 
L 407.43039 104.73897 
L 405.885123 104.699092 
L 404.389704 104.699092 
L 402.844437 104.73897 
L 401.448712 104.818725 
L 399.903445 104.818725 
L 398.358178 104.938359 
L 396.862759 104.898481 
L 395.317492 105.018115 
L 393.822072 105.057993 
L 392.276805 105.09787 
L 390.731538 105.137748 
L 389.236119 105.177626 
L 387.690852 105.137748 
L 386.195432 105.257382 
L 384.650166 105.456771 
L 383.254441 105.616283 
L 381.709174 105.65616 
L 380.163907 105.65616 
L 378.668487 105.735916 
L 377.12322 105.775794 
L 375.627801 105.85555 
L 374.082534 105.85555 
L 372.537267 105.895428 
L 371.041848 105.935305 
L 369.496581 105.815672 
L 368.001161 105.775794 
L 366.455894 105.815672 
L 365.010322 105.735916 
L 363.465055 105.735916 
L 361.919788 105.735916 
L 360.424369 105.735916 
L 358.879102 105.735916 
L 357.383682 105.775794 
L 355.838415 105.735916 
L 354.293149 105.775794 
L 352.797729 105.775794 
L 351.252462 105.65616 
L 349.757043 105.65616 
L 348.211776 105.696038 
L 346.816051 105.696038 
L 345.270784 105.775794 
L 343.725517 105.775794 
L 342.230098 105.85555 
L 340.684831 105.85555 
L 339.189411 105.85555 
L 337.644144 105.895428 
L 336.098877 105.895428 
L 334.603458 105.895428 
L 333.058191 105.935305 
L 331.562771 105.975183 
L 330.017504 106.294206 
L 328.62178 106.41384 
L 327.076513 106.334084 
L 325.531246 106.41384 
L 324.035826 106.533473 
L 322.490559 106.573351 
L 320.99514 107.131641 
L 319.449873 107.450664 
L 317.904606 109.643946 
L 316.409187 110.880159 
L 314.86392 111.318816 
L 313.3685 111.318816 
L 311.823233 111.637839 
L 310.427508 111.558083 
L 308.882241 110.760526 
L 307.336975 110.959915 
L 305.841555 111.398571 
L 304.296288 111.398571 
L 302.800869 111.278938 
L 301.255602 111.438449 
L 299.710335 111.478327 
L 298.214915 111.478327 
L 296.669648 111.518205 
L 295.174229 111.597961 
L 293.628962 111.597961 
L 292.18339 111.637839 
L 290.638123 111.637839 
L 289.092856 111.757472 
L 287.597436 111.79735 
L 286.05217 111.837228 
L 284.55675 111.837228 
L 283.011483 111.79735 
L 281.466216 111.837228 
L 279.970797 111.79735 
L 278.42553 112.435396 
L 276.93011 112.395518 
L 275.384843 112.475274 
L 273.989119 112.555029 
L 272.443852 112.674663 
L 270.898585 112.634785 
L 269.403165 112.91393 
L 267.857898 113.033564 
L 266.362479 113.193075 
L 264.817212 113.392464 
L 263.271945 113.432342 
L 261.776526 113.352586 
L 260.231259 113.432342 
L 258.735839 113.47222 
L 257.190572 113.47222 
L 255.794847 113.47222 
L 254.24958 113.47222 
L 252.704314 113.631731 
L 251.208894 113.711487 
L 249.663627 113.950754 
L 248.168208 113.990632 
L 246.622941 114.229899 
L 245.077674 114.309655 
L 243.582254 114.548922 
L 242.036987 114.668556 
L 240.541568 114.828067 
L 238.996301 114.867945 
L 237.600576 114.907823 
L 236.055309 115.067334 
L 234.510042 115.067334 
L 233.014623 115.266723 
L 231.469356 115.545868 
L 229.973936 115.70538 
L 228.428669 115.864891 
L 226.883403 116.06428 
L 225.387983 116.144036 
L 223.842716 116.463059 
L 222.347297 116.463059 
L 220.80203 116.502937 
L 219.356458 116.502937 
L 217.811191 116.502937 
L 216.265924 116.502937 
L 214.770504 116.502937 
L 213.225237 116.542815 
L 211.729818 116.702326 
L 210.184551 116.782082 
L 207.243559 117.260616 
L 205.997376 117.858784 
L 204.950582 118.137929 
L 203.7044 117.579639 
L 202.707453 117.898662 
L 201.311728 118.018295 
L 198.470431 118.177807 
L 195.728829 118.177807 
L 194.881424 118.337318 
L 193.535547 118.85573 
L 192.139822 118.815852 
L 190.445013 119.733043 
L 189.398219 119.733043 
L 188.351425 120.1717 
L 183.765472 120.450844 
L 182.818373 120.5306 
L 177.933336 121.64718 
L 175.490817 122.644127 
L 174.69326 122.684004 
L 173.696314 122.684004 
L 173.048299 122.684004 
L 172.499978 122.723882 
L 169.210055 122.285226 
L 165.670896 122.803638 
L 163.876392 123.003027 
L 162.131736 123.202416 
L 158.991355 123.32205 
L 158.193798 123.401806 
L 156.897768 123.601195 
L 154.80418 123.920218 
L 151.564104 123.760706 
L 150.367769 124.079729 
L 147.576319 124.039851 
L 146.080899 123.960096 
L 144.336243 124.318996 
L 142.342351 124.239241 
L 140.896778 124.119607 
L 139.800137 124.398752 
L 139.052428 124.43863 
L 137.955787 123.680951 
L 136.908993 123.720829 
L 136.21113 123.88034 
L 136.011741 123.88034 
L 135.264031 123.840462 
L 134.267085 124.358874 
L 132.87136 123.800584 
L 132.372887 123.800584 
L 131.824566 123.840462 
L 131.027009 123.88034 
L 130.279299 123.680951 
L 129.581437 124.119607 
L 128.584491 124.239241 
L 128.235559 123.999974 
L 127.28846 124.159485 
L 126.092125 124.119607 
L 125.194873 124.638019 
L 124.6964 124.558264 
L 123.848995 124.558264 
L 123.300675 122.76376 
L 122.45327 123.162539 
L 121.755408 122.165592 
L 120.908004 121.926325 
L 117.618081 122.20547 
L 117.368844 122.045959 
L 115.374951 122.325104 
L 111.038235 124.119607 
L 108.695411 124.99692 
L 99.623199 127.110446 
L 85.017934 130.141163 
L 65.178702 134.009315 
L 48.081071 140.190383 
L 39.756569 144.098412 
L 31.332372 144.417435 
z
" clip-path="url(#p4edd331ba8)" style="fill: #fdc92c"/>
   </g>
   <g id="PolyCollection_3">
    <path d="M 31.332372 112.993686 
L 31.332372 144.417435 
L 39.756569 144.098412 
L 48.081071 140.190383 
L 65.178702 134.009315 
L 85.017934 130.141163 
L 99.623199 127.110446 
L 108.695411 124.99692 
L 111.038235 124.119607 
L 115.374951 122.325104 
L 117.368844 122.045959 
L 117.618081 122.20547 
L 120.908004 121.926325 
L 121.755408 122.165592 
L 122.45327 123.162539 
L 123.300675 122.76376 
L 123.848995 124.558264 
L 124.6964 124.558264 
L 125.194873 124.638019 
L 126.092125 124.119607 
L 127.28846 124.159485 
L 128.235559 123.999974 
L 128.584491 124.239241 
L 129.581437 124.119607 
L 130.279299 123.680951 
L 131.027009 123.88034 
L 131.824566 123.840462 
L 132.372887 123.800584 
L 132.87136 123.800584 
L 134.267085 124.358874 
L 135.264031 123.840462 
L 136.011741 123.88034 
L 136.21113 123.88034 
L 136.908993 123.720829 
L 137.955787 123.680951 
L 139.052428 124.43863 
L 139.800137 124.398752 
L 140.896778 124.119607 
L 142.342351 124.239241 
L 144.336243 124.318996 
L 146.080899 123.960096 
L 147.576319 124.039851 
L 150.367769 124.079729 
L 151.564104 123.760706 
L 154.80418 123.920218 
L 156.897768 123.601195 
L 158.193798 123.401806 
L 158.991355 123.32205 
L 162.131736 123.202416 
L 163.876392 123.003027 
L 165.670896 122.803638 
L 169.210055 122.285226 
L 172.499978 122.723882 
L 173.048299 122.684004 
L 173.696314 122.684004 
L 174.69326 122.684004 
L 175.490817 122.644127 
L 177.933336 121.64718 
L 182.818373 120.5306 
L 183.765472 120.450844 
L 188.351425 120.1717 
L 189.398219 119.733043 
L 190.445013 119.733043 
L 192.139822 118.815852 
L 193.535547 118.85573 
L 194.881424 118.337318 
L 195.728829 118.177807 
L 198.470431 118.177807 
L 201.311728 118.018295 
L 202.707453 117.898662 
L 203.7044 117.579639 
L 204.950582 118.137929 
L 205.997376 117.858784 
L 207.243559 117.260616 
L 210.184551 116.782082 
L 211.729818 116.702326 
L 213.225237 116.542815 
L 214.770504 116.502937 
L 216.265924 116.502937 
L 217.811191 116.502937 
L 219.356458 116.502937 
L 220.80203 116.502937 
L 222.347297 116.463059 
L 223.842716 116.463059 
L 225.387983 116.144036 
L 226.883403 116.06428 
L 228.428669 115.864891 
L 229.973936 115.70538 
L 231.469356 115.545868 
L 233.014623 115.266723 
L 234.510042 115.067334 
L 236.055309 115.067334 
L 237.600576 114.907823 
L 238.996301 114.867945 
L 240.541568 114.828067 
L 242.036987 114.668556 
L 243.582254 114.548922 
L 245.077674 114.309655 
L 246.622941 114.229899 
L 248.168208 113.990632 
L 249.663627 113.950754 
L 251.208894 113.711487 
L 252.704314 113.631731 
L 254.24958 113.47222 
L 255.794847 113.47222 
L 257.190572 113.47222 
L 258.735839 113.47222 
L 260.231259 113.432342 
L 261.776526 113.352586 
L 263.271945 113.432342 
L 264.817212 113.392464 
L 266.362479 113.193075 
L 267.857898 113.033564 
L 269.403165 112.91393 
L 270.898585 112.634785 
L 272.443852 112.674663 
L 273.989119 112.555029 
L 275.384843 112.475274 
L 276.93011 112.395518 
L 278.42553 112.435396 
L 279.970797 111.79735 
L 281.466216 111.837228 
L 283.011483 111.79735 
L 284.55675 111.837228 
L 286.05217 111.837228 
L 287.597436 111.79735 
L 289.092856 111.757472 
L 290.638123 111.637839 
L 292.18339 111.637839 
L 293.628962 111.597961 
L 295.174229 111.597961 
L 296.669648 111.518205 
L 298.214915 111.478327 
L 299.710335 111.478327 
L 301.255602 111.438449 
L 302.800869 111.278938 
L 304.296288 111.398571 
L 305.841555 111.398571 
L 307.336975 110.959915 
L 308.882241 110.760526 
L 310.427508 111.558083 
L 311.823233 111.637839 
L 313.3685 111.318816 
L 314.86392 111.318816 
L 316.409187 110.880159 
L 317.904606 109.643946 
L 319.449873 107.450664 
L 320.99514 107.131641 
L 322.490559 106.573351 
L 324.035826 106.533473 
L 325.531246 106.41384 
L 327.076513 106.334084 
L 328.62178 106.41384 
L 330.017504 106.294206 
L 331.562771 105.975183 
L 333.058191 105.935305 
L 334.603458 105.895428 
L 336.098877 105.895428 
L 337.644144 105.895428 
L 339.189411 105.85555 
L 340.684831 105.85555 
L 342.230098 105.85555 
L 343.725517 105.775794 
L 345.270784 105.775794 
L 346.816051 105.696038 
L 348.211776 105.696038 
L 349.757043 105.65616 
L 351.252462 105.65616 
L 352.797729 105.775794 
L 354.293149 105.775794 
L 355.838415 105.735916 
L 357.383682 105.775794 
L 358.879102 105.735916 
L 360.424369 105.735916 
L 361.919788 105.735916 
L 363.465055 105.735916 
L 365.010322 105.735916 
L 366.455894 105.815672 
L 368.001161 105.775794 
L 369.496581 105.815672 
L 371.041848 105.935305 
L 372.537267 105.895428 
L 374.082534 105.85555 
L 375.627801 105.85555 
L 377.12322 105.775794 
L 378.668487 105.735916 
L 380.163907 105.65616 
L 381.709174 105.65616 
L 383.254441 105.616283 
L 384.650166 105.456771 
L 386.195432 105.257382 
L 387.690852 105.137748 
L 389.236119 105.177626 
L 390.731538 105.137748 
L 392.276805 105.09787 
L 393.822072 105.057993 
L 395.317492 105.018115 
L 396.862759 104.898481 
L 398.358178 104.938359 
L 399.903445 104.818725 
L 401.448712 104.818725 
L 402.844437 104.73897 
L 404.389704 104.699092 
L 405.885123 104.699092 
L 407.43039 104.73897 
L 408.92581 104.53958 
L 410.471076 104.53958 
L 412.016343 104.499703 
L 413.511763 104.619336 
L 415.05703 104.579458 
L 416.552449 104.579458 
L 418.097716 104.499703 
L 419.642983 104.380069 
L 421.038708 104.220558 
L 422.583975 104.18068 
L 424.079394 104.18068 
L 425.624661 104.061046 
L 427.120081 103.821779 
L 428.665348 103.542634 
L 430.210615 103.542634 
L 431.706034 103.462878 
L 433.251301 103.303367 
L 434.746721 103.183733 
L 436.291987 103.183733 
L 437.837254 102.904588 
L 439.282827 102.625443 
L 440.828093 102.665321 
L 442.323513 102.585566 
L 443.86878 102.426054 
L 445.364199 102.465932 
L 446.909466 102.585566 
L 448.454733 102.346298 
L 449.950153 102.306421 
L 449.950153 88.349171 
L 449.950153 88.349171 
L 448.454733 88.309294 
L 446.909466 88.668194 
L 445.364199 88.907461 
L 443.86878 88.907461 
L 442.323513 88.947339 
L 440.828093 88.947339 
L 439.282827 88.947339 
L 437.837254 88.987217 
L 436.291987 88.987217 
L 434.746721 88.987217 
L 433.251301 89.027095 
L 431.706034 89.027095 
L 430.210615 89.027095 
L 428.665348 89.027095 
L 427.120081 89.106851 
L 425.624661 89.106851 
L 424.079394 89.106851 
L 422.583975 89.106851 
L 421.038708 89.106851 
L 419.642983 89.146729 
L 418.097716 89.146729 
L 416.552449 89.226484 
L 415.05703 89.226484 
L 413.511763 89.266362 
L 412.016343 89.266362 
L 410.471076 89.266362 
L 408.92581 89.266362 
L 407.43039 89.346118 
L 405.885123 89.425873 
L 404.389704 89.425873 
L 402.844437 89.425873 
L 401.448712 89.425873 
L 399.903445 89.425873 
L 398.358178 89.465751 
L 396.862759 89.425873 
L 395.317492 89.505629 
L 393.822072 89.505629 
L 392.276805 89.505629 
L 390.731538 89.545507 
L 389.236119 89.545507 
L 387.690852 89.545507 
L 386.195432 89.585385 
L 384.650166 89.625263 
L 383.254441 89.665141 
L 381.709174 89.665141 
L 380.163907 89.625263 
L 378.668487 89.625263 
L 377.12322 89.625263 
L 375.627801 89.585385 
L 374.082534 89.585385 
L 372.537267 89.625263 
L 371.041848 89.625263 
L 369.496581 89.545507 
L 368.001161 89.505629 
L 366.455894 89.505629 
L 365.010322 89.545507 
L 363.465055 89.545507 
L 361.919788 89.545507 
L 360.424369 89.545507 
L 358.879102 89.545507 
L 357.383682 89.545507 
L 355.838415 89.545507 
L 354.293149 89.545507 
L 352.797729 89.545507 
L 351.252462 89.465751 
L 349.757043 89.465751 
L 348.211776 89.465751 
L 346.816051 89.465751 
L 345.270784 89.425873 
L 343.725517 89.425873 
L 342.230098 89.505629 
L 340.684831 89.505629 
L 339.189411 89.505629 
L 337.644144 89.545507 
L 336.098877 89.545507 
L 334.603458 89.545507 
L 333.058191 89.585385 
L 331.562771 89.625263 
L 330.017504 89.705018 
L 328.62178 89.705018 
L 327.076513 89.705018 
L 325.531246 89.86453 
L 324.035826 89.86453 
L 322.490559 89.86453 
L 320.99514 89.744896 
L 319.449873 89.784774 
L 317.904606 89.984163 
L 316.409187 90.941232 
L 314.86392 91.100743 
L 313.3685 91.140621 
L 311.823233 91.180499 
L 310.427508 91.180499 
L 308.882241 91.180499 
L 307.336975 91.180499 
L 305.841555 91.220377 
L 304.296288 91.220377 
L 302.800869 91.260255 
L 301.255602 91.300133 
L 299.710335 91.340011 
L 298.214915 91.340011 
L 296.669648 91.340011 
L 295.174229 91.340011 
L 293.628962 91.340011 
L 292.18339 91.379888 
L 290.638123 91.379888 
L 289.092856 91.419766 
L 287.597436 91.459644 
L 286.05217 91.459644 
L 284.55675 91.459644 
L 283.011483 91.459644 
L 281.466216 91.459644 
L 279.970797 91.459644 
L 278.42553 91.459644 
L 276.93011 91.459644 
L 275.384843 91.5394 
L 273.989119 91.5394 
L 272.443852 91.5394 
L 270.898585 91.579278 
L 269.403165 91.579278 
L 267.857898 91.619156 
L 266.362479 91.778667 
L 264.817212 92.735735 
L 263.271945 92.735735 
L 261.776526 92.735735 
L 260.231259 92.815491 
L 258.735839 92.815491 
L 257.190572 92.815491 
L 255.794847 92.815491 
L 254.24958 92.815491 
L 252.704314 92.815491 
L 251.208894 92.895247 
L 249.663627 92.815491 
L 248.168208 92.855369 
L 246.622941 92.935125 
L 245.077674 93.01488 
L 243.582254 93.21427 
L 242.036987 93.254148 
L 240.541568 93.254148 
L 238.996301 93.254148 
L 237.600576 93.254148 
L 236.055309 93.333903 
L 234.510042 93.333903 
L 233.014623 93.413659 
L 231.469356 93.413659 
L 229.973936 93.294025 
L 228.428669 93.373781 
L 226.883403 93.373781 
L 225.387983 93.373781 
L 223.842716 93.413659 
L 222.347297 93.413659 
L 220.80203 93.413659 
L 219.356458 93.453537 
L 217.811191 93.453537 
L 216.265924 93.493415 
L 214.770504 93.453537 
L 213.225237 93.453537 
L 211.729818 93.533293 
L 210.184551 93.57317 
L 207.243559 93.852315 
L 205.997376 94.450483 
L 204.950582 94.729628 
L 203.7044 94.091582 
L 202.707453 94.609995 
L 201.311728 94.649872 
L 198.470431 95.567063 
L 195.728829 95.567063 
L 194.881424 95.527185 
L 193.535547 95.686697 
L 192.139822 95.686697 
L 190.445013 95.766452 
L 189.398219 95.766452 
L 188.351425 95.80633 
L 183.765472 95.965842 
L 182.818373 95.965842 
L 177.933336 97.002666 
L 175.490817 97.122299 
L 174.69326 97.162177 
L 173.696314 97.281811 
L 173.048299 97.281811 
L 172.499978 97.281811 
L 169.210055 97.281811 
L 165.670896 97.521078 
L 163.876392 97.640712 
L 162.131736 97.680589 
L 158.991355 97.760345 
L 158.193798 97.879979 
L 156.897768 98.079368 
L 154.80418 98.318635 
L 151.564104 98.478147 
L 150.367769 99.116192 
L 147.576319 99.15607 
L 146.080899 99.435215 
L 144.336243 99.754238 
L 142.342351 99.833994 
L 140.896778 99.833994 
L 139.800137 99.833994 
L 139.052428 99.833994 
L 137.955787 99.993505 
L 136.908993 100.153016 
L 136.21113 100.27265 
L 136.011741 100.27265 
L 135.264031 100.232772 
L 134.267085 100.791062 
L 132.87136 100.312528 
L 132.372887 100.312528 
L 131.824566 100.392284 
L 131.027009 100.392284 
L 130.279299 100.392284 
L 129.581437 100.990451 
L 128.584491 100.990451 
L 128.235559 100.511917 
L 127.28846 101.110085 
L 126.092125 102.226665 
L 125.194873 103.143856 
L 124.6964 103.183733 
L 123.848995 103.183733 
L 123.300675 103.223611 
L 122.45327 103.821779 
L 121.755408 103.263489 
L 120.908004 103.263489 
L 117.618081 103.542634 
L 117.368844 103.582512 
L 115.374951 103.62239 
L 111.038235 100.990451 
L 108.695411 103.781901 
L 99.623199 105.696038 
L 85.017934 107.650053 
L 65.178702 109.0059 
L 48.081071 111.039671 
L 39.756569 113.432342 
L 31.332372 112.993686 
z
" clip-path="url(#p4edd331ba8)" style="fill: #aeaeae"/>
   </g>
   <g id="PolyCollection_4">
    <path d="M 31.332372 88.787828 
L 31.332372 112.993686 
L 39.756569 113.432342 
L 48.081071 111.039671 
L 65.178702 109.0059 
L 85.017934 107.650053 
L 99.623199 105.696038 
L 108.695411 103.781901 
L 111.038235 100.990451 
L 115.374951 103.62239 
L 117.368844 103.582512 
L 117.618081 103.542634 
L 120.908004 103.263489 
L 121.755408 103.263489 
L 122.45327 103.821779 
L 123.300675 103.223611 
L 123.848995 103.183733 
L 124.6964 103.183733 
L 125.194873 103.143856 
L 126.092125 102.226665 
L 127.28846 101.110085 
L 128.235559 100.511917 
L 128.584491 100.990451 
L 129.581437 100.990451 
L 130.279299 100.392284 
L 131.027009 100.392284 
L 131.824566 100.392284 
L 132.372887 100.312528 
L 132.87136 100.312528 
L 134.267085 100.791062 
L 135.264031 100.232772 
L 136.011741 100.27265 
L 136.21113 100.27265 
L 136.908993 100.153016 
L 137.955787 99.993505 
L 139.052428 99.833994 
L 139.800137 99.833994 
L 140.896778 99.833994 
L 142.342351 99.833994 
L 144.336243 99.754238 
L 146.080899 99.435215 
L 147.576319 99.15607 
L 150.367769 99.116192 
L 151.564104 98.478147 
L 154.80418 98.318635 
L 156.897768 98.079368 
L 158.193798 97.879979 
L 158.991355 97.760345 
L 162.131736 97.680589 
L 163.876392 97.640712 
L 165.670896 97.521078 
L 169.210055 97.281811 
L 172.499978 97.281811 
L 173.048299 97.281811 
L 173.696314 97.281811 
L 174.69326 97.162177 
L 175.490817 97.122299 
L 177.933336 97.002666 
L 182.818373 95.965842 
L 183.765472 95.965842 
L 188.351425 95.80633 
L 189.398219 95.766452 
L 190.445013 95.766452 
L 192.139822 95.686697 
L 193.535547 95.686697 
L 194.881424 95.527185 
L 195.728829 95.567063 
L 198.470431 95.567063 
L 201.311728 94.649872 
L 202.707453 94.609995 
L 203.7044 94.091582 
L 204.950582 94.729628 
L 205.997376 94.450483 
L 207.243559 93.852315 
L 210.184551 93.57317 
L 211.729818 93.533293 
L 213.225237 93.453537 
L 214.770504 93.453537 
L 216.265924 93.493415 
L 217.811191 93.453537 
L 219.356458 93.453537 
L 220.80203 93.413659 
L 222.347297 93.413659 
L 223.842716 93.413659 
L 225.387983 93.373781 
L 226.883403 93.373781 
L 228.428669 93.373781 
L 229.973936 93.294025 
L 231.469356 93.413659 
L 233.014623 93.413659 
L 234.510042 93.333903 
L 236.055309 93.333903 
L 237.600576 93.254148 
L 238.996301 93.254148 
L 240.541568 93.254148 
L 242.036987 93.254148 
L 243.582254 93.21427 
L 245.077674 93.01488 
L 246.622941 92.935125 
L 248.168208 92.855369 
L 249.663627 92.815491 
L 251.208894 92.895247 
L 252.704314 92.815491 
L 254.24958 92.815491 
L 255.794847 92.815491 
L 257.190572 92.815491 
L 258.735839 92.815491 
L 260.231259 92.815491 
L 261.776526 92.735735 
L 263.271945 92.735735 
L 264.817212 92.735735 
L 266.362479 91.778667 
L 267.857898 91.619156 
L 269.403165 91.579278 
L 270.898585 91.579278 
L 272.443852 91.5394 
L 273.989119 91.5394 
L 275.384843 91.5394 
L 276.93011 91.459644 
L 278.42553 91.459644 
L 279.970797 91.459644 
L 281.466216 91.459644 
L 283.011483 91.459644 
L 284.55675 91.459644 
L 286.05217 91.459644 
L 287.597436 91.459644 
L 289.092856 91.419766 
L 290.638123 91.379888 
L 292.18339 91.379888 
L 293.628962 91.340011 
L 295.174229 91.340011 
L 296.669648 91.340011 
L 298.214915 91.340011 
L 299.710335 91.340011 
L 301.255602 91.300133 
L 302.800869 91.260255 
L 304.296288 91.220377 
L 305.841555 91.220377 
L 307.336975 91.180499 
L 308.882241 91.180499 
L 310.427508 91.180499 
L 311.823233 91.180499 
L 313.3685 91.140621 
L 314.86392 91.100743 
L 316.409187 90.941232 
L 317.904606 89.984163 
L 319.449873 89.784774 
L 320.99514 89.744896 
L 322.490559 89.86453 
L 324.035826 89.86453 
L 325.531246 89.86453 
L 327.076513 89.705018 
L 328.62178 89.705018 
L 330.017504 89.705018 
L 331.562771 89.625263 
L 333.058191 89.585385 
L 334.603458 89.545507 
L 336.098877 89.545507 
L 337.644144 89.545507 
L 339.189411 89.505629 
L 340.684831 89.505629 
L 342.230098 89.505629 
L 343.725517 89.425873 
L 345.270784 89.425873 
L 346.816051 89.465751 
L 348.211776 89.465751 
L 349.757043 89.465751 
L 351.252462 89.465751 
L 352.797729 89.545507 
L 354.293149 89.545507 
L 355.838415 89.545507 
L 357.383682 89.545507 
L 358.879102 89.545507 
L 360.424369 89.545507 
L 361.919788 89.545507 
L 363.465055 89.545507 
L 365.010322 89.545507 
L 366.455894 89.505629 
L 368.001161 89.505629 
L 369.496581 89.545507 
L 371.041848 89.625263 
L 372.537267 89.625263 
L 374.082534 89.585385 
L 375.627801 89.585385 
L 377.12322 89.625263 
L 378.668487 89.625263 
L 380.163907 89.625263 
L 381.709174 89.665141 
L 383.254441 89.665141 
L 384.650166 89.625263 
L 386.195432 89.585385 
L 387.690852 89.545507 
L 389.236119 89.545507 
L 390.731538 89.545507 
L 392.276805 89.505629 
L 393.822072 89.505629 
L 395.317492 89.505629 
L 396.862759 89.425873 
L 398.358178 89.465751 
L 399.903445 89.425873 
L 401.448712 89.425873 
L 402.844437 89.425873 
L 404.389704 89.425873 
L 405.885123 89.425873 
L 407.43039 89.346118 
L 408.92581 89.266362 
L 410.471076 89.266362 
L 412.016343 89.266362 
L 413.511763 89.266362 
L 415.05703 89.226484 
L 416.552449 89.226484 
L 418.097716 89.146729 
L 419.642983 89.146729 
L 421.038708 89.106851 
L 422.583975 89.106851 
L 424.079394 89.106851 
L 425.624661 89.106851 
L 427.120081 89.106851 
L 428.665348 89.027095 
L 430.210615 89.027095 
L 431.706034 89.027095 
L 433.251301 89.027095 
L 434.746721 88.987217 
L 436.291987 88.987217 
L 437.837254 88.987217 
L 439.282827 88.947339 
L 440.828093 88.947339 
L 442.323513 88.947339 
L 443.86878 88.907461 
L 445.364199 88.907461 
L 446.909466 88.668194 
L 448.454733 88.309294 
L 449.950153 88.349171 
L 449.950153 78.579097 
L 449.950153 78.579097 
L 448.454733 78.579097 
L 446.909466 78.579097 
L 445.364199 78.618975 
L 443.86878 78.618975 
L 442.323513 78.618975 
L 440.828093 78.618975 
L 439.282827 78.618975 
L 437.837254 78.618975 
L 436.291987 78.618975 
L 434.746721 78.618975 
L 433.251301 78.618975 
L 431.706034 78.618975 
L 430.210615 78.618975 
L 428.665348 78.618975 
L 427.120081 78.618975 
L 425.624661 78.618975 
L 424.079394 78.618975 
L 422.583975 78.618975 
L 421.038708 78.618975 
L 419.642983 78.818364 
L 418.097716 78.858242 
L 416.552449 78.89812 
L 415.05703 78.89812 
L 413.511763 78.89812 
L 412.016343 78.89812 
L 410.471076 78.89812 
L 408.92581 78.89812 
L 407.43039 78.89812 
L 405.885123 78.89812 
L 404.389704 78.89812 
L 402.844437 78.937998 
L 401.448712 78.89812 
L 399.903445 78.89812 
L 398.358178 78.937998 
L 396.862759 78.658853 
L 395.317492 78.658853 
L 393.822072 78.299952 
L 392.276805 78.299952 
L 390.731538 78.299952 
L 389.236119 78.299952 
L 387.690852 78.299952 
L 386.195432 78.299952 
L 384.650166 78.33983 
L 383.254441 78.33983 
L 381.709174 78.33983 
L 380.163907 78.299952 
L 378.668487 78.299952 
L 377.12322 78.299952 
L 375.627801 78.33983 
L 374.082534 78.33983 
L 372.537267 78.33983 
L 371.041848 78.33983 
L 369.496581 78.260074 
L 368.001161 78.220196 
L 366.455894 78.220196 
L 365.010322 78.220196 
L 363.465055 78.220196 
L 361.919788 78.220196 
L 360.424369 78.220196 
L 358.879102 78.220196 
L 357.383682 78.220196 
L 355.838415 78.220196 
L 354.293149 78.220196 
L 352.797729 78.220196 
L 351.252462 78.140441 
L 349.757043 78.140441 
L 348.211776 78.140441 
L 346.816051 78.140441 
L 345.270784 78.140441 
L 343.725517 78.140441 
L 342.230098 78.140441 
L 340.684831 78.140441 
L 339.189411 78.140441 
L 337.644144 78.100563 
L 336.098877 78.100563 
L 334.603458 78.100563 
L 333.058191 78.100563 
L 331.562771 78.100563 
L 330.017504 78.100563 
L 328.62178 78.100563 
L 327.076513 78.100563 
L 325.531246 78.100563 
L 324.035826 78.100563 
L 322.490559 78.100563 
L 320.99514 78.100563 
L 319.449873 78.100563 
L 317.904606 78.100563 
L 316.409187 78.100563 
L 314.86392 78.100563 
L 313.3685 78.100563 
L 311.823233 78.100563 
L 310.427508 78.100563 
L 308.882241 78.100563 
L 307.336975 78.100563 
L 305.841555 78.100563 
L 304.296288 78.100563 
L 302.800869 78.100563 
L 301.255602 78.100563 
L 299.710335 78.100563 
L 298.214915 78.100563 
L 296.669648 78.100563 
L 295.174229 78.100563 
L 293.628962 78.459463 
L 292.18339 78.499341 
L 290.638123 78.499341 
L 289.092856 78.499341 
L 287.597436 78.658853 
L 286.05217 78.658853 
L 284.55675 78.658853 
L 283.011483 78.658853 
L 281.466216 78.658853 
L 279.970797 78.658853 
L 278.42553 78.658853 
L 276.93011 78.658853 
L 275.384843 78.658853 
L 273.989119 78.658853 
L 272.443852 78.658853 
L 270.898585 78.698731 
L 269.403165 78.698731 
L 267.857898 78.698731 
L 266.362479 78.698731 
L 264.817212 78.419586 
L 263.271945 78.579097 
L 261.776526 78.539219 
L 260.231259 78.539219 
L 258.735839 78.539219 
L 257.190572 78.539219 
L 255.794847 78.539219 
L 254.24958 78.539219 
L 252.704314 78.539219 
L 251.208894 78.579097 
L 249.663627 78.579097 
L 248.168208 78.579097 
L 246.622941 78.539219 
L 245.077674 78.539219 
L 243.582254 78.539219 
L 242.036987 78.539219 
L 240.541568 78.539219 
L 238.996301 78.539219 
L 237.600576 78.539219 
L 236.055309 78.539219 
L 234.510042 78.539219 
L 233.014623 78.539219 
L 231.469356 78.579097 
L 229.973936 78.539219 
L 228.428669 78.579097 
L 226.883403 78.539219 
L 225.387983 78.539219 
L 223.842716 78.539219 
L 222.347297 78.539219 
L 220.80203 78.539219 
L 219.356458 78.539219 
L 217.811191 78.579097 
L 216.265924 78.579097 
L 214.770504 78.539219 
L 213.225237 78.539219 
L 211.729818 78.539219 
L 210.184551 78.618975 
L 207.243559 78.89812 
L 205.997376 79.576043 
L 204.950582 79.655799 
L 203.7044 79.017753 
L 202.707453 80.57299 
L 201.311728 80.57299 
L 198.470431 82.008593 
L 195.728829 82.008593 
L 194.881424 81.968715 
L 193.535547 82.128226 
L 192.139822 82.088348 
L 190.445013 82.088348 
L 189.398219 82.088348 
L 188.351425 82.088348 
L 183.765472 82.407371 
L 182.818373 82.407371 
L 177.933336 82.60676 
L 175.490817 82.566882 
L 174.69326 82.566882 
L 173.696314 82.646638 
L 173.048299 82.646638 
L 172.499978 82.646638 
L 169.210055 83.204928 
L 165.670896 83.324562 
L 163.876392 83.324562 
L 162.131736 83.324562 
L 158.991355 83.324562 
L 158.193798 83.284684 
L 156.897768 83.284684 
L 154.80418 83.16505 
L 151.564104 83.125172 
L 150.367769 84.161997 
L 147.576319 84.28163 
L 146.080899 84.401264 
L 144.336243 84.28163 
L 142.342351 84.28163 
L 140.896778 84.241752 
L 139.800137 84.241752 
L 139.052428 84.241752 
L 137.955787 84.201875 
L 136.908993 84.201875 
L 136.21113 84.241752 
L 136.011741 84.241752 
L 135.264031 84.241752 
L 134.267085 84.680409 
L 132.87136 84.241752 
L 132.372887 84.241752 
L 131.824566 84.28163 
L 131.027009 84.201875 
L 130.279299 84.201875 
L 129.581437 84.600653 
L 128.584491 84.520897 
L 128.235559 84.082241 
L 127.28846 84.640531 
L 126.092125 84.48102 
L 125.194873 84.520897 
L 124.6964 84.520897 
L 123.848995 84.520897 
L 123.300675 84.560775 
L 122.45327 85.079187 
L 121.755408 84.520897 
L 120.908004 84.520897 
L 117.618081 85.517844 
L 117.368844 85.557722 
L 115.374951 85.517844 
L 111.038235 84.600653 
L 108.695411 85.517844 
L 99.623199 86.315401 
L 85.017934 86.754057 
L 65.178702 87.471859 
L 48.081071 87.910515 
L 39.756569 88.947339 
L 31.332372 88.787828 
z
" clip-path="url(#p4edd331ba8)" style="fill: #d5dce5"/>
   </g>
   <g id="matplotlib.axis_1">
    <g id="xtick_1">
     <g id="line2d_1">
      <defs>
       <path id="m84fd1b46ce" d="M 0 0 
L 0 3.5 
" style="stroke: #000000; stroke-width: 0.8"/>
      </defs>
      <g>
       <use xlink:href="#m84fd1b46ce" x="72.157326" y="280.281286" style="stroke: #000000; stroke-width: 0.8"/>
      </g>
     </g>
     <g id="text_1">
      <!-- 2004 -->
      <g transform="translate(59.432326 294.879724) scale(0.1 -0.1)">
       <defs>
        <path id="DejaVuSans-32" d="M 1228 531 
L 3431 531 
L 3431 0 
L 469 0 
L 469 531 
Q 828 903 1448 1529 
Q 2069 2156 2228 2338 
Q 2531 2678 2651 2914 
Q 2772 3150 2772 3378 
Q 2772 3750 2511 3984 
Q 2250 4219 1831 4219 
Q 1534 4219 1204 4116 
Q 875 4013 500 3803 
L 500 4441 
Q 881 4594 1212 4672 
Q 1544 4750 1819 4750 
Q 2544 4750 2975 4387 
Q 3406 4025 3406 3419 
Q 3406 3131 3298 2873 
Q 3191 2616 2906 2266 
Q 2828 2175 2409 1742 
Q 1991 1309 1228 531 
z
" transform="scale(0.015625)"/>
        <path id="DejaVuSans-30" d="M 2034 4250 
Q 1547 4250 1301 3770 
Q 1056 3291 1056 2328 
Q 1056 1369 1301 889 
Q 1547 409 2034 409 
Q 2525 409 2770 889 
Q 3016 1369 3016 2328 
Q 3016 3291 2770 3770 
Q 2525 4250 2034 4250 
z
M 2034 4750 
Q 2819 4750 3233 4129 
Q 3647 3509 3647 2328 
Q 3647 1150 3233 529 
Q 2819 -91 2034 -91 
Q 1250 -91 836 529 
Q 422 1150 422 2328 
Q 422 3509 836 4129 
Q 1250 4750 2034 4750 
z
" transform="scale(0.015625)"/>
        <path id="DejaVuSans-34" d="M 2419 4116 
L 825 1625 
L 2419 1625 
L 2419 4116 
z
M 2253 4666 
L 3047 4666 
L 3047 1625 
L 3713 1625 
L 3713 1100 
L 3047 1100 
L 3047 0 
L 2419 0 
L 2419 1100 
L 313 1100 
L 313 1709 
L 2253 4666 
z
" transform="scale(0.015625)"/>
       </defs>
       <use xlink:href="#DejaVuSans-32"/>
       <use xlink:href="#DejaVuSans-30" x="63.623047"/>
       <use xlink:href="#DejaVuSans-30" x="127.246094"/>
       <use xlink:href="#DejaVuSans-34" x="190.869141"/>
      </g>
     </g>
    </g>
    <g id="xtick_2">
     <g id="line2d_2">
      <g>
       <use xlink:href="#m84fd1b46ce" x="144.984258" y="280.281286" style="stroke: #000000; stroke-width: 0.8"/>
      </g>
     </g>
     <g id="text_2">
      <!-- 2008 -->
      <g transform="translate(132.259258 294.879724) scale(0.1 -0.1)">
       <defs>
        <path id="DejaVuSans-38" d="M 2034 2216 
Q 1584 2216 1326 1975 
Q 1069 1734 1069 1313 
Q 1069 891 1326 650 
Q 1584 409 2034 409 
Q 2484 409 2743 651 
Q 3003 894 3003 1313 
Q 3003 1734 2745 1975 
Q 2488 2216 2034 2216 
z
M 1403 2484 
Q 997 2584 770 2862 
Q 544 3141 544 3541 
Q 544 4100 942 4425 
Q 1341 4750 2034 4750 
Q 2731 4750 3128 4425 
Q 3525 4100 3525 3541 
Q 3525 3141 3298 2862 
Q 3072 2584 2669 2484 
Q 3125 2378 3379 2068 
Q 3634 1759 3634 1313 
Q 3634 634 3220 271 
Q 2806 -91 2034 -91 
Q 1263 -91 848 271 
Q 434 634 434 1313 
Q 434 1759 690 2068 
Q 947 2378 1403 2484 
z
M 1172 3481 
Q 1172 3119 1398 2916 
Q 1625 2713 2034 2713 
Q 2441 2713 2670 2916 
Q 2900 3119 2900 3481 
Q 2900 3844 2670 4047 
Q 2441 4250 2034 4250 
Q 1625 4250 1398 4047 
Q 1172 3844 1172 3481 
z
" transform="scale(0.015625)"/>
       </defs>
       <use xlink:href="#DejaVuSans-32"/>
       <use xlink:href="#DejaVuSans-30" x="63.623047"/>
       <use xlink:href="#DejaVuSans-30" x="127.246094"/>
       <use xlink:href="#DejaVuSans-38" x="190.869141"/>
      </g>
     </g>
    </g>
    <g id="xtick_3">
     <g id="line2d_3">
      <g>
       <use xlink:href="#m84fd1b46ce" x="217.811191" y="280.281286" style="stroke: #000000; stroke-width: 0.8"/>
      </g>
     </g>
     <g id="text_3">
      <!-- 2012 -->
      <g transform="translate(205.086191 294.879724) scale(0.1 -0.1)">
       <defs>
        <path id="DejaVuSans-31" d="M 794 531 
L 1825 531 
L 1825 4091 
L 703 3866 
L 703 4441 
L 1819 4666 
L 2450 4666 
L 2450 531 
L 3481 531 
L 3481 0 
L 794 0 
L 794 531 
z
" transform="scale(0.015625)"/>
       </defs>
       <use xlink:href="#DejaVuSans-32"/>
       <use xlink:href="#DejaVuSans-30" x="63.623047"/>
       <use xlink:href="#DejaVuSans-31" x="127.246094"/>
       <use xlink:href="#DejaVuSans-32" x="190.869141"/>
      </g>
     </g>
    </g>
    <g id="xtick_4">
     <g id="line2d_4">
      <g>
       <use xlink:href="#m84fd1b46ce" x="290.638123" y="280.281286" style="stroke: #000000; stroke-width: 0.8"/>
      </g>
     </g>
     <g id="text_4">
      <!-- 2016 -->
      <g transform="translate(277.913123 294.879724) scale(0.1 -0.1)">
       <defs>
        <path id="DejaVuSans-36" d="M 2113 2584 
Q 1688 2584 1439 2293 
Q 1191 2003 1191 1497 
Q 1191 994 1439 701 
Q 1688 409 2113 409 
Q 2538 409 2786 701 
Q 3034 994 3034 1497 
Q 3034 2003 2786 2293 
Q 2538 2584 2113 2584 
z
M 3366 4563 
L 3366 3988 
Q 3128 4100 2886 4159 
Q 2644 4219 2406 4219 
Q 1781 4219 1451 3797 
Q 1122 3375 1075 2522 
Q 1259 2794 1537 2939 
Q 1816 3084 2150 3084 
Q 2853 3084 3261 2657 
Q 3669 2231 3669 1497 
Q 3669 778 3244 343 
Q 2819 -91 2113 -91 
Q 1303 -91 875 529 
Q 447 1150 447 2328 
Q 447 3434 972 4092 
Q 1497 4750 2381 4750 
Q 2619 4750 2861 4703 
Q 3103 4656 3366 4563 
z
" transform="scale(0.015625)"/>
       </defs>
       <use xlink:href="#DejaVuSans-32"/>
       <use xlink:href="#DejaVuSans-30" x="63.623047"/>
       <use xlink:href="#DejaVuSans-31" x="127.246094"/>
       <use xlink:href="#DejaVuSans-36" x="190.869141"/>
      </g>
     </g>
    </g>
    <g id="xtick_5">
     <g id="line2d_5">
      <g>
       <use xlink:href="#m84fd1b46ce" x="363.465055" y="280.281286" style="stroke: #000000; stroke-width: 0.8"/>
      </g>
     </g>
     <g id="text_5">
      <!-- 2020 -->
      <g transform="translate(350.740055 294.879724) scale(0.1 -0.1)">
       <use xlink:href="#DejaVuSans-32"/>
       <use xlink:href="#DejaVuSans-30" x="63.623047"/>
       <use xlink:href="#DejaVuSans-32" x="127.246094"/>
       <use xlink:href="#DejaVuSans-30" x="190.869141"/>
      </g>
     </g>
    </g>
    <g id="xtick_6">
     <g id="line2d_6">
      <g>
       <use xlink:href="#m84fd1b46ce" x="436.291987" y="280.281286" style="stroke: #000000; stroke-width: 0.8"/>
      </g>
     </g>
     <g id="text_6">
      <!-- 2024 -->
      <g transform="translate(423.566987 294.879724) scale(0.1 -0.1)">
       <use xlink:href="#DejaVuSans-32"/>
       <use xlink:href="#DejaVuSans-30" x="63.623047"/>
       <use xlink:href="#DejaVuSans-32" x="127.246094"/>
       <use xlink:href="#DejaVuSans-34" x="190.869141"/>
      </g>
     </g>
    </g>
    <g id="text_7">
     <!-- Year -->
     <g transform="translate(239.86375 312.357068) scale(0.15 -0.15)">
      <defs>
       <path id="DejaVuSans-59" d="M -13 4666 
L 666 4666 
L 1959 2747 
L 3244 4666 
L 3922 4666 
L 2272 2222 
L 2272 0 
L 1638 0 
L 1638 2222 
L -13 4666 
z
" transform="scale(0.015625)"/>
       <path id="DejaVuSans-65" d="M 3597 1894 
L 3597 1613 
L 953 1613 
Q 991 1019 1311 708 
Q 1631 397 2203 397 
Q 2534 397 2845 478 
Q 3156 559 3463 722 
L 3463 178 
Q 3153 47 2828 -22 
Q 2503 -91 2169 -91 
Q 1331 -91 842 396 
Q 353 884 353 1716 
Q 353 2575 817 3079 
Q 1281 3584 2069 3584 
Q 2775 3584 3186 3129 
Q 3597 2675 3597 1894 
z
M 3022 2063 
Q 3016 2534 2758 2815 
Q 2500 3097 2075 3097 
Q 1594 3097 1305 2825 
Q 1016 2553 972 2059 
L 3022 2063 
z
" transform="scale(0.015625)"/>
       <path id="DejaVuSans-61" d="M 2194 1759 
Q 1497 1759 1228 1600 
Q 959 1441 959 1056 
Q 959 750 1161 570 
Q 1363 391 1709 391 
Q 2188 391 2477 730 
Q 2766 1069 2766 1631 
L 2766 1759 
L 2194 1759 
z
M 3341 1997 
L 3341 0 
L 2766 0 
L 2766 531 
Q 2569 213 2275 61 
Q 1981 -91 1556 -91 
Q 1019 -91 701 211 
Q 384 513 384 1019 
Q 384 1609 779 1909 
Q 1175 2209 1959 2209 
L 2766 2209 
L 2766 2266 
Q 2766 2663 2505 2880 
Q 2244 3097 1772 3097 
Q 1472 3097 1187 3025 
Q 903 2953 641 2809 
L 641 3341 
Q 956 3463 1253 3523 
Q 1550 3584 1831 3584 
Q 2591 3584 2966 3190 
Q 3341 2797 3341 1997 
z
" transform="scale(0.015625)"/>
       <path id="DejaVuSans-72" d="M 2631 2963 
Q 2534 3019 2420 3045 
Q 2306 3072 2169 3072 
Q 1681 3072 1420 2755 
Q 1159 2438 1159 1844 
L 1159 0 
L 581 0 
L 581 3500 
L 1159 3500 
L 1159 2956 
Q 1341 3275 1631 3429 
Q 1922 3584 2338 3584 
Q 2397 3584 2469 3576 
Q 2541 3569 2628 3553 
L 2631 2963 
z
" transform="scale(0.015625)"/>
      </defs>
      <use xlink:href="#DejaVuSans-59"/>
      <use xlink:href="#DejaVuSans-65" x="47.833984"/>
      <use xlink:href="#DejaVuSans-61" x="109.357422"/>
      <use xlink:href="#DejaVuSans-72" x="170.636719"/>
     </g>
    </g>
   </g>
   <g id="matplotlib.axis_2">
    <g id="ytick_1">
     <g id="line2d_7">
      <defs>
       <path id="ma2a2021e4e" d="M 0 0 
L -3.5 0 
" style="stroke: #000000; stroke-width: 0.8"/>
      </defs>
      <g>
       <use xlink:href="#ma2a2021e4e" x="61.49" y="280.281286" style="stroke: #000000; stroke-width: 0.8"/>
      </g>
     </g>
     <g id="text_8">
      <!-- 0 -->
      <g transform="translate(48.1275 284.080505) scale(0.1 -0.1)">
       <use xlink:href="#DejaVuSans-30"/>
      </g>
     </g>
    </g>
    <g id="ytick_2">
     <g id="line2d_8">
      <g>
       <use xlink:href="#ma2a2021e4e" x="61.49" y="240.403432" style="stroke: #000000; stroke-width: 0.8"/>
      </g>
     </g>
     <g id="text_9">
      <!-- 1000 -->
      <g transform="translate(29.04 244.20265) scale(0.1 -0.1)">
       <use xlink:href="#DejaVuSans-31"/>
       <use xlink:href="#DejaVuSans-30" x="63.623047"/>
       <use xlink:href="#DejaVuSans-30" x="127.246094"/>
       <use xlink:href="#DejaVuSans-30" x="190.869141"/>
      </g>
     </g>
    </g>
    <g id="ytick_3">
     <g id="line2d_9">
      <g>
       <use xlink:href="#ma2a2021e4e" x="61.49" y="200.525577" style="stroke: #000000; stroke-width: 0.8"/>
      </g>
     </g>
     <g id="text_10">
      <!-- 2000 -->
      <g transform="translate(29.04 204.324796) scale(0.1 -0.1)">
       <use xlink:href="#DejaVuSans-32"/>
       <use xlink:href="#DejaVuSans-30" x="63.623047"/>
       <use xlink:href="#DejaVuSans-30" x="127.246094"/>
       <use xlink:href="#DejaVuSans-30" x="190.869141"/>
      </g>
     </g>
    </g>
    <g id="ytick_4">
     <g id="line2d_10">
      <g>
       <use xlink:href="#ma2a2021e4e" x="61.49" y="160.647722" style="stroke: #000000; stroke-width: 0.8"/>
      </g>
     </g>
     <g id="text_11">
      <!-- 3000 -->
      <g transform="translate(29.04 164.446941) scale(0.1 -0.1)">
       <defs>
        <path id="DejaVuSans-33" d="M 2597 2516 
Q 3050 2419 3304 2112 
Q 3559 1806 3559 1356 
Q 3559 666 3084 287 
Q 2609 -91 1734 -91 
Q 1441 -91 1130 -33 
Q 819 25 488 141 
L 488 750 
Q 750 597 1062 519 
Q 1375 441 1716 441 
Q 2309 441 2620 675 
Q 2931 909 2931 1356 
Q 2931 1769 2642 2001 
Q 2353 2234 1838 2234 
L 1294 2234 
L 1294 2753 
L 1863 2753 
Q 2328 2753 2575 2939 
Q 2822 3125 2822 3475 
Q 2822 3834 2567 4026 
Q 2313 4219 1838 4219 
Q 1578 4219 1281 4162 
Q 984 4106 628 3988 
L 628 4550 
Q 988 4650 1302 4700 
Q 1616 4750 1894 4750 
Q 2613 4750 3031 4423 
Q 3450 4097 3450 3541 
Q 3450 3153 3228 2886 
Q 3006 2619 2597 2516 
z
" transform="scale(0.015625)"/>
       </defs>
       <use xlink:href="#DejaVuSans-33"/>
       <use xlink:href="#DejaVuSans-30" x="63.623047"/>
       <use xlink:href="#DejaVuSans-30" x="127.246094"/>
       <use xlink:href="#DejaVuSans-30" x="190.869141"/>
      </g>
     </g>
    </g>
    <g id="ytick_5">
     <g id="line2d_11">
      <g>
       <use xlink:href="#ma2a2021e4e" x="61.49" y="120.769867" style="stroke: #000000; stroke-width: 0.8"/>
      </g>
     </g>
     <g id="text_12">
      <!-- 4000 -->
      <g transform="translate(29.04 124.569086) scale(0.1 -0.1)">
       <use xlink:href="#DejaVuSans-34"/>
       <use xlink:href="#DejaVuSans-30" x="63.623047"/>
       <use xlink:href="#DejaVuSans-30" x="127.246094"/>
       <use xlink:href="#DejaVuSans-30" x="190.869141"/>
      </g>
     </g>
    </g>
    <g id="ytick_6">
     <g id="line2d_12">
      <g>
       <use xlink:href="#ma2a2021e4e" x="61.49" y="80.892013" style="stroke: #000000; stroke-width: 0.8"/>
      </g>
     </g>
     <g id="text_13">
      <!-- 5000 -->
      <g transform="translate(29.04 84.691231) scale(0.1 -0.1)">
       <defs>
        <path id="DejaVuSans-35" d="M 691 4666 
L 3169 4666 
L 3169 4134 
L 1269 4134 
L 1269 2991 
Q 1406 3038 1543 3061 
Q 1681 3084 1819 3084 
Q 2600 3084 3056 2656 
Q 3513 2228 3513 1497 
Q 3513 744 3044 326 
Q 2575 -91 1722 -91 
Q 1428 -91 1123 -41 
Q 819 9 494 109 
L 494 744 
Q 775 591 1075 516 
Q 1375 441 1709 441 
Q 2250 441 2565 725 
Q 2881 1009 2881 1497 
Q 2881 1984 2565 2268 
Q 2250 2553 1709 2553 
Q 1456 2553 1204 2497 
Q 953 2441 691 2322 
L 691 4666 
z
" transform="scale(0.015625)"/>
       </defs>
       <use xlink:href="#DejaVuSans-35"/>
       <use xlink:href="#DejaVuSans-30" x="63.623047"/>
       <use xlink:href="#DejaVuSans-30" x="127.246094"/>
       <use xlink:href="#DejaVuSans-30" x="190.869141"/>
      </g>
     </g>
    </g>
    <g id="text_14">
     <!-- Number of proteins -->
     <g transform="translate(21.920469 246.825469) rotate(-90) scale(0.15 -0.15)">
      <defs>
       <path id="DejaVuSans-4e" d="M 628 4666 
L 1478 4666 
L 3547 763 
L 3547 4666 
L 4159 4666 
L 4159 0 
L 3309 0 
L 1241 3903 
L 1241 0 
L 628 0 
L 628 4666 
z
" transform="scale(0.015625)"/>
       <path id="DejaVuSans-75" d="M 544 1381 
L 544 3500 
L 1119 3500 
L 1119 1403 
Q 1119 906 1312 657 
Q 1506 409 1894 409 
Q 2359 409 2629 706 
Q 2900 1003 2900 1516 
L 2900 3500 
L 3475 3500 
L 3475 0 
L 2900 0 
L 2900 538 
Q 2691 219 2414 64 
Q 2138 -91 1772 -91 
Q 1169 -91 856 284 
Q 544 659 544 1381 
z
M 1991 3584 
L 1991 3584 
z
" transform="scale(0.015625)"/>
       <path id="DejaVuSans-6d" d="M 3328 2828 
Q 3544 3216 3844 3400 
Q 4144 3584 4550 3584 
Q 5097 3584 5394 3201 
Q 5691 2819 5691 2113 
L 5691 0 
L 5113 0 
L 5113 2094 
Q 5113 2597 4934 2840 
Q 4756 3084 4391 3084 
Q 3944 3084 3684 2787 
Q 3425 2491 3425 1978 
L 3425 0 
L 2847 0 
L 2847 2094 
Q 2847 2600 2669 2842 
Q 2491 3084 2119 3084 
Q 1678 3084 1418 2786 
Q 1159 2488 1159 1978 
L 1159 0 
L 581 0 
L 581 3500 
L 1159 3500 
L 1159 2956 
Q 1356 3278 1631 3431 
Q 1906 3584 2284 3584 
Q 2666 3584 2933 3390 
Q 3200 3197 3328 2828 
z
" transform="scale(0.015625)"/>
       <path id="DejaVuSans-62" d="M 3116 1747 
Q 3116 2381 2855 2742 
Q 2594 3103 2138 3103 
Q 1681 3103 1420 2742 
Q 1159 2381 1159 1747 
Q 1159 1113 1420 752 
Q 1681 391 2138 391 
Q 2594 391 2855 752 
Q 3116 1113 3116 1747 
z
M 1159 2969 
Q 1341 3281 1617 3432 
Q 1894 3584 2278 3584 
Q 2916 3584 3314 3078 
Q 3713 2572 3713 1747 
Q 3713 922 3314 415 
Q 2916 -91 2278 -91 
Q 1894 -91 1617 61 
Q 1341 213 1159 525 
L 1159 0 
L 581 0 
L 581 4863 
L 1159 4863 
L 1159 2969 
z
" transform="scale(0.015625)"/>
       <path id="DejaVuSans-20" transform="scale(0.015625)"/>
       <path id="DejaVuSans-6f" d="M 1959 3097 
Q 1497 3097 1228 2736 
Q 959 2375 959 1747 
Q 959 1119 1226 758 
Q 1494 397 1959 397 
Q 2419 397 2687 759 
Q 2956 1122 2956 1747 
Q 2956 2369 2687 2733 
Q 2419 3097 1959 3097 
z
M 1959 3584 
Q 2709 3584 3137 3096 
Q 3566 2609 3566 1747 
Q 3566 888 3137 398 
Q 2709 -91 1959 -91 
Q 1206 -91 779 398 
Q 353 888 353 1747 
Q 353 2609 779 3096 
Q 1206 3584 1959 3584 
z
" transform="scale(0.015625)"/>
       <path id="DejaVuSans-66" d="M 2375 4863 
L 2375 4384 
L 1825 4384 
Q 1516 4384 1395 4259 
Q 1275 4134 1275 3809 
L 1275 3500 
L 2222 3500 
L 2222 3053 
L 1275 3053 
L 1275 0 
L 697 0 
L 697 3053 
L 147 3053 
L 147 3500 
L 697 3500 
L 697 3744 
Q 697 4328 969 4595 
Q 1241 4863 1831 4863 
L 2375 4863 
z
" transform="scale(0.015625)"/>
       <path id="DejaVuSans-70" d="M 1159 525 
L 1159 -1331 
L 581 -1331 
L 581 3500 
L 1159 3500 
L 1159 2969 
Q 1341 3281 1617 3432 
Q 1894 3584 2278 3584 
Q 2916 3584 3314 3078 
Q 3713 2572 3713 1747 
Q 3713 922 3314 415 
Q 2916 -91 2278 -91 
Q 1894 -91 1617 61 
Q 1341 213 1159 525 
z
M 3116 1747 
Q 3116 2381 2855 2742 
Q 2594 3103 2138 3103 
Q 1681 3103 1420 2742 
Q 1159 2381 1159 1747 
Q 1159 1113 1420 752 
Q 1681 391 2138 391 
Q 2594 391 2855 752 
Q 3116 1113 3116 1747 
z
" transform="scale(0.015625)"/>
       <path id="DejaVuSans-74" d="M 1172 4494 
L 1172 3500 
L 2356 3500 
L 2356 3053 
L 1172 3053 
L 1172 1153 
Q 1172 725 1289 603 
Q 1406 481 1766 481 
L 2356 481 
L 2356 0 
L 1766 0 
Q 1100 0 847 248 
Q 594 497 594 1153 
L 594 3053 
L 172 3053 
L 172 3500 
L 594 3500 
L 594 4494 
L 1172 4494 
z
" transform="scale(0.015625)"/>
       <path id="DejaVuSans-69" d="M 603 3500 
L 1178 3500 
L 1178 0 
L 603 0 
L 603 3500 
z
M 603 4863 
L 1178 4863 
L 1178 4134 
L 603 4134 
L 603 4863 
z
" transform="scale(0.015625)"/>
       <path id="DejaVuSans-6e" d="M 3513 2113 
L 3513 0 
L 2938 0 
L 2938 2094 
Q 2938 2591 2744 2837 
Q 2550 3084 2163 3084 
Q 1697 3084 1428 2787 
Q 1159 2491 1159 1978 
L 1159 0 
L 581 0 
L 581 3500 
L 1159 3500 
L 1159 2956 
Q 1366 3272 1645 3428 
Q 1925 3584 2291 3584 
Q 2894 3584 3203 3211 
Q 3513 2838 3513 2113 
z
" transform="scale(0.015625)"/>
       <path id="DejaVuSans-73" d="M 2834 3397 
L 2834 2853 
Q 2591 2978 2328 3040 
Q 2066 3103 1784 3103 
Q 1356 3103 1142 2972 
Q 928 2841 928 2578 
Q 928 2378 1081 2264 
Q 1234 2150 1697 2047 
L 1894 2003 
Q 2506 1872 2764 1633 
Q 3022 1394 3022 966 
Q 3022 478 2636 193 
Q 2250 -91 1575 -91 
Q 1294 -91 989 -36 
Q 684 19 347 128 
L 347 722 
Q 666 556 975 473 
Q 1284 391 1588 391 
Q 1994 391 2212 530 
Q 2431 669 2431 922 
Q 2431 1156 2273 1281 
Q 2116 1406 1581 1522 
L 1381 1569 
Q 847 1681 609 1914 
Q 372 2147 372 2553 
Q 372 3047 722 3315 
Q 1072 3584 1716 3584 
Q 2034 3584 2315 3537 
Q 2597 3491 2834 3397 
z
" transform="scale(0.015625)"/>
      </defs>
      <use xlink:href="#DejaVuSans-4e"/>
      <use xlink:href="#DejaVuSans-75" x="74.804688"/>
      <use xlink:href="#DejaVuSans-6d" x="138.183594"/>
      <use xlink:href="#DejaVuSans-62" x="235.595703"/>
      <use xlink:href="#DejaVuSans-65" x="299.072266"/>
      <use xlink:href="#DejaVuSans-72" x="360.595703"/>
      <use xlink:href="#DejaVuSans-20" x="401.708984"/>
      <use xlink:href="#DejaVuSans-6f" x="433.496094"/>
      <use xlink:href="#DejaVuSans-66" x="494.677734"/>
      <use xlink:href="#DejaVuSans-20" x="529.882812"/>
      <use xlink:href="#DejaVuSans-70" x="561.669922"/>
      <use xlink:href="#DejaVuSans-72" x="625.146484"/>
      <use xlink:href="#DejaVuSans-6f" x="664.009766"/>
      <use xlink:href="#DejaVuSans-74" x="725.191406"/>
      <use xlink:href="#DejaVuSans-65" x="764.400391"/>
      <use xlink:href="#DejaVuSans-69" x="825.923828"/>
      <use xlink:href="#DejaVuSans-6e" x="853.707031"/>
      <use xlink:href="#DejaVuSans-73" x="917.085938"/>
     </g>
    </g>
   </g>
   <g id="patch_3">
    <path d="M 61.49 280.281286 
L 61.49 67.991527 
" style="fill: none; stroke: #000000; stroke-width: 0.8; stroke-linejoin: miter; stroke-linecap: square"/>
   </g>
   <g id="patch_4">
    <path d="M 61.49 280.281286 
L 450 280.281286 
" style="fill: none; stroke: #000000; stroke-width: 0.8; stroke-linejoin: miter; stroke-linecap: square"/>
   </g>
   <g id="legend_1">
    <g id="patch_5">
     <path d="M 128.755156 62.991527 
L 382.734844 62.991527 
Q 384.734844 62.991527 384.734844 60.991527 
L 384.734844 32.635277 
Q 384.734844 30.635277 382.734844 30.635277 
L 128.755156 30.635277 
Q 126.755156 30.635277 126.755156 32.635277 
L 126.755156 60.991527 
Q 126.755156 62.991527 128.755156 62.991527 
z
" style="fill: #ffffff; opacity: 0.8; stroke: #cccccc; stroke-linejoin: miter"/>
    </g>
    <g id="patch_6">
     <path d="M 130.755156 42.233714 
L 150.755156 42.233714 
L 150.755156 35.233714 
L 130.755156 35.233714 
z
" style="fill: #fb363b"/>
    </g>
    <g id="text_15">
     <!-- Published -->
     <g transform="translate(158.755156 42.233714) scale(0.1 -0.1)">
      <defs>
       <path id="DejaVuSans-50" d="M 1259 4147 
L 1259 2394 
L 2053 2394 
Q 2494 2394 2734 2622 
Q 2975 2850 2975 3272 
Q 2975 3691 2734 3919 
Q 2494 4147 2053 4147 
L 1259 4147 
z
M 628 4666 
L 2053 4666 
Q 2838 4666 3239 4311 
Q 3641 3956 3641 3272 
Q 3641 2581 3239 2228 
Q 2838 1875 2053 1875 
L 1259 1875 
L 1259 0 
L 628 0 
L 628 4666 
z
" transform="scale(0.015625)"/>
       <path id="DejaVuSans-6c" d="M 603 4863 
L 1178 4863 
L 1178 0 
L 603 0 
L 603 4863 
z
" transform="scale(0.015625)"/>
       <path id="DejaVuSans-68" d="M 3513 2113 
L 3513 0 
L 2938 0 
L 2938 2094 
Q 2938 2591 2744 2837 
Q 2550 3084 2163 3084 
Q 1697 3084 1428 2787 
Q 1159 2491 1159 1978 
L 1159 0 
L 581 0 
L 581 4863 
L 1159 4863 
L 1159 2956 
Q 1366 3272 1645 3428 
Q 1925 3584 2291 3584 
Q 2894 3584 3203 3211 
Q 3513 2838 3513 2113 
z
" transform="scale(0.015625)"/>
       <path id="DejaVuSans-64" d="M 2906 2969 
L 2906 4863 
L 3481 4863 
L 3481 0 
L 2906 0 
L 2906 525 
Q 2725 213 2448 61 
Q 2172 -91 1784 -91 
Q 1150 -91 751 415 
Q 353 922 353 1747 
Q 353 2572 751 3078 
Q 1150 3584 1784 3584 
Q 2172 3584 2448 3432 
Q 2725 3281 2906 2969 
z
M 947 1747 
Q 947 1113 1208 752 
Q 1469 391 1925 391 
Q 2381 391 2643 752 
Q 2906 1113 2906 1747 
Q 2906 2381 2643 2742 
Q 2381 3103 1925 3103 
Q 1469 3103 1208 2742 
Q 947 2381 947 1747 
z
" transform="scale(0.015625)"/>
      </defs>
      <use xlink:href="#DejaVuSans-50"/>
      <use xlink:href="#DejaVuSans-75" x="58.552734"/>
      <use xlink:href="#DejaVuSans-62" x="121.931641"/>
      <use xlink:href="#DejaVuSans-6c" x="185.408203"/>
      <use xlink:href="#DejaVuSans-69" x="213.191406"/>
      <use xlink:href="#DejaVuSans-73" x="240.974609"/>
      <use xlink:href="#DejaVuSans-68" x="293.074219"/>
      <use xlink:href="#DejaVuSans-65" x="356.453125"/>
      <use xlink:href="#DejaVuSans-64" x="417.976562"/>
     </g>
    </g>
    <g id="patch_7">
     <path d="M 130.755156 56.911839 
L 150.755156 56.911839 
L 150.755156 49.911839 
L 130.755156 49.911839 
z
" style="fill: #fdc92c"/>
    </g>
    <g id="text_16">
     <!-- Inferred role -->
     <g transform="translate(158.755156 56.911839) scale(0.1 -0.1)">
      <defs>
       <path id="DejaVuSans-49" d="M 628 4666 
L 1259 4666 
L 1259 0 
L 628 0 
L 628 4666 
z
" transform="scale(0.015625)"/>
      </defs>
      <use xlink:href="#DejaVuSans-49"/>
      <use xlink:href="#DejaVuSans-6e" x="29.492188"/>
      <use xlink:href="#DejaVuSans-66" x="92.871094"/>
      <use xlink:href="#DejaVuSans-65" x="128.076172"/>
      <use xlink:href="#DejaVuSans-72" x="189.599609"/>
      <use xlink:href="#DejaVuSans-72" x="228.962891"/>
      <use xlink:href="#DejaVuSans-65" x="267.826172"/>
      <use xlink:href="#DejaVuSans-64" x="329.349609"/>
      <use xlink:href="#DejaVuSans-20" x="392.826172"/>
      <use xlink:href="#DejaVuSans-72" x="424.613281"/>
      <use xlink:href="#DejaVuSans-6f" x="463.476562"/>
      <use xlink:href="#DejaVuSans-6c" x="524.658203"/>
      <use xlink:href="#DejaVuSans-65" x="552.441406"/>
     </g>
    </g>
    <g id="patch_8">
     <path d="M 240.153594 42.233714 
L 260.153594 42.233714 
L 260.153594 35.233714 
L 240.153594 35.233714 
z
" style="fill: #aeaeae"/>
    </g>
    <g id="text_17">
     <!-- Conserved unknown -->
     <g transform="translate(268.153594 42.233714) scale(0.1 -0.1)">
      <defs>
       <path id="DejaVuSans-43" d="M 4122 4306 
L 4122 3641 
Q 3803 3938 3442 4084 
Q 3081 4231 2675 4231 
Q 1875 4231 1450 3742 
Q 1025 3253 1025 2328 
Q 1025 1406 1450 917 
Q 1875 428 2675 428 
Q 3081 428 3442 575 
Q 3803 722 4122 1019 
L 4122 359 
Q 3791 134 3420 21 
Q 3050 -91 2638 -91 
Q 1578 -91 968 557 
Q 359 1206 359 2328 
Q 359 3453 968 4101 
Q 1578 4750 2638 4750 
Q 3056 4750 3426 4639 
Q 3797 4528 4122 4306 
z
" transform="scale(0.015625)"/>
       <path id="DejaVuSans-76" d="M 191 3500 
L 800 3500 
L 1894 563 
L 2988 3500 
L 3597 3500 
L 2284 0 
L 1503 0 
L 191 3500 
z
" transform="scale(0.015625)"/>
       <path id="DejaVuSans-6b" d="M 581 4863 
L 1159 4863 
L 1159 1991 
L 2875 3500 
L 3609 3500 
L 1753 1863 
L 3688 0 
L 2938 0 
L 1159 1709 
L 1159 0 
L 581 0 
L 581 4863 
z
" transform="scale(0.015625)"/>
       <path id="DejaVuSans-77" d="M 269 3500 
L 844 3500 
L 1563 769 
L 2278 3500 
L 2956 3500 
L 3675 769 
L 4391 3500 
L 4966 3500 
L 4050 0 
L 3372 0 
L 2619 2869 
L 1863 0 
L 1184 0 
L 269 3500 
z
" transform="scale(0.015625)"/>
      </defs>
      <use xlink:href="#DejaVuSans-43"/>
      <use xlink:href="#DejaVuSans-6f" x="69.824219"/>
      <use xlink:href="#DejaVuSans-6e" x="131.005859"/>
      <use xlink:href="#DejaVuSans-73" x="194.384766"/>
      <use xlink:href="#DejaVuSans-65" x="246.484375"/>
      <use xlink:href="#DejaVuSans-72" x="308.007812"/>
      <use xlink:href="#DejaVuSans-76" x="349.121094"/>
      <use xlink:href="#DejaVuSans-65" x="408.300781"/>
      <use xlink:href="#DejaVuSans-64" x="469.824219"/>
      <use xlink:href="#DejaVuSans-20" x="533.300781"/>
      <use xlink:href="#DejaVuSans-75" x="565.087891"/>
      <use xlink:href="#DejaVuSans-6e" x="628.466797"/>
      <use xlink:href="#DejaVuSans-6b" x="691.845703"/>
      <use xlink:href="#DejaVuSans-6e" x="749.755859"/>
      <use xlink:href="#DejaVuSans-6f" x="813.134766"/>
      <use xlink:href="#DejaVuSans-77" x="874.316406"/>
      <use xlink:href="#DejaVuSans-6e" x="956.103516"/>
     </g>
    </g>
    <g id="patch_9">
     <path d="M 240.153594 56.911839 
L 260.153594 56.911839 
L 260.153594 49.911839 
L 240.153594 49.911839 
z
" style="fill: #d5dce5"/>
    </g>
    <g id="text_18">
     <!-- Fission yeast unknown -->
     <g transform="translate(268.153594 56.911839) scale(0.1 -0.1)">
      <defs>
       <path id="DejaVuSans-46" d="M 628 4666 
L 3309 4666 
L 3309 4134 
L 1259 4134 
L 1259 2759 
L 3109 2759 
L 3109 2228 
L 1259 2228 
L 1259 0 
L 628 0 
L 628 4666 
z
" transform="scale(0.015625)"/>
       <path id="DejaVuSans-79" d="M 2059 -325 
Q 1816 -950 1584 -1140 
Q 1353 -1331 966 -1331 
L 506 -1331 
L 506 -850 
L 844 -850 
Q 1081 -850 1212 -737 
Q 1344 -625 1503 -206 
L 1606 56 
L 191 3500 
L 800 3500 
L 1894 763 
L 2988 3500 
L 3597 3500 
L 2059 -325 
z
" transform="scale(0.015625)"/>
      </defs>
      <use xlink:href="#DejaVuSans-46"/>
      <use xlink:href="#DejaVuSans-69" x="50.269531"/>
      <use xlink:href="#DejaVuSans-73" x="78.052734"/>
      <use xlink:href="#DejaVuSans-73" x="130.152344"/>
      <use xlink:href="#DejaVuSans-69" x="182.251953"/>
      <use xlink:href="#DejaVuSans-6f" x="210.035156"/>
      <use xlink:href="#DejaVuSans-6e" x="271.216797"/>
      <use xlink:href="#DejaVuSans-20" x="334.595703"/>
      <use xlink:href="#DejaVuSans-79" x="366.382812"/>
      <use xlink:href="#DejaVuSans-65" x="425.5625"/>
      <use xlink:href="#DejaVuSans-61" x="487.085938"/>
      <use xlink:href="#DejaVuSans-73" x="548.365234"/>
      <use xlink:href="#DejaVuSans-74" x="600.464844"/>
      <use xlink:href="#DejaVuSans-20" x="639.673828"/>
      <use xlink:href="#DejaVuSans-75" x="671.460938"/>
      <use xlink:href="#DejaVuSans-6e" x="734.839844"/>
      <use xlink:href="#DejaVuSans-6b" x="798.21875"/>
      <use xlink:href="#DejaVuSans-6e" x="856.128906"/>
      <use xlink:href="#DejaVuSans-6f" x="919.507812"/>
      <use xlink:href="#DejaVuSans-77" x="980.689453"/>
      <use xlink:href="#DejaVuSans-6e" x="1062.476562"/>
     </g>
    </g>
   </g>
  </g>
 </g>
 <defs>
  <clipPath id="p4edd331ba8">
   <rect x="61.49" y="67.991527" width="388.51" height="212.28976"/>
  </clipPath>
 </defs>
</svg>
