<?xml version="1.0" encoding="utf-8" standalone="no"?>
<!DOCTYPE svg PUBLIC "-//W3C//DTD SVG 1.1//EN"
  "http://www.w3.org/Graphics/SVG/1.1/DTD/svg11.dtd">
<svg xmlns:xlink="http://www.w3.org/1999/xlink" width="460.8pt" height="345.6pt" viewBox="0 0 460.8 345.6" xmlns="http://www.w3.org/2000/svg" version="1.1">
 <metadata>
  <rdf:RDF xmlns:dc="http://purl.org/dc/elements/1.1/" xmlns:cc="http://creativecommons.org/ns#" xmlns:rdf="http://www.w3.org/1999/02/22-rdf-syntax-ns#">
   <cc:Work>
    <dc:type rdf:resource="http://purl.org/dc/dcmitype/StillImage"/>
    <dc:date>2025-04-02T00:49:20.366027</dc:date>
    <dc:format>image/svg+xml</dc:format>
    <dc:creator>
     <cc:Agent>
      <dc:title>Matplotlib v3.7.1, https://matplotlib.org/</dc:title>
     </cc:Agent>
    </dc:creator>
   </cc:Work>
  </rdf:RDF>
 </metadata>
 <defs>
  <style type="text/css">*{stroke-linejoin: round; stroke-linecap: butt}</style>
 </defs>
 <g id="figure_1">
  <g id="patch_1">
   <path d="M 0 345.6 
L 460.8 345.6 
L 460.8 0 
L 0 0 
z
" style="fill: #ffffff"/>
  </g>
  <g id="axes_1">
   <g id="patch_2">
    <path d="M 61.49 276.746039 
L 450 276.746039 
L 450 69.300404 
L 61.49 69.300404 
z
" style="fill: #ffffff"/>
   </g>
   <g id="PolyCollection_1">
    <path d="M 32.020523 224.100401 
L 32.020523 276.746039 
L 40.252492 276.746039 
L 48.387042 276.746039 
L 65.094531 276.746039 
L 84.481063 276.746039 
L 98.753058 276.746039 
L 107.618256 276.746039 
L 109.90762 276.746039 
L 114.14538 276.746039 
L 116.093775 276.746039 
L 116.337324 276.746039 
L 119.552177 276.746039 
L 120.380244 276.746039 
L 121.062183 276.746039 
L 121.890251 276.746039 
L 122.426059 276.746039 
L 123.254127 276.746039 
L 123.741226 276.746039 
L 124.618004 276.746039 
L 125.787041 276.746039 
L 126.712529 276.746039 
L 127.053498 276.746039 
L 128.027696 276.746039 
L 128.709634 276.746039 
L 129.440282 276.746039 
L 130.21964 276.746039 
L 130.755449 276.746039 
L 131.242548 276.746039 
L 132.606424 276.746039 
L 133.580622 276.746039 
L 134.31127 276.746039 
L 134.50611 276.746039 
L 135.188048 276.746039 
L 136.210955 276.746039 
L 137.282573 276.746039 
L 138.013221 276.746039 
L 139.084838 276.746039 
L 140.497425 276.746039 
L 142.44582 276.746039 
L 144.150666 276.746039 
L 145.611962 276.746039 
L 148.339715 276.746039 
L 149.508753 276.746039 
L 152.674895 276.746039 
L 154.72071 276.746039 
L 155.987166 276.746039 
L 156.766525 276.746039 
L 159.835247 276.746039 
L 161.540093 276.746039 
L 163.293648 276.746039 
L 166.75205 276.746039 
L 169.966902 276.746039 
L 170.502711 276.746039 
L 171.135939 276.746039 
L 172.110137 276.746039 
L 172.889495 276.746039 
L 175.276279 276.746039 
L 180.049847 276.746039 
L 180.975335 276.746039 
L 185.456644 276.746039 
L 186.479551 276.746039 
L 187.502459 276.746039 
L 189.158595 276.746039 
L 190.522471 276.746039 
L 191.837638 276.746039 
L 192.665706 276.746039 
L 195.344749 276.746039 
L 198.121212 276.746039 
L 199.485089 276.746039 
L 200.459287 276.746039 
L 201.677034 276.746039 
L 202.699941 276.746039 
L 203.917688 276.746039 
L 206.791571 276.746039 
L 208.301577 276.746039 
L 209.762874 276.746039 
L 211.27288 276.746039 
L 212.734176 276.746039 
L 214.244183 276.746039 
L 215.754189 276.746039 
L 217.166775 276.746039 
L 218.676782 276.746039 
L 220.138078 276.746039 
L 221.648084 276.746039 
L 223.109381 276.746039 
L 224.619387 276.746039 
L 226.129393 276.746039 
L 227.59069 276.746039 
L 229.100696 276.746039 
L 230.561992 276.746039 
L 232.071998 276.746039 
L 233.582005 276.746039 
L 234.945881 276.746039 
L 236.455888 276.746039 
L 237.917184 276.746039 
L 239.42719 276.746039 
L 240.888487 276.746039 
L 242.398493 276.746039 
L 243.908499 276.746039 
L 245.369796 276.746039 
L 246.879802 276.746039 
L 248.341098 276.746039 
L 249.851105 276.746039 
L 251.361111 276.746039 
L 252.724987 276.746039 
L 254.234994 276.746039 
L 255.69629 276.746039 
L 257.206296 276.746039 
L 258.667593 276.746039 
L 260.177599 276.746039 
L 261.687605 276.746039 
L 263.148902 276.746039 
L 264.658908 276.746039 
L 266.120204 276.746039 
L 267.630211 276.746039 
L 269.140217 276.746039 
L 270.504094 276.746039 
L 272.0141 276.746039 
L 273.475396 276.746039 
L 274.985402 276.746039 
L 276.446699 276.746039 
L 277.956705 276.746039 
L 279.466711 276.746039 
L 280.928008 276.746039 
L 282.438014 276.746039 
L 283.89931 276.746039 
L 285.409317 276.746039 
L 286.919323 276.746039 
L 288.331909 276.746039 
L 289.841916 276.746039 
L 291.303212 276.746039 
L 292.813218 276.746039 
L 294.274515 276.746039 
L 295.784521 276.746039 
L 297.294527 276.746039 
L 298.755824 276.746039 
L 300.26583 276.746039 
L 301.727126 276.746039 
L 303.237133 276.746039 
L 304.747139 276.746039 
L 306.111016 276.746039 
L 307.621022 276.746039 
L 309.082318 276.746039 
L 310.592324 276.746039 
L 312.053621 276.746039 
L 313.563627 276.746039 
L 315.073633 276.746039 
L 316.53493 276.746039 
L 318.044936 276.746039 
L 319.506232 276.746039 
L 321.016239 276.746039 
L 322.526245 276.746039 
L 323.890122 276.746039 
L 325.400128 276.746039 
L 326.861424 276.746039 
L 328.371431 276.746039 
L 329.832727 276.746039 
L 331.342733 276.746039 
L 332.852739 276.746039 
L 334.314036 276.746039 
L 335.824042 276.746039 
L 337.285339 276.746039 
L 338.795345 276.746039 
L 340.305351 276.746039 
L 341.669228 276.746039 
L 343.179234 276.746039 
L 344.64053 276.746039 
L 346.150537 276.746039 
L 347.611833 276.746039 
L 349.121839 276.746039 
L 350.631846 276.746039 
L 352.093142 276.746039 
L 353.603148 276.746039 
L 355.064445 276.746039 
L 356.574451 276.746039 
L 358.084457 276.746039 
L 359.497044 276.746039 
L 361.00705 276.746039 
L 362.468346 276.746039 
L 363.978353 276.746039 
L 365.439649 276.746039 
L 366.949655 276.746039 
L 368.459661 276.746039 
L 369.920958 276.746039 
L 371.430964 276.746039 
L 372.892261 276.746039 
L 374.402267 276.746039 
L 375.912273 276.746039 
L 377.27615 276.746039 
L 378.786156 276.746039 
L 380.247452 276.746039 
L 381.757459 276.746039 
L 383.218755 276.746039 
L 384.728761 276.746039 
L 386.238768 276.746039 
L 387.700064 276.746039 
L 389.21007 276.746039 
L 390.671367 276.746039 
L 392.181373 276.746039 
L 393.691379 276.746039 
L 395.055256 276.746039 
L 396.565262 276.746039 
L 398.026558 276.746039 
L 399.536565 276.746039 
L 400.997861 276.746039 
L 402.507867 276.746039 
L 404.017874 276.746039 
L 405.47917 276.746039 
L 406.989176 276.746039 
L 408.450473 276.746039 
L 409.960479 276.746039 
L 411.470485 276.746039 
L 412.834362 276.746039 
L 414.344368 276.746039 
L 415.805664 276.746039 
L 417.315671 276.746039 
L 418.776967 276.746039 
L 420.286973 276.746039 
L 421.79698 276.746039 
L 423.258276 276.746039 
L 424.768282 276.746039 
L 426.229579 276.746039 
L 427.739585 276.746039 
L 429.249591 276.746039 
L 430.662178 276.746039 
L 432.172184 276.746039 
L 433.63348 276.746039 
L 435.143487 276.746039 
L 436.604783 276.746039 
L 438.114789 276.746039 
L 439.624796 276.746039 
L 441.086092 276.746039 
L 442.596098 276.746039 
L 444.057395 276.746039 
L 445.567401 276.746039 
L 447.077407 276.746039 
L 448.441284 276.746039 
L 449.95129 276.746039 
L 449.95129 169.935015 
L 449.95129 169.935015 
L 448.441284 169.973983 
L 447.077407 170.987149 
L 445.567401 173.208319 
L 444.057395 173.987677 
L 442.596098 174.221485 
L 441.086092 174.221485 
L 439.624796 174.455292 
L 438.114789 174.455292 
L 436.604783 175.312586 
L 435.143487 175.858137 
L 433.63348 175.97504 
L 432.172184 176.091944 
L 430.662178 176.16988 
L 429.249591 177.8455 
L 427.739585 177.962403 
L 426.229579 178.001371 
L 424.768282 178.235179 
L 423.258276 178.352082 
L 421.79698 178.39105 
L 420.286973 178.507954 
L 418.776967 178.975569 
L 417.315671 179.209376 
L 415.805664 179.32628 
L 414.344368 179.32628 
L 412.834362 179.676991 
L 411.470485 180.26151 
L 409.960479 180.222542 
L 408.450473 180.339446 
L 406.989176 180.456349 
L 405.47917 180.690157 
L 404.017874 180.690157 
L 402.507867 180.729125 
L 400.997861 180.729125 
L 399.536565 180.690157 
L 398.026558 180.768093 
L 396.565262 180.690157 
L 395.055256 180.651189 
L 393.691379 180.690157 
L 392.181373 180.690157 
L 390.671367 180.884996 
L 389.21007 181.079836 
L 387.700064 181.391579 
L 386.238768 181.625386 
L 384.728761 181.586419 
L 383.218755 181.781258 
L 381.757459 182.054033 
L 380.247452 182.054033 
L 378.786156 182.209905 
L 377.27615 182.716488 
L 375.912273 182.833391 
L 374.402267 183.262038 
L 372.892261 183.301006 
L 371.430964 183.456878 
L 369.920958 183.534814 
L 368.459661 183.690685 
L 366.949655 183.729653 
L 365.439649 183.807589 
L 363.978353 183.807589 
L 362.468346 183.885525 
L 361.00705 184.236236 
L 359.497044 184.35314 
L 358.084457 184.431075 
L 356.574451 184.509011 
L 355.064445 184.509011 
L 353.603148 184.509011 
L 352.093142 184.625915 
L 350.631846 184.703851 
L 349.121839 184.859722 
L 347.611833 185.09353 
L 346.150537 185.210434 
L 344.64053 185.288369 
L 343.179234 185.366305 
L 341.669228 185.405273 
L 340.305351 185.405273 
L 338.795345 185.444241 
L 337.285339 185.483209 
L 335.824042 185.561145 
L 334.314036 185.600113 
L 332.852739 185.600113 
L 331.342733 185.717016 
L 329.832727 185.83392 
L 328.371431 186.067727 
L 326.861424 186.223599 
L 325.400128 186.535342 
L 323.890122 186.691214 
L 322.526245 186.847086 
L 321.016239 186.886053 
L 319.506232 187.041925 
L 318.044936 187.197797 
L 316.53493 188.912384 
L 315.073633 189.18516 
L 313.563627 189.92555 
L 312.053621 189.302063 
L 310.592324 189.224128 
L 309.082318 189.263096 
L 307.621022 189.341031 
L 306.111016 189.613807 
L 304.747139 189.652775 
L 303.237133 189.73071 
L 301.727126 190.471101 
L 300.26583 190.588004 
L 298.755824 190.782844 
L 297.294527 190.86078 
L 295.784521 190.977683 
L 294.274515 191.40633 
L 292.813218 191.60117 
L 291.303212 191.60117 
L 289.841916 191.990849 
L 288.331909 192.068785 
L 286.919323 192.107753 
L 285.409317 192.302592 
L 283.89931 192.380528 
L 282.438014 192.380528 
L 280.928008 192.575367 
L 279.466711 192.614335 
L 277.956705 192.653303 
L 276.446699 192.809175 
L 274.985402 192.926078 
L 273.475396 192.34156 
L 272.0141 192.419496 
L 270.504094 192.614335 
L 269.140217 192.614335 
L 267.630211 192.848143 
L 266.120204 193.004014 
L 264.658908 193.27679 
L 263.148902 193.627501 
L 261.687605 193.939244 
L 260.177599 194.01718 
L 258.667593 194.289955 
L 257.206296 194.523763 
L 255.69629 194.874474 
L 254.234994 195.030345 
L 252.724987 195.225185 
L 251.361111 195.264153 
L 249.851105 195.264153 
L 248.341098 195.458992 
L 246.879802 195.926607 
L 245.369796 195.965575 
L 243.908499 196.199382 
L 242.398493 196.861837 
L 240.888487 196.939773 
L 239.42719 197.407387 
L 237.917184 197.719131 
L 236.455888 198.771264 
L 234.945881 198.8492 
L 233.582005 198.966104 
L 232.071998 199.238879 
L 230.561992 199.316815 
L 229.100696 199.550622 
L 227.59069 199.745462 
L 226.129393 200.096173 
L 224.619387 200.291012 
L 223.109381 200.407916 
L 221.648084 200.641723 
L 220.138078 200.680691 
L 218.676782 200.797595 
L 217.166775 200.953467 
L 215.754189 200.953467 
L 214.244183 201.031402 
L 212.734176 201.07037 
L 211.27288 201.109338 
L 209.762874 201.148306 
L 208.301577 201.187274 
L 206.791571 201.304178 
L 203.917688 202.044568 
L 202.699941 202.239407 
L 201.677034 202.278375 
L 200.459287 202.161472 
L 199.485089 202.161472 
L 198.121212 202.278375 
L 195.344749 202.395279 
L 192.665706 203.018766 
L 191.837638 203.953995 
L 190.522471 203.798124 
L 189.158595 203.759156 
L 187.502459 204.460578 
L 186.479551 204.460578 
L 185.456644 204.226771 
L 180.975335 204.733353 
L 180.049847 204.811289 
L 175.276279 205.473743 
L 172.889495 205.551679 
L 172.110137 205.395808 
L 171.135939 205.512711 
L 170.502711 205.707551 
L 169.966902 205.746519 
L 166.75205 205.863423 
L 163.293648 205.941358 
L 161.540093 206.136198 
L 159.835247 208.201497 
L 156.766525 208.123561 
L 155.987166 208.162529 
L 154.72071 208.591176 
L 152.674895 209.682277 
L 149.508753 209.916085 
L 148.339715 210.305764 
L 145.611962 210.578539 
L 144.150666 211.396865 
L 142.44582 211.942415 
L 140.497425 212.371062 
L 139.084838 212.41003 
L 138.013221 212.487966 
L 137.282573 212.526934 
L 136.210955 212.565902 
L 135.188048 213.267324 
L 134.50611 213.618035 
L 134.31127 213.618035 
L 133.580622 213.618035 
L 132.606424 213.851843 
L 131.242548 213.618035 
L 130.755449 213.812875 
L 130.21964 213.890811 
L 129.440282 214.007714 
L 128.709634 214.007714 
L 128.027696 214.319458 
L 127.053498 215.02088 
L 126.712529 214.981912 
L 125.787041 215.332623 
L 124.618004 215.410559 
L 123.741226 215.488495 
L 123.254127 215.566431 
L 122.426059 215.683334 
L 121.890251 215.917142 
L 121.062183 216.111981 
L 120.380244 216.034045 
L 119.552177 216.111981 
L 116.337324 216.384757 
L 116.093775 216.345789 
L 114.14538 216.657532 
L 109.90762 214.787072 
L 107.618256 217.553794 
L 98.753058 221.177809 
L 84.481063 224.568016 
L 65.094531 228.932422 
L 48.387042 223.905562 
L 40.252492 223.282075 
L 32.020523 224.100401 
z
" clip-path="url(#pe3ec8c91f0)" style="fill: #fb363b"/>
   </g>
   <g id="PolyCollection_2">
    <path d="M 32.020523 143.982391 
L 32.020523 224.100401 
L 40.252492 223.282075 
L 48.387042 223.905562 
L 65.094531 228.932422 
L 84.481063 224.568016 
L 98.753058 221.177809 
L 107.618256 217.553794 
L 109.90762 214.787072 
L 114.14538 216.657532 
L 116.093775 216.345789 
L 116.337324 216.384757 
L 119.552177 216.111981 
L 120.380244 216.034045 
L 121.062183 216.111981 
L 121.890251 215.917142 
L 122.426059 215.683334 
L 123.254127 215.566431 
L 123.741226 215.488495 
L 124.618004 215.410559 
L 125.787041 215.332623 
L 126.712529 214.981912 
L 127.053498 215.02088 
L 128.027696 214.319458 
L 128.709634 214.007714 
L 129.440282 214.007714 
L 130.21964 213.890811 
L 130.755449 213.812875 
L 131.242548 213.618035 
L 132.606424 213.851843 
L 133.580622 213.618035 
L 134.31127 213.618035 
L 134.50611 213.618035 
L 135.188048 213.267324 
L 136.210955 212.565902 
L 137.282573 212.526934 
L 138.013221 212.487966 
L 139.084838 212.41003 
L 140.497425 212.371062 
L 142.44582 211.942415 
L 144.150666 211.396865 
L 145.611962 210.578539 
L 148.339715 210.305764 
L 149.508753 209.916085 
L 152.674895 209.682277 
L 154.72071 208.591176 
L 155.987166 208.162529 
L 156.766525 208.123561 
L 159.835247 208.201497 
L 161.540093 206.136198 
L 163.293648 205.941358 
L 166.75205 205.863423 
L 169.966902 205.746519 
L 170.502711 205.707551 
L 171.135939 205.512711 
L 172.110137 205.395808 
L 172.889495 205.551679 
L 175.276279 205.473743 
L 180.049847 204.811289 
L 180.975335 204.733353 
L 185.456644 204.226771 
L 186.479551 204.460578 
L 187.502459 204.460578 
L 189.158595 203.759156 
L 190.522471 203.798124 
L 191.837638 203.953995 
L 192.665706 203.018766 
L 195.344749 202.395279 
L 198.121212 202.278375 
L 199.485089 202.161472 
L 200.459287 202.161472 
L 201.677034 202.278375 
L 202.699941 202.239407 
L 203.917688 202.044568 
L 206.791571 201.304178 
L 208.301577 201.187274 
L 209.762874 201.148306 
L 211.27288 201.109338 
L 212.734176 201.07037 
L 214.244183 201.031402 
L 215.754189 200.953467 
L 217.166775 200.953467 
L 218.676782 200.797595 
L 220.138078 200.680691 
L 221.648084 200.641723 
L 223.109381 200.407916 
L 224.619387 200.291012 
L 226.129393 200.096173 
L 227.59069 199.745462 
L 229.100696 199.550622 
L 230.561992 199.316815 
L 232.071998 199.238879 
L 233.582005 198.966104 
L 234.945881 198.8492 
L 236.455888 198.771264 
L 237.917184 197.719131 
L 239.42719 197.407387 
L 240.888487 196.939773 
L 242.398493 196.861837 
L 243.908499 196.199382 
L 245.369796 195.965575 
L 246.879802 195.926607 
L 248.341098 195.458992 
L 249.851105 195.264153 
L 251.361111 195.264153 
L 252.724987 195.225185 
L 254.234994 195.030345 
L 255.69629 194.874474 
L 257.206296 194.523763 
L 258.667593 194.289955 
L 260.177599 194.01718 
L 261.687605 193.939244 
L 263.148902 193.627501 
L 264.658908 193.27679 
L 266.120204 193.004014 
L 267.630211 192.848143 
L 269.140217 192.614335 
L 270.504094 192.614335 
L 272.0141 192.419496 
L 273.475396 192.34156 
L 274.985402 192.926078 
L 276.446699 192.809175 
L 277.956705 192.653303 
L 279.466711 192.614335 
L 280.928008 192.575367 
L 282.438014 192.380528 
L 283.89931 192.380528 
L 285.409317 192.302592 
L 286.919323 192.107753 
L 288.331909 192.068785 
L 289.841916 191.990849 
L 291.303212 191.60117 
L 292.813218 191.60117 
L 294.274515 191.40633 
L 295.784521 190.977683 
L 297.294527 190.86078 
L 298.755824 190.782844 
L 300.26583 190.588004 
L 301.727126 190.471101 
L 303.237133 189.73071 
L 304.747139 189.652775 
L 306.111016 189.613807 
L 307.621022 189.341031 
L 309.082318 189.263096 
L 310.592324 189.224128 
L 312.053621 189.302063 
L 313.563627 189.92555 
L 315.073633 189.18516 
L 316.53493 188.912384 
L 318.044936 187.197797 
L 319.506232 187.041925 
L 321.016239 186.886053 
L 322.526245 186.847086 
L 323.890122 186.691214 
L 325.400128 186.535342 
L 326.861424 186.223599 
L 328.371431 186.067727 
L 329.832727 185.83392 
L 331.342733 185.717016 
L 332.852739 185.600113 
L 334.314036 185.600113 
L 335.824042 185.561145 
L 337.285339 185.483209 
L 338.795345 185.444241 
L 340.305351 185.405273 
L 341.669228 185.405273 
L 343.179234 185.366305 
L 344.64053 185.288369 
L 346.150537 185.210434 
L 347.611833 185.09353 
L 349.121839 184.859722 
L 350.631846 184.703851 
L 352.093142 184.625915 
L 353.603148 184.509011 
L 355.064445 184.509011 
L 356.574451 184.509011 
L 358.084457 184.431075 
L 359.497044 184.35314 
L 361.00705 184.236236 
L 362.468346 183.885525 
L 363.978353 183.807589 
L 365.439649 183.807589 
L 366.949655 183.729653 
L 368.459661 183.690685 
L 369.920958 183.534814 
L 371.430964 183.456878 
L 372.892261 183.301006 
L 374.402267 183.262038 
L 375.912273 182.833391 
L 377.27615 182.716488 
L 378.786156 182.209905 
L 380.247452 182.054033 
L 381.757459 182.054033 
L 383.218755 181.781258 
L 384.728761 181.586419 
L 386.238768 181.625386 
L 387.700064 181.391579 
L 389.21007 181.079836 
L 390.671367 180.884996 
L 392.181373 180.690157 
L 393.691379 180.690157 
L 395.055256 180.651189 
L 396.565262 180.690157 
L 398.026558 180.768093 
L 399.536565 180.690157 
L 400.997861 180.729125 
L 402.507867 180.729125 
L 404.017874 180.690157 
L 405.47917 180.690157 
L 406.989176 180.456349 
L 408.450473 180.339446 
L 409.960479 180.222542 
L 411.470485 180.26151 
L 412.834362 179.676991 
L 414.344368 179.32628 
L 415.805664 179.32628 
L 417.315671 179.209376 
L 418.776967 178.975569 
L 420.286973 178.507954 
L 421.79698 178.39105 
L 423.258276 178.352082 
L 424.768282 178.235179 
L 426.229579 178.001371 
L 427.739585 177.962403 
L 429.249591 177.8455 
L 430.662178 176.16988 
L 432.172184 176.091944 
L 433.63348 175.97504 
L 435.143487 175.858137 
L 436.604783 175.312586 
L 438.114789 174.455292 
L 439.624796 174.455292 
L 441.086092 174.221485 
L 442.596098 174.221485 
L 444.057395 173.987677 
L 445.567401 173.208319 
L 447.077407 170.987149 
L 448.441284 169.973983 
L 449.95129 169.935015 
L 449.95129 102.325702 
L 449.95129 102.325702 
L 448.441284 102.091895 
L 447.077407 102.130863 
L 445.567401 102.091895 
L 444.057395 102.637446 
L 442.596098 102.715381 
L 441.086092 102.832285 
L 439.624796 102.871253 
L 438.114789 103.10506 
L 436.604783 102.988157 
L 435.143487 102.949189 
L 433.63348 103.10506 
L 432.172184 103.182996 
L 430.662178 103.144028 
L 429.249591 103.416804 
L 427.739585 103.689579 
L 426.229579 103.689579 
L 424.768282 103.806483 
L 423.258276 103.962354 
L 421.79698 104.04029 
L 420.286973 104.04029 
L 418.776967 104.313065 
L 417.315671 104.546873 
L 415.805664 104.663777 
L 414.344368 104.663777 
L 412.834362 104.702744 
L 411.470485 104.858616 
L 409.960479 104.97552 
L 408.450473 105.053456 
L 406.989176 105.053456 
L 405.47917 105.092424 
L 404.017874 104.97552 
L 402.507867 105.014488 
L 400.997861 105.014488 
L 399.536565 105.209327 
L 398.026558 105.170359 
L 396.565262 105.170359 
L 395.055256 105.209327 
L 393.691379 105.287263 
L 392.181373 105.287263 
L 390.671367 105.404167 
L 389.21007 105.365199 
L 387.700064 105.482103 
L 386.238768 105.52107 
L 384.728761 105.560038 
L 383.218755 105.599006 
L 381.757459 105.637974 
L 380.247452 105.599006 
L 378.786156 105.71591 
L 377.27615 105.910749 
L 375.912273 106.066621 
L 374.402267 106.105589 
L 372.892261 106.105589 
L 371.430964 106.183525 
L 369.920958 106.222493 
L 368.459661 106.300429 
L 366.949655 106.300429 
L 365.439649 106.339396 
L 363.978353 106.378364 
L 362.468346 106.261461 
L 361.00705 106.222493 
L 359.497044 106.261461 
L 358.084457 106.183525 
L 356.574451 106.183525 
L 355.064445 106.183525 
L 353.603148 106.183525 
L 352.093142 106.183525 
L 350.631846 106.222493 
L 349.121839 106.183525 
L 347.611833 106.222493 
L 346.150537 106.222493 
L 344.64053 106.105589 
L 343.179234 106.105589 
L 341.669228 106.144557 
L 340.305351 106.144557 
L 338.795345 106.222493 
L 337.285339 106.222493 
L 335.824042 106.300429 
L 334.314036 106.300429 
L 332.852739 106.300429 
L 331.342733 106.339396 
L 329.832727 106.339396 
L 328.371431 106.339396 
L 326.861424 106.378364 
L 325.400128 106.417332 
L 323.890122 106.729075 
L 322.526245 106.845979 
L 321.016239 106.768043 
L 319.506232 106.845979 
L 318.044936 106.962883 
L 316.53493 107.001851 
L 315.073633 107.547401 
L 313.563627 107.859145 
L 312.053621 110.002379 
L 310.592324 111.210384 
L 309.082318 111.639031 
L 307.621022 111.639031 
L 306.111016 111.950775 
L 304.747139 111.872839 
L 303.237133 111.093481 
L 301.727126 111.28832 
L 300.26583 111.716967 
L 298.755824 111.716967 
L 297.294527 111.600063 
L 295.784521 111.755935 
L 294.274515 111.794903 
L 292.813218 111.794903 
L 291.303212 111.833871 
L 289.841916 111.911807 
L 288.331909 111.911807 
L 286.919323 111.950775 
L 285.409317 111.950775 
L 283.89931 112.067678 
L 282.438014 112.106646 
L 280.928008 112.145614 
L 279.466711 112.145614 
L 277.956705 112.106646 
L 276.446699 112.145614 
L 274.985402 112.106646 
L 273.475396 112.730133 
L 272.0141 112.691165 
L 270.504094 112.769101 
L 269.140217 112.847036 
L 267.630211 112.96394 
L 266.120204 112.924972 
L 264.658908 113.197747 
L 263.148902 113.314651 
L 261.687605 113.470523 
L 260.177599 113.665362 
L 258.667593 113.70433 
L 257.206296 113.626394 
L 255.69629 113.70433 
L 254.234994 113.743298 
L 252.724987 113.743298 
L 251.361111 113.743298 
L 249.851105 113.743298 
L 248.341098 113.89917 
L 246.879802 113.977106 
L 245.369796 114.210913 
L 243.908499 114.249881 
L 242.398493 114.483688 
L 240.888487 114.561624 
L 239.42719 114.795432 
L 237.917184 114.912335 
L 236.455888 115.068207 
L 234.945881 115.107175 
L 233.582005 115.146143 
L 232.071998 115.302014 
L 230.561992 115.302014 
L 229.100696 115.496854 
L 227.59069 115.769629 
L 226.129393 115.925501 
L 224.619387 116.081372 
L 223.109381 116.276212 
L 221.648084 116.354148 
L 220.138078 116.665891 
L 218.676782 116.665891 
L 217.166775 116.704859 
L 215.754189 116.704859 
L 214.244183 116.704859 
L 212.734176 116.704859 
L 211.27288 116.704859 
L 209.762874 116.743827 
L 208.301577 116.899698 
L 206.791571 116.977634 
L 203.917688 117.445249 
L 202.699941 118.029768 
L 201.677034 118.302543 
L 200.459287 117.756992 
L 199.485089 118.068735 
L 198.121212 118.185639 
L 195.344749 118.341511 
L 192.665706 118.341511 
L 191.837638 118.497382 
L 190.522471 119.003965 
L 189.158595 118.964997 
L 187.502459 119.861259 
L 186.479551 119.861259 
L 185.456644 120.289906 
L 180.975335 120.562681 
L 180.049847 120.640617 
L 175.276279 121.731718 
L 172.889495 122.705916 
L 172.110137 122.744884 
L 171.135939 122.744884 
L 170.502711 122.744884 
L 169.966902 122.783852 
L 166.75205 122.355205 
L 163.293648 122.861788 
L 161.540093 123.056627 
L 159.835247 123.251467 
L 156.766525 123.36837 
L 155.987166 123.446306 
L 154.72071 123.641146 
L 152.674895 123.952889 
L 149.508753 123.797017 
L 148.339715 124.108761 
L 145.611962 124.069793 
L 144.150666 123.991857 
L 142.44582 124.342568 
L 140.497425 124.264632 
L 139.084838 124.147728 
L 138.013221 124.420504 
L 137.282573 124.459472 
L 136.210955 123.719081 
L 135.188048 123.758049 
L 134.50611 123.913921 
L 134.31127 123.913921 
L 133.580622 123.874953 
L 132.606424 124.381536 
L 131.242548 123.835985 
L 130.755449 123.835985 
L 130.21964 123.874953 
L 129.440282 123.913921 
L 128.709634 123.719081 
L 128.027696 124.147728 
L 127.053498 124.264632 
L 126.712529 124.030825 
L 125.787041 124.186696 
L 124.618004 124.147728 
L 123.741226 124.654311 
L 123.254127 124.576375 
L 122.426059 124.576375 
L 121.890251 122.82282 
L 121.062183 123.212499 
L 120.380244 122.238301 
L 119.552177 122.004494 
L 116.337324 122.277269 
L 116.093775 122.121397 
L 114.14538 122.394173 
L 109.90762 124.147728 
L 107.618256 125.005022 
L 98.753058 127.070321 
L 84.481063 130.031882 
L 65.094531 133.811769 
L 48.387042 139.851794 
L 40.252492 143.670648 
L 32.020523 143.982391 
z
" clip-path="url(#pe3ec8c91f0)" style="fill: #fdc92c"/>
   </g>
   <g id="PolyCollection_3">
    <path d="M 32.020523 113.275683 
L 32.020523 143.982391 
L 40.252492 143.670648 
L 48.387042 139.851794 
L 65.094531 133.811769 
L 84.481063 130.031882 
L 98.753058 127.070321 
L 107.618256 125.005022 
L 109.90762 124.147728 
L 114.14538 122.394173 
L 116.093775 122.121397 
L 116.337324 122.277269 
L 119.552177 122.004494 
L 120.380244 122.238301 
L 121.062183 123.212499 
L 121.890251 122.82282 
L 122.426059 124.576375 
L 123.254127 124.576375 
L 123.741226 124.654311 
L 124.618004 124.147728 
L 125.787041 124.186696 
L 126.712529 124.030825 
L 127.053498 124.264632 
L 128.027696 124.147728 
L 128.709634 123.719081 
L 129.440282 123.913921 
L 130.21964 123.874953 
L 130.755449 123.835985 
L 131.242548 123.835985 
L 132.606424 124.381536 
L 133.580622 123.874953 
L 134.31127 123.913921 
L 134.50611 123.913921 
L 135.188048 123.758049 
L 136.210955 123.719081 
L 137.282573 124.459472 
L 138.013221 124.420504 
L 139.084838 124.147728 
L 140.497425 124.264632 
L 142.44582 124.342568 
L 144.150666 123.991857 
L 145.611962 124.069793 
L 148.339715 124.108761 
L 149.508753 123.797017 
L 152.674895 123.952889 
L 154.72071 123.641146 
L 155.987166 123.446306 
L 156.766525 123.36837 
L 159.835247 123.251467 
L 161.540093 123.056627 
L 163.293648 122.861788 
L 166.75205 122.355205 
L 169.966902 122.783852 
L 170.502711 122.744884 
L 171.135939 122.744884 
L 172.110137 122.744884 
L 172.889495 122.705916 
L 175.276279 121.731718 
L 180.049847 120.640617 
L 180.975335 120.562681 
L 185.456644 120.289906 
L 186.479551 119.861259 
L 187.502459 119.861259 
L 189.158595 118.964997 
L 190.522471 119.003965 
L 191.837638 118.497382 
L 192.665706 118.341511 
L 195.344749 118.341511 
L 198.121212 118.185639 
L 199.485089 118.068735 
L 200.459287 117.756992 
L 201.677034 118.302543 
L 202.699941 118.029768 
L 203.917688 117.445249 
L 206.791571 116.977634 
L 208.301577 116.899698 
L 209.762874 116.743827 
L 211.27288 116.704859 
L 212.734176 116.704859 
L 214.244183 116.704859 
L 215.754189 116.704859 
L 217.166775 116.704859 
L 218.676782 116.665891 
L 220.138078 116.665891 
L 221.648084 116.354148 
L 223.109381 116.276212 
L 224.619387 116.081372 
L 226.129393 115.925501 
L 227.59069 115.769629 
L 229.100696 115.496854 
L 230.561992 115.302014 
L 232.071998 115.302014 
L 233.582005 115.146143 
L 234.945881 115.107175 
L 236.455888 115.068207 
L 237.917184 114.912335 
L 239.42719 114.795432 
L 240.888487 114.561624 
L 242.398493 114.483688 
L 243.908499 114.249881 
L 245.369796 114.210913 
L 246.879802 113.977106 
L 248.341098 113.89917 
L 249.851105 113.743298 
L 251.361111 113.743298 
L 252.724987 113.743298 
L 254.234994 113.743298 
L 255.69629 113.70433 
L 257.206296 113.626394 
L 258.667593 113.70433 
L 260.177599 113.665362 
L 261.687605 113.470523 
L 263.148902 113.314651 
L 264.658908 113.197747 
L 266.120204 112.924972 
L 267.630211 112.96394 
L 269.140217 112.847036 
L 270.504094 112.769101 
L 272.0141 112.691165 
L 273.475396 112.730133 
L 274.985402 112.106646 
L 276.446699 112.145614 
L 277.956705 112.106646 
L 279.466711 112.145614 
L 280.928008 112.145614 
L 282.438014 112.106646 
L 283.89931 112.067678 
L 285.409317 111.950775 
L 286.919323 111.950775 
L 288.331909 111.911807 
L 289.841916 111.911807 
L 291.303212 111.833871 
L 292.813218 111.794903 
L 294.274515 111.794903 
L 295.784521 111.755935 
L 297.294527 111.600063 
L 298.755824 111.716967 
L 300.26583 111.716967 
L 301.727126 111.28832 
L 303.237133 111.093481 
L 304.747139 111.872839 
L 306.111016 111.950775 
L 307.621022 111.639031 
L 309.082318 111.639031 
L 310.592324 111.210384 
L 312.053621 110.002379 
L 313.563627 107.859145 
L 315.073633 107.547401 
L 316.53493 107.001851 
L 318.044936 106.962883 
L 319.506232 106.845979 
L 321.016239 106.768043 
L 322.526245 106.845979 
L 323.890122 106.729075 
L 325.400128 106.417332 
L 326.861424 106.378364 
L 328.371431 106.339396 
L 329.832727 106.339396 
L 331.342733 106.339396 
L 332.852739 106.300429 
L 334.314036 106.300429 
L 335.824042 106.300429 
L 337.285339 106.222493 
L 338.795345 106.222493 
L 340.305351 106.144557 
L 341.669228 106.144557 
L 343.179234 106.105589 
L 344.64053 106.105589 
L 346.150537 106.222493 
L 347.611833 106.222493 
L 349.121839 106.183525 
L 350.631846 106.222493 
L 352.093142 106.183525 
L 353.603148 106.183525 
L 355.064445 106.183525 
L 356.574451 106.183525 
L 358.084457 106.183525 
L 359.497044 106.261461 
L 361.00705 106.222493 
L 362.468346 106.261461 
L 363.978353 106.378364 
L 365.439649 106.339396 
L 366.949655 106.300429 
L 368.459661 106.300429 
L 369.920958 106.222493 
L 371.430964 106.183525 
L 372.892261 106.105589 
L 374.402267 106.105589 
L 375.912273 106.066621 
L 377.27615 105.910749 
L 378.786156 105.71591 
L 380.247452 105.599006 
L 381.757459 105.637974 
L 383.218755 105.599006 
L 384.728761 105.560038 
L 386.238768 105.52107 
L 387.700064 105.482103 
L 389.21007 105.365199 
L 390.671367 105.404167 
L 392.181373 105.287263 
L 393.691379 105.287263 
L 395.055256 105.209327 
L 396.565262 105.170359 
L 398.026558 105.170359 
L 399.536565 105.209327 
L 400.997861 105.014488 
L 402.507867 105.014488 
L 404.017874 104.97552 
L 405.47917 105.092424 
L 406.989176 105.053456 
L 408.450473 105.053456 
L 409.960479 104.97552 
L 411.470485 104.858616 
L 412.834362 104.702744 
L 414.344368 104.663777 
L 415.805664 104.663777 
L 417.315671 104.546873 
L 418.776967 104.313065 
L 420.286973 104.04029 
L 421.79698 104.04029 
L 423.258276 103.962354 
L 424.768282 103.806483 
L 426.229579 103.689579 
L 427.739585 103.689579 
L 429.249591 103.416804 
L 430.662178 103.144028 
L 432.172184 103.182996 
L 433.63348 103.10506 
L 435.143487 102.949189 
L 436.604783 102.988157 
L 438.114789 103.10506 
L 439.624796 102.871253 
L 441.086092 102.832285 
L 442.596098 102.715381 
L 444.057395 102.637446 
L 445.567401 102.091895 
L 447.077407 102.130863 
L 448.441284 102.091895 
L 449.95129 102.325702 
L 449.95129 89.193519 
L 449.95129 89.193519 
L 448.441284 89.193519 
L 447.077407 89.193519 
L 445.567401 89.193519 
L 444.057395 89.193519 
L 442.596098 89.193519 
L 441.086092 89.193519 
L 439.624796 89.154551 
L 438.114789 89.505262 
L 436.604783 89.739069 
L 435.143487 89.739069 
L 433.63348 89.778037 
L 432.172184 89.778037 
L 430.662178 89.778037 
L 429.249591 89.817005 
L 427.739585 89.817005 
L 426.229579 89.817005 
L 424.768282 89.855973 
L 423.258276 89.855973 
L 421.79698 89.855973 
L 420.286973 89.855973 
L 418.776967 89.933909 
L 417.315671 89.933909 
L 415.805664 89.933909 
L 414.344368 89.933909 
L 412.834362 89.933909 
L 411.470485 89.972877 
L 409.960479 89.972877 
L 408.450473 90.050813 
L 406.989176 90.050813 
L 405.47917 90.089781 
L 404.017874 90.089781 
L 402.507867 90.089781 
L 400.997861 90.089781 
L 399.536565 90.167716 
L 398.026558 90.245652 
L 396.565262 90.245652 
L 395.055256 90.245652 
L 393.691379 90.245652 
L 392.181373 90.245652 
L 390.671367 90.28462 
L 389.21007 90.245652 
L 387.700064 90.323588 
L 386.238768 90.323588 
L 384.728761 90.323588 
L 383.218755 90.362556 
L 381.757459 90.362556 
L 380.247452 90.362556 
L 378.786156 90.401524 
L 377.27615 90.440492 
L 375.912273 90.47946 
L 374.402267 90.47946 
L 372.892261 90.440492 
L 371.430964 90.440492 
L 369.920958 90.440492 
L 368.459661 90.401524 
L 366.949655 90.401524 
L 365.439649 90.440492 
L 363.978353 90.440492 
L 362.468346 90.362556 
L 361.00705 90.323588 
L 359.497044 90.323588 
L 358.084457 90.362556 
L 356.574451 90.362556 
L 355.064445 90.362556 
L 353.603148 90.362556 
L 352.093142 90.362556 
L 350.631846 90.362556 
L 349.121839 90.362556 
L 347.611833 90.362556 
L 346.150537 90.362556 
L 344.64053 90.28462 
L 343.179234 90.28462 
L 341.669228 90.28462 
L 340.305351 90.28462 
L 338.795345 90.245652 
L 337.285339 90.245652 
L 335.824042 90.323588 
L 334.314036 90.323588 
L 332.852739 90.323588 
L 331.342733 90.362556 
L 329.832727 90.362556 
L 328.371431 90.362556 
L 326.861424 90.401524 
L 325.400128 90.440492 
L 323.890122 90.518428 
L 322.526245 90.518428 
L 321.016239 90.518428 
L 319.506232 90.674299 
L 318.044936 90.674299 
L 316.53493 90.674299 
L 315.073633 90.557395 
L 313.563627 90.596363 
L 312.053621 90.791203 
L 310.592324 91.726433 
L 309.082318 91.882304 
L 307.621022 91.921272 
L 306.111016 91.96024 
L 304.747139 91.96024 
L 303.237133 91.96024 
L 301.727126 91.96024 
L 300.26583 91.999208 
L 298.755824 91.999208 
L 297.294527 92.038176 
L 295.784521 92.077144 
L 294.274515 92.116112 
L 292.813218 92.116112 
L 291.303212 92.116112 
L 289.841916 92.116112 
L 288.331909 92.116112 
L 286.919323 92.155079 
L 285.409317 92.155079 
L 283.89931 92.194047 
L 282.438014 92.233015 
L 280.928008 92.233015 
L 279.466711 92.233015 
L 277.956705 92.233015 
L 276.446699 92.233015 
L 274.985402 92.233015 
L 273.475396 92.233015 
L 272.0141 92.233015 
L 270.504094 92.310951 
L 269.140217 92.310951 
L 267.630211 92.310951 
L 266.120204 92.349919 
L 264.658908 92.349919 
L 263.148902 92.388887 
L 261.687605 92.544759 
L 260.177599 93.479988 
L 258.667593 93.479988 
L 257.206296 93.479988 
L 255.69629 93.557924 
L 254.234994 93.557924 
L 252.724987 93.557924 
L 251.361111 93.557924 
L 249.851105 93.557924 
L 248.341098 93.557924 
L 246.879802 93.63586 
L 245.369796 93.557924 
L 243.908499 93.596892 
L 242.398493 93.674828 
L 240.888487 93.752764 
L 239.42719 93.947603 
L 237.917184 93.986571 
L 236.455888 93.986571 
L 234.945881 93.986571 
L 233.582005 93.986571 
L 232.071998 94.064507 
L 230.561992 94.064507 
L 229.100696 94.142443 
L 227.59069 94.142443 
L 226.129393 94.025539 
L 224.619387 94.103475 
L 223.109381 94.103475 
L 221.648084 94.103475 
L 220.138078 94.142443 
L 218.676782 94.142443 
L 217.166775 94.142443 
L 215.754189 94.18141 
L 214.244183 94.18141 
L 212.734176 94.220378 
L 211.27288 94.18141 
L 209.762874 94.18141 
L 208.301577 94.259346 
L 206.791571 94.298314 
L 203.917688 94.57109 
L 202.699941 95.155608 
L 201.677034 95.428383 
L 200.459287 94.804897 
L 199.485089 95.31148 
L 198.121212 95.350448 
L 195.344749 96.246709 
L 192.665706 96.246709 
L 191.837638 96.207741 
L 190.522471 96.363613 
L 189.158595 96.363613 
L 187.502459 96.441549 
L 186.479551 96.441549 
L 185.456644 96.480517 
L 180.975335 96.636388 
L 180.049847 96.636388 
L 175.276279 97.649554 
L 172.889495 97.766458 
L 172.110137 97.805426 
L 171.135939 97.922329 
L 170.502711 97.922329 
L 169.966902 97.922329 
L 166.75205 97.922329 
L 163.293648 98.156137 
L 161.540093 98.27304 
L 159.835247 98.312008 
L 156.766525 98.389944 
L 155.987166 98.506848 
L 154.72071 98.701687 
L 152.674895 98.935495 
L 149.508753 99.091366 
L 148.339715 99.714853 
L 145.611962 99.753821 
L 144.150666 100.026596 
L 142.44582 100.338339 
L 140.497425 100.416275 
L 139.084838 100.416275 
L 138.013221 100.416275 
L 137.282573 100.416275 
L 136.210955 100.572147 
L 135.188048 100.728018 
L 134.50611 100.844922 
L 134.31127 100.844922 
L 133.580622 100.805954 
L 132.606424 101.351505 
L 131.242548 100.88389 
L 130.755449 100.88389 
L 130.21964 100.961826 
L 129.440282 100.961826 
L 128.709634 100.961826 
L 128.027696 101.546344 
L 127.053498 101.546344 
L 126.712529 101.078729 
L 125.787041 101.663248 
L 124.618004 102.754349 
L 123.741226 103.650611 
L 123.254127 103.689579 
L 122.426059 103.689579 
L 121.890251 103.728547 
L 121.062183 104.313065 
L 120.380244 103.767515 
L 119.552177 103.767515 
L 116.337324 104.04029 
L 116.093775 104.079258 
L 114.14538 104.118226 
L 109.90762 101.546344 
L 107.618256 104.274098 
L 98.753058 106.144557 
L 84.481063 108.053984 
L 65.094531 109.378893 
L 48.387042 111.366256 
L 40.252492 113.70433 
L 32.020523 113.275683 
z
" clip-path="url(#pe3ec8c91f0)" style="fill: #aeaeae"/>
   </g>
   <g id="PolyCollection_4">
    <path d="M 32.020523 89.622166 
L 32.020523 113.275683 
L 40.252492 113.70433 
L 48.387042 111.366256 
L 65.094531 109.378893 
L 84.481063 108.053984 
L 98.753058 106.144557 
L 107.618256 104.274098 
L 109.90762 101.546344 
L 114.14538 104.118226 
L 116.093775 104.079258 
L 116.337324 104.04029 
L 119.552177 103.767515 
L 120.380244 103.767515 
L 121.062183 104.313065 
L 121.890251 103.728547 
L 122.426059 103.689579 
L 123.254127 103.689579 
L 123.741226 103.650611 
L 124.618004 102.754349 
L 125.787041 101.663248 
L 126.712529 101.078729 
L 127.053498 101.546344 
L 128.027696 101.546344 
L 128.709634 100.961826 
L 129.440282 100.961826 
L 130.21964 100.961826 
L 130.755449 100.88389 
L 131.242548 100.88389 
L 132.606424 101.351505 
L 133.580622 100.805954 
L 134.31127 100.844922 
L 134.50611 100.844922 
L 135.188048 100.728018 
L 136.210955 100.572147 
L 137.282573 100.416275 
L 138.013221 100.416275 
L 139.084838 100.416275 
L 140.497425 100.416275 
L 142.44582 100.338339 
L 144.150666 100.026596 
L 145.611962 99.753821 
L 148.339715 99.714853 
L 149.508753 99.091366 
L 152.674895 98.935495 
L 154.72071 98.701687 
L 155.987166 98.506848 
L 156.766525 98.389944 
L 159.835247 98.312008 
L 161.540093 98.27304 
L 163.293648 98.156137 
L 166.75205 97.922329 
L 169.966902 97.922329 
L 170.502711 97.922329 
L 171.135939 97.922329 
L 172.110137 97.805426 
L 172.889495 97.766458 
L 175.276279 97.649554 
L 180.049847 96.636388 
L 180.975335 96.636388 
L 185.456644 96.480517 
L 186.479551 96.441549 
L 187.502459 96.441549 
L 189.158595 96.363613 
L 190.522471 96.363613 
L 191.837638 96.207741 
L 192.665706 96.246709 
L 195.344749 96.246709 
L 198.121212 95.350448 
L 199.485089 95.31148 
L 200.459287 94.804897 
L 201.677034 95.428383 
L 202.699941 95.155608 
L 203.917688 94.57109 
L 206.791571 94.298314 
L 208.301577 94.259346 
L 209.762874 94.18141 
L 211.27288 94.18141 
L 212.734176 94.220378 
L 214.244183 94.18141 
L 215.754189 94.18141 
L 217.166775 94.142443 
L 218.676782 94.142443 
L 220.138078 94.142443 
L 221.648084 94.103475 
L 223.109381 94.103475 
L 224.619387 94.103475 
L 226.129393 94.025539 
L 227.59069 94.142443 
L 229.100696 94.142443 
L 230.561992 94.064507 
L 232.071998 94.064507 
L 233.582005 93.986571 
L 234.945881 93.986571 
L 236.455888 93.986571 
L 237.917184 93.986571 
L 239.42719 93.947603 
L 240.888487 93.752764 
L 242.398493 93.674828 
L 243.908499 93.596892 
L 245.369796 93.557924 
L 246.879802 93.63586 
L 248.341098 93.557924 
L 249.851105 93.557924 
L 251.361111 93.557924 
L 252.724987 93.557924 
L 254.234994 93.557924 
L 255.69629 93.557924 
L 257.206296 93.479988 
L 258.667593 93.479988 
L 260.177599 93.479988 
L 261.687605 92.544759 
L 263.148902 92.388887 
L 264.658908 92.349919 
L 266.120204 92.349919 
L 267.630211 92.310951 
L 269.140217 92.310951 
L 270.504094 92.310951 
L 272.0141 92.233015 
L 273.475396 92.233015 
L 274.985402 92.233015 
L 276.446699 92.233015 
L 277.956705 92.233015 
L 279.466711 92.233015 
L 280.928008 92.233015 
L 282.438014 92.233015 
L 283.89931 92.194047 
L 285.409317 92.155079 
L 286.919323 92.155079 
L 288.331909 92.116112 
L 289.841916 92.116112 
L 291.303212 92.116112 
L 292.813218 92.116112 
L 294.274515 92.116112 
L 295.784521 92.077144 
L 297.294527 92.038176 
L 298.755824 91.999208 
L 300.26583 91.999208 
L 301.727126 91.96024 
L 303.237133 91.96024 
L 304.747139 91.96024 
L 306.111016 91.96024 
L 307.621022 91.921272 
L 309.082318 91.882304 
L 310.592324 91.726433 
L 312.053621 90.791203 
L 313.563627 90.596363 
L 315.073633 90.557395 
L 316.53493 90.674299 
L 318.044936 90.674299 
L 319.506232 90.674299 
L 321.016239 90.518428 
L 322.526245 90.518428 
L 323.890122 90.518428 
L 325.400128 90.440492 
L 326.861424 90.401524 
L 328.371431 90.362556 
L 329.832727 90.362556 
L 331.342733 90.362556 
L 332.852739 90.323588 
L 334.314036 90.323588 
L 335.824042 90.323588 
L 337.285339 90.245652 
L 338.795345 90.245652 
L 340.305351 90.28462 
L 341.669228 90.28462 
L 343.179234 90.28462 
L 344.64053 90.28462 
L 346.150537 90.362556 
L 347.611833 90.362556 
L 349.121839 90.362556 
L 350.631846 90.362556 
L 352.093142 90.362556 
L 353.603148 90.362556 
L 355.064445 90.362556 
L 356.574451 90.362556 
L 358.084457 90.362556 
L 359.497044 90.323588 
L 361.00705 90.323588 
L 362.468346 90.362556 
L 363.978353 90.440492 
L 365.439649 90.440492 
L 366.949655 90.401524 
L 368.459661 90.401524 
L 369.920958 90.440492 
L 371.430964 90.440492 
L 372.892261 90.440492 
L 374.402267 90.47946 
L 375.912273 90.47946 
L 377.27615 90.440492 
L 378.786156 90.401524 
L 380.247452 90.362556 
L 381.757459 90.362556 
L 383.218755 90.362556 
L 384.728761 90.323588 
L 386.238768 90.323588 
L 387.700064 90.323588 
L 389.21007 90.245652 
L 390.671367 90.28462 
L 392.181373 90.245652 
L 393.691379 90.245652 
L 395.055256 90.245652 
L 396.565262 90.245652 
L 398.026558 90.245652 
L 399.536565 90.167716 
L 400.997861 90.089781 
L 402.507867 90.089781 
L 404.017874 90.089781 
L 405.47917 90.089781 
L 406.989176 90.050813 
L 408.450473 90.050813 
L 409.960479 89.972877 
L 411.470485 89.972877 
L 412.834362 89.933909 
L 414.344368 89.933909 
L 415.805664 89.933909 
L 417.315671 89.933909 
L 418.776967 89.933909 
L 420.286973 89.855973 
L 421.79698 89.855973 
L 423.258276 89.855973 
L 424.768282 89.855973 
L 426.229579 89.817005 
L 427.739585 89.817005 
L 429.249591 89.817005 
L 430.662178 89.778037 
L 432.172184 89.778037 
L 433.63348 89.778037 
L 435.143487 89.739069 
L 436.604783 89.739069 
L 438.114789 89.505262 
L 439.624796 89.154551 
L 441.086092 89.193519 
L 442.596098 89.193519 
L 444.057395 89.193519 
L 445.567401 89.193519 
L 447.077407 89.193519 
L 448.441284 89.193519 
L 449.95129 89.193519 
L 449.95129 79.607414 
L 449.95129 79.607414 
L 448.441284 79.607414 
L 447.077407 79.607414 
L 445.567401 79.607414 
L 444.057395 79.607414 
L 442.596098 79.607414 
L 441.086092 79.646382 
L 439.624796 79.646382 
L 438.114789 79.646382 
L 436.604783 79.68535 
L 435.143487 79.68535 
L 433.63348 79.68535 
L 432.172184 79.68535 
L 430.662178 79.68535 
L 429.249591 79.68535 
L 427.739585 79.68535 
L 426.229579 79.68535 
L 424.768282 79.68535 
L 423.258276 79.68535 
L 421.79698 79.68535 
L 420.286973 79.68535 
L 418.776967 79.68535 
L 417.315671 79.68535 
L 415.805664 79.68535 
L 414.344368 79.68535 
L 412.834362 79.68535 
L 411.470485 79.88019 
L 409.960479 79.919158 
L 408.450473 79.958126 
L 406.989176 79.958126 
L 405.47917 79.958126 
L 404.017874 79.958126 
L 402.507867 79.958126 
L 400.997861 79.958126 
L 399.536565 79.958126 
L 398.026558 79.958126 
L 396.565262 79.958126 
L 395.055256 79.997094 
L 393.691379 79.958126 
L 392.181373 79.958126 
L 390.671367 79.997094 
L 389.21007 79.724318 
L 387.700064 79.724318 
L 386.238768 79.373607 
L 384.728761 79.373607 
L 383.218755 79.373607 
L 381.757459 79.373607 
L 380.247452 79.373607 
L 378.786156 79.373607 
L 377.27615 79.412575 
L 375.912273 79.412575 
L 374.402267 79.412575 
L 372.892261 79.373607 
L 371.430964 79.373607 
L 369.920958 79.373607 
L 368.459661 79.412575 
L 366.949655 79.412575 
L 365.439649 79.412575 
L 363.978353 79.412575 
L 362.468346 79.334639 
L 361.00705 79.295671 
L 359.497044 79.295671 
L 358.084457 79.295671 
L 356.574451 79.295671 
L 355.064445 79.295671 
L 353.603148 79.295671 
L 352.093142 79.295671 
L 350.631846 79.295671 
L 349.121839 79.295671 
L 347.611833 79.295671 
L 346.150537 79.295671 
L 344.64053 79.217735 
L 343.179234 79.217735 
L 341.669228 79.217735 
L 340.305351 79.217735 
L 338.795345 79.217735 
L 337.285339 79.217735 
L 335.824042 79.217735 
L 334.314036 79.217735 
L 332.852739 79.217735 
L 331.342733 79.178768 
L 329.832727 79.178768 
L 328.371431 79.178768 
L 326.861424 79.178768 
L 325.400128 79.178768 
L 323.890122 79.178768 
L 322.526245 79.178768 
L 321.016239 79.178768 
L 319.506232 79.178768 
L 318.044936 79.178768 
L 316.53493 79.178768 
L 315.073633 79.178768 
L 313.563627 79.178768 
L 312.053621 79.178768 
L 310.592324 79.178768 
L 309.082318 79.178768 
L 307.621022 79.178768 
L 306.111016 79.178768 
L 304.747139 79.178768 
L 303.237133 79.178768 
L 301.727126 79.178768 
L 300.26583 79.178768 
L 298.755824 79.178768 
L 297.294527 79.178768 
L 295.784521 79.178768 
L 294.274515 79.178768 
L 292.813218 79.178768 
L 291.303212 79.178768 
L 289.841916 79.178768 
L 288.331909 79.529479 
L 286.919323 79.568447 
L 285.409317 79.568447 
L 283.89931 79.568447 
L 282.438014 79.724318 
L 280.928008 79.724318 
L 279.466711 79.724318 
L 277.956705 79.724318 
L 276.446699 79.724318 
L 274.985402 79.724318 
L 273.475396 79.724318 
L 272.0141 79.724318 
L 270.504094 79.724318 
L 269.140217 79.724318 
L 267.630211 79.724318 
L 266.120204 79.763286 
L 264.658908 79.763286 
L 263.148902 79.763286 
L 261.687605 79.763286 
L 260.177599 79.490511 
L 258.667593 79.646382 
L 257.206296 79.607414 
L 255.69629 79.607414 
L 254.234994 79.607414 
L 252.724987 79.607414 
L 251.361111 79.607414 
L 249.851105 79.607414 
L 248.341098 79.607414 
L 246.879802 79.646382 
L 245.369796 79.646382 
L 243.908499 79.646382 
L 242.398493 79.607414 
L 240.888487 79.607414 
L 239.42719 79.607414 
L 237.917184 79.607414 
L 236.455888 79.607414 
L 234.945881 79.607414 
L 233.582005 79.607414 
L 232.071998 79.607414 
L 230.561992 79.607414 
L 229.100696 79.607414 
L 227.59069 79.646382 
L 226.129393 79.607414 
L 224.619387 79.646382 
L 223.109381 79.607414 
L 221.648084 79.607414 
L 220.138078 79.607414 
L 218.676782 79.607414 
L 217.166775 79.607414 
L 215.754189 79.607414 
L 214.244183 79.646382 
L 212.734176 79.646382 
L 211.27288 79.607414 
L 209.762874 79.607414 
L 208.301577 79.607414 
L 206.791571 79.68535 
L 203.917688 79.958126 
L 202.699941 80.62058 
L 201.677034 80.698516 
L 200.459287 80.075029 
L 199.485089 81.594778 
L 198.121212 81.594778 
L 195.344749 82.997622 
L 192.665706 82.997622 
L 191.837638 82.958654 
L 190.522471 83.114526 
L 189.158595 83.075558 
L 187.502459 83.075558 
L 186.479551 83.075558 
L 185.456644 83.075558 
L 180.975335 83.387301 
L 180.049847 83.387301 
L 175.276279 83.582141 
L 172.889495 83.543173 
L 172.110137 83.543173 
L 171.135939 83.621109 
L 170.502711 83.621109 
L 169.966902 83.621109 
L 166.75205 84.166659 
L 163.293648 84.283563 
L 161.540093 84.283563 
L 159.835247 84.283563 
L 156.766525 84.283563 
L 155.987166 84.244595 
L 154.72071 84.244595 
L 152.674895 84.127691 
L 149.508753 84.088723 
L 148.339715 85.101889 
L 145.611962 85.218793 
L 144.150666 85.335696 
L 142.44582 85.218793 
L 140.497425 85.218793 
L 139.084838 85.179825 
L 138.013221 85.179825 
L 137.282573 85.179825 
L 136.210955 85.140857 
L 135.188048 85.140857 
L 134.50611 85.179825 
L 134.31127 85.179825 
L 133.580622 85.179825 
L 132.606424 85.608472 
L 131.242548 85.179825 
L 130.755449 85.179825 
L 130.21964 85.218793 
L 129.440282 85.140857 
L 128.709634 85.140857 
L 128.027696 85.530536 
L 127.053498 85.4526 
L 126.712529 85.023953 
L 125.787041 85.569504 
L 124.618004 85.413632 
L 123.741226 85.4526 
L 123.254127 85.4526 
L 122.426059 85.4526 
L 121.890251 85.491568 
L 121.062183 85.998151 
L 120.380244 85.4526 
L 119.552177 85.4526 
L 116.337324 86.426798 
L 116.093775 86.465766 
L 114.14538 86.426798 
L 109.90762 85.530536 
L 107.618256 86.426798 
L 98.753058 87.206156 
L 84.481063 87.634803 
L 65.094531 88.336225 
L 48.387042 88.764872 
L 40.252492 89.778037 
L 32.020523 89.622166 
z
" clip-path="url(#pe3ec8c91f0)" style="fill: #d5dce5"/>
   </g>
   <g id="matplotlib.axis_1">
    <g id="xtick_1">
     <g id="line2d_1">
      <defs>
       <path id="m18e1e8343e" d="M 0 0 
L 0 3.5 
" style="stroke: #000000; stroke-width: 0.8"/>
      </defs>
      <g>
       <use xlink:href="#m18e1e8343e" x="71.913914" y="276.746039" style="stroke: #000000; stroke-width: 0.8"/>
      </g>
     </g>
     <g id="text_1">
      <!-- 2004 -->
      <g transform="translate(59.188914 291.344477) scale(0.1 -0.1)">
       <defs>
        <path id="DejaVuSans-32" d="M 1228 531 
L 3431 531 
L 3431 0 
L 469 0 
L 469 531 
Q 828 903 1448 1529 
Q 2069 2156 2228 2338 
Q 2531 2678 2651 2914 
Q 2772 3150 2772 3378 
Q 2772 3750 2511 3984 
Q 2250 4219 1831 4219 
Q 1534 4219 1204 4116 
Q 875 4013 500 3803 
L 500 4441 
Q 881 4594 1212 4672 
Q 1544 4750 1819 4750 
Q 2544 4750 2975 4387 
Q 3406 4025 3406 3419 
Q 3406 3131 3298 2873 
Q 3191 2616 2906 2266 
Q 2828 2175 2409 1742 
Q 1991 1309 1228 531 
z
" transform="scale(0.015625)"/>
        <path id="DejaVuSans-30" d="M 2034 4250 
Q 1547 4250 1301 3770 
Q 1056 3291 1056 2328 
Q 1056 1369 1301 889 
Q 1547 409 2034 409 
Q 2525 409 2770 889 
Q 3016 1369 3016 2328 
Q 3016 3291 2770 3770 
Q 2525 4250 2034 4250 
z
M 2034 4750 
Q 2819 4750 3233 4129 
Q 3647 3509 3647 2328 
Q 3647 1150 3233 529 
Q 2819 -91 2034 -91 
Q 1250 -91 836 529 
Q 422 1150 422 2328 
Q 422 3509 836 4129 
Q 1250 4750 2034 4750 
z
" transform="scale(0.015625)"/>
        <path id="DejaVuSans-34" d="M 2419 4116 
L 825 1625 
L 2419 1625 
L 2419 4116 
z
M 2253 4666 
L 3047 4666 
L 3047 1625 
L 3713 1625 
L 3713 1100 
L 3047 1100 
L 3047 0 
L 2419 0 
L 2419 1100 
L 313 1100 
L 313 1709 
L 2253 4666 
z
" transform="scale(0.015625)"/>
       </defs>
       <use xlink:href="#DejaVuSans-32"/>
       <use xlink:href="#DejaVuSans-30" x="63.623047"/>
       <use xlink:href="#DejaVuSans-30" x="127.246094"/>
       <use xlink:href="#DejaVuSans-34" x="190.869141"/>
      </g>
     </g>
    </g>
    <g id="xtick_2">
     <g id="line2d_2">
      <g>
       <use xlink:href="#m18e1e8343e" x="143.079048" y="276.746039" style="stroke: #000000; stroke-width: 0.8"/>
      </g>
     </g>
     <g id="text_2">
      <!-- 2008 -->
      <g transform="translate(130.354048 291.344477) scale(0.1 -0.1)">
       <defs>
        <path id="DejaVuSans-38" d="M 2034 2216 
Q 1584 2216 1326 1975 
Q 1069 1734 1069 1313 
Q 1069 891 1326 650 
Q 1584 409 2034 409 
Q 2484 409 2743 651 
Q 3003 894 3003 1313 
Q 3003 1734 2745 1975 
Q 2488 2216 2034 2216 
z
M 1403 2484 
Q 997 2584 770 2862 
Q 544 3141 544 3541 
Q 544 4100 942 4425 
Q 1341 4750 2034 4750 
Q 2731 4750 3128 4425 
Q 3525 4100 3525 3541 
Q 3525 3141 3298 2862 
Q 3072 2584 2669 2484 
Q 3125 2378 3379 2068 
Q 3634 1759 3634 1313 
Q 3634 634 3220 271 
Q 2806 -91 2034 -91 
Q 1263 -91 848 271 
Q 434 634 434 1313 
Q 434 1759 690 2068 
Q 947 2378 1403 2484 
z
M 1172 3481 
Q 1172 3119 1398 2916 
Q 1625 2713 2034 2713 
Q 2441 2713 2670 2916 
Q 2900 3119 2900 3481 
Q 2900 3844 2670 4047 
Q 2441 4250 2034 4250 
Q 1625 4250 1398 4047 
Q 1172 3844 1172 3481 
z
" transform="scale(0.015625)"/>
       </defs>
       <use xlink:href="#DejaVuSans-32"/>
       <use xlink:href="#DejaVuSans-30" x="63.623047"/>
       <use xlink:href="#DejaVuSans-30" x="127.246094"/>
       <use xlink:href="#DejaVuSans-38" x="190.869141"/>
      </g>
     </g>
    </g>
    <g id="xtick_3">
     <g id="line2d_3">
      <g>
       <use xlink:href="#m18e1e8343e" x="214.244183" y="276.746039" style="stroke: #000000; stroke-width: 0.8"/>
      </g>
     </g>
     <g id="text_3">
      <!-- 2012 -->
      <g transform="translate(201.519183 291.344477) scale(0.1 -0.1)">
       <defs>
        <path id="DejaVuSans-31" d="M 794 531 
L 1825 531 
L 1825 4091 
L 703 3866 
L 703 4441 
L 1819 4666 
L 2450 4666 
L 2450 531 
L 3481 531 
L 3481 0 
L 794 0 
L 794 531 
z
" transform="scale(0.015625)"/>
       </defs>
       <use xlink:href="#DejaVuSans-32"/>
       <use xlink:href="#DejaVuSans-30" x="63.623047"/>
       <use xlink:href="#DejaVuSans-31" x="127.246094"/>
       <use xlink:href="#DejaVuSans-32" x="190.869141"/>
      </g>
     </g>
    </g>
    <g id="xtick_4">
     <g id="line2d_4">
      <g>
       <use xlink:href="#m18e1e8343e" x="285.409317" y="276.746039" style="stroke: #000000; stroke-width: 0.8"/>
      </g>
     </g>
     <g id="text_4">
      <!-- 2016 -->
      <g transform="translate(272.684317 291.344477) scale(0.1 -0.1)">
       <defs>
        <path id="DejaVuSans-36" d="M 2113 2584 
Q 1688 2584 1439 2293 
Q 1191 2003 1191 1497 
Q 1191 994 1439 701 
Q 1688 409 2113 409 
Q 2538 409 2786 701 
Q 3034 994 3034 1497 
Q 3034 2003 2786 2293 
Q 2538 2584 2113 2584 
z
M 3366 4563 
L 3366 3988 
Q 3128 4100 2886 4159 
Q 2644 4219 2406 4219 
Q 1781 4219 1451 3797 
Q 1122 3375 1075 2522 
Q 1259 2794 1537 2939 
Q 1816 3084 2150 3084 
Q 2853 3084 3261 2657 
Q 3669 2231 3669 1497 
Q 3669 778 3244 343 
Q 2819 -91 2113 -91 
Q 1303 -91 875 529 
Q 447 1150 447 2328 
Q 447 3434 972 4092 
Q 1497 4750 2381 4750 
Q 2619 4750 2861 4703 
Q 3103 4656 3366 4563 
z
" transform="scale(0.015625)"/>
       </defs>
       <use xlink:href="#DejaVuSans-32"/>
       <use xlink:href="#DejaVuSans-30" x="63.623047"/>
       <use xlink:href="#DejaVuSans-31" x="127.246094"/>
       <use xlink:href="#DejaVuSans-36" x="190.869141"/>
      </g>
     </g>
    </g>
    <g id="xtick_5">
     <g id="line2d_5">
      <g>
       <use xlink:href="#m18e1e8343e" x="356.574451" y="276.746039" style="stroke: #000000; stroke-width: 0.8"/>
      </g>
     </g>
     <g id="text_5">
      <!-- 2020 -->
      <g transform="translate(343.849451 291.344477) scale(0.1 -0.1)">
       <use xlink:href="#DejaVuSans-32"/>
       <use xlink:href="#DejaVuSans-30" x="63.623047"/>
       <use xlink:href="#DejaVuSans-32" x="127.246094"/>
       <use xlink:href="#DejaVuSans-30" x="190.869141"/>
      </g>
     </g>
    </g>
    <g id="xtick_6">
     <g id="line2d_6">
      <g>
       <use xlink:href="#m18e1e8343e" x="427.739585" y="276.746039" style="stroke: #000000; stroke-width: 0.8"/>
      </g>
     </g>
     <g id="text_6">
      <!-- 2024 -->
      <g transform="translate(415.014585 291.344477) scale(0.1 -0.1)">
       <use xlink:href="#DejaVuSans-32"/>
       <use xlink:href="#DejaVuSans-30" x="63.623047"/>
       <use xlink:href="#DejaVuSans-32" x="127.246094"/>
       <use xlink:href="#DejaVuSans-34" x="190.869141"/>
      </g>
     </g>
    </g>
    <g id="text_7">
     <!-- Year -->
     <g transform="translate(239.86375 308.821821) scale(0.15 -0.15)">
      <defs>
       <path id="DejaVuSans-59" d="M -13 4666 
L 666 4666 
L 1959 2747 
L 3244 4666 
L 3922 4666 
L 2272 2222 
L 2272 0 
L 1638 0 
L 1638 2222 
L -13 4666 
z
" transform="scale(0.015625)"/>
       <path id="DejaVuSans-65" d="M 3597 1894 
L 3597 1613 
L 953 1613 
Q 991 1019 1311 708 
Q 1631 397 2203 397 
Q 2534 397 2845 478 
Q 3156 559 3463 722 
L 3463 178 
Q 3153 47 2828 -22 
Q 2503 -91 2169 -91 
Q 1331 -91 842 396 
Q 353 884 353 1716 
Q 353 2575 817 3079 
Q 1281 3584 2069 3584 
Q 2775 3584 3186 3129 
Q 3597 2675 3597 1894 
z
M 3022 2063 
Q 3016 2534 2758 2815 
Q 2500 3097 2075 3097 
Q 1594 3097 1305 2825 
Q 1016 2553 972 2059 
L 3022 2063 
z
" transform="scale(0.015625)"/>
       <path id="DejaVuSans-61" d="M 2194 1759 
Q 1497 1759 1228 1600 
Q 959 1441 959 1056 
Q 959 750 1161 570 
Q 1363 391 1709 391 
Q 2188 391 2477 730 
Q 2766 1069 2766 1631 
L 2766 1759 
L 2194 1759 
z
M 3341 1997 
L 3341 0 
L 2766 0 
L 2766 531 
Q 2569 213 2275 61 
Q 1981 -91 1556 -91 
Q 1019 -91 701 211 
Q 384 513 384 1019 
Q 384 1609 779 1909 
Q 1175 2209 1959 2209 
L 2766 2209 
L 2766 2266 
Q 2766 2663 2505 2880 
Q 2244 3097 1772 3097 
Q 1472 3097 1187 3025 
Q 903 2953 641 2809 
L 641 3341 
Q 956 3463 1253 3523 
Q 1550 3584 1831 3584 
Q 2591 3584 2966 3190 
Q 3341 2797 3341 1997 
z
" transform="scale(0.015625)"/>
       <path id="DejaVuSans-72" d="M 2631 2963 
Q 2534 3019 2420 3045 
Q 2306 3072 2169 3072 
Q 1681 3072 1420 2755 
Q 1159 2438 1159 1844 
L 1159 0 
L 581 0 
L 581 3500 
L 1159 3500 
L 1159 2956 
Q 1341 3275 1631 3429 
Q 1922 3584 2338 3584 
Q 2397 3584 2469 3576 
Q 2541 3569 2628 3553 
L 2631 2963 
z
" transform="scale(0.015625)"/>
      </defs>
      <use xlink:href="#DejaVuSans-59"/>
      <use xlink:href="#DejaVuSans-65" x="47.833984"/>
      <use xlink:href="#DejaVuSans-61" x="109.357422"/>
      <use xlink:href="#DejaVuSans-72" x="170.636719"/>
     </g>
    </g>
   </g>
   <g id="matplotlib.axis_2">
    <g id="ytick_1">
     <g id="line2d_7">
      <defs>
       <path id="m2e8649dcc5" d="M 0 0 
L -3.5 0 
" style="stroke: #000000; stroke-width: 0.8"/>
      </defs>
      <g>
       <use xlink:href="#m2e8649dcc5" x="61.49" y="276.746039" style="stroke: #000000; stroke-width: 0.8"/>
      </g>
     </g>
     <g id="text_8">
      <!-- 0 -->
      <g transform="translate(48.1275 280.545258) scale(0.1 -0.1)">
       <use xlink:href="#DejaVuSans-30"/>
      </g>
     </g>
    </g>
    <g id="ytick_2">
     <g id="line2d_8">
      <g>
       <use xlink:href="#m2e8649dcc5" x="61.49" y="237.778136" style="stroke: #000000; stroke-width: 0.8"/>
      </g>
     </g>
     <g id="text_9">
      <!-- 1000 -->
      <g transform="translate(29.04 241.577354) scale(0.1 -0.1)">
       <use xlink:href="#DejaVuSans-31"/>
       <use xlink:href="#DejaVuSans-30" x="63.623047"/>
       <use xlink:href="#DejaVuSans-30" x="127.246094"/>
       <use xlink:href="#DejaVuSans-30" x="190.869141"/>
      </g>
     </g>
    </g>
    <g id="ytick_3">
     <g id="line2d_9">
      <g>
       <use xlink:href="#m2e8649dcc5" x="61.49" y="198.810232" style="stroke: #000000; stroke-width: 0.8"/>
      </g>
     </g>
     <g id="text_10">
      <!-- 2000 -->
      <g transform="translate(29.04 202.609451) scale(0.1 -0.1)">
       <use xlink:href="#DejaVuSans-32"/>
       <use xlink:href="#DejaVuSans-30" x="63.623047"/>
       <use xlink:href="#DejaVuSans-30" x="127.246094"/>
       <use xlink:href="#DejaVuSans-30" x="190.869141"/>
      </g>
     </g>
    </g>
    <g id="ytick_4">
     <g id="line2d_10">
      <g>
       <use xlink:href="#m2e8649dcc5" x="61.49" y="159.842328" style="stroke: #000000; stroke-width: 0.8"/>
      </g>
     </g>
     <g id="text_11">
      <!-- 3000 -->
      <g transform="translate(29.04 163.641547) scale(0.1 -0.1)">
       <defs>
        <path id="DejaVuSans-33" d="M 2597 2516 
Q 3050 2419 3304 2112 
Q 3559 1806 3559 1356 
Q 3559 666 3084 287 
Q 2609 -91 1734 -91 
Q 1441 -91 1130 -33 
Q 819 25 488 141 
L 488 750 
Q 750 597 1062 519 
Q 1375 441 1716 441 
Q 2309 441 2620 675 
Q 2931 909 2931 1356 
Q 2931 1769 2642 2001 
Q 2353 2234 1838 2234 
L 1294 2234 
L 1294 2753 
L 1863 2753 
Q 2328 2753 2575 2939 
Q 2822 3125 2822 3475 
Q 2822 3834 2567 4026 
Q 2313 4219 1838 4219 
Q 1578 4219 1281 4162 
Q 984 4106 628 3988 
L 628 4550 
Q 988 4650 1302 4700 
Q 1616 4750 1894 4750 
Q 2613 4750 3031 4423 
Q 3450 4097 3450 3541 
Q 3450 3153 3228 2886 
Q 3006 2619 2597 2516 
z
" transform="scale(0.015625)"/>
       </defs>
       <use xlink:href="#DejaVuSans-33"/>
       <use xlink:href="#DejaVuSans-30" x="63.623047"/>
       <use xlink:href="#DejaVuSans-30" x="127.246094"/>
       <use xlink:href="#DejaVuSans-30" x="190.869141"/>
      </g>
     </g>
    </g>
    <g id="ytick_5">
     <g id="line2d_11">
      <g>
       <use xlink:href="#m2e8649dcc5" x="61.49" y="120.874425" style="stroke: #000000; stroke-width: 0.8"/>
      </g>
     </g>
     <g id="text_12">
      <!-- 4000 -->
      <g transform="translate(29.04 124.673643) scale(0.1 -0.1)">
       <use xlink:href="#DejaVuSans-34"/>
       <use xlink:href="#DejaVuSans-30" x="63.623047"/>
       <use xlink:href="#DejaVuSans-30" x="127.246094"/>
       <use xlink:href="#DejaVuSans-30" x="190.869141"/>
      </g>
     </g>
    </g>
    <g id="ytick_6">
     <g id="line2d_12">
      <g>
       <use xlink:href="#m2e8649dcc5" x="61.49" y="81.906521" style="stroke: #000000; stroke-width: 0.8"/>
      </g>
     </g>
     <g id="text_13">
      <!-- 5000 -->
      <g transform="translate(29.04 85.70574) scale(0.1 -0.1)">
       <defs>
        <path id="DejaVuSans-35" d="M 691 4666 
L 3169 4666 
L 3169 4134 
L 1269 4134 
L 1269 2991 
Q 1406 3038 1543 3061 
Q 1681 3084 1819 3084 
Q 2600 3084 3056 2656 
Q 3513 2228 3513 1497 
Q 3513 744 3044 326 
Q 2575 -91 1722 -91 
Q 1428 -91 1123 -41 
Q 819 9 494 109 
L 494 744 
Q 775 591 1075 516 
Q 1375 441 1709 441 
Q 2250 441 2565 725 
Q 2881 1009 2881 1497 
Q 2881 1984 2565 2268 
Q 2250 2553 1709 2553 
Q 1456 2553 1204 2497 
Q 953 2441 691 2322 
L 691 4666 
z
" transform="scale(0.015625)"/>
       </defs>
       <use xlink:href="#DejaVuSans-35"/>
       <use xlink:href="#DejaVuSans-30" x="63.623047"/>
       <use xlink:href="#DejaVuSans-30" x="127.246094"/>
       <use xlink:href="#DejaVuSans-30" x="190.869141"/>
      </g>
     </g>
    </g>
    <g id="text_14">
     <!-- Number of proteins -->
     <g transform="translate(21.920469 245.712284) rotate(-90) scale(0.15 -0.15)">
      <defs>
       <path id="DejaVuSans-4e" d="M 628 4666 
L 1478 4666 
L 3547 763 
L 3547 4666 
L 4159 4666 
L 4159 0 
L 3309 0 
L 1241 3903 
L 1241 0 
L 628 0 
L 628 4666 
z
" transform="scale(0.015625)"/>
       <path id="DejaVuSans-75" d="M 544 1381 
L 544 3500 
L 1119 3500 
L 1119 1403 
Q 1119 906 1312 657 
Q 1506 409 1894 409 
Q 2359 409 2629 706 
Q 2900 1003 2900 1516 
L 2900 3500 
L 3475 3500 
L 3475 0 
L 2900 0 
L 2900 538 
Q 2691 219 2414 64 
Q 2138 -91 1772 -91 
Q 1169 -91 856 284 
Q 544 659 544 1381 
z
M 1991 3584 
L 1991 3584 
z
" transform="scale(0.015625)"/>
       <path id="DejaVuSans-6d" d="M 3328 2828 
Q 3544 3216 3844 3400 
Q 4144 3584 4550 3584 
Q 5097 3584 5394 3201 
Q 5691 2819 5691 2113 
L 5691 0 
L 5113 0 
L 5113 2094 
Q 5113 2597 4934 2840 
Q 4756 3084 4391 3084 
Q 3944 3084 3684 2787 
Q 3425 2491 3425 1978 
L 3425 0 
L 2847 0 
L 2847 2094 
Q 2847 2600 2669 2842 
Q 2491 3084 2119 3084 
Q 1678 3084 1418 2786 
Q 1159 2488 1159 1978 
L 1159 0 
L 581 0 
L 581 3500 
L 1159 3500 
L 1159 2956 
Q 1356 3278 1631 3431 
Q 1906 3584 2284 3584 
Q 2666 3584 2933 3390 
Q 3200 3197 3328 2828 
z
" transform="scale(0.015625)"/>
       <path id="DejaVuSans-62" d="M 3116 1747 
Q 3116 2381 2855 2742 
Q 2594 3103 2138 3103 
Q 1681 3103 1420 2742 
Q 1159 2381 1159 1747 
Q 1159 1113 1420 752 
Q 1681 391 2138 391 
Q 2594 391 2855 752 
Q 3116 1113 3116 1747 
z
M 1159 2969 
Q 1341 3281 1617 3432 
Q 1894 3584 2278 3584 
Q 2916 3584 3314 3078 
Q 3713 2572 3713 1747 
Q 3713 922 3314 415 
Q 2916 -91 2278 -91 
Q 1894 -91 1617 61 
Q 1341 213 1159 525 
L 1159 0 
L 581 0 
L 581 4863 
L 1159 4863 
L 1159 2969 
z
" transform="scale(0.015625)"/>
       <path id="DejaVuSans-20" transform="scale(0.015625)"/>
       <path id="DejaVuSans-6f" d="M 1959 3097 
Q 1497 3097 1228 2736 
Q 959 2375 959 1747 
Q 959 1119 1226 758 
Q 1494 397 1959 397 
Q 2419 397 2687 759 
Q 2956 1122 2956 1747 
Q 2956 2369 2687 2733 
Q 2419 3097 1959 3097 
z
M 1959 3584 
Q 2709 3584 3137 3096 
Q 3566 2609 3566 1747 
Q 3566 888 3137 398 
Q 2709 -91 1959 -91 
Q 1206 -91 779 398 
Q 353 888 353 1747 
Q 353 2609 779 3096 
Q 1206 3584 1959 3584 
z
" transform="scale(0.015625)"/>
       <path id="DejaVuSans-66" d="M 2375 4863 
L 2375 4384 
L 1825 4384 
Q 1516 4384 1395 4259 
Q 1275 4134 1275 3809 
L 1275 3500 
L 2222 3500 
L 2222 3053 
L 1275 3053 
L 1275 0 
L 697 0 
L 697 3053 
L 147 3053 
L 147 3500 
L 697 3500 
L 697 3744 
Q 697 4328 969 4595 
Q 1241 4863 1831 4863 
L 2375 4863 
z
" transform="scale(0.015625)"/>
       <path id="DejaVuSans-70" d="M 1159 525 
L 1159 -1331 
L 581 -1331 
L 581 3500 
L 1159 3500 
L 1159 2969 
Q 1341 3281 1617 3432 
Q 1894 3584 2278 3584 
Q 2916 3584 3314 3078 
Q 3713 2572 3713 1747 
Q 3713 922 3314 415 
Q 2916 -91 2278 -91 
Q 1894 -91 1617 61 
Q 1341 213 1159 525 
z
M 3116 1747 
Q 3116 2381 2855 2742 
Q 2594 3103 2138 3103 
Q 1681 3103 1420 2742 
Q 1159 2381 1159 1747 
Q 1159 1113 1420 752 
Q 1681 391 2138 391 
Q 2594 391 2855 752 
Q 3116 1113 3116 1747 
z
" transform="scale(0.015625)"/>
       <path id="DejaVuSans-74" d="M 1172 4494 
L 1172 3500 
L 2356 3500 
L 2356 3053 
L 1172 3053 
L 1172 1153 
Q 1172 725 1289 603 
Q 1406 481 1766 481 
L 2356 481 
L 2356 0 
L 1766 0 
Q 1100 0 847 248 
Q 594 497 594 1153 
L 594 3053 
L 172 3053 
L 172 3500 
L 594 3500 
L 594 4494 
L 1172 4494 
z
" transform="scale(0.015625)"/>
       <path id="DejaVuSans-69" d="M 603 3500 
L 1178 3500 
L 1178 0 
L 603 0 
L 603 3500 
z
M 603 4863 
L 1178 4863 
L 1178 4134 
L 603 4134 
L 603 4863 
z
" transform="scale(0.015625)"/>
       <path id="DejaVuSans-6e" d="M 3513 2113 
L 3513 0 
L 2938 0 
L 2938 2094 
Q 2938 2591 2744 2837 
Q 2550 3084 2163 3084 
Q 1697 3084 1428 2787 
Q 1159 2491 1159 1978 
L 1159 0 
L 581 0 
L 581 3500 
L 1159 3500 
L 1159 2956 
Q 1366 3272 1645 3428 
Q 1925 3584 2291 3584 
Q 2894 3584 3203 3211 
Q 3513 2838 3513 2113 
z
" transform="scale(0.015625)"/>
       <path id="DejaVuSans-73" d="M 2834 3397 
L 2834 2853 
Q 2591 2978 2328 3040 
Q 2066 3103 1784 3103 
Q 1356 3103 1142 2972 
Q 928 2841 928 2578 
Q 928 2378 1081 2264 
Q 1234 2150 1697 2047 
L 1894 2003 
Q 2506 1872 2764 1633 
Q 3022 1394 3022 966 
Q 3022 478 2636 193 
Q 2250 -91 1575 -91 
Q 1294 -91 989 -36 
Q 684 19 347 128 
L 347 722 
Q 666 556 975 473 
Q 1284 391 1588 391 
Q 1994 391 2212 530 
Q 2431 669 2431 922 
Q 2431 1156 2273 1281 
Q 2116 1406 1581 1522 
L 1381 1569 
Q 847 1681 609 1914 
Q 372 2147 372 2553 
Q 372 3047 722 3315 
Q 1072 3584 1716 3584 
Q 2034 3584 2315 3537 
Q 2597 3491 2834 3397 
z
" transform="scale(0.015625)"/>
      </defs>
      <use xlink:href="#DejaVuSans-4e"/>
      <use xlink:href="#DejaVuSans-75" x="74.804688"/>
      <use xlink:href="#DejaVuSans-6d" x="138.183594"/>
      <use xlink:href="#DejaVuSans-62" x="235.595703"/>
      <use xlink:href="#DejaVuSans-65" x="299.072266"/>
      <use xlink:href="#DejaVuSans-72" x="360.595703"/>
      <use xlink:href="#DejaVuSans-20" x="401.708984"/>
      <use xlink:href="#DejaVuSans-6f" x="433.496094"/>
      <use xlink:href="#DejaVuSans-66" x="494.677734"/>
      <use xlink:href="#DejaVuSans-20" x="529.882812"/>
      <use xlink:href="#DejaVuSans-70" x="561.669922"/>
      <use xlink:href="#DejaVuSans-72" x="625.146484"/>
      <use xlink:href="#DejaVuSans-6f" x="664.009766"/>
      <use xlink:href="#DejaVuSans-74" x="725.191406"/>
      <use xlink:href="#DejaVuSans-65" x="764.400391"/>
      <use xlink:href="#DejaVuSans-69" x="825.923828"/>
      <use xlink:href="#DejaVuSans-6e" x="853.707031"/>
      <use xlink:href="#DejaVuSans-73" x="917.085938"/>
     </g>
    </g>
   </g>
   <g id="patch_3">
    <path d="M 61.49 276.746039 
L 61.49 69.300404 
" style="fill: none; stroke: #000000; stroke-width: 0.8; stroke-linejoin: miter; stroke-linecap: square"/>
   </g>
   <g id="patch_4">
    <path d="M 61.49 276.746039 
L 450 276.746039 
" style="fill: none; stroke: #000000; stroke-width: 0.8; stroke-linejoin: miter; stroke-linecap: square"/>
   </g>
   <g id="legend_1">
    <g id="patch_5">
     <path d="M 98.395781 64.300404 
L 413.094219 64.300404 
Q 415.094219 64.300404 415.094219 62.300404 
L 415.094219 33.944154 
Q 415.094219 31.944154 413.094219 31.944154 
L 98.395781 31.944154 
Q 96.395781 31.944154 96.395781 33.944154 
L 96.395781 62.300404 
Q 96.395781 64.300404 98.395781 64.300404 
z
" style="fill: #ffffff; opacity: 0.8; stroke: #cccccc; stroke-linejoin: miter"/>
    </g>
    <g id="patch_6">
     <path d="M 100.395781 43.542591 
L 120.395781 43.542591 
L 120.395781 36.542591 
L 100.395781 36.542591 
z
" style="fill: #fb363b"/>
    </g>
    <g id="text_15">
     <!-- Biological role published -->
     <g transform="translate(128.395781 43.542591) scale(0.1 -0.1)">
      <defs>
       <path id="DejaVuSans-42" d="M 1259 2228 
L 1259 519 
L 2272 519 
Q 2781 519 3026 730 
Q 3272 941 3272 1375 
Q 3272 1813 3026 2020 
Q 2781 2228 2272 2228 
L 1259 2228 
z
M 1259 4147 
L 1259 2741 
L 2194 2741 
Q 2656 2741 2882 2914 
Q 3109 3088 3109 3444 
Q 3109 3797 2882 3972 
Q 2656 4147 2194 4147 
L 1259 4147 
z
M 628 4666 
L 2241 4666 
Q 2963 4666 3353 4366 
Q 3744 4066 3744 3513 
Q 3744 3084 3544 2831 
Q 3344 2578 2956 2516 
Q 3422 2416 3680 2098 
Q 3938 1781 3938 1306 
Q 3938 681 3513 340 
Q 3088 0 2303 0 
L 628 0 
L 628 4666 
z
" transform="scale(0.015625)"/>
       <path id="DejaVuSans-6c" d="M 603 4863 
L 1178 4863 
L 1178 0 
L 603 0 
L 603 4863 
z
" transform="scale(0.015625)"/>
       <path id="DejaVuSans-67" d="M 2906 1791 
Q 2906 2416 2648 2759 
Q 2391 3103 1925 3103 
Q 1463 3103 1205 2759 
Q 947 2416 947 1791 
Q 947 1169 1205 825 
Q 1463 481 1925 481 
Q 2391 481 2648 825 
Q 2906 1169 2906 1791 
z
M 3481 434 
Q 3481 -459 3084 -895 
Q 2688 -1331 1869 -1331 
Q 1566 -1331 1297 -1286 
Q 1028 -1241 775 -1147 
L 775 -588 
Q 1028 -725 1275 -790 
Q 1522 -856 1778 -856 
Q 2344 -856 2625 -561 
Q 2906 -266 2906 331 
L 2906 616 
Q 2728 306 2450 153 
Q 2172 0 1784 0 
Q 1141 0 747 490 
Q 353 981 353 1791 
Q 353 2603 747 3093 
Q 1141 3584 1784 3584 
Q 2172 3584 2450 3431 
Q 2728 3278 2906 2969 
L 2906 3500 
L 3481 3500 
L 3481 434 
z
" transform="scale(0.015625)"/>
       <path id="DejaVuSans-63" d="M 3122 3366 
L 3122 2828 
Q 2878 2963 2633 3030 
Q 2388 3097 2138 3097 
Q 1578 3097 1268 2742 
Q 959 2388 959 1747 
Q 959 1106 1268 751 
Q 1578 397 2138 397 
Q 2388 397 2633 464 
Q 2878 531 3122 666 
L 3122 134 
Q 2881 22 2623 -34 
Q 2366 -91 2075 -91 
Q 1284 -91 818 406 
Q 353 903 353 1747 
Q 353 2603 823 3093 
Q 1294 3584 2113 3584 
Q 2378 3584 2631 3529 
Q 2884 3475 3122 3366 
z
" transform="scale(0.015625)"/>
       <path id="DejaVuSans-68" d="M 3513 2113 
L 3513 0 
L 2938 0 
L 2938 2094 
Q 2938 2591 2744 2837 
Q 2550 3084 2163 3084 
Q 1697 3084 1428 2787 
Q 1159 2491 1159 1978 
L 1159 0 
L 581 0 
L 581 4863 
L 1159 4863 
L 1159 2956 
Q 1366 3272 1645 3428 
Q 1925 3584 2291 3584 
Q 2894 3584 3203 3211 
Q 3513 2838 3513 2113 
z
" transform="scale(0.015625)"/>
       <path id="DejaVuSans-64" d="M 2906 2969 
L 2906 4863 
L 3481 4863 
L 3481 0 
L 2906 0 
L 2906 525 
Q 2725 213 2448 61 
Q 2172 -91 1784 -91 
Q 1150 -91 751 415 
Q 353 922 353 1747 
Q 353 2572 751 3078 
Q 1150 3584 1784 3584 
Q 2172 3584 2448 3432 
Q 2725 3281 2906 2969 
z
M 947 1747 
Q 947 1113 1208 752 
Q 1469 391 1925 391 
Q 2381 391 2643 752 
Q 2906 1113 2906 1747 
Q 2906 2381 2643 2742 
Q 2381 3103 1925 3103 
Q 1469 3103 1208 2742 
Q 947 2381 947 1747 
z
" transform="scale(0.015625)"/>
      </defs>
      <use xlink:href="#DejaVuSans-42"/>
      <use xlink:href="#DejaVuSans-69" x="68.603516"/>
      <use xlink:href="#DejaVuSans-6f" x="96.386719"/>
      <use xlink:href="#DejaVuSans-6c" x="157.568359"/>
      <use xlink:href="#DejaVuSans-6f" x="185.351562"/>
      <use xlink:href="#DejaVuSans-67" x="246.533203"/>
      <use xlink:href="#DejaVuSans-69" x="310.009766"/>
      <use xlink:href="#DejaVuSans-63" x="337.792969"/>
      <use xlink:href="#DejaVuSans-61" x="392.773438"/>
      <use xlink:href="#DejaVuSans-6c" x="454.052734"/>
      <use xlink:href="#DejaVuSans-20" x="481.835938"/>
      <use xlink:href="#DejaVuSans-72" x="513.623047"/>
      <use xlink:href="#DejaVuSans-6f" x="552.486328"/>
      <use xlink:href="#DejaVuSans-6c" x="613.667969"/>
      <use xlink:href="#DejaVuSans-65" x="641.451172"/>
      <use xlink:href="#DejaVuSans-20" x="702.974609"/>
      <use xlink:href="#DejaVuSans-70" x="734.761719"/>
      <use xlink:href="#DejaVuSans-75" x="798.238281"/>
      <use xlink:href="#DejaVuSans-62" x="861.617188"/>
      <use xlink:href="#DejaVuSans-6c" x="925.09375"/>
      <use xlink:href="#DejaVuSans-69" x="952.876953"/>
      <use xlink:href="#DejaVuSans-73" x="980.660156"/>
      <use xlink:href="#DejaVuSans-68" x="1032.759766"/>
      <use xlink:href="#DejaVuSans-65" x="1096.138672"/>
      <use xlink:href="#DejaVuSans-64" x="1157.662109"/>
     </g>
    </g>
    <g id="patch_7">
     <path d="M 100.395781 58.220716 
L 120.395781 58.220716 
L 120.395781 51.220716 
L 100.395781 51.220716 
z
" style="fill: #fdc92c"/>
    </g>
    <g id="text_16">
     <!-- Biological role inferred -->
     <g transform="translate(128.395781 58.220716) scale(0.1 -0.1)">
      <use xlink:href="#DejaVuSans-42"/>
      <use xlink:href="#DejaVuSans-69" x="68.603516"/>
      <use xlink:href="#DejaVuSans-6f" x="96.386719"/>
      <use xlink:href="#DejaVuSans-6c" x="157.568359"/>
      <use xlink:href="#DejaVuSans-6f" x="185.351562"/>
      <use xlink:href="#DejaVuSans-67" x="246.533203"/>
      <use xlink:href="#DejaVuSans-69" x="310.009766"/>
      <use xlink:href="#DejaVuSans-63" x="337.792969"/>
      <use xlink:href="#DejaVuSans-61" x="392.773438"/>
      <use xlink:href="#DejaVuSans-6c" x="454.052734"/>
      <use xlink:href="#DejaVuSans-20" x="481.835938"/>
      <use xlink:href="#DejaVuSans-72" x="513.623047"/>
      <use xlink:href="#DejaVuSans-6f" x="552.486328"/>
      <use xlink:href="#DejaVuSans-6c" x="613.667969"/>
      <use xlink:href="#DejaVuSans-65" x="641.451172"/>
      <use xlink:href="#DejaVuSans-20" x="702.974609"/>
      <use xlink:href="#DejaVuSans-69" x="734.761719"/>
      <use xlink:href="#DejaVuSans-6e" x="762.544922"/>
      <use xlink:href="#DejaVuSans-66" x="825.923828"/>
      <use xlink:href="#DejaVuSans-65" x="861.128906"/>
      <use xlink:href="#DejaVuSans-72" x="922.652344"/>
      <use xlink:href="#DejaVuSans-72" x="962.015625"/>
      <use xlink:href="#DejaVuSans-65" x="1000.878906"/>
      <use xlink:href="#DejaVuSans-64" x="1062.402344"/>
     </g>
    </g>
    <g id="patch_8">
     <path d="M 270.512969 43.542591 
L 290.512969 43.542591 
L 290.512969 36.542591 
L 270.512969 36.542591 
z
" style="fill: #aeaeae"/>
    </g>
    <g id="text_17">
     <!-- Conserved unknown -->
     <g transform="translate(298.512969 43.542591) scale(0.1 -0.1)">
      <defs>
       <path id="DejaVuSans-43" d="M 4122 4306 
L 4122 3641 
Q 3803 3938 3442 4084 
Q 3081 4231 2675 4231 
Q 1875 4231 1450 3742 
Q 1025 3253 1025 2328 
Q 1025 1406 1450 917 
Q 1875 428 2675 428 
Q 3081 428 3442 575 
Q 3803 722 4122 1019 
L 4122 359 
Q 3791 134 3420 21 
Q 3050 -91 2638 -91 
Q 1578 -91 968 557 
Q 359 1206 359 2328 
Q 359 3453 968 4101 
Q 1578 4750 2638 4750 
Q 3056 4750 3426 4639 
Q 3797 4528 4122 4306 
z
" transform="scale(0.015625)"/>
       <path id="DejaVuSans-76" d="M 191 3500 
L 800 3500 
L 1894 563 
L 2988 3500 
L 3597 3500 
L 2284 0 
L 1503 0 
L 191 3500 
z
" transform="scale(0.015625)"/>
       <path id="DejaVuSans-6b" d="M 581 4863 
L 1159 4863 
L 1159 1991 
L 2875 3500 
L 3609 3500 
L 1753 1863 
L 3688 0 
L 2938 0 
L 1159 1709 
L 1159 0 
L 581 0 
L 581 4863 
z
" transform="scale(0.015625)"/>
       <path id="DejaVuSans-77" d="M 269 3500 
L 844 3500 
L 1563 769 
L 2278 3500 
L 2956 3500 
L 3675 769 
L 4391 3500 
L 4966 3500 
L 4050 0 
L 3372 0 
L 2619 2869 
L 1863 0 
L 1184 0 
L 269 3500 
z
" transform="scale(0.015625)"/>
      </defs>
      <use xlink:href="#DejaVuSans-43"/>
      <use xlink:href="#DejaVuSans-6f" x="69.824219"/>
      <use xlink:href="#DejaVuSans-6e" x="131.005859"/>
      <use xlink:href="#DejaVuSans-73" x="194.384766"/>
      <use xlink:href="#DejaVuSans-65" x="246.484375"/>
      <use xlink:href="#DejaVuSans-72" x="308.007812"/>
      <use xlink:href="#DejaVuSans-76" x="349.121094"/>
      <use xlink:href="#DejaVuSans-65" x="408.300781"/>
      <use xlink:href="#DejaVuSans-64" x="469.824219"/>
      <use xlink:href="#DejaVuSans-20" x="533.300781"/>
      <use xlink:href="#DejaVuSans-75" x="565.087891"/>
      <use xlink:href="#DejaVuSans-6e" x="628.466797"/>
      <use xlink:href="#DejaVuSans-6b" x="691.845703"/>
      <use xlink:href="#DejaVuSans-6e" x="749.755859"/>
      <use xlink:href="#DejaVuSans-6f" x="813.134766"/>
      <use xlink:href="#DejaVuSans-77" x="874.316406"/>
      <use xlink:href="#DejaVuSans-6e" x="956.103516"/>
     </g>
    </g>
    <g id="patch_9">
     <path d="M 270.512969 58.220716 
L 290.512969 58.220716 
L 290.512969 51.220716 
L 270.512969 51.220716 
z
" style="fill: #d5dce5"/>
    </g>
    <g id="text_18">
     <!-- Fission yeast unknown -->
     <g transform="translate(298.512969 58.220716) scale(0.1 -0.1)">
      <defs>
       <path id="DejaVuSans-46" d="M 628 4666 
L 3309 4666 
L 3309 4134 
L 1259 4134 
L 1259 2759 
L 3109 2759 
L 3109 2228 
L 1259 2228 
L 1259 0 
L 628 0 
L 628 4666 
z
" transform="scale(0.015625)"/>
       <path id="DejaVuSans-79" d="M 2059 -325 
Q 1816 -950 1584 -1140 
Q 1353 -1331 966 -1331 
L 506 -1331 
L 506 -850 
L 844 -850 
Q 1081 -850 1212 -737 
Q 1344 -625 1503 -206 
L 1606 56 
L 191 3500 
L 800 3500 
L 1894 763 
L 2988 3500 
L 3597 3500 
L 2059 -325 
z
" transform="scale(0.015625)"/>
      </defs>
      <use xlink:href="#DejaVuSans-46"/>
      <use xlink:href="#DejaVuSans-69" x="50.269531"/>
      <use xlink:href="#DejaVuSans-73" x="78.052734"/>
      <use xlink:href="#DejaVuSans-73" x="130.152344"/>
      <use xlink:href="#DejaVuSans-69" x="182.251953"/>
      <use xlink:href="#DejaVuSans-6f" x="210.035156"/>
      <use xlink:href="#DejaVuSans-6e" x="271.216797"/>
      <use xlink:href="#DejaVuSans-20" x="334.595703"/>
      <use xlink:href="#DejaVuSans-79" x="366.382812"/>
      <use xlink:href="#DejaVuSans-65" x="425.5625"/>
      <use xlink:href="#DejaVuSans-61" x="487.085938"/>
      <use xlink:href="#DejaVuSans-73" x="548.365234"/>
      <use xlink:href="#DejaVuSans-74" x="600.464844"/>
      <use xlink:href="#DejaVuSans-20" x="639.673828"/>
      <use xlink:href="#DejaVuSans-75" x="671.460938"/>
      <use xlink:href="#DejaVuSans-6e" x="734.839844"/>
      <use xlink:href="#DejaVuSans-6b" x="798.21875"/>
      <use xlink:href="#DejaVuSans-6e" x="856.128906"/>
      <use xlink:href="#DejaVuSans-6f" x="919.507812"/>
      <use xlink:href="#DejaVuSans-77" x="980.689453"/>
      <use xlink:href="#DejaVuSans-6e" x="1062.476562"/>
     </g>
    </g>
   </g>
  </g>
 </g>
 <defs>
  <clipPath id="pe3ec8c91f0">
   <rect x="61.49" y="69.300404" width="388.51" height="207.445635"/>
  </clipPath>
 </defs>
</svg>
