<?xml version="1.0" encoding="utf-8" standalone="no"?>
<!DOCTYPE svg PUBLIC "-//W3C//DTD SVG 1.1//EN"
  "http://www.w3.org/Graphics/SVG/1.1/DTD/svg11.dtd">
<svg xmlns:xlink="http://www.w3.org/1999/xlink" width="460.8pt" height="345.6pt" viewBox="0 0 460.8 345.6" xmlns="http://www.w3.org/2000/svg" version="1.1">
 <metadata>
  <rdf:RDF xmlns:dc="http://purl.org/dc/elements/1.1/" xmlns:cc="http://creativecommons.org/ns#" xmlns:rdf="http://www.w3.org/1999/02/22-rdf-syntax-ns#">
   <cc:Work>
    <dc:type rdf:resource="http://purl.org/dc/dcmitype/StillImage"/>
    <dc:date>2024-09-02T00:57:58.156989</dc:date>
    <dc:format>image/svg+xml</dc:format>
    <dc:creator>
     <cc:Agent>
      <dc:title>Matplotlib v3.7.1, https://matplotlib.org/</dc:title>
     </cc:Agent>
    </dc:creator>
   </cc:Work>
  </rdf:RDF>
 </metadata>
 <defs>
  <style type="text/css">*{stroke-linejoin: round; stroke-linecap: butt}</style>
 </defs>
 <g id="figure_1">
  <g id="patch_1">
   <path d="M 0 345.6 
L 460.8 345.6 
L 460.8 0 
L 0 0 
z
" style="fill: #ffffff"/>
  </g>
  <g id="axes_1">
   <g id="patch_2">
    <path d="M 61.49 280.330041 
L 448.669243 280.330041 
L 448.669243 67.949959 
L 61.49 67.949959 
z
" style="fill: #ffffff"/>
   </g>
   <g id="PolyCollection_1">
    <path d="M 31.319541 226.432137 
L 31.319541 280.330041 
L 39.747322 280.330041 
L 48.075366 280.330041 
L 65.180271 280.330041 
L 85.027945 280.330041 
L 99.639423 280.330041 
L 108.715495 280.330041 
L 111.059316 280.330041 
L 115.397878 280.330041 
L 117.392619 280.330041 
L 117.641961 280.330041 
L 120.933284 280.330041 
L 121.781049 280.330041 
L 122.479208 280.330041 
L 123.326973 280.330041 
L 123.875527 280.330041 
L 124.723292 280.330041 
L 125.221977 280.330041 
L 126.119611 280.330041 
L 127.316455 280.330041 
L 128.263957 280.330041 
L 128.613037 280.330041 
L 129.610408 280.330041 
L 130.308567 280.330041 
L 131.056595 280.330041 
L 131.854491 280.330041 
L 132.403045 280.330041 
L 132.90173 280.330041 
L 134.298049 280.330041 
L 135.29542 280.330041 
L 136.043448 280.330041 
L 136.242922 280.330041 
L 136.941081 280.330041 
L 137.98832 280.330041 
L 139.085428 280.330041 
L 139.833456 280.330041 
L 140.930563 280.330041 
L 142.376751 280.330041 
L 144.371492 280.330041 
L 146.11689 280.330041 
L 147.612946 280.330041 
L 150.405583 280.330041 
L 151.602428 280.330041 
L 154.843882 280.330041 
L 156.93836 280.330041 
L 158.234942 280.330041 
L 159.032839 280.330041 
L 162.174556 280.330041 
L 163.919954 280.330041 
L 165.715221 280.330041 
L 169.255887 280.330041 
L 172.547209 280.330041 
L 173.095763 280.330041 
L 173.744054 280.330041 
L 174.741425 280.330041 
L 175.539321 280.330041 
L 177.982879 280.330041 
L 182.869994 280.330041 
L 183.817496 280.330041 
L 188.405401 280.330041 
L 189.45264 280.330041 
L 190.499879 280.330041 
L 192.195409 280.330041 
L 193.591728 280.330041 
L 194.938178 280.330041 
L 195.785943 280.330041 
L 198.528712 280.330041 
L 201.371218 280.330041 
L 202.767537 280.330041 
L 203.764907 280.330041 
L 205.01162 280.330041 
L 206.058859 280.330041 
L 207.305573 280.330041 
L 210.247816 280.330041 
L 211.79374 280.330041 
L 213.289796 280.330041 
L 214.83572 280.330041 
L 216.331776 280.330041 
L 217.8777 280.330041 
L 219.423625 280.330041 
L 220.869812 280.330041 
L 222.415736 280.330041 
L 223.911792 280.330041 
L 225.457716 280.330041 
L 226.953772 280.330041 
L 228.499697 280.330041 
L 230.045621 280.330041 
L 231.541677 280.330041 
L 233.087601 280.330041 
L 234.583657 280.330041 
L 236.129581 280.330041 
L 237.675505 280.330041 
L 239.071824 280.330041 
L 240.617749 280.330041 
L 242.113804 280.330041 
L 243.659729 280.330041 
L 245.155784 280.330041 
L 246.701709 280.330041 
L 248.247633 280.330041 
L 249.743689 280.330041 
L 251.289613 280.330041 
L 252.785669 280.330041 
L 254.331593 280.330041 
L 255.877518 280.330041 
L 257.273837 280.330041 
L 258.819761 280.330041 
L 260.315817 280.330041 
L 261.861741 280.330041 
L 263.357797 280.330041 
L 264.903721 280.330041 
L 266.449645 280.330041 
L 267.945701 280.330041 
L 269.491626 280.330041 
L 270.987681 280.330041 
L 272.533606 280.330041 
L 274.07953 280.330041 
L 275.475849 280.330041 
L 277.021773 280.330041 
L 278.517829 280.330041 
L 280.063753 280.330041 
L 281.559809 280.330041 
L 283.105733 280.330041 
L 284.651658 280.330041 
L 286.147714 280.330041 
L 287.693638 280.330041 
L 289.189694 280.330041 
L 290.735618 280.330041 
L 292.281542 280.330041 
L 293.72773 280.330041 
L 295.273654 280.330041 
L 296.76971 280.330041 
L 298.315634 280.330041 
L 299.81169 280.330041 
L 301.357614 280.330041 
L 302.903539 280.330041 
L 304.399594 280.330041 
L 305.945519 280.330041 
L 307.441575 280.330041 
L 308.987499 280.330041 
L 310.533423 280.330041 
L 311.929742 280.330041 
L 313.475666 280.330041 
L 314.971722 280.330041 
L 316.517646 280.330041 
L 318.013702 280.330041 
L 319.559627 280.330041 
L 321.105551 280.330041 
L 322.601607 280.330041 
L 324.147531 280.330041 
L 325.643587 280.330041 
L 327.189511 280.330041 
L 328.735436 280.330041 
L 330.131754 280.330041 
L 331.677679 280.330041 
L 333.173734 280.330041 
L 334.719659 280.330041 
L 336.215715 280.330041 
L 337.761639 280.330041 
L 339.307563 280.330041 
L 340.803619 280.330041 
L 342.349543 280.330041 
L 343.845599 280.330041 
L 345.391524 280.330041 
L 346.937448 280.330041 
L 348.333767 280.330041 
L 349.879691 280.330041 
L 351.375747 280.330041 
L 352.921671 280.330041 
L 354.417727 280.330041 
L 355.963651 280.330041 
L 357.509576 280.330041 
L 359.005631 280.330041 
L 360.551556 280.330041 
L 362.047611 280.330041 
L 363.593536 280.330041 
L 365.13946 280.330041 
L 366.585647 280.330041 
L 368.131572 280.330041 
L 369.627628 280.330041 
L 371.173552 280.330041 
L 372.669608 280.330041 
L 374.215532 280.330041 
L 375.761456 280.330041 
L 377.257512 280.330041 
L 378.803437 280.330041 
L 380.299492 280.330041 
L 381.845417 280.330041 
L 383.391341 280.330041 
L 384.78766 280.330041 
L 386.333584 280.330041 
L 387.82964 280.330041 
L 389.375564 280.330041 
L 390.87162 280.330041 
L 392.417544 280.330041 
L 393.963469 280.330041 
L 395.459524 280.330041 
L 397.005449 280.330041 
L 398.501505 280.330041 
L 400.047429 280.330041 
L 401.593353 280.330041 
L 402.989672 280.330041 
L 404.535596 280.330041 
L 406.031652 280.330041 
L 407.577577 280.330041 
L 409.073632 280.330041 
L 410.619557 280.330041 
L 412.165481 280.330041 
L 413.661537 280.330041 
L 415.207461 280.330041 
L 416.703517 280.330041 
L 418.249441 280.330041 
L 419.795366 280.330041 
L 421.191684 280.330041 
L 422.737609 280.330041 
L 424.233664 280.330041 
L 425.779589 280.330041 
L 427.275645 280.330041 
L 428.821569 280.330041 
L 430.367493 280.330041 
L 431.863549 280.330041 
L 433.409473 280.330041 
L 434.905529 280.330041 
L 436.451454 280.330041 
L 437.997378 280.330041 
L 439.443565 280.330041 
L 440.98949 280.330041 
L 442.485545 280.330041 
L 444.03147 280.330041 
L 445.527525 280.330041 
L 447.07345 280.330041 
L 448.619374 280.330041 
L 448.619374 175.606135 
L 448.619374 175.606135 
L 447.07345 175.606135 
L 445.527525 176.483821 
L 444.03147 177.042348 
L 442.485545 177.162033 
L 440.98949 177.281717 
L 439.443565 177.361507 
L 437.997378 179.076984 
L 436.451454 179.196669 
L 434.905529 179.236563 
L 433.409473 179.475932 
L 431.863549 179.595617 
L 430.367493 179.635512 
L 428.821569 179.755196 
L 427.275645 180.233934 
L 425.779589 180.473303 
L 424.233664 180.592987 
L 422.737609 180.592987 
L 421.191684 180.952041 
L 419.795366 181.550463 
L 418.249441 181.510568 
L 416.703517 181.630253 
L 415.207461 181.749937 
L 413.661537 181.989306 
L 412.165481 181.989306 
L 410.619557 182.029201 
L 409.073632 182.029201 
L 407.577577 181.989306 
L 406.031652 182.069096 
L 404.535596 181.989306 
L 402.989672 181.949411 
L 401.593353 181.989306 
L 400.047429 181.989306 
L 398.501505 182.18878 
L 397.005449 182.388254 
L 395.459524 182.707413 
L 393.963469 182.946782 
L 392.417544 182.906887 
L 390.87162 183.106361 
L 389.375564 183.385625 
L 387.82964 183.385625 
L 386.333584 183.545204 
L 384.78766 184.063837 
L 383.391341 184.183521 
L 381.845417 184.622364 
L 380.299492 184.662259 
L 378.803437 184.821838 
L 377.257512 184.901628 
L 375.761456 185.061207 
L 374.215532 185.101102 
L 372.669608 185.180892 
L 371.173552 185.180892 
L 369.627628 185.260681 
L 368.131572 185.619735 
L 366.585647 185.739419 
L 365.13946 185.819209 
L 363.593536 185.898999 
L 362.047611 185.898999 
L 360.551556 185.898999 
L 359.005631 186.018683 
L 357.509576 186.098473 
L 355.963651 186.258052 
L 354.417727 186.497421 
L 352.921671 186.617105 
L 351.375747 186.696895 
L 349.879691 186.776685 
L 348.333767 186.81658 
L 346.937448 186.81658 
L 345.391524 186.856474 
L 343.845599 186.896369 
L 342.349543 186.976159 
L 340.803619 187.016054 
L 339.307563 187.016054 
L 337.761639 187.135738 
L 336.215715 187.255423 
L 334.719659 187.494791 
L 333.173734 187.654371 
L 331.677679 187.973529 
L 330.131754 188.133109 
L 328.735436 188.292688 
L 327.189511 188.332583 
L 325.643587 188.492162 
L 324.147531 188.651741 
L 322.601607 190.407113 
L 321.105551 190.686377 
L 319.559627 191.444379 
L 318.013702 190.806062 
L 316.517646 190.726272 
L 314.971722 190.766167 
L 313.475666 190.845957 
L 311.929742 191.12522 
L 310.533423 191.165115 
L 308.987499 191.244905 
L 307.441575 192.002906 
L 305.945519 192.122591 
L 304.399594 192.322065 
L 302.903539 192.401855 
L 301.357614 192.521539 
L 299.81169 192.960382 
L 298.315634 193.159856 
L 296.76971 193.159856 
L 295.273654 193.558804 
L 293.72773 193.638594 
L 292.281542 193.678489 
L 290.735618 193.877963 
L 289.189694 193.957753 
L 287.693638 193.957753 
L 286.147714 194.157227 
L 284.651658 194.197122 
L 283.105733 194.237016 
L 281.559809 194.396596 
L 280.063753 194.51628 
L 278.517829 193.917858 
L 277.021773 193.997647 
L 275.475849 194.197122 
L 274.07953 194.197122 
L 272.533606 194.43649 
L 270.987681 194.59607 
L 269.491626 194.875333 
L 267.945701 195.234387 
L 266.449645 195.553545 
L 264.903721 195.633335 
L 263.357797 195.912599 
L 261.861741 196.151968 
L 260.315817 196.511021 
L 258.819761 196.6706 
L 257.273837 196.870075 
L 255.877518 196.909969 
L 254.331593 196.909969 
L 252.785669 197.109443 
L 251.289613 197.588181 
L 249.743689 197.628076 
L 248.247633 197.867445 
L 246.701709 198.545657 
L 245.155784 198.625447 
L 243.659729 199.104185 
L 242.113804 199.423343 
L 240.617749 200.500503 
L 239.071824 200.580293 
L 237.675505 200.699977 
L 236.129581 200.979241 
L 234.583657 201.059031 
L 233.087601 201.2984 
L 231.541677 201.497874 
L 230.045621 201.856927 
L 228.499697 202.056401 
L 226.953772 202.176086 
L 225.457716 202.415455 
L 223.911792 202.45535 
L 222.415736 202.575034 
L 220.869812 202.734613 
L 219.423625 202.734613 
L 217.8777 202.814403 
L 216.331776 202.854298 
L 214.83572 202.894193 
L 213.289796 202.934087 
L 211.79374 202.973982 
L 210.247816 203.093667 
L 207.305573 203.851668 
L 206.058859 204.051142 
L 205.01162 204.091037 
L 203.764907 203.971353 
L 202.767537 203.971353 
L 201.371218 204.091037 
L 198.528712 204.210722 
L 195.785943 204.849039 
L 194.938178 205.806515 
L 193.591728 205.646935 
L 192.195409 205.60704 
L 190.499879 206.325147 
L 189.45264 206.325147 
L 188.405401 206.085778 
L 183.817496 206.604411 
L 182.869994 206.684201 
L 177.982879 207.362413 
L 175.539321 207.442202 
L 174.741425 207.282623 
L 173.744054 207.402307 
L 173.095763 207.601782 
L 172.547209 207.641676 
L 169.255887 207.761361 
L 165.715221 207.84115 
L 163.919954 208.040625 
L 162.174556 210.15505 
L 159.032839 210.07526 
L 158.234942 210.115155 
L 156.93836 210.553998 
L 154.843882 211.671053 
L 151.602428 211.910422 
L 150.405583 212.30937 
L 147.612946 212.588634 
L 146.11689 213.426425 
L 144.371492 213.984953 
L 142.376751 214.423796 
L 140.930563 214.463691 
L 139.833456 214.54348 
L 139.085428 214.583375 
L 137.98832 214.62327 
L 136.941081 215.341377 
L 136.242922 215.70043 
L 136.043448 215.70043 
L 135.29542 215.70043 
L 134.298049 215.939799 
L 132.90173 215.70043 
L 132.403045 215.899904 
L 131.854491 215.979694 
L 131.056595 216.099379 
L 130.308567 216.099379 
L 129.610408 216.418537 
L 128.613037 217.136644 
L 128.263957 217.096749 
L 127.316455 217.455802 
L 126.119611 217.535592 
L 125.221977 217.615382 
L 124.723292 217.695171 
L 123.875527 217.814856 
L 123.326973 218.054225 
L 122.479208 218.253699 
L 121.781049 218.173909 
L 120.933284 218.253699 
L 117.641961 218.532963 
L 117.392619 218.493068 
L 115.397878 218.812226 
L 111.059316 216.897275 
L 108.715495 219.729807 
L 99.639423 223.440026 
L 85.027945 226.910875 
L 65.180271 231.379095 
L 48.075366 226.232663 
L 39.747322 225.594346 
L 31.319541 226.432137 
z
" clip-path="url(#pb21f73ada4)" style="fill: #fb363b"/>
   </g>
   <g id="PolyCollection_2">
    <path d="M 31.319541 144.408384 
L 31.319541 226.432137 
L 39.747322 225.594346 
L 48.075366 226.232663 
L 65.180271 231.379095 
L 85.027945 226.910875 
L 99.639423 223.440026 
L 108.715495 219.729807 
L 111.059316 216.897275 
L 115.397878 218.812226 
L 117.392619 218.493068 
L 117.641961 218.532963 
L 120.933284 218.253699 
L 121.781049 218.173909 
L 122.479208 218.253699 
L 123.326973 218.054225 
L 123.875527 217.814856 
L 124.723292 217.695171 
L 125.221977 217.615382 
L 126.119611 217.535592 
L 127.316455 217.455802 
L 128.263957 217.096749 
L 128.613037 217.136644 
L 129.610408 216.418537 
L 130.308567 216.099379 
L 131.056595 216.099379 
L 131.854491 215.979694 
L 132.403045 215.899904 
L 132.90173 215.70043 
L 134.298049 215.939799 
L 135.29542 215.70043 
L 136.043448 215.70043 
L 136.242922 215.70043 
L 136.941081 215.341377 
L 137.98832 214.62327 
L 139.085428 214.583375 
L 139.833456 214.54348 
L 140.930563 214.463691 
L 142.376751 214.423796 
L 144.371492 213.984953 
L 146.11689 213.426425 
L 147.612946 212.588634 
L 150.405583 212.30937 
L 151.602428 211.910422 
L 154.843882 211.671053 
L 156.93836 210.553998 
L 158.234942 210.115155 
L 159.032839 210.07526 
L 162.174556 210.15505 
L 163.919954 208.040625 
L 165.715221 207.84115 
L 169.255887 207.761361 
L 172.547209 207.641676 
L 173.095763 207.601782 
L 173.744054 207.402307 
L 174.741425 207.282623 
L 175.539321 207.442202 
L 177.982879 207.362413 
L 182.869994 206.684201 
L 183.817496 206.604411 
L 188.405401 206.085778 
L 189.45264 206.325147 
L 190.499879 206.325147 
L 192.195409 205.60704 
L 193.591728 205.646935 
L 194.938178 205.806515 
L 195.785943 204.849039 
L 198.528712 204.210722 
L 201.371218 204.091037 
L 202.767537 203.971353 
L 203.764907 203.971353 
L 205.01162 204.091037 
L 206.058859 204.051142 
L 207.305573 203.851668 
L 210.247816 203.093667 
L 211.79374 202.973982 
L 213.289796 202.934087 
L 214.83572 202.894193 
L 216.331776 202.854298 
L 217.8777 202.814403 
L 219.423625 202.734613 
L 220.869812 202.734613 
L 222.415736 202.575034 
L 223.911792 202.45535 
L 225.457716 202.415455 
L 226.953772 202.176086 
L 228.499697 202.056401 
L 230.045621 201.856927 
L 231.541677 201.497874 
L 233.087601 201.2984 
L 234.583657 201.059031 
L 236.129581 200.979241 
L 237.675505 200.699977 
L 239.071824 200.580293 
L 240.617749 200.500503 
L 242.113804 199.423343 
L 243.659729 199.104185 
L 245.155784 198.625447 
L 246.701709 198.545657 
L 248.247633 197.867445 
L 249.743689 197.628076 
L 251.289613 197.588181 
L 252.785669 197.109443 
L 254.331593 196.909969 
L 255.877518 196.909969 
L 257.273837 196.870075 
L 258.819761 196.6706 
L 260.315817 196.511021 
L 261.861741 196.151968 
L 263.357797 195.912599 
L 264.903721 195.633335 
L 266.449645 195.553545 
L 267.945701 195.234387 
L 269.491626 194.875333 
L 270.987681 194.59607 
L 272.533606 194.43649 
L 274.07953 194.197122 
L 275.475849 194.197122 
L 277.021773 193.997647 
L 278.517829 193.917858 
L 280.063753 194.51628 
L 281.559809 194.396596 
L 283.105733 194.237016 
L 284.651658 194.197122 
L 286.147714 194.157227 
L 287.693638 193.957753 
L 289.189694 193.957753 
L 290.735618 193.877963 
L 292.281542 193.678489 
L 293.72773 193.638594 
L 295.273654 193.558804 
L 296.76971 193.159856 
L 298.315634 193.159856 
L 299.81169 192.960382 
L 301.357614 192.521539 
L 302.903539 192.401855 
L 304.399594 192.322065 
L 305.945519 192.122591 
L 307.441575 192.002906 
L 308.987499 191.244905 
L 310.533423 191.165115 
L 311.929742 191.12522 
L 313.475666 190.845957 
L 314.971722 190.766167 
L 316.517646 190.726272 
L 318.013702 190.806062 
L 319.559627 191.444379 
L 321.105551 190.686377 
L 322.601607 190.407113 
L 324.147531 188.651741 
L 325.643587 188.492162 
L 327.189511 188.332583 
L 328.735436 188.292688 
L 330.131754 188.133109 
L 331.677679 187.973529 
L 333.173734 187.654371 
L 334.719659 187.494791 
L 336.215715 187.255423 
L 337.761639 187.135738 
L 339.307563 187.016054 
L 340.803619 187.016054 
L 342.349543 186.976159 
L 343.845599 186.896369 
L 345.391524 186.856474 
L 346.937448 186.81658 
L 348.333767 186.81658 
L 349.879691 186.776685 
L 351.375747 186.696895 
L 352.921671 186.617105 
L 354.417727 186.497421 
L 355.963651 186.258052 
L 357.509576 186.098473 
L 359.005631 186.018683 
L 360.551556 185.898999 
L 362.047611 185.898999 
L 363.593536 185.898999 
L 365.13946 185.819209 
L 366.585647 185.739419 
L 368.131572 185.619735 
L 369.627628 185.260681 
L 371.173552 185.180892 
L 372.669608 185.180892 
L 374.215532 185.101102 
L 375.761456 185.061207 
L 377.257512 184.901628 
L 378.803437 184.821838 
L 380.299492 184.662259 
L 381.845417 184.622364 
L 383.391341 184.183521 
L 384.78766 184.063837 
L 386.333584 183.545204 
L 387.82964 183.385625 
L 389.375564 183.385625 
L 390.87162 183.106361 
L 392.417544 182.906887 
L 393.963469 182.946782 
L 395.459524 182.707413 
L 397.005449 182.388254 
L 398.501505 182.18878 
L 400.047429 181.989306 
L 401.593353 181.989306 
L 402.989672 181.949411 
L 404.535596 181.989306 
L 406.031652 182.069096 
L 407.577577 181.989306 
L 409.073632 182.029201 
L 410.619557 182.029201 
L 412.165481 181.989306 
L 413.661537 181.989306 
L 415.207461 181.749937 
L 416.703517 181.630253 
L 418.249441 181.510568 
L 419.795366 181.550463 
L 421.191684 180.952041 
L 422.737609 180.592987 
L 424.233664 180.592987 
L 425.779589 180.473303 
L 427.275645 180.233934 
L 428.821569 179.755196 
L 430.367493 179.635512 
L 431.863549 179.595617 
L 433.409473 179.475932 
L 434.905529 179.236563 
L 436.451454 179.196669 
L 437.997378 179.076984 
L 439.443565 177.361507 
L 440.98949 177.281717 
L 442.485545 177.162033 
L 444.03147 177.042348 
L 445.527525 176.483821 
L 447.07345 175.606135 
L 448.619374 175.606135 
L 448.619374 102.319348 
L 448.619374 102.319348 
L 447.07345 102.558717 
L 445.527525 102.439032 
L 444.03147 102.399137 
L 442.485545 102.558717 
L 440.98949 102.638506 
L 439.443565 102.598611 
L 437.997378 102.877875 
L 436.451454 103.157139 
L 434.905529 103.157139 
L 433.409473 103.276823 
L 431.863549 103.436403 
L 430.367493 103.516192 
L 428.821569 103.516192 
L 427.275645 103.795456 
L 425.779589 104.034825 
L 424.233664 104.154509 
L 422.737609 104.154509 
L 421.191684 104.194404 
L 419.795366 104.353983 
L 418.249441 104.473668 
L 416.703517 104.553458 
L 415.207461 104.553458 
L 413.661537 104.593352 
L 412.165481 104.473668 
L 410.619557 104.513563 
L 409.073632 104.513563 
L 407.577577 104.713037 
L 406.031652 104.673142 
L 404.535596 104.673142 
L 402.989672 104.713037 
L 401.593353 104.792827 
L 400.047429 104.792827 
L 398.501505 104.912511 
L 397.005449 104.872616 
L 395.459524 104.992301 
L 393.963469 105.032195 
L 392.417544 105.07209 
L 390.87162 105.111985 
L 389.375564 105.15188 
L 387.82964 105.111985 
L 386.333584 105.23167 
L 384.78766 105.431144 
L 383.391341 105.590723 
L 381.845417 105.630618 
L 380.299492 105.630618 
L 378.803437 105.710407 
L 377.257512 105.750302 
L 375.761456 105.830092 
L 374.215532 105.830092 
L 372.669608 105.869987 
L 371.173552 105.909882 
L 369.627628 105.790197 
L 368.131572 105.750302 
L 366.585647 105.790197 
L 365.13946 105.710407 
L 363.593536 105.710407 
L 362.047611 105.710407 
L 360.551556 105.710407 
L 359.005631 105.710407 
L 357.509576 105.750302 
L 355.963651 105.710407 
L 354.417727 105.750302 
L 352.921671 105.750302 
L 351.375747 105.630618 
L 349.879691 105.630618 
L 348.333767 105.670513 
L 346.937448 105.670513 
L 345.391524 105.750302 
L 343.845599 105.750302 
L 342.349543 105.830092 
L 340.803619 105.830092 
L 339.307563 105.830092 
L 337.761639 105.869987 
L 336.215715 105.869987 
L 334.719659 105.869987 
L 333.173734 105.909882 
L 331.677679 105.949776 
L 330.131754 106.268935 
L 328.735436 106.388619 
L 327.189511 106.30883 
L 325.643587 106.388619 
L 324.147531 106.508304 
L 322.601607 106.548199 
L 321.105551 107.106726 
L 319.559627 107.425885 
L 318.013702 109.6201 
L 316.517646 110.856839 
L 314.971722 111.295682 
L 313.475666 111.295682 
L 311.929742 111.614841 
L 310.533423 111.535051 
L 308.987499 110.737155 
L 307.441575 110.936629 
L 305.945519 111.375472 
L 304.399594 111.375472 
L 302.903539 111.255788 
L 301.357614 111.415367 
L 299.81169 111.455262 
L 298.315634 111.455262 
L 296.76971 111.495157 
L 295.273654 111.574946 
L 293.72773 111.574946 
L 292.281542 111.614841 
L 290.735618 111.614841 
L 289.189694 111.734525 
L 287.693638 111.77442 
L 286.147714 111.814315 
L 284.651658 111.814315 
L 283.105733 111.77442 
L 281.559809 111.814315 
L 280.063753 111.77442 
L 278.517829 112.412737 
L 277.021773 112.372843 
L 275.475849 112.452632 
L 274.07953 112.532422 
L 272.533606 112.652106 
L 270.987681 112.612212 
L 269.491626 112.891475 
L 267.945701 113.01116 
L 266.449645 113.170739 
L 264.903721 113.370213 
L 263.357797 113.410108 
L 261.861741 113.330318 
L 260.315817 113.410108 
L 258.819761 113.450003 
L 257.273837 113.450003 
L 255.877518 113.450003 
L 254.331593 113.450003 
L 252.785669 113.609582 
L 251.289613 113.689372 
L 249.743689 113.928741 
L 248.247633 113.968635 
L 246.701709 114.208004 
L 245.155784 114.287794 
L 243.659729 114.527163 
L 242.113804 114.646847 
L 240.617749 114.806427 
L 239.071824 114.846322 
L 237.675505 114.886216 
L 236.129581 115.045796 
L 234.583657 115.045796 
L 233.087601 115.24527 
L 231.541677 115.524534 
L 230.045621 115.684113 
L 228.499697 115.843692 
L 226.953772 116.043166 
L 225.457716 116.122956 
L 223.911792 116.442114 
L 222.415736 116.442114 
L 220.869812 116.482009 
L 219.423625 116.482009 
L 217.8777 116.482009 
L 216.331776 116.482009 
L 214.83572 116.482009 
L 213.289796 116.521904 
L 211.79374 116.681483 
L 210.247816 116.761273 
L 207.305573 117.240011 
L 206.058859 117.838433 
L 205.01162 118.117697 
L 203.764907 117.559169 
L 202.767537 117.878328 
L 201.371218 117.998012 
L 198.528712 118.157592 
L 195.785943 118.157592 
L 194.938178 118.317171 
L 193.591728 118.835804 
L 192.195409 118.795909 
L 190.499879 119.71349 
L 189.45264 119.71349 
L 188.405401 120.152333 
L 183.817496 120.431597 
L 182.869994 120.511386 
L 177.982879 121.628441 
L 175.539321 122.625812 
L 174.741425 122.665707 
L 173.744054 122.665707 
L 173.095763 122.665707 
L 172.547209 122.705601 
L 169.255887 122.266758 
L 165.715221 122.785391 
L 163.919954 122.984865 
L 162.174556 123.184339 
L 159.032839 123.304024 
L 158.234942 123.383813 
L 156.93836 123.583287 
L 154.843882 123.902446 
L 151.602428 123.742867 
L 150.405583 124.062025 
L 147.612946 124.02213 
L 146.11689 123.942341 
L 144.371492 124.301394 
L 142.376751 124.221605 
L 140.930563 124.10192 
L 139.833456 124.381184 
L 139.085428 124.421079 
L 137.98832 123.663077 
L 136.941081 123.702972 
L 136.242922 123.862551 
L 136.043448 123.862551 
L 135.29542 123.822656 
L 134.298049 124.341289 
L 132.90173 123.782762 
L 132.403045 123.782762 
L 131.854491 123.822656 
L 131.056595 123.862551 
L 130.308567 123.663077 
L 129.610408 124.10192 
L 128.613037 124.221605 
L 128.263957 123.982236 
L 127.316455 124.141815 
L 126.119611 124.10192 
L 125.221977 124.620553 
L 124.723292 124.540763 
L 123.875527 124.540763 
L 123.326973 122.745496 
L 122.479208 123.144444 
L 121.781049 122.147074 
L 120.933284 121.907705 
L 117.641961 122.186969 
L 117.392619 122.027389 
L 115.397878 122.306653 
L 111.059316 124.10192 
L 108.715495 124.979606 
L 99.639423 127.094032 
L 85.027945 130.126038 
L 65.180271 133.995836 
L 48.075366 140.179533 
L 39.747322 144.089226 
L 31.319541 144.408384 
z
" clip-path="url(#pb21f73ada4)" style="fill: #fdc92c"/>
   </g>
   <g id="PolyCollection_3">
    <path d="M 31.319541 112.971265 
L 31.319541 144.408384 
L 39.747322 144.089226 
L 48.075366 140.179533 
L 65.180271 133.995836 
L 85.027945 130.126038 
L 99.639423 127.094032 
L 108.715495 124.979606 
L 111.059316 124.10192 
L 115.397878 122.306653 
L 117.392619 122.027389 
L 117.641961 122.186969 
L 120.933284 121.907705 
L 121.781049 122.147074 
L 122.479208 123.144444 
L 123.326973 122.745496 
L 123.875527 124.540763 
L 124.723292 124.540763 
L 125.221977 124.620553 
L 126.119611 124.10192 
L 127.316455 124.141815 
L 128.263957 123.982236 
L 128.613037 124.221605 
L 129.610408 124.10192 
L 130.308567 123.663077 
L 131.056595 123.862551 
L 131.854491 123.822656 
L 132.403045 123.782762 
L 132.90173 123.782762 
L 134.298049 124.341289 
L 135.29542 123.822656 
L 136.043448 123.862551 
L 136.242922 123.862551 
L 136.941081 123.702972 
L 137.98832 123.663077 
L 139.085428 124.421079 
L 139.833456 124.381184 
L 140.930563 124.10192 
L 142.376751 124.221605 
L 144.371492 124.301394 
L 146.11689 123.942341 
L 147.612946 124.02213 
L 150.405583 124.062025 
L 151.602428 123.742867 
L 154.843882 123.902446 
L 156.93836 123.583287 
L 158.234942 123.383813 
L 159.032839 123.304024 
L 162.174556 123.184339 
L 163.919954 122.984865 
L 165.715221 122.785391 
L 169.255887 122.266758 
L 172.547209 122.705601 
L 173.095763 122.665707 
L 173.744054 122.665707 
L 174.741425 122.665707 
L 175.539321 122.625812 
L 177.982879 121.628441 
L 182.869994 120.511386 
L 183.817496 120.431597 
L 188.405401 120.152333 
L 189.45264 119.71349 
L 190.499879 119.71349 
L 192.195409 118.795909 
L 193.591728 118.835804 
L 194.938178 118.317171 
L 195.785943 118.157592 
L 198.528712 118.157592 
L 201.371218 117.998012 
L 202.767537 117.878328 
L 203.764907 117.559169 
L 205.01162 118.117697 
L 206.058859 117.838433 
L 207.305573 117.240011 
L 210.247816 116.761273 
L 211.79374 116.681483 
L 213.289796 116.521904 
L 214.83572 116.482009 
L 216.331776 116.482009 
L 217.8777 116.482009 
L 219.423625 116.482009 
L 220.869812 116.482009 
L 222.415736 116.442114 
L 223.911792 116.442114 
L 225.457716 116.122956 
L 226.953772 116.043166 
L 228.499697 115.843692 
L 230.045621 115.684113 
L 231.541677 115.524534 
L 233.087601 115.24527 
L 234.583657 115.045796 
L 236.129581 115.045796 
L 237.675505 114.886216 
L 239.071824 114.846322 
L 240.617749 114.806427 
L 242.113804 114.646847 
L 243.659729 114.527163 
L 245.155784 114.287794 
L 246.701709 114.208004 
L 248.247633 113.968635 
L 249.743689 113.928741 
L 251.289613 113.689372 
L 252.785669 113.609582 
L 254.331593 113.450003 
L 255.877518 113.450003 
L 257.273837 113.450003 
L 258.819761 113.450003 
L 260.315817 113.410108 
L 261.861741 113.330318 
L 263.357797 113.410108 
L 264.903721 113.370213 
L 266.449645 113.170739 
L 267.945701 113.01116 
L 269.491626 112.891475 
L 270.987681 112.612212 
L 272.533606 112.652106 
L 274.07953 112.532422 
L 275.475849 112.452632 
L 277.021773 112.372843 
L 278.517829 112.412737 
L 280.063753 111.77442 
L 281.559809 111.814315 
L 283.105733 111.77442 
L 284.651658 111.814315 
L 286.147714 111.814315 
L 287.693638 111.77442 
L 289.189694 111.734525 
L 290.735618 111.614841 
L 292.281542 111.614841 
L 293.72773 111.574946 
L 295.273654 111.574946 
L 296.76971 111.495157 
L 298.315634 111.455262 
L 299.81169 111.455262 
L 301.357614 111.415367 
L 302.903539 111.255788 
L 304.399594 111.375472 
L 305.945519 111.375472 
L 307.441575 110.936629 
L 308.987499 110.737155 
L 310.533423 111.535051 
L 311.929742 111.614841 
L 313.475666 111.295682 
L 314.971722 111.295682 
L 316.517646 110.856839 
L 318.013702 109.6201 
L 319.559627 107.425885 
L 321.105551 107.106726 
L 322.601607 106.548199 
L 324.147531 106.508304 
L 325.643587 106.388619 
L 327.189511 106.30883 
L 328.735436 106.388619 
L 330.131754 106.268935 
L 331.677679 105.949776 
L 333.173734 105.909882 
L 334.719659 105.869987 
L 336.215715 105.869987 
L 337.761639 105.869987 
L 339.307563 105.830092 
L 340.803619 105.830092 
L 342.349543 105.830092 
L 343.845599 105.750302 
L 345.391524 105.750302 
L 346.937448 105.670513 
L 348.333767 105.670513 
L 349.879691 105.630618 
L 351.375747 105.630618 
L 352.921671 105.750302 
L 354.417727 105.750302 
L 355.963651 105.710407 
L 357.509576 105.750302 
L 359.005631 105.710407 
L 360.551556 105.710407 
L 362.047611 105.710407 
L 363.593536 105.710407 
L 365.13946 105.710407 
L 366.585647 105.790197 
L 368.131572 105.750302 
L 369.627628 105.790197 
L 371.173552 105.909882 
L 372.669608 105.869987 
L 374.215532 105.830092 
L 375.761456 105.830092 
L 377.257512 105.750302 
L 378.803437 105.710407 
L 380.299492 105.630618 
L 381.845417 105.630618 
L 383.391341 105.590723 
L 384.78766 105.431144 
L 386.333584 105.23167 
L 387.82964 105.111985 
L 389.375564 105.15188 
L 390.87162 105.111985 
L 392.417544 105.07209 
L 393.963469 105.032195 
L 395.459524 104.992301 
L 397.005449 104.872616 
L 398.501505 104.912511 
L 400.047429 104.792827 
L 401.593353 104.792827 
L 402.989672 104.713037 
L 404.535596 104.673142 
L 406.031652 104.673142 
L 407.577577 104.713037 
L 409.073632 104.513563 
L 410.619557 104.513563 
L 412.165481 104.473668 
L 413.661537 104.593352 
L 415.207461 104.553458 
L 416.703517 104.553458 
L 418.249441 104.473668 
L 419.795366 104.353983 
L 421.191684 104.194404 
L 422.737609 104.154509 
L 424.233664 104.154509 
L 425.779589 104.034825 
L 427.275645 103.795456 
L 428.821569 103.516192 
L 430.367493 103.516192 
L 431.863549 103.436403 
L 433.409473 103.276823 
L 434.905529 103.157139 
L 436.451454 103.157139 
L 437.997378 102.877875 
L 439.443565 102.598611 
L 440.98949 102.638506 
L 442.485545 102.558717 
L 444.03147 102.399137 
L 445.527525 102.439032 
L 447.07345 102.558717 
L 448.619374 102.319348 
L 448.619374 88.27637 
L 448.619374 88.27637 
L 447.07345 88.635424 
L 445.527525 88.874793 
L 444.03147 88.874793 
L 442.485545 88.914688 
L 440.98949 88.914688 
L 439.443565 88.914688 
L 437.997378 88.954582 
L 436.451454 88.954582 
L 434.905529 88.954582 
L 433.409473 88.994477 
L 431.863549 88.994477 
L 430.367493 88.994477 
L 428.821569 88.994477 
L 427.275645 89.074267 
L 425.779589 89.074267 
L 424.233664 89.074267 
L 422.737609 89.074267 
L 421.191684 89.074267 
L 419.795366 89.114162 
L 418.249441 89.114162 
L 416.703517 89.193951 
L 415.207461 89.193951 
L 413.661537 89.233846 
L 412.165481 89.233846 
L 410.619557 89.233846 
L 409.073632 89.233846 
L 407.577577 89.313636 
L 406.031652 89.393425 
L 404.535596 89.393425 
L 402.989672 89.393425 
L 401.593353 89.393425 
L 400.047429 89.393425 
L 398.501505 89.43332 
L 397.005449 89.393425 
L 395.459524 89.473215 
L 393.963469 89.473215 
L 392.417544 89.473215 
L 390.87162 89.51311 
L 389.375564 89.51311 
L 387.82964 89.51311 
L 386.333584 89.553005 
L 384.78766 89.5929 
L 383.391341 89.632794 
L 381.845417 89.632794 
L 380.299492 89.5929 
L 378.803437 89.5929 
L 377.257512 89.5929 
L 375.761456 89.553005 
L 374.215532 89.553005 
L 372.669608 89.5929 
L 371.173552 89.5929 
L 369.627628 89.51311 
L 368.131572 89.473215 
L 366.585647 89.473215 
L 365.13946 89.51311 
L 363.593536 89.51311 
L 362.047611 89.51311 
L 360.551556 89.51311 
L 359.005631 89.51311 
L 357.509576 89.51311 
L 355.963651 89.51311 
L 354.417727 89.51311 
L 352.921671 89.51311 
L 351.375747 89.43332 
L 349.879691 89.43332 
L 348.333767 89.43332 
L 346.937448 89.43332 
L 345.391524 89.393425 
L 343.845599 89.393425 
L 342.349543 89.473215 
L 340.803619 89.473215 
L 339.307563 89.473215 
L 337.761639 89.51311 
L 336.215715 89.51311 
L 334.719659 89.51311 
L 333.173734 89.553005 
L 331.677679 89.5929 
L 330.131754 89.672689 
L 328.735436 89.672689 
L 327.189511 89.672689 
L 325.643587 89.832268 
L 324.147531 89.832268 
L 322.601607 89.832268 
L 321.105551 89.712584 
L 319.559627 89.752479 
L 318.013702 89.951953 
L 316.517646 90.909429 
L 314.971722 91.069008 
L 313.475666 91.108903 
L 311.929742 91.148798 
L 310.533423 91.148798 
L 308.987499 91.148798 
L 307.441575 91.148798 
L 305.945519 91.188692 
L 304.399594 91.188692 
L 302.903539 91.228587 
L 301.357614 91.268482 
L 299.81169 91.308377 
L 298.315634 91.308377 
L 296.76971 91.308377 
L 295.273654 91.308377 
L 293.72773 91.308377 
L 292.281542 91.348272 
L 290.735618 91.348272 
L 289.189694 91.388167 
L 287.693638 91.428061 
L 286.147714 91.428061 
L 284.651658 91.428061 
L 283.105733 91.428061 
L 281.559809 91.428061 
L 280.063753 91.428061 
L 278.517829 91.428061 
L 277.021773 91.428061 
L 275.475849 91.507851 
L 274.07953 91.507851 
L 272.533606 91.507851 
L 270.987681 91.547746 
L 269.491626 91.547746 
L 267.945701 91.587641 
L 266.449645 91.74722 
L 264.903721 92.704696 
L 263.357797 92.704696 
L 261.861741 92.704696 
L 260.315817 92.784485 
L 258.819761 92.784485 
L 257.273837 92.784485 
L 255.877518 92.784485 
L 254.331593 92.784485 
L 252.785669 92.784485 
L 251.289613 92.864275 
L 249.743689 92.784485 
L 248.247633 92.82438 
L 246.701709 92.90417 
L 245.155784 92.983959 
L 243.659729 93.183433 
L 242.113804 93.223328 
L 240.617749 93.223328 
L 239.071824 93.223328 
L 237.675505 93.223328 
L 236.129581 93.303118 
L 234.583657 93.303118 
L 233.087601 93.382908 
L 231.541677 93.382908 
L 230.045621 93.263223 
L 228.499697 93.343013 
L 226.953772 93.343013 
L 225.457716 93.343013 
L 223.911792 93.382908 
L 222.415736 93.382908 
L 220.869812 93.382908 
L 219.423625 93.422802 
L 217.8777 93.422802 
L 216.331776 93.462697 
L 214.83572 93.422802 
L 213.289796 93.422802 
L 211.79374 93.502592 
L 210.247816 93.542487 
L 207.305573 93.821751 
L 206.058859 94.420173 
L 205.01162 94.699437 
L 203.764907 94.06112 
L 202.767537 94.579752 
L 201.371218 94.619647 
L 198.528712 95.537228 
L 195.785943 95.537228 
L 194.938178 95.497333 
L 193.591728 95.656912 
L 192.195409 95.656912 
L 190.499879 95.736702 
L 189.45264 95.736702 
L 188.405401 95.776597 
L 183.817496 95.936176 
L 182.869994 95.936176 
L 177.982879 96.973442 
L 175.539321 97.093126 
L 174.741425 97.133021 
L 173.744054 97.252705 
L 173.095763 97.252705 
L 172.547209 97.252705 
L 169.255887 97.252705 
L 165.715221 97.492074 
L 163.919954 97.611759 
L 162.174556 97.651653 
L 159.032839 97.731443 
L 158.234942 97.851128 
L 156.93836 98.050602 
L 154.843882 98.289971 
L 151.602428 98.44955 
L 150.405583 99.087867 
L 147.612946 99.127762 
L 146.11689 99.407026 
L 144.371492 99.726184 
L 142.376751 99.805974 
L 140.930563 99.805974 
L 139.833456 99.805974 
L 139.085428 99.805974 
L 137.98832 99.965553 
L 136.941081 100.125132 
L 136.242922 100.244817 
L 136.043448 100.244817 
L 135.29542 100.204922 
L 134.298049 100.76345 
L 132.90173 100.284712 
L 132.403045 100.284712 
L 131.854491 100.364501 
L 131.056595 100.364501 
L 130.308567 100.364501 
L 129.610408 100.962924 
L 128.613037 100.962924 
L 128.263957 100.484186 
L 127.316455 101.082608 
L 126.119611 102.199663 
L 125.221977 103.117244 
L 124.723292 103.157139 
L 123.875527 103.157139 
L 123.326973 103.197034 
L 122.479208 103.795456 
L 121.781049 103.236928 
L 120.933284 103.236928 
L 117.641961 103.516192 
L 117.392619 103.556087 
L 115.397878 103.595982 
L 111.059316 100.962924 
L 108.715495 103.755561 
L 99.639423 105.670513 
L 85.027945 107.625359 
L 65.180271 108.981783 
L 48.075366 111.016419 
L 39.747322 113.410108 
L 31.319541 112.971265 
z
" clip-path="url(#pb21f73ada4)" style="fill: #aeaeae"/>
   </g>
   <g id="PolyCollection_4">
    <path d="M 31.319541 88.755108 
L 31.319541 112.971265 
L 39.747322 113.410108 
L 48.075366 111.016419 
L 65.180271 108.981783 
L 85.027945 107.625359 
L 99.639423 105.670513 
L 108.715495 103.755561 
L 111.059316 100.962924 
L 115.397878 103.595982 
L 117.392619 103.556087 
L 117.641961 103.516192 
L 120.933284 103.236928 
L 121.781049 103.236928 
L 122.479208 103.795456 
L 123.326973 103.197034 
L 123.875527 103.157139 
L 124.723292 103.157139 
L 125.221977 103.117244 
L 126.119611 102.199663 
L 127.316455 101.082608 
L 128.263957 100.484186 
L 128.613037 100.962924 
L 129.610408 100.962924 
L 130.308567 100.364501 
L 131.056595 100.364501 
L 131.854491 100.364501 
L 132.403045 100.284712 
L 132.90173 100.284712 
L 134.298049 100.76345 
L 135.29542 100.204922 
L 136.043448 100.244817 
L 136.242922 100.244817 
L 136.941081 100.125132 
L 137.98832 99.965553 
L 139.085428 99.805974 
L 139.833456 99.805974 
L 140.930563 99.805974 
L 142.376751 99.805974 
L 144.371492 99.726184 
L 146.11689 99.407026 
L 147.612946 99.127762 
L 150.405583 99.087867 
L 151.602428 98.44955 
L 154.843882 98.289971 
L 156.93836 98.050602 
L 158.234942 97.851128 
L 159.032839 97.731443 
L 162.174556 97.651653 
L 163.919954 97.611759 
L 165.715221 97.492074 
L 169.255887 97.252705 
L 172.547209 97.252705 
L 173.095763 97.252705 
L 173.744054 97.252705 
L 174.741425 97.133021 
L 175.539321 97.093126 
L 177.982879 96.973442 
L 182.869994 95.936176 
L 183.817496 95.936176 
L 188.405401 95.776597 
L 189.45264 95.736702 
L 190.499879 95.736702 
L 192.195409 95.656912 
L 193.591728 95.656912 
L 194.938178 95.497333 
L 195.785943 95.537228 
L 198.528712 95.537228 
L 201.371218 94.619647 
L 202.767537 94.579752 
L 203.764907 94.06112 
L 205.01162 94.699437 
L 206.058859 94.420173 
L 207.305573 93.821751 
L 210.247816 93.542487 
L 211.79374 93.502592 
L 213.289796 93.422802 
L 214.83572 93.422802 
L 216.331776 93.462697 
L 217.8777 93.422802 
L 219.423625 93.422802 
L 220.869812 93.382908 
L 222.415736 93.382908 
L 223.911792 93.382908 
L 225.457716 93.343013 
L 226.953772 93.343013 
L 228.499697 93.343013 
L 230.045621 93.263223 
L 231.541677 93.382908 
L 233.087601 93.382908 
L 234.583657 93.303118 
L 236.129581 93.303118 
L 237.675505 93.223328 
L 239.071824 93.223328 
L 240.617749 93.223328 
L 242.113804 93.223328 
L 243.659729 93.183433 
L 245.155784 92.983959 
L 246.701709 92.90417 
L 248.247633 92.82438 
L 249.743689 92.784485 
L 251.289613 92.864275 
L 252.785669 92.784485 
L 254.331593 92.784485 
L 255.877518 92.784485 
L 257.273837 92.784485 
L 258.819761 92.784485 
L 260.315817 92.784485 
L 261.861741 92.704696 
L 263.357797 92.704696 
L 264.903721 92.704696 
L 266.449645 91.74722 
L 267.945701 91.587641 
L 269.491626 91.547746 
L 270.987681 91.547746 
L 272.533606 91.507851 
L 274.07953 91.507851 
L 275.475849 91.507851 
L 277.021773 91.428061 
L 278.517829 91.428061 
L 280.063753 91.428061 
L 281.559809 91.428061 
L 283.105733 91.428061 
L 284.651658 91.428061 
L 286.147714 91.428061 
L 287.693638 91.428061 
L 289.189694 91.388167 
L 290.735618 91.348272 
L 292.281542 91.348272 
L 293.72773 91.308377 
L 295.273654 91.308377 
L 296.76971 91.308377 
L 298.315634 91.308377 
L 299.81169 91.308377 
L 301.357614 91.268482 
L 302.903539 91.228587 
L 304.399594 91.188692 
L 305.945519 91.188692 
L 307.441575 91.148798 
L 308.987499 91.148798 
L 310.533423 91.148798 
L 311.929742 91.148798 
L 313.475666 91.108903 
L 314.971722 91.069008 
L 316.517646 90.909429 
L 318.013702 89.951953 
L 319.559627 89.752479 
L 321.105551 89.712584 
L 322.601607 89.832268 
L 324.147531 89.832268 
L 325.643587 89.832268 
L 327.189511 89.672689 
L 328.735436 89.672689 
L 330.131754 89.672689 
L 331.677679 89.5929 
L 333.173734 89.553005 
L 334.719659 89.51311 
L 336.215715 89.51311 
L 337.761639 89.51311 
L 339.307563 89.473215 
L 340.803619 89.473215 
L 342.349543 89.473215 
L 343.845599 89.393425 
L 345.391524 89.393425 
L 346.937448 89.43332 
L 348.333767 89.43332 
L 349.879691 89.43332 
L 351.375747 89.43332 
L 352.921671 89.51311 
L 354.417727 89.51311 
L 355.963651 89.51311 
L 357.509576 89.51311 
L 359.005631 89.51311 
L 360.551556 89.51311 
L 362.047611 89.51311 
L 363.593536 89.51311 
L 365.13946 89.51311 
L 366.585647 89.473215 
L 368.131572 89.473215 
L 369.627628 89.51311 
L 371.173552 89.5929 
L 372.669608 89.5929 
L 374.215532 89.553005 
L 375.761456 89.553005 
L 377.257512 89.5929 
L 378.803437 89.5929 
L 380.299492 89.5929 
L 381.845417 89.632794 
L 383.391341 89.632794 
L 384.78766 89.5929 
L 386.333584 89.553005 
L 387.82964 89.51311 
L 389.375564 89.51311 
L 390.87162 89.51311 
L 392.417544 89.473215 
L 393.963469 89.473215 
L 395.459524 89.473215 
L 397.005449 89.393425 
L 398.501505 89.43332 
L 400.047429 89.393425 
L 401.593353 89.393425 
L 402.989672 89.393425 
L 404.535596 89.393425 
L 406.031652 89.393425 
L 407.577577 89.313636 
L 409.073632 89.233846 
L 410.619557 89.233846 
L 412.165481 89.233846 
L 413.661537 89.233846 
L 415.207461 89.193951 
L 416.703517 89.193951 
L 418.249441 89.114162 
L 419.795366 89.114162 
L 421.191684 89.074267 
L 422.737609 89.074267 
L 424.233664 89.074267 
L 425.779589 89.074267 
L 427.275645 89.074267 
L 428.821569 88.994477 
L 430.367493 88.994477 
L 431.863549 88.994477 
L 433.409473 88.994477 
L 434.905529 88.954582 
L 436.451454 88.954582 
L 437.997378 88.954582 
L 439.443565 88.914688 
L 440.98949 88.914688 
L 442.485545 88.914688 
L 444.03147 88.874793 
L 445.527525 88.874793 
L 447.07345 88.635424 
L 448.619374 88.27637 
L 448.619374 78.542034 
L 448.619374 78.542034 
L 447.07345 78.542034 
L 445.527525 78.581929 
L 444.03147 78.581929 
L 442.485545 78.581929 
L 440.98949 78.581929 
L 439.443565 78.581929 
L 437.997378 78.581929 
L 436.451454 78.581929 
L 434.905529 78.581929 
L 433.409473 78.581929 
L 431.863549 78.581929 
L 430.367493 78.581929 
L 428.821569 78.581929 
L 427.275645 78.581929 
L 425.779589 78.581929 
L 424.233664 78.581929 
L 422.737609 78.581929 
L 421.191684 78.581929 
L 419.795366 78.781403 
L 418.249441 78.821298 
L 416.703517 78.861193 
L 415.207461 78.861193 
L 413.661537 78.861193 
L 412.165481 78.861193 
L 410.619557 78.861193 
L 409.073632 78.861193 
L 407.577577 78.861193 
L 406.031652 78.861193 
L 404.535596 78.861193 
L 402.989672 78.901087 
L 401.593353 78.861193 
L 400.047429 78.861193 
L 398.501505 78.901087 
L 397.005449 78.621824 
L 395.459524 78.621824 
L 393.963469 78.26277 
L 392.417544 78.26277 
L 390.87162 78.26277 
L 389.375564 78.26277 
L 387.82964 78.26277 
L 386.333584 78.26277 
L 384.78766 78.302665 
L 383.391341 78.302665 
L 381.845417 78.302665 
L 380.299492 78.26277 
L 378.803437 78.26277 
L 377.257512 78.26277 
L 375.761456 78.302665 
L 374.215532 78.302665 
L 372.669608 78.302665 
L 371.173552 78.302665 
L 369.627628 78.222875 
L 368.131572 78.182981 
L 366.585647 78.182981 
L 365.13946 78.182981 
L 363.593536 78.182981 
L 362.047611 78.182981 
L 360.551556 78.182981 
L 359.005631 78.182981 
L 357.509576 78.182981 
L 355.963651 78.182981 
L 354.417727 78.182981 
L 352.921671 78.182981 
L 351.375747 78.103191 
L 349.879691 78.103191 
L 348.333767 78.103191 
L 346.937448 78.103191 
L 345.391524 78.103191 
L 343.845599 78.103191 
L 342.349543 78.103191 
L 340.803619 78.103191 
L 339.307563 78.103191 
L 337.761639 78.063296 
L 336.215715 78.063296 
L 334.719659 78.063296 
L 333.173734 78.063296 
L 331.677679 78.063296 
L 330.131754 78.063296 
L 328.735436 78.063296 
L 327.189511 78.063296 
L 325.643587 78.063296 
L 324.147531 78.063296 
L 322.601607 78.063296 
L 321.105551 78.063296 
L 319.559627 78.063296 
L 318.013702 78.063296 
L 316.517646 78.063296 
L 314.971722 78.063296 
L 313.475666 78.063296 
L 311.929742 78.063296 
L 310.533423 78.063296 
L 308.987499 78.063296 
L 307.441575 78.063296 
L 305.945519 78.063296 
L 304.399594 78.063296 
L 302.903539 78.063296 
L 301.357614 78.063296 
L 299.81169 78.063296 
L 298.315634 78.063296 
L 296.76971 78.063296 
L 295.273654 78.063296 
L 293.72773 78.42235 
L 292.281542 78.462244 
L 290.735618 78.462244 
L 289.189694 78.462244 
L 287.693638 78.621824 
L 286.147714 78.621824 
L 284.651658 78.621824 
L 283.105733 78.621824 
L 281.559809 78.621824 
L 280.063753 78.621824 
L 278.517829 78.621824 
L 277.021773 78.621824 
L 275.475849 78.621824 
L 274.07953 78.621824 
L 272.533606 78.621824 
L 270.987681 78.661718 
L 269.491626 78.661718 
L 267.945701 78.661718 
L 266.449645 78.661718 
L 264.903721 78.382455 
L 263.357797 78.542034 
L 261.861741 78.502139 
L 260.315817 78.502139 
L 258.819761 78.502139 
L 257.273837 78.502139 
L 255.877518 78.502139 
L 254.331593 78.502139 
L 252.785669 78.502139 
L 251.289613 78.542034 
L 249.743689 78.542034 
L 248.247633 78.542034 
L 246.701709 78.502139 
L 245.155784 78.502139 
L 243.659729 78.502139 
L 242.113804 78.502139 
L 240.617749 78.502139 
L 239.071824 78.502139 
L 237.675505 78.502139 
L 236.129581 78.502139 
L 234.583657 78.502139 
L 233.087601 78.502139 
L 231.541677 78.542034 
L 230.045621 78.502139 
L 228.499697 78.542034 
L 226.953772 78.502139 
L 225.457716 78.502139 
L 223.911792 78.502139 
L 222.415736 78.502139 
L 220.869812 78.502139 
L 219.423625 78.502139 
L 217.8777 78.542034 
L 216.331776 78.542034 
L 214.83572 78.502139 
L 213.289796 78.502139 
L 211.79374 78.502139 
L 210.247816 78.581929 
L 207.305573 78.861193 
L 206.058859 79.539405 
L 205.01162 79.619194 
L 203.764907 78.980877 
L 202.767537 80.536775 
L 201.371218 80.536775 
L 198.528712 81.972989 
L 195.785943 81.972989 
L 194.938178 81.933094 
L 193.591728 82.092673 
L 192.195409 82.052778 
L 190.499879 82.052778 
L 189.45264 82.052778 
L 188.405401 82.052778 
L 183.817496 82.371937 
L 182.869994 82.371937 
L 177.982879 82.571411 
L 175.539321 82.531516 
L 174.741425 82.531516 
L 173.744054 82.611306 
L 173.095763 82.611306 
L 172.547209 82.611306 
L 169.255887 83.169833 
L 165.715221 83.289518 
L 163.919954 83.289518 
L 162.174556 83.289518 
L 159.032839 83.289518 
L 158.234942 83.249623 
L 156.93836 83.249623 
L 154.843882 83.129938 
L 151.602428 83.090044 
L 150.405583 84.127309 
L 147.612946 84.246993 
L 146.11689 84.366678 
L 144.371492 84.246993 
L 142.376751 84.246993 
L 140.930563 84.207099 
L 139.833456 84.207099 
L 139.085428 84.207099 
L 137.98832 84.167204 
L 136.941081 84.167204 
L 136.242922 84.207099 
L 136.043448 84.207099 
L 135.29542 84.207099 
L 134.298049 84.645942 
L 132.90173 84.207099 
L 132.403045 84.207099 
L 131.854491 84.246993 
L 131.056595 84.167204 
L 130.308567 84.167204 
L 129.610408 84.566152 
L 128.613037 84.486362 
L 128.263957 84.047519 
L 127.316455 84.606047 
L 126.119611 84.446468 
L 125.221977 84.486362 
L 124.723292 84.486362 
L 123.875527 84.486362 
L 123.326973 84.526257 
L 122.479208 85.04489 
L 121.781049 84.486362 
L 120.933284 84.486362 
L 117.641961 85.483733 
L 117.392619 85.523628 
L 115.397878 85.483733 
L 111.059316 84.566152 
L 108.715495 85.483733 
L 99.639423 86.281629 
L 85.027945 86.720472 
L 65.180271 87.438579 
L 48.075366 87.877422 
L 39.747322 88.914688 
L 31.319541 88.755108 
z
" clip-path="url(#pb21f73ada4)" style="fill: #d5dce5"/>
   </g>
   <g id="matplotlib.axis_1">
    <g id="xtick_1">
     <g id="line2d_1">
      <defs>
       <path id="m00a7f23a73" d="M 0 0 
L 0 3.5 
" style="stroke: #000000; stroke-width: 0.8"/>
      </defs>
      <g>
       <use xlink:href="#m00a7f23a73" x="72.161865" y="280.330041" style="stroke: #000000; stroke-width: 0.8"/>
      </g>
     </g>
     <g id="text_1">
      <!-- 2004 -->
      <g transform="translate(59.436865 294.928479) scale(0.1 -0.1)">
       <defs>
        <path id="DejaVuSans-32" d="M 1228 531 
L 3431 531 
L 3431 0 
L 469 0 
L 469 531 
Q 828 903 1448 1529 
Q 2069 2156 2228 2338 
Q 2531 2678 2651 2914 
Q 2772 3150 2772 3378 
Q 2772 3750 2511 3984 
Q 2250 4219 1831 4219 
Q 1534 4219 1204 4116 
Q 875 4013 500 3803 
L 500 4441 
Q 881 4594 1212 4672 
Q 1544 4750 1819 4750 
Q 2544 4750 2975 4387 
Q 3406 4025 3406 3419 
Q 3406 3131 3298 2873 
Q 3191 2616 2906 2266 
Q 2828 2175 2409 1742 
Q 1991 1309 1228 531 
z
" transform="scale(0.015625)"/>
        <path id="DejaVuSans-30" d="M 2034 4250 
Q 1547 4250 1301 3770 
Q 1056 3291 1056 2328 
Q 1056 1369 1301 889 
Q 1547 409 2034 409 
Q 2525 409 2770 889 
Q 3016 1369 3016 2328 
Q 3016 3291 2770 3770 
Q 2525 4250 2034 4250 
z
M 2034 4750 
Q 2819 4750 3233 4129 
Q 3647 3509 3647 2328 
Q 3647 1150 3233 529 
Q 2819 -91 2034 -91 
Q 1250 -91 836 529 
Q 422 1150 422 2328 
Q 422 3509 836 4129 
Q 1250 4750 2034 4750 
z
" transform="scale(0.015625)"/>
        <path id="DejaVuSans-34" d="M 2419 4116 
L 825 1625 
L 2419 1625 
L 2419 4116 
z
M 2253 4666 
L 3047 4666 
L 3047 1625 
L 3713 1625 
L 3713 1100 
L 3047 1100 
L 3047 0 
L 2419 0 
L 2419 1100 
L 313 1100 
L 313 1709 
L 2253 4666 
z
" transform="scale(0.015625)"/>
       </defs>
       <use xlink:href="#DejaVuSans-32"/>
       <use xlink:href="#DejaVuSans-30" x="63.623047"/>
       <use xlink:href="#DejaVuSans-30" x="127.246094"/>
       <use xlink:href="#DejaVuSans-34" x="190.869141"/>
      </g>
     </g>
    </g>
    <g id="xtick_2">
     <g id="line2d_2">
      <g>
       <use xlink:href="#m00a7f23a73" x="145.019783" y="280.330041" style="stroke: #000000; stroke-width: 0.8"/>
      </g>
     </g>
     <g id="text_2">
      <!-- 2008 -->
      <g transform="translate(132.294783 294.928479) scale(0.1 -0.1)">
       <defs>
        <path id="DejaVuSans-38" d="M 2034 2216 
Q 1584 2216 1326 1975 
Q 1069 1734 1069 1313 
Q 1069 891 1326 650 
Q 1584 409 2034 409 
Q 2484 409 2743 651 
Q 3003 894 3003 1313 
Q 3003 1734 2745 1975 
Q 2488 2216 2034 2216 
z
M 1403 2484 
Q 997 2584 770 2862 
Q 544 3141 544 3541 
Q 544 4100 942 4425 
Q 1341 4750 2034 4750 
Q 2731 4750 3128 4425 
Q 3525 4100 3525 3541 
Q 3525 3141 3298 2862 
Q 3072 2584 2669 2484 
Q 3125 2378 3379 2068 
Q 3634 1759 3634 1313 
Q 3634 634 3220 271 
Q 2806 -91 2034 -91 
Q 1263 -91 848 271 
Q 434 634 434 1313 
Q 434 1759 690 2068 
Q 947 2378 1403 2484 
z
M 1172 3481 
Q 1172 3119 1398 2916 
Q 1625 2713 2034 2713 
Q 2441 2713 2670 2916 
Q 2900 3119 2900 3481 
Q 2900 3844 2670 4047 
Q 2441 4250 2034 4250 
Q 1625 4250 1398 4047 
Q 1172 3844 1172 3481 
z
" transform="scale(0.015625)"/>
       </defs>
       <use xlink:href="#DejaVuSans-32"/>
       <use xlink:href="#DejaVuSans-30" x="63.623047"/>
       <use xlink:href="#DejaVuSans-30" x="127.246094"/>
       <use xlink:href="#DejaVuSans-38" x="190.869141"/>
      </g>
     </g>
    </g>
    <g id="xtick_3">
     <g id="line2d_3">
      <g>
       <use xlink:href="#m00a7f23a73" x="217.8777" y="280.330041" style="stroke: #000000; stroke-width: 0.8"/>
      </g>
     </g>
     <g id="text_3">
      <!-- 2012 -->
      <g transform="translate(205.1527 294.928479) scale(0.1 -0.1)">
       <defs>
        <path id="DejaVuSans-31" d="M 794 531 
L 1825 531 
L 1825 4091 
L 703 3866 
L 703 4441 
L 1819 4666 
L 2450 4666 
L 2450 531 
L 3481 531 
L 3481 0 
L 794 0 
L 794 531 
z
" transform="scale(0.015625)"/>
       </defs>
       <use xlink:href="#DejaVuSans-32"/>
       <use xlink:href="#DejaVuSans-30" x="63.623047"/>
       <use xlink:href="#DejaVuSans-31" x="127.246094"/>
       <use xlink:href="#DejaVuSans-32" x="190.869141"/>
      </g>
     </g>
    </g>
    <g id="xtick_4">
     <g id="line2d_4">
      <g>
       <use xlink:href="#m00a7f23a73" x="290.735618" y="280.330041" style="stroke: #000000; stroke-width: 0.8"/>
      </g>
     </g>
     <g id="text_4">
      <!-- 2016 -->
      <g transform="translate(278.010618 294.928479) scale(0.1 -0.1)">
       <defs>
        <path id="DejaVuSans-36" d="M 2113 2584 
Q 1688 2584 1439 2293 
Q 1191 2003 1191 1497 
Q 1191 994 1439 701 
Q 1688 409 2113 409 
Q 2538 409 2786 701 
Q 3034 994 3034 1497 
Q 3034 2003 2786 2293 
Q 2538 2584 2113 2584 
z
M 3366 4563 
L 3366 3988 
Q 3128 4100 2886 4159 
Q 2644 4219 2406 4219 
Q 1781 4219 1451 3797 
Q 1122 3375 1075 2522 
Q 1259 2794 1537 2939 
Q 1816 3084 2150 3084 
Q 2853 3084 3261 2657 
Q 3669 2231 3669 1497 
Q 3669 778 3244 343 
Q 2819 -91 2113 -91 
Q 1303 -91 875 529 
Q 447 1150 447 2328 
Q 447 3434 972 4092 
Q 1497 4750 2381 4750 
Q 2619 4750 2861 4703 
Q 3103 4656 3366 4563 
z
" transform="scale(0.015625)"/>
       </defs>
       <use xlink:href="#DejaVuSans-32"/>
       <use xlink:href="#DejaVuSans-30" x="63.623047"/>
       <use xlink:href="#DejaVuSans-31" x="127.246094"/>
       <use xlink:href="#DejaVuSans-36" x="190.869141"/>
      </g>
     </g>
    </g>
    <g id="xtick_5">
     <g id="line2d_5">
      <g>
       <use xlink:href="#m00a7f23a73" x="363.593536" y="280.330041" style="stroke: #000000; stroke-width: 0.8"/>
      </g>
     </g>
     <g id="text_5">
      <!-- 2020 -->
      <g transform="translate(350.868536 294.928479) scale(0.1 -0.1)">
       <use xlink:href="#DejaVuSans-32"/>
       <use xlink:href="#DejaVuSans-30" x="63.623047"/>
       <use xlink:href="#DejaVuSans-32" x="127.246094"/>
       <use xlink:href="#DejaVuSans-30" x="190.869141"/>
      </g>
     </g>
    </g>
    <g id="xtick_6">
     <g id="line2d_6">
      <g>
       <use xlink:href="#m00a7f23a73" x="436.451454" y="280.330041" style="stroke: #000000; stroke-width: 0.8"/>
      </g>
     </g>
     <g id="text_6">
      <!-- 2024 -->
      <g transform="translate(423.726454 294.928479) scale(0.1 -0.1)">
       <use xlink:href="#DejaVuSans-32"/>
       <use xlink:href="#DejaVuSans-30" x="63.623047"/>
       <use xlink:href="#DejaVuSans-32" x="127.246094"/>
       <use xlink:href="#DejaVuSans-34" x="190.869141"/>
      </g>
     </g>
    </g>
    <g id="text_7">
     <!-- Year -->
     <g transform="translate(239.198371 312.405822) scale(0.15 -0.15)">
      <defs>
       <path id="DejaVuSans-59" d="M -13 4666 
L 666 4666 
L 1959 2747 
L 3244 4666 
L 3922 4666 
L 2272 2222 
L 2272 0 
L 1638 0 
L 1638 2222 
L -13 4666 
z
" transform="scale(0.015625)"/>
       <path id="DejaVuSans-65" d="M 3597 1894 
L 3597 1613 
L 953 1613 
Q 991 1019 1311 708 
Q 1631 397 2203 397 
Q 2534 397 2845 478 
Q 3156 559 3463 722 
L 3463 178 
Q 3153 47 2828 -22 
Q 2503 -91 2169 -91 
Q 1331 -91 842 396 
Q 353 884 353 1716 
Q 353 2575 817 3079 
Q 1281 3584 2069 3584 
Q 2775 3584 3186 3129 
Q 3597 2675 3597 1894 
z
M 3022 2063 
Q 3016 2534 2758 2815 
Q 2500 3097 2075 3097 
Q 1594 3097 1305 2825 
Q 1016 2553 972 2059 
L 3022 2063 
z
" transform="scale(0.015625)"/>
       <path id="DejaVuSans-61" d="M 2194 1759 
Q 1497 1759 1228 1600 
Q 959 1441 959 1056 
Q 959 750 1161 570 
Q 1363 391 1709 391 
Q 2188 391 2477 730 
Q 2766 1069 2766 1631 
L 2766 1759 
L 2194 1759 
z
M 3341 1997 
L 3341 0 
L 2766 0 
L 2766 531 
Q 2569 213 2275 61 
Q 1981 -91 1556 -91 
Q 1019 -91 701 211 
Q 384 513 384 1019 
Q 384 1609 779 1909 
Q 1175 2209 1959 2209 
L 2766 2209 
L 2766 2266 
Q 2766 2663 2505 2880 
Q 2244 3097 1772 3097 
Q 1472 3097 1187 3025 
Q 903 2953 641 2809 
L 641 3341 
Q 956 3463 1253 3523 
Q 1550 3584 1831 3584 
Q 2591 3584 2966 3190 
Q 3341 2797 3341 1997 
z
" transform="scale(0.015625)"/>
       <path id="DejaVuSans-72" d="M 2631 2963 
Q 2534 3019 2420 3045 
Q 2306 3072 2169 3072 
Q 1681 3072 1420 2755 
Q 1159 2438 1159 1844 
L 1159 0 
L 581 0 
L 581 3500 
L 1159 3500 
L 1159 2956 
Q 1341 3275 1631 3429 
Q 1922 3584 2338 3584 
Q 2397 3584 2469 3576 
Q 2541 3569 2628 3553 
L 2631 2963 
z
" transform="scale(0.015625)"/>
      </defs>
      <use xlink:href="#DejaVuSans-59"/>
      <use xlink:href="#DejaVuSans-65" x="47.833984"/>
      <use xlink:href="#DejaVuSans-61" x="109.357422"/>
      <use xlink:href="#DejaVuSans-72" x="170.636719"/>
     </g>
    </g>
   </g>
   <g id="matplotlib.axis_2">
    <g id="ytick_1">
     <g id="line2d_7">
      <defs>
       <path id="mc35e5729f6" d="M 0 0 
L -3.5 0 
" style="stroke: #000000; stroke-width: 0.8"/>
      </defs>
      <g>
       <use xlink:href="#mc35e5729f6" x="61.49" y="280.330041" style="stroke: #000000; stroke-width: 0.8"/>
      </g>
     </g>
     <g id="text_8">
      <!-- 0 -->
      <g transform="translate(48.1275 284.12926) scale(0.1 -0.1)">
       <use xlink:href="#DejaVuSans-30"/>
      </g>
     </g>
    </g>
    <g id="ytick_2">
     <g id="line2d_8">
      <g>
       <use xlink:href="#mc35e5729f6" x="61.49" y="240.43522" style="stroke: #000000; stroke-width: 0.8"/>
      </g>
     </g>
     <g id="text_9">
      <!-- 1000 -->
      <g transform="translate(29.04 244.234438) scale(0.1 -0.1)">
       <use xlink:href="#DejaVuSans-31"/>
       <use xlink:href="#DejaVuSans-30" x="63.623047"/>
       <use xlink:href="#DejaVuSans-30" x="127.246094"/>
       <use xlink:href="#DejaVuSans-30" x="190.869141"/>
      </g>
     </g>
    </g>
    <g id="ytick_3">
     <g id="line2d_9">
      <g>
       <use xlink:href="#mc35e5729f6" x="61.49" y="200.540398" style="stroke: #000000; stroke-width: 0.8"/>
      </g>
     </g>
     <g id="text_10">
      <!-- 2000 -->
      <g transform="translate(29.04 204.339617) scale(0.1 -0.1)">
       <use xlink:href="#DejaVuSans-32"/>
       <use xlink:href="#DejaVuSans-30" x="63.623047"/>
       <use xlink:href="#DejaVuSans-30" x="127.246094"/>
       <use xlink:href="#DejaVuSans-30" x="190.869141"/>
      </g>
     </g>
    </g>
    <g id="ytick_4">
     <g id="line2d_10">
      <g>
       <use xlink:href="#mc35e5729f6" x="61.49" y="160.645577" style="stroke: #000000; stroke-width: 0.8"/>
      </g>
     </g>
     <g id="text_11">
      <!-- 3000 -->
      <g transform="translate(29.04 164.444795) scale(0.1 -0.1)">
       <defs>
        <path id="DejaVuSans-33" d="M 2597 2516 
Q 3050 2419 3304 2112 
Q 3559 1806 3559 1356 
Q 3559 666 3084 287 
Q 2609 -91 1734 -91 
Q 1441 -91 1130 -33 
Q 819 25 488 141 
L 488 750 
Q 750 597 1062 519 
Q 1375 441 1716 441 
Q 2309 441 2620 675 
Q 2931 909 2931 1356 
Q 2931 1769 2642 2001 
Q 2353 2234 1838 2234 
L 1294 2234 
L 1294 2753 
L 1863 2753 
Q 2328 2753 2575 2939 
Q 2822 3125 2822 3475 
Q 2822 3834 2567 4026 
Q 2313 4219 1838 4219 
Q 1578 4219 1281 4162 
Q 984 4106 628 3988 
L 628 4550 
Q 988 4650 1302 4700 
Q 1616 4750 1894 4750 
Q 2613 4750 3031 4423 
Q 3450 4097 3450 3541 
Q 3450 3153 3228 2886 
Q 3006 2619 2597 2516 
z
" transform="scale(0.015625)"/>
       </defs>
       <use xlink:href="#DejaVuSans-33"/>
       <use xlink:href="#DejaVuSans-30" x="63.623047"/>
       <use xlink:href="#DejaVuSans-30" x="127.246094"/>
       <use xlink:href="#DejaVuSans-30" x="190.869141"/>
      </g>
     </g>
    </g>
    <g id="ytick_5">
     <g id="line2d_11">
      <g>
       <use xlink:href="#mc35e5729f6" x="61.49" y="120.750755" style="stroke: #000000; stroke-width: 0.8"/>
      </g>
     </g>
     <g id="text_12">
      <!-- 4000 -->
      <g transform="translate(29.04 124.549974) scale(0.1 -0.1)">
       <use xlink:href="#DejaVuSans-34"/>
       <use xlink:href="#DejaVuSans-30" x="63.623047"/>
       <use xlink:href="#DejaVuSans-30" x="127.246094"/>
       <use xlink:href="#DejaVuSans-30" x="190.869141"/>
      </g>
     </g>
    </g>
    <g id="ytick_6">
     <g id="line2d_12">
      <g>
       <use xlink:href="#mc35e5729f6" x="61.49" y="80.855934" style="stroke: #000000; stroke-width: 0.8"/>
      </g>
     </g>
     <g id="text_13">
      <!-- 5000 -->
      <g transform="translate(29.04 84.655152) scale(0.1 -0.1)">
       <defs>
        <path id="DejaVuSans-35" d="M 691 4666 
L 3169 4666 
L 3169 4134 
L 1269 4134 
L 1269 2991 
Q 1406 3038 1543 3061 
Q 1681 3084 1819 3084 
Q 2600 3084 3056 2656 
Q 3513 2228 3513 1497 
Q 3513 744 3044 326 
Q 2575 -91 1722 -91 
Q 1428 -91 1123 -41 
Q 819 9 494 109 
L 494 744 
Q 775 591 1075 516 
Q 1375 441 1709 441 
Q 2250 441 2565 725 
Q 2881 1009 2881 1497 
Q 2881 1984 2565 2268 
Q 2250 2553 1709 2553 
Q 1456 2553 1204 2497 
Q 953 2441 691 2322 
L 691 4666 
z
" transform="scale(0.015625)"/>
       </defs>
       <use xlink:href="#DejaVuSans-35"/>
       <use xlink:href="#DejaVuSans-30" x="63.623047"/>
       <use xlink:href="#DejaVuSans-30" x="127.246094"/>
       <use xlink:href="#DejaVuSans-30" x="190.869141"/>
      </g>
     </g>
    </g>
    <g id="text_14">
     <!-- Number of proteins -->
     <g transform="translate(21.920469 246.829062) rotate(-90) scale(0.15 -0.15)">
      <defs>
       <path id="DejaVuSans-4e" d="M 628 4666 
L 1478 4666 
L 3547 763 
L 3547 4666 
L 4159 4666 
L 4159 0 
L 3309 0 
L 1241 3903 
L 1241 0 
L 628 0 
L 628 4666 
z
" transform="scale(0.015625)"/>
       <path id="DejaVuSans-75" d="M 544 1381 
L 544 3500 
L 1119 3500 
L 1119 1403 
Q 1119 906 1312 657 
Q 1506 409 1894 409 
Q 2359 409 2629 706 
Q 2900 1003 2900 1516 
L 2900 3500 
L 3475 3500 
L 3475 0 
L 2900 0 
L 2900 538 
Q 2691 219 2414 64 
Q 2138 -91 1772 -91 
Q 1169 -91 856 284 
Q 544 659 544 1381 
z
M 1991 3584 
L 1991 3584 
z
" transform="scale(0.015625)"/>
       <path id="DejaVuSans-6d" d="M 3328 2828 
Q 3544 3216 3844 3400 
Q 4144 3584 4550 3584 
Q 5097 3584 5394 3201 
Q 5691 2819 5691 2113 
L 5691 0 
L 5113 0 
L 5113 2094 
Q 5113 2597 4934 2840 
Q 4756 3084 4391 3084 
Q 3944 3084 3684 2787 
Q 3425 2491 3425 1978 
L 3425 0 
L 2847 0 
L 2847 2094 
Q 2847 2600 2669 2842 
Q 2491 3084 2119 3084 
Q 1678 3084 1418 2786 
Q 1159 2488 1159 1978 
L 1159 0 
L 581 0 
L 581 3500 
L 1159 3500 
L 1159 2956 
Q 1356 3278 1631 3431 
Q 1906 3584 2284 3584 
Q 2666 3584 2933 3390 
Q 3200 3197 3328 2828 
z
" transform="scale(0.015625)"/>
       <path id="DejaVuSans-62" d="M 3116 1747 
Q 3116 2381 2855 2742 
Q 2594 3103 2138 3103 
Q 1681 3103 1420 2742 
Q 1159 2381 1159 1747 
Q 1159 1113 1420 752 
Q 1681 391 2138 391 
Q 2594 391 2855 752 
Q 3116 1113 3116 1747 
z
M 1159 2969 
Q 1341 3281 1617 3432 
Q 1894 3584 2278 3584 
Q 2916 3584 3314 3078 
Q 3713 2572 3713 1747 
Q 3713 922 3314 415 
Q 2916 -91 2278 -91 
Q 1894 -91 1617 61 
Q 1341 213 1159 525 
L 1159 0 
L 581 0 
L 581 4863 
L 1159 4863 
L 1159 2969 
z
" transform="scale(0.015625)"/>
       <path id="DejaVuSans-20" transform="scale(0.015625)"/>
       <path id="DejaVuSans-6f" d="M 1959 3097 
Q 1497 3097 1228 2736 
Q 959 2375 959 1747 
Q 959 1119 1226 758 
Q 1494 397 1959 397 
Q 2419 397 2687 759 
Q 2956 1122 2956 1747 
Q 2956 2369 2687 2733 
Q 2419 3097 1959 3097 
z
M 1959 3584 
Q 2709 3584 3137 3096 
Q 3566 2609 3566 1747 
Q 3566 888 3137 398 
Q 2709 -91 1959 -91 
Q 1206 -91 779 398 
Q 353 888 353 1747 
Q 353 2609 779 3096 
Q 1206 3584 1959 3584 
z
" transform="scale(0.015625)"/>
       <path id="DejaVuSans-66" d="M 2375 4863 
L 2375 4384 
L 1825 4384 
Q 1516 4384 1395 4259 
Q 1275 4134 1275 3809 
L 1275 3500 
L 2222 3500 
L 2222 3053 
L 1275 3053 
L 1275 0 
L 697 0 
L 697 3053 
L 147 3053 
L 147 3500 
L 697 3500 
L 697 3744 
Q 697 4328 969 4595 
Q 1241 4863 1831 4863 
L 2375 4863 
z
" transform="scale(0.015625)"/>
       <path id="DejaVuSans-70" d="M 1159 525 
L 1159 -1331 
L 581 -1331 
L 581 3500 
L 1159 3500 
L 1159 2969 
Q 1341 3281 1617 3432 
Q 1894 3584 2278 3584 
Q 2916 3584 3314 3078 
Q 3713 2572 3713 1747 
Q 3713 922 3314 415 
Q 2916 -91 2278 -91 
Q 1894 -91 1617 61 
Q 1341 213 1159 525 
z
M 3116 1747 
Q 3116 2381 2855 2742 
Q 2594 3103 2138 3103 
Q 1681 3103 1420 2742 
Q 1159 2381 1159 1747 
Q 1159 1113 1420 752 
Q 1681 391 2138 391 
Q 2594 391 2855 752 
Q 3116 1113 3116 1747 
z
" transform="scale(0.015625)"/>
       <path id="DejaVuSans-74" d="M 1172 4494 
L 1172 3500 
L 2356 3500 
L 2356 3053 
L 1172 3053 
L 1172 1153 
Q 1172 725 1289 603 
Q 1406 481 1766 481 
L 2356 481 
L 2356 0 
L 1766 0 
Q 1100 0 847 248 
Q 594 497 594 1153 
L 594 3053 
L 172 3053 
L 172 3500 
L 594 3500 
L 594 4494 
L 1172 4494 
z
" transform="scale(0.015625)"/>
       <path id="DejaVuSans-69" d="M 603 3500 
L 1178 3500 
L 1178 0 
L 603 0 
L 603 3500 
z
M 603 4863 
L 1178 4863 
L 1178 4134 
L 603 4134 
L 603 4863 
z
" transform="scale(0.015625)"/>
       <path id="DejaVuSans-6e" d="M 3513 2113 
L 3513 0 
L 2938 0 
L 2938 2094 
Q 2938 2591 2744 2837 
Q 2550 3084 2163 3084 
Q 1697 3084 1428 2787 
Q 1159 2491 1159 1978 
L 1159 0 
L 581 0 
L 581 3500 
L 1159 3500 
L 1159 2956 
Q 1366 3272 1645 3428 
Q 1925 3584 2291 3584 
Q 2894 3584 3203 3211 
Q 3513 2838 3513 2113 
z
" transform="scale(0.015625)"/>
       <path id="DejaVuSans-73" d="M 2834 3397 
L 2834 2853 
Q 2591 2978 2328 3040 
Q 2066 3103 1784 3103 
Q 1356 3103 1142 2972 
Q 928 2841 928 2578 
Q 928 2378 1081 2264 
Q 1234 2150 1697 2047 
L 1894 2003 
Q 2506 1872 2764 1633 
Q 3022 1394 3022 966 
Q 3022 478 2636 193 
Q 2250 -91 1575 -91 
Q 1294 -91 989 -36 
Q 684 19 347 128 
L 347 722 
Q 666 556 975 473 
Q 1284 391 1588 391 
Q 1994 391 2212 530 
Q 2431 669 2431 922 
Q 2431 1156 2273 1281 
Q 2116 1406 1581 1522 
L 1381 1569 
Q 847 1681 609 1914 
Q 372 2147 372 2553 
Q 372 3047 722 3315 
Q 1072 3584 1716 3584 
Q 2034 3584 2315 3537 
Q 2597 3491 2834 3397 
z
" transform="scale(0.015625)"/>
      </defs>
      <use xlink:href="#DejaVuSans-4e"/>
      <use xlink:href="#DejaVuSans-75" x="74.804688"/>
      <use xlink:href="#DejaVuSans-6d" x="138.183594"/>
      <use xlink:href="#DejaVuSans-62" x="235.595703"/>
      <use xlink:href="#DejaVuSans-65" x="299.072266"/>
      <use xlink:href="#DejaVuSans-72" x="360.595703"/>
      <use xlink:href="#DejaVuSans-20" x="401.708984"/>
      <use xlink:href="#DejaVuSans-6f" x="433.496094"/>
      <use xlink:href="#DejaVuSans-66" x="494.677734"/>
      <use xlink:href="#DejaVuSans-20" x="529.882812"/>
      <use xlink:href="#DejaVuSans-70" x="561.669922"/>
      <use xlink:href="#DejaVuSans-72" x="625.146484"/>
      <use xlink:href="#DejaVuSans-6f" x="664.009766"/>
      <use xlink:href="#DejaVuSans-74" x="725.191406"/>
      <use xlink:href="#DejaVuSans-65" x="764.400391"/>
      <use xlink:href="#DejaVuSans-69" x="825.923828"/>
      <use xlink:href="#DejaVuSans-6e" x="853.707031"/>
      <use xlink:href="#DejaVuSans-73" x="917.085938"/>
     </g>
    </g>
   </g>
   <g id="patch_3">
    <path d="M 61.49 280.330041 
L 61.49 67.949959 
" style="fill: none; stroke: #000000; stroke-width: 0.8; stroke-linejoin: miter; stroke-linecap: square"/>
   </g>
   <g id="patch_4">
    <path d="M 61.49 280.330041 
L 448.669243 280.330041 
" style="fill: none; stroke: #000000; stroke-width: 0.8; stroke-linejoin: miter; stroke-linecap: square"/>
   </g>
   <g id="legend_1">
    <g id="patch_5">
     <path d="M 128.089778 62.949959 
L 382.069465 62.949959 
Q 384.069465 62.949959 384.069465 60.949959 
L 384.069465 32.593709 
Q 384.069465 30.593709 382.069465 30.593709 
L 128.089778 30.593709 
Q 126.089778 30.593709 126.089778 32.593709 
L 126.089778 60.949959 
Q 126.089778 62.949959 128.089778 62.949959 
z
" style="fill: #ffffff; opacity: 0.8; stroke: #cccccc; stroke-linejoin: miter"/>
    </g>
    <g id="patch_6">
     <path d="M 130.089778 42.192146 
L 150.089778 42.192146 
L 150.089778 35.192146 
L 130.089778 35.192146 
z
" style="fill: #fb363b"/>
    </g>
    <g id="text_15">
     <!-- Published -->
     <g transform="translate(158.089778 42.192146) scale(0.1 -0.1)">
      <defs>
       <path id="DejaVuSans-50" d="M 1259 4147 
L 1259 2394 
L 2053 2394 
Q 2494 2394 2734 2622 
Q 2975 2850 2975 3272 
Q 2975 3691 2734 3919 
Q 2494 4147 2053 4147 
L 1259 4147 
z
M 628 4666 
L 2053 4666 
Q 2838 4666 3239 4311 
Q 3641 3956 3641 3272 
Q 3641 2581 3239 2228 
Q 2838 1875 2053 1875 
L 1259 1875 
L 1259 0 
L 628 0 
L 628 4666 
z
" transform="scale(0.015625)"/>
       <path id="DejaVuSans-6c" d="M 603 4863 
L 1178 4863 
L 1178 0 
L 603 0 
L 603 4863 
z
" transform="scale(0.015625)"/>
       <path id="DejaVuSans-68" d="M 3513 2113 
L 3513 0 
L 2938 0 
L 2938 2094 
Q 2938 2591 2744 2837 
Q 2550 3084 2163 3084 
Q 1697 3084 1428 2787 
Q 1159 2491 1159 1978 
L 1159 0 
L 581 0 
L 581 4863 
L 1159 4863 
L 1159 2956 
Q 1366 3272 1645 3428 
Q 1925 3584 2291 3584 
Q 2894 3584 3203 3211 
Q 3513 2838 3513 2113 
z
" transform="scale(0.015625)"/>
       <path id="DejaVuSans-64" d="M 2906 2969 
L 2906 4863 
L 3481 4863 
L 3481 0 
L 2906 0 
L 2906 525 
Q 2725 213 2448 61 
Q 2172 -91 1784 -91 
Q 1150 -91 751 415 
Q 353 922 353 1747 
Q 353 2572 751 3078 
Q 1150 3584 1784 3584 
Q 2172 3584 2448 3432 
Q 2725 3281 2906 2969 
z
M 947 1747 
Q 947 1113 1208 752 
Q 1469 391 1925 391 
Q 2381 391 2643 752 
Q 2906 1113 2906 1747 
Q 2906 2381 2643 2742 
Q 2381 3103 1925 3103 
Q 1469 3103 1208 2742 
Q 947 2381 947 1747 
z
" transform="scale(0.015625)"/>
      </defs>
      <use xlink:href="#DejaVuSans-50"/>
      <use xlink:href="#DejaVuSans-75" x="58.552734"/>
      <use xlink:href="#DejaVuSans-62" x="121.931641"/>
      <use xlink:href="#DejaVuSans-6c" x="185.408203"/>
      <use xlink:href="#DejaVuSans-69" x="213.191406"/>
      <use xlink:href="#DejaVuSans-73" x="240.974609"/>
      <use xlink:href="#DejaVuSans-68" x="293.074219"/>
      <use xlink:href="#DejaVuSans-65" x="356.453125"/>
      <use xlink:href="#DejaVuSans-64" x="417.976562"/>
     </g>
    </g>
    <g id="patch_7">
     <path d="M 130.089778 56.870271 
L 150.089778 56.870271 
L 150.089778 49.870271 
L 130.089778 49.870271 
z
" style="fill: #fdc92c"/>
    </g>
    <g id="text_16">
     <!-- Inferred role -->
     <g transform="translate(158.089778 56.870271) scale(0.1 -0.1)">
      <defs>
       <path id="DejaVuSans-49" d="M 628 4666 
L 1259 4666 
L 1259 0 
L 628 0 
L 628 4666 
z
" transform="scale(0.015625)"/>
      </defs>
      <use xlink:href="#DejaVuSans-49"/>
      <use xlink:href="#DejaVuSans-6e" x="29.492188"/>
      <use xlink:href="#DejaVuSans-66" x="92.871094"/>
      <use xlink:href="#DejaVuSans-65" x="128.076172"/>
      <use xlink:href="#DejaVuSans-72" x="189.599609"/>
      <use xlink:href="#DejaVuSans-72" x="228.962891"/>
      <use xlink:href="#DejaVuSans-65" x="267.826172"/>
      <use xlink:href="#DejaVuSans-64" x="329.349609"/>
      <use xlink:href="#DejaVuSans-20" x="392.826172"/>
      <use xlink:href="#DejaVuSans-72" x="424.613281"/>
      <use xlink:href="#DejaVuSans-6f" x="463.476562"/>
      <use xlink:href="#DejaVuSans-6c" x="524.658203"/>
      <use xlink:href="#DejaVuSans-65" x="552.441406"/>
     </g>
    </g>
    <g id="patch_8">
     <path d="M 239.488215 42.192146 
L 259.488215 42.192146 
L 259.488215 35.192146 
L 239.488215 35.192146 
z
" style="fill: #aeaeae"/>
    </g>
    <g id="text_17">
     <!-- Conserved unknown -->
     <g transform="translate(267.488215 42.192146) scale(0.1 -0.1)">
      <defs>
       <path id="DejaVuSans-43" d="M 4122 4306 
L 4122 3641 
Q 3803 3938 3442 4084 
Q 3081 4231 2675 4231 
Q 1875 4231 1450 3742 
Q 1025 3253 1025 2328 
Q 1025 1406 1450 917 
Q 1875 428 2675 428 
Q 3081 428 3442 575 
Q 3803 722 4122 1019 
L 4122 359 
Q 3791 134 3420 21 
Q 3050 -91 2638 -91 
Q 1578 -91 968 557 
Q 359 1206 359 2328 
Q 359 3453 968 4101 
Q 1578 4750 2638 4750 
Q 3056 4750 3426 4639 
Q 3797 4528 4122 4306 
z
" transform="scale(0.015625)"/>
       <path id="DejaVuSans-76" d="M 191 3500 
L 800 3500 
L 1894 563 
L 2988 3500 
L 3597 3500 
L 2284 0 
L 1503 0 
L 191 3500 
z
" transform="scale(0.015625)"/>
       <path id="DejaVuSans-6b" d="M 581 4863 
L 1159 4863 
L 1159 1991 
L 2875 3500 
L 3609 3500 
L 1753 1863 
L 3688 0 
L 2938 0 
L 1159 1709 
L 1159 0 
L 581 0 
L 581 4863 
z
" transform="scale(0.015625)"/>
       <path id="DejaVuSans-77" d="M 269 3500 
L 844 3500 
L 1563 769 
L 2278 3500 
L 2956 3500 
L 3675 769 
L 4391 3500 
L 4966 3500 
L 4050 0 
L 3372 0 
L 2619 2869 
L 1863 0 
L 1184 0 
L 269 3500 
z
" transform="scale(0.015625)"/>
      </defs>
      <use xlink:href="#DejaVuSans-43"/>
      <use xlink:href="#DejaVuSans-6f" x="69.824219"/>
      <use xlink:href="#DejaVuSans-6e" x="131.005859"/>
      <use xlink:href="#DejaVuSans-73" x="194.384766"/>
      <use xlink:href="#DejaVuSans-65" x="246.484375"/>
      <use xlink:href="#DejaVuSans-72" x="308.007812"/>
      <use xlink:href="#DejaVuSans-76" x="349.121094"/>
      <use xlink:href="#DejaVuSans-65" x="408.300781"/>
      <use xlink:href="#DejaVuSans-64" x="469.824219"/>
      <use xlink:href="#DejaVuSans-20" x="533.300781"/>
      <use xlink:href="#DejaVuSans-75" x="565.087891"/>
      <use xlink:href="#DejaVuSans-6e" x="628.466797"/>
      <use xlink:href="#DejaVuSans-6b" x="691.845703"/>
      <use xlink:href="#DejaVuSans-6e" x="749.755859"/>
      <use xlink:href="#DejaVuSans-6f" x="813.134766"/>
      <use xlink:href="#DejaVuSans-77" x="874.316406"/>
      <use xlink:href="#DejaVuSans-6e" x="956.103516"/>
     </g>
    </g>
    <g id="patch_9">
     <path d="M 239.488215 56.870271 
L 259.488215 56.870271 
L 259.488215 49.870271 
L 239.488215 49.870271 
z
" style="fill: #d5dce5"/>
    </g>
    <g id="text_18">
     <!-- Fission yeast unknown -->
     <g transform="translate(267.488215 56.870271) scale(0.1 -0.1)">
      <defs>
       <path id="DejaVuSans-46" d="M 628 4666 
L 3309 4666 
L 3309 4134 
L 1259 4134 
L 1259 2759 
L 3109 2759 
L 3109 2228 
L 1259 2228 
L 1259 0 
L 628 0 
L 628 4666 
z
" transform="scale(0.015625)"/>
       <path id="DejaVuSans-79" d="M 2059 -325 
Q 1816 -950 1584 -1140 
Q 1353 -1331 966 -1331 
L 506 -1331 
L 506 -850 
L 844 -850 
Q 1081 -850 1212 -737 
Q 1344 -625 1503 -206 
L 1606 56 
L 191 3500 
L 800 3500 
L 1894 763 
L 2988 3500 
L 3597 3500 
L 2059 -325 
z
" transform="scale(0.015625)"/>
      </defs>
      <use xlink:href="#DejaVuSans-46"/>
      <use xlink:href="#DejaVuSans-69" x="50.269531"/>
      <use xlink:href="#DejaVuSans-73" x="78.052734"/>
      <use xlink:href="#DejaVuSans-73" x="130.152344"/>
      <use xlink:href="#DejaVuSans-69" x="182.251953"/>
      <use xlink:href="#DejaVuSans-6f" x="210.035156"/>
      <use xlink:href="#DejaVuSans-6e" x="271.216797"/>
      <use xlink:href="#DejaVuSans-20" x="334.595703"/>
      <use xlink:href="#DejaVuSans-79" x="366.382812"/>
      <use xlink:href="#DejaVuSans-65" x="425.5625"/>
      <use xlink:href="#DejaVuSans-61" x="487.085938"/>
      <use xlink:href="#DejaVuSans-73" x="548.365234"/>
      <use xlink:href="#DejaVuSans-74" x="600.464844"/>
      <use xlink:href="#DejaVuSans-20" x="639.673828"/>
      <use xlink:href="#DejaVuSans-75" x="671.460938"/>
      <use xlink:href="#DejaVuSans-6e" x="734.839844"/>
      <use xlink:href="#DejaVuSans-6b" x="798.21875"/>
      <use xlink:href="#DejaVuSans-6e" x="856.128906"/>
      <use xlink:href="#DejaVuSans-6f" x="919.507812"/>
      <use xlink:href="#DejaVuSans-77" x="980.689453"/>
      <use xlink:href="#DejaVuSans-6e" x="1062.476562"/>
     </g>
    </g>
   </g>
  </g>
 </g>
 <defs>
  <clipPath id="pb21f73ada4">
   <rect x="61.49" y="67.949959" width="387.179243" height="212.380082"/>
  </clipPath>
 </defs>
</svg>
