<?xml version="1.0" encoding="utf-8" standalone="no"?>
<!DOCTYPE svg PUBLIC "-//W3C//DTD SVG 1.1//EN"
  "http://www.w3.org/Graphics/SVG/1.1/DTD/svg11.dtd">
<svg xmlns:xlink="http://www.w3.org/1999/xlink" width="460.8pt" height="345.6pt" viewBox="0 0 460.8 345.6" xmlns="http://www.w3.org/2000/svg" version="1.1">
 <metadata>
  <rdf:RDF xmlns:dc="http://purl.org/dc/elements/1.1/" xmlns:cc="http://creativecommons.org/ns#" xmlns:rdf="http://www.w3.org/1999/02/22-rdf-syntax-ns#">
   <cc:Work>
    <dc:type rdf:resource="http://purl.org/dc/dcmitype/StillImage"/>
    <dc:date>2023-10-02T00:46:03.135605</dc:date>
    <dc:format>image/svg+xml</dc:format>
    <dc:creator>
     <cc:Agent>
      <dc:title>Matplotlib v3.7.1, https://matplotlib.org/</dc:title>
     </cc:Agent>
    </dc:creator>
   </cc:Work>
  </rdf:RDF>
 </metadata>
 <defs>
  <style type="text/css">*{stroke-linejoin: round; stroke-linecap: butt}</style>
 </defs>
 <g id="figure_1">
  <g id="patch_1">
   <path d="M 0 345.6 
L 460.8 345.6 
L 460.8 0 
L 0 0 
z
" style="fill: #ffffff"/>
  </g>
  <g id="axes_1">
   <g id="patch_2">
    <path d="M 61.49 299.32 
L 450 299.32 
L 450 48.96 
L 61.49 48.96 
z
" style="fill: #ffffff"/>
   </g>
   <g id="PolyCollection_1">
    <path d="M 29.846415 235.783537 
L 29.846415 299.32 
L 38.685697 299.32 
L 47.420373 299.32 
L 65.360455 299.32 
L 86.177227 299.32 
L 101.502137 299.32 
L 111.021364 299.32 
L 113.479626 299.32 
L 118.030026 299.32 
L 120.122163 299.32 
L 120.383681 299.32 
L 123.835708 299.32 
L 124.724867 299.32 
L 125.457115 299.32 
L 126.346274 299.32 
L 126.921611 299.32 
L 127.81077 299.32 
L 128.333805 299.32 
L 129.275267 299.32 
L 130.530549 299.32 
L 131.524315 299.32 
L 131.890439 299.32 
L 132.936508 299.32 
L 133.668756 299.32 
L 134.453308 299.32 
L 135.290163 299.32 
L 135.865501 299.32 
L 136.388535 299.32 
L 137.853032 299.32 
L 138.899101 299.32 
L 139.683652 299.32 
L 139.892866 299.32 
L 140.625114 299.32 
L 141.723487 299.32 
L 142.874163 299.32 
L 143.658714 299.32 
L 144.80939 299.32 
L 146.32619 299.32 
L 148.418328 299.32 
L 150.248949 299.32 
L 151.818052 299.32 
L 154.747045 299.32 
L 156.002328 299.32 
L 159.402052 299.32 
L 161.598796 299.32 
L 162.958686 299.32 
L 163.795541 299.32 
L 167.090658 299.32 
L 168.921279 299.32 
L 170.804203 299.32 
L 174.517748 299.32 
L 177.969775 299.32 
L 178.545113 299.32 
L 179.225058 299.32 
L 180.271127 299.32 
L 181.107982 299.32 
L 183.670851 299.32 
L 188.796589 299.32 
L 189.790354 299.32 
L 194.602271 299.32 
L 195.700644 299.32 
L 196.799016 299.32 
L 198.577333 299.32 
L 200.04183 299.32 
L 201.454023 299.32 
L 202.343181 299.32 
L 205.219871 299.32 
L 208.201167 299.32 
L 209.665664 299.32 
L 210.711733 299.32 
L 212.019319 299.32 
L 213.117691 299.32 
L 214.425277 299.32 
L 217.511181 299.32 
L 219.132588 299.32 
L 220.701691 299.32 
L 222.323098 299.32 
L 223.892201 299.32 
L 225.513608 299.32 
L 227.135015 299.32 
L 228.651815 299.32 
L 230.273222 299.32 
L 231.842325 299.32 
L 233.463732 299.32 
L 235.032835 299.32 
L 236.654242 299.32 
L 238.275649 299.32 
L 239.844752 299.32 
L 241.466159 299.32 
L 243.035263 299.32 
L 244.656669 299.32 
L 246.278076 299.32 
L 247.742573 299.32 
L 249.36398 299.32 
L 250.933083 299.32 
L 252.55449 299.32 
L 254.123593 299.32 
L 255.745 299.32 
L 257.366407 299.32 
L 258.93551 299.32 
L 260.556917 299.32 
L 262.12602 299.32 
L 263.747427 299.32 
L 265.368834 299.32 
L 266.833331 299.32 
L 268.454737 299.32 
L 270.023841 299.32 
L 271.645248 299.32 
L 273.214351 299.32 
L 274.835758 299.32 
L 276.457165 299.32 
L 278.026268 299.32 
L 279.647675 299.32 
L 281.216778 299.32 
L 282.838185 299.32 
L 284.459592 299.32 
L 285.924089 299.32 
L 287.545495 299.32 
L 289.114599 299.32 
L 290.736006 299.32 
L 292.305109 299.32 
L 293.926516 299.32 
L 295.547923 299.32 
L 297.117026 299.32 
L 298.738433 299.32 
L 300.307536 299.32 
L 301.928943 299.32 
L 303.55035 299.32 
L 305.06715 299.32 
L 306.688557 299.32 
L 308.25766 299.32 
L 309.879067 299.32 
L 311.44817 299.32 
L 313.069577 299.32 
L 314.690984 299.32 
L 316.260088 299.32 
L 317.881494 299.32 
L 319.450598 299.32 
L 321.072005 299.32 
L 322.693411 299.32 
L 324.157908 299.32 
L 325.779315 299.32 
L 327.348418 299.32 
L 328.969825 299.32 
L 330.538928 299.32 
L 332.160335 299.32 
L 333.781742 299.32 
L 335.350845 299.32 
L 336.972252 299.32 
L 338.541356 299.32 
L 340.162763 299.32 
L 341.784169 299.32 
L 343.248666 299.32 
L 344.870073 299.32 
L 346.439176 299.32 
L 348.060583 299.32 
L 349.629686 299.32 
L 351.251093 299.32 
L 352.8725 299.32 
L 354.441603 299.32 
L 356.06301 299.32 
L 357.632114 299.32 
L 359.25352 299.32 
L 360.874927 299.32 
L 362.339424 299.32 
L 363.960831 299.32 
L 365.529934 299.32 
L 367.151341 299.32 
L 368.720444 299.32 
L 370.341851 299.32 
L 371.963258 299.32 
L 373.532361 299.32 
L 375.153768 299.32 
L 376.722872 299.32 
L 378.344278 299.32 
L 379.965685 299.32 
L 381.482485 299.32 
L 383.103892 299.32 
L 384.672995 299.32 
L 386.294402 299.32 
L 387.863506 299.32 
L 389.484912 299.32 
L 391.106319 299.32 
L 392.675423 299.32 
L 394.29683 299.32 
L 395.865933 299.32 
L 397.48734 299.32 
L 399.108747 299.32 
L 400.573243 299.32 
L 402.19465 299.32 
L 403.763753 299.32 
L 405.38516 299.32 
L 406.954264 299.32 
L 408.57567 299.32 
L 410.197077 299.32 
L 411.766181 299.32 
L 413.387588 299.32 
L 414.956691 299.32 
L 416.578098 299.32 
L 418.199505 299.32 
L 419.664001 299.32 
L 421.285408 299.32 
L 422.854511 299.32 
L 424.475918 299.32 
L 426.045022 299.32 
L 427.666428 299.32 
L 429.287835 299.32 
L 430.856939 299.32 
L 432.478345 299.32 
L 434.047449 299.32 
L 435.668856 299.32 
L 437.290263 299.32 
L 438.754759 299.32 
L 440.376166 299.32 
L 441.945269 299.32 
L 443.566676 299.32 
L 445.135779 299.32 
L 446.757186 299.32 
L 448.378593 299.32 
L 449.947697 299.32 
L 449.947697 180.571244 
L 449.947697 180.571244 
L 448.378593 180.618274 
L 446.757186 180.759361 
L 445.135779 181.323712 
L 443.566676 181.605887 
L 441.945269 181.746975 
L 440.376166 181.746975 
L 438.754759 182.170238 
L 437.290263 182.875676 
L 435.668856 182.828647 
L 434.047449 182.969734 
L 432.478345 183.110822 
L 430.856939 183.392997 
L 429.287835 183.392997 
L 427.666428 183.440026 
L 426.045022 183.440026 
L 424.475918 183.392997 
L 422.854511 183.487056 
L 421.285408 183.392997 
L 419.664001 183.345968 
L 418.199505 183.392997 
L 416.578098 183.392997 
L 414.956691 183.628143 
L 413.387588 183.863289 
L 411.766181 184.239523 
L 410.197077 184.521698 
L 408.57567 184.474669 
L 406.954264 184.709815 
L 405.38516 185.039019 
L 403.763753 185.039019 
L 402.19465 185.227136 
L 400.573243 185.838516 
L 399.108747 185.979604 
L 397.48734 186.496925 
L 395.865933 186.543954 
L 394.29683 186.732071 
L 392.675423 186.826129 
L 391.106319 187.014246 
L 389.484912 187.061275 
L 387.863506 187.155334 
L 386.294402 187.155334 
L 384.672995 187.249392 
L 383.103892 187.672655 
L 381.482485 187.813743 
L 379.965685 187.907801 
L 378.344278 188.00186 
L 376.722872 188.00186 
L 375.153768 188.00186 
L 373.532361 188.142947 
L 371.963258 188.237006 
L 370.341851 188.425123 
L 368.720444 188.707298 
L 367.151341 188.848385 
L 365.529934 188.942444 
L 363.960831 189.036502 
L 362.339424 189.083532 
L 360.874927 189.083532 
L 359.25352 189.130561 
L 357.632114 189.17759 
L 356.06301 189.271648 
L 354.441603 189.318678 
L 352.8725 189.318678 
L 351.251093 189.459765 
L 349.629686 189.600853 
L 348.060583 189.883028 
L 346.439176 190.071145 
L 344.870073 190.447379 
L 343.248666 190.635495 
L 341.784169 190.823612 
L 340.162763 190.870641 
L 338.541356 191.058758 
L 336.972252 191.246875 
L 335.350845 193.31616 
L 333.781742 193.645365 
L 332.160335 194.53892 
L 330.538928 193.786453 
L 328.969825 193.692394 
L 327.348418 193.739423 
L 325.779315 193.833482 
L 324.157908 194.162686 
L 322.693411 194.209715 
L 321.072005 194.303774 
L 319.450598 195.197329 
L 317.881494 195.338416 
L 316.260088 195.573563 
L 314.690984 195.667621 
L 313.069577 195.808709 
L 311.44817 196.32603 
L 309.879067 196.561176 
L 308.25766 196.561176 
L 306.688557 197.031468 
L 305.06715 197.125526 
L 303.55035 197.172556 
L 301.928943 197.407702 
L 300.307536 197.50176 
L 298.738433 197.50176 
L 297.117026 197.736906 
L 295.547923 197.783935 
L 293.926516 197.830965 
L 292.305109 198.019081 
L 290.736006 198.160169 
L 289.114599 197.454731 
L 287.545495 197.548789 
L 285.924089 197.783935 
L 284.459592 197.783935 
L 282.838185 198.066111 
L 281.216778 198.254227 
L 279.647675 198.583432 
L 278.026268 199.006695 
L 276.457165 199.382929 
L 274.835758 199.476987 
L 273.214351 199.806191 
L 271.645248 200.088367 
L 270.023841 200.51163 
L 268.454737 200.699746 
L 266.833331 200.934892 
L 265.368834 200.981922 
L 263.747427 200.981922 
L 262.12602 201.217068 
L 260.556917 201.781418 
L 258.93551 201.828447 
L 257.366407 202.110623 
L 255.745 202.910119 
L 254.123593 203.004178 
L 252.55449 203.568528 
L 250.933083 203.944762 
L 249.36398 205.214551 
L 247.742573 205.308609 
L 246.278076 205.449697 
L 244.656669 205.778901 
L 243.035263 205.87296 
L 241.466159 206.155135 
L 239.844752 206.390281 
L 238.275649 206.813544 
L 236.654242 207.04869 
L 235.032835 207.189777 
L 233.463732 207.471953 
L 231.842325 207.518982 
L 230.273222 207.66007 
L 228.651815 207.848186 
L 227.135015 207.848186 
L 225.513608 207.942245 
L 223.892201 207.989274 
L 222.323098 208.036303 
L 220.701691 208.083332 
L 219.132588 208.130362 
L 217.511181 208.271449 
L 214.425277 209.165004 
L 213.117691 209.40015 
L 212.019319 209.447179 
L 210.711733 209.306092 
L 209.665664 209.306092 
L 208.201167 209.447179 
L 205.219871 209.588267 
L 202.343181 210.340734 
L 201.454023 211.469436 
L 200.04183 211.281319 
L 198.577333 211.234289 
L 196.799016 212.080815 
L 195.700644 212.080815 
L 194.602271 211.79864 
L 189.790354 212.41002 
L 188.796589 212.504078 
L 183.670851 213.303575 
L 181.107982 213.397633 
L 180.271127 213.209516 
L 179.225058 213.350604 
L 178.545113 213.58575 
L 177.969775 213.632779 
L 174.517748 213.773867 
L 170.804203 213.867925 
L 168.921279 214.103071 
L 167.090658 216.595619 
L 163.795541 216.501561 
L 162.958686 216.54859 
L 161.598796 217.065912 
L 159.402052 218.382729 
L 156.002328 218.664905 
L 154.747045 219.135197 
L 151.818052 219.464401 
L 150.248949 220.452015 
L 148.418328 221.110424 
L 146.32619 221.627745 
L 144.80939 221.674774 
L 143.658714 221.768833 
L 142.874163 221.815862 
L 141.723487 221.862891 
L 140.625114 222.709417 
L 139.892866 223.13268 
L 139.683652 223.13268 
L 138.899101 223.13268 
L 137.853032 223.414855 
L 136.388535 223.13268 
L 135.865501 223.367826 
L 135.290163 223.461884 
L 134.453308 223.602972 
L 133.668756 223.602972 
L 132.936508 223.979205 
L 131.890439 224.825731 
L 131.524315 224.778702 
L 130.530549 225.201965 
L 129.275267 225.296023 
L 128.333805 225.390082 
L 127.81077 225.48414 
L 126.921611 225.625228 
L 126.346274 225.907403 
L 125.457115 226.142549 
L 124.724867 226.048491 
L 123.835708 226.142549 
L 120.383681 226.471754 
L 120.122163 226.424724 
L 118.030026 226.800958 
L 113.479626 224.543556 
L 111.021364 227.88263 
L 101.502137 232.256346 
L 86.177227 236.347888 
L 65.360455 241.615159 
L 47.420373 235.548391 
L 38.685697 234.795924 
L 29.846415 235.783537 
z
" clip-path="url(#p90a5e090a4)" style="fill: #fb363b"/>
   </g>
   <g id="PolyCollection_2">
    <path d="M 29.846415 139.091481 
L 29.846415 235.783537 
L 38.685697 234.795924 
L 47.420373 235.548391 
L 65.360455 241.615159 
L 86.177227 236.347888 
L 101.502137 232.256346 
L 111.021364 227.88263 
L 113.479626 224.543556 
L 118.030026 226.800958 
L 120.122163 226.424724 
L 120.383681 226.471754 
L 123.835708 226.142549 
L 124.724867 226.048491 
L 125.457115 226.142549 
L 126.346274 225.907403 
L 126.921611 225.625228 
L 127.81077 225.48414 
L 128.333805 225.390082 
L 129.275267 225.296023 
L 130.530549 225.201965 
L 131.524315 224.778702 
L 131.890439 224.825731 
L 132.936508 223.979205 
L 133.668756 223.602972 
L 134.453308 223.602972 
L 135.290163 223.461884 
L 135.865501 223.367826 
L 136.388535 223.13268 
L 137.853032 223.414855 
L 138.899101 223.13268 
L 139.683652 223.13268 
L 139.892866 223.13268 
L 140.625114 222.709417 
L 141.723487 221.862891 
L 142.874163 221.815862 
L 143.658714 221.768833 
L 144.80939 221.674774 
L 146.32619 221.627745 
L 148.418328 221.110424 
L 150.248949 220.452015 
L 151.818052 219.464401 
L 154.747045 219.135197 
L 156.002328 218.664905 
L 159.402052 218.382729 
L 161.598796 217.065912 
L 162.958686 216.54859 
L 163.795541 216.501561 
L 167.090658 216.595619 
L 168.921279 214.103071 
L 170.804203 213.867925 
L 174.517748 213.773867 
L 177.969775 213.632779 
L 178.545113 213.58575 
L 179.225058 213.350604 
L 180.271127 213.209516 
L 181.107982 213.397633 
L 183.670851 213.303575 
L 188.796589 212.504078 
L 189.790354 212.41002 
L 194.602271 211.79864 
L 195.700644 212.080815 
L 196.799016 212.080815 
L 198.577333 211.234289 
L 200.04183 211.281319 
L 201.454023 211.469436 
L 202.343181 210.340734 
L 205.219871 209.588267 
L 208.201167 209.447179 
L 209.665664 209.306092 
L 210.711733 209.306092 
L 212.019319 209.447179 
L 213.117691 209.40015 
L 214.425277 209.165004 
L 217.511181 208.271449 
L 219.132588 208.130362 
L 220.701691 208.083332 
L 222.323098 208.036303 
L 223.892201 207.989274 
L 225.513608 207.942245 
L 227.135015 207.848186 
L 228.651815 207.848186 
L 230.273222 207.66007 
L 231.842325 207.518982 
L 233.463732 207.471953 
L 235.032835 207.189777 
L 236.654242 207.04869 
L 238.275649 206.813544 
L 239.844752 206.390281 
L 241.466159 206.155135 
L 243.035263 205.87296 
L 244.656669 205.778901 
L 246.278076 205.449697 
L 247.742573 205.308609 
L 249.36398 205.214551 
L 250.933083 203.944762 
L 252.55449 203.568528 
L 254.123593 203.004178 
L 255.745 202.910119 
L 257.366407 202.110623 
L 258.93551 201.828447 
L 260.556917 201.781418 
L 262.12602 201.217068 
L 263.747427 200.981922 
L 265.368834 200.981922 
L 266.833331 200.934892 
L 268.454737 200.699746 
L 270.023841 200.51163 
L 271.645248 200.088367 
L 273.214351 199.806191 
L 274.835758 199.476987 
L 276.457165 199.382929 
L 278.026268 199.006695 
L 279.647675 198.583432 
L 281.216778 198.254227 
L 282.838185 198.066111 
L 284.459592 197.783935 
L 285.924089 197.783935 
L 287.545495 197.548789 
L 289.114599 197.454731 
L 290.736006 198.160169 
L 292.305109 198.019081 
L 293.926516 197.830965 
L 295.547923 197.783935 
L 297.117026 197.736906 
L 298.738433 197.50176 
L 300.307536 197.50176 
L 301.928943 197.407702 
L 303.55035 197.172556 
L 305.06715 197.125526 
L 306.688557 197.031468 
L 308.25766 196.561176 
L 309.879067 196.561176 
L 311.44817 196.32603 
L 313.069577 195.808709 
L 314.690984 195.667621 
L 316.260088 195.573563 
L 317.881494 195.338416 
L 319.450598 195.197329 
L 321.072005 194.303774 
L 322.693411 194.209715 
L 324.157908 194.162686 
L 325.779315 193.833482 
L 327.348418 193.739423 
L 328.969825 193.692394 
L 330.538928 193.786453 
L 332.160335 194.53892 
L 333.781742 193.645365 
L 335.350845 193.31616 
L 336.972252 191.246875 
L 338.541356 191.058758 
L 340.162763 190.870641 
L 341.784169 190.823612 
L 343.248666 190.635495 
L 344.870073 190.447379 
L 346.439176 190.071145 
L 348.060583 189.883028 
L 349.629686 189.600853 
L 351.251093 189.459765 
L 352.8725 189.318678 
L 354.441603 189.318678 
L 356.06301 189.271648 
L 357.632114 189.17759 
L 359.25352 189.130561 
L 360.874927 189.083532 
L 362.339424 189.083532 
L 363.960831 189.036502 
L 365.529934 188.942444 
L 367.151341 188.848385 
L 368.720444 188.707298 
L 370.341851 188.425123 
L 371.963258 188.237006 
L 373.532361 188.142947 
L 375.153768 188.00186 
L 376.722872 188.00186 
L 378.344278 188.00186 
L 379.965685 187.907801 
L 381.482485 187.813743 
L 383.103892 187.672655 
L 384.672995 187.249392 
L 386.294402 187.155334 
L 387.863506 187.155334 
L 389.484912 187.061275 
L 391.106319 187.014246 
L 392.675423 186.826129 
L 394.29683 186.732071 
L 395.865933 186.543954 
L 397.48734 186.496925 
L 399.108747 185.979604 
L 400.573243 185.838516 
L 402.19465 185.227136 
L 403.763753 185.039019 
L 405.38516 185.039019 
L 406.954264 184.709815 
L 408.57567 184.474669 
L 410.197077 184.521698 
L 411.766181 184.239523 
L 413.387588 183.863289 
L 414.956691 183.628143 
L 416.578098 183.392997 
L 418.199505 183.392997 
L 419.664001 183.345968 
L 421.285408 183.392997 
L 422.854511 183.487056 
L 424.475918 183.392997 
L 426.045022 183.440026 
L 427.666428 183.440026 
L 429.287835 183.392997 
L 430.856939 183.392997 
L 432.478345 183.110822 
L 434.047449 182.969734 
L 435.668856 182.828647 
L 437.290263 182.875676 
L 438.754759 182.170238 
L 440.376166 181.746975 
L 441.945269 181.746975 
L 443.566676 181.605887 
L 445.135779 181.323712 
L 446.757186 180.759361 
L 448.378593 180.618274 
L 449.947697 180.571244 
L 449.947697 90.792482 
L 449.947697 90.792482 
L 448.378593 90.886541 
L 446.757186 90.886541 
L 445.135779 91.215745 
L 443.566676 91.497921 
L 441.945269 91.639008 
L 440.376166 91.639008 
L 438.754759 91.686037 
L 437.290263 91.874154 
L 435.668856 92.015242 
L 434.047449 92.1093 
L 432.478345 92.1093 
L 430.856939 92.156329 
L 429.287835 92.015242 
L 427.666428 92.062271 
L 426.045022 92.062271 
L 424.475918 92.297417 
L 422.854511 92.250388 
L 421.285408 92.250388 
L 419.664001 92.297417 
L 418.199505 92.391476 
L 416.578098 92.391476 
L 414.956691 92.532563 
L 413.387588 92.485534 
L 411.766181 92.626622 
L 410.197077 92.673651 
L 408.57567 92.72068 
L 406.954264 92.767709 
L 405.38516 92.814738 
L 403.763753 92.767709 
L 402.19465 92.908797 
L 400.573243 93.143943 
L 399.108747 93.33206 
L 397.48734 93.379089 
L 395.865933 93.379089 
L 394.29683 93.473147 
L 392.675423 93.520177 
L 391.106319 93.614235 
L 389.484912 93.614235 
L 387.863506 93.661264 
L 386.294402 93.708293 
L 384.672995 93.567206 
L 383.103892 93.520177 
L 381.482485 93.567206 
L 379.965685 93.473147 
L 378.344278 93.473147 
L 376.722872 93.473147 
L 375.153768 93.473147 
L 373.532361 93.473147 
L 371.963258 93.520177 
L 370.341851 93.473147 
L 368.720444 93.520177 
L 367.151341 93.520177 
L 365.529934 93.379089 
L 363.960831 93.379089 
L 362.339424 93.426118 
L 360.874927 93.426118 
L 359.25352 93.520177 
L 357.632114 93.520177 
L 356.06301 93.614235 
L 354.441603 93.614235 
L 352.8725 93.614235 
L 351.251093 93.661264 
L 349.629686 93.661264 
L 348.060583 93.661264 
L 346.439176 93.708293 
L 344.870073 93.755323 
L 343.248666 94.131556 
L 341.784169 94.272644 
L 340.162763 94.178586 
L 338.541356 94.272644 
L 336.972252 94.413732 
L 335.350845 94.460761 
L 333.781742 95.11917 
L 332.160335 95.495403 
L 330.538928 98.08201 
L 328.969825 99.539915 
L 327.348418 100.057237 
L 325.779315 100.057237 
L 324.157908 100.43347 
L 322.693411 100.339412 
L 321.072005 99.398828 
L 319.450598 99.633974 
L 317.881494 100.151295 
L 316.260088 100.151295 
L 314.690984 100.010208 
L 313.069577 100.198324 
L 311.44817 100.245354 
L 309.879067 100.245354 
L 308.25766 100.292383 
L 306.688557 100.386441 
L 305.06715 100.386441 
L 303.55035 100.43347 
L 301.928943 100.43347 
L 300.307536 100.574558 
L 298.738433 100.621587 
L 297.117026 100.668617 
L 295.547923 100.668617 
L 293.926516 100.621587 
L 292.305109 100.668617 
L 290.736006 100.621587 
L 289.114599 101.374055 
L 287.545495 101.327025 
L 285.924089 101.421084 
L 284.459592 101.515142 
L 282.838185 101.65623 
L 281.216778 101.609201 
L 279.647675 101.938405 
L 278.026268 102.079493 
L 276.457165 102.26761 
L 274.835758 102.502756 
L 273.214351 102.549785 
L 271.645248 102.455726 
L 270.023841 102.549785 
L 268.454737 102.596814 
L 266.833331 102.596814 
L 265.368834 102.596814 
L 263.747427 102.596814 
L 262.12602 102.784931 
L 260.556917 102.878989 
L 258.93551 103.161165 
L 257.366407 103.208194 
L 255.745 103.490369 
L 254.123593 103.584428 
L 252.55449 103.866603 
L 250.933083 104.00769 
L 249.36398 104.195807 
L 247.742573 104.242836 
L 246.278076 104.289866 
L 244.656669 104.477983 
L 243.035263 104.477983 
L 241.466159 104.713129 
L 239.844752 105.042333 
L 238.275649 105.23045 
L 236.654242 105.418567 
L 235.032835 105.653713 
L 233.463732 105.747771 
L 231.842325 106.124005 
L 230.273222 106.124005 
L 228.651815 106.171034 
L 227.135015 106.171034 
L 225.513608 106.171034 
L 223.892201 106.171034 
L 222.323098 106.171034 
L 220.701691 106.218063 
L 219.132588 106.40618 
L 217.511181 106.500239 
L 214.425277 107.064589 
L 213.117691 107.770027 
L 212.019319 108.099232 
L 210.711733 107.440823 
L 209.665664 107.817056 
L 208.201167 107.958144 
L 205.219871 108.146261 
L 202.343181 108.146261 
L 201.454023 108.334378 
L 200.04183 108.945757 
L 198.577333 108.898728 
L 196.799016 109.9804 
L 195.700644 109.9804 
L 194.602271 110.497721 
L 189.790354 110.826926 
L 188.796589 110.920984 
L 183.670851 112.237802 
L 181.107982 113.413532 
L 180.271127 113.460562 
L 179.225058 113.460562 
L 178.545113 113.460562 
L 177.969775 113.507591 
L 174.517748 112.99027 
L 170.804203 113.601649 
L 168.921279 113.836795 
L 167.090658 114.071941 
L 163.795541 114.213029 
L 162.958686 114.307087 
L 161.598796 114.542233 
L 159.402052 114.918467 
L 156.002328 114.73035 
L 154.747045 115.106584 
L 151.818052 115.059555 
L 150.248949 114.965496 
L 148.418328 115.388759 
L 146.32619 115.294701 
L 144.80939 115.153613 
L 143.658714 115.482818 
L 142.874163 115.529847 
L 141.723487 114.636292 
L 140.625114 114.683321 
L 139.892866 114.871438 
L 139.683652 114.871438 
L 138.899101 114.824409 
L 137.853032 115.435788 
L 136.388535 114.77738 
L 135.865501 114.77738 
L 135.290163 114.824409 
L 134.453308 114.871438 
L 133.668756 114.636292 
L 132.936508 115.153613 
L 131.890439 115.294701 
L 131.524315 115.012526 
L 130.530549 115.200642 
L 129.275267 115.153613 
L 128.333805 115.764993 
L 127.81077 115.670935 
L 126.921611 115.670935 
L 126.346274 113.55462 
L 125.457115 114.024912 
L 124.724867 112.849182 
L 123.835708 112.567007 
L 120.383681 112.896211 
L 120.122163 112.708094 
L 118.030026 113.037299 
L 113.479626 115.153613 
L 111.021364 116.188256 
L 101.502137 118.680804 
L 86.177227 122.255024 
L 65.360455 126.816857 
L 47.420373 134.106385 
L 38.685697 138.715247 
L 29.846415 139.091481 
z
" clip-path="url(#p90a5e090a4)" style="fill: #fd852c"/>
   </g>
   <g id="PolyCollection_3">
    <path d="M 29.846415 102.032464 
L 29.846415 139.091481 
L 38.685697 138.715247 
L 47.420373 134.106385 
L 65.360455 126.816857 
L 86.177227 122.255024 
L 101.502137 118.680804 
L 111.021364 116.188256 
L 113.479626 115.153613 
L 118.030026 113.037299 
L 120.122163 112.708094 
L 120.383681 112.896211 
L 123.835708 112.567007 
L 124.724867 112.849182 
L 125.457115 114.024912 
L 126.346274 113.55462 
L 126.921611 115.670935 
L 127.81077 115.670935 
L 128.333805 115.764993 
L 129.275267 115.153613 
L 130.530549 115.200642 
L 131.524315 115.012526 
L 131.890439 115.294701 
L 132.936508 115.153613 
L 133.668756 114.636292 
L 134.453308 114.871438 
L 135.290163 114.824409 
L 135.865501 114.77738 
L 136.388535 114.77738 
L 137.853032 115.435788 
L 138.899101 114.824409 
L 139.683652 114.871438 
L 139.892866 114.871438 
L 140.625114 114.683321 
L 141.723487 114.636292 
L 142.874163 115.529847 
L 143.658714 115.482818 
L 144.80939 115.153613 
L 146.32619 115.294701 
L 148.418328 115.388759 
L 150.248949 114.965496 
L 151.818052 115.059555 
L 154.747045 115.106584 
L 156.002328 114.73035 
L 159.402052 114.918467 
L 161.598796 114.542233 
L 162.958686 114.307087 
L 163.795541 114.213029 
L 167.090658 114.071941 
L 168.921279 113.836795 
L 170.804203 113.601649 
L 174.517748 112.99027 
L 177.969775 113.507591 
L 178.545113 113.460562 
L 179.225058 113.460562 
L 180.271127 113.460562 
L 181.107982 113.413532 
L 183.670851 112.237802 
L 188.796589 110.920984 
L 189.790354 110.826926 
L 194.602271 110.497721 
L 195.700644 109.9804 
L 196.799016 109.9804 
L 198.577333 108.898728 
L 200.04183 108.945757 
L 201.454023 108.334378 
L 202.343181 108.146261 
L 205.219871 108.146261 
L 208.201167 107.958144 
L 209.665664 107.817056 
L 210.711733 107.440823 
L 212.019319 108.099232 
L 213.117691 107.770027 
L 214.425277 107.064589 
L 217.511181 106.500239 
L 219.132588 106.40618 
L 220.701691 106.218063 
L 222.323098 106.171034 
L 223.892201 106.171034 
L 225.513608 106.171034 
L 227.135015 106.171034 
L 228.651815 106.171034 
L 230.273222 106.124005 
L 231.842325 106.124005 
L 233.463732 105.747771 
L 235.032835 105.653713 
L 236.654242 105.418567 
L 238.275649 105.23045 
L 239.844752 105.042333 
L 241.466159 104.713129 
L 243.035263 104.477983 
L 244.656669 104.477983 
L 246.278076 104.289866 
L 247.742573 104.242836 
L 249.36398 104.195807 
L 250.933083 104.00769 
L 252.55449 103.866603 
L 254.123593 103.584428 
L 255.745 103.490369 
L 257.366407 103.208194 
L 258.93551 103.161165 
L 260.556917 102.878989 
L 262.12602 102.784931 
L 263.747427 102.596814 
L 265.368834 102.596814 
L 266.833331 102.596814 
L 268.454737 102.596814 
L 270.023841 102.549785 
L 271.645248 102.455726 
L 273.214351 102.549785 
L 274.835758 102.502756 
L 276.457165 102.26761 
L 278.026268 102.079493 
L 279.647675 101.938405 
L 281.216778 101.609201 
L 282.838185 101.65623 
L 284.459592 101.515142 
L 285.924089 101.421084 
L 287.545495 101.327025 
L 289.114599 101.374055 
L 290.736006 100.621587 
L 292.305109 100.668617 
L 293.926516 100.621587 
L 295.547923 100.668617 
L 297.117026 100.668617 
L 298.738433 100.621587 
L 300.307536 100.574558 
L 301.928943 100.43347 
L 303.55035 100.43347 
L 305.06715 100.386441 
L 306.688557 100.386441 
L 308.25766 100.292383 
L 309.879067 100.245354 
L 311.44817 100.245354 
L 313.069577 100.198324 
L 314.690984 100.010208 
L 316.260088 100.151295 
L 317.881494 100.151295 
L 319.450598 99.633974 
L 321.072005 99.398828 
L 322.693411 100.339412 
L 324.157908 100.43347 
L 325.779315 100.057237 
L 327.348418 100.057237 
L 328.969825 99.539915 
L 330.538928 98.08201 
L 332.160335 95.495403 
L 333.781742 95.11917 
L 335.350845 94.460761 
L 336.972252 94.413732 
L 338.541356 94.272644 
L 340.162763 94.178586 
L 341.784169 94.272644 
L 343.248666 94.131556 
L 344.870073 93.755323 
L 346.439176 93.708293 
L 348.060583 93.661264 
L 349.629686 93.661264 
L 351.251093 93.661264 
L 352.8725 93.614235 
L 354.441603 93.614235 
L 356.06301 93.614235 
L 357.632114 93.520177 
L 359.25352 93.520177 
L 360.874927 93.426118 
L 362.339424 93.426118 
L 363.960831 93.379089 
L 365.529934 93.379089 
L 367.151341 93.520177 
L 368.720444 93.520177 
L 370.341851 93.473147 
L 371.963258 93.520177 
L 373.532361 93.473147 
L 375.153768 93.473147 
L 376.722872 93.473147 
L 378.344278 93.473147 
L 379.965685 93.473147 
L 381.482485 93.567206 
L 383.103892 93.520177 
L 384.672995 93.567206 
L 386.294402 93.708293 
L 387.863506 93.661264 
L 389.484912 93.614235 
L 391.106319 93.614235 
L 392.675423 93.520177 
L 394.29683 93.473147 
L 395.865933 93.379089 
L 397.48734 93.379089 
L 399.108747 93.33206 
L 400.573243 93.143943 
L 402.19465 92.908797 
L 403.763753 92.767709 
L 405.38516 92.814738 
L 406.954264 92.767709 
L 408.57567 92.72068 
L 410.197077 92.673651 
L 411.766181 92.626622 
L 413.387588 92.485534 
L 414.956691 92.532563 
L 416.578098 92.391476 
L 418.199505 92.391476 
L 419.664001 92.297417 
L 421.285408 92.250388 
L 422.854511 92.250388 
L 424.475918 92.297417 
L 426.045022 92.062271 
L 427.666428 92.062271 
L 429.287835 92.015242 
L 430.856939 92.156329 
L 432.478345 92.1093 
L 434.047449 92.1093 
L 435.668856 92.015242 
L 437.290263 91.874154 
L 438.754759 91.686037 
L 440.376166 91.639008 
L 441.945269 91.639008 
L 443.566676 91.497921 
L 445.135779 91.215745 
L 446.757186 90.886541 
L 448.378593 90.886541 
L 449.947697 90.792482 
L 449.947697 73.767908 
L 449.947697 73.767908 
L 448.378593 73.767908 
L 446.757186 73.767908 
L 445.135779 73.861967 
L 443.566676 73.861967 
L 441.945269 73.861967 
L 440.376166 73.861967 
L 438.754759 73.861967 
L 437.290263 73.908996 
L 435.668856 73.908996 
L 434.047449 74.003054 
L 432.478345 74.003054 
L 430.856939 74.050084 
L 429.287835 74.050084 
L 427.666428 74.050084 
L 426.045022 74.050084 
L 424.475918 74.144142 
L 422.854511 74.2382 
L 421.285408 74.2382 
L 419.664001 74.2382 
L 418.199505 74.2382 
L 416.578098 74.2382 
L 414.956691 74.28523 
L 413.387588 74.2382 
L 411.766181 74.332259 
L 410.197077 74.332259 
L 408.57567 74.332259 
L 406.954264 74.379288 
L 405.38516 74.379288 
L 403.763753 74.379288 
L 402.19465 74.426317 
L 400.573243 74.473346 
L 399.108747 74.520376 
L 397.48734 74.520376 
L 395.865933 74.473346 
L 394.29683 74.473346 
L 392.675423 74.473346 
L 391.106319 74.426317 
L 389.484912 74.426317 
L 387.863506 74.473346 
L 386.294402 74.473346 
L 384.672995 74.379288 
L 383.103892 74.332259 
L 381.482485 74.332259 
L 379.965685 74.379288 
L 378.344278 74.379288 
L 376.722872 74.379288 
L 375.153768 74.379288 
L 373.532361 74.379288 
L 371.963258 74.379288 
L 370.341851 74.379288 
L 368.720444 74.379288 
L 367.151341 74.379288 
L 365.529934 74.28523 
L 363.960831 74.28523 
L 362.339424 74.28523 
L 360.874927 74.28523 
L 359.25352 74.2382 
L 357.632114 74.2382 
L 356.06301 74.332259 
L 354.441603 74.332259 
L 352.8725 74.332259 
L 351.251093 74.379288 
L 349.629686 74.379288 
L 348.060583 74.379288 
L 346.439176 74.426317 
L 344.870073 74.473346 
L 343.248666 74.567405 
L 341.784169 74.567405 
L 340.162763 74.567405 
L 338.541356 74.755522 
L 336.972252 74.755522 
L 335.350845 74.755522 
L 333.781742 74.614434 
L 332.160335 74.661463 
L 330.538928 74.896609 
L 328.969825 76.02531 
L 327.348418 76.213427 
L 325.779315 76.260456 
L 324.157908 76.307486 
L 322.693411 76.307486 
L 321.072005 76.307486 
L 319.450598 76.307486 
L 317.881494 76.354515 
L 316.260088 76.354515 
L 314.690984 76.401544 
L 313.069577 76.448573 
L 311.44817 76.495603 
L 309.879067 76.495603 
L 308.25766 76.495603 
L 306.688557 76.495603 
L 305.06715 76.495603 
L 303.55035 76.542632 
L 301.928943 76.542632 
L 300.307536 76.589661 
L 298.738433 76.63669 
L 297.117026 76.63669 
L 295.547923 76.63669 
L 293.926516 76.63669 
L 292.305109 76.63669 
L 290.736006 76.63669 
L 289.114599 76.63669 
L 287.545495 76.63669 
L 285.924089 76.730749 
L 284.459592 76.730749 
L 282.838185 76.730749 
L 281.216778 76.777778 
L 279.647675 76.777778 
L 278.026268 76.824807 
L 276.457165 77.012924 
L 274.835758 78.141625 
L 273.214351 78.141625 
L 271.645248 78.141625 
L 270.023841 78.235683 
L 268.454737 78.235683 
L 266.833331 78.235683 
L 265.368834 78.235683 
L 263.747427 78.235683 
L 262.12602 78.235683 
L 260.556917 78.329742 
L 258.93551 78.235683 
L 257.366407 78.282713 
L 255.745 78.376771 
L 254.123593 78.470829 
L 252.55449 78.705975 
L 250.933083 78.753005 
L 249.36398 78.753005 
L 247.742573 78.753005 
L 246.278076 78.753005 
L 244.656669 78.847063 
L 243.035263 78.847063 
L 241.466159 78.941121 
L 239.844752 78.941121 
L 238.275649 78.800034 
L 236.654242 78.894092 
L 235.032835 78.894092 
L 233.463732 78.894092 
L 231.842325 78.941121 
L 230.273222 78.941121 
L 228.651815 78.941121 
L 227.135015 78.988151 
L 225.513608 78.988151 
L 223.892201 79.03518 
L 222.323098 78.988151 
L 220.701691 78.988151 
L 219.132588 79.082209 
L 217.511181 79.129238 
L 214.425277 79.458443 
L 213.117691 80.163881 
L 212.019319 80.493085 
L 210.711733 79.740618 
L 209.665664 80.351998 
L 208.201167 80.399027 
L 205.219871 81.480699 
L 202.343181 81.480699 
L 201.454023 81.43367 
L 200.04183 81.621786 
L 198.577333 81.621786 
L 196.799016 81.715845 
L 195.700644 81.715845 
L 194.602271 81.762874 
L 189.790354 81.950991 
L 188.796589 81.950991 
L 183.670851 83.17375 
L 181.107982 83.314838 
L 180.271127 83.361867 
L 179.225058 83.502955 
L 178.545113 83.502955 
L 177.969775 83.502955 
L 174.517748 83.502955 
L 170.804203 83.78513 
L 168.921279 83.926218 
L 167.090658 83.973247 
L 163.795541 84.067305 
L 162.958686 84.208393 
L 161.598796 84.443539 
L 159.402052 84.725714 
L 156.002328 84.913831 
L 154.747045 85.666298 
L 151.818052 85.713328 
L 150.248949 86.042532 
L 148.418328 86.418766 
L 146.32619 86.512824 
L 144.80939 86.512824 
L 143.658714 86.512824 
L 142.874163 86.512824 
L 141.723487 86.700941 
L 140.625114 86.889058 
L 139.892866 87.030146 
L 139.683652 87.030146 
L 138.899101 86.983116 
L 137.853032 87.641525 
L 136.388535 87.077175 
L 135.865501 87.077175 
L 135.290163 87.171233 
L 134.453308 87.171233 
L 133.668756 87.171233 
L 132.936508 87.876671 
L 131.890439 87.876671 
L 131.524315 87.312321 
L 130.530549 88.017759 
L 129.275267 89.334577 
L 128.333805 90.416249 
L 127.81077 90.463278 
L 126.921611 90.463278 
L 126.346274 90.510307 
L 125.457115 91.215745 
L 124.724867 90.557336 
L 123.835708 90.557336 
L 120.383681 90.886541 
L 120.122163 90.93357 
L 118.030026 90.980599 
L 113.479626 87.876671 
L 111.021364 91.168716 
L 101.502137 93.426118 
L 86.177227 95.730549 
L 65.360455 97.329543 
L 47.420373 99.728032 
L 38.685697 102.549785 
L 29.846415 102.032464 
z
" clip-path="url(#p90a5e090a4)" style="fill: #f0edbf"/>
   </g>
   <g id="PolyCollection_4">
    <path d="M 29.846415 73.485733 
L 29.846415 102.032464 
L 38.685697 102.549785 
L 47.420373 99.728032 
L 65.360455 97.329543 
L 86.177227 95.730549 
L 101.502137 93.426118 
L 111.021364 91.168716 
L 113.479626 87.876671 
L 118.030026 90.980599 
L 120.122163 90.93357 
L 120.383681 90.886541 
L 123.835708 90.557336 
L 124.724867 90.557336 
L 125.457115 91.215745 
L 126.346274 90.510307 
L 126.921611 90.463278 
L 127.81077 90.463278 
L 128.333805 90.416249 
L 129.275267 89.334577 
L 130.530549 88.017759 
L 131.524315 87.312321 
L 131.890439 87.876671 
L 132.936508 87.876671 
L 133.668756 87.171233 
L 134.453308 87.171233 
L 135.290163 87.171233 
L 135.865501 87.077175 
L 136.388535 87.077175 
L 137.853032 87.641525 
L 138.899101 86.983116 
L 139.683652 87.030146 
L 139.892866 87.030146 
L 140.625114 86.889058 
L 141.723487 86.700941 
L 142.874163 86.512824 
L 143.658714 86.512824 
L 144.80939 86.512824 
L 146.32619 86.512824 
L 148.418328 86.418766 
L 150.248949 86.042532 
L 151.818052 85.713328 
L 154.747045 85.666298 
L 156.002328 84.913831 
L 159.402052 84.725714 
L 161.598796 84.443539 
L 162.958686 84.208393 
L 163.795541 84.067305 
L 167.090658 83.973247 
L 168.921279 83.926218 
L 170.804203 83.78513 
L 174.517748 83.502955 
L 177.969775 83.502955 
L 178.545113 83.502955 
L 179.225058 83.502955 
L 180.271127 83.361867 
L 181.107982 83.314838 
L 183.670851 83.17375 
L 188.796589 81.950991 
L 189.790354 81.950991 
L 194.602271 81.762874 
L 195.700644 81.715845 
L 196.799016 81.715845 
L 198.577333 81.621786 
L 200.04183 81.621786 
L 201.454023 81.43367 
L 202.343181 81.480699 
L 205.219871 81.480699 
L 208.201167 80.399027 
L 209.665664 80.351998 
L 210.711733 79.740618 
L 212.019319 80.493085 
L 213.117691 80.163881 
L 214.425277 79.458443 
L 217.511181 79.129238 
L 219.132588 79.082209 
L 220.701691 78.988151 
L 222.323098 78.988151 
L 223.892201 79.03518 
L 225.513608 78.988151 
L 227.135015 78.988151 
L 228.651815 78.941121 
L 230.273222 78.941121 
L 231.842325 78.941121 
L 233.463732 78.894092 
L 235.032835 78.894092 
L 236.654242 78.894092 
L 238.275649 78.800034 
L 239.844752 78.941121 
L 241.466159 78.941121 
L 243.035263 78.847063 
L 244.656669 78.847063 
L 246.278076 78.753005 
L 247.742573 78.753005 
L 249.36398 78.753005 
L 250.933083 78.753005 
L 252.55449 78.705975 
L 254.123593 78.470829 
L 255.745 78.376771 
L 257.366407 78.282713 
L 258.93551 78.235683 
L 260.556917 78.329742 
L 262.12602 78.235683 
L 263.747427 78.235683 
L 265.368834 78.235683 
L 266.833331 78.235683 
L 268.454737 78.235683 
L 270.023841 78.235683 
L 271.645248 78.141625 
L 273.214351 78.141625 
L 274.835758 78.141625 
L 276.457165 77.012924 
L 278.026268 76.824807 
L 279.647675 76.777778 
L 281.216778 76.777778 
L 282.838185 76.730749 
L 284.459592 76.730749 
L 285.924089 76.730749 
L 287.545495 76.63669 
L 289.114599 76.63669 
L 290.736006 76.63669 
L 292.305109 76.63669 
L 293.926516 76.63669 
L 295.547923 76.63669 
L 297.117026 76.63669 
L 298.738433 76.63669 
L 300.307536 76.589661 
L 301.928943 76.542632 
L 303.55035 76.542632 
L 305.06715 76.495603 
L 306.688557 76.495603 
L 308.25766 76.495603 
L 309.879067 76.495603 
L 311.44817 76.495603 
L 313.069577 76.448573 
L 314.690984 76.401544 
L 316.260088 76.354515 
L 317.881494 76.354515 
L 319.450598 76.307486 
L 321.072005 76.307486 
L 322.693411 76.307486 
L 324.157908 76.307486 
L 325.779315 76.260456 
L 327.348418 76.213427 
L 328.969825 76.02531 
L 330.538928 74.896609 
L 332.160335 74.661463 
L 333.781742 74.614434 
L 335.350845 74.755522 
L 336.972252 74.755522 
L 338.541356 74.755522 
L 340.162763 74.567405 
L 341.784169 74.567405 
L 343.248666 74.567405 
L 344.870073 74.473346 
L 346.439176 74.426317 
L 348.060583 74.379288 
L 349.629686 74.379288 
L 351.251093 74.379288 
L 352.8725 74.332259 
L 354.441603 74.332259 
L 356.06301 74.332259 
L 357.632114 74.2382 
L 359.25352 74.2382 
L 360.874927 74.28523 
L 362.339424 74.28523 
L 363.960831 74.28523 
L 365.529934 74.28523 
L 367.151341 74.379288 
L 368.720444 74.379288 
L 370.341851 74.379288 
L 371.963258 74.379288 
L 373.532361 74.379288 
L 375.153768 74.379288 
L 376.722872 74.379288 
L 378.344278 74.379288 
L 379.965685 74.379288 
L 381.482485 74.332259 
L 383.103892 74.332259 
L 384.672995 74.379288 
L 386.294402 74.473346 
L 387.863506 74.473346 
L 389.484912 74.426317 
L 391.106319 74.426317 
L 392.675423 74.473346 
L 394.29683 74.473346 
L 395.865933 74.473346 
L 397.48734 74.520376 
L 399.108747 74.520376 
L 400.573243 74.473346 
L 402.19465 74.426317 
L 403.763753 74.379288 
L 405.38516 74.379288 
L 406.954264 74.379288 
L 408.57567 74.332259 
L 410.197077 74.332259 
L 411.766181 74.332259 
L 413.387588 74.2382 
L 414.956691 74.28523 
L 416.578098 74.2382 
L 418.199505 74.2382 
L 419.664001 74.2382 
L 421.285408 74.2382 
L 422.854511 74.2382 
L 424.475918 74.144142 
L 426.045022 74.050084 
L 427.666428 74.050084 
L 429.287835 74.050084 
L 430.856939 74.050084 
L 432.478345 74.003054 
L 434.047449 74.003054 
L 435.668856 73.908996 
L 437.290263 73.908996 
L 438.754759 73.861967 
L 440.376166 73.861967 
L 441.945269 73.861967 
L 443.566676 73.861967 
L 445.135779 73.861967 
L 446.757186 73.767908 
L 448.378593 73.767908 
L 449.947697 73.767908 
L 449.947697 61.493284 
L 449.947697 61.493284 
L 448.378593 61.493284 
L 446.757186 61.493284 
L 445.135779 61.493284 
L 443.566676 61.493284 
L 441.945269 61.493284 
L 440.376166 61.493284 
L 438.754759 61.493284 
L 437.290263 61.728431 
L 435.668856 61.77546 
L 434.047449 61.822489 
L 432.478345 61.822489 
L 430.856939 61.822489 
L 429.287835 61.822489 
L 427.666428 61.822489 
L 426.045022 61.822489 
L 424.475918 61.822489 
L 422.854511 61.822489 
L 421.285408 61.822489 
L 419.664001 61.869518 
L 418.199505 61.822489 
L 416.578098 61.822489 
L 414.956691 61.869518 
L 413.387588 61.540314 
L 411.766181 61.540314 
L 410.197077 61.117051 
L 408.57567 61.117051 
L 406.954264 61.117051 
L 405.38516 61.117051 
L 403.763753 61.117051 
L 402.19465 61.117051 
L 400.573243 61.16408 
L 399.108747 61.16408 
L 397.48734 61.16408 
L 395.865933 61.117051 
L 394.29683 61.117051 
L 392.675423 61.117051 
L 391.106319 61.16408 
L 389.484912 61.16408 
L 387.863506 61.16408 
L 386.294402 61.16408 
L 384.672995 61.070022 
L 383.103892 61.022992 
L 381.482485 61.022992 
L 379.965685 61.022992 
L 378.344278 61.022992 
L 376.722872 61.022992 
L 375.153768 61.022992 
L 373.532361 61.022992 
L 371.963258 61.022992 
L 370.341851 61.022992 
L 368.720444 61.022992 
L 367.151341 61.022992 
L 365.529934 60.928934 
L 363.960831 60.928934 
L 362.339424 60.928934 
L 360.874927 60.928934 
L 359.25352 60.928934 
L 357.632114 60.928934 
L 356.06301 60.928934 
L 354.441603 60.928934 
L 352.8725 60.928934 
L 351.251093 60.881905 
L 349.629686 60.881905 
L 348.060583 60.881905 
L 346.439176 60.881905 
L 344.870073 60.881905 
L 343.248666 60.881905 
L 341.784169 60.881905 
L 340.162763 60.881905 
L 338.541356 60.881905 
L 336.972252 60.881905 
L 335.350845 60.881905 
L 333.781742 60.881905 
L 332.160335 60.881905 
L 330.538928 60.881905 
L 328.969825 60.881905 
L 327.348418 60.881905 
L 325.779315 60.881905 
L 324.157908 60.881905 
L 322.693411 60.881905 
L 321.072005 60.881905 
L 319.450598 60.881905 
L 317.881494 60.881905 
L 316.260088 60.881905 
L 314.690984 60.881905 
L 313.069577 60.881905 
L 311.44817 60.881905 
L 309.879067 60.881905 
L 308.25766 60.881905 
L 306.688557 60.881905 
L 305.06715 61.305168 
L 303.55035 61.352197 
L 301.928943 61.352197 
L 300.307536 61.352197 
L 298.738433 61.540314 
L 297.117026 61.540314 
L 295.547923 61.540314 
L 293.926516 61.540314 
L 292.305109 61.540314 
L 290.736006 61.540314 
L 289.114599 61.540314 
L 287.545495 61.540314 
L 285.924089 61.540314 
L 284.459592 61.540314 
L 282.838185 61.540314 
L 281.216778 61.587343 
L 279.647675 61.587343 
L 278.026268 61.587343 
L 276.457165 61.587343 
L 274.835758 61.258138 
L 273.214351 61.446255 
L 271.645248 61.399226 
L 270.023841 61.399226 
L 268.454737 61.399226 
L 266.833331 61.399226 
L 265.368834 61.399226 
L 263.747427 61.399226 
L 262.12602 61.399226 
L 260.556917 61.446255 
L 258.93551 61.446255 
L 257.366407 61.446255 
L 255.745 61.399226 
L 254.123593 61.399226 
L 252.55449 61.399226 
L 250.933083 61.399226 
L 249.36398 61.399226 
L 247.742573 61.399226 
L 246.278076 61.399226 
L 244.656669 61.399226 
L 243.035263 61.399226 
L 241.466159 61.399226 
L 239.844752 61.446255 
L 238.275649 61.399226 
L 236.654242 61.446255 
L 235.032835 61.399226 
L 233.463732 61.399226 
L 231.842325 61.399226 
L 230.273222 61.399226 
L 228.651815 61.399226 
L 227.135015 61.399226 
L 225.513608 61.446255 
L 223.892201 61.446255 
L 222.323098 61.399226 
L 220.701691 61.399226 
L 219.132588 61.399226 
L 217.511181 61.493284 
L 214.425277 61.822489 
L 213.117691 62.621986 
L 212.019319 62.716044 
L 210.711733 61.963577 
L 209.665664 63.797716 
L 208.201167 63.797716 
L 205.219871 65.490767 
L 202.343181 65.490767 
L 201.454023 65.443738 
L 200.04183 65.631855 
L 198.577333 65.584826 
L 196.799016 65.584826 
L 195.700644 65.584826 
L 194.602271 65.584826 
L 189.790354 65.961059 
L 188.796589 65.961059 
L 183.670851 66.196206 
L 181.107982 66.149176 
L 180.271127 66.149176 
L 179.225058 66.243235 
L 178.545113 66.243235 
L 177.969775 66.243235 
L 174.517748 66.901644 
L 170.804203 67.042731 
L 168.921279 67.042731 
L 167.090658 67.042731 
L 163.795541 67.042731 
L 162.958686 66.995702 
L 161.598796 66.995702 
L 159.402052 66.854614 
L 156.002328 66.807585 
L 154.747045 68.030345 
L 151.818052 68.171432 
L 150.248949 68.31252 
L 148.418328 68.171432 
L 146.32619 68.171432 
L 144.80939 68.124403 
L 143.658714 68.124403 
L 142.874163 68.124403 
L 141.723487 68.077374 
L 140.625114 68.077374 
L 139.892866 68.124403 
L 139.683652 68.124403 
L 138.899101 68.124403 
L 137.853032 68.641724 
L 136.388535 68.124403 
L 135.865501 68.124403 
L 135.290163 68.171432 
L 134.453308 68.077374 
L 133.668756 68.077374 
L 132.936508 68.547666 
L 131.890439 68.453608 
L 131.524315 67.936286 
L 130.530549 68.594695 
L 129.275267 68.406578 
L 128.333805 68.453608 
L 127.81077 68.453608 
L 126.921611 68.453608 
L 126.346274 68.500637 
L 125.457115 69.112017 
L 124.724867 68.453608 
L 123.835708 68.453608 
L 120.383681 69.629338 
L 120.122163 69.676367 
L 118.030026 69.629338 
L 113.479626 68.547666 
L 111.021364 69.629338 
L 101.502137 70.569922 
L 86.177227 71.087243 
L 65.360455 71.933769 
L 47.420373 72.45109 
L 38.685697 73.67385 
L 29.846415 73.485733 
z
" clip-path="url(#p90a5e090a4)" style="fill: #88bb92"/>
   </g>
   <g id="matplotlib.axis_1">
    <g id="xtick_1">
     <g id="line2d_1">
      <defs>
       <path id="maecb4709fd" d="M 0 0 
L 0 3.5 
" style="stroke: #000000; stroke-width: 0.8"/>
      </defs>
      <g>
       <use xlink:href="#maecb4709fd" x="72.682938" y="299.32" style="stroke: #000000; stroke-width: 0.8"/>
      </g>
     </g>
     <g id="text_1">
      <!-- 2004 -->
      <g transform="translate(59.957938 313.918437) scale(0.1 -0.1)">
       <defs>
        <path id="DejaVuSans-32" d="M 1228 531 
L 3431 531 
L 3431 0 
L 469 0 
L 469 531 
Q 828 903 1448 1529 
Q 2069 2156 2228 2338 
Q 2531 2678 2651 2914 
Q 2772 3150 2772 3378 
Q 2772 3750 2511 3984 
Q 2250 4219 1831 4219 
Q 1534 4219 1204 4116 
Q 875 4013 500 3803 
L 500 4441 
Q 881 4594 1212 4672 
Q 1544 4750 1819 4750 
Q 2544 4750 2975 4387 
Q 3406 4025 3406 3419 
Q 3406 3131 3298 2873 
Q 3191 2616 2906 2266 
Q 2828 2175 2409 1742 
Q 1991 1309 1228 531 
z
" transform="scale(0.015625)"/>
        <path id="DejaVuSans-30" d="M 2034 4250 
Q 1547 4250 1301 3770 
Q 1056 3291 1056 2328 
Q 1056 1369 1301 889 
Q 1547 409 2034 409 
Q 2525 409 2770 889 
Q 3016 1369 3016 2328 
Q 3016 3291 2770 3770 
Q 2525 4250 2034 4250 
z
M 2034 4750 
Q 2819 4750 3233 4129 
Q 3647 3509 3647 2328 
Q 3647 1150 3233 529 
Q 2819 -91 2034 -91 
Q 1250 -91 836 529 
Q 422 1150 422 2328 
Q 422 3509 836 4129 
Q 1250 4750 2034 4750 
z
" transform="scale(0.015625)"/>
        <path id="DejaVuSans-34" d="M 2419 4116 
L 825 1625 
L 2419 1625 
L 2419 4116 
z
M 2253 4666 
L 3047 4666 
L 3047 1625 
L 3713 1625 
L 3713 1100 
L 3047 1100 
L 3047 0 
L 2419 0 
L 2419 1100 
L 313 1100 
L 313 1709 
L 2253 4666 
z
" transform="scale(0.015625)"/>
       </defs>
       <use xlink:href="#DejaVuSans-32"/>
       <use xlink:href="#DejaVuSans-30" x="63.623047"/>
       <use xlink:href="#DejaVuSans-30" x="127.246094"/>
       <use xlink:href="#DejaVuSans-34" x="190.869141"/>
      </g>
     </g>
    </g>
    <g id="xtick_2">
     <g id="line2d_2">
      <g>
       <use xlink:href="#maecb4709fd" x="110.916757" y="299.32" style="stroke: #000000; stroke-width: 0.8"/>
      </g>
     </g>
     <g id="text_2">
      <!-- 2006 -->
      <g transform="translate(98.191757 313.918437) scale(0.1 -0.1)">
       <defs>
        <path id="DejaVuSans-36" d="M 2113 2584 
Q 1688 2584 1439 2293 
Q 1191 2003 1191 1497 
Q 1191 994 1439 701 
Q 1688 409 2113 409 
Q 2538 409 2786 701 
Q 3034 994 3034 1497 
Q 3034 2003 2786 2293 
Q 2538 2584 2113 2584 
z
M 3366 4563 
L 3366 3988 
Q 3128 4100 2886 4159 
Q 2644 4219 2406 4219 
Q 1781 4219 1451 3797 
Q 1122 3375 1075 2522 
Q 1259 2794 1537 2939 
Q 1816 3084 2150 3084 
Q 2853 3084 3261 2657 
Q 3669 2231 3669 1497 
Q 3669 778 3244 343 
Q 2819 -91 2113 -91 
Q 1303 -91 875 529 
Q 447 1150 447 2328 
Q 447 3434 972 4092 
Q 1497 4750 2381 4750 
Q 2619 4750 2861 4703 
Q 3103 4656 3366 4563 
z
" transform="scale(0.015625)"/>
       </defs>
       <use xlink:href="#DejaVuSans-32"/>
       <use xlink:href="#DejaVuSans-30" x="63.623047"/>
       <use xlink:href="#DejaVuSans-30" x="127.246094"/>
       <use xlink:href="#DejaVuSans-36" x="190.869141"/>
      </g>
     </g>
    </g>
    <g id="xtick_3">
     <g id="line2d_3">
      <g>
       <use xlink:href="#maecb4709fd" x="149.098273" y="299.32" style="stroke: #000000; stroke-width: 0.8"/>
      </g>
     </g>
     <g id="text_3">
      <!-- 2008 -->
      <g transform="translate(136.373273 313.918437) scale(0.1 -0.1)">
       <defs>
        <path id="DejaVuSans-38" d="M 2034 2216 
Q 1584 2216 1326 1975 
Q 1069 1734 1069 1313 
Q 1069 891 1326 650 
Q 1584 409 2034 409 
Q 2484 409 2743 651 
Q 3003 894 3003 1313 
Q 3003 1734 2745 1975 
Q 2488 2216 2034 2216 
z
M 1403 2484 
Q 997 2584 770 2862 
Q 544 3141 544 3541 
Q 544 4100 942 4425 
Q 1341 4750 2034 4750 
Q 2731 4750 3128 4425 
Q 3525 4100 3525 3541 
Q 3525 3141 3298 2862 
Q 3072 2584 2669 2484 
Q 3125 2378 3379 2068 
Q 3634 1759 3634 1313 
Q 3634 634 3220 271 
Q 2806 -91 2034 -91 
Q 1263 -91 848 271 
Q 434 634 434 1313 
Q 434 1759 690 2068 
Q 947 2378 1403 2484 
z
M 1172 3481 
Q 1172 3119 1398 2916 
Q 1625 2713 2034 2713 
Q 2441 2713 2670 2916 
Q 2900 3119 2900 3481 
Q 2900 3844 2670 4047 
Q 2441 4250 2034 4250 
Q 1625 4250 1398 4047 
Q 1172 3844 1172 3481 
z
" transform="scale(0.015625)"/>
       </defs>
       <use xlink:href="#DejaVuSans-32"/>
       <use xlink:href="#DejaVuSans-30" x="63.623047"/>
       <use xlink:href="#DejaVuSans-30" x="127.246094"/>
       <use xlink:href="#DejaVuSans-38" x="190.869141"/>
      </g>
     </g>
    </g>
    <g id="xtick_4">
     <g id="line2d_4">
      <g>
       <use xlink:href="#maecb4709fd" x="187.332092" y="299.32" style="stroke: #000000; stroke-width: 0.8"/>
      </g>
     </g>
     <g id="text_4">
      <!-- 2010 -->
      <g transform="translate(174.607092 313.918437) scale(0.1 -0.1)">
       <defs>
        <path id="DejaVuSans-31" d="M 794 531 
L 1825 531 
L 1825 4091 
L 703 3866 
L 703 4441 
L 1819 4666 
L 2450 4666 
L 2450 531 
L 3481 531 
L 3481 0 
L 794 0 
L 794 531 
z
" transform="scale(0.015625)"/>
       </defs>
       <use xlink:href="#DejaVuSans-32"/>
       <use xlink:href="#DejaVuSans-30" x="63.623047"/>
       <use xlink:href="#DejaVuSans-31" x="127.246094"/>
       <use xlink:href="#DejaVuSans-30" x="190.869141"/>
      </g>
     </g>
    </g>
    <g id="xtick_5">
     <g id="line2d_5">
      <g>
       <use xlink:href="#maecb4709fd" x="225.513608" y="299.32" style="stroke: #000000; stroke-width: 0.8"/>
      </g>
     </g>
     <g id="text_5">
      <!-- 2012 -->
      <g transform="translate(212.788608 313.918437) scale(0.1 -0.1)">
       <use xlink:href="#DejaVuSans-32"/>
       <use xlink:href="#DejaVuSans-30" x="63.623047"/>
       <use xlink:href="#DejaVuSans-31" x="127.246094"/>
       <use xlink:href="#DejaVuSans-32" x="190.869141"/>
      </g>
     </g>
    </g>
    <g id="xtick_6">
     <g id="line2d_6">
      <g>
       <use xlink:href="#maecb4709fd" x="263.747427" y="299.32" style="stroke: #000000; stroke-width: 0.8"/>
      </g>
     </g>
     <g id="text_6">
      <!-- 2014 -->
      <g transform="translate(251.022427 313.918437) scale(0.1 -0.1)">
       <use xlink:href="#DejaVuSans-32"/>
       <use xlink:href="#DejaVuSans-30" x="63.623047"/>
       <use xlink:href="#DejaVuSans-31" x="127.246094"/>
       <use xlink:href="#DejaVuSans-34" x="190.869141"/>
      </g>
     </g>
    </g>
    <g id="xtick_7">
     <g id="line2d_7">
      <g>
       <use xlink:href="#maecb4709fd" x="301.928943" y="299.32" style="stroke: #000000; stroke-width: 0.8"/>
      </g>
     </g>
     <g id="text_7">
      <!-- 2016 -->
      <g transform="translate(289.203943 313.918437) scale(0.1 -0.1)">
       <use xlink:href="#DejaVuSans-32"/>
       <use xlink:href="#DejaVuSans-30" x="63.623047"/>
       <use xlink:href="#DejaVuSans-31" x="127.246094"/>
       <use xlink:href="#DejaVuSans-36" x="190.869141"/>
      </g>
     </g>
    </g>
    <g id="xtick_8">
     <g id="line2d_8">
      <g>
       <use xlink:href="#maecb4709fd" x="340.162763" y="299.32" style="stroke: #000000; stroke-width: 0.8"/>
      </g>
     </g>
     <g id="text_8">
      <!-- 2018 -->
      <g transform="translate(327.437763 313.918437) scale(0.1 -0.1)">
       <use xlink:href="#DejaVuSans-32"/>
       <use xlink:href="#DejaVuSans-30" x="63.623047"/>
       <use xlink:href="#DejaVuSans-31" x="127.246094"/>
       <use xlink:href="#DejaVuSans-38" x="190.869141"/>
      </g>
     </g>
    </g>
    <g id="xtick_9">
     <g id="line2d_9">
      <g>
       <use xlink:href="#maecb4709fd" x="378.344278" y="299.32" style="stroke: #000000; stroke-width: 0.8"/>
      </g>
     </g>
     <g id="text_9">
      <!-- 2020 -->
      <g transform="translate(365.619278 313.918437) scale(0.1 -0.1)">
       <use xlink:href="#DejaVuSans-32"/>
       <use xlink:href="#DejaVuSans-30" x="63.623047"/>
       <use xlink:href="#DejaVuSans-32" x="127.246094"/>
       <use xlink:href="#DejaVuSans-30" x="190.869141"/>
      </g>
     </g>
    </g>
    <g id="xtick_10">
     <g id="line2d_10">
      <g>
       <use xlink:href="#maecb4709fd" x="416.578098" y="299.32" style="stroke: #000000; stroke-width: 0.8"/>
      </g>
     </g>
     <g id="text_10">
      <!-- 2022 -->
      <g transform="translate(403.853098 313.918437) scale(0.1 -0.1)">
       <use xlink:href="#DejaVuSans-32"/>
       <use xlink:href="#DejaVuSans-30" x="63.623047"/>
       <use xlink:href="#DejaVuSans-32" x="127.246094"/>
       <use xlink:href="#DejaVuSans-32" x="190.869141"/>
      </g>
     </g>
    </g>
    <g id="text_11">
     <!-- Year -->
     <g transform="translate(239.86375 331.395781) scale(0.15 -0.15)">
      <defs>
       <path id="DejaVuSans-59" d="M -13 4666 
L 666 4666 
L 1959 2747 
L 3244 4666 
L 3922 4666 
L 2272 2222 
L 2272 0 
L 1638 0 
L 1638 2222 
L -13 4666 
z
" transform="scale(0.015625)"/>
       <path id="DejaVuSans-65" d="M 3597 1894 
L 3597 1613 
L 953 1613 
Q 991 1019 1311 708 
Q 1631 397 2203 397 
Q 2534 397 2845 478 
Q 3156 559 3463 722 
L 3463 178 
Q 3153 47 2828 -22 
Q 2503 -91 2169 -91 
Q 1331 -91 842 396 
Q 353 884 353 1716 
Q 353 2575 817 3079 
Q 1281 3584 2069 3584 
Q 2775 3584 3186 3129 
Q 3597 2675 3597 1894 
z
M 3022 2063 
Q 3016 2534 2758 2815 
Q 2500 3097 2075 3097 
Q 1594 3097 1305 2825 
Q 1016 2553 972 2059 
L 3022 2063 
z
" transform="scale(0.015625)"/>
       <path id="DejaVuSans-61" d="M 2194 1759 
Q 1497 1759 1228 1600 
Q 959 1441 959 1056 
Q 959 750 1161 570 
Q 1363 391 1709 391 
Q 2188 391 2477 730 
Q 2766 1069 2766 1631 
L 2766 1759 
L 2194 1759 
z
M 3341 1997 
L 3341 0 
L 2766 0 
L 2766 531 
Q 2569 213 2275 61 
Q 1981 -91 1556 -91 
Q 1019 -91 701 211 
Q 384 513 384 1019 
Q 384 1609 779 1909 
Q 1175 2209 1959 2209 
L 2766 2209 
L 2766 2266 
Q 2766 2663 2505 2880 
Q 2244 3097 1772 3097 
Q 1472 3097 1187 3025 
Q 903 2953 641 2809 
L 641 3341 
Q 956 3463 1253 3523 
Q 1550 3584 1831 3584 
Q 2591 3584 2966 3190 
Q 3341 2797 3341 1997 
z
" transform="scale(0.015625)"/>
       <path id="DejaVuSans-72" d="M 2631 2963 
Q 2534 3019 2420 3045 
Q 2306 3072 2169 3072 
Q 1681 3072 1420 2755 
Q 1159 2438 1159 1844 
L 1159 0 
L 581 0 
L 581 3500 
L 1159 3500 
L 1159 2956 
Q 1341 3275 1631 3429 
Q 1922 3584 2338 3584 
Q 2397 3584 2469 3576 
Q 2541 3569 2628 3553 
L 2631 2963 
z
" transform="scale(0.015625)"/>
      </defs>
      <use xlink:href="#DejaVuSans-59"/>
      <use xlink:href="#DejaVuSans-65" x="47.833984"/>
      <use xlink:href="#DejaVuSans-61" x="109.357422"/>
      <use xlink:href="#DejaVuSans-72" x="170.636719"/>
     </g>
    </g>
   </g>
   <g id="matplotlib.axis_2">
    <g id="ytick_1">
     <g id="line2d_11">
      <defs>
       <path id="m6963bbc562" d="M 0 0 
L -3.5 0 
" style="stroke: #000000; stroke-width: 0.8"/>
      </defs>
      <g>
       <use xlink:href="#m6963bbc562" x="61.49" y="299.32" style="stroke: #000000; stroke-width: 0.8"/>
      </g>
     </g>
     <g id="text_12">
      <!-- 0 -->
      <g transform="translate(48.1275 303.119219) scale(0.1 -0.1)">
       <use xlink:href="#DejaVuSans-30"/>
      </g>
     </g>
    </g>
    <g id="ytick_2">
     <g id="line2d_12">
      <g>
       <use xlink:href="#m6963bbc562" x="61.49" y="252.29079" style="stroke: #000000; stroke-width: 0.8"/>
      </g>
     </g>
     <g id="text_13">
      <!-- 1000 -->
      <g transform="translate(29.04 256.090009) scale(0.1 -0.1)">
       <use xlink:href="#DejaVuSans-31"/>
       <use xlink:href="#DejaVuSans-30" x="63.623047"/>
       <use xlink:href="#DejaVuSans-30" x="127.246094"/>
       <use xlink:href="#DejaVuSans-30" x="190.869141"/>
      </g>
     </g>
    </g>
    <g id="ytick_3">
     <g id="line2d_13">
      <g>
       <use xlink:href="#m6963bbc562" x="61.49" y="205.26158" style="stroke: #000000; stroke-width: 0.8"/>
      </g>
     </g>
     <g id="text_14">
      <!-- 2000 -->
      <g transform="translate(29.04 209.060799) scale(0.1 -0.1)">
       <use xlink:href="#DejaVuSans-32"/>
       <use xlink:href="#DejaVuSans-30" x="63.623047"/>
       <use xlink:href="#DejaVuSans-30" x="127.246094"/>
       <use xlink:href="#DejaVuSans-30" x="190.869141"/>
      </g>
     </g>
    </g>
    <g id="ytick_4">
     <g id="line2d_14">
      <g>
       <use xlink:href="#m6963bbc562" x="61.49" y="158.23237" style="stroke: #000000; stroke-width: 0.8"/>
      </g>
     </g>
     <g id="text_15">
      <!-- 3000 -->
      <g transform="translate(29.04 162.031588) scale(0.1 -0.1)">
       <defs>
        <path id="DejaVuSans-33" d="M 2597 2516 
Q 3050 2419 3304 2112 
Q 3559 1806 3559 1356 
Q 3559 666 3084 287 
Q 2609 -91 1734 -91 
Q 1441 -91 1130 -33 
Q 819 25 488 141 
L 488 750 
Q 750 597 1062 519 
Q 1375 441 1716 441 
Q 2309 441 2620 675 
Q 2931 909 2931 1356 
Q 2931 1769 2642 2001 
Q 2353 2234 1838 2234 
L 1294 2234 
L 1294 2753 
L 1863 2753 
Q 2328 2753 2575 2939 
Q 2822 3125 2822 3475 
Q 2822 3834 2567 4026 
Q 2313 4219 1838 4219 
Q 1578 4219 1281 4162 
Q 984 4106 628 3988 
L 628 4550 
Q 988 4650 1302 4700 
Q 1616 4750 1894 4750 
Q 2613 4750 3031 4423 
Q 3450 4097 3450 3541 
Q 3450 3153 3228 2886 
Q 3006 2619 2597 2516 
z
" transform="scale(0.015625)"/>
       </defs>
       <use xlink:href="#DejaVuSans-33"/>
       <use xlink:href="#DejaVuSans-30" x="63.623047"/>
       <use xlink:href="#DejaVuSans-30" x="127.246094"/>
       <use xlink:href="#DejaVuSans-30" x="190.869141"/>
      </g>
     </g>
    </g>
    <g id="ytick_5">
     <g id="line2d_15">
      <g>
       <use xlink:href="#m6963bbc562" x="61.49" y="111.20316" style="stroke: #000000; stroke-width: 0.8"/>
      </g>
     </g>
     <g id="text_16">
      <!-- 4000 -->
      <g transform="translate(29.04 115.002378) scale(0.1 -0.1)">
       <use xlink:href="#DejaVuSans-34"/>
       <use xlink:href="#DejaVuSans-30" x="63.623047"/>
       <use xlink:href="#DejaVuSans-30" x="127.246094"/>
       <use xlink:href="#DejaVuSans-30" x="190.869141"/>
      </g>
     </g>
    </g>
    <g id="ytick_6">
     <g id="line2d_16">
      <g>
       <use xlink:href="#m6963bbc562" x="61.49" y="64.173949" style="stroke: #000000; stroke-width: 0.8"/>
      </g>
     </g>
     <g id="text_17">
      <!-- 5000 -->
      <g transform="translate(29.04 67.973168) scale(0.1 -0.1)">
       <defs>
        <path id="DejaVuSans-35" d="M 691 4666 
L 3169 4666 
L 3169 4134 
L 1269 4134 
L 1269 2991 
Q 1406 3038 1543 3061 
Q 1681 3084 1819 3084 
Q 2600 3084 3056 2656 
Q 3513 2228 3513 1497 
Q 3513 744 3044 326 
Q 2575 -91 1722 -91 
Q 1428 -91 1123 -41 
Q 819 9 494 109 
L 494 744 
Q 775 591 1075 516 
Q 1375 441 1709 441 
Q 2250 441 2565 725 
Q 2881 1009 2881 1497 
Q 2881 1984 2565 2268 
Q 2250 2553 1709 2553 
Q 1456 2553 1204 2497 
Q 953 2441 691 2322 
L 691 4666 
z
" transform="scale(0.015625)"/>
       </defs>
       <use xlink:href="#DejaVuSans-35"/>
       <use xlink:href="#DejaVuSans-30" x="63.623047"/>
       <use xlink:href="#DejaVuSans-30" x="127.246094"/>
       <use xlink:href="#DejaVuSans-30" x="190.869141"/>
      </g>
     </g>
    </g>
    <g id="text_18">
     <!-- Number of proteins -->
     <g transform="translate(21.920469 246.829062) rotate(-90) scale(0.15 -0.15)">
      <defs>
       <path id="DejaVuSans-4e" d="M 628 4666 
L 1478 4666 
L 3547 763 
L 3547 4666 
L 4159 4666 
L 4159 0 
L 3309 0 
L 1241 3903 
L 1241 0 
L 628 0 
L 628 4666 
z
" transform="scale(0.015625)"/>
       <path id="DejaVuSans-75" d="M 544 1381 
L 544 3500 
L 1119 3500 
L 1119 1403 
Q 1119 906 1312 657 
Q 1506 409 1894 409 
Q 2359 409 2629 706 
Q 2900 1003 2900 1516 
L 2900 3500 
L 3475 3500 
L 3475 0 
L 2900 0 
L 2900 538 
Q 2691 219 2414 64 
Q 2138 -91 1772 -91 
Q 1169 -91 856 284 
Q 544 659 544 1381 
z
M 1991 3584 
L 1991 3584 
z
" transform="scale(0.015625)"/>
       <path id="DejaVuSans-6d" d="M 3328 2828 
Q 3544 3216 3844 3400 
Q 4144 3584 4550 3584 
Q 5097 3584 5394 3201 
Q 5691 2819 5691 2113 
L 5691 0 
L 5113 0 
L 5113 2094 
Q 5113 2597 4934 2840 
Q 4756 3084 4391 3084 
Q 3944 3084 3684 2787 
Q 3425 2491 3425 1978 
L 3425 0 
L 2847 0 
L 2847 2094 
Q 2847 2600 2669 2842 
Q 2491 3084 2119 3084 
Q 1678 3084 1418 2786 
Q 1159 2488 1159 1978 
L 1159 0 
L 581 0 
L 581 3500 
L 1159 3500 
L 1159 2956 
Q 1356 3278 1631 3431 
Q 1906 3584 2284 3584 
Q 2666 3584 2933 3390 
Q 3200 3197 3328 2828 
z
" transform="scale(0.015625)"/>
       <path id="DejaVuSans-62" d="M 3116 1747 
Q 3116 2381 2855 2742 
Q 2594 3103 2138 3103 
Q 1681 3103 1420 2742 
Q 1159 2381 1159 1747 
Q 1159 1113 1420 752 
Q 1681 391 2138 391 
Q 2594 391 2855 752 
Q 3116 1113 3116 1747 
z
M 1159 2969 
Q 1341 3281 1617 3432 
Q 1894 3584 2278 3584 
Q 2916 3584 3314 3078 
Q 3713 2572 3713 1747 
Q 3713 922 3314 415 
Q 2916 -91 2278 -91 
Q 1894 -91 1617 61 
Q 1341 213 1159 525 
L 1159 0 
L 581 0 
L 581 4863 
L 1159 4863 
L 1159 2969 
z
" transform="scale(0.015625)"/>
       <path id="DejaVuSans-20" transform="scale(0.015625)"/>
       <path id="DejaVuSans-6f" d="M 1959 3097 
Q 1497 3097 1228 2736 
Q 959 2375 959 1747 
Q 959 1119 1226 758 
Q 1494 397 1959 397 
Q 2419 397 2687 759 
Q 2956 1122 2956 1747 
Q 2956 2369 2687 2733 
Q 2419 3097 1959 3097 
z
M 1959 3584 
Q 2709 3584 3137 3096 
Q 3566 2609 3566 1747 
Q 3566 888 3137 398 
Q 2709 -91 1959 -91 
Q 1206 -91 779 398 
Q 353 888 353 1747 
Q 353 2609 779 3096 
Q 1206 3584 1959 3584 
z
" transform="scale(0.015625)"/>
       <path id="DejaVuSans-66" d="M 2375 4863 
L 2375 4384 
L 1825 4384 
Q 1516 4384 1395 4259 
Q 1275 4134 1275 3809 
L 1275 3500 
L 2222 3500 
L 2222 3053 
L 1275 3053 
L 1275 0 
L 697 0 
L 697 3053 
L 147 3053 
L 147 3500 
L 697 3500 
L 697 3744 
Q 697 4328 969 4595 
Q 1241 4863 1831 4863 
L 2375 4863 
z
" transform="scale(0.015625)"/>
       <path id="DejaVuSans-70" d="M 1159 525 
L 1159 -1331 
L 581 -1331 
L 581 3500 
L 1159 3500 
L 1159 2969 
Q 1341 3281 1617 3432 
Q 1894 3584 2278 3584 
Q 2916 3584 3314 3078 
Q 3713 2572 3713 1747 
Q 3713 922 3314 415 
Q 2916 -91 2278 -91 
Q 1894 -91 1617 61 
Q 1341 213 1159 525 
z
M 3116 1747 
Q 3116 2381 2855 2742 
Q 2594 3103 2138 3103 
Q 1681 3103 1420 2742 
Q 1159 2381 1159 1747 
Q 1159 1113 1420 752 
Q 1681 391 2138 391 
Q 2594 391 2855 752 
Q 3116 1113 3116 1747 
z
" transform="scale(0.015625)"/>
       <path id="DejaVuSans-74" d="M 1172 4494 
L 1172 3500 
L 2356 3500 
L 2356 3053 
L 1172 3053 
L 1172 1153 
Q 1172 725 1289 603 
Q 1406 481 1766 481 
L 2356 481 
L 2356 0 
L 1766 0 
Q 1100 0 847 248 
Q 594 497 594 1153 
L 594 3053 
L 172 3053 
L 172 3500 
L 594 3500 
L 594 4494 
L 1172 4494 
z
" transform="scale(0.015625)"/>
       <path id="DejaVuSans-69" d="M 603 3500 
L 1178 3500 
L 1178 0 
L 603 0 
L 603 3500 
z
M 603 4863 
L 1178 4863 
L 1178 4134 
L 603 4134 
L 603 4863 
z
" transform="scale(0.015625)"/>
       <path id="DejaVuSans-6e" d="M 3513 2113 
L 3513 0 
L 2938 0 
L 2938 2094 
Q 2938 2591 2744 2837 
Q 2550 3084 2163 3084 
Q 1697 3084 1428 2787 
Q 1159 2491 1159 1978 
L 1159 0 
L 581 0 
L 581 3500 
L 1159 3500 
L 1159 2956 
Q 1366 3272 1645 3428 
Q 1925 3584 2291 3584 
Q 2894 3584 3203 3211 
Q 3513 2838 3513 2113 
z
" transform="scale(0.015625)"/>
       <path id="DejaVuSans-73" d="M 2834 3397 
L 2834 2853 
Q 2591 2978 2328 3040 
Q 2066 3103 1784 3103 
Q 1356 3103 1142 2972 
Q 928 2841 928 2578 
Q 928 2378 1081 2264 
Q 1234 2150 1697 2047 
L 1894 2003 
Q 2506 1872 2764 1633 
Q 3022 1394 3022 966 
Q 3022 478 2636 193 
Q 2250 -91 1575 -91 
Q 1294 -91 989 -36 
Q 684 19 347 128 
L 347 722 
Q 666 556 975 473 
Q 1284 391 1588 391 
Q 1994 391 2212 530 
Q 2431 669 2431 922 
Q 2431 1156 2273 1281 
Q 2116 1406 1581 1522 
L 1381 1569 
Q 847 1681 609 1914 
Q 372 2147 372 2553 
Q 372 3047 722 3315 
Q 1072 3584 1716 3584 
Q 2034 3584 2315 3537 
Q 2597 3491 2834 3397 
z
" transform="scale(0.015625)"/>
      </defs>
      <use xlink:href="#DejaVuSans-4e"/>
      <use xlink:href="#DejaVuSans-75" x="74.804688"/>
      <use xlink:href="#DejaVuSans-6d" x="138.183594"/>
      <use xlink:href="#DejaVuSans-62" x="235.595703"/>
      <use xlink:href="#DejaVuSans-65" x="299.072266"/>
      <use xlink:href="#DejaVuSans-72" x="360.595703"/>
      <use xlink:href="#DejaVuSans-20" x="401.708984"/>
      <use xlink:href="#DejaVuSans-6f" x="433.496094"/>
      <use xlink:href="#DejaVuSans-66" x="494.677734"/>
      <use xlink:href="#DejaVuSans-20" x="529.882812"/>
      <use xlink:href="#DejaVuSans-70" x="561.669922"/>
      <use xlink:href="#DejaVuSans-72" x="625.146484"/>
      <use xlink:href="#DejaVuSans-6f" x="664.009766"/>
      <use xlink:href="#DejaVuSans-74" x="725.191406"/>
      <use xlink:href="#DejaVuSans-65" x="764.400391"/>
      <use xlink:href="#DejaVuSans-69" x="825.923828"/>
      <use xlink:href="#DejaVuSans-6e" x="853.707031"/>
      <use xlink:href="#DejaVuSans-73" x="917.085938"/>
     </g>
    </g>
   </g>
   <g id="patch_3">
    <path d="M 61.49 299.32 
L 61.49 48.96 
" style="fill: none; stroke: #000000; stroke-width: 0.8; stroke-linejoin: miter; stroke-linecap: square"/>
   </g>
   <g id="patch_4">
    <path d="M 450 299.32 
L 450 48.96 
" style="fill: none; stroke: #000000; stroke-width: 0.8; stroke-linejoin: miter; stroke-linecap: square"/>
   </g>
   <g id="patch_5">
    <path d="M 61.49 299.32 
L 450 299.32 
" style="fill: none; stroke: #000000; stroke-width: 0.8; stroke-linejoin: miter; stroke-linecap: square"/>
   </g>
   <g id="patch_6">
    <path d="M 61.49 48.96 
L 450 48.96 
" style="fill: none; stroke: #000000; stroke-width: 0.8; stroke-linejoin: miter; stroke-linecap: square"/>
   </g>
   <g id="legend_1">
    <g id="patch_7">
     <path d="M 128.755156 43.96 
L 382.734844 43.96 
Q 384.734844 43.96 384.734844 41.96 
L 384.734844 13.60375 
Q 384.734844 11.60375 382.734844 11.60375 
L 128.755156 11.60375 
Q 126.755156 11.60375 126.755156 13.60375 
L 126.755156 41.96 
Q 126.755156 43.96 128.755156 43.96 
z
" style="fill: #ffffff; opacity: 0.8; stroke: #cccccc; stroke-linejoin: miter"/>
    </g>
    <g id="patch_8">
     <path d="M 130.755156 23.202187 
L 150.755156 23.202187 
L 150.755156 16.202187 
L 130.755156 16.202187 
z
" style="fill: #fb363b"/>
    </g>
    <g id="text_19">
     <!-- Published -->
     <g transform="translate(158.755156 23.202187) scale(0.1 -0.1)">
      <defs>
       <path id="DejaVuSans-50" d="M 1259 4147 
L 1259 2394 
L 2053 2394 
Q 2494 2394 2734 2622 
Q 2975 2850 2975 3272 
Q 2975 3691 2734 3919 
Q 2494 4147 2053 4147 
L 1259 4147 
z
M 628 4666 
L 2053 4666 
Q 2838 4666 3239 4311 
Q 3641 3956 3641 3272 
Q 3641 2581 3239 2228 
Q 2838 1875 2053 1875 
L 1259 1875 
L 1259 0 
L 628 0 
L 628 4666 
z
" transform="scale(0.015625)"/>
       <path id="DejaVuSans-6c" d="M 603 4863 
L 1178 4863 
L 1178 0 
L 603 0 
L 603 4863 
z
" transform="scale(0.015625)"/>
       <path id="DejaVuSans-68" d="M 3513 2113 
L 3513 0 
L 2938 0 
L 2938 2094 
Q 2938 2591 2744 2837 
Q 2550 3084 2163 3084 
Q 1697 3084 1428 2787 
Q 1159 2491 1159 1978 
L 1159 0 
L 581 0 
L 581 4863 
L 1159 4863 
L 1159 2956 
Q 1366 3272 1645 3428 
Q 1925 3584 2291 3584 
Q 2894 3584 3203 3211 
Q 3513 2838 3513 2113 
z
" transform="scale(0.015625)"/>
       <path id="DejaVuSans-64" d="M 2906 2969 
L 2906 4863 
L 3481 4863 
L 3481 0 
L 2906 0 
L 2906 525 
Q 2725 213 2448 61 
Q 2172 -91 1784 -91 
Q 1150 -91 751 415 
Q 353 922 353 1747 
Q 353 2572 751 3078 
Q 1150 3584 1784 3584 
Q 2172 3584 2448 3432 
Q 2725 3281 2906 2969 
z
M 947 1747 
Q 947 1113 1208 752 
Q 1469 391 1925 391 
Q 2381 391 2643 752 
Q 2906 1113 2906 1747 
Q 2906 2381 2643 2742 
Q 2381 3103 1925 3103 
Q 1469 3103 1208 2742 
Q 947 2381 947 1747 
z
" transform="scale(0.015625)"/>
      </defs>
      <use xlink:href="#DejaVuSans-50"/>
      <use xlink:href="#DejaVuSans-75" x="58.552734"/>
      <use xlink:href="#DejaVuSans-62" x="121.931641"/>
      <use xlink:href="#DejaVuSans-6c" x="185.408203"/>
      <use xlink:href="#DejaVuSans-69" x="213.191406"/>
      <use xlink:href="#DejaVuSans-73" x="240.974609"/>
      <use xlink:href="#DejaVuSans-68" x="293.074219"/>
      <use xlink:href="#DejaVuSans-65" x="356.453125"/>
      <use xlink:href="#DejaVuSans-64" x="417.976562"/>
     </g>
    </g>
    <g id="patch_9">
     <path d="M 130.755156 37.880313 
L 150.755156 37.880313 
L 150.755156 30.880313 
L 130.755156 30.880313 
z
" style="fill: #fd852c"/>
    </g>
    <g id="text_20">
     <!-- Inferred role -->
     <g transform="translate(158.755156 37.880313) scale(0.1 -0.1)">
      <defs>
       <path id="DejaVuSans-49" d="M 628 4666 
L 1259 4666 
L 1259 0 
L 628 0 
L 628 4666 
z
" transform="scale(0.015625)"/>
      </defs>
      <use xlink:href="#DejaVuSans-49"/>
      <use xlink:href="#DejaVuSans-6e" x="29.492188"/>
      <use xlink:href="#DejaVuSans-66" x="92.871094"/>
      <use xlink:href="#DejaVuSans-65" x="128.076172"/>
      <use xlink:href="#DejaVuSans-72" x="189.599609"/>
      <use xlink:href="#DejaVuSans-72" x="228.962891"/>
      <use xlink:href="#DejaVuSans-65" x="267.826172"/>
      <use xlink:href="#DejaVuSans-64" x="329.349609"/>
      <use xlink:href="#DejaVuSans-20" x="392.826172"/>
      <use xlink:href="#DejaVuSans-72" x="424.613281"/>
      <use xlink:href="#DejaVuSans-6f" x="463.476562"/>
      <use xlink:href="#DejaVuSans-6c" x="524.658203"/>
      <use xlink:href="#DejaVuSans-65" x="552.441406"/>
     </g>
    </g>
    <g id="patch_10">
     <path d="M 240.153594 23.202187 
L 260.153594 23.202187 
L 260.153594 16.202187 
L 240.153594 16.202187 
z
" style="fill: #f0edbf"/>
    </g>
    <g id="text_21">
     <!-- Conserved unknown -->
     <g transform="translate(268.153594 23.202187) scale(0.1 -0.1)">
      <defs>
       <path id="DejaVuSans-43" d="M 4122 4306 
L 4122 3641 
Q 3803 3938 3442 4084 
Q 3081 4231 2675 4231 
Q 1875 4231 1450 3742 
Q 1025 3253 1025 2328 
Q 1025 1406 1450 917 
Q 1875 428 2675 428 
Q 3081 428 3442 575 
Q 3803 722 4122 1019 
L 4122 359 
Q 3791 134 3420 21 
Q 3050 -91 2638 -91 
Q 1578 -91 968 557 
Q 359 1206 359 2328 
Q 359 3453 968 4101 
Q 1578 4750 2638 4750 
Q 3056 4750 3426 4639 
Q 3797 4528 4122 4306 
z
" transform="scale(0.015625)"/>
       <path id="DejaVuSans-76" d="M 191 3500 
L 800 3500 
L 1894 563 
L 2988 3500 
L 3597 3500 
L 2284 0 
L 1503 0 
L 191 3500 
z
" transform="scale(0.015625)"/>
       <path id="DejaVuSans-6b" d="M 581 4863 
L 1159 4863 
L 1159 1991 
L 2875 3500 
L 3609 3500 
L 1753 1863 
L 3688 0 
L 2938 0 
L 1159 1709 
L 1159 0 
L 581 0 
L 581 4863 
z
" transform="scale(0.015625)"/>
       <path id="DejaVuSans-77" d="M 269 3500 
L 844 3500 
L 1563 769 
L 2278 3500 
L 2956 3500 
L 3675 769 
L 4391 3500 
L 4966 3500 
L 4050 0 
L 3372 0 
L 2619 2869 
L 1863 0 
L 1184 0 
L 269 3500 
z
" transform="scale(0.015625)"/>
      </defs>
      <use xlink:href="#DejaVuSans-43"/>
      <use xlink:href="#DejaVuSans-6f" x="69.824219"/>
      <use xlink:href="#DejaVuSans-6e" x="131.005859"/>
      <use xlink:href="#DejaVuSans-73" x="194.384766"/>
      <use xlink:href="#DejaVuSans-65" x="246.484375"/>
      <use xlink:href="#DejaVuSans-72" x="308.007812"/>
      <use xlink:href="#DejaVuSans-76" x="349.121094"/>
      <use xlink:href="#DejaVuSans-65" x="408.300781"/>
      <use xlink:href="#DejaVuSans-64" x="469.824219"/>
      <use xlink:href="#DejaVuSans-20" x="533.300781"/>
      <use xlink:href="#DejaVuSans-75" x="565.087891"/>
      <use xlink:href="#DejaVuSans-6e" x="628.466797"/>
      <use xlink:href="#DejaVuSans-6b" x="691.845703"/>
      <use xlink:href="#DejaVuSans-6e" x="749.755859"/>
      <use xlink:href="#DejaVuSans-6f" x="813.134766"/>
      <use xlink:href="#DejaVuSans-77" x="874.316406"/>
      <use xlink:href="#DejaVuSans-6e" x="956.103516"/>
     </g>
    </g>
    <g id="patch_11">
     <path d="M 240.153594 37.880313 
L 260.153594 37.880313 
L 260.153594 30.880313 
L 240.153594 30.880313 
z
" style="fill: #88bb92"/>
    </g>
    <g id="text_22">
     <!-- Fission yeast unknown -->
     <g transform="translate(268.153594 37.880313) scale(0.1 -0.1)">
      <defs>
       <path id="DejaVuSans-46" d="M 628 4666 
L 3309 4666 
L 3309 4134 
L 1259 4134 
L 1259 2759 
L 3109 2759 
L 3109 2228 
L 1259 2228 
L 1259 0 
L 628 0 
L 628 4666 
z
" transform="scale(0.015625)"/>
       <path id="DejaVuSans-79" d="M 2059 -325 
Q 1816 -950 1584 -1140 
Q 1353 -1331 966 -1331 
L 506 -1331 
L 506 -850 
L 844 -850 
Q 1081 -850 1212 -737 
Q 1344 -625 1503 -206 
L 1606 56 
L 191 3500 
L 800 3500 
L 1894 763 
L 2988 3500 
L 3597 3500 
L 2059 -325 
z
" transform="scale(0.015625)"/>
      </defs>
      <use xlink:href="#DejaVuSans-46"/>
      <use xlink:href="#DejaVuSans-69" x="50.269531"/>
      <use xlink:href="#DejaVuSans-73" x="78.052734"/>
      <use xlink:href="#DejaVuSans-73" x="130.152344"/>
      <use xlink:href="#DejaVuSans-69" x="182.251953"/>
      <use xlink:href="#DejaVuSans-6f" x="210.035156"/>
      <use xlink:href="#DejaVuSans-6e" x="271.216797"/>
      <use xlink:href="#DejaVuSans-20" x="334.595703"/>
      <use xlink:href="#DejaVuSans-79" x="366.382812"/>
      <use xlink:href="#DejaVuSans-65" x="425.5625"/>
      <use xlink:href="#DejaVuSans-61" x="487.085938"/>
      <use xlink:href="#DejaVuSans-73" x="548.365234"/>
      <use xlink:href="#DejaVuSans-74" x="600.464844"/>
      <use xlink:href="#DejaVuSans-20" x="639.673828"/>
      <use xlink:href="#DejaVuSans-75" x="671.460938"/>
      <use xlink:href="#DejaVuSans-6e" x="734.839844"/>
      <use xlink:href="#DejaVuSans-6b" x="798.21875"/>
      <use xlink:href="#DejaVuSans-6e" x="856.128906"/>
      <use xlink:href="#DejaVuSans-6f" x="919.507812"/>
      <use xlink:href="#DejaVuSans-77" x="980.689453"/>
      <use xlink:href="#DejaVuSans-6e" x="1062.476562"/>
     </g>
    </g>
   </g>
  </g>
 </g>
 <defs>
  <clipPath id="p90a5e090a4">
   <rect x="61.49" y="48.96" width="388.51" height="250.36"/>
  </clipPath>
 </defs>
</svg>
