<?xml version="1.0" encoding="utf-8" standalone="no"?>
<!DOCTYPE svg PUBLIC "-//W3C//DTD SVG 1.1//EN"
  "http://www.w3.org/Graphics/SVG/1.1/DTD/svg11.dtd">
<svg xmlns:xlink="http://www.w3.org/1999/xlink" width="460.8pt" height="345.6pt" viewBox="0 0 460.8 345.6" xmlns="http://www.w3.org/2000/svg" version="1.1">
 <metadata>
  <rdf:RDF xmlns:dc="http://purl.org/dc/elements/1.1/" xmlns:cc="http://creativecommons.org/ns#" xmlns:rdf="http://www.w3.org/1999/02/22-rdf-syntax-ns#">
   <cc:Work>
    <dc:type rdf:resource="http://purl.org/dc/dcmitype/StillImage"/>
    <dc:date>2025-03-02T00:45:46.076986</dc:date>
    <dc:format>image/svg+xml</dc:format>
    <dc:creator>
     <cc:Agent>
      <dc:title>Matplotlib v3.7.1, https://matplotlib.org/</dc:title>
     </cc:Agent>
    </dc:creator>
   </cc:Work>
  </rdf:RDF>
 </metadata>
 <defs>
  <style type="text/css">*{stroke-linejoin: round; stroke-linecap: butt}</style>
 </defs>
 <g id="figure_1">
  <g id="patch_1">
   <path d="M 0 345.6 
L 460.8 345.6 
L 460.8 0 
L 0 0 
z
" style="fill: #ffffff"/>
  </g>
  <g id="axes_1">
   <g id="patch_2">
    <path d="M 61.49 277.336752 
L 450 277.336752 
L 450 69.0817 
L 61.49 69.0817 
z
" style="fill: #ffffff"/>
   </g>
   <g id="PolyCollection_1">
    <path d="M 31.905538 224.4857 
L 31.905538 277.336752 
L 40.169627 277.336752 
L 48.335917 277.336752 
L 65.108595 277.336752 
L 84.57077 277.336752 
L 98.898452 277.336752 
L 107.79824 277.336752 
L 110.096537 277.336752 
L 114.350832 277.336752 
L 116.306829 277.336752 
L 116.551329 277.336752 
L 119.778725 277.336752 
L 120.610024 277.336752 
L 121.294623 277.336752 
L 122.125922 277.336752 
L 122.663821 277.336752 
L 123.49512 277.336752 
L 123.98412 277.336752 
L 124.864318 277.336752 
L 126.037917 277.336752 
L 126.967016 277.336752 
L 127.309315 277.336752 
L 128.287314 277.336752 
L 128.971913 277.336752 
L 129.705412 277.336752 
L 130.487811 277.336752 
L 131.025711 277.336752 
L 131.51471 277.336752 
L 132.883908 277.336752 
L 133.861907 277.336752 
L 134.595406 277.336752 
L 134.791006 277.336752 
L 135.475605 277.336752 
L 136.502503 277.336752 
L 137.578302 277.336752 
L 138.311801 277.336752 
L 139.3876 277.336752 
L 140.805698 277.336752 
L 142.761695 277.336752 
L 144.473193 277.336752 
L 145.940191 277.336752 
L 148.678588 277.336752 
L 149.852186 277.336752 
L 153.030682 277.336752 
L 155.08448 277.336752 
L 156.355878 277.336752 
L 157.138277 277.336752 
L 160.218973 277.336752 
L 161.930471 277.336752 
L 163.690868 277.336752 
L 167.162764 277.336752 
L 170.39016 277.336752 
L 170.928059 277.336752 
L 171.563758 277.336752 
L 172.541757 277.336752 
L 173.324156 277.336752 
L 175.720253 277.336752 
L 180.512447 277.336752 
L 181.441546 277.336752 
L 185.94034 277.336752 
L 186.967239 277.336752 
L 187.994137 277.336752 
L 189.656735 277.336752 
L 191.025933 277.336752 
L 192.346232 277.336752 
L 193.177531 277.336752 
L 195.867027 277.336752 
L 198.654323 277.336752 
L 200.023522 277.336752 
L 201.00152 277.336752 
L 202.224019 277.336752 
L 203.250918 277.336752 
L 204.473416 277.336752 
L 207.358512 277.336752 
L 208.87441 277.336752 
L 210.341408 277.336752 
L 211.857306 277.336752 
L 213.324305 277.336752 
L 214.840203 277.336752 
L 216.356101 277.336752 
L 217.774199 277.336752 
L 219.290097 277.336752 
L 220.757095 277.336752 
L 222.272993 277.336752 
L 223.739991 277.336752 
L 225.255889 277.336752 
L 226.771787 277.336752 
L 228.238785 277.336752 
L 229.754683 277.336752 
L 231.221682 277.336752 
L 232.73758 277.336752 
L 234.253478 277.336752 
L 235.622676 277.336752 
L 237.138574 277.336752 
L 238.605572 277.336752 
L 240.12147 277.336752 
L 241.588468 277.336752 
L 243.104366 277.336752 
L 244.620264 277.336752 
L 246.087262 277.336752 
L 247.60316 277.336752 
L 249.070159 277.336752 
L 250.586057 277.336752 
L 252.101955 277.336752 
L 253.471153 277.336752 
L 254.987051 277.336752 
L 256.454049 277.336752 
L 257.969947 277.336752 
L 259.436945 277.336752 
L 260.952843 277.336752 
L 262.468741 277.336752 
L 263.935739 277.336752 
L 265.451638 277.336752 
L 266.918636 277.336752 
L 268.434534 277.336752 
L 269.950432 277.336752 
L 271.31963 277.336752 
L 272.835528 277.336752 
L 274.302526 277.336752 
L 275.818424 277.336752 
L 277.285422 277.336752 
L 278.80132 277.336752 
L 280.317218 277.336752 
L 281.784216 277.336752 
L 283.300115 277.336752 
L 284.767113 277.336752 
L 286.283011 277.336752 
L 287.798909 277.336752 
L 289.217007 277.336752 
L 290.732905 277.336752 
L 292.199903 277.336752 
L 293.715801 277.336752 
L 295.182799 277.336752 
L 296.698697 277.336752 
L 298.214595 277.336752 
L 299.681593 277.336752 
L 301.197492 277.336752 
L 302.66449 277.336752 
L 304.180388 277.336752 
L 305.696286 277.336752 
L 307.065484 277.336752 
L 308.581382 277.336752 
L 310.04838 277.336752 
L 311.564278 277.336752 
L 313.031276 277.336752 
L 314.547174 277.336752 
L 316.063072 277.336752 
L 317.53007 277.336752 
L 319.045969 277.336752 
L 320.512967 277.336752 
L 322.028865 277.336752 
L 323.544763 277.336752 
L 324.913961 277.336752 
L 326.429859 277.336752 
L 327.896857 277.336752 
L 329.412755 277.336752 
L 330.879753 277.336752 
L 332.395651 277.336752 
L 333.911549 277.336752 
L 335.378548 277.336752 
L 336.894446 277.336752 
L 338.361444 277.336752 
L 339.877342 277.336752 
L 341.39324 277.336752 
L 342.762438 277.336752 
L 344.278336 277.336752 
L 345.745334 277.336752 
L 347.261232 277.336752 
L 348.72823 277.336752 
L 350.244128 277.336752 
L 351.760026 277.336752 
L 353.227025 277.336752 
L 354.742923 277.336752 
L 356.209921 277.336752 
L 357.725819 277.336752 
L 359.241717 277.336752 
L 360.659815 277.336752 
L 362.175713 277.336752 
L 363.642711 277.336752 
L 365.158609 277.336752 
L 366.625607 277.336752 
L 368.141505 277.336752 
L 369.657403 277.336752 
L 371.124402 277.336752 
L 372.6403 277.336752 
L 374.107298 277.336752 
L 375.623196 277.336752 
L 377.139094 277.336752 
L 378.508292 277.336752 
L 380.02419 277.336752 
L 381.491188 277.336752 
L 383.007086 277.336752 
L 384.474084 277.336752 
L 385.989982 277.336752 
L 387.50588 277.336752 
L 388.972879 277.336752 
L 390.488777 277.336752 
L 391.955775 277.336752 
L 393.471673 277.336752 
L 394.987571 277.336752 
L 396.356769 277.336752 
L 397.872667 277.336752 
L 399.339665 277.336752 
L 400.855563 277.336752 
L 402.322561 277.336752 
L 403.838459 277.336752 
L 405.354357 277.336752 
L 406.821356 277.336752 
L 408.337254 277.336752 
L 409.804252 277.336752 
L 411.32015 277.336752 
L 412.836048 277.336752 
L 414.205246 277.336752 
L 415.721144 277.336752 
L 417.188142 277.336752 
L 418.70404 277.336752 
L 420.171038 277.336752 
L 421.686936 277.336752 
L 423.202834 277.336752 
L 424.669833 277.336752 
L 426.185731 277.336752 
L 427.652729 277.336752 
L 429.168627 277.336752 
L 430.684525 277.336752 
L 432.102623 277.336752 
L 433.618521 277.336752 
L 435.085519 277.336752 
L 436.601417 277.336752 
L 438.068415 277.336752 
L 439.584313 277.336752 
L 441.100211 277.336752 
L 442.56721 277.336752 
L 444.083108 277.336752 
L 445.550106 277.336752 
L 447.066004 277.336752 
L 448.581902 277.336752 
L 449.9511 277.336752 
L 449.9511 170.14809 
L 449.9511 170.14809 
L 448.581902 171.165209 
L 447.066004 173.395046 
L 445.550106 174.177445 
L 444.083108 174.412165 
L 442.56721 174.412165 
L 441.100211 174.646885 
L 439.584313 174.646885 
L 438.068415 175.507523 
L 436.601417 176.055203 
L 435.085519 176.172563 
L 433.618521 176.289922 
L 432.102623 176.368162 
L 430.684525 178.05032 
L 429.168627 178.16768 
L 427.652729 178.2068 
L 426.185731 178.44152 
L 424.669833 178.55888 
L 423.202834 178.597999 
L 421.686936 178.715359 
L 420.171038 179.184799 
L 418.70404 179.419518 
L 417.188142 179.536878 
L 415.721144 179.536878 
L 414.205246 179.888958 
L 412.836048 180.475757 
L 411.32015 180.436637 
L 409.804252 180.553997 
L 408.337254 180.671357 
L 406.821356 180.906077 
L 405.354357 180.906077 
L 403.838459 180.945196 
L 402.322561 180.945196 
L 400.855563 180.906077 
L 399.339665 180.984316 
L 397.872667 180.906077 
L 396.356769 180.866957 
L 394.987571 180.906077 
L 393.471673 180.906077 
L 391.955775 181.101676 
L 390.488777 181.297276 
L 388.972879 181.610236 
L 387.50588 181.844955 
L 385.989982 181.805835 
L 384.474084 182.001435 
L 383.007086 182.275275 
L 381.491188 182.275275 
L 380.02419 182.431755 
L 378.508292 182.940314 
L 377.139094 183.057674 
L 375.623196 183.487993 
L 374.107298 183.527113 
L 372.6403 183.683593 
L 371.124402 183.761833 
L 369.657403 183.918313 
L 368.141505 183.957433 
L 366.625607 184.035672 
L 365.158609 184.035672 
L 363.642711 184.113912 
L 362.175713 184.465992 
L 360.659815 184.583352 
L 359.241717 184.661592 
L 357.725819 184.739832 
L 356.209921 184.739832 
L 354.742923 184.739832 
L 353.227025 184.857191 
L 351.760026 184.935431 
L 350.244128 185.091911 
L 348.72823 185.326631 
L 347.261232 185.443991 
L 345.745334 185.522231 
L 344.278336 185.60047 
L 342.762438 185.63959 
L 341.39324 185.63959 
L 339.877342 185.67871 
L 338.361444 185.71783 
L 336.894446 185.79607 
L 335.378548 185.83519 
L 333.911549 185.83519 
L 332.395651 185.95255 
L 330.879753 186.06991 
L 329.412755 186.30463 
L 327.896857 186.461109 
L 326.429859 186.774069 
L 324.913961 186.930549 
L 323.544763 187.087029 
L 322.028865 187.126149 
L 320.512967 187.282628 
L 319.045969 187.439108 
L 317.53007 189.160386 
L 316.063072 189.434226 
L 314.547174 190.177505 
L 313.031276 189.551585 
L 311.564278 189.473346 
L 310.04838 189.512465 
L 308.581382 189.590705 
L 307.065484 189.864545 
L 305.696286 189.903665 
L 304.180388 189.981905 
L 302.66449 190.725184 
L 301.197492 190.842544 
L 299.681593 191.038143 
L 298.214595 191.116383 
L 296.698697 191.233743 
L 295.182799 191.664063 
L 293.715801 191.859662 
L 292.199903 191.859662 
L 290.732905 192.250862 
L 289.217007 192.329102 
L 287.798909 192.368222 
L 286.283011 192.563822 
L 284.767113 192.642061 
L 283.300115 192.642061 
L 281.784216 192.837661 
L 280.317218 192.876781 
L 278.80132 192.915901 
L 277.285422 193.072381 
L 275.818424 193.189741 
L 274.302526 192.602941 
L 272.835528 192.681181 
L 271.31963 192.876781 
L 269.950432 192.876781 
L 268.434534 193.111501 
L 266.918636 193.267981 
L 265.451638 193.54182 
L 263.935739 193.8939 
L 262.468741 194.206859 
L 260.952843 194.285099 
L 259.436945 194.558939 
L 257.969947 194.793659 
L 256.454049 195.145738 
L 254.987051 195.302218 
L 253.471153 195.497818 
L 252.101955 195.536938 
L 250.586057 195.536938 
L 249.070159 195.732537 
L 247.60316 196.201977 
L 246.087262 196.241097 
L 244.620264 196.475816 
L 243.104366 197.140856 
L 241.588468 197.219096 
L 240.12147 197.688535 
L 238.605572 198.001495 
L 237.138574 199.057733 
L 235.622676 199.135973 
L 234.253478 199.253333 
L 232.73758 199.527173 
L 231.221682 199.605412 
L 229.754683 199.840132 
L 228.238785 200.035732 
L 226.771787 200.387811 
L 225.255889 200.583411 
L 223.739991 200.700771 
L 222.272993 200.935491 
L 220.757095 200.974611 
L 219.290097 201.091971 
L 217.774199 201.24845 
L 216.356101 201.24845 
L 214.840203 201.32669 
L 213.324305 201.36581 
L 211.857306 201.40493 
L 210.341408 201.44405 
L 208.87441 201.48317 
L 207.358512 201.60053 
L 204.473416 202.343809 
L 203.250918 202.539409 
L 202.224019 202.578529 
L 201.00152 202.461169 
L 200.023522 202.461169 
L 198.654323 202.578529 
L 195.867027 202.695888 
L 193.177531 203.321808 
L 192.346232 204.260686 
L 191.025933 204.104207 
L 189.656735 204.065087 
L 187.994137 204.769246 
L 186.967239 204.769246 
L 185.94034 204.534526 
L 181.441546 205.043085 
L 180.512447 205.121325 
L 175.720253 205.786365 
L 173.324156 205.864604 
L 172.541757 205.708125 
L 171.563758 205.825484 
L 170.928059 206.021084 
L 170.39016 206.060204 
L 167.162764 206.177564 
L 163.690868 206.255804 
L 161.930471 206.451404 
L 160.218973 208.524761 
L 157.138277 208.446521 
L 156.355878 208.485641 
L 155.08448 208.91596 
L 153.030682 210.011319 
L 149.852186 210.246039 
L 148.678588 210.637238 
L 145.940191 210.911078 
L 144.473193 211.732597 
L 142.761695 212.280276 
L 140.805698 212.710596 
L 139.3876 212.749716 
L 138.311801 212.827955 
L 137.578302 212.867075 
L 136.502503 212.906195 
L 135.475605 213.610354 
L 134.791006 213.962434 
L 134.595406 213.962434 
L 133.861907 213.962434 
L 132.883908 214.197154 
L 131.51471 213.962434 
L 131.025711 214.158034 
L 130.487811 214.236274 
L 129.705412 214.353633 
L 128.971913 214.353633 
L 128.287314 214.666593 
L 127.309315 215.370752 
L 126.967016 215.331632 
L 126.037917 215.683712 
L 124.864318 215.761952 
L 123.98412 215.840192 
L 123.49512 215.918431 
L 122.663821 216.035791 
L 122.125922 216.270511 
L 121.294623 216.466111 
L 120.610024 216.387871 
L 119.778725 216.466111 
L 116.551329 216.73995 
L 116.306829 216.70083 
L 114.350832 217.01379 
L 110.096537 215.136032 
L 107.79824 217.913549 
L 98.898452 221.551704 
L 84.57077 224.95514 
L 65.108595 229.336574 
L 48.335917 224.290101 
L 40.169627 223.664181 
L 31.905538 224.4857 
z
" clip-path="url(#pfd570cefa4)" style="fill: #fb363b"/>
   </g>
   <g id="PolyCollection_2">
    <path d="M 31.905538 144.055084 
L 31.905538 224.4857 
L 40.169627 223.664181 
L 48.335917 224.290101 
L 65.108595 229.336574 
L 84.57077 224.95514 
L 98.898452 221.551704 
L 107.79824 217.913549 
L 110.096537 215.136032 
L 114.350832 217.01379 
L 116.306829 216.70083 
L 116.551329 216.73995 
L 119.778725 216.466111 
L 120.610024 216.387871 
L 121.294623 216.466111 
L 122.125922 216.270511 
L 122.663821 216.035791 
L 123.49512 215.918431 
L 123.98412 215.840192 
L 124.864318 215.761952 
L 126.037917 215.683712 
L 126.967016 215.331632 
L 127.309315 215.370752 
L 128.287314 214.666593 
L 128.971913 214.353633 
L 129.705412 214.353633 
L 130.487811 214.236274 
L 131.025711 214.158034 
L 131.51471 213.962434 
L 132.883908 214.197154 
L 133.861907 213.962434 
L 134.595406 213.962434 
L 134.791006 213.962434 
L 135.475605 213.610354 
L 136.502503 212.906195 
L 137.578302 212.867075 
L 138.311801 212.827955 
L 139.3876 212.749716 
L 140.805698 212.710596 
L 142.761695 212.280276 
L 144.473193 211.732597 
L 145.940191 210.911078 
L 148.678588 210.637238 
L 149.852186 210.246039 
L 153.030682 210.011319 
L 155.08448 208.91596 
L 156.355878 208.485641 
L 157.138277 208.446521 
L 160.218973 208.524761 
L 161.930471 206.451404 
L 163.690868 206.255804 
L 167.162764 206.177564 
L 170.39016 206.060204 
L 170.928059 206.021084 
L 171.563758 205.825484 
L 172.541757 205.708125 
L 173.324156 205.864604 
L 175.720253 205.786365 
L 180.512447 205.121325 
L 181.441546 205.043085 
L 185.94034 204.534526 
L 186.967239 204.769246 
L 187.994137 204.769246 
L 189.656735 204.065087 
L 191.025933 204.104207 
L 192.346232 204.260686 
L 193.177531 203.321808 
L 195.867027 202.695888 
L 198.654323 202.578529 
L 200.023522 202.461169 
L 201.00152 202.461169 
L 202.224019 202.578529 
L 203.250918 202.539409 
L 204.473416 202.343809 
L 207.358512 201.60053 
L 208.87441 201.48317 
L 210.341408 201.44405 
L 211.857306 201.40493 
L 213.324305 201.36581 
L 214.840203 201.32669 
L 216.356101 201.24845 
L 217.774199 201.24845 
L 219.290097 201.091971 
L 220.757095 200.974611 
L 222.272993 200.935491 
L 223.739991 200.700771 
L 225.255889 200.583411 
L 226.771787 200.387811 
L 228.238785 200.035732 
L 229.754683 199.840132 
L 231.221682 199.605412 
L 232.73758 199.527173 
L 234.253478 199.253333 
L 235.622676 199.135973 
L 237.138574 199.057733 
L 238.605572 198.001495 
L 240.12147 197.688535 
L 241.588468 197.219096 
L 243.104366 197.140856 
L 244.620264 196.475816 
L 246.087262 196.241097 
L 247.60316 196.201977 
L 249.070159 195.732537 
L 250.586057 195.536938 
L 252.101955 195.536938 
L 253.471153 195.497818 
L 254.987051 195.302218 
L 256.454049 195.145738 
L 257.969947 194.793659 
L 259.436945 194.558939 
L 260.952843 194.285099 
L 262.468741 194.206859 
L 263.935739 193.8939 
L 265.451638 193.54182 
L 266.918636 193.267981 
L 268.434534 193.111501 
L 269.950432 192.876781 
L 271.31963 192.876781 
L 272.835528 192.681181 
L 274.302526 192.602941 
L 275.818424 193.189741 
L 277.285422 193.072381 
L 278.80132 192.915901 
L 280.317218 192.876781 
L 281.784216 192.837661 
L 283.300115 192.642061 
L 284.767113 192.642061 
L 286.283011 192.563822 
L 287.798909 192.368222 
L 289.217007 192.329102 
L 290.732905 192.250862 
L 292.199903 191.859662 
L 293.715801 191.859662 
L 295.182799 191.664063 
L 296.698697 191.233743 
L 298.214595 191.116383 
L 299.681593 191.038143 
L 301.197492 190.842544 
L 302.66449 190.725184 
L 304.180388 189.981905 
L 305.696286 189.903665 
L 307.065484 189.864545 
L 308.581382 189.590705 
L 310.04838 189.512465 
L 311.564278 189.473346 
L 313.031276 189.551585 
L 314.547174 190.177505 
L 316.063072 189.434226 
L 317.53007 189.160386 
L 319.045969 187.439108 
L 320.512967 187.282628 
L 322.028865 187.126149 
L 323.544763 187.087029 
L 324.913961 186.930549 
L 326.429859 186.774069 
L 327.896857 186.461109 
L 329.412755 186.30463 
L 330.879753 186.06991 
L 332.395651 185.95255 
L 333.911549 185.83519 
L 335.378548 185.83519 
L 336.894446 185.79607 
L 338.361444 185.71783 
L 339.877342 185.67871 
L 341.39324 185.63959 
L 342.762438 185.63959 
L 344.278336 185.60047 
L 345.745334 185.522231 
L 347.261232 185.443991 
L 348.72823 185.326631 
L 350.244128 185.091911 
L 351.760026 184.935431 
L 353.227025 184.857191 
L 354.742923 184.739832 
L 356.209921 184.739832 
L 357.725819 184.739832 
L 359.241717 184.661592 
L 360.659815 184.583352 
L 362.175713 184.465992 
L 363.642711 184.113912 
L 365.158609 184.035672 
L 366.625607 184.035672 
L 368.141505 183.957433 
L 369.657403 183.918313 
L 371.124402 183.761833 
L 372.6403 183.683593 
L 374.107298 183.527113 
L 375.623196 183.487993 
L 377.139094 183.057674 
L 378.508292 182.940314 
L 380.02419 182.431755 
L 381.491188 182.275275 
L 383.007086 182.275275 
L 384.474084 182.001435 
L 385.989982 181.805835 
L 387.50588 181.844955 
L 388.972879 181.610236 
L 390.488777 181.297276 
L 391.955775 181.101676 
L 393.471673 180.906077 
L 394.987571 180.906077 
L 396.356769 180.866957 
L 397.872667 180.906077 
L 399.339665 180.984316 
L 400.855563 180.906077 
L 402.322561 180.945196 
L 403.838459 180.945196 
L 405.354357 180.906077 
L 406.821356 180.906077 
L 408.337254 180.671357 
L 409.804252 180.553997 
L 411.32015 180.436637 
L 412.836048 180.475757 
L 414.205246 179.888958 
L 415.721144 179.536878 
L 417.188142 179.536878 
L 418.70404 179.419518 
L 420.171038 179.184799 
L 421.686936 178.715359 
L 423.202834 178.597999 
L 424.669833 178.55888 
L 426.185731 178.44152 
L 427.652729 178.2068 
L 429.168627 178.16768 
L 430.684525 178.05032 
L 432.102623 176.368162 
L 433.618521 176.289922 
L 435.085519 176.172563 
L 436.601417 176.055203 
L 438.068415 175.507523 
L 439.584313 174.646885 
L 441.100211 174.646885 
L 442.56721 174.412165 
L 444.083108 174.412165 
L 445.550106 174.177445 
L 447.066004 173.395046 
L 448.581902 171.165209 
L 449.9511 170.14809 
L 449.9511 102.001138 
L 449.9511 102.001138 
L 448.581902 102.040258 
L 447.066004 102.001138 
L 445.550106 102.548817 
L 444.083108 102.627057 
L 442.56721 102.744417 
L 441.100211 102.783537 
L 439.584313 103.018257 
L 438.068415 102.900897 
L 436.601417 102.861777 
L 435.085519 103.018257 
L 433.618521 103.096497 
L 432.102623 103.057377 
L 430.684525 103.331216 
L 429.168627 103.605056 
L 427.652729 103.605056 
L 426.185731 103.722416 
L 424.669833 103.878896 
L 423.202834 103.957136 
L 421.686936 103.957136 
L 420.171038 104.230975 
L 418.70404 104.465695 
L 417.188142 104.583055 
L 415.721144 104.583055 
L 414.205246 104.622175 
L 412.836048 104.778654 
L 411.32015 104.896014 
L 409.804252 104.974254 
L 408.337254 104.974254 
L 406.821356 105.013374 
L 405.354357 104.896014 
L 403.838459 104.935134 
L 402.322561 104.935134 
L 400.855563 105.130734 
L 399.339665 105.091614 
L 397.872667 105.091614 
L 396.356769 105.130734 
L 394.987571 105.208974 
L 393.471673 105.208974 
L 391.955775 105.326334 
L 390.488777 105.287214 
L 388.972879 105.404574 
L 387.50588 105.443694 
L 385.989982 105.482814 
L 384.474084 105.521934 
L 383.007086 105.561053 
L 381.491188 105.521934 
L 380.02419 105.639293 
L 378.508292 105.834893 
L 377.139094 105.991373 
L 375.623196 106.030493 
L 374.107298 106.030493 
L 372.6403 106.108733 
L 371.124402 106.147853 
L 369.657403 106.226093 
L 368.141505 106.226093 
L 366.625607 106.265213 
L 365.158609 106.304333 
L 363.642711 106.186973 
L 362.175713 106.147853 
L 360.659815 106.186973 
L 359.241717 106.108733 
L 357.725819 106.108733 
L 356.209921 106.108733 
L 354.742923 106.108733 
L 353.227025 106.108733 
L 351.760026 106.147853 
L 350.244128 106.108733 
L 348.72823 106.147853 
L 347.261232 106.147853 
L 345.745334 106.030493 
L 344.278336 106.030493 
L 342.762438 106.069613 
L 341.39324 106.069613 
L 339.877342 106.147853 
L 338.361444 106.147853 
L 336.894446 106.226093 
L 335.378548 106.226093 
L 333.911549 106.226093 
L 332.395651 106.265213 
L 330.879753 106.265213 
L 329.412755 106.265213 
L 327.896857 106.304333 
L 326.429859 106.343452 
L 324.913961 106.656412 
L 323.544763 106.773772 
L 322.028865 106.695532 
L 320.512967 106.773772 
L 319.045969 106.891132 
L 317.53007 106.930252 
L 316.063072 107.477931 
L 314.547174 107.790891 
L 313.031276 109.942488 
L 311.564278 111.155206 
L 310.04838 111.585526 
L 308.581382 111.585526 
L 307.065484 111.898485 
L 305.696286 111.820245 
L 304.180388 111.037846 
L 302.66449 111.233446 
L 301.197492 111.663766 
L 299.681593 111.663766 
L 298.214595 111.546406 
L 296.698697 111.702886 
L 295.182799 111.742006 
L 293.715801 111.742006 
L 292.199903 111.781125 
L 290.732905 111.859365 
L 289.217007 111.859365 
L 287.798909 111.898485 
L 286.283011 111.898485 
L 284.767113 112.015845 
L 283.300115 112.054965 
L 281.784216 112.094085 
L 280.317218 112.094085 
L 278.80132 112.054965 
L 277.285422 112.094085 
L 275.818424 112.054965 
L 274.302526 112.680884 
L 272.835528 112.641764 
L 271.31963 112.720004 
L 269.950432 112.798244 
L 268.434534 112.915604 
L 266.918636 112.876484 
L 265.451638 113.150324 
L 263.935739 113.267684 
L 262.468741 113.424163 
L 260.952843 113.619763 
L 259.436945 113.658883 
L 257.969947 113.580643 
L 256.454049 113.658883 
L 254.987051 113.698003 
L 253.471153 113.698003 
L 252.101955 113.698003 
L 250.586057 113.698003 
L 249.070159 113.854483 
L 247.60316 113.932723 
L 246.087262 114.167442 
L 244.620264 114.206562 
L 243.104366 114.441282 
L 241.588468 114.519522 
L 240.12147 114.754242 
L 238.605572 114.871602 
L 237.138574 115.028081 
L 235.622676 115.067201 
L 234.253478 115.106321 
L 232.73758 115.262801 
L 231.221682 115.262801 
L 229.754683 115.458401 
L 228.238785 115.73224 
L 226.771787 115.88872 
L 225.255889 116.0452 
L 223.739991 116.2408 
L 222.272993 116.31904 
L 220.757095 116.631999 
L 219.290097 116.631999 
L 217.774199 116.671119 
L 216.356101 116.671119 
L 214.840203 116.671119 
L 213.324305 116.671119 
L 211.857306 116.671119 
L 210.341408 116.710239 
L 208.87441 116.866719 
L 207.358512 116.944959 
L 204.473416 117.414398 
L 203.250918 118.001197 
L 202.224019 118.275037 
L 201.00152 117.727358 
L 200.023522 118.040317 
L 198.654323 118.157677 
L 195.867027 118.314157 
L 193.177531 118.314157 
L 192.346232 118.470637 
L 191.025933 118.979196 
L 189.656735 118.940076 
L 187.994137 119.839835 
L 186.967239 119.839835 
L 185.94034 120.270155 
L 181.441546 120.543994 
L 180.512447 120.622234 
L 175.720253 121.717593 
L 173.324156 122.695591 
L 172.541757 122.734711 
L 171.563758 122.734711 
L 170.928059 122.734711 
L 170.39016 122.773831 
L 167.162764 122.343512 
L 163.690868 122.852071 
L 161.930471 123.047671 
L 160.218973 123.243271 
L 157.138277 123.360631 
L 156.355878 123.43887 
L 155.08448 123.63447 
L 153.030682 123.94743 
L 149.852186 123.79095 
L 148.678588 124.10391 
L 145.940191 124.06479 
L 144.473193 123.98655 
L 142.761695 124.338629 
L 140.805698 124.260389 
L 139.3876 124.14303 
L 138.311801 124.416869 
L 137.578302 124.455989 
L 136.502503 123.71271 
L 135.475605 123.75183 
L 134.791006 123.90831 
L 134.595406 123.90831 
L 133.861907 123.86919 
L 132.883908 124.377749 
L 131.51471 123.83007 
L 131.025711 123.83007 
L 130.487811 123.86919 
L 129.705412 123.90831 
L 128.971913 123.71271 
L 128.287314 124.14303 
L 127.309315 124.260389 
L 126.967016 124.02567 
L 126.037917 124.18215 
L 124.864318 124.14303 
L 123.98412 124.651589 
L 123.49512 124.573349 
L 122.663821 124.573349 
L 122.125922 122.812951 
L 121.294623 123.204151 
L 120.610024 122.226152 
L 119.778725 121.991432 
L 116.551329 122.265272 
L 116.306829 122.108792 
L 114.350832 122.382632 
L 110.096537 124.14303 
L 107.79824 125.003668 
L 98.898452 127.077026 
L 84.57077 130.050142 
L 65.108595 133.844777 
L 48.335917 139.908369 
L 40.169627 143.742124 
L 31.905538 144.055084 
z
" clip-path="url(#pfd570cefa4)" style="fill: #fdc92c"/>
   </g>
   <g id="PolyCollection_3">
    <path d="M 31.905538 113.228564 
L 31.905538 144.055084 
L 40.169627 143.742124 
L 48.335917 139.908369 
L 65.108595 133.844777 
L 84.57077 130.050142 
L 98.898452 127.077026 
L 107.79824 125.003668 
L 110.096537 124.14303 
L 114.350832 122.382632 
L 116.306829 122.108792 
L 116.551329 122.265272 
L 119.778725 121.991432 
L 120.610024 122.226152 
L 121.294623 123.204151 
L 122.125922 122.812951 
L 122.663821 124.573349 
L 123.49512 124.573349 
L 123.98412 124.651589 
L 124.864318 124.14303 
L 126.037917 124.18215 
L 126.967016 124.02567 
L 127.309315 124.260389 
L 128.287314 124.14303 
L 128.971913 123.71271 
L 129.705412 123.90831 
L 130.487811 123.86919 
L 131.025711 123.83007 
L 131.51471 123.83007 
L 132.883908 124.377749 
L 133.861907 123.86919 
L 134.595406 123.90831 
L 134.791006 123.90831 
L 135.475605 123.75183 
L 136.502503 123.71271 
L 137.578302 124.455989 
L 138.311801 124.416869 
L 139.3876 124.14303 
L 140.805698 124.260389 
L 142.761695 124.338629 
L 144.473193 123.98655 
L 145.940191 124.06479 
L 148.678588 124.10391 
L 149.852186 123.79095 
L 153.030682 123.94743 
L 155.08448 123.63447 
L 156.355878 123.43887 
L 157.138277 123.360631 
L 160.218973 123.243271 
L 161.930471 123.047671 
L 163.690868 122.852071 
L 167.162764 122.343512 
L 170.39016 122.773831 
L 170.928059 122.734711 
L 171.563758 122.734711 
L 172.541757 122.734711 
L 173.324156 122.695591 
L 175.720253 121.717593 
L 180.512447 120.622234 
L 181.441546 120.543994 
L 185.94034 120.270155 
L 186.967239 119.839835 
L 187.994137 119.839835 
L 189.656735 118.940076 
L 191.025933 118.979196 
L 192.346232 118.470637 
L 193.177531 118.314157 
L 195.867027 118.314157 
L 198.654323 118.157677 
L 200.023522 118.040317 
L 201.00152 117.727358 
L 202.224019 118.275037 
L 203.250918 118.001197 
L 204.473416 117.414398 
L 207.358512 116.944959 
L 208.87441 116.866719 
L 210.341408 116.710239 
L 211.857306 116.671119 
L 213.324305 116.671119 
L 214.840203 116.671119 
L 216.356101 116.671119 
L 217.774199 116.671119 
L 219.290097 116.631999 
L 220.757095 116.631999 
L 222.272993 116.31904 
L 223.739991 116.2408 
L 225.255889 116.0452 
L 226.771787 115.88872 
L 228.238785 115.73224 
L 229.754683 115.458401 
L 231.221682 115.262801 
L 232.73758 115.262801 
L 234.253478 115.106321 
L 235.622676 115.067201 
L 237.138574 115.028081 
L 238.605572 114.871602 
L 240.12147 114.754242 
L 241.588468 114.519522 
L 243.104366 114.441282 
L 244.620264 114.206562 
L 246.087262 114.167442 
L 247.60316 113.932723 
L 249.070159 113.854483 
L 250.586057 113.698003 
L 252.101955 113.698003 
L 253.471153 113.698003 
L 254.987051 113.698003 
L 256.454049 113.658883 
L 257.969947 113.580643 
L 259.436945 113.658883 
L 260.952843 113.619763 
L 262.468741 113.424163 
L 263.935739 113.267684 
L 265.451638 113.150324 
L 266.918636 112.876484 
L 268.434534 112.915604 
L 269.950432 112.798244 
L 271.31963 112.720004 
L 272.835528 112.641764 
L 274.302526 112.680884 
L 275.818424 112.054965 
L 277.285422 112.094085 
L 278.80132 112.054965 
L 280.317218 112.094085 
L 281.784216 112.094085 
L 283.300115 112.054965 
L 284.767113 112.015845 
L 286.283011 111.898485 
L 287.798909 111.898485 
L 289.217007 111.859365 
L 290.732905 111.859365 
L 292.199903 111.781125 
L 293.715801 111.742006 
L 295.182799 111.742006 
L 296.698697 111.702886 
L 298.214595 111.546406 
L 299.681593 111.663766 
L 301.197492 111.663766 
L 302.66449 111.233446 
L 304.180388 111.037846 
L 305.696286 111.820245 
L 307.065484 111.898485 
L 308.581382 111.585526 
L 310.04838 111.585526 
L 311.564278 111.155206 
L 313.031276 109.942488 
L 314.547174 107.790891 
L 316.063072 107.477931 
L 317.53007 106.930252 
L 319.045969 106.891132 
L 320.512967 106.773772 
L 322.028865 106.695532 
L 323.544763 106.773772 
L 324.913961 106.656412 
L 326.429859 106.343452 
L 327.896857 106.304333 
L 329.412755 106.265213 
L 330.879753 106.265213 
L 332.395651 106.265213 
L 333.911549 106.226093 
L 335.378548 106.226093 
L 336.894446 106.226093 
L 338.361444 106.147853 
L 339.877342 106.147853 
L 341.39324 106.069613 
L 342.762438 106.069613 
L 344.278336 106.030493 
L 345.745334 106.030493 
L 347.261232 106.147853 
L 348.72823 106.147853 
L 350.244128 106.108733 
L 351.760026 106.147853 
L 353.227025 106.108733 
L 354.742923 106.108733 
L 356.209921 106.108733 
L 357.725819 106.108733 
L 359.241717 106.108733 
L 360.659815 106.186973 
L 362.175713 106.147853 
L 363.642711 106.186973 
L 365.158609 106.304333 
L 366.625607 106.265213 
L 368.141505 106.226093 
L 369.657403 106.226093 
L 371.124402 106.147853 
L 372.6403 106.108733 
L 374.107298 106.030493 
L 375.623196 106.030493 
L 377.139094 105.991373 
L 378.508292 105.834893 
L 380.02419 105.639293 
L 381.491188 105.521934 
L 383.007086 105.561053 
L 384.474084 105.521934 
L 385.989982 105.482814 
L 387.50588 105.443694 
L 388.972879 105.404574 
L 390.488777 105.287214 
L 391.955775 105.326334 
L 393.471673 105.208974 
L 394.987571 105.208974 
L 396.356769 105.130734 
L 397.872667 105.091614 
L 399.339665 105.091614 
L 400.855563 105.130734 
L 402.322561 104.935134 
L 403.838459 104.935134 
L 405.354357 104.896014 
L 406.821356 105.013374 
L 408.337254 104.974254 
L 409.804252 104.974254 
L 411.32015 104.896014 
L 412.836048 104.778654 
L 414.205246 104.622175 
L 415.721144 104.583055 
L 417.188142 104.583055 
L 418.70404 104.465695 
L 420.171038 104.230975 
L 421.686936 103.957136 
L 423.202834 103.957136 
L 424.669833 103.878896 
L 426.185731 103.722416 
L 427.652729 103.605056 
L 429.168627 103.605056 
L 430.684525 103.331216 
L 432.102623 103.057377 
L 433.618521 103.096497 
L 435.085519 103.018257 
L 436.601417 102.861777 
L 438.068415 102.900897 
L 439.584313 103.018257 
L 441.100211 102.783537 
L 442.56721 102.744417 
L 444.083108 102.627057 
L 445.550106 102.548817 
L 447.066004 102.001138 
L 448.581902 102.040258 
L 449.9511 102.001138 
L 449.9511 89.052435 
L 449.9511 89.052435 
L 448.581902 89.052435 
L 447.066004 89.052435 
L 445.550106 89.052435 
L 444.083108 89.052435 
L 442.56721 89.052435 
L 441.100211 89.013315 
L 439.584313 89.365394 
L 438.068415 89.600114 
L 436.601417 89.600114 
L 435.085519 89.639234 
L 433.618521 89.639234 
L 432.102623 89.639234 
L 430.684525 89.678354 
L 429.168627 89.678354 
L 427.652729 89.678354 
L 426.185731 89.717474 
L 424.669833 89.717474 
L 423.202834 89.717474 
L 421.686936 89.717474 
L 420.171038 89.795714 
L 418.70404 89.795714 
L 417.188142 89.795714 
L 415.721144 89.795714 
L 414.205246 89.795714 
L 412.836048 89.834834 
L 411.32015 89.834834 
L 409.804252 89.913074 
L 408.337254 89.913074 
L 406.821356 89.952194 
L 405.354357 89.952194 
L 403.838459 89.952194 
L 402.322561 89.952194 
L 400.855563 90.030433 
L 399.339665 90.108673 
L 397.872667 90.108673 
L 396.356769 90.108673 
L 394.987571 90.108673 
L 393.471673 90.108673 
L 391.955775 90.147793 
L 390.488777 90.108673 
L 388.972879 90.186913 
L 387.50588 90.186913 
L 385.989982 90.186913 
L 384.474084 90.226033 
L 383.007086 90.226033 
L 381.491188 90.226033 
L 380.02419 90.265153 
L 378.508292 90.304273 
L 377.139094 90.343393 
L 375.623196 90.343393 
L 374.107298 90.304273 
L 372.6403 90.304273 
L 371.124402 90.304273 
L 369.657403 90.265153 
L 368.141505 90.265153 
L 366.625607 90.304273 
L 365.158609 90.304273 
L 363.642711 90.226033 
L 362.175713 90.186913 
L 360.659815 90.186913 
L 359.241717 90.226033 
L 357.725819 90.226033 
L 356.209921 90.226033 
L 354.742923 90.226033 
L 353.227025 90.226033 
L 351.760026 90.226033 
L 350.244128 90.226033 
L 348.72823 90.226033 
L 347.261232 90.226033 
L 345.745334 90.147793 
L 344.278336 90.147793 
L 342.762438 90.147793 
L 341.39324 90.147793 
L 339.877342 90.108673 
L 338.361444 90.108673 
L 336.894446 90.186913 
L 335.378548 90.186913 
L 333.911549 90.186913 
L 332.395651 90.226033 
L 330.879753 90.226033 
L 329.412755 90.226033 
L 327.896857 90.265153 
L 326.429859 90.304273 
L 324.913961 90.382513 
L 323.544763 90.382513 
L 322.028865 90.382513 
L 320.512967 90.538993 
L 319.045969 90.538993 
L 317.53007 90.538993 
L 316.063072 90.421633 
L 314.547174 90.460753 
L 313.031276 90.656353 
L 311.564278 91.595231 
L 310.04838 91.751711 
L 308.581382 91.790831 
L 307.065484 91.829951 
L 305.696286 91.829951 
L 304.180388 91.829951 
L 302.66449 91.829951 
L 301.197492 91.869071 
L 299.681593 91.869071 
L 298.214595 91.908191 
L 296.698697 91.947311 
L 295.182799 91.986431 
L 293.715801 91.986431 
L 292.199903 91.986431 
L 290.732905 91.986431 
L 289.217007 91.986431 
L 287.798909 92.025551 
L 286.283011 92.025551 
L 284.767113 92.064671 
L 283.300115 92.103791 
L 281.784216 92.103791 
L 280.317218 92.103791 
L 278.80132 92.103791 
L 277.285422 92.103791 
L 275.818424 92.103791 
L 274.302526 92.103791 
L 272.835528 92.103791 
L 271.31963 92.182031 
L 269.950432 92.182031 
L 268.434534 92.182031 
L 266.918636 92.221151 
L 265.451638 92.221151 
L 263.935739 92.260271 
L 262.468741 92.41675 
L 260.952843 93.355629 
L 259.436945 93.355629 
L 257.969947 93.355629 
L 256.454049 93.433869 
L 254.987051 93.433869 
L 253.471153 93.433869 
L 252.101955 93.433869 
L 250.586057 93.433869 
L 249.070159 93.433869 
L 247.60316 93.512109 
L 246.087262 93.433869 
L 244.620264 93.472989 
L 243.104366 93.551229 
L 241.588468 93.629469 
L 240.12147 93.825069 
L 238.605572 93.864189 
L 237.138574 93.864189 
L 235.622676 93.864189 
L 234.253478 93.864189 
L 232.73758 93.942428 
L 231.221682 93.942428 
L 229.754683 94.020668 
L 228.238785 94.020668 
L 226.771787 93.903308 
L 225.255889 93.981548 
L 223.739991 93.981548 
L 222.272993 93.981548 
L 220.757095 94.020668 
L 219.290097 94.020668 
L 217.774199 94.020668 
L 216.356101 94.059788 
L 214.840203 94.059788 
L 213.324305 94.098908 
L 211.857306 94.059788 
L 210.341408 94.059788 
L 208.87441 94.138028 
L 207.358512 94.177148 
L 204.473416 94.450988 
L 203.250918 95.037787 
L 202.224019 95.311627 
L 201.00152 94.685707 
L 200.023522 95.194267 
L 198.654323 95.233387 
L 195.867027 96.133146 
L 193.177531 96.133146 
L 192.346232 96.094026 
L 191.025933 96.250505 
L 189.656735 96.250505 
L 187.994137 96.328745 
L 186.967239 96.328745 
L 185.94034 96.367865 
L 181.441546 96.524345 
L 180.512447 96.524345 
L 175.720253 97.541464 
L 173.324156 97.658824 
L 172.541757 97.697944 
L 171.563758 97.815303 
L 170.928059 97.815303 
L 170.39016 97.815303 
L 167.162764 97.815303 
L 163.690868 98.050023 
L 161.930471 98.167383 
L 160.218973 98.206503 
L 157.138277 98.284743 
L 156.355878 98.402103 
L 155.08448 98.597702 
L 153.030682 98.832422 
L 149.852186 98.988902 
L 148.678588 99.614821 
L 145.940191 99.653941 
L 144.473193 99.927781 
L 142.761695 100.24074 
L 140.805698 100.31898 
L 139.3876 100.31898 
L 138.311801 100.31898 
L 137.578302 100.31898 
L 136.502503 100.47546 
L 135.475605 100.63194 
L 134.791006 100.7493 
L 134.595406 100.7493 
L 133.861907 100.71018 
L 132.883908 101.257859 
L 131.51471 100.78842 
L 131.025711 100.78842 
L 130.487811 100.86666 
L 129.705412 100.86666 
L 128.971913 100.86666 
L 128.287314 101.453459 
L 127.309315 101.453459 
L 126.967016 100.984019 
L 126.037917 101.570819 
L 124.864318 102.666177 
L 123.98412 103.565936 
L 123.49512 103.605056 
L 122.663821 103.605056 
L 122.125922 103.644176 
L 121.294623 104.230975 
L 120.610024 103.683296 
L 119.778725 103.683296 
L 116.551329 103.957136 
L 116.306829 103.996256 
L 114.350832 104.035375 
L 110.096537 101.453459 
L 107.79824 104.191855 
L 98.898452 106.069613 
L 84.57077 107.98649 
L 65.108595 109.316569 
L 48.335917 111.311686 
L 40.169627 113.658883 
L 31.905538 113.228564 
z
" clip-path="url(#pfd570cefa4)" style="fill: #aeaeae"/>
   </g>
   <g id="PolyCollection_4">
    <path d="M 31.905538 89.482754 
L 31.905538 113.228564 
L 40.169627 113.658883 
L 48.335917 111.311686 
L 65.108595 109.316569 
L 84.57077 107.98649 
L 98.898452 106.069613 
L 107.79824 104.191855 
L 110.096537 101.453459 
L 114.350832 104.035375 
L 116.306829 103.996256 
L 116.551329 103.957136 
L 119.778725 103.683296 
L 120.610024 103.683296 
L 121.294623 104.230975 
L 122.125922 103.644176 
L 122.663821 103.605056 
L 123.49512 103.605056 
L 123.98412 103.565936 
L 124.864318 102.666177 
L 126.037917 101.570819 
L 126.967016 100.984019 
L 127.309315 101.453459 
L 128.287314 101.453459 
L 128.971913 100.86666 
L 129.705412 100.86666 
L 130.487811 100.86666 
L 131.025711 100.78842 
L 131.51471 100.78842 
L 132.883908 101.257859 
L 133.861907 100.71018 
L 134.595406 100.7493 
L 134.791006 100.7493 
L 135.475605 100.63194 
L 136.502503 100.47546 
L 137.578302 100.31898 
L 138.311801 100.31898 
L 139.3876 100.31898 
L 140.805698 100.31898 
L 142.761695 100.24074 
L 144.473193 99.927781 
L 145.940191 99.653941 
L 148.678588 99.614821 
L 149.852186 98.988902 
L 153.030682 98.832422 
L 155.08448 98.597702 
L 156.355878 98.402103 
L 157.138277 98.284743 
L 160.218973 98.206503 
L 161.930471 98.167383 
L 163.690868 98.050023 
L 167.162764 97.815303 
L 170.39016 97.815303 
L 170.928059 97.815303 
L 171.563758 97.815303 
L 172.541757 97.697944 
L 173.324156 97.658824 
L 175.720253 97.541464 
L 180.512447 96.524345 
L 181.441546 96.524345 
L 185.94034 96.367865 
L 186.967239 96.328745 
L 187.994137 96.328745 
L 189.656735 96.250505 
L 191.025933 96.250505 
L 192.346232 96.094026 
L 193.177531 96.133146 
L 195.867027 96.133146 
L 198.654323 95.233387 
L 200.023522 95.194267 
L 201.00152 94.685707 
L 202.224019 95.311627 
L 203.250918 95.037787 
L 204.473416 94.450988 
L 207.358512 94.177148 
L 208.87441 94.138028 
L 210.341408 94.059788 
L 211.857306 94.059788 
L 213.324305 94.098908 
L 214.840203 94.059788 
L 216.356101 94.059788 
L 217.774199 94.020668 
L 219.290097 94.020668 
L 220.757095 94.020668 
L 222.272993 93.981548 
L 223.739991 93.981548 
L 225.255889 93.981548 
L 226.771787 93.903308 
L 228.238785 94.020668 
L 229.754683 94.020668 
L 231.221682 93.942428 
L 232.73758 93.942428 
L 234.253478 93.864189 
L 235.622676 93.864189 
L 237.138574 93.864189 
L 238.605572 93.864189 
L 240.12147 93.825069 
L 241.588468 93.629469 
L 243.104366 93.551229 
L 244.620264 93.472989 
L 246.087262 93.433869 
L 247.60316 93.512109 
L 249.070159 93.433869 
L 250.586057 93.433869 
L 252.101955 93.433869 
L 253.471153 93.433869 
L 254.987051 93.433869 
L 256.454049 93.433869 
L 257.969947 93.355629 
L 259.436945 93.355629 
L 260.952843 93.355629 
L 262.468741 92.41675 
L 263.935739 92.260271 
L 265.451638 92.221151 
L 266.918636 92.221151 
L 268.434534 92.182031 
L 269.950432 92.182031 
L 271.31963 92.182031 
L 272.835528 92.103791 
L 274.302526 92.103791 
L 275.818424 92.103791 
L 277.285422 92.103791 
L 278.80132 92.103791 
L 280.317218 92.103791 
L 281.784216 92.103791 
L 283.300115 92.103791 
L 284.767113 92.064671 
L 286.283011 92.025551 
L 287.798909 92.025551 
L 289.217007 91.986431 
L 290.732905 91.986431 
L 292.199903 91.986431 
L 293.715801 91.986431 
L 295.182799 91.986431 
L 296.698697 91.947311 
L 298.214595 91.908191 
L 299.681593 91.869071 
L 301.197492 91.869071 
L 302.66449 91.829951 
L 304.180388 91.829951 
L 305.696286 91.829951 
L 307.065484 91.829951 
L 308.581382 91.790831 
L 310.04838 91.751711 
L 311.564278 91.595231 
L 313.031276 90.656353 
L 314.547174 90.460753 
L 316.063072 90.421633 
L 317.53007 90.538993 
L 319.045969 90.538993 
L 320.512967 90.538993 
L 322.028865 90.382513 
L 323.544763 90.382513 
L 324.913961 90.382513 
L 326.429859 90.304273 
L 327.896857 90.265153 
L 329.412755 90.226033 
L 330.879753 90.226033 
L 332.395651 90.226033 
L 333.911549 90.186913 
L 335.378548 90.186913 
L 336.894446 90.186913 
L 338.361444 90.108673 
L 339.877342 90.108673 
L 341.39324 90.147793 
L 342.762438 90.147793 
L 344.278336 90.147793 
L 345.745334 90.147793 
L 347.261232 90.226033 
L 348.72823 90.226033 
L 350.244128 90.226033 
L 351.760026 90.226033 
L 353.227025 90.226033 
L 354.742923 90.226033 
L 356.209921 90.226033 
L 357.725819 90.226033 
L 359.241717 90.226033 
L 360.659815 90.186913 
L 362.175713 90.186913 
L 363.642711 90.226033 
L 365.158609 90.304273 
L 366.625607 90.304273 
L 368.141505 90.265153 
L 369.657403 90.265153 
L 371.124402 90.304273 
L 372.6403 90.304273 
L 374.107298 90.304273 
L 375.623196 90.343393 
L 377.139094 90.343393 
L 378.508292 90.304273 
L 380.02419 90.265153 
L 381.491188 90.226033 
L 383.007086 90.226033 
L 384.474084 90.226033 
L 385.989982 90.186913 
L 387.50588 90.186913 
L 388.972879 90.186913 
L 390.488777 90.108673 
L 391.955775 90.147793 
L 393.471673 90.108673 
L 394.987571 90.108673 
L 396.356769 90.108673 
L 397.872667 90.108673 
L 399.339665 90.108673 
L 400.855563 90.030433 
L 402.322561 89.952194 
L 403.838459 89.952194 
L 405.354357 89.952194 
L 406.821356 89.952194 
L 408.337254 89.913074 
L 409.804252 89.913074 
L 411.32015 89.834834 
L 412.836048 89.834834 
L 414.205246 89.795714 
L 415.721144 89.795714 
L 417.188142 89.795714 
L 418.70404 89.795714 
L 420.171038 89.795714 
L 421.686936 89.717474 
L 423.202834 89.717474 
L 424.669833 89.717474 
L 426.185731 89.717474 
L 427.652729 89.678354 
L 429.168627 89.678354 
L 430.684525 89.678354 
L 432.102623 89.639234 
L 433.618521 89.639234 
L 435.085519 89.639234 
L 436.601417 89.600114 
L 438.068415 89.600114 
L 439.584313 89.365394 
L 441.100211 89.013315 
L 442.56721 89.052435 
L 444.083108 89.052435 
L 445.550106 89.052435 
L 447.066004 89.052435 
L 448.581902 89.052435 
L 449.9511 89.052435 
L 449.9511 79.428927 
L 449.9511 79.428927 
L 448.581902 79.428927 
L 447.066004 79.428927 
L 445.550106 79.428927 
L 444.083108 79.428927 
L 442.56721 79.468047 
L 441.100211 79.468047 
L 439.584313 79.468047 
L 438.068415 79.507167 
L 436.601417 79.507167 
L 435.085519 79.507167 
L 433.618521 79.507167 
L 432.102623 79.507167 
L 430.684525 79.507167 
L 429.168627 79.507167 
L 427.652729 79.507167 
L 426.185731 79.507167 
L 424.669833 79.507167 
L 423.202834 79.507167 
L 421.686936 79.507167 
L 420.171038 79.507167 
L 418.70404 79.507167 
L 417.188142 79.507167 
L 415.721144 79.507167 
L 414.205246 79.507167 
L 412.836048 79.702767 
L 411.32015 79.741887 
L 409.804252 79.781007 
L 408.337254 79.781007 
L 406.821356 79.781007 
L 405.354357 79.781007 
L 403.838459 79.781007 
L 402.322561 79.781007 
L 400.855563 79.781007 
L 399.339665 79.781007 
L 397.872667 79.781007 
L 396.356769 79.820127 
L 394.987571 79.781007 
L 393.471673 79.781007 
L 391.955775 79.820127 
L 390.488777 79.546287 
L 388.972879 79.546287 
L 387.50588 79.194207 
L 385.989982 79.194207 
L 384.474084 79.194207 
L 383.007086 79.194207 
L 381.491188 79.194207 
L 380.02419 79.194207 
L 378.508292 79.233327 
L 377.139094 79.233327 
L 375.623196 79.233327 
L 374.107298 79.194207 
L 372.6403 79.194207 
L 371.124402 79.194207 
L 369.657403 79.233327 
L 368.141505 79.233327 
L 366.625607 79.233327 
L 365.158609 79.233327 
L 363.642711 79.155087 
L 362.175713 79.115968 
L 360.659815 79.115968 
L 359.241717 79.115968 
L 357.725819 79.115968 
L 356.209921 79.115968 
L 354.742923 79.115968 
L 353.227025 79.115968 
L 351.760026 79.115968 
L 350.244128 79.115968 
L 348.72823 79.115968 
L 347.261232 79.115968 
L 345.745334 79.037728 
L 344.278336 79.037728 
L 342.762438 79.037728 
L 341.39324 79.037728 
L 339.877342 79.037728 
L 338.361444 79.037728 
L 336.894446 79.037728 
L 335.378548 79.037728 
L 333.911549 79.037728 
L 332.395651 78.998608 
L 330.879753 78.998608 
L 329.412755 78.998608 
L 327.896857 78.998608 
L 326.429859 78.998608 
L 324.913961 78.998608 
L 323.544763 78.998608 
L 322.028865 78.998608 
L 320.512967 78.998608 
L 319.045969 78.998608 
L 317.53007 78.998608 
L 316.063072 78.998608 
L 314.547174 78.998608 
L 313.031276 78.998608 
L 311.564278 78.998608 
L 310.04838 78.998608 
L 308.581382 78.998608 
L 307.065484 78.998608 
L 305.696286 78.998608 
L 304.180388 78.998608 
L 302.66449 78.998608 
L 301.197492 78.998608 
L 299.681593 78.998608 
L 298.214595 78.998608 
L 296.698697 78.998608 
L 295.182799 78.998608 
L 293.715801 78.998608 
L 292.199903 78.998608 
L 290.732905 78.998608 
L 289.217007 79.350687 
L 287.798909 79.389807 
L 286.283011 79.389807 
L 284.767113 79.389807 
L 283.300115 79.546287 
L 281.784216 79.546287 
L 280.317218 79.546287 
L 278.80132 79.546287 
L 277.285422 79.546287 
L 275.818424 79.546287 
L 274.302526 79.546287 
L 272.835528 79.546287 
L 271.31963 79.546287 
L 269.950432 79.546287 
L 268.434534 79.546287 
L 266.918636 79.585407 
L 265.451638 79.585407 
L 263.935739 79.585407 
L 262.468741 79.585407 
L 260.952843 79.311567 
L 259.436945 79.468047 
L 257.969947 79.428927 
L 256.454049 79.428927 
L 254.987051 79.428927 
L 253.471153 79.428927 
L 252.101955 79.428927 
L 250.586057 79.428927 
L 249.070159 79.428927 
L 247.60316 79.468047 
L 246.087262 79.468047 
L 244.620264 79.468047 
L 243.104366 79.428927 
L 241.588468 79.428927 
L 240.12147 79.428927 
L 238.605572 79.428927 
L 237.138574 79.428927 
L 235.622676 79.428927 
L 234.253478 79.428927 
L 232.73758 79.428927 
L 231.221682 79.428927 
L 229.754683 79.428927 
L 228.238785 79.468047 
L 226.771787 79.428927 
L 225.255889 79.468047 
L 223.739991 79.428927 
L 222.272993 79.428927 
L 220.757095 79.428927 
L 219.290097 79.428927 
L 217.774199 79.428927 
L 216.356101 79.428927 
L 214.840203 79.468047 
L 213.324305 79.468047 
L 211.857306 79.428927 
L 210.341408 79.428927 
L 208.87441 79.428927 
L 207.358512 79.507167 
L 204.473416 79.781007 
L 203.250918 80.446046 
L 202.224019 80.524286 
L 201.00152 79.898367 
L 200.023522 81.424045 
L 198.654323 81.424045 
L 195.867027 82.832363 
L 193.177531 82.832363 
L 192.346232 82.793243 
L 191.025933 82.949723 
L 189.656735 82.910603 
L 187.994137 82.910603 
L 186.967239 82.910603 
L 185.94034 82.910603 
L 181.441546 83.223562 
L 180.512447 83.223562 
L 175.720253 83.419162 
L 173.324156 83.380042 
L 172.541757 83.380042 
L 171.563758 83.458282 
L 170.928059 83.458282 
L 170.39016 83.458282 
L 167.162764 84.005961 
L 163.690868 84.123321 
L 161.930471 84.123321 
L 160.218973 84.123321 
L 157.138277 84.123321 
L 156.355878 84.084201 
L 155.08448 84.084201 
L 153.030682 83.966841 
L 149.852186 83.927721 
L 148.678588 84.94484 
L 145.940191 85.0622 
L 144.473193 85.17956 
L 142.761695 85.0622 
L 140.805698 85.0622 
L 139.3876 85.02308 
L 138.311801 85.02308 
L 137.578302 85.02308 
L 136.502503 84.98396 
L 135.475605 84.98396 
L 134.791006 85.02308 
L 134.595406 85.02308 
L 133.861907 85.02308 
L 132.883908 85.453399 
L 131.51471 85.02308 
L 131.025711 85.02308 
L 130.487811 85.0622 
L 129.705412 84.98396 
L 128.971913 84.98396 
L 128.287314 85.375159 
L 127.309315 85.29692 
L 126.967016 84.8666 
L 126.037917 85.414279 
L 124.864318 85.2578 
L 123.98412 85.29692 
L 123.49512 85.29692 
L 122.663821 85.29692 
L 122.125922 85.33604 
L 121.294623 85.844599 
L 120.610024 85.29692 
L 119.778725 85.29692 
L 116.551329 86.274918 
L 116.306829 86.314038 
L 114.350832 86.274918 
L 110.096537 85.375159 
L 107.79824 86.274918 
L 98.898452 87.057317 
L 84.57077 87.487637 
L 65.108595 88.191796 
L 48.335917 88.622115 
L 40.169627 89.639234 
L 31.905538 89.482754 
z
" clip-path="url(#pfd570cefa4)" style="fill: #d5dce5"/>
   </g>
   <g id="matplotlib.axis_1">
    <g id="xtick_1">
     <g id="line2d_1">
      <defs>
       <path id="md9a18cc891" d="M 0 0 
L 0 3.5 
" style="stroke: #000000; stroke-width: 0.8"/>
      </defs>
      <g>
       <use xlink:href="#md9a18cc891" x="71.954587" y="277.336752" style="stroke: #000000; stroke-width: 0.8"/>
      </g>
     </g>
     <g id="text_1">
      <!-- 2004 -->
      <g transform="translate(59.229587 291.93519) scale(0.1 -0.1)">
       <defs>
        <path id="DejaVuSans-32" d="M 1228 531 
L 3431 531 
L 3431 0 
L 469 0 
L 469 531 
Q 828 903 1448 1529 
Q 2069 2156 2228 2338 
Q 2531 2678 2651 2914 
Q 2772 3150 2772 3378 
Q 2772 3750 2511 3984 
Q 2250 4219 1831 4219 
Q 1534 4219 1204 4116 
Q 875 4013 500 3803 
L 500 4441 
Q 881 4594 1212 4672 
Q 1544 4750 1819 4750 
Q 2544 4750 2975 4387 
Q 3406 4025 3406 3419 
Q 3406 3131 3298 2873 
Q 3191 2616 2906 2266 
Q 2828 2175 2409 1742 
Q 1991 1309 1228 531 
z
" transform="scale(0.015625)"/>
        <path id="DejaVuSans-30" d="M 2034 4250 
Q 1547 4250 1301 3770 
Q 1056 3291 1056 2328 
Q 1056 1369 1301 889 
Q 1547 409 2034 409 
Q 2525 409 2770 889 
Q 3016 1369 3016 2328 
Q 3016 3291 2770 3770 
Q 2525 4250 2034 4250 
z
M 2034 4750 
Q 2819 4750 3233 4129 
Q 3647 3509 3647 2328 
Q 3647 1150 3233 529 
Q 2819 -91 2034 -91 
Q 1250 -91 836 529 
Q 422 1150 422 2328 
Q 422 3509 836 4129 
Q 1250 4750 2034 4750 
z
" transform="scale(0.015625)"/>
        <path id="DejaVuSans-34" d="M 2419 4116 
L 825 1625 
L 2419 1625 
L 2419 4116 
z
M 2253 4666 
L 3047 4666 
L 3047 1625 
L 3713 1625 
L 3713 1100 
L 3047 1100 
L 3047 0 
L 2419 0 
L 2419 1100 
L 313 1100 
L 313 1709 
L 2253 4666 
z
" transform="scale(0.015625)"/>
       </defs>
       <use xlink:href="#DejaVuSans-32"/>
       <use xlink:href="#DejaVuSans-30" x="63.623047"/>
       <use xlink:href="#DejaVuSans-30" x="127.246094"/>
       <use xlink:href="#DejaVuSans-34" x="190.869141"/>
      </g>
     </g>
    </g>
    <g id="xtick_2">
     <g id="line2d_2">
      <g>
       <use xlink:href="#md9a18cc891" x="143.397395" y="277.336752" style="stroke: #000000; stroke-width: 0.8"/>
      </g>
     </g>
     <g id="text_2">
      <!-- 2008 -->
      <g transform="translate(130.672395 291.93519) scale(0.1 -0.1)">
       <defs>
        <path id="DejaVuSans-38" d="M 2034 2216 
Q 1584 2216 1326 1975 
Q 1069 1734 1069 1313 
Q 1069 891 1326 650 
Q 1584 409 2034 409 
Q 2484 409 2743 651 
Q 3003 894 3003 1313 
Q 3003 1734 2745 1975 
Q 2488 2216 2034 2216 
z
M 1403 2484 
Q 997 2584 770 2862 
Q 544 3141 544 3541 
Q 544 4100 942 4425 
Q 1341 4750 2034 4750 
Q 2731 4750 3128 4425 
Q 3525 4100 3525 3541 
Q 3525 3141 3298 2862 
Q 3072 2584 2669 2484 
Q 3125 2378 3379 2068 
Q 3634 1759 3634 1313 
Q 3634 634 3220 271 
Q 2806 -91 2034 -91 
Q 1263 -91 848 271 
Q 434 634 434 1313 
Q 434 1759 690 2068 
Q 947 2378 1403 2484 
z
M 1172 3481 
Q 1172 3119 1398 2916 
Q 1625 2713 2034 2713 
Q 2441 2713 2670 2916 
Q 2900 3119 2900 3481 
Q 2900 3844 2670 4047 
Q 2441 4250 2034 4250 
Q 1625 4250 1398 4047 
Q 1172 3844 1172 3481 
z
" transform="scale(0.015625)"/>
       </defs>
       <use xlink:href="#DejaVuSans-32"/>
       <use xlink:href="#DejaVuSans-30" x="63.623047"/>
       <use xlink:href="#DejaVuSans-30" x="127.246094"/>
       <use xlink:href="#DejaVuSans-38" x="190.869141"/>
      </g>
     </g>
    </g>
    <g id="xtick_3">
     <g id="line2d_3">
      <g>
       <use xlink:href="#md9a18cc891" x="214.840203" y="277.336752" style="stroke: #000000; stroke-width: 0.8"/>
      </g>
     </g>
     <g id="text_3">
      <!-- 2012 -->
      <g transform="translate(202.115203 291.93519) scale(0.1 -0.1)">
       <defs>
        <path id="DejaVuSans-31" d="M 794 531 
L 1825 531 
L 1825 4091 
L 703 3866 
L 703 4441 
L 1819 4666 
L 2450 4666 
L 2450 531 
L 3481 531 
L 3481 0 
L 794 0 
L 794 531 
z
" transform="scale(0.015625)"/>
       </defs>
       <use xlink:href="#DejaVuSans-32"/>
       <use xlink:href="#DejaVuSans-30" x="63.623047"/>
       <use xlink:href="#DejaVuSans-31" x="127.246094"/>
       <use xlink:href="#DejaVuSans-32" x="190.869141"/>
      </g>
     </g>
    </g>
    <g id="xtick_4">
     <g id="line2d_4">
      <g>
       <use xlink:href="#md9a18cc891" x="286.283011" y="277.336752" style="stroke: #000000; stroke-width: 0.8"/>
      </g>
     </g>
     <g id="text_4">
      <!-- 2016 -->
      <g transform="translate(273.558011 291.93519) scale(0.1 -0.1)">
       <defs>
        <path id="DejaVuSans-36" d="M 2113 2584 
Q 1688 2584 1439 2293 
Q 1191 2003 1191 1497 
Q 1191 994 1439 701 
Q 1688 409 2113 409 
Q 2538 409 2786 701 
Q 3034 994 3034 1497 
Q 3034 2003 2786 2293 
Q 2538 2584 2113 2584 
z
M 3366 4563 
L 3366 3988 
Q 3128 4100 2886 4159 
Q 2644 4219 2406 4219 
Q 1781 4219 1451 3797 
Q 1122 3375 1075 2522 
Q 1259 2794 1537 2939 
Q 1816 3084 2150 3084 
Q 2853 3084 3261 2657 
Q 3669 2231 3669 1497 
Q 3669 778 3244 343 
Q 2819 -91 2113 -91 
Q 1303 -91 875 529 
Q 447 1150 447 2328 
Q 447 3434 972 4092 
Q 1497 4750 2381 4750 
Q 2619 4750 2861 4703 
Q 3103 4656 3366 4563 
z
" transform="scale(0.015625)"/>
       </defs>
       <use xlink:href="#DejaVuSans-32"/>
       <use xlink:href="#DejaVuSans-30" x="63.623047"/>
       <use xlink:href="#DejaVuSans-31" x="127.246094"/>
       <use xlink:href="#DejaVuSans-36" x="190.869141"/>
      </g>
     </g>
    </g>
    <g id="xtick_5">
     <g id="line2d_5">
      <g>
       <use xlink:href="#md9a18cc891" x="357.725819" y="277.336752" style="stroke: #000000; stroke-width: 0.8"/>
      </g>
     </g>
     <g id="text_5">
      <!-- 2020 -->
      <g transform="translate(345.000819 291.93519) scale(0.1 -0.1)">
       <use xlink:href="#DejaVuSans-32"/>
       <use xlink:href="#DejaVuSans-30" x="63.623047"/>
       <use xlink:href="#DejaVuSans-32" x="127.246094"/>
       <use xlink:href="#DejaVuSans-30" x="190.869141"/>
      </g>
     </g>
    </g>
    <g id="xtick_6">
     <g id="line2d_6">
      <g>
       <use xlink:href="#md9a18cc891" x="429.168627" y="277.336752" style="stroke: #000000; stroke-width: 0.8"/>
      </g>
     </g>
     <g id="text_6">
      <!-- 2024 -->
      <g transform="translate(416.443627 291.93519) scale(0.1 -0.1)">
       <use xlink:href="#DejaVuSans-32"/>
       <use xlink:href="#DejaVuSans-30" x="63.623047"/>
       <use xlink:href="#DejaVuSans-32" x="127.246094"/>
       <use xlink:href="#DejaVuSans-34" x="190.869141"/>
      </g>
     </g>
    </g>
    <g id="text_7">
     <!-- Year -->
     <g transform="translate(239.86375 309.412534) scale(0.15 -0.15)">
      <defs>
       <path id="DejaVuSans-59" d="M -13 4666 
L 666 4666 
L 1959 2747 
L 3244 4666 
L 3922 4666 
L 2272 2222 
L 2272 0 
L 1638 0 
L 1638 2222 
L -13 4666 
z
" transform="scale(0.015625)"/>
       <path id="DejaVuSans-65" d="M 3597 1894 
L 3597 1613 
L 953 1613 
Q 991 1019 1311 708 
Q 1631 397 2203 397 
Q 2534 397 2845 478 
Q 3156 559 3463 722 
L 3463 178 
Q 3153 47 2828 -22 
Q 2503 -91 2169 -91 
Q 1331 -91 842 396 
Q 353 884 353 1716 
Q 353 2575 817 3079 
Q 1281 3584 2069 3584 
Q 2775 3584 3186 3129 
Q 3597 2675 3597 1894 
z
M 3022 2063 
Q 3016 2534 2758 2815 
Q 2500 3097 2075 3097 
Q 1594 3097 1305 2825 
Q 1016 2553 972 2059 
L 3022 2063 
z
" transform="scale(0.015625)"/>
       <path id="DejaVuSans-61" d="M 2194 1759 
Q 1497 1759 1228 1600 
Q 959 1441 959 1056 
Q 959 750 1161 570 
Q 1363 391 1709 391 
Q 2188 391 2477 730 
Q 2766 1069 2766 1631 
L 2766 1759 
L 2194 1759 
z
M 3341 1997 
L 3341 0 
L 2766 0 
L 2766 531 
Q 2569 213 2275 61 
Q 1981 -91 1556 -91 
Q 1019 -91 701 211 
Q 384 513 384 1019 
Q 384 1609 779 1909 
Q 1175 2209 1959 2209 
L 2766 2209 
L 2766 2266 
Q 2766 2663 2505 2880 
Q 2244 3097 1772 3097 
Q 1472 3097 1187 3025 
Q 903 2953 641 2809 
L 641 3341 
Q 956 3463 1253 3523 
Q 1550 3584 1831 3584 
Q 2591 3584 2966 3190 
Q 3341 2797 3341 1997 
z
" transform="scale(0.015625)"/>
       <path id="DejaVuSans-72" d="M 2631 2963 
Q 2534 3019 2420 3045 
Q 2306 3072 2169 3072 
Q 1681 3072 1420 2755 
Q 1159 2438 1159 1844 
L 1159 0 
L 581 0 
L 581 3500 
L 1159 3500 
L 1159 2956 
Q 1341 3275 1631 3429 
Q 1922 3584 2338 3584 
Q 2397 3584 2469 3576 
Q 2541 3569 2628 3553 
L 2631 2963 
z
" transform="scale(0.015625)"/>
      </defs>
      <use xlink:href="#DejaVuSans-59"/>
      <use xlink:href="#DejaVuSans-65" x="47.833984"/>
      <use xlink:href="#DejaVuSans-61" x="109.357422"/>
      <use xlink:href="#DejaVuSans-72" x="170.636719"/>
     </g>
    </g>
   </g>
   <g id="matplotlib.axis_2">
    <g id="ytick_1">
     <g id="line2d_7">
      <defs>
       <path id="mfa0fb836aa" d="M 0 0 
L -3.5 0 
" style="stroke: #000000; stroke-width: 0.8"/>
      </defs>
      <g>
       <use xlink:href="#mfa0fb836aa" x="61.49" y="277.336752" style="stroke: #000000; stroke-width: 0.8"/>
      </g>
     </g>
     <g id="text_8">
      <!-- 0 -->
      <g transform="translate(48.1275 281.135971) scale(0.1 -0.1)">
       <use xlink:href="#DejaVuSans-30"/>
      </g>
     </g>
    </g>
    <g id="ytick_2">
     <g id="line2d_8">
      <g>
       <use xlink:href="#mfa0fb836aa" x="61.49" y="238.216803" style="stroke: #000000; stroke-width: 0.8"/>
      </g>
     </g>
     <g id="text_9">
      <!-- 1000 -->
      <g transform="translate(29.04 242.016022) scale(0.1 -0.1)">
       <use xlink:href="#DejaVuSans-31"/>
       <use xlink:href="#DejaVuSans-30" x="63.623047"/>
       <use xlink:href="#DejaVuSans-30" x="127.246094"/>
       <use xlink:href="#DejaVuSans-30" x="190.869141"/>
      </g>
     </g>
    </g>
    <g id="ytick_3">
     <g id="line2d_9">
      <g>
       <use xlink:href="#mfa0fb836aa" x="61.49" y="199.096853" style="stroke: #000000; stroke-width: 0.8"/>
      </g>
     </g>
     <g id="text_10">
      <!-- 2000 -->
      <g transform="translate(29.04 202.896072) scale(0.1 -0.1)">
       <use xlink:href="#DejaVuSans-32"/>
       <use xlink:href="#DejaVuSans-30" x="63.623047"/>
       <use xlink:href="#DejaVuSans-30" x="127.246094"/>
       <use xlink:href="#DejaVuSans-30" x="190.869141"/>
      </g>
     </g>
    </g>
    <g id="ytick_4">
     <g id="line2d_10">
      <g>
       <use xlink:href="#mfa0fb836aa" x="61.49" y="159.976903" style="stroke: #000000; stroke-width: 0.8"/>
      </g>
     </g>
     <g id="text_11">
      <!-- 3000 -->
      <g transform="translate(29.04 163.776122) scale(0.1 -0.1)">
       <defs>
        <path id="DejaVuSans-33" d="M 2597 2516 
Q 3050 2419 3304 2112 
Q 3559 1806 3559 1356 
Q 3559 666 3084 287 
Q 2609 -91 1734 -91 
Q 1441 -91 1130 -33 
Q 819 25 488 141 
L 488 750 
Q 750 597 1062 519 
Q 1375 441 1716 441 
Q 2309 441 2620 675 
Q 2931 909 2931 1356 
Q 2931 1769 2642 2001 
Q 2353 2234 1838 2234 
L 1294 2234 
L 1294 2753 
L 1863 2753 
Q 2328 2753 2575 2939 
Q 2822 3125 2822 3475 
Q 2822 3834 2567 4026 
Q 2313 4219 1838 4219 
Q 1578 4219 1281 4162 
Q 984 4106 628 3988 
L 628 4550 
Q 988 4650 1302 4700 
Q 1616 4750 1894 4750 
Q 2613 4750 3031 4423 
Q 3450 4097 3450 3541 
Q 3450 3153 3228 2886 
Q 3006 2619 2597 2516 
z
" transform="scale(0.015625)"/>
       </defs>
       <use xlink:href="#DejaVuSans-33"/>
       <use xlink:href="#DejaVuSans-30" x="63.623047"/>
       <use xlink:href="#DejaVuSans-30" x="127.246094"/>
       <use xlink:href="#DejaVuSans-30" x="190.869141"/>
      </g>
     </g>
    </g>
    <g id="ytick_5">
     <g id="line2d_11">
      <g>
       <use xlink:href="#mfa0fb836aa" x="61.49" y="120.856954" style="stroke: #000000; stroke-width: 0.8"/>
      </g>
     </g>
     <g id="text_12">
      <!-- 4000 -->
      <g transform="translate(29.04 124.656173) scale(0.1 -0.1)">
       <use xlink:href="#DejaVuSans-34"/>
       <use xlink:href="#DejaVuSans-30" x="63.623047"/>
       <use xlink:href="#DejaVuSans-30" x="127.246094"/>
       <use xlink:href="#DejaVuSans-30" x="190.869141"/>
      </g>
     </g>
    </g>
    <g id="ytick_6">
     <g id="line2d_12">
      <g>
       <use xlink:href="#mfa0fb836aa" x="61.49" y="81.737004" style="stroke: #000000; stroke-width: 0.8"/>
      </g>
     </g>
     <g id="text_13">
      <!-- 5000 -->
      <g transform="translate(29.04 85.536223) scale(0.1 -0.1)">
       <defs>
        <path id="DejaVuSans-35" d="M 691 4666 
L 3169 4666 
L 3169 4134 
L 1269 4134 
L 1269 2991 
Q 1406 3038 1543 3061 
Q 1681 3084 1819 3084 
Q 2600 3084 3056 2656 
Q 3513 2228 3513 1497 
Q 3513 744 3044 326 
Q 2575 -91 1722 -91 
Q 1428 -91 1123 -41 
Q 819 9 494 109 
L 494 744 
Q 775 591 1075 516 
Q 1375 441 1709 441 
Q 2250 441 2565 725 
Q 2881 1009 2881 1497 
Q 2881 1984 2565 2268 
Q 2250 2553 1709 2553 
Q 1456 2553 1204 2497 
Q 953 2441 691 2322 
L 691 4666 
z
" transform="scale(0.015625)"/>
       </defs>
       <use xlink:href="#DejaVuSans-35"/>
       <use xlink:href="#DejaVuSans-30" x="63.623047"/>
       <use xlink:href="#DejaVuSans-30" x="127.246094"/>
       <use xlink:href="#DejaVuSans-30" x="190.869141"/>
      </g>
     </g>
    </g>
    <g id="text_14">
     <!-- Number of proteins -->
     <g transform="translate(21.920469 245.898289) rotate(-90) scale(0.15 -0.15)">
      <defs>
       <path id="DejaVuSans-4e" d="M 628 4666 
L 1478 4666 
L 3547 763 
L 3547 4666 
L 4159 4666 
L 4159 0 
L 3309 0 
L 1241 3903 
L 1241 0 
L 628 0 
L 628 4666 
z
" transform="scale(0.015625)"/>
       <path id="DejaVuSans-75" d="M 544 1381 
L 544 3500 
L 1119 3500 
L 1119 1403 
Q 1119 906 1312 657 
Q 1506 409 1894 409 
Q 2359 409 2629 706 
Q 2900 1003 2900 1516 
L 2900 3500 
L 3475 3500 
L 3475 0 
L 2900 0 
L 2900 538 
Q 2691 219 2414 64 
Q 2138 -91 1772 -91 
Q 1169 -91 856 284 
Q 544 659 544 1381 
z
M 1991 3584 
L 1991 3584 
z
" transform="scale(0.015625)"/>
       <path id="DejaVuSans-6d" d="M 3328 2828 
Q 3544 3216 3844 3400 
Q 4144 3584 4550 3584 
Q 5097 3584 5394 3201 
Q 5691 2819 5691 2113 
L 5691 0 
L 5113 0 
L 5113 2094 
Q 5113 2597 4934 2840 
Q 4756 3084 4391 3084 
Q 3944 3084 3684 2787 
Q 3425 2491 3425 1978 
L 3425 0 
L 2847 0 
L 2847 2094 
Q 2847 2600 2669 2842 
Q 2491 3084 2119 3084 
Q 1678 3084 1418 2786 
Q 1159 2488 1159 1978 
L 1159 0 
L 581 0 
L 581 3500 
L 1159 3500 
L 1159 2956 
Q 1356 3278 1631 3431 
Q 1906 3584 2284 3584 
Q 2666 3584 2933 3390 
Q 3200 3197 3328 2828 
z
" transform="scale(0.015625)"/>
       <path id="DejaVuSans-62" d="M 3116 1747 
Q 3116 2381 2855 2742 
Q 2594 3103 2138 3103 
Q 1681 3103 1420 2742 
Q 1159 2381 1159 1747 
Q 1159 1113 1420 752 
Q 1681 391 2138 391 
Q 2594 391 2855 752 
Q 3116 1113 3116 1747 
z
M 1159 2969 
Q 1341 3281 1617 3432 
Q 1894 3584 2278 3584 
Q 2916 3584 3314 3078 
Q 3713 2572 3713 1747 
Q 3713 922 3314 415 
Q 2916 -91 2278 -91 
Q 1894 -91 1617 61 
Q 1341 213 1159 525 
L 1159 0 
L 581 0 
L 581 4863 
L 1159 4863 
L 1159 2969 
z
" transform="scale(0.015625)"/>
       <path id="DejaVuSans-20" transform="scale(0.015625)"/>
       <path id="DejaVuSans-6f" d="M 1959 3097 
Q 1497 3097 1228 2736 
Q 959 2375 959 1747 
Q 959 1119 1226 758 
Q 1494 397 1959 397 
Q 2419 397 2687 759 
Q 2956 1122 2956 1747 
Q 2956 2369 2687 2733 
Q 2419 3097 1959 3097 
z
M 1959 3584 
Q 2709 3584 3137 3096 
Q 3566 2609 3566 1747 
Q 3566 888 3137 398 
Q 2709 -91 1959 -91 
Q 1206 -91 779 398 
Q 353 888 353 1747 
Q 353 2609 779 3096 
Q 1206 3584 1959 3584 
z
" transform="scale(0.015625)"/>
       <path id="DejaVuSans-66" d="M 2375 4863 
L 2375 4384 
L 1825 4384 
Q 1516 4384 1395 4259 
Q 1275 4134 1275 3809 
L 1275 3500 
L 2222 3500 
L 2222 3053 
L 1275 3053 
L 1275 0 
L 697 0 
L 697 3053 
L 147 3053 
L 147 3500 
L 697 3500 
L 697 3744 
Q 697 4328 969 4595 
Q 1241 4863 1831 4863 
L 2375 4863 
z
" transform="scale(0.015625)"/>
       <path id="DejaVuSans-70" d="M 1159 525 
L 1159 -1331 
L 581 -1331 
L 581 3500 
L 1159 3500 
L 1159 2969 
Q 1341 3281 1617 3432 
Q 1894 3584 2278 3584 
Q 2916 3584 3314 3078 
Q 3713 2572 3713 1747 
Q 3713 922 3314 415 
Q 2916 -91 2278 -91 
Q 1894 -91 1617 61 
Q 1341 213 1159 525 
z
M 3116 1747 
Q 3116 2381 2855 2742 
Q 2594 3103 2138 3103 
Q 1681 3103 1420 2742 
Q 1159 2381 1159 1747 
Q 1159 1113 1420 752 
Q 1681 391 2138 391 
Q 2594 391 2855 752 
Q 3116 1113 3116 1747 
z
" transform="scale(0.015625)"/>
       <path id="DejaVuSans-74" d="M 1172 4494 
L 1172 3500 
L 2356 3500 
L 2356 3053 
L 1172 3053 
L 1172 1153 
Q 1172 725 1289 603 
Q 1406 481 1766 481 
L 2356 481 
L 2356 0 
L 1766 0 
Q 1100 0 847 248 
Q 594 497 594 1153 
L 594 3053 
L 172 3053 
L 172 3500 
L 594 3500 
L 594 4494 
L 1172 4494 
z
" transform="scale(0.015625)"/>
       <path id="DejaVuSans-69" d="M 603 3500 
L 1178 3500 
L 1178 0 
L 603 0 
L 603 3500 
z
M 603 4863 
L 1178 4863 
L 1178 4134 
L 603 4134 
L 603 4863 
z
" transform="scale(0.015625)"/>
       <path id="DejaVuSans-6e" d="M 3513 2113 
L 3513 0 
L 2938 0 
L 2938 2094 
Q 2938 2591 2744 2837 
Q 2550 3084 2163 3084 
Q 1697 3084 1428 2787 
Q 1159 2491 1159 1978 
L 1159 0 
L 581 0 
L 581 3500 
L 1159 3500 
L 1159 2956 
Q 1366 3272 1645 3428 
Q 1925 3584 2291 3584 
Q 2894 3584 3203 3211 
Q 3513 2838 3513 2113 
z
" transform="scale(0.015625)"/>
       <path id="DejaVuSans-73" d="M 2834 3397 
L 2834 2853 
Q 2591 2978 2328 3040 
Q 2066 3103 1784 3103 
Q 1356 3103 1142 2972 
Q 928 2841 928 2578 
Q 928 2378 1081 2264 
Q 1234 2150 1697 2047 
L 1894 2003 
Q 2506 1872 2764 1633 
Q 3022 1394 3022 966 
Q 3022 478 2636 193 
Q 2250 -91 1575 -91 
Q 1294 -91 989 -36 
Q 684 19 347 128 
L 347 722 
Q 666 556 975 473 
Q 1284 391 1588 391 
Q 1994 391 2212 530 
Q 2431 669 2431 922 
Q 2431 1156 2273 1281 
Q 2116 1406 1581 1522 
L 1381 1569 
Q 847 1681 609 1914 
Q 372 2147 372 2553 
Q 372 3047 722 3315 
Q 1072 3584 1716 3584 
Q 2034 3584 2315 3537 
Q 2597 3491 2834 3397 
z
" transform="scale(0.015625)"/>
      </defs>
      <use xlink:href="#DejaVuSans-4e"/>
      <use xlink:href="#DejaVuSans-75" x="74.804688"/>
      <use xlink:href="#DejaVuSans-6d" x="138.183594"/>
      <use xlink:href="#DejaVuSans-62" x="235.595703"/>
      <use xlink:href="#DejaVuSans-65" x="299.072266"/>
      <use xlink:href="#DejaVuSans-72" x="360.595703"/>
      <use xlink:href="#DejaVuSans-20" x="401.708984"/>
      <use xlink:href="#DejaVuSans-6f" x="433.496094"/>
      <use xlink:href="#DejaVuSans-66" x="494.677734"/>
      <use xlink:href="#DejaVuSans-20" x="529.882812"/>
      <use xlink:href="#DejaVuSans-70" x="561.669922"/>
      <use xlink:href="#DejaVuSans-72" x="625.146484"/>
      <use xlink:href="#DejaVuSans-6f" x="664.009766"/>
      <use xlink:href="#DejaVuSans-74" x="725.191406"/>
      <use xlink:href="#DejaVuSans-65" x="764.400391"/>
      <use xlink:href="#DejaVuSans-69" x="825.923828"/>
      <use xlink:href="#DejaVuSans-6e" x="853.707031"/>
      <use xlink:href="#DejaVuSans-73" x="917.085938"/>
     </g>
    </g>
   </g>
   <g id="patch_3">
    <path d="M 61.49 277.336752 
L 61.49 69.0817 
" style="fill: none; stroke: #000000; stroke-width: 0.8; stroke-linejoin: miter; stroke-linecap: square"/>
   </g>
   <g id="patch_4">
    <path d="M 61.49 277.336752 
L 450 277.336752 
" style="fill: none; stroke: #000000; stroke-width: 0.8; stroke-linejoin: miter; stroke-linecap: square"/>
   </g>
   <g id="legend_1">
    <g id="patch_5">
     <path d="M 98.395781 64.0817 
L 413.094219 64.0817 
Q 415.094219 64.0817 415.094219 62.0817 
L 415.094219 33.72545 
Q 415.094219 31.72545 413.094219 31.72545 
L 98.395781 31.72545 
Q 96.395781 31.72545 96.395781 33.72545 
L 96.395781 62.0817 
Q 96.395781 64.0817 98.395781 64.0817 
z
" style="fill: #ffffff; opacity: 0.8; stroke: #cccccc; stroke-linejoin: miter"/>
    </g>
    <g id="patch_6">
     <path d="M 100.395781 43.323888 
L 120.395781 43.323888 
L 120.395781 36.323888 
L 100.395781 36.323888 
z
" style="fill: #fb363b"/>
    </g>
    <g id="text_15">
     <!-- Biological role published -->
     <g transform="translate(128.395781 43.323888) scale(0.1 -0.1)">
      <defs>
       <path id="DejaVuSans-42" d="M 1259 2228 
L 1259 519 
L 2272 519 
Q 2781 519 3026 730 
Q 3272 941 3272 1375 
Q 3272 1813 3026 2020 
Q 2781 2228 2272 2228 
L 1259 2228 
z
M 1259 4147 
L 1259 2741 
L 2194 2741 
Q 2656 2741 2882 2914 
Q 3109 3088 3109 3444 
Q 3109 3797 2882 3972 
Q 2656 4147 2194 4147 
L 1259 4147 
z
M 628 4666 
L 2241 4666 
Q 2963 4666 3353 4366 
Q 3744 4066 3744 3513 
Q 3744 3084 3544 2831 
Q 3344 2578 2956 2516 
Q 3422 2416 3680 2098 
Q 3938 1781 3938 1306 
Q 3938 681 3513 340 
Q 3088 0 2303 0 
L 628 0 
L 628 4666 
z
" transform="scale(0.015625)"/>
       <path id="DejaVuSans-6c" d="M 603 4863 
L 1178 4863 
L 1178 0 
L 603 0 
L 603 4863 
z
" transform="scale(0.015625)"/>
       <path id="DejaVuSans-67" d="M 2906 1791 
Q 2906 2416 2648 2759 
Q 2391 3103 1925 3103 
Q 1463 3103 1205 2759 
Q 947 2416 947 1791 
Q 947 1169 1205 825 
Q 1463 481 1925 481 
Q 2391 481 2648 825 
Q 2906 1169 2906 1791 
z
M 3481 434 
Q 3481 -459 3084 -895 
Q 2688 -1331 1869 -1331 
Q 1566 -1331 1297 -1286 
Q 1028 -1241 775 -1147 
L 775 -588 
Q 1028 -725 1275 -790 
Q 1522 -856 1778 -856 
Q 2344 -856 2625 -561 
Q 2906 -266 2906 331 
L 2906 616 
Q 2728 306 2450 153 
Q 2172 0 1784 0 
Q 1141 0 747 490 
Q 353 981 353 1791 
Q 353 2603 747 3093 
Q 1141 3584 1784 3584 
Q 2172 3584 2450 3431 
Q 2728 3278 2906 2969 
L 2906 3500 
L 3481 3500 
L 3481 434 
z
" transform="scale(0.015625)"/>
       <path id="DejaVuSans-63" d="M 3122 3366 
L 3122 2828 
Q 2878 2963 2633 3030 
Q 2388 3097 2138 3097 
Q 1578 3097 1268 2742 
Q 959 2388 959 1747 
Q 959 1106 1268 751 
Q 1578 397 2138 397 
Q 2388 397 2633 464 
Q 2878 531 3122 666 
L 3122 134 
Q 2881 22 2623 -34 
Q 2366 -91 2075 -91 
Q 1284 -91 818 406 
Q 353 903 353 1747 
Q 353 2603 823 3093 
Q 1294 3584 2113 3584 
Q 2378 3584 2631 3529 
Q 2884 3475 3122 3366 
z
" transform="scale(0.015625)"/>
       <path id="DejaVuSans-68" d="M 3513 2113 
L 3513 0 
L 2938 0 
L 2938 2094 
Q 2938 2591 2744 2837 
Q 2550 3084 2163 3084 
Q 1697 3084 1428 2787 
Q 1159 2491 1159 1978 
L 1159 0 
L 581 0 
L 581 4863 
L 1159 4863 
L 1159 2956 
Q 1366 3272 1645 3428 
Q 1925 3584 2291 3584 
Q 2894 3584 3203 3211 
Q 3513 2838 3513 2113 
z
" transform="scale(0.015625)"/>
       <path id="DejaVuSans-64" d="M 2906 2969 
L 2906 4863 
L 3481 4863 
L 3481 0 
L 2906 0 
L 2906 525 
Q 2725 213 2448 61 
Q 2172 -91 1784 -91 
Q 1150 -91 751 415 
Q 353 922 353 1747 
Q 353 2572 751 3078 
Q 1150 3584 1784 3584 
Q 2172 3584 2448 3432 
Q 2725 3281 2906 2969 
z
M 947 1747 
Q 947 1113 1208 752 
Q 1469 391 1925 391 
Q 2381 391 2643 752 
Q 2906 1113 2906 1747 
Q 2906 2381 2643 2742 
Q 2381 3103 1925 3103 
Q 1469 3103 1208 2742 
Q 947 2381 947 1747 
z
" transform="scale(0.015625)"/>
      </defs>
      <use xlink:href="#DejaVuSans-42"/>
      <use xlink:href="#DejaVuSans-69" x="68.603516"/>
      <use xlink:href="#DejaVuSans-6f" x="96.386719"/>
      <use xlink:href="#DejaVuSans-6c" x="157.568359"/>
      <use xlink:href="#DejaVuSans-6f" x="185.351562"/>
      <use xlink:href="#DejaVuSans-67" x="246.533203"/>
      <use xlink:href="#DejaVuSans-69" x="310.009766"/>
      <use xlink:href="#DejaVuSans-63" x="337.792969"/>
      <use xlink:href="#DejaVuSans-61" x="392.773438"/>
      <use xlink:href="#DejaVuSans-6c" x="454.052734"/>
      <use xlink:href="#DejaVuSans-20" x="481.835938"/>
      <use xlink:href="#DejaVuSans-72" x="513.623047"/>
      <use xlink:href="#DejaVuSans-6f" x="552.486328"/>
      <use xlink:href="#DejaVuSans-6c" x="613.667969"/>
      <use xlink:href="#DejaVuSans-65" x="641.451172"/>
      <use xlink:href="#DejaVuSans-20" x="702.974609"/>
      <use xlink:href="#DejaVuSans-70" x="734.761719"/>
      <use xlink:href="#DejaVuSans-75" x="798.238281"/>
      <use xlink:href="#DejaVuSans-62" x="861.617188"/>
      <use xlink:href="#DejaVuSans-6c" x="925.09375"/>
      <use xlink:href="#DejaVuSans-69" x="952.876953"/>
      <use xlink:href="#DejaVuSans-73" x="980.660156"/>
      <use xlink:href="#DejaVuSans-68" x="1032.759766"/>
      <use xlink:href="#DejaVuSans-65" x="1096.138672"/>
      <use xlink:href="#DejaVuSans-64" x="1157.662109"/>
     </g>
    </g>
    <g id="patch_7">
     <path d="M 100.395781 58.002013 
L 120.395781 58.002013 
L 120.395781 51.002013 
L 100.395781 51.002013 
z
" style="fill: #fdc92c"/>
    </g>
    <g id="text_16">
     <!-- Biological role inferred -->
     <g transform="translate(128.395781 58.002013) scale(0.1 -0.1)">
      <use xlink:href="#DejaVuSans-42"/>
      <use xlink:href="#DejaVuSans-69" x="68.603516"/>
      <use xlink:href="#DejaVuSans-6f" x="96.386719"/>
      <use xlink:href="#DejaVuSans-6c" x="157.568359"/>
      <use xlink:href="#DejaVuSans-6f" x="185.351562"/>
      <use xlink:href="#DejaVuSans-67" x="246.533203"/>
      <use xlink:href="#DejaVuSans-69" x="310.009766"/>
      <use xlink:href="#DejaVuSans-63" x="337.792969"/>
      <use xlink:href="#DejaVuSans-61" x="392.773438"/>
      <use xlink:href="#DejaVuSans-6c" x="454.052734"/>
      <use xlink:href="#DejaVuSans-20" x="481.835938"/>
      <use xlink:href="#DejaVuSans-72" x="513.623047"/>
      <use xlink:href="#DejaVuSans-6f" x="552.486328"/>
      <use xlink:href="#DejaVuSans-6c" x="613.667969"/>
      <use xlink:href="#DejaVuSans-65" x="641.451172"/>
      <use xlink:href="#DejaVuSans-20" x="702.974609"/>
      <use xlink:href="#DejaVuSans-69" x="734.761719"/>
      <use xlink:href="#DejaVuSans-6e" x="762.544922"/>
      <use xlink:href="#DejaVuSans-66" x="825.923828"/>
      <use xlink:href="#DejaVuSans-65" x="861.128906"/>
      <use xlink:href="#DejaVuSans-72" x="922.652344"/>
      <use xlink:href="#DejaVuSans-72" x="962.015625"/>
      <use xlink:href="#DejaVuSans-65" x="1000.878906"/>
      <use xlink:href="#DejaVuSans-64" x="1062.402344"/>
     </g>
    </g>
    <g id="patch_8">
     <path d="M 270.512969 43.323888 
L 290.512969 43.323888 
L 290.512969 36.323888 
L 270.512969 36.323888 
z
" style="fill: #aeaeae"/>
    </g>
    <g id="text_17">
     <!-- Conserved unknown -->
     <g transform="translate(298.512969 43.323888) scale(0.1 -0.1)">
      <defs>
       <path id="DejaVuSans-43" d="M 4122 4306 
L 4122 3641 
Q 3803 3938 3442 4084 
Q 3081 4231 2675 4231 
Q 1875 4231 1450 3742 
Q 1025 3253 1025 2328 
Q 1025 1406 1450 917 
Q 1875 428 2675 428 
Q 3081 428 3442 575 
Q 3803 722 4122 1019 
L 4122 359 
Q 3791 134 3420 21 
Q 3050 -91 2638 -91 
Q 1578 -91 968 557 
Q 359 1206 359 2328 
Q 359 3453 968 4101 
Q 1578 4750 2638 4750 
Q 3056 4750 3426 4639 
Q 3797 4528 4122 4306 
z
" transform="scale(0.015625)"/>
       <path id="DejaVuSans-76" d="M 191 3500 
L 800 3500 
L 1894 563 
L 2988 3500 
L 3597 3500 
L 2284 0 
L 1503 0 
L 191 3500 
z
" transform="scale(0.015625)"/>
       <path id="DejaVuSans-6b" d="M 581 4863 
L 1159 4863 
L 1159 1991 
L 2875 3500 
L 3609 3500 
L 1753 1863 
L 3688 0 
L 2938 0 
L 1159 1709 
L 1159 0 
L 581 0 
L 581 4863 
z
" transform="scale(0.015625)"/>
       <path id="DejaVuSans-77" d="M 269 3500 
L 844 3500 
L 1563 769 
L 2278 3500 
L 2956 3500 
L 3675 769 
L 4391 3500 
L 4966 3500 
L 4050 0 
L 3372 0 
L 2619 2869 
L 1863 0 
L 1184 0 
L 269 3500 
z
" transform="scale(0.015625)"/>
      </defs>
      <use xlink:href="#DejaVuSans-43"/>
      <use xlink:href="#DejaVuSans-6f" x="69.824219"/>
      <use xlink:href="#DejaVuSans-6e" x="131.005859"/>
      <use xlink:href="#DejaVuSans-73" x="194.384766"/>
      <use xlink:href="#DejaVuSans-65" x="246.484375"/>
      <use xlink:href="#DejaVuSans-72" x="308.007812"/>
      <use xlink:href="#DejaVuSans-76" x="349.121094"/>
      <use xlink:href="#DejaVuSans-65" x="408.300781"/>
      <use xlink:href="#DejaVuSans-64" x="469.824219"/>
      <use xlink:href="#DejaVuSans-20" x="533.300781"/>
      <use xlink:href="#DejaVuSans-75" x="565.087891"/>
      <use xlink:href="#DejaVuSans-6e" x="628.466797"/>
      <use xlink:href="#DejaVuSans-6b" x="691.845703"/>
      <use xlink:href="#DejaVuSans-6e" x="749.755859"/>
      <use xlink:href="#DejaVuSans-6f" x="813.134766"/>
      <use xlink:href="#DejaVuSans-77" x="874.316406"/>
      <use xlink:href="#DejaVuSans-6e" x="956.103516"/>
     </g>
    </g>
    <g id="patch_9">
     <path d="M 270.512969 58.002013 
L 290.512969 58.002013 
L 290.512969 51.002013 
L 270.512969 51.002013 
z
" style="fill: #d5dce5"/>
    </g>
    <g id="text_18">
     <!-- Fission yeast unknown -->
     <g transform="translate(298.512969 58.002013) scale(0.1 -0.1)">
      <defs>
       <path id="DejaVuSans-46" d="M 628 4666 
L 3309 4666 
L 3309 4134 
L 1259 4134 
L 1259 2759 
L 3109 2759 
L 3109 2228 
L 1259 2228 
L 1259 0 
L 628 0 
L 628 4666 
z
" transform="scale(0.015625)"/>
       <path id="DejaVuSans-79" d="M 2059 -325 
Q 1816 -950 1584 -1140 
Q 1353 -1331 966 -1331 
L 506 -1331 
L 506 -850 
L 844 -850 
Q 1081 -850 1212 -737 
Q 1344 -625 1503 -206 
L 1606 56 
L 191 3500 
L 800 3500 
L 1894 763 
L 2988 3500 
L 3597 3500 
L 2059 -325 
z
" transform="scale(0.015625)"/>
      </defs>
      <use xlink:href="#DejaVuSans-46"/>
      <use xlink:href="#DejaVuSans-69" x="50.269531"/>
      <use xlink:href="#DejaVuSans-73" x="78.052734"/>
      <use xlink:href="#DejaVuSans-73" x="130.152344"/>
      <use xlink:href="#DejaVuSans-69" x="182.251953"/>
      <use xlink:href="#DejaVuSans-6f" x="210.035156"/>
      <use xlink:href="#DejaVuSans-6e" x="271.216797"/>
      <use xlink:href="#DejaVuSans-20" x="334.595703"/>
      <use xlink:href="#DejaVuSans-79" x="366.382812"/>
      <use xlink:href="#DejaVuSans-65" x="425.5625"/>
      <use xlink:href="#DejaVuSans-61" x="487.085938"/>
      <use xlink:href="#DejaVuSans-73" x="548.365234"/>
      <use xlink:href="#DejaVuSans-74" x="600.464844"/>
      <use xlink:href="#DejaVuSans-20" x="639.673828"/>
      <use xlink:href="#DejaVuSans-75" x="671.460938"/>
      <use xlink:href="#DejaVuSans-6e" x="734.839844"/>
      <use xlink:href="#DejaVuSans-6b" x="798.21875"/>
      <use xlink:href="#DejaVuSans-6e" x="856.128906"/>
      <use xlink:href="#DejaVuSans-6f" x="919.507812"/>
      <use xlink:href="#DejaVuSans-77" x="980.689453"/>
      <use xlink:href="#DejaVuSans-6e" x="1062.476562"/>
     </g>
    </g>
   </g>
  </g>
 </g>
 <defs>
  <clipPath id="pfd570cefa4">
   <rect x="61.49" y="69.0817" width="388.51" height="208.255052"/>
  </clipPath>
 </defs>
</svg>
