<?xml version="1.0" encoding="utf-8" standalone="no"?>
<!DOCTYPE svg PUBLIC "-//W3C//DTD SVG 1.1//EN"
  "http://www.w3.org/Graphics/SVG/1.1/DTD/svg11.dtd">
<svg xmlns:xlink="http://www.w3.org/1999/xlink" width="460.8pt" height="345.6pt" viewBox="0 0 460.8 345.6" xmlns="http://www.w3.org/2000/svg" version="1.1">
 <metadata>
  <rdf:RDF xmlns:dc="http://purl.org/dc/elements/1.1/" xmlns:cc="http://creativecommons.org/ns#" xmlns:rdf="http://www.w3.org/1999/02/22-rdf-syntax-ns#">
   <cc:Work>
    <dc:type rdf:resource="http://purl.org/dc/dcmitype/StillImage"/>
    <dc:date>2026-01-02T00:58:54.727227</dc:date>
    <dc:format>image/svg+xml</dc:format>
    <dc:creator>
     <cc:Agent>
      <dc:title>Matplotlib v3.7.1, https://matplotlib.org/</dc:title>
     </cc:Agent>
    </dc:creator>
   </cc:Work>
  </rdf:RDF>
 </metadata>
 <defs>
  <style type="text/css">*{stroke-linejoin: round; stroke-linecap: butt}</style>
 </defs>
 <g id="figure_1">
  <g id="patch_1">
   <path d="M 0 345.6 
L 460.8 345.6 
L 460.8 0 
L 0 0 
z
" style="fill: #ffffff"/>
  </g>
  <g id="axes_1">
   <g id="patch_2">
    <path d="M 61.49 273.065809 
L 450 273.065809 
L 450 72.534191 
L 61.49 72.534191 
z
" style="fill: #ffffff"/>
   </g>
   <g id="PolyCollection_1">
    <path d="M 33.00272 222.174813 
L 33.00272 273.065809 
L 40.960324 273.065809 
L 48.823755 273.065809 
L 64.974395 273.065809 
L 83.714787 273.065809 
L 97.511107 273.065809 
L 106.080834 273.065809 
L 108.293895 273.065809 
L 112.390413 273.065809 
L 114.27387 273.065809 
L 114.509302 273.065809 
L 117.617005 273.065809 
L 118.417474 273.065809 
L 119.076684 273.065809 
L 119.877153 273.065809 
L 120.395104 273.065809 
L 121.195573 273.065809 
L 121.666437 273.065809 
L 122.513992 273.065809 
L 123.644066 273.065809 
L 124.538708 273.065809 
L 124.868313 273.065809 
L 125.810041 273.065809 
L 126.469251 273.065809 
L 127.175547 273.065809 
L 127.92893 273.065809 
L 128.44688 273.065809 
L 128.917745 273.065809 
L 130.236164 273.065809 
L 131.177892 273.065809 
L 131.884189 273.065809 
L 132.072534 273.065809 
L 132.731744 273.065809 
L 133.720559 273.065809 
L 134.75646 273.065809 
L 135.462756 273.065809 
L 136.498657 273.065809 
L 137.864163 273.065809 
L 139.74762 273.065809 
L 141.395644 273.065809 
L 142.808237 273.065809 
L 145.445076 273.065809 
L 146.57515 273.065809 
L 149.635767 273.065809 
L 151.613396 273.065809 
L 152.837643 273.065809 
L 153.591025 273.065809 
L 156.557469 273.065809 
L 158.205494 273.065809 
L 159.900605 273.065809 
L 163.24374 273.065809 
L 166.351443 273.065809 
L 166.869394 273.065809 
L 167.481517 273.065809 
L 168.423246 273.065809 
L 169.176628 273.065809 
L 171.483863 273.065809 
L 176.098331 273.065809 
L 176.992973 273.065809 
L 181.324923 273.065809 
L 182.313738 273.065809 
L 183.302552 273.065809 
L 184.90349 273.065809 
L 186.22191 273.065809 
L 187.493243 273.065809 
L 188.293712 273.065809 
L 190.883465 273.065809 
L 193.567391 273.065809 
L 194.88581 273.065809 
L 195.827538 273.065809 
L 197.004699 273.065809 
L 197.993514 273.065809 
L 199.170674 273.065809 
L 201.948772 273.065809 
L 203.408451 273.065809 
L 204.821044 273.065809 
L 206.280722 273.065809 
L 207.693315 273.065809 
L 209.152994 273.065809 
L 210.612672 273.065809 
L 211.978178 273.065809 
L 213.437857 273.065809 
L 214.85045 273.065809 
L 216.310128 273.065809 
L 217.722721 273.065809 
L 219.1824 273.065809 
L 220.642079 273.065809 
L 222.054671 273.065809 
L 223.51435 273.065809 
L 224.926942 273.065809 
L 226.386621 273.065809 
L 227.8463 273.065809 
L 229.164719 273.065809 
L 230.624398 273.065809 
L 232.036991 273.065809 
L 233.496669 273.065809 
L 234.909262 273.065809 
L 236.368941 273.065809 
L 237.82862 273.065809 
L 239.241212 273.065809 
L 240.700891 273.065809 
L 242.113483 273.065809 
L 243.573162 273.065809 
L 245.032841 273.065809 
L 246.35126 273.065809 
L 247.810939 273.065809 
L 249.223532 273.065809 
L 250.683211 273.065809 
L 252.095803 273.065809 
L 253.555482 273.065809 
L 255.015161 273.065809 
L 256.427753 273.065809 
L 257.887432 273.065809 
L 259.300024 273.065809 
L 260.759703 273.065809 
L 262.219382 273.065809 
L 263.537801 273.065809 
L 264.99748 273.065809 
L 266.410073 273.065809 
L 267.869752 273.065809 
L 269.282344 273.065809 
L 270.742023 273.065809 
L 272.201702 273.065809 
L 273.614294 273.065809 
L 275.073973 273.065809 
L 276.486565 273.065809 
L 277.946244 273.065809 
L 279.405923 273.065809 
L 280.771429 273.065809 
L 282.231108 273.065809 
L 283.6437 273.065809 
L 285.103379 273.065809 
L 286.515971 273.065809 
L 287.97565 273.065809 
L 289.435329 273.065809 
L 290.847921 273.065809 
L 292.3076 273.065809 
L 293.720193 273.065809 
L 295.179872 273.065809 
L 296.63955 273.065809 
L 297.95797 273.065809 
L 299.417649 273.065809 
L 300.830241 273.065809 
L 302.28992 273.065809 
L 303.702512 273.065809 
L 305.162191 273.065809 
L 306.62187 273.065809 
L 308.034462 273.065809 
L 309.494141 273.065809 
L 310.906734 273.065809 
L 312.366413 273.065809 
L 313.826091 273.065809 
L 315.144511 273.065809 
L 316.60419 273.065809 
L 318.016782 273.065809 
L 319.476461 273.065809 
L 320.889053 273.065809 
L 322.348732 273.065809 
L 323.808411 273.065809 
L 325.221004 273.065809 
L 326.680682 273.065809 
L 328.093275 273.065809 
L 329.552954 273.065809 
L 331.012632 273.065809 
L 332.331052 273.065809 
L 333.790731 273.065809 
L 335.203323 273.065809 
L 336.663002 273.065809 
L 338.075594 273.065809 
L 339.535273 273.065809 
L 340.994952 273.065809 
L 342.407545 273.065809 
L 343.867223 273.065809 
L 345.279816 273.065809 
L 346.739495 273.065809 
L 348.199173 273.065809 
L 349.564679 273.065809 
L 351.024358 273.065809 
L 352.436951 273.065809 
L 353.896629 273.065809 
L 355.309222 273.065809 
L 356.768901 273.065809 
L 358.22858 273.065809 
L 359.641172 273.065809 
L 361.100851 273.065809 
L 362.513443 273.065809 
L 363.973122 273.065809 
L 365.432801 273.065809 
L 366.75122 273.065809 
L 368.210899 273.065809 
L 369.623492 273.065809 
L 371.083171 273.065809 
L 372.495763 273.065809 
L 373.955442 273.065809 
L 375.415121 273.065809 
L 376.827713 273.065809 
L 378.287392 273.065809 
L 379.699984 273.065809 
L 381.159663 273.065809 
L 382.619342 273.065809 
L 383.937761 273.065809 
L 385.39744 273.065809 
L 386.810033 273.065809 
L 388.269712 273.065809 
L 389.682304 273.065809 
L 391.141983 273.065809 
L 392.601662 273.065809 
L 394.014254 273.065809 
L 395.473933 273.065809 
L 396.886525 273.065809 
L 398.346204 273.065809 
L 399.805883 273.065809 
L 401.124303 273.065809 
L 402.583981 273.065809 
L 403.996574 273.065809 
L 405.456253 273.065809 
L 406.868845 273.065809 
L 408.328524 273.065809 
L 409.788203 273.065809 
L 411.200795 273.065809 
L 412.660474 273.065809 
L 414.073066 273.065809 
L 415.532745 273.065809 
L 416.992424 273.065809 
L 418.35793 273.065809 
L 419.817609 273.065809 
L 421.230201 273.065809 
L 422.68988 273.065809 
L 424.102472 273.065809 
L 425.562151 273.065809 
L 427.02183 273.065809 
L 428.434422 273.065809 
L 429.894101 273.065809 
L 431.306694 273.065809 
L 432.766373 273.065809 
L 434.226051 273.065809 
L 435.544471 273.065809 
L 437.00415 273.065809 
L 438.416742 273.065809 
L 439.876421 273.065809 
L 441.289013 273.065809 
L 442.748692 273.065809 
L 444.208371 273.065809 
L 445.620964 273.065809 
L 447.080642 273.065809 
L 448.493235 273.065809 
L 449.952914 273.065809 
L 449.952914 170.229082 
L 449.952914 170.229082 
L 448.493235 170.153744 
L 447.080642 170.153744 
L 445.620964 170.116074 
L 444.208371 169.513368 
L 442.748692 169.400361 
L 441.289013 169.475699 
L 439.876421 169.513368 
L 438.416742 169.513368 
L 437.00415 169.814721 
L 435.544471 169.85239 
L 434.226051 170.831788 
L 432.766373 172.978928 
L 431.306694 173.732311 
L 429.894101 173.958326 
L 428.434422 173.958326 
L 427.02183 174.184341 
L 425.562151 174.184341 
L 424.102472 175.013061 
L 422.68988 175.540429 
L 421.230201 175.653437 
L 419.817609 175.766444 
L 418.35793 175.841782 
L 416.992424 177.461555 
L 415.532745 177.574562 
L 414.073066 177.612231 
L 412.660474 177.838246 
L 411.200795 177.951254 
L 409.788203 177.988923 
L 408.328524 178.10193 
L 406.868845 178.55396 
L 405.456253 178.779975 
L 403.996574 178.892982 
L 402.583981 178.892982 
L 401.124303 179.232004 
L 399.805883 179.797041 
L 398.346204 179.759372 
L 396.886525 179.872379 
L 395.473933 179.985387 
L 394.014254 180.211402 
L 392.601662 180.211402 
L 391.141983 180.249071 
L 389.682304 180.249071 
L 388.269712 180.211402 
L 386.810033 180.28674 
L 385.39744 180.211402 
L 383.937761 180.173732 
L 382.619342 180.211402 
L 381.159663 180.211402 
L 379.699984 180.399747 
L 378.287392 180.588093 
L 376.827713 180.889446 
L 375.415121 181.115461 
L 373.955442 181.077792 
L 372.495763 181.266137 
L 371.083171 181.529821 
L 369.623492 181.529821 
L 368.210899 181.680498 
L 366.75122 182.170196 
L 365.432801 182.283204 
L 363.973122 182.697564 
L 362.513443 182.735233 
L 361.100851 182.88591 
L 359.641172 182.961248 
L 358.22858 183.111925 
L 356.768901 183.149594 
L 355.309222 183.224932 
L 353.896629 183.224932 
L 352.436951 183.30027 
L 351.024358 183.639292 
L 349.564679 183.7523 
L 348.199173 183.827638 
L 346.739495 183.902976 
L 345.279816 183.902976 
L 343.867223 183.902976 
L 342.407545 184.015984 
L 340.994952 184.091322 
L 339.535273 184.241999 
L 338.075594 184.468013 
L 336.663002 184.581021 
L 335.203323 184.656359 
L 333.790731 184.731697 
L 332.331052 184.769366 
L 331.012632 184.769366 
L 329.552954 184.807036 
L 328.093275 184.844705 
L 326.680682 184.920043 
L 325.221004 184.957712 
L 323.808411 184.957712 
L 322.348732 185.070719 
L 320.889053 185.183727 
L 319.476461 185.409742 
L 318.016782 185.560418 
L 316.60419 185.861771 
L 315.144511 186.012448 
L 313.826091 186.163124 
L 312.366413 186.200793 
L 310.906734 186.35147 
L 309.494141 186.502146 
L 308.034462 188.159588 
L 306.62187 188.423272 
L 305.162191 189.138986 
L 303.702512 188.536279 
L 302.28992 188.460941 
L 300.830241 188.49861 
L 299.417649 188.573949 
L 297.95797 188.837633 
L 296.63955 188.875302 
L 295.179872 188.95064 
L 293.720193 189.666353 
L 292.3076 189.779361 
L 290.847921 189.967706 
L 289.435329 190.043045 
L 287.97565 190.156052 
L 286.515971 190.570413 
L 285.103379 190.758758 
L 283.6437 190.758758 
L 282.231108 191.13545 
L 280.771429 191.210788 
L 279.405923 191.248457 
L 277.946244 191.436803 
L 276.486565 191.512141 
L 275.073973 191.512141 
L 273.614294 191.700486 
L 272.201702 191.738156 
L 270.742023 191.775825 
L 269.282344 191.926501 
L 267.869752 192.039509 
L 266.410073 191.474472 
L 264.99748 191.54981 
L 263.537801 191.738156 
L 262.219382 191.738156 
L 260.759703 191.96417 
L 259.300024 192.114847 
L 257.887432 192.378531 
L 256.427753 192.717553 
L 255.015161 193.018906 
L 253.555482 193.094244 
L 252.095803 193.357928 
L 250.683211 193.583943 
L 249.223532 193.922965 
L 247.810939 194.073642 
L 246.35126 194.261987 
L 245.032841 194.299657 
L 243.573162 194.299657 
L 242.113483 194.488002 
L 240.700891 194.940032 
L 239.241212 194.977701 
L 237.82862 195.203716 
L 236.368941 195.844091 
L 234.909262 195.919429 
L 233.496669 196.371459 
L 232.036991 196.672812 
L 230.624398 197.689878 
L 229.164719 197.765217 
L 227.8463 197.878224 
L 226.386621 198.141908 
L 224.926942 198.217246 
L 223.51435 198.443261 
L 222.054671 198.631607 
L 220.642079 198.970629 
L 219.1824 199.158974 
L 217.722721 199.271982 
L 216.310128 199.497997 
L 214.85045 199.535666 
L 213.437857 199.648673 
L 211.978178 199.79935 
L 210.612672 199.79935 
L 209.152994 199.874688 
L 207.693315 199.912357 
L 206.280722 199.950026 
L 204.821044 199.987695 
L 203.408451 200.025364 
L 201.948772 200.138372 
L 199.170674 200.854085 
L 197.993514 201.042431 
L 197.004699 201.0801 
L 195.827538 200.967093 
L 194.88581 200.967093 
L 193.567391 201.0801 
L 190.883465 201.193108 
L 188.293712 201.795814 
L 187.493243 202.699873 
L 186.22191 202.549196 
L 184.90349 202.511527 
L 183.302552 203.189571 
L 182.313738 203.189571 
L 181.324923 202.963557 
L 176.992973 203.453255 
L 176.098331 203.528594 
L 171.483863 204.168969 
L 169.176628 204.244307 
L 168.423246 204.093631 
L 167.481517 204.206638 
L 166.869394 204.394984 
L 166.351443 204.432653 
L 163.24374 204.54566 
L 159.900605 204.620998 
L 158.205494 204.809344 
L 156.557469 206.805808 
L 153.591025 206.73047 
L 152.837643 206.768139 
L 151.613396 207.182499 
L 149.635767 208.237235 
L 146.57515 208.46325 
L 145.445076 208.839941 
L 142.808237 209.103625 
L 141.395644 209.894677 
L 139.74762 210.422045 
L 137.864163 210.836405 
L 136.498657 210.874074 
L 135.462756 210.949412 
L 134.75646 210.987082 
L 133.720559 211.024751 
L 132.731744 211.702795 
L 132.072534 212.041817 
L 131.884189 212.041817 
L 131.177892 212.041817 
L 130.236164 212.267832 
L 128.917745 212.041817 
L 128.44688 212.230163 
L 127.92893 212.305501 
L 127.175547 212.418509 
L 126.469251 212.418509 
L 125.810041 212.719862 
L 124.868313 213.397906 
L 124.538708 213.360237 
L 123.644066 213.699259 
L 122.513992 213.774597 
L 121.666437 213.849936 
L 121.195573 213.925274 
L 120.395104 214.038281 
L 119.877153 214.264296 
L 119.076684 214.452642 
L 118.417474 214.377303 
L 117.617005 214.452642 
L 114.509302 214.716326 
L 114.27387 214.678656 
L 112.390413 214.980009 
L 108.293895 213.171891 
L 106.080834 215.846399 
L 97.511107 219.349629 
L 83.714787 222.626843 
L 64.974395 226.845786 
L 48.823755 221.986468 
L 40.960324 221.383762 
L 33.00272 222.174813 
z
" clip-path="url(#pc09b8adab1)" style="fill: #fb363b"/>
   </g>
   <g id="PolyCollection_2">
    <path d="M 33.00272 144.72708 
L 33.00272 222.174813 
L 40.960324 221.383762 
L 48.823755 221.986468 
L 64.974395 226.845786 
L 83.714787 222.626843 
L 97.511107 219.349629 
L 106.080834 215.846399 
L 108.293895 213.171891 
L 112.390413 214.980009 
L 114.27387 214.678656 
L 114.509302 214.716326 
L 117.617005 214.452642 
L 118.417474 214.377303 
L 119.076684 214.452642 
L 119.877153 214.264296 
L 120.395104 214.038281 
L 121.195573 213.925274 
L 121.666437 213.849936 
L 122.513992 213.774597 
L 123.644066 213.699259 
L 124.538708 213.360237 
L 124.868313 213.397906 
L 125.810041 212.719862 
L 126.469251 212.418509 
L 127.175547 212.418509 
L 127.92893 212.305501 
L 128.44688 212.230163 
L 128.917745 212.041817 
L 130.236164 212.267832 
L 131.177892 212.041817 
L 131.884189 212.041817 
L 132.072534 212.041817 
L 132.731744 211.702795 
L 133.720559 211.024751 
L 134.75646 210.987082 
L 135.462756 210.949412 
L 136.498657 210.874074 
L 137.864163 210.836405 
L 139.74762 210.422045 
L 141.395644 209.894677 
L 142.808237 209.103625 
L 145.445076 208.839941 
L 146.57515 208.46325 
L 149.635767 208.237235 
L 151.613396 207.182499 
L 152.837643 206.768139 
L 153.591025 206.73047 
L 156.557469 206.805808 
L 158.205494 204.809344 
L 159.900605 204.620998 
L 163.24374 204.54566 
L 166.351443 204.432653 
L 166.869394 204.394984 
L 167.481517 204.206638 
L 168.423246 204.093631 
L 169.176628 204.244307 
L 171.483863 204.168969 
L 176.098331 203.528594 
L 176.992973 203.453255 
L 181.324923 202.963557 
L 182.313738 203.189571 
L 183.302552 203.189571 
L 184.90349 202.511527 
L 186.22191 202.549196 
L 187.493243 202.699873 
L 188.293712 201.795814 
L 190.883465 201.193108 
L 193.567391 201.0801 
L 194.88581 200.967093 
L 195.827538 200.967093 
L 197.004699 201.0801 
L 197.993514 201.042431 
L 199.170674 200.854085 
L 201.948772 200.138372 
L 203.408451 200.025364 
L 204.821044 199.987695 
L 206.280722 199.950026 
L 207.693315 199.912357 
L 209.152994 199.874688 
L 210.612672 199.79935 
L 211.978178 199.79935 
L 213.437857 199.648673 
L 214.85045 199.535666 
L 216.310128 199.497997 
L 217.722721 199.271982 
L 219.1824 199.158974 
L 220.642079 198.970629 
L 222.054671 198.631607 
L 223.51435 198.443261 
L 224.926942 198.217246 
L 226.386621 198.141908 
L 227.8463 197.878224 
L 229.164719 197.765217 
L 230.624398 197.689878 
L 232.036991 196.672812 
L 233.496669 196.371459 
L 234.909262 195.919429 
L 236.368941 195.844091 
L 237.82862 195.203716 
L 239.241212 194.977701 
L 240.700891 194.940032 
L 242.113483 194.488002 
L 243.573162 194.299657 
L 245.032841 194.299657 
L 246.35126 194.261987 
L 247.810939 194.073642 
L 249.223532 193.922965 
L 250.683211 193.583943 
L 252.095803 193.357928 
L 253.555482 193.094244 
L 255.015161 193.018906 
L 256.427753 192.717553 
L 257.887432 192.378531 
L 259.300024 192.114847 
L 260.759703 191.96417 
L 262.219382 191.738156 
L 263.537801 191.738156 
L 264.99748 191.54981 
L 266.410073 191.474472 
L 267.869752 192.039509 
L 269.282344 191.926501 
L 270.742023 191.775825 
L 272.201702 191.738156 
L 273.614294 191.700486 
L 275.073973 191.512141 
L 276.486565 191.512141 
L 277.946244 191.436803 
L 279.405923 191.248457 
L 280.771429 191.210788 
L 282.231108 191.13545 
L 283.6437 190.758758 
L 285.103379 190.758758 
L 286.515971 190.570413 
L 287.97565 190.156052 
L 289.435329 190.043045 
L 290.847921 189.967706 
L 292.3076 189.779361 
L 293.720193 189.666353 
L 295.179872 188.95064 
L 296.63955 188.875302 
L 297.95797 188.837633 
L 299.417649 188.573949 
L 300.830241 188.49861 
L 302.28992 188.460941 
L 303.702512 188.536279 
L 305.162191 189.138986 
L 306.62187 188.423272 
L 308.034462 188.159588 
L 309.494141 186.502146 
L 310.906734 186.35147 
L 312.366413 186.200793 
L 313.826091 186.163124 
L 315.144511 186.012448 
L 316.60419 185.861771 
L 318.016782 185.560418 
L 319.476461 185.409742 
L 320.889053 185.183727 
L 322.348732 185.070719 
L 323.808411 184.957712 
L 325.221004 184.957712 
L 326.680682 184.920043 
L 328.093275 184.844705 
L 329.552954 184.807036 
L 331.012632 184.769366 
L 332.331052 184.769366 
L 333.790731 184.731697 
L 335.203323 184.656359 
L 336.663002 184.581021 
L 338.075594 184.468013 
L 339.535273 184.241999 
L 340.994952 184.091322 
L 342.407545 184.015984 
L 343.867223 183.902976 
L 345.279816 183.902976 
L 346.739495 183.902976 
L 348.199173 183.827638 
L 349.564679 183.7523 
L 351.024358 183.639292 
L 352.436951 183.30027 
L 353.896629 183.224932 
L 355.309222 183.224932 
L 356.768901 183.149594 
L 358.22858 183.111925 
L 359.641172 182.961248 
L 361.100851 182.88591 
L 362.513443 182.735233 
L 363.973122 182.697564 
L 365.432801 182.283204 
L 366.75122 182.170196 
L 368.210899 181.680498 
L 369.623492 181.529821 
L 371.083171 181.529821 
L 372.495763 181.266137 
L 373.955442 181.077792 
L 375.415121 181.115461 
L 376.827713 180.889446 
L 378.287392 180.588093 
L 379.699984 180.399747 
L 381.159663 180.211402 
L 382.619342 180.211402 
L 383.937761 180.173732 
L 385.39744 180.211402 
L 386.810033 180.28674 
L 388.269712 180.211402 
L 389.682304 180.249071 
L 391.141983 180.249071 
L 392.601662 180.211402 
L 394.014254 180.211402 
L 395.473933 179.985387 
L 396.886525 179.872379 
L 398.346204 179.759372 
L 399.805883 179.797041 
L 401.124303 179.232004 
L 402.583981 178.892982 
L 403.996574 178.892982 
L 405.456253 178.779975 
L 406.868845 178.55396 
L 408.328524 178.10193 
L 409.788203 177.988923 
L 411.200795 177.951254 
L 412.660474 177.838246 
L 414.073066 177.612231 
L 415.532745 177.574562 
L 416.992424 177.461555 
L 418.35793 175.841782 
L 419.817609 175.766444 
L 421.230201 175.653437 
L 422.68988 175.540429 
L 424.102472 175.013061 
L 425.562151 174.184341 
L 427.02183 174.184341 
L 428.434422 173.958326 
L 429.894101 173.958326 
L 431.306694 173.732311 
L 432.766373 172.978928 
L 434.226051 170.831788 
L 435.544471 169.85239 
L 437.00415 169.814721 
L 438.416742 169.513368 
L 439.876421 169.513368 
L 441.289013 169.475699 
L 442.748692 169.400361 
L 444.208371 169.513368 
L 445.620964 170.116074 
L 447.080642 170.153744 
L 448.493235 170.153744 
L 449.952914 170.229082 
L 449.952914 106.831934 
L 449.952914 106.831934 
L 448.493235 106.492912 
L 447.080642 106.455243 
L 445.620964 106.379905 
L 444.208371 105.438176 
L 442.748692 104.83547 
L 441.289013 104.760132 
L 439.876421 104.571786 
L 438.416742 104.496448 
L 437.00415 104.458779 
L 435.544471 104.232764 
L 434.226051 104.270433 
L 432.766373 104.232764 
L 431.306694 104.760132 
L 429.894101 104.83547 
L 428.434422 104.948478 
L 427.02183 104.986147 
L 425.562151 105.212162 
L 424.102472 105.099154 
L 422.68988 105.061485 
L 421.230201 105.212162 
L 419.817609 105.2875 
L 418.35793 105.249831 
L 416.992424 105.513515 
L 415.532745 105.777199 
L 414.073066 105.777199 
L 412.660474 105.890206 
L 411.200795 106.040883 
L 409.788203 106.116221 
L 408.328524 106.116221 
L 406.868845 106.379905 
L 405.456253 106.60592 
L 403.996574 106.718927 
L 402.583981 106.718927 
L 401.124303 106.756596 
L 399.805883 106.907273 
L 398.346204 107.02028 
L 396.886525 107.095618 
L 395.473933 107.095618 
L 394.014254 107.133287 
L 392.601662 107.02028 
L 391.141983 107.057949 
L 389.682304 107.057949 
L 388.269712 107.246295 
L 386.810033 107.208626 
L 385.39744 107.208626 
L 383.937761 107.246295 
L 382.619342 107.321633 
L 381.159663 107.321633 
L 379.699984 107.43464 
L 378.287392 107.396971 
L 376.827713 107.509979 
L 375.415121 107.547648 
L 373.955442 107.585317 
L 372.495763 107.622986 
L 371.083171 107.660655 
L 369.623492 107.622986 
L 368.210899 107.735993 
L 366.75122 107.924339 
L 365.432801 108.075016 
L 363.973122 108.112685 
L 362.513443 108.112685 
L 361.100851 108.188023 
L 359.641172 108.225692 
L 358.22858 108.30103 
L 356.768901 108.30103 
L 355.309222 108.3387 
L 353.896629 108.376369 
L 352.436951 108.263361 
L 351.024358 108.225692 
L 349.564679 108.263361 
L 348.199173 108.188023 
L 346.739495 108.188023 
L 345.279816 108.188023 
L 343.867223 108.188023 
L 342.407545 108.188023 
L 340.994952 108.225692 
L 339.535273 108.188023 
L 338.075594 108.225692 
L 336.663002 108.225692 
L 335.203323 108.112685 
L 333.790731 108.112685 
L 332.331052 108.150354 
L 331.012632 108.150354 
L 329.552954 108.225692 
L 328.093275 108.225692 
L 326.680682 108.30103 
L 325.221004 108.30103 
L 323.808411 108.30103 
L 322.348732 108.3387 
L 320.889053 108.3387 
L 319.476461 108.3387 
L 318.016782 108.376369 
L 316.60419 108.414038 
L 315.144511 108.715391 
L 313.826091 108.828398 
L 312.366413 108.75306 
L 310.906734 108.828398 
L 309.494141 108.941406 
L 308.034462 108.979075 
L 306.62187 109.506443 
L 305.162191 109.807796 
L 303.702512 111.879598 
L 302.28992 113.047341 
L 300.830241 113.461701 
L 299.417649 113.461701 
L 297.95797 113.763054 
L 296.63955 113.687716 
L 295.179872 112.934334 
L 293.720193 113.122679 
L 292.3076 113.53704 
L 290.847921 113.53704 
L 289.435329 113.424032 
L 287.97565 113.574709 
L 286.515971 113.612378 
L 285.103379 113.612378 
L 283.6437 113.650047 
L 282.231108 113.725385 
L 280.771429 113.725385 
L 279.405923 113.763054 
L 277.946244 113.763054 
L 276.486565 113.876062 
L 275.073973 113.913731 
L 273.614294 113.9514 
L 272.201702 113.9514 
L 270.742023 113.913731 
L 269.282344 113.9514 
L 267.869752 113.913731 
L 266.410073 114.516437 
L 264.99748 114.478768 
L 263.537801 114.554106 
L 262.219382 114.629444 
L 260.759703 114.742452 
L 259.300024 114.704783 
L 257.887432 114.968467 
L 256.427753 115.081474 
L 255.015161 115.232151 
L 253.555482 115.420496 
L 252.095803 115.458165 
L 250.683211 115.382827 
L 249.223532 115.458165 
L 247.810939 115.495834 
L 246.35126 115.495834 
L 245.032841 115.495834 
L 243.573162 115.495834 
L 242.113483 115.646511 
L 240.700891 115.721849 
L 239.241212 115.947864 
L 237.82862 115.985533 
L 236.368941 116.211548 
L 234.909262 116.286886 
L 233.496669 116.512901 
L 232.036991 116.625908 
L 230.624398 116.776585 
L 229.164719 116.814254 
L 227.8463 116.851923 
L 226.386621 117.0026 
L 224.926942 117.0026 
L 223.51435 117.190945 
L 222.054671 117.454629 
L 220.642079 117.605306 
L 219.1824 117.755982 
L 217.722721 117.944328 
L 216.310128 118.019666 
L 214.85045 118.321019 
L 213.437857 118.321019 
L 211.978178 118.358688 
L 210.612672 118.358688 
L 209.152994 118.358688 
L 207.693315 118.358688 
L 206.280722 118.358688 
L 204.821044 118.396358 
L 203.408451 118.547034 
L 201.948772 118.622372 
L 199.170674 119.074402 
L 197.993514 119.639439 
L 197.004699 119.903123 
L 195.827538 119.375755 
L 194.88581 119.677108 
L 193.567391 119.790115 
L 190.883465 119.940792 
L 188.293712 119.940792 
L 187.493243 120.091468 
L 186.22191 120.581167 
L 184.90349 120.543498 
L 183.302552 121.409888 
L 182.313738 121.409888 
L 181.324923 121.824248 
L 176.992973 122.087932 
L 176.098331 122.163271 
L 171.483863 123.218006 
L 169.176628 124.159735 
L 168.423246 124.197404 
L 167.481517 124.197404 
L 166.869394 124.197404 
L 166.351443 124.235073 
L 163.24374 123.820712 
L 159.900605 124.310411 
L 158.205494 124.498757 
L 156.557469 124.687102 
L 153.591025 124.80011 
L 152.837643 124.875448 
L 151.613396 125.063794 
L 149.635767 125.365147 
L 146.57515 125.21447 
L 145.445076 125.515823 
L 142.808237 125.478154 
L 141.395644 125.402816 
L 139.74762 125.741838 
L 137.864163 125.6665 
L 136.498657 125.553492 
L 135.462756 125.817176 
L 134.75646 125.854845 
L 133.720559 125.139132 
L 132.731744 125.176801 
L 132.072534 125.327478 
L 131.884189 125.327478 
L 131.177892 125.289809 
L 130.236164 125.779507 
L 128.917745 125.252139 
L 128.44688 125.252139 
L 127.92893 125.289809 
L 127.175547 125.327478 
L 126.469251 125.139132 
L 125.810041 125.553492 
L 124.868313 125.6665 
L 124.538708 125.440485 
L 123.644066 125.591162 
L 122.513992 125.553492 
L 121.666437 126.043191 
L 121.195573 125.967853 
L 120.395104 125.967853 
L 119.877153 124.272742 
L 119.076684 124.649433 
L 118.417474 123.707705 
L 117.617005 123.48169 
L 114.509302 123.745374 
L 114.27387 123.594698 
L 112.390413 123.858382 
L 108.293895 125.553492 
L 106.080834 126.382213 
L 97.511107 128.378677 
L 83.714787 131.241531 
L 64.974395 134.895437 
L 48.823755 140.734152 
L 40.960324 144.425727 
L 33.00272 144.72708 
z
" clip-path="url(#pc09b8adab1)" style="fill: #fdc92c"/>
   </g>
   <g id="PolyCollection_3">
    <path d="M 33.00272 115.043805 
L 33.00272 144.72708 
L 40.960324 144.425727 
L 48.823755 140.734152 
L 64.974395 134.895437 
L 83.714787 131.241531 
L 97.511107 128.378677 
L 106.080834 126.382213 
L 108.293895 125.553492 
L 112.390413 123.858382 
L 114.27387 123.594698 
L 114.509302 123.745374 
L 117.617005 123.48169 
L 118.417474 123.707705 
L 119.076684 124.649433 
L 119.877153 124.272742 
L 120.395104 125.967853 
L 121.195573 125.967853 
L 121.666437 126.043191 
L 122.513992 125.553492 
L 123.644066 125.591162 
L 124.538708 125.440485 
L 124.868313 125.6665 
L 125.810041 125.553492 
L 126.469251 125.139132 
L 127.175547 125.327478 
L 127.92893 125.289809 
L 128.44688 125.252139 
L 128.917745 125.252139 
L 130.236164 125.779507 
L 131.177892 125.289809 
L 131.884189 125.327478 
L 132.072534 125.327478 
L 132.731744 125.176801 
L 133.720559 125.139132 
L 134.75646 125.854845 
L 135.462756 125.817176 
L 136.498657 125.553492 
L 137.864163 125.6665 
L 139.74762 125.741838 
L 141.395644 125.402816 
L 142.808237 125.478154 
L 145.445076 125.515823 
L 146.57515 125.21447 
L 149.635767 125.365147 
L 151.613396 125.063794 
L 152.837643 124.875448 
L 153.591025 124.80011 
L 156.557469 124.687102 
L 158.205494 124.498757 
L 159.900605 124.310411 
L 163.24374 123.820712 
L 166.351443 124.235073 
L 166.869394 124.197404 
L 167.481517 124.197404 
L 168.423246 124.197404 
L 169.176628 124.159735 
L 171.483863 123.218006 
L 176.098331 122.163271 
L 176.992973 122.087932 
L 181.324923 121.824248 
L 182.313738 121.409888 
L 183.302552 121.409888 
L 184.90349 120.543498 
L 186.22191 120.581167 
L 187.493243 120.091468 
L 188.293712 119.940792 
L 190.883465 119.940792 
L 193.567391 119.790115 
L 194.88581 119.677108 
L 195.827538 119.375755 
L 197.004699 119.903123 
L 197.993514 119.639439 
L 199.170674 119.074402 
L 201.948772 118.622372 
L 203.408451 118.547034 
L 204.821044 118.396358 
L 206.280722 118.358688 
L 207.693315 118.358688 
L 209.152994 118.358688 
L 210.612672 118.358688 
L 211.978178 118.358688 
L 213.437857 118.321019 
L 214.85045 118.321019 
L 216.310128 118.019666 
L 217.722721 117.944328 
L 219.1824 117.755982 
L 220.642079 117.605306 
L 222.054671 117.454629 
L 223.51435 117.190945 
L 224.926942 117.0026 
L 226.386621 117.0026 
L 227.8463 116.851923 
L 229.164719 116.814254 
L 230.624398 116.776585 
L 232.036991 116.625908 
L 233.496669 116.512901 
L 234.909262 116.286886 
L 236.368941 116.211548 
L 237.82862 115.985533 
L 239.241212 115.947864 
L 240.700891 115.721849 
L 242.113483 115.646511 
L 243.573162 115.495834 
L 245.032841 115.495834 
L 246.35126 115.495834 
L 247.810939 115.495834 
L 249.223532 115.458165 
L 250.683211 115.382827 
L 252.095803 115.458165 
L 253.555482 115.420496 
L 255.015161 115.232151 
L 256.427753 115.081474 
L 257.887432 114.968467 
L 259.300024 114.704783 
L 260.759703 114.742452 
L 262.219382 114.629444 
L 263.537801 114.554106 
L 264.99748 114.478768 
L 266.410073 114.516437 
L 267.869752 113.913731 
L 269.282344 113.9514 
L 270.742023 113.913731 
L 272.201702 113.9514 
L 273.614294 113.9514 
L 275.073973 113.913731 
L 276.486565 113.876062 
L 277.946244 113.763054 
L 279.405923 113.763054 
L 280.771429 113.725385 
L 282.231108 113.725385 
L 283.6437 113.650047 
L 285.103379 113.612378 
L 286.515971 113.612378 
L 287.97565 113.574709 
L 289.435329 113.424032 
L 290.847921 113.53704 
L 292.3076 113.53704 
L 293.720193 113.122679 
L 295.179872 112.934334 
L 296.63955 113.687716 
L 297.95797 113.763054 
L 299.417649 113.461701 
L 300.830241 113.461701 
L 302.28992 113.047341 
L 303.702512 111.879598 
L 305.162191 109.807796 
L 306.62187 109.506443 
L 308.034462 108.979075 
L 309.494141 108.941406 
L 310.906734 108.828398 
L 312.366413 108.75306 
L 313.826091 108.828398 
L 315.144511 108.715391 
L 316.60419 108.414038 
L 318.016782 108.376369 
L 319.476461 108.3387 
L 320.889053 108.3387 
L 322.348732 108.3387 
L 323.808411 108.30103 
L 325.221004 108.30103 
L 326.680682 108.30103 
L 328.093275 108.225692 
L 329.552954 108.225692 
L 331.012632 108.150354 
L 332.331052 108.150354 
L 333.790731 108.112685 
L 335.203323 108.112685 
L 336.663002 108.225692 
L 338.075594 108.225692 
L 339.535273 108.188023 
L 340.994952 108.225692 
L 342.407545 108.188023 
L 343.867223 108.188023 
L 345.279816 108.188023 
L 346.739495 108.188023 
L 348.199173 108.188023 
L 349.564679 108.263361 
L 351.024358 108.225692 
L 352.436951 108.263361 
L 353.896629 108.376369 
L 355.309222 108.3387 
L 356.768901 108.30103 
L 358.22858 108.30103 
L 359.641172 108.225692 
L 361.100851 108.188023 
L 362.513443 108.112685 
L 363.973122 108.112685 
L 365.432801 108.075016 
L 366.75122 107.924339 
L 368.210899 107.735993 
L 369.623492 107.622986 
L 371.083171 107.660655 
L 372.495763 107.622986 
L 373.955442 107.585317 
L 375.415121 107.547648 
L 376.827713 107.509979 
L 378.287392 107.396971 
L 379.699984 107.43464 
L 381.159663 107.321633 
L 382.619342 107.321633 
L 383.937761 107.246295 
L 385.39744 107.208626 
L 386.810033 107.208626 
L 388.269712 107.246295 
L 389.682304 107.057949 
L 391.141983 107.057949 
L 392.601662 107.02028 
L 394.014254 107.133287 
L 395.473933 107.095618 
L 396.886525 107.095618 
L 398.346204 107.02028 
L 399.805883 106.907273 
L 401.124303 106.756596 
L 402.583981 106.718927 
L 403.996574 106.718927 
L 405.456253 106.60592 
L 406.868845 106.379905 
L 408.328524 106.116221 
L 409.788203 106.116221 
L 411.200795 106.040883 
L 412.660474 105.890206 
L 414.073066 105.777199 
L 415.532745 105.777199 
L 416.992424 105.513515 
L 418.35793 105.249831 
L 419.817609 105.2875 
L 421.230201 105.212162 
L 422.68988 105.061485 
L 424.102472 105.099154 
L 425.562151 105.212162 
L 427.02183 104.986147 
L 428.434422 104.948478 
L 429.894101 104.83547 
L 431.306694 104.760132 
L 432.766373 104.232764 
L 434.226051 104.270433 
L 435.544471 104.232764 
L 437.00415 104.458779 
L 438.416742 104.496448 
L 439.876421 104.571786 
L 441.289013 104.760132 
L 442.748692 104.83547 
L 444.208371 105.438176 
L 445.620964 106.379905 
L 447.080642 106.455243 
L 448.493235 106.492912 
L 449.952914 106.831934 
L 449.952914 92.70601 
L 449.952914 92.70601 
L 448.493235 92.70601 
L 447.080642 92.70601 
L 445.620964 92.70601 
L 444.208371 91.801951 
L 442.748692 91.801951 
L 441.289013 91.801951 
L 439.876421 91.801951 
L 438.416742 91.801951 
L 437.00415 91.764282 
L 435.544471 91.764282 
L 434.226051 91.764282 
L 432.766373 91.764282 
L 431.306694 91.764282 
L 429.894101 91.764282 
L 428.434422 91.764282 
L 427.02183 91.726613 
L 425.562151 92.065635 
L 424.102472 92.29165 
L 422.68988 92.29165 
L 421.230201 92.329319 
L 419.817609 92.329319 
L 418.35793 92.329319 
L 416.992424 92.366988 
L 415.532745 92.366988 
L 414.073066 92.366988 
L 412.660474 92.404657 
L 411.200795 92.404657 
L 409.788203 92.404657 
L 408.328524 92.404657 
L 406.868845 92.479995 
L 405.456253 92.479995 
L 403.996574 92.479995 
L 402.583981 92.479995 
L 401.124303 92.479995 
L 399.805883 92.517665 
L 398.346204 92.517665 
L 396.886525 92.593003 
L 395.473933 92.593003 
L 394.014254 92.630672 
L 392.601662 92.630672 
L 391.141983 92.630672 
L 389.682304 92.630672 
L 388.269712 92.70601 
L 386.810033 92.781348 
L 385.39744 92.781348 
L 383.937761 92.781348 
L 382.619342 92.781348 
L 381.159663 92.781348 
L 379.699984 92.819018 
L 378.287392 92.781348 
L 376.827713 92.856687 
L 375.415121 92.856687 
L 373.955442 92.856687 
L 372.495763 92.894356 
L 371.083171 92.894356 
L 369.623492 92.894356 
L 368.210899 92.932025 
L 366.75122 92.969694 
L 365.432801 93.007363 
L 363.973122 93.007363 
L 362.513443 92.969694 
L 361.100851 92.969694 
L 359.641172 92.969694 
L 358.22858 92.932025 
L 356.768901 92.932025 
L 355.309222 92.969694 
L 353.896629 92.969694 
L 352.436951 92.894356 
L 351.024358 92.856687 
L 349.564679 92.856687 
L 348.199173 92.894356 
L 346.739495 92.894356 
L 345.279816 92.894356 
L 343.867223 92.894356 
L 342.407545 92.894356 
L 340.994952 92.894356 
L 339.535273 92.894356 
L 338.075594 92.894356 
L 336.663002 92.894356 
L 335.203323 92.819018 
L 333.790731 92.819018 
L 332.331052 92.819018 
L 331.012632 92.819018 
L 329.552954 92.781348 
L 328.093275 92.781348 
L 326.680682 92.856687 
L 325.221004 92.856687 
L 323.808411 92.856687 
L 322.348732 92.894356 
L 320.889053 92.894356 
L 319.476461 92.894356 
L 318.016782 92.932025 
L 316.60419 92.969694 
L 315.144511 93.045032 
L 313.826091 93.045032 
L 312.366413 93.045032 
L 310.906734 93.195709 
L 309.494141 93.195709 
L 308.034462 93.195709 
L 306.62187 93.082701 
L 305.162191 93.120371 
L 303.702512 93.308716 
L 302.28992 94.212775 
L 300.830241 94.363452 
L 299.417649 94.401121 
L 297.95797 94.43879 
L 296.63955 94.43879 
L 295.179872 94.43879 
L 293.720193 94.43879 
L 292.3076 94.476459 
L 290.847921 94.476459 
L 289.435329 94.514128 
L 287.97565 94.551798 
L 286.515971 94.589467 
L 285.103379 94.589467 
L 283.6437 94.589467 
L 282.231108 94.589467 
L 280.771429 94.589467 
L 279.405923 94.627136 
L 277.946244 94.627136 
L 276.486565 94.664805 
L 275.073973 94.702474 
L 273.614294 94.702474 
L 272.201702 94.702474 
L 270.742023 94.702474 
L 269.282344 94.702474 
L 267.869752 94.702474 
L 266.410073 94.702474 
L 264.99748 94.702474 
L 263.537801 94.777812 
L 262.219382 94.777812 
L 260.759703 94.777812 
L 259.300024 94.815482 
L 257.887432 94.815482 
L 256.427753 94.853151 
L 255.015161 95.003827 
L 253.555482 95.907886 
L 252.095803 95.907886 
L 250.683211 95.907886 
L 249.223532 95.983225 
L 247.810939 95.983225 
L 246.35126 95.983225 
L 245.032841 95.983225 
L 243.573162 95.983225 
L 242.113483 95.983225 
L 240.700891 96.058563 
L 239.241212 95.983225 
L 237.82862 96.020894 
L 236.368941 96.096232 
L 234.909262 96.17157 
L 233.496669 96.359916 
L 232.036991 96.397585 
L 230.624398 96.397585 
L 229.164719 96.397585 
L 227.8463 96.397585 
L 226.386621 96.472923 
L 224.926942 96.472923 
L 223.51435 96.548262 
L 222.054671 96.548262 
L 220.642079 96.435254 
L 219.1824 96.510592 
L 217.722721 96.510592 
L 216.310128 96.510592 
L 214.85045 96.548262 
L 213.437857 96.548262 
L 211.978178 96.548262 
L 210.612672 96.585931 
L 209.152994 96.585931 
L 207.693315 96.6236 
L 206.280722 96.585931 
L 204.821044 96.585931 
L 203.408451 96.661269 
L 201.948772 96.698938 
L 199.170674 96.962622 
L 197.993514 97.527659 
L 197.004699 97.791343 
L 195.827538 97.188637 
L 194.88581 97.678335 
L 193.567391 97.716005 
L 190.883465 98.582395 
L 188.293712 98.582395 
L 187.493243 98.544725 
L 186.22191 98.695402 
L 184.90349 98.695402 
L 183.302552 98.77074 
L 182.313738 98.77074 
L 181.324923 98.808409 
L 176.992973 98.959086 
L 176.098331 98.959086 
L 171.483863 99.938483 
L 169.176628 100.051491 
L 168.423246 100.08916 
L 167.481517 100.202167 
L 166.869394 100.202167 
L 166.351443 100.202167 
L 163.24374 100.202167 
L 159.900605 100.428182 
L 158.205494 100.541189 
L 156.557469 100.578859 
L 153.591025 100.654197 
L 152.837643 100.767204 
L 151.613396 100.95555 
L 149.635767 101.181565 
L 146.57515 101.332241 
L 145.445076 101.934947 
L 142.808237 101.972616 
L 141.395644 102.2363 
L 139.74762 102.537653 
L 137.864163 102.612992 
L 136.498657 102.612992 
L 135.462756 102.612992 
L 134.75646 102.612992 
L 133.720559 102.763668 
L 132.731744 102.914345 
L 132.072534 103.027352 
L 131.884189 103.027352 
L 131.177892 102.989683 
L 130.236164 103.517051 
L 128.917745 103.065021 
L 128.44688 103.065021 
L 127.92893 103.140359 
L 127.175547 103.140359 
L 126.469251 103.140359 
L 125.810041 103.705396 
L 124.868313 103.705396 
L 124.538708 103.253367 
L 123.644066 103.818404 
L 122.513992 104.873139 
L 121.666437 105.73953 
L 121.195573 105.777199 
L 120.395104 105.777199 
L 119.877153 105.814868 
L 119.076684 106.379905 
L 118.417474 105.852537 
L 117.617005 105.852537 
L 114.509302 106.116221 
L 114.27387 106.15389 
L 112.390413 106.191559 
L 108.293895 103.705396 
L 106.080834 106.342236 
L 97.511107 108.150354 
L 83.714787 109.996141 
L 64.974395 111.276892 
L 48.823755 113.198017 
L 40.960324 115.458165 
L 33.00272 115.043805 
z
" clip-path="url(#pc09b8adab1)" style="fill: #aeaeae"/>
   </g>
   <g id="PolyCollection_4">
    <path d="M 33.00272 92.178642 
L 33.00272 115.043805 
L 40.960324 115.458165 
L 48.823755 113.198017 
L 64.974395 111.276892 
L 83.714787 109.996141 
L 97.511107 108.150354 
L 106.080834 106.342236 
L 108.293895 103.705396 
L 112.390413 106.191559 
L 114.27387 106.15389 
L 114.509302 106.116221 
L 117.617005 105.852537 
L 118.417474 105.852537 
L 119.076684 106.379905 
L 119.877153 105.814868 
L 120.395104 105.777199 
L 121.195573 105.777199 
L 121.666437 105.73953 
L 122.513992 104.873139 
L 123.644066 103.818404 
L 124.538708 103.253367 
L 124.868313 103.705396 
L 125.810041 103.705396 
L 126.469251 103.140359 
L 127.175547 103.140359 
L 127.92893 103.140359 
L 128.44688 103.065021 
L 128.917745 103.065021 
L 130.236164 103.517051 
L 131.177892 102.989683 
L 131.884189 103.027352 
L 132.072534 103.027352 
L 132.731744 102.914345 
L 133.720559 102.763668 
L 134.75646 102.612992 
L 135.462756 102.612992 
L 136.498657 102.612992 
L 137.864163 102.612992 
L 139.74762 102.537653 
L 141.395644 102.2363 
L 142.808237 101.972616 
L 145.445076 101.934947 
L 146.57515 101.332241 
L 149.635767 101.181565 
L 151.613396 100.95555 
L 152.837643 100.767204 
L 153.591025 100.654197 
L 156.557469 100.578859 
L 158.205494 100.541189 
L 159.900605 100.428182 
L 163.24374 100.202167 
L 166.351443 100.202167 
L 166.869394 100.202167 
L 167.481517 100.202167 
L 168.423246 100.08916 
L 169.176628 100.051491 
L 171.483863 99.938483 
L 176.098331 98.959086 
L 176.992973 98.959086 
L 181.324923 98.808409 
L 182.313738 98.77074 
L 183.302552 98.77074 
L 184.90349 98.695402 
L 186.22191 98.695402 
L 187.493243 98.544725 
L 188.293712 98.582395 
L 190.883465 98.582395 
L 193.567391 97.716005 
L 194.88581 97.678335 
L 195.827538 97.188637 
L 197.004699 97.791343 
L 197.993514 97.527659 
L 199.170674 96.962622 
L 201.948772 96.698938 
L 203.408451 96.661269 
L 204.821044 96.585931 
L 206.280722 96.585931 
L 207.693315 96.6236 
L 209.152994 96.585931 
L 210.612672 96.585931 
L 211.978178 96.548262 
L 213.437857 96.548262 
L 214.85045 96.548262 
L 216.310128 96.510592 
L 217.722721 96.510592 
L 219.1824 96.510592 
L 220.642079 96.435254 
L 222.054671 96.548262 
L 223.51435 96.548262 
L 224.926942 96.472923 
L 226.386621 96.472923 
L 227.8463 96.397585 
L 229.164719 96.397585 
L 230.624398 96.397585 
L 232.036991 96.397585 
L 233.496669 96.359916 
L 234.909262 96.17157 
L 236.368941 96.096232 
L 237.82862 96.020894 
L 239.241212 95.983225 
L 240.700891 96.058563 
L 242.113483 95.983225 
L 243.573162 95.983225 
L 245.032841 95.983225 
L 246.35126 95.983225 
L 247.810939 95.983225 
L 249.223532 95.983225 
L 250.683211 95.907886 
L 252.095803 95.907886 
L 253.555482 95.907886 
L 255.015161 95.003827 
L 256.427753 94.853151 
L 257.887432 94.815482 
L 259.300024 94.815482 
L 260.759703 94.777812 
L 262.219382 94.777812 
L 263.537801 94.777812 
L 264.99748 94.702474 
L 266.410073 94.702474 
L 267.869752 94.702474 
L 269.282344 94.702474 
L 270.742023 94.702474 
L 272.201702 94.702474 
L 273.614294 94.702474 
L 275.073973 94.702474 
L 276.486565 94.664805 
L 277.946244 94.627136 
L 279.405923 94.627136 
L 280.771429 94.589467 
L 282.231108 94.589467 
L 283.6437 94.589467 
L 285.103379 94.589467 
L 286.515971 94.589467 
L 287.97565 94.551798 
L 289.435329 94.514128 
L 290.847921 94.476459 
L 292.3076 94.476459 
L 293.720193 94.43879 
L 295.179872 94.43879 
L 296.63955 94.43879 
L 297.95797 94.43879 
L 299.417649 94.401121 
L 300.830241 94.363452 
L 302.28992 94.212775 
L 303.702512 93.308716 
L 305.162191 93.120371 
L 306.62187 93.082701 
L 308.034462 93.195709 
L 309.494141 93.195709 
L 310.906734 93.195709 
L 312.366413 93.045032 
L 313.826091 93.045032 
L 315.144511 93.045032 
L 316.60419 92.969694 
L 318.016782 92.932025 
L 319.476461 92.894356 
L 320.889053 92.894356 
L 322.348732 92.894356 
L 323.808411 92.856687 
L 325.221004 92.856687 
L 326.680682 92.856687 
L 328.093275 92.781348 
L 329.552954 92.781348 
L 331.012632 92.819018 
L 332.331052 92.819018 
L 333.790731 92.819018 
L 335.203323 92.819018 
L 336.663002 92.894356 
L 338.075594 92.894356 
L 339.535273 92.894356 
L 340.994952 92.894356 
L 342.407545 92.894356 
L 343.867223 92.894356 
L 345.279816 92.894356 
L 346.739495 92.894356 
L 348.199173 92.894356 
L 349.564679 92.856687 
L 351.024358 92.856687 
L 352.436951 92.894356 
L 353.896629 92.969694 
L 355.309222 92.969694 
L 356.768901 92.932025 
L 358.22858 92.932025 
L 359.641172 92.969694 
L 361.100851 92.969694 
L 362.513443 92.969694 
L 363.973122 93.007363 
L 365.432801 93.007363 
L 366.75122 92.969694 
L 368.210899 92.932025 
L 369.623492 92.894356 
L 371.083171 92.894356 
L 372.495763 92.894356 
L 373.955442 92.856687 
L 375.415121 92.856687 
L 376.827713 92.856687 
L 378.287392 92.781348 
L 379.699984 92.819018 
L 381.159663 92.781348 
L 382.619342 92.781348 
L 383.937761 92.781348 
L 385.39744 92.781348 
L 386.810033 92.781348 
L 388.269712 92.70601 
L 389.682304 92.630672 
L 391.141983 92.630672 
L 392.601662 92.630672 
L 394.014254 92.630672 
L 395.473933 92.593003 
L 396.886525 92.593003 
L 398.346204 92.517665 
L 399.805883 92.517665 
L 401.124303 92.479995 
L 402.583981 92.479995 
L 403.996574 92.479995 
L 405.456253 92.479995 
L 406.868845 92.479995 
L 408.328524 92.404657 
L 409.788203 92.404657 
L 411.200795 92.404657 
L 412.660474 92.404657 
L 414.073066 92.366988 
L 415.532745 92.366988 
L 416.992424 92.366988 
L 418.35793 92.329319 
L 419.817609 92.329319 
L 421.230201 92.329319 
L 422.68988 92.29165 
L 424.102472 92.29165 
L 425.562151 92.065635 
L 427.02183 91.726613 
L 428.434422 91.764282 
L 429.894101 91.764282 
L 431.306694 91.764282 
L 432.766373 91.764282 
L 434.226051 91.764282 
L 435.544471 91.764282 
L 437.00415 91.764282 
L 438.416742 91.801951 
L 439.876421 91.801951 
L 441.289013 91.801951 
L 442.748692 91.801951 
L 444.208371 91.801951 
L 445.620964 92.70601 
L 447.080642 92.70601 
L 448.493235 92.70601 
L 449.952914 92.70601 
L 449.952914 83.401735 
L 449.952914 83.401735 
L 448.493235 83.401735 
L 447.080642 83.401735 
L 445.620964 83.401735 
L 444.208371 82.497676 
L 442.748692 82.497676 
L 441.289013 82.497676 
L 439.876421 82.497676 
L 438.416742 82.497676 
L 437.00415 82.497676 
L 435.544471 82.497676 
L 434.226051 82.497676 
L 432.766373 82.497676 
L 431.306694 82.497676 
L 429.894101 82.497676 
L 428.434422 82.535345 
L 427.02183 82.535345 
L 425.562151 82.535345 
L 424.102472 82.573014 
L 422.68988 82.573014 
L 421.230201 82.573014 
L 419.817609 82.573014 
L 418.35793 82.573014 
L 416.992424 82.573014 
L 415.532745 82.573014 
L 414.073066 82.573014 
L 412.660474 82.573014 
L 411.200795 82.573014 
L 409.788203 82.573014 
L 408.328524 82.573014 
L 406.868845 82.573014 
L 405.456253 82.573014 
L 403.996574 82.573014 
L 402.583981 82.573014 
L 401.124303 82.573014 
L 399.805883 82.76136 
L 398.346204 82.799029 
L 396.886525 82.836698 
L 395.473933 82.836698 
L 394.014254 82.836698 
L 392.601662 82.836698 
L 391.141983 82.836698 
L 389.682304 82.836698 
L 388.269712 82.836698 
L 386.810033 82.836698 
L 385.39744 82.836698 
L 383.937761 82.874367 
L 382.619342 82.836698 
L 381.159663 82.836698 
L 379.699984 82.874367 
L 378.287392 82.610683 
L 376.827713 82.610683 
L 375.415121 82.271661 
L 373.955442 82.271661 
L 372.495763 82.271661 
L 371.083171 82.271661 
L 369.623492 82.271661 
L 368.210899 82.271661 
L 366.75122 82.30933 
L 365.432801 82.30933 
L 363.973122 82.30933 
L 362.513443 82.271661 
L 361.100851 82.271661 
L 359.641172 82.271661 
L 358.22858 82.30933 
L 356.768901 82.30933 
L 355.309222 82.30933 
L 353.896629 82.30933 
L 352.436951 82.233992 
L 351.024358 82.196323 
L 349.564679 82.196323 
L 348.199173 82.196323 
L 346.739495 82.196323 
L 345.279816 82.196323 
L 343.867223 82.196323 
L 342.407545 82.196323 
L 340.994952 82.196323 
L 339.535273 82.196323 
L 338.075594 82.196323 
L 336.663002 82.196323 
L 335.203323 82.120984 
L 333.790731 82.120984 
L 332.331052 82.120984 
L 331.012632 82.120984 
L 329.552954 82.120984 
L 328.093275 82.120984 
L 326.680682 82.120984 
L 325.221004 82.120984 
L 323.808411 82.120984 
L 322.348732 82.083315 
L 320.889053 82.083315 
L 319.476461 82.083315 
L 318.016782 82.083315 
L 316.60419 82.083315 
L 315.144511 82.083315 
L 313.826091 82.083315 
L 312.366413 82.083315 
L 310.906734 82.083315 
L 309.494141 82.083315 
L 308.034462 82.083315 
L 306.62187 82.083315 
L 305.162191 82.083315 
L 303.702512 82.083315 
L 302.28992 82.083315 
L 300.830241 82.083315 
L 299.417649 82.083315 
L 297.95797 82.083315 
L 296.63955 82.083315 
L 295.179872 82.083315 
L 293.720193 82.083315 
L 292.3076 82.083315 
L 290.847921 82.083315 
L 289.435329 82.083315 
L 287.97565 82.083315 
L 286.515971 82.083315 
L 285.103379 82.083315 
L 283.6437 82.083315 
L 282.231108 82.083315 
L 280.771429 82.422337 
L 279.405923 82.460007 
L 277.946244 82.460007 
L 276.486565 82.460007 
L 275.073973 82.610683 
L 273.614294 82.610683 
L 272.201702 82.610683 
L 270.742023 82.610683 
L 269.282344 82.610683 
L 267.869752 82.610683 
L 266.410073 82.610683 
L 264.99748 82.610683 
L 263.537801 82.610683 
L 262.219382 82.610683 
L 260.759703 82.610683 
L 259.300024 82.648352 
L 257.887432 82.648352 
L 256.427753 82.648352 
L 255.015161 82.648352 
L 253.555482 82.384668 
L 252.095803 82.535345 
L 250.683211 82.497676 
L 249.223532 82.497676 
L 247.810939 82.497676 
L 246.35126 82.497676 
L 245.032841 82.497676 
L 243.573162 82.497676 
L 242.113483 82.497676 
L 240.700891 82.535345 
L 239.241212 82.535345 
L 237.82862 82.535345 
L 236.368941 82.497676 
L 234.909262 82.497676 
L 233.496669 82.497676 
L 232.036991 82.497676 
L 230.624398 82.497676 
L 229.164719 82.497676 
L 227.8463 82.497676 
L 226.386621 82.497676 
L 224.926942 82.497676 
L 223.51435 82.497676 
L 222.054671 82.535345 
L 220.642079 82.497676 
L 219.1824 82.535345 
L 217.722721 82.497676 
L 216.310128 82.497676 
L 214.85045 82.497676 
L 213.437857 82.497676 
L 211.978178 82.497676 
L 210.612672 82.497676 
L 209.152994 82.535345 
L 207.693315 82.535345 
L 206.280722 82.497676 
L 204.821044 82.497676 
L 203.408451 82.497676 
L 201.948772 82.573014 
L 199.170674 82.836698 
L 197.993514 83.477073 
L 197.004699 83.552411 
L 195.827538 82.949705 
L 194.88581 84.418801 
L 193.567391 84.418801 
L 190.883465 85.77489 
L 188.293712 85.77489 
L 187.493243 85.737221 
L 186.22191 85.887897 
L 184.90349 85.850228 
L 183.302552 85.850228 
L 182.313738 85.850228 
L 181.324923 85.850228 
L 176.992973 86.151581 
L 176.098331 86.151581 
L 171.483863 86.339927 
L 169.176628 86.302258 
L 168.423246 86.302258 
L 167.481517 86.377596 
L 166.869394 86.377596 
L 166.351443 86.377596 
L 163.24374 86.904964 
L 159.900605 87.017971 
L 158.205494 87.017971 
L 156.557469 87.017971 
L 153.591025 87.017971 
L 152.837643 86.980302 
L 151.613396 86.980302 
L 149.635767 86.867295 
L 146.57515 86.829626 
L 145.445076 87.809023 
L 142.808237 87.922031 
L 141.395644 88.035038 
L 139.74762 87.922031 
L 137.864163 87.922031 
L 136.498657 87.884361 
L 135.462756 87.884361 
L 134.75646 87.884361 
L 133.720559 87.846692 
L 132.731744 87.846692 
L 132.072534 87.884361 
L 131.884189 87.884361 
L 131.177892 87.884361 
L 130.236164 88.298722 
L 128.917745 87.884361 
L 128.44688 87.884361 
L 127.92893 87.922031 
L 127.175547 87.846692 
L 126.469251 87.846692 
L 125.810041 88.223384 
L 124.868313 88.148045 
L 124.538708 87.733685 
L 123.644066 88.261053 
L 122.513992 88.110376 
L 121.666437 88.148045 
L 121.195573 88.148045 
L 120.395104 88.148045 
L 119.877153 88.185714 
L 119.076684 88.675413 
L 118.417474 88.148045 
L 117.617005 88.148045 
L 114.509302 89.089774 
L 114.27387 89.127443 
L 112.390413 89.089774 
L 108.293895 88.223384 
L 106.080834 89.089774 
L 97.511107 89.843156 
L 83.714787 90.257517 
L 64.974395 90.935561 
L 48.823755 91.349921 
L 40.960324 92.329319 
L 33.00272 92.178642 
z
" clip-path="url(#pc09b8adab1)" style="fill: #d5dce5"/>
   </g>
   <g id="matplotlib.axis_1">
    <g id="xtick_1">
     <g id="line2d_1">
      <defs>
       <path id="m6c21621ef3" d="M 0 0 
L 0 3.5 
" style="stroke: #000000; stroke-width: 0.8"/>
      </defs>
      <g>
       <use xlink:href="#m6c21621ef3" x="71.566493" y="273.065809" style="stroke: #000000; stroke-width: 0.8"/>
      </g>
     </g>
     <g id="text_1">
      <!-- 2004 -->
      <g transform="translate(58.841493 287.664247) scale(0.1 -0.1)">
       <defs>
        <path id="DejaVuSans-32" d="M 1228 531 
L 3431 531 
L 3431 0 
L 469 0 
L 469 531 
Q 828 903 1448 1529 
Q 2069 2156 2228 2338 
Q 2531 2678 2651 2914 
Q 2772 3150 2772 3378 
Q 2772 3750 2511 3984 
Q 2250 4219 1831 4219 
Q 1534 4219 1204 4116 
Q 875 4013 500 3803 
L 500 4441 
Q 881 4594 1212 4672 
Q 1544 4750 1819 4750 
Q 2544 4750 2975 4387 
Q 3406 4025 3406 3419 
Q 3406 3131 3298 2873 
Q 3191 2616 2906 2266 
Q 2828 2175 2409 1742 
Q 1991 1309 1228 531 
z
" transform="scale(0.015625)"/>
        <path id="DejaVuSans-30" d="M 2034 4250 
Q 1547 4250 1301 3770 
Q 1056 3291 1056 2328 
Q 1056 1369 1301 889 
Q 1547 409 2034 409 
Q 2525 409 2770 889 
Q 3016 1369 3016 2328 
Q 3016 3291 2770 3770 
Q 2525 4250 2034 4250 
z
M 2034 4750 
Q 2819 4750 3233 4129 
Q 3647 3509 3647 2328 
Q 3647 1150 3233 529 
Q 2819 -91 2034 -91 
Q 1250 -91 836 529 
Q 422 1150 422 2328 
Q 422 3509 836 4129 
Q 1250 4750 2034 4750 
z
" transform="scale(0.015625)"/>
        <path id="DejaVuSans-34" d="M 2419 4116 
L 825 1625 
L 2419 1625 
L 2419 4116 
z
M 2253 4666 
L 3047 4666 
L 3047 1625 
L 3713 1625 
L 3713 1100 
L 3047 1100 
L 3047 0 
L 2419 0 
L 2419 1100 
L 313 1100 
L 313 1709 
L 2253 4666 
z
" transform="scale(0.015625)"/>
       </defs>
       <use xlink:href="#DejaVuSans-32"/>
       <use xlink:href="#DejaVuSans-30" x="63.623047"/>
       <use xlink:href="#DejaVuSans-30" x="127.246094"/>
       <use xlink:href="#DejaVuSans-34" x="190.869141"/>
      </g>
     </g>
    </g>
    <g id="xtick_2">
     <g id="line2d_2">
      <g>
       <use xlink:href="#m6c21621ef3" x="140.359743" y="273.065809" style="stroke: #000000; stroke-width: 0.8"/>
      </g>
     </g>
     <g id="text_2">
      <!-- 2008 -->
      <g transform="translate(127.634743 287.664247) scale(0.1 -0.1)">
       <defs>
        <path id="DejaVuSans-38" d="M 2034 2216 
Q 1584 2216 1326 1975 
Q 1069 1734 1069 1313 
Q 1069 891 1326 650 
Q 1584 409 2034 409 
Q 2484 409 2743 651 
Q 3003 894 3003 1313 
Q 3003 1734 2745 1975 
Q 2488 2216 2034 2216 
z
M 1403 2484 
Q 997 2584 770 2862 
Q 544 3141 544 3541 
Q 544 4100 942 4425 
Q 1341 4750 2034 4750 
Q 2731 4750 3128 4425 
Q 3525 4100 3525 3541 
Q 3525 3141 3298 2862 
Q 3072 2584 2669 2484 
Q 3125 2378 3379 2068 
Q 3634 1759 3634 1313 
Q 3634 634 3220 271 
Q 2806 -91 2034 -91 
Q 1263 -91 848 271 
Q 434 634 434 1313 
Q 434 1759 690 2068 
Q 947 2378 1403 2484 
z
M 1172 3481 
Q 1172 3119 1398 2916 
Q 1625 2713 2034 2713 
Q 2441 2713 2670 2916 
Q 2900 3119 2900 3481 
Q 2900 3844 2670 4047 
Q 2441 4250 2034 4250 
Q 1625 4250 1398 4047 
Q 1172 3844 1172 3481 
z
" transform="scale(0.015625)"/>
       </defs>
       <use xlink:href="#DejaVuSans-32"/>
       <use xlink:href="#DejaVuSans-30" x="63.623047"/>
       <use xlink:href="#DejaVuSans-30" x="127.246094"/>
       <use xlink:href="#DejaVuSans-38" x="190.869141"/>
      </g>
     </g>
    </g>
    <g id="xtick_3">
     <g id="line2d_3">
      <g>
       <use xlink:href="#m6c21621ef3" x="209.152994" y="273.065809" style="stroke: #000000; stroke-width: 0.8"/>
      </g>
     </g>
     <g id="text_3">
      <!-- 2012 -->
      <g transform="translate(196.427994 287.664247) scale(0.1 -0.1)">
       <defs>
        <path id="DejaVuSans-31" d="M 794 531 
L 1825 531 
L 1825 4091 
L 703 3866 
L 703 4441 
L 1819 4666 
L 2450 4666 
L 2450 531 
L 3481 531 
L 3481 0 
L 794 0 
L 794 531 
z
" transform="scale(0.015625)"/>
       </defs>
       <use xlink:href="#DejaVuSans-32"/>
       <use xlink:href="#DejaVuSans-30" x="63.623047"/>
       <use xlink:href="#DejaVuSans-31" x="127.246094"/>
       <use xlink:href="#DejaVuSans-32" x="190.869141"/>
      </g>
     </g>
    </g>
    <g id="xtick_4">
     <g id="line2d_4">
      <g>
       <use xlink:href="#m6c21621ef3" x="277.946244" y="273.065809" style="stroke: #000000; stroke-width: 0.8"/>
      </g>
     </g>
     <g id="text_4">
      <!-- 2016 -->
      <g transform="translate(265.221244 287.664247) scale(0.1 -0.1)">
       <defs>
        <path id="DejaVuSans-36" d="M 2113 2584 
Q 1688 2584 1439 2293 
Q 1191 2003 1191 1497 
Q 1191 994 1439 701 
Q 1688 409 2113 409 
Q 2538 409 2786 701 
Q 3034 994 3034 1497 
Q 3034 2003 2786 2293 
Q 2538 2584 2113 2584 
z
M 3366 4563 
L 3366 3988 
Q 3128 4100 2886 4159 
Q 2644 4219 2406 4219 
Q 1781 4219 1451 3797 
Q 1122 3375 1075 2522 
Q 1259 2794 1537 2939 
Q 1816 3084 2150 3084 
Q 2853 3084 3261 2657 
Q 3669 2231 3669 1497 
Q 3669 778 3244 343 
Q 2819 -91 2113 -91 
Q 1303 -91 875 529 
Q 447 1150 447 2328 
Q 447 3434 972 4092 
Q 1497 4750 2381 4750 
Q 2619 4750 2861 4703 
Q 3103 4656 3366 4563 
z
" transform="scale(0.015625)"/>
       </defs>
       <use xlink:href="#DejaVuSans-32"/>
       <use xlink:href="#DejaVuSans-30" x="63.623047"/>
       <use xlink:href="#DejaVuSans-31" x="127.246094"/>
       <use xlink:href="#DejaVuSans-36" x="190.869141"/>
      </g>
     </g>
    </g>
    <g id="xtick_5">
     <g id="line2d_5">
      <g>
       <use xlink:href="#m6c21621ef3" x="346.739495" y="273.065809" style="stroke: #000000; stroke-width: 0.8"/>
      </g>
     </g>
     <g id="text_5">
      <!-- 2020 -->
      <g transform="translate(334.014495 287.664247) scale(0.1 -0.1)">
       <use xlink:href="#DejaVuSans-32"/>
       <use xlink:href="#DejaVuSans-30" x="63.623047"/>
       <use xlink:href="#DejaVuSans-32" x="127.246094"/>
       <use xlink:href="#DejaVuSans-30" x="190.869141"/>
      </g>
     </g>
    </g>
    <g id="xtick_6">
     <g id="line2d_6">
      <g>
       <use xlink:href="#m6c21621ef3" x="415.532745" y="273.065809" style="stroke: #000000; stroke-width: 0.8"/>
      </g>
     </g>
     <g id="text_6">
      <!-- 2024 -->
      <g transform="translate(402.807745 287.664247) scale(0.1 -0.1)">
       <use xlink:href="#DejaVuSans-32"/>
       <use xlink:href="#DejaVuSans-30" x="63.623047"/>
       <use xlink:href="#DejaVuSans-32" x="127.246094"/>
       <use xlink:href="#DejaVuSans-34" x="190.869141"/>
      </g>
     </g>
    </g>
    <g id="text_7">
     <!-- Year -->
     <g transform="translate(239.86375 305.141591) scale(0.15 -0.15)">
      <defs>
       <path id="DejaVuSans-59" d="M -13 4666 
L 666 4666 
L 1959 2747 
L 3244 4666 
L 3922 4666 
L 2272 2222 
L 2272 0 
L 1638 0 
L 1638 2222 
L -13 4666 
z
" transform="scale(0.015625)"/>
       <path id="DejaVuSans-65" d="M 3597 1894 
L 3597 1613 
L 953 1613 
Q 991 1019 1311 708 
Q 1631 397 2203 397 
Q 2534 397 2845 478 
Q 3156 559 3463 722 
L 3463 178 
Q 3153 47 2828 -22 
Q 2503 -91 2169 -91 
Q 1331 -91 842 396 
Q 353 884 353 1716 
Q 353 2575 817 3079 
Q 1281 3584 2069 3584 
Q 2775 3584 3186 3129 
Q 3597 2675 3597 1894 
z
M 3022 2063 
Q 3016 2534 2758 2815 
Q 2500 3097 2075 3097 
Q 1594 3097 1305 2825 
Q 1016 2553 972 2059 
L 3022 2063 
z
" transform="scale(0.015625)"/>
       <path id="DejaVuSans-61" d="M 2194 1759 
Q 1497 1759 1228 1600 
Q 959 1441 959 1056 
Q 959 750 1161 570 
Q 1363 391 1709 391 
Q 2188 391 2477 730 
Q 2766 1069 2766 1631 
L 2766 1759 
L 2194 1759 
z
M 3341 1997 
L 3341 0 
L 2766 0 
L 2766 531 
Q 2569 213 2275 61 
Q 1981 -91 1556 -91 
Q 1019 -91 701 211 
Q 384 513 384 1019 
Q 384 1609 779 1909 
Q 1175 2209 1959 2209 
L 2766 2209 
L 2766 2266 
Q 2766 2663 2505 2880 
Q 2244 3097 1772 3097 
Q 1472 3097 1187 3025 
Q 903 2953 641 2809 
L 641 3341 
Q 956 3463 1253 3523 
Q 1550 3584 1831 3584 
Q 2591 3584 2966 3190 
Q 3341 2797 3341 1997 
z
" transform="scale(0.015625)"/>
       <path id="DejaVuSans-72" d="M 2631 2963 
Q 2534 3019 2420 3045 
Q 2306 3072 2169 3072 
Q 1681 3072 1420 2755 
Q 1159 2438 1159 1844 
L 1159 0 
L 581 0 
L 581 3500 
L 1159 3500 
L 1159 2956 
Q 1341 3275 1631 3429 
Q 1922 3584 2338 3584 
Q 2397 3584 2469 3576 
Q 2541 3569 2628 3553 
L 2631 2963 
z
" transform="scale(0.015625)"/>
      </defs>
      <use xlink:href="#DejaVuSans-59"/>
      <use xlink:href="#DejaVuSans-65" x="47.833984"/>
      <use xlink:href="#DejaVuSans-61" x="109.357422"/>
      <use xlink:href="#DejaVuSans-72" x="170.636719"/>
     </g>
    </g>
   </g>
   <g id="matplotlib.axis_2">
    <g id="ytick_1">
     <g id="line2d_7">
      <defs>
       <path id="mb3c5fdb42c" d="M 0 0 
L -3.5 0 
" style="stroke: #000000; stroke-width: 0.8"/>
      </defs>
      <g>
       <use xlink:href="#mb3c5fdb42c" x="61.49" y="273.065809" style="stroke: #000000; stroke-width: 0.8"/>
      </g>
     </g>
     <g id="text_8">
      <!-- 0 -->
      <g transform="translate(48.1275 276.865028) scale(0.1 -0.1)">
       <use xlink:href="#DejaVuSans-30"/>
      </g>
     </g>
    </g>
    <g id="ytick_2">
     <g id="line2d_8">
      <g>
       <use xlink:href="#mb3c5fdb42c" x="61.49" y="235.396678" style="stroke: #000000; stroke-width: 0.8"/>
      </g>
     </g>
     <g id="text_9">
      <!-- 1000 -->
      <g transform="translate(29.04 239.195897) scale(0.1 -0.1)">
       <use xlink:href="#DejaVuSans-31"/>
       <use xlink:href="#DejaVuSans-30" x="63.623047"/>
       <use xlink:href="#DejaVuSans-30" x="127.246094"/>
       <use xlink:href="#DejaVuSans-30" x="190.869141"/>
      </g>
     </g>
    </g>
    <g id="ytick_3">
     <g id="line2d_9">
      <g>
       <use xlink:href="#mb3c5fdb42c" x="61.49" y="197.727547" style="stroke: #000000; stroke-width: 0.8"/>
      </g>
     </g>
     <g id="text_10">
      <!-- 2000 -->
      <g transform="translate(29.04 201.526766) scale(0.1 -0.1)">
       <use xlink:href="#DejaVuSans-32"/>
       <use xlink:href="#DejaVuSans-30" x="63.623047"/>
       <use xlink:href="#DejaVuSans-30" x="127.246094"/>
       <use xlink:href="#DejaVuSans-30" x="190.869141"/>
      </g>
     </g>
    </g>
    <g id="ytick_4">
     <g id="line2d_10">
      <g>
       <use xlink:href="#mb3c5fdb42c" x="61.49" y="160.058416" style="stroke: #000000; stroke-width: 0.8"/>
      </g>
     </g>
     <g id="text_11">
      <!-- 3000 -->
      <g transform="translate(29.04 163.857635) scale(0.1 -0.1)">
       <defs>
        <path id="DejaVuSans-33" d="M 2597 2516 
Q 3050 2419 3304 2112 
Q 3559 1806 3559 1356 
Q 3559 666 3084 287 
Q 2609 -91 1734 -91 
Q 1441 -91 1130 -33 
Q 819 25 488 141 
L 488 750 
Q 750 597 1062 519 
Q 1375 441 1716 441 
Q 2309 441 2620 675 
Q 2931 909 2931 1356 
Q 2931 1769 2642 2001 
Q 2353 2234 1838 2234 
L 1294 2234 
L 1294 2753 
L 1863 2753 
Q 2328 2753 2575 2939 
Q 2822 3125 2822 3475 
Q 2822 3834 2567 4026 
Q 2313 4219 1838 4219 
Q 1578 4219 1281 4162 
Q 984 4106 628 3988 
L 628 4550 
Q 988 4650 1302 4700 
Q 1616 4750 1894 4750 
Q 2613 4750 3031 4423 
Q 3450 4097 3450 3541 
Q 3450 3153 3228 2886 
Q 3006 2619 2597 2516 
z
" transform="scale(0.015625)"/>
       </defs>
       <use xlink:href="#DejaVuSans-33"/>
       <use xlink:href="#DejaVuSans-30" x="63.623047"/>
       <use xlink:href="#DejaVuSans-30" x="127.246094"/>
       <use xlink:href="#DejaVuSans-30" x="190.869141"/>
      </g>
     </g>
    </g>
    <g id="ytick_5">
     <g id="line2d_11">
      <g>
       <use xlink:href="#mb3c5fdb42c" x="61.49" y="122.389285" style="stroke: #000000; stroke-width: 0.8"/>
      </g>
     </g>
     <g id="text_12">
      <!-- 4000 -->
      <g transform="translate(29.04 126.188504) scale(0.1 -0.1)">
       <use xlink:href="#DejaVuSans-34"/>
       <use xlink:href="#DejaVuSans-30" x="63.623047"/>
       <use xlink:href="#DejaVuSans-30" x="127.246094"/>
       <use xlink:href="#DejaVuSans-30" x="190.869141"/>
      </g>
     </g>
    </g>
    <g id="ytick_6">
     <g id="line2d_12">
      <g>
       <use xlink:href="#mb3c5fdb42c" x="61.49" y="84.720154" style="stroke: #000000; stroke-width: 0.8"/>
      </g>
     </g>
     <g id="text_13">
      <!-- 5000 -->
      <g transform="translate(29.04 88.519373) scale(0.1 -0.1)">
       <defs>
        <path id="DejaVuSans-35" d="M 691 4666 
L 3169 4666 
L 3169 4134 
L 1269 4134 
L 1269 2991 
Q 1406 3038 1543 3061 
Q 1681 3084 1819 3084 
Q 2600 3084 3056 2656 
Q 3513 2228 3513 1497 
Q 3513 744 3044 326 
Q 2575 -91 1722 -91 
Q 1428 -91 1123 -41 
Q 819 9 494 109 
L 494 744 
Q 775 591 1075 516 
Q 1375 441 1709 441 
Q 2250 441 2565 725 
Q 2881 1009 2881 1497 
Q 2881 1984 2565 2268 
Q 2250 2553 1709 2553 
Q 1456 2553 1204 2497 
Q 953 2441 691 2322 
L 691 4666 
z
" transform="scale(0.015625)"/>
       </defs>
       <use xlink:href="#DejaVuSans-35"/>
       <use xlink:href="#DejaVuSans-30" x="63.623047"/>
       <use xlink:href="#DejaVuSans-30" x="127.246094"/>
       <use xlink:href="#DejaVuSans-30" x="190.869141"/>
      </g>
     </g>
    </g>
    <g id="text_14">
     <!-- Number of proteins -->
     <g transform="translate(21.920469 245.489062) rotate(-90) scale(0.15 -0.15)">
      <defs>
       <path id="DejaVuSans-4e" d="M 628 4666 
L 1478 4666 
L 3547 763 
L 3547 4666 
L 4159 4666 
L 4159 0 
L 3309 0 
L 1241 3903 
L 1241 0 
L 628 0 
L 628 4666 
z
" transform="scale(0.015625)"/>
       <path id="DejaVuSans-75" d="M 544 1381 
L 544 3500 
L 1119 3500 
L 1119 1403 
Q 1119 906 1312 657 
Q 1506 409 1894 409 
Q 2359 409 2629 706 
Q 2900 1003 2900 1516 
L 2900 3500 
L 3475 3500 
L 3475 0 
L 2900 0 
L 2900 538 
Q 2691 219 2414 64 
Q 2138 -91 1772 -91 
Q 1169 -91 856 284 
Q 544 659 544 1381 
z
M 1991 3584 
L 1991 3584 
z
" transform="scale(0.015625)"/>
       <path id="DejaVuSans-6d" d="M 3328 2828 
Q 3544 3216 3844 3400 
Q 4144 3584 4550 3584 
Q 5097 3584 5394 3201 
Q 5691 2819 5691 2113 
L 5691 0 
L 5113 0 
L 5113 2094 
Q 5113 2597 4934 2840 
Q 4756 3084 4391 3084 
Q 3944 3084 3684 2787 
Q 3425 2491 3425 1978 
L 3425 0 
L 2847 0 
L 2847 2094 
Q 2847 2600 2669 2842 
Q 2491 3084 2119 3084 
Q 1678 3084 1418 2786 
Q 1159 2488 1159 1978 
L 1159 0 
L 581 0 
L 581 3500 
L 1159 3500 
L 1159 2956 
Q 1356 3278 1631 3431 
Q 1906 3584 2284 3584 
Q 2666 3584 2933 3390 
Q 3200 3197 3328 2828 
z
" transform="scale(0.015625)"/>
       <path id="DejaVuSans-62" d="M 3116 1747 
Q 3116 2381 2855 2742 
Q 2594 3103 2138 3103 
Q 1681 3103 1420 2742 
Q 1159 2381 1159 1747 
Q 1159 1113 1420 752 
Q 1681 391 2138 391 
Q 2594 391 2855 752 
Q 3116 1113 3116 1747 
z
M 1159 2969 
Q 1341 3281 1617 3432 
Q 1894 3584 2278 3584 
Q 2916 3584 3314 3078 
Q 3713 2572 3713 1747 
Q 3713 922 3314 415 
Q 2916 -91 2278 -91 
Q 1894 -91 1617 61 
Q 1341 213 1159 525 
L 1159 0 
L 581 0 
L 581 4863 
L 1159 4863 
L 1159 2969 
z
" transform="scale(0.015625)"/>
       <path id="DejaVuSans-20" transform="scale(0.015625)"/>
       <path id="DejaVuSans-6f" d="M 1959 3097 
Q 1497 3097 1228 2736 
Q 959 2375 959 1747 
Q 959 1119 1226 758 
Q 1494 397 1959 397 
Q 2419 397 2687 759 
Q 2956 1122 2956 1747 
Q 2956 2369 2687 2733 
Q 2419 3097 1959 3097 
z
M 1959 3584 
Q 2709 3584 3137 3096 
Q 3566 2609 3566 1747 
Q 3566 888 3137 398 
Q 2709 -91 1959 -91 
Q 1206 -91 779 398 
Q 353 888 353 1747 
Q 353 2609 779 3096 
Q 1206 3584 1959 3584 
z
" transform="scale(0.015625)"/>
       <path id="DejaVuSans-66" d="M 2375 4863 
L 2375 4384 
L 1825 4384 
Q 1516 4384 1395 4259 
Q 1275 4134 1275 3809 
L 1275 3500 
L 2222 3500 
L 2222 3053 
L 1275 3053 
L 1275 0 
L 697 0 
L 697 3053 
L 147 3053 
L 147 3500 
L 697 3500 
L 697 3744 
Q 697 4328 969 4595 
Q 1241 4863 1831 4863 
L 2375 4863 
z
" transform="scale(0.015625)"/>
       <path id="DejaVuSans-70" d="M 1159 525 
L 1159 -1331 
L 581 -1331 
L 581 3500 
L 1159 3500 
L 1159 2969 
Q 1341 3281 1617 3432 
Q 1894 3584 2278 3584 
Q 2916 3584 3314 3078 
Q 3713 2572 3713 1747 
Q 3713 922 3314 415 
Q 2916 -91 2278 -91 
Q 1894 -91 1617 61 
Q 1341 213 1159 525 
z
M 3116 1747 
Q 3116 2381 2855 2742 
Q 2594 3103 2138 3103 
Q 1681 3103 1420 2742 
Q 1159 2381 1159 1747 
Q 1159 1113 1420 752 
Q 1681 391 2138 391 
Q 2594 391 2855 752 
Q 3116 1113 3116 1747 
z
" transform="scale(0.015625)"/>
       <path id="DejaVuSans-74" d="M 1172 4494 
L 1172 3500 
L 2356 3500 
L 2356 3053 
L 1172 3053 
L 1172 1153 
Q 1172 725 1289 603 
Q 1406 481 1766 481 
L 2356 481 
L 2356 0 
L 1766 0 
Q 1100 0 847 248 
Q 594 497 594 1153 
L 594 3053 
L 172 3053 
L 172 3500 
L 594 3500 
L 594 4494 
L 1172 4494 
z
" transform="scale(0.015625)"/>
       <path id="DejaVuSans-69" d="M 603 3500 
L 1178 3500 
L 1178 0 
L 603 0 
L 603 3500 
z
M 603 4863 
L 1178 4863 
L 1178 4134 
L 603 4134 
L 603 4863 
z
" transform="scale(0.015625)"/>
       <path id="DejaVuSans-6e" d="M 3513 2113 
L 3513 0 
L 2938 0 
L 2938 2094 
Q 2938 2591 2744 2837 
Q 2550 3084 2163 3084 
Q 1697 3084 1428 2787 
Q 1159 2491 1159 1978 
L 1159 0 
L 581 0 
L 581 3500 
L 1159 3500 
L 1159 2956 
Q 1366 3272 1645 3428 
Q 1925 3584 2291 3584 
Q 2894 3584 3203 3211 
Q 3513 2838 3513 2113 
z
" transform="scale(0.015625)"/>
       <path id="DejaVuSans-73" d="M 2834 3397 
L 2834 2853 
Q 2591 2978 2328 3040 
Q 2066 3103 1784 3103 
Q 1356 3103 1142 2972 
Q 928 2841 928 2578 
Q 928 2378 1081 2264 
Q 1234 2150 1697 2047 
L 1894 2003 
Q 2506 1872 2764 1633 
Q 3022 1394 3022 966 
Q 3022 478 2636 193 
Q 2250 -91 1575 -91 
Q 1294 -91 989 -36 
Q 684 19 347 128 
L 347 722 
Q 666 556 975 473 
Q 1284 391 1588 391 
Q 1994 391 2212 530 
Q 2431 669 2431 922 
Q 2431 1156 2273 1281 
Q 2116 1406 1581 1522 
L 1381 1569 
Q 847 1681 609 1914 
Q 372 2147 372 2553 
Q 372 3047 722 3315 
Q 1072 3584 1716 3584 
Q 2034 3584 2315 3537 
Q 2597 3491 2834 3397 
z
" transform="scale(0.015625)"/>
      </defs>
      <use xlink:href="#DejaVuSans-4e"/>
      <use xlink:href="#DejaVuSans-75" x="74.804688"/>
      <use xlink:href="#DejaVuSans-6d" x="138.183594"/>
      <use xlink:href="#DejaVuSans-62" x="235.595703"/>
      <use xlink:href="#DejaVuSans-65" x="299.072266"/>
      <use xlink:href="#DejaVuSans-72" x="360.595703"/>
      <use xlink:href="#DejaVuSans-20" x="401.708984"/>
      <use xlink:href="#DejaVuSans-6f" x="433.496094"/>
      <use xlink:href="#DejaVuSans-66" x="494.677734"/>
      <use xlink:href="#DejaVuSans-20" x="529.882812"/>
      <use xlink:href="#DejaVuSans-70" x="561.669922"/>
      <use xlink:href="#DejaVuSans-72" x="625.146484"/>
      <use xlink:href="#DejaVuSans-6f" x="664.009766"/>
      <use xlink:href="#DejaVuSans-74" x="725.191406"/>
      <use xlink:href="#DejaVuSans-65" x="764.400391"/>
      <use xlink:href="#DejaVuSans-69" x="825.923828"/>
      <use xlink:href="#DejaVuSans-6e" x="853.707031"/>
      <use xlink:href="#DejaVuSans-73" x="917.085938"/>
     </g>
    </g>
   </g>
   <g id="patch_3">
    <path d="M 61.49 273.065809 
L 61.49 72.534191 
" style="fill: none; stroke: #000000; stroke-width: 0.8; stroke-linejoin: miter; stroke-linecap: square"/>
   </g>
   <g id="patch_4">
    <path d="M 61.49 273.065809 
L 450 273.065809 
" style="fill: none; stroke: #000000; stroke-width: 0.8; stroke-linejoin: miter; stroke-linecap: square"/>
   </g>
   <g id="legend_1">
    <g id="patch_5">
     <path d="M 98.395781 67.534191 
L 413.094219 67.534191 
Q 415.094219 67.534191 415.094219 65.534191 
L 415.094219 37.177941 
Q 415.094219 35.177941 413.094219 35.177941 
L 98.395781 35.177941 
Q 96.395781 35.177941 96.395781 37.177941 
L 96.395781 65.534191 
Q 96.395781 67.534191 98.395781 67.534191 
z
" style="fill: #ffffff; opacity: 0.8; stroke: #cccccc; stroke-linejoin: miter"/>
    </g>
    <g id="patch_6">
     <path d="M 100.395781 46.776378 
L 120.395781 46.776378 
L 120.395781 39.776378 
L 100.395781 39.776378 
z
" style="fill: #fb363b"/>
    </g>
    <g id="text_15">
     <!-- Biological role published -->
     <g transform="translate(128.395781 46.776378) scale(0.1 -0.1)">
      <defs>
       <path id="DejaVuSans-42" d="M 1259 2228 
L 1259 519 
L 2272 519 
Q 2781 519 3026 730 
Q 3272 941 3272 1375 
Q 3272 1813 3026 2020 
Q 2781 2228 2272 2228 
L 1259 2228 
z
M 1259 4147 
L 1259 2741 
L 2194 2741 
Q 2656 2741 2882 2914 
Q 3109 3088 3109 3444 
Q 3109 3797 2882 3972 
Q 2656 4147 2194 4147 
L 1259 4147 
z
M 628 4666 
L 2241 4666 
Q 2963 4666 3353 4366 
Q 3744 4066 3744 3513 
Q 3744 3084 3544 2831 
Q 3344 2578 2956 2516 
Q 3422 2416 3680 2098 
Q 3938 1781 3938 1306 
Q 3938 681 3513 340 
Q 3088 0 2303 0 
L 628 0 
L 628 4666 
z
" transform="scale(0.015625)"/>
       <path id="DejaVuSans-6c" d="M 603 4863 
L 1178 4863 
L 1178 0 
L 603 0 
L 603 4863 
z
" transform="scale(0.015625)"/>
       <path id="DejaVuSans-67" d="M 2906 1791 
Q 2906 2416 2648 2759 
Q 2391 3103 1925 3103 
Q 1463 3103 1205 2759 
Q 947 2416 947 1791 
Q 947 1169 1205 825 
Q 1463 481 1925 481 
Q 2391 481 2648 825 
Q 2906 1169 2906 1791 
z
M 3481 434 
Q 3481 -459 3084 -895 
Q 2688 -1331 1869 -1331 
Q 1566 -1331 1297 -1286 
Q 1028 -1241 775 -1147 
L 775 -588 
Q 1028 -725 1275 -790 
Q 1522 -856 1778 -856 
Q 2344 -856 2625 -561 
Q 2906 -266 2906 331 
L 2906 616 
Q 2728 306 2450 153 
Q 2172 0 1784 0 
Q 1141 0 747 490 
Q 353 981 353 1791 
Q 353 2603 747 3093 
Q 1141 3584 1784 3584 
Q 2172 3584 2450 3431 
Q 2728 3278 2906 2969 
L 2906 3500 
L 3481 3500 
L 3481 434 
z
" transform="scale(0.015625)"/>
       <path id="DejaVuSans-63" d="M 3122 3366 
L 3122 2828 
Q 2878 2963 2633 3030 
Q 2388 3097 2138 3097 
Q 1578 3097 1268 2742 
Q 959 2388 959 1747 
Q 959 1106 1268 751 
Q 1578 397 2138 397 
Q 2388 397 2633 464 
Q 2878 531 3122 666 
L 3122 134 
Q 2881 22 2623 -34 
Q 2366 -91 2075 -91 
Q 1284 -91 818 406 
Q 353 903 353 1747 
Q 353 2603 823 3093 
Q 1294 3584 2113 3584 
Q 2378 3584 2631 3529 
Q 2884 3475 3122 3366 
z
" transform="scale(0.015625)"/>
       <path id="DejaVuSans-68" d="M 3513 2113 
L 3513 0 
L 2938 0 
L 2938 2094 
Q 2938 2591 2744 2837 
Q 2550 3084 2163 3084 
Q 1697 3084 1428 2787 
Q 1159 2491 1159 1978 
L 1159 0 
L 581 0 
L 581 4863 
L 1159 4863 
L 1159 2956 
Q 1366 3272 1645 3428 
Q 1925 3584 2291 3584 
Q 2894 3584 3203 3211 
Q 3513 2838 3513 2113 
z
" transform="scale(0.015625)"/>
       <path id="DejaVuSans-64" d="M 2906 2969 
L 2906 4863 
L 3481 4863 
L 3481 0 
L 2906 0 
L 2906 525 
Q 2725 213 2448 61 
Q 2172 -91 1784 -91 
Q 1150 -91 751 415 
Q 353 922 353 1747 
Q 353 2572 751 3078 
Q 1150 3584 1784 3584 
Q 2172 3584 2448 3432 
Q 2725 3281 2906 2969 
z
M 947 1747 
Q 947 1113 1208 752 
Q 1469 391 1925 391 
Q 2381 391 2643 752 
Q 2906 1113 2906 1747 
Q 2906 2381 2643 2742 
Q 2381 3103 1925 3103 
Q 1469 3103 1208 2742 
Q 947 2381 947 1747 
z
" transform="scale(0.015625)"/>
      </defs>
      <use xlink:href="#DejaVuSans-42"/>
      <use xlink:href="#DejaVuSans-69" x="68.603516"/>
      <use xlink:href="#DejaVuSans-6f" x="96.386719"/>
      <use xlink:href="#DejaVuSans-6c" x="157.568359"/>
      <use xlink:href="#DejaVuSans-6f" x="185.351562"/>
      <use xlink:href="#DejaVuSans-67" x="246.533203"/>
      <use xlink:href="#DejaVuSans-69" x="310.009766"/>
      <use xlink:href="#DejaVuSans-63" x="337.792969"/>
      <use xlink:href="#DejaVuSans-61" x="392.773438"/>
      <use xlink:href="#DejaVuSans-6c" x="454.052734"/>
      <use xlink:href="#DejaVuSans-20" x="481.835938"/>
      <use xlink:href="#DejaVuSans-72" x="513.623047"/>
      <use xlink:href="#DejaVuSans-6f" x="552.486328"/>
      <use xlink:href="#DejaVuSans-6c" x="613.667969"/>
      <use xlink:href="#DejaVuSans-65" x="641.451172"/>
      <use xlink:href="#DejaVuSans-20" x="702.974609"/>
      <use xlink:href="#DejaVuSans-70" x="734.761719"/>
      <use xlink:href="#DejaVuSans-75" x="798.238281"/>
      <use xlink:href="#DejaVuSans-62" x="861.617188"/>
      <use xlink:href="#DejaVuSans-6c" x="925.09375"/>
      <use xlink:href="#DejaVuSans-69" x="952.876953"/>
      <use xlink:href="#DejaVuSans-73" x="980.660156"/>
      <use xlink:href="#DejaVuSans-68" x="1032.759766"/>
      <use xlink:href="#DejaVuSans-65" x="1096.138672"/>
      <use xlink:href="#DejaVuSans-64" x="1157.662109"/>
     </g>
    </g>
    <g id="patch_7">
     <path d="M 100.395781 61.454503 
L 120.395781 61.454503 
L 120.395781 54.454503 
L 100.395781 54.454503 
z
" style="fill: #fdc92c"/>
    </g>
    <g id="text_16">
     <!-- Biological role inferred -->
     <g transform="translate(128.395781 61.454503) scale(0.1 -0.1)">
      <use xlink:href="#DejaVuSans-42"/>
      <use xlink:href="#DejaVuSans-69" x="68.603516"/>
      <use xlink:href="#DejaVuSans-6f" x="96.386719"/>
      <use xlink:href="#DejaVuSans-6c" x="157.568359"/>
      <use xlink:href="#DejaVuSans-6f" x="185.351562"/>
      <use xlink:href="#DejaVuSans-67" x="246.533203"/>
      <use xlink:href="#DejaVuSans-69" x="310.009766"/>
      <use xlink:href="#DejaVuSans-63" x="337.792969"/>
      <use xlink:href="#DejaVuSans-61" x="392.773438"/>
      <use xlink:href="#DejaVuSans-6c" x="454.052734"/>
      <use xlink:href="#DejaVuSans-20" x="481.835938"/>
      <use xlink:href="#DejaVuSans-72" x="513.623047"/>
      <use xlink:href="#DejaVuSans-6f" x="552.486328"/>
      <use xlink:href="#DejaVuSans-6c" x="613.667969"/>
      <use xlink:href="#DejaVuSans-65" x="641.451172"/>
      <use xlink:href="#DejaVuSans-20" x="702.974609"/>
      <use xlink:href="#DejaVuSans-69" x="734.761719"/>
      <use xlink:href="#DejaVuSans-6e" x="762.544922"/>
      <use xlink:href="#DejaVuSans-66" x="825.923828"/>
      <use xlink:href="#DejaVuSans-65" x="861.128906"/>
      <use xlink:href="#DejaVuSans-72" x="922.652344"/>
      <use xlink:href="#DejaVuSans-72" x="962.015625"/>
      <use xlink:href="#DejaVuSans-65" x="1000.878906"/>
      <use xlink:href="#DejaVuSans-64" x="1062.402344"/>
     </g>
    </g>
    <g id="patch_8">
     <path d="M 270.512969 46.776378 
L 290.512969 46.776378 
L 290.512969 39.776378 
L 270.512969 39.776378 
z
" style="fill: #aeaeae"/>
    </g>
    <g id="text_17">
     <!-- Conserved unknown -->
     <g transform="translate(298.512969 46.776378) scale(0.1 -0.1)">
      <defs>
       <path id="DejaVuSans-43" d="M 4122 4306 
L 4122 3641 
Q 3803 3938 3442 4084 
Q 3081 4231 2675 4231 
Q 1875 4231 1450 3742 
Q 1025 3253 1025 2328 
Q 1025 1406 1450 917 
Q 1875 428 2675 428 
Q 3081 428 3442 575 
Q 3803 722 4122 1019 
L 4122 359 
Q 3791 134 3420 21 
Q 3050 -91 2638 -91 
Q 1578 -91 968 557 
Q 359 1206 359 2328 
Q 359 3453 968 4101 
Q 1578 4750 2638 4750 
Q 3056 4750 3426 4639 
Q 3797 4528 4122 4306 
z
" transform="scale(0.015625)"/>
       <path id="DejaVuSans-76" d="M 191 3500 
L 800 3500 
L 1894 563 
L 2988 3500 
L 3597 3500 
L 2284 0 
L 1503 0 
L 191 3500 
z
" transform="scale(0.015625)"/>
       <path id="DejaVuSans-6b" d="M 581 4863 
L 1159 4863 
L 1159 1991 
L 2875 3500 
L 3609 3500 
L 1753 1863 
L 3688 0 
L 2938 0 
L 1159 1709 
L 1159 0 
L 581 0 
L 581 4863 
z
" transform="scale(0.015625)"/>
       <path id="DejaVuSans-77" d="M 269 3500 
L 844 3500 
L 1563 769 
L 2278 3500 
L 2956 3500 
L 3675 769 
L 4391 3500 
L 4966 3500 
L 4050 0 
L 3372 0 
L 2619 2869 
L 1863 0 
L 1184 0 
L 269 3500 
z
" transform="scale(0.015625)"/>
      </defs>
      <use xlink:href="#DejaVuSans-43"/>
      <use xlink:href="#DejaVuSans-6f" x="69.824219"/>
      <use xlink:href="#DejaVuSans-6e" x="131.005859"/>
      <use xlink:href="#DejaVuSans-73" x="194.384766"/>
      <use xlink:href="#DejaVuSans-65" x="246.484375"/>
      <use xlink:href="#DejaVuSans-72" x="308.007812"/>
      <use xlink:href="#DejaVuSans-76" x="349.121094"/>
      <use xlink:href="#DejaVuSans-65" x="408.300781"/>
      <use xlink:href="#DejaVuSans-64" x="469.824219"/>
      <use xlink:href="#DejaVuSans-20" x="533.300781"/>
      <use xlink:href="#DejaVuSans-75" x="565.087891"/>
      <use xlink:href="#DejaVuSans-6e" x="628.466797"/>
      <use xlink:href="#DejaVuSans-6b" x="691.845703"/>
      <use xlink:href="#DejaVuSans-6e" x="749.755859"/>
      <use xlink:href="#DejaVuSans-6f" x="813.134766"/>
      <use xlink:href="#DejaVuSans-77" x="874.316406"/>
      <use xlink:href="#DejaVuSans-6e" x="956.103516"/>
     </g>
    </g>
    <g id="patch_9">
     <path d="M 270.512969 61.454503 
L 290.512969 61.454503 
L 290.512969 54.454503 
L 270.512969 54.454503 
z
" style="fill: #d5dce5"/>
    </g>
    <g id="text_18">
     <!-- Fission yeast unknown -->
     <g transform="translate(298.512969 61.454503) scale(0.1 -0.1)">
      <defs>
       <path id="DejaVuSans-46" d="M 628 4666 
L 3309 4666 
L 3309 4134 
L 1259 4134 
L 1259 2759 
L 3109 2759 
L 3109 2228 
L 1259 2228 
L 1259 0 
L 628 0 
L 628 4666 
z
" transform="scale(0.015625)"/>
       <path id="DejaVuSans-79" d="M 2059 -325 
Q 1816 -950 1584 -1140 
Q 1353 -1331 966 -1331 
L 506 -1331 
L 506 -850 
L 844 -850 
Q 1081 -850 1212 -737 
Q 1344 -625 1503 -206 
L 1606 56 
L 191 3500 
L 800 3500 
L 1894 763 
L 2988 3500 
L 3597 3500 
L 2059 -325 
z
" transform="scale(0.015625)"/>
      </defs>
      <use xlink:href="#DejaVuSans-46"/>
      <use xlink:href="#DejaVuSans-69" x="50.269531"/>
      <use xlink:href="#DejaVuSans-73" x="78.052734"/>
      <use xlink:href="#DejaVuSans-73" x="130.152344"/>
      <use xlink:href="#DejaVuSans-69" x="182.251953"/>
      <use xlink:href="#DejaVuSans-6f" x="210.035156"/>
      <use xlink:href="#DejaVuSans-6e" x="271.216797"/>
      <use xlink:href="#DejaVuSans-20" x="334.595703"/>
      <use xlink:href="#DejaVuSans-79" x="366.382812"/>
      <use xlink:href="#DejaVuSans-65" x="425.5625"/>
      <use xlink:href="#DejaVuSans-61" x="487.085938"/>
      <use xlink:href="#DejaVuSans-73" x="548.365234"/>
      <use xlink:href="#DejaVuSans-74" x="600.464844"/>
      <use xlink:href="#DejaVuSans-20" x="639.673828"/>
      <use xlink:href="#DejaVuSans-75" x="671.460938"/>
      <use xlink:href="#DejaVuSans-6e" x="734.839844"/>
      <use xlink:href="#DejaVuSans-6b" x="798.21875"/>
      <use xlink:href="#DejaVuSans-6e" x="856.128906"/>
      <use xlink:href="#DejaVuSans-6f" x="919.507812"/>
      <use xlink:href="#DejaVuSans-77" x="980.689453"/>
      <use xlink:href="#DejaVuSans-6e" x="1062.476562"/>
     </g>
    </g>
   </g>
  </g>
 </g>
 <defs>
  <clipPath id="pc09b8adab1">
   <rect x="61.49" y="72.534191" width="388.51" height="200.531619"/>
  </clipPath>
 </defs>
</svg>
