<?xml version="1.0" encoding="utf-8" standalone="no"?>
<!DOCTYPE svg PUBLIC "-//W3C//DTD SVG 1.1//EN"
  "http://www.w3.org/Graphics/SVG/1.1/DTD/svg11.dtd">
<svg xmlns:xlink="http://www.w3.org/1999/xlink" width="460.8pt" height="345.6pt" viewBox="0 0 460.8 345.6" xmlns="http://www.w3.org/2000/svg" version="1.1">
 <metadata>
  <rdf:RDF xmlns:dc="http://purl.org/dc/elements/1.1/" xmlns:cc="http://creativecommons.org/ns#" xmlns:rdf="http://www.w3.org/1999/02/22-rdf-syntax-ns#">
   <cc:Work>
    <dc:type rdf:resource="http://purl.org/dc/dcmitype/StillImage"/>
    <dc:date>2026-02-02T03:02:09.980284</dc:date>
    <dc:format>image/svg+xml</dc:format>
    <dc:creator>
     <cc:Agent>
      <dc:title>Matplotlib v3.7.1, https://matplotlib.org/</dc:title>
     </cc:Agent>
    </dc:creator>
   </cc:Work>
  </rdf:RDF>
 </metadata>
 <defs>
  <style type="text/css">*{stroke-linejoin: round; stroke-linecap: butt}</style>
 </defs>
 <g id="figure_1">
  <g id="patch_1">
   <path d="M 0 345.6 
L 460.8 345.6 
L 460.8 0 
L 0 0 
z
" style="fill: #ffffff"/>
  </g>
  <g id="axes_1">
   <g id="patch_2">
    <path d="M 61.49 272.690509 
L 450 272.690509 
L 450 72.909491 
L 61.49 72.909491 
z
" style="fill: #ffffff"/>
   </g>
   <g id="PolyCollection_1">
    <path d="M 33.109349 221.990001 
L 33.109349 272.690509 
L 41.037167 272.690509 
L 48.871165 272.690509 
L 64.961352 272.690509 
L 83.631599 272.690509 
L 97.376277 272.690509 
L 105.913928 272.690509 
L 108.118706 272.690509 
L 112.19989 272.690509 
L 114.076297 272.690509 
L 114.310848 272.690509 
L 117.406919 272.690509 
L 118.204391 272.690509 
L 118.861134 272.690509 
L 119.658607 272.690509 
L 120.174618 272.690509 
L 120.972091 272.690509 
L 121.441193 272.690509 
L 122.285576 272.690509 
L 123.41142 272.690509 
L 124.302713 272.690509 
L 124.631084 272.690509 
L 125.569288 272.690509 
L 126.22603 272.690509 
L 126.929682 272.690509 
L 127.680245 272.690509 
L 128.196257 272.690509 
L 128.665359 272.690509 
L 129.978843 272.690509 
L 130.917047 272.690509 
L 131.620699 272.690509 
L 131.80834 272.690509 
L 132.465082 272.690509 
L 133.450196 272.690509 
L 134.482219 272.690509 
L 135.185872 272.690509 
L 136.217895 272.690509 
L 137.57829 272.690509 
L 139.454697 272.690509 
L 141.096553 272.690509 
L 142.503858 272.690509 
L 145.130827 272.690509 
L 146.256671 272.690509 
L 149.305832 272.690509 
L 151.276059 272.690509 
L 152.495723 272.690509 
L 153.246286 272.690509 
L 156.201626 272.690509 
L 157.843482 272.690509 
L 159.532248 272.690509 
L 162.86287 272.690509 
L 165.958941 272.690509 
L 166.474953 272.690509 
L 167.084785 272.690509 
L 168.022988 272.690509 
L 168.773551 272.690509 
L 171.072149 272.690509 
L 175.669346 272.690509 
L 176.560639 272.690509 
L 180.876374 272.690509 
L 181.861488 272.690509 
L 182.846601 272.690509 
L 184.441547 272.690509 
L 185.755031 272.690509 
L 187.021606 272.690509 
L 187.819079 272.690509 
L 190.399138 272.690509 
L 193.073017 272.690509 
L 194.386502 272.690509 
L 195.324705 272.690509 
L 196.49746 272.690509 
L 197.482573 272.690509 
L 198.655327 272.690509 
L 201.423027 272.690509 
L 202.877242 272.690509 
L 204.284547 272.690509 
L 205.738762 272.690509 
L 207.146067 272.690509 
L 208.600283 272.690509 
L 210.054498 272.690509 
L 211.414893 272.690509 
L 212.869108 272.690509 
L 214.276413 272.690509 
L 215.730628 272.690509 
L 217.137933 272.690509 
L 218.592148 272.690509 
L 220.046363 272.690509 
L 221.453668 272.690509 
L 222.907883 272.690509 
L 224.315188 272.690509 
L 225.769404 272.690509 
L 227.223619 272.690509 
L 228.537103 272.690509 
L 229.991319 272.690509 
L 231.398624 272.690509 
L 232.852839 272.690509 
L 234.260144 272.690509 
L 235.714359 272.690509 
L 237.168574 272.690509 
L 238.575879 272.690509 
L 240.030094 272.690509 
L 241.437399 272.690509 
L 242.891614 272.690509 
L 244.34583 272.690509 
L 245.659314 272.690509 
L 247.113529 272.690509 
L 248.520834 272.690509 
L 249.97505 272.690509 
L 251.382355 272.690509 
L 252.83657 272.690509 
L 254.290785 272.690509 
L 255.69809 272.690509 
L 257.152305 272.690509 
L 258.55961 272.690509 
L 260.013825 272.690509 
L 261.46804 272.690509 
L 262.781525 272.690509 
L 264.23574 272.690509 
L 265.643045 272.690509 
L 267.09726 272.690509 
L 268.504565 272.690509 
L 269.95878 272.690509 
L 271.412996 272.690509 
L 272.820301 272.690509 
L 274.274516 272.690509 
L 275.681821 272.690509 
L 277.136036 272.690509 
L 278.590251 272.690509 
L 279.950646 272.690509 
L 281.404861 272.690509 
L 282.812166 272.690509 
L 284.266381 272.690509 
L 285.673686 272.690509 
L 287.127901 272.690509 
L 288.582117 272.690509 
L 289.989422 272.690509 
L 291.443637 272.690509 
L 292.850942 272.690509 
L 294.305157 272.690509 
L 295.759372 272.690509 
L 297.072857 272.690509 
L 298.527072 272.690509 
L 299.934377 272.690509 
L 301.388592 272.690509 
L 302.795897 272.690509 
L 304.250112 272.690509 
L 305.704327 272.690509 
L 307.111632 272.690509 
L 308.565848 272.690509 
L 309.973153 272.690509 
L 311.427368 272.690509 
L 312.881583 272.690509 
L 314.195068 272.690509 
L 315.649283 272.690509 
L 317.056588 272.690509 
L 318.510803 272.690509 
L 319.918108 272.690509 
L 321.372323 272.690509 
L 322.826538 272.690509 
L 324.233843 272.690509 
L 325.688058 272.690509 
L 327.095363 272.690509 
L 328.549579 272.690509 
L 330.003794 272.690509 
L 331.317278 272.690509 
L 332.771494 272.690509 
L 334.178799 272.690509 
L 335.633014 272.690509 
L 337.040319 272.690509 
L 338.494534 272.690509 
L 339.948749 272.690509 
L 341.356054 272.690509 
L 342.810269 272.690509 
L 344.217574 272.690509 
L 345.671789 272.690509 
L 347.126005 272.690509 
L 348.486399 272.690509 
L 349.940615 272.690509 
L 351.34792 272.690509 
L 352.802135 272.690509 
L 354.20944 272.690509 
L 355.663655 272.690509 
L 357.11787 272.690509 
L 358.525175 272.690509 
L 359.97939 272.690509 
L 361.386695 272.690509 
L 362.84091 272.690509 
L 364.295126 272.690509 
L 365.60861 272.690509 
L 367.062825 272.690509 
L 368.47013 272.690509 
L 369.924346 272.690509 
L 371.331651 272.690509 
L 372.785866 272.690509 
L 374.240081 272.690509 
L 375.647386 272.690509 
L 377.101601 272.690509 
L 378.508906 272.690509 
L 379.963121 272.690509 
L 381.417336 272.690509 
L 382.730821 272.690509 
L 384.185036 272.690509 
L 385.592341 272.690509 
L 387.046556 272.690509 
L 388.453861 272.690509 
L 389.908077 272.690509 
L 391.362292 272.690509 
L 392.769597 272.690509 
L 394.223812 272.690509 
L 395.631117 272.690509 
L 397.085332 272.690509 
L 398.539547 272.690509 
L 399.853032 272.690509 
L 401.307247 272.690509 
L 402.714552 272.690509 
L 404.168767 272.690509 
L 405.576072 272.690509 
L 407.030287 272.690509 
L 408.484503 272.690509 
L 409.891808 272.690509 
L 411.346023 272.690509 
L 412.753328 272.690509 
L 414.207543 272.690509 
L 415.661758 272.690509 
L 417.022153 272.690509 
L 418.476368 272.690509 
L 419.883673 272.690509 
L 421.337888 272.690509 
L 422.745193 272.690509 
L 424.199408 272.690509 
L 425.653624 272.690509 
L 427.060929 272.690509 
L 428.515144 272.690509 
L 429.922449 272.690509 
L 431.376664 272.690509 
L 432.830879 272.690509 
L 434.144364 272.690509 
L 435.598579 272.690509 
L 437.005884 272.690509 
L 438.460099 272.690509 
L 439.867404 272.690509 
L 441.321619 272.690509 
L 442.775834 272.690509 
L 444.183139 272.690509 
L 445.637355 272.690509 
L 447.04466 272.690509 
L 448.498875 272.690509 
L 449.95309 272.690509 
L 449.95309 170.576458 
L 449.95309 170.576458 
L 448.498875 170.238705 
L 447.04466 170.163649 
L 445.637355 170.163649 
L 444.183139 170.126121 
L 442.775834 169.52567 
L 441.321619 169.413086 
L 439.867404 169.488142 
L 438.460099 169.52567 
L 437.005884 169.52567 
L 435.598579 169.825895 
L 434.144364 169.863424 
L 432.830879 170.839155 
L 431.376664 172.978259 
L 429.922449 173.728821 
L 428.515144 173.95399 
L 427.060929 173.95399 
L 425.653624 174.179159 
L 424.199408 174.179159 
L 422.745193 175.004778 
L 421.337888 175.530172 
L 419.883673 175.642756 
L 418.476368 175.75534 
L 417.022153 175.830397 
L 415.661758 177.444106 
L 414.207543 177.556691 
L 412.753328 177.594219 
L 411.346023 177.819388 
L 409.891808 177.931972 
L 408.484503 177.9695 
L 407.030287 178.082085 
L 405.576072 178.532422 
L 404.168767 178.757591 
L 402.714552 178.870176 
L 401.307247 178.870176 
L 399.853032 179.207929 
L 398.539547 179.770851 
L 397.085332 179.733323 
L 395.631117 179.845907 
L 394.223812 179.958491 
L 392.769597 180.18366 
L 391.362292 180.18366 
L 389.908077 180.221188 
L 388.453861 180.221188 
L 387.046556 180.18366 
L 385.592341 180.258716 
L 384.185036 180.18366 
L 382.730821 180.146132 
L 381.417336 180.18366 
L 379.963121 180.18366 
L 378.508906 180.371301 
L 377.101601 180.558942 
L 375.647386 180.859167 
L 374.240081 181.084335 
L 372.785866 181.046807 
L 371.331651 181.234448 
L 369.924346 181.497145 
L 368.47013 181.497145 
L 367.062825 181.647257 
L 365.60861 182.135123 
L 364.295126 182.247708 
L 362.84091 182.660517 
L 361.386695 182.698045 
L 359.97939 182.848158 
L 358.525175 182.923214 
L 357.11787 183.073326 
L 355.663655 183.110855 
L 354.20944 183.185911 
L 352.802135 183.185911 
L 351.34792 183.260967 
L 349.940615 183.59872 
L 348.486399 183.711305 
L 347.126005 183.786361 
L 345.671789 183.861417 
L 344.217574 183.861417 
L 342.810269 183.861417 
L 341.356054 183.974002 
L 339.948749 184.049058 
L 338.494534 184.19917 
L 337.040319 184.424339 
L 335.633014 184.536924 
L 334.178799 184.61198 
L 332.771494 184.687036 
L 331.317278 184.724564 
L 330.003794 184.724564 
L 328.549579 184.762092 
L 327.095363 184.799621 
L 325.688058 184.874677 
L 324.233843 184.912205 
L 322.826538 184.912205 
L 321.372323 185.024789 
L 319.918108 185.137374 
L 318.510803 185.362543 
L 317.056588 185.512655 
L 315.649283 185.81288 
L 314.195068 185.962993 
L 312.881583 186.113105 
L 311.427368 186.150633 
L 309.973153 186.300746 
L 308.565848 186.450858 
L 307.111632 188.102096 
L 305.704327 188.364793 
L 304.250112 189.077828 
L 302.795897 188.477378 
L 301.388592 188.402321 
L 299.934377 188.43985 
L 298.527072 188.514906 
L 297.072857 188.777603 
L 295.759372 188.815131 
L 294.305157 188.890187 
L 292.850942 189.603222 
L 291.443637 189.715806 
L 289.989422 189.903447 
L 288.582117 189.978503 
L 287.127901 190.091087 
L 285.673686 190.503897 
L 284.266381 190.691538 
L 282.812166 190.691538 
L 281.404861 191.066819 
L 279.950646 191.141875 
L 278.590251 191.179403 
L 277.136036 191.367044 
L 275.681821 191.4421 
L 274.274516 191.4421 
L 272.820301 191.629741 
L 271.412996 191.667269 
L 269.95878 191.704797 
L 268.504565 191.85491 
L 267.09726 191.967494 
L 265.643045 191.404572 
L 264.23574 191.479628 
L 262.781525 191.667269 
L 261.46804 191.667269 
L 260.013825 191.892438 
L 258.55961 192.04255 
L 257.152305 192.305247 
L 255.69809 192.643 
L 254.290785 192.943226 
L 252.83657 193.018282 
L 251.382355 193.280979 
L 249.97505 193.506148 
L 248.520834 193.843901 
L 247.113529 193.994013 
L 245.659314 194.181654 
L 244.34583 194.219182 
L 242.891614 194.219182 
L 241.437399 194.406823 
L 240.030094 194.85716 
L 238.575879 194.894688 
L 237.168574 195.119857 
L 235.714359 195.757836 
L 234.260144 195.832892 
L 232.852839 196.283229 
L 231.398624 196.583454 
L 229.991319 197.596714 
L 228.537103 197.67177 
L 227.223619 197.784355 
L 225.769404 198.047052 
L 224.315188 198.122108 
L 222.907883 198.347277 
L 221.453668 198.534917 
L 220.046363 198.872671 
L 218.592148 199.060311 
L 217.137933 199.172896 
L 215.730628 199.398064 
L 214.276413 199.435593 
L 212.869108 199.548177 
L 211.414893 199.69829 
L 210.054498 199.69829 
L 208.600283 199.773346 
L 207.146067 199.810874 
L 205.738762 199.848402 
L 204.284547 199.88593 
L 202.877242 199.923458 
L 201.423027 200.036043 
L 198.655327 200.749077 
L 197.482573 200.936718 
L 196.49746 200.974246 
L 195.324705 200.861662 
L 194.386502 200.861662 
L 193.073017 200.974246 
L 190.399138 201.08683 
L 187.819079 201.687281 
L 187.021606 202.587956 
L 185.755031 202.437843 
L 184.441547 202.400315 
L 182.846601 203.075822 
L 181.861488 203.075822 
L 180.876374 202.850653 
L 176.560639 203.338518 
L 175.669346 203.413575 
L 171.072149 204.051553 
L 168.773551 204.126609 
L 168.022988 203.976497 
L 167.084785 204.089081 
L 166.474953 204.276722 
L 165.958941 204.31425 
L 162.86287 204.426834 
L 159.532248 204.501891 
L 157.843482 204.689531 
L 156.201626 206.678522 
L 153.246286 206.603466 
L 152.495723 206.640994 
L 151.276059 207.053804 
L 149.305832 208.104591 
L 146.256671 208.32976 
L 145.130827 208.705042 
L 142.503858 208.967738 
L 141.096553 209.755829 
L 139.454697 210.281223 
L 137.57829 210.694033 
L 136.217895 210.731561 
L 135.185872 210.806617 
L 134.482219 210.844145 
L 133.450196 210.881673 
L 132.465082 211.55718 
L 131.80834 211.894933 
L 131.620699 211.894933 
L 130.917047 211.894933 
L 129.978843 212.120102 
L 128.665359 211.894933 
L 128.196257 212.082574 
L 127.680245 212.15763 
L 126.929682 212.270214 
L 126.22603 212.270214 
L 125.569288 212.570439 
L 124.631084 213.245946 
L 124.302713 213.208418 
L 123.41142 213.546171 
L 122.285576 213.621227 
L 121.441193 213.696283 
L 120.972091 213.77134 
L 120.174618 213.883924 
L 119.658607 214.109093 
L 118.861134 214.296733 
L 118.204391 214.221677 
L 117.406919 214.296733 
L 114.310848 214.55943 
L 114.076297 214.521902 
L 112.19989 214.822127 
L 108.118706 213.020777 
L 105.913928 215.685274 
L 97.376277 219.175391 
L 83.631599 222.440338 
L 64.961352 226.643489 
L 48.871165 221.80236 
L 41.037167 221.20191 
L 33.109349 221.990001 
z
" clip-path="url(#p5d7a5f0cfa)" style="fill: #fb363b"/>
   </g>
   <g id="PolyCollection_2">
    <path d="M 33.109349 144.832159 
L 33.109349 221.990001 
L 41.037167 221.20191 
L 48.871165 221.80236 
L 64.961352 226.643489 
L 83.631599 222.440338 
L 97.376277 219.175391 
L 105.913928 215.685274 
L 108.118706 213.020777 
L 112.19989 214.822127 
L 114.076297 214.521902 
L 114.310848 214.55943 
L 117.406919 214.296733 
L 118.204391 214.221677 
L 118.861134 214.296733 
L 119.658607 214.109093 
L 120.174618 213.883924 
L 120.972091 213.77134 
L 121.441193 213.696283 
L 122.285576 213.621227 
L 123.41142 213.546171 
L 124.302713 213.208418 
L 124.631084 213.245946 
L 125.569288 212.570439 
L 126.22603 212.270214 
L 126.929682 212.270214 
L 127.680245 212.15763 
L 128.196257 212.082574 
L 128.665359 211.894933 
L 129.978843 212.120102 
L 130.917047 211.894933 
L 131.620699 211.894933 
L 131.80834 211.894933 
L 132.465082 211.55718 
L 133.450196 210.881673 
L 134.482219 210.844145 
L 135.185872 210.806617 
L 136.217895 210.731561 
L 137.57829 210.694033 
L 139.454697 210.281223 
L 141.096553 209.755829 
L 142.503858 208.967738 
L 145.130827 208.705042 
L 146.256671 208.32976 
L 149.305832 208.104591 
L 151.276059 207.053804 
L 152.495723 206.640994 
L 153.246286 206.603466 
L 156.201626 206.678522 
L 157.843482 204.689531 
L 159.532248 204.501891 
L 162.86287 204.426834 
L 165.958941 204.31425 
L 166.474953 204.276722 
L 167.084785 204.089081 
L 168.022988 203.976497 
L 168.773551 204.126609 
L 171.072149 204.051553 
L 175.669346 203.413575 
L 176.560639 203.338518 
L 180.876374 202.850653 
L 181.861488 203.075822 
L 182.846601 203.075822 
L 184.441547 202.400315 
L 185.755031 202.437843 
L 187.021606 202.587956 
L 187.819079 201.687281 
L 190.399138 201.08683 
L 193.073017 200.974246 
L 194.386502 200.861662 
L 195.324705 200.861662 
L 196.49746 200.974246 
L 197.482573 200.936718 
L 198.655327 200.749077 
L 201.423027 200.036043 
L 202.877242 199.923458 
L 204.284547 199.88593 
L 205.738762 199.848402 
L 207.146067 199.810874 
L 208.600283 199.773346 
L 210.054498 199.69829 
L 211.414893 199.69829 
L 212.869108 199.548177 
L 214.276413 199.435593 
L 215.730628 199.398064 
L 217.137933 199.172896 
L 218.592148 199.060311 
L 220.046363 198.872671 
L 221.453668 198.534917 
L 222.907883 198.347277 
L 224.315188 198.122108 
L 225.769404 198.047052 
L 227.223619 197.784355 
L 228.537103 197.67177 
L 229.991319 197.596714 
L 231.398624 196.583454 
L 232.852839 196.283229 
L 234.260144 195.832892 
L 235.714359 195.757836 
L 237.168574 195.119857 
L 238.575879 194.894688 
L 240.030094 194.85716 
L 241.437399 194.406823 
L 242.891614 194.219182 
L 244.34583 194.219182 
L 245.659314 194.181654 
L 247.113529 193.994013 
L 248.520834 193.843901 
L 249.97505 193.506148 
L 251.382355 193.280979 
L 252.83657 193.018282 
L 254.290785 192.943226 
L 255.69809 192.643 
L 257.152305 192.305247 
L 258.55961 192.04255 
L 260.013825 191.892438 
L 261.46804 191.667269 
L 262.781525 191.667269 
L 264.23574 191.479628 
L 265.643045 191.404572 
L 267.09726 191.967494 
L 268.504565 191.85491 
L 269.95878 191.704797 
L 271.412996 191.667269 
L 272.820301 191.629741 
L 274.274516 191.4421 
L 275.681821 191.4421 
L 277.136036 191.367044 
L 278.590251 191.179403 
L 279.950646 191.141875 
L 281.404861 191.066819 
L 282.812166 190.691538 
L 284.266381 190.691538 
L 285.673686 190.503897 
L 287.127901 190.091087 
L 288.582117 189.978503 
L 289.989422 189.903447 
L 291.443637 189.715806 
L 292.850942 189.603222 
L 294.305157 188.890187 
L 295.759372 188.815131 
L 297.072857 188.777603 
L 298.527072 188.514906 
L 299.934377 188.43985 
L 301.388592 188.402321 
L 302.795897 188.477378 
L 304.250112 189.077828 
L 305.704327 188.364793 
L 307.111632 188.102096 
L 308.565848 186.450858 
L 309.973153 186.300746 
L 311.427368 186.150633 
L 312.881583 186.113105 
L 314.195068 185.962993 
L 315.649283 185.81288 
L 317.056588 185.512655 
L 318.510803 185.362543 
L 319.918108 185.137374 
L 321.372323 185.024789 
L 322.826538 184.912205 
L 324.233843 184.912205 
L 325.688058 184.874677 
L 327.095363 184.799621 
L 328.549579 184.762092 
L 330.003794 184.724564 
L 331.317278 184.724564 
L 332.771494 184.687036 
L 334.178799 184.61198 
L 335.633014 184.536924 
L 337.040319 184.424339 
L 338.494534 184.19917 
L 339.948749 184.049058 
L 341.356054 183.974002 
L 342.810269 183.861417 
L 344.217574 183.861417 
L 345.671789 183.861417 
L 347.126005 183.786361 
L 348.486399 183.711305 
L 349.940615 183.59872 
L 351.34792 183.260967 
L 352.802135 183.185911 
L 354.20944 183.185911 
L 355.663655 183.110855 
L 357.11787 183.073326 
L 358.525175 182.923214 
L 359.97939 182.848158 
L 361.386695 182.698045 
L 362.84091 182.660517 
L 364.295126 182.247708 
L 365.60861 182.135123 
L 367.062825 181.647257 
L 368.47013 181.497145 
L 369.924346 181.497145 
L 371.331651 181.234448 
L 372.785866 181.046807 
L 374.240081 181.084335 
L 375.647386 180.859167 
L 377.101601 180.558942 
L 378.508906 180.371301 
L 379.963121 180.18366 
L 381.417336 180.18366 
L 382.730821 180.146132 
L 384.185036 180.18366 
L 385.592341 180.258716 
L 387.046556 180.18366 
L 388.453861 180.221188 
L 389.908077 180.221188 
L 391.362292 180.18366 
L 392.769597 180.18366 
L 394.223812 179.958491 
L 395.631117 179.845907 
L 397.085332 179.733323 
L 398.539547 179.770851 
L 399.853032 179.207929 
L 401.307247 178.870176 
L 402.714552 178.870176 
L 404.168767 178.757591 
L 405.576072 178.532422 
L 407.030287 178.082085 
L 408.484503 177.9695 
L 409.891808 177.931972 
L 411.346023 177.819388 
L 412.753328 177.594219 
L 414.207543 177.556691 
L 415.661758 177.444106 
L 417.022153 175.830397 
L 418.476368 175.75534 
L 419.883673 175.642756 
L 421.337888 175.530172 
L 422.745193 175.004778 
L 424.199408 174.179159 
L 425.653624 174.179159 
L 427.060929 173.95399 
L 428.515144 173.95399 
L 429.922449 173.728821 
L 431.376664 172.978259 
L 432.830879 170.839155 
L 434.144364 169.863424 
L 435.598579 169.825895 
L 437.005884 169.52567 
L 438.460099 169.52567 
L 439.867404 169.488142 
L 441.321619 169.413086 
L 442.775834 169.52567 
L 444.183139 170.126121 
L 445.637355 170.163649 
L 447.04466 170.163649 
L 448.498875 170.238705 
L 449.95309 170.576458 
L 449.95309 108.129644 
L 449.95309 108.129644 
L 448.498875 107.078857 
L 447.04466 106.741103 
L 445.637355 106.703575 
L 444.183139 106.628519 
L 442.775834 105.690316 
L 441.321619 105.089865 
L 439.867404 105.014809 
L 438.460099 104.827169 
L 437.005884 104.752112 
L 435.598579 104.714584 
L 434.144364 104.489415 
L 432.830879 104.526943 
L 431.376664 104.489415 
L 429.922449 105.014809 
L 428.515144 105.089865 
L 427.060929 105.20245 
L 425.653624 105.239978 
L 424.199408 105.465147 
L 422.745193 105.352562 
L 421.337888 105.315034 
L 419.883673 105.465147 
L 418.476368 105.540203 
L 417.022153 105.502675 
L 415.661758 105.765372 
L 414.207543 106.028069 
L 412.753328 106.028069 
L 411.346023 106.140653 
L 409.891808 106.290766 
L 408.484503 106.365822 
L 407.030287 106.365822 
L 405.576072 106.628519 
L 404.168767 106.853688 
L 402.714552 106.966272 
L 401.307247 106.966272 
L 399.853032 107.0038 
L 398.539547 107.153913 
L 397.085332 107.266497 
L 395.631117 107.341553 
L 394.223812 107.341553 
L 392.769597 107.379082 
L 391.362292 107.266497 
L 389.908077 107.304025 
L 388.453861 107.304025 
L 387.046556 107.491666 
L 385.592341 107.454138 
L 384.185036 107.454138 
L 382.730821 107.491666 
L 381.417336 107.566722 
L 379.963121 107.566722 
L 378.508906 107.679307 
L 377.101601 107.641779 
L 375.647386 107.754363 
L 374.240081 107.791891 
L 372.785866 107.829419 
L 371.331651 107.866947 
L 369.924346 107.904475 
L 368.47013 107.866947 
L 367.062825 107.979532 
L 365.60861 108.167172 
L 364.295126 108.317285 
L 362.84091 108.354813 
L 361.386695 108.354813 
L 359.97939 108.429869 
L 358.525175 108.467397 
L 357.11787 108.542454 
L 355.663655 108.542454 
L 354.20944 108.579982 
L 352.802135 108.61751 
L 351.34792 108.504926 
L 349.940615 108.467397 
L 348.486399 108.504926 
L 347.126005 108.429869 
L 345.671789 108.429869 
L 344.217574 108.429869 
L 342.810269 108.429869 
L 341.356054 108.429869 
L 339.948749 108.467397 
L 338.494534 108.429869 
L 337.040319 108.467397 
L 335.633014 108.467397 
L 334.178799 108.354813 
L 332.771494 108.354813 
L 331.317278 108.392341 
L 330.003794 108.392341 
L 328.549579 108.467397 
L 327.095363 108.467397 
L 325.688058 108.542454 
L 324.233843 108.542454 
L 322.826538 108.542454 
L 321.372323 108.579982 
L 319.918108 108.579982 
L 318.510803 108.579982 
L 317.056588 108.61751 
L 315.649283 108.655038 
L 314.195068 108.955263 
L 312.881583 109.067848 
L 311.427368 108.992791 
L 309.973153 109.067848 
L 308.565848 109.180432 
L 307.111632 109.21796 
L 305.704327 109.743354 
L 304.250112 110.043579 
L 302.795897 112.107626 
L 301.388592 113.270999 
L 299.934377 113.683808 
L 298.527072 113.683808 
L 297.072857 113.984033 
L 295.759372 113.908977 
L 294.305157 113.158414 
L 292.850942 113.346055 
L 291.443637 113.758864 
L 289.989422 113.758864 
L 288.582117 113.64628 
L 287.127901 113.796392 
L 285.673686 113.833921 
L 284.266381 113.833921 
L 282.812166 113.871449 
L 281.404861 113.946505 
L 279.950646 113.946505 
L 278.590251 113.984033 
L 277.136036 113.984033 
L 275.681821 114.096617 
L 274.274516 114.134146 
L 272.820301 114.171674 
L 271.412996 114.171674 
L 269.95878 114.134146 
L 268.504565 114.171674 
L 267.09726 114.134146 
L 265.643045 114.734596 
L 264.23574 114.697068 
L 262.781525 114.772124 
L 261.46804 114.84718 
L 260.013825 114.959765 
L 258.55961 114.922236 
L 257.152305 115.184933 
L 255.69809 115.297518 
L 254.290785 115.44763 
L 252.83657 115.635271 
L 251.382355 115.672799 
L 249.97505 115.597743 
L 248.520834 115.672799 
L 247.113529 115.710327 
L 245.659314 115.710327 
L 244.34583 115.710327 
L 242.891614 115.710327 
L 241.437399 115.86044 
L 240.030094 115.935496 
L 238.575879 116.160665 
L 237.168574 116.198193 
L 235.714359 116.423362 
L 234.260144 116.498418 
L 232.852839 116.723587 
L 231.398624 116.836171 
L 229.991319 116.986284 
L 228.537103 117.023812 
L 227.223619 117.06134 
L 225.769404 117.211453 
L 224.315188 117.211453 
L 222.907883 117.399093 
L 221.453668 117.66179 
L 220.046363 117.811903 
L 218.592148 117.962015 
L 217.137933 118.149656 
L 215.730628 118.224712 
L 214.276413 118.524937 
L 212.869108 118.524937 
L 211.414893 118.562465 
L 210.054498 118.562465 
L 208.600283 118.562465 
L 207.146067 118.562465 
L 205.738762 118.562465 
L 204.284547 118.599993 
L 202.877242 118.750106 
L 201.423027 118.825162 
L 198.655327 119.2755 
L 197.482573 119.838422 
L 196.49746 120.101119 
L 195.324705 119.575725 
L 194.386502 119.87595 
L 193.073017 119.988534 
L 190.399138 120.138647 
L 187.819079 120.138647 
L 187.021606 120.288759 
L 185.755031 120.776625 
L 184.441547 120.739097 
L 182.846601 121.602244 
L 181.861488 121.602244 
L 180.876374 122.015054 
L 176.560639 122.277751 
L 175.669346 122.352807 
L 171.072149 123.403595 
L 168.773551 124.341798 
L 168.022988 124.379326 
L 167.084785 124.379326 
L 166.474953 124.379326 
L 165.958941 124.416854 
L 162.86287 124.004045 
L 159.532248 124.49191 
L 157.843482 124.679551 
L 156.201626 124.867192 
L 153.246286 124.979776 
L 152.495723 125.054832 
L 151.276059 125.242473 
L 149.305832 125.542698 
L 146.256671 125.392586 
L 145.130827 125.692811 
L 142.503858 125.655283 
L 141.096553 125.580226 
L 139.454697 125.917979 
L 137.57829 125.842923 
L 136.217895 125.730339 
L 135.185872 125.993036 
L 134.482219 126.030564 
L 133.450196 125.317529 
L 132.465082 125.355057 
L 131.80834 125.50517 
L 131.620699 125.50517 
L 130.917047 125.467642 
L 129.978843 125.955508 
L 128.665359 125.430114 
L 128.196257 125.430114 
L 127.680245 125.467642 
L 126.929682 125.50517 
L 126.22603 125.317529 
L 125.569288 125.730339 
L 124.631084 125.842923 
L 124.302713 125.617754 
L 123.41142 125.767867 
L 122.285576 125.730339 
L 121.441193 126.218205 
L 120.972091 126.143148 
L 120.174618 126.143148 
L 119.658607 124.454382 
L 118.861134 124.829664 
L 118.204391 123.89146 
L 117.406919 123.666291 
L 114.310848 123.928988 
L 114.076297 123.778876 
L 112.19989 124.041573 
L 108.118706 125.730339 
L 105.913928 126.555958 
L 97.376277 128.544949 
L 83.631599 131.397087 
L 64.961352 135.037316 
L 48.871165 140.854177 
L 41.037167 144.531934 
L 33.109349 144.832159 
z
" clip-path="url(#p5d7a5f0cfa)" style="fill: #fdc92c"/>
   </g>
   <g id="PolyCollection_3">
    <path d="M 33.109349 115.25999 
L 33.109349 144.832159 
L 41.037167 144.531934 
L 48.871165 140.854177 
L 64.961352 135.037316 
L 83.631599 131.397087 
L 97.376277 128.544949 
L 105.913928 126.555958 
L 108.118706 125.730339 
L 112.19989 124.041573 
L 114.076297 123.778876 
L 114.310848 123.928988 
L 117.406919 123.666291 
L 118.204391 123.89146 
L 118.861134 124.829664 
L 119.658607 124.454382 
L 120.174618 126.143148 
L 120.972091 126.143148 
L 121.441193 126.218205 
L 122.285576 125.730339 
L 123.41142 125.767867 
L 124.302713 125.617754 
L 124.631084 125.842923 
L 125.569288 125.730339 
L 126.22603 125.317529 
L 126.929682 125.50517 
L 127.680245 125.467642 
L 128.196257 125.430114 
L 128.665359 125.430114 
L 129.978843 125.955508 
L 130.917047 125.467642 
L 131.620699 125.50517 
L 131.80834 125.50517 
L 132.465082 125.355057 
L 133.450196 125.317529 
L 134.482219 126.030564 
L 135.185872 125.993036 
L 136.217895 125.730339 
L 137.57829 125.842923 
L 139.454697 125.917979 
L 141.096553 125.580226 
L 142.503858 125.655283 
L 145.130827 125.692811 
L 146.256671 125.392586 
L 149.305832 125.542698 
L 151.276059 125.242473 
L 152.495723 125.054832 
L 153.246286 124.979776 
L 156.201626 124.867192 
L 157.843482 124.679551 
L 159.532248 124.49191 
L 162.86287 124.004045 
L 165.958941 124.416854 
L 166.474953 124.379326 
L 167.084785 124.379326 
L 168.022988 124.379326 
L 168.773551 124.341798 
L 171.072149 123.403595 
L 175.669346 122.352807 
L 176.560639 122.277751 
L 180.876374 122.015054 
L 181.861488 121.602244 
L 182.846601 121.602244 
L 184.441547 120.739097 
L 185.755031 120.776625 
L 187.021606 120.288759 
L 187.819079 120.138647 
L 190.399138 120.138647 
L 193.073017 119.988534 
L 194.386502 119.87595 
L 195.324705 119.575725 
L 196.49746 120.101119 
L 197.482573 119.838422 
L 198.655327 119.2755 
L 201.423027 118.825162 
L 202.877242 118.750106 
L 204.284547 118.599993 
L 205.738762 118.562465 
L 207.146067 118.562465 
L 208.600283 118.562465 
L 210.054498 118.562465 
L 211.414893 118.562465 
L 212.869108 118.524937 
L 214.276413 118.524937 
L 215.730628 118.224712 
L 217.137933 118.149656 
L 218.592148 117.962015 
L 220.046363 117.811903 
L 221.453668 117.66179 
L 222.907883 117.399093 
L 224.315188 117.211453 
L 225.769404 117.211453 
L 227.223619 117.06134 
L 228.537103 117.023812 
L 229.991319 116.986284 
L 231.398624 116.836171 
L 232.852839 116.723587 
L 234.260144 116.498418 
L 235.714359 116.423362 
L 237.168574 116.198193 
L 238.575879 116.160665 
L 240.030094 115.935496 
L 241.437399 115.86044 
L 242.891614 115.710327 
L 244.34583 115.710327 
L 245.659314 115.710327 
L 247.113529 115.710327 
L 248.520834 115.672799 
L 249.97505 115.597743 
L 251.382355 115.672799 
L 252.83657 115.635271 
L 254.290785 115.44763 
L 255.69809 115.297518 
L 257.152305 115.184933 
L 258.55961 114.922236 
L 260.013825 114.959765 
L 261.46804 114.84718 
L 262.781525 114.772124 
L 264.23574 114.697068 
L 265.643045 114.734596 
L 267.09726 114.134146 
L 268.504565 114.171674 
L 269.95878 114.134146 
L 271.412996 114.171674 
L 272.820301 114.171674 
L 274.274516 114.134146 
L 275.681821 114.096617 
L 277.136036 113.984033 
L 278.590251 113.984033 
L 279.950646 113.946505 
L 281.404861 113.946505 
L 282.812166 113.871449 
L 284.266381 113.833921 
L 285.673686 113.833921 
L 287.127901 113.796392 
L 288.582117 113.64628 
L 289.989422 113.758864 
L 291.443637 113.758864 
L 292.850942 113.346055 
L 294.305157 113.158414 
L 295.759372 113.908977 
L 297.072857 113.984033 
L 298.527072 113.683808 
L 299.934377 113.683808 
L 301.388592 113.270999 
L 302.795897 112.107626 
L 304.250112 110.043579 
L 305.704327 109.743354 
L 307.111632 109.21796 
L 308.565848 109.180432 
L 309.973153 109.067848 
L 311.427368 108.992791 
L 312.881583 109.067848 
L 314.195068 108.955263 
L 315.649283 108.655038 
L 317.056588 108.61751 
L 318.510803 108.579982 
L 319.918108 108.579982 
L 321.372323 108.579982 
L 322.826538 108.542454 
L 324.233843 108.542454 
L 325.688058 108.542454 
L 327.095363 108.467397 
L 328.549579 108.467397 
L 330.003794 108.392341 
L 331.317278 108.392341 
L 332.771494 108.354813 
L 334.178799 108.354813 
L 335.633014 108.467397 
L 337.040319 108.467397 
L 338.494534 108.429869 
L 339.948749 108.467397 
L 341.356054 108.429869 
L 342.810269 108.429869 
L 344.217574 108.429869 
L 345.671789 108.429869 
L 347.126005 108.429869 
L 348.486399 108.504926 
L 349.940615 108.467397 
L 351.34792 108.504926 
L 352.802135 108.61751 
L 354.20944 108.579982 
L 355.663655 108.542454 
L 357.11787 108.542454 
L 358.525175 108.467397 
L 359.97939 108.429869 
L 361.386695 108.354813 
L 362.84091 108.354813 
L 364.295126 108.317285 
L 365.60861 108.167172 
L 367.062825 107.979532 
L 368.47013 107.866947 
L 369.924346 107.904475 
L 371.331651 107.866947 
L 372.785866 107.829419 
L 374.240081 107.791891 
L 375.647386 107.754363 
L 377.101601 107.641779 
L 378.508906 107.679307 
L 379.963121 107.566722 
L 381.417336 107.566722 
L 382.730821 107.491666 
L 384.185036 107.454138 
L 385.592341 107.454138 
L 387.046556 107.491666 
L 388.453861 107.304025 
L 389.908077 107.304025 
L 391.362292 107.266497 
L 392.769597 107.379082 
L 394.223812 107.341553 
L 395.631117 107.341553 
L 397.085332 107.266497 
L 398.539547 107.153913 
L 399.853032 107.0038 
L 401.307247 106.966272 
L 402.714552 106.966272 
L 404.168767 106.853688 
L 405.576072 106.628519 
L 407.030287 106.365822 
L 408.484503 106.365822 
L 409.891808 106.290766 
L 411.346023 106.140653 
L 412.753328 106.028069 
L 414.207543 106.028069 
L 415.661758 105.765372 
L 417.022153 105.502675 
L 418.476368 105.540203 
L 419.883673 105.465147 
L 421.337888 105.315034 
L 422.745193 105.352562 
L 424.199408 105.465147 
L 425.653624 105.239978 
L 427.060929 105.20245 
L 428.515144 105.089865 
L 429.922449 105.014809 
L 431.376664 104.489415 
L 432.830879 104.526943 
L 434.144364 104.489415 
L 435.598579 104.714584 
L 437.005884 104.752112 
L 438.460099 104.827169 
L 439.867404 105.014809 
L 441.321619 105.089865 
L 442.775834 105.690316 
L 444.183139 106.628519 
L 445.637355 106.703575 
L 447.04466 106.741103 
L 448.498875 107.078857 
L 449.95309 108.129644 
L 449.95309 93.043335 
L 449.95309 93.043335 
L 448.498875 93.005807 
L 447.04466 93.005807 
L 445.637355 93.005807 
L 444.183139 93.005807 
L 442.775834 92.105131 
L 441.321619 92.105131 
L 439.867404 92.105131 
L 438.460099 92.105131 
L 437.005884 92.105131 
L 435.598579 92.067603 
L 434.144364 92.067603 
L 432.830879 92.067603 
L 431.376664 92.067603 
L 429.922449 92.067603 
L 428.515144 92.067603 
L 427.060929 92.067603 
L 425.653624 92.030075 
L 424.199408 92.367828 
L 422.745193 92.592997 
L 421.337888 92.592997 
L 419.883673 92.630525 
L 418.476368 92.630525 
L 417.022153 92.630525 
L 415.661758 92.668053 
L 414.207543 92.668053 
L 412.753328 92.668053 
L 411.346023 92.705582 
L 409.891808 92.705582 
L 408.484503 92.705582 
L 407.030287 92.705582 
L 405.576072 92.780638 
L 404.168767 92.780638 
L 402.714552 92.780638 
L 401.307247 92.780638 
L 399.853032 92.780638 
L 398.539547 92.818166 
L 397.085332 92.818166 
L 395.631117 92.893222 
L 394.223812 92.893222 
L 392.769597 92.93075 
L 391.362292 92.93075 
L 389.908077 92.93075 
L 388.453861 92.93075 
L 387.046556 93.005807 
L 385.592341 93.080863 
L 384.185036 93.080863 
L 382.730821 93.080863 
L 381.417336 93.080863 
L 379.963121 93.080863 
L 378.508906 93.118391 
L 377.101601 93.080863 
L 375.647386 93.155919 
L 374.240081 93.155919 
L 372.785866 93.155919 
L 371.331651 93.193447 
L 369.924346 93.193447 
L 368.47013 93.193447 
L 367.062825 93.230975 
L 365.60861 93.268504 
L 364.295126 93.306032 
L 362.84091 93.306032 
L 361.386695 93.268504 
L 359.97939 93.268504 
L 358.525175 93.268504 
L 357.11787 93.230975 
L 355.663655 93.230975 
L 354.20944 93.268504 
L 352.802135 93.268504 
L 351.34792 93.193447 
L 349.940615 93.155919 
L 348.486399 93.155919 
L 347.126005 93.193447 
L 345.671789 93.193447 
L 344.217574 93.193447 
L 342.810269 93.193447 
L 341.356054 93.193447 
L 339.948749 93.193447 
L 338.494534 93.193447 
L 337.040319 93.193447 
L 335.633014 93.193447 
L 334.178799 93.118391 
L 332.771494 93.118391 
L 331.317278 93.118391 
L 330.003794 93.118391 
L 328.549579 93.080863 
L 327.095363 93.080863 
L 325.688058 93.155919 
L 324.233843 93.155919 
L 322.826538 93.155919 
L 321.372323 93.193447 
L 319.918108 93.193447 
L 318.510803 93.193447 
L 317.056588 93.230975 
L 315.649283 93.268504 
L 314.195068 93.34356 
L 312.881583 93.34356 
L 311.427368 93.34356 
L 309.973153 93.493672 
L 308.565848 93.493672 
L 307.111632 93.493672 
L 305.704327 93.381088 
L 304.250112 93.418616 
L 302.795897 93.606257 
L 301.388592 94.506932 
L 299.934377 94.657044 
L 298.527072 94.694573 
L 297.072857 94.732101 
L 295.759372 94.732101 
L 294.305157 94.732101 
L 292.850942 94.732101 
L 291.443637 94.769629 
L 289.989422 94.769629 
L 288.582117 94.807157 
L 287.127901 94.844685 
L 285.673686 94.882213 
L 284.266381 94.882213 
L 282.812166 94.882213 
L 281.404861 94.882213 
L 279.950646 94.882213 
L 278.590251 94.919741 
L 277.136036 94.919741 
L 275.681821 94.95727 
L 274.274516 94.994798 
L 272.820301 94.994798 
L 271.412996 94.994798 
L 269.95878 94.994798 
L 268.504565 94.994798 
L 267.09726 94.994798 
L 265.643045 94.994798 
L 264.23574 94.994798 
L 262.781525 95.069854 
L 261.46804 95.069854 
L 260.013825 95.069854 
L 258.55961 95.107382 
L 257.152305 95.107382 
L 255.69809 95.14491 
L 254.290785 95.295023 
L 252.83657 96.195698 
L 251.382355 96.195698 
L 249.97505 96.195698 
L 248.520834 96.270754 
L 247.113529 96.270754 
L 245.659314 96.270754 
L 244.34583 96.270754 
L 242.891614 96.270754 
L 241.437399 96.270754 
L 240.030094 96.34581 
L 238.575879 96.270754 
L 237.168574 96.308282 
L 235.714359 96.383339 
L 234.260144 96.458395 
L 232.852839 96.646035 
L 231.398624 96.683564 
L 229.991319 96.683564 
L 228.537103 96.683564 
L 227.223619 96.683564 
L 225.769404 96.75862 
L 224.315188 96.75862 
L 222.907883 96.833676 
L 221.453668 96.833676 
L 220.046363 96.721092 
L 218.592148 96.796148 
L 217.137933 96.796148 
L 215.730628 96.796148 
L 214.276413 96.833676 
L 212.869108 96.833676 
L 211.414893 96.833676 
L 210.054498 96.871204 
L 208.600283 96.871204 
L 207.146067 96.908732 
L 205.738762 96.871204 
L 204.284547 96.871204 
L 202.877242 96.946261 
L 201.423027 96.983789 
L 198.655327 97.246486 
L 197.482573 97.809408 
L 196.49746 98.072105 
L 195.324705 97.471654 
L 194.386502 97.95952 
L 193.073017 97.997048 
L 190.399138 98.860195 
L 187.819079 98.860195 
L 187.021606 98.822667 
L 185.755031 98.97278 
L 184.441547 98.97278 
L 182.846601 99.047836 
L 181.861488 99.047836 
L 180.876374 99.085364 
L 176.560639 99.235477 
L 175.669346 99.235477 
L 171.072149 100.211208 
L 168.773551 100.323793 
L 168.022988 100.361321 
L 167.084785 100.473905 
L 166.474953 100.473905 
L 165.958941 100.473905 
L 162.86287 100.473905 
L 159.532248 100.699074 
L 157.843482 100.811658 
L 156.201626 100.849186 
L 153.246286 100.924243 
L 152.495723 101.036827 
L 151.276059 101.224468 
L 149.305832 101.449637 
L 146.256671 101.599749 
L 145.130827 102.200199 
L 142.503858 102.237727 
L 141.096553 102.500424 
L 139.454697 102.800649 
L 137.57829 102.875706 
L 136.217895 102.875706 
L 135.185872 102.875706 
L 134.482219 102.875706 
L 133.450196 103.025818 
L 132.465082 103.175931 
L 131.80834 103.288515 
L 131.620699 103.288515 
L 130.917047 103.250987 
L 129.978843 103.776381 
L 128.665359 103.326043 
L 128.196257 103.326043 
L 127.680245 103.401099 
L 126.929682 103.401099 
L 126.22603 103.401099 
L 125.569288 103.964021 
L 124.631084 103.964021 
L 124.302713 103.513684 
L 123.41142 104.076606 
L 122.285576 105.127394 
L 121.441193 105.990541 
L 120.972091 106.028069 
L 120.174618 106.028069 
L 119.658607 106.065597 
L 118.861134 106.628519 
L 118.204391 106.103125 
L 117.406919 106.103125 
L 114.310848 106.365822 
L 114.076297 106.40335 
L 112.19989 106.440878 
L 108.118706 103.964021 
L 105.913928 106.590991 
L 97.376277 108.392341 
L 83.631599 110.23122 
L 64.961352 111.507176 
L 48.871165 113.421111 
L 41.037167 115.672799 
L 33.109349 115.25999 
z
" clip-path="url(#p5d7a5f0cfa)" style="fill: #aeaeae"/>
   </g>
   <g id="PolyCollection_4">
    <path d="M 33.109349 92.480413 
L 33.109349 115.25999 
L 41.037167 115.672799 
L 48.871165 113.421111 
L 64.961352 111.507176 
L 83.631599 110.23122 
L 97.376277 108.392341 
L 105.913928 106.590991 
L 108.118706 103.964021 
L 112.19989 106.440878 
L 114.076297 106.40335 
L 114.310848 106.365822 
L 117.406919 106.103125 
L 118.204391 106.103125 
L 118.861134 106.628519 
L 119.658607 106.065597 
L 120.174618 106.028069 
L 120.972091 106.028069 
L 121.441193 105.990541 
L 122.285576 105.127394 
L 123.41142 104.076606 
L 124.302713 103.513684 
L 124.631084 103.964021 
L 125.569288 103.964021 
L 126.22603 103.401099 
L 126.929682 103.401099 
L 127.680245 103.401099 
L 128.196257 103.326043 
L 128.665359 103.326043 
L 129.978843 103.776381 
L 130.917047 103.250987 
L 131.620699 103.288515 
L 131.80834 103.288515 
L 132.465082 103.175931 
L 133.450196 103.025818 
L 134.482219 102.875706 
L 135.185872 102.875706 
L 136.217895 102.875706 
L 137.57829 102.875706 
L 139.454697 102.800649 
L 141.096553 102.500424 
L 142.503858 102.237727 
L 145.130827 102.200199 
L 146.256671 101.599749 
L 149.305832 101.449637 
L 151.276059 101.224468 
L 152.495723 101.036827 
L 153.246286 100.924243 
L 156.201626 100.849186 
L 157.843482 100.811658 
L 159.532248 100.699074 
L 162.86287 100.473905 
L 165.958941 100.473905 
L 166.474953 100.473905 
L 167.084785 100.473905 
L 168.022988 100.361321 
L 168.773551 100.323793 
L 171.072149 100.211208 
L 175.669346 99.235477 
L 176.560639 99.235477 
L 180.876374 99.085364 
L 181.861488 99.047836 
L 182.846601 99.047836 
L 184.441547 98.97278 
L 185.755031 98.97278 
L 187.021606 98.822667 
L 187.819079 98.860195 
L 190.399138 98.860195 
L 193.073017 97.997048 
L 194.386502 97.95952 
L 195.324705 97.471654 
L 196.49746 98.072105 
L 197.482573 97.809408 
L 198.655327 97.246486 
L 201.423027 96.983789 
L 202.877242 96.946261 
L 204.284547 96.871204 
L 205.738762 96.871204 
L 207.146067 96.908732 
L 208.600283 96.871204 
L 210.054498 96.871204 
L 211.414893 96.833676 
L 212.869108 96.833676 
L 214.276413 96.833676 
L 215.730628 96.796148 
L 217.137933 96.796148 
L 218.592148 96.796148 
L 220.046363 96.721092 
L 221.453668 96.833676 
L 222.907883 96.833676 
L 224.315188 96.75862 
L 225.769404 96.75862 
L 227.223619 96.683564 
L 228.537103 96.683564 
L 229.991319 96.683564 
L 231.398624 96.683564 
L 232.852839 96.646035 
L 234.260144 96.458395 
L 235.714359 96.383339 
L 237.168574 96.308282 
L 238.575879 96.270754 
L 240.030094 96.34581 
L 241.437399 96.270754 
L 242.891614 96.270754 
L 244.34583 96.270754 
L 245.659314 96.270754 
L 247.113529 96.270754 
L 248.520834 96.270754 
L 249.97505 96.195698 
L 251.382355 96.195698 
L 252.83657 96.195698 
L 254.290785 95.295023 
L 255.69809 95.14491 
L 257.152305 95.107382 
L 258.55961 95.107382 
L 260.013825 95.069854 
L 261.46804 95.069854 
L 262.781525 95.069854 
L 264.23574 94.994798 
L 265.643045 94.994798 
L 267.09726 94.994798 
L 268.504565 94.994798 
L 269.95878 94.994798 
L 271.412996 94.994798 
L 272.820301 94.994798 
L 274.274516 94.994798 
L 275.681821 94.95727 
L 277.136036 94.919741 
L 278.590251 94.919741 
L 279.950646 94.882213 
L 281.404861 94.882213 
L 282.812166 94.882213 
L 284.266381 94.882213 
L 285.673686 94.882213 
L 287.127901 94.844685 
L 288.582117 94.807157 
L 289.989422 94.769629 
L 291.443637 94.769629 
L 292.850942 94.732101 
L 294.305157 94.732101 
L 295.759372 94.732101 
L 297.072857 94.732101 
L 298.527072 94.694573 
L 299.934377 94.657044 
L 301.388592 94.506932 
L 302.795897 93.606257 
L 304.250112 93.418616 
L 305.704327 93.381088 
L 307.111632 93.493672 
L 308.565848 93.493672 
L 309.973153 93.493672 
L 311.427368 93.34356 
L 312.881583 93.34356 
L 314.195068 93.34356 
L 315.649283 93.268504 
L 317.056588 93.230975 
L 318.510803 93.193447 
L 319.918108 93.193447 
L 321.372323 93.193447 
L 322.826538 93.155919 
L 324.233843 93.155919 
L 325.688058 93.155919 
L 327.095363 93.080863 
L 328.549579 93.080863 
L 330.003794 93.118391 
L 331.317278 93.118391 
L 332.771494 93.118391 
L 334.178799 93.118391 
L 335.633014 93.193447 
L 337.040319 93.193447 
L 338.494534 93.193447 
L 339.948749 93.193447 
L 341.356054 93.193447 
L 342.810269 93.193447 
L 344.217574 93.193447 
L 345.671789 93.193447 
L 347.126005 93.193447 
L 348.486399 93.155919 
L 349.940615 93.155919 
L 351.34792 93.193447 
L 352.802135 93.268504 
L 354.20944 93.268504 
L 355.663655 93.230975 
L 357.11787 93.230975 
L 358.525175 93.268504 
L 359.97939 93.268504 
L 361.386695 93.268504 
L 362.84091 93.306032 
L 364.295126 93.306032 
L 365.60861 93.268504 
L 367.062825 93.230975 
L 368.47013 93.193447 
L 369.924346 93.193447 
L 371.331651 93.193447 
L 372.785866 93.155919 
L 374.240081 93.155919 
L 375.647386 93.155919 
L 377.101601 93.080863 
L 378.508906 93.118391 
L 379.963121 93.080863 
L 381.417336 93.080863 
L 382.730821 93.080863 
L 384.185036 93.080863 
L 385.592341 93.080863 
L 387.046556 93.005807 
L 388.453861 92.93075 
L 389.908077 92.93075 
L 391.362292 92.93075 
L 392.769597 92.93075 
L 394.223812 92.893222 
L 395.631117 92.893222 
L 397.085332 92.818166 
L 398.539547 92.818166 
L 399.853032 92.780638 
L 401.307247 92.780638 
L 402.714552 92.780638 
L 404.168767 92.780638 
L 405.576072 92.780638 
L 407.030287 92.705582 
L 408.484503 92.705582 
L 409.891808 92.705582 
L 411.346023 92.705582 
L 412.753328 92.668053 
L 414.207543 92.668053 
L 415.661758 92.668053 
L 417.022153 92.630525 
L 418.476368 92.630525 
L 419.883673 92.630525 
L 421.337888 92.592997 
L 422.745193 92.592997 
L 424.199408 92.367828 
L 425.653624 92.030075 
L 427.060929 92.067603 
L 428.515144 92.067603 
L 429.922449 92.067603 
L 431.376664 92.067603 
L 432.830879 92.067603 
L 434.144364 92.067603 
L 435.598579 92.067603 
L 437.005884 92.105131 
L 438.460099 92.105131 
L 439.867404 92.105131 
L 441.321619 92.105131 
L 442.775834 92.105131 
L 444.183139 93.005807 
L 445.637355 93.005807 
L 447.04466 93.005807 
L 448.498875 93.005807 
L 449.95309 93.043335 
L 449.95309 83.773886 
L 449.95309 83.773886 
L 448.498875 83.736358 
L 447.04466 83.736358 
L 445.637355 83.736358 
L 444.183139 83.736358 
L 442.775834 82.835682 
L 441.321619 82.835682 
L 439.867404 82.835682 
L 438.460099 82.835682 
L 437.005884 82.835682 
L 435.598579 82.835682 
L 434.144364 82.835682 
L 432.830879 82.835682 
L 431.376664 82.835682 
L 429.922449 82.835682 
L 428.515144 82.835682 
L 427.060929 82.873211 
L 425.653624 82.873211 
L 424.199408 82.873211 
L 422.745193 82.910739 
L 421.337888 82.910739 
L 419.883673 82.910739 
L 418.476368 82.910739 
L 417.022153 82.910739 
L 415.661758 82.910739 
L 414.207543 82.910739 
L 412.753328 82.910739 
L 411.346023 82.910739 
L 409.891808 82.910739 
L 408.484503 82.910739 
L 407.030287 82.910739 
L 405.576072 82.910739 
L 404.168767 82.910739 
L 402.714552 82.910739 
L 401.307247 82.910739 
L 399.853032 82.910739 
L 398.539547 83.098379 
L 397.085332 83.135908 
L 395.631117 83.173436 
L 394.223812 83.173436 
L 392.769597 83.173436 
L 391.362292 83.173436 
L 389.908077 83.173436 
L 388.453861 83.173436 
L 387.046556 83.173436 
L 385.592341 83.173436 
L 384.185036 83.173436 
L 382.730821 83.210964 
L 381.417336 83.173436 
L 379.963121 83.173436 
L 378.508906 83.210964 
L 377.101601 82.948267 
L 375.647386 82.948267 
L 374.240081 82.610514 
L 372.785866 82.610514 
L 371.331651 82.610514 
L 369.924346 82.610514 
L 368.47013 82.610514 
L 367.062825 82.610514 
L 365.60861 82.648042 
L 364.295126 82.648042 
L 362.84091 82.648042 
L 361.386695 82.610514 
L 359.97939 82.610514 
L 358.525175 82.610514 
L 357.11787 82.648042 
L 355.663655 82.648042 
L 354.20944 82.648042 
L 352.802135 82.648042 
L 351.34792 82.572986 
L 349.940615 82.535457 
L 348.486399 82.535457 
L 347.126005 82.535457 
L 345.671789 82.535457 
L 344.217574 82.535457 
L 342.810269 82.535457 
L 341.356054 82.535457 
L 339.948749 82.535457 
L 338.494534 82.535457 
L 337.040319 82.535457 
L 335.633014 82.535457 
L 334.178799 82.460401 
L 332.771494 82.460401 
L 331.317278 82.460401 
L 330.003794 82.460401 
L 328.549579 82.460401 
L 327.095363 82.460401 
L 325.688058 82.460401 
L 324.233843 82.460401 
L 322.826538 82.460401 
L 321.372323 82.422873 
L 319.918108 82.422873 
L 318.510803 82.422873 
L 317.056588 82.422873 
L 315.649283 82.422873 
L 314.195068 82.422873 
L 312.881583 82.422873 
L 311.427368 82.422873 
L 309.973153 82.422873 
L 308.565848 82.422873 
L 307.111632 82.422873 
L 305.704327 82.422873 
L 304.250112 82.422873 
L 302.795897 82.422873 
L 301.388592 82.422873 
L 299.934377 82.422873 
L 298.527072 82.422873 
L 297.072857 82.422873 
L 295.759372 82.422873 
L 294.305157 82.422873 
L 292.850942 82.422873 
L 291.443637 82.422873 
L 289.989422 82.422873 
L 288.582117 82.422873 
L 287.127901 82.422873 
L 285.673686 82.422873 
L 284.266381 82.422873 
L 282.812166 82.422873 
L 281.404861 82.422873 
L 279.950646 82.760626 
L 278.590251 82.798154 
L 277.136036 82.798154 
L 275.681821 82.798154 
L 274.274516 82.948267 
L 272.820301 82.948267 
L 271.412996 82.948267 
L 269.95878 82.948267 
L 268.504565 82.948267 
L 267.09726 82.948267 
L 265.643045 82.948267 
L 264.23574 82.948267 
L 262.781525 82.948267 
L 261.46804 82.948267 
L 260.013825 82.948267 
L 258.55961 82.985795 
L 257.152305 82.985795 
L 255.69809 82.985795 
L 254.290785 82.985795 
L 252.83657 82.723098 
L 251.382355 82.873211 
L 249.97505 82.835682 
L 248.520834 82.835682 
L 247.113529 82.835682 
L 245.659314 82.835682 
L 244.34583 82.835682 
L 242.891614 82.835682 
L 241.437399 82.835682 
L 240.030094 82.873211 
L 238.575879 82.873211 
L 237.168574 82.873211 
L 235.714359 82.835682 
L 234.260144 82.835682 
L 232.852839 82.835682 
L 231.398624 82.835682 
L 229.991319 82.835682 
L 228.537103 82.835682 
L 227.223619 82.835682 
L 225.769404 82.835682 
L 224.315188 82.835682 
L 222.907883 82.835682 
L 221.453668 82.873211 
L 220.046363 82.835682 
L 218.592148 82.873211 
L 217.137933 82.835682 
L 215.730628 82.835682 
L 214.276413 82.835682 
L 212.869108 82.835682 
L 211.414893 82.835682 
L 210.054498 82.835682 
L 208.600283 82.873211 
L 207.146067 82.873211 
L 205.738762 82.835682 
L 204.284547 82.835682 
L 202.877242 82.835682 
L 201.423027 82.910739 
L 198.655327 83.173436 
L 197.482573 83.811414 
L 196.49746 83.88647 
L 195.324705 83.28602 
L 194.386502 84.749617 
L 193.073017 84.749617 
L 190.399138 86.10063 
L 187.819079 86.10063 
L 187.021606 86.063102 
L 185.755031 86.213214 
L 184.441547 86.175686 
L 182.846601 86.175686 
L 181.861488 86.175686 
L 180.876374 86.175686 
L 176.560639 86.475911 
L 175.669346 86.475911 
L 171.072149 86.663552 
L 168.773551 86.626024 
L 168.022988 86.626024 
L 167.084785 86.70108 
L 166.474953 86.70108 
L 165.958941 86.70108 
L 162.86287 87.226474 
L 159.532248 87.339058 
L 157.843482 87.339058 
L 156.201626 87.339058 
L 153.246286 87.339058 
L 152.495723 87.30153 
L 151.276059 87.30153 
L 149.305832 87.188946 
L 146.256671 87.151418 
L 145.130827 88.127149 
L 142.503858 88.239734 
L 141.096553 88.352318 
L 139.454697 88.239734 
L 137.57829 88.239734 
L 136.217895 88.202206 
L 135.185872 88.202206 
L 134.482219 88.202206 
L 133.450196 88.164677 
L 132.465082 88.164677 
L 131.80834 88.202206 
L 131.620699 88.202206 
L 130.917047 88.202206 
L 129.978843 88.615015 
L 128.665359 88.202206 
L 128.196257 88.202206 
L 127.680245 88.239734 
L 126.929682 88.164677 
L 126.22603 88.164677 
L 125.569288 88.539959 
L 124.631084 88.464902 
L 124.302713 88.052093 
L 123.41142 88.577487 
L 122.285576 88.427374 
L 121.441193 88.464902 
L 120.972091 88.464902 
L 120.174618 88.464902 
L 119.658607 88.502431 
L 118.861134 88.990296 
L 118.204391 88.464902 
L 117.406919 88.464902 
L 114.310848 89.403106 
L 114.076297 89.440634 
L 112.19989 89.403106 
L 108.118706 88.539959 
L 105.913928 89.403106 
L 97.376277 90.153668 
L 83.631599 90.566478 
L 64.961352 91.241984 
L 48.871165 91.654794 
L 41.037167 92.630525 
L 33.109349 92.480413 
z
" clip-path="url(#p5d7a5f0cfa)" style="fill: #d5dce5"/>
   </g>
   <g id="matplotlib.axis_1">
    <g id="xtick_1">
     <g id="line2d_1">
      <defs>
       <path id="mb5e5827809" d="M 0 0 
L 0 3.5 
" style="stroke: #000000; stroke-width: 0.8"/>
      </defs>
      <g>
       <use xlink:href="#mb5e5827809" x="71.528776" y="272.690509" style="stroke: #000000; stroke-width: 0.8"/>
      </g>
     </g>
     <g id="text_1">
      <!-- 2004 -->
      <g transform="translate(58.803776 287.288946) scale(0.1 -0.1)">
       <defs>
        <path id="DejaVuSans-32" d="M 1228 531 
L 3431 531 
L 3431 0 
L 469 0 
L 469 531 
Q 828 903 1448 1529 
Q 2069 2156 2228 2338 
Q 2531 2678 2651 2914 
Q 2772 3150 2772 3378 
Q 2772 3750 2511 3984 
Q 2250 4219 1831 4219 
Q 1534 4219 1204 4116 
Q 875 4013 500 3803 
L 500 4441 
Q 881 4594 1212 4672 
Q 1544 4750 1819 4750 
Q 2544 4750 2975 4387 
Q 3406 4025 3406 3419 
Q 3406 3131 3298 2873 
Q 3191 2616 2906 2266 
Q 2828 2175 2409 1742 
Q 1991 1309 1228 531 
z
" transform="scale(0.015625)"/>
        <path id="DejaVuSans-30" d="M 2034 4250 
Q 1547 4250 1301 3770 
Q 1056 3291 1056 2328 
Q 1056 1369 1301 889 
Q 1547 409 2034 409 
Q 2525 409 2770 889 
Q 3016 1369 3016 2328 
Q 3016 3291 2770 3770 
Q 2525 4250 2034 4250 
z
M 2034 4750 
Q 2819 4750 3233 4129 
Q 3647 3509 3647 2328 
Q 3647 1150 3233 529 
Q 2819 -91 2034 -91 
Q 1250 -91 836 529 
Q 422 1150 422 2328 
Q 422 3509 836 4129 
Q 1250 4750 2034 4750 
z
" transform="scale(0.015625)"/>
        <path id="DejaVuSans-34" d="M 2419 4116 
L 825 1625 
L 2419 1625 
L 2419 4116 
z
M 2253 4666 
L 3047 4666 
L 3047 1625 
L 3713 1625 
L 3713 1100 
L 3047 1100 
L 3047 0 
L 2419 0 
L 2419 1100 
L 313 1100 
L 313 1709 
L 2253 4666 
z
" transform="scale(0.015625)"/>
       </defs>
       <use xlink:href="#DejaVuSans-32"/>
       <use xlink:href="#DejaVuSans-30" x="63.623047"/>
       <use xlink:href="#DejaVuSans-30" x="127.246094"/>
       <use xlink:href="#DejaVuSans-34" x="190.869141"/>
      </g>
     </g>
    </g>
    <g id="xtick_2">
     <g id="line2d_2">
      <g>
       <use xlink:href="#mb5e5827809" x="140.064529" y="272.690509" style="stroke: #000000; stroke-width: 0.8"/>
      </g>
     </g>
     <g id="text_2">
      <!-- 2008 -->
      <g transform="translate(127.339529 287.288946) scale(0.1 -0.1)">
       <defs>
        <path id="DejaVuSans-38" d="M 2034 2216 
Q 1584 2216 1326 1975 
Q 1069 1734 1069 1313 
Q 1069 891 1326 650 
Q 1584 409 2034 409 
Q 2484 409 2743 651 
Q 3003 894 3003 1313 
Q 3003 1734 2745 1975 
Q 2488 2216 2034 2216 
z
M 1403 2484 
Q 997 2584 770 2862 
Q 544 3141 544 3541 
Q 544 4100 942 4425 
Q 1341 4750 2034 4750 
Q 2731 4750 3128 4425 
Q 3525 4100 3525 3541 
Q 3525 3141 3298 2862 
Q 3072 2584 2669 2484 
Q 3125 2378 3379 2068 
Q 3634 1759 3634 1313 
Q 3634 634 3220 271 
Q 2806 -91 2034 -91 
Q 1263 -91 848 271 
Q 434 634 434 1313 
Q 434 1759 690 2068 
Q 947 2378 1403 2484 
z
M 1172 3481 
Q 1172 3119 1398 2916 
Q 1625 2713 2034 2713 
Q 2441 2713 2670 2916 
Q 2900 3119 2900 3481 
Q 2900 3844 2670 4047 
Q 2441 4250 2034 4250 
Q 1625 4250 1398 4047 
Q 1172 3844 1172 3481 
z
" transform="scale(0.015625)"/>
       </defs>
       <use xlink:href="#DejaVuSans-32"/>
       <use xlink:href="#DejaVuSans-30" x="63.623047"/>
       <use xlink:href="#DejaVuSans-30" x="127.246094"/>
       <use xlink:href="#DejaVuSans-38" x="190.869141"/>
      </g>
     </g>
    </g>
    <g id="xtick_3">
     <g id="line2d_3">
      <g>
       <use xlink:href="#mb5e5827809" x="208.600283" y="272.690509" style="stroke: #000000; stroke-width: 0.8"/>
      </g>
     </g>
     <g id="text_3">
      <!-- 2012 -->
      <g transform="translate(195.875283 287.288946) scale(0.1 -0.1)">
       <defs>
        <path id="DejaVuSans-31" d="M 794 531 
L 1825 531 
L 1825 4091 
L 703 3866 
L 703 4441 
L 1819 4666 
L 2450 4666 
L 2450 531 
L 3481 531 
L 3481 0 
L 794 0 
L 794 531 
z
" transform="scale(0.015625)"/>
       </defs>
       <use xlink:href="#DejaVuSans-32"/>
       <use xlink:href="#DejaVuSans-30" x="63.623047"/>
       <use xlink:href="#DejaVuSans-31" x="127.246094"/>
       <use xlink:href="#DejaVuSans-32" x="190.869141"/>
      </g>
     </g>
    </g>
    <g id="xtick_4">
     <g id="line2d_4">
      <g>
       <use xlink:href="#mb5e5827809" x="277.136036" y="272.690509" style="stroke: #000000; stroke-width: 0.8"/>
      </g>
     </g>
     <g id="text_4">
      <!-- 2016 -->
      <g transform="translate(264.411036 287.288946) scale(0.1 -0.1)">
       <defs>
        <path id="DejaVuSans-36" d="M 2113 2584 
Q 1688 2584 1439 2293 
Q 1191 2003 1191 1497 
Q 1191 994 1439 701 
Q 1688 409 2113 409 
Q 2538 409 2786 701 
Q 3034 994 3034 1497 
Q 3034 2003 2786 2293 
Q 2538 2584 2113 2584 
z
M 3366 4563 
L 3366 3988 
Q 3128 4100 2886 4159 
Q 2644 4219 2406 4219 
Q 1781 4219 1451 3797 
Q 1122 3375 1075 2522 
Q 1259 2794 1537 2939 
Q 1816 3084 2150 3084 
Q 2853 3084 3261 2657 
Q 3669 2231 3669 1497 
Q 3669 778 3244 343 
Q 2819 -91 2113 -91 
Q 1303 -91 875 529 
Q 447 1150 447 2328 
Q 447 3434 972 4092 
Q 1497 4750 2381 4750 
Q 2619 4750 2861 4703 
Q 3103 4656 3366 4563 
z
" transform="scale(0.015625)"/>
       </defs>
       <use xlink:href="#DejaVuSans-32"/>
       <use xlink:href="#DejaVuSans-30" x="63.623047"/>
       <use xlink:href="#DejaVuSans-31" x="127.246094"/>
       <use xlink:href="#DejaVuSans-36" x="190.869141"/>
      </g>
     </g>
    </g>
    <g id="xtick_5">
     <g id="line2d_5">
      <g>
       <use xlink:href="#mb5e5827809" x="345.671789" y="272.690509" style="stroke: #000000; stroke-width: 0.8"/>
      </g>
     </g>
     <g id="text_5">
      <!-- 2020 -->
      <g transform="translate(332.946789 287.288946) scale(0.1 -0.1)">
       <use xlink:href="#DejaVuSans-32"/>
       <use xlink:href="#DejaVuSans-30" x="63.623047"/>
       <use xlink:href="#DejaVuSans-32" x="127.246094"/>
       <use xlink:href="#DejaVuSans-30" x="190.869141"/>
      </g>
     </g>
    </g>
    <g id="xtick_6">
     <g id="line2d_6">
      <g>
       <use xlink:href="#mb5e5827809" x="414.207543" y="272.690509" style="stroke: #000000; stroke-width: 0.8"/>
      </g>
     </g>
     <g id="text_6">
      <!-- 2024 -->
      <g transform="translate(401.482543 287.288946) scale(0.1 -0.1)">
       <use xlink:href="#DejaVuSans-32"/>
       <use xlink:href="#DejaVuSans-30" x="63.623047"/>
       <use xlink:href="#DejaVuSans-32" x="127.246094"/>
       <use xlink:href="#DejaVuSans-34" x="190.869141"/>
      </g>
     </g>
    </g>
    <g id="text_7">
     <!-- Year -->
     <g transform="translate(239.86375 304.76629) scale(0.15 -0.15)">
      <defs>
       <path id="DejaVuSans-59" d="M -13 4666 
L 666 4666 
L 1959 2747 
L 3244 4666 
L 3922 4666 
L 2272 2222 
L 2272 0 
L 1638 0 
L 1638 2222 
L -13 4666 
z
" transform="scale(0.015625)"/>
       <path id="DejaVuSans-65" d="M 3597 1894 
L 3597 1613 
L 953 1613 
Q 991 1019 1311 708 
Q 1631 397 2203 397 
Q 2534 397 2845 478 
Q 3156 559 3463 722 
L 3463 178 
Q 3153 47 2828 -22 
Q 2503 -91 2169 -91 
Q 1331 -91 842 396 
Q 353 884 353 1716 
Q 353 2575 817 3079 
Q 1281 3584 2069 3584 
Q 2775 3584 3186 3129 
Q 3597 2675 3597 1894 
z
M 3022 2063 
Q 3016 2534 2758 2815 
Q 2500 3097 2075 3097 
Q 1594 3097 1305 2825 
Q 1016 2553 972 2059 
L 3022 2063 
z
" transform="scale(0.015625)"/>
       <path id="DejaVuSans-61" d="M 2194 1759 
Q 1497 1759 1228 1600 
Q 959 1441 959 1056 
Q 959 750 1161 570 
Q 1363 391 1709 391 
Q 2188 391 2477 730 
Q 2766 1069 2766 1631 
L 2766 1759 
L 2194 1759 
z
M 3341 1997 
L 3341 0 
L 2766 0 
L 2766 531 
Q 2569 213 2275 61 
Q 1981 -91 1556 -91 
Q 1019 -91 701 211 
Q 384 513 384 1019 
Q 384 1609 779 1909 
Q 1175 2209 1959 2209 
L 2766 2209 
L 2766 2266 
Q 2766 2663 2505 2880 
Q 2244 3097 1772 3097 
Q 1472 3097 1187 3025 
Q 903 2953 641 2809 
L 641 3341 
Q 956 3463 1253 3523 
Q 1550 3584 1831 3584 
Q 2591 3584 2966 3190 
Q 3341 2797 3341 1997 
z
" transform="scale(0.015625)"/>
       <path id="DejaVuSans-72" d="M 2631 2963 
Q 2534 3019 2420 3045 
Q 2306 3072 2169 3072 
Q 1681 3072 1420 2755 
Q 1159 2438 1159 1844 
L 1159 0 
L 581 0 
L 581 3500 
L 1159 3500 
L 1159 2956 
Q 1341 3275 1631 3429 
Q 1922 3584 2338 3584 
Q 2397 3584 2469 3576 
Q 2541 3569 2628 3553 
L 2631 2963 
z
" transform="scale(0.015625)"/>
      </defs>
      <use xlink:href="#DejaVuSans-59"/>
      <use xlink:href="#DejaVuSans-65" x="47.833984"/>
      <use xlink:href="#DejaVuSans-61" x="109.357422"/>
      <use xlink:href="#DejaVuSans-72" x="170.636719"/>
     </g>
    </g>
   </g>
   <g id="matplotlib.axis_2">
    <g id="ytick_1">
     <g id="line2d_7">
      <defs>
       <path id="mc6f74d5ca2" d="M 0 0 
L -3.5 0 
" style="stroke: #000000; stroke-width: 0.8"/>
      </defs>
      <g>
       <use xlink:href="#mc6f74d5ca2" x="61.49" y="272.690509" style="stroke: #000000; stroke-width: 0.8"/>
      </g>
     </g>
     <g id="text_8">
      <!-- 0 -->
      <g transform="translate(48.1275 276.489728) scale(0.1 -0.1)">
       <use xlink:href="#DejaVuSans-30"/>
      </g>
     </g>
    </g>
    <g id="ytick_2">
     <g id="line2d_8">
      <g>
       <use xlink:href="#mc6f74d5ca2" x="61.49" y="235.162376" style="stroke: #000000; stroke-width: 0.8"/>
      </g>
     </g>
     <g id="text_9">
      <!-- 1000 -->
      <g transform="translate(29.04 238.961594) scale(0.1 -0.1)">
       <use xlink:href="#DejaVuSans-31"/>
       <use xlink:href="#DejaVuSans-30" x="63.623047"/>
       <use xlink:href="#DejaVuSans-30" x="127.246094"/>
       <use xlink:href="#DejaVuSans-30" x="190.869141"/>
      </g>
     </g>
    </g>
    <g id="ytick_3">
     <g id="line2d_9">
      <g>
       <use xlink:href="#mc6f74d5ca2" x="61.49" y="197.634242" style="stroke: #000000; stroke-width: 0.8"/>
      </g>
     </g>
     <g id="text_10">
      <!-- 2000 -->
      <g transform="translate(29.04 201.433461) scale(0.1 -0.1)">
       <use xlink:href="#DejaVuSans-32"/>
       <use xlink:href="#DejaVuSans-30" x="63.623047"/>
       <use xlink:href="#DejaVuSans-30" x="127.246094"/>
       <use xlink:href="#DejaVuSans-30" x="190.869141"/>
      </g>
     </g>
    </g>
    <g id="ytick_4">
     <g id="line2d_10">
      <g>
       <use xlink:href="#mc6f74d5ca2" x="61.49" y="160.106109" style="stroke: #000000; stroke-width: 0.8"/>
      </g>
     </g>
     <g id="text_11">
      <!-- 3000 -->
      <g transform="translate(29.04 163.905328) scale(0.1 -0.1)">
       <defs>
        <path id="DejaVuSans-33" d="M 2597 2516 
Q 3050 2419 3304 2112 
Q 3559 1806 3559 1356 
Q 3559 666 3084 287 
Q 2609 -91 1734 -91 
Q 1441 -91 1130 -33 
Q 819 25 488 141 
L 488 750 
Q 750 597 1062 519 
Q 1375 441 1716 441 
Q 2309 441 2620 675 
Q 2931 909 2931 1356 
Q 2931 1769 2642 2001 
Q 2353 2234 1838 2234 
L 1294 2234 
L 1294 2753 
L 1863 2753 
Q 2328 2753 2575 2939 
Q 2822 3125 2822 3475 
Q 2822 3834 2567 4026 
Q 2313 4219 1838 4219 
Q 1578 4219 1281 4162 
Q 984 4106 628 3988 
L 628 4550 
Q 988 4650 1302 4700 
Q 1616 4750 1894 4750 
Q 2613 4750 3031 4423 
Q 3450 4097 3450 3541 
Q 3450 3153 3228 2886 
Q 3006 2619 2597 2516 
z
" transform="scale(0.015625)"/>
       </defs>
       <use xlink:href="#DejaVuSans-33"/>
       <use xlink:href="#DejaVuSans-30" x="63.623047"/>
       <use xlink:href="#DejaVuSans-30" x="127.246094"/>
       <use xlink:href="#DejaVuSans-30" x="190.869141"/>
      </g>
     </g>
    </g>
    <g id="ytick_5">
     <g id="line2d_11">
      <g>
       <use xlink:href="#mc6f74d5ca2" x="61.49" y="122.577976" style="stroke: #000000; stroke-width: 0.8"/>
      </g>
     </g>
     <g id="text_12">
      <!-- 4000 -->
      <g transform="translate(29.04 126.377194) scale(0.1 -0.1)">
       <use xlink:href="#DejaVuSans-34"/>
       <use xlink:href="#DejaVuSans-30" x="63.623047"/>
       <use xlink:href="#DejaVuSans-30" x="127.246094"/>
       <use xlink:href="#DejaVuSans-30" x="190.869141"/>
      </g>
     </g>
    </g>
    <g id="ytick_6">
     <g id="line2d_12">
      <g>
       <use xlink:href="#mc6f74d5ca2" x="61.49" y="85.049842" style="stroke: #000000; stroke-width: 0.8"/>
      </g>
     </g>
     <g id="text_13">
      <!-- 5000 -->
      <g transform="translate(29.04 88.849061) scale(0.1 -0.1)">
       <defs>
        <path id="DejaVuSans-35" d="M 691 4666 
L 3169 4666 
L 3169 4134 
L 1269 4134 
L 1269 2991 
Q 1406 3038 1543 3061 
Q 1681 3084 1819 3084 
Q 2600 3084 3056 2656 
Q 3513 2228 3513 1497 
Q 3513 744 3044 326 
Q 2575 -91 1722 -91 
Q 1428 -91 1123 -41 
Q 819 9 494 109 
L 494 744 
Q 775 591 1075 516 
Q 1375 441 1709 441 
Q 2250 441 2565 725 
Q 2881 1009 2881 1497 
Q 2881 1984 2565 2268 
Q 2250 2553 1709 2553 
Q 1456 2553 1204 2497 
Q 953 2441 691 2322 
L 691 4666 
z
" transform="scale(0.015625)"/>
       </defs>
       <use xlink:href="#DejaVuSans-35"/>
       <use xlink:href="#DejaVuSans-30" x="63.623047"/>
       <use xlink:href="#DejaVuSans-30" x="127.246094"/>
       <use xlink:href="#DejaVuSans-30" x="190.869141"/>
      </g>
     </g>
    </g>
    <g id="text_14">
     <!-- Number of proteins -->
     <g transform="translate(21.920469 245.489062) rotate(-90) scale(0.15 -0.15)">
      <defs>
       <path id="DejaVuSans-4e" d="M 628 4666 
L 1478 4666 
L 3547 763 
L 3547 4666 
L 4159 4666 
L 4159 0 
L 3309 0 
L 1241 3903 
L 1241 0 
L 628 0 
L 628 4666 
z
" transform="scale(0.015625)"/>
       <path id="DejaVuSans-75" d="M 544 1381 
L 544 3500 
L 1119 3500 
L 1119 1403 
Q 1119 906 1312 657 
Q 1506 409 1894 409 
Q 2359 409 2629 706 
Q 2900 1003 2900 1516 
L 2900 3500 
L 3475 3500 
L 3475 0 
L 2900 0 
L 2900 538 
Q 2691 219 2414 64 
Q 2138 -91 1772 -91 
Q 1169 -91 856 284 
Q 544 659 544 1381 
z
M 1991 3584 
L 1991 3584 
z
" transform="scale(0.015625)"/>
       <path id="DejaVuSans-6d" d="M 3328 2828 
Q 3544 3216 3844 3400 
Q 4144 3584 4550 3584 
Q 5097 3584 5394 3201 
Q 5691 2819 5691 2113 
L 5691 0 
L 5113 0 
L 5113 2094 
Q 5113 2597 4934 2840 
Q 4756 3084 4391 3084 
Q 3944 3084 3684 2787 
Q 3425 2491 3425 1978 
L 3425 0 
L 2847 0 
L 2847 2094 
Q 2847 2600 2669 2842 
Q 2491 3084 2119 3084 
Q 1678 3084 1418 2786 
Q 1159 2488 1159 1978 
L 1159 0 
L 581 0 
L 581 3500 
L 1159 3500 
L 1159 2956 
Q 1356 3278 1631 3431 
Q 1906 3584 2284 3584 
Q 2666 3584 2933 3390 
Q 3200 3197 3328 2828 
z
" transform="scale(0.015625)"/>
       <path id="DejaVuSans-62" d="M 3116 1747 
Q 3116 2381 2855 2742 
Q 2594 3103 2138 3103 
Q 1681 3103 1420 2742 
Q 1159 2381 1159 1747 
Q 1159 1113 1420 752 
Q 1681 391 2138 391 
Q 2594 391 2855 752 
Q 3116 1113 3116 1747 
z
M 1159 2969 
Q 1341 3281 1617 3432 
Q 1894 3584 2278 3584 
Q 2916 3584 3314 3078 
Q 3713 2572 3713 1747 
Q 3713 922 3314 415 
Q 2916 -91 2278 -91 
Q 1894 -91 1617 61 
Q 1341 213 1159 525 
L 1159 0 
L 581 0 
L 581 4863 
L 1159 4863 
L 1159 2969 
z
" transform="scale(0.015625)"/>
       <path id="DejaVuSans-20" transform="scale(0.015625)"/>
       <path id="DejaVuSans-6f" d="M 1959 3097 
Q 1497 3097 1228 2736 
Q 959 2375 959 1747 
Q 959 1119 1226 758 
Q 1494 397 1959 397 
Q 2419 397 2687 759 
Q 2956 1122 2956 1747 
Q 2956 2369 2687 2733 
Q 2419 3097 1959 3097 
z
M 1959 3584 
Q 2709 3584 3137 3096 
Q 3566 2609 3566 1747 
Q 3566 888 3137 398 
Q 2709 -91 1959 -91 
Q 1206 -91 779 398 
Q 353 888 353 1747 
Q 353 2609 779 3096 
Q 1206 3584 1959 3584 
z
" transform="scale(0.015625)"/>
       <path id="DejaVuSans-66" d="M 2375 4863 
L 2375 4384 
L 1825 4384 
Q 1516 4384 1395 4259 
Q 1275 4134 1275 3809 
L 1275 3500 
L 2222 3500 
L 2222 3053 
L 1275 3053 
L 1275 0 
L 697 0 
L 697 3053 
L 147 3053 
L 147 3500 
L 697 3500 
L 697 3744 
Q 697 4328 969 4595 
Q 1241 4863 1831 4863 
L 2375 4863 
z
" transform="scale(0.015625)"/>
       <path id="DejaVuSans-70" d="M 1159 525 
L 1159 -1331 
L 581 -1331 
L 581 3500 
L 1159 3500 
L 1159 2969 
Q 1341 3281 1617 3432 
Q 1894 3584 2278 3584 
Q 2916 3584 3314 3078 
Q 3713 2572 3713 1747 
Q 3713 922 3314 415 
Q 2916 -91 2278 -91 
Q 1894 -91 1617 61 
Q 1341 213 1159 525 
z
M 3116 1747 
Q 3116 2381 2855 2742 
Q 2594 3103 2138 3103 
Q 1681 3103 1420 2742 
Q 1159 2381 1159 1747 
Q 1159 1113 1420 752 
Q 1681 391 2138 391 
Q 2594 391 2855 752 
Q 3116 1113 3116 1747 
z
" transform="scale(0.015625)"/>
       <path id="DejaVuSans-74" d="M 1172 4494 
L 1172 3500 
L 2356 3500 
L 2356 3053 
L 1172 3053 
L 1172 1153 
Q 1172 725 1289 603 
Q 1406 481 1766 481 
L 2356 481 
L 2356 0 
L 1766 0 
Q 1100 0 847 248 
Q 594 497 594 1153 
L 594 3053 
L 172 3053 
L 172 3500 
L 594 3500 
L 594 4494 
L 1172 4494 
z
" transform="scale(0.015625)"/>
       <path id="DejaVuSans-69" d="M 603 3500 
L 1178 3500 
L 1178 0 
L 603 0 
L 603 3500 
z
M 603 4863 
L 1178 4863 
L 1178 4134 
L 603 4134 
L 603 4863 
z
" transform="scale(0.015625)"/>
       <path id="DejaVuSans-6e" d="M 3513 2113 
L 3513 0 
L 2938 0 
L 2938 2094 
Q 2938 2591 2744 2837 
Q 2550 3084 2163 3084 
Q 1697 3084 1428 2787 
Q 1159 2491 1159 1978 
L 1159 0 
L 581 0 
L 581 3500 
L 1159 3500 
L 1159 2956 
Q 1366 3272 1645 3428 
Q 1925 3584 2291 3584 
Q 2894 3584 3203 3211 
Q 3513 2838 3513 2113 
z
" transform="scale(0.015625)"/>
       <path id="DejaVuSans-73" d="M 2834 3397 
L 2834 2853 
Q 2591 2978 2328 3040 
Q 2066 3103 1784 3103 
Q 1356 3103 1142 2972 
Q 928 2841 928 2578 
Q 928 2378 1081 2264 
Q 1234 2150 1697 2047 
L 1894 2003 
Q 2506 1872 2764 1633 
Q 3022 1394 3022 966 
Q 3022 478 2636 193 
Q 2250 -91 1575 -91 
Q 1294 -91 989 -36 
Q 684 19 347 128 
L 347 722 
Q 666 556 975 473 
Q 1284 391 1588 391 
Q 1994 391 2212 530 
Q 2431 669 2431 922 
Q 2431 1156 2273 1281 
Q 2116 1406 1581 1522 
L 1381 1569 
Q 847 1681 609 1914 
Q 372 2147 372 2553 
Q 372 3047 722 3315 
Q 1072 3584 1716 3584 
Q 2034 3584 2315 3537 
Q 2597 3491 2834 3397 
z
" transform="scale(0.015625)"/>
      </defs>
      <use xlink:href="#DejaVuSans-4e"/>
      <use xlink:href="#DejaVuSans-75" x="74.804688"/>
      <use xlink:href="#DejaVuSans-6d" x="138.183594"/>
      <use xlink:href="#DejaVuSans-62" x="235.595703"/>
      <use xlink:href="#DejaVuSans-65" x="299.072266"/>
      <use xlink:href="#DejaVuSans-72" x="360.595703"/>
      <use xlink:href="#DejaVuSans-20" x="401.708984"/>
      <use xlink:href="#DejaVuSans-6f" x="433.496094"/>
      <use xlink:href="#DejaVuSans-66" x="494.677734"/>
      <use xlink:href="#DejaVuSans-20" x="529.882812"/>
      <use xlink:href="#DejaVuSans-70" x="561.669922"/>
      <use xlink:href="#DejaVuSans-72" x="625.146484"/>
      <use xlink:href="#DejaVuSans-6f" x="664.009766"/>
      <use xlink:href="#DejaVuSans-74" x="725.191406"/>
      <use xlink:href="#DejaVuSans-65" x="764.400391"/>
      <use xlink:href="#DejaVuSans-69" x="825.923828"/>
      <use xlink:href="#DejaVuSans-6e" x="853.707031"/>
      <use xlink:href="#DejaVuSans-73" x="917.085938"/>
     </g>
    </g>
   </g>
   <g id="patch_3">
    <path d="M 61.49 272.690509 
L 61.49 72.909491 
" style="fill: none; stroke: #000000; stroke-width: 0.8; stroke-linejoin: miter; stroke-linecap: square"/>
   </g>
   <g id="patch_4">
    <path d="M 61.49 272.690509 
L 450 272.690509 
" style="fill: none; stroke: #000000; stroke-width: 0.8; stroke-linejoin: miter; stroke-linecap: square"/>
   </g>
   <g id="legend_1">
    <g id="patch_5">
     <path d="M 98.395781 67.909491 
L 413.094219 67.909491 
Q 415.094219 67.909491 415.094219 65.909491 
L 415.094219 37.553241 
Q 415.094219 35.553241 413.094219 35.553241 
L 98.395781 35.553241 
Q 96.395781 35.553241 96.395781 37.553241 
L 96.395781 65.909491 
Q 96.395781 67.909491 98.395781 67.909491 
z
" style="fill: #ffffff; opacity: 0.8; stroke: #cccccc; stroke-linejoin: miter"/>
    </g>
    <g id="patch_6">
     <path d="M 100.395781 47.151679 
L 120.395781 47.151679 
L 120.395781 40.151679 
L 100.395781 40.151679 
z
" style="fill: #fb363b"/>
    </g>
    <g id="text_15">
     <!-- Biological role published -->
     <g transform="translate(128.395781 47.151679) scale(0.1 -0.1)">
      <defs>
       <path id="DejaVuSans-42" d="M 1259 2228 
L 1259 519 
L 2272 519 
Q 2781 519 3026 730 
Q 3272 941 3272 1375 
Q 3272 1813 3026 2020 
Q 2781 2228 2272 2228 
L 1259 2228 
z
M 1259 4147 
L 1259 2741 
L 2194 2741 
Q 2656 2741 2882 2914 
Q 3109 3088 3109 3444 
Q 3109 3797 2882 3972 
Q 2656 4147 2194 4147 
L 1259 4147 
z
M 628 4666 
L 2241 4666 
Q 2963 4666 3353 4366 
Q 3744 4066 3744 3513 
Q 3744 3084 3544 2831 
Q 3344 2578 2956 2516 
Q 3422 2416 3680 2098 
Q 3938 1781 3938 1306 
Q 3938 681 3513 340 
Q 3088 0 2303 0 
L 628 0 
L 628 4666 
z
" transform="scale(0.015625)"/>
       <path id="DejaVuSans-6c" d="M 603 4863 
L 1178 4863 
L 1178 0 
L 603 0 
L 603 4863 
z
" transform="scale(0.015625)"/>
       <path id="DejaVuSans-67" d="M 2906 1791 
Q 2906 2416 2648 2759 
Q 2391 3103 1925 3103 
Q 1463 3103 1205 2759 
Q 947 2416 947 1791 
Q 947 1169 1205 825 
Q 1463 481 1925 481 
Q 2391 481 2648 825 
Q 2906 1169 2906 1791 
z
M 3481 434 
Q 3481 -459 3084 -895 
Q 2688 -1331 1869 -1331 
Q 1566 -1331 1297 -1286 
Q 1028 -1241 775 -1147 
L 775 -588 
Q 1028 -725 1275 -790 
Q 1522 -856 1778 -856 
Q 2344 -856 2625 -561 
Q 2906 -266 2906 331 
L 2906 616 
Q 2728 306 2450 153 
Q 2172 0 1784 0 
Q 1141 0 747 490 
Q 353 981 353 1791 
Q 353 2603 747 3093 
Q 1141 3584 1784 3584 
Q 2172 3584 2450 3431 
Q 2728 3278 2906 2969 
L 2906 3500 
L 3481 3500 
L 3481 434 
z
" transform="scale(0.015625)"/>
       <path id="DejaVuSans-63" d="M 3122 3366 
L 3122 2828 
Q 2878 2963 2633 3030 
Q 2388 3097 2138 3097 
Q 1578 3097 1268 2742 
Q 959 2388 959 1747 
Q 959 1106 1268 751 
Q 1578 397 2138 397 
Q 2388 397 2633 464 
Q 2878 531 3122 666 
L 3122 134 
Q 2881 22 2623 -34 
Q 2366 -91 2075 -91 
Q 1284 -91 818 406 
Q 353 903 353 1747 
Q 353 2603 823 3093 
Q 1294 3584 2113 3584 
Q 2378 3584 2631 3529 
Q 2884 3475 3122 3366 
z
" transform="scale(0.015625)"/>
       <path id="DejaVuSans-68" d="M 3513 2113 
L 3513 0 
L 2938 0 
L 2938 2094 
Q 2938 2591 2744 2837 
Q 2550 3084 2163 3084 
Q 1697 3084 1428 2787 
Q 1159 2491 1159 1978 
L 1159 0 
L 581 0 
L 581 4863 
L 1159 4863 
L 1159 2956 
Q 1366 3272 1645 3428 
Q 1925 3584 2291 3584 
Q 2894 3584 3203 3211 
Q 3513 2838 3513 2113 
z
" transform="scale(0.015625)"/>
       <path id="DejaVuSans-64" d="M 2906 2969 
L 2906 4863 
L 3481 4863 
L 3481 0 
L 2906 0 
L 2906 525 
Q 2725 213 2448 61 
Q 2172 -91 1784 -91 
Q 1150 -91 751 415 
Q 353 922 353 1747 
Q 353 2572 751 3078 
Q 1150 3584 1784 3584 
Q 2172 3584 2448 3432 
Q 2725 3281 2906 2969 
z
M 947 1747 
Q 947 1113 1208 752 
Q 1469 391 1925 391 
Q 2381 391 2643 752 
Q 2906 1113 2906 1747 
Q 2906 2381 2643 2742 
Q 2381 3103 1925 3103 
Q 1469 3103 1208 2742 
Q 947 2381 947 1747 
z
" transform="scale(0.015625)"/>
      </defs>
      <use xlink:href="#DejaVuSans-42"/>
      <use xlink:href="#DejaVuSans-69" x="68.603516"/>
      <use xlink:href="#DejaVuSans-6f" x="96.386719"/>
      <use xlink:href="#DejaVuSans-6c" x="157.568359"/>
      <use xlink:href="#DejaVuSans-6f" x="185.351562"/>
      <use xlink:href="#DejaVuSans-67" x="246.533203"/>
      <use xlink:href="#DejaVuSans-69" x="310.009766"/>
      <use xlink:href="#DejaVuSans-63" x="337.792969"/>
      <use xlink:href="#DejaVuSans-61" x="392.773438"/>
      <use xlink:href="#DejaVuSans-6c" x="454.052734"/>
      <use xlink:href="#DejaVuSans-20" x="481.835938"/>
      <use xlink:href="#DejaVuSans-72" x="513.623047"/>
      <use xlink:href="#DejaVuSans-6f" x="552.486328"/>
      <use xlink:href="#DejaVuSans-6c" x="613.667969"/>
      <use xlink:href="#DejaVuSans-65" x="641.451172"/>
      <use xlink:href="#DejaVuSans-20" x="702.974609"/>
      <use xlink:href="#DejaVuSans-70" x="734.761719"/>
      <use xlink:href="#DejaVuSans-75" x="798.238281"/>
      <use xlink:href="#DejaVuSans-62" x="861.617188"/>
      <use xlink:href="#DejaVuSans-6c" x="925.09375"/>
      <use xlink:href="#DejaVuSans-69" x="952.876953"/>
      <use xlink:href="#DejaVuSans-73" x="980.660156"/>
      <use xlink:href="#DejaVuSans-68" x="1032.759766"/>
      <use xlink:href="#DejaVuSans-65" x="1096.138672"/>
      <use xlink:href="#DejaVuSans-64" x="1157.662109"/>
     </g>
    </g>
    <g id="patch_7">
     <path d="M 100.395781 61.829804 
L 120.395781 61.829804 
L 120.395781 54.829804 
L 100.395781 54.829804 
z
" style="fill: #fdc92c"/>
    </g>
    <g id="text_16">
     <!-- Biological role inferred -->
     <g transform="translate(128.395781 61.829804) scale(0.1 -0.1)">
      <use xlink:href="#DejaVuSans-42"/>
      <use xlink:href="#DejaVuSans-69" x="68.603516"/>
      <use xlink:href="#DejaVuSans-6f" x="96.386719"/>
      <use xlink:href="#DejaVuSans-6c" x="157.568359"/>
      <use xlink:href="#DejaVuSans-6f" x="185.351562"/>
      <use xlink:href="#DejaVuSans-67" x="246.533203"/>
      <use xlink:href="#DejaVuSans-69" x="310.009766"/>
      <use xlink:href="#DejaVuSans-63" x="337.792969"/>
      <use xlink:href="#DejaVuSans-61" x="392.773438"/>
      <use xlink:href="#DejaVuSans-6c" x="454.052734"/>
      <use xlink:href="#DejaVuSans-20" x="481.835938"/>
      <use xlink:href="#DejaVuSans-72" x="513.623047"/>
      <use xlink:href="#DejaVuSans-6f" x="552.486328"/>
      <use xlink:href="#DejaVuSans-6c" x="613.667969"/>
      <use xlink:href="#DejaVuSans-65" x="641.451172"/>
      <use xlink:href="#DejaVuSans-20" x="702.974609"/>
      <use xlink:href="#DejaVuSans-69" x="734.761719"/>
      <use xlink:href="#DejaVuSans-6e" x="762.544922"/>
      <use xlink:href="#DejaVuSans-66" x="825.923828"/>
      <use xlink:href="#DejaVuSans-65" x="861.128906"/>
      <use xlink:href="#DejaVuSans-72" x="922.652344"/>
      <use xlink:href="#DejaVuSans-72" x="962.015625"/>
      <use xlink:href="#DejaVuSans-65" x="1000.878906"/>
      <use xlink:href="#DejaVuSans-64" x="1062.402344"/>
     </g>
    </g>
    <g id="patch_8">
     <path d="M 270.512969 47.151679 
L 290.512969 47.151679 
L 290.512969 40.151679 
L 270.512969 40.151679 
z
" style="fill: #aeaeae"/>
    </g>
    <g id="text_17">
     <!-- Conserved unknown -->
     <g transform="translate(298.512969 47.151679) scale(0.1 -0.1)">
      <defs>
       <path id="DejaVuSans-43" d="M 4122 4306 
L 4122 3641 
Q 3803 3938 3442 4084 
Q 3081 4231 2675 4231 
Q 1875 4231 1450 3742 
Q 1025 3253 1025 2328 
Q 1025 1406 1450 917 
Q 1875 428 2675 428 
Q 3081 428 3442 575 
Q 3803 722 4122 1019 
L 4122 359 
Q 3791 134 3420 21 
Q 3050 -91 2638 -91 
Q 1578 -91 968 557 
Q 359 1206 359 2328 
Q 359 3453 968 4101 
Q 1578 4750 2638 4750 
Q 3056 4750 3426 4639 
Q 3797 4528 4122 4306 
z
" transform="scale(0.015625)"/>
       <path id="DejaVuSans-76" d="M 191 3500 
L 800 3500 
L 1894 563 
L 2988 3500 
L 3597 3500 
L 2284 0 
L 1503 0 
L 191 3500 
z
" transform="scale(0.015625)"/>
       <path id="DejaVuSans-6b" d="M 581 4863 
L 1159 4863 
L 1159 1991 
L 2875 3500 
L 3609 3500 
L 1753 1863 
L 3688 0 
L 2938 0 
L 1159 1709 
L 1159 0 
L 581 0 
L 581 4863 
z
" transform="scale(0.015625)"/>
       <path id="DejaVuSans-77" d="M 269 3500 
L 844 3500 
L 1563 769 
L 2278 3500 
L 2956 3500 
L 3675 769 
L 4391 3500 
L 4966 3500 
L 4050 0 
L 3372 0 
L 2619 2869 
L 1863 0 
L 1184 0 
L 269 3500 
z
" transform="scale(0.015625)"/>
      </defs>
      <use xlink:href="#DejaVuSans-43"/>
      <use xlink:href="#DejaVuSans-6f" x="69.824219"/>
      <use xlink:href="#DejaVuSans-6e" x="131.005859"/>
      <use xlink:href="#DejaVuSans-73" x="194.384766"/>
      <use xlink:href="#DejaVuSans-65" x="246.484375"/>
      <use xlink:href="#DejaVuSans-72" x="308.007812"/>
      <use xlink:href="#DejaVuSans-76" x="349.121094"/>
      <use xlink:href="#DejaVuSans-65" x="408.300781"/>
      <use xlink:href="#DejaVuSans-64" x="469.824219"/>
      <use xlink:href="#DejaVuSans-20" x="533.300781"/>
      <use xlink:href="#DejaVuSans-75" x="565.087891"/>
      <use xlink:href="#DejaVuSans-6e" x="628.466797"/>
      <use xlink:href="#DejaVuSans-6b" x="691.845703"/>
      <use xlink:href="#DejaVuSans-6e" x="749.755859"/>
      <use xlink:href="#DejaVuSans-6f" x="813.134766"/>
      <use xlink:href="#DejaVuSans-77" x="874.316406"/>
      <use xlink:href="#DejaVuSans-6e" x="956.103516"/>
     </g>
    </g>
    <g id="patch_9">
     <path d="M 270.512969 61.829804 
L 290.512969 61.829804 
L 290.512969 54.829804 
L 270.512969 54.829804 
z
" style="fill: #d5dce5"/>
    </g>
    <g id="text_18">
     <!-- Fission yeast unknown -->
     <g transform="translate(298.512969 61.829804) scale(0.1 -0.1)">
      <defs>
       <path id="DejaVuSans-46" d="M 628 4666 
L 3309 4666 
L 3309 4134 
L 1259 4134 
L 1259 2759 
L 3109 2759 
L 3109 2228 
L 1259 2228 
L 1259 0 
L 628 0 
L 628 4666 
z
" transform="scale(0.015625)"/>
       <path id="DejaVuSans-79" d="M 2059 -325 
Q 1816 -950 1584 -1140 
Q 1353 -1331 966 -1331 
L 506 -1331 
L 506 -850 
L 844 -850 
Q 1081 -850 1212 -737 
Q 1344 -625 1503 -206 
L 1606 56 
L 191 3500 
L 800 3500 
L 1894 763 
L 2988 3500 
L 3597 3500 
L 2059 -325 
z
" transform="scale(0.015625)"/>
      </defs>
      <use xlink:href="#DejaVuSans-46"/>
      <use xlink:href="#DejaVuSans-69" x="50.269531"/>
      <use xlink:href="#DejaVuSans-73" x="78.052734"/>
      <use xlink:href="#DejaVuSans-73" x="130.152344"/>
      <use xlink:href="#DejaVuSans-69" x="182.251953"/>
      <use xlink:href="#DejaVuSans-6f" x="210.035156"/>
      <use xlink:href="#DejaVuSans-6e" x="271.216797"/>
      <use xlink:href="#DejaVuSans-20" x="334.595703"/>
      <use xlink:href="#DejaVuSans-79" x="366.382812"/>
      <use xlink:href="#DejaVuSans-65" x="425.5625"/>
      <use xlink:href="#DejaVuSans-61" x="487.085938"/>
      <use xlink:href="#DejaVuSans-73" x="548.365234"/>
      <use xlink:href="#DejaVuSans-74" x="600.464844"/>
      <use xlink:href="#DejaVuSans-20" x="639.673828"/>
      <use xlink:href="#DejaVuSans-75" x="671.460938"/>
      <use xlink:href="#DejaVuSans-6e" x="734.839844"/>
      <use xlink:href="#DejaVuSans-6b" x="798.21875"/>
      <use xlink:href="#DejaVuSans-6e" x="856.128906"/>
      <use xlink:href="#DejaVuSans-6f" x="919.507812"/>
      <use xlink:href="#DejaVuSans-77" x="980.689453"/>
      <use xlink:href="#DejaVuSans-6e" x="1062.476562"/>
     </g>
    </g>
   </g>
  </g>
 </g>
 <defs>
  <clipPath id="p5d7a5f0cfa">
   <rect x="61.49" y="72.909491" width="388.51" height="199.781018"/>
  </clipPath>
 </defs>
</svg>
