<?xml version="1.0" encoding="utf-8" standalone="no"?>
<!DOCTYPE svg PUBLIC "-//W3C//DTD SVG 1.1//EN"
  "http://www.w3.org/Graphics/SVG/1.1/DTD/svg11.dtd">
<svg xmlns:xlink="http://www.w3.org/1999/xlink" width="460.8pt" height="345.6pt" viewBox="0 0 460.8 345.6" xmlns="http://www.w3.org/2000/svg" version="1.1">
 <metadata>
  <rdf:RDF xmlns:dc="http://purl.org/dc/elements/1.1/" xmlns:cc="http://creativecommons.org/ns#" xmlns:rdf="http://www.w3.org/1999/02/22-rdf-syntax-ns#">
   <cc:Work>
    <dc:type rdf:resource="http://purl.org/dc/dcmitype/StillImage"/>
    <dc:date>2025-10-02T00:49:49.631880</dc:date>
    <dc:format>image/svg+xml</dc:format>
    <dc:creator>
     <cc:Agent>
      <dc:title>Matplotlib v3.7.1, https://matplotlib.org/</dc:title>
     </cc:Agent>
    </dc:creator>
   </cc:Work>
  </rdf:RDF>
 </metadata>
 <defs>
  <style type="text/css">*{stroke-linejoin: round; stroke-linecap: butt}</style>
 </defs>
 <g id="figure_1">
  <g id="patch_1">
   <path d="M 0 345.6 
L 460.8 345.6 
L 460.8 0 
L 0 0 
z
" style="fill: #ffffff"/>
  </g>
  <g id="axes_1">
   <g id="patch_2">
    <path d="M 61.49 274.196396 
L 450 274.196396 
L 450 71.403604 
L 61.49 71.403604 
z
" style="fill: #ffffff"/>
   </g>
   <g id="PolyCollection_1">
    <path d="M 32.6815 222.731559 
L 32.6815 274.196396 
L 40.728833 274.196396 
L 48.680931 274.196396 
L 65.013684 274.196396 
L 83.965392 274.196396 
L 97.917277 274.196396 
L 106.583635 274.196396 
L 108.821651 274.196396 
L 112.964361 274.196396 
L 114.869055 274.196396 
L 115.107142 274.196396 
L 118.249887 274.196396 
L 119.059382 274.196396 
L 119.726025 274.196396 
L 120.53552 274.196396 
L 121.059311 274.196396 
L 121.868806 274.196396 
L 122.34498 274.196396 
L 123.202092 274.196396 
L 124.344909 274.196396 
L 125.249638 274.196396 
L 125.58296 274.196396 
L 126.535307 274.196396 
L 127.20195 274.196396 
L 127.91621 274.196396 
L 128.678088 274.196396 
L 129.201879 274.196396 
L 129.678052 274.196396 
L 131.011338 274.196396 
L 131.963686 274.196396 
L 132.677946 274.196396 
L 132.868415 274.196396 
L 133.535058 274.196396 
L 134.535023 274.196396 
L 135.582604 274.196396 
L 136.296865 274.196396 
L 137.344447 274.196396 
L 138.72535 274.196396 
L 140.630044 274.196396 
L 142.296652 274.196396 
L 143.725172 274.196396 
L 146.391744 274.196396 
L 147.534561 274.196396 
L 150.629689 274.196396 
L 152.629618 274.196396 
L 153.867669 274.196396 
L 154.629547 274.196396 
L 157.62944 274.196396 
L 159.296047 274.196396 
L 161.010272 274.196396 
L 164.391104 274.196396 
L 167.53385 274.196396 
L 168.057641 274.196396 
L 168.676666 274.196396 
L 169.629013 274.196396 
L 170.390891 274.196396 
L 172.724141 274.196396 
L 177.390642 274.196396 
L 178.295372 274.196396 
L 182.676169 274.196396 
L 183.676133 274.196396 
L 184.676098 274.196396 
L 186.295088 274.196396 
L 187.628374 274.196396 
L 188.914042 274.196396 
L 189.723537 274.196396 
L 192.342492 274.196396 
L 195.056681 274.196396 
L 196.389967 274.196396 
L 197.342314 274.196396 
L 198.532748 274.196396 
L 199.532712 274.196396 
L 200.723146 274.196396 
L 203.53257 274.196396 
L 205.008708 274.196396 
L 206.437229 274.196396 
L 207.913367 274.196396 
L 209.341887 274.196396 
L 210.818025 274.196396 
L 212.294164 274.196396 
L 213.675067 274.196396 
L 215.151205 274.196396 
L 216.579725 274.196396 
L 218.055863 274.196396 
L 219.484384 274.196396 
L 220.960522 274.196396 
L 222.43666 274.196396 
L 223.865181 274.196396 
L 225.341319 274.196396 
L 226.769839 274.196396 
L 228.245977 274.196396 
L 229.722115 274.196396 
L 231.055401 274.196396 
L 232.531539 274.196396 
L 233.96006 274.196396 
L 235.436198 274.196396 
L 236.864719 274.196396 
L 238.340857 274.196396 
L 239.816995 274.196396 
L 241.245515 274.196396 
L 242.721653 274.196396 
L 244.150174 274.196396 
L 245.626312 274.196396 
L 247.10245 274.196396 
L 248.435736 274.196396 
L 249.911874 274.196396 
L 251.340395 274.196396 
L 252.816533 274.196396 
L 254.245053 274.196396 
L 255.721191 274.196396 
L 257.197329 274.196396 
L 258.62585 274.196396 
L 260.101988 274.196396 
L 261.530509 274.196396 
L 263.006647 274.196396 
L 264.482785 274.196396 
L 265.816071 274.196396 
L 267.292209 274.196396 
L 268.720729 274.196396 
L 270.196867 274.196396 
L 271.625388 274.196396 
L 273.101526 274.196396 
L 274.577664 274.196396 
L 276.006185 274.196396 
L 277.482323 274.196396 
L 278.910843 274.196396 
L 280.386981 274.196396 
L 281.863119 274.196396 
L 283.244023 274.196396 
L 284.720161 274.196396 
L 286.148681 274.196396 
L 287.624819 274.196396 
L 289.05334 274.196396 
L 290.529478 274.196396 
L 292.005616 274.196396 
L 293.434137 274.196396 
L 294.910275 274.196396 
L 296.338795 274.196396 
L 297.814933 274.196396 
L 299.291071 274.196396 
L 300.624357 274.196396 
L 302.100495 274.196396 
L 303.529016 274.196396 
L 305.005154 274.196396 
L 306.433674 274.196396 
L 307.909812 274.196396 
L 309.38595 274.196396 
L 310.814471 274.196396 
L 312.290609 274.196396 
L 313.71913 274.196396 
L 315.195268 274.196396 
L 316.671406 274.196396 
L 318.004692 274.196396 
L 319.48083 274.196396 
L 320.90935 274.196396 
L 322.385488 274.196396 
L 323.814009 274.196396 
L 325.290147 274.196396 
L 326.766285 274.196396 
L 328.194806 274.196396 
L 329.670944 274.196396 
L 331.099464 274.196396 
L 332.575602 274.196396 
L 334.05174 274.196396 
L 335.385026 274.196396 
L 336.861164 274.196396 
L 338.289685 274.196396 
L 339.765823 274.196396 
L 341.194344 274.196396 
L 342.670482 274.196396 
L 344.14662 274.196396 
L 345.57514 274.196396 
L 347.051278 274.196396 
L 348.479799 274.196396 
L 349.955937 274.196396 
L 351.432075 274.196396 
L 352.812978 274.196396 
L 354.289116 274.196396 
L 355.717637 274.196396 
L 357.193775 274.196396 
L 358.622296 274.196396 
L 360.098434 274.196396 
L 361.574572 274.196396 
L 363.003092 274.196396 
L 364.47923 274.196396 
L 365.907751 274.196396 
L 367.383889 274.196396 
L 368.860027 274.196396 
L 370.193313 274.196396 
L 371.669451 274.196396 
L 373.097972 274.196396 
L 374.57411 274.196396 
L 376.00263 274.196396 
L 377.478768 274.196396 
L 378.954906 274.196396 
L 380.383427 274.196396 
L 381.859565 274.196396 
L 383.288086 274.196396 
L 384.764224 274.196396 
L 386.240362 274.196396 
L 387.573648 274.196396 
L 389.049786 274.196396 
L 390.478306 274.196396 
L 391.954444 274.196396 
L 393.382965 274.196396 
L 394.859103 274.196396 
L 396.335241 274.196396 
L 397.763761 274.196396 
L 399.239899 274.196396 
L 400.66842 274.196396 
L 402.144558 274.196396 
L 403.620696 274.196396 
L 404.953982 274.196396 
L 406.43012 274.196396 
L 407.858641 274.196396 
L 409.334779 274.196396 
L 410.763299 274.196396 
L 412.239437 274.196396 
L 413.715575 274.196396 
L 415.144096 274.196396 
L 416.620234 274.196396 
L 418.048755 274.196396 
L 419.524893 274.196396 
L 421.001031 274.196396 
L 422.381934 274.196396 
L 423.858072 274.196396 
L 425.286593 274.196396 
L 426.762731 274.196396 
L 428.191251 274.196396 
L 429.667389 274.196396 
L 431.143527 274.196396 
L 432.572048 274.196396 
L 434.048186 274.196396 
L 435.476707 274.196396 
L 436.952845 274.196396 
L 438.428983 274.196396 
L 439.762269 274.196396 
L 441.238407 274.196396 
L 442.666927 274.196396 
L 444.143065 274.196396 
L 445.571586 274.196396 
L 447.047724 274.196396 
L 448.523862 274.196396 
L 449.952383 274.196396 
L 449.952383 170.085811 
L 449.952383 170.085811 
L 448.523862 169.476309 
L 447.047724 169.362027 
L 445.571586 169.438215 
L 444.143065 169.476309 
L 442.666927 169.476309 
L 441.238407 169.78106 
L 439.762269 169.819154 
L 438.428983 170.809595 
L 436.952845 172.980946 
L 435.476707 173.742824 
L 434.048186 173.971387 
L 432.572048 173.971387 
L 431.143527 174.19995 
L 429.667389 174.19995 
L 428.191251 175.038016 
L 426.762731 175.57133 
L 425.286593 175.685612 
L 423.858072 175.799893 
L 422.381934 175.876081 
L 421.001031 177.514118 
L 419.524893 177.6284 
L 418.048755 177.666494 
L 416.620234 177.895057 
L 415.144096 178.009339 
L 413.715575 178.047433 
L 412.239437 178.161714 
L 410.763299 178.618841 
L 409.334779 178.847404 
L 407.858641 178.961686 
L 406.43012 178.961686 
L 404.953982 179.304531 
L 403.620696 179.875939 
L 402.144558 179.837845 
L 400.66842 179.952127 
L 399.239899 180.066408 
L 397.763761 180.294972 
L 396.335241 180.294972 
L 394.859103 180.333066 
L 393.382965 180.333066 
L 391.954444 180.294972 
L 390.478306 180.371159 
L 389.049786 180.294972 
L 387.573648 180.256878 
L 386.240362 180.294972 
L 384.764224 180.294972 
L 383.288086 180.485441 
L 381.859565 180.675911 
L 380.383427 180.980662 
L 378.954906 181.209225 
L 377.478768 181.171131 
L 376.00263 181.3616 
L 374.57411 181.628258 
L 373.097972 181.628258 
L 371.669451 181.780633 
L 370.193313 182.275854 
L 368.860027 182.390135 
L 367.383889 182.809168 
L 365.907751 182.847262 
L 364.47923 182.999637 
L 363.003092 183.075825 
L 361.574572 183.228201 
L 360.098434 183.266295 
L 358.622296 183.342482 
L 357.193775 183.342482 
L 355.717637 183.41867 
L 354.289116 183.761515 
L 352.812978 183.875797 
L 351.432075 183.951985 
L 349.955937 184.028172 
L 348.479799 184.028172 
L 347.051278 184.028172 
L 345.57514 184.142454 
L 344.14662 184.218642 
L 342.670482 184.371017 
L 341.194344 184.599581 
L 339.765823 184.713862 
L 338.289685 184.79005 
L 336.861164 184.866238 
L 335.385026 184.904332 
L 334.05174 184.904332 
L 332.575602 184.942426 
L 331.099464 184.980519 
L 329.670944 185.056707 
L 328.194806 185.094801 
L 326.766285 185.094801 
L 325.290147 185.209083 
L 323.814009 185.323364 
L 322.385488 185.551928 
L 320.90935 185.704303 
L 319.48083 186.009054 
L 318.004692 186.16143 
L 316.671406 186.313805 
L 315.195268 186.351899 
L 313.71913 186.504275 
L 312.290609 186.65665 
L 310.814471 188.332781 
L 309.38595 188.599438 
L 307.909812 189.323222 
L 306.433674 188.71372 
L 305.005154 188.637532 
L 303.529016 188.675626 
L 302.100495 188.751814 
L 300.624357 189.018471 
L 299.291071 189.056565 
L 297.814933 189.132753 
L 296.338795 189.856537 
L 294.910275 189.970818 
L 293.434137 190.161288 
L 292.005616 190.237475 
L 290.529478 190.351757 
L 289.05334 190.77079 
L 287.624819 190.961259 
L 286.148681 190.961259 
L 284.720161 191.342198 
L 283.244023 191.418386 
L 281.863119 191.45648 
L 280.386981 191.646949 
L 278.910843 191.723137 
L 277.482323 191.723137 
L 276.006185 191.913606 
L 274.577664 191.9517 
L 273.101526 191.989794 
L 271.625388 192.14217 
L 270.196867 192.256451 
L 268.720729 191.685043 
L 267.292209 191.761231 
L 265.816071 191.9517 
L 264.482785 191.9517 
L 263.006647 192.180264 
L 261.530509 192.332639 
L 260.101988 192.599296 
L 258.62585 192.942141 
L 257.197329 193.246892 
L 255.721191 193.32308 
L 254.245053 193.589737 
L 252.816533 193.818301 
L 251.340395 194.161145 
L 249.911874 194.313521 
L 248.435736 194.50399 
L 247.10245 194.542084 
L 245.626312 194.542084 
L 244.150174 194.732554 
L 242.721653 195.18968 
L 241.245515 195.227774 
L 239.816995 195.456338 
L 238.340857 196.103934 
L 236.864719 196.180121 
L 235.436198 196.637248 
L 233.96006 196.941999 
L 232.531539 197.970534 
L 231.055401 198.046722 
L 229.722115 198.161003 
L 228.245977 198.42766 
L 226.769839 198.503848 
L 225.341319 198.732412 
L 223.865181 198.922881 
L 222.43666 199.265726 
L 220.960522 199.456195 
L 219.484384 199.570477 
L 218.055863 199.79904 
L 216.579725 199.837134 
L 215.151205 199.951416 
L 213.675067 200.103791 
L 212.294164 200.103791 
L 210.818025 200.179979 
L 209.341887 200.218073 
L 207.913367 200.256167 
L 206.437229 200.294261 
L 205.008708 200.332355 
L 203.53257 200.446636 
L 200.723146 201.17042 
L 199.532712 201.36089 
L 198.532748 201.398983 
L 197.342314 201.284702 
L 196.389967 201.284702 
L 195.056681 201.398983 
L 192.342492 201.513265 
L 189.723537 202.122767 
L 188.914042 203.03702 
L 187.628374 202.884645 
L 186.295088 202.846551 
L 184.676098 203.532241 
L 183.676133 203.532241 
L 182.676169 203.303678 
L 178.295372 203.798898 
L 177.390642 203.875086 
L 172.724141 204.522682 
L 170.390891 204.59887 
L 169.629013 204.446494 
L 168.676666 204.560776 
L 168.057641 204.751245 
L 167.53385 204.789339 
L 164.391104 204.903621 
L 161.010272 204.979809 
L 159.296047 205.170278 
L 157.62944 207.189254 
L 154.629547 207.113066 
L 153.867669 207.15116 
L 152.629618 207.570193 
L 150.629689 208.636821 
L 147.534561 208.865385 
L 146.391744 209.246324 
L 143.725172 209.512981 
L 142.296652 210.312952 
L 140.630044 210.846267 
L 138.72535 211.265299 
L 137.344447 211.303393 
L 136.296865 211.379581 
L 135.582604 211.417675 
L 134.535023 211.455769 
L 133.535058 212.141459 
L 132.868415 212.484304 
L 132.677946 212.484304 
L 131.963686 212.484304 
L 131.011338 212.712867 
L 129.678052 212.484304 
L 129.201879 212.674773 
L 128.678088 212.750961 
L 127.91621 212.865243 
L 127.20195 212.865243 
L 126.535307 213.169994 
L 125.58296 213.855684 
L 125.249638 213.81759 
L 124.344909 214.160435 
L 123.202092 214.236622 
L 122.34498 214.31281 
L 121.868806 214.388998 
L 121.059311 214.50328 
L 120.53552 214.731843 
L 119.726025 214.922312 
L 119.059382 214.846125 
L 118.249887 214.922312 
L 115.107142 215.188969 
L 114.869055 215.150876 
L 112.964361 215.455627 
L 108.821651 213.62712 
L 106.583635 216.331786 
L 97.917277 219.874517 
L 83.965392 223.188685 
L 65.013684 227.4552 
L 48.680931 222.541089 
L 40.728833 221.931587 
L 32.6815 222.731559 
z
" clip-path="url(#p63982b2623)" style="fill: #fb363b"/>
   </g>
   <g id="PolyCollection_2">
    <path d="M 32.6815 144.410533 
L 32.6815 222.731559 
L 40.728833 221.931587 
L 48.680931 222.541089 
L 65.013684 227.4552 
L 83.965392 223.188685 
L 97.917277 219.874517 
L 106.583635 216.331786 
L 108.821651 213.62712 
L 112.964361 215.455627 
L 114.869055 215.150876 
L 115.107142 215.188969 
L 118.249887 214.922312 
L 119.059382 214.846125 
L 119.726025 214.922312 
L 120.53552 214.731843 
L 121.059311 214.50328 
L 121.868806 214.388998 
L 122.34498 214.31281 
L 123.202092 214.236622 
L 124.344909 214.160435 
L 125.249638 213.81759 
L 125.58296 213.855684 
L 126.535307 213.169994 
L 127.20195 212.865243 
L 127.91621 212.865243 
L 128.678088 212.750961 
L 129.201879 212.674773 
L 129.678052 212.484304 
L 131.011338 212.712867 
L 131.963686 212.484304 
L 132.677946 212.484304 
L 132.868415 212.484304 
L 133.535058 212.141459 
L 134.535023 211.455769 
L 135.582604 211.417675 
L 136.296865 211.379581 
L 137.344447 211.303393 
L 138.72535 211.265299 
L 140.630044 210.846267 
L 142.296652 210.312952 
L 143.725172 209.512981 
L 146.391744 209.246324 
L 147.534561 208.865385 
L 150.629689 208.636821 
L 152.629618 207.570193 
L 153.867669 207.15116 
L 154.629547 207.113066 
L 157.62944 207.189254 
L 159.296047 205.170278 
L 161.010272 204.979809 
L 164.391104 204.903621 
L 167.53385 204.789339 
L 168.057641 204.751245 
L 168.676666 204.560776 
L 169.629013 204.446494 
L 170.390891 204.59887 
L 172.724141 204.522682 
L 177.390642 203.875086 
L 178.295372 203.798898 
L 182.676169 203.303678 
L 183.676133 203.532241 
L 184.676098 203.532241 
L 186.295088 202.846551 
L 187.628374 202.884645 
L 188.914042 203.03702 
L 189.723537 202.122767 
L 192.342492 201.513265 
L 195.056681 201.398983 
L 196.389967 201.284702 
L 197.342314 201.284702 
L 198.532748 201.398983 
L 199.532712 201.36089 
L 200.723146 201.17042 
L 203.53257 200.446636 
L 205.008708 200.332355 
L 206.437229 200.294261 
L 207.913367 200.256167 
L 209.341887 200.218073 
L 210.818025 200.179979 
L 212.294164 200.103791 
L 213.675067 200.103791 
L 215.151205 199.951416 
L 216.579725 199.837134 
L 218.055863 199.79904 
L 219.484384 199.570477 
L 220.960522 199.456195 
L 222.43666 199.265726 
L 223.865181 198.922881 
L 225.341319 198.732412 
L 226.769839 198.503848 
L 228.245977 198.42766 
L 229.722115 198.161003 
L 231.055401 198.046722 
L 232.531539 197.970534 
L 233.96006 196.941999 
L 235.436198 196.637248 
L 236.864719 196.180121 
L 238.340857 196.103934 
L 239.816995 195.456338 
L 241.245515 195.227774 
L 242.721653 195.18968 
L 244.150174 194.732554 
L 245.626312 194.542084 
L 247.10245 194.542084 
L 248.435736 194.50399 
L 249.911874 194.313521 
L 251.340395 194.161145 
L 252.816533 193.818301 
L 254.245053 193.589737 
L 255.721191 193.32308 
L 257.197329 193.246892 
L 258.62585 192.942141 
L 260.101988 192.599296 
L 261.530509 192.332639 
L 263.006647 192.180264 
L 264.482785 191.9517 
L 265.816071 191.9517 
L 267.292209 191.761231 
L 268.720729 191.685043 
L 270.196867 192.256451 
L 271.625388 192.14217 
L 273.101526 191.989794 
L 274.577664 191.9517 
L 276.006185 191.913606 
L 277.482323 191.723137 
L 278.910843 191.723137 
L 280.386981 191.646949 
L 281.863119 191.45648 
L 283.244023 191.418386 
L 284.720161 191.342198 
L 286.148681 190.961259 
L 287.624819 190.961259 
L 289.05334 190.77079 
L 290.529478 190.351757 
L 292.005616 190.237475 
L 293.434137 190.161288 
L 294.910275 189.970818 
L 296.338795 189.856537 
L 297.814933 189.132753 
L 299.291071 189.056565 
L 300.624357 189.018471 
L 302.100495 188.751814 
L 303.529016 188.675626 
L 305.005154 188.637532 
L 306.433674 188.71372 
L 307.909812 189.323222 
L 309.38595 188.599438 
L 310.814471 188.332781 
L 312.290609 186.65665 
L 313.71913 186.504275 
L 315.195268 186.351899 
L 316.671406 186.313805 
L 318.004692 186.16143 
L 319.48083 186.009054 
L 320.90935 185.704303 
L 322.385488 185.551928 
L 323.814009 185.323364 
L 325.290147 185.209083 
L 326.766285 185.094801 
L 328.194806 185.094801 
L 329.670944 185.056707 
L 331.099464 184.980519 
L 332.575602 184.942426 
L 334.05174 184.904332 
L 335.385026 184.904332 
L 336.861164 184.866238 
L 338.289685 184.79005 
L 339.765823 184.713862 
L 341.194344 184.599581 
L 342.670482 184.371017 
L 344.14662 184.218642 
L 345.57514 184.142454 
L 347.051278 184.028172 
L 348.479799 184.028172 
L 349.955937 184.028172 
L 351.432075 183.951985 
L 352.812978 183.875797 
L 354.289116 183.761515 
L 355.717637 183.41867 
L 357.193775 183.342482 
L 358.622296 183.342482 
L 360.098434 183.266295 
L 361.574572 183.228201 
L 363.003092 183.075825 
L 364.47923 182.999637 
L 365.907751 182.847262 
L 367.383889 182.809168 
L 368.860027 182.390135 
L 370.193313 182.275854 
L 371.669451 181.780633 
L 373.097972 181.628258 
L 374.57411 181.628258 
L 376.00263 181.3616 
L 377.478768 181.171131 
L 378.954906 181.209225 
L 380.383427 180.980662 
L 381.859565 180.675911 
L 383.288086 180.485441 
L 384.764224 180.294972 
L 386.240362 180.294972 
L 387.573648 180.256878 
L 389.049786 180.294972 
L 390.478306 180.371159 
L 391.954444 180.294972 
L 393.382965 180.333066 
L 394.859103 180.333066 
L 396.335241 180.294972 
L 397.763761 180.294972 
L 399.239899 180.066408 
L 400.66842 179.952127 
L 402.144558 179.837845 
L 403.620696 179.875939 
L 404.953982 179.304531 
L 406.43012 178.961686 
L 407.858641 178.961686 
L 409.334779 178.847404 
L 410.763299 178.618841 
L 412.239437 178.161714 
L 413.715575 178.047433 
L 415.144096 178.009339 
L 416.620234 177.895057 
L 418.048755 177.666494 
L 419.524893 177.6284 
L 421.001031 177.514118 
L 422.381934 175.876081 
L 423.858072 175.799893 
L 425.286593 175.685612 
L 426.762731 175.57133 
L 428.191251 175.038016 
L 429.667389 174.19995 
L 431.143527 174.19995 
L 432.572048 173.971387 
L 434.048186 173.971387 
L 435.476707 173.742824 
L 436.952845 172.980946 
L 438.428983 170.809595 
L 439.762269 169.819154 
L 441.238407 169.78106 
L 442.666927 169.476309 
L 444.143065 169.476309 
L 445.571586 169.438215 
L 447.047724 169.362027 
L 448.523862 169.476309 
L 449.952383 170.085811 
L 449.952383 105.630959 
L 449.952383 105.630959 
L 448.523862 104.678612 
L 447.047724 104.06911 
L 445.571586 103.992922 
L 444.143065 103.802453 
L 442.666927 103.726265 
L 441.238407 103.688171 
L 439.762269 103.459608 
L 438.428983 103.497701 
L 436.952845 103.459608 
L 435.476707 103.992922 
L 434.048186 104.06911 
L 432.572048 104.183391 
L 431.143527 104.221485 
L 429.667389 104.450049 
L 428.191251 104.335767 
L 426.762731 104.297673 
L 425.286593 104.450049 
L 423.858072 104.526236 
L 422.381934 104.488142 
L 421.001031 104.7548 
L 419.524893 105.021457 
L 418.048755 105.021457 
L 416.620234 105.135738 
L 415.144096 105.288114 
L 413.715575 105.364302 
L 412.239437 105.364302 
L 410.763299 105.630959 
L 409.334779 105.859522 
L 407.858641 105.973804 
L 406.43012 105.973804 
L 404.953982 106.011898 
L 403.620696 106.164273 
L 402.144558 106.278555 
L 400.66842 106.354743 
L 399.239899 106.354743 
L 397.763761 106.392837 
L 396.335241 106.278555 
L 394.859103 106.316649 
L 393.382965 106.316649 
L 391.954444 106.507118 
L 390.478306 106.469024 
L 389.049786 106.469024 
L 387.573648 106.507118 
L 386.240362 106.583306 
L 384.764224 106.583306 
L 383.288086 106.697588 
L 381.859565 106.659494 
L 380.383427 106.773775 
L 378.954906 106.811869 
L 377.478768 106.849963 
L 376.00263 106.888057 
L 374.57411 106.926151 
L 373.097972 106.888057 
L 371.669451 107.002339 
L 370.193313 107.192808 
L 368.860027 107.345184 
L 367.383889 107.383278 
L 365.907751 107.383278 
L 364.47923 107.459465 
L 363.003092 107.497559 
L 361.574572 107.573747 
L 360.098434 107.573747 
L 358.622296 107.611841 
L 357.193775 107.649935 
L 355.717637 107.535653 
L 354.289116 107.497559 
L 352.812978 107.535653 
L 351.432075 107.459465 
L 349.955937 107.459465 
L 348.479799 107.459465 
L 347.051278 107.459465 
L 345.57514 107.459465 
L 344.14662 107.497559 
L 342.670482 107.459465 
L 341.194344 107.497559 
L 339.765823 107.497559 
L 338.289685 107.383278 
L 336.861164 107.383278 
L 335.385026 107.421371 
L 334.05174 107.421371 
L 332.575602 107.497559 
L 331.099464 107.497559 
L 329.670944 107.573747 
L 328.194806 107.573747 
L 326.766285 107.573747 
L 325.290147 107.611841 
L 323.814009 107.611841 
L 322.385488 107.611841 
L 320.90935 107.649935 
L 319.48083 107.688029 
L 318.004692 107.99278 
L 316.671406 108.107061 
L 315.195268 108.030874 
L 313.71913 108.107061 
L 312.290609 108.221343 
L 310.814471 108.259437 
L 309.38595 108.792751 
L 307.909812 109.097502 
L 306.433674 111.192666 
L 305.005154 112.373576 
L 303.529016 112.792609 
L 302.100495 112.792609 
L 300.624357 113.09736 
L 299.291071 113.021172 
L 297.814933 112.259295 
L 296.338795 112.449764 
L 294.910275 112.868797 
L 293.434137 112.868797 
L 292.005616 112.754515 
L 290.529478 112.906891 
L 289.05334 112.944985 
L 287.624819 112.944985 
L 286.148681 112.983079 
L 284.720161 113.059266 
L 283.244023 113.059266 
L 281.863119 113.09736 
L 280.386981 113.09736 
L 278.910843 113.211642 
L 277.482323 113.249736 
L 276.006185 113.28783 
L 274.577664 113.28783 
L 273.101526 113.249736 
L 271.625388 113.28783 
L 270.196867 113.249736 
L 268.720729 113.859238 
L 267.292209 113.821144 
L 265.816071 113.897332 
L 264.482785 113.97352 
L 263.006647 114.087801 
L 261.530509 114.049707 
L 260.101988 114.316365 
L 258.62585 114.430646 
L 257.197329 114.583022 
L 255.721191 114.773491 
L 254.245053 114.811585 
L 252.816533 114.735397 
L 251.340395 114.811585 
L 249.911874 114.849679 
L 248.435736 114.849679 
L 247.10245 114.849679 
L 245.626312 114.849679 
L 244.150174 115.002054 
L 242.721653 115.078242 
L 241.245515 115.306805 
L 239.816995 115.344899 
L 238.340857 115.573463 
L 236.864719 115.64965 
L 235.436198 115.878214 
L 233.96006 115.992495 
L 232.531539 116.144871 
L 231.055401 116.182965 
L 229.722115 116.221059 
L 228.245977 116.373434 
L 226.769839 116.373434 
L 225.341319 116.563904 
L 223.865181 116.830561 
L 222.43666 116.982936 
L 220.960522 117.135312 
L 219.484384 117.325781 
L 218.055863 117.401969 
L 216.579725 117.70672 
L 215.151205 117.70672 
L 213.675067 117.744814 
L 212.294164 117.744814 
L 210.818025 117.744814 
L 209.341887 117.744814 
L 207.913367 117.744814 
L 206.437229 117.782908 
L 205.008708 117.935283 
L 203.53257 118.011471 
L 200.723146 118.468598 
L 199.532712 119.040006 
L 198.532748 119.306663 
L 197.342314 118.773349 
L 196.389967 119.0781 
L 195.056681 119.192382 
L 192.342492 119.344757 
L 189.723537 119.344757 
L 188.914042 119.497133 
L 187.628374 119.992353 
L 186.295088 119.954259 
L 184.676098 120.830419 
L 183.676133 120.830419 
L 182.676169 121.249451 
L 178.295372 121.516109 
L 177.390642 121.592296 
L 172.724141 122.658925 
L 170.390891 123.611272 
L 169.629013 123.649366 
L 168.676666 123.649366 
L 168.057641 123.649366 
L 167.53385 123.68746 
L 164.391104 123.268427 
L 161.010272 123.763648 
L 159.296047 123.954117 
L 157.62944 124.144587 
L 154.629547 124.258868 
L 153.867669 124.335056 
L 152.629618 124.525525 
L 150.629689 124.830277 
L 147.534561 124.677901 
L 146.391744 124.982652 
L 143.725172 124.944558 
L 142.296652 124.86837 
L 140.630044 125.211215 
L 138.72535 125.135028 
L 137.344447 125.020746 
L 136.296865 125.287403 
L 135.582604 125.325497 
L 134.535023 124.601713 
L 133.535058 124.639807 
L 132.868415 124.792183 
L 132.677946 124.792183 
L 131.963686 124.754089 
L 131.011338 125.249309 
L 129.678052 124.715995 
L 129.201879 124.715995 
L 128.678088 124.754089 
L 127.91621 124.792183 
L 127.20195 124.601713 
L 126.535307 125.020746 
L 125.58296 125.135028 
L 125.249638 124.906464 
L 124.344909 125.05884 
L 123.202092 125.020746 
L 122.34498 125.515966 
L 121.868806 125.439779 
L 121.059311 125.439779 
L 120.53552 123.725554 
L 119.726025 124.106493 
L 119.059382 123.154146 
L 118.249887 122.925582 
L 115.107142 123.192239 
L 114.869055 123.039864 
L 112.964361 123.306521 
L 108.821651 125.020746 
L 106.583635 125.858811 
L 97.917277 127.877787 
L 83.965392 130.772922 
L 65.013684 134.468029 
L 48.680931 140.372581 
L 40.728833 144.105782 
L 32.6815 144.410533 
z
" clip-path="url(#p63982b2623)" style="fill: #fdc92c"/>
   </g>
   <g id="PolyCollection_3">
    <path d="M 32.6815 114.392552 
L 32.6815 144.410533 
L 40.728833 144.105782 
L 48.680931 140.372581 
L 65.013684 134.468029 
L 83.965392 130.772922 
L 97.917277 127.877787 
L 106.583635 125.858811 
L 108.821651 125.020746 
L 112.964361 123.306521 
L 114.869055 123.039864 
L 115.107142 123.192239 
L 118.249887 122.925582 
L 119.059382 123.154146 
L 119.726025 124.106493 
L 120.53552 123.725554 
L 121.059311 125.439779 
L 121.868806 125.439779 
L 122.34498 125.515966 
L 123.202092 125.020746 
L 124.344909 125.05884 
L 125.249638 124.906464 
L 125.58296 125.135028 
L 126.535307 125.020746 
L 127.20195 124.601713 
L 127.91621 124.792183 
L 128.678088 124.754089 
L 129.201879 124.715995 
L 129.678052 124.715995 
L 131.011338 125.249309 
L 131.963686 124.754089 
L 132.677946 124.792183 
L 132.868415 124.792183 
L 133.535058 124.639807 
L 134.535023 124.601713 
L 135.582604 125.325497 
L 136.296865 125.287403 
L 137.344447 125.020746 
L 138.72535 125.135028 
L 140.630044 125.211215 
L 142.296652 124.86837 
L 143.725172 124.944558 
L 146.391744 124.982652 
L 147.534561 124.677901 
L 150.629689 124.830277 
L 152.629618 124.525525 
L 153.867669 124.335056 
L 154.629547 124.258868 
L 157.62944 124.144587 
L 159.296047 123.954117 
L 161.010272 123.763648 
L 164.391104 123.268427 
L 167.53385 123.68746 
L 168.057641 123.649366 
L 168.676666 123.649366 
L 169.629013 123.649366 
L 170.390891 123.611272 
L 172.724141 122.658925 
L 177.390642 121.592296 
L 178.295372 121.516109 
L 182.676169 121.249451 
L 183.676133 120.830419 
L 184.676098 120.830419 
L 186.295088 119.954259 
L 187.628374 119.992353 
L 188.914042 119.497133 
L 189.723537 119.344757 
L 192.342492 119.344757 
L 195.056681 119.192382 
L 196.389967 119.0781 
L 197.342314 118.773349 
L 198.532748 119.306663 
L 199.532712 119.040006 
L 200.723146 118.468598 
L 203.53257 118.011471 
L 205.008708 117.935283 
L 206.437229 117.782908 
L 207.913367 117.744814 
L 209.341887 117.744814 
L 210.818025 117.744814 
L 212.294164 117.744814 
L 213.675067 117.744814 
L 215.151205 117.70672 
L 216.579725 117.70672 
L 218.055863 117.401969 
L 219.484384 117.325781 
L 220.960522 117.135312 
L 222.43666 116.982936 
L 223.865181 116.830561 
L 225.341319 116.563904 
L 226.769839 116.373434 
L 228.245977 116.373434 
L 229.722115 116.221059 
L 231.055401 116.182965 
L 232.531539 116.144871 
L 233.96006 115.992495 
L 235.436198 115.878214 
L 236.864719 115.64965 
L 238.340857 115.573463 
L 239.816995 115.344899 
L 241.245515 115.306805 
L 242.721653 115.078242 
L 244.150174 115.002054 
L 245.626312 114.849679 
L 247.10245 114.849679 
L 248.435736 114.849679 
L 249.911874 114.849679 
L 251.340395 114.811585 
L 252.816533 114.735397 
L 254.245053 114.811585 
L 255.721191 114.773491 
L 257.197329 114.583022 
L 258.62585 114.430646 
L 260.101988 114.316365 
L 261.530509 114.049707 
L 263.006647 114.087801 
L 264.482785 113.97352 
L 265.816071 113.897332 
L 267.292209 113.821144 
L 268.720729 113.859238 
L 270.196867 113.249736 
L 271.625388 113.28783 
L 273.101526 113.249736 
L 274.577664 113.28783 
L 276.006185 113.28783 
L 277.482323 113.249736 
L 278.910843 113.211642 
L 280.386981 113.09736 
L 281.863119 113.09736 
L 283.244023 113.059266 
L 284.720161 113.059266 
L 286.148681 112.983079 
L 287.624819 112.944985 
L 289.05334 112.944985 
L 290.529478 112.906891 
L 292.005616 112.754515 
L 293.434137 112.868797 
L 294.910275 112.868797 
L 296.338795 112.449764 
L 297.814933 112.259295 
L 299.291071 113.021172 
L 300.624357 113.09736 
L 302.100495 112.792609 
L 303.529016 112.792609 
L 305.005154 112.373576 
L 306.433674 111.192666 
L 307.909812 109.097502 
L 309.38595 108.792751 
L 310.814471 108.259437 
L 312.290609 108.221343 
L 313.71913 108.107061 
L 315.195268 108.030874 
L 316.671406 108.107061 
L 318.004692 107.99278 
L 319.48083 107.688029 
L 320.90935 107.649935 
L 322.385488 107.611841 
L 323.814009 107.611841 
L 325.290147 107.611841 
L 326.766285 107.573747 
L 328.194806 107.573747 
L 329.670944 107.573747 
L 331.099464 107.497559 
L 332.575602 107.497559 
L 334.05174 107.421371 
L 335.385026 107.421371 
L 336.861164 107.383278 
L 338.289685 107.383278 
L 339.765823 107.497559 
L 341.194344 107.497559 
L 342.670482 107.459465 
L 344.14662 107.497559 
L 345.57514 107.459465 
L 347.051278 107.459465 
L 348.479799 107.459465 
L 349.955937 107.459465 
L 351.432075 107.459465 
L 352.812978 107.535653 
L 354.289116 107.497559 
L 355.717637 107.535653 
L 357.193775 107.649935 
L 358.622296 107.611841 
L 360.098434 107.573747 
L 361.574572 107.573747 
L 363.003092 107.497559 
L 364.47923 107.459465 
L 365.907751 107.383278 
L 367.383889 107.383278 
L 368.860027 107.345184 
L 370.193313 107.192808 
L 371.669451 107.002339 
L 373.097972 106.888057 
L 374.57411 106.926151 
L 376.00263 106.888057 
L 377.478768 106.849963 
L 378.954906 106.811869 
L 380.383427 106.773775 
L 381.859565 106.659494 
L 383.288086 106.697588 
L 384.764224 106.583306 
L 386.240362 106.583306 
L 387.573648 106.507118 
L 389.049786 106.469024 
L 390.478306 106.469024 
L 391.954444 106.507118 
L 393.382965 106.316649 
L 394.859103 106.316649 
L 396.335241 106.278555 
L 397.763761 106.392837 
L 399.239899 106.354743 
L 400.66842 106.354743 
L 402.144558 106.278555 
L 403.620696 106.164273 
L 404.953982 106.011898 
L 406.43012 105.973804 
L 407.858641 105.973804 
L 409.334779 105.859522 
L 410.763299 105.630959 
L 412.239437 105.364302 
L 413.715575 105.364302 
L 415.144096 105.288114 
L 416.620234 105.135738 
L 418.048755 105.021457 
L 419.524893 105.021457 
L 421.001031 104.7548 
L 422.381934 104.488142 
L 423.858072 104.526236 
L 425.286593 104.450049 
L 426.762731 104.297673 
L 428.191251 104.335767 
L 429.667389 104.450049 
L 431.143527 104.221485 
L 432.572048 104.183391 
L 434.048186 104.06911 
L 435.476707 103.992922 
L 436.952845 103.459608 
L 438.428983 103.497701 
L 439.762269 103.459608 
L 441.238407 103.688171 
L 442.666927 103.726265 
L 444.143065 103.802453 
L 445.571586 103.992922 
L 447.047724 104.06911 
L 448.523862 104.678612 
L 449.952383 105.630959 
L 449.952383 91.802879 
L 449.952383 91.802879 
L 448.523862 90.888626 
L 447.047724 90.888626 
L 445.571586 90.888626 
L 444.143065 90.888626 
L 442.666927 90.888626 
L 441.238407 90.850532 
L 439.762269 90.850532 
L 438.428983 90.850532 
L 436.952845 90.850532 
L 435.476707 90.850532 
L 434.048186 90.850532 
L 432.572048 90.850532 
L 431.143527 90.812438 
L 429.667389 91.155283 
L 428.191251 91.383846 
L 426.762731 91.383846 
L 425.286593 91.42194 
L 423.858072 91.42194 
L 422.381934 91.42194 
L 421.001031 91.460034 
L 419.524893 91.460034 
L 418.048755 91.460034 
L 416.620234 91.498128 
L 415.144096 91.498128 
L 413.715575 91.498128 
L 412.239437 91.498128 
L 410.763299 91.574316 
L 409.334779 91.574316 
L 407.858641 91.574316 
L 406.43012 91.574316 
L 404.953982 91.574316 
L 403.620696 91.61241 
L 402.144558 91.61241 
L 400.66842 91.688597 
L 399.239899 91.688597 
L 397.763761 91.726691 
L 396.335241 91.726691 
L 394.859103 91.726691 
L 393.382965 91.726691 
L 391.954444 91.802879 
L 390.478306 91.879067 
L 389.049786 91.879067 
L 387.573648 91.879067 
L 386.240362 91.879067 
L 384.764224 91.879067 
L 383.288086 91.917161 
L 381.859565 91.879067 
L 380.383427 91.955255 
L 378.954906 91.955255 
L 377.478768 91.955255 
L 376.00263 91.993348 
L 374.57411 91.993348 
L 373.097972 91.993348 
L 371.669451 92.031442 
L 370.193313 92.069536 
L 368.860027 92.10763 
L 367.383889 92.10763 
L 365.907751 92.069536 
L 364.47923 92.069536 
L 363.003092 92.069536 
L 361.574572 92.031442 
L 360.098434 92.031442 
L 358.622296 92.069536 
L 357.193775 92.069536 
L 355.717637 91.993348 
L 354.289116 91.955255 
L 352.812978 91.955255 
L 351.432075 91.993348 
L 349.955937 91.993348 
L 348.479799 91.993348 
L 347.051278 91.993348 
L 345.57514 91.993348 
L 344.14662 91.993348 
L 342.670482 91.993348 
L 341.194344 91.993348 
L 339.765823 91.993348 
L 338.289685 91.917161 
L 336.861164 91.917161 
L 335.385026 91.917161 
L 334.05174 91.917161 
L 332.575602 91.879067 
L 331.099464 91.879067 
L 329.670944 91.955255 
L 328.194806 91.955255 
L 326.766285 91.955255 
L 325.290147 91.993348 
L 323.814009 91.993348 
L 322.385488 91.993348 
L 320.90935 92.031442 
L 319.48083 92.069536 
L 318.004692 92.145724 
L 316.671406 92.145724 
L 315.195268 92.145724 
L 313.71913 92.2981 
L 312.290609 92.2981 
L 310.814471 92.2981 
L 309.38595 92.183818 
L 307.909812 92.221912 
L 306.433674 92.412381 
L 305.005154 93.326634 
L 303.529016 93.47901 
L 302.100495 93.517104 
L 300.624357 93.555198 
L 299.291071 93.555198 
L 297.814933 93.555198 
L 296.338795 93.555198 
L 294.910275 93.593292 
L 293.434137 93.593292 
L 292.005616 93.631385 
L 290.529478 93.669479 
L 289.05334 93.707573 
L 287.624819 93.707573 
L 286.148681 93.707573 
L 284.720161 93.707573 
L 283.244023 93.707573 
L 281.863119 93.745667 
L 280.386981 93.745667 
L 278.910843 93.783761 
L 277.482323 93.821855 
L 276.006185 93.821855 
L 274.577664 93.821855 
L 273.101526 93.821855 
L 271.625388 93.821855 
L 270.196867 93.821855 
L 268.720729 93.821855 
L 267.292209 93.821855 
L 265.816071 93.898043 
L 264.482785 93.898043 
L 263.006647 93.898043 
L 261.530509 93.936137 
L 260.101988 93.936137 
L 258.62585 93.97423 
L 257.197329 94.126606 
L 255.721191 95.040859 
L 254.245053 95.040859 
L 252.816533 95.040859 
L 251.340395 95.117047 
L 249.911874 95.117047 
L 248.435736 95.117047 
L 247.10245 95.117047 
L 245.626312 95.117047 
L 244.150174 95.117047 
L 242.721653 95.193235 
L 241.245515 95.117047 
L 239.816995 95.155141 
L 238.340857 95.231329 
L 236.864719 95.307516 
L 235.436198 95.497986 
L 233.96006 95.53608 
L 232.531539 95.53608 
L 231.055401 95.53608 
L 229.722115 95.53608 
L 228.245977 95.612267 
L 226.769839 95.612267 
L 225.341319 95.688455 
L 223.865181 95.688455 
L 222.43666 95.574174 
L 220.960522 95.650361 
L 219.484384 95.650361 
L 218.055863 95.650361 
L 216.579725 95.688455 
L 215.151205 95.688455 
L 213.675067 95.688455 
L 212.294164 95.726549 
L 210.818025 95.726549 
L 209.341887 95.764643 
L 207.913367 95.726549 
L 206.437229 95.726549 
L 205.008708 95.802737 
L 203.53257 95.840831 
L 200.723146 96.107488 
L 199.532712 96.678896 
L 198.532748 96.945553 
L 197.342314 96.336051 
L 196.389967 96.831272 
L 195.056681 96.869366 
L 192.342492 97.745525 
L 189.723537 97.745525 
L 188.914042 97.707431 
L 187.628374 97.859807 
L 186.295088 97.859807 
L 184.676098 97.935994 
L 183.676133 97.935994 
L 182.676169 97.974088 
L 178.295372 98.126464 
L 177.390642 98.126464 
L 172.724141 99.116905 
L 170.390891 99.231186 
L 169.629013 99.26928 
L 168.676666 99.383562 
L 168.057641 99.383562 
L 167.53385 99.383562 
L 164.391104 99.383562 
L 161.010272 99.612125 
L 159.296047 99.726407 
L 157.62944 99.764501 
L 154.629547 99.840689 
L 153.867669 99.95497 
L 152.629618 100.14544 
L 150.629689 100.374003 
L 147.534561 100.526378 
L 146.391744 101.135881 
L 143.725172 101.173975 
L 142.296652 101.440632 
L 140.630044 101.745383 
L 138.72535 101.821571 
L 137.344447 101.821571 
L 136.296865 101.821571 
L 135.582604 101.821571 
L 134.535023 101.973946 
L 133.535058 102.126322 
L 132.868415 102.240603 
L 132.677946 102.240603 
L 131.963686 102.202509 
L 131.011338 102.735824 
L 129.678052 102.278697 
L 129.201879 102.278697 
L 128.678088 102.354885 
L 127.91621 102.354885 
L 127.20195 102.354885 
L 126.535307 102.926293 
L 125.58296 102.926293 
L 125.249638 102.469167 
L 124.344909 103.040575 
L 123.202092 104.107204 
L 122.34498 104.983363 
L 121.868806 105.021457 
L 121.059311 105.021457 
L 120.53552 105.059551 
L 119.726025 105.630959 
L 119.059382 105.097645 
L 118.249887 105.097645 
L 115.107142 105.364302 
L 114.869055 105.402396 
L 112.964361 105.44049 
L 108.821651 102.926293 
L 106.583635 105.592865 
L 97.917277 107.421371 
L 83.965392 109.287972 
L 65.013684 110.583164 
L 48.680931 112.525952 
L 40.728833 114.811585 
L 32.6815 114.392552 
z
" clip-path="url(#p63982b2623)" style="fill: #aeaeae"/>
   </g>
   <g id="PolyCollection_4">
    <path d="M 32.6815 91.269565 
L 32.6815 114.392552 
L 40.728833 114.811585 
L 48.680931 112.525952 
L 65.013684 110.583164 
L 83.965392 109.287972 
L 97.917277 107.421371 
L 106.583635 105.592865 
L 108.821651 102.926293 
L 112.964361 105.44049 
L 114.869055 105.402396 
L 115.107142 105.364302 
L 118.249887 105.097645 
L 119.059382 105.097645 
L 119.726025 105.630959 
L 120.53552 105.059551 
L 121.059311 105.021457 
L 121.868806 105.021457 
L 122.34498 104.983363 
L 123.202092 104.107204 
L 124.344909 103.040575 
L 125.249638 102.469167 
L 125.58296 102.926293 
L 126.535307 102.926293 
L 127.20195 102.354885 
L 127.91621 102.354885 
L 128.678088 102.354885 
L 129.201879 102.278697 
L 129.678052 102.278697 
L 131.011338 102.735824 
L 131.963686 102.202509 
L 132.677946 102.240603 
L 132.868415 102.240603 
L 133.535058 102.126322 
L 134.535023 101.973946 
L 135.582604 101.821571 
L 136.296865 101.821571 
L 137.344447 101.821571 
L 138.72535 101.821571 
L 140.630044 101.745383 
L 142.296652 101.440632 
L 143.725172 101.173975 
L 146.391744 101.135881 
L 147.534561 100.526378 
L 150.629689 100.374003 
L 152.629618 100.14544 
L 153.867669 99.95497 
L 154.629547 99.840689 
L 157.62944 99.764501 
L 159.296047 99.726407 
L 161.010272 99.612125 
L 164.391104 99.383562 
L 167.53385 99.383562 
L 168.057641 99.383562 
L 168.676666 99.383562 
L 169.629013 99.26928 
L 170.390891 99.231186 
L 172.724141 99.116905 
L 177.390642 98.126464 
L 178.295372 98.126464 
L 182.676169 97.974088 
L 183.676133 97.935994 
L 184.676098 97.935994 
L 186.295088 97.859807 
L 187.628374 97.859807 
L 188.914042 97.707431 
L 189.723537 97.745525 
L 192.342492 97.745525 
L 195.056681 96.869366 
L 196.389967 96.831272 
L 197.342314 96.336051 
L 198.532748 96.945553 
L 199.532712 96.678896 
L 200.723146 96.107488 
L 203.53257 95.840831 
L 205.008708 95.802737 
L 206.437229 95.726549 
L 207.913367 95.726549 
L 209.341887 95.764643 
L 210.818025 95.726549 
L 212.294164 95.726549 
L 213.675067 95.688455 
L 215.151205 95.688455 
L 216.579725 95.688455 
L 218.055863 95.650361 
L 219.484384 95.650361 
L 220.960522 95.650361 
L 222.43666 95.574174 
L 223.865181 95.688455 
L 225.341319 95.688455 
L 226.769839 95.612267 
L 228.245977 95.612267 
L 229.722115 95.53608 
L 231.055401 95.53608 
L 232.531539 95.53608 
L 233.96006 95.53608 
L 235.436198 95.497986 
L 236.864719 95.307516 
L 238.340857 95.231329 
L 239.816995 95.155141 
L 241.245515 95.117047 
L 242.721653 95.193235 
L 244.150174 95.117047 
L 245.626312 95.117047 
L 247.10245 95.117047 
L 248.435736 95.117047 
L 249.911874 95.117047 
L 251.340395 95.117047 
L 252.816533 95.040859 
L 254.245053 95.040859 
L 255.721191 95.040859 
L 257.197329 94.126606 
L 258.62585 93.97423 
L 260.101988 93.936137 
L 261.530509 93.936137 
L 263.006647 93.898043 
L 264.482785 93.898043 
L 265.816071 93.898043 
L 267.292209 93.821855 
L 268.720729 93.821855 
L 270.196867 93.821855 
L 271.625388 93.821855 
L 273.101526 93.821855 
L 274.577664 93.821855 
L 276.006185 93.821855 
L 277.482323 93.821855 
L 278.910843 93.783761 
L 280.386981 93.745667 
L 281.863119 93.745667 
L 283.244023 93.707573 
L 284.720161 93.707573 
L 286.148681 93.707573 
L 287.624819 93.707573 
L 289.05334 93.707573 
L 290.529478 93.669479 
L 292.005616 93.631385 
L 293.434137 93.593292 
L 294.910275 93.593292 
L 296.338795 93.555198 
L 297.814933 93.555198 
L 299.291071 93.555198 
L 300.624357 93.555198 
L 302.100495 93.517104 
L 303.529016 93.47901 
L 305.005154 93.326634 
L 306.433674 92.412381 
L 307.909812 92.221912 
L 309.38595 92.183818 
L 310.814471 92.2981 
L 312.290609 92.2981 
L 313.71913 92.2981 
L 315.195268 92.145724 
L 316.671406 92.145724 
L 318.004692 92.145724 
L 319.48083 92.069536 
L 320.90935 92.031442 
L 322.385488 91.993348 
L 323.814009 91.993348 
L 325.290147 91.993348 
L 326.766285 91.955255 
L 328.194806 91.955255 
L 329.670944 91.955255 
L 331.099464 91.879067 
L 332.575602 91.879067 
L 334.05174 91.917161 
L 335.385026 91.917161 
L 336.861164 91.917161 
L 338.289685 91.917161 
L 339.765823 91.993348 
L 341.194344 91.993348 
L 342.670482 91.993348 
L 344.14662 91.993348 
L 345.57514 91.993348 
L 347.051278 91.993348 
L 348.479799 91.993348 
L 349.955937 91.993348 
L 351.432075 91.993348 
L 352.812978 91.955255 
L 354.289116 91.955255 
L 355.717637 91.993348 
L 357.193775 92.069536 
L 358.622296 92.069536 
L 360.098434 92.031442 
L 361.574572 92.031442 
L 363.003092 92.069536 
L 364.47923 92.069536 
L 365.907751 92.069536 
L 367.383889 92.10763 
L 368.860027 92.10763 
L 370.193313 92.069536 
L 371.669451 92.031442 
L 373.097972 91.993348 
L 374.57411 91.993348 
L 376.00263 91.993348 
L 377.478768 91.955255 
L 378.954906 91.955255 
L 380.383427 91.955255 
L 381.859565 91.879067 
L 383.288086 91.917161 
L 384.764224 91.879067 
L 386.240362 91.879067 
L 387.573648 91.879067 
L 389.049786 91.879067 
L 390.478306 91.879067 
L 391.954444 91.802879 
L 393.382965 91.726691 
L 394.859103 91.726691 
L 396.335241 91.726691 
L 397.763761 91.726691 
L 399.239899 91.688597 
L 400.66842 91.688597 
L 402.144558 91.61241 
L 403.620696 91.61241 
L 404.953982 91.574316 
L 406.43012 91.574316 
L 407.858641 91.574316 
L 409.334779 91.574316 
L 410.763299 91.574316 
L 412.239437 91.498128 
L 413.715575 91.498128 
L 415.144096 91.498128 
L 416.620234 91.498128 
L 418.048755 91.460034 
L 419.524893 91.460034 
L 421.001031 91.460034 
L 422.381934 91.42194 
L 423.858072 91.42194 
L 425.286593 91.42194 
L 426.762731 91.383846 
L 428.191251 91.383846 
L 429.667389 91.155283 
L 431.143527 90.812438 
L 432.572048 90.850532 
L 434.048186 90.850532 
L 435.476707 90.850532 
L 436.952845 90.850532 
L 438.428983 90.850532 
L 439.762269 90.850532 
L 441.238407 90.850532 
L 442.666927 90.888626 
L 444.143065 90.888626 
L 445.571586 90.888626 
L 447.047724 90.888626 
L 448.523862 90.888626 
L 449.952383 91.802879 
L 449.952383 82.39369 
L 449.952383 82.39369 
L 448.523862 81.479436 
L 447.047724 81.479436 
L 445.571586 81.479436 
L 444.143065 81.479436 
L 442.666927 81.479436 
L 441.238407 81.479436 
L 439.762269 81.479436 
L 438.428983 81.479436 
L 436.952845 81.479436 
L 435.476707 81.479436 
L 434.048186 81.479436 
L 432.572048 81.51753 
L 431.143527 81.51753 
L 429.667389 81.51753 
L 428.191251 81.555624 
L 426.762731 81.555624 
L 425.286593 81.555624 
L 423.858072 81.555624 
L 422.381934 81.555624 
L 421.001031 81.555624 
L 419.524893 81.555624 
L 418.048755 81.555624 
L 416.620234 81.555624 
L 415.144096 81.555624 
L 413.715575 81.555624 
L 412.239437 81.555624 
L 410.763299 81.555624 
L 409.334779 81.555624 
L 407.858641 81.555624 
L 406.43012 81.555624 
L 404.953982 81.555624 
L 403.620696 81.746094 
L 402.144558 81.784188 
L 400.66842 81.822281 
L 399.239899 81.822281 
L 397.763761 81.822281 
L 396.335241 81.822281 
L 394.859103 81.822281 
L 393.382965 81.822281 
L 391.954444 81.822281 
L 390.478306 81.822281 
L 389.049786 81.822281 
L 387.573648 81.860375 
L 386.240362 81.822281 
L 384.764224 81.822281 
L 383.288086 81.860375 
L 381.859565 81.593718 
L 380.383427 81.593718 
L 378.954906 81.250873 
L 377.478768 81.250873 
L 376.00263 81.250873 
L 374.57411 81.250873 
L 373.097972 81.250873 
L 371.669451 81.250873 
L 370.193313 81.288967 
L 368.860027 81.288967 
L 367.383889 81.288967 
L 365.907751 81.250873 
L 364.47923 81.250873 
L 363.003092 81.250873 
L 361.574572 81.288967 
L 360.098434 81.288967 
L 358.622296 81.288967 
L 357.193775 81.288967 
L 355.717637 81.212779 
L 354.289116 81.174685 
L 352.812978 81.174685 
L 351.432075 81.174685 
L 349.955937 81.174685 
L 348.479799 81.174685 
L 347.051278 81.174685 
L 345.57514 81.174685 
L 344.14662 81.174685 
L 342.670482 81.174685 
L 341.194344 81.174685 
L 339.765823 81.174685 
L 338.289685 81.098498 
L 336.861164 81.098498 
L 335.385026 81.098498 
L 334.05174 81.098498 
L 332.575602 81.098498 
L 331.099464 81.098498 
L 329.670944 81.098498 
L 328.194806 81.098498 
L 326.766285 81.098498 
L 325.290147 81.060404 
L 323.814009 81.060404 
L 322.385488 81.060404 
L 320.90935 81.060404 
L 319.48083 81.060404 
L 318.004692 81.060404 
L 316.671406 81.060404 
L 315.195268 81.060404 
L 313.71913 81.060404 
L 312.290609 81.060404 
L 310.814471 81.060404 
L 309.38595 81.060404 
L 307.909812 81.060404 
L 306.433674 81.060404 
L 305.005154 81.060404 
L 303.529016 81.060404 
L 302.100495 81.060404 
L 300.624357 81.060404 
L 299.291071 81.060404 
L 297.814933 81.060404 
L 296.338795 81.060404 
L 294.910275 81.060404 
L 293.434137 81.060404 
L 292.005616 81.060404 
L 290.529478 81.060404 
L 289.05334 81.060404 
L 287.624819 81.060404 
L 286.148681 81.060404 
L 284.720161 81.060404 
L 283.244023 81.403249 
L 281.863119 81.441343 
L 280.386981 81.441343 
L 278.910843 81.441343 
L 277.482323 81.593718 
L 276.006185 81.593718 
L 274.577664 81.593718 
L 273.101526 81.593718 
L 271.625388 81.593718 
L 270.196867 81.593718 
L 268.720729 81.593718 
L 267.292209 81.593718 
L 265.816071 81.593718 
L 264.482785 81.593718 
L 263.006647 81.593718 
L 261.530509 81.631812 
L 260.101988 81.631812 
L 258.62585 81.631812 
L 257.197329 81.631812 
L 255.721191 81.365155 
L 254.245053 81.51753 
L 252.816533 81.479436 
L 251.340395 81.479436 
L 249.911874 81.479436 
L 248.435736 81.479436 
L 247.10245 81.479436 
L 245.626312 81.479436 
L 244.150174 81.479436 
L 242.721653 81.51753 
L 241.245515 81.51753 
L 239.816995 81.51753 
L 238.340857 81.479436 
L 236.864719 81.479436 
L 235.436198 81.479436 
L 233.96006 81.479436 
L 232.531539 81.479436 
L 231.055401 81.479436 
L 229.722115 81.479436 
L 228.245977 81.479436 
L 226.769839 81.479436 
L 225.341319 81.479436 
L 223.865181 81.51753 
L 222.43666 81.479436 
L 220.960522 81.51753 
L 219.484384 81.479436 
L 218.055863 81.479436 
L 216.579725 81.479436 
L 215.151205 81.479436 
L 213.675067 81.479436 
L 212.294164 81.479436 
L 210.818025 81.51753 
L 209.341887 81.51753 
L 207.913367 81.479436 
L 206.437229 81.479436 
L 205.008708 81.479436 
L 203.53257 81.555624 
L 200.723146 81.822281 
L 199.532712 82.469877 
L 198.532748 82.546065 
L 197.342314 81.936563 
L 196.389967 83.422225 
L 195.056681 83.422225 
L 192.342492 84.793604 
L 189.723537 84.793604 
L 188.914042 84.75551 
L 187.628374 84.907886 
L 186.295088 84.869792 
L 184.676098 84.869792 
L 183.676133 84.869792 
L 182.676169 84.869792 
L 178.295372 85.174543 
L 177.390642 85.174543 
L 172.724141 85.365013 
L 170.390891 85.326919 
L 169.629013 85.326919 
L 168.676666 85.403107 
L 168.057641 85.403107 
L 167.53385 85.403107 
L 164.391104 85.936421 
L 161.010272 86.050703 
L 159.296047 86.050703 
L 157.62944 86.050703 
L 154.629547 86.050703 
L 153.867669 86.012609 
L 152.629618 86.012609 
L 150.629689 85.898327 
L 147.534561 85.860233 
L 146.391744 86.850674 
L 143.725172 86.964956 
L 142.296652 87.079237 
L 140.630044 86.964956 
L 138.72535 86.964956 
L 137.344447 86.926862 
L 136.296865 86.926862 
L 135.582604 86.926862 
L 134.535023 86.888768 
L 133.535058 86.888768 
L 132.868415 86.926862 
L 132.677946 86.926862 
L 131.963686 86.926862 
L 131.011338 87.345895 
L 129.678052 86.926862 
L 129.201879 86.926862 
L 128.678088 86.964956 
L 127.91621 86.888768 
L 127.20195 86.888768 
L 126.535307 87.269707 
L 125.58296 87.193519 
L 125.249638 86.774486 
L 124.344909 87.307801 
L 123.202092 87.155425 
L 122.34498 87.193519 
L 121.868806 87.193519 
L 121.059311 87.193519 
L 120.53552 87.231613 
L 119.726025 87.726833 
L 119.059382 87.193519 
L 118.249887 87.193519 
L 115.107142 88.145866 
L 114.869055 88.18396 
L 112.964361 88.145866 
L 108.821651 87.269707 
L 106.583635 88.145866 
L 97.917277 88.907744 
L 83.965392 89.326777 
L 65.013684 90.012466 
L 48.680931 90.431499 
L 40.728833 91.42194 
L 32.6815 91.269565 
z
" clip-path="url(#p63982b2623)" style="fill: #d5dce5"/>
   </g>
   <g id="matplotlib.axis_1">
    <g id="xtick_1">
     <g id="line2d_1">
      <defs>
       <path id="mc8cdf7d1f5" d="M 0 0 
L 0 3.5 
" style="stroke: #000000; stroke-width: 0.8"/>
      </defs>
      <g>
       <use xlink:href="#mc8cdf7d1f5" x="71.680114" y="274.196396" style="stroke: #000000; stroke-width: 0.8"/>
      </g>
     </g>
     <g id="text_1">
      <!-- 2004 -->
      <g transform="translate(58.955114 288.794833) scale(0.1 -0.1)">
       <defs>
        <path id="DejaVuSans-32" d="M 1228 531 
L 3431 531 
L 3431 0 
L 469 0 
L 469 531 
Q 828 903 1448 1529 
Q 2069 2156 2228 2338 
Q 2531 2678 2651 2914 
Q 2772 3150 2772 3378 
Q 2772 3750 2511 3984 
Q 2250 4219 1831 4219 
Q 1534 4219 1204 4116 
Q 875 4013 500 3803 
L 500 4441 
Q 881 4594 1212 4672 
Q 1544 4750 1819 4750 
Q 2544 4750 2975 4387 
Q 3406 4025 3406 3419 
Q 3406 3131 3298 2873 
Q 3191 2616 2906 2266 
Q 2828 2175 2409 1742 
Q 1991 1309 1228 531 
z
" transform="scale(0.015625)"/>
        <path id="DejaVuSans-30" d="M 2034 4250 
Q 1547 4250 1301 3770 
Q 1056 3291 1056 2328 
Q 1056 1369 1301 889 
Q 1547 409 2034 409 
Q 2525 409 2770 889 
Q 3016 1369 3016 2328 
Q 3016 3291 2770 3770 
Q 2525 4250 2034 4250 
z
M 2034 4750 
Q 2819 4750 3233 4129 
Q 3647 3509 3647 2328 
Q 3647 1150 3233 529 
Q 2819 -91 2034 -91 
Q 1250 -91 836 529 
Q 422 1150 422 2328 
Q 422 3509 836 4129 
Q 1250 4750 2034 4750 
z
" transform="scale(0.015625)"/>
        <path id="DejaVuSans-34" d="M 2419 4116 
L 825 1625 
L 2419 1625 
L 2419 4116 
z
M 2253 4666 
L 3047 4666 
L 3047 1625 
L 3713 1625 
L 3713 1100 
L 3047 1100 
L 3047 0 
L 2419 0 
L 2419 1100 
L 313 1100 
L 313 1709 
L 2253 4666 
z
" transform="scale(0.015625)"/>
       </defs>
       <use xlink:href="#DejaVuSans-32"/>
       <use xlink:href="#DejaVuSans-30" x="63.623047"/>
       <use xlink:href="#DejaVuSans-30" x="127.246094"/>
       <use xlink:href="#DejaVuSans-34" x="190.869141"/>
      </g>
     </g>
    </g>
    <g id="xtick_2">
     <g id="line2d_2">
      <g>
       <use xlink:href="#mc8cdf7d1f5" x="141.24907" y="274.196396" style="stroke: #000000; stroke-width: 0.8"/>
      </g>
     </g>
     <g id="text_2">
      <!-- 2008 -->
      <g transform="translate(128.52407 288.794833) scale(0.1 -0.1)">
       <defs>
        <path id="DejaVuSans-38" d="M 2034 2216 
Q 1584 2216 1326 1975 
Q 1069 1734 1069 1313 
Q 1069 891 1326 650 
Q 1584 409 2034 409 
Q 2484 409 2743 651 
Q 3003 894 3003 1313 
Q 3003 1734 2745 1975 
Q 2488 2216 2034 2216 
z
M 1403 2484 
Q 997 2584 770 2862 
Q 544 3141 544 3541 
Q 544 4100 942 4425 
Q 1341 4750 2034 4750 
Q 2731 4750 3128 4425 
Q 3525 4100 3525 3541 
Q 3525 3141 3298 2862 
Q 3072 2584 2669 2484 
Q 3125 2378 3379 2068 
Q 3634 1759 3634 1313 
Q 3634 634 3220 271 
Q 2806 -91 2034 -91 
Q 1263 -91 848 271 
Q 434 634 434 1313 
Q 434 1759 690 2068 
Q 947 2378 1403 2484 
z
M 1172 3481 
Q 1172 3119 1398 2916 
Q 1625 2713 2034 2713 
Q 2441 2713 2670 2916 
Q 2900 3119 2900 3481 
Q 2900 3844 2670 4047 
Q 2441 4250 2034 4250 
Q 1625 4250 1398 4047 
Q 1172 3844 1172 3481 
z
" transform="scale(0.015625)"/>
       </defs>
       <use xlink:href="#DejaVuSans-32"/>
       <use xlink:href="#DejaVuSans-30" x="63.623047"/>
       <use xlink:href="#DejaVuSans-30" x="127.246094"/>
       <use xlink:href="#DejaVuSans-38" x="190.869141"/>
      </g>
     </g>
    </g>
    <g id="xtick_3">
     <g id="line2d_3">
      <g>
       <use xlink:href="#mc8cdf7d1f5" x="210.818025" y="274.196396" style="stroke: #000000; stroke-width: 0.8"/>
      </g>
     </g>
     <g id="text_3">
      <!-- 2012 -->
      <g transform="translate(198.093025 288.794833) scale(0.1 -0.1)">
       <defs>
        <path id="DejaVuSans-31" d="M 794 531 
L 1825 531 
L 1825 4091 
L 703 3866 
L 703 4441 
L 1819 4666 
L 2450 4666 
L 2450 531 
L 3481 531 
L 3481 0 
L 794 0 
L 794 531 
z
" transform="scale(0.015625)"/>
       </defs>
       <use xlink:href="#DejaVuSans-32"/>
       <use xlink:href="#DejaVuSans-30" x="63.623047"/>
       <use xlink:href="#DejaVuSans-31" x="127.246094"/>
       <use xlink:href="#DejaVuSans-32" x="190.869141"/>
      </g>
     </g>
    </g>
    <g id="xtick_4">
     <g id="line2d_4">
      <g>
       <use xlink:href="#mc8cdf7d1f5" x="280.386981" y="274.196396" style="stroke: #000000; stroke-width: 0.8"/>
      </g>
     </g>
     <g id="text_4">
      <!-- 2016 -->
      <g transform="translate(267.661981 288.794833) scale(0.1 -0.1)">
       <defs>
        <path id="DejaVuSans-36" d="M 2113 2584 
Q 1688 2584 1439 2293 
Q 1191 2003 1191 1497 
Q 1191 994 1439 701 
Q 1688 409 2113 409 
Q 2538 409 2786 701 
Q 3034 994 3034 1497 
Q 3034 2003 2786 2293 
Q 2538 2584 2113 2584 
z
M 3366 4563 
L 3366 3988 
Q 3128 4100 2886 4159 
Q 2644 4219 2406 4219 
Q 1781 4219 1451 3797 
Q 1122 3375 1075 2522 
Q 1259 2794 1537 2939 
Q 1816 3084 2150 3084 
Q 2853 3084 3261 2657 
Q 3669 2231 3669 1497 
Q 3669 778 3244 343 
Q 2819 -91 2113 -91 
Q 1303 -91 875 529 
Q 447 1150 447 2328 
Q 447 3434 972 4092 
Q 1497 4750 2381 4750 
Q 2619 4750 2861 4703 
Q 3103 4656 3366 4563 
z
" transform="scale(0.015625)"/>
       </defs>
       <use xlink:href="#DejaVuSans-32"/>
       <use xlink:href="#DejaVuSans-30" x="63.623047"/>
       <use xlink:href="#DejaVuSans-31" x="127.246094"/>
       <use xlink:href="#DejaVuSans-36" x="190.869141"/>
      </g>
     </g>
    </g>
    <g id="xtick_5">
     <g id="line2d_5">
      <g>
       <use xlink:href="#mc8cdf7d1f5" x="349.955937" y="274.196396" style="stroke: #000000; stroke-width: 0.8"/>
      </g>
     </g>
     <g id="text_5">
      <!-- 2020 -->
      <g transform="translate(337.230937 288.794833) scale(0.1 -0.1)">
       <use xlink:href="#DejaVuSans-32"/>
       <use xlink:href="#DejaVuSans-30" x="63.623047"/>
       <use xlink:href="#DejaVuSans-32" x="127.246094"/>
       <use xlink:href="#DejaVuSans-30" x="190.869141"/>
      </g>
     </g>
    </g>
    <g id="xtick_6">
     <g id="line2d_6">
      <g>
       <use xlink:href="#mc8cdf7d1f5" x="419.524893" y="274.196396" style="stroke: #000000; stroke-width: 0.8"/>
      </g>
     </g>
     <g id="text_6">
      <!-- 2024 -->
      <g transform="translate(406.799893 288.794833) scale(0.1 -0.1)">
       <use xlink:href="#DejaVuSans-32"/>
       <use xlink:href="#DejaVuSans-30" x="63.623047"/>
       <use xlink:href="#DejaVuSans-32" x="127.246094"/>
       <use xlink:href="#DejaVuSans-34" x="190.869141"/>
      </g>
     </g>
    </g>
    <g id="text_7">
     <!-- Year -->
     <g transform="translate(239.86375 306.272177) scale(0.15 -0.15)">
      <defs>
       <path id="DejaVuSans-59" d="M -13 4666 
L 666 4666 
L 1959 2747 
L 3244 4666 
L 3922 4666 
L 2272 2222 
L 2272 0 
L 1638 0 
L 1638 2222 
L -13 4666 
z
" transform="scale(0.015625)"/>
       <path id="DejaVuSans-65" d="M 3597 1894 
L 3597 1613 
L 953 1613 
Q 991 1019 1311 708 
Q 1631 397 2203 397 
Q 2534 397 2845 478 
Q 3156 559 3463 722 
L 3463 178 
Q 3153 47 2828 -22 
Q 2503 -91 2169 -91 
Q 1331 -91 842 396 
Q 353 884 353 1716 
Q 353 2575 817 3079 
Q 1281 3584 2069 3584 
Q 2775 3584 3186 3129 
Q 3597 2675 3597 1894 
z
M 3022 2063 
Q 3016 2534 2758 2815 
Q 2500 3097 2075 3097 
Q 1594 3097 1305 2825 
Q 1016 2553 972 2059 
L 3022 2063 
z
" transform="scale(0.015625)"/>
       <path id="DejaVuSans-61" d="M 2194 1759 
Q 1497 1759 1228 1600 
Q 959 1441 959 1056 
Q 959 750 1161 570 
Q 1363 391 1709 391 
Q 2188 391 2477 730 
Q 2766 1069 2766 1631 
L 2766 1759 
L 2194 1759 
z
M 3341 1997 
L 3341 0 
L 2766 0 
L 2766 531 
Q 2569 213 2275 61 
Q 1981 -91 1556 -91 
Q 1019 -91 701 211 
Q 384 513 384 1019 
Q 384 1609 779 1909 
Q 1175 2209 1959 2209 
L 2766 2209 
L 2766 2266 
Q 2766 2663 2505 2880 
Q 2244 3097 1772 3097 
Q 1472 3097 1187 3025 
Q 903 2953 641 2809 
L 641 3341 
Q 956 3463 1253 3523 
Q 1550 3584 1831 3584 
Q 2591 3584 2966 3190 
Q 3341 2797 3341 1997 
z
" transform="scale(0.015625)"/>
       <path id="DejaVuSans-72" d="M 2631 2963 
Q 2534 3019 2420 3045 
Q 2306 3072 2169 3072 
Q 1681 3072 1420 2755 
Q 1159 2438 1159 1844 
L 1159 0 
L 581 0 
L 581 3500 
L 1159 3500 
L 1159 2956 
Q 1341 3275 1631 3429 
Q 1922 3584 2338 3584 
Q 2397 3584 2469 3576 
Q 2541 3569 2628 3553 
L 2631 2963 
z
" transform="scale(0.015625)"/>
      </defs>
      <use xlink:href="#DejaVuSans-59"/>
      <use xlink:href="#DejaVuSans-65" x="47.833984"/>
      <use xlink:href="#DejaVuSans-61" x="109.357422"/>
      <use xlink:href="#DejaVuSans-72" x="170.636719"/>
     </g>
    </g>
   </g>
   <g id="matplotlib.axis_2">
    <g id="ytick_1">
     <g id="line2d_7">
      <defs>
       <path id="m9487ee6288" d="M 0 0 
L -3.5 0 
" style="stroke: #000000; stroke-width: 0.8"/>
      </defs>
      <g>
       <use xlink:href="#m9487ee6288" x="61.49" y="274.196396" style="stroke: #000000; stroke-width: 0.8"/>
      </g>
     </g>
     <g id="text_8">
      <!-- 0 -->
      <g transform="translate(48.1275 277.995615) scale(0.1 -0.1)">
       <use xlink:href="#DejaVuSans-30"/>
      </g>
     </g>
    </g>
    <g id="ytick_2">
     <g id="line2d_8">
      <g>
       <use xlink:href="#m9487ee6288" x="61.49" y="236.102512" style="stroke: #000000; stroke-width: 0.8"/>
      </g>
     </g>
     <g id="text_9">
      <!-- 1000 -->
      <g transform="translate(29.04 239.901731) scale(0.1 -0.1)">
       <use xlink:href="#DejaVuSans-31"/>
       <use xlink:href="#DejaVuSans-30" x="63.623047"/>
       <use xlink:href="#DejaVuSans-30" x="127.246094"/>
       <use xlink:href="#DejaVuSans-30" x="190.869141"/>
      </g>
     </g>
    </g>
    <g id="ytick_3">
     <g id="line2d_9">
      <g>
       <use xlink:href="#m9487ee6288" x="61.49" y="198.008628" style="stroke: #000000; stroke-width: 0.8"/>
      </g>
     </g>
     <g id="text_10">
      <!-- 2000 -->
      <g transform="translate(29.04 201.807847) scale(0.1 -0.1)">
       <use xlink:href="#DejaVuSans-32"/>
       <use xlink:href="#DejaVuSans-30" x="63.623047"/>
       <use xlink:href="#DejaVuSans-30" x="127.246094"/>
       <use xlink:href="#DejaVuSans-30" x="190.869141"/>
      </g>
     </g>
    </g>
    <g id="ytick_4">
     <g id="line2d_10">
      <g>
       <use xlink:href="#m9487ee6288" x="61.49" y="159.914744" style="stroke: #000000; stroke-width: 0.8"/>
      </g>
     </g>
     <g id="text_11">
      <!-- 3000 -->
      <g transform="translate(29.04 163.713962) scale(0.1 -0.1)">
       <defs>
        <path id="DejaVuSans-33" d="M 2597 2516 
Q 3050 2419 3304 2112 
Q 3559 1806 3559 1356 
Q 3559 666 3084 287 
Q 2609 -91 1734 -91 
Q 1441 -91 1130 -33 
Q 819 25 488 141 
L 488 750 
Q 750 597 1062 519 
Q 1375 441 1716 441 
Q 2309 441 2620 675 
Q 2931 909 2931 1356 
Q 2931 1769 2642 2001 
Q 2353 2234 1838 2234 
L 1294 2234 
L 1294 2753 
L 1863 2753 
Q 2328 2753 2575 2939 
Q 2822 3125 2822 3475 
Q 2822 3834 2567 4026 
Q 2313 4219 1838 4219 
Q 1578 4219 1281 4162 
Q 984 4106 628 3988 
L 628 4550 
Q 988 4650 1302 4700 
Q 1616 4750 1894 4750 
Q 2613 4750 3031 4423 
Q 3450 4097 3450 3541 
Q 3450 3153 3228 2886 
Q 3006 2619 2597 2516 
z
" transform="scale(0.015625)"/>
       </defs>
       <use xlink:href="#DejaVuSans-33"/>
       <use xlink:href="#DejaVuSans-30" x="63.623047"/>
       <use xlink:href="#DejaVuSans-30" x="127.246094"/>
       <use xlink:href="#DejaVuSans-30" x="190.869141"/>
      </g>
     </g>
    </g>
    <g id="ytick_5">
     <g id="line2d_11">
      <g>
       <use xlink:href="#m9487ee6288" x="61.49" y="121.82086" style="stroke: #000000; stroke-width: 0.8"/>
      </g>
     </g>
     <g id="text_12">
      <!-- 4000 -->
      <g transform="translate(29.04 125.620078) scale(0.1 -0.1)">
       <use xlink:href="#DejaVuSans-34"/>
       <use xlink:href="#DejaVuSans-30" x="63.623047"/>
       <use xlink:href="#DejaVuSans-30" x="127.246094"/>
       <use xlink:href="#DejaVuSans-30" x="190.869141"/>
      </g>
     </g>
    </g>
    <g id="ytick_6">
     <g id="line2d_12">
      <g>
       <use xlink:href="#m9487ee6288" x="61.49" y="83.726976" style="stroke: #000000; stroke-width: 0.8"/>
      </g>
     </g>
     <g id="text_13">
      <!-- 5000 -->
      <g transform="translate(29.04 87.526194) scale(0.1 -0.1)">
       <defs>
        <path id="DejaVuSans-35" d="M 691 4666 
L 3169 4666 
L 3169 4134 
L 1269 4134 
L 1269 2991 
Q 1406 3038 1543 3061 
Q 1681 3084 1819 3084 
Q 2600 3084 3056 2656 
Q 3513 2228 3513 1497 
Q 3513 744 3044 326 
Q 2575 -91 1722 -91 
Q 1428 -91 1123 -41 
Q 819 9 494 109 
L 494 744 
Q 775 591 1075 516 
Q 1375 441 1709 441 
Q 2250 441 2565 725 
Q 2881 1009 2881 1497 
Q 2881 1984 2565 2268 
Q 2250 2553 1709 2553 
Q 1456 2553 1204 2497 
Q 953 2441 691 2322 
L 691 4666 
z
" transform="scale(0.015625)"/>
       </defs>
       <use xlink:href="#DejaVuSans-35"/>
       <use xlink:href="#DejaVuSans-30" x="63.623047"/>
       <use xlink:href="#DejaVuSans-30" x="127.246094"/>
       <use xlink:href="#DejaVuSans-30" x="190.869141"/>
      </g>
     </g>
    </g>
    <g id="text_14">
     <!-- Number of proteins -->
     <g transform="translate(21.920469 245.489062) rotate(-90) scale(0.15 -0.15)">
      <defs>
       <path id="DejaVuSans-4e" d="M 628 4666 
L 1478 4666 
L 3547 763 
L 3547 4666 
L 4159 4666 
L 4159 0 
L 3309 0 
L 1241 3903 
L 1241 0 
L 628 0 
L 628 4666 
z
" transform="scale(0.015625)"/>
       <path id="DejaVuSans-75" d="M 544 1381 
L 544 3500 
L 1119 3500 
L 1119 1403 
Q 1119 906 1312 657 
Q 1506 409 1894 409 
Q 2359 409 2629 706 
Q 2900 1003 2900 1516 
L 2900 3500 
L 3475 3500 
L 3475 0 
L 2900 0 
L 2900 538 
Q 2691 219 2414 64 
Q 2138 -91 1772 -91 
Q 1169 -91 856 284 
Q 544 659 544 1381 
z
M 1991 3584 
L 1991 3584 
z
" transform="scale(0.015625)"/>
       <path id="DejaVuSans-6d" d="M 3328 2828 
Q 3544 3216 3844 3400 
Q 4144 3584 4550 3584 
Q 5097 3584 5394 3201 
Q 5691 2819 5691 2113 
L 5691 0 
L 5113 0 
L 5113 2094 
Q 5113 2597 4934 2840 
Q 4756 3084 4391 3084 
Q 3944 3084 3684 2787 
Q 3425 2491 3425 1978 
L 3425 0 
L 2847 0 
L 2847 2094 
Q 2847 2600 2669 2842 
Q 2491 3084 2119 3084 
Q 1678 3084 1418 2786 
Q 1159 2488 1159 1978 
L 1159 0 
L 581 0 
L 581 3500 
L 1159 3500 
L 1159 2956 
Q 1356 3278 1631 3431 
Q 1906 3584 2284 3584 
Q 2666 3584 2933 3390 
Q 3200 3197 3328 2828 
z
" transform="scale(0.015625)"/>
       <path id="DejaVuSans-62" d="M 3116 1747 
Q 3116 2381 2855 2742 
Q 2594 3103 2138 3103 
Q 1681 3103 1420 2742 
Q 1159 2381 1159 1747 
Q 1159 1113 1420 752 
Q 1681 391 2138 391 
Q 2594 391 2855 752 
Q 3116 1113 3116 1747 
z
M 1159 2969 
Q 1341 3281 1617 3432 
Q 1894 3584 2278 3584 
Q 2916 3584 3314 3078 
Q 3713 2572 3713 1747 
Q 3713 922 3314 415 
Q 2916 -91 2278 -91 
Q 1894 -91 1617 61 
Q 1341 213 1159 525 
L 1159 0 
L 581 0 
L 581 4863 
L 1159 4863 
L 1159 2969 
z
" transform="scale(0.015625)"/>
       <path id="DejaVuSans-20" transform="scale(0.015625)"/>
       <path id="DejaVuSans-6f" d="M 1959 3097 
Q 1497 3097 1228 2736 
Q 959 2375 959 1747 
Q 959 1119 1226 758 
Q 1494 397 1959 397 
Q 2419 397 2687 759 
Q 2956 1122 2956 1747 
Q 2956 2369 2687 2733 
Q 2419 3097 1959 3097 
z
M 1959 3584 
Q 2709 3584 3137 3096 
Q 3566 2609 3566 1747 
Q 3566 888 3137 398 
Q 2709 -91 1959 -91 
Q 1206 -91 779 398 
Q 353 888 353 1747 
Q 353 2609 779 3096 
Q 1206 3584 1959 3584 
z
" transform="scale(0.015625)"/>
       <path id="DejaVuSans-66" d="M 2375 4863 
L 2375 4384 
L 1825 4384 
Q 1516 4384 1395 4259 
Q 1275 4134 1275 3809 
L 1275 3500 
L 2222 3500 
L 2222 3053 
L 1275 3053 
L 1275 0 
L 697 0 
L 697 3053 
L 147 3053 
L 147 3500 
L 697 3500 
L 697 3744 
Q 697 4328 969 4595 
Q 1241 4863 1831 4863 
L 2375 4863 
z
" transform="scale(0.015625)"/>
       <path id="DejaVuSans-70" d="M 1159 525 
L 1159 -1331 
L 581 -1331 
L 581 3500 
L 1159 3500 
L 1159 2969 
Q 1341 3281 1617 3432 
Q 1894 3584 2278 3584 
Q 2916 3584 3314 3078 
Q 3713 2572 3713 1747 
Q 3713 922 3314 415 
Q 2916 -91 2278 -91 
Q 1894 -91 1617 61 
Q 1341 213 1159 525 
z
M 3116 1747 
Q 3116 2381 2855 2742 
Q 2594 3103 2138 3103 
Q 1681 3103 1420 2742 
Q 1159 2381 1159 1747 
Q 1159 1113 1420 752 
Q 1681 391 2138 391 
Q 2594 391 2855 752 
Q 3116 1113 3116 1747 
z
" transform="scale(0.015625)"/>
       <path id="DejaVuSans-74" d="M 1172 4494 
L 1172 3500 
L 2356 3500 
L 2356 3053 
L 1172 3053 
L 1172 1153 
Q 1172 725 1289 603 
Q 1406 481 1766 481 
L 2356 481 
L 2356 0 
L 1766 0 
Q 1100 0 847 248 
Q 594 497 594 1153 
L 594 3053 
L 172 3053 
L 172 3500 
L 594 3500 
L 594 4494 
L 1172 4494 
z
" transform="scale(0.015625)"/>
       <path id="DejaVuSans-69" d="M 603 3500 
L 1178 3500 
L 1178 0 
L 603 0 
L 603 3500 
z
M 603 4863 
L 1178 4863 
L 1178 4134 
L 603 4134 
L 603 4863 
z
" transform="scale(0.015625)"/>
       <path id="DejaVuSans-6e" d="M 3513 2113 
L 3513 0 
L 2938 0 
L 2938 2094 
Q 2938 2591 2744 2837 
Q 2550 3084 2163 3084 
Q 1697 3084 1428 2787 
Q 1159 2491 1159 1978 
L 1159 0 
L 581 0 
L 581 3500 
L 1159 3500 
L 1159 2956 
Q 1366 3272 1645 3428 
Q 1925 3584 2291 3584 
Q 2894 3584 3203 3211 
Q 3513 2838 3513 2113 
z
" transform="scale(0.015625)"/>
       <path id="DejaVuSans-73" d="M 2834 3397 
L 2834 2853 
Q 2591 2978 2328 3040 
Q 2066 3103 1784 3103 
Q 1356 3103 1142 2972 
Q 928 2841 928 2578 
Q 928 2378 1081 2264 
Q 1234 2150 1697 2047 
L 1894 2003 
Q 2506 1872 2764 1633 
Q 3022 1394 3022 966 
Q 3022 478 2636 193 
Q 2250 -91 1575 -91 
Q 1294 -91 989 -36 
Q 684 19 347 128 
L 347 722 
Q 666 556 975 473 
Q 1284 391 1588 391 
Q 1994 391 2212 530 
Q 2431 669 2431 922 
Q 2431 1156 2273 1281 
Q 2116 1406 1581 1522 
L 1381 1569 
Q 847 1681 609 1914 
Q 372 2147 372 2553 
Q 372 3047 722 3315 
Q 1072 3584 1716 3584 
Q 2034 3584 2315 3537 
Q 2597 3491 2834 3397 
z
" transform="scale(0.015625)"/>
      </defs>
      <use xlink:href="#DejaVuSans-4e"/>
      <use xlink:href="#DejaVuSans-75" x="74.804688"/>
      <use xlink:href="#DejaVuSans-6d" x="138.183594"/>
      <use xlink:href="#DejaVuSans-62" x="235.595703"/>
      <use xlink:href="#DejaVuSans-65" x="299.072266"/>
      <use xlink:href="#DejaVuSans-72" x="360.595703"/>
      <use xlink:href="#DejaVuSans-20" x="401.708984"/>
      <use xlink:href="#DejaVuSans-6f" x="433.496094"/>
      <use xlink:href="#DejaVuSans-66" x="494.677734"/>
      <use xlink:href="#DejaVuSans-20" x="529.882812"/>
      <use xlink:href="#DejaVuSans-70" x="561.669922"/>
      <use xlink:href="#DejaVuSans-72" x="625.146484"/>
      <use xlink:href="#DejaVuSans-6f" x="664.009766"/>
      <use xlink:href="#DejaVuSans-74" x="725.191406"/>
      <use xlink:href="#DejaVuSans-65" x="764.400391"/>
      <use xlink:href="#DejaVuSans-69" x="825.923828"/>
      <use xlink:href="#DejaVuSans-6e" x="853.707031"/>
      <use xlink:href="#DejaVuSans-73" x="917.085938"/>
     </g>
    </g>
   </g>
   <g id="patch_3">
    <path d="M 61.49 274.196396 
L 61.49 71.403604 
" style="fill: none; stroke: #000000; stroke-width: 0.8; stroke-linejoin: miter; stroke-linecap: square"/>
   </g>
   <g id="patch_4">
    <path d="M 61.49 274.196396 
L 450 274.196396 
" style="fill: none; stroke: #000000; stroke-width: 0.8; stroke-linejoin: miter; stroke-linecap: square"/>
   </g>
   <g id="legend_1">
    <g id="patch_5">
     <path d="M 98.395781 66.403604 
L 413.094219 66.403604 
Q 415.094219 66.403604 415.094219 64.403604 
L 415.094219 36.047354 
Q 415.094219 34.047354 413.094219 34.047354 
L 98.395781 34.047354 
Q 96.395781 34.047354 96.395781 36.047354 
L 96.395781 64.403604 
Q 96.395781 66.403604 98.395781 66.403604 
z
" style="fill: #ffffff; opacity: 0.8; stroke: #cccccc; stroke-linejoin: miter"/>
    </g>
    <g id="patch_6">
     <path d="M 100.395781 45.645792 
L 120.395781 45.645792 
L 120.395781 38.645792 
L 100.395781 38.645792 
z
" style="fill: #fb363b"/>
    </g>
    <g id="text_15">
     <!-- Biological role published -->
     <g transform="translate(128.395781 45.645792) scale(0.1 -0.1)">
      <defs>
       <path id="DejaVuSans-42" d="M 1259 2228 
L 1259 519 
L 2272 519 
Q 2781 519 3026 730 
Q 3272 941 3272 1375 
Q 3272 1813 3026 2020 
Q 2781 2228 2272 2228 
L 1259 2228 
z
M 1259 4147 
L 1259 2741 
L 2194 2741 
Q 2656 2741 2882 2914 
Q 3109 3088 3109 3444 
Q 3109 3797 2882 3972 
Q 2656 4147 2194 4147 
L 1259 4147 
z
M 628 4666 
L 2241 4666 
Q 2963 4666 3353 4366 
Q 3744 4066 3744 3513 
Q 3744 3084 3544 2831 
Q 3344 2578 2956 2516 
Q 3422 2416 3680 2098 
Q 3938 1781 3938 1306 
Q 3938 681 3513 340 
Q 3088 0 2303 0 
L 628 0 
L 628 4666 
z
" transform="scale(0.015625)"/>
       <path id="DejaVuSans-6c" d="M 603 4863 
L 1178 4863 
L 1178 0 
L 603 0 
L 603 4863 
z
" transform="scale(0.015625)"/>
       <path id="DejaVuSans-67" d="M 2906 1791 
Q 2906 2416 2648 2759 
Q 2391 3103 1925 3103 
Q 1463 3103 1205 2759 
Q 947 2416 947 1791 
Q 947 1169 1205 825 
Q 1463 481 1925 481 
Q 2391 481 2648 825 
Q 2906 1169 2906 1791 
z
M 3481 434 
Q 3481 -459 3084 -895 
Q 2688 -1331 1869 -1331 
Q 1566 -1331 1297 -1286 
Q 1028 -1241 775 -1147 
L 775 -588 
Q 1028 -725 1275 -790 
Q 1522 -856 1778 -856 
Q 2344 -856 2625 -561 
Q 2906 -266 2906 331 
L 2906 616 
Q 2728 306 2450 153 
Q 2172 0 1784 0 
Q 1141 0 747 490 
Q 353 981 353 1791 
Q 353 2603 747 3093 
Q 1141 3584 1784 3584 
Q 2172 3584 2450 3431 
Q 2728 3278 2906 2969 
L 2906 3500 
L 3481 3500 
L 3481 434 
z
" transform="scale(0.015625)"/>
       <path id="DejaVuSans-63" d="M 3122 3366 
L 3122 2828 
Q 2878 2963 2633 3030 
Q 2388 3097 2138 3097 
Q 1578 3097 1268 2742 
Q 959 2388 959 1747 
Q 959 1106 1268 751 
Q 1578 397 2138 397 
Q 2388 397 2633 464 
Q 2878 531 3122 666 
L 3122 134 
Q 2881 22 2623 -34 
Q 2366 -91 2075 -91 
Q 1284 -91 818 406 
Q 353 903 353 1747 
Q 353 2603 823 3093 
Q 1294 3584 2113 3584 
Q 2378 3584 2631 3529 
Q 2884 3475 3122 3366 
z
" transform="scale(0.015625)"/>
       <path id="DejaVuSans-68" d="M 3513 2113 
L 3513 0 
L 2938 0 
L 2938 2094 
Q 2938 2591 2744 2837 
Q 2550 3084 2163 3084 
Q 1697 3084 1428 2787 
Q 1159 2491 1159 1978 
L 1159 0 
L 581 0 
L 581 4863 
L 1159 4863 
L 1159 2956 
Q 1366 3272 1645 3428 
Q 1925 3584 2291 3584 
Q 2894 3584 3203 3211 
Q 3513 2838 3513 2113 
z
" transform="scale(0.015625)"/>
       <path id="DejaVuSans-64" d="M 2906 2969 
L 2906 4863 
L 3481 4863 
L 3481 0 
L 2906 0 
L 2906 525 
Q 2725 213 2448 61 
Q 2172 -91 1784 -91 
Q 1150 -91 751 415 
Q 353 922 353 1747 
Q 353 2572 751 3078 
Q 1150 3584 1784 3584 
Q 2172 3584 2448 3432 
Q 2725 3281 2906 2969 
z
M 947 1747 
Q 947 1113 1208 752 
Q 1469 391 1925 391 
Q 2381 391 2643 752 
Q 2906 1113 2906 1747 
Q 2906 2381 2643 2742 
Q 2381 3103 1925 3103 
Q 1469 3103 1208 2742 
Q 947 2381 947 1747 
z
" transform="scale(0.015625)"/>
      </defs>
      <use xlink:href="#DejaVuSans-42"/>
      <use xlink:href="#DejaVuSans-69" x="68.603516"/>
      <use xlink:href="#DejaVuSans-6f" x="96.386719"/>
      <use xlink:href="#DejaVuSans-6c" x="157.568359"/>
      <use xlink:href="#DejaVuSans-6f" x="185.351562"/>
      <use xlink:href="#DejaVuSans-67" x="246.533203"/>
      <use xlink:href="#DejaVuSans-69" x="310.009766"/>
      <use xlink:href="#DejaVuSans-63" x="337.792969"/>
      <use xlink:href="#DejaVuSans-61" x="392.773438"/>
      <use xlink:href="#DejaVuSans-6c" x="454.052734"/>
      <use xlink:href="#DejaVuSans-20" x="481.835938"/>
      <use xlink:href="#DejaVuSans-72" x="513.623047"/>
      <use xlink:href="#DejaVuSans-6f" x="552.486328"/>
      <use xlink:href="#DejaVuSans-6c" x="613.667969"/>
      <use xlink:href="#DejaVuSans-65" x="641.451172"/>
      <use xlink:href="#DejaVuSans-20" x="702.974609"/>
      <use xlink:href="#DejaVuSans-70" x="734.761719"/>
      <use xlink:href="#DejaVuSans-75" x="798.238281"/>
      <use xlink:href="#DejaVuSans-62" x="861.617188"/>
      <use xlink:href="#DejaVuSans-6c" x="925.09375"/>
      <use xlink:href="#DejaVuSans-69" x="952.876953"/>
      <use xlink:href="#DejaVuSans-73" x="980.660156"/>
      <use xlink:href="#DejaVuSans-68" x="1032.759766"/>
      <use xlink:href="#DejaVuSans-65" x="1096.138672"/>
      <use xlink:href="#DejaVuSans-64" x="1157.662109"/>
     </g>
    </g>
    <g id="patch_7">
     <path d="M 100.395781 60.323917 
L 120.395781 60.323917 
L 120.395781 53.323917 
L 100.395781 53.323917 
z
" style="fill: #fdc92c"/>
    </g>
    <g id="text_16">
     <!-- Biological role inferred -->
     <g transform="translate(128.395781 60.323917) scale(0.1 -0.1)">
      <use xlink:href="#DejaVuSans-42"/>
      <use xlink:href="#DejaVuSans-69" x="68.603516"/>
      <use xlink:href="#DejaVuSans-6f" x="96.386719"/>
      <use xlink:href="#DejaVuSans-6c" x="157.568359"/>
      <use xlink:href="#DejaVuSans-6f" x="185.351562"/>
      <use xlink:href="#DejaVuSans-67" x="246.533203"/>
      <use xlink:href="#DejaVuSans-69" x="310.009766"/>
      <use xlink:href="#DejaVuSans-63" x="337.792969"/>
      <use xlink:href="#DejaVuSans-61" x="392.773438"/>
      <use xlink:href="#DejaVuSans-6c" x="454.052734"/>
      <use xlink:href="#DejaVuSans-20" x="481.835938"/>
      <use xlink:href="#DejaVuSans-72" x="513.623047"/>
      <use xlink:href="#DejaVuSans-6f" x="552.486328"/>
      <use xlink:href="#DejaVuSans-6c" x="613.667969"/>
      <use xlink:href="#DejaVuSans-65" x="641.451172"/>
      <use xlink:href="#DejaVuSans-20" x="702.974609"/>
      <use xlink:href="#DejaVuSans-69" x="734.761719"/>
      <use xlink:href="#DejaVuSans-6e" x="762.544922"/>
      <use xlink:href="#DejaVuSans-66" x="825.923828"/>
      <use xlink:href="#DejaVuSans-65" x="861.128906"/>
      <use xlink:href="#DejaVuSans-72" x="922.652344"/>
      <use xlink:href="#DejaVuSans-72" x="962.015625"/>
      <use xlink:href="#DejaVuSans-65" x="1000.878906"/>
      <use xlink:href="#DejaVuSans-64" x="1062.402344"/>
     </g>
    </g>
    <g id="patch_8">
     <path d="M 270.512969 45.645792 
L 290.512969 45.645792 
L 290.512969 38.645792 
L 270.512969 38.645792 
z
" style="fill: #aeaeae"/>
    </g>
    <g id="text_17">
     <!-- Conserved unknown -->
     <g transform="translate(298.512969 45.645792) scale(0.1 -0.1)">
      <defs>
       <path id="DejaVuSans-43" d="M 4122 4306 
L 4122 3641 
Q 3803 3938 3442 4084 
Q 3081 4231 2675 4231 
Q 1875 4231 1450 3742 
Q 1025 3253 1025 2328 
Q 1025 1406 1450 917 
Q 1875 428 2675 428 
Q 3081 428 3442 575 
Q 3803 722 4122 1019 
L 4122 359 
Q 3791 134 3420 21 
Q 3050 -91 2638 -91 
Q 1578 -91 968 557 
Q 359 1206 359 2328 
Q 359 3453 968 4101 
Q 1578 4750 2638 4750 
Q 3056 4750 3426 4639 
Q 3797 4528 4122 4306 
z
" transform="scale(0.015625)"/>
       <path id="DejaVuSans-76" d="M 191 3500 
L 800 3500 
L 1894 563 
L 2988 3500 
L 3597 3500 
L 2284 0 
L 1503 0 
L 191 3500 
z
" transform="scale(0.015625)"/>
       <path id="DejaVuSans-6b" d="M 581 4863 
L 1159 4863 
L 1159 1991 
L 2875 3500 
L 3609 3500 
L 1753 1863 
L 3688 0 
L 2938 0 
L 1159 1709 
L 1159 0 
L 581 0 
L 581 4863 
z
" transform="scale(0.015625)"/>
       <path id="DejaVuSans-77" d="M 269 3500 
L 844 3500 
L 1563 769 
L 2278 3500 
L 2956 3500 
L 3675 769 
L 4391 3500 
L 4966 3500 
L 4050 0 
L 3372 0 
L 2619 2869 
L 1863 0 
L 1184 0 
L 269 3500 
z
" transform="scale(0.015625)"/>
      </defs>
      <use xlink:href="#DejaVuSans-43"/>
      <use xlink:href="#DejaVuSans-6f" x="69.824219"/>
      <use xlink:href="#DejaVuSans-6e" x="131.005859"/>
      <use xlink:href="#DejaVuSans-73" x="194.384766"/>
      <use xlink:href="#DejaVuSans-65" x="246.484375"/>
      <use xlink:href="#DejaVuSans-72" x="308.007812"/>
      <use xlink:href="#DejaVuSans-76" x="349.121094"/>
      <use xlink:href="#DejaVuSans-65" x="408.300781"/>
      <use xlink:href="#DejaVuSans-64" x="469.824219"/>
      <use xlink:href="#DejaVuSans-20" x="533.300781"/>
      <use xlink:href="#DejaVuSans-75" x="565.087891"/>
      <use xlink:href="#DejaVuSans-6e" x="628.466797"/>
      <use xlink:href="#DejaVuSans-6b" x="691.845703"/>
      <use xlink:href="#DejaVuSans-6e" x="749.755859"/>
      <use xlink:href="#DejaVuSans-6f" x="813.134766"/>
      <use xlink:href="#DejaVuSans-77" x="874.316406"/>
      <use xlink:href="#DejaVuSans-6e" x="956.103516"/>
     </g>
    </g>
    <g id="patch_9">
     <path d="M 270.512969 60.323917 
L 290.512969 60.323917 
L 290.512969 53.323917 
L 270.512969 53.323917 
z
" style="fill: #d5dce5"/>
    </g>
    <g id="text_18">
     <!-- Fission yeast unknown -->
     <g transform="translate(298.512969 60.323917) scale(0.1 -0.1)">
      <defs>
       <path id="DejaVuSans-46" d="M 628 4666 
L 3309 4666 
L 3309 4134 
L 1259 4134 
L 1259 2759 
L 3109 2759 
L 3109 2228 
L 1259 2228 
L 1259 0 
L 628 0 
L 628 4666 
z
" transform="scale(0.015625)"/>
       <path id="DejaVuSans-79" d="M 2059 -325 
Q 1816 -950 1584 -1140 
Q 1353 -1331 966 -1331 
L 506 -1331 
L 506 -850 
L 844 -850 
Q 1081 -850 1212 -737 
Q 1344 -625 1503 -206 
L 1606 56 
L 191 3500 
L 800 3500 
L 1894 763 
L 2988 3500 
L 3597 3500 
L 2059 -325 
z
" transform="scale(0.015625)"/>
      </defs>
      <use xlink:href="#DejaVuSans-46"/>
      <use xlink:href="#DejaVuSans-69" x="50.269531"/>
      <use xlink:href="#DejaVuSans-73" x="78.052734"/>
      <use xlink:href="#DejaVuSans-73" x="130.152344"/>
      <use xlink:href="#DejaVuSans-69" x="182.251953"/>
      <use xlink:href="#DejaVuSans-6f" x="210.035156"/>
      <use xlink:href="#DejaVuSans-6e" x="271.216797"/>
      <use xlink:href="#DejaVuSans-20" x="334.595703"/>
      <use xlink:href="#DejaVuSans-79" x="366.382812"/>
      <use xlink:href="#DejaVuSans-65" x="425.5625"/>
      <use xlink:href="#DejaVuSans-61" x="487.085938"/>
      <use xlink:href="#DejaVuSans-73" x="548.365234"/>
      <use xlink:href="#DejaVuSans-74" x="600.464844"/>
      <use xlink:href="#DejaVuSans-20" x="639.673828"/>
      <use xlink:href="#DejaVuSans-75" x="671.460938"/>
      <use xlink:href="#DejaVuSans-6e" x="734.839844"/>
      <use xlink:href="#DejaVuSans-6b" x="798.21875"/>
      <use xlink:href="#DejaVuSans-6e" x="856.128906"/>
      <use xlink:href="#DejaVuSans-6f" x="919.507812"/>
      <use xlink:href="#DejaVuSans-77" x="980.689453"/>
      <use xlink:href="#DejaVuSans-6e" x="1062.476562"/>
     </g>
    </g>
   </g>
  </g>
 </g>
 <defs>
  <clipPath id="p63982b2623">
   <rect x="61.49" y="71.403604" width="388.51" height="202.792792"/>
  </clipPath>
 </defs>
</svg>
