<?xml version="1.0" encoding="utf-8" standalone="no"?>
<!DOCTYPE svg PUBLIC "-//W3C//DTD SVG 1.1//EN"
  "http://www.w3.org/Graphics/SVG/1.1/DTD/svg11.dtd">
<svg xmlns:xlink="http://www.w3.org/1999/xlink" width="460.8pt" height="345.6pt" viewBox="0 0 460.8 345.6" xmlns="http://www.w3.org/2000/svg" version="1.1">
 <metadata>
  <rdf:RDF xmlns:dc="http://purl.org/dc/elements/1.1/" xmlns:cc="http://creativecommons.org/ns#" xmlns:rdf="http://www.w3.org/1999/02/22-rdf-syntax-ns#">
   <cc:Work>
    <dc:type rdf:resource="http://purl.org/dc/dcmitype/StillImage"/>
    <dc:date>2024-02-02T00:45:49.239247</dc:date>
    <dc:format>image/svg+xml</dc:format>
    <dc:creator>
     <cc:Agent>
      <dc:title>Matplotlib v3.7.1, https://matplotlib.org/</dc:title>
     </cc:Agent>
    </dc:creator>
   </cc:Work>
  </rdf:RDF>
 </metadata>
 <defs>
  <style type="text/css">*{stroke-linejoin: round; stroke-linecap: butt}</style>
 </defs>
 <g id="figure_1">
  <g id="patch_1">
   <path d="M 0 345.6 
L 460.8 345.6 
L 460.8 0 
L 0 0 
z
" style="fill: #ffffff"/>
  </g>
  <g id="axes_1">
   <g id="patch_2">
    <path d="M 61.49 280.574304 
L 438.913421 280.574304 
L 438.913421 67.705696 
L 61.49 67.705696 
z
" style="fill: #ffffff"/>
   </g>
   <g id="PolyCollection_1">
    <path d="M 31.250142 226.552422 
L 31.250142 280.574304 
L 39.697309 280.574304 
L 48.044509 280.574304 
L 65.18876 280.574304 
L 85.082088 280.574304 
L 99.727176 280.574304 
L 108.824125 280.574304 
L 111.173337 280.574304 
L 115.521879 280.574304 
L 117.521208 280.574304 
L 117.771125 280.574304 
L 121.070018 280.574304 
L 121.919733 280.574304 
L 122.619499 280.574304 
L 123.469214 280.574304 
L 124.019029 280.574304 
L 124.868744 280.574304 
L 125.368577 280.574304 
L 126.268275 280.574304 
L 127.467873 280.574304 
L 128.417554 280.574304 
L 128.767437 280.574304 
L 129.767101 280.574304 
L 130.466867 280.574304 
L 131.216615 280.574304 
L 132.016347 280.574304 
L 132.566163 280.574304 
L 133.065995 280.574304 
L 134.465526 280.574304 
L 135.46519 280.574304 
L 136.214939 280.574304 
L 136.414872 280.574304 
L 137.114637 280.574304 
L 138.164285 280.574304 
L 139.263916 280.574304 
L 140.013665 280.574304 
L 141.113296 280.574304 
L 142.56281 280.574304 
L 144.562139 280.574304 
L 146.311553 280.574304 
L 147.81105 280.574304 
L 150.610111 280.574304 
L 151.809709 280.574304 
L 155.058619 280.574304 
L 157.157915 280.574304 
L 158.457479 280.574304 
L 159.257211 280.574304 
L 162.406155 280.574304 
L 164.155568 280.574304 
L 165.954965 280.574304 
L 169.503775 280.574304 
L 172.802668 280.574304 
L 173.352484 280.574304 
L 174.002266 280.574304 
L 175.001931 280.574304 
L 175.801662 280.574304 
L 178.250841 280.574304 
L 183.149198 280.574304 
L 184.09888 280.574304 
L 188.697338 280.574304 
L 189.746986 280.574304 
L 190.796633 280.574304 
L 192.496064 280.574304 
L 193.895594 280.574304 
L 195.245142 280.574304 
L 196.094857 280.574304 
L 198.843935 280.574304 
L 201.692979 280.574304 
L 203.09251 280.574304 
L 204.092174 280.574304 
L 205.341755 280.574304 
L 206.391403 280.574304 
L 207.640984 280.574304 
L 210.589995 280.574304 
L 212.139476 280.574304 
L 213.638973 280.574304 
L 215.188453 280.574304 
L 216.68795 280.574304 
L 218.23743 280.574304 
L 219.786911 280.574304 
L 221.236425 280.574304 
L 222.785905 280.574304 
L 224.285402 280.574304 
L 225.834882 280.574304 
L 227.33438 280.574304 
L 228.88386 280.574304 
L 230.43334 280.574304 
L 231.932837 280.574304 
L 233.482318 280.574304 
L 234.981815 280.574304 
L 236.531295 280.574304 
L 238.080775 280.574304 
L 239.480306 280.574304 
L 241.029786 280.574304 
L 242.529284 280.574304 
L 244.078764 280.574304 
L 245.578261 280.574304 
L 247.127741 280.574304 
L 248.677222 280.574304 
L 250.176719 280.574304 
L 251.726199 280.574304 
L 253.225696 280.574304 
L 254.775177 280.574304 
L 256.324657 280.574304 
L 257.724188 280.574304 
L 259.273668 280.574304 
L 260.773165 280.574304 
L 262.322645 280.574304 
L 263.822142 280.574304 
L 265.371623 280.574304 
L 266.921103 280.574304 
L 268.4206 280.574304 
L 269.970081 280.574304 
L 271.469578 280.574304 
L 273.019058 280.574304 
L 274.568538 280.574304 
L 275.968069 280.574304 
L 277.517549 280.574304 
L 279.017046 280.574304 
L 280.566527 280.574304 
L 282.066024 280.574304 
L 283.615504 280.574304 
L 285.164984 280.574304 
L 286.664482 280.574304 
L 288.213962 280.574304 
L 289.713459 280.574304 
L 291.262939 280.574304 
L 292.81242 280.574304 
L 294.261934 280.574304 
L 295.811414 280.574304 
L 297.310911 280.574304 
L 298.860391 280.574304 
L 300.359888 280.574304 
L 301.909369 280.574304 
L 303.458849 280.574304 
L 304.958346 280.574304 
L 306.507827 280.574304 
L 308.007324 280.574304 
L 309.556804 280.574304 
L 311.106284 280.574304 
L 312.505815 280.574304 
L 314.055295 280.574304 
L 315.554792 280.574304 
L 317.104273 280.574304 
L 318.60377 280.574304 
L 320.15325 280.574304 
L 321.702731 280.574304 
L 323.202228 280.574304 
L 324.751708 280.574304 
L 326.251205 280.574304 
L 327.800685 280.574304 
L 329.350166 280.574304 
L 330.749696 280.574304 
L 332.299177 280.574304 
L 333.798674 280.574304 
L 335.348154 280.574304 
L 336.847651 280.574304 
L 338.397132 280.574304 
L 339.946612 280.574304 
L 341.446109 280.574304 
L 342.995589 280.574304 
L 344.495087 280.574304 
L 346.044567 280.574304 
L 347.594047 280.574304 
L 348.993578 280.574304 
L 350.543058 280.574304 
L 352.042555 280.574304 
L 353.592036 280.574304 
L 355.091533 280.574304 
L 356.641013 280.574304 
L 358.190493 280.574304 
L 359.68999 280.574304 
L 361.239471 280.574304 
L 362.738968 280.574304 
L 364.288448 280.574304 
L 365.837929 280.574304 
L 367.287442 280.574304 
L 368.836923 280.574304 
L 370.33642 280.574304 
L 371.8859 280.574304 
L 373.385397 280.574304 
L 374.934878 280.574304 
L 376.484358 280.574304 
L 377.983855 280.574304 
L 379.533335 280.574304 
L 381.032833 280.574304 
L 382.582313 280.574304 
L 384.131793 280.574304 
L 385.531324 280.574304 
L 387.080804 280.574304 
L 388.580301 280.574304 
L 390.129782 280.574304 
L 391.629279 280.574304 
L 393.178759 280.574304 
L 394.728239 280.574304 
L 396.227737 280.574304 
L 397.777217 280.574304 
L 399.276714 280.574304 
L 400.826194 280.574304 
L 402.375675 280.574304 
L 403.775205 280.574304 
L 405.324686 280.574304 
L 406.824183 280.574304 
L 408.373663 280.574304 
L 409.87316 280.574304 
L 411.422641 280.574304 
L 412.972121 280.574304 
L 414.471618 280.574304 
L 416.021098 280.574304 
L 417.520595 280.574304 
L 419.070076 280.574304 
L 420.619556 280.574304 
L 422.019087 280.574304 
L 423.568567 280.574304 
L 425.068064 280.574304 
L 426.617544 280.574304 
L 428.117042 280.574304 
L 429.666522 280.574304 
L 431.216002 280.574304 
L 432.715499 280.574304 
L 434.26498 280.574304 
L 435.764477 280.574304 
L 437.313957 280.574304 
L 438.863438 280.574304 
L 438.863438 179.08834 
L 438.863438 179.08834 
L 437.313957 179.2083 
L 435.764477 179.248287 
L 434.26498 179.488206 
L 432.715499 179.608166 
L 431.216002 179.648153 
L 429.666522 179.768112 
L 428.117042 180.247952 
L 426.617544 180.487871 
L 425.068064 180.607831 
L 423.568567 180.607831 
L 422.019087 180.96771 
L 420.619556 181.567509 
L 419.070076 181.527522 
L 417.520595 181.647482 
L 416.021098 181.767442 
L 414.471618 182.007361 
L 412.972121 182.007361 
L 411.422641 182.047348 
L 409.87316 182.047348 
L 408.373663 182.007361 
L 406.824183 182.087335 
L 405.324686 182.007361 
L 403.775205 181.967375 
L 402.375675 182.007361 
L 400.826194 182.007361 
L 399.276714 182.207294 
L 397.777217 182.407227 
L 396.227737 182.72712 
L 394.728239 182.96704 
L 393.178759 182.927053 
L 391.629279 183.126986 
L 390.129782 183.406892 
L 388.580301 183.406892 
L 387.080804 183.566838 
L 385.531324 184.086664 
L 384.131793 184.206624 
L 382.582313 184.646476 
L 381.032833 184.686463 
L 379.533335 184.846409 
L 377.983855 184.926382 
L 376.484358 185.086329 
L 374.934878 185.126315 
L 373.385397 185.206289 
L 371.8859 185.206289 
L 370.33642 185.286262 
L 368.836923 185.646141 
L 367.287442 185.766101 
L 365.837929 185.846074 
L 364.288448 185.926047 
L 362.738968 185.926047 
L 361.239471 185.926047 
L 359.68999 186.046007 
L 358.190493 186.12598 
L 356.641013 186.285927 
L 355.091533 186.525846 
L 353.592036 186.645806 
L 352.042555 186.725779 
L 350.543058 186.805752 
L 348.993578 186.845739 
L 347.594047 186.845739 
L 346.044567 186.885725 
L 344.495087 186.925712 
L 342.995589 187.005685 
L 341.446109 187.045672 
L 339.946612 187.045672 
L 338.397132 187.165631 
L 336.847651 187.285591 
L 335.348154 187.525511 
L 333.798674 187.685457 
L 332.299177 188.00535 
L 330.749696 188.165296 
L 329.350166 188.325243 
L 327.800685 188.365229 
L 326.251205 188.525176 
L 324.751708 188.685122 
L 323.202228 190.444532 
L 321.702731 190.724438 
L 320.15325 191.484183 
L 318.60377 190.844398 
L 317.104273 190.764425 
L 315.554792 190.804411 
L 314.055295 190.884384 
L 312.505815 191.16429 
L 311.106284 191.204277 
L 309.556804 191.28425 
L 308.007324 192.043995 
L 306.507827 192.163955 
L 304.958346 192.363888 
L 303.458849 192.443861 
L 301.909369 192.563821 
L 300.359888 193.003674 
L 298.860391 193.203606 
L 297.310911 193.203606 
L 295.811414 193.603472 
L 294.261934 193.683446 
L 292.81242 193.723432 
L 291.262939 193.923365 
L 289.713459 194.003338 
L 288.213962 194.003338 
L 286.664482 194.203271 
L 285.164984 194.243258 
L 283.615504 194.283244 
L 282.066024 194.443191 
L 280.566527 194.563151 
L 279.017046 193.963352 
L 277.517549 194.043325 
L 275.968069 194.243258 
L 274.568538 194.243258 
L 273.019058 194.483177 
L 271.469578 194.643124 
L 269.970081 194.92303 
L 268.4206 195.282909 
L 266.921103 195.602802 
L 265.371623 195.682775 
L 263.822142 195.962681 
L 262.322645 196.202601 
L 260.773165 196.56248 
L 259.273668 196.722426 
L 257.724188 196.922359 
L 256.324657 196.962346 
L 254.775177 196.962346 
L 253.225696 197.162279 
L 251.726199 197.642118 
L 250.176719 197.682105 
L 248.677222 197.922024 
L 247.127741 198.601796 
L 245.578261 198.681769 
L 244.078764 199.161608 
L 242.529284 199.481501 
L 241.029786 200.561139 
L 239.480306 200.641112 
L 238.080775 200.761072 
L 236.531295 201.040978 
L 234.981815 201.120951 
L 233.482318 201.360871 
L 231.932837 201.560804 
L 230.43334 201.920683 
L 228.88386 202.120616 
L 227.33438 202.240576 
L 225.834882 202.480495 
L 224.285402 202.520482 
L 222.785905 202.640442 
L 221.236425 202.800388 
L 219.786911 202.800388 
L 218.23743 202.880361 
L 216.68795 202.920348 
L 215.188453 202.960334 
L 213.638973 203.000321 
L 212.139476 203.040307 
L 210.589995 203.160267 
L 207.640984 203.920012 
L 206.391403 204.119945 
L 205.341755 204.159932 
L 204.092174 204.039972 
L 203.09251 204.039972 
L 201.692979 204.159932 
L 198.843935 204.279892 
L 196.094857 204.919677 
L 195.245142 205.879355 
L 193.895594 205.719409 
L 192.496064 205.679422 
L 190.796633 206.399181 
L 189.746986 206.399181 
L 188.697338 206.159261 
L 184.09888 206.679087 
L 183.149198 206.75906 
L 178.250841 207.438832 
L 175.801662 207.518806 
L 175.001931 207.358859 
L 174.002266 207.478819 
L 173.352484 207.678752 
L 172.802668 207.718738 
L 169.503775 207.838698 
L 165.954965 207.918671 
L 164.155568 208.118604 
L 162.406155 210.237894 
L 159.257211 210.15792 
L 158.457479 210.197907 
L 157.157915 210.637759 
L 155.058619 211.757384 
L 151.809709 211.997304 
L 150.610111 212.397169 
L 147.81105 212.677076 
L 146.311553 213.516794 
L 144.562139 214.076606 
L 142.56281 214.516459 
L 141.113296 214.556445 
L 140.013665 214.636418 
L 139.263916 214.676405 
L 138.164285 214.716392 
L 137.114637 215.43615 
L 136.414872 215.79603 
L 136.214939 215.79603 
L 135.46519 215.79603 
L 134.465526 216.035949 
L 133.065995 215.79603 
L 132.566163 215.995962 
L 132.016347 216.075936 
L 131.216615 216.195895 
L 130.466867 216.195895 
L 129.767101 216.515788 
L 128.767437 217.235547 
L 128.417554 217.19556 
L 127.467873 217.555439 
L 126.268275 217.635413 
L 125.368577 217.715386 
L 124.868744 217.795359 
L 124.019029 217.915319 
L 123.469214 218.155238 
L 122.619499 218.355171 
L 121.919733 218.275198 
L 121.070018 218.355171 
L 117.771125 218.635077 
L 117.521208 218.595091 
L 115.521879 218.914983 
L 111.173337 216.995627 
L 108.824125 219.834675 
L 99.727176 223.553428 
L 85.082088 227.032261 
L 65.18876 231.510759 
L 48.044509 226.352489 
L 39.697309 225.712704 
L 31.250142 226.552422 
z
" clip-path="url(#p747cc7f840)" style="fill: #fb363b"/>
   </g>
   <g id="PolyCollection_2">
    <path d="M 31.250142 144.339994 
L 31.250142 226.552422 
L 39.697309 225.712704 
L 48.044509 226.352489 
L 65.18876 231.510759 
L 85.082088 227.032261 
L 99.727176 223.553428 
L 108.824125 219.834675 
L 111.173337 216.995627 
L 115.521879 218.914983 
L 117.521208 218.595091 
L 117.771125 218.635077 
L 121.070018 218.355171 
L 121.919733 218.275198 
L 122.619499 218.355171 
L 123.469214 218.155238 
L 124.019029 217.915319 
L 124.868744 217.795359 
L 125.368577 217.715386 
L 126.268275 217.635413 
L 127.467873 217.555439 
L 128.417554 217.19556 
L 128.767437 217.235547 
L 129.767101 216.515788 
L 130.466867 216.195895 
L 131.216615 216.195895 
L 132.016347 216.075936 
L 132.566163 215.995962 
L 133.065995 215.79603 
L 134.465526 216.035949 
L 135.46519 215.79603 
L 136.214939 215.79603 
L 136.414872 215.79603 
L 137.114637 215.43615 
L 138.164285 214.716392 
L 139.263916 214.676405 
L 140.013665 214.636418 
L 141.113296 214.556445 
L 142.56281 214.516459 
L 144.562139 214.076606 
L 146.311553 213.516794 
L 147.81105 212.677076 
L 150.610111 212.397169 
L 151.809709 211.997304 
L 155.058619 211.757384 
L 157.157915 210.637759 
L 158.457479 210.197907 
L 159.257211 210.15792 
L 162.406155 210.237894 
L 164.155568 208.118604 
L 165.954965 207.918671 
L 169.503775 207.838698 
L 172.802668 207.718738 
L 173.352484 207.678752 
L 174.002266 207.478819 
L 175.001931 207.358859 
L 175.801662 207.518806 
L 178.250841 207.438832 
L 183.149198 206.75906 
L 184.09888 206.679087 
L 188.697338 206.159261 
L 189.746986 206.399181 
L 190.796633 206.399181 
L 192.496064 205.679422 
L 193.895594 205.719409 
L 195.245142 205.879355 
L 196.094857 204.919677 
L 198.843935 204.279892 
L 201.692979 204.159932 
L 203.09251 204.039972 
L 204.092174 204.039972 
L 205.341755 204.159932 
L 206.391403 204.119945 
L 207.640984 203.920012 
L 210.589995 203.160267 
L 212.139476 203.040307 
L 213.638973 203.000321 
L 215.188453 202.960334 
L 216.68795 202.920348 
L 218.23743 202.880361 
L 219.786911 202.800388 
L 221.236425 202.800388 
L 222.785905 202.640442 
L 224.285402 202.520482 
L 225.834882 202.480495 
L 227.33438 202.240576 
L 228.88386 202.120616 
L 230.43334 201.920683 
L 231.932837 201.560804 
L 233.482318 201.360871 
L 234.981815 201.120951 
L 236.531295 201.040978 
L 238.080775 200.761072 
L 239.480306 200.641112 
L 241.029786 200.561139 
L 242.529284 199.481501 
L 244.078764 199.161608 
L 245.578261 198.681769 
L 247.127741 198.601796 
L 248.677222 197.922024 
L 250.176719 197.682105 
L 251.726199 197.642118 
L 253.225696 197.162279 
L 254.775177 196.962346 
L 256.324657 196.962346 
L 257.724188 196.922359 
L 259.273668 196.722426 
L 260.773165 196.56248 
L 262.322645 196.202601 
L 263.822142 195.962681 
L 265.371623 195.682775 
L 266.921103 195.602802 
L 268.4206 195.282909 
L 269.970081 194.92303 
L 271.469578 194.643124 
L 273.019058 194.483177 
L 274.568538 194.243258 
L 275.968069 194.243258 
L 277.517549 194.043325 
L 279.017046 193.963352 
L 280.566527 194.563151 
L 282.066024 194.443191 
L 283.615504 194.283244 
L 285.164984 194.243258 
L 286.664482 194.203271 
L 288.213962 194.003338 
L 289.713459 194.003338 
L 291.262939 193.923365 
L 292.81242 193.723432 
L 294.261934 193.683446 
L 295.811414 193.603472 
L 297.310911 193.203606 
L 298.860391 193.203606 
L 300.359888 193.003674 
L 301.909369 192.563821 
L 303.458849 192.443861 
L 304.958346 192.363888 
L 306.507827 192.163955 
L 308.007324 192.043995 
L 309.556804 191.28425 
L 311.106284 191.204277 
L 312.505815 191.16429 
L 314.055295 190.884384 
L 315.554792 190.804411 
L 317.104273 190.764425 
L 318.60377 190.844398 
L 320.15325 191.484183 
L 321.702731 190.724438 
L 323.202228 190.444532 
L 324.751708 188.685122 
L 326.251205 188.525176 
L 327.800685 188.365229 
L 329.350166 188.325243 
L 330.749696 188.165296 
L 332.299177 188.00535 
L 333.798674 187.685457 
L 335.348154 187.525511 
L 336.847651 187.285591 
L 338.397132 187.165631 
L 339.946612 187.045672 
L 341.446109 187.045672 
L 342.995589 187.005685 
L 344.495087 186.925712 
L 346.044567 186.885725 
L 347.594047 186.845739 
L 348.993578 186.845739 
L 350.543058 186.805752 
L 352.042555 186.725779 
L 353.592036 186.645806 
L 355.091533 186.525846 
L 356.641013 186.285927 
L 358.190493 186.12598 
L 359.68999 186.046007 
L 361.239471 185.926047 
L 362.738968 185.926047 
L 364.288448 185.926047 
L 365.837929 185.846074 
L 367.287442 185.766101 
L 368.836923 185.646141 
L 370.33642 185.286262 
L 371.8859 185.206289 
L 373.385397 185.206289 
L 374.934878 185.126315 
L 376.484358 185.086329 
L 377.983855 184.926382 
L 379.533335 184.846409 
L 381.032833 184.686463 
L 382.582313 184.646476 
L 384.131793 184.206624 
L 385.531324 184.086664 
L 387.080804 183.566838 
L 388.580301 183.406892 
L 390.129782 183.406892 
L 391.629279 183.126986 
L 393.178759 182.927053 
L 394.728239 182.96704 
L 396.227737 182.72712 
L 397.777217 182.407227 
L 399.276714 182.207294 
L 400.826194 182.007361 
L 402.375675 182.007361 
L 403.775205 181.967375 
L 405.324686 182.007361 
L 406.824183 182.087335 
L 408.373663 182.007361 
L 409.87316 182.047348 
L 411.422641 182.047348 
L 412.972121 182.007361 
L 414.471618 182.007361 
L 416.021098 181.767442 
L 417.520595 181.647482 
L 419.070076 181.527522 
L 420.619556 181.567509 
L 422.019087 180.96771 
L 423.568567 180.607831 
L 425.068064 180.607831 
L 426.617544 180.487871 
L 428.117042 180.247952 
L 429.666522 179.768112 
L 431.216002 179.648153 
L 432.715499 179.608166 
L 434.26498 179.488206 
L 435.764477 179.248287 
L 437.313957 179.2083 
L 438.863438 179.08834 
L 438.863438 102.713955 
L 438.863438 102.713955 
L 437.313957 102.993861 
L 435.764477 102.993861 
L 434.26498 103.113821 
L 432.715499 103.273767 
L 431.216002 103.35374 
L 429.666522 103.35374 
L 428.117042 103.633646 
L 426.617544 103.873566 
L 425.068064 103.993526 
L 423.568567 103.993526 
L 422.019087 104.033512 
L 420.619556 104.193458 
L 419.070076 104.313418 
L 417.520595 104.393391 
L 416.021098 104.393391 
L 414.471618 104.433378 
L 412.972121 104.313418 
L 411.422641 104.353405 
L 409.87316 104.353405 
L 408.373663 104.553338 
L 406.824183 104.513351 
L 405.324686 104.513351 
L 403.775205 104.553338 
L 402.375675 104.633311 
L 400.826194 104.633311 
L 399.276714 104.753271 
L 397.777217 104.713284 
L 396.227737 104.833244 
L 394.728239 104.873231 
L 393.178759 104.913217 
L 391.629279 104.953204 
L 390.129782 104.99319 
L 388.580301 104.953204 
L 387.080804 105.073163 
L 385.531324 105.273096 
L 384.131793 105.433043 
L 382.582313 105.473029 
L 381.032833 105.473029 
L 379.533335 105.553003 
L 377.983855 105.592989 
L 376.484358 105.672962 
L 374.934878 105.672962 
L 373.385397 105.712949 
L 371.8859 105.752935 
L 370.33642 105.632976 
L 368.836923 105.592989 
L 367.287442 105.632976 
L 365.837929 105.553003 
L 364.288448 105.553003 
L 362.738968 105.553003 
L 361.239471 105.553003 
L 359.68999 105.553003 
L 358.190493 105.592989 
L 356.641013 105.553003 
L 355.091533 105.592989 
L 353.592036 105.592989 
L 352.042555 105.473029 
L 350.543058 105.473029 
L 348.993578 105.513016 
L 347.594047 105.513016 
L 346.044567 105.592989 
L 344.495087 105.592989 
L 342.995589 105.672962 
L 341.446109 105.672962 
L 339.946612 105.672962 
L 338.397132 105.712949 
L 336.847651 105.712949 
L 335.348154 105.712949 
L 333.798674 105.752935 
L 332.299177 105.792922 
L 330.749696 106.112815 
L 329.350166 106.232775 
L 327.800685 106.152801 
L 326.251205 106.232775 
L 324.751708 106.352734 
L 323.202228 106.392721 
L 321.702731 106.952533 
L 320.15325 107.272426 
L 318.60377 109.471688 
L 317.104273 110.711273 
L 315.554792 111.151125 
L 314.055295 111.151125 
L 312.505815 111.471018 
L 311.106284 111.391045 
L 309.556804 110.591313 
L 308.007324 110.791246 
L 306.507827 111.231098 
L 304.958346 111.231098 
L 303.458849 111.111138 
L 301.909369 111.271085 
L 300.359888 111.311071 
L 298.860391 111.311071 
L 297.310911 111.351058 
L 295.811414 111.431031 
L 294.261934 111.431031 
L 292.81242 111.471018 
L 291.262939 111.471018 
L 289.713459 111.590978 
L 288.213962 111.630964 
L 286.664482 111.670951 
L 285.164984 111.670951 
L 283.615504 111.630964 
L 282.066024 111.670951 
L 280.566527 111.630964 
L 279.017046 112.27075 
L 277.517549 112.230763 
L 275.968069 112.310736 
L 274.568538 112.390709 
L 273.019058 112.510669 
L 271.469578 112.470682 
L 269.970081 112.750589 
L 268.4206 112.870548 
L 266.921103 113.030495 
L 265.371623 113.230428 
L 263.822142 113.270414 
L 262.322645 113.190441 
L 260.773165 113.270414 
L 259.273668 113.310401 
L 257.724188 113.310401 
L 256.324657 113.310401 
L 254.775177 113.310401 
L 253.225696 113.470347 
L 251.726199 113.55032 
L 250.176719 113.79024 
L 248.677222 113.830227 
L 247.127741 114.070146 
L 245.578261 114.150119 
L 244.078764 114.390039 
L 242.529284 114.509999 
L 241.029786 114.669945 
L 239.480306 114.709931 
L 238.080775 114.749918 
L 236.531295 114.909864 
L 234.981815 114.909864 
L 233.482318 115.109797 
L 231.932837 115.389704 
L 230.43334 115.54965 
L 228.88386 115.709596 
L 227.33438 115.909529 
L 225.834882 115.989502 
L 224.285402 116.309395 
L 222.785905 116.309395 
L 221.236425 116.349382 
L 219.786911 116.349382 
L 218.23743 116.349382 
L 216.68795 116.349382 
L 215.188453 116.349382 
L 213.638973 116.389368 
L 212.139476 116.549315 
L 210.589995 116.629288 
L 207.640984 117.109127 
L 206.391403 117.708926 
L 205.341755 117.988832 
L 204.092174 117.42902 
L 203.09251 117.748912 
L 201.692979 117.868872 
L 198.843935 118.028818 
L 196.094857 118.028818 
L 195.245142 118.188765 
L 193.895594 118.70859 
L 192.496064 118.668604 
L 190.796633 119.588295 
L 189.746986 119.588295 
L 188.697338 120.028148 
L 184.09888 120.308054 
L 183.149198 120.388027 
L 178.250841 121.507652 
L 175.801662 122.507316 
L 175.001931 122.547303 
L 174.002266 122.547303 
L 173.352484 122.547303 
L 172.802668 122.58729 
L 169.503775 122.147437 
L 165.954965 122.667263 
L 164.155568 122.867196 
L 162.406155 123.067129 
L 159.257211 123.187088 
L 158.457479 123.267062 
L 157.157915 123.466995 
L 155.058619 123.786887 
L 151.809709 123.626941 
L 150.610111 123.946834 
L 147.81105 123.906847 
L 146.311553 123.826874 
L 144.562139 124.186753 
L 142.56281 124.10678 
L 141.113296 123.98682 
L 140.013665 124.266726 
L 139.263916 124.306713 
L 138.164285 123.546968 
L 137.114637 123.586954 
L 136.414872 123.746901 
L 136.214939 123.746901 
L 135.46519 123.706914 
L 134.465526 124.22674 
L 133.065995 123.666928 
L 132.566163 123.666928 
L 132.016347 123.706914 
L 131.216615 123.746901 
L 130.466867 123.546968 
L 129.767101 123.98682 
L 128.767437 124.10678 
L 128.417554 123.86686 
L 127.467873 124.026807 
L 126.268275 123.98682 
L 125.368577 124.506646 
L 124.868744 124.426673 
L 124.019029 124.426673 
L 123.469214 122.627276 
L 122.619499 123.027142 
L 121.919733 122.027477 
L 121.070018 121.787558 
L 117.771125 122.067464 
L 117.521208 121.907518 
L 115.521879 122.187424 
L 111.173337 123.98682 
L 108.824125 124.866525 
L 99.727176 126.985814 
L 85.082088 130.024795 
L 65.18876 133.903494 
L 48.044509 140.101416 
L 39.697309 144.020102 
L 31.250142 144.339994 
z
" clip-path="url(#p747cc7f840)" style="fill: #fdc92c"/>
   </g>
   <g id="PolyCollection_3">
    <path d="M 31.250142 112.830562 
L 31.250142 144.339994 
L 39.697309 144.020102 
L 48.044509 140.101416 
L 65.18876 133.903494 
L 85.082088 130.024795 
L 99.727176 126.985814 
L 108.824125 124.866525 
L 111.173337 123.98682 
L 115.521879 122.187424 
L 117.521208 121.907518 
L 117.771125 122.067464 
L 121.070018 121.787558 
L 121.919733 122.027477 
L 122.619499 123.027142 
L 123.469214 122.627276 
L 124.019029 124.426673 
L 124.868744 124.426673 
L 125.368577 124.506646 
L 126.268275 123.98682 
L 127.467873 124.026807 
L 128.417554 123.86686 
L 128.767437 124.10678 
L 129.767101 123.98682 
L 130.466867 123.546968 
L 131.216615 123.746901 
L 132.016347 123.706914 
L 132.566163 123.666928 
L 133.065995 123.666928 
L 134.465526 124.22674 
L 135.46519 123.706914 
L 136.214939 123.746901 
L 136.414872 123.746901 
L 137.114637 123.586954 
L 138.164285 123.546968 
L 139.263916 124.306713 
L 140.013665 124.266726 
L 141.113296 123.98682 
L 142.56281 124.10678 
L 144.562139 124.186753 
L 146.311553 123.826874 
L 147.81105 123.906847 
L 150.610111 123.946834 
L 151.809709 123.626941 
L 155.058619 123.786887 
L 157.157915 123.466995 
L 158.457479 123.267062 
L 159.257211 123.187088 
L 162.406155 123.067129 
L 164.155568 122.867196 
L 165.954965 122.667263 
L 169.503775 122.147437 
L 172.802668 122.58729 
L 173.352484 122.547303 
L 174.002266 122.547303 
L 175.001931 122.547303 
L 175.801662 122.507316 
L 178.250841 121.507652 
L 183.149198 120.388027 
L 184.09888 120.308054 
L 188.697338 120.028148 
L 189.746986 119.588295 
L 190.796633 119.588295 
L 192.496064 118.668604 
L 193.895594 118.70859 
L 195.245142 118.188765 
L 196.094857 118.028818 
L 198.843935 118.028818 
L 201.692979 117.868872 
L 203.09251 117.748912 
L 204.092174 117.42902 
L 205.341755 117.988832 
L 206.391403 117.708926 
L 207.640984 117.109127 
L 210.589995 116.629288 
L 212.139476 116.549315 
L 213.638973 116.389368 
L 215.188453 116.349382 
L 216.68795 116.349382 
L 218.23743 116.349382 
L 219.786911 116.349382 
L 221.236425 116.349382 
L 222.785905 116.309395 
L 224.285402 116.309395 
L 225.834882 115.989502 
L 227.33438 115.909529 
L 228.88386 115.709596 
L 230.43334 115.54965 
L 231.932837 115.389704 
L 233.482318 115.109797 
L 234.981815 114.909864 
L 236.531295 114.909864 
L 238.080775 114.749918 
L 239.480306 114.709931 
L 241.029786 114.669945 
L 242.529284 114.509999 
L 244.078764 114.390039 
L 245.578261 114.150119 
L 247.127741 114.070146 
L 248.677222 113.830227 
L 250.176719 113.79024 
L 251.726199 113.55032 
L 253.225696 113.470347 
L 254.775177 113.310401 
L 256.324657 113.310401 
L 257.724188 113.310401 
L 259.273668 113.310401 
L 260.773165 113.270414 
L 262.322645 113.190441 
L 263.822142 113.270414 
L 265.371623 113.230428 
L 266.921103 113.030495 
L 268.4206 112.870548 
L 269.970081 112.750589 
L 271.469578 112.470682 
L 273.019058 112.510669 
L 274.568538 112.390709 
L 275.968069 112.310736 
L 277.517549 112.230763 
L 279.017046 112.27075 
L 280.566527 111.630964 
L 282.066024 111.670951 
L 283.615504 111.630964 
L 285.164984 111.670951 
L 286.664482 111.670951 
L 288.213962 111.630964 
L 289.713459 111.590978 
L 291.262939 111.471018 
L 292.81242 111.471018 
L 294.261934 111.431031 
L 295.811414 111.431031 
L 297.310911 111.351058 
L 298.860391 111.311071 
L 300.359888 111.311071 
L 301.909369 111.271085 
L 303.458849 111.111138 
L 304.958346 111.231098 
L 306.507827 111.231098 
L 308.007324 110.791246 
L 309.556804 110.591313 
L 311.106284 111.391045 
L 312.505815 111.471018 
L 314.055295 111.151125 
L 315.554792 111.151125 
L 317.104273 110.711273 
L 318.60377 109.471688 
L 320.15325 107.272426 
L 321.702731 106.952533 
L 323.202228 106.392721 
L 324.751708 106.352734 
L 326.251205 106.232775 
L 327.800685 106.152801 
L 329.350166 106.232775 
L 330.749696 106.112815 
L 332.299177 105.792922 
L 333.798674 105.752935 
L 335.348154 105.712949 
L 336.847651 105.712949 
L 338.397132 105.712949 
L 339.946612 105.672962 
L 341.446109 105.672962 
L 342.995589 105.672962 
L 344.495087 105.592989 
L 346.044567 105.592989 
L 347.594047 105.513016 
L 348.993578 105.513016 
L 350.543058 105.473029 
L 352.042555 105.473029 
L 353.592036 105.592989 
L 355.091533 105.592989 
L 356.641013 105.553003 
L 358.190493 105.592989 
L 359.68999 105.553003 
L 361.239471 105.553003 
L 362.738968 105.553003 
L 364.288448 105.553003 
L 365.837929 105.553003 
L 367.287442 105.632976 
L 368.836923 105.592989 
L 370.33642 105.632976 
L 371.8859 105.752935 
L 373.385397 105.712949 
L 374.934878 105.672962 
L 376.484358 105.672962 
L 377.983855 105.592989 
L 379.533335 105.553003 
L 381.032833 105.473029 
L 382.582313 105.473029 
L 384.131793 105.433043 
L 385.531324 105.273096 
L 387.080804 105.073163 
L 388.580301 104.953204 
L 390.129782 104.99319 
L 391.629279 104.953204 
L 393.178759 104.913217 
L 394.728239 104.873231 
L 396.227737 104.833244 
L 397.777217 104.713284 
L 399.276714 104.753271 
L 400.826194 104.633311 
L 402.375675 104.633311 
L 403.775205 104.553338 
L 405.324686 104.513351 
L 406.824183 104.513351 
L 408.373663 104.553338 
L 409.87316 104.353405 
L 411.422641 104.353405 
L 412.972121 104.313418 
L 414.471618 104.433378 
L 416.021098 104.393391 
L 417.520595 104.393391 
L 419.070076 104.313418 
L 420.619556 104.193458 
L 422.019087 104.033512 
L 423.568567 103.993526 
L 425.068064 103.993526 
L 426.617544 103.873566 
L 428.117042 103.633646 
L 429.666522 103.35374 
L 431.216002 103.35374 
L 432.715499 103.273767 
L 434.26498 103.113821 
L 435.764477 102.993861 
L 437.313957 102.993861 
L 438.863438 102.713955 
L 438.863438 88.758635 
L 438.863438 88.758635 
L 437.313957 88.758635 
L 435.764477 88.758635 
L 434.26498 88.798622 
L 432.715499 88.798622 
L 431.216002 88.798622 
L 429.666522 88.798622 
L 428.117042 88.878595 
L 426.617544 88.878595 
L 425.068064 88.878595 
L 423.568567 88.878595 
L 422.019087 88.878595 
L 420.619556 88.918581 
L 419.070076 88.918581 
L 417.520595 88.998555 
L 416.021098 88.998555 
L 414.471618 89.038541 
L 412.972121 89.038541 
L 411.422641 89.038541 
L 409.87316 89.038541 
L 408.373663 89.118514 
L 406.824183 89.198487 
L 405.324686 89.198487 
L 403.775205 89.198487 
L 402.375675 89.198487 
L 400.826194 89.198487 
L 399.276714 89.238474 
L 397.777217 89.198487 
L 396.227737 89.278461 
L 394.728239 89.278461 
L 393.178759 89.278461 
L 391.629279 89.318447 
L 390.129782 89.318447 
L 388.580301 89.318447 
L 387.080804 89.358434 
L 385.531324 89.39842 
L 384.131793 89.438407 
L 382.582313 89.438407 
L 381.032833 89.39842 
L 379.533335 89.39842 
L 377.983855 89.39842 
L 376.484358 89.358434 
L 374.934878 89.358434 
L 373.385397 89.39842 
L 371.8859 89.39842 
L 370.33642 89.318447 
L 368.836923 89.278461 
L 367.287442 89.278461 
L 365.837929 89.318447 
L 364.288448 89.318447 
L 362.738968 89.318447 
L 361.239471 89.318447 
L 359.68999 89.318447 
L 358.190493 89.318447 
L 356.641013 89.318447 
L 355.091533 89.318447 
L 353.592036 89.318447 
L 352.042555 89.238474 
L 350.543058 89.238474 
L 348.993578 89.238474 
L 347.594047 89.238474 
L 346.044567 89.198487 
L 344.495087 89.198487 
L 342.995589 89.278461 
L 341.446109 89.278461 
L 339.946612 89.278461 
L 338.397132 89.318447 
L 336.847651 89.318447 
L 335.348154 89.318447 
L 333.798674 89.358434 
L 332.299177 89.39842 
L 330.749696 89.478394 
L 329.350166 89.478394 
L 327.800685 89.478394 
L 326.251205 89.63834 
L 324.751708 89.63834 
L 323.202228 89.63834 
L 321.702731 89.51838 
L 320.15325 89.558367 
L 318.60377 89.7583 
L 317.104273 90.717978 
L 315.554792 90.877924 
L 314.055295 90.917911 
L 312.505815 90.957897 
L 311.106284 90.957897 
L 309.556804 90.957897 
L 308.007324 90.957897 
L 306.507827 90.997884 
L 304.958346 90.997884 
L 303.458849 91.037871 
L 301.909369 91.077857 
L 300.359888 91.117844 
L 298.860391 91.117844 
L 297.310911 91.117844 
L 295.811414 91.117844 
L 294.261934 91.117844 
L 292.81242 91.15783 
L 291.262939 91.15783 
L 289.713459 91.197817 
L 288.213962 91.237804 
L 286.664482 91.237804 
L 285.164984 91.237804 
L 283.615504 91.237804 
L 282.066024 91.237804 
L 280.566527 91.237804 
L 279.017046 91.237804 
L 277.517549 91.237804 
L 275.968069 91.317777 
L 274.568538 91.317777 
L 273.019058 91.317777 
L 271.469578 91.357763 
L 269.970081 91.357763 
L 268.4206 91.39775 
L 266.921103 91.557696 
L 265.371623 92.517374 
L 263.822142 92.517374 
L 262.322645 92.517374 
L 260.773165 92.597348 
L 259.273668 92.597348 
L 257.724188 92.597348 
L 256.324657 92.597348 
L 254.775177 92.597348 
L 253.225696 92.597348 
L 251.726199 92.677321 
L 250.176719 92.597348 
L 248.677222 92.637334 
L 247.127741 92.717307 
L 245.578261 92.797281 
L 244.078764 92.997213 
L 242.529284 93.0372 
L 241.029786 93.0372 
L 239.480306 93.0372 
L 238.080775 93.0372 
L 236.531295 93.117173 
L 234.981815 93.117173 
L 233.482318 93.197146 
L 231.932837 93.197146 
L 230.43334 93.077187 
L 228.88386 93.15716 
L 227.33438 93.15716 
L 225.834882 93.15716 
L 224.285402 93.197146 
L 222.785905 93.197146 
L 221.236425 93.197146 
L 219.786911 93.237133 
L 218.23743 93.237133 
L 216.68795 93.27712 
L 215.188453 93.237133 
L 213.638973 93.237133 
L 212.139476 93.317106 
L 210.589995 93.357093 
L 207.640984 93.636999 
L 206.391403 94.236798 
L 205.341755 94.516704 
L 204.092174 93.876918 
L 203.09251 94.396744 
L 201.692979 94.436731 
L 198.843935 95.356422 
L 196.094857 95.356422 
L 195.245142 95.316436 
L 193.895594 95.476382 
L 192.496064 95.476382 
L 190.796633 95.556355 
L 189.746986 95.556355 
L 188.697338 95.596342 
L 184.09888 95.756288 
L 183.149198 95.756288 
L 178.250841 96.795939 
L 175.801662 96.915899 
L 175.001931 96.955886 
L 174.002266 97.075846 
L 173.352484 97.075846 
L 172.802668 97.075846 
L 169.503775 97.075846 
L 165.954965 97.315765 
L 164.155568 97.435725 
L 162.406155 97.475711 
L 159.257211 97.555685 
L 158.457479 97.675644 
L 157.157915 97.875577 
L 155.058619 98.115497 
L 151.809709 98.275443 
L 150.610111 98.915229 
L 147.81105 98.955215 
L 146.311553 99.235121 
L 144.562139 99.555014 
L 142.56281 99.634987 
L 141.113296 99.634987 
L 140.013665 99.634987 
L 139.263916 99.634987 
L 138.164285 99.794934 
L 137.114637 99.95488 
L 136.414872 100.07484 
L 136.214939 100.07484 
L 135.46519 100.034853 
L 134.465526 100.594665 
L 133.065995 100.114826 
L 132.566163 100.114826 
L 132.016347 100.1948 
L 131.216615 100.1948 
L 130.466867 100.1948 
L 129.767101 100.794598 
L 128.767437 100.794598 
L 128.417554 100.314759 
L 127.467873 100.914558 
L 126.268275 102.034183 
L 125.368577 102.953874 
L 124.868744 102.993861 
L 124.019029 102.993861 
L 123.469214 103.033847 
L 122.619499 103.633646 
L 121.919733 103.073834 
L 121.070018 103.073834 
L 117.771125 103.35374 
L 117.521208 103.393727 
L 115.521879 103.433713 
L 111.173337 100.794598 
L 108.824125 103.59366 
L 99.727176 105.513016 
L 85.082088 107.472359 
L 65.18876 108.831903 
L 48.044509 110.871219 
L 39.697309 113.270414 
L 31.250142 112.830562 
z
" clip-path="url(#p747cc7f840)" style="fill: #aeaeae"/>
   </g>
   <g id="PolyCollection_4">
    <path d="M 31.250142 88.558702 
L 31.250142 112.830562 
L 39.697309 113.270414 
L 48.044509 110.871219 
L 65.18876 108.831903 
L 85.082088 107.472359 
L 99.727176 105.513016 
L 108.824125 103.59366 
L 111.173337 100.794598 
L 115.521879 103.433713 
L 117.521208 103.393727 
L 117.771125 103.35374 
L 121.070018 103.073834 
L 121.919733 103.073834 
L 122.619499 103.633646 
L 123.469214 103.033847 
L 124.019029 102.993861 
L 124.868744 102.993861 
L 125.368577 102.953874 
L 126.268275 102.034183 
L 127.467873 100.914558 
L 128.417554 100.314759 
L 128.767437 100.794598 
L 129.767101 100.794598 
L 130.466867 100.1948 
L 131.216615 100.1948 
L 132.016347 100.1948 
L 132.566163 100.114826 
L 133.065995 100.114826 
L 134.465526 100.594665 
L 135.46519 100.034853 
L 136.214939 100.07484 
L 136.414872 100.07484 
L 137.114637 99.95488 
L 138.164285 99.794934 
L 139.263916 99.634987 
L 140.013665 99.634987 
L 141.113296 99.634987 
L 142.56281 99.634987 
L 144.562139 99.555014 
L 146.311553 99.235121 
L 147.81105 98.955215 
L 150.610111 98.915229 
L 151.809709 98.275443 
L 155.058619 98.115497 
L 157.157915 97.875577 
L 158.457479 97.675644 
L 159.257211 97.555685 
L 162.406155 97.475711 
L 164.155568 97.435725 
L 165.954965 97.315765 
L 169.503775 97.075846 
L 172.802668 97.075846 
L 173.352484 97.075846 
L 174.002266 97.075846 
L 175.001931 96.955886 
L 175.801662 96.915899 
L 178.250841 96.795939 
L 183.149198 95.756288 
L 184.09888 95.756288 
L 188.697338 95.596342 
L 189.746986 95.556355 
L 190.796633 95.556355 
L 192.496064 95.476382 
L 193.895594 95.476382 
L 195.245142 95.316436 
L 196.094857 95.356422 
L 198.843935 95.356422 
L 201.692979 94.436731 
L 203.09251 94.396744 
L 204.092174 93.876918 
L 205.341755 94.516704 
L 206.391403 94.236798 
L 207.640984 93.636999 
L 210.589995 93.357093 
L 212.139476 93.317106 
L 213.638973 93.237133 
L 215.188453 93.237133 
L 216.68795 93.27712 
L 218.23743 93.237133 
L 219.786911 93.237133 
L 221.236425 93.197146 
L 222.785905 93.197146 
L 224.285402 93.197146 
L 225.834882 93.15716 
L 227.33438 93.15716 
L 228.88386 93.15716 
L 230.43334 93.077187 
L 231.932837 93.197146 
L 233.482318 93.197146 
L 234.981815 93.117173 
L 236.531295 93.117173 
L 238.080775 93.0372 
L 239.480306 93.0372 
L 241.029786 93.0372 
L 242.529284 93.0372 
L 244.078764 92.997213 
L 245.578261 92.797281 
L 247.127741 92.717307 
L 248.677222 92.637334 
L 250.176719 92.597348 
L 251.726199 92.677321 
L 253.225696 92.597348 
L 254.775177 92.597348 
L 256.324657 92.597348 
L 257.724188 92.597348 
L 259.273668 92.597348 
L 260.773165 92.597348 
L 262.322645 92.517374 
L 263.822142 92.517374 
L 265.371623 92.517374 
L 266.921103 91.557696 
L 268.4206 91.39775 
L 269.970081 91.357763 
L 271.469578 91.357763 
L 273.019058 91.317777 
L 274.568538 91.317777 
L 275.968069 91.317777 
L 277.517549 91.237804 
L 279.017046 91.237804 
L 280.566527 91.237804 
L 282.066024 91.237804 
L 283.615504 91.237804 
L 285.164984 91.237804 
L 286.664482 91.237804 
L 288.213962 91.237804 
L 289.713459 91.197817 
L 291.262939 91.15783 
L 292.81242 91.15783 
L 294.261934 91.117844 
L 295.811414 91.117844 
L 297.310911 91.117844 
L 298.860391 91.117844 
L 300.359888 91.117844 
L 301.909369 91.077857 
L 303.458849 91.037871 
L 304.958346 90.997884 
L 306.507827 90.997884 
L 308.007324 90.957897 
L 309.556804 90.957897 
L 311.106284 90.957897 
L 312.505815 90.957897 
L 314.055295 90.917911 
L 315.554792 90.877924 
L 317.104273 90.717978 
L 318.60377 89.7583 
L 320.15325 89.558367 
L 321.702731 89.51838 
L 323.202228 89.63834 
L 324.751708 89.63834 
L 326.251205 89.63834 
L 327.800685 89.478394 
L 329.350166 89.478394 
L 330.749696 89.478394 
L 332.299177 89.39842 
L 333.798674 89.358434 
L 335.348154 89.318447 
L 336.847651 89.318447 
L 338.397132 89.318447 
L 339.946612 89.278461 
L 341.446109 89.278461 
L 342.995589 89.278461 
L 344.495087 89.198487 
L 346.044567 89.198487 
L 347.594047 89.238474 
L 348.993578 89.238474 
L 350.543058 89.238474 
L 352.042555 89.238474 
L 353.592036 89.318447 
L 355.091533 89.318447 
L 356.641013 89.318447 
L 358.190493 89.318447 
L 359.68999 89.318447 
L 361.239471 89.318447 
L 362.738968 89.318447 
L 364.288448 89.318447 
L 365.837929 89.318447 
L 367.287442 89.278461 
L 368.836923 89.278461 
L 370.33642 89.318447 
L 371.8859 89.39842 
L 373.385397 89.39842 
L 374.934878 89.358434 
L 376.484358 89.358434 
L 377.983855 89.39842 
L 379.533335 89.39842 
L 381.032833 89.39842 
L 382.582313 89.438407 
L 384.131793 89.438407 
L 385.531324 89.39842 
L 387.080804 89.358434 
L 388.580301 89.318447 
L 390.129782 89.318447 
L 391.629279 89.318447 
L 393.178759 89.278461 
L 394.728239 89.278461 
L 396.227737 89.278461 
L 397.777217 89.198487 
L 399.276714 89.238474 
L 400.826194 89.198487 
L 402.375675 89.198487 
L 403.775205 89.198487 
L 405.324686 89.198487 
L 406.824183 89.198487 
L 408.373663 89.118514 
L 409.87316 89.038541 
L 411.422641 89.038541 
L 412.972121 89.038541 
L 414.471618 89.038541 
L 416.021098 88.998555 
L 417.520595 88.998555 
L 419.070076 88.918581 
L 420.619556 88.918581 
L 422.019087 88.878595 
L 423.568567 88.878595 
L 425.068064 88.878595 
L 426.617544 88.878595 
L 428.117042 88.878595 
L 429.666522 88.798622 
L 431.216002 88.798622 
L 432.715499 88.798622 
L 434.26498 88.798622 
L 435.764477 88.758635 
L 437.313957 88.758635 
L 438.863438 88.758635 
L 438.863438 78.362122 
L 438.863438 78.362122 
L 437.313957 78.362122 
L 435.764477 78.362122 
L 434.26498 78.362122 
L 432.715499 78.362122 
L 431.216002 78.362122 
L 429.666522 78.362122 
L 428.117042 78.362122 
L 426.617544 78.362122 
L 425.068064 78.362122 
L 423.568567 78.362122 
L 422.019087 78.362122 
L 420.619556 78.562055 
L 419.070076 78.602041 
L 417.520595 78.642028 
L 416.021098 78.642028 
L 414.471618 78.642028 
L 412.972121 78.642028 
L 411.422641 78.642028 
L 409.87316 78.642028 
L 408.373663 78.642028 
L 406.824183 78.642028 
L 405.324686 78.642028 
L 403.775205 78.682014 
L 402.375675 78.642028 
L 400.826194 78.642028 
L 399.276714 78.682014 
L 397.777217 78.402108 
L 396.227737 78.402108 
L 394.728239 78.042229 
L 393.178759 78.042229 
L 391.629279 78.042229 
L 390.129782 78.042229 
L 388.580301 78.042229 
L 387.080804 78.042229 
L 385.531324 78.082216 
L 384.131793 78.082216 
L 382.582313 78.082216 
L 381.032833 78.042229 
L 379.533335 78.042229 
L 377.983855 78.042229 
L 376.484358 78.082216 
L 374.934878 78.082216 
L 373.385397 78.082216 
L 371.8859 78.082216 
L 370.33642 78.002242 
L 368.836923 77.962256 
L 367.287442 77.962256 
L 365.837929 77.962256 
L 364.288448 77.962256 
L 362.738968 77.962256 
L 361.239471 77.962256 
L 359.68999 77.962256 
L 358.190493 77.962256 
L 356.641013 77.962256 
L 355.091533 77.962256 
L 353.592036 77.962256 
L 352.042555 77.882283 
L 350.543058 77.882283 
L 348.993578 77.882283 
L 347.594047 77.882283 
L 346.044567 77.882283 
L 344.495087 77.882283 
L 342.995589 77.882283 
L 341.446109 77.882283 
L 339.946612 77.882283 
L 338.397132 77.842296 
L 336.847651 77.842296 
L 335.348154 77.842296 
L 333.798674 77.842296 
L 332.299177 77.842296 
L 330.749696 77.842296 
L 329.350166 77.842296 
L 327.800685 77.842296 
L 326.251205 77.842296 
L 324.751708 77.842296 
L 323.202228 77.842296 
L 321.702731 77.842296 
L 320.15325 77.842296 
L 318.60377 77.842296 
L 317.104273 77.842296 
L 315.554792 77.842296 
L 314.055295 77.842296 
L 312.505815 77.842296 
L 311.106284 77.842296 
L 309.556804 77.842296 
L 308.007324 77.842296 
L 306.507827 77.842296 
L 304.958346 77.842296 
L 303.458849 77.842296 
L 301.909369 77.842296 
L 300.359888 77.842296 
L 298.860391 77.842296 
L 297.310911 77.842296 
L 295.811414 77.842296 
L 294.261934 78.202175 
L 292.81242 78.242162 
L 291.262939 78.242162 
L 289.713459 78.242162 
L 288.213962 78.402108 
L 286.664482 78.402108 
L 285.164984 78.402108 
L 283.615504 78.402108 
L 282.066024 78.402108 
L 280.566527 78.402108 
L 279.017046 78.402108 
L 277.517549 78.402108 
L 275.968069 78.402108 
L 274.568538 78.402108 
L 273.019058 78.402108 
L 271.469578 78.442095 
L 269.970081 78.442095 
L 268.4206 78.442095 
L 266.921103 78.442095 
L 265.371623 78.162189 
L 263.822142 78.322135 
L 262.322645 78.282149 
L 260.773165 78.282149 
L 259.273668 78.282149 
L 257.724188 78.282149 
L 256.324657 78.282149 
L 254.775177 78.282149 
L 253.225696 78.282149 
L 251.726199 78.322135 
L 250.176719 78.322135 
L 248.677222 78.322135 
L 247.127741 78.282149 
L 245.578261 78.282149 
L 244.078764 78.282149 
L 242.529284 78.282149 
L 241.029786 78.282149 
L 239.480306 78.282149 
L 238.080775 78.282149 
L 236.531295 78.282149 
L 234.981815 78.282149 
L 233.482318 78.282149 
L 231.932837 78.322135 
L 230.43334 78.282149 
L 228.88386 78.322135 
L 227.33438 78.282149 
L 225.834882 78.282149 
L 224.285402 78.282149 
L 222.785905 78.282149 
L 221.236425 78.282149 
L 219.786911 78.282149 
L 218.23743 78.322135 
L 216.68795 78.322135 
L 215.188453 78.282149 
L 213.638973 78.282149 
L 212.139476 78.282149 
L 210.589995 78.362122 
L 207.640984 78.642028 
L 206.391403 79.3218 
L 205.341755 79.401773 
L 204.092174 78.761988 
L 203.09251 80.321465 
L 201.692979 80.321465 
L 198.843935 81.760982 
L 196.094857 81.760982 
L 195.245142 81.720995 
L 193.895594 81.880942 
L 192.496064 81.840955 
L 190.796633 81.840955 
L 189.746986 81.840955 
L 188.697338 81.840955 
L 184.09888 82.160848 
L 183.149198 82.160848 
L 178.250841 82.360781 
L 175.801662 82.320794 
L 175.001931 82.320794 
L 174.002266 82.400767 
L 173.352484 82.400767 
L 172.802668 82.400767 
L 169.503775 82.96058 
L 165.954965 83.080539 
L 164.155568 83.080539 
L 162.406155 83.080539 
L 159.257211 83.080539 
L 158.457479 83.040553 
L 157.157915 83.040553 
L 155.058619 82.920593 
L 151.809709 82.880606 
L 150.610111 83.920258 
L 147.81105 84.040217 
L 146.311553 84.160177 
L 144.562139 84.040217 
L 142.56281 84.040217 
L 141.113296 84.000231 
L 140.013665 84.000231 
L 139.263916 84.000231 
L 138.164285 83.960244 
L 137.114637 83.960244 
L 136.414872 84.000231 
L 136.214939 84.000231 
L 135.46519 84.000231 
L 134.465526 84.440083 
L 133.065995 84.000231 
L 132.566163 84.000231 
L 132.016347 84.040217 
L 131.216615 83.960244 
L 130.466867 83.960244 
L 129.767101 84.36011 
L 128.767437 84.280137 
L 128.417554 83.840284 
L 127.467873 84.400097 
L 126.268275 84.24015 
L 125.368577 84.280137 
L 124.868744 84.280137 
L 124.019029 84.280137 
L 123.469214 84.320124 
L 122.619499 84.839949 
L 121.919733 84.280137 
L 121.070018 84.280137 
L 117.771125 85.279802 
L 117.521208 85.319788 
L 115.521879 85.279802 
L 111.173337 84.36011 
L 108.824125 85.279802 
L 99.727176 86.079533 
L 85.082088 86.519386 
L 65.18876 87.239145 
L 48.044509 87.678997 
L 39.697309 88.718648 
L 31.250142 88.558702 
z
" clip-path="url(#p747cc7f840)" style="fill: #d5dce5"/>
   </g>
   <g id="matplotlib.axis_1">
    <g id="xtick_1">
     <g id="line2d_1">
      <defs>
       <path id="m005a4e8d28" d="M 0 0 
L 0 3.5 
" style="stroke: #000000; stroke-width: 0.8"/>
      </defs>
      <g>
       <use xlink:href="#m005a4e8d28" x="72.186413" y="280.574304" style="stroke: #000000; stroke-width: 0.8"/>
      </g>
     </g>
     <g id="text_1">
      <!-- 2004 -->
      <g transform="translate(59.461413 295.172742) scale(0.1 -0.1)">
       <defs>
        <path id="DejaVuSans-32" d="M 1228 531 
L 3431 531 
L 3431 0 
L 469 0 
L 469 531 
Q 828 903 1448 1529 
Q 2069 2156 2228 2338 
Q 2531 2678 2651 2914 
Q 2772 3150 2772 3378 
Q 2772 3750 2511 3984 
Q 2250 4219 1831 4219 
Q 1534 4219 1204 4116 
Q 875 4013 500 3803 
L 500 4441 
Q 881 4594 1212 4672 
Q 1544 4750 1819 4750 
Q 2544 4750 2975 4387 
Q 3406 4025 3406 3419 
Q 3406 3131 3298 2873 
Q 3191 2616 2906 2266 
Q 2828 2175 2409 1742 
Q 1991 1309 1228 531 
z
" transform="scale(0.015625)"/>
        <path id="DejaVuSans-30" d="M 2034 4250 
Q 1547 4250 1301 3770 
Q 1056 3291 1056 2328 
Q 1056 1369 1301 889 
Q 1547 409 2034 409 
Q 2525 409 2770 889 
Q 3016 1369 3016 2328 
Q 3016 3291 2770 3770 
Q 2525 4250 2034 4250 
z
M 2034 4750 
Q 2819 4750 3233 4129 
Q 3647 3509 3647 2328 
Q 3647 1150 3233 529 
Q 2819 -91 2034 -91 
Q 1250 -91 836 529 
Q 422 1150 422 2328 
Q 422 3509 836 4129 
Q 1250 4750 2034 4750 
z
" transform="scale(0.015625)"/>
        <path id="DejaVuSans-34" d="M 2419 4116 
L 825 1625 
L 2419 1625 
L 2419 4116 
z
M 2253 4666 
L 3047 4666 
L 3047 1625 
L 3713 1625 
L 3713 1100 
L 3047 1100 
L 3047 0 
L 2419 0 
L 2419 1100 
L 313 1100 
L 313 1709 
L 2253 4666 
z
" transform="scale(0.015625)"/>
       </defs>
       <use xlink:href="#DejaVuSans-32"/>
       <use xlink:href="#DejaVuSans-30" x="63.623047"/>
       <use xlink:href="#DejaVuSans-30" x="127.246094"/>
       <use xlink:href="#DejaVuSans-34" x="190.869141"/>
      </g>
     </g>
    </g>
    <g id="xtick_2">
     <g id="line2d_2">
      <g>
       <use xlink:href="#m005a4e8d28" x="108.724159" y="280.574304" style="stroke: #000000; stroke-width: 0.8"/>
      </g>
     </g>
     <g id="text_2">
      <!-- 2006 -->
      <g transform="translate(95.999159 295.172742) scale(0.1 -0.1)">
       <defs>
        <path id="DejaVuSans-36" d="M 2113 2584 
Q 1688 2584 1439 2293 
Q 1191 2003 1191 1497 
Q 1191 994 1439 701 
Q 1688 409 2113 409 
Q 2538 409 2786 701 
Q 3034 994 3034 1497 
Q 3034 2003 2786 2293 
Q 2538 2584 2113 2584 
z
M 3366 4563 
L 3366 3988 
Q 3128 4100 2886 4159 
Q 2644 4219 2406 4219 
Q 1781 4219 1451 3797 
Q 1122 3375 1075 2522 
Q 1259 2794 1537 2939 
Q 1816 3084 2150 3084 
Q 2853 3084 3261 2657 
Q 3669 2231 3669 1497 
Q 3669 778 3244 343 
Q 2819 -91 2113 -91 
Q 1303 -91 875 529 
Q 447 1150 447 2328 
Q 447 3434 972 4092 
Q 1497 4750 2381 4750 
Q 2619 4750 2861 4703 
Q 3103 4656 3366 4563 
z
" transform="scale(0.015625)"/>
       </defs>
       <use xlink:href="#DejaVuSans-32"/>
       <use xlink:href="#DejaVuSans-30" x="63.623047"/>
       <use xlink:href="#DejaVuSans-30" x="127.246094"/>
       <use xlink:href="#DejaVuSans-36" x="190.869141"/>
      </g>
     </g>
    </g>
    <g id="xtick_3">
     <g id="line2d_3">
      <g>
       <use xlink:href="#m005a4e8d28" x="145.211922" y="280.574304" style="stroke: #000000; stroke-width: 0.8"/>
      </g>
     </g>
     <g id="text_3">
      <!-- 2008 -->
      <g transform="translate(132.486922 295.172742) scale(0.1 -0.1)">
       <defs>
        <path id="DejaVuSans-38" d="M 2034 2216 
Q 1584 2216 1326 1975 
Q 1069 1734 1069 1313 
Q 1069 891 1326 650 
Q 1584 409 2034 409 
Q 2484 409 2743 651 
Q 3003 894 3003 1313 
Q 3003 1734 2745 1975 
Q 2488 2216 2034 2216 
z
M 1403 2484 
Q 997 2584 770 2862 
Q 544 3141 544 3541 
Q 544 4100 942 4425 
Q 1341 4750 2034 4750 
Q 2731 4750 3128 4425 
Q 3525 4100 3525 3541 
Q 3525 3141 3298 2862 
Q 3072 2584 2669 2484 
Q 3125 2378 3379 2068 
Q 3634 1759 3634 1313 
Q 3634 634 3220 271 
Q 2806 -91 2034 -91 
Q 1263 -91 848 271 
Q 434 634 434 1313 
Q 434 1759 690 2068 
Q 947 2378 1403 2484 
z
M 1172 3481 
Q 1172 3119 1398 2916 
Q 1625 2713 2034 2713 
Q 2441 2713 2670 2916 
Q 2900 3119 2900 3481 
Q 2900 3844 2670 4047 
Q 2441 4250 2034 4250 
Q 1625 4250 1398 4047 
Q 1172 3844 1172 3481 
z
" transform="scale(0.015625)"/>
       </defs>
       <use xlink:href="#DejaVuSans-32"/>
       <use xlink:href="#DejaVuSans-30" x="63.623047"/>
       <use xlink:href="#DejaVuSans-30" x="127.246094"/>
       <use xlink:href="#DejaVuSans-38" x="190.869141"/>
      </g>
     </g>
    </g>
    <g id="xtick_4">
     <g id="line2d_4">
      <g>
       <use xlink:href="#m005a4e8d28" x="181.749668" y="280.574304" style="stroke: #000000; stroke-width: 0.8"/>
      </g>
     </g>
     <g id="text_4">
      <!-- 2010 -->
      <g transform="translate(169.024668 295.172742) scale(0.1 -0.1)">
       <defs>
        <path id="DejaVuSans-31" d="M 794 531 
L 1825 531 
L 1825 4091 
L 703 3866 
L 703 4441 
L 1819 4666 
L 2450 4666 
L 2450 531 
L 3481 531 
L 3481 0 
L 794 0 
L 794 531 
z
" transform="scale(0.015625)"/>
       </defs>
       <use xlink:href="#DejaVuSans-32"/>
       <use xlink:href="#DejaVuSans-30" x="63.623047"/>
       <use xlink:href="#DejaVuSans-31" x="127.246094"/>
       <use xlink:href="#DejaVuSans-30" x="190.869141"/>
      </g>
     </g>
    </g>
    <g id="xtick_5">
     <g id="line2d_5">
      <g>
       <use xlink:href="#m005a4e8d28" x="218.23743" y="280.574304" style="stroke: #000000; stroke-width: 0.8"/>
      </g>
     </g>
     <g id="text_5">
      <!-- 2012 -->
      <g transform="translate(205.51243 295.172742) scale(0.1 -0.1)">
       <use xlink:href="#DejaVuSans-32"/>
       <use xlink:href="#DejaVuSans-30" x="63.623047"/>
       <use xlink:href="#DejaVuSans-31" x="127.246094"/>
       <use xlink:href="#DejaVuSans-32" x="190.869141"/>
      </g>
     </g>
    </g>
    <g id="xtick_6">
     <g id="line2d_6">
      <g>
       <use xlink:href="#m005a4e8d28" x="254.775177" y="280.574304" style="stroke: #000000; stroke-width: 0.8"/>
      </g>
     </g>
     <g id="text_6">
      <!-- 2014 -->
      <g transform="translate(242.050177 295.172742) scale(0.1 -0.1)">
       <use xlink:href="#DejaVuSans-32"/>
       <use xlink:href="#DejaVuSans-30" x="63.623047"/>
       <use xlink:href="#DejaVuSans-31" x="127.246094"/>
       <use xlink:href="#DejaVuSans-34" x="190.869141"/>
      </g>
     </g>
    </g>
    <g id="xtick_7">
     <g id="line2d_7">
      <g>
       <use xlink:href="#m005a4e8d28" x="291.262939" y="280.574304" style="stroke: #000000; stroke-width: 0.8"/>
      </g>
     </g>
     <g id="text_7">
      <!-- 2016 -->
      <g transform="translate(278.537939 295.172742) scale(0.1 -0.1)">
       <use xlink:href="#DejaVuSans-32"/>
       <use xlink:href="#DejaVuSans-30" x="63.623047"/>
       <use xlink:href="#DejaVuSans-31" x="127.246094"/>
       <use xlink:href="#DejaVuSans-36" x="190.869141"/>
      </g>
     </g>
    </g>
    <g id="xtick_8">
     <g id="line2d_8">
      <g>
       <use xlink:href="#m005a4e8d28" x="327.800685" y="280.574304" style="stroke: #000000; stroke-width: 0.8"/>
      </g>
     </g>
     <g id="text_8">
      <!-- 2018 -->
      <g transform="translate(315.075685 295.172742) scale(0.1 -0.1)">
       <use xlink:href="#DejaVuSans-32"/>
       <use xlink:href="#DejaVuSans-30" x="63.623047"/>
       <use xlink:href="#DejaVuSans-31" x="127.246094"/>
       <use xlink:href="#DejaVuSans-38" x="190.869141"/>
      </g>
     </g>
    </g>
    <g id="xtick_9">
     <g id="line2d_9">
      <g>
       <use xlink:href="#m005a4e8d28" x="364.288448" y="280.574304" style="stroke: #000000; stroke-width: 0.8"/>
      </g>
     </g>
     <g id="text_9">
      <!-- 2020 -->
      <g transform="translate(351.563448 295.172742) scale(0.1 -0.1)">
       <use xlink:href="#DejaVuSans-32"/>
       <use xlink:href="#DejaVuSans-30" x="63.623047"/>
       <use xlink:href="#DejaVuSans-32" x="127.246094"/>
       <use xlink:href="#DejaVuSans-30" x="190.869141"/>
      </g>
     </g>
    </g>
    <g id="xtick_10">
     <g id="line2d_10">
      <g>
       <use xlink:href="#m005a4e8d28" x="400.826194" y="280.574304" style="stroke: #000000; stroke-width: 0.8"/>
      </g>
     </g>
     <g id="text_10">
      <!-- 2022 -->
      <g transform="translate(388.101194 295.172742) scale(0.1 -0.1)">
       <use xlink:href="#DejaVuSans-32"/>
       <use xlink:href="#DejaVuSans-30" x="63.623047"/>
       <use xlink:href="#DejaVuSans-32" x="127.246094"/>
       <use xlink:href="#DejaVuSans-32" x="190.869141"/>
      </g>
     </g>
    </g>
    <g id="xtick_11">
     <g id="line2d_11">
      <g>
       <use xlink:href="#m005a4e8d28" x="437.313957" y="280.574304" style="stroke: #000000; stroke-width: 0.8"/>
      </g>
     </g>
     <g id="text_11">
      <!-- 2024 -->
      <g transform="translate(424.588957 295.172742) scale(0.1 -0.1)">
       <use xlink:href="#DejaVuSans-32"/>
       <use xlink:href="#DejaVuSans-30" x="63.623047"/>
       <use xlink:href="#DejaVuSans-32" x="127.246094"/>
       <use xlink:href="#DejaVuSans-34" x="190.869141"/>
      </g>
     </g>
    </g>
    <g id="text_12">
     <!-- Year -->
     <g transform="translate(234.32046 312.650086) scale(0.15 -0.15)">
      <defs>
       <path id="DejaVuSans-59" d="M -13 4666 
L 666 4666 
L 1959 2747 
L 3244 4666 
L 3922 4666 
L 2272 2222 
L 2272 0 
L 1638 0 
L 1638 2222 
L -13 4666 
z
" transform="scale(0.015625)"/>
       <path id="DejaVuSans-65" d="M 3597 1894 
L 3597 1613 
L 953 1613 
Q 991 1019 1311 708 
Q 1631 397 2203 397 
Q 2534 397 2845 478 
Q 3156 559 3463 722 
L 3463 178 
Q 3153 47 2828 -22 
Q 2503 -91 2169 -91 
Q 1331 -91 842 396 
Q 353 884 353 1716 
Q 353 2575 817 3079 
Q 1281 3584 2069 3584 
Q 2775 3584 3186 3129 
Q 3597 2675 3597 1894 
z
M 3022 2063 
Q 3016 2534 2758 2815 
Q 2500 3097 2075 3097 
Q 1594 3097 1305 2825 
Q 1016 2553 972 2059 
L 3022 2063 
z
" transform="scale(0.015625)"/>
       <path id="DejaVuSans-61" d="M 2194 1759 
Q 1497 1759 1228 1600 
Q 959 1441 959 1056 
Q 959 750 1161 570 
Q 1363 391 1709 391 
Q 2188 391 2477 730 
Q 2766 1069 2766 1631 
L 2766 1759 
L 2194 1759 
z
M 3341 1997 
L 3341 0 
L 2766 0 
L 2766 531 
Q 2569 213 2275 61 
Q 1981 -91 1556 -91 
Q 1019 -91 701 211 
Q 384 513 384 1019 
Q 384 1609 779 1909 
Q 1175 2209 1959 2209 
L 2766 2209 
L 2766 2266 
Q 2766 2663 2505 2880 
Q 2244 3097 1772 3097 
Q 1472 3097 1187 3025 
Q 903 2953 641 2809 
L 641 3341 
Q 956 3463 1253 3523 
Q 1550 3584 1831 3584 
Q 2591 3584 2966 3190 
Q 3341 2797 3341 1997 
z
" transform="scale(0.015625)"/>
       <path id="DejaVuSans-72" d="M 2631 2963 
Q 2534 3019 2420 3045 
Q 2306 3072 2169 3072 
Q 1681 3072 1420 2755 
Q 1159 2438 1159 1844 
L 1159 0 
L 581 0 
L 581 3500 
L 1159 3500 
L 1159 2956 
Q 1341 3275 1631 3429 
Q 1922 3584 2338 3584 
Q 2397 3584 2469 3576 
Q 2541 3569 2628 3553 
L 2631 2963 
z
" transform="scale(0.015625)"/>
      </defs>
      <use xlink:href="#DejaVuSans-59"/>
      <use xlink:href="#DejaVuSans-65" x="47.833984"/>
      <use xlink:href="#DejaVuSans-61" x="109.357422"/>
      <use xlink:href="#DejaVuSans-72" x="170.636719"/>
     </g>
    </g>
   </g>
   <g id="matplotlib.axis_2">
    <g id="ytick_1">
     <g id="line2d_12">
      <defs>
       <path id="mc3f2bb439d" d="M 0 0 
L -3.5 0 
" style="stroke: #000000; stroke-width: 0.8"/>
      </defs>
      <g>
       <use xlink:href="#mc3f2bb439d" x="61.49" y="280.574304" style="stroke: #000000; stroke-width: 0.8"/>
      </g>
     </g>
     <g id="text_13">
      <!-- 0 -->
      <g transform="translate(48.1275 284.373523) scale(0.1 -0.1)">
       <use xlink:href="#DejaVuSans-30"/>
      </g>
     </g>
    </g>
    <g id="ytick_2">
     <g id="line2d_13">
      <g>
       <use xlink:href="#mc3f2bb439d" x="61.49" y="240.587715" style="stroke: #000000; stroke-width: 0.8"/>
      </g>
     </g>
     <g id="text_14">
      <!-- 1000 -->
      <g transform="translate(29.04 244.386934) scale(0.1 -0.1)">
       <use xlink:href="#DejaVuSans-31"/>
       <use xlink:href="#DejaVuSans-30" x="63.623047"/>
       <use xlink:href="#DejaVuSans-30" x="127.246094"/>
       <use xlink:href="#DejaVuSans-30" x="190.869141"/>
      </g>
     </g>
    </g>
    <g id="ytick_3">
     <g id="line2d_14">
      <g>
       <use xlink:href="#mc3f2bb439d" x="61.49" y="200.601126" style="stroke: #000000; stroke-width: 0.8"/>
      </g>
     </g>
     <g id="text_15">
      <!-- 2000 -->
      <g transform="translate(29.04 204.400344) scale(0.1 -0.1)">
       <use xlink:href="#DejaVuSans-32"/>
       <use xlink:href="#DejaVuSans-30" x="63.623047"/>
       <use xlink:href="#DejaVuSans-30" x="127.246094"/>
       <use xlink:href="#DejaVuSans-30" x="190.869141"/>
      </g>
     </g>
    </g>
    <g id="ytick_4">
     <g id="line2d_15">
      <g>
       <use xlink:href="#mc3f2bb439d" x="61.49" y="160.614536" style="stroke: #000000; stroke-width: 0.8"/>
      </g>
     </g>
     <g id="text_16">
      <!-- 3000 -->
      <g transform="translate(29.04 164.413755) scale(0.1 -0.1)">
       <defs>
        <path id="DejaVuSans-33" d="M 2597 2516 
Q 3050 2419 3304 2112 
Q 3559 1806 3559 1356 
Q 3559 666 3084 287 
Q 2609 -91 1734 -91 
Q 1441 -91 1130 -33 
Q 819 25 488 141 
L 488 750 
Q 750 597 1062 519 
Q 1375 441 1716 441 
Q 2309 441 2620 675 
Q 2931 909 2931 1356 
Q 2931 1769 2642 2001 
Q 2353 2234 1838 2234 
L 1294 2234 
L 1294 2753 
L 1863 2753 
Q 2328 2753 2575 2939 
Q 2822 3125 2822 3475 
Q 2822 3834 2567 4026 
Q 2313 4219 1838 4219 
Q 1578 4219 1281 4162 
Q 984 4106 628 3988 
L 628 4550 
Q 988 4650 1302 4700 
Q 1616 4750 1894 4750 
Q 2613 4750 3031 4423 
Q 3450 4097 3450 3541 
Q 3450 3153 3228 2886 
Q 3006 2619 2597 2516 
z
" transform="scale(0.015625)"/>
       </defs>
       <use xlink:href="#DejaVuSans-33"/>
       <use xlink:href="#DejaVuSans-30" x="63.623047"/>
       <use xlink:href="#DejaVuSans-30" x="127.246094"/>
       <use xlink:href="#DejaVuSans-30" x="190.869141"/>
      </g>
     </g>
    </g>
    <g id="ytick_5">
     <g id="line2d_16">
      <g>
       <use xlink:href="#mc3f2bb439d" x="61.49" y="120.627947" style="stroke: #000000; stroke-width: 0.8"/>
      </g>
     </g>
     <g id="text_17">
      <!-- 4000 -->
      <g transform="translate(29.04 124.427165) scale(0.1 -0.1)">
       <use xlink:href="#DejaVuSans-34"/>
       <use xlink:href="#DejaVuSans-30" x="63.623047"/>
       <use xlink:href="#DejaVuSans-30" x="127.246094"/>
       <use xlink:href="#DejaVuSans-30" x="190.869141"/>
      </g>
     </g>
    </g>
    <g id="ytick_6">
     <g id="line2d_17">
      <g>
       <use xlink:href="#mc3f2bb439d" x="61.49" y="80.641357" style="stroke: #000000; stroke-width: 0.8"/>
      </g>
     </g>
     <g id="text_18">
      <!-- 5000 -->
      <g transform="translate(29.04 84.440576) scale(0.1 -0.1)">
       <defs>
        <path id="DejaVuSans-35" d="M 691 4666 
L 3169 4666 
L 3169 4134 
L 1269 4134 
L 1269 2991 
Q 1406 3038 1543 3061 
Q 1681 3084 1819 3084 
Q 2600 3084 3056 2656 
Q 3513 2228 3513 1497 
Q 3513 744 3044 326 
Q 2575 -91 1722 -91 
Q 1428 -91 1123 -41 
Q 819 9 494 109 
L 494 744 
Q 775 591 1075 516 
Q 1375 441 1709 441 
Q 2250 441 2565 725 
Q 2881 1009 2881 1497 
Q 2881 1984 2565 2268 
Q 2250 2553 1709 2553 
Q 1456 2553 1204 2497 
Q 953 2441 691 2322 
L 691 4666 
z
" transform="scale(0.015625)"/>
       </defs>
       <use xlink:href="#DejaVuSans-35"/>
       <use xlink:href="#DejaVuSans-30" x="63.623047"/>
       <use xlink:href="#DejaVuSans-30" x="127.246094"/>
       <use xlink:href="#DejaVuSans-30" x="190.869141"/>
      </g>
     </g>
    </g>
    <g id="text_19">
     <!-- Number of proteins -->
     <g transform="translate(21.920469 246.829062) rotate(-90) scale(0.15 -0.15)">
      <defs>
       <path id="DejaVuSans-4e" d="M 628 4666 
L 1478 4666 
L 3547 763 
L 3547 4666 
L 4159 4666 
L 4159 0 
L 3309 0 
L 1241 3903 
L 1241 0 
L 628 0 
L 628 4666 
z
" transform="scale(0.015625)"/>
       <path id="DejaVuSans-75" d="M 544 1381 
L 544 3500 
L 1119 3500 
L 1119 1403 
Q 1119 906 1312 657 
Q 1506 409 1894 409 
Q 2359 409 2629 706 
Q 2900 1003 2900 1516 
L 2900 3500 
L 3475 3500 
L 3475 0 
L 2900 0 
L 2900 538 
Q 2691 219 2414 64 
Q 2138 -91 1772 -91 
Q 1169 -91 856 284 
Q 544 659 544 1381 
z
M 1991 3584 
L 1991 3584 
z
" transform="scale(0.015625)"/>
       <path id="DejaVuSans-6d" d="M 3328 2828 
Q 3544 3216 3844 3400 
Q 4144 3584 4550 3584 
Q 5097 3584 5394 3201 
Q 5691 2819 5691 2113 
L 5691 0 
L 5113 0 
L 5113 2094 
Q 5113 2597 4934 2840 
Q 4756 3084 4391 3084 
Q 3944 3084 3684 2787 
Q 3425 2491 3425 1978 
L 3425 0 
L 2847 0 
L 2847 2094 
Q 2847 2600 2669 2842 
Q 2491 3084 2119 3084 
Q 1678 3084 1418 2786 
Q 1159 2488 1159 1978 
L 1159 0 
L 581 0 
L 581 3500 
L 1159 3500 
L 1159 2956 
Q 1356 3278 1631 3431 
Q 1906 3584 2284 3584 
Q 2666 3584 2933 3390 
Q 3200 3197 3328 2828 
z
" transform="scale(0.015625)"/>
       <path id="DejaVuSans-62" d="M 3116 1747 
Q 3116 2381 2855 2742 
Q 2594 3103 2138 3103 
Q 1681 3103 1420 2742 
Q 1159 2381 1159 1747 
Q 1159 1113 1420 752 
Q 1681 391 2138 391 
Q 2594 391 2855 752 
Q 3116 1113 3116 1747 
z
M 1159 2969 
Q 1341 3281 1617 3432 
Q 1894 3584 2278 3584 
Q 2916 3584 3314 3078 
Q 3713 2572 3713 1747 
Q 3713 922 3314 415 
Q 2916 -91 2278 -91 
Q 1894 -91 1617 61 
Q 1341 213 1159 525 
L 1159 0 
L 581 0 
L 581 4863 
L 1159 4863 
L 1159 2969 
z
" transform="scale(0.015625)"/>
       <path id="DejaVuSans-20" transform="scale(0.015625)"/>
       <path id="DejaVuSans-6f" d="M 1959 3097 
Q 1497 3097 1228 2736 
Q 959 2375 959 1747 
Q 959 1119 1226 758 
Q 1494 397 1959 397 
Q 2419 397 2687 759 
Q 2956 1122 2956 1747 
Q 2956 2369 2687 2733 
Q 2419 3097 1959 3097 
z
M 1959 3584 
Q 2709 3584 3137 3096 
Q 3566 2609 3566 1747 
Q 3566 888 3137 398 
Q 2709 -91 1959 -91 
Q 1206 -91 779 398 
Q 353 888 353 1747 
Q 353 2609 779 3096 
Q 1206 3584 1959 3584 
z
" transform="scale(0.015625)"/>
       <path id="DejaVuSans-66" d="M 2375 4863 
L 2375 4384 
L 1825 4384 
Q 1516 4384 1395 4259 
Q 1275 4134 1275 3809 
L 1275 3500 
L 2222 3500 
L 2222 3053 
L 1275 3053 
L 1275 0 
L 697 0 
L 697 3053 
L 147 3053 
L 147 3500 
L 697 3500 
L 697 3744 
Q 697 4328 969 4595 
Q 1241 4863 1831 4863 
L 2375 4863 
z
" transform="scale(0.015625)"/>
       <path id="DejaVuSans-70" d="M 1159 525 
L 1159 -1331 
L 581 -1331 
L 581 3500 
L 1159 3500 
L 1159 2969 
Q 1341 3281 1617 3432 
Q 1894 3584 2278 3584 
Q 2916 3584 3314 3078 
Q 3713 2572 3713 1747 
Q 3713 922 3314 415 
Q 2916 -91 2278 -91 
Q 1894 -91 1617 61 
Q 1341 213 1159 525 
z
M 3116 1747 
Q 3116 2381 2855 2742 
Q 2594 3103 2138 3103 
Q 1681 3103 1420 2742 
Q 1159 2381 1159 1747 
Q 1159 1113 1420 752 
Q 1681 391 2138 391 
Q 2594 391 2855 752 
Q 3116 1113 3116 1747 
z
" transform="scale(0.015625)"/>
       <path id="DejaVuSans-74" d="M 1172 4494 
L 1172 3500 
L 2356 3500 
L 2356 3053 
L 1172 3053 
L 1172 1153 
Q 1172 725 1289 603 
Q 1406 481 1766 481 
L 2356 481 
L 2356 0 
L 1766 0 
Q 1100 0 847 248 
Q 594 497 594 1153 
L 594 3053 
L 172 3053 
L 172 3500 
L 594 3500 
L 594 4494 
L 1172 4494 
z
" transform="scale(0.015625)"/>
       <path id="DejaVuSans-69" d="M 603 3500 
L 1178 3500 
L 1178 0 
L 603 0 
L 603 3500 
z
M 603 4863 
L 1178 4863 
L 1178 4134 
L 603 4134 
L 603 4863 
z
" transform="scale(0.015625)"/>
       <path id="DejaVuSans-6e" d="M 3513 2113 
L 3513 0 
L 2938 0 
L 2938 2094 
Q 2938 2591 2744 2837 
Q 2550 3084 2163 3084 
Q 1697 3084 1428 2787 
Q 1159 2491 1159 1978 
L 1159 0 
L 581 0 
L 581 3500 
L 1159 3500 
L 1159 2956 
Q 1366 3272 1645 3428 
Q 1925 3584 2291 3584 
Q 2894 3584 3203 3211 
Q 3513 2838 3513 2113 
z
" transform="scale(0.015625)"/>
       <path id="DejaVuSans-73" d="M 2834 3397 
L 2834 2853 
Q 2591 2978 2328 3040 
Q 2066 3103 1784 3103 
Q 1356 3103 1142 2972 
Q 928 2841 928 2578 
Q 928 2378 1081 2264 
Q 1234 2150 1697 2047 
L 1894 2003 
Q 2506 1872 2764 1633 
Q 3022 1394 3022 966 
Q 3022 478 2636 193 
Q 2250 -91 1575 -91 
Q 1294 -91 989 -36 
Q 684 19 347 128 
L 347 722 
Q 666 556 975 473 
Q 1284 391 1588 391 
Q 1994 391 2212 530 
Q 2431 669 2431 922 
Q 2431 1156 2273 1281 
Q 2116 1406 1581 1522 
L 1381 1569 
Q 847 1681 609 1914 
Q 372 2147 372 2553 
Q 372 3047 722 3315 
Q 1072 3584 1716 3584 
Q 2034 3584 2315 3537 
Q 2597 3491 2834 3397 
z
" transform="scale(0.015625)"/>
      </defs>
      <use xlink:href="#DejaVuSans-4e"/>
      <use xlink:href="#DejaVuSans-75" x="74.804688"/>
      <use xlink:href="#DejaVuSans-6d" x="138.183594"/>
      <use xlink:href="#DejaVuSans-62" x="235.595703"/>
      <use xlink:href="#DejaVuSans-65" x="299.072266"/>
      <use xlink:href="#DejaVuSans-72" x="360.595703"/>
      <use xlink:href="#DejaVuSans-20" x="401.708984"/>
      <use xlink:href="#DejaVuSans-6f" x="433.496094"/>
      <use xlink:href="#DejaVuSans-66" x="494.677734"/>
      <use xlink:href="#DejaVuSans-20" x="529.882812"/>
      <use xlink:href="#DejaVuSans-70" x="561.669922"/>
      <use xlink:href="#DejaVuSans-72" x="625.146484"/>
      <use xlink:href="#DejaVuSans-6f" x="664.009766"/>
      <use xlink:href="#DejaVuSans-74" x="725.191406"/>
      <use xlink:href="#DejaVuSans-65" x="764.400391"/>
      <use xlink:href="#DejaVuSans-69" x="825.923828"/>
      <use xlink:href="#DejaVuSans-6e" x="853.707031"/>
      <use xlink:href="#DejaVuSans-73" x="917.085938"/>
     </g>
    </g>
   </g>
   <g id="patch_3">
    <path d="M 61.49 280.574304 
L 61.49 67.705696 
" style="fill: none; stroke: #000000; stroke-width: 0.8; stroke-linejoin: miter; stroke-linecap: square"/>
   </g>
   <g id="patch_4">
    <path d="M 61.49 280.574304 
L 438.913421 280.574304 
" style="fill: none; stroke: #000000; stroke-width: 0.8; stroke-linejoin: miter; stroke-linecap: square"/>
   </g>
   <g id="legend_1">
    <g id="patch_5">
     <path d="M 123.211867 62.705696 
L 377.191554 62.705696 
Q 379.191554 62.705696 379.191554 60.705696 
L 379.191554 32.349446 
Q 379.191554 30.349446 377.191554 30.349446 
L 123.211867 30.349446 
Q 121.211867 30.349446 121.211867 32.349446 
L 121.211867 60.705696 
Q 121.211867 62.705696 123.211867 62.705696 
z
" style="fill: #ffffff; opacity: 0.8; stroke: #cccccc; stroke-linejoin: miter"/>
    </g>
    <g id="patch_6">
     <path d="M 125.211867 41.947883 
L 145.211867 41.947883 
L 145.211867 34.947883 
L 125.211867 34.947883 
z
" style="fill: #fb363b"/>
    </g>
    <g id="text_20">
     <!-- Published -->
     <g transform="translate(153.211867 41.947883) scale(0.1 -0.1)">
      <defs>
       <path id="DejaVuSans-50" d="M 1259 4147 
L 1259 2394 
L 2053 2394 
Q 2494 2394 2734 2622 
Q 2975 2850 2975 3272 
Q 2975 3691 2734 3919 
Q 2494 4147 2053 4147 
L 1259 4147 
z
M 628 4666 
L 2053 4666 
Q 2838 4666 3239 4311 
Q 3641 3956 3641 3272 
Q 3641 2581 3239 2228 
Q 2838 1875 2053 1875 
L 1259 1875 
L 1259 0 
L 628 0 
L 628 4666 
z
" transform="scale(0.015625)"/>
       <path id="DejaVuSans-6c" d="M 603 4863 
L 1178 4863 
L 1178 0 
L 603 0 
L 603 4863 
z
" transform="scale(0.015625)"/>
       <path id="DejaVuSans-68" d="M 3513 2113 
L 3513 0 
L 2938 0 
L 2938 2094 
Q 2938 2591 2744 2837 
Q 2550 3084 2163 3084 
Q 1697 3084 1428 2787 
Q 1159 2491 1159 1978 
L 1159 0 
L 581 0 
L 581 4863 
L 1159 4863 
L 1159 2956 
Q 1366 3272 1645 3428 
Q 1925 3584 2291 3584 
Q 2894 3584 3203 3211 
Q 3513 2838 3513 2113 
z
" transform="scale(0.015625)"/>
       <path id="DejaVuSans-64" d="M 2906 2969 
L 2906 4863 
L 3481 4863 
L 3481 0 
L 2906 0 
L 2906 525 
Q 2725 213 2448 61 
Q 2172 -91 1784 -91 
Q 1150 -91 751 415 
Q 353 922 353 1747 
Q 353 2572 751 3078 
Q 1150 3584 1784 3584 
Q 2172 3584 2448 3432 
Q 2725 3281 2906 2969 
z
M 947 1747 
Q 947 1113 1208 752 
Q 1469 391 1925 391 
Q 2381 391 2643 752 
Q 2906 1113 2906 1747 
Q 2906 2381 2643 2742 
Q 2381 3103 1925 3103 
Q 1469 3103 1208 2742 
Q 947 2381 947 1747 
z
" transform="scale(0.015625)"/>
      </defs>
      <use xlink:href="#DejaVuSans-50"/>
      <use xlink:href="#DejaVuSans-75" x="58.552734"/>
      <use xlink:href="#DejaVuSans-62" x="121.931641"/>
      <use xlink:href="#DejaVuSans-6c" x="185.408203"/>
      <use xlink:href="#DejaVuSans-69" x="213.191406"/>
      <use xlink:href="#DejaVuSans-73" x="240.974609"/>
      <use xlink:href="#DejaVuSans-68" x="293.074219"/>
      <use xlink:href="#DejaVuSans-65" x="356.453125"/>
      <use xlink:href="#DejaVuSans-64" x="417.976562"/>
     </g>
    </g>
    <g id="patch_7">
     <path d="M 125.211867 56.626008 
L 145.211867 56.626008 
L 145.211867 49.626008 
L 125.211867 49.626008 
z
" style="fill: #fdc92c"/>
    </g>
    <g id="text_21">
     <!-- Inferred role -->
     <g transform="translate(153.211867 56.626008) scale(0.1 -0.1)">
      <defs>
       <path id="DejaVuSans-49" d="M 628 4666 
L 1259 4666 
L 1259 0 
L 628 0 
L 628 4666 
z
" transform="scale(0.015625)"/>
      </defs>
      <use xlink:href="#DejaVuSans-49"/>
      <use xlink:href="#DejaVuSans-6e" x="29.492188"/>
      <use xlink:href="#DejaVuSans-66" x="92.871094"/>
      <use xlink:href="#DejaVuSans-65" x="128.076172"/>
      <use xlink:href="#DejaVuSans-72" x="189.599609"/>
      <use xlink:href="#DejaVuSans-72" x="228.962891"/>
      <use xlink:href="#DejaVuSans-65" x="267.826172"/>
      <use xlink:href="#DejaVuSans-64" x="329.349609"/>
      <use xlink:href="#DejaVuSans-20" x="392.826172"/>
      <use xlink:href="#DejaVuSans-72" x="424.613281"/>
      <use xlink:href="#DejaVuSans-6f" x="463.476562"/>
      <use xlink:href="#DejaVuSans-6c" x="524.658203"/>
      <use xlink:href="#DejaVuSans-65" x="552.441406"/>
     </g>
    </g>
    <g id="patch_8">
     <path d="M 234.610304 41.947883 
L 254.610304 41.947883 
L 254.610304 34.947883 
L 234.610304 34.947883 
z
" style="fill: #aeaeae"/>
    </g>
    <g id="text_22">
     <!-- Conserved unknown -->
     <g transform="translate(262.610304 41.947883) scale(0.1 -0.1)">
      <defs>
       <path id="DejaVuSans-43" d="M 4122 4306 
L 4122 3641 
Q 3803 3938 3442 4084 
Q 3081 4231 2675 4231 
Q 1875 4231 1450 3742 
Q 1025 3253 1025 2328 
Q 1025 1406 1450 917 
Q 1875 428 2675 428 
Q 3081 428 3442 575 
Q 3803 722 4122 1019 
L 4122 359 
Q 3791 134 3420 21 
Q 3050 -91 2638 -91 
Q 1578 -91 968 557 
Q 359 1206 359 2328 
Q 359 3453 968 4101 
Q 1578 4750 2638 4750 
Q 3056 4750 3426 4639 
Q 3797 4528 4122 4306 
z
" transform="scale(0.015625)"/>
       <path id="DejaVuSans-76" d="M 191 3500 
L 800 3500 
L 1894 563 
L 2988 3500 
L 3597 3500 
L 2284 0 
L 1503 0 
L 191 3500 
z
" transform="scale(0.015625)"/>
       <path id="DejaVuSans-6b" d="M 581 4863 
L 1159 4863 
L 1159 1991 
L 2875 3500 
L 3609 3500 
L 1753 1863 
L 3688 0 
L 2938 0 
L 1159 1709 
L 1159 0 
L 581 0 
L 581 4863 
z
" transform="scale(0.015625)"/>
       <path id="DejaVuSans-77" d="M 269 3500 
L 844 3500 
L 1563 769 
L 2278 3500 
L 2956 3500 
L 3675 769 
L 4391 3500 
L 4966 3500 
L 4050 0 
L 3372 0 
L 2619 2869 
L 1863 0 
L 1184 0 
L 269 3500 
z
" transform="scale(0.015625)"/>
      </defs>
      <use xlink:href="#DejaVuSans-43"/>
      <use xlink:href="#DejaVuSans-6f" x="69.824219"/>
      <use xlink:href="#DejaVuSans-6e" x="131.005859"/>
      <use xlink:href="#DejaVuSans-73" x="194.384766"/>
      <use xlink:href="#DejaVuSans-65" x="246.484375"/>
      <use xlink:href="#DejaVuSans-72" x="308.007812"/>
      <use xlink:href="#DejaVuSans-76" x="349.121094"/>
      <use xlink:href="#DejaVuSans-65" x="408.300781"/>
      <use xlink:href="#DejaVuSans-64" x="469.824219"/>
      <use xlink:href="#DejaVuSans-20" x="533.300781"/>
      <use xlink:href="#DejaVuSans-75" x="565.087891"/>
      <use xlink:href="#DejaVuSans-6e" x="628.466797"/>
      <use xlink:href="#DejaVuSans-6b" x="691.845703"/>
      <use xlink:href="#DejaVuSans-6e" x="749.755859"/>
      <use xlink:href="#DejaVuSans-6f" x="813.134766"/>
      <use xlink:href="#DejaVuSans-77" x="874.316406"/>
      <use xlink:href="#DejaVuSans-6e" x="956.103516"/>
     </g>
    </g>
    <g id="patch_9">
     <path d="M 234.610304 56.626008 
L 254.610304 56.626008 
L 254.610304 49.626008 
L 234.610304 49.626008 
z
" style="fill: #d5dce5"/>
    </g>
    <g id="text_23">
     <!-- Fission yeast unknown -->
     <g transform="translate(262.610304 56.626008) scale(0.1 -0.1)">
      <defs>
       <path id="DejaVuSans-46" d="M 628 4666 
L 3309 4666 
L 3309 4134 
L 1259 4134 
L 1259 2759 
L 3109 2759 
L 3109 2228 
L 1259 2228 
L 1259 0 
L 628 0 
L 628 4666 
z
" transform="scale(0.015625)"/>
       <path id="DejaVuSans-79" d="M 2059 -325 
Q 1816 -950 1584 -1140 
Q 1353 -1331 966 -1331 
L 506 -1331 
L 506 -850 
L 844 -850 
Q 1081 -850 1212 -737 
Q 1344 -625 1503 -206 
L 1606 56 
L 191 3500 
L 800 3500 
L 1894 763 
L 2988 3500 
L 3597 3500 
L 2059 -325 
z
" transform="scale(0.015625)"/>
      </defs>
      <use xlink:href="#DejaVuSans-46"/>
      <use xlink:href="#DejaVuSans-69" x="50.269531"/>
      <use xlink:href="#DejaVuSans-73" x="78.052734"/>
      <use xlink:href="#DejaVuSans-73" x="130.152344"/>
      <use xlink:href="#DejaVuSans-69" x="182.251953"/>
      <use xlink:href="#DejaVuSans-6f" x="210.035156"/>
      <use xlink:href="#DejaVuSans-6e" x="271.216797"/>
      <use xlink:href="#DejaVuSans-20" x="334.595703"/>
      <use xlink:href="#DejaVuSans-79" x="366.382812"/>
      <use xlink:href="#DejaVuSans-65" x="425.5625"/>
      <use xlink:href="#DejaVuSans-61" x="487.085938"/>
      <use xlink:href="#DejaVuSans-73" x="548.365234"/>
      <use xlink:href="#DejaVuSans-74" x="600.464844"/>
      <use xlink:href="#DejaVuSans-20" x="639.673828"/>
      <use xlink:href="#DejaVuSans-75" x="671.460938"/>
      <use xlink:href="#DejaVuSans-6e" x="734.839844"/>
      <use xlink:href="#DejaVuSans-6b" x="798.21875"/>
      <use xlink:href="#DejaVuSans-6e" x="856.128906"/>
      <use xlink:href="#DejaVuSans-6f" x="919.507812"/>
      <use xlink:href="#DejaVuSans-77" x="980.689453"/>
      <use xlink:href="#DejaVuSans-6e" x="1062.476562"/>
     </g>
    </g>
   </g>
  </g>
 </g>
 <defs>
  <clipPath id="p747cc7f840">
   <rect x="61.49" y="67.705696" width="377.423421" height="212.868609"/>
  </clipPath>
 </defs>
</svg>
