<?xml version="1.0" encoding="utf-8" standalone="no"?>
<!DOCTYPE svg PUBLIC "-//W3C//DTD SVG 1.1//EN"
  "http://www.w3.org/Graphics/SVG/1.1/DTD/svg11.dtd">
<svg xmlns:xlink="http://www.w3.org/1999/xlink" width="460.8pt" height="345.6pt" viewBox="0 0 460.8 345.6" xmlns="http://www.w3.org/2000/svg" version="1.1">
 <metadata>
  <rdf:RDF xmlns:dc="http://purl.org/dc/elements/1.1/" xmlns:cc="http://creativecommons.org/ns#" xmlns:rdf="http://www.w3.org/1999/02/22-rdf-syntax-ns#">
   <cc:Work>
    <dc:type rdf:resource="http://purl.org/dc/dcmitype/StillImage"/>
    <dc:date>2025-08-02T00:55:28.093029</dc:date>
    <dc:format>image/svg+xml</dc:format>
    <dc:creator>
     <cc:Agent>
      <dc:title>Matplotlib v3.7.1, https://matplotlib.org/</dc:title>
     </cc:Agent>
    </dc:creator>
   </cc:Work>
  </rdf:RDF>
 </metadata>
 <defs>
  <style type="text/css">*{stroke-linejoin: round; stroke-linecap: butt}</style>
 </defs>
 <g id="figure_1">
  <g id="patch_1">
   <path d="M 0 345.6 
L 460.8 345.6 
L 460.8 0 
L 0 0 
z
" style="fill: #ffffff"/>
  </g>
  <g id="axes_1">
   <g id="patch_2">
    <path d="M 61.49 274.960187 
L 450 274.960187 
L 450 70.639813 
L 61.49 70.639813 
z
" style="fill: #ffffff"/>
   </g>
   <g id="PolyCollection_1">
    <path d="M 32.464494 223.107679 
L 32.464494 274.960187 
L 40.572445 274.960187 
L 48.584444 274.960187 
L 65.040227 274.960187 
L 84.134693 274.960187 
L 98.191673 274.960187 
L 106.923313 274.960187 
L 109.178187 274.960187 
L 113.352103 274.960187 
L 115.271145 274.960187 
L 115.511025 274.960187 
L 118.677444 274.960187 
L 119.493037 274.960187 
L 120.164701 274.960187 
L 120.980294 274.960187 
L 121.50803 274.960187 
L 122.323623 274.960187 
L 122.803384 274.960187 
L 123.666952 274.960187 
L 124.818377 274.960187 
L 125.729922 274.960187 
L 126.065755 274.960187 
L 127.025275 274.960187 
L 127.69694 274.960187 
L 128.416581 274.960187 
L 129.184197 274.960187 
L 129.711934 274.960187 
L 130.191694 274.960187 
L 131.535023 274.960187 
L 132.494544 274.960187 
L 133.214185 274.960187 
L 133.406089 274.960187 
L 134.077754 274.960187 
L 135.085251 274.960187 
L 136.140724 274.960187 
L 136.860364 274.960187 
L 137.915837 274.960187 
L 139.307143 274.960187 
L 141.226184 274.960187 
L 142.905346 274.960187 
L 144.344627 274.960187 
L 147.031286 274.960187 
L 148.182711 274.960187 
L 151.301153 274.960187 
L 153.316147 274.960187 
L 154.563524 274.960187 
L 155.331141 274.960187 
L 158.353632 274.960187 
L 160.032793 274.960187 
L 161.759931 274.960187 
L 165.16623 274.960187 
L 168.332649 274.960187 
L 168.860385 274.960187 
L 169.484074 274.960187 
L 170.443595 274.960187 
L 171.211211 274.960187 
L 173.562038 274.960187 
L 178.26369 274.960187 
L 179.175235 274.960187 
L 183.589031 274.960187 
L 184.596528 274.960187 
L 185.604024 274.960187 
L 187.23521 274.960187 
L 188.578539 274.960187 
L 189.873892 274.960187 
L 190.689485 274.960187 
L 193.328167 274.960187 
L 196.062802 274.960187 
L 197.406131 274.960187 
L 198.365652 274.960187 
L 199.565053 274.960187 
L 200.57255 274.960187 
L 201.771951 274.960187 
L 204.602538 274.960187 
L 206.089795 274.960187 
L 207.529076 274.960187 
L 209.016334 274.960187 
L 210.455615 274.960187 
L 211.942872 274.960187 
L 213.43013 274.960187 
L 214.821435 274.960187 
L 216.308692 274.960187 
L 217.747974 274.960187 
L 219.235231 274.960187 
L 220.674512 274.960187 
L 222.16177 274.960187 
L 223.649027 274.960187 
L 225.088308 274.960187 
L 226.575566 274.960187 
L 228.014847 274.960187 
L 229.502104 274.960187 
L 230.989362 274.960187 
L 232.332691 274.960187 
L 233.819948 274.960187 
L 235.259229 274.960187 
L 236.746487 274.960187 
L 238.185768 274.960187 
L 239.673025 274.960187 
L 241.160283 274.960187 
L 242.599564 274.960187 
L 244.086821 274.960187 
L 245.526103 274.960187 
L 247.01336 274.960187 
L 248.500617 274.960187 
L 249.843947 274.960187 
L 251.331204 274.960187 
L 252.770485 274.960187 
L 254.257743 274.960187 
L 255.697024 274.960187 
L 257.184281 274.960187 
L 258.671539 274.960187 
L 260.11082 274.960187 
L 261.598077 274.960187 
L 263.037359 274.960187 
L 264.524616 274.960187 
L 266.011873 274.960187 
L 267.355203 274.960187 
L 268.84246 274.960187 
L 270.281741 274.960187 
L 271.768999 274.960187 
L 273.20828 274.960187 
L 274.695537 274.960187 
L 276.182795 274.960187 
L 277.622076 274.960187 
L 279.109333 274.960187 
L 280.548614 274.960187 
L 282.035872 274.960187 
L 283.523129 274.960187 
L 284.914434 274.960187 
L 286.401692 274.960187 
L 287.840973 274.960187 
L 289.32823 274.960187 
L 290.767512 274.960187 
L 292.254769 274.960187 
L 293.742026 274.960187 
L 295.181308 274.960187 
L 296.668565 274.960187 
L 298.107846 274.960187 
L 299.595104 274.960187 
L 301.082361 274.960187 
L 302.42569 274.960187 
L 303.912948 274.960187 
L 305.352229 274.960187 
L 306.839486 274.960187 
L 308.278768 274.960187 
L 309.766025 274.960187 
L 311.253282 274.960187 
L 312.692564 274.960187 
L 314.179821 274.960187 
L 315.619102 274.960187 
L 317.10636 274.960187 
L 318.593617 274.960187 
L 319.936946 274.960187 
L 321.424204 274.960187 
L 322.863485 274.960187 
L 324.350742 274.960187 
L 325.790023 274.960187 
L 327.277281 274.960187 
L 328.764538 274.960187 
L 330.203819 274.960187 
L 331.691077 274.960187 
L 333.130358 274.960187 
L 334.617615 274.960187 
L 336.104873 274.960187 
L 337.448202 274.960187 
L 338.935459 274.960187 
L 340.374741 274.960187 
L 341.861998 274.960187 
L 343.301279 274.960187 
L 344.788537 274.960187 
L 346.275794 274.960187 
L 347.715075 274.960187 
L 349.202333 274.960187 
L 350.641614 274.960187 
L 352.128871 274.960187 
L 353.616129 274.960187 
L 355.007434 274.960187 
L 356.494691 274.960187 
L 357.933973 274.960187 
L 359.42123 274.960187 
L 360.860511 274.960187 
L 362.347769 274.960187 
L 363.835026 274.960187 
L 365.274307 274.960187 
L 366.761565 274.960187 
L 368.200846 274.960187 
L 369.688103 274.960187 
L 371.175361 274.960187 
L 372.51869 274.960187 
L 374.005947 274.960187 
L 375.445228 274.960187 
L 376.932486 274.960187 
L 378.371767 274.960187 
L 379.859024 274.960187 
L 381.346282 274.960187 
L 382.785563 274.960187 
L 384.27282 274.960187 
L 385.712102 274.960187 
L 387.199359 274.960187 
L 388.686616 274.960187 
L 390.029946 274.960187 
L 391.517203 274.960187 
L 392.956484 274.960187 
L 394.443742 274.960187 
L 395.883023 274.960187 
L 397.37028 274.960187 
L 398.857538 274.960187 
L 400.296819 274.960187 
L 401.784076 274.960187 
L 403.223358 274.960187 
L 404.710615 274.960187 
L 406.197872 274.960187 
L 407.541202 274.960187 
L 409.028459 274.960187 
L 410.46774 274.960187 
L 411.954998 274.960187 
L 413.394279 274.960187 
L 414.881536 274.960187 
L 416.368794 274.960187 
L 417.808075 274.960187 
L 419.295332 274.960187 
L 420.734613 274.960187 
L 422.221871 274.960187 
L 423.709128 274.960187 
L 425.100433 274.960187 
L 426.587691 274.960187 
L 428.026972 274.960187 
L 429.514229 274.960187 
L 430.953511 274.960187 
L 432.440768 274.960187 
L 433.928025 274.960187 
L 435.367307 274.960187 
L 436.854564 274.960187 
L 438.293845 274.960187 
L 439.781103 274.960187 
L 441.26836 274.960187 
L 442.611689 274.960187 
L 444.098947 274.960187 
L 445.538228 274.960187 
L 447.025485 274.960187 
L 448.464767 274.960187 
L 449.952024 274.960187 
L 449.952024 169.33613 
L 449.952024 169.33613 
L 448.464767 169.412891 
L 447.025485 169.451272 
L 445.538228 169.451272 
L 444.098947 169.758319 
L 442.611689 169.7967 
L 441.26836 170.794601 
L 439.781103 172.982309 
L 438.293845 173.749926 
L 436.854564 173.980211 
L 435.367307 173.980211 
L 433.928025 174.210496 
L 432.440768 174.210496 
L 430.953511 175.054874 
L 429.514229 175.592206 
L 428.026972 175.707348 
L 426.587691 175.822491 
L 425.100433 175.899252 
L 423.709128 177.549628 
L 422.221871 177.664771 
L 420.734613 177.703152 
L 419.295332 177.933437 
L 417.808075 178.048579 
L 416.368794 178.08696 
L 414.881536 178.202102 
L 413.394279 178.662673 
L 411.954998 178.892958 
L 410.46774 179.0081 
L 409.028459 179.0081 
L 407.541202 179.353528 
L 406.197872 179.92924 
L 404.710615 179.890859 
L 403.223358 180.006002 
L 401.784076 180.121144 
L 400.296819 180.351429 
L 398.857538 180.351429 
L 397.37028 180.38981 
L 395.883023 180.38981 
L 394.443742 180.351429 
L 392.956484 180.428191 
L 391.517203 180.351429 
L 390.029946 180.313048 
L 388.686616 180.351429 
L 387.199359 180.351429 
L 385.712102 180.543333 
L 384.27282 180.735238 
L 382.785563 181.042284 
L 381.346282 181.272569 
L 379.859024 181.234188 
L 378.371767 181.426093 
L 376.932486 181.694758 
L 375.445228 181.694758 
L 374.005947 181.848282 
L 372.51869 182.347233 
L 371.175361 182.462375 
L 369.688103 182.884564 
L 368.200846 182.922945 
L 366.761565 183.076469 
L 365.274307 183.15323 
L 363.835026 183.306754 
L 362.347769 183.345134 
L 360.860511 183.421896 
L 359.42123 183.421896 
L 357.933973 183.498658 
L 356.494691 183.844085 
L 355.007434 183.959228 
L 353.616129 184.035989 
L 352.128871 184.112751 
L 350.641614 184.112751 
L 349.202333 184.112751 
L 347.715075 184.227894 
L 346.275794 184.304655 
L 344.788537 184.458179 
L 343.301279 184.688464 
L 341.861998 184.803606 
L 340.374741 184.880368 
L 338.935459 184.957129 
L 337.448202 184.99551 
L 336.104873 184.99551 
L 334.617615 185.033891 
L 333.130358 185.072272 
L 331.691077 185.149034 
L 330.203819 185.187414 
L 328.764538 185.187414 
L 327.277281 185.302557 
L 325.790023 185.417699 
L 324.350742 185.647984 
L 322.863485 185.801508 
L 321.424204 186.108554 
L 319.936946 186.262078 
L 318.593617 186.415601 
L 317.10636 186.453982 
L 315.619102 186.607505 
L 314.179821 186.761029 
L 312.692564 188.449785 
L 311.253282 188.718451 
L 309.766025 189.447687 
L 308.278768 188.833594 
L 306.839486 188.756832 
L 305.352229 188.795213 
L 303.912948 188.871975 
L 302.42569 189.14064 
L 301.082361 189.179021 
L 299.595104 189.255783 
L 298.107846 189.985019 
L 296.668565 190.100161 
L 295.181308 190.292065 
L 293.742026 190.368827 
L 292.254769 190.48397 
L 290.767512 190.906159 
L 289.32823 191.098063 
L 287.840973 191.098063 
L 286.401692 191.481871 
L 284.914434 191.558633 
L 283.523129 191.597014 
L 282.035872 191.788918 
L 280.548614 191.86568 
L 279.109333 191.86568 
L 277.622076 192.057584 
L 276.182795 192.095965 
L 274.695537 192.134346 
L 273.20828 192.287869 
L 271.768999 192.403011 
L 270.281741 191.827299 
L 268.84246 191.904061 
L 267.355203 192.095965 
L 266.011873 192.095965 
L 264.524616 192.32625 
L 263.037359 192.479773 
L 261.598077 192.748439 
L 260.11082 193.093866 
L 258.671539 193.400913 
L 257.184281 193.477675 
L 255.697024 193.746341 
L 254.257743 193.976626 
L 252.770485 194.322053 
L 251.331204 194.475576 
L 249.843947 194.667481 
L 248.500617 194.705861 
L 247.01336 194.705861 
L 245.526103 194.897766 
L 244.086821 195.358336 
L 242.599564 195.396716 
L 241.160283 195.627001 
L 239.673025 196.279476 
L 238.185768 196.356237 
L 236.746487 196.816807 
L 235.259229 197.123854 
L 233.819948 198.160137 
L 232.332691 198.236898 
L 230.989362 198.352041 
L 229.502104 198.620707 
L 228.014847 198.697468 
L 226.575566 198.927753 
L 225.088308 199.119657 
L 223.649027 199.465085 
L 222.16177 199.656989 
L 220.674512 199.772132 
L 219.235231 200.002417 
L 217.747974 200.040797 
L 216.308692 200.15594 
L 214.821435 200.309463 
L 213.43013 200.309463 
L 211.942872 200.386225 
L 210.455615 200.424606 
L 209.016334 200.462987 
L 207.529076 200.501367 
L 206.089795 200.539748 
L 204.602538 200.654891 
L 201.771951 201.384127 
L 200.57255 201.576031 
L 199.565053 201.614412 
L 198.365652 201.499269 
L 197.406131 201.499269 
L 196.062802 201.614412 
L 193.328167 201.729554 
L 190.689485 202.343648 
L 189.873892 203.264788 
L 188.578539 203.111264 
L 187.23521 203.072883 
L 185.604024 203.763738 
L 184.596528 203.763738 
L 183.589031 203.533453 
L 179.175235 204.032404 
L 178.26369 204.109166 
L 173.562038 204.76164 
L 171.211211 204.838402 
L 170.443595 204.684878 
L 169.484074 204.800021 
L 168.860385 204.991925 
L 168.332649 205.030306 
L 165.16623 205.145449 
L 161.759931 205.22221 
L 160.032793 205.414114 
L 158.353632 207.448299 
L 155.331141 207.371537 
L 154.563524 207.409918 
L 153.316147 207.832107 
L 151.301153 208.90677 
L 148.182711 209.137055 
L 147.031286 209.520864 
L 144.344627 209.78953 
L 142.905346 210.595527 
L 141.226184 211.132859 
L 139.307143 211.555048 
L 137.915837 211.593429 
L 136.860364 211.67019 
L 136.140724 211.708571 
L 135.085251 211.746952 
L 134.077754 212.437807 
L 133.406089 212.783235 
L 133.214185 212.783235 
L 132.494544 212.783235 
L 131.535023 213.01352 
L 130.191694 212.783235 
L 129.711934 212.975139 
L 129.184197 213.0519 
L 128.416581 213.167043 
L 127.69694 213.167043 
L 127.025275 213.47409 
L 126.065755 214.164945 
L 125.729922 214.126564 
L 124.818377 214.471991 
L 123.666952 214.548753 
L 122.803384 214.625515 
L 122.323623 214.702276 
L 121.50803 214.817419 
L 120.980294 215.047704 
L 120.164701 215.239608 
L 119.493037 215.162846 
L 118.677444 215.239608 
L 115.511025 215.508274 
L 115.271145 215.469893 
L 113.352103 215.77694 
L 109.178187 213.93466 
L 106.923313 216.659699 
L 98.191673 220.229117 
L 84.134693 223.568249 
L 65.040227 227.866903 
L 48.584444 222.915775 
L 40.572445 222.301682 
L 32.464494 223.107679 
z
" clip-path="url(#p755016a97f)" style="fill: #fb363b"/>
   </g>
   <g id="PolyCollection_2">
    <path d="M 32.464494 144.196683 
L 32.464494 223.107679 
L 40.572445 222.301682 
L 48.584444 222.915775 
L 65.040227 227.866903 
L 84.134693 223.568249 
L 98.191673 220.229117 
L 106.923313 216.659699 
L 109.178187 213.93466 
L 113.352103 215.77694 
L 115.271145 215.469893 
L 115.511025 215.508274 
L 118.677444 215.239608 
L 119.493037 215.162846 
L 120.164701 215.239608 
L 120.980294 215.047704 
L 121.50803 214.817419 
L 122.323623 214.702276 
L 122.803384 214.625515 
L 123.666952 214.548753 
L 124.818377 214.471991 
L 125.729922 214.126564 
L 126.065755 214.164945 
L 127.025275 213.47409 
L 127.69694 213.167043 
L 128.416581 213.167043 
L 129.184197 213.0519 
L 129.711934 212.975139 
L 130.191694 212.783235 
L 131.535023 213.01352 
L 132.494544 212.783235 
L 133.214185 212.783235 
L 133.406089 212.783235 
L 134.077754 212.437807 
L 135.085251 211.746952 
L 136.140724 211.708571 
L 136.860364 211.67019 
L 137.915837 211.593429 
L 139.307143 211.555048 
L 141.226184 211.132859 
L 142.905346 210.595527 
L 144.344627 209.78953 
L 147.031286 209.520864 
L 148.182711 209.137055 
L 151.301153 208.90677 
L 153.316147 207.832107 
L 154.563524 207.409918 
L 155.331141 207.371537 
L 158.353632 207.448299 
L 160.032793 205.414114 
L 161.759931 205.22221 
L 165.16623 205.145449 
L 168.332649 205.030306 
L 168.860385 204.991925 
L 169.484074 204.800021 
L 170.443595 204.684878 
L 171.211211 204.838402 
L 173.562038 204.76164 
L 178.26369 204.109166 
L 179.175235 204.032404 
L 183.589031 203.533453 
L 184.596528 203.763738 
L 185.604024 203.763738 
L 187.23521 203.072883 
L 188.578539 203.111264 
L 189.873892 203.264788 
L 190.689485 202.343648 
L 193.328167 201.729554 
L 196.062802 201.614412 
L 197.406131 201.499269 
L 198.365652 201.499269 
L 199.565053 201.614412 
L 200.57255 201.576031 
L 201.771951 201.384127 
L 204.602538 200.654891 
L 206.089795 200.539748 
L 207.529076 200.501367 
L 209.016334 200.462987 
L 210.455615 200.424606 
L 211.942872 200.386225 
L 213.43013 200.309463 
L 214.821435 200.309463 
L 216.308692 200.15594 
L 217.747974 200.040797 
L 219.235231 200.002417 
L 220.674512 199.772132 
L 222.16177 199.656989 
L 223.649027 199.465085 
L 225.088308 199.119657 
L 226.575566 198.927753 
L 228.014847 198.697468 
L 229.502104 198.620707 
L 230.989362 198.352041 
L 232.332691 198.236898 
L 233.819948 198.160137 
L 235.259229 197.123854 
L 236.746487 196.816807 
L 238.185768 196.356237 
L 239.673025 196.279476 
L 241.160283 195.627001 
L 242.599564 195.396716 
L 244.086821 195.358336 
L 245.526103 194.897766 
L 247.01336 194.705861 
L 248.500617 194.705861 
L 249.843947 194.667481 
L 251.331204 194.475576 
L 252.770485 194.322053 
L 254.257743 193.976626 
L 255.697024 193.746341 
L 257.184281 193.477675 
L 258.671539 193.400913 
L 260.11082 193.093866 
L 261.598077 192.748439 
L 263.037359 192.479773 
L 264.524616 192.32625 
L 266.011873 192.095965 
L 267.355203 192.095965 
L 268.84246 191.904061 
L 270.281741 191.827299 
L 271.768999 192.403011 
L 273.20828 192.287869 
L 274.695537 192.134346 
L 276.182795 192.095965 
L 277.622076 192.057584 
L 279.109333 191.86568 
L 280.548614 191.86568 
L 282.035872 191.788918 
L 283.523129 191.597014 
L 284.914434 191.558633 
L 286.401692 191.481871 
L 287.840973 191.098063 
L 289.32823 191.098063 
L 290.767512 190.906159 
L 292.254769 190.48397 
L 293.742026 190.368827 
L 295.181308 190.292065 
L 296.668565 190.100161 
L 298.107846 189.985019 
L 299.595104 189.255783 
L 301.082361 189.179021 
L 302.42569 189.14064 
L 303.912948 188.871975 
L 305.352229 188.795213 
L 306.839486 188.756832 
L 308.278768 188.833594 
L 309.766025 189.447687 
L 311.253282 188.718451 
L 312.692564 188.449785 
L 314.179821 186.761029 
L 315.619102 186.607505 
L 317.10636 186.453982 
L 318.593617 186.415601 
L 319.936946 186.262078 
L 321.424204 186.108554 
L 322.863485 185.801508 
L 324.350742 185.647984 
L 325.790023 185.417699 
L 327.277281 185.302557 
L 328.764538 185.187414 
L 330.203819 185.187414 
L 331.691077 185.149034 
L 333.130358 185.072272 
L 334.617615 185.033891 
L 336.104873 184.99551 
L 337.448202 184.99551 
L 338.935459 184.957129 
L 340.374741 184.880368 
L 341.861998 184.803606 
L 343.301279 184.688464 
L 344.788537 184.458179 
L 346.275794 184.304655 
L 347.715075 184.227894 
L 349.202333 184.112751 
L 350.641614 184.112751 
L 352.128871 184.112751 
L 353.616129 184.035989 
L 355.007434 183.959228 
L 356.494691 183.844085 
L 357.933973 183.498658 
L 359.42123 183.421896 
L 360.860511 183.421896 
L 362.347769 183.345134 
L 363.835026 183.306754 
L 365.274307 183.15323 
L 366.761565 183.076469 
L 368.200846 182.922945 
L 369.688103 182.884564 
L 371.175361 182.462375 
L 372.51869 182.347233 
L 374.005947 181.848282 
L 375.445228 181.694758 
L 376.932486 181.694758 
L 378.371767 181.426093 
L 379.859024 181.234188 
L 381.346282 181.272569 
L 382.785563 181.042284 
L 384.27282 180.735238 
L 385.712102 180.543333 
L 387.199359 180.351429 
L 388.686616 180.351429 
L 390.029946 180.313048 
L 391.517203 180.351429 
L 392.956484 180.428191 
L 394.443742 180.351429 
L 395.883023 180.38981 
L 397.37028 180.38981 
L 398.857538 180.351429 
L 400.296819 180.351429 
L 401.784076 180.121144 
L 403.223358 180.006002 
L 404.710615 179.890859 
L 406.197872 179.92924 
L 407.541202 179.353528 
L 409.028459 179.0081 
L 410.46774 179.0081 
L 411.954998 178.892958 
L 413.394279 178.662673 
L 414.881536 178.202102 
L 416.368794 178.08696 
L 417.808075 178.048579 
L 419.295332 177.933437 
L 420.734613 177.703152 
L 422.221871 177.664771 
L 423.709128 177.549628 
L 425.100433 175.899252 
L 426.587691 175.822491 
L 428.026972 175.707348 
L 429.514229 175.592206 
L 430.953511 175.054874 
L 432.440768 174.210496 
L 433.928025 174.210496 
L 435.367307 173.980211 
L 436.854564 173.980211 
L 438.293845 173.749926 
L 439.781103 172.982309 
L 441.26836 170.794601 
L 442.611689 169.7967 
L 444.098947 169.758319 
L 445.538228 169.451272 
L 447.025485 169.451272 
L 448.464767 169.412891 
L 449.952024 169.33613 
L 449.952024 103.551379 
L 449.952024 103.551379 
L 448.464767 103.474617 
L 447.025485 103.282713 
L 445.538228 103.205951 
L 444.098947 103.167571 
L 442.611689 102.937286 
L 441.26836 102.975666 
L 439.781103 102.937286 
L 438.293845 103.474617 
L 436.854564 103.551379 
L 435.367307 103.666521 
L 433.928025 103.704902 
L 432.440768 103.935187 
L 430.953511 103.820045 
L 429.514229 103.781664 
L 428.026972 103.935187 
L 426.587691 104.011949 
L 425.100433 103.973568 
L 423.709128 104.242234 
L 422.221871 104.5109 
L 420.734613 104.5109 
L 419.295332 104.626042 
L 417.808075 104.779566 
L 416.368794 104.856327 
L 414.881536 104.856327 
L 413.394279 105.124993 
L 411.954998 105.355278 
L 410.46774 105.470421 
L 409.028459 105.470421 
L 407.541202 105.508801 
L 406.197872 105.662325 
L 404.710615 105.777467 
L 403.223358 105.854229 
L 401.784076 105.854229 
L 400.296819 105.89261 
L 398.857538 105.777467 
L 397.37028 105.815848 
L 395.883023 105.815848 
L 394.443742 106.007752 
L 392.956484 105.969371 
L 391.517203 105.969371 
L 390.029946 106.007752 
L 388.686616 106.084514 
L 387.199359 106.084514 
L 385.712102 106.199656 
L 384.27282 106.161276 
L 382.785563 106.276418 
L 381.346282 106.314799 
L 379.859024 106.35318 
L 378.371767 106.391561 
L 376.932486 106.429941 
L 375.445228 106.391561 
L 374.005947 106.506703 
L 372.51869 106.698607 
L 371.175361 106.852131 
L 369.688103 106.890511 
L 368.200846 106.890511 
L 366.761565 106.967273 
L 365.274307 107.005654 
L 363.835026 107.082416 
L 362.347769 107.082416 
L 360.860511 107.120796 
L 359.42123 107.159177 
L 357.933973 107.044035 
L 356.494691 107.005654 
L 355.007434 107.044035 
L 353.616129 106.967273 
L 352.128871 106.967273 
L 350.641614 106.967273 
L 349.202333 106.967273 
L 347.715075 106.967273 
L 346.275794 107.005654 
L 344.788537 106.967273 
L 343.301279 107.005654 
L 341.861998 107.005654 
L 340.374741 106.890511 
L 338.935459 106.890511 
L 337.448202 106.928892 
L 336.104873 106.928892 
L 334.617615 107.005654 
L 333.130358 107.005654 
L 331.691077 107.082416 
L 330.203819 107.082416 
L 328.764538 107.082416 
L 327.277281 107.120796 
L 325.790023 107.120796 
L 324.350742 107.120796 
L 322.863485 107.159177 
L 321.424204 107.197558 
L 319.936946 107.504605 
L 318.593617 107.619747 
L 317.10636 107.542986 
L 315.619102 107.619747 
L 314.179821 107.73489 
L 312.692564 107.773271 
L 311.253282 108.310602 
L 309.766025 108.617649 
L 308.278768 110.728595 
L 306.839486 111.918401 
L 305.352229 112.34059 
L 303.912948 112.34059 
L 302.42569 112.647637 
L 301.082361 112.570875 
L 299.595104 111.803258 
L 298.107846 111.995163 
L 296.668565 112.417352 
L 295.181308 112.417352 
L 293.742026 112.302209 
L 292.254769 112.455733 
L 290.767512 112.494113 
L 289.32823 112.494113 
L 287.840973 112.532494 
L 286.401692 112.609256 
L 284.914434 112.609256 
L 283.523129 112.647637 
L 282.035872 112.647637 
L 280.548614 112.762779 
L 279.109333 112.80116 
L 277.622076 112.839541 
L 276.182795 112.839541 
L 274.695537 112.80116 
L 273.20828 112.839541 
L 271.768999 112.80116 
L 270.281741 113.415253 
L 268.84246 113.376873 
L 267.355203 113.453634 
L 266.011873 113.530396 
L 264.524616 113.645538 
L 263.037359 113.607158 
L 261.598077 113.875823 
L 260.11082 113.990966 
L 258.671539 114.144489 
L 257.184281 114.336393 
L 255.697024 114.374774 
L 254.257743 114.298013 
L 252.770485 114.374774 
L 251.331204 114.413155 
L 249.843947 114.413155 
L 248.500617 114.413155 
L 247.01336 114.413155 
L 245.526103 114.566678 
L 244.086821 114.64344 
L 242.599564 114.873725 
L 241.160283 114.912106 
L 239.673025 115.142391 
L 238.185768 115.219153 
L 236.746487 115.449438 
L 235.259229 115.56458 
L 233.819948 115.718103 
L 232.332691 115.756484 
L 230.989362 115.794865 
L 229.502104 115.948388 
L 228.014847 115.948388 
L 226.575566 116.140293 
L 225.088308 116.408959 
L 223.649027 116.562482 
L 222.16177 116.716005 
L 220.674512 116.907909 
L 219.235231 116.984671 
L 217.747974 117.291718 
L 216.308692 117.291718 
L 214.821435 117.330099 
L 213.43013 117.330099 
L 211.942872 117.330099 
L 210.455615 117.330099 
L 209.016334 117.330099 
L 207.529076 117.368479 
L 206.089795 117.522003 
L 204.602538 117.598764 
L 201.771951 118.059334 
L 200.57255 118.635047 
L 199.565053 118.903713 
L 198.365652 118.366381 
L 197.406131 118.673428 
L 196.062802 118.78857 
L 193.328167 118.942094 
L 190.689485 118.942094 
L 189.873892 119.095617 
L 188.578539 119.594568 
L 187.23521 119.556187 
L 185.604024 120.438946 
L 184.596528 120.438946 
L 183.589031 120.861135 
L 179.175235 121.129801 
L 178.26369 121.206563 
L 173.562038 122.281226 
L 171.211211 123.240747 
L 170.443595 123.279128 
L 169.484074 123.279128 
L 168.860385 123.279128 
L 168.332649 123.317509 
L 165.16623 122.89532 
L 161.759931 123.39427 
L 160.032793 123.586175 
L 158.353632 123.778079 
L 155.331141 123.893221 
L 154.563524 123.969983 
L 153.316147 124.161887 
L 151.301153 124.468934 
L 148.182711 124.31541 
L 147.031286 124.622457 
L 144.344627 124.584076 
L 142.905346 124.507315 
L 141.226184 124.852742 
L 139.307143 124.77598 
L 137.915837 124.660838 
L 136.860364 124.929504 
L 136.140724 124.967885 
L 135.085251 124.238649 
L 134.077754 124.27703 
L 133.406089 124.430553 
L 133.214185 124.430553 
L 132.494544 124.392172 
L 131.535023 124.891123 
L 130.191694 124.353791 
L 129.711934 124.353791 
L 129.184197 124.392172 
L 128.416581 124.430553 
L 127.69694 124.238649 
L 127.025275 124.660838 
L 126.065755 124.77598 
L 125.729922 124.545695 
L 124.818377 124.699219 
L 123.666952 124.660838 
L 122.803384 125.159789 
L 122.323623 125.083027 
L 121.50803 125.083027 
L 120.980294 123.35589 
L 120.164701 123.739698 
L 119.493037 122.780177 
L 118.677444 122.549892 
L 115.511025 122.818558 
L 115.271145 122.665035 
L 113.352103 122.9337 
L 109.178187 124.660838 
L 106.923313 125.505216 
L 98.191673 127.539401 
L 84.134693 130.456344 
L 65.040227 134.179285 
L 48.584444 140.128314 
L 40.572445 143.889636 
L 32.464494 144.196683 
z
" clip-path="url(#p755016a97f)" style="fill: #fdc92c"/>
   </g>
   <g id="PolyCollection_3">
    <path d="M 32.464494 113.952585 
L 32.464494 144.196683 
L 40.572445 143.889636 
L 48.584444 140.128314 
L 65.040227 134.179285 
L 84.134693 130.456344 
L 98.191673 127.539401 
L 106.923313 125.505216 
L 109.178187 124.660838 
L 113.352103 122.9337 
L 115.271145 122.665035 
L 115.511025 122.818558 
L 118.677444 122.549892 
L 119.493037 122.780177 
L 120.164701 123.739698 
L 120.980294 123.35589 
L 121.50803 125.083027 
L 122.323623 125.083027 
L 122.803384 125.159789 
L 123.666952 124.660838 
L 124.818377 124.699219 
L 125.729922 124.545695 
L 126.065755 124.77598 
L 127.025275 124.660838 
L 127.69694 124.238649 
L 128.416581 124.430553 
L 129.184197 124.392172 
L 129.711934 124.353791 
L 130.191694 124.353791 
L 131.535023 124.891123 
L 132.494544 124.392172 
L 133.214185 124.430553 
L 133.406089 124.430553 
L 134.077754 124.27703 
L 135.085251 124.238649 
L 136.140724 124.967885 
L 136.860364 124.929504 
L 137.915837 124.660838 
L 139.307143 124.77598 
L 141.226184 124.852742 
L 142.905346 124.507315 
L 144.344627 124.584076 
L 147.031286 124.622457 
L 148.182711 124.31541 
L 151.301153 124.468934 
L 153.316147 124.161887 
L 154.563524 123.969983 
L 155.331141 123.893221 
L 158.353632 123.778079 
L 160.032793 123.586175 
L 161.759931 123.39427 
L 165.16623 122.89532 
L 168.332649 123.317509 
L 168.860385 123.279128 
L 169.484074 123.279128 
L 170.443595 123.279128 
L 171.211211 123.240747 
L 173.562038 122.281226 
L 178.26369 121.206563 
L 179.175235 121.129801 
L 183.589031 120.861135 
L 184.596528 120.438946 
L 185.604024 120.438946 
L 187.23521 119.556187 
L 188.578539 119.594568 
L 189.873892 119.095617 
L 190.689485 118.942094 
L 193.328167 118.942094 
L 196.062802 118.78857 
L 197.406131 118.673428 
L 198.365652 118.366381 
L 199.565053 118.903713 
L 200.57255 118.635047 
L 201.771951 118.059334 
L 204.602538 117.598764 
L 206.089795 117.522003 
L 207.529076 117.368479 
L 209.016334 117.330099 
L 210.455615 117.330099 
L 211.942872 117.330099 
L 213.43013 117.330099 
L 214.821435 117.330099 
L 216.308692 117.291718 
L 217.747974 117.291718 
L 219.235231 116.984671 
L 220.674512 116.907909 
L 222.16177 116.716005 
L 223.649027 116.562482 
L 225.088308 116.408959 
L 226.575566 116.140293 
L 228.014847 115.948388 
L 229.502104 115.948388 
L 230.989362 115.794865 
L 232.332691 115.756484 
L 233.819948 115.718103 
L 235.259229 115.56458 
L 236.746487 115.449438 
L 238.185768 115.219153 
L 239.673025 115.142391 
L 241.160283 114.912106 
L 242.599564 114.873725 
L 244.086821 114.64344 
L 245.526103 114.566678 
L 247.01336 114.413155 
L 248.500617 114.413155 
L 249.843947 114.413155 
L 251.331204 114.413155 
L 252.770485 114.374774 
L 254.257743 114.298013 
L 255.697024 114.374774 
L 257.184281 114.336393 
L 258.671539 114.144489 
L 260.11082 113.990966 
L 261.598077 113.875823 
L 263.037359 113.607158 
L 264.524616 113.645538 
L 266.011873 113.530396 
L 267.355203 113.453634 
L 268.84246 113.376873 
L 270.281741 113.415253 
L 271.768999 112.80116 
L 273.20828 112.839541 
L 274.695537 112.80116 
L 276.182795 112.839541 
L 277.622076 112.839541 
L 279.109333 112.80116 
L 280.548614 112.762779 
L 282.035872 112.647637 
L 283.523129 112.647637 
L 284.914434 112.609256 
L 286.401692 112.609256 
L 287.840973 112.532494 
L 289.32823 112.494113 
L 290.767512 112.494113 
L 292.254769 112.455733 
L 293.742026 112.302209 
L 295.181308 112.417352 
L 296.668565 112.417352 
L 298.107846 111.995163 
L 299.595104 111.803258 
L 301.082361 112.570875 
L 302.42569 112.647637 
L 303.912948 112.34059 
L 305.352229 112.34059 
L 306.839486 111.918401 
L 308.278768 110.728595 
L 309.766025 108.617649 
L 311.253282 108.310602 
L 312.692564 107.773271 
L 314.179821 107.73489 
L 315.619102 107.619747 
L 317.10636 107.542986 
L 318.593617 107.619747 
L 319.936946 107.504605 
L 321.424204 107.197558 
L 322.863485 107.159177 
L 324.350742 107.120796 
L 325.790023 107.120796 
L 327.277281 107.120796 
L 328.764538 107.082416 
L 330.203819 107.082416 
L 331.691077 107.082416 
L 333.130358 107.005654 
L 334.617615 107.005654 
L 336.104873 106.928892 
L 337.448202 106.928892 
L 338.935459 106.890511 
L 340.374741 106.890511 
L 341.861998 107.005654 
L 343.301279 107.005654 
L 344.788537 106.967273 
L 346.275794 107.005654 
L 347.715075 106.967273 
L 349.202333 106.967273 
L 350.641614 106.967273 
L 352.128871 106.967273 
L 353.616129 106.967273 
L 355.007434 107.044035 
L 356.494691 107.005654 
L 357.933973 107.044035 
L 359.42123 107.159177 
L 360.860511 107.120796 
L 362.347769 107.082416 
L 363.835026 107.082416 
L 365.274307 107.005654 
L 366.761565 106.967273 
L 368.200846 106.890511 
L 369.688103 106.890511 
L 371.175361 106.852131 
L 372.51869 106.698607 
L 374.005947 106.506703 
L 375.445228 106.391561 
L 376.932486 106.429941 
L 378.371767 106.391561 
L 379.859024 106.35318 
L 381.346282 106.314799 
L 382.785563 106.276418 
L 384.27282 106.161276 
L 385.712102 106.199656 
L 387.199359 106.084514 
L 388.686616 106.084514 
L 390.029946 106.007752 
L 391.517203 105.969371 
L 392.956484 105.969371 
L 394.443742 106.007752 
L 395.883023 105.815848 
L 397.37028 105.815848 
L 398.857538 105.777467 
L 400.296819 105.89261 
L 401.784076 105.854229 
L 403.223358 105.854229 
L 404.710615 105.777467 
L 406.197872 105.662325 
L 407.541202 105.508801 
L 409.028459 105.470421 
L 410.46774 105.470421 
L 411.954998 105.355278 
L 413.394279 105.124993 
L 414.881536 104.856327 
L 416.368794 104.856327 
L 417.808075 104.779566 
L 419.295332 104.626042 
L 420.734613 104.5109 
L 422.221871 104.5109 
L 423.709128 104.242234 
L 425.100433 103.973568 
L 426.587691 104.011949 
L 428.026972 103.935187 
L 429.514229 103.781664 
L 430.953511 103.820045 
L 432.440768 103.935187 
L 433.928025 103.704902 
L 435.367307 103.666521 
L 436.854564 103.551379 
L 438.293845 103.474617 
L 439.781103 102.937286 
L 441.26836 102.975666 
L 442.611689 102.937286 
L 444.098947 103.167571 
L 445.538228 103.205951 
L 447.025485 103.282713 
L 448.464767 103.474617 
L 449.952024 103.551379 
L 449.952024 90.27161 
L 449.952024 90.27161 
L 448.464767 90.27161 
L 447.025485 90.27161 
L 445.538228 90.27161 
L 444.098947 90.233229 
L 442.611689 90.233229 
L 441.26836 90.233229 
L 439.781103 90.233229 
L 438.293845 90.233229 
L 436.854564 90.233229 
L 435.367307 90.233229 
L 433.928025 90.194848 
L 432.440768 90.540276 
L 430.953511 90.770561 
L 429.514229 90.770561 
L 428.026972 90.808942 
L 426.587691 90.808942 
L 425.100433 90.808942 
L 423.709128 90.847323 
L 422.221871 90.847323 
L 420.734613 90.847323 
L 419.295332 90.885703 
L 417.808075 90.885703 
L 416.368794 90.885703 
L 414.881536 90.885703 
L 413.394279 90.962465 
L 411.954998 90.962465 
L 410.46774 90.962465 
L 409.028459 90.962465 
L 407.541202 90.962465 
L 406.197872 91.000846 
L 404.710615 91.000846 
L 403.223358 91.077608 
L 401.784076 91.077608 
L 400.296819 91.115988 
L 398.857538 91.115988 
L 397.37028 91.115988 
L 395.883023 91.115988 
L 394.443742 91.19275 
L 392.956484 91.269512 
L 391.517203 91.269512 
L 390.029946 91.269512 
L 388.686616 91.269512 
L 387.199359 91.269512 
L 385.712102 91.307893 
L 384.27282 91.269512 
L 382.785563 91.346273 
L 381.346282 91.346273 
L 379.859024 91.346273 
L 378.371767 91.384654 
L 376.932486 91.384654 
L 375.445228 91.384654 
L 374.005947 91.423035 
L 372.51869 91.461416 
L 371.175361 91.499797 
L 369.688103 91.499797 
L 368.200846 91.461416 
L 366.761565 91.461416 
L 365.274307 91.461416 
L 363.835026 91.423035 
L 362.347769 91.423035 
L 360.860511 91.461416 
L 359.42123 91.461416 
L 357.933973 91.384654 
L 356.494691 91.346273 
L 355.007434 91.346273 
L 353.616129 91.384654 
L 352.128871 91.384654 
L 350.641614 91.384654 
L 349.202333 91.384654 
L 347.715075 91.384654 
L 346.275794 91.384654 
L 344.788537 91.384654 
L 343.301279 91.384654 
L 341.861998 91.384654 
L 340.374741 91.307893 
L 338.935459 91.307893 
L 337.448202 91.307893 
L 336.104873 91.307893 
L 334.617615 91.269512 
L 333.130358 91.269512 
L 331.691077 91.346273 
L 330.203819 91.346273 
L 328.764538 91.346273 
L 327.277281 91.384654 
L 325.790023 91.384654 
L 324.350742 91.384654 
L 322.863485 91.423035 
L 321.424204 91.461416 
L 319.936946 91.538178 
L 318.593617 91.538178 
L 317.10636 91.538178 
L 315.619102 91.691701 
L 314.179821 91.691701 
L 312.692564 91.691701 
L 311.253282 91.576558 
L 309.766025 91.614939 
L 308.278768 91.806843 
L 306.839486 92.727983 
L 305.352229 92.881507 
L 303.912948 92.919888 
L 302.42569 92.958268 
L 301.082361 92.958268 
L 299.595104 92.958268 
L 298.107846 92.958268 
L 296.668565 92.996649 
L 295.181308 92.996649 
L 293.742026 93.03503 
L 292.254769 93.073411 
L 290.767512 93.111792 
L 289.32823 93.111792 
L 287.840973 93.111792 
L 286.401692 93.111792 
L 284.914434 93.111792 
L 283.523129 93.150173 
L 282.035872 93.150173 
L 280.548614 93.188553 
L 279.109333 93.226934 
L 277.622076 93.226934 
L 276.182795 93.226934 
L 274.695537 93.226934 
L 273.20828 93.226934 
L 271.768999 93.226934 
L 270.281741 93.226934 
L 268.84246 93.226934 
L 267.355203 93.303696 
L 266.011873 93.303696 
L 264.524616 93.303696 
L 263.037359 93.342077 
L 261.598077 93.342077 
L 260.11082 93.380458 
L 258.671539 93.533981 
L 257.184281 94.455121 
L 255.697024 94.455121 
L 254.257743 94.455121 
L 252.770485 94.531883 
L 251.331204 94.531883 
L 249.843947 94.531883 
L 248.500617 94.531883 
L 247.01336 94.531883 
L 245.526103 94.531883 
L 244.086821 94.608644 
L 242.599564 94.531883 
L 241.160283 94.570264 
L 239.673025 94.647025 
L 238.185768 94.723787 
L 236.746487 94.915691 
L 235.259229 94.954072 
L 233.819948 94.954072 
L 232.332691 94.954072 
L 230.989362 94.954072 
L 229.502104 95.030834 
L 228.014847 95.030834 
L 226.575566 95.107595 
L 225.088308 95.107595 
L 223.649027 94.992453 
L 222.16177 95.069214 
L 220.674512 95.069214 
L 219.235231 95.069214 
L 217.747974 95.107595 
L 216.308692 95.107595 
L 214.821435 95.107595 
L 213.43013 95.145976 
L 211.942872 95.145976 
L 210.455615 95.184357 
L 209.016334 95.145976 
L 207.529076 95.145976 
L 206.089795 95.222738 
L 204.602538 95.261119 
L 201.771951 95.529784 
L 200.57255 96.105497 
L 199.565053 96.374163 
L 198.365652 95.760069 
L 197.406131 96.25902 
L 196.062802 96.297401 
L 193.328167 97.18016 
L 190.689485 97.18016 
L 189.873892 97.141779 
L 188.578539 97.295303 
L 187.23521 97.295303 
L 185.604024 97.372064 
L 184.596528 97.372064 
L 183.589031 97.410445 
L 179.175235 97.563969 
L 178.26369 97.563969 
L 173.562038 98.56187 
L 171.211211 98.677013 
L 170.443595 98.715394 
L 169.484074 98.830536 
L 168.860385 98.830536 
L 168.332649 98.830536 
L 165.16623 98.830536 
L 161.759931 99.060821 
L 160.032793 99.175964 
L 158.353632 99.214345 
L 155.331141 99.291106 
L 154.563524 99.406249 
L 153.316147 99.598153 
L 151.301153 99.828438 
L 148.182711 99.981961 
L 147.031286 100.596055 
L 144.344627 100.634435 
L 142.905346 100.903101 
L 141.226184 101.210148 
L 139.307143 101.28691 
L 137.915837 101.28691 
L 136.860364 101.28691 
L 136.140724 101.28691 
L 135.085251 101.440433 
L 134.077754 101.593956 
L 133.406089 101.709099 
L 133.214185 101.709099 
L 132.494544 101.670718 
L 131.535023 102.20805 
L 130.191694 101.74748 
L 129.711934 101.74748 
L 129.184197 101.824241 
L 128.416581 101.824241 
L 127.69694 101.824241 
L 127.025275 102.399954 
L 126.065755 102.399954 
L 125.729922 101.939384 
L 124.818377 102.515096 
L 123.666952 103.58976 
L 122.803384 104.472519 
L 122.323623 104.5109 
L 121.50803 104.5109 
L 120.980294 104.549281 
L 120.164701 105.124993 
L 119.493037 104.587661 
L 118.677444 104.587661 
L 115.511025 104.856327 
L 115.271145 104.894708 
L 113.352103 104.933089 
L 109.178187 102.399954 
L 106.923313 105.086612 
L 98.191673 106.928892 
L 84.134693 108.809553 
L 65.040227 110.114502 
L 48.584444 112.071924 
L 40.572445 114.374774 
L 32.464494 113.952585 
z
" clip-path="url(#p755016a97f)" style="fill: #aeaeae"/>
   </g>
   <g id="PolyCollection_4">
    <path d="M 32.464494 90.655418 
L 32.464494 113.952585 
L 40.572445 114.374774 
L 48.584444 112.071924 
L 65.040227 110.114502 
L 84.134693 108.809553 
L 98.191673 106.928892 
L 106.923313 105.086612 
L 109.178187 102.399954 
L 113.352103 104.933089 
L 115.271145 104.894708 
L 115.511025 104.856327 
L 118.677444 104.587661 
L 119.493037 104.587661 
L 120.164701 105.124993 
L 120.980294 104.549281 
L 121.50803 104.5109 
L 122.323623 104.5109 
L 122.803384 104.472519 
L 123.666952 103.58976 
L 124.818377 102.515096 
L 125.729922 101.939384 
L 126.065755 102.399954 
L 127.025275 102.399954 
L 127.69694 101.824241 
L 128.416581 101.824241 
L 129.184197 101.824241 
L 129.711934 101.74748 
L 130.191694 101.74748 
L 131.535023 102.20805 
L 132.494544 101.670718 
L 133.214185 101.709099 
L 133.406089 101.709099 
L 134.077754 101.593956 
L 135.085251 101.440433 
L 136.140724 101.28691 
L 136.860364 101.28691 
L 137.915837 101.28691 
L 139.307143 101.28691 
L 141.226184 101.210148 
L 142.905346 100.903101 
L 144.344627 100.634435 
L 147.031286 100.596055 
L 148.182711 99.981961 
L 151.301153 99.828438 
L 153.316147 99.598153 
L 154.563524 99.406249 
L 155.331141 99.291106 
L 158.353632 99.214345 
L 160.032793 99.175964 
L 161.759931 99.060821 
L 165.16623 98.830536 
L 168.332649 98.830536 
L 168.860385 98.830536 
L 169.484074 98.830536 
L 170.443595 98.715394 
L 171.211211 98.677013 
L 173.562038 98.56187 
L 178.26369 97.563969 
L 179.175235 97.563969 
L 183.589031 97.410445 
L 184.596528 97.372064 
L 185.604024 97.372064 
L 187.23521 97.295303 
L 188.578539 97.295303 
L 189.873892 97.141779 
L 190.689485 97.18016 
L 193.328167 97.18016 
L 196.062802 96.297401 
L 197.406131 96.25902 
L 198.365652 95.760069 
L 199.565053 96.374163 
L 200.57255 96.105497 
L 201.771951 95.529784 
L 204.602538 95.261119 
L 206.089795 95.222738 
L 207.529076 95.145976 
L 209.016334 95.145976 
L 210.455615 95.184357 
L 211.942872 95.145976 
L 213.43013 95.145976 
L 214.821435 95.107595 
L 216.308692 95.107595 
L 217.747974 95.107595 
L 219.235231 95.069214 
L 220.674512 95.069214 
L 222.16177 95.069214 
L 223.649027 94.992453 
L 225.088308 95.107595 
L 226.575566 95.107595 
L 228.014847 95.030834 
L 229.502104 95.030834 
L 230.989362 94.954072 
L 232.332691 94.954072 
L 233.819948 94.954072 
L 235.259229 94.954072 
L 236.746487 94.915691 
L 238.185768 94.723787 
L 239.673025 94.647025 
L 241.160283 94.570264 
L 242.599564 94.531883 
L 244.086821 94.608644 
L 245.526103 94.531883 
L 247.01336 94.531883 
L 248.500617 94.531883 
L 249.843947 94.531883 
L 251.331204 94.531883 
L 252.770485 94.531883 
L 254.257743 94.455121 
L 255.697024 94.455121 
L 257.184281 94.455121 
L 258.671539 93.533981 
L 260.11082 93.380458 
L 261.598077 93.342077 
L 263.037359 93.342077 
L 264.524616 93.303696 
L 266.011873 93.303696 
L 267.355203 93.303696 
L 268.84246 93.226934 
L 270.281741 93.226934 
L 271.768999 93.226934 
L 273.20828 93.226934 
L 274.695537 93.226934 
L 276.182795 93.226934 
L 277.622076 93.226934 
L 279.109333 93.226934 
L 280.548614 93.188553 
L 282.035872 93.150173 
L 283.523129 93.150173 
L 284.914434 93.111792 
L 286.401692 93.111792 
L 287.840973 93.111792 
L 289.32823 93.111792 
L 290.767512 93.111792 
L 292.254769 93.073411 
L 293.742026 93.03503 
L 295.181308 92.996649 
L 296.668565 92.996649 
L 298.107846 92.958268 
L 299.595104 92.958268 
L 301.082361 92.958268 
L 302.42569 92.958268 
L 303.912948 92.919888 
L 305.352229 92.881507 
L 306.839486 92.727983 
L 308.278768 91.806843 
L 309.766025 91.614939 
L 311.253282 91.576558 
L 312.692564 91.691701 
L 314.179821 91.691701 
L 315.619102 91.691701 
L 317.10636 91.538178 
L 318.593617 91.538178 
L 319.936946 91.538178 
L 321.424204 91.461416 
L 322.863485 91.423035 
L 324.350742 91.384654 
L 325.790023 91.384654 
L 327.277281 91.384654 
L 328.764538 91.346273 
L 330.203819 91.346273 
L 331.691077 91.346273 
L 333.130358 91.269512 
L 334.617615 91.269512 
L 336.104873 91.307893 
L 337.448202 91.307893 
L 338.935459 91.307893 
L 340.374741 91.307893 
L 341.861998 91.384654 
L 343.301279 91.384654 
L 344.788537 91.384654 
L 346.275794 91.384654 
L 347.715075 91.384654 
L 349.202333 91.384654 
L 350.641614 91.384654 
L 352.128871 91.384654 
L 353.616129 91.384654 
L 355.007434 91.346273 
L 356.494691 91.346273 
L 357.933973 91.384654 
L 359.42123 91.461416 
L 360.860511 91.461416 
L 362.347769 91.423035 
L 363.835026 91.423035 
L 365.274307 91.461416 
L 366.761565 91.461416 
L 368.200846 91.461416 
L 369.688103 91.499797 
L 371.175361 91.499797 
L 372.51869 91.461416 
L 374.005947 91.423035 
L 375.445228 91.384654 
L 376.932486 91.384654 
L 378.371767 91.384654 
L 379.859024 91.346273 
L 381.346282 91.346273 
L 382.785563 91.346273 
L 384.27282 91.269512 
L 385.712102 91.307893 
L 387.199359 91.269512 
L 388.686616 91.269512 
L 390.029946 91.269512 
L 391.517203 91.269512 
L 392.956484 91.269512 
L 394.443742 91.19275 
L 395.883023 91.115988 
L 397.37028 91.115988 
L 398.857538 91.115988 
L 400.296819 91.115988 
L 401.784076 91.077608 
L 403.223358 91.077608 
L 404.710615 91.000846 
L 406.197872 91.000846 
L 407.541202 90.962465 
L 409.028459 90.962465 
L 410.46774 90.962465 
L 411.954998 90.962465 
L 413.394279 90.962465 
L 414.881536 90.885703 
L 416.368794 90.885703 
L 417.808075 90.885703 
L 419.295332 90.885703 
L 420.734613 90.847323 
L 422.221871 90.847323 
L 423.709128 90.847323 
L 425.100433 90.808942 
L 426.587691 90.808942 
L 428.026972 90.808942 
L 429.514229 90.770561 
L 430.953511 90.770561 
L 432.440768 90.540276 
L 433.928025 90.194848 
L 435.367307 90.233229 
L 436.854564 90.233229 
L 438.293845 90.233229 
L 439.781103 90.233229 
L 441.26836 90.233229 
L 442.611689 90.233229 
L 444.098947 90.233229 
L 445.538228 90.27161 
L 447.025485 90.27161 
L 448.464767 90.27161 
L 449.952024 90.27161 
L 449.952024 80.791544 
L 449.952024 80.791544 
L 448.464767 80.791544 
L 447.025485 80.791544 
L 445.538228 80.791544 
L 444.098947 80.791544 
L 442.611689 80.791544 
L 441.26836 80.791544 
L 439.781103 80.791544 
L 438.293845 80.791544 
L 436.854564 80.791544 
L 435.367307 80.829925 
L 433.928025 80.829925 
L 432.440768 80.829925 
L 430.953511 80.868306 
L 429.514229 80.868306 
L 428.026972 80.868306 
L 426.587691 80.868306 
L 425.100433 80.868306 
L 423.709128 80.868306 
L 422.221871 80.868306 
L 420.734613 80.868306 
L 419.295332 80.868306 
L 417.808075 80.868306 
L 416.368794 80.868306 
L 414.881536 80.868306 
L 413.394279 80.868306 
L 411.954998 80.868306 
L 410.46774 80.868306 
L 409.028459 80.868306 
L 407.541202 80.868306 
L 406.197872 81.06021 
L 404.710615 81.098591 
L 403.223358 81.136971 
L 401.784076 81.136971 
L 400.296819 81.136971 
L 398.857538 81.136971 
L 397.37028 81.136971 
L 395.883023 81.136971 
L 394.443742 81.136971 
L 392.956484 81.136971 
L 391.517203 81.136971 
L 390.029946 81.175352 
L 388.686616 81.136971 
L 387.199359 81.136971 
L 385.712102 81.175352 
L 384.27282 80.906686 
L 382.785563 80.906686 
L 381.346282 80.561259 
L 379.859024 80.561259 
L 378.371767 80.561259 
L 376.932486 80.561259 
L 375.445228 80.561259 
L 374.005947 80.561259 
L 372.51869 80.59964 
L 371.175361 80.59964 
L 369.688103 80.59964 
L 368.200846 80.561259 
L 366.761565 80.561259 
L 365.274307 80.561259 
L 363.835026 80.59964 
L 362.347769 80.59964 
L 360.860511 80.59964 
L 359.42123 80.59964 
L 357.933973 80.522878 
L 356.494691 80.484497 
L 355.007434 80.484497 
L 353.616129 80.484497 
L 352.128871 80.484497 
L 350.641614 80.484497 
L 349.202333 80.484497 
L 347.715075 80.484497 
L 346.275794 80.484497 
L 344.788537 80.484497 
L 343.301279 80.484497 
L 341.861998 80.484497 
L 340.374741 80.407735 
L 338.935459 80.407735 
L 337.448202 80.407735 
L 336.104873 80.407735 
L 334.617615 80.407735 
L 333.130358 80.407735 
L 331.691077 80.407735 
L 330.203819 80.407735 
L 328.764538 80.407735 
L 327.277281 80.369355 
L 325.790023 80.369355 
L 324.350742 80.369355 
L 322.863485 80.369355 
L 321.424204 80.369355 
L 319.936946 80.369355 
L 318.593617 80.369355 
L 317.10636 80.369355 
L 315.619102 80.369355 
L 314.179821 80.369355 
L 312.692564 80.369355 
L 311.253282 80.369355 
L 309.766025 80.369355 
L 308.278768 80.369355 
L 306.839486 80.369355 
L 305.352229 80.369355 
L 303.912948 80.369355 
L 302.42569 80.369355 
L 301.082361 80.369355 
L 299.595104 80.369355 
L 298.107846 80.369355 
L 296.668565 80.369355 
L 295.181308 80.369355 
L 293.742026 80.369355 
L 292.254769 80.369355 
L 290.767512 80.369355 
L 289.32823 80.369355 
L 287.840973 80.369355 
L 286.401692 80.369355 
L 284.914434 80.714782 
L 283.523129 80.753163 
L 282.035872 80.753163 
L 280.548614 80.753163 
L 279.109333 80.906686 
L 277.622076 80.906686 
L 276.182795 80.906686 
L 274.695537 80.906686 
L 273.20828 80.906686 
L 271.768999 80.906686 
L 270.281741 80.906686 
L 268.84246 80.906686 
L 267.355203 80.906686 
L 266.011873 80.906686 
L 264.524616 80.906686 
L 263.037359 80.945067 
L 261.598077 80.945067 
L 260.11082 80.945067 
L 258.671539 80.945067 
L 257.184281 80.676401 
L 255.697024 80.829925 
L 254.257743 80.791544 
L 252.770485 80.791544 
L 251.331204 80.791544 
L 249.843947 80.791544 
L 248.500617 80.791544 
L 247.01336 80.791544 
L 245.526103 80.791544 
L 244.086821 80.829925 
L 242.599564 80.829925 
L 241.160283 80.829925 
L 239.673025 80.791544 
L 238.185768 80.791544 
L 236.746487 80.791544 
L 235.259229 80.791544 
L 233.819948 80.791544 
L 232.332691 80.791544 
L 230.989362 80.791544 
L 229.502104 80.791544 
L 228.014847 80.791544 
L 226.575566 80.791544 
L 225.088308 80.829925 
L 223.649027 80.791544 
L 222.16177 80.829925 
L 220.674512 80.791544 
L 219.235231 80.791544 
L 217.747974 80.791544 
L 216.308692 80.791544 
L 214.821435 80.791544 
L 213.43013 80.791544 
L 211.942872 80.829925 
L 210.455615 80.829925 
L 209.016334 80.791544 
L 207.529076 80.791544 
L 206.089795 80.791544 
L 204.602538 80.868306 
L 201.771951 81.136971 
L 200.57255 81.789446 
L 199.565053 81.866207 
L 198.365652 81.252114 
L 197.406131 82.748966 
L 196.062802 82.748966 
L 193.328167 84.130676 
L 190.689485 84.130676 
L 189.873892 84.092296 
L 188.578539 84.245819 
L 187.23521 84.207438 
L 185.604024 84.207438 
L 184.596528 84.207438 
L 183.589031 84.207438 
L 179.175235 84.514485 
L 178.26369 84.514485 
L 173.562038 84.706389 
L 171.211211 84.668008 
L 170.443595 84.668008 
L 169.484074 84.74477 
L 168.860385 84.74477 
L 168.332649 84.74477 
L 165.16623 85.282102 
L 161.759931 85.397244 
L 160.032793 85.397244 
L 158.353632 85.397244 
L 155.331141 85.397244 
L 154.563524 85.358863 
L 153.316147 85.358863 
L 151.301153 85.243721 
L 148.182711 85.20534 
L 147.031286 86.203242 
L 144.344627 86.318384 
L 142.905346 86.433527 
L 141.226184 86.318384 
L 139.307143 86.318384 
L 137.915837 86.280003 
L 136.860364 86.280003 
L 136.140724 86.280003 
L 135.085251 86.241622 
L 134.077754 86.241622 
L 133.406089 86.280003 
L 133.214185 86.280003 
L 132.494544 86.280003 
L 131.535023 86.702192 
L 130.191694 86.280003 
L 129.711934 86.280003 
L 129.184197 86.318384 
L 128.416581 86.241622 
L 127.69694 86.241622 
L 127.025275 86.625431 
L 126.065755 86.548669 
L 125.729922 86.12648 
L 124.818377 86.663812 
L 123.666952 86.510288 
L 122.803384 86.548669 
L 122.323623 86.548669 
L 121.50803 86.548669 
L 120.980294 86.58705 
L 120.164701 87.086001 
L 119.493037 86.548669 
L 118.677444 86.548669 
L 115.511025 87.50819 
L 115.271145 87.546571 
L 113.352103 87.50819 
L 109.178187 86.625431 
L 106.923313 87.50819 
L 98.191673 88.275807 
L 84.134693 88.697996 
L 65.040227 89.388851 
L 48.584444 89.81104 
L 40.572445 90.808942 
L 32.464494 90.655418 
z
" clip-path="url(#p755016a97f)" style="fill: #d5dce5"/>
   </g>
   <g id="matplotlib.axis_1">
    <g id="xtick_1">
     <g id="line2d_1">
      <defs>
       <path id="m6e009630e0" d="M 0 0 
L 0 3.5 
" style="stroke: #000000; stroke-width: 0.8"/>
      </defs>
      <g>
       <use xlink:href="#m6e009630e0" x="71.756873" y="274.960187" style="stroke: #000000; stroke-width: 0.8"/>
      </g>
     </g>
     <g id="text_1">
      <!-- 2004 -->
      <g transform="translate(59.031873 289.558624) scale(0.1 -0.1)">
       <defs>
        <path id="DejaVuSans-32" d="M 1228 531 
L 3431 531 
L 3431 0 
L 469 0 
L 469 531 
Q 828 903 1448 1529 
Q 2069 2156 2228 2338 
Q 2531 2678 2651 2914 
Q 2772 3150 2772 3378 
Q 2772 3750 2511 3984 
Q 2250 4219 1831 4219 
Q 1534 4219 1204 4116 
Q 875 4013 500 3803 
L 500 4441 
Q 881 4594 1212 4672 
Q 1544 4750 1819 4750 
Q 2544 4750 2975 4387 
Q 3406 4025 3406 3419 
Q 3406 3131 3298 2873 
Q 3191 2616 2906 2266 
Q 2828 2175 2409 1742 
Q 1991 1309 1228 531 
z
" transform="scale(0.015625)"/>
        <path id="DejaVuSans-30" d="M 2034 4250 
Q 1547 4250 1301 3770 
Q 1056 3291 1056 2328 
Q 1056 1369 1301 889 
Q 1547 409 2034 409 
Q 2525 409 2770 889 
Q 3016 1369 3016 2328 
Q 3016 3291 2770 3770 
Q 2525 4250 2034 4250 
z
M 2034 4750 
Q 2819 4750 3233 4129 
Q 3647 3509 3647 2328 
Q 3647 1150 3233 529 
Q 2819 -91 2034 -91 
Q 1250 -91 836 529 
Q 422 1150 422 2328 
Q 422 3509 836 4129 
Q 1250 4750 2034 4750 
z
" transform="scale(0.015625)"/>
        <path id="DejaVuSans-34" d="M 2419 4116 
L 825 1625 
L 2419 1625 
L 2419 4116 
z
M 2253 4666 
L 3047 4666 
L 3047 1625 
L 3713 1625 
L 3713 1100 
L 3047 1100 
L 3047 0 
L 2419 0 
L 2419 1100 
L 313 1100 
L 313 1709 
L 2253 4666 
z
" transform="scale(0.015625)"/>
       </defs>
       <use xlink:href="#DejaVuSans-32"/>
       <use xlink:href="#DejaVuSans-30" x="63.623047"/>
       <use xlink:href="#DejaVuSans-30" x="127.246094"/>
       <use xlink:href="#DejaVuSans-34" x="190.869141"/>
      </g>
     </g>
    </g>
    <g id="xtick_2">
     <g id="line2d_2">
      <g>
       <use xlink:href="#m6e009630e0" x="141.849873" y="274.960187" style="stroke: #000000; stroke-width: 0.8"/>
      </g>
     </g>
     <g id="text_2">
      <!-- 2008 -->
      <g transform="translate(129.124873 289.558624) scale(0.1 -0.1)">
       <defs>
        <path id="DejaVuSans-38" d="M 2034 2216 
Q 1584 2216 1326 1975 
Q 1069 1734 1069 1313 
Q 1069 891 1326 650 
Q 1584 409 2034 409 
Q 2484 409 2743 651 
Q 3003 894 3003 1313 
Q 3003 1734 2745 1975 
Q 2488 2216 2034 2216 
z
M 1403 2484 
Q 997 2584 770 2862 
Q 544 3141 544 3541 
Q 544 4100 942 4425 
Q 1341 4750 2034 4750 
Q 2731 4750 3128 4425 
Q 3525 4100 3525 3541 
Q 3525 3141 3298 2862 
Q 3072 2584 2669 2484 
Q 3125 2378 3379 2068 
Q 3634 1759 3634 1313 
Q 3634 634 3220 271 
Q 2806 -91 2034 -91 
Q 1263 -91 848 271 
Q 434 634 434 1313 
Q 434 1759 690 2068 
Q 947 2378 1403 2484 
z
M 1172 3481 
Q 1172 3119 1398 2916 
Q 1625 2713 2034 2713 
Q 2441 2713 2670 2916 
Q 2900 3119 2900 3481 
Q 2900 3844 2670 4047 
Q 2441 4250 2034 4250 
Q 1625 4250 1398 4047 
Q 1172 3844 1172 3481 
z
" transform="scale(0.015625)"/>
       </defs>
       <use xlink:href="#DejaVuSans-32"/>
       <use xlink:href="#DejaVuSans-30" x="63.623047"/>
       <use xlink:href="#DejaVuSans-30" x="127.246094"/>
       <use xlink:href="#DejaVuSans-38" x="190.869141"/>
      </g>
     </g>
    </g>
    <g id="xtick_3">
     <g id="line2d_3">
      <g>
       <use xlink:href="#m6e009630e0" x="211.942872" y="274.960187" style="stroke: #000000; stroke-width: 0.8"/>
      </g>
     </g>
     <g id="text_3">
      <!-- 2012 -->
      <g transform="translate(199.217872 289.558624) scale(0.1 -0.1)">
       <defs>
        <path id="DejaVuSans-31" d="M 794 531 
L 1825 531 
L 1825 4091 
L 703 3866 
L 703 4441 
L 1819 4666 
L 2450 4666 
L 2450 531 
L 3481 531 
L 3481 0 
L 794 0 
L 794 531 
z
" transform="scale(0.015625)"/>
       </defs>
       <use xlink:href="#DejaVuSans-32"/>
       <use xlink:href="#DejaVuSans-30" x="63.623047"/>
       <use xlink:href="#DejaVuSans-31" x="127.246094"/>
       <use xlink:href="#DejaVuSans-32" x="190.869141"/>
      </g>
     </g>
    </g>
    <g id="xtick_4">
     <g id="line2d_4">
      <g>
       <use xlink:href="#m6e009630e0" x="282.035872" y="274.960187" style="stroke: #000000; stroke-width: 0.8"/>
      </g>
     </g>
     <g id="text_4">
      <!-- 2016 -->
      <g transform="translate(269.310872 289.558624) scale(0.1 -0.1)">
       <defs>
        <path id="DejaVuSans-36" d="M 2113 2584 
Q 1688 2584 1439 2293 
Q 1191 2003 1191 1497 
Q 1191 994 1439 701 
Q 1688 409 2113 409 
Q 2538 409 2786 701 
Q 3034 994 3034 1497 
Q 3034 2003 2786 2293 
Q 2538 2584 2113 2584 
z
M 3366 4563 
L 3366 3988 
Q 3128 4100 2886 4159 
Q 2644 4219 2406 4219 
Q 1781 4219 1451 3797 
Q 1122 3375 1075 2522 
Q 1259 2794 1537 2939 
Q 1816 3084 2150 3084 
Q 2853 3084 3261 2657 
Q 3669 2231 3669 1497 
Q 3669 778 3244 343 
Q 2819 -91 2113 -91 
Q 1303 -91 875 529 
Q 447 1150 447 2328 
Q 447 3434 972 4092 
Q 1497 4750 2381 4750 
Q 2619 4750 2861 4703 
Q 3103 4656 3366 4563 
z
" transform="scale(0.015625)"/>
       </defs>
       <use xlink:href="#DejaVuSans-32"/>
       <use xlink:href="#DejaVuSans-30" x="63.623047"/>
       <use xlink:href="#DejaVuSans-31" x="127.246094"/>
       <use xlink:href="#DejaVuSans-36" x="190.869141"/>
      </g>
     </g>
    </g>
    <g id="xtick_5">
     <g id="line2d_5">
      <g>
       <use xlink:href="#m6e009630e0" x="352.128871" y="274.960187" style="stroke: #000000; stroke-width: 0.8"/>
      </g>
     </g>
     <g id="text_5">
      <!-- 2020 -->
      <g transform="translate(339.403871 289.558624) scale(0.1 -0.1)">
       <use xlink:href="#DejaVuSans-32"/>
       <use xlink:href="#DejaVuSans-30" x="63.623047"/>
       <use xlink:href="#DejaVuSans-32" x="127.246094"/>
       <use xlink:href="#DejaVuSans-30" x="190.869141"/>
      </g>
     </g>
    </g>
    <g id="xtick_6">
     <g id="line2d_6">
      <g>
       <use xlink:href="#m6e009630e0" x="422.221871" y="274.960187" style="stroke: #000000; stroke-width: 0.8"/>
      </g>
     </g>
     <g id="text_6">
      <!-- 2024 -->
      <g transform="translate(409.496871 289.558624) scale(0.1 -0.1)">
       <use xlink:href="#DejaVuSans-32"/>
       <use xlink:href="#DejaVuSans-30" x="63.623047"/>
       <use xlink:href="#DejaVuSans-32" x="127.246094"/>
       <use xlink:href="#DejaVuSans-34" x="190.869141"/>
      </g>
     </g>
    </g>
    <g id="text_7">
     <!-- Year -->
     <g transform="translate(239.86375 307.035968) scale(0.15 -0.15)">
      <defs>
       <path id="DejaVuSans-59" d="M -13 4666 
L 666 4666 
L 1959 2747 
L 3244 4666 
L 3922 4666 
L 2272 2222 
L 2272 0 
L 1638 0 
L 1638 2222 
L -13 4666 
z
" transform="scale(0.015625)"/>
       <path id="DejaVuSans-65" d="M 3597 1894 
L 3597 1613 
L 953 1613 
Q 991 1019 1311 708 
Q 1631 397 2203 397 
Q 2534 397 2845 478 
Q 3156 559 3463 722 
L 3463 178 
Q 3153 47 2828 -22 
Q 2503 -91 2169 -91 
Q 1331 -91 842 396 
Q 353 884 353 1716 
Q 353 2575 817 3079 
Q 1281 3584 2069 3584 
Q 2775 3584 3186 3129 
Q 3597 2675 3597 1894 
z
M 3022 2063 
Q 3016 2534 2758 2815 
Q 2500 3097 2075 3097 
Q 1594 3097 1305 2825 
Q 1016 2553 972 2059 
L 3022 2063 
z
" transform="scale(0.015625)"/>
       <path id="DejaVuSans-61" d="M 2194 1759 
Q 1497 1759 1228 1600 
Q 959 1441 959 1056 
Q 959 750 1161 570 
Q 1363 391 1709 391 
Q 2188 391 2477 730 
Q 2766 1069 2766 1631 
L 2766 1759 
L 2194 1759 
z
M 3341 1997 
L 3341 0 
L 2766 0 
L 2766 531 
Q 2569 213 2275 61 
Q 1981 -91 1556 -91 
Q 1019 -91 701 211 
Q 384 513 384 1019 
Q 384 1609 779 1909 
Q 1175 2209 1959 2209 
L 2766 2209 
L 2766 2266 
Q 2766 2663 2505 2880 
Q 2244 3097 1772 3097 
Q 1472 3097 1187 3025 
Q 903 2953 641 2809 
L 641 3341 
Q 956 3463 1253 3523 
Q 1550 3584 1831 3584 
Q 2591 3584 2966 3190 
Q 3341 2797 3341 1997 
z
" transform="scale(0.015625)"/>
       <path id="DejaVuSans-72" d="M 2631 2963 
Q 2534 3019 2420 3045 
Q 2306 3072 2169 3072 
Q 1681 3072 1420 2755 
Q 1159 2438 1159 1844 
L 1159 0 
L 581 0 
L 581 3500 
L 1159 3500 
L 1159 2956 
Q 1341 3275 1631 3429 
Q 1922 3584 2338 3584 
Q 2397 3584 2469 3576 
Q 2541 3569 2628 3553 
L 2631 2963 
z
" transform="scale(0.015625)"/>
      </defs>
      <use xlink:href="#DejaVuSans-59"/>
      <use xlink:href="#DejaVuSans-65" x="47.833984"/>
      <use xlink:href="#DejaVuSans-61" x="109.357422"/>
      <use xlink:href="#DejaVuSans-72" x="170.636719"/>
     </g>
    </g>
   </g>
   <g id="matplotlib.axis_2">
    <g id="ytick_1">
     <g id="line2d_7">
      <defs>
       <path id="m998a8cb1d3" d="M 0 0 
L -3.5 0 
" style="stroke: #000000; stroke-width: 0.8"/>
      </defs>
      <g>
       <use xlink:href="#m998a8cb1d3" x="61.49" y="274.960187" style="stroke: #000000; stroke-width: 0.8"/>
      </g>
     </g>
     <g id="text_8">
      <!-- 0 -->
      <g transform="translate(48.1275 278.759406) scale(0.1 -0.1)">
       <use xlink:href="#DejaVuSans-30"/>
      </g>
     </g>
    </g>
    <g id="ytick_2">
     <g id="line2d_8">
      <g>
       <use xlink:href="#m998a8cb1d3" x="61.49" y="236.579352" style="stroke: #000000; stroke-width: 0.8"/>
      </g>
     </g>
     <g id="text_9">
      <!-- 1000 -->
      <g transform="translate(29.04 240.378571) scale(0.1 -0.1)">
       <use xlink:href="#DejaVuSans-31"/>
       <use xlink:href="#DejaVuSans-30" x="63.623047"/>
       <use xlink:href="#DejaVuSans-30" x="127.246094"/>
       <use xlink:href="#DejaVuSans-30" x="190.869141"/>
      </g>
     </g>
    </g>
    <g id="ytick_3">
     <g id="line2d_9">
      <g>
       <use xlink:href="#m998a8cb1d3" x="61.49" y="198.198517" style="stroke: #000000; stroke-width: 0.8"/>
      </g>
     </g>
     <g id="text_10">
      <!-- 2000 -->
      <g transform="translate(29.04 201.997736) scale(0.1 -0.1)">
       <use xlink:href="#DejaVuSans-32"/>
       <use xlink:href="#DejaVuSans-30" x="63.623047"/>
       <use xlink:href="#DejaVuSans-30" x="127.246094"/>
       <use xlink:href="#DejaVuSans-30" x="190.869141"/>
      </g>
     </g>
    </g>
    <g id="ytick_4">
     <g id="line2d_10">
      <g>
       <use xlink:href="#m998a8cb1d3" x="61.49" y="159.817683" style="stroke: #000000; stroke-width: 0.8"/>
      </g>
     </g>
     <g id="text_11">
      <!-- 3000 -->
      <g transform="translate(29.04 163.616901) scale(0.1 -0.1)">
       <defs>
        <path id="DejaVuSans-33" d="M 2597 2516 
Q 3050 2419 3304 2112 
Q 3559 1806 3559 1356 
Q 3559 666 3084 287 
Q 2609 -91 1734 -91 
Q 1441 -91 1130 -33 
Q 819 25 488 141 
L 488 750 
Q 750 597 1062 519 
Q 1375 441 1716 441 
Q 2309 441 2620 675 
Q 2931 909 2931 1356 
Q 2931 1769 2642 2001 
Q 2353 2234 1838 2234 
L 1294 2234 
L 1294 2753 
L 1863 2753 
Q 2328 2753 2575 2939 
Q 2822 3125 2822 3475 
Q 2822 3834 2567 4026 
Q 2313 4219 1838 4219 
Q 1578 4219 1281 4162 
Q 984 4106 628 3988 
L 628 4550 
Q 988 4650 1302 4700 
Q 1616 4750 1894 4750 
Q 2613 4750 3031 4423 
Q 3450 4097 3450 3541 
Q 3450 3153 3228 2886 
Q 3006 2619 2597 2516 
z
" transform="scale(0.015625)"/>
       </defs>
       <use xlink:href="#DejaVuSans-33"/>
       <use xlink:href="#DejaVuSans-30" x="63.623047"/>
       <use xlink:href="#DejaVuSans-30" x="127.246094"/>
       <use xlink:href="#DejaVuSans-30" x="190.869141"/>
      </g>
     </g>
    </g>
    <g id="ytick_5">
     <g id="line2d_11">
      <g>
       <use xlink:href="#m998a8cb1d3" x="61.49" y="121.436848" style="stroke: #000000; stroke-width: 0.8"/>
      </g>
     </g>
     <g id="text_12">
      <!-- 4000 -->
      <g transform="translate(29.04 125.236067) scale(0.1 -0.1)">
       <use xlink:href="#DejaVuSans-34"/>
       <use xlink:href="#DejaVuSans-30" x="63.623047"/>
       <use xlink:href="#DejaVuSans-30" x="127.246094"/>
       <use xlink:href="#DejaVuSans-30" x="190.869141"/>
      </g>
     </g>
    </g>
    <g id="ytick_6">
     <g id="line2d_12">
      <g>
       <use xlink:href="#m998a8cb1d3" x="61.49" y="83.056013" style="stroke: #000000; stroke-width: 0.8"/>
      </g>
     </g>
     <g id="text_13">
      <!-- 5000 -->
      <g transform="translate(29.04 86.855232) scale(0.1 -0.1)">
       <defs>
        <path id="DejaVuSans-35" d="M 691 4666 
L 3169 4666 
L 3169 4134 
L 1269 4134 
L 1269 2991 
Q 1406 3038 1543 3061 
Q 1681 3084 1819 3084 
Q 2600 3084 3056 2656 
Q 3513 2228 3513 1497 
Q 3513 744 3044 326 
Q 2575 -91 1722 -91 
Q 1428 -91 1123 -41 
Q 819 9 494 109 
L 494 744 
Q 775 591 1075 516 
Q 1375 441 1709 441 
Q 2250 441 2565 725 
Q 2881 1009 2881 1497 
Q 2881 1984 2565 2268 
Q 2250 2553 1709 2553 
Q 1456 2553 1204 2497 
Q 953 2441 691 2322 
L 691 4666 
z
" transform="scale(0.015625)"/>
       </defs>
       <use xlink:href="#DejaVuSans-35"/>
       <use xlink:href="#DejaVuSans-30" x="63.623047"/>
       <use xlink:href="#DejaVuSans-30" x="127.246094"/>
       <use xlink:href="#DejaVuSans-30" x="190.869141"/>
      </g>
     </g>
    </g>
    <g id="text_14">
     <!-- Number of proteins -->
     <g transform="translate(21.920469 245.489062) rotate(-90) scale(0.15 -0.15)">
      <defs>
       <path id="DejaVuSans-4e" d="M 628 4666 
L 1478 4666 
L 3547 763 
L 3547 4666 
L 4159 4666 
L 4159 0 
L 3309 0 
L 1241 3903 
L 1241 0 
L 628 0 
L 628 4666 
z
" transform="scale(0.015625)"/>
       <path id="DejaVuSans-75" d="M 544 1381 
L 544 3500 
L 1119 3500 
L 1119 1403 
Q 1119 906 1312 657 
Q 1506 409 1894 409 
Q 2359 409 2629 706 
Q 2900 1003 2900 1516 
L 2900 3500 
L 3475 3500 
L 3475 0 
L 2900 0 
L 2900 538 
Q 2691 219 2414 64 
Q 2138 -91 1772 -91 
Q 1169 -91 856 284 
Q 544 659 544 1381 
z
M 1991 3584 
L 1991 3584 
z
" transform="scale(0.015625)"/>
       <path id="DejaVuSans-6d" d="M 3328 2828 
Q 3544 3216 3844 3400 
Q 4144 3584 4550 3584 
Q 5097 3584 5394 3201 
Q 5691 2819 5691 2113 
L 5691 0 
L 5113 0 
L 5113 2094 
Q 5113 2597 4934 2840 
Q 4756 3084 4391 3084 
Q 3944 3084 3684 2787 
Q 3425 2491 3425 1978 
L 3425 0 
L 2847 0 
L 2847 2094 
Q 2847 2600 2669 2842 
Q 2491 3084 2119 3084 
Q 1678 3084 1418 2786 
Q 1159 2488 1159 1978 
L 1159 0 
L 581 0 
L 581 3500 
L 1159 3500 
L 1159 2956 
Q 1356 3278 1631 3431 
Q 1906 3584 2284 3584 
Q 2666 3584 2933 3390 
Q 3200 3197 3328 2828 
z
" transform="scale(0.015625)"/>
       <path id="DejaVuSans-62" d="M 3116 1747 
Q 3116 2381 2855 2742 
Q 2594 3103 2138 3103 
Q 1681 3103 1420 2742 
Q 1159 2381 1159 1747 
Q 1159 1113 1420 752 
Q 1681 391 2138 391 
Q 2594 391 2855 752 
Q 3116 1113 3116 1747 
z
M 1159 2969 
Q 1341 3281 1617 3432 
Q 1894 3584 2278 3584 
Q 2916 3584 3314 3078 
Q 3713 2572 3713 1747 
Q 3713 922 3314 415 
Q 2916 -91 2278 -91 
Q 1894 -91 1617 61 
Q 1341 213 1159 525 
L 1159 0 
L 581 0 
L 581 4863 
L 1159 4863 
L 1159 2969 
z
" transform="scale(0.015625)"/>
       <path id="DejaVuSans-20" transform="scale(0.015625)"/>
       <path id="DejaVuSans-6f" d="M 1959 3097 
Q 1497 3097 1228 2736 
Q 959 2375 959 1747 
Q 959 1119 1226 758 
Q 1494 397 1959 397 
Q 2419 397 2687 759 
Q 2956 1122 2956 1747 
Q 2956 2369 2687 2733 
Q 2419 3097 1959 3097 
z
M 1959 3584 
Q 2709 3584 3137 3096 
Q 3566 2609 3566 1747 
Q 3566 888 3137 398 
Q 2709 -91 1959 -91 
Q 1206 -91 779 398 
Q 353 888 353 1747 
Q 353 2609 779 3096 
Q 1206 3584 1959 3584 
z
" transform="scale(0.015625)"/>
       <path id="DejaVuSans-66" d="M 2375 4863 
L 2375 4384 
L 1825 4384 
Q 1516 4384 1395 4259 
Q 1275 4134 1275 3809 
L 1275 3500 
L 2222 3500 
L 2222 3053 
L 1275 3053 
L 1275 0 
L 697 0 
L 697 3053 
L 147 3053 
L 147 3500 
L 697 3500 
L 697 3744 
Q 697 4328 969 4595 
Q 1241 4863 1831 4863 
L 2375 4863 
z
" transform="scale(0.015625)"/>
       <path id="DejaVuSans-70" d="M 1159 525 
L 1159 -1331 
L 581 -1331 
L 581 3500 
L 1159 3500 
L 1159 2969 
Q 1341 3281 1617 3432 
Q 1894 3584 2278 3584 
Q 2916 3584 3314 3078 
Q 3713 2572 3713 1747 
Q 3713 922 3314 415 
Q 2916 -91 2278 -91 
Q 1894 -91 1617 61 
Q 1341 213 1159 525 
z
M 3116 1747 
Q 3116 2381 2855 2742 
Q 2594 3103 2138 3103 
Q 1681 3103 1420 2742 
Q 1159 2381 1159 1747 
Q 1159 1113 1420 752 
Q 1681 391 2138 391 
Q 2594 391 2855 752 
Q 3116 1113 3116 1747 
z
" transform="scale(0.015625)"/>
       <path id="DejaVuSans-74" d="M 1172 4494 
L 1172 3500 
L 2356 3500 
L 2356 3053 
L 1172 3053 
L 1172 1153 
Q 1172 725 1289 603 
Q 1406 481 1766 481 
L 2356 481 
L 2356 0 
L 1766 0 
Q 1100 0 847 248 
Q 594 497 594 1153 
L 594 3053 
L 172 3053 
L 172 3500 
L 594 3500 
L 594 4494 
L 1172 4494 
z
" transform="scale(0.015625)"/>
       <path id="DejaVuSans-69" d="M 603 3500 
L 1178 3500 
L 1178 0 
L 603 0 
L 603 3500 
z
M 603 4863 
L 1178 4863 
L 1178 4134 
L 603 4134 
L 603 4863 
z
" transform="scale(0.015625)"/>
       <path id="DejaVuSans-6e" d="M 3513 2113 
L 3513 0 
L 2938 0 
L 2938 2094 
Q 2938 2591 2744 2837 
Q 2550 3084 2163 3084 
Q 1697 3084 1428 2787 
Q 1159 2491 1159 1978 
L 1159 0 
L 581 0 
L 581 3500 
L 1159 3500 
L 1159 2956 
Q 1366 3272 1645 3428 
Q 1925 3584 2291 3584 
Q 2894 3584 3203 3211 
Q 3513 2838 3513 2113 
z
" transform="scale(0.015625)"/>
       <path id="DejaVuSans-73" d="M 2834 3397 
L 2834 2853 
Q 2591 2978 2328 3040 
Q 2066 3103 1784 3103 
Q 1356 3103 1142 2972 
Q 928 2841 928 2578 
Q 928 2378 1081 2264 
Q 1234 2150 1697 2047 
L 1894 2003 
Q 2506 1872 2764 1633 
Q 3022 1394 3022 966 
Q 3022 478 2636 193 
Q 2250 -91 1575 -91 
Q 1294 -91 989 -36 
Q 684 19 347 128 
L 347 722 
Q 666 556 975 473 
Q 1284 391 1588 391 
Q 1994 391 2212 530 
Q 2431 669 2431 922 
Q 2431 1156 2273 1281 
Q 2116 1406 1581 1522 
L 1381 1569 
Q 847 1681 609 1914 
Q 372 2147 372 2553 
Q 372 3047 722 3315 
Q 1072 3584 1716 3584 
Q 2034 3584 2315 3537 
Q 2597 3491 2834 3397 
z
" transform="scale(0.015625)"/>
      </defs>
      <use xlink:href="#DejaVuSans-4e"/>
      <use xlink:href="#DejaVuSans-75" x="74.804688"/>
      <use xlink:href="#DejaVuSans-6d" x="138.183594"/>
      <use xlink:href="#DejaVuSans-62" x="235.595703"/>
      <use xlink:href="#DejaVuSans-65" x="299.072266"/>
      <use xlink:href="#DejaVuSans-72" x="360.595703"/>
      <use xlink:href="#DejaVuSans-20" x="401.708984"/>
      <use xlink:href="#DejaVuSans-6f" x="433.496094"/>
      <use xlink:href="#DejaVuSans-66" x="494.677734"/>
      <use xlink:href="#DejaVuSans-20" x="529.882812"/>
      <use xlink:href="#DejaVuSans-70" x="561.669922"/>
      <use xlink:href="#DejaVuSans-72" x="625.146484"/>
      <use xlink:href="#DejaVuSans-6f" x="664.009766"/>
      <use xlink:href="#DejaVuSans-74" x="725.191406"/>
      <use xlink:href="#DejaVuSans-65" x="764.400391"/>
      <use xlink:href="#DejaVuSans-69" x="825.923828"/>
      <use xlink:href="#DejaVuSans-6e" x="853.707031"/>
      <use xlink:href="#DejaVuSans-73" x="917.085938"/>
     </g>
    </g>
   </g>
   <g id="patch_3">
    <path d="M 61.49 274.960187 
L 61.49 70.639813 
" style="fill: none; stroke: #000000; stroke-width: 0.8; stroke-linejoin: miter; stroke-linecap: square"/>
   </g>
   <g id="patch_4">
    <path d="M 61.49 274.960187 
L 450 274.960187 
" style="fill: none; stroke: #000000; stroke-width: 0.8; stroke-linejoin: miter; stroke-linecap: square"/>
   </g>
   <g id="legend_1">
    <g id="patch_5">
     <path d="M 98.395781 65.639813 
L 413.094219 65.639813 
Q 415.094219 65.639813 415.094219 63.639813 
L 415.094219 35.283563 
Q 415.094219 33.283563 413.094219 33.283563 
L 98.395781 33.283563 
Q 96.395781 33.283563 96.395781 35.283563 
L 96.395781 63.639813 
Q 96.395781 65.639813 98.395781 65.639813 
z
" style="fill: #ffffff; opacity: 0.8; stroke: #cccccc; stroke-linejoin: miter"/>
    </g>
    <g id="patch_6">
     <path d="M 100.395781 44.882001 
L 120.395781 44.882001 
L 120.395781 37.882001 
L 100.395781 37.882001 
z
" style="fill: #fb363b"/>
    </g>
    <g id="text_15">
     <!-- Biological role published -->
     <g transform="translate(128.395781 44.882001) scale(0.1 -0.1)">
      <defs>
       <path id="DejaVuSans-42" d="M 1259 2228 
L 1259 519 
L 2272 519 
Q 2781 519 3026 730 
Q 3272 941 3272 1375 
Q 3272 1813 3026 2020 
Q 2781 2228 2272 2228 
L 1259 2228 
z
M 1259 4147 
L 1259 2741 
L 2194 2741 
Q 2656 2741 2882 2914 
Q 3109 3088 3109 3444 
Q 3109 3797 2882 3972 
Q 2656 4147 2194 4147 
L 1259 4147 
z
M 628 4666 
L 2241 4666 
Q 2963 4666 3353 4366 
Q 3744 4066 3744 3513 
Q 3744 3084 3544 2831 
Q 3344 2578 2956 2516 
Q 3422 2416 3680 2098 
Q 3938 1781 3938 1306 
Q 3938 681 3513 340 
Q 3088 0 2303 0 
L 628 0 
L 628 4666 
z
" transform="scale(0.015625)"/>
       <path id="DejaVuSans-6c" d="M 603 4863 
L 1178 4863 
L 1178 0 
L 603 0 
L 603 4863 
z
" transform="scale(0.015625)"/>
       <path id="DejaVuSans-67" d="M 2906 1791 
Q 2906 2416 2648 2759 
Q 2391 3103 1925 3103 
Q 1463 3103 1205 2759 
Q 947 2416 947 1791 
Q 947 1169 1205 825 
Q 1463 481 1925 481 
Q 2391 481 2648 825 
Q 2906 1169 2906 1791 
z
M 3481 434 
Q 3481 -459 3084 -895 
Q 2688 -1331 1869 -1331 
Q 1566 -1331 1297 -1286 
Q 1028 -1241 775 -1147 
L 775 -588 
Q 1028 -725 1275 -790 
Q 1522 -856 1778 -856 
Q 2344 -856 2625 -561 
Q 2906 -266 2906 331 
L 2906 616 
Q 2728 306 2450 153 
Q 2172 0 1784 0 
Q 1141 0 747 490 
Q 353 981 353 1791 
Q 353 2603 747 3093 
Q 1141 3584 1784 3584 
Q 2172 3584 2450 3431 
Q 2728 3278 2906 2969 
L 2906 3500 
L 3481 3500 
L 3481 434 
z
" transform="scale(0.015625)"/>
       <path id="DejaVuSans-63" d="M 3122 3366 
L 3122 2828 
Q 2878 2963 2633 3030 
Q 2388 3097 2138 3097 
Q 1578 3097 1268 2742 
Q 959 2388 959 1747 
Q 959 1106 1268 751 
Q 1578 397 2138 397 
Q 2388 397 2633 464 
Q 2878 531 3122 666 
L 3122 134 
Q 2881 22 2623 -34 
Q 2366 -91 2075 -91 
Q 1284 -91 818 406 
Q 353 903 353 1747 
Q 353 2603 823 3093 
Q 1294 3584 2113 3584 
Q 2378 3584 2631 3529 
Q 2884 3475 3122 3366 
z
" transform="scale(0.015625)"/>
       <path id="DejaVuSans-68" d="M 3513 2113 
L 3513 0 
L 2938 0 
L 2938 2094 
Q 2938 2591 2744 2837 
Q 2550 3084 2163 3084 
Q 1697 3084 1428 2787 
Q 1159 2491 1159 1978 
L 1159 0 
L 581 0 
L 581 4863 
L 1159 4863 
L 1159 2956 
Q 1366 3272 1645 3428 
Q 1925 3584 2291 3584 
Q 2894 3584 3203 3211 
Q 3513 2838 3513 2113 
z
" transform="scale(0.015625)"/>
       <path id="DejaVuSans-64" d="M 2906 2969 
L 2906 4863 
L 3481 4863 
L 3481 0 
L 2906 0 
L 2906 525 
Q 2725 213 2448 61 
Q 2172 -91 1784 -91 
Q 1150 -91 751 415 
Q 353 922 353 1747 
Q 353 2572 751 3078 
Q 1150 3584 1784 3584 
Q 2172 3584 2448 3432 
Q 2725 3281 2906 2969 
z
M 947 1747 
Q 947 1113 1208 752 
Q 1469 391 1925 391 
Q 2381 391 2643 752 
Q 2906 1113 2906 1747 
Q 2906 2381 2643 2742 
Q 2381 3103 1925 3103 
Q 1469 3103 1208 2742 
Q 947 2381 947 1747 
z
" transform="scale(0.015625)"/>
      </defs>
      <use xlink:href="#DejaVuSans-42"/>
      <use xlink:href="#DejaVuSans-69" x="68.603516"/>
      <use xlink:href="#DejaVuSans-6f" x="96.386719"/>
      <use xlink:href="#DejaVuSans-6c" x="157.568359"/>
      <use xlink:href="#DejaVuSans-6f" x="185.351562"/>
      <use xlink:href="#DejaVuSans-67" x="246.533203"/>
      <use xlink:href="#DejaVuSans-69" x="310.009766"/>
      <use xlink:href="#DejaVuSans-63" x="337.792969"/>
      <use xlink:href="#DejaVuSans-61" x="392.773438"/>
      <use xlink:href="#DejaVuSans-6c" x="454.052734"/>
      <use xlink:href="#DejaVuSans-20" x="481.835938"/>
      <use xlink:href="#DejaVuSans-72" x="513.623047"/>
      <use xlink:href="#DejaVuSans-6f" x="552.486328"/>
      <use xlink:href="#DejaVuSans-6c" x="613.667969"/>
      <use xlink:href="#DejaVuSans-65" x="641.451172"/>
      <use xlink:href="#DejaVuSans-20" x="702.974609"/>
      <use xlink:href="#DejaVuSans-70" x="734.761719"/>
      <use xlink:href="#DejaVuSans-75" x="798.238281"/>
      <use xlink:href="#DejaVuSans-62" x="861.617188"/>
      <use xlink:href="#DejaVuSans-6c" x="925.09375"/>
      <use xlink:href="#DejaVuSans-69" x="952.876953"/>
      <use xlink:href="#DejaVuSans-73" x="980.660156"/>
      <use xlink:href="#DejaVuSans-68" x="1032.759766"/>
      <use xlink:href="#DejaVuSans-65" x="1096.138672"/>
      <use xlink:href="#DejaVuSans-64" x="1157.662109"/>
     </g>
    </g>
    <g id="patch_7">
     <path d="M 100.395781 59.560126 
L 120.395781 59.560126 
L 120.395781 52.560126 
L 100.395781 52.560126 
z
" style="fill: #fdc92c"/>
    </g>
    <g id="text_16">
     <!-- Biological role inferred -->
     <g transform="translate(128.395781 59.560126) scale(0.1 -0.1)">
      <use xlink:href="#DejaVuSans-42"/>
      <use xlink:href="#DejaVuSans-69" x="68.603516"/>
      <use xlink:href="#DejaVuSans-6f" x="96.386719"/>
      <use xlink:href="#DejaVuSans-6c" x="157.568359"/>
      <use xlink:href="#DejaVuSans-6f" x="185.351562"/>
      <use xlink:href="#DejaVuSans-67" x="246.533203"/>
      <use xlink:href="#DejaVuSans-69" x="310.009766"/>
      <use xlink:href="#DejaVuSans-63" x="337.792969"/>
      <use xlink:href="#DejaVuSans-61" x="392.773438"/>
      <use xlink:href="#DejaVuSans-6c" x="454.052734"/>
      <use xlink:href="#DejaVuSans-20" x="481.835938"/>
      <use xlink:href="#DejaVuSans-72" x="513.623047"/>
      <use xlink:href="#DejaVuSans-6f" x="552.486328"/>
      <use xlink:href="#DejaVuSans-6c" x="613.667969"/>
      <use xlink:href="#DejaVuSans-65" x="641.451172"/>
      <use xlink:href="#DejaVuSans-20" x="702.974609"/>
      <use xlink:href="#DejaVuSans-69" x="734.761719"/>
      <use xlink:href="#DejaVuSans-6e" x="762.544922"/>
      <use xlink:href="#DejaVuSans-66" x="825.923828"/>
      <use xlink:href="#DejaVuSans-65" x="861.128906"/>
      <use xlink:href="#DejaVuSans-72" x="922.652344"/>
      <use xlink:href="#DejaVuSans-72" x="962.015625"/>
      <use xlink:href="#DejaVuSans-65" x="1000.878906"/>
      <use xlink:href="#DejaVuSans-64" x="1062.402344"/>
     </g>
    </g>
    <g id="patch_8">
     <path d="M 270.512969 44.882001 
L 290.512969 44.882001 
L 290.512969 37.882001 
L 270.512969 37.882001 
z
" style="fill: #aeaeae"/>
    </g>
    <g id="text_17">
     <!-- Conserved unknown -->
     <g transform="translate(298.512969 44.882001) scale(0.1 -0.1)">
      <defs>
       <path id="DejaVuSans-43" d="M 4122 4306 
L 4122 3641 
Q 3803 3938 3442 4084 
Q 3081 4231 2675 4231 
Q 1875 4231 1450 3742 
Q 1025 3253 1025 2328 
Q 1025 1406 1450 917 
Q 1875 428 2675 428 
Q 3081 428 3442 575 
Q 3803 722 4122 1019 
L 4122 359 
Q 3791 134 3420 21 
Q 3050 -91 2638 -91 
Q 1578 -91 968 557 
Q 359 1206 359 2328 
Q 359 3453 968 4101 
Q 1578 4750 2638 4750 
Q 3056 4750 3426 4639 
Q 3797 4528 4122 4306 
z
" transform="scale(0.015625)"/>
       <path id="DejaVuSans-76" d="M 191 3500 
L 800 3500 
L 1894 563 
L 2988 3500 
L 3597 3500 
L 2284 0 
L 1503 0 
L 191 3500 
z
" transform="scale(0.015625)"/>
       <path id="DejaVuSans-6b" d="M 581 4863 
L 1159 4863 
L 1159 1991 
L 2875 3500 
L 3609 3500 
L 1753 1863 
L 3688 0 
L 2938 0 
L 1159 1709 
L 1159 0 
L 581 0 
L 581 4863 
z
" transform="scale(0.015625)"/>
       <path id="DejaVuSans-77" d="M 269 3500 
L 844 3500 
L 1563 769 
L 2278 3500 
L 2956 3500 
L 3675 769 
L 4391 3500 
L 4966 3500 
L 4050 0 
L 3372 0 
L 2619 2869 
L 1863 0 
L 1184 0 
L 269 3500 
z
" transform="scale(0.015625)"/>
      </defs>
      <use xlink:href="#DejaVuSans-43"/>
      <use xlink:href="#DejaVuSans-6f" x="69.824219"/>
      <use xlink:href="#DejaVuSans-6e" x="131.005859"/>
      <use xlink:href="#DejaVuSans-73" x="194.384766"/>
      <use xlink:href="#DejaVuSans-65" x="246.484375"/>
      <use xlink:href="#DejaVuSans-72" x="308.007812"/>
      <use xlink:href="#DejaVuSans-76" x="349.121094"/>
      <use xlink:href="#DejaVuSans-65" x="408.300781"/>
      <use xlink:href="#DejaVuSans-64" x="469.824219"/>
      <use xlink:href="#DejaVuSans-20" x="533.300781"/>
      <use xlink:href="#DejaVuSans-75" x="565.087891"/>
      <use xlink:href="#DejaVuSans-6e" x="628.466797"/>
      <use xlink:href="#DejaVuSans-6b" x="691.845703"/>
      <use xlink:href="#DejaVuSans-6e" x="749.755859"/>
      <use xlink:href="#DejaVuSans-6f" x="813.134766"/>
      <use xlink:href="#DejaVuSans-77" x="874.316406"/>
      <use xlink:href="#DejaVuSans-6e" x="956.103516"/>
     </g>
    </g>
    <g id="patch_9">
     <path d="M 270.512969 59.560126 
L 290.512969 59.560126 
L 290.512969 52.560126 
L 270.512969 52.560126 
z
" style="fill: #d5dce5"/>
    </g>
    <g id="text_18">
     <!-- Fission yeast unknown -->
     <g transform="translate(298.512969 59.560126) scale(0.1 -0.1)">
      <defs>
       <path id="DejaVuSans-46" d="M 628 4666 
L 3309 4666 
L 3309 4134 
L 1259 4134 
L 1259 2759 
L 3109 2759 
L 3109 2228 
L 1259 2228 
L 1259 0 
L 628 0 
L 628 4666 
z
" transform="scale(0.015625)"/>
       <path id="DejaVuSans-79" d="M 2059 -325 
Q 1816 -950 1584 -1140 
Q 1353 -1331 966 -1331 
L 506 -1331 
L 506 -850 
L 844 -850 
Q 1081 -850 1212 -737 
Q 1344 -625 1503 -206 
L 1606 56 
L 191 3500 
L 800 3500 
L 1894 763 
L 2988 3500 
L 3597 3500 
L 2059 -325 
z
" transform="scale(0.015625)"/>
      </defs>
      <use xlink:href="#DejaVuSans-46"/>
      <use xlink:href="#DejaVuSans-69" x="50.269531"/>
      <use xlink:href="#DejaVuSans-73" x="78.052734"/>
      <use xlink:href="#DejaVuSans-73" x="130.152344"/>
      <use xlink:href="#DejaVuSans-69" x="182.251953"/>
      <use xlink:href="#DejaVuSans-6f" x="210.035156"/>
      <use xlink:href="#DejaVuSans-6e" x="271.216797"/>
      <use xlink:href="#DejaVuSans-20" x="334.595703"/>
      <use xlink:href="#DejaVuSans-79" x="366.382812"/>
      <use xlink:href="#DejaVuSans-65" x="425.5625"/>
      <use xlink:href="#DejaVuSans-61" x="487.085938"/>
      <use xlink:href="#DejaVuSans-73" x="548.365234"/>
      <use xlink:href="#DejaVuSans-74" x="600.464844"/>
      <use xlink:href="#DejaVuSans-20" x="639.673828"/>
      <use xlink:href="#DejaVuSans-75" x="671.460938"/>
      <use xlink:href="#DejaVuSans-6e" x="734.839844"/>
      <use xlink:href="#DejaVuSans-6b" x="798.21875"/>
      <use xlink:href="#DejaVuSans-6e" x="856.128906"/>
      <use xlink:href="#DejaVuSans-6f" x="919.507812"/>
      <use xlink:href="#DejaVuSans-77" x="980.689453"/>
      <use xlink:href="#DejaVuSans-6e" x="1062.476562"/>
     </g>
    </g>
   </g>
  </g>
 </g>
 <defs>
  <clipPath id="p755016a97f">
   <rect x="61.49" y="70.639813" width="388.51" height="204.320374"/>
  </clipPath>
 </defs>
</svg>
