<?xml version="1.0" encoding="utf-8" standalone="no"?>
<!DOCTYPE svg PUBLIC "-//W3C//DTD SVG 1.1//EN"
  "http://www.w3.org/Graphics/SVG/1.1/DTD/svg11.dtd">
<svg xmlns:xlink="http://www.w3.org/1999/xlink" width="460.8pt" height="345.6pt" viewBox="0 0 460.8 345.6" xmlns="http://www.w3.org/2000/svg" version="1.1">
 <metadata>
  <rdf:RDF xmlns:dc="http://purl.org/dc/elements/1.1/" xmlns:cc="http://creativecommons.org/ns#" xmlns:rdf="http://www.w3.org/1999/02/22-rdf-syntax-ns#">
   <cc:Work>
    <dc:type rdf:resource="http://purl.org/dc/dcmitype/StillImage"/>
    <dc:date>2024-01-02T00:46:32.381205</dc:date>
    <dc:format>image/svg+xml</dc:format>
    <dc:creator>
     <cc:Agent>
      <dc:title>Matplotlib v3.7.1, https://matplotlib.org/</dc:title>
     </cc:Agent>
    </dc:creator>
   </cc:Work>
  </rdf:RDF>
 </metadata>
 <defs>
  <style type="text/css">*{stroke-linejoin: round; stroke-linecap: butt}</style>
 </defs>
 <g id="figure_1">
  <g id="patch_1">
   <path d="M 0 345.6 
L 460.8 345.6 
L 460.8 0 
L 0 0 
z
" style="fill: #ffffff"/>
  </g>
  <g id="axes_1">
   <g id="patch_2">
    <path d="M 61.49 280.597962 
L 437.447489 280.597962 
L 437.447489 67.682038 
L 61.49 67.682038 
z
" style="fill: #ffffff"/>
   </g>
   <g id="PolyCollection_1">
    <path d="M 31.24342 226.564072 
L 31.24342 280.597962 
L 39.692465 280.597962 
L 48.041521 280.597962 
L 65.189582 280.597962 
L 85.087332 280.597962 
L 99.735675 280.597962 
L 108.834647 280.597962 
L 111.184381 280.597962 
L 115.533889 280.597962 
L 117.533663 280.597962 
L 117.783635 280.597962 
L 121.083262 280.597962 
L 121.933166 280.597962 
L 122.633086 280.597962 
L 123.48299 280.597962 
L 124.032928 280.597962 
L 124.882832 280.597962 
L 125.382775 280.597962 
L 126.282674 280.597962 
L 127.482538 280.597962 
L 128.432431 280.597962 
L 128.782391 280.597962 
L 129.782278 280.597962 
L 130.482199 280.597962 
L 131.232114 280.597962 
L 132.032024 280.597962 
L 132.581961 280.597962 
L 133.081905 280.597962 
L 134.481747 280.597962 
L 135.481634 280.597962 
L 136.231549 280.597962 
L 136.431526 280.597962 
L 137.131447 280.597962 
L 138.181328 280.597962 
L 139.281204 280.597962 
L 140.031119 280.597962 
L 141.130995 280.597962 
L 142.580831 280.597962 
L 144.580605 280.597962 
L 146.330407 280.597962 
L 147.830237 280.597962 
L 150.629921 280.597962 
L 151.829785 280.597962 
L 155.079418 280.597962 
L 157.17918 280.597962 
L 158.479033 280.597962 
L 159.278943 280.597962 
L 162.428587 280.597962 
L 164.178389 280.597962 
L 165.978185 280.597962 
L 169.527784 280.597962 
L 172.827411 280.597962 
L 173.377349 280.597962 
L 174.027275 280.597962 
L 175.027162 280.597962 
L 175.827072 280.597962 
L 178.276795 280.597962 
L 183.176241 280.597962 
L 184.126133 280.597962 
L 188.725613 280.597962 
L 189.775494 280.597962 
L 190.825376 280.597962 
L 192.525183 280.597962 
L 193.925025 280.597962 
L 195.274873 280.597962 
L 196.124776 280.597962 
L 198.874466 280.597962 
L 201.724143 280.597962 
L 203.123985 280.597962 
L 204.123872 280.597962 
L 205.373731 280.597962 
L 206.423612 280.597962 
L 207.673471 280.597962 
L 210.623137 280.597962 
L 212.172962 280.597962 
L 213.672792 280.597962 
L 215.222617 280.597962 
L 216.722447 280.597962 
L 218.272272 280.597962 
L 219.822097 280.597962 
L 221.271933 280.597962 
L 222.821758 280.597962 
L 224.321588 280.597962 
L 225.871413 280.597962 
L 227.371243 280.597962 
L 228.921068 280.597962 
L 230.470893 280.597962 
L 231.970723 280.597962 
L 233.520548 280.597962 
L 235.020378 280.597962 
L 236.570203 280.597962 
L 238.120028 280.597962 
L 239.51987 280.597962 
L 241.069694 280.597962 
L 242.569525 280.597962 
L 244.11935 280.597962 
L 245.61918 280.597962 
L 247.169005 280.597962 
L 248.718829 280.597962 
L 250.21866 280.597962 
L 251.768485 280.597962 
L 253.268315 280.597962 
L 254.81814 280.597962 
L 256.367965 280.597962 
L 257.767806 280.597962 
L 259.317631 280.597962 
L 260.817461 280.597962 
L 262.367286 280.597962 
L 263.867117 280.597962 
L 265.416941 280.597962 
L 266.966766 280.597962 
L 268.466597 280.597962 
L 270.016421 280.597962 
L 271.516252 280.597962 
L 273.066076 280.597962 
L 274.615901 280.597962 
L 276.015743 280.597962 
L 277.565568 280.597962 
L 279.065398 280.597962 
L 280.615223 280.597962 
L 282.115053 280.597962 
L 283.664878 280.597962 
L 285.214703 280.597962 
L 286.714533 280.597962 
L 288.264358 280.597962 
L 289.764188 280.597962 
L 291.314013 280.597962 
L 292.863838 280.597962 
L 294.313674 280.597962 
L 295.863499 280.597962 
L 297.363329 280.597962 
L 298.913154 280.597962 
L 300.412984 280.597962 
L 301.962809 280.597962 
L 303.512634 280.597962 
L 305.012464 280.597962 
L 306.562289 280.597962 
L 308.062119 280.597962 
L 309.611944 280.597962 
L 311.161769 280.597962 
L 312.561611 280.597962 
L 314.111435 280.597962 
L 315.611266 280.597962 
L 317.161091 280.597962 
L 318.660921 280.597962 
L 320.210746 280.597962 
L 321.76057 280.597962 
L 323.260401 280.597962 
L 324.810226 280.597962 
L 326.310056 280.597962 
L 327.859881 280.597962 
L 329.409706 280.597962 
L 330.809547 280.597962 
L 332.359372 280.597962 
L 333.859202 280.597962 
L 335.409027 280.597962 
L 336.908858 280.597962 
L 338.458682 280.597962 
L 340.008507 280.597962 
L 341.508337 280.597962 
L 343.058162 280.597962 
L 344.557993 280.597962 
L 346.107817 280.597962 
L 347.657642 280.597962 
L 349.057484 280.597962 
L 350.607309 280.597962 
L 352.107139 280.597962 
L 353.656964 280.597962 
L 355.156794 280.597962 
L 356.706619 280.597962 
L 358.256444 280.597962 
L 359.756274 280.597962 
L 361.306099 280.597962 
L 362.805929 280.597962 
L 364.355754 280.597962 
L 365.905579 280.597962 
L 367.355415 280.597962 
L 368.90524 280.597962 
L 370.40507 280.597962 
L 371.954895 280.597962 
L 373.454725 280.597962 
L 375.00455 280.597962 
L 376.554375 280.597962 
L 378.054205 280.597962 
L 379.60403 280.597962 
L 381.10386 280.597962 
L 382.653685 280.597962 
L 384.20351 280.597962 
L 385.603352 280.597962 
L 387.153176 280.597962 
L 388.653007 280.597962 
L 390.202831 280.597962 
L 391.702662 280.597962 
L 393.252487 280.597962 
L 394.802311 280.597962 
L 396.302142 280.597962 
L 397.851967 280.597962 
L 399.351797 280.597962 
L 400.901622 280.597962 
L 402.451446 280.597962 
L 403.851288 280.597962 
L 405.401113 280.597962 
L 406.900943 280.597962 
L 408.450768 280.597962 
L 409.950599 280.597962 
L 411.500423 280.597962 
L 413.050248 280.597962 
L 414.550078 280.597962 
L 416.099903 280.597962 
L 417.599734 280.597962 
L 419.149558 280.597962 
L 420.699383 280.597962 
L 422.099225 280.597962 
L 423.64905 280.597962 
L 425.14888 280.597962 
L 426.698705 280.597962 
L 428.198535 280.597962 
L 429.74836 280.597962 
L 431.298185 280.597962 
L 432.798015 280.597962 
L 434.34784 280.597962 
L 435.84767 280.597962 
L 437.397495 280.597962 
L 437.397495 179.209427 
L 437.397495 179.209427 
L 435.84767 179.249422 
L 434.34784 179.489395 
L 432.798015 179.609382 
L 431.298185 179.649377 
L 429.74836 179.769363 
L 428.198535 180.249309 
L 426.698705 180.489282 
L 425.14888 180.609269 
L 423.64905 180.609269 
L 422.099225 180.969228 
L 420.699383 181.56916 
L 419.149558 181.529164 
L 417.599734 181.649151 
L 416.099903 181.769137 
L 414.550078 182.00911 
L 413.050248 182.00911 
L 411.500423 182.049106 
L 409.950599 182.049106 
L 408.450768 182.00911 
L 406.900943 182.089101 
L 405.401113 182.00911 
L 403.851288 181.969115 
L 402.451446 182.00911 
L 400.901622 182.00911 
L 399.351797 182.209088 
L 397.851967 182.409065 
L 396.302142 182.729029 
L 394.802311 182.969002 
L 393.252487 182.929006 
L 391.702662 183.128984 
L 390.202831 183.408952 
L 388.653007 183.408952 
L 387.153176 183.568934 
L 385.603352 184.088875 
L 384.20351 184.208861 
L 382.653685 184.648812 
L 381.10386 184.688807 
L 379.60403 184.848789 
L 378.054205 184.92878 
L 376.554375 185.088762 
L 375.00455 185.128757 
L 373.454725 185.208748 
L 371.954895 185.208748 
L 370.40507 185.288739 
L 368.90524 185.648699 
L 367.355415 185.768685 
L 365.905579 185.848676 
L 364.355754 185.928667 
L 362.805929 185.928667 
L 361.306099 185.928667 
L 359.756274 186.048653 
L 358.256444 186.128644 
L 356.706619 186.288626 
L 355.156794 186.528599 
L 353.656964 186.648586 
L 352.107139 186.728577 
L 350.607309 186.808568 
L 349.057484 186.848563 
L 347.657642 186.848563 
L 346.107817 186.888558 
L 344.557993 186.928554 
L 343.058162 187.008545 
L 341.508337 187.04854 
L 340.008507 187.04854 
L 338.458682 187.168527 
L 336.908858 187.288513 
L 335.409027 187.528486 
L 333.859202 187.688468 
L 332.359372 188.008432 
L 330.809547 188.168414 
L 329.409706 188.328396 
L 327.859881 188.368391 
L 326.310056 188.528373 
L 324.810226 188.688355 
L 323.260401 190.448156 
L 321.76057 190.728124 
L 320.210746 191.488038 
L 318.660921 190.848111 
L 317.161091 190.76812 
L 315.611266 190.808115 
L 314.111435 190.888106 
L 312.561611 191.168075 
L 311.161769 191.20807 
L 309.611944 191.288061 
L 308.062119 192.047975 
L 306.562289 192.167962 
L 305.012464 192.367939 
L 303.512634 192.44793 
L 301.962809 192.567916 
L 300.412984 193.007867 
L 298.913154 193.207844 
L 297.363329 193.207844 
L 295.863499 193.607799 
L 294.313674 193.68779 
L 292.863838 193.727785 
L 291.314013 193.927763 
L 289.764188 194.007753 
L 288.264358 194.007753 
L 286.714533 194.207731 
L 285.214703 194.247726 
L 283.664878 194.287722 
L 282.115053 194.447704 
L 280.615223 194.56769 
L 279.065398 193.967758 
L 277.565568 194.047749 
L 276.015743 194.247726 
L 274.615901 194.247726 
L 273.066076 194.487699 
L 271.516252 194.647681 
L 270.016421 194.927649 
L 268.466597 195.287609 
L 266.966766 195.607573 
L 265.416941 195.687564 
L 263.867117 195.967532 
L 262.367286 196.207505 
L 260.817461 196.567464 
L 259.317631 196.727446 
L 257.767806 196.927423 
L 256.367965 196.967419 
L 254.81814 196.967419 
L 253.268315 197.167396 
L 251.768485 197.647342 
L 250.21866 197.687337 
L 248.718829 197.92731 
L 247.169005 198.607233 
L 245.61918 198.687224 
L 244.11935 199.16717 
L 242.569525 199.487134 
L 241.069694 200.567012 
L 239.51987 200.647003 
L 238.120028 200.766989 
L 236.570203 201.046958 
L 235.020378 201.126949 
L 233.520548 201.366921 
L 231.970723 201.566899 
L 230.470893 201.926858 
L 228.921068 202.126835 
L 227.371243 202.246822 
L 225.871413 202.486795 
L 224.321588 202.52679 
L 222.821758 202.646777 
L 221.271933 202.806759 
L 219.822097 202.806759 
L 218.272272 202.88675 
L 216.722447 202.926745 
L 215.222617 202.96674 
L 213.672792 203.006736 
L 212.172962 203.046731 
L 210.623137 203.166718 
L 207.673471 203.926632 
L 206.423612 204.126609 
L 205.373731 204.166605 
L 204.123872 204.046618 
L 203.123985 204.046618 
L 201.724143 204.166605 
L 198.874466 204.286591 
L 196.124776 204.926519 
L 195.274873 205.88641 
L 193.925025 205.726428 
L 192.525183 205.686433 
L 190.825376 206.406352 
L 189.775494 206.406352 
L 188.725613 206.166379 
L 184.126133 206.68632 
L 183.176241 206.766311 
L 178.276795 207.446234 
L 175.827072 207.526225 
L 175.027162 207.366243 
L 174.027275 207.486229 
L 173.377349 207.686207 
L 172.827411 207.726202 
L 169.527784 207.846189 
L 165.978185 207.92618 
L 164.178389 208.126157 
L 162.428587 210.245917 
L 159.278943 210.165926 
L 158.479033 210.205922 
L 157.17918 210.645872 
L 155.079418 211.765746 
L 151.829785 212.005718 
L 150.629921 212.405673 
L 147.830237 212.685642 
L 146.330407 213.525547 
L 144.580605 214.085483 
L 142.580831 214.525433 
L 141.130995 214.565429 
L 140.031119 214.64542 
L 139.281204 214.685415 
L 138.181328 214.725411 
L 137.131447 215.445329 
L 136.431526 215.805289 
L 136.231549 215.805289 
L 135.481634 215.805289 
L 134.481747 216.045262 
L 133.081905 215.805289 
L 132.581961 216.005266 
L 132.032024 216.085257 
L 131.232114 216.205244 
L 130.482199 216.205244 
L 129.782278 216.525207 
L 128.782391 217.245126 
L 128.432431 217.20513 
L 127.482538 217.56509 
L 126.282674 217.645081 
L 125.382775 217.725072 
L 124.882832 217.805063 
L 124.032928 217.925049 
L 123.48299 218.165022 
L 122.633086 218.364999 
L 121.933166 218.285008 
L 121.083262 218.364999 
L 117.783635 218.644968 
L 117.533663 218.604972 
L 115.533889 218.924936 
L 111.184381 217.005153 
L 108.834647 219.844832 
L 99.735675 223.564411 
L 85.087332 227.044018 
L 65.189582 231.523511 
L 48.041521 226.364095 
L 39.692465 225.724167 
L 31.24342 226.564072 
z
" clip-path="url(#p339f263f5c)" style="fill: #fb363b"/>
   </g>
   <g id="PolyCollection_2">
    <path d="M 31.24342 144.33337 
L 31.24342 226.564072 
L 39.692465 225.724167 
L 48.041521 226.364095 
L 65.189582 231.523511 
L 85.087332 227.044018 
L 99.735675 223.564411 
L 108.834647 219.844832 
L 111.184381 217.005153 
L 115.533889 218.924936 
L 117.533663 218.604972 
L 117.783635 218.644968 
L 121.083262 218.364999 
L 121.933166 218.285008 
L 122.633086 218.364999 
L 123.48299 218.165022 
L 124.032928 217.925049 
L 124.882832 217.805063 
L 125.382775 217.725072 
L 126.282674 217.645081 
L 127.482538 217.56509 
L 128.432431 217.20513 
L 128.782391 217.245126 
L 129.782278 216.525207 
L 130.482199 216.205244 
L 131.232114 216.205244 
L 132.032024 216.085257 
L 132.581961 216.005266 
L 133.081905 215.805289 
L 134.481747 216.045262 
L 135.481634 215.805289 
L 136.231549 215.805289 
L 136.431526 215.805289 
L 137.131447 215.445329 
L 138.181328 214.725411 
L 139.281204 214.685415 
L 140.031119 214.64542 
L 141.130995 214.565429 
L 142.580831 214.525433 
L 144.580605 214.085483 
L 146.330407 213.525547 
L 147.830237 212.685642 
L 150.629921 212.405673 
L 151.829785 212.005718 
L 155.079418 211.765746 
L 157.17918 210.645872 
L 158.479033 210.205922 
L 159.278943 210.165926 
L 162.428587 210.245917 
L 164.178389 208.126157 
L 165.978185 207.92618 
L 169.527784 207.846189 
L 172.827411 207.726202 
L 173.377349 207.686207 
L 174.027275 207.486229 
L 175.027162 207.366243 
L 175.827072 207.526225 
L 178.276795 207.446234 
L 183.176241 206.766311 
L 184.126133 206.68632 
L 188.725613 206.166379 
L 189.775494 206.406352 
L 190.825376 206.406352 
L 192.525183 205.686433 
L 193.925025 205.726428 
L 195.274873 205.88641 
L 196.124776 204.926519 
L 198.874466 204.286591 
L 201.724143 204.166605 
L 203.123985 204.046618 
L 204.123872 204.046618 
L 205.373731 204.166605 
L 206.423612 204.126609 
L 207.673471 203.926632 
L 210.623137 203.166718 
L 212.172962 203.046731 
L 213.672792 203.006736 
L 215.222617 202.96674 
L 216.722447 202.926745 
L 218.272272 202.88675 
L 219.822097 202.806759 
L 221.271933 202.806759 
L 222.821758 202.646777 
L 224.321588 202.52679 
L 225.871413 202.486795 
L 227.371243 202.246822 
L 228.921068 202.126835 
L 230.470893 201.926858 
L 231.970723 201.566899 
L 233.520548 201.366921 
L 235.020378 201.126949 
L 236.570203 201.046958 
L 238.120028 200.766989 
L 239.51987 200.647003 
L 241.069694 200.567012 
L 242.569525 199.487134 
L 244.11935 199.16717 
L 245.61918 198.687224 
L 247.169005 198.607233 
L 248.718829 197.92731 
L 250.21866 197.687337 
L 251.768485 197.647342 
L 253.268315 197.167396 
L 254.81814 196.967419 
L 256.367965 196.967419 
L 257.767806 196.927423 
L 259.317631 196.727446 
L 260.817461 196.567464 
L 262.367286 196.207505 
L 263.867117 195.967532 
L 265.416941 195.687564 
L 266.966766 195.607573 
L 268.466597 195.287609 
L 270.016421 194.927649 
L 271.516252 194.647681 
L 273.066076 194.487699 
L 274.615901 194.247726 
L 276.015743 194.247726 
L 277.565568 194.047749 
L 279.065398 193.967758 
L 280.615223 194.56769 
L 282.115053 194.447704 
L 283.664878 194.287722 
L 285.214703 194.247726 
L 286.714533 194.207731 
L 288.264358 194.007753 
L 289.764188 194.007753 
L 291.314013 193.927763 
L 292.863838 193.727785 
L 294.313674 193.68779 
L 295.863499 193.607799 
L 297.363329 193.207844 
L 298.913154 193.207844 
L 300.412984 193.007867 
L 301.962809 192.567916 
L 303.512634 192.44793 
L 305.012464 192.367939 
L 306.562289 192.167962 
L 308.062119 192.047975 
L 309.611944 191.288061 
L 311.161769 191.20807 
L 312.561611 191.168075 
L 314.111435 190.888106 
L 315.611266 190.808115 
L 317.161091 190.76812 
L 318.660921 190.848111 
L 320.210746 191.488038 
L 321.76057 190.728124 
L 323.260401 190.448156 
L 324.810226 188.688355 
L 326.310056 188.528373 
L 327.859881 188.368391 
L 329.409706 188.328396 
L 330.809547 188.168414 
L 332.359372 188.008432 
L 333.859202 187.688468 
L 335.409027 187.528486 
L 336.908858 187.288513 
L 338.458682 187.168527 
L 340.008507 187.04854 
L 341.508337 187.04854 
L 343.058162 187.008545 
L 344.557993 186.928554 
L 346.107817 186.888558 
L 347.657642 186.848563 
L 349.057484 186.848563 
L 350.607309 186.808568 
L 352.107139 186.728577 
L 353.656964 186.648586 
L 355.156794 186.528599 
L 356.706619 186.288626 
L 358.256444 186.128644 
L 359.756274 186.048653 
L 361.306099 185.928667 
L 362.805929 185.928667 
L 364.355754 185.928667 
L 365.905579 185.848676 
L 367.355415 185.768685 
L 368.90524 185.648699 
L 370.40507 185.288739 
L 371.954895 185.208748 
L 373.454725 185.208748 
L 375.00455 185.128757 
L 376.554375 185.088762 
L 378.054205 184.92878 
L 379.60403 184.848789 
L 381.10386 184.688807 
L 382.653685 184.648812 
L 384.20351 184.208861 
L 385.603352 184.088875 
L 387.153176 183.568934 
L 388.653007 183.408952 
L 390.202831 183.408952 
L 391.702662 183.128984 
L 393.252487 182.929006 
L 394.802311 182.969002 
L 396.302142 182.729029 
L 397.851967 182.409065 
L 399.351797 182.209088 
L 400.901622 182.00911 
L 402.451446 182.00911 
L 403.851288 181.969115 
L 405.401113 182.00911 
L 406.900943 182.089101 
L 408.450768 182.00911 
L 409.950599 182.049106 
L 411.500423 182.049106 
L 413.050248 182.00911 
L 414.550078 182.00911 
L 416.099903 181.769137 
L 417.599734 181.649151 
L 419.149558 181.529164 
L 420.699383 181.56916 
L 422.099225 180.969228 
L 423.64905 180.609269 
L 425.14888 180.609269 
L 426.698705 180.489282 
L 428.198535 180.249309 
L 429.74836 179.769363 
L 431.298185 179.649377 
L 432.798015 179.609382 
L 434.34784 179.489395 
L 435.84767 179.249422 
L 437.397495 179.209427 
L 437.397495 102.978046 
L 437.397495 102.978046 
L 435.84767 102.978046 
L 434.34784 103.098033 
L 432.798015 103.258015 
L 431.298185 103.338006 
L 429.74836 103.338006 
L 428.198535 103.617974 
L 426.698705 103.857947 
L 425.14888 103.977933 
L 423.64905 103.977933 
L 422.099225 104.017929 
L 420.699383 104.177911 
L 419.149558 104.297897 
L 417.599734 104.377888 
L 416.099903 104.377888 
L 414.550078 104.417884 
L 413.050248 104.297897 
L 411.500423 104.337893 
L 409.950599 104.337893 
L 408.450768 104.53787 
L 406.900943 104.497875 
L 405.401113 104.497875 
L 403.851288 104.53787 
L 402.451446 104.617861 
L 400.901622 104.617861 
L 399.351797 104.737848 
L 397.851967 104.697852 
L 396.302142 104.817838 
L 394.802311 104.857834 
L 393.252487 104.897829 
L 391.702662 104.937825 
L 390.202831 104.97782 
L 388.653007 104.937825 
L 387.153176 105.057811 
L 385.603352 105.257789 
L 384.20351 105.417771 
L 382.653685 105.457766 
L 381.10386 105.457766 
L 379.60403 105.537757 
L 378.054205 105.577753 
L 376.554375 105.657743 
L 375.00455 105.657743 
L 373.454725 105.697739 
L 371.954895 105.737734 
L 370.40507 105.617748 
L 368.90524 105.577753 
L 367.355415 105.617748 
L 365.905579 105.537757 
L 364.355754 105.537757 
L 362.805929 105.537757 
L 361.306099 105.537757 
L 359.756274 105.537757 
L 358.256444 105.577753 
L 356.706619 105.537757 
L 355.156794 105.577753 
L 353.656964 105.577753 
L 352.107139 105.457766 
L 350.607309 105.457766 
L 349.057484 105.497762 
L 347.657642 105.497762 
L 346.107817 105.577753 
L 344.557993 105.577753 
L 343.058162 105.657743 
L 341.508337 105.657743 
L 340.008507 105.657743 
L 338.458682 105.697739 
L 336.908858 105.697739 
L 335.409027 105.697739 
L 333.859202 105.737734 
L 332.359372 105.77773 
L 330.809547 106.097694 
L 329.409706 106.21768 
L 327.859881 106.137689 
L 326.310056 106.21768 
L 324.810226 106.337667 
L 323.260401 106.377662 
L 321.76057 106.937599 
L 320.210746 107.257563 
L 318.660921 109.457314 
L 317.161091 110.697174 
L 315.611266 111.137124 
L 314.111435 111.137124 
L 312.561611 111.457088 
L 311.161769 111.377097 
L 309.611944 110.577187 
L 308.062119 110.777165 
L 306.562289 111.217115 
L 305.012464 111.217115 
L 303.512634 111.097128 
L 301.962809 111.25711 
L 300.412984 111.297106 
L 298.913154 111.297106 
L 297.363329 111.337101 
L 295.863499 111.417092 
L 294.313674 111.417092 
L 292.863838 111.457088 
L 291.314013 111.457088 
L 289.764188 111.577074 
L 288.264358 111.61707 
L 286.714533 111.657065 
L 285.214703 111.657065 
L 283.664878 111.61707 
L 282.115053 111.657065 
L 280.615223 111.61707 
L 279.065398 112.256997 
L 277.565568 112.217002 
L 276.015743 112.296993 
L 274.615901 112.376984 
L 273.066076 112.49697 
L 271.516252 112.456975 
L 270.016421 112.736943 
L 268.466597 112.856929 
L 266.966766 113.016911 
L 265.416941 113.216889 
L 263.867117 113.256884 
L 262.367286 113.176893 
L 260.817461 113.256884 
L 259.317631 113.29688 
L 257.767806 113.29688 
L 256.367965 113.29688 
L 254.81814 113.29688 
L 253.268315 113.456862 
L 251.768485 113.536853 
L 250.21866 113.776825 
L 248.718829 113.816821 
L 247.169005 114.056794 
L 245.61918 114.136785 
L 244.11935 114.376758 
L 242.569525 114.496744 
L 241.069694 114.656726 
L 239.51987 114.696721 
L 238.120028 114.736717 
L 236.570203 114.896699 
L 235.020378 114.896699 
L 233.520548 115.096676 
L 231.970723 115.376645 
L 230.470893 115.536626 
L 228.921068 115.696608 
L 227.371243 115.896586 
L 225.871413 115.976577 
L 224.321588 116.296541 
L 222.821758 116.296541 
L 221.271933 116.336536 
L 219.822097 116.336536 
L 218.272272 116.336536 
L 216.722447 116.336536 
L 215.222617 116.336536 
L 213.672792 116.376531 
L 212.172962 116.536513 
L 210.623137 116.616504 
L 207.673471 117.09645 
L 206.423612 117.696382 
L 205.373731 117.976351 
L 204.123872 117.416414 
L 203.123985 117.736378 
L 201.724143 117.856364 
L 198.874466 118.016346 
L 196.124776 118.016346 
L 195.274873 118.176328 
L 193.925025 118.696269 
L 192.525183 118.656274 
L 190.825376 119.57617 
L 189.775494 119.57617 
L 188.725613 120.01612 
L 184.126133 120.296088 
L 183.176241 120.376079 
L 178.276795 121.495953 
L 175.827072 122.49584 
L 175.027162 122.535835 
L 174.027275 122.535835 
L 173.377349 122.535835 
L 172.827411 122.575831 
L 169.527784 122.13588 
L 165.978185 122.655821 
L 164.178389 122.855799 
L 162.428587 123.055776 
L 159.278943 123.175763 
L 158.479033 123.255754 
L 157.17918 123.455731 
L 155.079418 123.775695 
L 151.829785 123.615713 
L 150.629921 123.935677 
L 147.830237 123.895681 
L 146.330407 123.81569 
L 144.580605 124.17565 
L 142.580831 124.095659 
L 141.130995 123.975672 
L 140.031119 124.255641 
L 139.281204 124.295636 
L 138.181328 123.535722 
L 137.131447 123.575717 
L 136.431526 123.735699 
L 136.231549 123.735699 
L 135.481634 123.695704 
L 134.481747 124.215645 
L 133.081905 123.655708 
L 132.581961 123.655708 
L 132.032024 123.695704 
L 131.232114 123.735699 
L 130.482199 123.535722 
L 129.782278 123.975672 
L 128.782391 124.095659 
L 128.432431 123.855686 
L 127.482538 124.015668 
L 126.282674 123.975672 
L 125.382775 124.495613 
L 124.882832 124.415622 
L 124.032928 124.415622 
L 123.48299 122.615826 
L 122.633086 123.015781 
L 121.933166 122.015894 
L 121.083262 121.775921 
L 117.783635 122.055889 
L 117.533663 121.895907 
L 115.533889 122.175876 
L 111.184381 123.975672 
L 108.834647 124.855573 
L 99.735675 126.975333 
L 85.087332 130.014989 
L 65.189582 133.894551 
L 48.041521 140.09385 
L 39.692465 144.013407 
L 31.24342 144.33337 
z
" clip-path="url(#p339f263f5c)" style="fill: #fdc92c"/>
   </g>
   <g id="PolyCollection_3">
    <path d="M 31.24342 112.816934 
L 31.24342 144.33337 
L 39.692465 144.013407 
L 48.041521 140.09385 
L 65.189582 133.894551 
L 85.087332 130.014989 
L 99.735675 126.975333 
L 108.834647 124.855573 
L 111.184381 123.975672 
L 115.533889 122.175876 
L 117.533663 121.895907 
L 117.783635 122.055889 
L 121.083262 121.775921 
L 121.933166 122.015894 
L 122.633086 123.015781 
L 123.48299 122.615826 
L 124.032928 124.415622 
L 124.882832 124.415622 
L 125.382775 124.495613 
L 126.282674 123.975672 
L 127.482538 124.015668 
L 128.432431 123.855686 
L 128.782391 124.095659 
L 129.782278 123.975672 
L 130.482199 123.535722 
L 131.232114 123.735699 
L 132.032024 123.695704 
L 132.581961 123.655708 
L 133.081905 123.655708 
L 134.481747 124.215645 
L 135.481634 123.695704 
L 136.231549 123.735699 
L 136.431526 123.735699 
L 137.131447 123.575717 
L 138.181328 123.535722 
L 139.281204 124.295636 
L 140.031119 124.255641 
L 141.130995 123.975672 
L 142.580831 124.095659 
L 144.580605 124.17565 
L 146.330407 123.81569 
L 147.830237 123.895681 
L 150.629921 123.935677 
L 151.829785 123.615713 
L 155.079418 123.775695 
L 157.17918 123.455731 
L 158.479033 123.255754 
L 159.278943 123.175763 
L 162.428587 123.055776 
L 164.178389 122.855799 
L 165.978185 122.655821 
L 169.527784 122.13588 
L 172.827411 122.575831 
L 173.377349 122.535835 
L 174.027275 122.535835 
L 175.027162 122.535835 
L 175.827072 122.49584 
L 178.276795 121.495953 
L 183.176241 120.376079 
L 184.126133 120.296088 
L 188.725613 120.01612 
L 189.775494 119.57617 
L 190.825376 119.57617 
L 192.525183 118.656274 
L 193.925025 118.696269 
L 195.274873 118.176328 
L 196.124776 118.016346 
L 198.874466 118.016346 
L 201.724143 117.856364 
L 203.123985 117.736378 
L 204.123872 117.416414 
L 205.373731 117.976351 
L 206.423612 117.696382 
L 207.673471 117.09645 
L 210.623137 116.616504 
L 212.172962 116.536513 
L 213.672792 116.376531 
L 215.222617 116.336536 
L 216.722447 116.336536 
L 218.272272 116.336536 
L 219.822097 116.336536 
L 221.271933 116.336536 
L 222.821758 116.296541 
L 224.321588 116.296541 
L 225.871413 115.976577 
L 227.371243 115.896586 
L 228.921068 115.696608 
L 230.470893 115.536626 
L 231.970723 115.376645 
L 233.520548 115.096676 
L 235.020378 114.896699 
L 236.570203 114.896699 
L 238.120028 114.736717 
L 239.51987 114.696721 
L 241.069694 114.656726 
L 242.569525 114.496744 
L 244.11935 114.376758 
L 245.61918 114.136785 
L 247.169005 114.056794 
L 248.718829 113.816821 
L 250.21866 113.776825 
L 251.768485 113.536853 
L 253.268315 113.456862 
L 254.81814 113.29688 
L 256.367965 113.29688 
L 257.767806 113.29688 
L 259.317631 113.29688 
L 260.817461 113.256884 
L 262.367286 113.176893 
L 263.867117 113.256884 
L 265.416941 113.216889 
L 266.966766 113.016911 
L 268.466597 112.856929 
L 270.016421 112.736943 
L 271.516252 112.456975 
L 273.066076 112.49697 
L 274.615901 112.376984 
L 276.015743 112.296993 
L 277.565568 112.217002 
L 279.065398 112.256997 
L 280.615223 111.61707 
L 282.115053 111.657065 
L 283.664878 111.61707 
L 285.214703 111.657065 
L 286.714533 111.657065 
L 288.264358 111.61707 
L 289.764188 111.577074 
L 291.314013 111.457088 
L 292.863838 111.457088 
L 294.313674 111.417092 
L 295.863499 111.417092 
L 297.363329 111.337101 
L 298.913154 111.297106 
L 300.412984 111.297106 
L 301.962809 111.25711 
L 303.512634 111.097128 
L 305.012464 111.217115 
L 306.562289 111.217115 
L 308.062119 110.777165 
L 309.611944 110.577187 
L 311.161769 111.377097 
L 312.561611 111.457088 
L 314.111435 111.137124 
L 315.611266 111.137124 
L 317.161091 110.697174 
L 318.660921 109.457314 
L 320.210746 107.257563 
L 321.76057 106.937599 
L 323.260401 106.377662 
L 324.810226 106.337667 
L 326.310056 106.21768 
L 327.859881 106.137689 
L 329.409706 106.21768 
L 330.809547 106.097694 
L 332.359372 105.77773 
L 333.859202 105.737734 
L 335.409027 105.697739 
L 336.908858 105.697739 
L 338.458682 105.697739 
L 340.008507 105.657743 
L 341.508337 105.657743 
L 343.058162 105.657743 
L 344.557993 105.577753 
L 346.107817 105.577753 
L 347.657642 105.497762 
L 349.057484 105.497762 
L 350.607309 105.457766 
L 352.107139 105.457766 
L 353.656964 105.577753 
L 355.156794 105.577753 
L 356.706619 105.537757 
L 358.256444 105.577753 
L 359.756274 105.537757 
L 361.306099 105.537757 
L 362.805929 105.537757 
L 364.355754 105.537757 
L 365.905579 105.537757 
L 367.355415 105.617748 
L 368.90524 105.577753 
L 370.40507 105.617748 
L 371.954895 105.737734 
L 373.454725 105.697739 
L 375.00455 105.657743 
L 376.554375 105.657743 
L 378.054205 105.577753 
L 379.60403 105.537757 
L 381.10386 105.457766 
L 382.653685 105.457766 
L 384.20351 105.417771 
L 385.603352 105.257789 
L 387.153176 105.057811 
L 388.653007 104.937825 
L 390.202831 104.97782 
L 391.702662 104.937825 
L 393.252487 104.897829 
L 394.802311 104.857834 
L 396.302142 104.817838 
L 397.851967 104.697852 
L 399.351797 104.737848 
L 400.901622 104.617861 
L 402.451446 104.617861 
L 403.851288 104.53787 
L 405.401113 104.497875 
L 406.900943 104.497875 
L 408.450768 104.53787 
L 409.950599 104.337893 
L 411.500423 104.337893 
L 413.050248 104.297897 
L 414.550078 104.417884 
L 416.099903 104.377888 
L 417.599734 104.377888 
L 419.149558 104.297897 
L 420.699383 104.177911 
L 422.099225 104.017929 
L 423.64905 103.977933 
L 425.14888 103.977933 
L 426.698705 103.857947 
L 428.198535 103.617974 
L 429.74836 103.338006 
L 431.298185 103.338006 
L 432.798015 103.258015 
L 434.34784 103.098033 
L 435.84767 102.978046 
L 437.397495 102.978046 
L 437.397495 88.739656 
L 437.397495 88.739656 
L 435.84767 88.739656 
L 434.34784 88.779652 
L 432.798015 88.779652 
L 431.298185 88.779652 
L 429.74836 88.779652 
L 428.198535 88.859643 
L 426.698705 88.859643 
L 425.14888 88.859643 
L 423.64905 88.859643 
L 422.099225 88.859643 
L 420.699383 88.899638 
L 419.149558 88.899638 
L 417.599734 88.979629 
L 416.099903 88.979629 
L 414.550078 89.019625 
L 413.050248 89.019625 
L 411.500423 89.019625 
L 409.950599 89.019625 
L 408.450768 89.099616 
L 406.900943 89.179607 
L 405.401113 89.179607 
L 403.851288 89.179607 
L 402.451446 89.179607 
L 400.901622 89.179607 
L 399.351797 89.219602 
L 397.851967 89.179607 
L 396.302142 89.259598 
L 394.802311 89.259598 
L 393.252487 89.259598 
L 391.702662 89.299593 
L 390.202831 89.299593 
L 388.653007 89.299593 
L 387.153176 89.339589 
L 385.603352 89.379584 
L 384.20351 89.41958 
L 382.653685 89.41958 
L 381.10386 89.379584 
L 379.60403 89.379584 
L 378.054205 89.379584 
L 376.554375 89.339589 
L 375.00455 89.339589 
L 373.454725 89.379584 
L 371.954895 89.379584 
L 370.40507 89.299593 
L 368.90524 89.259598 
L 367.355415 89.259598 
L 365.905579 89.299593 
L 364.355754 89.299593 
L 362.805929 89.299593 
L 361.306099 89.299593 
L 359.756274 89.299593 
L 358.256444 89.299593 
L 356.706619 89.299593 
L 355.156794 89.299593 
L 353.656964 89.299593 
L 352.107139 89.219602 
L 350.607309 89.219602 
L 349.057484 89.219602 
L 347.657642 89.219602 
L 346.107817 89.179607 
L 344.557993 89.179607 
L 343.058162 89.259598 
L 341.508337 89.259598 
L 340.008507 89.259598 
L 338.458682 89.299593 
L 336.908858 89.299593 
L 335.409027 89.299593 
L 333.859202 89.339589 
L 332.359372 89.379584 
L 330.809547 89.459575 
L 329.409706 89.459575 
L 327.859881 89.459575 
L 326.310056 89.619557 
L 324.810226 89.619557 
L 323.260401 89.619557 
L 321.76057 89.499571 
L 320.210746 89.539566 
L 318.660921 89.739543 
L 317.161091 90.699435 
L 315.611266 90.859417 
L 314.111435 90.899412 
L 312.561611 90.939408 
L 311.161769 90.939408 
L 309.611944 90.939408 
L 308.062119 90.939408 
L 306.562289 90.979403 
L 305.012464 90.979403 
L 303.512634 91.019399 
L 301.962809 91.059394 
L 300.412984 91.09939 
L 298.913154 91.09939 
L 297.363329 91.09939 
L 295.863499 91.09939 
L 294.313674 91.09939 
L 292.863838 91.139385 
L 291.314013 91.139385 
L 289.764188 91.179381 
L 288.264358 91.219376 
L 286.714533 91.219376 
L 285.214703 91.219376 
L 283.664878 91.219376 
L 282.115053 91.219376 
L 280.615223 91.219376 
L 279.065398 91.219376 
L 277.565568 91.219376 
L 276.015743 91.299367 
L 274.615901 91.299367 
L 273.066076 91.299367 
L 271.516252 91.339363 
L 270.016421 91.339363 
L 268.466597 91.379358 
L 266.966766 91.53934 
L 265.416941 92.499231 
L 263.867117 92.499231 
L 262.367286 92.499231 
L 260.817461 92.579222 
L 259.317631 92.579222 
L 257.767806 92.579222 
L 256.367965 92.579222 
L 254.81814 92.579222 
L 253.268315 92.579222 
L 251.768485 92.659213 
L 250.21866 92.579222 
L 248.718829 92.619218 
L 247.169005 92.699209 
L 245.61918 92.7792 
L 244.11935 92.979177 
L 242.569525 93.019173 
L 241.069694 93.019173 
L 239.51987 93.019173 
L 238.120028 93.019173 
L 236.570203 93.099164 
L 235.020378 93.099164 
L 233.520548 93.179154 
L 231.970723 93.179154 
L 230.470893 93.059168 
L 228.921068 93.139159 
L 227.371243 93.139159 
L 225.871413 93.139159 
L 224.321588 93.179154 
L 222.821758 93.179154 
L 221.271933 93.179154 
L 219.822097 93.21915 
L 218.272272 93.21915 
L 216.722447 93.259145 
L 215.222617 93.21915 
L 213.672792 93.21915 
L 212.172962 93.299141 
L 210.623137 93.339136 
L 207.673471 93.619105 
L 206.423612 94.219037 
L 205.373731 94.499005 
L 204.123872 93.859078 
L 203.123985 94.379019 
L 201.724143 94.419014 
L 198.874466 95.33891 
L 196.124776 95.33891 
L 195.274873 95.298915 
L 193.925025 95.458897 
L 192.525183 95.458897 
L 190.825376 95.538888 
L 189.775494 95.538888 
L 188.725613 95.578883 
L 184.126133 95.738865 
L 183.176241 95.738865 
L 178.276795 96.778747 
L 175.827072 96.898734 
L 175.027162 96.938729 
L 174.027275 97.058716 
L 173.377349 97.058716 
L 172.827411 97.058716 
L 169.527784 97.058716 
L 165.978185 97.298689 
L 164.178389 97.418675 
L 162.428587 97.458671 
L 159.278943 97.538662 
L 158.479033 97.658648 
L 157.17918 97.858625 
L 155.079418 98.098598 
L 151.829785 98.25858 
L 150.629921 98.898508 
L 147.830237 98.938503 
L 146.330407 99.218472 
L 144.580605 99.538435 
L 142.580831 99.618426 
L 141.130995 99.618426 
L 140.031119 99.618426 
L 139.281204 99.618426 
L 138.181328 99.778408 
L 137.131447 99.93839 
L 136.431526 100.058377 
L 136.231549 100.058377 
L 135.481634 100.018381 
L 134.481747 100.578318 
L 133.081905 100.098372 
L 132.581961 100.098372 
L 132.032024 100.178363 
L 131.232114 100.178363 
L 130.482199 100.178363 
L 129.782278 100.778295 
L 128.782391 100.778295 
L 128.432431 100.298349 
L 127.482538 100.898282 
L 126.282674 102.018155 
L 125.382775 102.938051 
L 124.882832 102.978046 
L 124.032928 102.978046 
L 123.48299 103.018042 
L 122.633086 103.617974 
L 121.933166 103.058037 
L 121.083262 103.058037 
L 117.783635 103.338006 
L 117.533663 103.378001 
L 115.533889 103.417997 
L 111.184381 100.778295 
L 108.834647 103.577979 
L 99.735675 105.497762 
L 85.087332 107.45754 
L 65.189582 108.817386 
L 48.041521 110.857156 
L 39.692465 113.256884 
L 31.24342 112.816934 
z
" clip-path="url(#p339f263f5c)" style="fill: #aeaeae"/>
   </g>
   <g id="PolyCollection_4">
    <path d="M 31.24342 88.539679 
L 31.24342 112.816934 
L 39.692465 113.256884 
L 48.041521 110.857156 
L 65.189582 108.817386 
L 85.087332 107.45754 
L 99.735675 105.497762 
L 108.834647 103.577979 
L 111.184381 100.778295 
L 115.533889 103.417997 
L 117.533663 103.378001 
L 117.783635 103.338006 
L 121.083262 103.058037 
L 121.933166 103.058037 
L 122.633086 103.617974 
L 123.48299 103.018042 
L 124.032928 102.978046 
L 124.882832 102.978046 
L 125.382775 102.938051 
L 126.282674 102.018155 
L 127.482538 100.898282 
L 128.432431 100.298349 
L 128.782391 100.778295 
L 129.782278 100.778295 
L 130.482199 100.178363 
L 131.232114 100.178363 
L 132.032024 100.178363 
L 132.581961 100.098372 
L 133.081905 100.098372 
L 134.481747 100.578318 
L 135.481634 100.018381 
L 136.231549 100.058377 
L 136.431526 100.058377 
L 137.131447 99.93839 
L 138.181328 99.778408 
L 139.281204 99.618426 
L 140.031119 99.618426 
L 141.130995 99.618426 
L 142.580831 99.618426 
L 144.580605 99.538435 
L 146.330407 99.218472 
L 147.830237 98.938503 
L 150.629921 98.898508 
L 151.829785 98.25858 
L 155.079418 98.098598 
L 157.17918 97.858625 
L 158.479033 97.658648 
L 159.278943 97.538662 
L 162.428587 97.458671 
L 164.178389 97.418675 
L 165.978185 97.298689 
L 169.527784 97.058716 
L 172.827411 97.058716 
L 173.377349 97.058716 
L 174.027275 97.058716 
L 175.027162 96.938729 
L 175.827072 96.898734 
L 178.276795 96.778747 
L 183.176241 95.738865 
L 184.126133 95.738865 
L 188.725613 95.578883 
L 189.775494 95.538888 
L 190.825376 95.538888 
L 192.525183 95.458897 
L 193.925025 95.458897 
L 195.274873 95.298915 
L 196.124776 95.33891 
L 198.874466 95.33891 
L 201.724143 94.419014 
L 203.123985 94.379019 
L 204.123872 93.859078 
L 205.373731 94.499005 
L 206.423612 94.219037 
L 207.673471 93.619105 
L 210.623137 93.339136 
L 212.172962 93.299141 
L 213.672792 93.21915 
L 215.222617 93.21915 
L 216.722447 93.259145 
L 218.272272 93.21915 
L 219.822097 93.21915 
L 221.271933 93.179154 
L 222.821758 93.179154 
L 224.321588 93.179154 
L 225.871413 93.139159 
L 227.371243 93.139159 
L 228.921068 93.139159 
L 230.470893 93.059168 
L 231.970723 93.179154 
L 233.520548 93.179154 
L 235.020378 93.099164 
L 236.570203 93.099164 
L 238.120028 93.019173 
L 239.51987 93.019173 
L 241.069694 93.019173 
L 242.569525 93.019173 
L 244.11935 92.979177 
L 245.61918 92.7792 
L 247.169005 92.699209 
L 248.718829 92.619218 
L 250.21866 92.579222 
L 251.768485 92.659213 
L 253.268315 92.579222 
L 254.81814 92.579222 
L 256.367965 92.579222 
L 257.767806 92.579222 
L 259.317631 92.579222 
L 260.817461 92.579222 
L 262.367286 92.499231 
L 263.867117 92.499231 
L 265.416941 92.499231 
L 266.966766 91.53934 
L 268.466597 91.379358 
L 270.016421 91.339363 
L 271.516252 91.339363 
L 273.066076 91.299367 
L 274.615901 91.299367 
L 276.015743 91.299367 
L 277.565568 91.219376 
L 279.065398 91.219376 
L 280.615223 91.219376 
L 282.115053 91.219376 
L 283.664878 91.219376 
L 285.214703 91.219376 
L 286.714533 91.219376 
L 288.264358 91.219376 
L 289.764188 91.179381 
L 291.314013 91.139385 
L 292.863838 91.139385 
L 294.313674 91.09939 
L 295.863499 91.09939 
L 297.363329 91.09939 
L 298.913154 91.09939 
L 300.412984 91.09939 
L 301.962809 91.059394 
L 303.512634 91.019399 
L 305.012464 90.979403 
L 306.562289 90.979403 
L 308.062119 90.939408 
L 309.611944 90.939408 
L 311.161769 90.939408 
L 312.561611 90.939408 
L 314.111435 90.899412 
L 315.611266 90.859417 
L 317.161091 90.699435 
L 318.660921 89.739543 
L 320.210746 89.539566 
L 321.76057 89.499571 
L 323.260401 89.619557 
L 324.810226 89.619557 
L 326.310056 89.619557 
L 327.859881 89.459575 
L 329.409706 89.459575 
L 330.809547 89.459575 
L 332.359372 89.379584 
L 333.859202 89.339589 
L 335.409027 89.299593 
L 336.908858 89.299593 
L 338.458682 89.299593 
L 340.008507 89.259598 
L 341.508337 89.259598 
L 343.058162 89.259598 
L 344.557993 89.179607 
L 346.107817 89.179607 
L 347.657642 89.219602 
L 349.057484 89.219602 
L 350.607309 89.219602 
L 352.107139 89.219602 
L 353.656964 89.299593 
L 355.156794 89.299593 
L 356.706619 89.299593 
L 358.256444 89.299593 
L 359.756274 89.299593 
L 361.306099 89.299593 
L 362.805929 89.299593 
L 364.355754 89.299593 
L 365.905579 89.299593 
L 367.355415 89.259598 
L 368.90524 89.259598 
L 370.40507 89.299593 
L 371.954895 89.379584 
L 373.454725 89.379584 
L 375.00455 89.339589 
L 376.554375 89.339589 
L 378.054205 89.379584 
L 379.60403 89.379584 
L 381.10386 89.379584 
L 382.653685 89.41958 
L 384.20351 89.41958 
L 385.603352 89.379584 
L 387.153176 89.339589 
L 388.653007 89.299593 
L 390.202831 89.299593 
L 391.702662 89.299593 
L 393.252487 89.259598 
L 394.802311 89.259598 
L 396.302142 89.259598 
L 397.851967 89.179607 
L 399.351797 89.219602 
L 400.901622 89.179607 
L 402.451446 89.179607 
L 403.851288 89.179607 
L 405.401113 89.179607 
L 406.900943 89.179607 
L 408.450768 89.099616 
L 409.950599 89.019625 
L 411.500423 89.019625 
L 413.050248 89.019625 
L 414.550078 89.019625 
L 416.099903 88.979629 
L 417.599734 88.979629 
L 419.149558 88.899638 
L 420.699383 88.899638 
L 422.099225 88.859643 
L 423.64905 88.859643 
L 425.14888 88.859643 
L 426.698705 88.859643 
L 428.198535 88.859643 
L 429.74836 88.779652 
L 431.298185 88.779652 
L 432.798015 88.779652 
L 434.34784 88.779652 
L 435.84767 88.739656 
L 437.397495 88.739656 
L 437.397495 78.340832 
L 437.397495 78.340832 
L 435.84767 78.340832 
L 434.34784 78.340832 
L 432.798015 78.340832 
L 431.298185 78.340832 
L 429.74836 78.340832 
L 428.198535 78.340832 
L 426.698705 78.340832 
L 425.14888 78.340832 
L 423.64905 78.340832 
L 422.099225 78.340832 
L 420.699383 78.54081 
L 419.149558 78.580805 
L 417.599734 78.620801 
L 416.099903 78.620801 
L 414.550078 78.620801 
L 413.050248 78.620801 
L 411.500423 78.620801 
L 409.950599 78.620801 
L 408.450768 78.620801 
L 406.900943 78.620801 
L 405.401113 78.620801 
L 403.851288 78.660796 
L 402.451446 78.620801 
L 400.901622 78.620801 
L 399.351797 78.660796 
L 397.851967 78.380828 
L 396.302142 78.380828 
L 394.802311 78.020868 
L 393.252487 78.020868 
L 391.702662 78.020868 
L 390.202831 78.020868 
L 388.653007 78.020868 
L 387.153176 78.020868 
L 385.603352 78.060864 
L 384.20351 78.060864 
L 382.653685 78.060864 
L 381.10386 78.020868 
L 379.60403 78.020868 
L 378.054205 78.020868 
L 376.554375 78.060864 
L 375.00455 78.060864 
L 373.454725 78.060864 
L 371.954895 78.060864 
L 370.40507 77.980873 
L 368.90524 77.940878 
L 367.355415 77.940878 
L 365.905579 77.940878 
L 364.355754 77.940878 
L 362.805929 77.940878 
L 361.306099 77.940878 
L 359.756274 77.940878 
L 358.256444 77.940878 
L 356.706619 77.940878 
L 355.156794 77.940878 
L 353.656964 77.940878 
L 352.107139 77.860887 
L 350.607309 77.860887 
L 349.057484 77.860887 
L 347.657642 77.860887 
L 346.107817 77.860887 
L 344.557993 77.860887 
L 343.058162 77.860887 
L 341.508337 77.860887 
L 340.008507 77.860887 
L 338.458682 77.820891 
L 336.908858 77.820891 
L 335.409027 77.820891 
L 333.859202 77.820891 
L 332.359372 77.820891 
L 330.809547 77.820891 
L 329.409706 77.820891 
L 327.859881 77.820891 
L 326.310056 77.820891 
L 324.810226 77.820891 
L 323.260401 77.820891 
L 321.76057 77.820891 
L 320.210746 77.820891 
L 318.660921 77.820891 
L 317.161091 77.820891 
L 315.611266 77.820891 
L 314.111435 77.820891 
L 312.561611 77.820891 
L 311.161769 77.820891 
L 309.611944 77.820891 
L 308.062119 77.820891 
L 306.562289 77.820891 
L 305.012464 77.820891 
L 303.512634 77.820891 
L 301.962809 77.820891 
L 300.412984 77.820891 
L 298.913154 77.820891 
L 297.363329 77.820891 
L 295.863499 77.820891 
L 294.313674 78.18085 
L 292.863838 78.220846 
L 291.314013 78.220846 
L 289.764188 78.220846 
L 288.264358 78.380828 
L 286.714533 78.380828 
L 285.214703 78.380828 
L 283.664878 78.380828 
L 282.115053 78.380828 
L 280.615223 78.380828 
L 279.065398 78.380828 
L 277.565568 78.380828 
L 276.015743 78.380828 
L 274.615901 78.380828 
L 273.066076 78.380828 
L 271.516252 78.420823 
L 270.016421 78.420823 
L 268.466597 78.420823 
L 266.966766 78.420823 
L 265.416941 78.140855 
L 263.867117 78.300837 
L 262.367286 78.260841 
L 260.817461 78.260841 
L 259.317631 78.260841 
L 257.767806 78.260841 
L 256.367965 78.260841 
L 254.81814 78.260841 
L 253.268315 78.260841 
L 251.768485 78.300837 
L 250.21866 78.300837 
L 248.718829 78.300837 
L 247.169005 78.260841 
L 245.61918 78.260841 
L 244.11935 78.260841 
L 242.569525 78.260841 
L 241.069694 78.260841 
L 239.51987 78.260841 
L 238.120028 78.260841 
L 236.570203 78.260841 
L 235.020378 78.260841 
L 233.520548 78.260841 
L 231.970723 78.300837 
L 230.470893 78.260841 
L 228.921068 78.300837 
L 227.371243 78.260841 
L 225.871413 78.260841 
L 224.321588 78.260841 
L 222.821758 78.260841 
L 221.271933 78.260841 
L 219.822097 78.260841 
L 218.272272 78.300837 
L 216.722447 78.300837 
L 215.222617 78.260841 
L 213.672792 78.260841 
L 212.172962 78.260841 
L 210.623137 78.340832 
L 207.673471 78.620801 
L 206.423612 79.300724 
L 205.373731 79.380715 
L 204.123872 78.740787 
L 203.123985 80.300611 
L 201.724143 80.300611 
L 198.874466 81.740448 
L 196.124776 81.740448 
L 195.274873 81.700452 
L 193.925025 81.860434 
L 192.525183 81.820439 
L 190.825376 81.820439 
L 189.775494 81.820439 
L 188.725613 81.820439 
L 184.126133 82.140403 
L 183.176241 82.140403 
L 178.276795 82.34038 
L 175.827072 82.300385 
L 175.027162 82.300385 
L 174.027275 82.380376 
L 173.377349 82.380376 
L 172.827411 82.380376 
L 169.527784 82.940312 
L 165.978185 83.060299 
L 164.178389 83.060299 
L 162.428587 83.060299 
L 159.278943 83.060299 
L 158.479033 83.020303 
L 157.17918 83.020303 
L 155.079418 82.900317 
L 151.829785 82.860321 
L 150.629921 83.900204 
L 147.830237 84.02019 
L 146.330407 84.140177 
L 144.580605 84.02019 
L 142.580831 84.02019 
L 141.130995 83.980195 
L 140.031119 83.980195 
L 139.281204 83.980195 
L 138.181328 83.940199 
L 137.131447 83.940199 
L 136.431526 83.980195 
L 136.231549 83.980195 
L 135.481634 83.980195 
L 134.481747 84.420145 
L 133.081905 83.980195 
L 132.581961 83.980195 
L 132.032024 84.02019 
L 131.232114 83.940199 
L 130.482199 83.940199 
L 129.782278 84.340154 
L 128.782391 84.260163 
L 128.432431 83.820213 
L 127.482538 84.380149 
L 126.282674 84.220168 
L 125.382775 84.260163 
L 124.882832 84.260163 
L 124.032928 84.260163 
L 123.48299 84.300158 
L 122.633086 84.8201 
L 121.933166 84.260163 
L 121.083262 84.260163 
L 117.783635 85.26005 
L 117.533663 85.300045 
L 115.533889 85.26005 
L 111.184381 84.340154 
L 108.834647 85.26005 
L 99.735675 86.059959 
L 85.087332 86.49991 
L 65.189582 87.219828 
L 48.041521 87.659779 
L 39.692465 88.699661 
L 31.24342 88.539679 
z
" clip-path="url(#p339f263f5c)" style="fill: #d5dce5"/>
   </g>
   <g id="matplotlib.axis_1">
    <g id="xtick_1">
     <g id="line2d_1">
      <defs>
       <path id="mcd517d6024" d="M 0 0 
L 0 3.5 
" style="stroke: #000000; stroke-width: 0.8"/>
      </defs>
      <g>
       <use xlink:href="#mcd517d6024" x="72.18879" y="280.597962" style="stroke: #000000; stroke-width: 0.8"/>
      </g>
     </g>
     <g id="text_1">
      <!-- 2004 -->
      <g transform="translate(59.46379 295.1964) scale(0.1 -0.1)">
       <defs>
        <path id="DejaVuSans-32" d="M 1228 531 
L 3431 531 
L 3431 0 
L 469 0 
L 469 531 
Q 828 903 1448 1529 
Q 2069 2156 2228 2338 
Q 2531 2678 2651 2914 
Q 2772 3150 2772 3378 
Q 2772 3750 2511 3984 
Q 2250 4219 1831 4219 
Q 1534 4219 1204 4116 
Q 875 4013 500 3803 
L 500 4441 
Q 881 4594 1212 4672 
Q 1544 4750 1819 4750 
Q 2544 4750 2975 4387 
Q 3406 4025 3406 3419 
Q 3406 3131 3298 2873 
Q 3191 2616 2906 2266 
Q 2828 2175 2409 1742 
Q 1991 1309 1228 531 
z
" transform="scale(0.015625)"/>
        <path id="DejaVuSans-30" d="M 2034 4250 
Q 1547 4250 1301 3770 
Q 1056 3291 1056 2328 
Q 1056 1369 1301 889 
Q 1547 409 2034 409 
Q 2525 409 2770 889 
Q 3016 1369 3016 2328 
Q 3016 3291 2770 3770 
Q 2525 4250 2034 4250 
z
M 2034 4750 
Q 2819 4750 3233 4129 
Q 3647 3509 3647 2328 
Q 3647 1150 3233 529 
Q 2819 -91 2034 -91 
Q 1250 -91 836 529 
Q 422 1150 422 2328 
Q 422 3509 836 4129 
Q 1250 4750 2034 4750 
z
" transform="scale(0.015625)"/>
        <path id="DejaVuSans-34" d="M 2419 4116 
L 825 1625 
L 2419 1625 
L 2419 4116 
z
M 2253 4666 
L 3047 4666 
L 3047 1625 
L 3713 1625 
L 3713 1100 
L 3047 1100 
L 3047 0 
L 2419 0 
L 2419 1100 
L 313 1100 
L 313 1709 
L 2253 4666 
z
" transform="scale(0.015625)"/>
       </defs>
       <use xlink:href="#DejaVuSans-32"/>
       <use xlink:href="#DejaVuSans-30" x="63.623047"/>
       <use xlink:href="#DejaVuSans-30" x="127.246094"/>
       <use xlink:href="#DejaVuSans-34" x="190.869141"/>
      </g>
     </g>
    </g>
    <g id="xtick_2">
     <g id="line2d_2">
      <g>
       <use xlink:href="#mcd517d6024" x="108.734658" y="280.597962" style="stroke: #000000; stroke-width: 0.8"/>
      </g>
     </g>
     <g id="text_2">
      <!-- 2006 -->
      <g transform="translate(96.009658 295.1964) scale(0.1 -0.1)">
       <defs>
        <path id="DejaVuSans-36" d="M 2113 2584 
Q 1688 2584 1439 2293 
Q 1191 2003 1191 1497 
Q 1191 994 1439 701 
Q 1688 409 2113 409 
Q 2538 409 2786 701 
Q 3034 994 3034 1497 
Q 3034 2003 2786 2293 
Q 2538 2584 2113 2584 
z
M 3366 4563 
L 3366 3988 
Q 3128 4100 2886 4159 
Q 2644 4219 2406 4219 
Q 1781 4219 1451 3797 
Q 1122 3375 1075 2522 
Q 1259 2794 1537 2939 
Q 1816 3084 2150 3084 
Q 2853 3084 3261 2657 
Q 3669 2231 3669 1497 
Q 3669 778 3244 343 
Q 2819 -91 2113 -91 
Q 1303 -91 875 529 
Q 447 1150 447 2328 
Q 447 3434 972 4092 
Q 1497 4750 2381 4750 
Q 2619 4750 2861 4703 
Q 3103 4656 3366 4563 
z
" transform="scale(0.015625)"/>
       </defs>
       <use xlink:href="#DejaVuSans-32"/>
       <use xlink:href="#DejaVuSans-30" x="63.623047"/>
       <use xlink:href="#DejaVuSans-30" x="127.246094"/>
       <use xlink:href="#DejaVuSans-36" x="190.869141"/>
      </g>
     </g>
    </g>
    <g id="xtick_3">
     <g id="line2d_3">
      <g>
       <use xlink:href="#mcd517d6024" x="145.230531" y="280.597962" style="stroke: #000000; stroke-width: 0.8"/>
      </g>
     </g>
     <g id="text_3">
      <!-- 2008 -->
      <g transform="translate(132.505531 295.1964) scale(0.1 -0.1)">
       <defs>
        <path id="DejaVuSans-38" d="M 2034 2216 
Q 1584 2216 1326 1975 
Q 1069 1734 1069 1313 
Q 1069 891 1326 650 
Q 1584 409 2034 409 
Q 2484 409 2743 651 
Q 3003 894 3003 1313 
Q 3003 1734 2745 1975 
Q 2488 2216 2034 2216 
z
M 1403 2484 
Q 997 2584 770 2862 
Q 544 3141 544 3541 
Q 544 4100 942 4425 
Q 1341 4750 2034 4750 
Q 2731 4750 3128 4425 
Q 3525 4100 3525 3541 
Q 3525 3141 3298 2862 
Q 3072 2584 2669 2484 
Q 3125 2378 3379 2068 
Q 3634 1759 3634 1313 
Q 3634 634 3220 271 
Q 2806 -91 2034 -91 
Q 1263 -91 848 271 
Q 434 634 434 1313 
Q 434 1759 690 2068 
Q 947 2378 1403 2484 
z
M 1172 3481 
Q 1172 3119 1398 2916 
Q 1625 2713 2034 2713 
Q 2441 2713 2670 2916 
Q 2900 3119 2900 3481 
Q 2900 3844 2670 4047 
Q 2441 4250 2034 4250 
Q 1625 4250 1398 4047 
Q 1172 3844 1172 3481 
z
" transform="scale(0.015625)"/>
       </defs>
       <use xlink:href="#DejaVuSans-32"/>
       <use xlink:href="#DejaVuSans-30" x="63.623047"/>
       <use xlink:href="#DejaVuSans-30" x="127.246094"/>
       <use xlink:href="#DejaVuSans-38" x="190.869141"/>
      </g>
     </g>
    </g>
    <g id="xtick_4">
     <g id="line2d_4">
      <g>
       <use xlink:href="#mcd517d6024" x="181.776399" y="280.597962" style="stroke: #000000; stroke-width: 0.8"/>
      </g>
     </g>
     <g id="text_4">
      <!-- 2010 -->
      <g transform="translate(169.051399 295.1964) scale(0.1 -0.1)">
       <defs>
        <path id="DejaVuSans-31" d="M 794 531 
L 1825 531 
L 1825 4091 
L 703 3866 
L 703 4441 
L 1819 4666 
L 2450 4666 
L 2450 531 
L 3481 531 
L 3481 0 
L 794 0 
L 794 531 
z
" transform="scale(0.015625)"/>
       </defs>
       <use xlink:href="#DejaVuSans-32"/>
       <use xlink:href="#DejaVuSans-30" x="63.623047"/>
       <use xlink:href="#DejaVuSans-31" x="127.246094"/>
       <use xlink:href="#DejaVuSans-30" x="190.869141"/>
      </g>
     </g>
    </g>
    <g id="xtick_5">
     <g id="line2d_5">
      <g>
       <use xlink:href="#mcd517d6024" x="218.272272" y="280.597962" style="stroke: #000000; stroke-width: 0.8"/>
      </g>
     </g>
     <g id="text_5">
      <!-- 2012 -->
      <g transform="translate(205.547272 295.1964) scale(0.1 -0.1)">
       <use xlink:href="#DejaVuSans-32"/>
       <use xlink:href="#DejaVuSans-30" x="63.623047"/>
       <use xlink:href="#DejaVuSans-31" x="127.246094"/>
       <use xlink:href="#DejaVuSans-32" x="190.869141"/>
      </g>
     </g>
    </g>
    <g id="xtick_6">
     <g id="line2d_6">
      <g>
       <use xlink:href="#mcd517d6024" x="254.81814" y="280.597962" style="stroke: #000000; stroke-width: 0.8"/>
      </g>
     </g>
     <g id="text_6">
      <!-- 2014 -->
      <g transform="translate(242.09314 295.1964) scale(0.1 -0.1)">
       <use xlink:href="#DejaVuSans-32"/>
       <use xlink:href="#DejaVuSans-30" x="63.623047"/>
       <use xlink:href="#DejaVuSans-31" x="127.246094"/>
       <use xlink:href="#DejaVuSans-34" x="190.869141"/>
      </g>
     </g>
    </g>
    <g id="xtick_7">
     <g id="line2d_7">
      <g>
       <use xlink:href="#mcd517d6024" x="291.314013" y="280.597962" style="stroke: #000000; stroke-width: 0.8"/>
      </g>
     </g>
     <g id="text_7">
      <!-- 2016 -->
      <g transform="translate(278.589013 295.1964) scale(0.1 -0.1)">
       <use xlink:href="#DejaVuSans-32"/>
       <use xlink:href="#DejaVuSans-30" x="63.623047"/>
       <use xlink:href="#DejaVuSans-31" x="127.246094"/>
       <use xlink:href="#DejaVuSans-36" x="190.869141"/>
      </g>
     </g>
    </g>
    <g id="xtick_8">
     <g id="line2d_8">
      <g>
       <use xlink:href="#mcd517d6024" x="327.859881" y="280.597962" style="stroke: #000000; stroke-width: 0.8"/>
      </g>
     </g>
     <g id="text_8">
      <!-- 2018 -->
      <g transform="translate(315.134881 295.1964) scale(0.1 -0.1)">
       <use xlink:href="#DejaVuSans-32"/>
       <use xlink:href="#DejaVuSans-30" x="63.623047"/>
       <use xlink:href="#DejaVuSans-31" x="127.246094"/>
       <use xlink:href="#DejaVuSans-38" x="190.869141"/>
      </g>
     </g>
    </g>
    <g id="xtick_9">
     <g id="line2d_9">
      <g>
       <use xlink:href="#mcd517d6024" x="364.355754" y="280.597962" style="stroke: #000000; stroke-width: 0.8"/>
      </g>
     </g>
     <g id="text_9">
      <!-- 2020 -->
      <g transform="translate(351.630754 295.1964) scale(0.1 -0.1)">
       <use xlink:href="#DejaVuSans-32"/>
       <use xlink:href="#DejaVuSans-30" x="63.623047"/>
       <use xlink:href="#DejaVuSans-32" x="127.246094"/>
       <use xlink:href="#DejaVuSans-30" x="190.869141"/>
      </g>
     </g>
    </g>
    <g id="xtick_10">
     <g id="line2d_10">
      <g>
       <use xlink:href="#mcd517d6024" x="400.901622" y="280.597962" style="stroke: #000000; stroke-width: 0.8"/>
      </g>
     </g>
     <g id="text_10">
      <!-- 2022 -->
      <g transform="translate(388.176622 295.1964) scale(0.1 -0.1)">
       <use xlink:href="#DejaVuSans-32"/>
       <use xlink:href="#DejaVuSans-30" x="63.623047"/>
       <use xlink:href="#DejaVuSans-32" x="127.246094"/>
       <use xlink:href="#DejaVuSans-32" x="190.869141"/>
      </g>
     </g>
    </g>
    <g id="xtick_11">
     <g id="line2d_11">
      <g>
       <use xlink:href="#mcd517d6024" x="437.397495" y="280.597962" style="stroke: #000000; stroke-width: 0.8"/>
      </g>
     </g>
     <g id="text_11">
      <!-- 2024 -->
      <g transform="translate(424.672495 295.1964) scale(0.1 -0.1)">
       <use xlink:href="#DejaVuSans-32"/>
       <use xlink:href="#DejaVuSans-30" x="63.623047"/>
       <use xlink:href="#DejaVuSans-32" x="127.246094"/>
       <use xlink:href="#DejaVuSans-34" x="190.869141"/>
      </g>
     </g>
    </g>
    <g id="text_12">
     <!-- Year -->
     <g transform="translate(233.587495 312.673744) scale(0.15 -0.15)">
      <defs>
       <path id="DejaVuSans-59" d="M -13 4666 
L 666 4666 
L 1959 2747 
L 3244 4666 
L 3922 4666 
L 2272 2222 
L 2272 0 
L 1638 0 
L 1638 2222 
L -13 4666 
z
" transform="scale(0.015625)"/>
       <path id="DejaVuSans-65" d="M 3597 1894 
L 3597 1613 
L 953 1613 
Q 991 1019 1311 708 
Q 1631 397 2203 397 
Q 2534 397 2845 478 
Q 3156 559 3463 722 
L 3463 178 
Q 3153 47 2828 -22 
Q 2503 -91 2169 -91 
Q 1331 -91 842 396 
Q 353 884 353 1716 
Q 353 2575 817 3079 
Q 1281 3584 2069 3584 
Q 2775 3584 3186 3129 
Q 3597 2675 3597 1894 
z
M 3022 2063 
Q 3016 2534 2758 2815 
Q 2500 3097 2075 3097 
Q 1594 3097 1305 2825 
Q 1016 2553 972 2059 
L 3022 2063 
z
" transform="scale(0.015625)"/>
       <path id="DejaVuSans-61" d="M 2194 1759 
Q 1497 1759 1228 1600 
Q 959 1441 959 1056 
Q 959 750 1161 570 
Q 1363 391 1709 391 
Q 2188 391 2477 730 
Q 2766 1069 2766 1631 
L 2766 1759 
L 2194 1759 
z
M 3341 1997 
L 3341 0 
L 2766 0 
L 2766 531 
Q 2569 213 2275 61 
Q 1981 -91 1556 -91 
Q 1019 -91 701 211 
Q 384 513 384 1019 
Q 384 1609 779 1909 
Q 1175 2209 1959 2209 
L 2766 2209 
L 2766 2266 
Q 2766 2663 2505 2880 
Q 2244 3097 1772 3097 
Q 1472 3097 1187 3025 
Q 903 2953 641 2809 
L 641 3341 
Q 956 3463 1253 3523 
Q 1550 3584 1831 3584 
Q 2591 3584 2966 3190 
Q 3341 2797 3341 1997 
z
" transform="scale(0.015625)"/>
       <path id="DejaVuSans-72" d="M 2631 2963 
Q 2534 3019 2420 3045 
Q 2306 3072 2169 3072 
Q 1681 3072 1420 2755 
Q 1159 2438 1159 1844 
L 1159 0 
L 581 0 
L 581 3500 
L 1159 3500 
L 1159 2956 
Q 1341 3275 1631 3429 
Q 1922 3584 2338 3584 
Q 2397 3584 2469 3576 
Q 2541 3569 2628 3553 
L 2631 2963 
z
" transform="scale(0.015625)"/>
      </defs>
      <use xlink:href="#DejaVuSans-59"/>
      <use xlink:href="#DejaVuSans-65" x="47.833984"/>
      <use xlink:href="#DejaVuSans-61" x="109.357422"/>
      <use xlink:href="#DejaVuSans-72" x="170.636719"/>
     </g>
    </g>
   </g>
   <g id="matplotlib.axis_2">
    <g id="ytick_1">
     <g id="line2d_12">
      <defs>
       <path id="m89cf48f4aa" d="M 0 0 
L -3.5 0 
" style="stroke: #000000; stroke-width: 0.8"/>
      </defs>
      <g>
       <use xlink:href="#m89cf48f4aa" x="61.49" y="280.597962" style="stroke: #000000; stroke-width: 0.8"/>
      </g>
     </g>
     <g id="text_13">
      <!-- 0 -->
      <g transform="translate(48.1275 284.397181) scale(0.1 -0.1)">
       <use xlink:href="#DejaVuSans-30"/>
      </g>
     </g>
    </g>
    <g id="ytick_2">
     <g id="line2d_13">
      <g>
       <use xlink:href="#m89cf48f4aa" x="61.49" y="240.602485" style="stroke: #000000; stroke-width: 0.8"/>
      </g>
     </g>
     <g id="text_14">
      <!-- 1000 -->
      <g transform="translate(29.04 244.401704) scale(0.1 -0.1)">
       <use xlink:href="#DejaVuSans-31"/>
       <use xlink:href="#DejaVuSans-30" x="63.623047"/>
       <use xlink:href="#DejaVuSans-30" x="127.246094"/>
       <use xlink:href="#DejaVuSans-30" x="190.869141"/>
      </g>
     </g>
    </g>
    <g id="ytick_3">
     <g id="line2d_14">
      <g>
       <use xlink:href="#m89cf48f4aa" x="61.49" y="200.607007" style="stroke: #000000; stroke-width: 0.8"/>
      </g>
     </g>
     <g id="text_15">
      <!-- 2000 -->
      <g transform="translate(29.04 204.406226) scale(0.1 -0.1)">
       <use xlink:href="#DejaVuSans-32"/>
       <use xlink:href="#DejaVuSans-30" x="63.623047"/>
       <use xlink:href="#DejaVuSans-30" x="127.246094"/>
       <use xlink:href="#DejaVuSans-30" x="190.869141"/>
      </g>
     </g>
    </g>
    <g id="ytick_4">
     <g id="line2d_15">
      <g>
       <use xlink:href="#m89cf48f4aa" x="61.49" y="160.61153" style="stroke: #000000; stroke-width: 0.8"/>
      </g>
     </g>
     <g id="text_16">
      <!-- 3000 -->
      <g transform="translate(29.04 164.410748) scale(0.1 -0.1)">
       <defs>
        <path id="DejaVuSans-33" d="M 2597 2516 
Q 3050 2419 3304 2112 
Q 3559 1806 3559 1356 
Q 3559 666 3084 287 
Q 2609 -91 1734 -91 
Q 1441 -91 1130 -33 
Q 819 25 488 141 
L 488 750 
Q 750 597 1062 519 
Q 1375 441 1716 441 
Q 2309 441 2620 675 
Q 2931 909 2931 1356 
Q 2931 1769 2642 2001 
Q 2353 2234 1838 2234 
L 1294 2234 
L 1294 2753 
L 1863 2753 
Q 2328 2753 2575 2939 
Q 2822 3125 2822 3475 
Q 2822 3834 2567 4026 
Q 2313 4219 1838 4219 
Q 1578 4219 1281 4162 
Q 984 4106 628 3988 
L 628 4550 
Q 988 4650 1302 4700 
Q 1616 4750 1894 4750 
Q 2613 4750 3031 4423 
Q 3450 4097 3450 3541 
Q 3450 3153 3228 2886 
Q 3006 2619 2597 2516 
z
" transform="scale(0.015625)"/>
       </defs>
       <use xlink:href="#DejaVuSans-33"/>
       <use xlink:href="#DejaVuSans-30" x="63.623047"/>
       <use xlink:href="#DejaVuSans-30" x="127.246094"/>
       <use xlink:href="#DejaVuSans-30" x="190.869141"/>
      </g>
     </g>
    </g>
    <g id="ytick_5">
     <g id="line2d_16">
      <g>
       <use xlink:href="#m89cf48f4aa" x="61.49" y="120.616052" style="stroke: #000000; stroke-width: 0.8"/>
      </g>
     </g>
     <g id="text_17">
      <!-- 4000 -->
      <g transform="translate(29.04 124.415271) scale(0.1 -0.1)">
       <use xlink:href="#DejaVuSans-34"/>
       <use xlink:href="#DejaVuSans-30" x="63.623047"/>
       <use xlink:href="#DejaVuSans-30" x="127.246094"/>
       <use xlink:href="#DejaVuSans-30" x="190.869141"/>
      </g>
     </g>
    </g>
    <g id="ytick_6">
     <g id="line2d_17">
      <g>
       <use xlink:href="#m89cf48f4aa" x="61.49" y="80.620575" style="stroke: #000000; stroke-width: 0.8"/>
      </g>
     </g>
     <g id="text_18">
      <!-- 5000 -->
      <g transform="translate(29.04 84.419793) scale(0.1 -0.1)">
       <defs>
        <path id="DejaVuSans-35" d="M 691 4666 
L 3169 4666 
L 3169 4134 
L 1269 4134 
L 1269 2991 
Q 1406 3038 1543 3061 
Q 1681 3084 1819 3084 
Q 2600 3084 3056 2656 
Q 3513 2228 3513 1497 
Q 3513 744 3044 326 
Q 2575 -91 1722 -91 
Q 1428 -91 1123 -41 
Q 819 9 494 109 
L 494 744 
Q 775 591 1075 516 
Q 1375 441 1709 441 
Q 2250 441 2565 725 
Q 2881 1009 2881 1497 
Q 2881 1984 2565 2268 
Q 2250 2553 1709 2553 
Q 1456 2553 1204 2497 
Q 953 2441 691 2322 
L 691 4666 
z
" transform="scale(0.015625)"/>
       </defs>
       <use xlink:href="#DejaVuSans-35"/>
       <use xlink:href="#DejaVuSans-30" x="63.623047"/>
       <use xlink:href="#DejaVuSans-30" x="127.246094"/>
       <use xlink:href="#DejaVuSans-30" x="190.869141"/>
      </g>
     </g>
    </g>
    <g id="text_19">
     <!-- Number of proteins -->
     <g transform="translate(21.920469 246.829062) rotate(-90) scale(0.15 -0.15)">
      <defs>
       <path id="DejaVuSans-4e" d="M 628 4666 
L 1478 4666 
L 3547 763 
L 3547 4666 
L 4159 4666 
L 4159 0 
L 3309 0 
L 1241 3903 
L 1241 0 
L 628 0 
L 628 4666 
z
" transform="scale(0.015625)"/>
       <path id="DejaVuSans-75" d="M 544 1381 
L 544 3500 
L 1119 3500 
L 1119 1403 
Q 1119 906 1312 657 
Q 1506 409 1894 409 
Q 2359 409 2629 706 
Q 2900 1003 2900 1516 
L 2900 3500 
L 3475 3500 
L 3475 0 
L 2900 0 
L 2900 538 
Q 2691 219 2414 64 
Q 2138 -91 1772 -91 
Q 1169 -91 856 284 
Q 544 659 544 1381 
z
M 1991 3584 
L 1991 3584 
z
" transform="scale(0.015625)"/>
       <path id="DejaVuSans-6d" d="M 3328 2828 
Q 3544 3216 3844 3400 
Q 4144 3584 4550 3584 
Q 5097 3584 5394 3201 
Q 5691 2819 5691 2113 
L 5691 0 
L 5113 0 
L 5113 2094 
Q 5113 2597 4934 2840 
Q 4756 3084 4391 3084 
Q 3944 3084 3684 2787 
Q 3425 2491 3425 1978 
L 3425 0 
L 2847 0 
L 2847 2094 
Q 2847 2600 2669 2842 
Q 2491 3084 2119 3084 
Q 1678 3084 1418 2786 
Q 1159 2488 1159 1978 
L 1159 0 
L 581 0 
L 581 3500 
L 1159 3500 
L 1159 2956 
Q 1356 3278 1631 3431 
Q 1906 3584 2284 3584 
Q 2666 3584 2933 3390 
Q 3200 3197 3328 2828 
z
" transform="scale(0.015625)"/>
       <path id="DejaVuSans-62" d="M 3116 1747 
Q 3116 2381 2855 2742 
Q 2594 3103 2138 3103 
Q 1681 3103 1420 2742 
Q 1159 2381 1159 1747 
Q 1159 1113 1420 752 
Q 1681 391 2138 391 
Q 2594 391 2855 752 
Q 3116 1113 3116 1747 
z
M 1159 2969 
Q 1341 3281 1617 3432 
Q 1894 3584 2278 3584 
Q 2916 3584 3314 3078 
Q 3713 2572 3713 1747 
Q 3713 922 3314 415 
Q 2916 -91 2278 -91 
Q 1894 -91 1617 61 
Q 1341 213 1159 525 
L 1159 0 
L 581 0 
L 581 4863 
L 1159 4863 
L 1159 2969 
z
" transform="scale(0.015625)"/>
       <path id="DejaVuSans-20" transform="scale(0.015625)"/>
       <path id="DejaVuSans-6f" d="M 1959 3097 
Q 1497 3097 1228 2736 
Q 959 2375 959 1747 
Q 959 1119 1226 758 
Q 1494 397 1959 397 
Q 2419 397 2687 759 
Q 2956 1122 2956 1747 
Q 2956 2369 2687 2733 
Q 2419 3097 1959 3097 
z
M 1959 3584 
Q 2709 3584 3137 3096 
Q 3566 2609 3566 1747 
Q 3566 888 3137 398 
Q 2709 -91 1959 -91 
Q 1206 -91 779 398 
Q 353 888 353 1747 
Q 353 2609 779 3096 
Q 1206 3584 1959 3584 
z
" transform="scale(0.015625)"/>
       <path id="DejaVuSans-66" d="M 2375 4863 
L 2375 4384 
L 1825 4384 
Q 1516 4384 1395 4259 
Q 1275 4134 1275 3809 
L 1275 3500 
L 2222 3500 
L 2222 3053 
L 1275 3053 
L 1275 0 
L 697 0 
L 697 3053 
L 147 3053 
L 147 3500 
L 697 3500 
L 697 3744 
Q 697 4328 969 4595 
Q 1241 4863 1831 4863 
L 2375 4863 
z
" transform="scale(0.015625)"/>
       <path id="DejaVuSans-70" d="M 1159 525 
L 1159 -1331 
L 581 -1331 
L 581 3500 
L 1159 3500 
L 1159 2969 
Q 1341 3281 1617 3432 
Q 1894 3584 2278 3584 
Q 2916 3584 3314 3078 
Q 3713 2572 3713 1747 
Q 3713 922 3314 415 
Q 2916 -91 2278 -91 
Q 1894 -91 1617 61 
Q 1341 213 1159 525 
z
M 3116 1747 
Q 3116 2381 2855 2742 
Q 2594 3103 2138 3103 
Q 1681 3103 1420 2742 
Q 1159 2381 1159 1747 
Q 1159 1113 1420 752 
Q 1681 391 2138 391 
Q 2594 391 2855 752 
Q 3116 1113 3116 1747 
z
" transform="scale(0.015625)"/>
       <path id="DejaVuSans-74" d="M 1172 4494 
L 1172 3500 
L 2356 3500 
L 2356 3053 
L 1172 3053 
L 1172 1153 
Q 1172 725 1289 603 
Q 1406 481 1766 481 
L 2356 481 
L 2356 0 
L 1766 0 
Q 1100 0 847 248 
Q 594 497 594 1153 
L 594 3053 
L 172 3053 
L 172 3500 
L 594 3500 
L 594 4494 
L 1172 4494 
z
" transform="scale(0.015625)"/>
       <path id="DejaVuSans-69" d="M 603 3500 
L 1178 3500 
L 1178 0 
L 603 0 
L 603 3500 
z
M 603 4863 
L 1178 4863 
L 1178 4134 
L 603 4134 
L 603 4863 
z
" transform="scale(0.015625)"/>
       <path id="DejaVuSans-6e" d="M 3513 2113 
L 3513 0 
L 2938 0 
L 2938 2094 
Q 2938 2591 2744 2837 
Q 2550 3084 2163 3084 
Q 1697 3084 1428 2787 
Q 1159 2491 1159 1978 
L 1159 0 
L 581 0 
L 581 3500 
L 1159 3500 
L 1159 2956 
Q 1366 3272 1645 3428 
Q 1925 3584 2291 3584 
Q 2894 3584 3203 3211 
Q 3513 2838 3513 2113 
z
" transform="scale(0.015625)"/>
       <path id="DejaVuSans-73" d="M 2834 3397 
L 2834 2853 
Q 2591 2978 2328 3040 
Q 2066 3103 1784 3103 
Q 1356 3103 1142 2972 
Q 928 2841 928 2578 
Q 928 2378 1081 2264 
Q 1234 2150 1697 2047 
L 1894 2003 
Q 2506 1872 2764 1633 
Q 3022 1394 3022 966 
Q 3022 478 2636 193 
Q 2250 -91 1575 -91 
Q 1294 -91 989 -36 
Q 684 19 347 128 
L 347 722 
Q 666 556 975 473 
Q 1284 391 1588 391 
Q 1994 391 2212 530 
Q 2431 669 2431 922 
Q 2431 1156 2273 1281 
Q 2116 1406 1581 1522 
L 1381 1569 
Q 847 1681 609 1914 
Q 372 2147 372 2553 
Q 372 3047 722 3315 
Q 1072 3584 1716 3584 
Q 2034 3584 2315 3537 
Q 2597 3491 2834 3397 
z
" transform="scale(0.015625)"/>
      </defs>
      <use xlink:href="#DejaVuSans-4e"/>
      <use xlink:href="#DejaVuSans-75" x="74.804688"/>
      <use xlink:href="#DejaVuSans-6d" x="138.183594"/>
      <use xlink:href="#DejaVuSans-62" x="235.595703"/>
      <use xlink:href="#DejaVuSans-65" x="299.072266"/>
      <use xlink:href="#DejaVuSans-72" x="360.595703"/>
      <use xlink:href="#DejaVuSans-20" x="401.708984"/>
      <use xlink:href="#DejaVuSans-6f" x="433.496094"/>
      <use xlink:href="#DejaVuSans-66" x="494.677734"/>
      <use xlink:href="#DejaVuSans-20" x="529.882812"/>
      <use xlink:href="#DejaVuSans-70" x="561.669922"/>
      <use xlink:href="#DejaVuSans-72" x="625.146484"/>
      <use xlink:href="#DejaVuSans-6f" x="664.009766"/>
      <use xlink:href="#DejaVuSans-74" x="725.191406"/>
      <use xlink:href="#DejaVuSans-65" x="764.400391"/>
      <use xlink:href="#DejaVuSans-69" x="825.923828"/>
      <use xlink:href="#DejaVuSans-6e" x="853.707031"/>
      <use xlink:href="#DejaVuSans-73" x="917.085938"/>
     </g>
    </g>
   </g>
   <g id="patch_3">
    <path d="M 61.49 280.597962 
L 61.49 67.682038 
" style="fill: none; stroke: #000000; stroke-width: 0.8; stroke-linejoin: miter; stroke-linecap: square"/>
   </g>
   <g id="patch_4">
    <path d="M 61.49 280.597962 
L 437.447489 280.597962 
" style="fill: none; stroke: #000000; stroke-width: 0.8; stroke-linejoin: miter; stroke-linecap: square"/>
   </g>
   <g id="legend_1">
    <g id="patch_5">
     <path d="M 122.478901 62.682038 
L 376.458588 62.682038 
Q 378.458588 62.682038 378.458588 60.682038 
L 378.458588 32.325788 
Q 378.458588 30.325788 376.458588 30.325788 
L 122.478901 30.325788 
Q 120.478901 30.325788 120.478901 32.325788 
L 120.478901 60.682038 
Q 120.478901 62.682038 122.478901 62.682038 
z
" style="fill: #ffffff; opacity: 0.8; stroke: #cccccc; stroke-linejoin: miter"/>
    </g>
    <g id="patch_6">
     <path d="M 124.478901 41.924225 
L 144.478901 41.924225 
L 144.478901 34.924225 
L 124.478901 34.924225 
z
" style="fill: #fb363b"/>
    </g>
    <g id="text_20">
     <!-- Published -->
     <g transform="translate(152.478901 41.924225) scale(0.1 -0.1)">
      <defs>
       <path id="DejaVuSans-50" d="M 1259 4147 
L 1259 2394 
L 2053 2394 
Q 2494 2394 2734 2622 
Q 2975 2850 2975 3272 
Q 2975 3691 2734 3919 
Q 2494 4147 2053 4147 
L 1259 4147 
z
M 628 4666 
L 2053 4666 
Q 2838 4666 3239 4311 
Q 3641 3956 3641 3272 
Q 3641 2581 3239 2228 
Q 2838 1875 2053 1875 
L 1259 1875 
L 1259 0 
L 628 0 
L 628 4666 
z
" transform="scale(0.015625)"/>
       <path id="DejaVuSans-6c" d="M 603 4863 
L 1178 4863 
L 1178 0 
L 603 0 
L 603 4863 
z
" transform="scale(0.015625)"/>
       <path id="DejaVuSans-68" d="M 3513 2113 
L 3513 0 
L 2938 0 
L 2938 2094 
Q 2938 2591 2744 2837 
Q 2550 3084 2163 3084 
Q 1697 3084 1428 2787 
Q 1159 2491 1159 1978 
L 1159 0 
L 581 0 
L 581 4863 
L 1159 4863 
L 1159 2956 
Q 1366 3272 1645 3428 
Q 1925 3584 2291 3584 
Q 2894 3584 3203 3211 
Q 3513 2838 3513 2113 
z
" transform="scale(0.015625)"/>
       <path id="DejaVuSans-64" d="M 2906 2969 
L 2906 4863 
L 3481 4863 
L 3481 0 
L 2906 0 
L 2906 525 
Q 2725 213 2448 61 
Q 2172 -91 1784 -91 
Q 1150 -91 751 415 
Q 353 922 353 1747 
Q 353 2572 751 3078 
Q 1150 3584 1784 3584 
Q 2172 3584 2448 3432 
Q 2725 3281 2906 2969 
z
M 947 1747 
Q 947 1113 1208 752 
Q 1469 391 1925 391 
Q 2381 391 2643 752 
Q 2906 1113 2906 1747 
Q 2906 2381 2643 2742 
Q 2381 3103 1925 3103 
Q 1469 3103 1208 2742 
Q 947 2381 947 1747 
z
" transform="scale(0.015625)"/>
      </defs>
      <use xlink:href="#DejaVuSans-50"/>
      <use xlink:href="#DejaVuSans-75" x="58.552734"/>
      <use xlink:href="#DejaVuSans-62" x="121.931641"/>
      <use xlink:href="#DejaVuSans-6c" x="185.408203"/>
      <use xlink:href="#DejaVuSans-69" x="213.191406"/>
      <use xlink:href="#DejaVuSans-73" x="240.974609"/>
      <use xlink:href="#DejaVuSans-68" x="293.074219"/>
      <use xlink:href="#DejaVuSans-65" x="356.453125"/>
      <use xlink:href="#DejaVuSans-64" x="417.976562"/>
     </g>
    </g>
    <g id="patch_7">
     <path d="M 124.478901 56.60235 
L 144.478901 56.60235 
L 144.478901 49.60235 
L 124.478901 49.60235 
z
" style="fill: #fdc92c"/>
    </g>
    <g id="text_21">
     <!-- Inferred role -->
     <g transform="translate(152.478901 56.60235) scale(0.1 -0.1)">
      <defs>
       <path id="DejaVuSans-49" d="M 628 4666 
L 1259 4666 
L 1259 0 
L 628 0 
L 628 4666 
z
" transform="scale(0.015625)"/>
      </defs>
      <use xlink:href="#DejaVuSans-49"/>
      <use xlink:href="#DejaVuSans-6e" x="29.492188"/>
      <use xlink:href="#DejaVuSans-66" x="92.871094"/>
      <use xlink:href="#DejaVuSans-65" x="128.076172"/>
      <use xlink:href="#DejaVuSans-72" x="189.599609"/>
      <use xlink:href="#DejaVuSans-72" x="228.962891"/>
      <use xlink:href="#DejaVuSans-65" x="267.826172"/>
      <use xlink:href="#DejaVuSans-64" x="329.349609"/>
      <use xlink:href="#DejaVuSans-20" x="392.826172"/>
      <use xlink:href="#DejaVuSans-72" x="424.613281"/>
      <use xlink:href="#DejaVuSans-6f" x="463.476562"/>
      <use xlink:href="#DejaVuSans-6c" x="524.658203"/>
      <use xlink:href="#DejaVuSans-65" x="552.441406"/>
     </g>
    </g>
    <g id="patch_8">
     <path d="M 233.877338 41.924225 
L 253.877338 41.924225 
L 253.877338 34.924225 
L 233.877338 34.924225 
z
" style="fill: #aeaeae"/>
    </g>
    <g id="text_22">
     <!-- Conserved unknown -->
     <g transform="translate(261.877338 41.924225) scale(0.1 -0.1)">
      <defs>
       <path id="DejaVuSans-43" d="M 4122 4306 
L 4122 3641 
Q 3803 3938 3442 4084 
Q 3081 4231 2675 4231 
Q 1875 4231 1450 3742 
Q 1025 3253 1025 2328 
Q 1025 1406 1450 917 
Q 1875 428 2675 428 
Q 3081 428 3442 575 
Q 3803 722 4122 1019 
L 4122 359 
Q 3791 134 3420 21 
Q 3050 -91 2638 -91 
Q 1578 -91 968 557 
Q 359 1206 359 2328 
Q 359 3453 968 4101 
Q 1578 4750 2638 4750 
Q 3056 4750 3426 4639 
Q 3797 4528 4122 4306 
z
" transform="scale(0.015625)"/>
       <path id="DejaVuSans-76" d="M 191 3500 
L 800 3500 
L 1894 563 
L 2988 3500 
L 3597 3500 
L 2284 0 
L 1503 0 
L 191 3500 
z
" transform="scale(0.015625)"/>
       <path id="DejaVuSans-6b" d="M 581 4863 
L 1159 4863 
L 1159 1991 
L 2875 3500 
L 3609 3500 
L 1753 1863 
L 3688 0 
L 2938 0 
L 1159 1709 
L 1159 0 
L 581 0 
L 581 4863 
z
" transform="scale(0.015625)"/>
       <path id="DejaVuSans-77" d="M 269 3500 
L 844 3500 
L 1563 769 
L 2278 3500 
L 2956 3500 
L 3675 769 
L 4391 3500 
L 4966 3500 
L 4050 0 
L 3372 0 
L 2619 2869 
L 1863 0 
L 1184 0 
L 269 3500 
z
" transform="scale(0.015625)"/>
      </defs>
      <use xlink:href="#DejaVuSans-43"/>
      <use xlink:href="#DejaVuSans-6f" x="69.824219"/>
      <use xlink:href="#DejaVuSans-6e" x="131.005859"/>
      <use xlink:href="#DejaVuSans-73" x="194.384766"/>
      <use xlink:href="#DejaVuSans-65" x="246.484375"/>
      <use xlink:href="#DejaVuSans-72" x="308.007812"/>
      <use xlink:href="#DejaVuSans-76" x="349.121094"/>
      <use xlink:href="#DejaVuSans-65" x="408.300781"/>
      <use xlink:href="#DejaVuSans-64" x="469.824219"/>
      <use xlink:href="#DejaVuSans-20" x="533.300781"/>
      <use xlink:href="#DejaVuSans-75" x="565.087891"/>
      <use xlink:href="#DejaVuSans-6e" x="628.466797"/>
      <use xlink:href="#DejaVuSans-6b" x="691.845703"/>
      <use xlink:href="#DejaVuSans-6e" x="749.755859"/>
      <use xlink:href="#DejaVuSans-6f" x="813.134766"/>
      <use xlink:href="#DejaVuSans-77" x="874.316406"/>
      <use xlink:href="#DejaVuSans-6e" x="956.103516"/>
     </g>
    </g>
    <g id="patch_9">
     <path d="M 233.877338 56.60235 
L 253.877338 56.60235 
L 253.877338 49.60235 
L 233.877338 49.60235 
z
" style="fill: #d5dce5"/>
    </g>
    <g id="text_23">
     <!-- Fission yeast unknown -->
     <g transform="translate(261.877338 56.60235) scale(0.1 -0.1)">
      <defs>
       <path id="DejaVuSans-46" d="M 628 4666 
L 3309 4666 
L 3309 4134 
L 1259 4134 
L 1259 2759 
L 3109 2759 
L 3109 2228 
L 1259 2228 
L 1259 0 
L 628 0 
L 628 4666 
z
" transform="scale(0.015625)"/>
       <path id="DejaVuSans-79" d="M 2059 -325 
Q 1816 -950 1584 -1140 
Q 1353 -1331 966 -1331 
L 506 -1331 
L 506 -850 
L 844 -850 
Q 1081 -850 1212 -737 
Q 1344 -625 1503 -206 
L 1606 56 
L 191 3500 
L 800 3500 
L 1894 763 
L 2988 3500 
L 3597 3500 
L 2059 -325 
z
" transform="scale(0.015625)"/>
      </defs>
      <use xlink:href="#DejaVuSans-46"/>
      <use xlink:href="#DejaVuSans-69" x="50.269531"/>
      <use xlink:href="#DejaVuSans-73" x="78.052734"/>
      <use xlink:href="#DejaVuSans-73" x="130.152344"/>
      <use xlink:href="#DejaVuSans-69" x="182.251953"/>
      <use xlink:href="#DejaVuSans-6f" x="210.035156"/>
      <use xlink:href="#DejaVuSans-6e" x="271.216797"/>
      <use xlink:href="#DejaVuSans-20" x="334.595703"/>
      <use xlink:href="#DejaVuSans-79" x="366.382812"/>
      <use xlink:href="#DejaVuSans-65" x="425.5625"/>
      <use xlink:href="#DejaVuSans-61" x="487.085938"/>
      <use xlink:href="#DejaVuSans-73" x="548.365234"/>
      <use xlink:href="#DejaVuSans-74" x="600.464844"/>
      <use xlink:href="#DejaVuSans-20" x="639.673828"/>
      <use xlink:href="#DejaVuSans-75" x="671.460938"/>
      <use xlink:href="#DejaVuSans-6e" x="734.839844"/>
      <use xlink:href="#DejaVuSans-6b" x="798.21875"/>
      <use xlink:href="#DejaVuSans-6e" x="856.128906"/>
      <use xlink:href="#DejaVuSans-6f" x="919.507812"/>
      <use xlink:href="#DejaVuSans-77" x="980.689453"/>
      <use xlink:href="#DejaVuSans-6e" x="1062.476562"/>
     </g>
    </g>
   </g>
  </g>
 </g>
 <defs>
  <clipPath id="p339f263f5c">
   <rect x="61.49" y="67.682038" width="375.957489" height="212.915925"/>
  </clipPath>
 </defs>
</svg>
