<?xml version="1.0" encoding="utf-8" standalone="no"?>
<!DOCTYPE svg PUBLIC "-//W3C//DTD SVG 1.1//EN"
  "http://www.w3.org/Graphics/SVG/1.1/DTD/svg11.dtd">
<svg xmlns:xlink="http://www.w3.org/1999/xlink" width="460.8pt" height="345.6pt" viewBox="0 0 460.8 345.6" xmlns="http://www.w3.org/2000/svg" version="1.1">
 <metadata>
  <rdf:RDF xmlns:dc="http://purl.org/dc/elements/1.1/" xmlns:cc="http://creativecommons.org/ns#" xmlns:rdf="http://www.w3.org/1999/02/22-rdf-syntax-ns#">
   <cc:Work>
    <dc:type rdf:resource="http://purl.org/dc/dcmitype/StillImage"/>
    <dc:date>2025-01-02T01:00:29.369466</dc:date>
    <dc:format>image/svg+xml</dc:format>
    <dc:creator>
     <cc:Agent>
      <dc:title>Matplotlib v3.7.1, https://matplotlib.org/</dc:title>
     </cc:Agent>
    </dc:creator>
   </cc:Work>
  </rdf:RDF>
 </metadata>
 <defs>
  <style type="text/css">*{stroke-linejoin: round; stroke-linecap: butt}</style>
 </defs>
 <g id="figure_1">
  <g id="patch_1">
   <path d="M 0 345.6 
L 460.8 345.6 
L 460.8 0 
L 0 0 
z
" style="fill: #ffffff"/>
  </g>
  <g id="axes_1">
   <g id="patch_2">
    <path d="M 61.49 278.473844 
L 450 278.473844 
L 450 68.660708 
L 61.49 68.660708 
z
" style="fill: #ffffff"/>
   </g>
   <g id="PolyCollection_1">
    <path d="M 31.684199 225.22738 
L 31.684199 278.473844 
L 40.010117 278.473844 
L 48.237503 278.473844 
L 65.135668 278.473844 
L 84.743452 278.473844 
L 99.178327 278.473844 
L 108.144701 278.473844 
L 110.460193 278.473844 
L 114.746316 278.473844 
L 116.716948 278.473844 
L 116.963277 278.473844 
L 120.214819 278.473844 
L 121.052337 278.473844 
L 121.742058 278.473844 
L 122.579576 278.473844 
L 123.1215 278.473844 
L 123.959019 278.473844 
L 124.451676 278.473844 
L 125.338461 278.473844 
L 126.520839 278.473844 
L 127.456889 278.473844 
L 127.80175 278.473844 
L 128.787066 278.473844 
L 129.476787 278.473844 
L 130.215774 278.473844 
L 131.004026 278.473844 
L 131.54595 278.473844 
L 132.038608 278.473844 
L 133.41805 278.473844 
L 134.403365 278.473844 
L 135.142352 278.473844 
L 135.339415 278.473844 
L 136.029136 278.473844 
L 137.063718 278.473844 
L 138.147565 278.473844 
L 138.886552 278.473844 
L 139.970399 278.473844 
L 141.399107 278.473844 
L 143.369739 278.473844 
L 145.094041 278.473844 
L 146.572015 278.473844 
L 149.330899 278.473844 
L 150.513278 278.473844 
L 153.715554 278.473844 
L 155.784717 278.473844 
L 157.065628 278.473844 
L 157.85388 278.473844 
L 160.957625 278.473844 
L 162.681927 278.473844 
L 164.455496 278.473844 
L 167.953367 278.473844 
L 171.204909 278.473844 
L 171.746832 278.473844 
L 172.387288 278.473844 
L 173.372603 278.473844 
L 174.160856 278.473844 
L 176.57488 278.473844 
L 181.402927 278.473844 
L 182.338977 278.473844 
L 186.871429 278.473844 
L 187.906011 278.473844 
L 188.940592 278.473844 
L 190.615629 278.473844 
L 191.995071 278.473844 
L 193.325247 278.473844 
L 194.162766 278.473844 
L 196.872384 278.473844 
L 199.680534 278.473844 
L 201.059976 278.473844 
L 202.045292 278.473844 
L 203.276936 278.473844 
L 204.311518 278.473844 
L 205.543163 278.473844 
L 208.449844 278.473844 
L 209.977083 278.473844 
L 211.455057 278.473844 
L 212.982296 278.473844 
L 214.46027 278.473844 
L 215.98751 278.473844 
L 217.514749 278.473844 
L 218.943457 278.473844 
L 220.470696 278.473844 
L 221.94867 278.473844 
L 223.475909 278.473844 
L 224.953883 278.473844 
L 226.481122 278.473844 
L 228.008362 278.473844 
L 229.486335 278.473844 
L 231.013575 278.473844 
L 232.491548 278.473844 
L 234.018788 278.473844 
L 235.546027 278.473844 
L 236.925469 278.473844 
L 238.452709 278.473844 
L 239.930682 278.473844 
L 241.457922 278.473844 
L 242.935895 278.473844 
L 244.463135 278.473844 
L 245.990374 278.473844 
L 247.468348 278.473844 
L 248.995587 278.473844 
L 250.473561 278.473844 
L 252.0008 278.473844 
L 253.52804 278.473844 
L 254.907482 278.473844 
L 256.434721 278.473844 
L 257.912695 278.473844 
L 259.439934 278.473844 
L 260.917908 278.473844 
L 262.445147 278.473844 
L 263.972387 278.473844 
L 265.45036 278.473844 
L 266.9776 278.473844 
L 268.455573 278.473844 
L 269.982813 278.473844 
L 271.510052 278.473844 
L 272.889494 278.473844 
L 274.416733 278.473844 
L 275.894707 278.473844 
L 277.421946 278.473844 
L 278.89992 278.473844 
L 280.42716 278.473844 
L 281.954399 278.473844 
L 283.432373 278.473844 
L 284.959612 278.473844 
L 286.437586 278.473844 
L 287.964825 278.473844 
L 289.492064 278.473844 
L 290.920772 278.473844 
L 292.448012 278.473844 
L 293.925985 278.473844 
L 295.453225 278.473844 
L 296.931198 278.473844 
L 298.458438 278.473844 
L 299.985677 278.473844 
L 301.463651 278.473844 
L 302.99089 278.473844 
L 304.468864 278.473844 
L 305.996103 278.473844 
L 307.523343 278.473844 
L 308.902785 278.473844 
L 310.430024 278.473844 
L 311.907998 278.473844 
L 313.435237 278.473844 
L 314.913211 278.473844 
L 316.44045 278.473844 
L 317.96769 278.473844 
L 319.445663 278.473844 
L 320.972903 278.473844 
L 322.450876 278.473844 
L 323.978116 278.473844 
L 325.505355 278.473844 
L 326.884797 278.473844 
L 328.412037 278.473844 
L 329.89001 278.473844 
L 331.41725 278.473844 
L 332.895223 278.473844 
L 334.422463 278.473844 
L 335.949702 278.473844 
L 337.427676 278.473844 
L 338.954915 278.473844 
L 340.432889 278.473844 
L 341.960128 278.473844 
L 343.487367 278.473844 
L 344.86681 278.473844 
L 346.394049 278.473844 
L 347.872023 278.473844 
L 349.399262 278.473844 
L 350.877236 278.473844 
L 352.404475 278.473844 
L 353.931714 278.473844 
L 355.409688 278.473844 
L 356.936927 278.473844 
L 358.414901 278.473844 
L 359.942141 278.473844 
L 361.46938 278.473844 
L 362.898088 278.473844 
L 364.425327 278.473844 
L 365.903301 278.473844 
L 367.43054 278.473844 
L 368.908514 278.473844 
L 370.435753 278.473844 
L 371.962993 278.473844 
L 373.440966 278.473844 
L 374.968206 278.473844 
L 376.446179 278.473844 
L 377.973419 278.473844 
L 379.500658 278.473844 
L 380.8801 278.473844 
L 382.40734 278.473844 
L 383.885313 278.473844 
L 385.412553 278.473844 
L 386.890526 278.473844 
L 388.417766 278.473844 
L 389.945005 278.473844 
L 391.422979 278.473844 
L 392.950218 278.473844 
L 394.428192 278.473844 
L 395.955431 278.473844 
L 397.482671 278.473844 
L 398.862113 278.473844 
L 400.389352 278.473844 
L 401.867326 278.473844 
L 403.394565 278.473844 
L 404.872539 278.473844 
L 406.399778 278.473844 
L 407.927017 278.473844 
L 409.404991 278.473844 
L 410.932231 278.473844 
L 412.410204 278.473844 
L 413.937444 278.473844 
L 415.464683 278.473844 
L 416.844125 278.473844 
L 418.371364 278.473844 
L 419.849338 278.473844 
L 421.376577 278.473844 
L 422.854551 278.473844 
L 424.381791 278.473844 
L 425.90903 278.473844 
L 427.387004 278.473844 
L 428.914243 278.473844 
L 430.392217 278.473844 
L 431.919456 278.473844 
L 433.446695 278.473844 
L 434.875403 278.473844 
L 436.402643 278.473844 
L 437.880616 278.473844 
L 439.407856 278.473844 
L 440.885829 278.473844 
L 442.413069 278.473844 
L 443.940308 278.473844 
L 445.418282 278.473844 
L 446.945521 278.473844 
L 448.423495 278.473844 
L 449.950734 278.473844 
L 449.950734 173.754486 
L 449.950734 173.754486 
L 448.423495 174.542738 
L 446.945521 174.779214 
L 445.418282 174.779214 
L 443.940308 175.01569 
L 442.413069 175.01569 
L 440.885829 175.882768 
L 439.407856 176.434545 
L 437.880616 176.552782 
L 436.402643 176.67102 
L 434.875403 176.749846 
L 433.446695 178.444589 
L 431.919456 178.562827 
L 430.392217 178.602239 
L 428.914243 178.838715 
L 427.387004 178.956953 
L 425.90903 178.996365 
L 424.381791 179.114603 
L 422.854551 179.587555 
L 421.376577 179.824031 
L 419.849338 179.942269 
L 418.371364 179.942269 
L 416.844125 180.296982 
L 415.464683 180.888172 
L 413.937444 180.848759 
L 412.410204 180.966997 
L 410.932231 181.085235 
L 409.404991 181.321711 
L 407.927017 181.321711 
L 406.399778 181.361123 
L 404.872539 181.361123 
L 403.394565 181.321711 
L 401.867326 181.400536 
L 400.389352 181.321711 
L 398.862113 181.282298 
L 397.482671 181.321711 
L 395.955431 181.321711 
L 394.428192 181.518774 
L 392.950218 181.715837 
L 391.422979 182.031138 
L 389.945005 182.267614 
L 388.417766 182.228201 
L 386.890526 182.425264 
L 385.412553 182.701153 
L 383.885313 182.701153 
L 382.40734 182.858803 
L 380.8801 183.371167 
L 379.500658 183.489405 
L 377.973419 183.922944 
L 376.446179 183.962357 
L 374.968206 184.120007 
L 373.440966 184.198833 
L 371.962993 184.356483 
L 370.435753 184.395896 
L 368.908514 184.474721 
L 367.43054 184.474721 
L 365.903301 184.553546 
L 364.425327 184.90826 
L 362.898088 185.026498 
L 361.46938 185.105323 
L 359.942141 185.184148 
L 358.414901 185.184148 
L 356.936927 185.184148 
L 355.409688 185.302386 
L 353.931714 185.381212 
L 352.404475 185.538862 
L 350.877236 185.775338 
L 349.399262 185.893576 
L 347.872023 185.972401 
L 346.394049 186.051226 
L 344.86681 186.090639 
L 343.487367 186.090639 
L 341.960128 186.130051 
L 340.432889 186.169464 
L 338.954915 186.248289 
L 337.427676 186.287702 
L 335.949702 186.287702 
L 334.422463 186.40594 
L 332.895223 186.524178 
L 331.41725 186.760654 
L 329.89001 186.918304 
L 328.412037 187.233605 
L 326.884797 187.391256 
L 325.505355 187.548906 
L 323.978116 187.588319 
L 322.450876 187.745969 
L 320.972903 187.90362 
L 319.445663 189.637776 
L 317.96769 189.913664 
L 316.44045 190.662504 
L 314.913211 190.031902 
L 313.435237 189.953077 
L 311.907998 189.992489 
L 310.430024 190.071314 
L 308.902785 190.347203 
L 307.523343 190.386616 
L 305.996103 190.465441 
L 304.468864 191.214281 
L 302.99089 191.332519 
L 301.463651 191.529582 
L 299.985677 191.608407 
L 298.458438 191.726645 
L 296.931198 192.160184 
L 295.453225 192.357247 
L 293.925985 192.357247 
L 292.448012 192.751373 
L 290.920772 192.830199 
L 289.492064 192.869611 
L 287.964825 193.066674 
L 286.437586 193.1455 
L 284.959612 193.1455 
L 283.432373 193.342563 
L 281.954399 193.381975 
L 280.42716 193.421388 
L 278.89992 193.579039 
L 277.421946 193.697276 
L 275.894707 193.106087 
L 274.416733 193.184912 
L 272.889494 193.381975 
L 271.510052 193.381975 
L 269.982813 193.618451 
L 268.455573 193.776102 
L 266.9776 194.05199 
L 265.45036 194.406704 
L 263.972387 194.722005 
L 262.445147 194.80083 
L 260.917908 195.076718 
L 259.439934 195.313194 
L 257.912695 195.667908 
L 256.434721 195.825558 
L 254.907482 196.022622 
L 253.52804 196.062034 
L 252.0008 196.062034 
L 250.473561 196.259097 
L 248.995587 196.732049 
L 247.468348 196.771462 
L 245.990374 197.007937 
L 244.463135 197.677952 
L 242.935895 197.756777 
L 241.457922 198.229729 
L 239.930682 198.54503 
L 238.452709 199.609171 
L 236.925469 199.687996 
L 235.546027 199.806234 
L 234.018788 200.082122 
L 232.491548 200.160948 
L 231.013575 200.397424 
L 229.486335 200.594487 
L 228.008362 200.9492 
L 226.481122 201.146264 
L 224.953883 201.264501 
L 223.475909 201.500977 
L 221.94867 201.54039 
L 220.470696 201.658628 
L 218.943457 201.816278 
L 217.514749 201.816278 
L 215.98751 201.895103 
L 214.46027 201.934516 
L 212.982296 201.973929 
L 211.455057 202.013341 
L 209.977083 202.052754 
L 208.449844 202.170992 
L 205.543163 202.919832 
L 204.311518 203.116895 
L 203.276936 203.156308 
L 202.045292 203.03807 
L 201.059976 203.03807 
L 199.680534 203.156308 
L 196.872384 203.274546 
L 194.162766 203.905148 
L 193.325247 204.851051 
L 191.995071 204.6934 
L 190.615629 204.653988 
L 188.940592 205.363415 
L 187.906011 205.363415 
L 186.871429 205.126939 
L 182.338977 205.639303 
L 181.402927 205.718129 
L 176.57488 206.388143 
L 174.160856 206.466969 
L 173.372603 206.309318 
L 172.387288 206.427556 
L 171.746832 206.624619 
L 171.204909 206.664032 
L 167.953367 206.78227 
L 164.455496 206.861095 
L 162.681927 207.058158 
L 160.957625 209.147027 
L 157.85388 209.068202 
L 157.065628 209.107615 
L 155.784717 209.541154 
L 153.715554 210.644707 
L 150.513278 210.881183 
L 149.330899 211.275309 
L 146.572015 211.551198 
L 145.094041 212.378863 
L 143.369739 212.93064 
L 141.399107 213.364179 
L 139.970399 213.403591 
L 138.886552 213.482417 
L 138.147565 213.521829 
L 137.063718 213.561242 
L 136.029136 214.270669 
L 135.339415 214.625383 
L 135.142352 214.625383 
L 134.403365 214.625383 
L 133.41805 214.861859 
L 132.038608 214.625383 
L 131.54595 214.822446 
L 131.004026 214.901271 
L 130.215774 215.019509 
L 129.476787 215.019509 
L 128.787066 215.33481 
L 127.80175 216.044238 
L 127.456889 216.004825 
L 126.520839 216.359539 
L 125.338461 216.438364 
L 124.451676 216.517189 
L 123.959019 216.596014 
L 123.1215 216.714252 
L 122.579576 216.950728 
L 121.742058 217.147791 
L 121.052337 217.068966 
L 120.214819 217.147791 
L 116.963277 217.42368 
L 116.716948 217.384267 
L 114.746316 217.699568 
L 110.460193 215.807762 
L 108.144701 218.606059 
L 99.178327 222.271433 
L 84.743452 225.700332 
L 65.135668 230.114547 
L 48.237503 225.030317 
L 40.010117 224.399715 
L 31.684199 225.22738 
z
" clip-path="url(#p0a67ce83b5)" style="fill: #fb363b"/>
   </g>
   <g id="PolyCollection_2">
    <path d="M 31.684199 144.195013 
L 31.684199 225.22738 
L 40.010117 224.399715 
L 48.237503 225.030317 
L 65.135668 230.114547 
L 84.743452 225.700332 
L 99.178327 222.271433 
L 108.144701 218.606059 
L 110.460193 215.807762 
L 114.746316 217.699568 
L 116.716948 217.384267 
L 116.963277 217.42368 
L 120.214819 217.147791 
L 121.052337 217.068966 
L 121.742058 217.147791 
L 122.579576 216.950728 
L 123.1215 216.714252 
L 123.959019 216.596014 
L 124.451676 216.517189 
L 125.338461 216.438364 
L 126.520839 216.359539 
L 127.456889 216.004825 
L 127.80175 216.044238 
L 128.787066 215.33481 
L 129.476787 215.019509 
L 130.215774 215.019509 
L 131.004026 214.901271 
L 131.54595 214.822446 
L 132.038608 214.625383 
L 133.41805 214.861859 
L 134.403365 214.625383 
L 135.142352 214.625383 
L 135.339415 214.625383 
L 136.029136 214.270669 
L 137.063718 213.561242 
L 138.147565 213.521829 
L 138.886552 213.482417 
L 139.970399 213.403591 
L 141.399107 213.364179 
L 143.369739 212.93064 
L 145.094041 212.378863 
L 146.572015 211.551198 
L 149.330899 211.275309 
L 150.513278 210.881183 
L 153.715554 210.644707 
L 155.784717 209.541154 
L 157.065628 209.107615 
L 157.85388 209.068202 
L 160.957625 209.147027 
L 162.681927 207.058158 
L 164.455496 206.861095 
L 167.953367 206.78227 
L 171.204909 206.664032 
L 171.746832 206.624619 
L 172.387288 206.427556 
L 173.372603 206.309318 
L 174.160856 206.466969 
L 176.57488 206.388143 
L 181.402927 205.718129 
L 182.338977 205.639303 
L 186.871429 205.126939 
L 187.906011 205.363415 
L 188.940592 205.363415 
L 190.615629 204.653988 
L 191.995071 204.6934 
L 193.325247 204.851051 
L 194.162766 203.905148 
L 196.872384 203.274546 
L 199.680534 203.156308 
L 201.059976 203.03807 
L 202.045292 203.03807 
L 203.276936 203.156308 
L 204.311518 203.116895 
L 205.543163 202.919832 
L 208.449844 202.170992 
L 209.977083 202.052754 
L 211.455057 202.013341 
L 212.982296 201.973929 
L 214.46027 201.934516 
L 215.98751 201.895103 
L 217.514749 201.816278 
L 218.943457 201.816278 
L 220.470696 201.658628 
L 221.94867 201.54039 
L 223.475909 201.500977 
L 224.953883 201.264501 
L 226.481122 201.146264 
L 228.008362 200.9492 
L 229.486335 200.594487 
L 231.013575 200.397424 
L 232.491548 200.160948 
L 234.018788 200.082122 
L 235.546027 199.806234 
L 236.925469 199.687996 
L 238.452709 199.609171 
L 239.930682 198.54503 
L 241.457922 198.229729 
L 242.935895 197.756777 
L 244.463135 197.677952 
L 245.990374 197.007937 
L 247.468348 196.771462 
L 248.995587 196.732049 
L 250.473561 196.259097 
L 252.0008 196.062034 
L 253.52804 196.062034 
L 254.907482 196.022622 
L 256.434721 195.825558 
L 257.912695 195.667908 
L 259.439934 195.313194 
L 260.917908 195.076718 
L 262.445147 194.80083 
L 263.972387 194.722005 
L 265.45036 194.406704 
L 266.9776 194.05199 
L 268.455573 193.776102 
L 269.982813 193.618451 
L 271.510052 193.381975 
L 272.889494 193.381975 
L 274.416733 193.184912 
L 275.894707 193.106087 
L 277.421946 193.697276 
L 278.89992 193.579039 
L 280.42716 193.421388 
L 281.954399 193.381975 
L 283.432373 193.342563 
L 284.959612 193.1455 
L 286.437586 193.1455 
L 287.964825 193.066674 
L 289.492064 192.869611 
L 290.920772 192.830199 
L 292.448012 192.751373 
L 293.925985 192.357247 
L 295.453225 192.357247 
L 296.931198 192.160184 
L 298.458438 191.726645 
L 299.985677 191.608407 
L 301.463651 191.529582 
L 302.99089 191.332519 
L 304.468864 191.214281 
L 305.996103 190.465441 
L 307.523343 190.386616 
L 308.902785 190.347203 
L 310.430024 190.071314 
L 311.907998 189.992489 
L 313.435237 189.953077 
L 314.913211 190.031902 
L 316.44045 190.662504 
L 317.96769 189.913664 
L 319.445663 189.637776 
L 320.972903 187.90362 
L 322.450876 187.745969 
L 323.978116 187.588319 
L 325.505355 187.548906 
L 326.884797 187.391256 
L 328.412037 187.233605 
L 329.89001 186.918304 
L 331.41725 186.760654 
L 332.895223 186.524178 
L 334.422463 186.40594 
L 335.949702 186.287702 
L 337.427676 186.287702 
L 338.954915 186.248289 
L 340.432889 186.169464 
L 341.960128 186.130051 
L 343.487367 186.090639 
L 344.86681 186.090639 
L 346.394049 186.051226 
L 347.872023 185.972401 
L 349.399262 185.893576 
L 350.877236 185.775338 
L 352.404475 185.538862 
L 353.931714 185.381212 
L 355.409688 185.302386 
L 356.936927 185.184148 
L 358.414901 185.184148 
L 359.942141 185.184148 
L 361.46938 185.105323 
L 362.898088 185.026498 
L 364.425327 184.90826 
L 365.903301 184.553546 
L 367.43054 184.474721 
L 368.908514 184.474721 
L 370.435753 184.395896 
L 371.962993 184.356483 
L 373.440966 184.198833 
L 374.968206 184.120007 
L 376.446179 183.962357 
L 377.973419 183.922944 
L 379.500658 183.489405 
L 380.8801 183.371167 
L 382.40734 182.858803 
L 383.885313 182.701153 
L 385.412553 182.701153 
L 386.890526 182.425264 
L 388.417766 182.228201 
L 389.945005 182.267614 
L 391.422979 182.031138 
L 392.950218 181.715837 
L 394.428192 181.518774 
L 395.955431 181.321711 
L 397.482671 181.321711 
L 398.862113 181.282298 
L 400.389352 181.321711 
L 401.867326 181.400536 
L 403.394565 181.321711 
L 404.872539 181.361123 
L 406.399778 181.361123 
L 407.927017 181.321711 
L 409.404991 181.321711 
L 410.932231 181.085235 
L 412.410204 180.966997 
L 413.937444 180.848759 
L 415.464683 180.888172 
L 416.844125 180.296982 
L 418.371364 179.942269 
L 419.849338 179.942269 
L 421.376577 179.824031 
L 422.854551 179.587555 
L 424.381791 179.114603 
L 425.90903 178.996365 
L 427.387004 178.956953 
L 428.914243 178.838715 
L 430.392217 178.602239 
L 431.919456 178.562827 
L 433.446695 178.444589 
L 434.875403 176.749846 
L 436.402643 176.67102 
L 437.880616 176.552782 
L 439.407856 176.434545 
L 440.885829 175.882768 
L 442.413069 175.01569 
L 443.940308 175.01569 
L 445.418282 174.779214 
L 446.945521 174.779214 
L 448.423495 174.542738 
L 449.950734 173.754486 
L 449.950734 101.826436 
L 449.950734 101.826436 
L 448.423495 102.378213 
L 446.945521 102.457038 
L 445.418282 102.575276 
L 443.940308 102.614689 
L 442.413069 102.851164 
L 440.885829 102.732926 
L 439.407856 102.693514 
L 437.880616 102.851164 
L 436.402643 102.92999 
L 434.875403 102.890577 
L 433.446695 103.166465 
L 431.919456 103.442354 
L 430.392217 103.442354 
L 428.914243 103.560592 
L 427.387004 103.718242 
L 425.90903 103.797067 
L 424.381791 103.797067 
L 422.854551 104.072956 
L 421.376577 104.309432 
L 419.849338 104.42767 
L 418.371364 104.42767 
L 416.844125 104.467082 
L 415.464683 104.624733 
L 413.937444 104.742971 
L 412.410204 104.821796 
L 410.932231 104.821796 
L 409.404991 104.861208 
L 407.927017 104.742971 
L 406.399778 104.782383 
L 404.872539 104.782383 
L 403.394565 104.979446 
L 401.867326 104.940034 
L 400.389352 104.940034 
L 398.862113 104.979446 
L 397.482671 105.058272 
L 395.955431 105.058272 
L 394.428192 105.17651 
L 392.950218 105.137097 
L 391.422979 105.255335 
L 389.945005 105.294747 
L 388.417766 105.33416 
L 386.890526 105.373573 
L 385.412553 105.412985 
L 383.885313 105.373573 
L 382.40734 105.491811 
L 380.8801 105.688874 
L 379.500658 105.846524 
L 377.973419 105.885937 
L 376.446179 105.885937 
L 374.968206 105.964762 
L 373.440966 106.004175 
L 371.962993 106.083 
L 370.435753 106.083 
L 368.908514 106.122413 
L 367.43054 106.161825 
L 365.903301 106.043587 
L 364.425327 106.004175 
L 362.898088 106.043587 
L 361.46938 105.964762 
L 359.942141 105.964762 
L 358.414901 105.964762 
L 356.936927 105.964762 
L 355.409688 105.964762 
L 353.931714 106.004175 
L 352.404475 105.964762 
L 350.877236 106.004175 
L 349.399262 106.004175 
L 347.872023 105.885937 
L 346.394049 105.885937 
L 344.86681 105.925349 
L 343.487367 105.925349 
L 341.960128 106.004175 
L 340.432889 106.004175 
L 338.954915 106.083 
L 337.427676 106.083 
L 335.949702 106.083 
L 334.422463 106.122413 
L 332.895223 106.122413 
L 331.41725 106.122413 
L 329.89001 106.161825 
L 328.412037 106.201238 
L 326.884797 106.516539 
L 325.505355 106.634777 
L 323.978116 106.555952 
L 322.450876 106.634777 
L 320.972903 106.753015 
L 319.445663 106.792427 
L 317.96769 107.344204 
L 316.44045 107.659505 
L 314.913211 109.8272 
L 313.435237 111.048991 
L 311.907998 111.48253 
L 310.430024 111.48253 
L 308.902785 111.797831 
L 307.523343 111.719006 
L 305.996103 110.930753 
L 304.468864 111.127817 
L 302.99089 111.561356 
L 301.463651 111.561356 
L 299.985677 111.443118 
L 298.458438 111.600768 
L 296.931198 111.640181 
L 295.453225 111.640181 
L 293.925985 111.679593 
L 292.448012 111.758419 
L 290.920772 111.758419 
L 289.492064 111.797831 
L 287.964825 111.797831 
L 286.437586 111.916069 
L 284.959612 111.955482 
L 283.432373 111.994894 
L 281.954399 111.994894 
L 280.42716 111.955482 
L 278.89992 111.994894 
L 277.421946 111.955482 
L 275.894707 112.586084 
L 274.416733 112.546671 
L 272.889494 112.625497 
L 271.510052 112.704322 
L 269.982813 112.82256 
L 268.455573 112.783147 
L 266.9776 113.059036 
L 265.45036 113.177273 
L 263.972387 113.334924 
L 262.445147 113.531987 
L 260.917908 113.5714 
L 259.439934 113.492574 
L 257.912695 113.5714 
L 256.434721 113.610812 
L 254.907482 113.610812 
L 253.52804 113.610812 
L 252.0008 113.610812 
L 250.473561 113.768463 
L 248.995587 113.847288 
L 247.468348 114.083764 
L 245.990374 114.123177 
L 244.463135 114.359652 
L 242.935895 114.438478 
L 241.457922 114.674953 
L 239.930682 114.793191 
L 238.452709 114.950842 
L 236.925469 114.990254 
L 235.546027 115.029667 
L 234.018788 115.187318 
L 232.491548 115.187318 
L 231.013575 115.384381 
L 229.486335 115.660269 
L 228.008362 115.81792 
L 226.481122 115.97557 
L 224.953883 116.172633 
L 223.475909 116.251459 
L 221.94867 116.56676 
L 220.470696 116.56676 
L 218.943457 116.606172 
L 217.514749 116.606172 
L 215.98751 116.606172 
L 214.46027 116.606172 
L 212.982296 116.606172 
L 211.455057 116.645585 
L 209.977083 116.803235 
L 208.449844 116.882061 
L 205.543163 117.355012 
L 204.311518 117.946202 
L 203.276936 118.22209 
L 202.045292 117.670313 
L 201.059976 117.985614 
L 199.680534 118.103852 
L 196.872384 118.261503 
L 194.162766 118.261503 
L 193.325247 118.419153 
L 191.995071 118.931517 
L 190.615629 118.892105 
L 188.940592 119.798595 
L 187.906011 119.798595 
L 186.871429 120.232134 
L 182.338977 120.508023 
L 181.402927 120.586848 
L 176.57488 121.690401 
L 174.160856 122.675717 
L 173.372603 122.71513 
L 172.387288 122.71513 
L 171.746832 122.71513 
L 171.204909 122.754542 
L 167.953367 122.321004 
L 164.455496 122.833368 
L 162.681927 123.030431 
L 160.957625 123.227494 
L 157.85388 123.345732 
L 157.065628 123.424557 
L 155.784717 123.62162 
L 153.715554 123.936921 
L 150.513278 123.779271 
L 149.330899 124.094572 
L 146.572015 124.055159 
L 145.094041 123.976334 
L 143.369739 124.331048 
L 141.399107 124.252222 
L 139.970399 124.133985 
L 138.886552 124.409873 
L 138.147565 124.449286 
L 137.063718 123.700446 
L 136.029136 123.739858 
L 135.339415 123.897509 
L 135.142352 123.897509 
L 134.403365 123.858096 
L 133.41805 124.37046 
L 132.038608 123.818683 
L 131.54595 123.818683 
L 131.004026 123.858096 
L 130.215774 123.897509 
L 129.476787 123.700446 
L 128.787066 124.133985 
L 127.80175 124.252222 
L 127.456889 124.015747 
L 126.520839 124.173397 
L 125.338461 124.133985 
L 124.451676 124.646349 
L 123.959019 124.567523 
L 123.1215 124.567523 
L 122.579576 122.793955 
L 121.742058 123.188081 
L 121.052337 122.202766 
L 120.214819 121.96629 
L 116.963277 122.242178 
L 116.716948 122.084528 
L 114.746316 122.360416 
L 110.460193 124.133985 
L 108.144701 125.001062 
L 99.178327 127.089932 
L 84.743452 130.085292 
L 65.135668 133.908317 
L 48.237503 140.017274 
L 40.010117 143.879712 
L 31.684199 144.195013 
z
" clip-path="url(#p0a67ce83b5)" style="fill: #fdc92c"/>
   </g>
   <g id="PolyCollection_3">
    <path d="M 31.684199 113.137861 
L 31.684199 144.195013 
L 40.010117 143.879712 
L 48.237503 140.017274 
L 65.135668 133.908317 
L 84.743452 130.085292 
L 99.178327 127.089932 
L 108.144701 125.001062 
L 110.460193 124.133985 
L 114.746316 122.360416 
L 116.716948 122.084528 
L 116.963277 122.242178 
L 120.214819 121.96629 
L 121.052337 122.202766 
L 121.742058 123.188081 
L 122.579576 122.793955 
L 123.1215 124.567523 
L 123.959019 124.567523 
L 124.451676 124.646349 
L 125.338461 124.133985 
L 126.520839 124.173397 
L 127.456889 124.015747 
L 127.80175 124.252222 
L 128.787066 124.133985 
L 129.476787 123.700446 
L 130.215774 123.897509 
L 131.004026 123.858096 
L 131.54595 123.818683 
L 132.038608 123.818683 
L 133.41805 124.37046 
L 134.403365 123.858096 
L 135.142352 123.897509 
L 135.339415 123.897509 
L 136.029136 123.739858 
L 137.063718 123.700446 
L 138.147565 124.449286 
L 138.886552 124.409873 
L 139.970399 124.133985 
L 141.399107 124.252222 
L 143.369739 124.331048 
L 145.094041 123.976334 
L 146.572015 124.055159 
L 149.330899 124.094572 
L 150.513278 123.779271 
L 153.715554 123.936921 
L 155.784717 123.62162 
L 157.065628 123.424557 
L 157.85388 123.345732 
L 160.957625 123.227494 
L 162.681927 123.030431 
L 164.455496 122.833368 
L 167.953367 122.321004 
L 171.204909 122.754542 
L 171.746832 122.71513 
L 172.387288 122.71513 
L 173.372603 122.71513 
L 174.160856 122.675717 
L 176.57488 121.690401 
L 181.402927 120.586848 
L 182.338977 120.508023 
L 186.871429 120.232134 
L 187.906011 119.798595 
L 188.940592 119.798595 
L 190.615629 118.892105 
L 191.995071 118.931517 
L 193.325247 118.419153 
L 194.162766 118.261503 
L 196.872384 118.261503 
L 199.680534 118.103852 
L 201.059976 117.985614 
L 202.045292 117.670313 
L 203.276936 118.22209 
L 204.311518 117.946202 
L 205.543163 117.355012 
L 208.449844 116.882061 
L 209.977083 116.803235 
L 211.455057 116.645585 
L 212.982296 116.606172 
L 214.46027 116.606172 
L 215.98751 116.606172 
L 217.514749 116.606172 
L 218.943457 116.606172 
L 220.470696 116.56676 
L 221.94867 116.56676 
L 223.475909 116.251459 
L 224.953883 116.172633 
L 226.481122 115.97557 
L 228.008362 115.81792 
L 229.486335 115.660269 
L 231.013575 115.384381 
L 232.491548 115.187318 
L 234.018788 115.187318 
L 235.546027 115.029667 
L 236.925469 114.990254 
L 238.452709 114.950842 
L 239.930682 114.793191 
L 241.457922 114.674953 
L 242.935895 114.438478 
L 244.463135 114.359652 
L 245.990374 114.123177 
L 247.468348 114.083764 
L 248.995587 113.847288 
L 250.473561 113.768463 
L 252.0008 113.610812 
L 253.52804 113.610812 
L 254.907482 113.610812 
L 256.434721 113.610812 
L 257.912695 113.5714 
L 259.439934 113.492574 
L 260.917908 113.5714 
L 262.445147 113.531987 
L 263.972387 113.334924 
L 265.45036 113.177273 
L 266.9776 113.059036 
L 268.455573 112.783147 
L 269.982813 112.82256 
L 271.510052 112.704322 
L 272.889494 112.625497 
L 274.416733 112.546671 
L 275.894707 112.586084 
L 277.421946 111.955482 
L 278.89992 111.994894 
L 280.42716 111.955482 
L 281.954399 111.994894 
L 283.432373 111.994894 
L 284.959612 111.955482 
L 286.437586 111.916069 
L 287.964825 111.797831 
L 289.492064 111.797831 
L 290.920772 111.758419 
L 292.448012 111.758419 
L 293.925985 111.679593 
L 295.453225 111.640181 
L 296.931198 111.640181 
L 298.458438 111.600768 
L 299.985677 111.443118 
L 301.463651 111.561356 
L 302.99089 111.561356 
L 304.468864 111.127817 
L 305.996103 110.930753 
L 307.523343 111.719006 
L 308.902785 111.797831 
L 310.430024 111.48253 
L 311.907998 111.48253 
L 313.435237 111.048991 
L 314.913211 109.8272 
L 316.44045 107.659505 
L 317.96769 107.344204 
L 319.445663 106.792427 
L 320.972903 106.753015 
L 322.450876 106.634777 
L 323.978116 106.555952 
L 325.505355 106.634777 
L 326.884797 106.516539 
L 328.412037 106.201238 
L 329.89001 106.161825 
L 331.41725 106.122413 
L 332.895223 106.122413 
L 334.422463 106.122413 
L 335.949702 106.083 
L 337.427676 106.083 
L 338.954915 106.083 
L 340.432889 106.004175 
L 341.960128 106.004175 
L 343.487367 105.925349 
L 344.86681 105.925349 
L 346.394049 105.885937 
L 347.872023 105.885937 
L 349.399262 106.004175 
L 350.877236 106.004175 
L 352.404475 105.964762 
L 353.931714 106.004175 
L 355.409688 105.964762 
L 356.936927 105.964762 
L 358.414901 105.964762 
L 359.942141 105.964762 
L 361.46938 105.964762 
L 362.898088 106.043587 
L 364.425327 106.004175 
L 365.903301 106.043587 
L 367.43054 106.161825 
L 368.908514 106.122413 
L 370.435753 106.083 
L 371.962993 106.083 
L 373.440966 106.004175 
L 374.968206 105.964762 
L 376.446179 105.885937 
L 377.973419 105.885937 
L 379.500658 105.846524 
L 380.8801 105.688874 
L 382.40734 105.491811 
L 383.885313 105.373573 
L 385.412553 105.412985 
L 386.890526 105.373573 
L 388.417766 105.33416 
L 389.945005 105.294747 
L 391.422979 105.255335 
L 392.950218 105.137097 
L 394.428192 105.17651 
L 395.955431 105.058272 
L 397.482671 105.058272 
L 398.862113 104.979446 
L 400.389352 104.940034 
L 401.867326 104.940034 
L 403.394565 104.979446 
L 404.872539 104.782383 
L 406.399778 104.782383 
L 407.927017 104.742971 
L 409.404991 104.861208 
L 410.932231 104.821796 
L 412.410204 104.821796 
L 413.937444 104.742971 
L 415.464683 104.624733 
L 416.844125 104.467082 
L 418.371364 104.42767 
L 419.849338 104.42767 
L 421.376577 104.309432 
L 422.854551 104.072956 
L 424.381791 103.797067 
L 425.90903 103.797067 
L 427.387004 103.718242 
L 428.914243 103.560592 
L 430.392217 103.442354 
L 431.919456 103.442354 
L 433.446695 103.166465 
L 434.875403 102.890577 
L 436.402643 102.92999 
L 437.880616 102.851164 
L 439.407856 102.693514 
L 440.885829 102.732926 
L 442.413069 102.851164 
L 443.940308 102.614689 
L 445.418282 102.575276 
L 446.945521 102.457038 
L 448.423495 102.378213 
L 449.950734 101.826436 
L 449.950734 88.780855 
L 449.950734 88.780855 
L 448.423495 88.780855 
L 446.945521 88.780855 
L 445.418282 88.780855 
L 443.940308 88.741443 
L 442.413069 89.096156 
L 440.885829 89.332632 
L 439.407856 89.332632 
L 437.880616 89.372045 
L 436.402643 89.372045 
L 434.875403 89.372045 
L 433.446695 89.411458 
L 431.919456 89.411458 
L 430.392217 89.411458 
L 428.914243 89.45087 
L 427.387004 89.45087 
L 425.90903 89.45087 
L 424.381791 89.45087 
L 422.854551 89.529695 
L 421.376577 89.529695 
L 419.849338 89.529695 
L 418.371364 89.529695 
L 416.844125 89.529695 
L 415.464683 89.569108 
L 413.937444 89.569108 
L 412.410204 89.647933 
L 410.932231 89.647933 
L 409.404991 89.687346 
L 407.927017 89.687346 
L 406.399778 89.687346 
L 404.872539 89.687346 
L 403.394565 89.766171 
L 401.867326 89.844996 
L 400.389352 89.844996 
L 398.862113 89.844996 
L 397.482671 89.844996 
L 395.955431 89.844996 
L 394.428192 89.884409 
L 392.950218 89.844996 
L 391.422979 89.923822 
L 389.945005 89.923822 
L 388.417766 89.923822 
L 386.890526 89.963234 
L 385.412553 89.963234 
L 383.885313 89.963234 
L 382.40734 90.002647 
L 380.8801 90.04206 
L 379.500658 90.081472 
L 377.973419 90.081472 
L 376.446179 90.04206 
L 374.968206 90.04206 
L 373.440966 90.04206 
L 371.962993 90.002647 
L 370.435753 90.002647 
L 368.908514 90.04206 
L 367.43054 90.04206 
L 365.903301 89.963234 
L 364.425327 89.923822 
L 362.898088 89.923822 
L 361.46938 89.963234 
L 359.942141 89.963234 
L 358.414901 89.963234 
L 356.936927 89.963234 
L 355.409688 89.963234 
L 353.931714 89.963234 
L 352.404475 89.963234 
L 350.877236 89.963234 
L 349.399262 89.963234 
L 347.872023 89.884409 
L 346.394049 89.884409 
L 344.86681 89.884409 
L 343.487367 89.884409 
L 341.960128 89.844996 
L 340.432889 89.844996 
L 338.954915 89.923822 
L 337.427676 89.923822 
L 335.949702 89.923822 
L 334.422463 89.963234 
L 332.895223 89.963234 
L 331.41725 89.963234 
L 329.89001 90.002647 
L 328.412037 90.04206 
L 326.884797 90.120885 
L 325.505355 90.120885 
L 323.978116 90.120885 
L 322.450876 90.278535 
L 320.972903 90.278535 
L 319.445663 90.278535 
L 317.96769 90.160297 
L 316.44045 90.19971 
L 314.913211 90.396773 
L 313.435237 91.342676 
L 311.907998 91.500327 
L 310.430024 91.53974 
L 308.902785 91.579152 
L 307.523343 91.579152 
L 305.996103 91.579152 
L 304.468864 91.579152 
L 302.99089 91.618565 
L 301.463651 91.618565 
L 299.985677 91.657977 
L 298.458438 91.69739 
L 296.931198 91.736803 
L 295.453225 91.736803 
L 293.925985 91.736803 
L 292.448012 91.736803 
L 290.920772 91.736803 
L 289.492064 91.776215 
L 287.964825 91.776215 
L 286.437586 91.815628 
L 284.959612 91.855041 
L 283.432373 91.855041 
L 281.954399 91.855041 
L 280.42716 91.855041 
L 278.89992 91.855041 
L 277.421946 91.855041 
L 275.894707 91.855041 
L 274.416733 91.855041 
L 272.889494 91.933866 
L 271.510052 91.933866 
L 269.982813 91.933866 
L 268.455573 91.973278 
L 266.9776 91.973278 
L 265.45036 92.012691 
L 263.972387 92.170342 
L 262.445147 93.116245 
L 260.917908 93.116245 
L 259.439934 93.116245 
L 257.912695 93.19507 
L 256.434721 93.19507 
L 254.907482 93.19507 
L 253.52804 93.19507 
L 252.0008 93.19507 
L 250.473561 93.19507 
L 248.995587 93.273895 
L 247.468348 93.19507 
L 245.990374 93.234483 
L 244.463135 93.313308 
L 242.935895 93.392133 
L 241.457922 93.589196 
L 239.930682 93.628609 
L 238.452709 93.628609 
L 236.925469 93.628609 
L 235.546027 93.628609 
L 234.018788 93.707434 
L 232.491548 93.707434 
L 231.013575 93.786259 
L 229.486335 93.786259 
L 228.008362 93.668022 
L 226.481122 93.746847 
L 224.953883 93.746847 
L 223.475909 93.746847 
L 221.94867 93.786259 
L 220.470696 93.786259 
L 218.943457 93.786259 
L 217.514749 93.825672 
L 215.98751 93.825672 
L 214.46027 93.865085 
L 212.982296 93.825672 
L 211.455057 93.825672 
L 209.977083 93.904497 
L 208.449844 93.94391 
L 205.543163 94.219798 
L 204.311518 94.810988 
L 203.276936 95.086876 
L 202.045292 94.456274 
L 201.059976 94.968638 
L 199.680534 95.008051 
L 196.872384 95.914541 
L 194.162766 95.914541 
L 193.325247 95.875129 
L 191.995071 96.032779 
L 190.615629 96.032779 
L 188.940592 96.111605 
L 187.906011 96.111605 
L 186.871429 96.151017 
L 182.338977 96.308668 
L 181.402927 96.308668 
L 176.57488 97.333396 
L 174.160856 97.451634 
L 173.372603 97.491047 
L 172.387288 97.609285 
L 171.746832 97.609285 
L 171.204909 97.609285 
L 167.953367 97.609285 
L 164.455496 97.84576 
L 162.681927 97.963998 
L 160.957625 98.003411 
L 157.85388 98.082236 
L 157.065628 98.200474 
L 155.784717 98.397537 
L 153.715554 98.634013 
L 150.513278 98.791663 
L 149.330899 99.422266 
L 146.572015 99.461678 
L 145.094041 99.737567 
L 143.369739 100.052868 
L 141.399107 100.131693 
L 139.970399 100.131693 
L 138.886552 100.131693 
L 138.147565 100.131693 
L 137.063718 100.289343 
L 136.029136 100.446994 
L 135.339415 100.565232 
L 135.142352 100.565232 
L 134.403365 100.525819 
L 133.41805 101.077596 
L 132.038608 100.604644 
L 131.54595 100.604644 
L 131.004026 100.68347 
L 130.215774 100.68347 
L 129.476787 100.68347 
L 128.787066 101.274659 
L 127.80175 101.274659 
L 127.456889 100.801708 
L 126.520839 101.392897 
L 125.338461 102.496451 
L 124.451676 103.402941 
L 123.959019 103.442354 
L 123.1215 103.442354 
L 122.579576 103.481766 
L 121.742058 104.072956 
L 121.052337 103.521179 
L 120.214819 103.521179 
L 116.963277 103.797067 
L 116.716948 103.83648 
L 114.746316 103.875893 
L 110.460193 101.274659 
L 108.144701 104.033543 
L 99.178327 105.925349 
L 84.743452 107.856568 
L 65.135668 109.196598 
L 48.237503 111.206642 
L 40.010117 113.5714 
L 31.684199 113.137861 
z
" clip-path="url(#p0a67ce83b5)" style="fill: #aeaeae"/>
   </g>
   <g id="PolyCollection_4">
    <path d="M 31.684199 89.214394 
L 31.684199 113.137861 
L 40.010117 113.5714 
L 48.237503 111.206642 
L 65.135668 109.196598 
L 84.743452 107.856568 
L 99.178327 105.925349 
L 108.144701 104.033543 
L 110.460193 101.274659 
L 114.746316 103.875893 
L 116.716948 103.83648 
L 116.963277 103.797067 
L 120.214819 103.521179 
L 121.052337 103.521179 
L 121.742058 104.072956 
L 122.579576 103.481766 
L 123.1215 103.442354 
L 123.959019 103.442354 
L 124.451676 103.402941 
L 125.338461 102.496451 
L 126.520839 101.392897 
L 127.456889 100.801708 
L 127.80175 101.274659 
L 128.787066 101.274659 
L 129.476787 100.68347 
L 130.215774 100.68347 
L 131.004026 100.68347 
L 131.54595 100.604644 
L 132.038608 100.604644 
L 133.41805 101.077596 
L 134.403365 100.525819 
L 135.142352 100.565232 
L 135.339415 100.565232 
L 136.029136 100.446994 
L 137.063718 100.289343 
L 138.147565 100.131693 
L 138.886552 100.131693 
L 139.970399 100.131693 
L 141.399107 100.131693 
L 143.369739 100.052868 
L 145.094041 99.737567 
L 146.572015 99.461678 
L 149.330899 99.422266 
L 150.513278 98.791663 
L 153.715554 98.634013 
L 155.784717 98.397537 
L 157.065628 98.200474 
L 157.85388 98.082236 
L 160.957625 98.003411 
L 162.681927 97.963998 
L 164.455496 97.84576 
L 167.953367 97.609285 
L 171.204909 97.609285 
L 171.746832 97.609285 
L 172.387288 97.609285 
L 173.372603 97.491047 
L 174.160856 97.451634 
L 176.57488 97.333396 
L 181.402927 96.308668 
L 182.338977 96.308668 
L 186.871429 96.151017 
L 187.906011 96.111605 
L 188.940592 96.111605 
L 190.615629 96.032779 
L 191.995071 96.032779 
L 193.325247 95.875129 
L 194.162766 95.914541 
L 196.872384 95.914541 
L 199.680534 95.008051 
L 201.059976 94.968638 
L 202.045292 94.456274 
L 203.276936 95.086876 
L 204.311518 94.810988 
L 205.543163 94.219798 
L 208.449844 93.94391 
L 209.977083 93.904497 
L 211.455057 93.825672 
L 212.982296 93.825672 
L 214.46027 93.865085 
L 215.98751 93.825672 
L 217.514749 93.825672 
L 218.943457 93.786259 
L 220.470696 93.786259 
L 221.94867 93.786259 
L 223.475909 93.746847 
L 224.953883 93.746847 
L 226.481122 93.746847 
L 228.008362 93.668022 
L 229.486335 93.786259 
L 231.013575 93.786259 
L 232.491548 93.707434 
L 234.018788 93.707434 
L 235.546027 93.628609 
L 236.925469 93.628609 
L 238.452709 93.628609 
L 239.930682 93.628609 
L 241.457922 93.589196 
L 242.935895 93.392133 
L 244.463135 93.313308 
L 245.990374 93.234483 
L 247.468348 93.19507 
L 248.995587 93.273895 
L 250.473561 93.19507 
L 252.0008 93.19507 
L 253.52804 93.19507 
L 254.907482 93.19507 
L 256.434721 93.19507 
L 257.912695 93.19507 
L 259.439934 93.116245 
L 260.917908 93.116245 
L 262.445147 93.116245 
L 263.972387 92.170342 
L 265.45036 92.012691 
L 266.9776 91.973278 
L 268.455573 91.973278 
L 269.982813 91.933866 
L 271.510052 91.933866 
L 272.889494 91.933866 
L 274.416733 91.855041 
L 275.894707 91.855041 
L 277.421946 91.855041 
L 278.89992 91.855041 
L 280.42716 91.855041 
L 281.954399 91.855041 
L 283.432373 91.855041 
L 284.959612 91.855041 
L 286.437586 91.815628 
L 287.964825 91.776215 
L 289.492064 91.776215 
L 290.920772 91.736803 
L 292.448012 91.736803 
L 293.925985 91.736803 
L 295.453225 91.736803 
L 296.931198 91.736803 
L 298.458438 91.69739 
L 299.985677 91.657977 
L 301.463651 91.618565 
L 302.99089 91.618565 
L 304.468864 91.579152 
L 305.996103 91.579152 
L 307.523343 91.579152 
L 308.902785 91.579152 
L 310.430024 91.53974 
L 311.907998 91.500327 
L 313.435237 91.342676 
L 314.913211 90.396773 
L 316.44045 90.19971 
L 317.96769 90.160297 
L 319.445663 90.278535 
L 320.972903 90.278535 
L 322.450876 90.278535 
L 323.978116 90.120885 
L 325.505355 90.120885 
L 326.884797 90.120885 
L 328.412037 90.04206 
L 329.89001 90.002647 
L 331.41725 89.963234 
L 332.895223 89.963234 
L 334.422463 89.963234 
L 335.949702 89.923822 
L 337.427676 89.923822 
L 338.954915 89.923822 
L 340.432889 89.844996 
L 341.960128 89.844996 
L 343.487367 89.884409 
L 344.86681 89.884409 
L 346.394049 89.884409 
L 347.872023 89.884409 
L 349.399262 89.963234 
L 350.877236 89.963234 
L 352.404475 89.963234 
L 353.931714 89.963234 
L 355.409688 89.963234 
L 356.936927 89.963234 
L 358.414901 89.963234 
L 359.942141 89.963234 
L 361.46938 89.963234 
L 362.898088 89.923822 
L 364.425327 89.923822 
L 365.903301 89.963234 
L 367.43054 90.04206 
L 368.908514 90.04206 
L 370.435753 90.002647 
L 371.962993 90.002647 
L 373.440966 90.04206 
L 374.968206 90.04206 
L 376.446179 90.04206 
L 377.973419 90.081472 
L 379.500658 90.081472 
L 380.8801 90.04206 
L 382.40734 90.002647 
L 383.885313 89.963234 
L 385.412553 89.963234 
L 386.890526 89.963234 
L 388.417766 89.923822 
L 389.945005 89.923822 
L 391.422979 89.923822 
L 392.950218 89.844996 
L 394.428192 89.884409 
L 395.955431 89.844996 
L 397.482671 89.844996 
L 398.862113 89.844996 
L 400.389352 89.844996 
L 401.867326 89.844996 
L 403.394565 89.766171 
L 404.872539 89.687346 
L 406.399778 89.687346 
L 407.927017 89.687346 
L 409.404991 89.687346 
L 410.932231 89.647933 
L 412.410204 89.647933 
L 413.937444 89.569108 
L 415.464683 89.569108 
L 416.844125 89.529695 
L 418.371364 89.529695 
L 419.849338 89.529695 
L 421.376577 89.529695 
L 422.854551 89.529695 
L 424.381791 89.45087 
L 425.90903 89.45087 
L 427.387004 89.45087 
L 428.914243 89.45087 
L 430.392217 89.411458 
L 431.919456 89.411458 
L 433.446695 89.411458 
L 434.875403 89.372045 
L 436.402643 89.372045 
L 437.880616 89.372045 
L 439.407856 89.332632 
L 440.885829 89.332632 
L 442.413069 89.096156 
L 443.940308 88.741443 
L 445.418282 88.780855 
L 446.945521 88.780855 
L 448.423495 88.780855 
L 449.950734 88.780855 
L 449.950734 79.085348 
L 449.950734 79.085348 
L 448.423495 79.085348 
L 446.945521 79.085348 
L 445.418282 79.124761 
L 443.940308 79.124761 
L 442.413069 79.124761 
L 440.885829 79.164174 
L 439.407856 79.164174 
L 437.880616 79.164174 
L 436.402643 79.164174 
L 434.875403 79.164174 
L 433.446695 79.164174 
L 431.919456 79.164174 
L 430.392217 79.164174 
L 428.914243 79.164174 
L 427.387004 79.164174 
L 425.90903 79.164174 
L 424.381791 79.164174 
L 422.854551 79.164174 
L 421.376577 79.164174 
L 419.849338 79.164174 
L 418.371364 79.164174 
L 416.844125 79.164174 
L 415.464683 79.361237 
L 413.937444 79.40065 
L 412.410204 79.440062 
L 410.932231 79.440062 
L 409.404991 79.440062 
L 407.927017 79.440062 
L 406.399778 79.440062 
L 404.872539 79.440062 
L 403.394565 79.440062 
L 401.867326 79.440062 
L 400.389352 79.440062 
L 398.862113 79.479475 
L 397.482671 79.440062 
L 395.955431 79.440062 
L 394.428192 79.479475 
L 392.950218 79.203586 
L 391.422979 79.203586 
L 389.945005 78.848873 
L 388.417766 78.848873 
L 386.890526 78.848873 
L 385.412553 78.848873 
L 383.885313 78.848873 
L 382.40734 78.848873 
L 380.8801 78.888285 
L 379.500658 78.888285 
L 377.973419 78.888285 
L 376.446179 78.848873 
L 374.968206 78.848873 
L 373.440966 78.848873 
L 371.962993 78.888285 
L 370.435753 78.888285 
L 368.908514 78.888285 
L 367.43054 78.888285 
L 365.903301 78.80946 
L 364.425327 78.770047 
L 362.898088 78.770047 
L 361.46938 78.770047 
L 359.942141 78.770047 
L 358.414901 78.770047 
L 356.936927 78.770047 
L 355.409688 78.770047 
L 353.931714 78.770047 
L 352.404475 78.770047 
L 350.877236 78.770047 
L 349.399262 78.770047 
L 347.872023 78.691222 
L 346.394049 78.691222 
L 344.86681 78.691222 
L 343.487367 78.691222 
L 341.960128 78.691222 
L 340.432889 78.691222 
L 338.954915 78.691222 
L 337.427676 78.691222 
L 335.949702 78.691222 
L 334.422463 78.65181 
L 332.895223 78.65181 
L 331.41725 78.65181 
L 329.89001 78.65181 
L 328.412037 78.65181 
L 326.884797 78.65181 
L 325.505355 78.65181 
L 323.978116 78.65181 
L 322.450876 78.65181 
L 320.972903 78.65181 
L 319.445663 78.65181 
L 317.96769 78.65181 
L 316.44045 78.65181 
L 314.913211 78.65181 
L 313.435237 78.65181 
L 311.907998 78.65181 
L 310.430024 78.65181 
L 308.902785 78.65181 
L 307.523343 78.65181 
L 305.996103 78.65181 
L 304.468864 78.65181 
L 302.99089 78.65181 
L 301.463651 78.65181 
L 299.985677 78.65181 
L 298.458438 78.65181 
L 296.931198 78.65181 
L 295.453225 78.65181 
L 293.925985 78.65181 
L 292.448012 78.65181 
L 290.920772 79.006523 
L 289.492064 79.045936 
L 287.964825 79.045936 
L 286.437586 79.045936 
L 284.959612 79.203586 
L 283.432373 79.203586 
L 281.954399 79.203586 
L 280.42716 79.203586 
L 278.89992 79.203586 
L 277.421946 79.203586 
L 275.894707 79.203586 
L 274.416733 79.203586 
L 272.889494 79.203586 
L 271.510052 79.203586 
L 269.982813 79.203586 
L 268.455573 79.242999 
L 266.9776 79.242999 
L 265.45036 79.242999 
L 263.972387 79.242999 
L 262.445147 78.967111 
L 260.917908 79.124761 
L 259.439934 79.085348 
L 257.912695 79.085348 
L 256.434721 79.085348 
L 254.907482 79.085348 
L 253.52804 79.085348 
L 252.0008 79.085348 
L 250.473561 79.085348 
L 248.995587 79.124761 
L 247.468348 79.124761 
L 245.990374 79.124761 
L 244.463135 79.085348 
L 242.935895 79.085348 
L 241.457922 79.085348 
L 239.930682 79.085348 
L 238.452709 79.085348 
L 236.925469 79.085348 
L 235.546027 79.085348 
L 234.018788 79.085348 
L 232.491548 79.085348 
L 231.013575 79.085348 
L 229.486335 79.124761 
L 228.008362 79.085348 
L 226.481122 79.124761 
L 224.953883 79.085348 
L 223.475909 79.085348 
L 221.94867 79.085348 
L 220.470696 79.085348 
L 218.943457 79.085348 
L 217.514749 79.085348 
L 215.98751 79.124761 
L 214.46027 79.124761 
L 212.982296 79.085348 
L 211.455057 79.085348 
L 209.977083 79.085348 
L 208.449844 79.164174 
L 205.543163 79.440062 
L 204.311518 80.110077 
L 203.276936 80.188902 
L 202.045292 79.5583 
L 201.059976 81.095393 
L 199.680534 81.095393 
L 196.872384 82.514247 
L 194.162766 82.514247 
L 193.325247 82.474835 
L 191.995071 82.632485 
L 190.615629 82.593073 
L 188.940592 82.593073 
L 187.906011 82.593073 
L 186.871429 82.593073 
L 182.338977 82.908374 
L 181.402927 82.908374 
L 176.57488 83.105437 
L 174.160856 83.066024 
L 173.372603 83.066024 
L 172.387288 83.144849 
L 171.746832 83.144849 
L 171.204909 83.144849 
L 167.953367 83.696626 
L 164.455496 83.814864 
L 162.681927 83.814864 
L 160.957625 83.814864 
L 157.85388 83.814864 
L 157.065628 83.775451 
L 155.784717 83.775451 
L 153.715554 83.657214 
L 150.513278 83.617801 
L 149.330899 84.642529 
L 146.572015 84.760767 
L 145.094041 84.879005 
L 143.369739 84.760767 
L 141.399107 84.760767 
L 139.970399 84.721355 
L 138.886552 84.721355 
L 138.147565 84.721355 
L 137.063718 84.681942 
L 136.029136 84.681942 
L 135.339415 84.721355 
L 135.142352 84.721355 
L 134.403365 84.721355 
L 133.41805 85.154893 
L 132.038608 84.721355 
L 131.54595 84.721355 
L 131.004026 84.760767 
L 130.215774 84.681942 
L 129.476787 84.681942 
L 128.787066 85.076068 
L 127.80175 84.997243 
L 127.456889 84.563704 
L 126.520839 85.115481 
L 125.338461 84.95783 
L 124.451676 84.997243 
L 123.959019 84.997243 
L 123.1215 84.997243 
L 122.579576 85.036656 
L 121.742058 85.54902 
L 121.052337 84.997243 
L 120.214819 84.997243 
L 116.963277 85.982559 
L 116.716948 86.021971 
L 114.746316 85.982559 
L 110.460193 85.076068 
L 108.144701 85.982559 
L 99.178327 86.770811 
L 84.743452 87.20435 
L 65.135668 87.913778 
L 48.237503 88.347317 
L 40.010117 89.372045 
L 31.684199 89.214394 
z
" clip-path="url(#p0a67ce83b5)" style="fill: #d5dce5"/>
   </g>
   <g id="matplotlib.axis_1">
    <g id="xtick_1">
     <g id="line2d_1">
      <defs>
       <path id="m48f6ac6d95" d="M 0 0 
L 0 3.5 
" style="stroke: #000000; stroke-width: 0.8"/>
      </defs>
      <g>
       <use xlink:href="#m48f6ac6d95" x="72.032879" y="278.473844" style="stroke: #000000; stroke-width: 0.8"/>
      </g>
     </g>
     <g id="text_1">
      <!-- 2004 -->
      <g transform="translate(59.307879 293.072281) scale(0.1 -0.1)">
       <defs>
        <path id="DejaVuSans-32" d="M 1228 531 
L 3431 531 
L 3431 0 
L 469 0 
L 469 531 
Q 828 903 1448 1529 
Q 2069 2156 2228 2338 
Q 2531 2678 2651 2914 
Q 2772 3150 2772 3378 
Q 2772 3750 2511 3984 
Q 2250 4219 1831 4219 
Q 1534 4219 1204 4116 
Q 875 4013 500 3803 
L 500 4441 
Q 881 4594 1212 4672 
Q 1544 4750 1819 4750 
Q 2544 4750 2975 4387 
Q 3406 4025 3406 3419 
Q 3406 3131 3298 2873 
Q 3191 2616 2906 2266 
Q 2828 2175 2409 1742 
Q 1991 1309 1228 531 
z
" transform="scale(0.015625)"/>
        <path id="DejaVuSans-30" d="M 2034 4250 
Q 1547 4250 1301 3770 
Q 1056 3291 1056 2328 
Q 1056 1369 1301 889 
Q 1547 409 2034 409 
Q 2525 409 2770 889 
Q 3016 1369 3016 2328 
Q 3016 3291 2770 3770 
Q 2525 4250 2034 4250 
z
M 2034 4750 
Q 2819 4750 3233 4129 
Q 3647 3509 3647 2328 
Q 3647 1150 3233 529 
Q 2819 -91 2034 -91 
Q 1250 -91 836 529 
Q 422 1150 422 2328 
Q 422 3509 836 4129 
Q 1250 4750 2034 4750 
z
" transform="scale(0.015625)"/>
        <path id="DejaVuSans-34" d="M 2419 4116 
L 825 1625 
L 2419 1625 
L 2419 4116 
z
M 2253 4666 
L 3047 4666 
L 3047 1625 
L 3713 1625 
L 3713 1100 
L 3047 1100 
L 3047 0 
L 2419 0 
L 2419 1100 
L 313 1100 
L 313 1709 
L 2253 4666 
z
" transform="scale(0.015625)"/>
       </defs>
       <use xlink:href="#DejaVuSans-32"/>
       <use xlink:href="#DejaVuSans-30" x="63.623047"/>
       <use xlink:href="#DejaVuSans-30" x="127.246094"/>
       <use xlink:href="#DejaVuSans-34" x="190.869141"/>
      </g>
     </g>
    </g>
    <g id="xtick_2">
     <g id="line2d_2">
      <g>
       <use xlink:href="#m48f6ac6d95" x="144.010194" y="278.473844" style="stroke: #000000; stroke-width: 0.8"/>
      </g>
     </g>
     <g id="text_2">
      <!-- 2008 -->
      <g transform="translate(131.285194 293.072281) scale(0.1 -0.1)">
       <defs>
        <path id="DejaVuSans-38" d="M 2034 2216 
Q 1584 2216 1326 1975 
Q 1069 1734 1069 1313 
Q 1069 891 1326 650 
Q 1584 409 2034 409 
Q 2484 409 2743 651 
Q 3003 894 3003 1313 
Q 3003 1734 2745 1975 
Q 2488 2216 2034 2216 
z
M 1403 2484 
Q 997 2584 770 2862 
Q 544 3141 544 3541 
Q 544 4100 942 4425 
Q 1341 4750 2034 4750 
Q 2731 4750 3128 4425 
Q 3525 4100 3525 3541 
Q 3525 3141 3298 2862 
Q 3072 2584 2669 2484 
Q 3125 2378 3379 2068 
Q 3634 1759 3634 1313 
Q 3634 634 3220 271 
Q 2806 -91 2034 -91 
Q 1263 -91 848 271 
Q 434 634 434 1313 
Q 434 1759 690 2068 
Q 947 2378 1403 2484 
z
M 1172 3481 
Q 1172 3119 1398 2916 
Q 1625 2713 2034 2713 
Q 2441 2713 2670 2916 
Q 2900 3119 2900 3481 
Q 2900 3844 2670 4047 
Q 2441 4250 2034 4250 
Q 1625 4250 1398 4047 
Q 1172 3844 1172 3481 
z
" transform="scale(0.015625)"/>
       </defs>
       <use xlink:href="#DejaVuSans-32"/>
       <use xlink:href="#DejaVuSans-30" x="63.623047"/>
       <use xlink:href="#DejaVuSans-30" x="127.246094"/>
       <use xlink:href="#DejaVuSans-38" x="190.869141"/>
      </g>
     </g>
    </g>
    <g id="xtick_3">
     <g id="line2d_3">
      <g>
       <use xlink:href="#m48f6ac6d95" x="215.98751" y="278.473844" style="stroke: #000000; stroke-width: 0.8"/>
      </g>
     </g>
     <g id="text_3">
      <!-- 2012 -->
      <g transform="translate(203.26251 293.072281) scale(0.1 -0.1)">
       <defs>
        <path id="DejaVuSans-31" d="M 794 531 
L 1825 531 
L 1825 4091 
L 703 3866 
L 703 4441 
L 1819 4666 
L 2450 4666 
L 2450 531 
L 3481 531 
L 3481 0 
L 794 0 
L 794 531 
z
" transform="scale(0.015625)"/>
       </defs>
       <use xlink:href="#DejaVuSans-32"/>
       <use xlink:href="#DejaVuSans-30" x="63.623047"/>
       <use xlink:href="#DejaVuSans-31" x="127.246094"/>
       <use xlink:href="#DejaVuSans-32" x="190.869141"/>
      </g>
     </g>
    </g>
    <g id="xtick_4">
     <g id="line2d_4">
      <g>
       <use xlink:href="#m48f6ac6d95" x="287.964825" y="278.473844" style="stroke: #000000; stroke-width: 0.8"/>
      </g>
     </g>
     <g id="text_4">
      <!-- 2016 -->
      <g transform="translate(275.239825 293.072281) scale(0.1 -0.1)">
       <defs>
        <path id="DejaVuSans-36" d="M 2113 2584 
Q 1688 2584 1439 2293 
Q 1191 2003 1191 1497 
Q 1191 994 1439 701 
Q 1688 409 2113 409 
Q 2538 409 2786 701 
Q 3034 994 3034 1497 
Q 3034 2003 2786 2293 
Q 2538 2584 2113 2584 
z
M 3366 4563 
L 3366 3988 
Q 3128 4100 2886 4159 
Q 2644 4219 2406 4219 
Q 1781 4219 1451 3797 
Q 1122 3375 1075 2522 
Q 1259 2794 1537 2939 
Q 1816 3084 2150 3084 
Q 2853 3084 3261 2657 
Q 3669 2231 3669 1497 
Q 3669 778 3244 343 
Q 2819 -91 2113 -91 
Q 1303 -91 875 529 
Q 447 1150 447 2328 
Q 447 3434 972 4092 
Q 1497 4750 2381 4750 
Q 2619 4750 2861 4703 
Q 3103 4656 3366 4563 
z
" transform="scale(0.015625)"/>
       </defs>
       <use xlink:href="#DejaVuSans-32"/>
       <use xlink:href="#DejaVuSans-30" x="63.623047"/>
       <use xlink:href="#DejaVuSans-31" x="127.246094"/>
       <use xlink:href="#DejaVuSans-36" x="190.869141"/>
      </g>
     </g>
    </g>
    <g id="xtick_5">
     <g id="line2d_5">
      <g>
       <use xlink:href="#m48f6ac6d95" x="359.942141" y="278.473844" style="stroke: #000000; stroke-width: 0.8"/>
      </g>
     </g>
     <g id="text_5">
      <!-- 2020 -->
      <g transform="translate(347.217141 293.072281) scale(0.1 -0.1)">
       <use xlink:href="#DejaVuSans-32"/>
       <use xlink:href="#DejaVuSans-30" x="63.623047"/>
       <use xlink:href="#DejaVuSans-32" x="127.246094"/>
       <use xlink:href="#DejaVuSans-30" x="190.869141"/>
      </g>
     </g>
    </g>
    <g id="xtick_6">
     <g id="line2d_6">
      <g>
       <use xlink:href="#m48f6ac6d95" x="431.919456" y="278.473844" style="stroke: #000000; stroke-width: 0.8"/>
      </g>
     </g>
     <g id="text_6">
      <!-- 2024 -->
      <g transform="translate(419.194456 293.072281) scale(0.1 -0.1)">
       <use xlink:href="#DejaVuSans-32"/>
       <use xlink:href="#DejaVuSans-30" x="63.623047"/>
       <use xlink:href="#DejaVuSans-32" x="127.246094"/>
       <use xlink:href="#DejaVuSans-34" x="190.869141"/>
      </g>
     </g>
    </g>
    <g id="text_7">
     <!-- Year -->
     <g transform="translate(239.86375 310.549625) scale(0.15 -0.15)">
      <defs>
       <path id="DejaVuSans-59" d="M -13 4666 
L 666 4666 
L 1959 2747 
L 3244 4666 
L 3922 4666 
L 2272 2222 
L 2272 0 
L 1638 0 
L 1638 2222 
L -13 4666 
z
" transform="scale(0.015625)"/>
       <path id="DejaVuSans-65" d="M 3597 1894 
L 3597 1613 
L 953 1613 
Q 991 1019 1311 708 
Q 1631 397 2203 397 
Q 2534 397 2845 478 
Q 3156 559 3463 722 
L 3463 178 
Q 3153 47 2828 -22 
Q 2503 -91 2169 -91 
Q 1331 -91 842 396 
Q 353 884 353 1716 
Q 353 2575 817 3079 
Q 1281 3584 2069 3584 
Q 2775 3584 3186 3129 
Q 3597 2675 3597 1894 
z
M 3022 2063 
Q 3016 2534 2758 2815 
Q 2500 3097 2075 3097 
Q 1594 3097 1305 2825 
Q 1016 2553 972 2059 
L 3022 2063 
z
" transform="scale(0.015625)"/>
       <path id="DejaVuSans-61" d="M 2194 1759 
Q 1497 1759 1228 1600 
Q 959 1441 959 1056 
Q 959 750 1161 570 
Q 1363 391 1709 391 
Q 2188 391 2477 730 
Q 2766 1069 2766 1631 
L 2766 1759 
L 2194 1759 
z
M 3341 1997 
L 3341 0 
L 2766 0 
L 2766 531 
Q 2569 213 2275 61 
Q 1981 -91 1556 -91 
Q 1019 -91 701 211 
Q 384 513 384 1019 
Q 384 1609 779 1909 
Q 1175 2209 1959 2209 
L 2766 2209 
L 2766 2266 
Q 2766 2663 2505 2880 
Q 2244 3097 1772 3097 
Q 1472 3097 1187 3025 
Q 903 2953 641 2809 
L 641 3341 
Q 956 3463 1253 3523 
Q 1550 3584 1831 3584 
Q 2591 3584 2966 3190 
Q 3341 2797 3341 1997 
z
" transform="scale(0.015625)"/>
       <path id="DejaVuSans-72" d="M 2631 2963 
Q 2534 3019 2420 3045 
Q 2306 3072 2169 3072 
Q 1681 3072 1420 2755 
Q 1159 2438 1159 1844 
L 1159 0 
L 581 0 
L 581 3500 
L 1159 3500 
L 1159 2956 
Q 1341 3275 1631 3429 
Q 1922 3584 2338 3584 
Q 2397 3584 2469 3576 
Q 2541 3569 2628 3553 
L 2631 2963 
z
" transform="scale(0.015625)"/>
      </defs>
      <use xlink:href="#DejaVuSans-59"/>
      <use xlink:href="#DejaVuSans-65" x="47.833984"/>
      <use xlink:href="#DejaVuSans-61" x="109.357422"/>
      <use xlink:href="#DejaVuSans-72" x="170.636719"/>
     </g>
    </g>
   </g>
   <g id="matplotlib.axis_2">
    <g id="ytick_1">
     <g id="line2d_7">
      <defs>
       <path id="m6cfe99d0d1" d="M 0 0 
L -3.5 0 
" style="stroke: #000000; stroke-width: 0.8"/>
      </defs>
      <g>
       <use xlink:href="#m6cfe99d0d1" x="61.49" y="278.473844" style="stroke: #000000; stroke-width: 0.8"/>
      </g>
     </g>
     <g id="text_8">
      <!-- 0 -->
      <g transform="translate(48.1275 282.273062) scale(0.1 -0.1)">
       <use xlink:href="#DejaVuSans-30"/>
      </g>
     </g>
    </g>
    <g id="ytick_2">
     <g id="line2d_8">
      <g>
       <use xlink:href="#m6cfe99d0d1" x="61.49" y="239.061214" style="stroke: #000000; stroke-width: 0.8"/>
      </g>
     </g>
     <g id="text_9">
      <!-- 1000 -->
      <g transform="translate(29.04 242.860432) scale(0.1 -0.1)">
       <use xlink:href="#DejaVuSans-31"/>
       <use xlink:href="#DejaVuSans-30" x="63.623047"/>
       <use xlink:href="#DejaVuSans-30" x="127.246094"/>
       <use xlink:href="#DejaVuSans-30" x="190.869141"/>
      </g>
     </g>
    </g>
    <g id="ytick_3">
     <g id="line2d_9">
      <g>
       <use xlink:href="#m6cfe99d0d1" x="61.49" y="199.648584" style="stroke: #000000; stroke-width: 0.8"/>
      </g>
     </g>
     <g id="text_10">
      <!-- 2000 -->
      <g transform="translate(29.04 203.447802) scale(0.1 -0.1)">
       <use xlink:href="#DejaVuSans-32"/>
       <use xlink:href="#DejaVuSans-30" x="63.623047"/>
       <use xlink:href="#DejaVuSans-30" x="127.246094"/>
       <use xlink:href="#DejaVuSans-30" x="190.869141"/>
      </g>
     </g>
    </g>
    <g id="ytick_4">
     <g id="line2d_10">
      <g>
       <use xlink:href="#m6cfe99d0d1" x="61.49" y="160.235954" style="stroke: #000000; stroke-width: 0.8"/>
      </g>
     </g>
     <g id="text_11">
      <!-- 3000 -->
      <g transform="translate(29.04 164.035172) scale(0.1 -0.1)">
       <defs>
        <path id="DejaVuSans-33" d="M 2597 2516 
Q 3050 2419 3304 2112 
Q 3559 1806 3559 1356 
Q 3559 666 3084 287 
Q 2609 -91 1734 -91 
Q 1441 -91 1130 -33 
Q 819 25 488 141 
L 488 750 
Q 750 597 1062 519 
Q 1375 441 1716 441 
Q 2309 441 2620 675 
Q 2931 909 2931 1356 
Q 2931 1769 2642 2001 
Q 2353 2234 1838 2234 
L 1294 2234 
L 1294 2753 
L 1863 2753 
Q 2328 2753 2575 2939 
Q 2822 3125 2822 3475 
Q 2822 3834 2567 4026 
Q 2313 4219 1838 4219 
Q 1578 4219 1281 4162 
Q 984 4106 628 3988 
L 628 4550 
Q 988 4650 1302 4700 
Q 1616 4750 1894 4750 
Q 2613 4750 3031 4423 
Q 3450 4097 3450 3541 
Q 3450 3153 3228 2886 
Q 3006 2619 2597 2516 
z
" transform="scale(0.015625)"/>
       </defs>
       <use xlink:href="#DejaVuSans-33"/>
       <use xlink:href="#DejaVuSans-30" x="63.623047"/>
       <use xlink:href="#DejaVuSans-30" x="127.246094"/>
       <use xlink:href="#DejaVuSans-30" x="190.869141"/>
      </g>
     </g>
    </g>
    <g id="ytick_5">
     <g id="line2d_11">
      <g>
       <use xlink:href="#m6cfe99d0d1" x="61.49" y="120.823324" style="stroke: #000000; stroke-width: 0.8"/>
      </g>
     </g>
     <g id="text_12">
      <!-- 4000 -->
      <g transform="translate(29.04 124.622542) scale(0.1 -0.1)">
       <use xlink:href="#DejaVuSans-34"/>
       <use xlink:href="#DejaVuSans-30" x="63.623047"/>
       <use xlink:href="#DejaVuSans-30" x="127.246094"/>
       <use xlink:href="#DejaVuSans-30" x="190.869141"/>
      </g>
     </g>
    </g>
    <g id="ytick_6">
     <g id="line2d_12">
      <g>
       <use xlink:href="#m6cfe99d0d1" x="61.49" y="81.410694" style="stroke: #000000; stroke-width: 0.8"/>
      </g>
     </g>
     <g id="text_13">
      <!-- 5000 -->
      <g transform="translate(29.04 85.209912) scale(0.1 -0.1)">
       <defs>
        <path id="DejaVuSans-35" d="M 691 4666 
L 3169 4666 
L 3169 4134 
L 1269 4134 
L 1269 2991 
Q 1406 3038 1543 3061 
Q 1681 3084 1819 3084 
Q 2600 3084 3056 2656 
Q 3513 2228 3513 1497 
Q 3513 744 3044 326 
Q 2575 -91 1722 -91 
Q 1428 -91 1123 -41 
Q 819 9 494 109 
L 494 744 
Q 775 591 1075 516 
Q 1375 441 1709 441 
Q 2250 441 2565 725 
Q 2881 1009 2881 1497 
Q 2881 1984 2565 2268 
Q 2250 2553 1709 2553 
Q 1456 2553 1204 2497 
Q 953 2441 691 2322 
L 691 4666 
z
" transform="scale(0.015625)"/>
       </defs>
       <use xlink:href="#DejaVuSans-35"/>
       <use xlink:href="#DejaVuSans-30" x="63.623047"/>
       <use xlink:href="#DejaVuSans-30" x="127.246094"/>
       <use xlink:href="#DejaVuSans-30" x="190.869141"/>
      </g>
     </g>
    </g>
    <g id="text_14">
     <!-- Number of proteins -->
     <g transform="translate(21.920469 246.256338) rotate(-90) scale(0.15 -0.15)">
      <defs>
       <path id="DejaVuSans-4e" d="M 628 4666 
L 1478 4666 
L 3547 763 
L 3547 4666 
L 4159 4666 
L 4159 0 
L 3309 0 
L 1241 3903 
L 1241 0 
L 628 0 
L 628 4666 
z
" transform="scale(0.015625)"/>
       <path id="DejaVuSans-75" d="M 544 1381 
L 544 3500 
L 1119 3500 
L 1119 1403 
Q 1119 906 1312 657 
Q 1506 409 1894 409 
Q 2359 409 2629 706 
Q 2900 1003 2900 1516 
L 2900 3500 
L 3475 3500 
L 3475 0 
L 2900 0 
L 2900 538 
Q 2691 219 2414 64 
Q 2138 -91 1772 -91 
Q 1169 -91 856 284 
Q 544 659 544 1381 
z
M 1991 3584 
L 1991 3584 
z
" transform="scale(0.015625)"/>
       <path id="DejaVuSans-6d" d="M 3328 2828 
Q 3544 3216 3844 3400 
Q 4144 3584 4550 3584 
Q 5097 3584 5394 3201 
Q 5691 2819 5691 2113 
L 5691 0 
L 5113 0 
L 5113 2094 
Q 5113 2597 4934 2840 
Q 4756 3084 4391 3084 
Q 3944 3084 3684 2787 
Q 3425 2491 3425 1978 
L 3425 0 
L 2847 0 
L 2847 2094 
Q 2847 2600 2669 2842 
Q 2491 3084 2119 3084 
Q 1678 3084 1418 2786 
Q 1159 2488 1159 1978 
L 1159 0 
L 581 0 
L 581 3500 
L 1159 3500 
L 1159 2956 
Q 1356 3278 1631 3431 
Q 1906 3584 2284 3584 
Q 2666 3584 2933 3390 
Q 3200 3197 3328 2828 
z
" transform="scale(0.015625)"/>
       <path id="DejaVuSans-62" d="M 3116 1747 
Q 3116 2381 2855 2742 
Q 2594 3103 2138 3103 
Q 1681 3103 1420 2742 
Q 1159 2381 1159 1747 
Q 1159 1113 1420 752 
Q 1681 391 2138 391 
Q 2594 391 2855 752 
Q 3116 1113 3116 1747 
z
M 1159 2969 
Q 1341 3281 1617 3432 
Q 1894 3584 2278 3584 
Q 2916 3584 3314 3078 
Q 3713 2572 3713 1747 
Q 3713 922 3314 415 
Q 2916 -91 2278 -91 
Q 1894 -91 1617 61 
Q 1341 213 1159 525 
L 1159 0 
L 581 0 
L 581 4863 
L 1159 4863 
L 1159 2969 
z
" transform="scale(0.015625)"/>
       <path id="DejaVuSans-20" transform="scale(0.015625)"/>
       <path id="DejaVuSans-6f" d="M 1959 3097 
Q 1497 3097 1228 2736 
Q 959 2375 959 1747 
Q 959 1119 1226 758 
Q 1494 397 1959 397 
Q 2419 397 2687 759 
Q 2956 1122 2956 1747 
Q 2956 2369 2687 2733 
Q 2419 3097 1959 3097 
z
M 1959 3584 
Q 2709 3584 3137 3096 
Q 3566 2609 3566 1747 
Q 3566 888 3137 398 
Q 2709 -91 1959 -91 
Q 1206 -91 779 398 
Q 353 888 353 1747 
Q 353 2609 779 3096 
Q 1206 3584 1959 3584 
z
" transform="scale(0.015625)"/>
       <path id="DejaVuSans-66" d="M 2375 4863 
L 2375 4384 
L 1825 4384 
Q 1516 4384 1395 4259 
Q 1275 4134 1275 3809 
L 1275 3500 
L 2222 3500 
L 2222 3053 
L 1275 3053 
L 1275 0 
L 697 0 
L 697 3053 
L 147 3053 
L 147 3500 
L 697 3500 
L 697 3744 
Q 697 4328 969 4595 
Q 1241 4863 1831 4863 
L 2375 4863 
z
" transform="scale(0.015625)"/>
       <path id="DejaVuSans-70" d="M 1159 525 
L 1159 -1331 
L 581 -1331 
L 581 3500 
L 1159 3500 
L 1159 2969 
Q 1341 3281 1617 3432 
Q 1894 3584 2278 3584 
Q 2916 3584 3314 3078 
Q 3713 2572 3713 1747 
Q 3713 922 3314 415 
Q 2916 -91 2278 -91 
Q 1894 -91 1617 61 
Q 1341 213 1159 525 
z
M 3116 1747 
Q 3116 2381 2855 2742 
Q 2594 3103 2138 3103 
Q 1681 3103 1420 2742 
Q 1159 2381 1159 1747 
Q 1159 1113 1420 752 
Q 1681 391 2138 391 
Q 2594 391 2855 752 
Q 3116 1113 3116 1747 
z
" transform="scale(0.015625)"/>
       <path id="DejaVuSans-74" d="M 1172 4494 
L 1172 3500 
L 2356 3500 
L 2356 3053 
L 1172 3053 
L 1172 1153 
Q 1172 725 1289 603 
Q 1406 481 1766 481 
L 2356 481 
L 2356 0 
L 1766 0 
Q 1100 0 847 248 
Q 594 497 594 1153 
L 594 3053 
L 172 3053 
L 172 3500 
L 594 3500 
L 594 4494 
L 1172 4494 
z
" transform="scale(0.015625)"/>
       <path id="DejaVuSans-69" d="M 603 3500 
L 1178 3500 
L 1178 0 
L 603 0 
L 603 3500 
z
M 603 4863 
L 1178 4863 
L 1178 4134 
L 603 4134 
L 603 4863 
z
" transform="scale(0.015625)"/>
       <path id="DejaVuSans-6e" d="M 3513 2113 
L 3513 0 
L 2938 0 
L 2938 2094 
Q 2938 2591 2744 2837 
Q 2550 3084 2163 3084 
Q 1697 3084 1428 2787 
Q 1159 2491 1159 1978 
L 1159 0 
L 581 0 
L 581 3500 
L 1159 3500 
L 1159 2956 
Q 1366 3272 1645 3428 
Q 1925 3584 2291 3584 
Q 2894 3584 3203 3211 
Q 3513 2838 3513 2113 
z
" transform="scale(0.015625)"/>
       <path id="DejaVuSans-73" d="M 2834 3397 
L 2834 2853 
Q 2591 2978 2328 3040 
Q 2066 3103 1784 3103 
Q 1356 3103 1142 2972 
Q 928 2841 928 2578 
Q 928 2378 1081 2264 
Q 1234 2150 1697 2047 
L 1894 2003 
Q 2506 1872 2764 1633 
Q 3022 1394 3022 966 
Q 3022 478 2636 193 
Q 2250 -91 1575 -91 
Q 1294 -91 989 -36 
Q 684 19 347 128 
L 347 722 
Q 666 556 975 473 
Q 1284 391 1588 391 
Q 1994 391 2212 530 
Q 2431 669 2431 922 
Q 2431 1156 2273 1281 
Q 2116 1406 1581 1522 
L 1381 1569 
Q 847 1681 609 1914 
Q 372 2147 372 2553 
Q 372 3047 722 3315 
Q 1072 3584 1716 3584 
Q 2034 3584 2315 3537 
Q 2597 3491 2834 3397 
z
" transform="scale(0.015625)"/>
      </defs>
      <use xlink:href="#DejaVuSans-4e"/>
      <use xlink:href="#DejaVuSans-75" x="74.804688"/>
      <use xlink:href="#DejaVuSans-6d" x="138.183594"/>
      <use xlink:href="#DejaVuSans-62" x="235.595703"/>
      <use xlink:href="#DejaVuSans-65" x="299.072266"/>
      <use xlink:href="#DejaVuSans-72" x="360.595703"/>
      <use xlink:href="#DejaVuSans-20" x="401.708984"/>
      <use xlink:href="#DejaVuSans-6f" x="433.496094"/>
      <use xlink:href="#DejaVuSans-66" x="494.677734"/>
      <use xlink:href="#DejaVuSans-20" x="529.882812"/>
      <use xlink:href="#DejaVuSans-70" x="561.669922"/>
      <use xlink:href="#DejaVuSans-72" x="625.146484"/>
      <use xlink:href="#DejaVuSans-6f" x="664.009766"/>
      <use xlink:href="#DejaVuSans-74" x="725.191406"/>
      <use xlink:href="#DejaVuSans-65" x="764.400391"/>
      <use xlink:href="#DejaVuSans-69" x="825.923828"/>
      <use xlink:href="#DejaVuSans-6e" x="853.707031"/>
      <use xlink:href="#DejaVuSans-73" x="917.085938"/>
     </g>
    </g>
   </g>
   <g id="patch_3">
    <path d="M 61.49 278.473844 
L 61.49 68.660708 
" style="fill: none; stroke: #000000; stroke-width: 0.8; stroke-linejoin: miter; stroke-linecap: square"/>
   </g>
   <g id="patch_4">
    <path d="M 61.49 278.473844 
L 450 278.473844 
" style="fill: none; stroke: #000000; stroke-width: 0.8; stroke-linejoin: miter; stroke-linecap: square"/>
   </g>
   <g id="legend_1">
    <g id="patch_5">
     <path d="M 128.755156 63.660708 
L 382.734844 63.660708 
Q 384.734844 63.660708 384.734844 61.660708 
L 384.734844 33.304458 
Q 384.734844 31.304458 382.734844 31.304458 
L 128.755156 31.304458 
Q 126.755156 31.304458 126.755156 33.304458 
L 126.755156 61.660708 
Q 126.755156 63.660708 128.755156 63.660708 
z
" style="fill: #ffffff; opacity: 0.8; stroke: #cccccc; stroke-linejoin: miter"/>
    </g>
    <g id="patch_6">
     <path d="M 130.755156 42.902895 
L 150.755156 42.902895 
L 150.755156 35.902895 
L 130.755156 35.902895 
z
" style="fill: #fb363b"/>
    </g>
    <g id="text_15">
     <!-- Published -->
     <g transform="translate(158.755156 42.902895) scale(0.1 -0.1)">
      <defs>
       <path id="DejaVuSans-50" d="M 1259 4147 
L 1259 2394 
L 2053 2394 
Q 2494 2394 2734 2622 
Q 2975 2850 2975 3272 
Q 2975 3691 2734 3919 
Q 2494 4147 2053 4147 
L 1259 4147 
z
M 628 4666 
L 2053 4666 
Q 2838 4666 3239 4311 
Q 3641 3956 3641 3272 
Q 3641 2581 3239 2228 
Q 2838 1875 2053 1875 
L 1259 1875 
L 1259 0 
L 628 0 
L 628 4666 
z
" transform="scale(0.015625)"/>
       <path id="DejaVuSans-6c" d="M 603 4863 
L 1178 4863 
L 1178 0 
L 603 0 
L 603 4863 
z
" transform="scale(0.015625)"/>
       <path id="DejaVuSans-68" d="M 3513 2113 
L 3513 0 
L 2938 0 
L 2938 2094 
Q 2938 2591 2744 2837 
Q 2550 3084 2163 3084 
Q 1697 3084 1428 2787 
Q 1159 2491 1159 1978 
L 1159 0 
L 581 0 
L 581 4863 
L 1159 4863 
L 1159 2956 
Q 1366 3272 1645 3428 
Q 1925 3584 2291 3584 
Q 2894 3584 3203 3211 
Q 3513 2838 3513 2113 
z
" transform="scale(0.015625)"/>
       <path id="DejaVuSans-64" d="M 2906 2969 
L 2906 4863 
L 3481 4863 
L 3481 0 
L 2906 0 
L 2906 525 
Q 2725 213 2448 61 
Q 2172 -91 1784 -91 
Q 1150 -91 751 415 
Q 353 922 353 1747 
Q 353 2572 751 3078 
Q 1150 3584 1784 3584 
Q 2172 3584 2448 3432 
Q 2725 3281 2906 2969 
z
M 947 1747 
Q 947 1113 1208 752 
Q 1469 391 1925 391 
Q 2381 391 2643 752 
Q 2906 1113 2906 1747 
Q 2906 2381 2643 2742 
Q 2381 3103 1925 3103 
Q 1469 3103 1208 2742 
Q 947 2381 947 1747 
z
" transform="scale(0.015625)"/>
      </defs>
      <use xlink:href="#DejaVuSans-50"/>
      <use xlink:href="#DejaVuSans-75" x="58.552734"/>
      <use xlink:href="#DejaVuSans-62" x="121.931641"/>
      <use xlink:href="#DejaVuSans-6c" x="185.408203"/>
      <use xlink:href="#DejaVuSans-69" x="213.191406"/>
      <use xlink:href="#DejaVuSans-73" x="240.974609"/>
      <use xlink:href="#DejaVuSans-68" x="293.074219"/>
      <use xlink:href="#DejaVuSans-65" x="356.453125"/>
      <use xlink:href="#DejaVuSans-64" x="417.976562"/>
     </g>
    </g>
    <g id="patch_7">
     <path d="M 130.755156 57.58102 
L 150.755156 57.58102 
L 150.755156 50.58102 
L 130.755156 50.58102 
z
" style="fill: #fdc92c"/>
    </g>
    <g id="text_16">
     <!-- Inferred role -->
     <g transform="translate(158.755156 57.58102) scale(0.1 -0.1)">
      <defs>
       <path id="DejaVuSans-49" d="M 628 4666 
L 1259 4666 
L 1259 0 
L 628 0 
L 628 4666 
z
" transform="scale(0.015625)"/>
      </defs>
      <use xlink:href="#DejaVuSans-49"/>
      <use xlink:href="#DejaVuSans-6e" x="29.492188"/>
      <use xlink:href="#DejaVuSans-66" x="92.871094"/>
      <use xlink:href="#DejaVuSans-65" x="128.076172"/>
      <use xlink:href="#DejaVuSans-72" x="189.599609"/>
      <use xlink:href="#DejaVuSans-72" x="228.962891"/>
      <use xlink:href="#DejaVuSans-65" x="267.826172"/>
      <use xlink:href="#DejaVuSans-64" x="329.349609"/>
      <use xlink:href="#DejaVuSans-20" x="392.826172"/>
      <use xlink:href="#DejaVuSans-72" x="424.613281"/>
      <use xlink:href="#DejaVuSans-6f" x="463.476562"/>
      <use xlink:href="#DejaVuSans-6c" x="524.658203"/>
      <use xlink:href="#DejaVuSans-65" x="552.441406"/>
     </g>
    </g>
    <g id="patch_8">
     <path d="M 240.153594 42.902895 
L 260.153594 42.902895 
L 260.153594 35.902895 
L 240.153594 35.902895 
z
" style="fill: #aeaeae"/>
    </g>
    <g id="text_17">
     <!-- Conserved unknown -->
     <g transform="translate(268.153594 42.902895) scale(0.1 -0.1)">
      <defs>
       <path id="DejaVuSans-43" d="M 4122 4306 
L 4122 3641 
Q 3803 3938 3442 4084 
Q 3081 4231 2675 4231 
Q 1875 4231 1450 3742 
Q 1025 3253 1025 2328 
Q 1025 1406 1450 917 
Q 1875 428 2675 428 
Q 3081 428 3442 575 
Q 3803 722 4122 1019 
L 4122 359 
Q 3791 134 3420 21 
Q 3050 -91 2638 -91 
Q 1578 -91 968 557 
Q 359 1206 359 2328 
Q 359 3453 968 4101 
Q 1578 4750 2638 4750 
Q 3056 4750 3426 4639 
Q 3797 4528 4122 4306 
z
" transform="scale(0.015625)"/>
       <path id="DejaVuSans-76" d="M 191 3500 
L 800 3500 
L 1894 563 
L 2988 3500 
L 3597 3500 
L 2284 0 
L 1503 0 
L 191 3500 
z
" transform="scale(0.015625)"/>
       <path id="DejaVuSans-6b" d="M 581 4863 
L 1159 4863 
L 1159 1991 
L 2875 3500 
L 3609 3500 
L 1753 1863 
L 3688 0 
L 2938 0 
L 1159 1709 
L 1159 0 
L 581 0 
L 581 4863 
z
" transform="scale(0.015625)"/>
       <path id="DejaVuSans-77" d="M 269 3500 
L 844 3500 
L 1563 769 
L 2278 3500 
L 2956 3500 
L 3675 769 
L 4391 3500 
L 4966 3500 
L 4050 0 
L 3372 0 
L 2619 2869 
L 1863 0 
L 1184 0 
L 269 3500 
z
" transform="scale(0.015625)"/>
      </defs>
      <use xlink:href="#DejaVuSans-43"/>
      <use xlink:href="#DejaVuSans-6f" x="69.824219"/>
      <use xlink:href="#DejaVuSans-6e" x="131.005859"/>
      <use xlink:href="#DejaVuSans-73" x="194.384766"/>
      <use xlink:href="#DejaVuSans-65" x="246.484375"/>
      <use xlink:href="#DejaVuSans-72" x="308.007812"/>
      <use xlink:href="#DejaVuSans-76" x="349.121094"/>
      <use xlink:href="#DejaVuSans-65" x="408.300781"/>
      <use xlink:href="#DejaVuSans-64" x="469.824219"/>
      <use xlink:href="#DejaVuSans-20" x="533.300781"/>
      <use xlink:href="#DejaVuSans-75" x="565.087891"/>
      <use xlink:href="#DejaVuSans-6e" x="628.466797"/>
      <use xlink:href="#DejaVuSans-6b" x="691.845703"/>
      <use xlink:href="#DejaVuSans-6e" x="749.755859"/>
      <use xlink:href="#DejaVuSans-6f" x="813.134766"/>
      <use xlink:href="#DejaVuSans-77" x="874.316406"/>
      <use xlink:href="#DejaVuSans-6e" x="956.103516"/>
     </g>
    </g>
    <g id="patch_9">
     <path d="M 240.153594 57.58102 
L 260.153594 57.58102 
L 260.153594 50.58102 
L 240.153594 50.58102 
z
" style="fill: #d5dce5"/>
    </g>
    <g id="text_18">
     <!-- Fission yeast unknown -->
     <g transform="translate(268.153594 57.58102) scale(0.1 -0.1)">
      <defs>
       <path id="DejaVuSans-46" d="M 628 4666 
L 3309 4666 
L 3309 4134 
L 1259 4134 
L 1259 2759 
L 3109 2759 
L 3109 2228 
L 1259 2228 
L 1259 0 
L 628 0 
L 628 4666 
z
" transform="scale(0.015625)"/>
       <path id="DejaVuSans-79" d="M 2059 -325 
Q 1816 -950 1584 -1140 
Q 1353 -1331 966 -1331 
L 506 -1331 
L 506 -850 
L 844 -850 
Q 1081 -850 1212 -737 
Q 1344 -625 1503 -206 
L 1606 56 
L 191 3500 
L 800 3500 
L 1894 763 
L 2988 3500 
L 3597 3500 
L 2059 -325 
z
" transform="scale(0.015625)"/>
      </defs>
      <use xlink:href="#DejaVuSans-46"/>
      <use xlink:href="#DejaVuSans-69" x="50.269531"/>
      <use xlink:href="#DejaVuSans-73" x="78.052734"/>
      <use xlink:href="#DejaVuSans-73" x="130.152344"/>
      <use xlink:href="#DejaVuSans-69" x="182.251953"/>
      <use xlink:href="#DejaVuSans-6f" x="210.035156"/>
      <use xlink:href="#DejaVuSans-6e" x="271.216797"/>
      <use xlink:href="#DejaVuSans-20" x="334.595703"/>
      <use xlink:href="#DejaVuSans-79" x="366.382812"/>
      <use xlink:href="#DejaVuSans-65" x="425.5625"/>
      <use xlink:href="#DejaVuSans-61" x="487.085938"/>
      <use xlink:href="#DejaVuSans-73" x="548.365234"/>
      <use xlink:href="#DejaVuSans-74" x="600.464844"/>
      <use xlink:href="#DejaVuSans-20" x="639.673828"/>
      <use xlink:href="#DejaVuSans-75" x="671.460938"/>
      <use xlink:href="#DejaVuSans-6e" x="734.839844"/>
      <use xlink:href="#DejaVuSans-6b" x="798.21875"/>
      <use xlink:href="#DejaVuSans-6e" x="856.128906"/>
      <use xlink:href="#DejaVuSans-6f" x="919.507812"/>
      <use xlink:href="#DejaVuSans-77" x="980.689453"/>
      <use xlink:href="#DejaVuSans-6e" x="1062.476562"/>
     </g>
    </g>
   </g>
  </g>
 </g>
 <defs>
  <clipPath id="p0a67ce83b5">
   <rect x="61.49" y="68.660708" width="388.51" height="209.813136"/>
  </clipPath>
 </defs>
</svg>
