<?xml version="1.0" encoding="utf-8" standalone="no"?>
<!DOCTYPE svg PUBLIC "-//W3C//DTD SVG 1.1//EN"
  "http://www.w3.org/Graphics/SVG/1.1/DTD/svg11.dtd">
<svg xmlns:xlink="http://www.w3.org/1999/xlink" width="460.8pt" height="345.6pt" viewBox="0 0 460.8 345.6" xmlns="http://www.w3.org/2000/svg" version="1.1">
 <metadata>
  <rdf:RDF xmlns:dc="http://purl.org/dc/elements/1.1/" xmlns:cc="http://creativecommons.org/ns#" xmlns:rdf="http://www.w3.org/1999/02/22-rdf-syntax-ns#">
   <cc:Work>
    <dc:type rdf:resource="http://purl.org/dc/dcmitype/StillImage"/>
    <dc:date>2024-03-02T00:43:41.531556</dc:date>
    <dc:format>image/svg+xml</dc:format>
    <dc:creator>
     <cc:Agent>
      <dc:title>Matplotlib v3.7.1, https://matplotlib.org/</dc:title>
     </cc:Agent>
    </dc:creator>
   </cc:Work>
  </rdf:RDF>
 </metadata>
 <defs>
  <style type="text/css">*{stroke-linejoin: round; stroke-linecap: butt}</style>
 </defs>
 <g id="figure_1">
  <g id="patch_1">
   <path d="M 0 345.6 
L 460.8 345.6 
L 460.8 0 
L 0 0 
z
" style="fill: #ffffff"/>
  </g>
  <g id="axes_1">
   <g id="patch_2">
    <path d="M 61.49 280.549298 
L 440.273921 280.549298 
L 440.273921 67.730702 
L 61.49 67.730702 
z
" style="fill: #ffffff"/>
   </g>
   <g id="PolyCollection_1">
    <path d="M 31.257246 226.540108 
L 31.257246 280.549298 
L 39.702429 280.549298 
L 48.047668 280.549298 
L 65.187891 280.549298 
L 85.076545 280.549298 
L 99.718193 280.549298 
L 108.813004 280.549298 
L 111.161665 280.549298 
L 115.509184 280.549298 
L 117.508044 280.549298 
L 117.757902 280.549298 
L 121.05602 280.549298 
L 121.905536 280.549298 
L 122.605137 280.549298 
L 123.454652 280.549298 
L 124.004338 280.549298 
L 124.853854 280.549298 
L 125.353569 280.549298 
L 126.253056 280.549298 
L 127.452371 280.549298 
L 128.40183 280.549298 
L 128.75163 280.549298 
L 129.75106 280.549298 
L 130.450661 280.549298 
L 131.200233 280.549298 
L 131.999777 280.549298 
L 132.549464 280.549298 
L 133.049179 280.549298 
L 134.448381 280.549298 
L 135.44781 280.549298 
L 136.197383 280.549298 
L 136.397269 280.549298 
L 137.09687 280.549298 
L 138.146271 280.549298 
L 139.245644 280.549298 
L 139.995216 280.549298 
L 141.094589 280.549298 
L 142.543762 280.549298 
L 144.542622 280.549298 
L 146.291624 280.549298 
L 147.790769 280.549298 
L 150.589173 280.549298 
L 151.788489 280.549298 
L 155.036636 280.549298 
L 157.135439 280.549298 
L 158.434697 280.549298 
L 159.234241 280.549298 
L 162.382445 280.549298 
L 164.131448 280.549298 
L 165.930421 280.549298 
L 169.478397 280.549298 
L 172.776516 280.549298 
L 173.326202 280.549298 
L 173.975832 280.549298 
L 174.975262 280.549298 
L 175.774806 280.549298 
L 178.223409 280.549298 
L 183.120615 280.549298 
L 184.070074 280.549298 
L 188.667451 280.549298 
L 189.716852 280.549298 
L 190.766254 280.549298 
L 192.465285 280.549298 
L 193.864486 280.549298 
L 195.213717 280.549298 
L 196.063232 280.549298 
L 198.811664 280.549298 
L 201.660039 280.549298 
L 203.059241 280.549298 
L 204.058671 280.549298 
L 205.307958 280.549298 
L 206.35736 280.549298 
L 207.606647 280.549298 
L 210.554965 280.549298 
L 212.104081 280.549298 
L 213.603226 280.549298 
L 215.152343 280.549298 
L 216.651487 280.549298 
L 218.200604 280.549298 
L 219.74972 280.549298 
L 221.198893 280.549298 
L 222.74801 280.549298 
L 224.247154 280.549298 
L 225.796271 280.549298 
L 227.295415 280.549298 
L 228.844532 280.549298 
L 230.393648 280.549298 
L 231.892793 280.549298 
L 233.441909 280.549298 
L 234.941054 280.549298 
L 236.49017 280.549298 
L 238.039287 280.549298 
L 239.438488 280.549298 
L 240.987605 280.549298 
L 242.48675 280.549298 
L 244.035866 280.549298 
L 245.535011 280.549298 
L 247.084127 280.549298 
L 248.633243 280.549298 
L 250.132388 280.549298 
L 251.681504 280.549298 
L 253.180649 280.549298 
L 254.729765 280.549298 
L 256.278882 280.549298 
L 257.678084 280.549298 
L 259.2272 280.549298 
L 260.726345 280.549298 
L 262.275461 280.549298 
L 263.774606 280.549298 
L 265.323722 280.549298 
L 266.872838 280.549298 
L 268.371983 280.549298 
L 269.921099 280.549298 
L 271.420244 280.549298 
L 272.969361 280.549298 
L 274.518477 280.549298 
L 275.917679 280.549298 
L 277.466795 280.549298 
L 278.96594 280.549298 
L 280.515056 280.549298 
L 282.014201 280.549298 
L 283.563317 280.549298 
L 285.112433 280.549298 
L 286.611578 280.549298 
L 288.160695 280.549298 
L 289.659839 280.549298 
L 291.208956 280.549298 
L 292.758072 280.549298 
L 294.207245 280.549298 
L 295.756362 280.549298 
L 297.255506 280.549298 
L 298.804623 280.549298 
L 300.303768 280.549298 
L 301.852884 280.549298 
L 303.402 280.549298 
L 304.901145 280.549298 
L 306.450261 280.549298 
L 307.949406 280.549298 
L 309.498522 280.549298 
L 311.047639 280.549298 
L 312.44684 280.549298 
L 313.995957 280.549298 
L 315.495102 280.549298 
L 317.044218 280.549298 
L 318.543363 280.549298 
L 320.092479 280.549298 
L 321.641595 280.549298 
L 323.14074 280.549298 
L 324.689856 280.549298 
L 326.189001 280.549298 
L 327.738117 280.549298 
L 329.287234 280.549298 
L 330.686436 280.549298 
L 332.235552 280.549298 
L 333.734697 280.549298 
L 335.283813 280.549298 
L 336.782958 280.549298 
L 338.332074 280.549298 
L 339.88119 280.549298 
L 341.380335 280.549298 
L 342.929451 280.549298 
L 344.428596 280.549298 
L 345.977713 280.549298 
L 347.526829 280.549298 
L 348.926031 280.549298 
L 350.475147 280.549298 
L 351.974292 280.549298 
L 353.523408 280.549298 
L 355.022553 280.549298 
L 356.571669 280.549298 
L 358.120786 280.549298 
L 359.61993 280.549298 
L 361.169047 280.549298 
L 362.668191 280.549298 
L 364.217308 280.549298 
L 365.766424 280.549298 
L 367.215597 280.549298 
L 368.764714 280.549298 
L 370.263858 280.549298 
L 371.812975 280.549298 
L 373.31212 280.549298 
L 374.861236 280.549298 
L 376.410352 280.549298 
L 377.909497 280.549298 
L 379.458613 280.549298 
L 380.957758 280.549298 
L 382.506874 280.549298 
L 384.055991 280.549298 
L 385.455192 280.549298 
L 387.004309 280.549298 
L 388.503454 280.549298 
L 390.05257 280.549298 
L 391.551715 280.549298 
L 393.100831 280.549298 
L 394.649947 280.549298 
L 396.149092 280.549298 
L 397.698208 280.549298 
L 399.197353 280.549298 
L 400.746469 280.549298 
L 402.295586 280.549298 
L 403.694788 280.549298 
L 405.243904 280.549298 
L 406.743049 280.549298 
L 408.292165 280.549298 
L 409.79131 280.549298 
L 411.340426 280.549298 
L 412.889542 280.549298 
L 414.388687 280.549298 
L 415.937804 280.549298 
L 417.436948 280.549298 
L 418.986065 280.549298 
L 420.535181 280.549298 
L 421.934383 280.549298 
L 423.483499 280.549298 
L 424.982644 280.549298 
L 426.53176 280.549298 
L 428.030905 280.549298 
L 429.580021 280.549298 
L 431.129138 280.549298 
L 432.628282 280.549298 
L 434.177399 280.549298 
L 435.676543 280.549298 
L 437.22566 280.549298 
L 438.774776 280.549298 
L 440.223949 280.549298 
L 440.223949 177.368158 
L 440.223949 177.368158 
L 438.774776 179.087178 
L 437.22566 179.207109 
L 435.676543 179.247087 
L 434.177399 179.48695 
L 432.628282 179.606881 
L 431.129138 179.646859 
L 429.580021 179.76679 
L 428.030905 180.246517 
L 426.53176 180.48638 
L 424.982644 180.606311 
L 423.483499 180.606311 
L 421.934383 180.966106 
L 420.535181 181.565764 
L 418.986065 181.525787 
L 417.436948 181.645718 
L 415.937804 181.76565 
L 414.388687 182.005513 
L 412.889542 182.005513 
L 411.340426 182.04549 
L 409.79131 182.04549 
L 408.292165 182.005513 
L 406.743049 182.085467 
L 405.243904 182.005513 
L 403.694788 181.965536 
L 402.295586 182.005513 
L 400.746469 182.005513 
L 399.197353 182.205399 
L 397.698208 182.405285 
L 396.149092 182.725103 
L 394.649947 182.964966 
L 393.100831 182.924989 
L 391.551715 183.124875 
L 390.05257 183.404715 
L 388.503454 183.404715 
L 387.004309 183.564624 
L 385.455192 184.084327 
L 384.055991 184.204259 
L 382.506874 184.644008 
L 380.957758 184.683985 
L 379.458613 184.843894 
L 377.909497 184.923848 
L 376.410352 185.083757 
L 374.861236 185.123734 
L 373.31212 185.203689 
L 371.812975 185.203689 
L 370.263858 185.283643 
L 368.764714 185.643438 
L 367.215597 185.763369 
L 365.766424 185.843324 
L 364.217308 185.923278 
L 362.668191 185.923278 
L 361.169047 185.923278 
L 359.61993 186.04321 
L 358.120786 186.123164 
L 356.571669 186.283073 
L 355.022553 186.522936 
L 353.523408 186.642868 
L 351.974292 186.722822 
L 350.475147 186.802776 
L 348.926031 186.842754 
L 347.526829 186.842754 
L 345.977713 186.882731 
L 344.428596 186.922708 
L 342.929451 187.002662 
L 341.380335 187.04264 
L 339.88119 187.04264 
L 338.332074 187.162571 
L 336.782958 187.282503 
L 335.283813 187.522366 
L 333.734697 187.682275 
L 332.235552 188.002092 
L 330.686436 188.162001 
L 329.287234 188.32191 
L 327.738117 188.361887 
L 326.189001 188.521796 
L 324.689856 188.681705 
L 323.14074 190.440701 
L 321.641595 190.720542 
L 320.092479 191.480108 
L 318.543363 190.840473 
L 317.044218 190.760519 
L 315.495102 190.800496 
L 313.995957 190.88045 
L 312.44684 191.160291 
L 311.047639 191.200268 
L 309.498522 191.280222 
L 307.949406 192.039789 
L 306.450261 192.159721 
L 304.901145 192.359607 
L 303.402 192.439561 
L 301.852884 192.559493 
L 300.303768 192.999242 
L 298.804623 193.199128 
L 297.255506 193.199128 
L 295.756362 193.5989 
L 294.207245 193.678854 
L 292.758072 193.718831 
L 291.208956 193.918717 
L 289.659839 193.998672 
L 288.160695 193.998672 
L 286.611578 194.198557 
L 285.112433 194.238535 
L 283.563317 194.278512 
L 282.014201 194.438421 
L 280.515056 194.558352 
L 278.96594 193.958694 
L 277.466795 194.038649 
L 275.917679 194.238535 
L 274.518477 194.238535 
L 272.969361 194.478398 
L 271.420244 194.638307 
L 269.921099 194.918147 
L 268.371983 195.277942 
L 266.872838 195.597759 
L 265.323722 195.677714 
L 263.774606 195.957554 
L 262.275461 196.197417 
L 260.726345 196.557212 
L 259.2272 196.717121 
L 257.678084 196.917007 
L 256.278882 196.956984 
L 254.729765 196.956984 
L 253.180649 197.15687 
L 251.681504 197.636596 
L 250.132388 197.676573 
L 248.633243 197.916437 
L 247.084127 198.596049 
L 245.535011 198.676003 
L 244.035866 199.15573 
L 242.48675 199.475547 
L 240.987605 200.554931 
L 239.438488 200.634886 
L 238.039287 200.754817 
L 236.49017 201.034658 
L 234.941054 201.114612 
L 233.441909 201.354475 
L 231.892793 201.554361 
L 230.393648 201.914156 
L 228.844532 202.114042 
L 227.295415 202.233974 
L 225.796271 202.473837 
L 224.247154 202.513814 
L 222.74801 202.633746 
L 221.198893 202.793654 
L 219.74972 202.793654 
L 218.200604 202.873609 
L 216.651487 202.913586 
L 215.152343 202.953563 
L 213.603226 202.99354 
L 212.104081 203.033518 
L 210.554965 203.153449 
L 207.606647 203.913016 
L 206.35736 204.112902 
L 205.307958 204.152879 
L 204.058671 204.032947 
L 203.059241 204.032947 
L 201.660039 204.152879 
L 198.811664 204.272811 
L 196.063232 204.912446 
L 195.213717 205.871898 
L 193.864486 205.71199 
L 192.465285 205.672012 
L 190.766254 206.391602 
L 189.716852 206.391602 
L 188.667451 206.151739 
L 184.070074 206.671442 
L 183.120615 206.751397 
L 178.223409 207.431009 
L 175.774806 207.510963 
L 174.975262 207.351055 
L 173.975832 207.470986 
L 173.326202 207.670872 
L 172.776516 207.710849 
L 169.478397 207.830781 
L 165.930421 207.910735 
L 164.131448 208.110621 
L 162.382445 210.229413 
L 159.234241 210.149458 
L 158.434697 210.189435 
L 157.135439 210.629185 
L 155.036636 211.748546 
L 151.788489 211.988409 
L 150.589173 212.388181 
L 147.790769 212.668022 
L 146.291624 213.507543 
L 144.542622 214.067223 
L 142.543762 214.506972 
L 141.094589 214.54695 
L 139.995216 214.626904 
L 139.245644 214.666881 
L 138.146271 214.706858 
L 137.09687 215.426448 
L 136.397269 215.786243 
L 136.197383 215.786243 
L 135.44781 215.786243 
L 134.448381 216.026106 
L 133.049179 215.786243 
L 132.549464 215.986129 
L 131.999777 216.066083 
L 131.200233 216.186015 
L 130.450661 216.186015 
L 129.75106 216.505832 
L 128.75163 217.225422 
L 128.40183 217.185445 
L 127.452371 217.545239 
L 126.253056 217.625194 
L 125.353569 217.705148 
L 124.853854 217.785102 
L 124.004338 217.905034 
L 123.454652 218.144897 
L 122.605137 218.344783 
L 121.905536 218.264829 
L 121.05602 218.344783 
L 117.757902 218.624624 
L 117.508044 218.584646 
L 115.509184 218.904464 
L 111.161665 216.985559 
L 108.813004 219.823939 
L 99.718193 223.541818 
L 85.076545 227.019834 
L 65.187891 231.49728 
L 48.047668 226.340222 
L 39.702429 225.700587 
L 31.257246 226.540108 
z
" clip-path="url(#pab6e41cee3)" style="fill: #fb363b"/>
   </g>
   <g id="PolyCollection_2">
    <path d="M 31.257246 144.346996 
L 31.257246 226.540108 
L 39.702429 225.700587 
L 48.047668 226.340222 
L 65.187891 231.49728 
L 85.076545 227.019834 
L 99.718193 223.541818 
L 108.813004 219.823939 
L 111.161665 216.985559 
L 115.509184 218.904464 
L 117.508044 218.584646 
L 117.757902 218.624624 
L 121.05602 218.344783 
L 121.905536 218.264829 
L 122.605137 218.344783 
L 123.454652 218.144897 
L 124.004338 217.905034 
L 124.853854 217.785102 
L 125.353569 217.705148 
L 126.253056 217.625194 
L 127.452371 217.545239 
L 128.40183 217.185445 
L 128.75163 217.225422 
L 129.75106 216.505832 
L 130.450661 216.186015 
L 131.200233 216.186015 
L 131.999777 216.066083 
L 132.549464 215.986129 
L 133.049179 215.786243 
L 134.448381 216.026106 
L 135.44781 215.786243 
L 136.197383 215.786243 
L 136.397269 215.786243 
L 137.09687 215.426448 
L 138.146271 214.706858 
L 139.245644 214.666881 
L 139.995216 214.626904 
L 141.094589 214.54695 
L 142.543762 214.506972 
L 144.542622 214.067223 
L 146.291624 213.507543 
L 147.790769 212.668022 
L 150.589173 212.388181 
L 151.788489 211.988409 
L 155.036636 211.748546 
L 157.135439 210.629185 
L 158.434697 210.189435 
L 159.234241 210.149458 
L 162.382445 210.229413 
L 164.131448 208.110621 
L 165.930421 207.910735 
L 169.478397 207.830781 
L 172.776516 207.710849 
L 173.326202 207.670872 
L 173.975832 207.470986 
L 174.975262 207.351055 
L 175.774806 207.510963 
L 178.223409 207.431009 
L 183.120615 206.751397 
L 184.070074 206.671442 
L 188.667451 206.151739 
L 189.716852 206.391602 
L 190.766254 206.391602 
L 192.465285 205.672012 
L 193.864486 205.71199 
L 195.213717 205.871898 
L 196.063232 204.912446 
L 198.811664 204.272811 
L 201.660039 204.152879 
L 203.059241 204.032947 
L 204.058671 204.032947 
L 205.307958 204.152879 
L 206.35736 204.112902 
L 207.606647 203.913016 
L 210.554965 203.153449 
L 212.104081 203.033518 
L 213.603226 202.99354 
L 215.152343 202.953563 
L 216.651487 202.913586 
L 218.200604 202.873609 
L 219.74972 202.793654 
L 221.198893 202.793654 
L 222.74801 202.633746 
L 224.247154 202.513814 
L 225.796271 202.473837 
L 227.295415 202.233974 
L 228.844532 202.114042 
L 230.393648 201.914156 
L 231.892793 201.554361 
L 233.441909 201.354475 
L 234.941054 201.114612 
L 236.49017 201.034658 
L 238.039287 200.754817 
L 239.438488 200.634886 
L 240.987605 200.554931 
L 242.48675 199.475547 
L 244.035866 199.15573 
L 245.535011 198.676003 
L 247.084127 198.596049 
L 248.633243 197.916437 
L 250.132388 197.676573 
L 251.681504 197.636596 
L 253.180649 197.15687 
L 254.729765 196.956984 
L 256.278882 196.956984 
L 257.678084 196.917007 
L 259.2272 196.717121 
L 260.726345 196.557212 
L 262.275461 196.197417 
L 263.774606 195.957554 
L 265.323722 195.677714 
L 266.872838 195.597759 
L 268.371983 195.277942 
L 269.921099 194.918147 
L 271.420244 194.638307 
L 272.969361 194.478398 
L 274.518477 194.238535 
L 275.917679 194.238535 
L 277.466795 194.038649 
L 278.96594 193.958694 
L 280.515056 194.558352 
L 282.014201 194.438421 
L 283.563317 194.278512 
L 285.112433 194.238535 
L 286.611578 194.198557 
L 288.160695 193.998672 
L 289.659839 193.998672 
L 291.208956 193.918717 
L 292.758072 193.718831 
L 294.207245 193.678854 
L 295.756362 193.5989 
L 297.255506 193.199128 
L 298.804623 193.199128 
L 300.303768 192.999242 
L 301.852884 192.559493 
L 303.402 192.439561 
L 304.901145 192.359607 
L 306.450261 192.159721 
L 307.949406 192.039789 
L 309.498522 191.280222 
L 311.047639 191.200268 
L 312.44684 191.160291 
L 313.995957 190.88045 
L 315.495102 190.800496 
L 317.044218 190.760519 
L 318.543363 190.840473 
L 320.092479 191.480108 
L 321.641595 190.720542 
L 323.14074 190.440701 
L 324.689856 188.681705 
L 326.189001 188.521796 
L 327.738117 188.361887 
L 329.287234 188.32191 
L 330.686436 188.162001 
L 332.235552 188.002092 
L 333.734697 187.682275 
L 335.283813 187.522366 
L 336.782958 187.282503 
L 338.332074 187.162571 
L 339.88119 187.04264 
L 341.380335 187.04264 
L 342.929451 187.002662 
L 344.428596 186.922708 
L 345.977713 186.882731 
L 347.526829 186.842754 
L 348.926031 186.842754 
L 350.475147 186.802776 
L 351.974292 186.722822 
L 353.523408 186.642868 
L 355.022553 186.522936 
L 356.571669 186.283073 
L 358.120786 186.123164 
L 359.61993 186.04321 
L 361.169047 185.923278 
L 362.668191 185.923278 
L 364.217308 185.923278 
L 365.766424 185.843324 
L 367.215597 185.763369 
L 368.764714 185.643438 
L 370.263858 185.283643 
L 371.812975 185.203689 
L 373.31212 185.203689 
L 374.861236 185.123734 
L 376.410352 185.083757 
L 377.909497 184.923848 
L 379.458613 184.843894 
L 380.957758 184.683985 
L 382.506874 184.644008 
L 384.055991 184.204259 
L 385.455192 184.084327 
L 387.004309 183.564624 
L 388.503454 183.404715 
L 390.05257 183.404715 
L 391.551715 183.124875 
L 393.100831 182.924989 
L 394.649947 182.964966 
L 396.149092 182.725103 
L 397.698208 182.405285 
L 399.197353 182.205399 
L 400.746469 182.005513 
L 402.295586 182.005513 
L 403.694788 181.965536 
L 405.243904 182.005513 
L 406.743049 182.085467 
L 408.292165 182.005513 
L 409.79131 182.04549 
L 411.340426 182.04549 
L 412.889542 182.005513 
L 414.388687 182.005513 
L 415.937804 181.76565 
L 417.436948 181.645718 
L 418.986065 181.525787 
L 420.535181 181.565764 
L 421.934383 180.966106 
L 423.483499 180.606311 
L 424.982644 180.606311 
L 426.53176 180.48638 
L 428.030905 180.246517 
L 429.580021 179.76679 
L 431.129138 179.646859 
L 432.628282 179.606881 
L 434.177399 179.48695 
L 435.676543 179.247087 
L 437.22566 179.207109 
L 438.774776 179.087178 
L 440.223949 177.368158 
L 440.223949 102.450895 
L 440.223949 102.450895 
L 438.774776 102.730736 
L 437.22566 103.010576 
L 435.676543 103.010576 
L 434.177399 103.130508 
L 432.628282 103.290416 
L 431.129138 103.370371 
L 429.580021 103.370371 
L 428.030905 103.650211 
L 426.53176 103.890074 
L 424.982644 104.010006 
L 423.483499 104.010006 
L 421.934383 104.049983 
L 420.535181 104.209892 
L 418.986065 104.329824 
L 417.436948 104.409778 
L 415.937804 104.409778 
L 414.388687 104.449755 
L 412.889542 104.329824 
L 411.340426 104.369801 
L 409.79131 104.369801 
L 408.292165 104.569687 
L 406.743049 104.52971 
L 405.243904 104.52971 
L 403.694788 104.569687 
L 402.295586 104.649641 
L 400.746469 104.649641 
L 399.197353 104.769573 
L 397.698208 104.729596 
L 396.149092 104.849527 
L 394.649947 104.889504 
L 393.100831 104.929481 
L 391.551715 104.969459 
L 390.05257 105.009436 
L 388.503454 104.969459 
L 387.004309 105.08939 
L 385.455192 105.289276 
L 384.055991 105.449185 
L 382.506874 105.489162 
L 380.957758 105.489162 
L 379.458613 105.569117 
L 377.909497 105.609094 
L 376.410352 105.689048 
L 374.861236 105.689048 
L 373.31212 105.729025 
L 371.812975 105.769003 
L 370.263858 105.649071 
L 368.764714 105.609094 
L 367.215597 105.649071 
L 365.766424 105.569117 
L 364.217308 105.569117 
L 362.668191 105.569117 
L 361.169047 105.569117 
L 359.61993 105.569117 
L 358.120786 105.609094 
L 356.571669 105.569117 
L 355.022553 105.609094 
L 353.523408 105.609094 
L 351.974292 105.489162 
L 350.475147 105.489162 
L 348.926031 105.529139 
L 347.526829 105.529139 
L 345.977713 105.609094 
L 344.428596 105.609094 
L 342.929451 105.689048 
L 341.380335 105.689048 
L 339.88119 105.689048 
L 338.332074 105.729025 
L 336.782958 105.729025 
L 335.283813 105.729025 
L 333.734697 105.769003 
L 332.235552 105.80898 
L 330.686436 106.128797 
L 329.287234 106.248729 
L 327.738117 106.168775 
L 326.189001 106.248729 
L 324.689856 106.36866 
L 323.14074 106.408638 
L 321.641595 106.968318 
L 320.092479 107.288136 
L 318.543363 109.486882 
L 317.044218 110.726175 
L 315.495102 111.165924 
L 313.995957 111.165924 
L 312.44684 111.485741 
L 311.047639 111.405787 
L 309.498522 110.606243 
L 307.949406 110.806129 
L 306.450261 111.245878 
L 304.901145 111.245878 
L 303.402 111.125947 
L 301.852884 111.285855 
L 300.303768 111.325833 
L 298.804623 111.325833 
L 297.255506 111.36581 
L 295.756362 111.445764 
L 294.207245 111.445764 
L 292.758072 111.485741 
L 291.208956 111.485741 
L 289.659839 111.605673 
L 288.160695 111.64565 
L 286.611578 111.685627 
L 285.112433 111.685627 
L 283.563317 111.64565 
L 282.014201 111.685627 
L 280.515056 111.64565 
L 278.96594 112.285285 
L 277.466795 112.245308 
L 275.917679 112.325263 
L 274.518477 112.405217 
L 272.969361 112.525148 
L 271.420244 112.485171 
L 269.921099 112.765012 
L 268.371983 112.884943 
L 266.872838 113.044852 
L 265.323722 113.244738 
L 263.774606 113.284715 
L 262.275461 113.204761 
L 260.726345 113.284715 
L 259.2272 113.324692 
L 257.678084 113.324692 
L 256.278882 113.324692 
L 254.729765 113.324692 
L 253.180649 113.484601 
L 251.681504 113.564556 
L 250.132388 113.804419 
L 248.633243 113.844396 
L 247.084127 114.084259 
L 245.535011 114.164213 
L 244.035866 114.404077 
L 242.48675 114.524008 
L 240.987605 114.683917 
L 239.438488 114.723894 
L 238.039287 114.763871 
L 236.49017 114.92378 
L 234.941054 114.92378 
L 233.441909 115.123666 
L 231.892793 115.403507 
L 230.393648 115.563415 
L 228.844532 115.723324 
L 227.295415 115.92321 
L 225.796271 116.003164 
L 224.247154 116.322982 
L 222.74801 116.322982 
L 221.198893 116.362959 
L 219.74972 116.362959 
L 218.200604 116.362959 
L 216.651487 116.362959 
L 215.152343 116.362959 
L 213.603226 116.402936 
L 212.104081 116.562845 
L 210.554965 116.6428 
L 207.606647 117.122526 
L 206.35736 117.722184 
L 205.307958 118.002024 
L 204.058671 117.442343 
L 203.059241 117.762161 
L 201.660039 117.882093 
L 198.811664 118.042001 
L 196.063232 118.042001 
L 195.213717 118.20191 
L 193.864486 118.721614 
L 192.465285 118.681636 
L 190.766254 119.601112 
L 189.716852 119.601112 
L 188.667451 120.040861 
L 184.070074 120.320701 
L 183.120615 120.400656 
L 178.223409 121.520017 
L 175.774806 122.519447 
L 174.975262 122.559424 
L 173.975832 122.559424 
L 173.326202 122.559424 
L 172.776516 122.599402 
L 169.478397 122.159652 
L 165.930421 122.679356 
L 164.131448 122.879242 
L 162.382445 123.079128 
L 159.234241 123.19906 
L 158.434697 123.279014 
L 157.135439 123.4789 
L 155.036636 123.798717 
L 151.788489 123.638809 
L 150.589173 123.958626 
L 147.790769 123.918649 
L 146.291624 123.838695 
L 144.542622 124.198489 
L 142.543762 124.118535 
L 141.094589 123.998603 
L 139.995216 124.278444 
L 139.245644 124.318421 
L 138.146271 123.558854 
L 137.09687 123.598831 
L 136.397269 123.75874 
L 136.197383 123.75874 
L 135.44781 123.718763 
L 134.448381 124.238467 
L 133.049179 123.678786 
L 132.549464 123.678786 
L 131.999777 123.718763 
L 131.200233 123.75874 
L 130.450661 123.558854 
L 129.75106 123.998603 
L 128.75163 124.118535 
L 128.40183 123.878672 
L 127.452371 124.038581 
L 126.253056 123.998603 
L 125.353569 124.518307 
L 124.853854 124.438353 
L 124.004338 124.438353 
L 123.454652 122.639379 
L 122.605137 123.039151 
L 121.905536 122.039721 
L 121.05602 121.799858 
L 117.757902 122.079698 
L 117.508044 121.919789 
L 115.509184 122.19963 
L 111.161665 123.998603 
L 108.813004 124.878102 
L 99.718193 126.996893 
L 85.076545 130.03516 
L 65.187891 133.912948 
L 48.047668 140.109413 
L 39.702429 144.027178 
L 31.257246 144.346996 
z
" clip-path="url(#pab6e41cee3)" style="fill: #fdc92c"/>
   </g>
   <g id="PolyCollection_3">
    <path d="M 31.257246 112.844966 
L 31.257246 144.346996 
L 39.702429 144.027178 
L 48.047668 140.109413 
L 65.187891 133.912948 
L 85.076545 130.03516 
L 99.718193 126.996893 
L 108.813004 124.878102 
L 111.161665 123.998603 
L 115.509184 122.19963 
L 117.508044 121.919789 
L 117.757902 122.079698 
L 121.05602 121.799858 
L 121.905536 122.039721 
L 122.605137 123.039151 
L 123.454652 122.639379 
L 124.004338 124.438353 
L 124.853854 124.438353 
L 125.353569 124.518307 
L 126.253056 123.998603 
L 127.452371 124.038581 
L 128.40183 123.878672 
L 128.75163 124.118535 
L 129.75106 123.998603 
L 130.450661 123.558854 
L 131.200233 123.75874 
L 131.999777 123.718763 
L 132.549464 123.678786 
L 133.049179 123.678786 
L 134.448381 124.238467 
L 135.44781 123.718763 
L 136.197383 123.75874 
L 136.397269 123.75874 
L 137.09687 123.598831 
L 138.146271 123.558854 
L 139.245644 124.318421 
L 139.995216 124.278444 
L 141.094589 123.998603 
L 142.543762 124.118535 
L 144.542622 124.198489 
L 146.291624 123.838695 
L 147.790769 123.918649 
L 150.589173 123.958626 
L 151.788489 123.638809 
L 155.036636 123.798717 
L 157.135439 123.4789 
L 158.434697 123.279014 
L 159.234241 123.19906 
L 162.382445 123.079128 
L 164.131448 122.879242 
L 165.930421 122.679356 
L 169.478397 122.159652 
L 172.776516 122.599402 
L 173.326202 122.559424 
L 173.975832 122.559424 
L 174.975262 122.559424 
L 175.774806 122.519447 
L 178.223409 121.520017 
L 183.120615 120.400656 
L 184.070074 120.320701 
L 188.667451 120.040861 
L 189.716852 119.601112 
L 190.766254 119.601112 
L 192.465285 118.681636 
L 193.864486 118.721614 
L 195.213717 118.20191 
L 196.063232 118.042001 
L 198.811664 118.042001 
L 201.660039 117.882093 
L 203.059241 117.762161 
L 204.058671 117.442343 
L 205.307958 118.002024 
L 206.35736 117.722184 
L 207.606647 117.122526 
L 210.554965 116.6428 
L 212.104081 116.562845 
L 213.603226 116.402936 
L 215.152343 116.362959 
L 216.651487 116.362959 
L 218.200604 116.362959 
L 219.74972 116.362959 
L 221.198893 116.362959 
L 222.74801 116.322982 
L 224.247154 116.322982 
L 225.796271 116.003164 
L 227.295415 115.92321 
L 228.844532 115.723324 
L 230.393648 115.563415 
L 231.892793 115.403507 
L 233.441909 115.123666 
L 234.941054 114.92378 
L 236.49017 114.92378 
L 238.039287 114.763871 
L 239.438488 114.723894 
L 240.987605 114.683917 
L 242.48675 114.524008 
L 244.035866 114.404077 
L 245.535011 114.164213 
L 247.084127 114.084259 
L 248.633243 113.844396 
L 250.132388 113.804419 
L 251.681504 113.564556 
L 253.180649 113.484601 
L 254.729765 113.324692 
L 256.278882 113.324692 
L 257.678084 113.324692 
L 259.2272 113.324692 
L 260.726345 113.284715 
L 262.275461 113.204761 
L 263.774606 113.284715 
L 265.323722 113.244738 
L 266.872838 113.044852 
L 268.371983 112.884943 
L 269.921099 112.765012 
L 271.420244 112.485171 
L 272.969361 112.525148 
L 274.518477 112.405217 
L 275.917679 112.325263 
L 277.466795 112.245308 
L 278.96594 112.285285 
L 280.515056 111.64565 
L 282.014201 111.685627 
L 283.563317 111.64565 
L 285.112433 111.685627 
L 286.611578 111.685627 
L 288.160695 111.64565 
L 289.659839 111.605673 
L 291.208956 111.485741 
L 292.758072 111.485741 
L 294.207245 111.445764 
L 295.756362 111.445764 
L 297.255506 111.36581 
L 298.804623 111.325833 
L 300.303768 111.325833 
L 301.852884 111.285855 
L 303.402 111.125947 
L 304.901145 111.245878 
L 306.450261 111.245878 
L 307.949406 110.806129 
L 309.498522 110.606243 
L 311.047639 111.405787 
L 312.44684 111.485741 
L 313.995957 111.165924 
L 315.495102 111.165924 
L 317.044218 110.726175 
L 318.543363 109.486882 
L 320.092479 107.288136 
L 321.641595 106.968318 
L 323.14074 106.408638 
L 324.689856 106.36866 
L 326.189001 106.248729 
L 327.738117 106.168775 
L 329.287234 106.248729 
L 330.686436 106.128797 
L 332.235552 105.80898 
L 333.734697 105.769003 
L 335.283813 105.729025 
L 336.782958 105.729025 
L 338.332074 105.729025 
L 339.88119 105.689048 
L 341.380335 105.689048 
L 342.929451 105.689048 
L 344.428596 105.609094 
L 345.977713 105.609094 
L 347.526829 105.529139 
L 348.926031 105.529139 
L 350.475147 105.489162 
L 351.974292 105.489162 
L 353.523408 105.609094 
L 355.022553 105.609094 
L 356.571669 105.569117 
L 358.120786 105.609094 
L 359.61993 105.569117 
L 361.169047 105.569117 
L 362.668191 105.569117 
L 364.217308 105.569117 
L 365.766424 105.569117 
L 367.215597 105.649071 
L 368.764714 105.609094 
L 370.263858 105.649071 
L 371.812975 105.769003 
L 373.31212 105.729025 
L 374.861236 105.689048 
L 376.410352 105.689048 
L 377.909497 105.609094 
L 379.458613 105.569117 
L 380.957758 105.489162 
L 382.506874 105.489162 
L 384.055991 105.449185 
L 385.455192 105.289276 
L 387.004309 105.08939 
L 388.503454 104.969459 
L 390.05257 105.009436 
L 391.551715 104.969459 
L 393.100831 104.929481 
L 394.649947 104.889504 
L 396.149092 104.849527 
L 397.698208 104.729596 
L 399.197353 104.769573 
L 400.746469 104.649641 
L 402.295586 104.649641 
L 403.694788 104.569687 
L 405.243904 104.52971 
L 406.743049 104.52971 
L 408.292165 104.569687 
L 409.79131 104.369801 
L 411.340426 104.369801 
L 412.889542 104.329824 
L 414.388687 104.449755 
L 415.937804 104.409778 
L 417.436948 104.409778 
L 418.986065 104.329824 
L 420.535181 104.209892 
L 421.934383 104.049983 
L 423.483499 104.010006 
L 424.982644 104.010006 
L 426.53176 103.890074 
L 428.030905 103.650211 
L 429.580021 103.370371 
L 431.129138 103.370371 
L 432.628282 103.290416 
L 434.177399 103.130508 
L 435.676543 103.010576 
L 437.22566 103.010576 
L 438.774776 102.730736 
L 440.223949 102.450895 
L 440.223949 88.738718 
L 440.223949 88.738718 
L 438.774776 88.778695 
L 437.22566 88.778695 
L 435.676543 88.778695 
L 434.177399 88.818672 
L 432.628282 88.818672 
L 431.129138 88.818672 
L 429.580021 88.818672 
L 428.030905 88.898626 
L 426.53176 88.898626 
L 424.982644 88.898626 
L 423.483499 88.898626 
L 421.934383 88.898626 
L 420.535181 88.938604 
L 418.986065 88.938604 
L 417.436948 89.018558 
L 415.937804 89.018558 
L 414.388687 89.058535 
L 412.889542 89.058535 
L 411.340426 89.058535 
L 409.79131 89.058535 
L 408.292165 89.13849 
L 406.743049 89.218444 
L 405.243904 89.218444 
L 403.694788 89.218444 
L 402.295586 89.218444 
L 400.746469 89.218444 
L 399.197353 89.258421 
L 397.698208 89.218444 
L 396.149092 89.298398 
L 394.649947 89.298398 
L 393.100831 89.298398 
L 391.551715 89.338376 
L 390.05257 89.338376 
L 388.503454 89.338376 
L 387.004309 89.378353 
L 385.455192 89.41833 
L 384.055991 89.458307 
L 382.506874 89.458307 
L 380.957758 89.41833 
L 379.458613 89.41833 
L 377.909497 89.41833 
L 376.410352 89.378353 
L 374.861236 89.378353 
L 373.31212 89.41833 
L 371.812975 89.41833 
L 370.263858 89.338376 
L 368.764714 89.298398 
L 367.215597 89.298398 
L 365.766424 89.338376 
L 364.217308 89.338376 
L 362.668191 89.338376 
L 361.169047 89.338376 
L 359.61993 89.338376 
L 358.120786 89.338376 
L 356.571669 89.338376 
L 355.022553 89.338376 
L 353.523408 89.338376 
L 351.974292 89.258421 
L 350.475147 89.258421 
L 348.926031 89.258421 
L 347.526829 89.258421 
L 345.977713 89.218444 
L 344.428596 89.218444 
L 342.929451 89.298398 
L 341.380335 89.298398 
L 339.88119 89.298398 
L 338.332074 89.338376 
L 336.782958 89.338376 
L 335.283813 89.338376 
L 333.734697 89.378353 
L 332.235552 89.41833 
L 330.686436 89.498284 
L 329.287234 89.498284 
L 327.738117 89.498284 
L 326.189001 89.658193 
L 324.689856 89.658193 
L 323.14074 89.658193 
L 321.641595 89.538261 
L 320.092479 89.578239 
L 318.543363 89.778125 
L 317.044218 90.737577 
L 315.495102 90.897486 
L 313.995957 90.937463 
L 312.44684 90.97744 
L 311.047639 90.97744 
L 309.498522 90.97744 
L 307.949406 90.97744 
L 306.450261 91.017418 
L 304.901145 91.017418 
L 303.402 91.057395 
L 301.852884 91.097372 
L 300.303768 91.137349 
L 298.804623 91.137349 
L 297.255506 91.137349 
L 295.756362 91.137349 
L 294.207245 91.137349 
L 292.758072 91.177326 
L 291.208956 91.177326 
L 289.659839 91.217304 
L 288.160695 91.257281 
L 286.611578 91.257281 
L 285.112433 91.257281 
L 283.563317 91.257281 
L 282.014201 91.257281 
L 280.515056 91.257281 
L 278.96594 91.257281 
L 277.466795 91.257281 
L 275.917679 91.337235 
L 274.518477 91.337235 
L 272.969361 91.337235 
L 271.420244 91.377212 
L 269.921099 91.377212 
L 268.371983 91.41719 
L 266.872838 91.577098 
L 265.323722 92.536551 
L 263.774606 92.536551 
L 262.275461 92.536551 
L 260.726345 92.616505 
L 259.2272 92.616505 
L 257.678084 92.616505 
L 256.278882 92.616505 
L 254.729765 92.616505 
L 253.180649 92.616505 
L 251.681504 92.69646 
L 250.132388 92.616505 
L 248.633243 92.656483 
L 247.084127 92.736437 
L 245.535011 92.816391 
L 244.035866 93.016277 
L 242.48675 93.056255 
L 240.987605 93.056255 
L 239.438488 93.056255 
L 238.039287 93.056255 
L 236.49017 93.136209 
L 234.941054 93.136209 
L 233.441909 93.216163 
L 231.892793 93.216163 
L 230.393648 93.096232 
L 228.844532 93.176186 
L 227.295415 93.176186 
L 225.796271 93.176186 
L 224.247154 93.216163 
L 222.74801 93.216163 
L 221.198893 93.216163 
L 219.74972 93.256141 
L 218.200604 93.256141 
L 216.651487 93.296118 
L 215.152343 93.256141 
L 213.603226 93.256141 
L 212.104081 93.336095 
L 210.554965 93.376072 
L 207.606647 93.655913 
L 206.35736 94.25557 
L 205.307958 94.535411 
L 204.058671 93.895776 
L 203.059241 94.415479 
L 201.660039 94.455456 
L 198.811664 95.374932 
L 196.063232 95.374932 
L 195.213717 95.334955 
L 193.864486 95.494864 
L 192.465285 95.494864 
L 190.766254 95.574818 
L 189.716852 95.574818 
L 188.667451 95.614795 
L 184.070074 95.774704 
L 183.120615 95.774704 
L 178.223409 96.814111 
L 175.774806 96.934043 
L 174.975262 96.97402 
L 173.975832 97.093951 
L 173.326202 97.093951 
L 172.776516 97.093951 
L 169.478397 97.093951 
L 165.930421 97.333814 
L 164.131448 97.453746 
L 162.382445 97.493723 
L 159.234241 97.573678 
L 158.434697 97.693609 
L 157.135439 97.893495 
L 155.036636 98.133358 
L 151.788489 98.293267 
L 150.589173 98.932902 
L 147.790769 98.972879 
L 146.291624 99.25272 
L 144.542622 99.572537 
L 142.543762 99.652492 
L 141.094589 99.652492 
L 139.995216 99.652492 
L 139.245644 99.652492 
L 138.146271 99.812401 
L 137.09687 99.972309 
L 136.397269 100.092241 
L 136.197383 100.092241 
L 135.44781 100.052264 
L 134.448381 100.611944 
L 133.049179 100.132218 
L 132.549464 100.132218 
L 131.999777 100.212172 
L 131.200233 100.212172 
L 130.450661 100.212172 
L 129.75106 100.81183 
L 128.75163 100.81183 
L 128.40183 100.332104 
L 127.452371 100.931762 
L 126.253056 102.051123 
L 125.353569 102.970599 
L 124.853854 103.010576 
L 124.004338 103.010576 
L 123.454652 103.050553 
L 122.605137 103.650211 
L 121.905536 103.090531 
L 121.05602 103.090531 
L 117.757902 103.370371 
L 117.508044 103.410348 
L 115.509184 103.450325 
L 111.161665 100.81183 
L 108.813004 103.610234 
L 99.718193 105.529139 
L 85.076545 107.488022 
L 65.187891 108.847247 
L 48.047668 110.886084 
L 39.702429 113.284715 
L 31.257246 112.844966 
z
" clip-path="url(#pab6e41cee3)" style="fill: #aeaeae"/>
   </g>
   <g id="PolyCollection_4">
    <path d="M 31.257246 88.578809 
L 31.257246 112.844966 
L 39.702429 113.284715 
L 48.047668 110.886084 
L 65.187891 108.847247 
L 85.076545 107.488022 
L 99.718193 105.529139 
L 108.813004 103.610234 
L 111.161665 100.81183 
L 115.509184 103.450325 
L 117.508044 103.410348 
L 117.757902 103.370371 
L 121.05602 103.090531 
L 121.905536 103.090531 
L 122.605137 103.650211 
L 123.454652 103.050553 
L 124.004338 103.010576 
L 124.853854 103.010576 
L 125.353569 102.970599 
L 126.253056 102.051123 
L 127.452371 100.931762 
L 128.40183 100.332104 
L 128.75163 100.81183 
L 129.75106 100.81183 
L 130.450661 100.212172 
L 131.200233 100.212172 
L 131.999777 100.212172 
L 132.549464 100.132218 
L 133.049179 100.132218 
L 134.448381 100.611944 
L 135.44781 100.052264 
L 136.197383 100.092241 
L 136.397269 100.092241 
L 137.09687 99.972309 
L 138.146271 99.812401 
L 139.245644 99.652492 
L 139.995216 99.652492 
L 141.094589 99.652492 
L 142.543762 99.652492 
L 144.542622 99.572537 
L 146.291624 99.25272 
L 147.790769 98.972879 
L 150.589173 98.932902 
L 151.788489 98.293267 
L 155.036636 98.133358 
L 157.135439 97.893495 
L 158.434697 97.693609 
L 159.234241 97.573678 
L 162.382445 97.493723 
L 164.131448 97.453746 
L 165.930421 97.333814 
L 169.478397 97.093951 
L 172.776516 97.093951 
L 173.326202 97.093951 
L 173.975832 97.093951 
L 174.975262 96.97402 
L 175.774806 96.934043 
L 178.223409 96.814111 
L 183.120615 95.774704 
L 184.070074 95.774704 
L 188.667451 95.614795 
L 189.716852 95.574818 
L 190.766254 95.574818 
L 192.465285 95.494864 
L 193.864486 95.494864 
L 195.213717 95.334955 
L 196.063232 95.374932 
L 198.811664 95.374932 
L 201.660039 94.455456 
L 203.059241 94.415479 
L 204.058671 93.895776 
L 205.307958 94.535411 
L 206.35736 94.25557 
L 207.606647 93.655913 
L 210.554965 93.376072 
L 212.104081 93.336095 
L 213.603226 93.256141 
L 215.152343 93.256141 
L 216.651487 93.296118 
L 218.200604 93.256141 
L 219.74972 93.256141 
L 221.198893 93.216163 
L 222.74801 93.216163 
L 224.247154 93.216163 
L 225.796271 93.176186 
L 227.295415 93.176186 
L 228.844532 93.176186 
L 230.393648 93.096232 
L 231.892793 93.216163 
L 233.441909 93.216163 
L 234.941054 93.136209 
L 236.49017 93.136209 
L 238.039287 93.056255 
L 239.438488 93.056255 
L 240.987605 93.056255 
L 242.48675 93.056255 
L 244.035866 93.016277 
L 245.535011 92.816391 
L 247.084127 92.736437 
L 248.633243 92.656483 
L 250.132388 92.616505 
L 251.681504 92.69646 
L 253.180649 92.616505 
L 254.729765 92.616505 
L 256.278882 92.616505 
L 257.678084 92.616505 
L 259.2272 92.616505 
L 260.726345 92.616505 
L 262.275461 92.536551 
L 263.774606 92.536551 
L 265.323722 92.536551 
L 266.872838 91.577098 
L 268.371983 91.41719 
L 269.921099 91.377212 
L 271.420244 91.377212 
L 272.969361 91.337235 
L 274.518477 91.337235 
L 275.917679 91.337235 
L 277.466795 91.257281 
L 278.96594 91.257281 
L 280.515056 91.257281 
L 282.014201 91.257281 
L 283.563317 91.257281 
L 285.112433 91.257281 
L 286.611578 91.257281 
L 288.160695 91.257281 
L 289.659839 91.217304 
L 291.208956 91.177326 
L 292.758072 91.177326 
L 294.207245 91.137349 
L 295.756362 91.137349 
L 297.255506 91.137349 
L 298.804623 91.137349 
L 300.303768 91.137349 
L 301.852884 91.097372 
L 303.402 91.057395 
L 304.901145 91.017418 
L 306.450261 91.017418 
L 307.949406 90.97744 
L 309.498522 90.97744 
L 311.047639 90.97744 
L 312.44684 90.97744 
L 313.995957 90.937463 
L 315.495102 90.897486 
L 317.044218 90.737577 
L 318.543363 89.778125 
L 320.092479 89.578239 
L 321.641595 89.538261 
L 323.14074 89.658193 
L 324.689856 89.658193 
L 326.189001 89.658193 
L 327.738117 89.498284 
L 329.287234 89.498284 
L 330.686436 89.498284 
L 332.235552 89.41833 
L 333.734697 89.378353 
L 335.283813 89.338376 
L 336.782958 89.338376 
L 338.332074 89.338376 
L 339.88119 89.298398 
L 341.380335 89.298398 
L 342.929451 89.298398 
L 344.428596 89.218444 
L 345.977713 89.218444 
L 347.526829 89.258421 
L 348.926031 89.258421 
L 350.475147 89.258421 
L 351.974292 89.258421 
L 353.523408 89.338376 
L 355.022553 89.338376 
L 356.571669 89.338376 
L 358.120786 89.338376 
L 359.61993 89.338376 
L 361.169047 89.338376 
L 362.668191 89.338376 
L 364.217308 89.338376 
L 365.766424 89.338376 
L 367.215597 89.298398 
L 368.764714 89.298398 
L 370.263858 89.338376 
L 371.812975 89.41833 
L 373.31212 89.41833 
L 374.861236 89.378353 
L 376.410352 89.378353 
L 377.909497 89.41833 
L 379.458613 89.41833 
L 380.957758 89.41833 
L 382.506874 89.458307 
L 384.055991 89.458307 
L 385.455192 89.41833 
L 387.004309 89.378353 
L 388.503454 89.338376 
L 390.05257 89.338376 
L 391.551715 89.338376 
L 393.100831 89.298398 
L 394.649947 89.298398 
L 396.149092 89.298398 
L 397.698208 89.218444 
L 399.197353 89.258421 
L 400.746469 89.218444 
L 402.295586 89.218444 
L 403.694788 89.218444 
L 405.243904 89.218444 
L 406.743049 89.218444 
L 408.292165 89.13849 
L 409.79131 89.058535 
L 411.340426 89.058535 
L 412.889542 89.058535 
L 414.388687 89.058535 
L 415.937804 89.018558 
L 417.436948 89.018558 
L 418.986065 88.938604 
L 420.535181 88.938604 
L 421.934383 88.898626 
L 423.483499 88.898626 
L 424.982644 88.898626 
L 426.53176 88.898626 
L 428.030905 88.898626 
L 429.580021 88.818672 
L 431.129138 88.818672 
L 432.628282 88.818672 
L 434.177399 88.818672 
L 435.676543 88.778695 
L 437.22566 88.778695 
L 438.774776 88.778695 
L 440.223949 88.738718 
L 440.223949 78.384624 
L 440.223949 78.384624 
L 438.774776 78.384624 
L 437.22566 78.384624 
L 435.676543 78.384624 
L 434.177399 78.384624 
L 432.628282 78.384624 
L 431.129138 78.384624 
L 429.580021 78.384624 
L 428.030905 78.384624 
L 426.53176 78.384624 
L 424.982644 78.384624 
L 423.483499 78.384624 
L 421.934383 78.384624 
L 420.535181 78.58451 
L 418.986065 78.624487 
L 417.436948 78.664464 
L 415.937804 78.664464 
L 414.388687 78.664464 
L 412.889542 78.664464 
L 411.340426 78.664464 
L 409.79131 78.664464 
L 408.292165 78.664464 
L 406.743049 78.664464 
L 405.243904 78.664464 
L 403.694788 78.704442 
L 402.295586 78.664464 
L 400.746469 78.664464 
L 399.197353 78.704442 
L 397.698208 78.424601 
L 396.149092 78.424601 
L 394.649947 78.064807 
L 393.100831 78.064807 
L 391.551715 78.064807 
L 390.05257 78.064807 
L 388.503454 78.064807 
L 387.004309 78.064807 
L 385.455192 78.104784 
L 384.055991 78.104784 
L 382.506874 78.104784 
L 380.957758 78.064807 
L 379.458613 78.064807 
L 377.909497 78.064807 
L 376.410352 78.104784 
L 374.861236 78.104784 
L 373.31212 78.104784 
L 371.812975 78.104784 
L 370.263858 78.024829 
L 368.764714 77.984852 
L 367.215597 77.984852 
L 365.766424 77.984852 
L 364.217308 77.984852 
L 362.668191 77.984852 
L 361.169047 77.984852 
L 359.61993 77.984852 
L 358.120786 77.984852 
L 356.571669 77.984852 
L 355.022553 77.984852 
L 353.523408 77.984852 
L 351.974292 77.904898 
L 350.475147 77.904898 
L 348.926031 77.904898 
L 347.526829 77.904898 
L 345.977713 77.904898 
L 344.428596 77.904898 
L 342.929451 77.904898 
L 341.380335 77.904898 
L 339.88119 77.904898 
L 338.332074 77.864921 
L 336.782958 77.864921 
L 335.283813 77.864921 
L 333.734697 77.864921 
L 332.235552 77.864921 
L 330.686436 77.864921 
L 329.287234 77.864921 
L 327.738117 77.864921 
L 326.189001 77.864921 
L 324.689856 77.864921 
L 323.14074 77.864921 
L 321.641595 77.864921 
L 320.092479 77.864921 
L 318.543363 77.864921 
L 317.044218 77.864921 
L 315.495102 77.864921 
L 313.995957 77.864921 
L 312.44684 77.864921 
L 311.047639 77.864921 
L 309.498522 77.864921 
L 307.949406 77.864921 
L 306.450261 77.864921 
L 304.901145 77.864921 
L 303.402 77.864921 
L 301.852884 77.864921 
L 300.303768 77.864921 
L 298.804623 77.864921 
L 297.255506 77.864921 
L 295.756362 77.864921 
L 294.207245 78.224715 
L 292.758072 78.264693 
L 291.208956 78.264693 
L 289.659839 78.264693 
L 288.160695 78.424601 
L 286.611578 78.424601 
L 285.112433 78.424601 
L 283.563317 78.424601 
L 282.014201 78.424601 
L 280.515056 78.424601 
L 278.96594 78.424601 
L 277.466795 78.424601 
L 275.917679 78.424601 
L 274.518477 78.424601 
L 272.969361 78.424601 
L 271.420244 78.464579 
L 269.921099 78.464579 
L 268.371983 78.464579 
L 266.872838 78.464579 
L 265.323722 78.184738 
L 263.774606 78.344647 
L 262.275461 78.30467 
L 260.726345 78.30467 
L 259.2272 78.30467 
L 257.678084 78.30467 
L 256.278882 78.30467 
L 254.729765 78.30467 
L 253.180649 78.30467 
L 251.681504 78.344647 
L 250.132388 78.344647 
L 248.633243 78.344647 
L 247.084127 78.30467 
L 245.535011 78.30467 
L 244.035866 78.30467 
L 242.48675 78.30467 
L 240.987605 78.30467 
L 239.438488 78.30467 
L 238.039287 78.30467 
L 236.49017 78.30467 
L 234.941054 78.30467 
L 233.441909 78.30467 
L 231.892793 78.344647 
L 230.393648 78.30467 
L 228.844532 78.344647 
L 227.295415 78.30467 
L 225.796271 78.30467 
L 224.247154 78.30467 
L 222.74801 78.30467 
L 221.198893 78.30467 
L 219.74972 78.30467 
L 218.200604 78.344647 
L 216.651487 78.344647 
L 215.152343 78.30467 
L 213.603226 78.30467 
L 212.104081 78.30467 
L 210.554965 78.384624 
L 207.606647 78.664464 
L 206.35736 79.344077 
L 205.307958 79.424031 
L 204.058671 78.784396 
L 203.059241 80.343507 
L 201.660039 80.343507 
L 198.811664 81.782686 
L 196.063232 81.782686 
L 195.213717 81.742708 
L 193.864486 81.902617 
L 192.465285 81.86264 
L 190.766254 81.86264 
L 189.716852 81.86264 
L 188.667451 81.86264 
L 184.070074 82.182458 
L 183.120615 82.182458 
L 178.223409 82.382344 
L 175.774806 82.342366 
L 174.975262 82.342366 
L 173.975832 82.422321 
L 173.326202 82.422321 
L 172.776516 82.422321 
L 169.478397 82.982002 
L 165.930421 83.101933 
L 164.131448 83.101933 
L 162.382445 83.101933 
L 159.234241 83.101933 
L 158.434697 83.061956 
L 157.135439 83.061956 
L 155.036636 82.942024 
L 151.788489 82.902047 
L 150.589173 83.941454 
L 147.790769 84.061386 
L 146.291624 84.181317 
L 144.542622 84.061386 
L 142.543762 84.061386 
L 141.094589 84.021409 
L 139.995216 84.021409 
L 139.245644 84.021409 
L 138.146271 83.981431 
L 137.09687 83.981431 
L 136.397269 84.021409 
L 136.197383 84.021409 
L 135.44781 84.021409 
L 134.448381 84.461158 
L 133.049179 84.021409 
L 132.549464 84.021409 
L 131.999777 84.061386 
L 131.200233 83.981431 
L 130.450661 83.981431 
L 129.75106 84.381203 
L 128.75163 84.301249 
L 128.40183 83.8615 
L 127.452371 84.421181 
L 126.253056 84.261272 
L 125.353569 84.301249 
L 124.853854 84.301249 
L 124.004338 84.301249 
L 123.454652 84.341226 
L 122.605137 84.86093 
L 121.905536 84.301249 
L 121.05602 84.301249 
L 117.757902 85.300679 
L 117.508044 85.340656 
L 115.509184 85.300679 
L 111.161665 84.381203 
L 108.813004 85.300679 
L 99.718193 86.100223 
L 85.076545 86.539972 
L 65.187891 87.259561 
L 48.047668 87.699311 
L 39.702429 88.738718 
L 31.257246 88.578809 
z
" clip-path="url(#pab6e41cee3)" style="fill: #d5dce5"/>
   </g>
   <g id="matplotlib.axis_1">
    <g id="xtick_1">
     <g id="line2d_1">
      <defs>
       <path id="m636e688f9f" d="M 0 0 
L 0 3.5 
" style="stroke: #000000; stroke-width: 0.8"/>
      </defs>
      <g>
       <use xlink:href="#m636e688f9f" x="72.1839" y="280.549298" style="stroke: #000000; stroke-width: 0.8"/>
      </g>
     </g>
     <g id="text_1">
      <!-- 2004 -->
      <g transform="translate(59.4589 295.147736) scale(0.1 -0.1)">
       <defs>
        <path id="DejaVuSans-32" d="M 1228 531 
L 3431 531 
L 3431 0 
L 469 0 
L 469 531 
Q 828 903 1448 1529 
Q 2069 2156 2228 2338 
Q 2531 2678 2651 2914 
Q 2772 3150 2772 3378 
Q 2772 3750 2511 3984 
Q 2250 4219 1831 4219 
Q 1534 4219 1204 4116 
Q 875 4013 500 3803 
L 500 4441 
Q 881 4594 1212 4672 
Q 1544 4750 1819 4750 
Q 2544 4750 2975 4387 
Q 3406 4025 3406 3419 
Q 3406 3131 3298 2873 
Q 3191 2616 2906 2266 
Q 2828 2175 2409 1742 
Q 1991 1309 1228 531 
z
" transform="scale(0.015625)"/>
        <path id="DejaVuSans-30" d="M 2034 4250 
Q 1547 4250 1301 3770 
Q 1056 3291 1056 2328 
Q 1056 1369 1301 889 
Q 1547 409 2034 409 
Q 2525 409 2770 889 
Q 3016 1369 3016 2328 
Q 3016 3291 2770 3770 
Q 2525 4250 2034 4250 
z
M 2034 4750 
Q 2819 4750 3233 4129 
Q 3647 3509 3647 2328 
Q 3647 1150 3233 529 
Q 2819 -91 2034 -91 
Q 1250 -91 836 529 
Q 422 1150 422 2328 
Q 422 3509 836 4129 
Q 1250 4750 2034 4750 
z
" transform="scale(0.015625)"/>
        <path id="DejaVuSans-34" d="M 2419 4116 
L 825 1625 
L 2419 1625 
L 2419 4116 
z
M 2253 4666 
L 3047 4666 
L 3047 1625 
L 3713 1625 
L 3713 1100 
L 3047 1100 
L 3047 0 
L 2419 0 
L 2419 1100 
L 313 1100 
L 313 1709 
L 2253 4666 
z
" transform="scale(0.015625)"/>
       </defs>
       <use xlink:href="#DejaVuSans-32"/>
       <use xlink:href="#DejaVuSans-30" x="63.623047"/>
       <use xlink:href="#DejaVuSans-30" x="127.246094"/>
       <use xlink:href="#DejaVuSans-34" x="190.869141"/>
      </g>
     </g>
    </g>
    <g id="xtick_2">
     <g id="line2d_2">
      <g>
       <use xlink:href="#m636e688f9f" x="108.713061" y="280.549298" style="stroke: #000000; stroke-width: 0.8"/>
      </g>
     </g>
     <g id="text_2">
      <!-- 2006 -->
      <g transform="translate(95.988061 295.147736) scale(0.1 -0.1)">
       <defs>
        <path id="DejaVuSans-36" d="M 2113 2584 
Q 1688 2584 1439 2293 
Q 1191 2003 1191 1497 
Q 1191 994 1439 701 
Q 1688 409 2113 409 
Q 2538 409 2786 701 
Q 3034 994 3034 1497 
Q 3034 2003 2786 2293 
Q 2538 2584 2113 2584 
z
M 3366 4563 
L 3366 3988 
Q 3128 4100 2886 4159 
Q 2644 4219 2406 4219 
Q 1781 4219 1451 3797 
Q 1122 3375 1075 2522 
Q 1259 2794 1537 2939 
Q 1816 3084 2150 3084 
Q 2853 3084 3261 2657 
Q 3669 2231 3669 1497 
Q 3669 778 3244 343 
Q 2819 -91 2113 -91 
Q 1303 -91 875 529 
Q 447 1150 447 2328 
Q 447 3434 972 4092 
Q 1497 4750 2381 4750 
Q 2619 4750 2861 4703 
Q 3103 4656 3366 4563 
z
" transform="scale(0.015625)"/>
       </defs>
       <use xlink:href="#DejaVuSans-32"/>
       <use xlink:href="#DejaVuSans-30" x="63.623047"/>
       <use xlink:href="#DejaVuSans-30" x="127.246094"/>
       <use xlink:href="#DejaVuSans-36" x="190.869141"/>
      </g>
     </g>
    </g>
    <g id="xtick_3">
     <g id="line2d_3">
      <g>
       <use xlink:href="#m636e688f9f" x="145.192252" y="280.549298" style="stroke: #000000; stroke-width: 0.8"/>
      </g>
     </g>
     <g id="text_3">
      <!-- 2008 -->
      <g transform="translate(132.467252 295.147736) scale(0.1 -0.1)">
       <defs>
        <path id="DejaVuSans-38" d="M 2034 2216 
Q 1584 2216 1326 1975 
Q 1069 1734 1069 1313 
Q 1069 891 1326 650 
Q 1584 409 2034 409 
Q 2484 409 2743 651 
Q 3003 894 3003 1313 
Q 3003 1734 2745 1975 
Q 2488 2216 2034 2216 
z
M 1403 2484 
Q 997 2584 770 2862 
Q 544 3141 544 3541 
Q 544 4100 942 4425 
Q 1341 4750 2034 4750 
Q 2731 4750 3128 4425 
Q 3525 4100 3525 3541 
Q 3525 3141 3298 2862 
Q 3072 2584 2669 2484 
Q 3125 2378 3379 2068 
Q 3634 1759 3634 1313 
Q 3634 634 3220 271 
Q 2806 -91 2034 -91 
Q 1263 -91 848 271 
Q 434 634 434 1313 
Q 434 1759 690 2068 
Q 947 2378 1403 2484 
z
M 1172 3481 
Q 1172 3119 1398 2916 
Q 1625 2713 2034 2713 
Q 2441 2713 2670 2916 
Q 2900 3119 2900 3481 
Q 2900 3844 2670 4047 
Q 2441 4250 2034 4250 
Q 1625 4250 1398 4047 
Q 1172 3844 1172 3481 
z
" transform="scale(0.015625)"/>
       </defs>
       <use xlink:href="#DejaVuSans-32"/>
       <use xlink:href="#DejaVuSans-30" x="63.623047"/>
       <use xlink:href="#DejaVuSans-30" x="127.246094"/>
       <use xlink:href="#DejaVuSans-38" x="190.869141"/>
      </g>
     </g>
    </g>
    <g id="xtick_4">
     <g id="line2d_4">
      <g>
       <use xlink:href="#m636e688f9f" x="181.721413" y="280.549298" style="stroke: #000000; stroke-width: 0.8"/>
      </g>
     </g>
     <g id="text_4">
      <!-- 2010 -->
      <g transform="translate(168.996413 295.147736) scale(0.1 -0.1)">
       <defs>
        <path id="DejaVuSans-31" d="M 794 531 
L 1825 531 
L 1825 4091 
L 703 3866 
L 703 4441 
L 1819 4666 
L 2450 4666 
L 2450 531 
L 3481 531 
L 3481 0 
L 794 0 
L 794 531 
z
" transform="scale(0.015625)"/>
       </defs>
       <use xlink:href="#DejaVuSans-32"/>
       <use xlink:href="#DejaVuSans-30" x="63.623047"/>
       <use xlink:href="#DejaVuSans-31" x="127.246094"/>
       <use xlink:href="#DejaVuSans-30" x="190.869141"/>
      </g>
     </g>
    </g>
    <g id="xtick_5">
     <g id="line2d_5">
      <g>
       <use xlink:href="#m636e688f9f" x="218.200604" y="280.549298" style="stroke: #000000; stroke-width: 0.8"/>
      </g>
     </g>
     <g id="text_5">
      <!-- 2012 -->
      <g transform="translate(205.475604 295.147736) scale(0.1 -0.1)">
       <use xlink:href="#DejaVuSans-32"/>
       <use xlink:href="#DejaVuSans-30" x="63.623047"/>
       <use xlink:href="#DejaVuSans-31" x="127.246094"/>
       <use xlink:href="#DejaVuSans-32" x="190.869141"/>
      </g>
     </g>
    </g>
    <g id="xtick_6">
     <g id="line2d_6">
      <g>
       <use xlink:href="#m636e688f9f" x="254.729765" y="280.549298" style="stroke: #000000; stroke-width: 0.8"/>
      </g>
     </g>
     <g id="text_6">
      <!-- 2014 -->
      <g transform="translate(242.004765 295.147736) scale(0.1 -0.1)">
       <use xlink:href="#DejaVuSans-32"/>
       <use xlink:href="#DejaVuSans-30" x="63.623047"/>
       <use xlink:href="#DejaVuSans-31" x="127.246094"/>
       <use xlink:href="#DejaVuSans-34" x="190.869141"/>
      </g>
     </g>
    </g>
    <g id="xtick_7">
     <g id="line2d_7">
      <g>
       <use xlink:href="#m636e688f9f" x="291.208956" y="280.549298" style="stroke: #000000; stroke-width: 0.8"/>
      </g>
     </g>
     <g id="text_7">
      <!-- 2016 -->
      <g transform="translate(278.483956 295.147736) scale(0.1 -0.1)">
       <use xlink:href="#DejaVuSans-32"/>
       <use xlink:href="#DejaVuSans-30" x="63.623047"/>
       <use xlink:href="#DejaVuSans-31" x="127.246094"/>
       <use xlink:href="#DejaVuSans-36" x="190.869141"/>
      </g>
     </g>
    </g>
    <g id="xtick_8">
     <g id="line2d_8">
      <g>
       <use xlink:href="#m636e688f9f" x="327.738117" y="280.549298" style="stroke: #000000; stroke-width: 0.8"/>
      </g>
     </g>
     <g id="text_8">
      <!-- 2018 -->
      <g transform="translate(315.013117 295.147736) scale(0.1 -0.1)">
       <use xlink:href="#DejaVuSans-32"/>
       <use xlink:href="#DejaVuSans-30" x="63.623047"/>
       <use xlink:href="#DejaVuSans-31" x="127.246094"/>
       <use xlink:href="#DejaVuSans-38" x="190.869141"/>
      </g>
     </g>
    </g>
    <g id="xtick_9">
     <g id="line2d_9">
      <g>
       <use xlink:href="#m636e688f9f" x="364.217308" y="280.549298" style="stroke: #000000; stroke-width: 0.8"/>
      </g>
     </g>
     <g id="text_9">
      <!-- 2020 -->
      <g transform="translate(351.492308 295.147736) scale(0.1 -0.1)">
       <use xlink:href="#DejaVuSans-32"/>
       <use xlink:href="#DejaVuSans-30" x="63.623047"/>
       <use xlink:href="#DejaVuSans-32" x="127.246094"/>
       <use xlink:href="#DejaVuSans-30" x="190.869141"/>
      </g>
     </g>
    </g>
    <g id="xtick_10">
     <g id="line2d_10">
      <g>
       <use xlink:href="#m636e688f9f" x="400.746469" y="280.549298" style="stroke: #000000; stroke-width: 0.8"/>
      </g>
     </g>
     <g id="text_10">
      <!-- 2022 -->
      <g transform="translate(388.021469 295.147736) scale(0.1 -0.1)">
       <use xlink:href="#DejaVuSans-32"/>
       <use xlink:href="#DejaVuSans-30" x="63.623047"/>
       <use xlink:href="#DejaVuSans-32" x="127.246094"/>
       <use xlink:href="#DejaVuSans-32" x="190.869141"/>
      </g>
     </g>
    </g>
    <g id="xtick_11">
     <g id="line2d_11">
      <g>
       <use xlink:href="#m636e688f9f" x="437.22566" y="280.549298" style="stroke: #000000; stroke-width: 0.8"/>
      </g>
     </g>
     <g id="text_11">
      <!-- 2024 -->
      <g transform="translate(424.50066 295.147736) scale(0.1 -0.1)">
       <use xlink:href="#DejaVuSans-32"/>
       <use xlink:href="#DejaVuSans-30" x="63.623047"/>
       <use xlink:href="#DejaVuSans-32" x="127.246094"/>
       <use xlink:href="#DejaVuSans-34" x="190.869141"/>
      </g>
     </g>
    </g>
    <g id="text_12">
     <!-- Year -->
     <g transform="translate(235.00071 312.62508) scale(0.15 -0.15)">
      <defs>
       <path id="DejaVuSans-59" d="M -13 4666 
L 666 4666 
L 1959 2747 
L 3244 4666 
L 3922 4666 
L 2272 2222 
L 2272 0 
L 1638 0 
L 1638 2222 
L -13 4666 
z
" transform="scale(0.015625)"/>
       <path id="DejaVuSans-65" d="M 3597 1894 
L 3597 1613 
L 953 1613 
Q 991 1019 1311 708 
Q 1631 397 2203 397 
Q 2534 397 2845 478 
Q 3156 559 3463 722 
L 3463 178 
Q 3153 47 2828 -22 
Q 2503 -91 2169 -91 
Q 1331 -91 842 396 
Q 353 884 353 1716 
Q 353 2575 817 3079 
Q 1281 3584 2069 3584 
Q 2775 3584 3186 3129 
Q 3597 2675 3597 1894 
z
M 3022 2063 
Q 3016 2534 2758 2815 
Q 2500 3097 2075 3097 
Q 1594 3097 1305 2825 
Q 1016 2553 972 2059 
L 3022 2063 
z
" transform="scale(0.015625)"/>
       <path id="DejaVuSans-61" d="M 2194 1759 
Q 1497 1759 1228 1600 
Q 959 1441 959 1056 
Q 959 750 1161 570 
Q 1363 391 1709 391 
Q 2188 391 2477 730 
Q 2766 1069 2766 1631 
L 2766 1759 
L 2194 1759 
z
M 3341 1997 
L 3341 0 
L 2766 0 
L 2766 531 
Q 2569 213 2275 61 
Q 1981 -91 1556 -91 
Q 1019 -91 701 211 
Q 384 513 384 1019 
Q 384 1609 779 1909 
Q 1175 2209 1959 2209 
L 2766 2209 
L 2766 2266 
Q 2766 2663 2505 2880 
Q 2244 3097 1772 3097 
Q 1472 3097 1187 3025 
Q 903 2953 641 2809 
L 641 3341 
Q 956 3463 1253 3523 
Q 1550 3584 1831 3584 
Q 2591 3584 2966 3190 
Q 3341 2797 3341 1997 
z
" transform="scale(0.015625)"/>
       <path id="DejaVuSans-72" d="M 2631 2963 
Q 2534 3019 2420 3045 
Q 2306 3072 2169 3072 
Q 1681 3072 1420 2755 
Q 1159 2438 1159 1844 
L 1159 0 
L 581 0 
L 581 3500 
L 1159 3500 
L 1159 2956 
Q 1341 3275 1631 3429 
Q 1922 3584 2338 3584 
Q 2397 3584 2469 3576 
Q 2541 3569 2628 3553 
L 2631 2963 
z
" transform="scale(0.015625)"/>
      </defs>
      <use xlink:href="#DejaVuSans-59"/>
      <use xlink:href="#DejaVuSans-65" x="47.833984"/>
      <use xlink:href="#DejaVuSans-61" x="109.357422"/>
      <use xlink:href="#DejaVuSans-72" x="170.636719"/>
     </g>
    </g>
   </g>
   <g id="matplotlib.axis_2">
    <g id="ytick_1">
     <g id="line2d_12">
      <defs>
       <path id="m533a3d7c0d" d="M 0 0 
L -3.5 0 
" style="stroke: #000000; stroke-width: 0.8"/>
      </defs>
      <g>
       <use xlink:href="#m533a3d7c0d" x="61.49" y="280.549298" style="stroke: #000000; stroke-width: 0.8"/>
      </g>
     </g>
     <g id="text_13">
      <!-- 0 -->
      <g transform="translate(48.1275 284.348517) scale(0.1 -0.1)">
       <use xlink:href="#DejaVuSans-30"/>
      </g>
     </g>
    </g>
    <g id="ytick_2">
     <g id="line2d_13">
      <g>
       <use xlink:href="#m533a3d7c0d" x="61.49" y="240.572103" style="stroke: #000000; stroke-width: 0.8"/>
      </g>
     </g>
     <g id="text_14">
      <!-- 1000 -->
      <g transform="translate(29.04 244.371322) scale(0.1 -0.1)">
       <use xlink:href="#DejaVuSans-31"/>
       <use xlink:href="#DejaVuSans-30" x="63.623047"/>
       <use xlink:href="#DejaVuSans-30" x="127.246094"/>
       <use xlink:href="#DejaVuSans-30" x="190.869141"/>
      </g>
     </g>
    </g>
    <g id="ytick_3">
     <g id="line2d_14">
      <g>
       <use xlink:href="#m533a3d7c0d" x="61.49" y="200.594909" style="stroke: #000000; stroke-width: 0.8"/>
      </g>
     </g>
     <g id="text_15">
      <!-- 2000 -->
      <g transform="translate(29.04 204.394127) scale(0.1 -0.1)">
       <use xlink:href="#DejaVuSans-32"/>
       <use xlink:href="#DejaVuSans-30" x="63.623047"/>
       <use xlink:href="#DejaVuSans-30" x="127.246094"/>
       <use xlink:href="#DejaVuSans-30" x="190.869141"/>
      </g>
     </g>
    </g>
    <g id="ytick_4">
     <g id="line2d_15">
      <g>
       <use xlink:href="#m533a3d7c0d" x="61.49" y="160.617714" style="stroke: #000000; stroke-width: 0.8"/>
      </g>
     </g>
     <g id="text_16">
      <!-- 3000 -->
      <g transform="translate(29.04 164.416933) scale(0.1 -0.1)">
       <defs>
        <path id="DejaVuSans-33" d="M 2597 2516 
Q 3050 2419 3304 2112 
Q 3559 1806 3559 1356 
Q 3559 666 3084 287 
Q 2609 -91 1734 -91 
Q 1441 -91 1130 -33 
Q 819 25 488 141 
L 488 750 
Q 750 597 1062 519 
Q 1375 441 1716 441 
Q 2309 441 2620 675 
Q 2931 909 2931 1356 
Q 2931 1769 2642 2001 
Q 2353 2234 1838 2234 
L 1294 2234 
L 1294 2753 
L 1863 2753 
Q 2328 2753 2575 2939 
Q 2822 3125 2822 3475 
Q 2822 3834 2567 4026 
Q 2313 4219 1838 4219 
Q 1578 4219 1281 4162 
Q 984 4106 628 3988 
L 628 4550 
Q 988 4650 1302 4700 
Q 1616 4750 1894 4750 
Q 2613 4750 3031 4423 
Q 3450 4097 3450 3541 
Q 3450 3153 3228 2886 
Q 3006 2619 2597 2516 
z
" transform="scale(0.015625)"/>
       </defs>
       <use xlink:href="#DejaVuSans-33"/>
       <use xlink:href="#DejaVuSans-30" x="63.623047"/>
       <use xlink:href="#DejaVuSans-30" x="127.246094"/>
       <use xlink:href="#DejaVuSans-30" x="190.869141"/>
      </g>
     </g>
    </g>
    <g id="ytick_5">
     <g id="line2d_16">
      <g>
       <use xlink:href="#m533a3d7c0d" x="61.49" y="120.640519" style="stroke: #000000; stroke-width: 0.8"/>
      </g>
     </g>
     <g id="text_17">
      <!-- 4000 -->
      <g transform="translate(29.04 124.439738) scale(0.1 -0.1)">
       <use xlink:href="#DejaVuSans-34"/>
       <use xlink:href="#DejaVuSans-30" x="63.623047"/>
       <use xlink:href="#DejaVuSans-30" x="127.246094"/>
       <use xlink:href="#DejaVuSans-30" x="190.869141"/>
      </g>
     </g>
    </g>
    <g id="ytick_6">
     <g id="line2d_17">
      <g>
       <use xlink:href="#m533a3d7c0d" x="61.49" y="80.663324" style="stroke: #000000; stroke-width: 0.8"/>
      </g>
     </g>
     <g id="text_18">
      <!-- 5000 -->
      <g transform="translate(29.04 84.462543) scale(0.1 -0.1)">
       <defs>
        <path id="DejaVuSans-35" d="M 691 4666 
L 3169 4666 
L 3169 4134 
L 1269 4134 
L 1269 2991 
Q 1406 3038 1543 3061 
Q 1681 3084 1819 3084 
Q 2600 3084 3056 2656 
Q 3513 2228 3513 1497 
Q 3513 744 3044 326 
Q 2575 -91 1722 -91 
Q 1428 -91 1123 -41 
Q 819 9 494 109 
L 494 744 
Q 775 591 1075 516 
Q 1375 441 1709 441 
Q 2250 441 2565 725 
Q 2881 1009 2881 1497 
Q 2881 1984 2565 2268 
Q 2250 2553 1709 2553 
Q 1456 2553 1204 2497 
Q 953 2441 691 2322 
L 691 4666 
z
" transform="scale(0.015625)"/>
       </defs>
       <use xlink:href="#DejaVuSans-35"/>
       <use xlink:href="#DejaVuSans-30" x="63.623047"/>
       <use xlink:href="#DejaVuSans-30" x="127.246094"/>
       <use xlink:href="#DejaVuSans-30" x="190.869141"/>
      </g>
     </g>
    </g>
    <g id="text_19">
     <!-- Number of proteins -->
     <g transform="translate(21.920469 246.829062) rotate(-90) scale(0.15 -0.15)">
      <defs>
       <path id="DejaVuSans-4e" d="M 628 4666 
L 1478 4666 
L 3547 763 
L 3547 4666 
L 4159 4666 
L 4159 0 
L 3309 0 
L 1241 3903 
L 1241 0 
L 628 0 
L 628 4666 
z
" transform="scale(0.015625)"/>
       <path id="DejaVuSans-75" d="M 544 1381 
L 544 3500 
L 1119 3500 
L 1119 1403 
Q 1119 906 1312 657 
Q 1506 409 1894 409 
Q 2359 409 2629 706 
Q 2900 1003 2900 1516 
L 2900 3500 
L 3475 3500 
L 3475 0 
L 2900 0 
L 2900 538 
Q 2691 219 2414 64 
Q 2138 -91 1772 -91 
Q 1169 -91 856 284 
Q 544 659 544 1381 
z
M 1991 3584 
L 1991 3584 
z
" transform="scale(0.015625)"/>
       <path id="DejaVuSans-6d" d="M 3328 2828 
Q 3544 3216 3844 3400 
Q 4144 3584 4550 3584 
Q 5097 3584 5394 3201 
Q 5691 2819 5691 2113 
L 5691 0 
L 5113 0 
L 5113 2094 
Q 5113 2597 4934 2840 
Q 4756 3084 4391 3084 
Q 3944 3084 3684 2787 
Q 3425 2491 3425 1978 
L 3425 0 
L 2847 0 
L 2847 2094 
Q 2847 2600 2669 2842 
Q 2491 3084 2119 3084 
Q 1678 3084 1418 2786 
Q 1159 2488 1159 1978 
L 1159 0 
L 581 0 
L 581 3500 
L 1159 3500 
L 1159 2956 
Q 1356 3278 1631 3431 
Q 1906 3584 2284 3584 
Q 2666 3584 2933 3390 
Q 3200 3197 3328 2828 
z
" transform="scale(0.015625)"/>
       <path id="DejaVuSans-62" d="M 3116 1747 
Q 3116 2381 2855 2742 
Q 2594 3103 2138 3103 
Q 1681 3103 1420 2742 
Q 1159 2381 1159 1747 
Q 1159 1113 1420 752 
Q 1681 391 2138 391 
Q 2594 391 2855 752 
Q 3116 1113 3116 1747 
z
M 1159 2969 
Q 1341 3281 1617 3432 
Q 1894 3584 2278 3584 
Q 2916 3584 3314 3078 
Q 3713 2572 3713 1747 
Q 3713 922 3314 415 
Q 2916 -91 2278 -91 
Q 1894 -91 1617 61 
Q 1341 213 1159 525 
L 1159 0 
L 581 0 
L 581 4863 
L 1159 4863 
L 1159 2969 
z
" transform="scale(0.015625)"/>
       <path id="DejaVuSans-20" transform="scale(0.015625)"/>
       <path id="DejaVuSans-6f" d="M 1959 3097 
Q 1497 3097 1228 2736 
Q 959 2375 959 1747 
Q 959 1119 1226 758 
Q 1494 397 1959 397 
Q 2419 397 2687 759 
Q 2956 1122 2956 1747 
Q 2956 2369 2687 2733 
Q 2419 3097 1959 3097 
z
M 1959 3584 
Q 2709 3584 3137 3096 
Q 3566 2609 3566 1747 
Q 3566 888 3137 398 
Q 2709 -91 1959 -91 
Q 1206 -91 779 398 
Q 353 888 353 1747 
Q 353 2609 779 3096 
Q 1206 3584 1959 3584 
z
" transform="scale(0.015625)"/>
       <path id="DejaVuSans-66" d="M 2375 4863 
L 2375 4384 
L 1825 4384 
Q 1516 4384 1395 4259 
Q 1275 4134 1275 3809 
L 1275 3500 
L 2222 3500 
L 2222 3053 
L 1275 3053 
L 1275 0 
L 697 0 
L 697 3053 
L 147 3053 
L 147 3500 
L 697 3500 
L 697 3744 
Q 697 4328 969 4595 
Q 1241 4863 1831 4863 
L 2375 4863 
z
" transform="scale(0.015625)"/>
       <path id="DejaVuSans-70" d="M 1159 525 
L 1159 -1331 
L 581 -1331 
L 581 3500 
L 1159 3500 
L 1159 2969 
Q 1341 3281 1617 3432 
Q 1894 3584 2278 3584 
Q 2916 3584 3314 3078 
Q 3713 2572 3713 1747 
Q 3713 922 3314 415 
Q 2916 -91 2278 -91 
Q 1894 -91 1617 61 
Q 1341 213 1159 525 
z
M 3116 1747 
Q 3116 2381 2855 2742 
Q 2594 3103 2138 3103 
Q 1681 3103 1420 2742 
Q 1159 2381 1159 1747 
Q 1159 1113 1420 752 
Q 1681 391 2138 391 
Q 2594 391 2855 752 
Q 3116 1113 3116 1747 
z
" transform="scale(0.015625)"/>
       <path id="DejaVuSans-74" d="M 1172 4494 
L 1172 3500 
L 2356 3500 
L 2356 3053 
L 1172 3053 
L 1172 1153 
Q 1172 725 1289 603 
Q 1406 481 1766 481 
L 2356 481 
L 2356 0 
L 1766 0 
Q 1100 0 847 248 
Q 594 497 594 1153 
L 594 3053 
L 172 3053 
L 172 3500 
L 594 3500 
L 594 4494 
L 1172 4494 
z
" transform="scale(0.015625)"/>
       <path id="DejaVuSans-69" d="M 603 3500 
L 1178 3500 
L 1178 0 
L 603 0 
L 603 3500 
z
M 603 4863 
L 1178 4863 
L 1178 4134 
L 603 4134 
L 603 4863 
z
" transform="scale(0.015625)"/>
       <path id="DejaVuSans-6e" d="M 3513 2113 
L 3513 0 
L 2938 0 
L 2938 2094 
Q 2938 2591 2744 2837 
Q 2550 3084 2163 3084 
Q 1697 3084 1428 2787 
Q 1159 2491 1159 1978 
L 1159 0 
L 581 0 
L 581 3500 
L 1159 3500 
L 1159 2956 
Q 1366 3272 1645 3428 
Q 1925 3584 2291 3584 
Q 2894 3584 3203 3211 
Q 3513 2838 3513 2113 
z
" transform="scale(0.015625)"/>
       <path id="DejaVuSans-73" d="M 2834 3397 
L 2834 2853 
Q 2591 2978 2328 3040 
Q 2066 3103 1784 3103 
Q 1356 3103 1142 2972 
Q 928 2841 928 2578 
Q 928 2378 1081 2264 
Q 1234 2150 1697 2047 
L 1894 2003 
Q 2506 1872 2764 1633 
Q 3022 1394 3022 966 
Q 3022 478 2636 193 
Q 2250 -91 1575 -91 
Q 1294 -91 989 -36 
Q 684 19 347 128 
L 347 722 
Q 666 556 975 473 
Q 1284 391 1588 391 
Q 1994 391 2212 530 
Q 2431 669 2431 922 
Q 2431 1156 2273 1281 
Q 2116 1406 1581 1522 
L 1381 1569 
Q 847 1681 609 1914 
Q 372 2147 372 2553 
Q 372 3047 722 3315 
Q 1072 3584 1716 3584 
Q 2034 3584 2315 3537 
Q 2597 3491 2834 3397 
z
" transform="scale(0.015625)"/>
      </defs>
      <use xlink:href="#DejaVuSans-4e"/>
      <use xlink:href="#DejaVuSans-75" x="74.804688"/>
      <use xlink:href="#DejaVuSans-6d" x="138.183594"/>
      <use xlink:href="#DejaVuSans-62" x="235.595703"/>
      <use xlink:href="#DejaVuSans-65" x="299.072266"/>
      <use xlink:href="#DejaVuSans-72" x="360.595703"/>
      <use xlink:href="#DejaVuSans-20" x="401.708984"/>
      <use xlink:href="#DejaVuSans-6f" x="433.496094"/>
      <use xlink:href="#DejaVuSans-66" x="494.677734"/>
      <use xlink:href="#DejaVuSans-20" x="529.882812"/>
      <use xlink:href="#DejaVuSans-70" x="561.669922"/>
      <use xlink:href="#DejaVuSans-72" x="625.146484"/>
      <use xlink:href="#DejaVuSans-6f" x="664.009766"/>
      <use xlink:href="#DejaVuSans-74" x="725.191406"/>
      <use xlink:href="#DejaVuSans-65" x="764.400391"/>
      <use xlink:href="#DejaVuSans-69" x="825.923828"/>
      <use xlink:href="#DejaVuSans-6e" x="853.707031"/>
      <use xlink:href="#DejaVuSans-73" x="917.085938"/>
     </g>
    </g>
   </g>
   <g id="patch_3">
    <path d="M 61.49 280.549298 
L 61.49 67.730702 
" style="fill: none; stroke: #000000; stroke-width: 0.8; stroke-linejoin: miter; stroke-linecap: square"/>
   </g>
   <g id="patch_4">
    <path d="M 61.49 280.549298 
L 440.273921 280.549298 
" style="fill: none; stroke: #000000; stroke-width: 0.8; stroke-linejoin: miter; stroke-linecap: square"/>
   </g>
   <g id="legend_1">
    <g id="patch_5">
     <path d="M 123.892117 62.730702 
L 377.871804 62.730702 
Q 379.871804 62.730702 379.871804 60.730702 
L 379.871804 32.374452 
Q 379.871804 30.374452 377.871804 30.374452 
L 123.892117 30.374452 
Q 121.892117 30.374452 121.892117 32.374452 
L 121.892117 60.730702 
Q 121.892117 62.730702 123.892117 62.730702 
z
" style="fill: #ffffff; opacity: 0.8; stroke: #cccccc; stroke-linejoin: miter"/>
    </g>
    <g id="patch_6">
     <path d="M 125.892117 41.972889 
L 145.892117 41.972889 
L 145.892117 34.972889 
L 125.892117 34.972889 
z
" style="fill: #fb363b"/>
    </g>
    <g id="text_20">
     <!-- Published -->
     <g transform="translate(153.892117 41.972889) scale(0.1 -0.1)">
      <defs>
       <path id="DejaVuSans-50" d="M 1259 4147 
L 1259 2394 
L 2053 2394 
Q 2494 2394 2734 2622 
Q 2975 2850 2975 3272 
Q 2975 3691 2734 3919 
Q 2494 4147 2053 4147 
L 1259 4147 
z
M 628 4666 
L 2053 4666 
Q 2838 4666 3239 4311 
Q 3641 3956 3641 3272 
Q 3641 2581 3239 2228 
Q 2838 1875 2053 1875 
L 1259 1875 
L 1259 0 
L 628 0 
L 628 4666 
z
" transform="scale(0.015625)"/>
       <path id="DejaVuSans-6c" d="M 603 4863 
L 1178 4863 
L 1178 0 
L 603 0 
L 603 4863 
z
" transform="scale(0.015625)"/>
       <path id="DejaVuSans-68" d="M 3513 2113 
L 3513 0 
L 2938 0 
L 2938 2094 
Q 2938 2591 2744 2837 
Q 2550 3084 2163 3084 
Q 1697 3084 1428 2787 
Q 1159 2491 1159 1978 
L 1159 0 
L 581 0 
L 581 4863 
L 1159 4863 
L 1159 2956 
Q 1366 3272 1645 3428 
Q 1925 3584 2291 3584 
Q 2894 3584 3203 3211 
Q 3513 2838 3513 2113 
z
" transform="scale(0.015625)"/>
       <path id="DejaVuSans-64" d="M 2906 2969 
L 2906 4863 
L 3481 4863 
L 3481 0 
L 2906 0 
L 2906 525 
Q 2725 213 2448 61 
Q 2172 -91 1784 -91 
Q 1150 -91 751 415 
Q 353 922 353 1747 
Q 353 2572 751 3078 
Q 1150 3584 1784 3584 
Q 2172 3584 2448 3432 
Q 2725 3281 2906 2969 
z
M 947 1747 
Q 947 1113 1208 752 
Q 1469 391 1925 391 
Q 2381 391 2643 752 
Q 2906 1113 2906 1747 
Q 2906 2381 2643 2742 
Q 2381 3103 1925 3103 
Q 1469 3103 1208 2742 
Q 947 2381 947 1747 
z
" transform="scale(0.015625)"/>
      </defs>
      <use xlink:href="#DejaVuSans-50"/>
      <use xlink:href="#DejaVuSans-75" x="58.552734"/>
      <use xlink:href="#DejaVuSans-62" x="121.931641"/>
      <use xlink:href="#DejaVuSans-6c" x="185.408203"/>
      <use xlink:href="#DejaVuSans-69" x="213.191406"/>
      <use xlink:href="#DejaVuSans-73" x="240.974609"/>
      <use xlink:href="#DejaVuSans-68" x="293.074219"/>
      <use xlink:href="#DejaVuSans-65" x="356.453125"/>
      <use xlink:href="#DejaVuSans-64" x="417.976562"/>
     </g>
    </g>
    <g id="patch_7">
     <path d="M 125.892117 56.651014 
L 145.892117 56.651014 
L 145.892117 49.651014 
L 125.892117 49.651014 
z
" style="fill: #fdc92c"/>
    </g>
    <g id="text_21">
     <!-- Inferred role -->
     <g transform="translate(153.892117 56.651014) scale(0.1 -0.1)">
      <defs>
       <path id="DejaVuSans-49" d="M 628 4666 
L 1259 4666 
L 1259 0 
L 628 0 
L 628 4666 
z
" transform="scale(0.015625)"/>
      </defs>
      <use xlink:href="#DejaVuSans-49"/>
      <use xlink:href="#DejaVuSans-6e" x="29.492188"/>
      <use xlink:href="#DejaVuSans-66" x="92.871094"/>
      <use xlink:href="#DejaVuSans-65" x="128.076172"/>
      <use xlink:href="#DejaVuSans-72" x="189.599609"/>
      <use xlink:href="#DejaVuSans-72" x="228.962891"/>
      <use xlink:href="#DejaVuSans-65" x="267.826172"/>
      <use xlink:href="#DejaVuSans-64" x="329.349609"/>
      <use xlink:href="#DejaVuSans-20" x="392.826172"/>
      <use xlink:href="#DejaVuSans-72" x="424.613281"/>
      <use xlink:href="#DejaVuSans-6f" x="463.476562"/>
      <use xlink:href="#DejaVuSans-6c" x="524.658203"/>
      <use xlink:href="#DejaVuSans-65" x="552.441406"/>
     </g>
    </g>
    <g id="patch_8">
     <path d="M 235.290554 41.972889 
L 255.290554 41.972889 
L 255.290554 34.972889 
L 235.290554 34.972889 
z
" style="fill: #aeaeae"/>
    </g>
    <g id="text_22">
     <!-- Conserved unknown -->
     <g transform="translate(263.290554 41.972889) scale(0.1 -0.1)">
      <defs>
       <path id="DejaVuSans-43" d="M 4122 4306 
L 4122 3641 
Q 3803 3938 3442 4084 
Q 3081 4231 2675 4231 
Q 1875 4231 1450 3742 
Q 1025 3253 1025 2328 
Q 1025 1406 1450 917 
Q 1875 428 2675 428 
Q 3081 428 3442 575 
Q 3803 722 4122 1019 
L 4122 359 
Q 3791 134 3420 21 
Q 3050 -91 2638 -91 
Q 1578 -91 968 557 
Q 359 1206 359 2328 
Q 359 3453 968 4101 
Q 1578 4750 2638 4750 
Q 3056 4750 3426 4639 
Q 3797 4528 4122 4306 
z
" transform="scale(0.015625)"/>
       <path id="DejaVuSans-76" d="M 191 3500 
L 800 3500 
L 1894 563 
L 2988 3500 
L 3597 3500 
L 2284 0 
L 1503 0 
L 191 3500 
z
" transform="scale(0.015625)"/>
       <path id="DejaVuSans-6b" d="M 581 4863 
L 1159 4863 
L 1159 1991 
L 2875 3500 
L 3609 3500 
L 1753 1863 
L 3688 0 
L 2938 0 
L 1159 1709 
L 1159 0 
L 581 0 
L 581 4863 
z
" transform="scale(0.015625)"/>
       <path id="DejaVuSans-77" d="M 269 3500 
L 844 3500 
L 1563 769 
L 2278 3500 
L 2956 3500 
L 3675 769 
L 4391 3500 
L 4966 3500 
L 4050 0 
L 3372 0 
L 2619 2869 
L 1863 0 
L 1184 0 
L 269 3500 
z
" transform="scale(0.015625)"/>
      </defs>
      <use xlink:href="#DejaVuSans-43"/>
      <use xlink:href="#DejaVuSans-6f" x="69.824219"/>
      <use xlink:href="#DejaVuSans-6e" x="131.005859"/>
      <use xlink:href="#DejaVuSans-73" x="194.384766"/>
      <use xlink:href="#DejaVuSans-65" x="246.484375"/>
      <use xlink:href="#DejaVuSans-72" x="308.007812"/>
      <use xlink:href="#DejaVuSans-76" x="349.121094"/>
      <use xlink:href="#DejaVuSans-65" x="408.300781"/>
      <use xlink:href="#DejaVuSans-64" x="469.824219"/>
      <use xlink:href="#DejaVuSans-20" x="533.300781"/>
      <use xlink:href="#DejaVuSans-75" x="565.087891"/>
      <use xlink:href="#DejaVuSans-6e" x="628.466797"/>
      <use xlink:href="#DejaVuSans-6b" x="691.845703"/>
      <use xlink:href="#DejaVuSans-6e" x="749.755859"/>
      <use xlink:href="#DejaVuSans-6f" x="813.134766"/>
      <use xlink:href="#DejaVuSans-77" x="874.316406"/>
      <use xlink:href="#DejaVuSans-6e" x="956.103516"/>
     </g>
    </g>
    <g id="patch_9">
     <path d="M 235.290554 56.651014 
L 255.290554 56.651014 
L 255.290554 49.651014 
L 235.290554 49.651014 
z
" style="fill: #d5dce5"/>
    </g>
    <g id="text_23">
     <!-- Fission yeast unknown -->
     <g transform="translate(263.290554 56.651014) scale(0.1 -0.1)">
      <defs>
       <path id="DejaVuSans-46" d="M 628 4666 
L 3309 4666 
L 3309 4134 
L 1259 4134 
L 1259 2759 
L 3109 2759 
L 3109 2228 
L 1259 2228 
L 1259 0 
L 628 0 
L 628 4666 
z
" transform="scale(0.015625)"/>
       <path id="DejaVuSans-79" d="M 2059 -325 
Q 1816 -950 1584 -1140 
Q 1353 -1331 966 -1331 
L 506 -1331 
L 506 -850 
L 844 -850 
Q 1081 -850 1212 -737 
Q 1344 -625 1503 -206 
L 1606 56 
L 191 3500 
L 800 3500 
L 1894 763 
L 2988 3500 
L 3597 3500 
L 2059 -325 
z
" transform="scale(0.015625)"/>
      </defs>
      <use xlink:href="#DejaVuSans-46"/>
      <use xlink:href="#DejaVuSans-69" x="50.269531"/>
      <use xlink:href="#DejaVuSans-73" x="78.052734"/>
      <use xlink:href="#DejaVuSans-73" x="130.152344"/>
      <use xlink:href="#DejaVuSans-69" x="182.251953"/>
      <use xlink:href="#DejaVuSans-6f" x="210.035156"/>
      <use xlink:href="#DejaVuSans-6e" x="271.216797"/>
      <use xlink:href="#DejaVuSans-20" x="334.595703"/>
      <use xlink:href="#DejaVuSans-79" x="366.382812"/>
      <use xlink:href="#DejaVuSans-65" x="425.5625"/>
      <use xlink:href="#DejaVuSans-61" x="487.085938"/>
      <use xlink:href="#DejaVuSans-73" x="548.365234"/>
      <use xlink:href="#DejaVuSans-74" x="600.464844"/>
      <use xlink:href="#DejaVuSans-20" x="639.673828"/>
      <use xlink:href="#DejaVuSans-75" x="671.460938"/>
      <use xlink:href="#DejaVuSans-6e" x="734.839844"/>
      <use xlink:href="#DejaVuSans-6b" x="798.21875"/>
      <use xlink:href="#DejaVuSans-6e" x="856.128906"/>
      <use xlink:href="#DejaVuSans-6f" x="919.507812"/>
      <use xlink:href="#DejaVuSans-77" x="980.689453"/>
      <use xlink:href="#DejaVuSans-6e" x="1062.476562"/>
     </g>
    </g>
   </g>
  </g>
 </g>
 <defs>
  <clipPath id="pab6e41cee3">
   <rect x="61.49" y="67.730702" width="378.783921" height="212.818597"/>
  </clipPath>
 </defs>
</svg>
