<?xml version="1.0" encoding="utf-8" standalone="no"?>
<!DOCTYPE svg PUBLIC "-//W3C//DTD SVG 1.1//EN"
  "http://www.w3.org/Graphics/SVG/1.1/DTD/svg11.dtd">
<svg xmlns:xlink="http://www.w3.org/1999/xlink" width="460.8pt" height="345.6pt" viewBox="0 0 460.8 345.6" xmlns="http://www.w3.org/2000/svg" version="1.1">
 <metadata>
  <rdf:RDF xmlns:dc="http://purl.org/dc/elements/1.1/" xmlns:cc="http://creativecommons.org/ns#" xmlns:rdf="http://www.w3.org/1999/02/22-rdf-syntax-ns#">
   <cc:Work>
    <dc:type rdf:resource="http://purl.org/dc/dcmitype/StillImage"/>
    <dc:date>2023-06-23T10:38:50.549103</dc:date>
    <dc:format>image/svg+xml</dc:format>
    <dc:creator>
     <cc:Agent>
      <dc:title>Matplotlib v3.7.1, https://matplotlib.org/</dc:title>
     </cc:Agent>
    </dc:creator>
   </cc:Work>
  </rdf:RDF>
 </metadata>
 <defs>
  <style type="text/css">*{stroke-linejoin: round; stroke-linecap: butt}</style>
 </defs>
 <g id="figure_1">
  <g id="patch_1">
   <path d="M 0 345.6 
L 460.8 345.6 
L 460.8 0 
L 0 0 
z
" style="fill: #ffffff"/>
  </g>
  <g id="axes_1">
   <g id="patch_2">
    <path d="M 62.48 298.6 
L 450 298.6 
L 450 48.96 
L 62.48 48.96 
z
" style="fill: #ffffff"/>
   </g>
   <g id="PolyCollection_1">
    <path d="M 30.481965 235.246259 
L 30.481965 298.6 
L 39.420259 298.6 
L 48.252775 298.6 
L 66.393809 298.6 
L 87.443756 298.6 
L 102.940325 298.6 
L 112.56618 298.6 
L 115.051978 298.6 
L 119.653348 298.6 
L 121.76892 298.6 
L 122.033367 298.6 
L 125.524062 298.6 
L 126.42318 298.6 
L 127.16363 298.6 
L 128.062749 298.6 
L 128.644531 298.6 
L 129.54365 298.6 
L 130.072543 298.6 
L 131.02455 298.6 
L 132.293894 298.6 
L 133.298791 298.6 
L 133.669016 298.6 
L 134.726802 298.6 
L 135.467253 298.6 
L 136.260592 298.6 
L 137.106821 298.6 
L 137.688604 298.6 
L 138.217497 298.6 
L 139.698398 298.6 
L 140.756184 298.6 
L 141.549524 298.6 
L 141.761081 298.6 
L 142.501531 298.6 
L 143.612207 298.6 
L 144.775772 298.6 
L 145.569112 298.6 
L 146.732676 298.6 
L 148.266466 298.6 
L 150.382039 298.6 
L 152.233165 298.6 
L 153.819844 298.6 
L 156.781646 298.6 
L 158.050989 298.6 
L 161.488795 298.6 
L 163.710146 298.6 
L 165.085268 298.6 
L 165.931497 298.6 
L 169.263524 298.6 
L 171.11465 298.6 
L 173.018665 298.6 
L 176.773806 298.6 
L 180.264501 298.6 
L 180.846284 298.6 
L 181.533845 298.6 
L 182.591631 298.6 
L 183.43786 298.6 
L 186.029436 298.6 
L 191.212589 298.6 
L 192.217486 298.6 
L 197.083303 298.6 
L 198.193978 298.6 
L 199.304654 298.6 
L 201.102891 298.6 
L 202.583791 298.6 
L 204.011803 298.6 
L 204.910921 298.6 
L 207.819833 298.6 
L 210.834524 298.6 
L 212.315425 298.6 
L 213.373211 298.6 
L 214.695444 298.6 
L 215.80612 298.6 
L 217.128353 298.6 
L 220.248822 298.6 
L 221.888391 298.6 
L 223.47507 298.6 
L 225.114639 298.6 
L 226.701318 298.6 
L 228.340887 298.6 
L 229.980456 298.6 
L 231.514246 298.6 
L 233.153815 298.6 
L 234.740494 298.6 
L 236.380063 298.6 
L 237.966742 298.6 
L 239.606311 298.6 
L 241.24588 298.6 
L 242.832559 298.6 
L 244.472128 298.6 
L 246.058807 298.6 
L 247.698376 298.6 
L 249.337945 298.6 
L 250.818845 298.6 
L 252.458414 298.6 
L 254.045093 298.6 
L 255.684662 298.6 
L 257.271342 298.6 
L 258.91091 298.6 
L 260.550479 298.6 
L 262.137158 298.6 
L 263.776727 298.6 
L 265.363407 298.6 
L 267.002975 298.6 
L 268.642544 298.6 
L 270.123445 298.6 
L 271.763014 298.6 
L 273.349693 298.6 
L 274.989262 298.6 
L 276.575941 298.6 
L 278.21551 298.6 
L 279.855078 298.6 
L 281.441758 298.6 
L 283.081327 298.6 
L 284.668006 298.6 
L 286.307575 298.6 
L 287.947143 298.6 
L 289.428044 298.6 
L 291.067613 298.6 
L 292.654292 298.6 
L 294.293861 298.6 
L 295.88054 298.6 
L 297.520109 298.6 
L 299.159678 298.6 
L 300.746357 298.6 
L 302.385926 298.6 
L 303.972605 298.6 
L 305.612174 298.6 
L 307.251743 298.6 
L 308.785533 298.6 
L 310.425102 298.6 
L 312.011781 298.6 
L 313.65135 298.6 
L 315.238029 298.6 
L 316.877598 298.6 
L 318.517167 298.6 
L 320.103846 298.6 
L 321.743415 298.6 
L 323.330094 298.6 
L 324.969663 298.6 
L 326.609232 298.6 
L 328.090132 298.6 
L 329.729701 298.6 
L 331.316381 298.6 
L 332.955949 298.6 
L 334.542629 298.6 
L 336.182197 298.6 
L 337.821766 298.6 
L 339.408445 298.6 
L 341.048014 298.6 
L 342.634694 298.6 
L 344.274262 298.6 
L 345.913831 298.6 
L 347.394732 298.6 
L 349.034301 298.6 
L 350.62098 298.6 
L 352.260549 298.6 
L 353.847228 298.6 
L 355.486797 298.6 
L 357.126365 298.6 
L 358.713045 298.6 
L 360.352614 298.6 
L 361.939293 298.6 
L 363.578862 298.6 
L 365.21843 298.6 
L 366.699331 298.6 
L 368.3389 298.6 
L 369.925579 298.6 
L 371.565148 298.6 
L 373.151827 298.6 
L 374.791396 298.6 
L 376.430965 298.6 
L 378.017644 298.6 
L 379.657213 298.6 
L 381.243892 298.6 
L 382.883461 298.6 
L 384.52303 298.6 
L 386.05682 298.6 
L 387.696389 298.6 
L 389.283068 298.6 
L 390.922637 298.6 
L 392.509316 298.6 
L 394.148885 298.6 
L 395.788454 298.6 
L 397.375133 298.6 
L 399.014702 298.6 
L 400.601381 298.6 
L 402.24095 298.6 
L 403.880519 298.6 
L 405.361419 298.6 
L 407.000988 298.6 
L 408.587668 298.6 
L 410.227236 298.6 
L 411.813916 298.6 
L 413.453484 298.6 
L 415.093053 298.6 
L 416.679732 298.6 
L 418.319301 298.6 
L 419.905981 298.6 
L 421.545549 298.6 
L 423.185118 298.6 
L 424.666019 298.6 
L 426.305588 298.6 
L 427.892267 298.6 
L 429.531836 298.6 
L 431.118515 298.6 
L 432.758084 298.6 
L 434.397653 298.6 
L 435.984332 298.6 
L 437.623901 298.6 
L 439.21058 298.6 
L 440.850149 298.6 
L 442.489717 298.6 
L 443.970618 298.6 
L 445.610187 298.6 
L 447.196866 298.6 
L 448.836435 298.6 
L 448.836435 181.224416 
L 448.836435 181.224416 
L 447.196866 181.365098 
L 445.610187 181.365098 
L 443.970618 181.787144 
L 442.489717 182.490553 
L 440.850149 182.443659 
L 439.21058 182.584341 
L 437.623901 182.725023 
L 435.984332 183.006387 
L 434.397653 183.006387 
L 432.758084 183.053281 
L 431.118515 183.053281 
L 429.531836 183.006387 
L 427.892267 183.100175 
L 426.305588 183.006387 
L 424.666019 182.959493 
L 423.185118 183.006387 
L 421.545549 183.006387 
L 419.905981 183.240857 
L 418.319301 183.475326 
L 416.679732 183.850478 
L 415.093053 184.131842 
L 413.453484 184.084948 
L 411.813916 184.319418 
L 410.227236 184.647675 
L 408.587668 184.647675 
L 407.000988 184.835251 
L 405.361419 185.444873 
L 403.880519 185.585555 
L 402.24095 186.101388 
L 400.601381 186.148282 
L 399.014702 186.335858 
L 397.375133 186.429646 
L 395.788454 186.617222 
L 394.148885 186.664116 
L 392.509316 186.757904 
L 390.922637 186.757904 
L 389.283068 186.851692 
L 387.696389 187.273737 
L 386.05682 187.414419 
L 384.52303 187.508207 
L 382.883461 187.601995 
L 381.243892 187.601995 
L 379.657213 187.601995 
L 378.017644 187.742677 
L 376.430965 187.836465 
L 374.791396 188.024041 
L 373.151827 188.305404 
L 371.565148 188.446086 
L 369.925579 188.539874 
L 368.3389 188.633662 
L 366.699331 188.680556 
L 365.21843 188.680556 
L 363.578862 188.72745 
L 361.939293 188.774344 
L 360.352614 188.868132 
L 358.713045 188.915026 
L 357.126365 188.915026 
L 355.486797 189.055708 
L 353.847228 189.19639 
L 352.260549 189.477753 
L 350.62098 189.665329 
L 349.034301 190.040481 
L 347.394732 190.228057 
L 345.913831 190.415633 
L 344.274262 190.462527 
L 342.634694 190.650102 
L 341.048014 190.837678 
L 339.408445 192.901012 
L 337.821766 193.22927 
L 336.182197 194.120255 
L 334.542629 193.369952 
L 332.955949 193.276164 
L 331.316381 193.323058 
L 329.729701 193.416846 
L 328.090132 193.745104 
L 326.609232 193.791998 
L 324.969663 193.885786 
L 323.330094 194.776771 
L 321.743415 194.917453 
L 320.103846 195.151923 
L 318.517167 195.245711 
L 316.877598 195.386392 
L 315.238029 195.902226 
L 313.65135 196.136696 
L 312.011781 196.136696 
L 310.425102 196.605635 
L 308.785533 196.699423 
L 307.251743 196.746317 
L 305.612174 196.980787 
L 303.972605 197.074575 
L 302.385926 197.074575 
L 300.746357 197.309045 
L 299.159678 197.355939 
L 297.520109 197.402833 
L 295.88054 197.590409 
L 294.293861 197.73109 
L 292.654292 197.027681 
L 291.067613 197.121469 
L 289.428044 197.355939 
L 287.947143 197.355939 
L 286.307575 197.637303 
L 284.668006 197.824878 
L 283.081327 198.153136 
L 281.441758 198.575182 
L 279.855078 198.950333 
L 278.21551 199.044121 
L 276.575941 199.372379 
L 274.989262 199.653743 
L 273.349693 200.075788 
L 271.763014 200.263364 
L 270.123445 200.497834 
L 268.642544 200.544728 
L 267.002975 200.544728 
L 265.363407 200.779198 
L 263.776727 201.341925 
L 262.137158 201.388819 
L 260.550479 201.670183 
L 258.91091 202.46738 
L 257.271342 202.561168 
L 255.684662 203.123896 
L 254.045093 203.499048 
L 252.458414 204.765185 
L 250.818845 204.858972 
L 249.337945 204.999654 
L 247.698376 205.327912 
L 246.058807 205.4217 
L 244.472128 205.703064 
L 242.832559 205.937534 
L 241.24588 206.359579 
L 239.606311 206.594049 
L 237.966742 206.734731 
L 236.380063 207.016095 
L 234.740494 207.062989 
L 233.153815 207.203671 
L 231.514246 207.391246 
L 229.980456 207.391246 
L 228.340887 207.485034 
L 226.701318 207.531928 
L 225.114639 207.578822 
L 223.47507 207.625716 
L 221.888391 207.67261 
L 220.248822 207.813292 
L 217.128353 208.704277 
L 215.80612 208.938747 
L 214.695444 208.985641 
L 213.373211 208.844959 
L 212.315425 208.844959 
L 210.834524 208.985641 
L 207.819833 209.126323 
L 204.910921 209.876626 
L 204.011803 211.002081 
L 202.583791 210.814505 
L 201.102891 210.767612 
L 199.304654 211.611703 
L 198.193978 211.611703 
L 197.083303 211.330339 
L 192.217486 211.939961 
L 191.212589 212.033748 
L 186.029436 212.830946 
L 183.43786 212.924734 
L 182.591631 212.737158 
L 181.533845 212.87784 
L 180.846284 213.11231 
L 180.264501 213.159204 
L 176.773806 213.299885 
L 173.018665 213.393673 
L 171.11465 213.628143 
L 169.263524 216.113523 
L 165.931497 216.019735 
L 165.085268 216.066629 
L 163.710146 216.582463 
L 161.488795 217.895494 
L 158.050989 218.176857 
L 156.781646 218.645797 
L 153.819844 218.974055 
L 152.233165 219.958828 
L 150.382039 220.615343 
L 148.266466 221.131177 
L 146.732676 221.178071 
L 145.569112 221.271859 
L 144.775772 221.318753 
L 143.612207 221.365647 
L 142.501531 222.209738 
L 141.761081 222.631784 
L 141.549524 222.631784 
L 140.756184 222.631784 
L 139.698398 222.913147 
L 138.217497 222.631784 
L 137.688604 222.866253 
L 137.106821 222.960041 
L 136.260592 223.100723 
L 135.467253 223.100723 
L 134.726802 223.475875 
L 133.669016 224.319966 
L 133.298791 224.273072 
L 132.293894 224.695118 
L 131.02455 224.788906 
L 130.072543 224.882694 
L 129.54365 224.976482 
L 128.644531 225.117164 
L 128.062749 225.398527 
L 127.16363 225.632997 
L 126.42318 225.539209 
L 125.524062 225.632997 
L 122.033367 225.961255 
L 121.76892 225.914361 
L 119.653348 226.289513 
L 115.051978 224.038602 
L 112.56618 227.368074 
L 102.940325 231.729212 
L 87.443756 235.808987 
L 66.393809 241.06111 
L 48.252775 235.011789 
L 39.420259 234.261486 
L 30.481965 235.246259 
z
" clip-path="url(#p4b72dc7753)" style="fill: #1f77b4"/>
   </g>
   <g id="PolyCollection_2">
    <path d="M 30.481965 138.832276 
L 30.481965 235.246259 
L 39.420259 234.261486 
L 48.252775 235.011789 
L 66.393809 241.06111 
L 87.443756 235.808987 
L 102.940325 231.729212 
L 112.56618 227.368074 
L 115.051978 224.038602 
L 119.653348 226.289513 
L 121.76892 225.914361 
L 122.033367 225.961255 
L 125.524062 225.632997 
L 126.42318 225.539209 
L 127.16363 225.632997 
L 128.062749 225.398527 
L 128.644531 225.117164 
L 129.54365 224.976482 
L 130.072543 224.882694 
L 131.02455 224.788906 
L 132.293894 224.695118 
L 133.298791 224.273072 
L 133.669016 224.319966 
L 134.726802 223.475875 
L 135.467253 223.100723 
L 136.260592 223.100723 
L 137.106821 222.960041 
L 137.688604 222.866253 
L 138.217497 222.631784 
L 139.698398 222.913147 
L 140.756184 222.631784 
L 141.549524 222.631784 
L 141.761081 222.631784 
L 142.501531 222.209738 
L 143.612207 221.365647 
L 144.775772 221.318753 
L 145.569112 221.271859 
L 146.732676 221.178071 
L 148.266466 221.131177 
L 150.382039 220.615343 
L 152.233165 219.958828 
L 153.819844 218.974055 
L 156.781646 218.645797 
L 158.050989 218.176857 
L 161.488795 217.895494 
L 163.710146 216.582463 
L 165.085268 216.066629 
L 165.931497 216.019735 
L 169.263524 216.113523 
L 171.11465 213.628143 
L 173.018665 213.393673 
L 176.773806 213.299885 
L 180.264501 213.159204 
L 180.846284 213.11231 
L 181.533845 212.87784 
L 182.591631 212.737158 
L 183.43786 212.924734 
L 186.029436 212.830946 
L 191.212589 212.033748 
L 192.217486 211.939961 
L 197.083303 211.330339 
L 198.193978 211.611703 
L 199.304654 211.611703 
L 201.102891 210.767612 
L 202.583791 210.814505 
L 204.011803 211.002081 
L 204.910921 209.876626 
L 207.819833 209.126323 
L 210.834524 208.985641 
L 212.315425 208.844959 
L 213.373211 208.844959 
L 214.695444 208.985641 
L 215.80612 208.938747 
L 217.128353 208.704277 
L 220.248822 207.813292 
L 221.888391 207.67261 
L 223.47507 207.625716 
L 225.114639 207.578822 
L 226.701318 207.531928 
L 228.340887 207.485034 
L 229.980456 207.391246 
L 231.514246 207.391246 
L 233.153815 207.203671 
L 234.740494 207.062989 
L 236.380063 207.016095 
L 237.966742 206.734731 
L 239.606311 206.594049 
L 241.24588 206.359579 
L 242.832559 205.937534 
L 244.472128 205.703064 
L 246.058807 205.4217 
L 247.698376 205.327912 
L 249.337945 204.999654 
L 250.818845 204.858972 
L 252.458414 204.765185 
L 254.045093 203.499048 
L 255.684662 203.123896 
L 257.271342 202.561168 
L 258.91091 202.46738 
L 260.550479 201.670183 
L 262.137158 201.388819 
L 263.776727 201.341925 
L 265.363407 200.779198 
L 267.002975 200.544728 
L 268.642544 200.544728 
L 270.123445 200.497834 
L 271.763014 200.263364 
L 273.349693 200.075788 
L 274.989262 199.653743 
L 276.575941 199.372379 
L 278.21551 199.044121 
L 279.855078 198.950333 
L 281.441758 198.575182 
L 283.081327 198.153136 
L 284.668006 197.824878 
L 286.307575 197.637303 
L 287.947143 197.355939 
L 289.428044 197.355939 
L 291.067613 197.121469 
L 292.654292 197.027681 
L 294.293861 197.73109 
L 295.88054 197.590409 
L 297.520109 197.402833 
L 299.159678 197.355939 
L 300.746357 197.309045 
L 302.385926 197.074575 
L 303.972605 197.074575 
L 305.612174 196.980787 
L 307.251743 196.746317 
L 308.785533 196.699423 
L 310.425102 196.605635 
L 312.011781 196.136696 
L 313.65135 196.136696 
L 315.238029 195.902226 
L 316.877598 195.386392 
L 318.517167 195.245711 
L 320.103846 195.151923 
L 321.743415 194.917453 
L 323.330094 194.776771 
L 324.969663 193.885786 
L 326.609232 193.791998 
L 328.090132 193.745104 
L 329.729701 193.416846 
L 331.316381 193.323058 
L 332.955949 193.276164 
L 334.542629 193.369952 
L 336.182197 194.120255 
L 337.821766 193.22927 
L 339.408445 192.901012 
L 341.048014 190.837678 
L 342.634694 190.650102 
L 344.274262 190.462527 
L 345.913831 190.415633 
L 347.394732 190.228057 
L 349.034301 190.040481 
L 350.62098 189.665329 
L 352.260549 189.477753 
L 353.847228 189.19639 
L 355.486797 189.055708 
L 357.126365 188.915026 
L 358.713045 188.915026 
L 360.352614 188.868132 
L 361.939293 188.774344 
L 363.578862 188.72745 
L 365.21843 188.680556 
L 366.699331 188.680556 
L 368.3389 188.633662 
L 369.925579 188.539874 
L 371.565148 188.446086 
L 373.151827 188.305404 
L 374.791396 188.024041 
L 376.430965 187.836465 
L 378.017644 187.742677 
L 379.657213 187.601995 
L 381.243892 187.601995 
L 382.883461 187.601995 
L 384.52303 187.508207 
L 386.05682 187.414419 
L 387.696389 187.273737 
L 389.283068 186.851692 
L 390.922637 186.757904 
L 392.509316 186.757904 
L 394.148885 186.664116 
L 395.788454 186.617222 
L 397.375133 186.429646 
L 399.014702 186.335858 
L 400.601381 186.148282 
L 402.24095 186.101388 
L 403.880519 185.585555 
L 405.361419 185.444873 
L 407.000988 184.835251 
L 408.587668 184.647675 
L 410.227236 184.647675 
L 411.813916 184.319418 
L 413.453484 184.084948 
L 415.093053 184.131842 
L 416.679732 183.850478 
L 418.319301 183.475326 
L 419.905981 183.240857 
L 421.545549 183.006387 
L 423.185118 183.006387 
L 424.666019 182.959493 
L 426.305588 183.006387 
L 427.892267 183.100175 
L 429.531836 183.006387 
L 431.118515 183.053281 
L 432.758084 183.053281 
L 434.397653 183.006387 
L 435.984332 183.006387 
L 437.623901 182.725023 
L 439.21058 182.584341 
L 440.850149 182.443659 
L 442.489717 182.490553 
L 443.970618 181.787144 
L 445.610187 181.365098 
L 447.196866 181.365098 
L 448.836435 181.224416 
L 448.836435 91.375587 
L 448.836435 91.375587 
L 447.196866 91.516269 
L 445.610187 91.516269 
L 443.970618 91.563163 
L 442.489717 91.750739 
L 440.850149 91.891421 
L 439.21058 91.985209 
L 437.623901 91.985209 
L 435.984332 92.032103 
L 434.397653 91.891421 
L 432.758084 91.938315 
L 431.118515 91.938315 
L 429.531836 92.172785 
L 427.892267 92.125891 
L 426.305588 92.125891 
L 424.666019 92.172785 
L 423.185118 92.266573 
L 421.545549 92.266573 
L 419.905981 92.407255 
L 418.319301 92.360361 
L 416.679732 92.501043 
L 415.093053 92.547937 
L 413.453484 92.59483 
L 411.813916 92.641724 
L 410.227236 92.688618 
L 408.587668 92.641724 
L 407.000988 92.782406 
L 405.361419 93.016876 
L 403.880519 93.204452 
L 402.24095 93.251346 
L 400.601381 93.251346 
L 399.014702 93.345134 
L 397.375133 93.392028 
L 395.788454 93.485816 
L 394.148885 93.485816 
L 392.509316 93.53271 
L 390.922637 93.579604 
L 389.283068 93.438922 
L 387.696389 93.392028 
L 386.05682 93.438922 
L 384.52303 93.345134 
L 382.883461 93.345134 
L 381.243892 93.345134 
L 379.657213 93.345134 
L 378.017644 93.345134 
L 376.430965 93.392028 
L 374.791396 93.345134 
L 373.151827 93.392028 
L 371.565148 93.392028 
L 369.925579 93.251346 
L 368.3389 93.251346 
L 366.699331 93.29824 
L 365.21843 93.29824 
L 363.578862 93.392028 
L 361.939293 93.392028 
L 360.352614 93.485816 
L 358.713045 93.485816 
L 357.126365 93.485816 
L 355.486797 93.53271 
L 353.847228 93.53271 
L 352.260549 93.53271 
L 350.62098 93.579604 
L 349.034301 93.626498 
L 347.394732 94.001649 
L 345.913831 94.142331 
L 344.274262 94.048543 
L 342.634694 94.142331 
L 341.048014 94.283013 
L 339.408445 94.329907 
L 337.821766 94.986422 
L 336.182197 95.361574 
L 334.542629 97.940742 
L 332.955949 99.394455 
L 331.316381 99.910288 
L 329.729701 99.910288 
L 328.090132 100.28544 
L 326.609232 100.191652 
L 324.969663 99.253773 
L 323.330094 99.488243 
L 321.743415 100.004076 
L 320.103846 100.004076 
L 318.517167 99.863394 
L 316.877598 100.05097 
L 315.238029 100.097864 
L 313.65135 100.097864 
L 312.011781 100.144758 
L 310.425102 100.238546 
L 308.785533 100.238546 
L 307.251743 100.28544 
L 305.612174 100.28544 
L 303.972605 100.426122 
L 302.385926 100.473016 
L 300.746357 100.51991 
L 299.159678 100.51991 
L 297.520109 100.473016 
L 295.88054 100.51991 
L 294.293861 100.473016 
L 292.654292 101.223319 
L 291.067613 101.176425 
L 289.428044 101.270213 
L 287.947143 101.364001 
L 286.307575 101.504683 
L 284.668006 101.457789 
L 283.081327 101.786047 
L 281.441758 101.926729 
L 279.855078 102.114304 
L 278.21551 102.348774 
L 276.575941 102.395668 
L 274.989262 102.30188 
L 273.349693 102.395668 
L 271.763014 102.442562 
L 270.123445 102.442562 
L 268.642544 102.442562 
L 267.002975 102.442562 
L 265.363407 102.630138 
L 263.776727 102.723926 
L 262.137158 103.00529 
L 260.550479 103.052184 
L 258.91091 103.333547 
L 257.271342 103.427335 
L 255.684662 103.708699 
L 254.045093 103.849381 
L 252.458414 104.036957 
L 250.818845 104.083851 
L 249.337945 104.130745 
L 247.698376 104.318321 
L 246.058807 104.318321 
L 244.472128 104.55279 
L 242.832559 104.881048 
L 241.24588 105.068624 
L 239.606311 105.2562 
L 237.966742 105.49067 
L 236.380063 105.584458 
L 234.740494 105.959609 
L 233.153815 105.959609 
L 231.514246 106.006503 
L 229.980456 106.006503 
L 228.340887 106.006503 
L 226.701318 106.006503 
L 225.114639 106.006503 
L 223.47507 106.053397 
L 221.888391 106.240973 
L 220.248822 106.334761 
L 217.128353 106.897488 
L 215.80612 107.600898 
L 214.695444 107.929156 
L 213.373211 107.27264 
L 212.315425 107.647792 
L 210.834524 107.788474 
L 207.819833 107.97605 
L 204.910921 107.97605 
L 204.011803 108.163625 
L 202.583791 108.773247 
L 201.102891 108.726353 
L 199.304654 109.804914 
L 198.193978 109.804914 
L 197.083303 110.320748 
L 192.217486 110.649005 
L 191.212589 110.742793 
L 186.029436 112.055824 
L 183.43786 113.228173 
L 182.591631 113.275067 
L 181.533845 113.275067 
L 180.846284 113.275067 
L 180.264501 113.321961 
L 176.773806 112.806128 
L 173.018665 113.415749 
L 171.11465 113.650219 
L 169.263524 113.884689 
L 165.931497 114.025371 
L 165.085268 114.119158 
L 163.710146 114.353628 
L 161.488795 114.72878 
L 158.050989 114.541204 
L 156.781646 114.916356 
L 153.819844 114.869462 
L 152.233165 114.775674 
L 150.382039 115.19772 
L 148.266466 115.103932 
L 146.732676 114.96325 
L 145.569112 115.291507 
L 144.775772 115.338401 
L 143.612207 114.447416 
L 142.501531 114.49431 
L 141.761081 114.681886 
L 141.549524 114.681886 
L 140.756184 114.634992 
L 139.698398 115.244614 
L 138.217497 114.588098 
L 137.688604 114.588098 
L 137.106821 114.634992 
L 136.260592 114.681886 
L 135.467253 114.447416 
L 134.726802 114.96325 
L 133.669016 115.103932 
L 133.298791 114.822568 
L 132.293894 115.010144 
L 131.02455 114.96325 
L 130.072543 115.572871 
L 129.54365 115.479083 
L 128.644531 115.479083 
L 128.062749 113.368855 
L 127.16363 113.837795 
L 126.42318 112.665446 
L 125.524062 112.384082 
L 122.033367 112.71234 
L 121.76892 112.524764 
L 119.653348 112.853022 
L 115.051978 114.96325 
L 112.56618 115.994917 
L 102.940325 118.480297 
L 87.443756 122.044238 
L 66.393809 126.592952 
L 48.252775 133.861516 
L 39.420259 138.457124 
L 30.481965 138.832276 
z
" clip-path="url(#p4b72dc7753)" style="fill: #ff7f0e"/>
   </g>
   <g id="PolyCollection_3">
    <path d="M 30.481965 101.879835 
L 30.481965 138.832276 
L 39.420259 138.457124 
L 48.252775 133.861516 
L 66.393809 126.592952 
L 87.443756 122.044238 
L 102.940325 118.480297 
L 112.56618 115.994917 
L 115.051978 114.96325 
L 119.653348 112.853022 
L 121.76892 112.524764 
L 122.033367 112.71234 
L 125.524062 112.384082 
L 126.42318 112.665446 
L 127.16363 113.837795 
L 128.062749 113.368855 
L 128.644531 115.479083 
L 129.54365 115.479083 
L 130.072543 115.572871 
L 131.02455 114.96325 
L 132.293894 115.010144 
L 133.298791 114.822568 
L 133.669016 115.103932 
L 134.726802 114.96325 
L 135.467253 114.447416 
L 136.260592 114.681886 
L 137.106821 114.634992 
L 137.688604 114.588098 
L 138.217497 114.588098 
L 139.698398 115.244614 
L 140.756184 114.634992 
L 141.549524 114.681886 
L 141.761081 114.681886 
L 142.501531 114.49431 
L 143.612207 114.447416 
L 144.775772 115.338401 
L 145.569112 115.291507 
L 146.732676 114.96325 
L 148.266466 115.103932 
L 150.382039 115.19772 
L 152.233165 114.775674 
L 153.819844 114.869462 
L 156.781646 114.916356 
L 158.050989 114.541204 
L 161.488795 114.72878 
L 163.710146 114.353628 
L 165.085268 114.119158 
L 165.931497 114.025371 
L 169.263524 113.884689 
L 171.11465 113.650219 
L 173.018665 113.415749 
L 176.773806 112.806128 
L 180.264501 113.321961 
L 180.846284 113.275067 
L 181.533845 113.275067 
L 182.591631 113.275067 
L 183.43786 113.228173 
L 186.029436 112.055824 
L 191.212589 110.742793 
L 192.217486 110.649005 
L 197.083303 110.320748 
L 198.193978 109.804914 
L 199.304654 109.804914 
L 201.102891 108.726353 
L 202.583791 108.773247 
L 204.011803 108.163625 
L 204.910921 107.97605 
L 207.819833 107.97605 
L 210.834524 107.788474 
L 212.315425 107.647792 
L 213.373211 107.27264 
L 214.695444 107.929156 
L 215.80612 107.600898 
L 217.128353 106.897488 
L 220.248822 106.334761 
L 221.888391 106.240973 
L 223.47507 106.053397 
L 225.114639 106.006503 
L 226.701318 106.006503 
L 228.340887 106.006503 
L 229.980456 106.006503 
L 231.514246 106.006503 
L 233.153815 105.959609 
L 234.740494 105.959609 
L 236.380063 105.584458 
L 237.966742 105.49067 
L 239.606311 105.2562 
L 241.24588 105.068624 
L 242.832559 104.881048 
L 244.472128 104.55279 
L 246.058807 104.318321 
L 247.698376 104.318321 
L 249.337945 104.130745 
L 250.818845 104.083851 
L 252.458414 104.036957 
L 254.045093 103.849381 
L 255.684662 103.708699 
L 257.271342 103.427335 
L 258.91091 103.333547 
L 260.550479 103.052184 
L 262.137158 103.00529 
L 263.776727 102.723926 
L 265.363407 102.630138 
L 267.002975 102.442562 
L 268.642544 102.442562 
L 270.123445 102.442562 
L 271.763014 102.442562 
L 273.349693 102.395668 
L 274.989262 102.30188 
L 276.575941 102.395668 
L 278.21551 102.348774 
L 279.855078 102.114304 
L 281.441758 101.926729 
L 283.081327 101.786047 
L 284.668006 101.457789 
L 286.307575 101.504683 
L 287.947143 101.364001 
L 289.428044 101.270213 
L 291.067613 101.176425 
L 292.654292 101.223319 
L 294.293861 100.473016 
L 295.88054 100.51991 
L 297.520109 100.473016 
L 299.159678 100.51991 
L 300.746357 100.51991 
L 302.385926 100.473016 
L 303.972605 100.426122 
L 305.612174 100.28544 
L 307.251743 100.28544 
L 308.785533 100.238546 
L 310.425102 100.238546 
L 312.011781 100.144758 
L 313.65135 100.097864 
L 315.238029 100.097864 
L 316.877598 100.05097 
L 318.517167 99.863394 
L 320.103846 100.004076 
L 321.743415 100.004076 
L 323.330094 99.488243 
L 324.969663 99.253773 
L 326.609232 100.191652 
L 328.090132 100.28544 
L 329.729701 99.910288 
L 331.316381 99.910288 
L 332.955949 99.394455 
L 334.542629 97.940742 
L 336.182197 95.361574 
L 337.821766 94.986422 
L 339.408445 94.329907 
L 341.048014 94.283013 
L 342.634694 94.142331 
L 344.274262 94.048543 
L 345.913831 94.142331 
L 347.394732 94.001649 
L 349.034301 93.626498 
L 350.62098 93.579604 
L 352.260549 93.53271 
L 353.847228 93.53271 
L 355.486797 93.53271 
L 357.126365 93.485816 
L 358.713045 93.485816 
L 360.352614 93.485816 
L 361.939293 93.392028 
L 363.578862 93.392028 
L 365.21843 93.29824 
L 366.699331 93.29824 
L 368.3389 93.251346 
L 369.925579 93.251346 
L 371.565148 93.392028 
L 373.151827 93.392028 
L 374.791396 93.345134 
L 376.430965 93.392028 
L 378.017644 93.345134 
L 379.657213 93.345134 
L 381.243892 93.345134 
L 382.883461 93.345134 
L 384.52303 93.345134 
L 386.05682 93.438922 
L 387.696389 93.392028 
L 389.283068 93.438922 
L 390.922637 93.579604 
L 392.509316 93.53271 
L 394.148885 93.485816 
L 395.788454 93.485816 
L 397.375133 93.392028 
L 399.014702 93.345134 
L 400.601381 93.251346 
L 402.24095 93.251346 
L 403.880519 93.204452 
L 405.361419 93.016876 
L 407.000988 92.782406 
L 408.587668 92.641724 
L 410.227236 92.688618 
L 411.813916 92.641724 
L 413.453484 92.59483 
L 415.093053 92.547937 
L 416.679732 92.501043 
L 418.319301 92.360361 
L 419.905981 92.407255 
L 421.545549 92.266573 
L 423.185118 92.266573 
L 424.666019 92.172785 
L 426.305588 92.125891 
L 427.892267 92.125891 
L 429.531836 92.172785 
L 431.118515 91.938315 
L 432.758084 91.938315 
L 434.397653 91.891421 
L 435.984332 92.032103 
L 437.623901 91.985209 
L 439.21058 91.985209 
L 440.850149 91.891421 
L 442.489717 91.750739 
L 443.970618 91.563163 
L 445.610187 91.516269 
L 447.196866 91.516269 
L 448.836435 91.375587 
L 448.836435 73.790352 
L 448.836435 73.790352 
L 447.196866 73.790352 
L 445.610187 73.790352 
L 443.970618 73.790352 
L 442.489717 73.837246 
L 440.850149 73.837246 
L 439.21058 73.931034 
L 437.623901 73.931034 
L 435.984332 73.977928 
L 434.397653 73.977928 
L 432.758084 73.977928 
L 431.118515 73.977928 
L 429.531836 74.071716 
L 427.892267 74.165504 
L 426.305588 74.165504 
L 424.666019 74.165504 
L 423.185118 74.165504 
L 421.545549 74.165504 
L 419.905981 74.212398 
L 418.319301 74.165504 
L 416.679732 74.259292 
L 415.093053 74.259292 
L 413.453484 74.259292 
L 411.813916 74.306186 
L 410.227236 74.306186 
L 408.587668 74.306186 
L 407.000988 74.35308 
L 405.361419 74.399974 
L 403.880519 74.446868 
L 402.24095 74.446868 
L 400.601381 74.399974 
L 399.014702 74.399974 
L 397.375133 74.399974 
L 395.788454 74.35308 
L 394.148885 74.35308 
L 392.509316 74.399974 
L 390.922637 74.399974 
L 389.283068 74.306186 
L 387.696389 74.259292 
L 386.05682 74.259292 
L 384.52303 74.306186 
L 382.883461 74.306186 
L 381.243892 74.306186 
L 379.657213 74.306186 
L 378.017644 74.306186 
L 376.430965 74.306186 
L 374.791396 74.306186 
L 373.151827 74.306186 
L 371.565148 74.306186 
L 369.925579 74.212398 
L 368.3389 74.212398 
L 366.699331 74.212398 
L 365.21843 74.212398 
L 363.578862 74.165504 
L 361.939293 74.165504 
L 360.352614 74.259292 
L 358.713045 74.259292 
L 357.126365 74.259292 
L 355.486797 74.306186 
L 353.847228 74.306186 
L 352.260549 74.306186 
L 350.62098 74.35308 
L 349.034301 74.399974 
L 347.394732 74.493762 
L 345.913831 74.493762 
L 344.274262 74.493762 
L 342.634694 74.681337 
L 341.048014 74.681337 
L 339.408445 74.681337 
L 337.821766 74.540656 
L 336.182197 74.58755 
L 334.542629 74.822019 
L 332.955949 75.947474 
L 331.316381 76.13505 
L 329.729701 76.181944 
L 328.090132 76.228838 
L 326.609232 76.228838 
L 324.969663 76.228838 
L 323.330094 76.228838 
L 321.743415 76.275732 
L 320.103846 76.275732 
L 318.517167 76.322626 
L 316.877598 76.36952 
L 315.238029 76.416414 
L 313.65135 76.416414 
L 312.011781 76.416414 
L 310.425102 76.416414 
L 308.785533 76.416414 
L 307.251743 76.463308 
L 305.612174 76.463308 
L 303.972605 76.510202 
L 302.385926 76.557096 
L 300.746357 76.557096 
L 299.159678 76.557096 
L 297.520109 76.557096 
L 295.88054 76.557096 
L 294.293861 76.557096 
L 292.654292 76.557096 
L 291.067613 76.557096 
L 289.428044 76.650884 
L 287.947143 76.650884 
L 286.307575 76.650884 
L 284.668006 76.697778 
L 283.081327 76.697778 
L 281.441758 76.744672 
L 279.855078 76.932248 
L 278.21551 78.057703 
L 276.575941 78.057703 
L 274.989262 78.057703 
L 273.349693 78.151491 
L 271.763014 78.151491 
L 270.123445 78.151491 
L 268.642544 78.151491 
L 267.002975 78.151491 
L 265.363407 78.151491 
L 263.776727 78.245278 
L 262.137158 78.151491 
L 260.550479 78.198385 
L 258.91091 78.292172 
L 257.271342 78.38596 
L 255.684662 78.62043 
L 254.045093 78.667324 
L 252.458414 78.667324 
L 250.818845 78.667324 
L 249.337945 78.667324 
L 247.698376 78.761112 
L 246.058807 78.761112 
L 244.472128 78.8549 
L 242.832559 78.8549 
L 241.24588 78.714218 
L 239.606311 78.808006 
L 237.966742 78.808006 
L 236.380063 78.808006 
L 234.740494 78.8549 
L 233.153815 78.8549 
L 231.514246 78.8549 
L 229.980456 78.901794 
L 228.340887 78.901794 
L 226.701318 78.948688 
L 225.114639 78.901794 
L 223.47507 78.901794 
L 221.888391 78.995582 
L 220.248822 79.042476 
L 217.128353 79.370734 
L 215.80612 80.074143 
L 214.695444 80.402401 
L 213.373211 79.652097 
L 212.315425 80.261719 
L 210.834524 80.308613 
L 207.819833 81.387174 
L 204.910921 81.387174 
L 204.011803 81.34028 
L 202.583791 81.527856 
L 201.102891 81.527856 
L 199.304654 81.621644 
L 198.193978 81.621644 
L 197.083303 81.668538 
L 192.217486 81.856113 
L 191.212589 81.856113 
L 186.029436 83.075356 
L 183.43786 83.216038 
L 182.591631 83.262932 
L 181.533845 83.403614 
L 180.846284 83.403614 
L 180.264501 83.403614 
L 176.773806 83.403614 
L 173.018665 83.684978 
L 171.11465 83.82566 
L 169.263524 83.872554 
L 165.931497 83.966342 
L 165.085268 84.107024 
L 163.710146 84.341493 
L 161.488795 84.622857 
L 158.050989 84.810433 
L 156.781646 85.560736 
L 153.819844 85.60763 
L 152.233165 85.935888 
L 150.382039 86.31104 
L 148.266466 86.404828 
L 146.732676 86.404828 
L 145.569112 86.404828 
L 144.775772 86.404828 
L 143.612207 86.592403 
L 142.501531 86.779979 
L 141.761081 86.920661 
L 141.549524 86.920661 
L 140.756184 86.873767 
L 139.698398 87.530283 
L 138.217497 86.967555 
L 137.688604 86.967555 
L 137.106821 87.061343 
L 136.260592 87.061343 
L 135.467253 87.061343 
L 134.726802 87.764753 
L 133.669016 87.764753 
L 133.298791 87.202025 
L 132.293894 87.905434 
L 131.02455 89.218465 
L 130.072543 90.297026 
L 129.54365 90.34392 
L 128.644531 90.34392 
L 128.062749 90.390814 
L 127.16363 91.094224 
L 126.42318 90.437708 
L 125.524062 90.437708 
L 122.033367 90.765966 
L 121.76892 90.81286 
L 119.653348 90.859754 
L 115.051978 87.764753 
L 112.56618 91.04733 
L 102.940325 93.29824 
L 87.443756 95.596044 
L 66.393809 97.190439 
L 48.252775 99.582031 
L 39.420259 102.395668 
L 30.481965 101.879835 
z
" clip-path="url(#p4b72dc7753)" style="fill: #2ca02c"/>
   </g>
   <g id="PolyCollection_4">
    <path d="M 30.481965 73.415201 
L 30.481965 101.879835 
L 39.420259 102.395668 
L 48.252775 99.582031 
L 66.393809 97.190439 
L 87.443756 95.596044 
L 102.940325 93.29824 
L 112.56618 91.04733 
L 115.051978 87.764753 
L 119.653348 90.859754 
L 121.76892 90.81286 
L 122.033367 90.765966 
L 125.524062 90.437708 
L 126.42318 90.437708 
L 127.16363 91.094224 
L 128.062749 90.390814 
L 128.644531 90.34392 
L 129.54365 90.34392 
L 130.072543 90.297026 
L 131.02455 89.218465 
L 132.293894 87.905434 
L 133.298791 87.202025 
L 133.669016 87.764753 
L 134.726802 87.764753 
L 135.467253 87.061343 
L 136.260592 87.061343 
L 137.106821 87.061343 
L 137.688604 86.967555 
L 138.217497 86.967555 
L 139.698398 87.530283 
L 140.756184 86.873767 
L 141.549524 86.920661 
L 141.761081 86.920661 
L 142.501531 86.779979 
L 143.612207 86.592403 
L 144.775772 86.404828 
L 145.569112 86.404828 
L 146.732676 86.404828 
L 148.266466 86.404828 
L 150.382039 86.31104 
L 152.233165 85.935888 
L 153.819844 85.60763 
L 156.781646 85.560736 
L 158.050989 84.810433 
L 161.488795 84.622857 
L 163.710146 84.341493 
L 165.085268 84.107024 
L 165.931497 83.966342 
L 169.263524 83.872554 
L 171.11465 83.82566 
L 173.018665 83.684978 
L 176.773806 83.403614 
L 180.264501 83.403614 
L 180.846284 83.403614 
L 181.533845 83.403614 
L 182.591631 83.262932 
L 183.43786 83.216038 
L 186.029436 83.075356 
L 191.212589 81.856113 
L 192.217486 81.856113 
L 197.083303 81.668538 
L 198.193978 81.621644 
L 199.304654 81.621644 
L 201.102891 81.527856 
L 202.583791 81.527856 
L 204.011803 81.34028 
L 204.910921 81.387174 
L 207.819833 81.387174 
L 210.834524 80.308613 
L 212.315425 80.261719 
L 213.373211 79.652097 
L 214.695444 80.402401 
L 215.80612 80.074143 
L 217.128353 79.370734 
L 220.248822 79.042476 
L 221.888391 78.995582 
L 223.47507 78.901794 
L 225.114639 78.901794 
L 226.701318 78.948688 
L 228.340887 78.901794 
L 229.980456 78.901794 
L 231.514246 78.8549 
L 233.153815 78.8549 
L 234.740494 78.8549 
L 236.380063 78.808006 
L 237.966742 78.808006 
L 239.606311 78.808006 
L 241.24588 78.714218 
L 242.832559 78.8549 
L 244.472128 78.8549 
L 246.058807 78.761112 
L 247.698376 78.761112 
L 249.337945 78.667324 
L 250.818845 78.667324 
L 252.458414 78.667324 
L 254.045093 78.667324 
L 255.684662 78.62043 
L 257.271342 78.38596 
L 258.91091 78.292172 
L 260.550479 78.198385 
L 262.137158 78.151491 
L 263.776727 78.245278 
L 265.363407 78.151491 
L 267.002975 78.151491 
L 268.642544 78.151491 
L 270.123445 78.151491 
L 271.763014 78.151491 
L 273.349693 78.151491 
L 274.989262 78.057703 
L 276.575941 78.057703 
L 278.21551 78.057703 
L 279.855078 76.932248 
L 281.441758 76.744672 
L 283.081327 76.697778 
L 284.668006 76.697778 
L 286.307575 76.650884 
L 287.947143 76.650884 
L 289.428044 76.650884 
L 291.067613 76.557096 
L 292.654292 76.557096 
L 294.293861 76.557096 
L 295.88054 76.557096 
L 297.520109 76.557096 
L 299.159678 76.557096 
L 300.746357 76.557096 
L 302.385926 76.557096 
L 303.972605 76.510202 
L 305.612174 76.463308 
L 307.251743 76.463308 
L 308.785533 76.416414 
L 310.425102 76.416414 
L 312.011781 76.416414 
L 313.65135 76.416414 
L 315.238029 76.416414 
L 316.877598 76.36952 
L 318.517167 76.322626 
L 320.103846 76.275732 
L 321.743415 76.275732 
L 323.330094 76.228838 
L 324.969663 76.228838 
L 326.609232 76.228838 
L 328.090132 76.228838 
L 329.729701 76.181944 
L 331.316381 76.13505 
L 332.955949 75.947474 
L 334.542629 74.822019 
L 336.182197 74.58755 
L 337.821766 74.540656 
L 339.408445 74.681337 
L 341.048014 74.681337 
L 342.634694 74.681337 
L 344.274262 74.493762 
L 345.913831 74.493762 
L 347.394732 74.493762 
L 349.034301 74.399974 
L 350.62098 74.35308 
L 352.260549 74.306186 
L 353.847228 74.306186 
L 355.486797 74.306186 
L 357.126365 74.259292 
L 358.713045 74.259292 
L 360.352614 74.259292 
L 361.939293 74.165504 
L 363.578862 74.165504 
L 365.21843 74.212398 
L 366.699331 74.212398 
L 368.3389 74.212398 
L 369.925579 74.212398 
L 371.565148 74.306186 
L 373.151827 74.306186 
L 374.791396 74.306186 
L 376.430965 74.306186 
L 378.017644 74.306186 
L 379.657213 74.306186 
L 381.243892 74.306186 
L 382.883461 74.306186 
L 384.52303 74.306186 
L 386.05682 74.259292 
L 387.696389 74.259292 
L 389.283068 74.306186 
L 390.922637 74.399974 
L 392.509316 74.399974 
L 394.148885 74.35308 
L 395.788454 74.35308 
L 397.375133 74.399974 
L 399.014702 74.399974 
L 400.601381 74.399974 
L 402.24095 74.446868 
L 403.880519 74.446868 
L 405.361419 74.399974 
L 407.000988 74.35308 
L 408.587668 74.306186 
L 410.227236 74.306186 
L 411.813916 74.306186 
L 413.453484 74.259292 
L 415.093053 74.259292 
L 416.679732 74.259292 
L 418.319301 74.165504 
L 419.905981 74.212398 
L 421.545549 74.165504 
L 423.185118 74.165504 
L 424.666019 74.165504 
L 426.305588 74.165504 
L 427.892267 74.165504 
L 429.531836 74.071716 
L 431.118515 73.977928 
L 432.758084 73.977928 
L 434.397653 73.977928 
L 435.984332 73.977928 
L 437.623901 73.931034 
L 439.21058 73.931034 
L 440.850149 73.837246 
L 442.489717 73.837246 
L 443.970618 73.790352 
L 445.610187 73.790352 
L 447.196866 73.790352 
L 448.836435 73.790352 
L 448.836435 61.457241 
L 448.836435 61.457241 
L 447.196866 61.457241 
L 445.610187 61.457241 
L 443.970618 61.457241 
L 442.489717 61.69171 
L 440.850149 61.738604 
L 439.21058 61.785498 
L 437.623901 61.785498 
L 435.984332 61.785498 
L 434.397653 61.785498 
L 432.758084 61.785498 
L 431.118515 61.785498 
L 429.531836 61.785498 
L 427.892267 61.785498 
L 426.305588 61.785498 
L 424.666019 61.832392 
L 423.185118 61.785498 
L 421.545549 61.785498 
L 419.905981 61.832392 
L 418.319301 61.504134 
L 416.679732 61.504134 
L 415.093053 61.082089 
L 413.453484 61.082089 
L 411.813916 61.082089 
L 410.227236 61.082089 
L 408.587668 61.082089 
L 407.000988 61.082089 
L 405.361419 61.128983 
L 403.880519 61.128983 
L 402.24095 61.128983 
L 400.601381 61.082089 
L 399.014702 61.082089 
L 397.375133 61.082089 
L 395.788454 61.128983 
L 394.148885 61.128983 
L 392.509316 61.128983 
L 390.922637 61.128983 
L 389.283068 61.035195 
L 387.696389 60.988301 
L 386.05682 60.988301 
L 384.52303 60.988301 
L 382.883461 60.988301 
L 381.243892 60.988301 
L 379.657213 60.988301 
L 378.017644 60.988301 
L 376.430965 60.988301 
L 374.791396 60.988301 
L 373.151827 60.988301 
L 371.565148 60.988301 
L 369.925579 60.894513 
L 368.3389 60.894513 
L 366.699331 60.894513 
L 365.21843 60.894513 
L 363.578862 60.894513 
L 361.939293 60.894513 
L 360.352614 60.894513 
L 358.713045 60.894513 
L 357.126365 60.894513 
L 355.486797 60.847619 
L 353.847228 60.847619 
L 352.260549 60.847619 
L 350.62098 60.847619 
L 349.034301 60.847619 
L 347.394732 60.847619 
L 345.913831 60.847619 
L 344.274262 60.847619 
L 342.634694 60.847619 
L 341.048014 60.847619 
L 339.408445 60.847619 
L 337.821766 60.847619 
L 336.182197 60.847619 
L 334.542629 60.847619 
L 332.955949 60.847619 
L 331.316381 60.847619 
L 329.729701 60.847619 
L 328.090132 60.847619 
L 326.609232 60.847619 
L 324.969663 60.847619 
L 323.330094 60.847619 
L 321.743415 60.847619 
L 320.103846 60.847619 
L 318.517167 60.847619 
L 316.877598 60.847619 
L 315.238029 60.847619 
L 313.65135 60.847619 
L 312.011781 60.847619 
L 310.425102 60.847619 
L 308.785533 61.269665 
L 307.251743 61.316559 
L 305.612174 61.316559 
L 303.972605 61.316559 
L 302.385926 61.504134 
L 300.746357 61.504134 
L 299.159678 61.504134 
L 297.520109 61.504134 
L 295.88054 61.504134 
L 294.293861 61.504134 
L 292.654292 61.504134 
L 291.067613 61.504134 
L 289.428044 61.504134 
L 287.947143 61.504134 
L 286.307575 61.504134 
L 284.668006 61.551028 
L 283.081327 61.551028 
L 281.441758 61.551028 
L 279.855078 61.551028 
L 278.21551 61.222771 
L 276.575941 61.410347 
L 274.989262 61.363453 
L 273.349693 61.363453 
L 271.763014 61.363453 
L 270.123445 61.363453 
L 268.642544 61.363453 
L 267.002975 61.363453 
L 265.363407 61.363453 
L 263.776727 61.410347 
L 262.137158 61.410347 
L 260.550479 61.410347 
L 258.91091 61.363453 
L 257.271342 61.363453 
L 255.684662 61.363453 
L 254.045093 61.363453 
L 252.458414 61.363453 
L 250.818845 61.363453 
L 249.337945 61.363453 
L 247.698376 61.363453 
L 246.058807 61.363453 
L 244.472128 61.363453 
L 242.832559 61.410347 
L 241.24588 61.363453 
L 239.606311 61.410347 
L 237.966742 61.363453 
L 236.380063 61.363453 
L 234.740494 61.363453 
L 233.153815 61.363453 
L 231.514246 61.363453 
L 229.980456 61.363453 
L 228.340887 61.410347 
L 226.701318 61.410347 
L 225.114639 61.363453 
L 223.47507 61.363453 
L 221.888391 61.363453 
L 220.248822 61.457241 
L 217.128353 61.785498 
L 215.80612 62.582696 
L 214.695444 62.676484 
L 213.373211 61.92618 
L 212.315425 63.755045 
L 210.834524 63.755045 
L 207.819833 65.443227 
L 204.910921 65.443227 
L 204.011803 65.396333 
L 202.583791 65.583909 
L 201.102891 65.537015 
L 199.304654 65.537015 
L 198.193978 65.537015 
L 197.083303 65.537015 
L 192.217486 65.912167 
L 191.212589 65.912167 
L 186.029436 66.146637 
L 183.43786 66.099743 
L 182.591631 66.099743 
L 181.533845 66.193531 
L 180.846284 66.193531 
L 180.264501 66.193531 
L 176.773806 66.850046 
L 173.018665 66.990728 
L 171.11465 66.990728 
L 169.263524 66.990728 
L 165.931497 66.990728 
L 165.085268 66.943834 
L 163.710146 66.943834 
L 161.488795 66.803152 
L 158.050989 66.756258 
L 156.781646 67.975501 
L 153.819844 68.116183 
L 152.233165 68.256865 
L 150.382039 68.116183 
L 148.266466 68.116183 
L 146.732676 68.069289 
L 145.569112 68.069289 
L 144.775772 68.069289 
L 143.612207 68.022395 
L 142.501531 68.022395 
L 141.761081 68.069289 
L 141.549524 68.069289 
L 140.756184 68.069289 
L 139.698398 68.585123 
L 138.217497 68.069289 
L 137.688604 68.069289 
L 137.106821 68.116183 
L 136.260592 68.022395 
L 135.467253 68.022395 
L 134.726802 68.491335 
L 133.669016 68.397547 
L 133.298791 67.881713 
L 132.293894 68.538229 
L 131.02455 68.350653 
L 130.072543 68.397547 
L 129.54365 68.397547 
L 128.644531 68.397547 
L 128.062749 68.444441 
L 127.16363 69.054062 
L 126.42318 68.397547 
L 125.524062 68.397547 
L 122.033367 69.569896 
L 121.76892 69.61679 
L 119.653348 69.569896 
L 115.051978 68.491335 
L 112.56618 69.569896 
L 102.940325 70.507775 
L 87.443756 71.023609 
L 66.393809 71.8677 
L 48.252775 72.383533 
L 39.420259 73.602776 
L 30.481965 73.415201 
z
" clip-path="url(#p4b72dc7753)" style="fill: #d62728"/>
   </g>
   <g id="matplotlib.axis_1">
    <g id="xtick_1">
     <g id="line2d_1">
      <defs>
       <path id="m5794815750" d="M 0 0 
L 0 3.5 
" style="stroke: #000000; stroke-width: 0.8"/>
      </defs>
      <g>
       <use xlink:href="#m5794815750" x="73.798313" y="298.6" style="stroke: #000000; stroke-width: 0.8"/>
      </g>
     </g>
     <g id="text_1">
      <!-- 2004 -->
      <g transform="translate(61.073313 313.198437) scale(0.1 -0.1)">
       <defs>
        <path id="DejaVuSans-32" d="M 1228 531 
L 3431 531 
L 3431 0 
L 469 0 
L 469 531 
Q 828 903 1448 1529 
Q 2069 2156 2228 2338 
Q 2531 2678 2651 2914 
Q 2772 3150 2772 3378 
Q 2772 3750 2511 3984 
Q 2250 4219 1831 4219 
Q 1534 4219 1204 4116 
Q 875 4013 500 3803 
L 500 4441 
Q 881 4594 1212 4672 
Q 1544 4750 1819 4750 
Q 2544 4750 2975 4387 
Q 3406 4025 3406 3419 
Q 3406 3131 3298 2873 
Q 3191 2616 2906 2266 
Q 2828 2175 2409 1742 
Q 1991 1309 1228 531 
z
" transform="scale(0.015625)"/>
        <path id="DejaVuSans-30" d="M 2034 4250 
Q 1547 4250 1301 3770 
Q 1056 3291 1056 2328 
Q 1056 1369 1301 889 
Q 1547 409 2034 409 
Q 2525 409 2770 889 
Q 3016 1369 3016 2328 
Q 3016 3291 2770 3770 
Q 2525 4250 2034 4250 
z
M 2034 4750 
Q 2819 4750 3233 4129 
Q 3647 3509 3647 2328 
Q 3647 1150 3233 529 
Q 2819 -91 2034 -91 
Q 1250 -91 836 529 
Q 422 1150 422 2328 
Q 422 3509 836 4129 
Q 1250 4750 2034 4750 
z
" transform="scale(0.015625)"/>
        <path id="DejaVuSans-34" d="M 2419 4116 
L 825 1625 
L 2419 1625 
L 2419 4116 
z
M 2253 4666 
L 3047 4666 
L 3047 1625 
L 3713 1625 
L 3713 1100 
L 3047 1100 
L 3047 0 
L 2419 0 
L 2419 1100 
L 313 1100 
L 313 1709 
L 2253 4666 
z
" transform="scale(0.015625)"/>
       </defs>
       <use xlink:href="#DejaVuSans-32"/>
       <use xlink:href="#DejaVuSans-30" x="63.623047"/>
       <use xlink:href="#DejaVuSans-30" x="127.246094"/>
       <use xlink:href="#DejaVuSans-34" x="190.869141"/>
      </g>
     </g>
    </g>
    <g id="xtick_2">
     <g id="line2d_2">
      <g>
       <use xlink:href="#m5794815750" x="112.460401" y="298.6" style="stroke: #000000; stroke-width: 0.8"/>
      </g>
     </g>
     <g id="text_2">
      <!-- 2006 -->
      <g transform="translate(99.735401 313.198437) scale(0.1 -0.1)">
       <defs>
        <path id="DejaVuSans-36" d="M 2113 2584 
Q 1688 2584 1439 2293 
Q 1191 2003 1191 1497 
Q 1191 994 1439 701 
Q 1688 409 2113 409 
Q 2538 409 2786 701 
Q 3034 994 3034 1497 
Q 3034 2003 2786 2293 
Q 2538 2584 2113 2584 
z
M 3366 4563 
L 3366 3988 
Q 3128 4100 2886 4159 
Q 2644 4219 2406 4219 
Q 1781 4219 1451 3797 
Q 1122 3375 1075 2522 
Q 1259 2794 1537 2939 
Q 1816 3084 2150 3084 
Q 2853 3084 3261 2657 
Q 3669 2231 3669 1497 
Q 3669 778 3244 343 
Q 2819 -91 2113 -91 
Q 1303 -91 875 529 
Q 447 1150 447 2328 
Q 447 3434 972 4092 
Q 1497 4750 2381 4750 
Q 2619 4750 2861 4703 
Q 3103 4656 3366 4563 
z
" transform="scale(0.015625)"/>
       </defs>
       <use xlink:href="#DejaVuSans-32"/>
       <use xlink:href="#DejaVuSans-30" x="63.623047"/>
       <use xlink:href="#DejaVuSans-30" x="127.246094"/>
       <use xlink:href="#DejaVuSans-36" x="190.869141"/>
      </g>
     </g>
    </g>
    <g id="xtick_3">
     <g id="line2d_3">
      <g>
       <use xlink:href="#m5794815750" x="151.0696" y="298.6" style="stroke: #000000; stroke-width: 0.8"/>
      </g>
     </g>
     <g id="text_3">
      <!-- 2008 -->
      <g transform="translate(138.3446 313.198437) scale(0.1 -0.1)">
       <defs>
        <path id="DejaVuSans-38" d="M 2034 2216 
Q 1584 2216 1326 1975 
Q 1069 1734 1069 1313 
Q 1069 891 1326 650 
Q 1584 409 2034 409 
Q 2484 409 2743 651 
Q 3003 894 3003 1313 
Q 3003 1734 2745 1975 
Q 2488 2216 2034 2216 
z
M 1403 2484 
Q 997 2584 770 2862 
Q 544 3141 544 3541 
Q 544 4100 942 4425 
Q 1341 4750 2034 4750 
Q 2731 4750 3128 4425 
Q 3525 4100 3525 3541 
Q 3525 3141 3298 2862 
Q 3072 2584 2669 2484 
Q 3125 2378 3379 2068 
Q 3634 1759 3634 1313 
Q 3634 634 3220 271 
Q 2806 -91 2034 -91 
Q 1263 -91 848 271 
Q 434 634 434 1313 
Q 434 1759 690 2068 
Q 947 2378 1403 2484 
z
M 1172 3481 
Q 1172 3119 1398 2916 
Q 1625 2713 2034 2713 
Q 2441 2713 2670 2916 
Q 2900 3119 2900 3481 
Q 2900 3844 2670 4047 
Q 2441 4250 2034 4250 
Q 1625 4250 1398 4047 
Q 1172 3844 1172 3481 
z
" transform="scale(0.015625)"/>
       </defs>
       <use xlink:href="#DejaVuSans-32"/>
       <use xlink:href="#DejaVuSans-30" x="63.623047"/>
       <use xlink:href="#DejaVuSans-30" x="127.246094"/>
       <use xlink:href="#DejaVuSans-38" x="190.869141"/>
      </g>
     </g>
    </g>
    <g id="xtick_4">
     <g id="line2d_4">
      <g>
       <use xlink:href="#m5794815750" x="189.731688" y="298.6" style="stroke: #000000; stroke-width: 0.8"/>
      </g>
     </g>
     <g id="text_4">
      <!-- 2010 -->
      <g transform="translate(177.006688 313.198437) scale(0.1 -0.1)">
       <defs>
        <path id="DejaVuSans-31" d="M 794 531 
L 1825 531 
L 1825 4091 
L 703 3866 
L 703 4441 
L 1819 4666 
L 2450 4666 
L 2450 531 
L 3481 531 
L 3481 0 
L 794 0 
L 794 531 
z
" transform="scale(0.015625)"/>
       </defs>
       <use xlink:href="#DejaVuSans-32"/>
       <use xlink:href="#DejaVuSans-30" x="63.623047"/>
       <use xlink:href="#DejaVuSans-31" x="127.246094"/>
       <use xlink:href="#DejaVuSans-30" x="190.869141"/>
      </g>
     </g>
    </g>
    <g id="xtick_5">
     <g id="line2d_5">
      <g>
       <use xlink:href="#m5794815750" x="228.340887" y="298.6" style="stroke: #000000; stroke-width: 0.8"/>
      </g>
     </g>
     <g id="text_5">
      <!-- 2012 -->
      <g transform="translate(215.615887 313.198437) scale(0.1 -0.1)">
       <use xlink:href="#DejaVuSans-32"/>
       <use xlink:href="#DejaVuSans-30" x="63.623047"/>
       <use xlink:href="#DejaVuSans-31" x="127.246094"/>
       <use xlink:href="#DejaVuSans-32" x="190.869141"/>
      </g>
     </g>
    </g>
    <g id="xtick_6">
     <g id="line2d_6">
      <g>
       <use xlink:href="#m5794815750" x="267.002975" y="298.6" style="stroke: #000000; stroke-width: 0.8"/>
      </g>
     </g>
     <g id="text_6">
      <!-- 2014 -->
      <g transform="translate(254.277975 313.198437) scale(0.1 -0.1)">
       <use xlink:href="#DejaVuSans-32"/>
       <use xlink:href="#DejaVuSans-30" x="63.623047"/>
       <use xlink:href="#DejaVuSans-31" x="127.246094"/>
       <use xlink:href="#DejaVuSans-34" x="190.869141"/>
      </g>
     </g>
    </g>
    <g id="xtick_7">
     <g id="line2d_7">
      <g>
       <use xlink:href="#m5794815750" x="305.612174" y="298.6" style="stroke: #000000; stroke-width: 0.8"/>
      </g>
     </g>
     <g id="text_7">
      <!-- 2016 -->
      <g transform="translate(292.887174 313.198437) scale(0.1 -0.1)">
       <use xlink:href="#DejaVuSans-32"/>
       <use xlink:href="#DejaVuSans-30" x="63.623047"/>
       <use xlink:href="#DejaVuSans-31" x="127.246094"/>
       <use xlink:href="#DejaVuSans-36" x="190.869141"/>
      </g>
     </g>
    </g>
    <g id="xtick_8">
     <g id="line2d_8">
      <g>
       <use xlink:href="#m5794815750" x="344.274262" y="298.6" style="stroke: #000000; stroke-width: 0.8"/>
      </g>
     </g>
     <g id="text_8">
      <!-- 2018 -->
      <g transform="translate(331.549262 313.198437) scale(0.1 -0.1)">
       <use xlink:href="#DejaVuSans-32"/>
       <use xlink:href="#DejaVuSans-30" x="63.623047"/>
       <use xlink:href="#DejaVuSans-31" x="127.246094"/>
       <use xlink:href="#DejaVuSans-38" x="190.869141"/>
      </g>
     </g>
    </g>
    <g id="xtick_9">
     <g id="line2d_9">
      <g>
       <use xlink:href="#m5794815750" x="382.883461" y="298.6" style="stroke: #000000; stroke-width: 0.8"/>
      </g>
     </g>
     <g id="text_9">
      <!-- 2020 -->
      <g transform="translate(370.158461 313.198437) scale(0.1 -0.1)">
       <use xlink:href="#DejaVuSans-32"/>
       <use xlink:href="#DejaVuSans-30" x="63.623047"/>
       <use xlink:href="#DejaVuSans-32" x="127.246094"/>
       <use xlink:href="#DejaVuSans-30" x="190.869141"/>
      </g>
     </g>
    </g>
    <g id="xtick_10">
     <g id="line2d_10">
      <g>
       <use xlink:href="#m5794815750" x="421.545549" y="298.6" style="stroke: #000000; stroke-width: 0.8"/>
      </g>
     </g>
     <g id="text_10">
      <!-- 2022 -->
      <g transform="translate(408.820549 313.198437) scale(0.1 -0.1)">
       <use xlink:href="#DejaVuSans-32"/>
       <use xlink:href="#DejaVuSans-30" x="63.623047"/>
       <use xlink:href="#DejaVuSans-32" x="127.246094"/>
       <use xlink:href="#DejaVuSans-32" x="190.869141"/>
      </g>
     </g>
    </g>
    <g id="text_11">
     <!-- Year -->
     <g transform="translate(240.35875 330.675781) scale(0.15 -0.15)">
      <defs>
       <path id="DejaVuSans-59" d="M -13 4666 
L 666 4666 
L 1959 2747 
L 3244 4666 
L 3922 4666 
L 2272 2222 
L 2272 0 
L 1638 0 
L 1638 2222 
L -13 4666 
z
" transform="scale(0.015625)"/>
       <path id="DejaVuSans-65" d="M 3597 1894 
L 3597 1613 
L 953 1613 
Q 991 1019 1311 708 
Q 1631 397 2203 397 
Q 2534 397 2845 478 
Q 3156 559 3463 722 
L 3463 178 
Q 3153 47 2828 -22 
Q 2503 -91 2169 -91 
Q 1331 -91 842 396 
Q 353 884 353 1716 
Q 353 2575 817 3079 
Q 1281 3584 2069 3584 
Q 2775 3584 3186 3129 
Q 3597 2675 3597 1894 
z
M 3022 2063 
Q 3016 2534 2758 2815 
Q 2500 3097 2075 3097 
Q 1594 3097 1305 2825 
Q 1016 2553 972 2059 
L 3022 2063 
z
" transform="scale(0.015625)"/>
       <path id="DejaVuSans-61" d="M 2194 1759 
Q 1497 1759 1228 1600 
Q 959 1441 959 1056 
Q 959 750 1161 570 
Q 1363 391 1709 391 
Q 2188 391 2477 730 
Q 2766 1069 2766 1631 
L 2766 1759 
L 2194 1759 
z
M 3341 1997 
L 3341 0 
L 2766 0 
L 2766 531 
Q 2569 213 2275 61 
Q 1981 -91 1556 -91 
Q 1019 -91 701 211 
Q 384 513 384 1019 
Q 384 1609 779 1909 
Q 1175 2209 1959 2209 
L 2766 2209 
L 2766 2266 
Q 2766 2663 2505 2880 
Q 2244 3097 1772 3097 
Q 1472 3097 1187 3025 
Q 903 2953 641 2809 
L 641 3341 
Q 956 3463 1253 3523 
Q 1550 3584 1831 3584 
Q 2591 3584 2966 3190 
Q 3341 2797 3341 1997 
z
" transform="scale(0.015625)"/>
       <path id="DejaVuSans-72" d="M 2631 2963 
Q 2534 3019 2420 3045 
Q 2306 3072 2169 3072 
Q 1681 3072 1420 2755 
Q 1159 2438 1159 1844 
L 1159 0 
L 581 0 
L 581 3500 
L 1159 3500 
L 1159 2956 
Q 1341 3275 1631 3429 
Q 1922 3584 2338 3584 
Q 2397 3584 2469 3576 
Q 2541 3569 2628 3553 
L 2631 2963 
z
" transform="scale(0.015625)"/>
      </defs>
      <use xlink:href="#DejaVuSans-59"/>
      <use xlink:href="#DejaVuSans-65" x="47.833984"/>
      <use xlink:href="#DejaVuSans-61" x="109.357422"/>
      <use xlink:href="#DejaVuSans-72" x="170.636719"/>
     </g>
    </g>
   </g>
   <g id="matplotlib.axis_2">
    <g id="ytick_1">
     <g id="line2d_11">
      <defs>
       <path id="m225e93db34" d="M 0 0 
L -3.5 0 
" style="stroke: #000000; stroke-width: 0.8"/>
      </defs>
      <g>
       <use xlink:href="#m225e93db34" x="62.48" y="298.6" style="stroke: #000000; stroke-width: 0.8"/>
      </g>
     </g>
     <g id="text_12">
      <!-- 0 -->
      <g transform="translate(49.1175 302.399219) scale(0.1 -0.1)">
       <use xlink:href="#DejaVuSans-30"/>
      </g>
     </g>
    </g>
    <g id="ytick_2">
     <g id="line2d_12">
      <g>
       <use xlink:href="#m225e93db34" x="62.48" y="251.706039" style="stroke: #000000; stroke-width: 0.8"/>
      </g>
     </g>
     <g id="text_13">
      <!-- 1000 -->
      <g transform="translate(30.03 255.505258) scale(0.1 -0.1)">
       <use xlink:href="#DejaVuSans-31"/>
       <use xlink:href="#DejaVuSans-30" x="63.623047"/>
       <use xlink:href="#DejaVuSans-30" x="127.246094"/>
       <use xlink:href="#DejaVuSans-30" x="190.869141"/>
      </g>
     </g>
    </g>
    <g id="ytick_3">
     <g id="line2d_13">
      <g>
       <use xlink:href="#m225e93db34" x="62.48" y="204.812079" style="stroke: #000000; stroke-width: 0.8"/>
      </g>
     </g>
     <g id="text_14">
      <!-- 2000 -->
      <g transform="translate(30.03 208.611297) scale(0.1 -0.1)">
       <use xlink:href="#DejaVuSans-32"/>
       <use xlink:href="#DejaVuSans-30" x="63.623047"/>
       <use xlink:href="#DejaVuSans-30" x="127.246094"/>
       <use xlink:href="#DejaVuSans-30" x="190.869141"/>
      </g>
     </g>
    </g>
    <g id="ytick_4">
     <g id="line2d_14">
      <g>
       <use xlink:href="#m225e93db34" x="62.48" y="157.918118" style="stroke: #000000; stroke-width: 0.8"/>
      </g>
     </g>
     <g id="text_15">
      <!-- 3000 -->
      <g transform="translate(30.03 161.717337) scale(0.1 -0.1)">
       <defs>
        <path id="DejaVuSans-33" d="M 2597 2516 
Q 3050 2419 3304 2112 
Q 3559 1806 3559 1356 
Q 3559 666 3084 287 
Q 2609 -91 1734 -91 
Q 1441 -91 1130 -33 
Q 819 25 488 141 
L 488 750 
Q 750 597 1062 519 
Q 1375 441 1716 441 
Q 2309 441 2620 675 
Q 2931 909 2931 1356 
Q 2931 1769 2642 2001 
Q 2353 2234 1838 2234 
L 1294 2234 
L 1294 2753 
L 1863 2753 
Q 2328 2753 2575 2939 
Q 2822 3125 2822 3475 
Q 2822 3834 2567 4026 
Q 2313 4219 1838 4219 
Q 1578 4219 1281 4162 
Q 984 4106 628 3988 
L 628 4550 
Q 988 4650 1302 4700 
Q 1616 4750 1894 4750 
Q 2613 4750 3031 4423 
Q 3450 4097 3450 3541 
Q 3450 3153 3228 2886 
Q 3006 2619 2597 2516 
z
" transform="scale(0.015625)"/>
       </defs>
       <use xlink:href="#DejaVuSans-33"/>
       <use xlink:href="#DejaVuSans-30" x="63.623047"/>
       <use xlink:href="#DejaVuSans-30" x="127.246094"/>
       <use xlink:href="#DejaVuSans-30" x="190.869141"/>
      </g>
     </g>
    </g>
    <g id="ytick_5">
     <g id="line2d_15">
      <g>
       <use xlink:href="#m225e93db34" x="62.48" y="111.024157" style="stroke: #000000; stroke-width: 0.8"/>
      </g>
     </g>
     <g id="text_16">
      <!-- 4000 -->
      <g transform="translate(30.03 114.823376) scale(0.1 -0.1)">
       <use xlink:href="#DejaVuSans-34"/>
       <use xlink:href="#DejaVuSans-30" x="63.623047"/>
       <use xlink:href="#DejaVuSans-30" x="127.246094"/>
       <use xlink:href="#DejaVuSans-30" x="190.869141"/>
      </g>
     </g>
    </g>
    <g id="ytick_6">
     <g id="line2d_16">
      <g>
       <use xlink:href="#m225e93db34" x="62.48" y="64.130196" style="stroke: #000000; stroke-width: 0.8"/>
      </g>
     </g>
     <g id="text_17">
      <!-- 5000 -->
      <g transform="translate(30.03 67.929415) scale(0.1 -0.1)">
       <defs>
        <path id="DejaVuSans-35" d="M 691 4666 
L 3169 4666 
L 3169 4134 
L 1269 4134 
L 1269 2991 
Q 1406 3038 1543 3061 
Q 1681 3084 1819 3084 
Q 2600 3084 3056 2656 
Q 3513 2228 3513 1497 
Q 3513 744 3044 326 
Q 2575 -91 1722 -91 
Q 1428 -91 1123 -41 
Q 819 9 494 109 
L 494 744 
Q 775 591 1075 516 
Q 1375 441 1709 441 
Q 2250 441 2565 725 
Q 2881 1009 2881 1497 
Q 2881 1984 2565 2268 
Q 2250 2553 1709 2553 
Q 1456 2553 1204 2497 
Q 953 2441 691 2322 
L 691 4666 
z
" transform="scale(0.015625)"/>
       </defs>
       <use xlink:href="#DejaVuSans-35"/>
       <use xlink:href="#DejaVuSans-30" x="63.623047"/>
       <use xlink:href="#DejaVuSans-30" x="127.246094"/>
       <use xlink:href="#DejaVuSans-30" x="190.869141"/>
      </g>
     </g>
    </g>
    <g id="text_18">
     <!-- Number of genes -->
     <g transform="translate(22.910469 238.556562) rotate(-90) scale(0.15 -0.15)">
      <defs>
       <path id="DejaVuSans-4e" d="M 628 4666 
L 1478 4666 
L 3547 763 
L 3547 4666 
L 4159 4666 
L 4159 0 
L 3309 0 
L 1241 3903 
L 1241 0 
L 628 0 
L 628 4666 
z
" transform="scale(0.015625)"/>
       <path id="DejaVuSans-75" d="M 544 1381 
L 544 3500 
L 1119 3500 
L 1119 1403 
Q 1119 906 1312 657 
Q 1506 409 1894 409 
Q 2359 409 2629 706 
Q 2900 1003 2900 1516 
L 2900 3500 
L 3475 3500 
L 3475 0 
L 2900 0 
L 2900 538 
Q 2691 219 2414 64 
Q 2138 -91 1772 -91 
Q 1169 -91 856 284 
Q 544 659 544 1381 
z
M 1991 3584 
L 1991 3584 
z
" transform="scale(0.015625)"/>
       <path id="DejaVuSans-6d" d="M 3328 2828 
Q 3544 3216 3844 3400 
Q 4144 3584 4550 3584 
Q 5097 3584 5394 3201 
Q 5691 2819 5691 2113 
L 5691 0 
L 5113 0 
L 5113 2094 
Q 5113 2597 4934 2840 
Q 4756 3084 4391 3084 
Q 3944 3084 3684 2787 
Q 3425 2491 3425 1978 
L 3425 0 
L 2847 0 
L 2847 2094 
Q 2847 2600 2669 2842 
Q 2491 3084 2119 3084 
Q 1678 3084 1418 2786 
Q 1159 2488 1159 1978 
L 1159 0 
L 581 0 
L 581 3500 
L 1159 3500 
L 1159 2956 
Q 1356 3278 1631 3431 
Q 1906 3584 2284 3584 
Q 2666 3584 2933 3390 
Q 3200 3197 3328 2828 
z
" transform="scale(0.015625)"/>
       <path id="DejaVuSans-62" d="M 3116 1747 
Q 3116 2381 2855 2742 
Q 2594 3103 2138 3103 
Q 1681 3103 1420 2742 
Q 1159 2381 1159 1747 
Q 1159 1113 1420 752 
Q 1681 391 2138 391 
Q 2594 391 2855 752 
Q 3116 1113 3116 1747 
z
M 1159 2969 
Q 1341 3281 1617 3432 
Q 1894 3584 2278 3584 
Q 2916 3584 3314 3078 
Q 3713 2572 3713 1747 
Q 3713 922 3314 415 
Q 2916 -91 2278 -91 
Q 1894 -91 1617 61 
Q 1341 213 1159 525 
L 1159 0 
L 581 0 
L 581 4863 
L 1159 4863 
L 1159 2969 
z
" transform="scale(0.015625)"/>
       <path id="DejaVuSans-20" transform="scale(0.015625)"/>
       <path id="DejaVuSans-6f" d="M 1959 3097 
Q 1497 3097 1228 2736 
Q 959 2375 959 1747 
Q 959 1119 1226 758 
Q 1494 397 1959 397 
Q 2419 397 2687 759 
Q 2956 1122 2956 1747 
Q 2956 2369 2687 2733 
Q 2419 3097 1959 3097 
z
M 1959 3584 
Q 2709 3584 3137 3096 
Q 3566 2609 3566 1747 
Q 3566 888 3137 398 
Q 2709 -91 1959 -91 
Q 1206 -91 779 398 
Q 353 888 353 1747 
Q 353 2609 779 3096 
Q 1206 3584 1959 3584 
z
" transform="scale(0.015625)"/>
       <path id="DejaVuSans-66" d="M 2375 4863 
L 2375 4384 
L 1825 4384 
Q 1516 4384 1395 4259 
Q 1275 4134 1275 3809 
L 1275 3500 
L 2222 3500 
L 2222 3053 
L 1275 3053 
L 1275 0 
L 697 0 
L 697 3053 
L 147 3053 
L 147 3500 
L 697 3500 
L 697 3744 
Q 697 4328 969 4595 
Q 1241 4863 1831 4863 
L 2375 4863 
z
" transform="scale(0.015625)"/>
       <path id="DejaVuSans-67" d="M 2906 1791 
Q 2906 2416 2648 2759 
Q 2391 3103 1925 3103 
Q 1463 3103 1205 2759 
Q 947 2416 947 1791 
Q 947 1169 1205 825 
Q 1463 481 1925 481 
Q 2391 481 2648 825 
Q 2906 1169 2906 1791 
z
M 3481 434 
Q 3481 -459 3084 -895 
Q 2688 -1331 1869 -1331 
Q 1566 -1331 1297 -1286 
Q 1028 -1241 775 -1147 
L 775 -588 
Q 1028 -725 1275 -790 
Q 1522 -856 1778 -856 
Q 2344 -856 2625 -561 
Q 2906 -266 2906 331 
L 2906 616 
Q 2728 306 2450 153 
Q 2172 0 1784 0 
Q 1141 0 747 490 
Q 353 981 353 1791 
Q 353 2603 747 3093 
Q 1141 3584 1784 3584 
Q 2172 3584 2450 3431 
Q 2728 3278 2906 2969 
L 2906 3500 
L 3481 3500 
L 3481 434 
z
" transform="scale(0.015625)"/>
       <path id="DejaVuSans-6e" d="M 3513 2113 
L 3513 0 
L 2938 0 
L 2938 2094 
Q 2938 2591 2744 2837 
Q 2550 3084 2163 3084 
Q 1697 3084 1428 2787 
Q 1159 2491 1159 1978 
L 1159 0 
L 581 0 
L 581 3500 
L 1159 3500 
L 1159 2956 
Q 1366 3272 1645 3428 
Q 1925 3584 2291 3584 
Q 2894 3584 3203 3211 
Q 3513 2838 3513 2113 
z
" transform="scale(0.015625)"/>
       <path id="DejaVuSans-73" d="M 2834 3397 
L 2834 2853 
Q 2591 2978 2328 3040 
Q 2066 3103 1784 3103 
Q 1356 3103 1142 2972 
Q 928 2841 928 2578 
Q 928 2378 1081 2264 
Q 1234 2150 1697 2047 
L 1894 2003 
Q 2506 1872 2764 1633 
Q 3022 1394 3022 966 
Q 3022 478 2636 193 
Q 2250 -91 1575 -91 
Q 1294 -91 989 -36 
Q 684 19 347 128 
L 347 722 
Q 666 556 975 473 
Q 1284 391 1588 391 
Q 1994 391 2212 530 
Q 2431 669 2431 922 
Q 2431 1156 2273 1281 
Q 2116 1406 1581 1522 
L 1381 1569 
Q 847 1681 609 1914 
Q 372 2147 372 2553 
Q 372 3047 722 3315 
Q 1072 3584 1716 3584 
Q 2034 3584 2315 3537 
Q 2597 3491 2834 3397 
z
" transform="scale(0.015625)"/>
      </defs>
      <use xlink:href="#DejaVuSans-4e"/>
      <use xlink:href="#DejaVuSans-75" x="74.804688"/>
      <use xlink:href="#DejaVuSans-6d" x="138.183594"/>
      <use xlink:href="#DejaVuSans-62" x="235.595703"/>
      <use xlink:href="#DejaVuSans-65" x="299.072266"/>
      <use xlink:href="#DejaVuSans-72" x="360.595703"/>
      <use xlink:href="#DejaVuSans-20" x="401.708984"/>
      <use xlink:href="#DejaVuSans-6f" x="433.496094"/>
      <use xlink:href="#DejaVuSans-66" x="494.677734"/>
      <use xlink:href="#DejaVuSans-20" x="529.882812"/>
      <use xlink:href="#DejaVuSans-67" x="561.669922"/>
      <use xlink:href="#DejaVuSans-65" x="625.146484"/>
      <use xlink:href="#DejaVuSans-6e" x="686.669922"/>
      <use xlink:href="#DejaVuSans-65" x="750.048828"/>
      <use xlink:href="#DejaVuSans-73" x="811.572266"/>
     </g>
    </g>
   </g>
   <g id="patch_3">
    <path d="M 62.48 298.6 
L 62.48 48.96 
" style="fill: none; stroke: #000000; stroke-width: 0.8; stroke-linejoin: miter; stroke-linecap: square"/>
   </g>
   <g id="patch_4">
    <path d="M 450 298.6 
L 450 48.96 
" style="fill: none; stroke: #000000; stroke-width: 0.8; stroke-linejoin: miter; stroke-linecap: square"/>
   </g>
   <g id="patch_5">
    <path d="M 62.48 298.6 
L 450 298.6 
" style="fill: none; stroke: #000000; stroke-width: 0.8; stroke-linejoin: miter; stroke-linecap: square"/>
   </g>
   <g id="patch_6">
    <path d="M 62.48 48.96 
L 450 48.96 
" style="fill: none; stroke: #000000; stroke-width: 0.8; stroke-linejoin: miter; stroke-linecap: square"/>
   </g>
   <g id="legend_1">
    <g id="patch_7">
     <path d="M 129.250156 43.96 
L 383.229844 43.96 
Q 385.229844 43.96 385.229844 41.96 
L 385.229844 13.60375 
Q 385.229844 11.60375 383.229844 11.60375 
L 129.250156 11.60375 
Q 127.250156 11.60375 127.250156 13.60375 
L 127.250156 41.96 
Q 127.250156 43.96 129.250156 43.96 
z
" style="fill: #ffffff; opacity: 0.8; stroke: #cccccc; stroke-linejoin: miter"/>
    </g>
    <g id="patch_8">
     <path d="M 131.250156 23.202187 
L 151.250156 23.202187 
L 151.250156 16.202187 
L 131.250156 16.202187 
z
" style="fill: #1f77b4"/>
    </g>
    <g id="text_19">
     <!-- Published -->
     <g transform="translate(159.250156 23.202187) scale(0.1 -0.1)">
      <defs>
       <path id="DejaVuSans-50" d="M 1259 4147 
L 1259 2394 
L 2053 2394 
Q 2494 2394 2734 2622 
Q 2975 2850 2975 3272 
Q 2975 3691 2734 3919 
Q 2494 4147 2053 4147 
L 1259 4147 
z
M 628 4666 
L 2053 4666 
Q 2838 4666 3239 4311 
Q 3641 3956 3641 3272 
Q 3641 2581 3239 2228 
Q 2838 1875 2053 1875 
L 1259 1875 
L 1259 0 
L 628 0 
L 628 4666 
z
" transform="scale(0.015625)"/>
       <path id="DejaVuSans-6c" d="M 603 4863 
L 1178 4863 
L 1178 0 
L 603 0 
L 603 4863 
z
" transform="scale(0.015625)"/>
       <path id="DejaVuSans-69" d="M 603 3500 
L 1178 3500 
L 1178 0 
L 603 0 
L 603 3500 
z
M 603 4863 
L 1178 4863 
L 1178 4134 
L 603 4134 
L 603 4863 
z
" transform="scale(0.015625)"/>
       <path id="DejaVuSans-68" d="M 3513 2113 
L 3513 0 
L 2938 0 
L 2938 2094 
Q 2938 2591 2744 2837 
Q 2550 3084 2163 3084 
Q 1697 3084 1428 2787 
Q 1159 2491 1159 1978 
L 1159 0 
L 581 0 
L 581 4863 
L 1159 4863 
L 1159 2956 
Q 1366 3272 1645 3428 
Q 1925 3584 2291 3584 
Q 2894 3584 3203 3211 
Q 3513 2838 3513 2113 
z
" transform="scale(0.015625)"/>
       <path id="DejaVuSans-64" d="M 2906 2969 
L 2906 4863 
L 3481 4863 
L 3481 0 
L 2906 0 
L 2906 525 
Q 2725 213 2448 61 
Q 2172 -91 1784 -91 
Q 1150 -91 751 415 
Q 353 922 353 1747 
Q 353 2572 751 3078 
Q 1150 3584 1784 3584 
Q 2172 3584 2448 3432 
Q 2725 3281 2906 2969 
z
M 947 1747 
Q 947 1113 1208 752 
Q 1469 391 1925 391 
Q 2381 391 2643 752 
Q 2906 1113 2906 1747 
Q 2906 2381 2643 2742 
Q 2381 3103 1925 3103 
Q 1469 3103 1208 2742 
Q 947 2381 947 1747 
z
" transform="scale(0.015625)"/>
      </defs>
      <use xlink:href="#DejaVuSans-50"/>
      <use xlink:href="#DejaVuSans-75" x="58.552734"/>
      <use xlink:href="#DejaVuSans-62" x="121.931641"/>
      <use xlink:href="#DejaVuSans-6c" x="185.408203"/>
      <use xlink:href="#DejaVuSans-69" x="213.191406"/>
      <use xlink:href="#DejaVuSans-73" x="240.974609"/>
      <use xlink:href="#DejaVuSans-68" x="293.074219"/>
      <use xlink:href="#DejaVuSans-65" x="356.453125"/>
      <use xlink:href="#DejaVuSans-64" x="417.976562"/>
     </g>
    </g>
    <g id="patch_9">
     <path d="M 131.250156 37.880313 
L 151.250156 37.880313 
L 151.250156 30.880313 
L 131.250156 30.880313 
z
" style="fill: #ff7f0e"/>
    </g>
    <g id="text_20">
     <!-- Inferred role -->
     <g transform="translate(159.250156 37.880313) scale(0.1 -0.1)">
      <defs>
       <path id="DejaVuSans-49" d="M 628 4666 
L 1259 4666 
L 1259 0 
L 628 0 
L 628 4666 
z
" transform="scale(0.015625)"/>
      </defs>
      <use xlink:href="#DejaVuSans-49"/>
      <use xlink:href="#DejaVuSans-6e" x="29.492188"/>
      <use xlink:href="#DejaVuSans-66" x="92.871094"/>
      <use xlink:href="#DejaVuSans-65" x="128.076172"/>
      <use xlink:href="#DejaVuSans-72" x="189.599609"/>
      <use xlink:href="#DejaVuSans-72" x="228.962891"/>
      <use xlink:href="#DejaVuSans-65" x="267.826172"/>
      <use xlink:href="#DejaVuSans-64" x="329.349609"/>
      <use xlink:href="#DejaVuSans-20" x="392.826172"/>
      <use xlink:href="#DejaVuSans-72" x="424.613281"/>
      <use xlink:href="#DejaVuSans-6f" x="463.476562"/>
      <use xlink:href="#DejaVuSans-6c" x="524.658203"/>
      <use xlink:href="#DejaVuSans-65" x="552.441406"/>
     </g>
    </g>
    <g id="patch_10">
     <path d="M 240.648594 23.202187 
L 260.648594 23.202187 
L 260.648594 16.202187 
L 240.648594 16.202187 
z
" style="fill: #2ca02c"/>
    </g>
    <g id="text_21">
     <!-- Conserved unknown -->
     <g transform="translate(268.648594 23.202187) scale(0.1 -0.1)">
      <defs>
       <path id="DejaVuSans-43" d="M 4122 4306 
L 4122 3641 
Q 3803 3938 3442 4084 
Q 3081 4231 2675 4231 
Q 1875 4231 1450 3742 
Q 1025 3253 1025 2328 
Q 1025 1406 1450 917 
Q 1875 428 2675 428 
Q 3081 428 3442 575 
Q 3803 722 4122 1019 
L 4122 359 
Q 3791 134 3420 21 
Q 3050 -91 2638 -91 
Q 1578 -91 968 557 
Q 359 1206 359 2328 
Q 359 3453 968 4101 
Q 1578 4750 2638 4750 
Q 3056 4750 3426 4639 
Q 3797 4528 4122 4306 
z
" transform="scale(0.015625)"/>
       <path id="DejaVuSans-76" d="M 191 3500 
L 800 3500 
L 1894 563 
L 2988 3500 
L 3597 3500 
L 2284 0 
L 1503 0 
L 191 3500 
z
" transform="scale(0.015625)"/>
       <path id="DejaVuSans-6b" d="M 581 4863 
L 1159 4863 
L 1159 1991 
L 2875 3500 
L 3609 3500 
L 1753 1863 
L 3688 0 
L 2938 0 
L 1159 1709 
L 1159 0 
L 581 0 
L 581 4863 
z
" transform="scale(0.015625)"/>
       <path id="DejaVuSans-77" d="M 269 3500 
L 844 3500 
L 1563 769 
L 2278 3500 
L 2956 3500 
L 3675 769 
L 4391 3500 
L 4966 3500 
L 4050 0 
L 3372 0 
L 2619 2869 
L 1863 0 
L 1184 0 
L 269 3500 
z
" transform="scale(0.015625)"/>
      </defs>
      <use xlink:href="#DejaVuSans-43"/>
      <use xlink:href="#DejaVuSans-6f" x="69.824219"/>
      <use xlink:href="#DejaVuSans-6e" x="131.005859"/>
      <use xlink:href="#DejaVuSans-73" x="194.384766"/>
      <use xlink:href="#DejaVuSans-65" x="246.484375"/>
      <use xlink:href="#DejaVuSans-72" x="308.007812"/>
      <use xlink:href="#DejaVuSans-76" x="349.121094"/>
      <use xlink:href="#DejaVuSans-65" x="408.300781"/>
      <use xlink:href="#DejaVuSans-64" x="469.824219"/>
      <use xlink:href="#DejaVuSans-20" x="533.300781"/>
      <use xlink:href="#DejaVuSans-75" x="565.087891"/>
      <use xlink:href="#DejaVuSans-6e" x="628.466797"/>
      <use xlink:href="#DejaVuSans-6b" x="691.845703"/>
      <use xlink:href="#DejaVuSans-6e" x="749.755859"/>
      <use xlink:href="#DejaVuSans-6f" x="813.134766"/>
      <use xlink:href="#DejaVuSans-77" x="874.316406"/>
      <use xlink:href="#DejaVuSans-6e" x="956.103516"/>
     </g>
    </g>
    <g id="patch_11">
     <path d="M 240.648594 37.880313 
L 260.648594 37.880313 
L 260.648594 30.880313 
L 240.648594 30.880313 
z
" style="fill: #d62728"/>
    </g>
    <g id="text_22">
     <!-- Fission yeast unknown -->
     <g transform="translate(268.648594 37.880313) scale(0.1 -0.1)">
      <defs>
       <path id="DejaVuSans-46" d="M 628 4666 
L 3309 4666 
L 3309 4134 
L 1259 4134 
L 1259 2759 
L 3109 2759 
L 3109 2228 
L 1259 2228 
L 1259 0 
L 628 0 
L 628 4666 
z
" transform="scale(0.015625)"/>
       <path id="DejaVuSans-79" d="M 2059 -325 
Q 1816 -950 1584 -1140 
Q 1353 -1331 966 -1331 
L 506 -1331 
L 506 -850 
L 844 -850 
Q 1081 -850 1212 -737 
Q 1344 -625 1503 -206 
L 1606 56 
L 191 3500 
L 800 3500 
L 1894 763 
L 2988 3500 
L 3597 3500 
L 2059 -325 
z
" transform="scale(0.015625)"/>
       <path id="DejaVuSans-74" d="M 1172 4494 
L 1172 3500 
L 2356 3500 
L 2356 3053 
L 1172 3053 
L 1172 1153 
Q 1172 725 1289 603 
Q 1406 481 1766 481 
L 2356 481 
L 2356 0 
L 1766 0 
Q 1100 0 847 248 
Q 594 497 594 1153 
L 594 3053 
L 172 3053 
L 172 3500 
L 594 3500 
L 594 4494 
L 1172 4494 
z
" transform="scale(0.015625)"/>
      </defs>
      <use xlink:href="#DejaVuSans-46"/>
      <use xlink:href="#DejaVuSans-69" x="50.269531"/>
      <use xlink:href="#DejaVuSans-73" x="78.052734"/>
      <use xlink:href="#DejaVuSans-73" x="130.152344"/>
      <use xlink:href="#DejaVuSans-69" x="182.251953"/>
      <use xlink:href="#DejaVuSans-6f" x="210.035156"/>
      <use xlink:href="#DejaVuSans-6e" x="271.216797"/>
      <use xlink:href="#DejaVuSans-20" x="334.595703"/>
      <use xlink:href="#DejaVuSans-79" x="366.382812"/>
      <use xlink:href="#DejaVuSans-65" x="425.5625"/>
      <use xlink:href="#DejaVuSans-61" x="487.085938"/>
      <use xlink:href="#DejaVuSans-73" x="548.365234"/>
      <use xlink:href="#DejaVuSans-74" x="600.464844"/>
      <use xlink:href="#DejaVuSans-20" x="639.673828"/>
      <use xlink:href="#DejaVuSans-75" x="671.460938"/>
      <use xlink:href="#DejaVuSans-6e" x="734.839844"/>
      <use xlink:href="#DejaVuSans-6b" x="798.21875"/>
      <use xlink:href="#DejaVuSans-6e" x="856.128906"/>
      <use xlink:href="#DejaVuSans-6f" x="919.507812"/>
      <use xlink:href="#DejaVuSans-77" x="980.689453"/>
      <use xlink:href="#DejaVuSans-6e" x="1062.476562"/>
     </g>
    </g>
   </g>
  </g>
 </g>
 <defs>
  <clipPath id="p4b72dc7753">
   <rect x="62.48" y="48.96" width="387.52" height="249.64"/>
  </clipPath>
 </defs>
</svg>
