<?xml version="1.0" encoding="utf-8" standalone="no"?>
<!DOCTYPE svg PUBLIC "-//W3C//DTD SVG 1.1//EN"
  "http://www.w3.org/Graphics/SVG/1.1/DTD/svg11.dtd">
<svg xmlns:xlink="http://www.w3.org/1999/xlink" width="460.8pt" height="345.6pt" viewBox="0 0 460.8 345.6" xmlns="http://www.w3.org/2000/svg" version="1.1">
 <metadata>
  <rdf:RDF xmlns:dc="http://purl.org/dc/elements/1.1/" xmlns:cc="http://creativecommons.org/ns#" xmlns:rdf="http://www.w3.org/1999/02/22-rdf-syntax-ns#">
   <cc:Work>
    <dc:type rdf:resource="http://purl.org/dc/dcmitype/StillImage"/>
    <dc:date>2024-05-02T00:46:54.997739</dc:date>
    <dc:format>image/svg+xml</dc:format>
    <dc:creator>
     <cc:Agent>
      <dc:title>Matplotlib v3.7.1, https://matplotlib.org/</dc:title>
     </cc:Agent>
    </dc:creator>
   </cc:Work>
  </rdf:RDF>
 </metadata>
 <defs>
  <style type="text/css">*{stroke-linejoin: round; stroke-linecap: butt}</style>
 </defs>
 <g id="figure_1">
  <g id="patch_1">
   <path d="M 0 345.6 
L 460.8 345.6 
L 460.8 0 
L 0 0 
z
" style="fill: #ffffff"/>
  </g>
  <g id="axes_1">
   <g id="patch_2">
    <path d="M 61.49 280.487925 
L 443.101955 280.487925 
L 443.101955 67.792075 
L 61.49 67.792075 
z
" style="fill: #ffffff"/>
   </g>
   <g id="PolyCollection_1">
    <path d="M 31.274684 226.509886 
L 31.274684 280.487925 
L 39.714995 280.487925 
L 48.055421 280.487925 
L 65.185758 280.487925 
L 85.062941 280.487925 
L 99.696144 280.487925 
L 108.78571 280.487925 
L 111.133016 280.487925 
L 115.478028 280.487925 
L 117.475735 280.487925 
L 117.725448 280.487925 
L 121.021665 280.487925 
L 121.87069 280.487925 
L 122.569888 280.487925 
L 123.418913 280.487925 
L 123.968282 280.487925 
L 124.817308 280.487925 
L 125.316735 280.487925 
L 126.215703 280.487925 
L 127.414327 280.487925 
L 128.363238 280.487925 
L 128.712836 280.487925 
L 129.71169 280.487925 
L 130.410887 280.487925 
L 131.160027 280.487925 
L 131.95911 280.487925 
L 132.508479 280.487925 
L 133.007906 280.487925 
L 134.406301 280.487925 
L 135.405154 280.487925 
L 136.154294 280.487925 
L 136.354065 280.487925 
L 137.053262 280.487925 
L 138.102059 280.487925 
L 139.200797 280.487925 
L 139.949937 280.487925 
L 141.048676 280.487925 
L 142.497014 280.487925 
L 144.494721 280.487925 
L 146.242714 280.487925 
L 147.740994 280.487925 
L 150.537784 280.487925 
L 151.736408 280.487925 
L 154.982682 280.487925 
L 157.080274 280.487925 
L 158.378783 280.487925 
L 159.177866 280.487925 
L 162.324254 280.487925 
L 164.072248 280.487925 
L 165.870184 280.487925 
L 169.416114 280.487925 
L 172.71233 280.487925 
L 173.261699 280.487925 
L 173.910954 280.487925 
L 174.909808 280.487925 
L 175.70889 280.487925 
L 178.156081 280.487925 
L 183.050463 280.487925 
L 183.999374 280.487925 
L 188.5941 280.487925 
L 189.642896 280.487925 
L 190.691692 280.487925 
L 192.389743 280.487925 
L 193.788138 280.487925 
L 195.13659 280.487925 
L 195.985615 280.487925 
L 198.732462 280.487925 
L 201.579194 280.487925 
L 202.977589 280.487925 
L 203.976443 280.487925 
L 205.225009 280.487925 
L 206.273806 280.487925 
L 207.522372 280.487925 
L 210.46899 280.487925 
L 212.017213 280.487925 
L 213.515493 280.487925 
L 215.063716 280.487925 
L 216.561996 280.487925 
L 218.110219 280.487925 
L 219.658442 280.487925 
L 221.106779 280.487925 
L 222.655002 280.487925 
L 224.153282 280.487925 
L 225.701505 280.487925 
L 227.199785 280.487925 
L 228.748008 280.487925 
L 230.296231 280.487925 
L 231.794511 280.487925 
L 233.342734 280.487925 
L 234.841014 280.487925 
L 236.389237 280.487925 
L 237.937459 280.487925 
L 239.335854 280.487925 
L 240.884077 280.487925 
L 242.382357 280.487925 
L 243.93058 280.487925 
L 245.42886 280.487925 
L 246.977083 280.487925 
L 248.525306 280.487925 
L 250.023586 280.487925 
L 251.571809 280.487925 
L 253.070089 280.487925 
L 254.618312 280.487925 
L 256.166535 280.487925 
L 257.564929 280.487925 
L 259.113152 280.487925 
L 260.611432 280.487925 
L 262.159655 280.487925 
L 263.657935 280.487925 
L 265.206158 280.487925 
L 266.754381 280.487925 
L 268.252661 280.487925 
L 269.800884 280.487925 
L 271.299164 280.487925 
L 272.847387 280.487925 
L 274.39561 280.487925 
L 275.794005 280.487925 
L 277.342228 280.487925 
L 278.840508 280.487925 
L 280.388731 280.487925 
L 281.887011 280.487925 
L 283.435233 280.487925 
L 284.983456 280.487925 
L 286.481736 280.487925 
L 288.029959 280.487925 
L 289.528239 280.487925 
L 291.076462 280.487925 
L 292.624685 280.487925 
L 294.073023 280.487925 
L 295.621245 280.487925 
L 297.119526 280.487925 
L 298.667748 280.487925 
L 300.166029 280.487925 
L 301.714251 280.487925 
L 303.262474 280.487925 
L 304.760754 280.487925 
L 306.308977 280.487925 
L 307.807257 280.487925 
L 309.35548 280.487925 
L 310.903703 280.487925 
L 312.302098 280.487925 
L 313.850321 280.487925 
L 315.348601 280.487925 
L 316.896824 280.487925 
L 318.395104 280.487925 
L 319.943327 280.487925 
L 321.491549 280.487925 
L 322.98983 280.487925 
L 324.538052 280.487925 
L 326.036333 280.487925 
L 327.584555 280.487925 
L 329.132778 280.487925 
L 330.531173 280.487925 
L 332.079396 280.487925 
L 333.577676 280.487925 
L 335.125899 280.487925 
L 336.624179 280.487925 
L 338.172402 280.487925 
L 339.720625 280.487925 
L 341.218905 280.487925 
L 342.767128 280.487925 
L 344.265408 280.487925 
L 345.813631 280.487925 
L 347.361853 280.487925 
L 348.760248 280.487925 
L 350.308471 280.487925 
L 351.806751 280.487925 
L 353.354974 280.487925 
L 354.853254 280.487925 
L 356.401477 280.487925 
L 357.9497 280.487925 
L 359.44798 280.487925 
L 360.996203 280.487925 
L 362.494483 280.487925 
L 364.042706 280.487925 
L 365.590929 280.487925 
L 367.039266 280.487925 
L 368.587489 280.487925 
L 370.085769 280.487925 
L 371.633992 280.487925 
L 373.132272 280.487925 
L 374.680495 280.487925 
L 376.228718 280.487925 
L 377.726998 280.487925 
L 379.275221 280.487925 
L 380.773501 280.487925 
L 382.321724 280.487925 
L 383.869946 280.487925 
L 385.268341 280.487925 
L 386.816564 280.487925 
L 388.314844 280.487925 
L 389.863067 280.487925 
L 391.361347 280.487925 
L 392.90957 280.487925 
L 394.457793 280.487925 
L 395.956073 280.487925 
L 397.504296 280.487925 
L 399.002576 280.487925 
L 400.550799 280.487925 
L 402.099022 280.487925 
L 403.497417 280.487925 
L 405.045639 280.487925 
L 406.543919 280.487925 
L 408.092142 280.487925 
L 409.590422 280.487925 
L 411.138645 280.487925 
L 412.686868 280.487925 
L 414.185148 280.487925 
L 415.733371 280.487925 
L 417.231651 280.487925 
L 418.779874 280.487925 
L 420.328097 280.487925 
L 421.726492 280.487925 
L 423.274715 280.487925 
L 424.772995 280.487925 
L 426.321218 280.487925 
L 427.819498 280.487925 
L 429.36772 280.487925 
L 430.915943 280.487925 
L 432.414223 280.487925 
L 433.962446 280.487925 
L 435.460726 280.487925 
L 437.008949 280.487925 
L 438.557172 280.487925 
L 440.00551 280.487925 
L 441.553732 280.487925 
L 443.052013 280.487925 
L 443.052013 177.166526 
L 443.052013 177.166526 
L 441.553732 177.286388 
L 440.00551 177.366297 
L 438.557172 179.084325 
L 437.008949 179.204187 
L 435.460726 179.244141 
L 433.962446 179.483866 
L 432.414223 179.603728 
L 430.915943 179.643682 
L 429.36772 179.763545 
L 427.819498 180.242994 
L 426.321218 180.482719 
L 424.772995 180.602582 
L 423.274715 180.602582 
L 421.726492 180.962169 
L 420.328097 181.561481 
L 418.779874 181.521527 
L 417.231651 181.641389 
L 415.733371 181.761252 
L 414.185148 182.000977 
L 412.686868 182.000977 
L 411.138645 182.040931 
L 409.590422 182.040931 
L 408.092142 182.000977 
L 406.543919 182.080885 
L 405.045639 182.000977 
L 403.497417 181.961022 
L 402.099022 182.000977 
L 400.550799 182.000977 
L 399.002576 182.200747 
L 397.504296 182.400518 
L 395.956073 182.720151 
L 394.457793 182.959876 
L 392.90957 182.919922 
L 391.361347 183.119692 
L 389.863067 183.399371 
L 388.314844 183.399371 
L 386.816564 183.559188 
L 385.268341 184.078592 
L 383.869946 184.198454 
L 382.321724 184.63795 
L 380.773501 184.677904 
L 379.275221 184.83772 
L 377.726998 184.917629 
L 376.228718 185.077445 
L 374.680495 185.117399 
L 373.132272 185.197308 
L 371.633992 185.197308 
L 370.085769 185.277216 
L 368.587489 185.636803 
L 367.039266 185.756665 
L 365.590929 185.836574 
L 364.042706 185.916482 
L 362.494483 185.916482 
L 360.996203 185.916482 
L 359.44798 186.036344 
L 357.9497 186.116253 
L 356.401477 186.276069 
L 354.853254 186.515794 
L 353.354974 186.635656 
L 351.806751 186.715565 
L 350.308471 186.795473 
L 348.760248 186.835427 
L 347.361853 186.835427 
L 345.813631 186.875381 
L 344.265408 186.915335 
L 342.767128 186.995244 
L 341.218905 187.035198 
L 339.720625 187.035198 
L 338.172402 187.15506 
L 336.624179 187.274923 
L 335.125899 187.514648 
L 333.577676 187.674464 
L 332.079396 187.994097 
L 330.531173 188.153914 
L 329.132778 188.31373 
L 327.584555 188.353684 
L 326.036333 188.513501 
L 324.538052 188.673317 
L 322.98983 190.4313 
L 321.491549 190.710979 
L 319.943327 191.470107 
L 318.395104 190.830841 
L 316.896824 190.750933 
L 315.348601 190.790887 
L 313.850321 190.870795 
L 312.302098 191.150474 
L 310.903703 191.190428 
L 309.35548 191.270336 
L 307.807257 192.029465 
L 306.308977 192.149327 
L 304.760754 192.349098 
L 303.262474 192.429006 
L 301.714251 192.548869 
L 300.166029 192.988364 
L 298.667748 193.188135 
L 297.119526 193.188135 
L 295.621245 193.587676 
L 294.073023 193.667585 
L 292.624685 193.707539 
L 291.076462 193.907309 
L 289.528239 193.987218 
L 288.029959 193.987218 
L 286.481736 194.186988 
L 284.983456 194.226943 
L 283.435233 194.266897 
L 281.887011 194.426713 
L 280.388731 194.546576 
L 278.840508 193.947264 
L 277.342228 194.027172 
L 275.794005 194.226943 
L 274.39561 194.226943 
L 272.847387 194.466667 
L 271.299164 194.626484 
L 269.800884 194.906163 
L 268.252661 195.26575 
L 266.754381 195.585383 
L 265.206158 195.665292 
L 263.657935 195.944971 
L 262.159655 196.184695 
L 260.611432 196.544283 
L 259.113152 196.704099 
L 257.564929 196.90387 
L 256.166535 196.943824 
L 254.618312 196.943824 
L 253.070089 197.143595 
L 251.571809 197.623044 
L 250.023586 197.662998 
L 248.525306 197.902723 
L 246.977083 198.581944 
L 245.42886 198.661852 
L 243.93058 199.141302 
L 242.382357 199.460935 
L 240.884077 200.539696 
L 239.335854 200.619605 
L 237.937459 200.739467 
L 236.389237 201.019146 
L 234.841014 201.099054 
L 233.342734 201.338779 
L 231.794511 201.53855 
L 230.296231 201.898137 
L 228.748008 202.097908 
L 227.199785 202.21777 
L 225.701505 202.457495 
L 224.153282 202.497449 
L 222.655002 202.617311 
L 221.106779 202.777128 
L 219.658442 202.777128 
L 218.110219 202.857036 
L 216.561996 202.89699 
L 215.063716 202.936945 
L 213.515493 202.976899 
L 212.017213 203.016853 
L 210.46899 203.136715 
L 207.522372 203.895844 
L 206.273806 204.095615 
L 205.225009 204.135569 
L 203.976443 204.015706 
L 202.977589 204.015706 
L 201.579194 204.135569 
L 198.732462 204.255431 
L 195.985615 204.894697 
L 195.13659 205.853597 
L 193.788138 205.69378 
L 192.389743 205.653826 
L 190.691692 206.373 
L 189.642896 206.373 
L 188.5941 206.133276 
L 183.999374 206.652679 
L 183.050463 206.732588 
L 178.156081 207.411808 
L 175.70889 207.491716 
L 174.909808 207.3319 
L 173.910954 207.451762 
L 173.261699 207.651533 
L 172.71233 207.691487 
L 169.416114 207.811349 
L 165.870184 207.891258 
L 164.072248 208.091028 
L 162.324254 210.208598 
L 159.177866 210.128689 
L 158.378783 210.168643 
L 157.080274 210.608139 
L 154.982682 211.726855 
L 151.736408 211.96658 
L 150.537784 212.366121 
L 147.740994 212.6458 
L 146.242714 213.484837 
L 144.494721 214.044195 
L 142.497014 214.48369 
L 141.048676 214.523644 
L 139.949937 214.603553 
L 139.200797 214.643507 
L 138.102059 214.683461 
L 137.053262 215.402635 
L 136.354065 215.762223 
L 136.154294 215.762223 
L 135.405154 215.762223 
L 134.406301 216.001948 
L 133.007906 215.762223 
L 132.508479 215.961993 
L 131.95911 216.041902 
L 131.160027 216.161764 
L 130.410887 216.161764 
L 129.71169 216.481397 
L 128.712836 217.200572 
L 128.363238 217.160617 
L 127.414327 217.520205 
L 126.215703 217.600113 
L 125.316735 217.680021 
L 124.817308 217.75993 
L 123.968282 217.879792 
L 123.418913 218.119517 
L 122.569888 218.319287 
L 121.87069 218.239379 
L 121.021665 218.319287 
L 117.725448 218.598966 
L 117.475735 218.559012 
L 115.478028 218.878645 
L 111.133016 216.960847 
L 108.78571 219.797591 
L 99.696144 223.513325 
L 85.062941 226.989335 
L 65.185758 231.464199 
L 48.055421 226.310115 
L 39.714995 225.670849 
L 31.274684 226.509886 
z
" clip-path="url(#p72b8a1ee40)" style="fill: #fb363b"/>
   </g>
   <g id="PolyCollection_2">
    <path d="M 31.274684 144.364179 
L 31.274684 226.509886 
L 39.714995 225.670849 
L 48.055421 226.310115 
L 65.185758 231.464199 
L 85.062941 226.989335 
L 99.696144 223.513325 
L 108.78571 219.797591 
L 111.133016 216.960847 
L 115.478028 218.878645 
L 117.475735 218.559012 
L 117.725448 218.598966 
L 121.021665 218.319287 
L 121.87069 218.239379 
L 122.569888 218.319287 
L 123.418913 218.119517 
L 123.968282 217.879792 
L 124.817308 217.75993 
L 125.316735 217.680021 
L 126.215703 217.600113 
L 127.414327 217.520205 
L 128.363238 217.160617 
L 128.712836 217.200572 
L 129.71169 216.481397 
L 130.410887 216.161764 
L 131.160027 216.161764 
L 131.95911 216.041902 
L 132.508479 215.961993 
L 133.007906 215.762223 
L 134.406301 216.001948 
L 135.405154 215.762223 
L 136.154294 215.762223 
L 136.354065 215.762223 
L 137.053262 215.402635 
L 138.102059 214.683461 
L 139.200797 214.643507 
L 139.949937 214.603553 
L 141.048676 214.523644 
L 142.497014 214.48369 
L 144.494721 214.044195 
L 146.242714 213.484837 
L 147.740994 212.6458 
L 150.537784 212.366121 
L 151.736408 211.96658 
L 154.982682 211.726855 
L 157.080274 210.608139 
L 158.378783 210.168643 
L 159.177866 210.128689 
L 162.324254 210.208598 
L 164.072248 208.091028 
L 165.870184 207.891258 
L 169.416114 207.811349 
L 172.71233 207.691487 
L 173.261699 207.651533 
L 173.910954 207.451762 
L 174.909808 207.3319 
L 175.70889 207.491716 
L 178.156081 207.411808 
L 183.050463 206.732588 
L 183.999374 206.652679 
L 188.5941 206.133276 
L 189.642896 206.373 
L 190.691692 206.373 
L 192.389743 205.653826 
L 193.788138 205.69378 
L 195.13659 205.853597 
L 195.985615 204.894697 
L 198.732462 204.255431 
L 201.579194 204.135569 
L 202.977589 204.015706 
L 203.976443 204.015706 
L 205.225009 204.135569 
L 206.273806 204.095615 
L 207.522372 203.895844 
L 210.46899 203.136715 
L 212.017213 203.016853 
L 213.515493 202.976899 
L 215.063716 202.936945 
L 216.561996 202.89699 
L 218.110219 202.857036 
L 219.658442 202.777128 
L 221.106779 202.777128 
L 222.655002 202.617311 
L 224.153282 202.497449 
L 225.701505 202.457495 
L 227.199785 202.21777 
L 228.748008 202.097908 
L 230.296231 201.898137 
L 231.794511 201.53855 
L 233.342734 201.338779 
L 234.841014 201.099054 
L 236.389237 201.019146 
L 237.937459 200.739467 
L 239.335854 200.619605 
L 240.884077 200.539696 
L 242.382357 199.460935 
L 243.93058 199.141302 
L 245.42886 198.661852 
L 246.977083 198.581944 
L 248.525306 197.902723 
L 250.023586 197.662998 
L 251.571809 197.623044 
L 253.070089 197.143595 
L 254.618312 196.943824 
L 256.166535 196.943824 
L 257.564929 196.90387 
L 259.113152 196.704099 
L 260.611432 196.544283 
L 262.159655 196.184695 
L 263.657935 195.944971 
L 265.206158 195.665292 
L 266.754381 195.585383 
L 268.252661 195.26575 
L 269.800884 194.906163 
L 271.299164 194.626484 
L 272.847387 194.466667 
L 274.39561 194.226943 
L 275.794005 194.226943 
L 277.342228 194.027172 
L 278.840508 193.947264 
L 280.388731 194.546576 
L 281.887011 194.426713 
L 283.435233 194.266897 
L 284.983456 194.226943 
L 286.481736 194.186988 
L 288.029959 193.987218 
L 289.528239 193.987218 
L 291.076462 193.907309 
L 292.624685 193.707539 
L 294.073023 193.667585 
L 295.621245 193.587676 
L 297.119526 193.188135 
L 298.667748 193.188135 
L 300.166029 192.988364 
L 301.714251 192.548869 
L 303.262474 192.429006 
L 304.760754 192.349098 
L 306.308977 192.149327 
L 307.807257 192.029465 
L 309.35548 191.270336 
L 310.903703 191.190428 
L 312.302098 191.150474 
L 313.850321 190.870795 
L 315.348601 190.790887 
L 316.896824 190.750933 
L 318.395104 190.830841 
L 319.943327 191.470107 
L 321.491549 190.710979 
L 322.98983 190.4313 
L 324.538052 188.673317 
L 326.036333 188.513501 
L 327.584555 188.353684 
L 329.132778 188.31373 
L 330.531173 188.153914 
L 332.079396 187.994097 
L 333.577676 187.674464 
L 335.125899 187.514648 
L 336.624179 187.274923 
L 338.172402 187.15506 
L 339.720625 187.035198 
L 341.218905 187.035198 
L 342.767128 186.995244 
L 344.265408 186.915335 
L 345.813631 186.875381 
L 347.361853 186.835427 
L 348.760248 186.835427 
L 350.308471 186.795473 
L 351.806751 186.715565 
L 353.354974 186.635656 
L 354.853254 186.515794 
L 356.401477 186.276069 
L 357.9497 186.116253 
L 359.44798 186.036344 
L 360.996203 185.916482 
L 362.494483 185.916482 
L 364.042706 185.916482 
L 365.590929 185.836574 
L 367.039266 185.756665 
L 368.587489 185.636803 
L 370.085769 185.277216 
L 371.633992 185.197308 
L 373.132272 185.197308 
L 374.680495 185.117399 
L 376.228718 185.077445 
L 377.726998 184.917629 
L 379.275221 184.83772 
L 380.773501 184.677904 
L 382.321724 184.63795 
L 383.869946 184.198454 
L 385.268341 184.078592 
L 386.816564 183.559188 
L 388.314844 183.399371 
L 389.863067 183.399371 
L 391.361347 183.119692 
L 392.90957 182.919922 
L 394.457793 182.959876 
L 395.956073 182.720151 
L 397.504296 182.400518 
L 399.002576 182.200747 
L 400.550799 182.000977 
L 402.099022 182.000977 
L 403.497417 181.961022 
L 405.045639 182.000977 
L 406.543919 182.080885 
L 408.092142 182.000977 
L 409.590422 182.040931 
L 411.138645 182.040931 
L 412.686868 182.000977 
L 414.185148 182.000977 
L 415.733371 181.761252 
L 417.231651 181.641389 
L 418.779874 181.521527 
L 420.328097 181.561481 
L 421.726492 180.962169 
L 423.274715 180.602582 
L 424.772995 180.602582 
L 426.321218 180.482719 
L 427.819498 180.242994 
L 429.36772 179.763545 
L 430.915943 179.643682 
L 432.414223 179.603728 
L 433.962446 179.483866 
L 435.460726 179.244141 
L 437.008949 179.204187 
L 438.557172 179.084325 
L 440.00551 177.366297 
L 441.553732 177.286388 
L 443.052013 177.166526 
L 443.052013 102.452289 
L 443.052013 102.452289 
L 441.553732 102.532197 
L 440.00551 102.492243 
L 438.557172 102.771922 
L 437.008949 103.051601 
L 435.460726 103.051601 
L 433.962446 103.171463 
L 432.414223 103.33128 
L 430.915943 103.411188 
L 429.36772 103.411188 
L 427.819498 103.690867 
L 426.321218 103.930592 
L 424.772995 104.050454 
L 423.274715 104.050454 
L 421.726492 104.090409 
L 420.328097 104.250225 
L 418.779874 104.370087 
L 417.231651 104.449996 
L 415.733371 104.449996 
L 414.185148 104.48995 
L 412.686868 104.370087 
L 411.138645 104.410042 
L 409.590422 104.410042 
L 408.092142 104.609812 
L 406.543919 104.569858 
L 405.045639 104.569858 
L 403.497417 104.609812 
L 402.099022 104.689721 
L 400.550799 104.689721 
L 399.002576 104.809583 
L 397.504296 104.769629 
L 395.956073 104.889491 
L 394.457793 104.929445 
L 392.90957 104.9694 
L 391.361347 105.009354 
L 389.863067 105.049308 
L 388.314844 105.009354 
L 386.816564 105.129216 
L 385.268341 105.328987 
L 383.869946 105.488803 
L 382.321724 105.528757 
L 380.773501 105.528757 
L 379.275221 105.608666 
L 377.726998 105.64862 
L 376.228718 105.728528 
L 374.680495 105.728528 
L 373.132272 105.768482 
L 371.633992 105.808436 
L 370.085769 105.688574 
L 368.587489 105.64862 
L 367.039266 105.688574 
L 365.590929 105.608666 
L 364.042706 105.608666 
L 362.494483 105.608666 
L 360.996203 105.608666 
L 359.44798 105.608666 
L 357.9497 105.64862 
L 356.401477 105.608666 
L 354.853254 105.64862 
L 353.354974 105.64862 
L 351.806751 105.528757 
L 350.308471 105.528757 
L 348.760248 105.568712 
L 347.361853 105.568712 
L 345.813631 105.64862 
L 344.265408 105.64862 
L 342.767128 105.728528 
L 341.218905 105.728528 
L 339.720625 105.728528 
L 338.172402 105.768482 
L 336.624179 105.768482 
L 335.125899 105.768482 
L 333.577676 105.808436 
L 332.079396 105.848391 
L 330.531173 106.168024 
L 329.132778 106.287886 
L 327.584555 106.207978 
L 326.036333 106.287886 
L 324.538052 106.407749 
L 322.98983 106.447703 
L 321.491549 107.007061 
L 319.943327 107.326694 
L 318.395104 109.524171 
L 316.896824 110.762749 
L 315.348601 111.202245 
L 313.850321 111.202245 
L 312.302098 111.521878 
L 310.903703 111.44197 
L 309.35548 110.642887 
L 307.807257 110.842658 
L 306.308977 111.282153 
L 304.760754 111.282153 
L 303.262474 111.162291 
L 301.714251 111.322107 
L 300.166029 111.362062 
L 298.667748 111.362062 
L 297.119526 111.402016 
L 295.621245 111.481924 
L 294.073023 111.481924 
L 292.624685 111.521878 
L 291.076462 111.521878 
L 289.528239 111.641741 
L 288.029959 111.681695 
L 286.481736 111.721649 
L 284.983456 111.721649 
L 283.435233 111.681695 
L 281.887011 111.721649 
L 280.388731 111.681695 
L 278.840508 112.320961 
L 277.342228 112.281007 
L 275.794005 112.360915 
L 274.39561 112.440823 
L 272.847387 112.560686 
L 271.299164 112.520732 
L 269.800884 112.80041 
L 268.252661 112.920273 
L 266.754381 113.080089 
L 265.206158 113.27986 
L 263.657935 113.319814 
L 262.159655 113.239906 
L 260.611432 113.319814 
L 259.113152 113.359768 
L 257.564929 113.359768 
L 256.166535 113.359768 
L 254.618312 113.359768 
L 253.070089 113.519585 
L 251.571809 113.599493 
L 250.023586 113.839218 
L 248.525306 113.879172 
L 246.977083 114.118897 
L 245.42886 114.198805 
L 243.93058 114.43853 
L 242.382357 114.558393 
L 240.884077 114.718209 
L 239.335854 114.758163 
L 237.937459 114.798117 
L 236.389237 114.957934 
L 234.841014 114.957934 
L 233.342734 115.157705 
L 231.794511 115.437384 
L 230.296231 115.5972 
L 228.748008 115.757017 
L 227.199785 115.956787 
L 225.701505 116.036696 
L 224.153282 116.356329 
L 222.655002 116.356329 
L 221.106779 116.396283 
L 219.658442 116.396283 
L 218.110219 116.396283 
L 216.561996 116.396283 
L 215.063716 116.396283 
L 213.515493 116.436237 
L 212.017213 116.596054 
L 210.46899 116.675962 
L 207.522372 117.155411 
L 206.273806 117.754724 
L 205.225009 118.034402 
L 203.976443 117.475045 
L 202.977589 117.794678 
L 201.579194 117.91454 
L 198.732462 118.074357 
L 195.985615 118.074357 
L 195.13659 118.234173 
L 193.788138 118.753577 
L 192.389743 118.713623 
L 190.691692 119.632568 
L 189.642896 119.632568 
L 188.5941 120.072064 
L 183.999374 120.351742 
L 183.050463 120.431651 
L 178.156081 121.550367 
L 175.70889 122.54922 
L 174.909808 122.589174 
L 173.910954 122.589174 
L 173.261699 122.589174 
L 172.71233 122.629128 
L 169.416114 122.189633 
L 165.870184 122.709037 
L 164.072248 122.908807 
L 162.324254 123.108578 
L 159.177866 123.22844 
L 158.378783 123.308349 
L 157.080274 123.508119 
L 154.982682 123.827752 
L 151.736408 123.667936 
L 150.537784 123.987569 
L 147.740994 123.947615 
L 146.242714 123.867707 
L 144.494721 124.227294 
L 142.497014 124.147386 
L 141.048676 124.027523 
L 139.949937 124.307202 
L 139.200797 124.347156 
L 138.102059 123.588028 
L 137.053262 123.627982 
L 136.354065 123.787798 
L 136.154294 123.787798 
L 135.405154 123.747844 
L 134.406301 124.267248 
L 133.007906 123.70789 
L 132.508479 123.70789 
L 131.95911 123.747844 
L 131.160027 123.787798 
L 130.410887 123.588028 
L 129.71169 124.027523 
L 128.712836 124.147386 
L 128.363238 123.907661 
L 127.414327 124.067477 
L 126.215703 124.027523 
L 125.316735 124.546927 
L 124.817308 124.467019 
L 123.968282 124.467019 
L 123.418913 122.669082 
L 122.569888 123.068624 
L 121.87069 122.06977 
L 121.021665 121.830046 
L 117.725448 122.109725 
L 117.475735 121.949908 
L 115.478028 122.229587 
L 111.133016 124.027523 
L 108.78571 124.906514 
L 99.696144 127.024083 
L 85.062941 130.060598 
L 65.185758 133.936149 
L 48.055421 140.129041 
L 39.714995 144.044546 
L 31.274684 144.364179 
z
" clip-path="url(#p72b8a1ee40)" style="fill: #fdc92c"/>
   </g>
   <g id="PolyCollection_3">
    <path d="M 31.274684 112.880319 
L 31.274684 144.364179 
L 39.714995 144.044546 
L 48.055421 140.129041 
L 65.185758 133.936149 
L 85.062941 130.060598 
L 99.696144 127.024083 
L 108.78571 124.906514 
L 111.133016 124.027523 
L 115.478028 122.229587 
L 117.475735 121.949908 
L 117.725448 122.109725 
L 121.021665 121.830046 
L 121.87069 122.06977 
L 122.569888 123.068624 
L 123.418913 122.669082 
L 123.968282 124.467019 
L 124.817308 124.467019 
L 125.316735 124.546927 
L 126.215703 124.027523 
L 127.414327 124.067477 
L 128.363238 123.907661 
L 128.712836 124.147386 
L 129.71169 124.027523 
L 130.410887 123.588028 
L 131.160027 123.787798 
L 131.95911 123.747844 
L 132.508479 123.70789 
L 133.007906 123.70789 
L 134.406301 124.267248 
L 135.405154 123.747844 
L 136.154294 123.787798 
L 136.354065 123.787798 
L 137.053262 123.627982 
L 138.102059 123.588028 
L 139.200797 124.347156 
L 139.949937 124.307202 
L 141.048676 124.027523 
L 142.497014 124.147386 
L 144.494721 124.227294 
L 146.242714 123.867707 
L 147.740994 123.947615 
L 150.537784 123.987569 
L 151.736408 123.667936 
L 154.982682 123.827752 
L 157.080274 123.508119 
L 158.378783 123.308349 
L 159.177866 123.22844 
L 162.324254 123.108578 
L 164.072248 122.908807 
L 165.870184 122.709037 
L 169.416114 122.189633 
L 172.71233 122.629128 
L 173.261699 122.589174 
L 173.910954 122.589174 
L 174.909808 122.589174 
L 175.70889 122.54922 
L 178.156081 121.550367 
L 183.050463 120.431651 
L 183.999374 120.351742 
L 188.5941 120.072064 
L 189.642896 119.632568 
L 190.691692 119.632568 
L 192.389743 118.713623 
L 193.788138 118.753577 
L 195.13659 118.234173 
L 195.985615 118.074357 
L 198.732462 118.074357 
L 201.579194 117.91454 
L 202.977589 117.794678 
L 203.976443 117.475045 
L 205.225009 118.034402 
L 206.273806 117.754724 
L 207.522372 117.155411 
L 210.46899 116.675962 
L 212.017213 116.596054 
L 213.515493 116.436237 
L 215.063716 116.396283 
L 216.561996 116.396283 
L 218.110219 116.396283 
L 219.658442 116.396283 
L 221.106779 116.396283 
L 222.655002 116.356329 
L 224.153282 116.356329 
L 225.701505 116.036696 
L 227.199785 115.956787 
L 228.748008 115.757017 
L 230.296231 115.5972 
L 231.794511 115.437384 
L 233.342734 115.157705 
L 234.841014 114.957934 
L 236.389237 114.957934 
L 237.937459 114.798117 
L 239.335854 114.758163 
L 240.884077 114.718209 
L 242.382357 114.558393 
L 243.93058 114.43853 
L 245.42886 114.198805 
L 246.977083 114.118897 
L 248.525306 113.879172 
L 250.023586 113.839218 
L 251.571809 113.599493 
L 253.070089 113.519585 
L 254.618312 113.359768 
L 256.166535 113.359768 
L 257.564929 113.359768 
L 259.113152 113.359768 
L 260.611432 113.319814 
L 262.159655 113.239906 
L 263.657935 113.319814 
L 265.206158 113.27986 
L 266.754381 113.080089 
L 268.252661 112.920273 
L 269.800884 112.80041 
L 271.299164 112.520732 
L 272.847387 112.560686 
L 274.39561 112.440823 
L 275.794005 112.360915 
L 277.342228 112.281007 
L 278.840508 112.320961 
L 280.388731 111.681695 
L 281.887011 111.721649 
L 283.435233 111.681695 
L 284.983456 111.721649 
L 286.481736 111.721649 
L 288.029959 111.681695 
L 289.528239 111.641741 
L 291.076462 111.521878 
L 292.624685 111.521878 
L 294.073023 111.481924 
L 295.621245 111.481924 
L 297.119526 111.402016 
L 298.667748 111.362062 
L 300.166029 111.362062 
L 301.714251 111.322107 
L 303.262474 111.162291 
L 304.760754 111.282153 
L 306.308977 111.282153 
L 307.807257 110.842658 
L 309.35548 110.642887 
L 310.903703 111.44197 
L 312.302098 111.521878 
L 313.850321 111.202245 
L 315.348601 111.202245 
L 316.896824 110.762749 
L 318.395104 109.524171 
L 319.943327 107.326694 
L 321.491549 107.007061 
L 322.98983 106.447703 
L 324.538052 106.407749 
L 326.036333 106.287886 
L 327.584555 106.207978 
L 329.132778 106.287886 
L 330.531173 106.168024 
L 332.079396 105.848391 
L 333.577676 105.808436 
L 335.125899 105.768482 
L 336.624179 105.768482 
L 338.172402 105.768482 
L 339.720625 105.728528 
L 341.218905 105.728528 
L 342.767128 105.728528 
L 344.265408 105.64862 
L 345.813631 105.64862 
L 347.361853 105.568712 
L 348.760248 105.568712 
L 350.308471 105.528757 
L 351.806751 105.528757 
L 353.354974 105.64862 
L 354.853254 105.64862 
L 356.401477 105.608666 
L 357.9497 105.64862 
L 359.44798 105.608666 
L 360.996203 105.608666 
L 362.494483 105.608666 
L 364.042706 105.608666 
L 365.590929 105.608666 
L 367.039266 105.688574 
L 368.587489 105.64862 
L 370.085769 105.688574 
L 371.633992 105.808436 
L 373.132272 105.768482 
L 374.680495 105.728528 
L 376.228718 105.728528 
L 377.726998 105.64862 
L 379.275221 105.608666 
L 380.773501 105.528757 
L 382.321724 105.528757 
L 383.869946 105.488803 
L 385.268341 105.328987 
L 386.816564 105.129216 
L 388.314844 105.009354 
L 389.863067 105.049308 
L 391.361347 105.009354 
L 392.90957 104.9694 
L 394.457793 104.929445 
L 395.956073 104.889491 
L 397.504296 104.769629 
L 399.002576 104.809583 
L 400.550799 104.689721 
L 402.099022 104.689721 
L 403.497417 104.609812 
L 405.045639 104.569858 
L 406.543919 104.569858 
L 408.092142 104.609812 
L 409.590422 104.410042 
L 411.138645 104.410042 
L 412.686868 104.370087 
L 414.185148 104.48995 
L 415.733371 104.449996 
L 417.231651 104.449996 
L 418.779874 104.370087 
L 420.328097 104.250225 
L 421.726492 104.090409 
L 423.274715 104.050454 
L 424.772995 104.050454 
L 426.321218 103.930592 
L 427.819498 103.690867 
L 429.36772 103.411188 
L 430.915943 103.411188 
L 432.414223 103.33128 
L 433.962446 103.171463 
L 435.460726 103.051601 
L 437.008949 103.051601 
L 438.557172 102.771922 
L 440.00551 102.492243 
L 441.553732 102.532197 
L 443.052013 102.452289 
L 443.052013 88.787974 
L 443.052013 88.787974 
L 441.553732 88.787974 
L 440.00551 88.787974 
L 438.557172 88.827928 
L 437.008949 88.827928 
L 435.460726 88.827928 
L 433.962446 88.867882 
L 432.414223 88.867882 
L 430.915943 88.867882 
L 429.36772 88.867882 
L 427.819498 88.94779 
L 426.321218 88.94779 
L 424.772995 88.94779 
L 423.274715 88.94779 
L 421.726492 88.94779 
L 420.328097 88.987745 
L 418.779874 88.987745 
L 417.231651 89.067653 
L 415.733371 89.067653 
L 414.185148 89.107607 
L 412.686868 89.107607 
L 411.138645 89.107607 
L 409.590422 89.107607 
L 408.092142 89.187515 
L 406.543919 89.267424 
L 405.045639 89.267424 
L 403.497417 89.267424 
L 402.099022 89.267424 
L 400.550799 89.267424 
L 399.002576 89.307378 
L 397.504296 89.267424 
L 395.956073 89.347332 
L 394.457793 89.347332 
L 392.90957 89.347332 
L 391.361347 89.387286 
L 389.863067 89.387286 
L 388.314844 89.387286 
L 386.816564 89.42724 
L 385.268341 89.467194 
L 383.869946 89.507148 
L 382.321724 89.507148 
L 380.773501 89.467194 
L 379.275221 89.467194 
L 377.726998 89.467194 
L 376.228718 89.42724 
L 374.680495 89.42724 
L 373.132272 89.467194 
L 371.633992 89.467194 
L 370.085769 89.387286 
L 368.587489 89.347332 
L 367.039266 89.347332 
L 365.590929 89.387286 
L 364.042706 89.387286 
L 362.494483 89.387286 
L 360.996203 89.387286 
L 359.44798 89.387286 
L 357.9497 89.387286 
L 356.401477 89.387286 
L 354.853254 89.387286 
L 353.354974 89.387286 
L 351.806751 89.307378 
L 350.308471 89.307378 
L 348.760248 89.307378 
L 347.361853 89.307378 
L 345.813631 89.267424 
L 344.265408 89.267424 
L 342.767128 89.347332 
L 341.218905 89.347332 
L 339.720625 89.347332 
L 338.172402 89.387286 
L 336.624179 89.387286 
L 335.125899 89.387286 
L 333.577676 89.42724 
L 332.079396 89.467194 
L 330.531173 89.547103 
L 329.132778 89.547103 
L 327.584555 89.547103 
L 326.036333 89.706919 
L 324.538052 89.706919 
L 322.98983 89.706919 
L 321.491549 89.587057 
L 319.943327 89.627011 
L 318.395104 89.826781 
L 316.896824 90.785681 
L 315.348601 90.945497 
L 313.850321 90.985451 
L 312.302098 91.025406 
L 310.903703 91.025406 
L 309.35548 91.025406 
L 307.807257 91.025406 
L 306.308977 91.06536 
L 304.760754 91.06536 
L 303.262474 91.105314 
L 301.714251 91.145268 
L 300.166029 91.185222 
L 298.667748 91.185222 
L 297.119526 91.185222 
L 295.621245 91.185222 
L 294.073023 91.185222 
L 292.624685 91.225176 
L 291.076462 91.225176 
L 289.528239 91.26513 
L 288.029959 91.305085 
L 286.481736 91.305085 
L 284.983456 91.305085 
L 283.435233 91.305085 
L 281.887011 91.305085 
L 280.388731 91.305085 
L 278.840508 91.305085 
L 277.342228 91.305085 
L 275.794005 91.384993 
L 274.39561 91.384993 
L 272.847387 91.384993 
L 271.299164 91.424947 
L 269.800884 91.424947 
L 268.252661 91.464901 
L 266.754381 91.624718 
L 265.206158 92.583617 
L 263.657935 92.583617 
L 262.159655 92.583617 
L 260.611432 92.663525 
L 259.113152 92.663525 
L 257.564929 92.663525 
L 256.166535 92.663525 
L 254.618312 92.663525 
L 253.070089 92.663525 
L 251.571809 92.743433 
L 250.023586 92.663525 
L 248.525306 92.703479 
L 246.977083 92.783388 
L 245.42886 92.863296 
L 243.93058 93.063067 
L 242.382357 93.103021 
L 240.884077 93.103021 
L 239.335854 93.103021 
L 237.937459 93.103021 
L 236.389237 93.182929 
L 234.841014 93.182929 
L 233.342734 93.262837 
L 231.794511 93.262837 
L 230.296231 93.142975 
L 228.748008 93.222883 
L 227.199785 93.222883 
L 225.701505 93.222883 
L 224.153282 93.262837 
L 222.655002 93.262837 
L 221.106779 93.262837 
L 219.658442 93.302791 
L 218.110219 93.302791 
L 216.561996 93.342746 
L 215.063716 93.302791 
L 213.515493 93.302791 
L 212.017213 93.3827 
L 210.46899 93.422654 
L 207.522372 93.702333 
L 206.273806 94.301645 
L 205.225009 94.581324 
L 203.976443 93.942058 
L 202.977589 94.461461 
L 201.579194 94.501416 
L 198.732462 95.420361 
L 195.985615 95.420361 
L 195.13659 95.380407 
L 193.788138 95.540223 
L 192.389743 95.540223 
L 190.691692 95.620131 
L 189.642896 95.620131 
L 188.5941 95.660086 
L 183.999374 95.819902 
L 183.050463 95.819902 
L 178.156081 96.85871 
L 175.70889 96.978572 
L 174.909808 97.018526 
L 173.910954 97.138389 
L 173.261699 97.138389 
L 172.71233 97.138389 
L 169.416114 97.138389 
L 165.870184 97.378113 
L 164.072248 97.497976 
L 162.324254 97.53793 
L 159.177866 97.617838 
L 158.378783 97.737701 
L 157.080274 97.937471 
L 154.982682 98.177196 
L 151.736408 98.337013 
L 150.537784 98.976279 
L 147.740994 99.016233 
L 146.242714 99.295912 
L 144.494721 99.615545 
L 142.497014 99.695453 
L 141.048676 99.695453 
L 139.949937 99.695453 
L 139.200797 99.695453 
L 138.102059 99.85527 
L 137.053262 100.015087 
L 136.354065 100.134949 
L 136.154294 100.134949 
L 135.405154 100.094995 
L 134.406301 100.654353 
L 133.007906 100.174903 
L 132.508479 100.174903 
L 131.95911 100.254811 
L 131.160027 100.254811 
L 130.410887 100.254811 
L 129.71169 100.854123 
L 128.712836 100.854123 
L 128.363238 100.374674 
L 127.414327 100.973986 
L 126.215703 102.092702 
L 125.316735 103.011647 
L 124.817308 103.051601 
L 123.968282 103.051601 
L 123.418913 103.091555 
L 122.569888 103.690867 
L 121.87069 103.131509 
L 121.021665 103.131509 
L 117.725448 103.411188 
L 117.475735 103.451142 
L 115.478028 103.491096 
L 111.133016 100.854123 
L 108.78571 103.650913 
L 99.696144 105.568712 
L 85.062941 107.526464 
L 65.185758 108.884905 
L 48.055421 110.922566 
L 39.714995 113.319814 
L 31.274684 112.880319 
z
" clip-path="url(#p72b8a1ee40)" style="fill: #aeaeae"/>
   </g>
   <g id="PolyCollection_4">
    <path d="M 31.274684 88.628157 
L 31.274684 112.880319 
L 39.714995 113.319814 
L 48.055421 110.922566 
L 65.185758 108.884905 
L 85.062941 107.526464 
L 99.696144 105.568712 
L 108.78571 103.650913 
L 111.133016 100.854123 
L 115.478028 103.491096 
L 117.475735 103.451142 
L 117.725448 103.411188 
L 121.021665 103.131509 
L 121.87069 103.131509 
L 122.569888 103.690867 
L 123.418913 103.091555 
L 123.968282 103.051601 
L 124.817308 103.051601 
L 125.316735 103.011647 
L 126.215703 102.092702 
L 127.414327 100.973986 
L 128.363238 100.374674 
L 128.712836 100.854123 
L 129.71169 100.854123 
L 130.410887 100.254811 
L 131.160027 100.254811 
L 131.95911 100.254811 
L 132.508479 100.174903 
L 133.007906 100.174903 
L 134.406301 100.654353 
L 135.405154 100.094995 
L 136.154294 100.134949 
L 136.354065 100.134949 
L 137.053262 100.015087 
L 138.102059 99.85527 
L 139.200797 99.695453 
L 139.949937 99.695453 
L 141.048676 99.695453 
L 142.497014 99.695453 
L 144.494721 99.615545 
L 146.242714 99.295912 
L 147.740994 99.016233 
L 150.537784 98.976279 
L 151.736408 98.337013 
L 154.982682 98.177196 
L 157.080274 97.937471 
L 158.378783 97.737701 
L 159.177866 97.617838 
L 162.324254 97.53793 
L 164.072248 97.497976 
L 165.870184 97.378113 
L 169.416114 97.138389 
L 172.71233 97.138389 
L 173.261699 97.138389 
L 173.910954 97.138389 
L 174.909808 97.018526 
L 175.70889 96.978572 
L 178.156081 96.85871 
L 183.050463 95.819902 
L 183.999374 95.819902 
L 188.5941 95.660086 
L 189.642896 95.620131 
L 190.691692 95.620131 
L 192.389743 95.540223 
L 193.788138 95.540223 
L 195.13659 95.380407 
L 195.985615 95.420361 
L 198.732462 95.420361 
L 201.579194 94.501416 
L 202.977589 94.461461 
L 203.976443 93.942058 
L 205.225009 94.581324 
L 206.273806 94.301645 
L 207.522372 93.702333 
L 210.46899 93.422654 
L 212.017213 93.3827 
L 213.515493 93.302791 
L 215.063716 93.302791 
L 216.561996 93.342746 
L 218.110219 93.302791 
L 219.658442 93.302791 
L 221.106779 93.262837 
L 222.655002 93.262837 
L 224.153282 93.262837 
L 225.701505 93.222883 
L 227.199785 93.222883 
L 228.748008 93.222883 
L 230.296231 93.142975 
L 231.794511 93.262837 
L 233.342734 93.262837 
L 234.841014 93.182929 
L 236.389237 93.182929 
L 237.937459 93.103021 
L 239.335854 93.103021 
L 240.884077 93.103021 
L 242.382357 93.103021 
L 243.93058 93.063067 
L 245.42886 92.863296 
L 246.977083 92.783388 
L 248.525306 92.703479 
L 250.023586 92.663525 
L 251.571809 92.743433 
L 253.070089 92.663525 
L 254.618312 92.663525 
L 256.166535 92.663525 
L 257.564929 92.663525 
L 259.113152 92.663525 
L 260.611432 92.663525 
L 262.159655 92.583617 
L 263.657935 92.583617 
L 265.206158 92.583617 
L 266.754381 91.624718 
L 268.252661 91.464901 
L 269.800884 91.424947 
L 271.299164 91.424947 
L 272.847387 91.384993 
L 274.39561 91.384993 
L 275.794005 91.384993 
L 277.342228 91.305085 
L 278.840508 91.305085 
L 280.388731 91.305085 
L 281.887011 91.305085 
L 283.435233 91.305085 
L 284.983456 91.305085 
L 286.481736 91.305085 
L 288.029959 91.305085 
L 289.528239 91.26513 
L 291.076462 91.225176 
L 292.624685 91.225176 
L 294.073023 91.185222 
L 295.621245 91.185222 
L 297.119526 91.185222 
L 298.667748 91.185222 
L 300.166029 91.185222 
L 301.714251 91.145268 
L 303.262474 91.105314 
L 304.760754 91.06536 
L 306.308977 91.06536 
L 307.807257 91.025406 
L 309.35548 91.025406 
L 310.903703 91.025406 
L 312.302098 91.025406 
L 313.850321 90.985451 
L 315.348601 90.945497 
L 316.896824 90.785681 
L 318.395104 89.826781 
L 319.943327 89.627011 
L 321.491549 89.587057 
L 322.98983 89.706919 
L 324.538052 89.706919 
L 326.036333 89.706919 
L 327.584555 89.547103 
L 329.132778 89.547103 
L 330.531173 89.547103 
L 332.079396 89.467194 
L 333.577676 89.42724 
L 335.125899 89.387286 
L 336.624179 89.387286 
L 338.172402 89.387286 
L 339.720625 89.347332 
L 341.218905 89.347332 
L 342.767128 89.347332 
L 344.265408 89.267424 
L 345.813631 89.267424 
L 347.361853 89.307378 
L 348.760248 89.307378 
L 350.308471 89.307378 
L 351.806751 89.307378 
L 353.354974 89.387286 
L 354.853254 89.387286 
L 356.401477 89.387286 
L 357.9497 89.387286 
L 359.44798 89.387286 
L 360.996203 89.387286 
L 362.494483 89.387286 
L 364.042706 89.387286 
L 365.590929 89.387286 
L 367.039266 89.347332 
L 368.587489 89.347332 
L 370.085769 89.387286 
L 371.633992 89.467194 
L 373.132272 89.467194 
L 374.680495 89.42724 
L 376.228718 89.42724 
L 377.726998 89.467194 
L 379.275221 89.467194 
L 380.773501 89.467194 
L 382.321724 89.507148 
L 383.869946 89.507148 
L 385.268341 89.467194 
L 386.816564 89.42724 
L 388.314844 89.387286 
L 389.863067 89.387286 
L 391.361347 89.387286 
L 392.90957 89.347332 
L 394.457793 89.347332 
L 395.956073 89.347332 
L 397.504296 89.267424 
L 399.002576 89.307378 
L 400.550799 89.267424 
L 402.099022 89.267424 
L 403.497417 89.267424 
L 405.045639 89.267424 
L 406.543919 89.267424 
L 408.092142 89.187515 
L 409.590422 89.107607 
L 411.138645 89.107607 
L 412.686868 89.107607 
L 414.185148 89.107607 
L 415.733371 89.067653 
L 417.231651 89.067653 
L 418.779874 88.987745 
L 420.328097 88.987745 
L 421.726492 88.94779 
L 423.274715 88.94779 
L 424.772995 88.94779 
L 426.321218 88.94779 
L 427.819498 88.94779 
L 429.36772 88.867882 
L 430.915943 88.867882 
L 432.414223 88.867882 
L 433.962446 88.867882 
L 435.460726 88.827928 
L 437.008949 88.827928 
L 438.557172 88.827928 
L 440.00551 88.787974 
L 441.553732 88.787974 
L 443.052013 88.787974 
L 443.052013 78.439852 
L 443.052013 78.439852 
L 441.553732 78.439852 
L 440.00551 78.439852 
L 438.557172 78.439852 
L 437.008949 78.439852 
L 435.460726 78.439852 
L 433.962446 78.439852 
L 432.414223 78.439852 
L 430.915943 78.439852 
L 429.36772 78.439852 
L 427.819498 78.439852 
L 426.321218 78.439852 
L 424.772995 78.439852 
L 423.274715 78.439852 
L 421.726492 78.439852 
L 420.328097 78.639623 
L 418.779874 78.679577 
L 417.231651 78.719531 
L 415.733371 78.719531 
L 414.185148 78.719531 
L 412.686868 78.719531 
L 411.138645 78.719531 
L 409.590422 78.719531 
L 408.092142 78.719531 
L 406.543919 78.719531 
L 405.045639 78.719531 
L 403.497417 78.759485 
L 402.099022 78.719531 
L 400.550799 78.719531 
L 399.002576 78.759485 
L 397.504296 78.479806 
L 395.956073 78.479806 
L 394.457793 78.120219 
L 392.90957 78.120219 
L 391.361347 78.120219 
L 389.863067 78.120219 
L 388.314844 78.120219 
L 386.816564 78.120219 
L 385.268341 78.160173 
L 383.869946 78.160173 
L 382.321724 78.160173 
L 380.773501 78.120219 
L 379.275221 78.120219 
L 377.726998 78.120219 
L 376.228718 78.160173 
L 374.680495 78.160173 
L 373.132272 78.160173 
L 371.633992 78.160173 
L 370.085769 78.080265 
L 368.587489 78.040311 
L 367.039266 78.040311 
L 365.590929 78.040311 
L 364.042706 78.040311 
L 362.494483 78.040311 
L 360.996203 78.040311 
L 359.44798 78.040311 
L 357.9497 78.040311 
L 356.401477 78.040311 
L 354.853254 78.040311 
L 353.354974 78.040311 
L 351.806751 77.960403 
L 350.308471 77.960403 
L 348.760248 77.960403 
L 347.361853 77.960403 
L 345.813631 77.960403 
L 344.265408 77.960403 
L 342.767128 77.960403 
L 341.218905 77.960403 
L 339.720625 77.960403 
L 338.172402 77.920449 
L 336.624179 77.920449 
L 335.125899 77.920449 
L 333.577676 77.920449 
L 332.079396 77.920449 
L 330.531173 77.920449 
L 329.132778 77.920449 
L 327.584555 77.920449 
L 326.036333 77.920449 
L 324.538052 77.920449 
L 322.98983 77.920449 
L 321.491549 77.920449 
L 319.943327 77.920449 
L 318.395104 77.920449 
L 316.896824 77.920449 
L 315.348601 77.920449 
L 313.850321 77.920449 
L 312.302098 77.920449 
L 310.903703 77.920449 
L 309.35548 77.920449 
L 307.807257 77.920449 
L 306.308977 77.920449 
L 304.760754 77.920449 
L 303.262474 77.920449 
L 301.714251 77.920449 
L 300.166029 77.920449 
L 298.667748 77.920449 
L 297.119526 77.920449 
L 295.621245 77.920449 
L 294.073023 78.280036 
L 292.624685 78.31999 
L 291.076462 78.31999 
L 289.528239 78.31999 
L 288.029959 78.479806 
L 286.481736 78.479806 
L 284.983456 78.479806 
L 283.435233 78.479806 
L 281.887011 78.479806 
L 280.388731 78.479806 
L 278.840508 78.479806 
L 277.342228 78.479806 
L 275.794005 78.479806 
L 274.39561 78.479806 
L 272.847387 78.479806 
L 271.299164 78.519761 
L 269.800884 78.519761 
L 268.252661 78.519761 
L 266.754381 78.519761 
L 265.206158 78.240082 
L 263.657935 78.399898 
L 262.159655 78.359944 
L 260.611432 78.359944 
L 259.113152 78.359944 
L 257.564929 78.359944 
L 256.166535 78.359944 
L 254.618312 78.359944 
L 253.070089 78.359944 
L 251.571809 78.399898 
L 250.023586 78.399898 
L 248.525306 78.399898 
L 246.977083 78.359944 
L 245.42886 78.359944 
L 243.93058 78.359944 
L 242.382357 78.359944 
L 240.884077 78.359944 
L 239.335854 78.359944 
L 237.937459 78.359944 
L 236.389237 78.359944 
L 234.841014 78.359944 
L 233.342734 78.359944 
L 231.794511 78.399898 
L 230.296231 78.359944 
L 228.748008 78.399898 
L 227.199785 78.359944 
L 225.701505 78.359944 
L 224.153282 78.359944 
L 222.655002 78.359944 
L 221.106779 78.359944 
L 219.658442 78.359944 
L 218.110219 78.399898 
L 216.561996 78.399898 
L 215.063716 78.359944 
L 213.515493 78.359944 
L 212.017213 78.359944 
L 210.46899 78.439852 
L 207.522372 78.719531 
L 206.273806 79.398752 
L 205.225009 79.47866 
L 203.976443 78.839394 
L 202.977589 80.397605 
L 201.579194 80.397605 
L 198.732462 81.835954 
L 195.985615 81.835954 
L 195.13659 81.796 
L 193.788138 81.955816 
L 192.389743 81.915862 
L 190.691692 81.915862 
L 189.642896 81.915862 
L 188.5941 81.915862 
L 183.999374 82.235495 
L 183.050463 82.235495 
L 178.156081 82.435266 
L 175.70889 82.395312 
L 174.909808 82.395312 
L 173.910954 82.47522 
L 173.261699 82.47522 
L 172.71233 82.47522 
L 169.416114 83.034578 
L 165.870184 83.154441 
L 164.072248 83.154441 
L 162.324254 83.154441 
L 159.177866 83.154441 
L 158.378783 83.114486 
L 157.080274 83.114486 
L 154.982682 82.994624 
L 151.736408 82.95467 
L 150.537784 83.993477 
L 147.740994 84.11334 
L 146.242714 84.233202 
L 144.494721 84.11334 
L 142.497014 84.11334 
L 141.048676 84.073386 
L 139.949937 84.073386 
L 139.200797 84.073386 
L 138.102059 84.033432 
L 137.053262 84.033432 
L 136.354065 84.073386 
L 136.154294 84.073386 
L 135.405154 84.073386 
L 134.406301 84.512881 
L 133.007906 84.073386 
L 132.508479 84.073386 
L 131.95911 84.11334 
L 131.160027 84.033432 
L 130.410887 84.033432 
L 129.71169 84.432973 
L 128.712836 84.353065 
L 128.363238 83.913569 
L 127.414327 84.472927 
L 126.215703 84.31311 
L 125.316735 84.353065 
L 124.817308 84.353065 
L 123.968282 84.353065 
L 123.418913 84.393019 
L 122.569888 84.912423 
L 121.87069 84.353065 
L 121.021665 84.353065 
L 117.725448 85.351918 
L 117.475735 85.391872 
L 115.478028 85.351918 
L 111.133016 84.432973 
L 108.78571 85.351918 
L 99.696144 86.151001 
L 85.062941 86.590496 
L 65.185758 87.309671 
L 48.055421 87.749166 
L 39.714995 88.787974 
L 31.274684 88.628157 
z
" clip-path="url(#p72b8a1ee40)" style="fill: #d5dce5"/>
   </g>
   <g id="matplotlib.axis_1">
    <g id="xtick_1">
     <g id="line2d_1">
      <defs>
       <path id="mf8788ced19" d="M 0 0 
L 0 3.5 
" style="stroke: #000000; stroke-width: 0.8"/>
      </defs>
      <g>
       <use xlink:href="#mf8788ced19" x="72.177732" y="280.487925" style="stroke: #000000; stroke-width: 0.8"/>
      </g>
     </g>
     <g id="text_1">
      <!-- 2004 -->
      <g transform="translate(59.452732 295.086363) scale(0.1 -0.1)">
       <defs>
        <path id="DejaVuSans-32" d="M 1228 531 
L 3431 531 
L 3431 0 
L 469 0 
L 469 531 
Q 828 903 1448 1529 
Q 2069 2156 2228 2338 
Q 2531 2678 2651 2914 
Q 2772 3150 2772 3378 
Q 2772 3750 2511 3984 
Q 2250 4219 1831 4219 
Q 1534 4219 1204 4116 
Q 875 4013 500 3803 
L 500 4441 
Q 881 4594 1212 4672 
Q 1544 4750 1819 4750 
Q 2544 4750 2975 4387 
Q 3406 4025 3406 3419 
Q 3406 3131 3298 2873 
Q 3191 2616 2906 2266 
Q 2828 2175 2409 1742 
Q 1991 1309 1228 531 
z
" transform="scale(0.015625)"/>
        <path id="DejaVuSans-30" d="M 2034 4250 
Q 1547 4250 1301 3770 
Q 1056 3291 1056 2328 
Q 1056 1369 1301 889 
Q 1547 409 2034 409 
Q 2525 409 2770 889 
Q 3016 1369 3016 2328 
Q 3016 3291 2770 3770 
Q 2525 4250 2034 4250 
z
M 2034 4750 
Q 2819 4750 3233 4129 
Q 3647 3509 3647 2328 
Q 3647 1150 3233 529 
Q 2819 -91 2034 -91 
Q 1250 -91 836 529 
Q 422 1150 422 2328 
Q 422 3509 836 4129 
Q 1250 4750 2034 4750 
z
" transform="scale(0.015625)"/>
        <path id="DejaVuSans-34" d="M 2419 4116 
L 825 1625 
L 2419 1625 
L 2419 4116 
z
M 2253 4666 
L 3047 4666 
L 3047 1625 
L 3713 1625 
L 3713 1100 
L 3047 1100 
L 3047 0 
L 2419 0 
L 2419 1100 
L 313 1100 
L 313 1709 
L 2253 4666 
z
" transform="scale(0.015625)"/>
       </defs>
       <use xlink:href="#DejaVuSans-32"/>
       <use xlink:href="#DejaVuSans-30" x="63.623047"/>
       <use xlink:href="#DejaVuSans-30" x="127.246094"/>
       <use xlink:href="#DejaVuSans-34" x="190.869141"/>
      </g>
     </g>
    </g>
    <g id="xtick_2">
     <g id="line2d_2">
      <g>
       <use xlink:href="#mf8788ced19" x="108.685825" y="280.487925" style="stroke: #000000; stroke-width: 0.8"/>
      </g>
     </g>
     <g id="text_2">
      <!-- 2006 -->
      <g transform="translate(95.960825 295.086363) scale(0.1 -0.1)">
       <defs>
        <path id="DejaVuSans-36" d="M 2113 2584 
Q 1688 2584 1439 2293 
Q 1191 2003 1191 1497 
Q 1191 994 1439 701 
Q 1688 409 2113 409 
Q 2538 409 2786 701 
Q 3034 994 3034 1497 
Q 3034 2003 2786 2293 
Q 2538 2584 2113 2584 
z
M 3366 4563 
L 3366 3988 
Q 3128 4100 2886 4159 
Q 2644 4219 2406 4219 
Q 1781 4219 1451 3797 
Q 1122 3375 1075 2522 
Q 1259 2794 1537 2939 
Q 1816 3084 2150 3084 
Q 2853 3084 3261 2657 
Q 3669 2231 3669 1497 
Q 3669 778 3244 343 
Q 2819 -91 2113 -91 
Q 1303 -91 875 529 
Q 447 1150 447 2328 
Q 447 3434 972 4092 
Q 1497 4750 2381 4750 
Q 2619 4750 2861 4703 
Q 3103 4656 3366 4563 
z
" transform="scale(0.015625)"/>
       </defs>
       <use xlink:href="#DejaVuSans-32"/>
       <use xlink:href="#DejaVuSans-30" x="63.623047"/>
       <use xlink:href="#DejaVuSans-30" x="127.246094"/>
       <use xlink:href="#DejaVuSans-36" x="190.869141"/>
      </g>
     </g>
    </g>
    <g id="xtick_3">
     <g id="line2d_3">
      <g>
       <use xlink:href="#mf8788ced19" x="145.143975" y="280.487925" style="stroke: #000000; stroke-width: 0.8"/>
      </g>
     </g>
     <g id="text_3">
      <!-- 2008 -->
      <g transform="translate(132.418975 295.086363) scale(0.1 -0.1)">
       <defs>
        <path id="DejaVuSans-38" d="M 2034 2216 
Q 1584 2216 1326 1975 
Q 1069 1734 1069 1313 
Q 1069 891 1326 650 
Q 1584 409 2034 409 
Q 2484 409 2743 651 
Q 3003 894 3003 1313 
Q 3003 1734 2745 1975 
Q 2488 2216 2034 2216 
z
M 1403 2484 
Q 997 2584 770 2862 
Q 544 3141 544 3541 
Q 544 4100 942 4425 
Q 1341 4750 2034 4750 
Q 2731 4750 3128 4425 
Q 3525 4100 3525 3541 
Q 3525 3141 3298 2862 
Q 3072 2584 2669 2484 
Q 3125 2378 3379 2068 
Q 3634 1759 3634 1313 
Q 3634 634 3220 271 
Q 2806 -91 2034 -91 
Q 1263 -91 848 271 
Q 434 634 434 1313 
Q 434 1759 690 2068 
Q 947 2378 1403 2484 
z
M 1172 3481 
Q 1172 3119 1398 2916 
Q 1625 2713 2034 2713 
Q 2441 2713 2670 2916 
Q 2900 3119 2900 3481 
Q 2900 3844 2670 4047 
Q 2441 4250 2034 4250 
Q 1625 4250 1398 4047 
Q 1172 3844 1172 3481 
z
" transform="scale(0.015625)"/>
       </defs>
       <use xlink:href="#DejaVuSans-32"/>
       <use xlink:href="#DejaVuSans-30" x="63.623047"/>
       <use xlink:href="#DejaVuSans-30" x="127.246094"/>
       <use xlink:href="#DejaVuSans-38" x="190.869141"/>
      </g>
     </g>
    </g>
    <g id="xtick_4">
     <g id="line2d_4">
      <g>
       <use xlink:href="#mf8788ced19" x="181.652068" y="280.487925" style="stroke: #000000; stroke-width: 0.8"/>
      </g>
     </g>
     <g id="text_4">
      <!-- 2010 -->
      <g transform="translate(168.927068 295.086363) scale(0.1 -0.1)">
       <defs>
        <path id="DejaVuSans-31" d="M 794 531 
L 1825 531 
L 1825 4091 
L 703 3866 
L 703 4441 
L 1819 4666 
L 2450 4666 
L 2450 531 
L 3481 531 
L 3481 0 
L 794 0 
L 794 531 
z
" transform="scale(0.015625)"/>
       </defs>
       <use xlink:href="#DejaVuSans-32"/>
       <use xlink:href="#DejaVuSans-30" x="63.623047"/>
       <use xlink:href="#DejaVuSans-31" x="127.246094"/>
       <use xlink:href="#DejaVuSans-30" x="190.869141"/>
      </g>
     </g>
    </g>
    <g id="xtick_5">
     <g id="line2d_5">
      <g>
       <use xlink:href="#mf8788ced19" x="218.110219" y="280.487925" style="stroke: #000000; stroke-width: 0.8"/>
      </g>
     </g>
     <g id="text_5">
      <!-- 2012 -->
      <g transform="translate(205.385219 295.086363) scale(0.1 -0.1)">
       <use xlink:href="#DejaVuSans-32"/>
       <use xlink:href="#DejaVuSans-30" x="63.623047"/>
       <use xlink:href="#DejaVuSans-31" x="127.246094"/>
       <use xlink:href="#DejaVuSans-32" x="190.869141"/>
      </g>
     </g>
    </g>
    <g id="xtick_6">
     <g id="line2d_6">
      <g>
       <use xlink:href="#mf8788ced19" x="254.618312" y="280.487925" style="stroke: #000000; stroke-width: 0.8"/>
      </g>
     </g>
     <g id="text_6">
      <!-- 2014 -->
      <g transform="translate(241.893312 295.086363) scale(0.1 -0.1)">
       <use xlink:href="#DejaVuSans-32"/>
       <use xlink:href="#DejaVuSans-30" x="63.623047"/>
       <use xlink:href="#DejaVuSans-31" x="127.246094"/>
       <use xlink:href="#DejaVuSans-34" x="190.869141"/>
      </g>
     </g>
    </g>
    <g id="xtick_7">
     <g id="line2d_7">
      <g>
       <use xlink:href="#mf8788ced19" x="291.076462" y="280.487925" style="stroke: #000000; stroke-width: 0.8"/>
      </g>
     </g>
     <g id="text_7">
      <!-- 2016 -->
      <g transform="translate(278.351462 295.086363) scale(0.1 -0.1)">
       <use xlink:href="#DejaVuSans-32"/>
       <use xlink:href="#DejaVuSans-30" x="63.623047"/>
       <use xlink:href="#DejaVuSans-31" x="127.246094"/>
       <use xlink:href="#DejaVuSans-36" x="190.869141"/>
      </g>
     </g>
    </g>
    <g id="xtick_8">
     <g id="line2d_8">
      <g>
       <use xlink:href="#mf8788ced19" x="327.584555" y="280.487925" style="stroke: #000000; stroke-width: 0.8"/>
      </g>
     </g>
     <g id="text_8">
      <!-- 2018 -->
      <g transform="translate(314.859555 295.086363) scale(0.1 -0.1)">
       <use xlink:href="#DejaVuSans-32"/>
       <use xlink:href="#DejaVuSans-30" x="63.623047"/>
       <use xlink:href="#DejaVuSans-31" x="127.246094"/>
       <use xlink:href="#DejaVuSans-38" x="190.869141"/>
      </g>
     </g>
    </g>
    <g id="xtick_9">
     <g id="line2d_9">
      <g>
       <use xlink:href="#mf8788ced19" x="364.042706" y="280.487925" style="stroke: #000000; stroke-width: 0.8"/>
      </g>
     </g>
     <g id="text_9">
      <!-- 2020 -->
      <g transform="translate(351.317706 295.086363) scale(0.1 -0.1)">
       <use xlink:href="#DejaVuSans-32"/>
       <use xlink:href="#DejaVuSans-30" x="63.623047"/>
       <use xlink:href="#DejaVuSans-32" x="127.246094"/>
       <use xlink:href="#DejaVuSans-30" x="190.869141"/>
      </g>
     </g>
    </g>
    <g id="xtick_10">
     <g id="line2d_10">
      <g>
       <use xlink:href="#mf8788ced19" x="400.550799" y="280.487925" style="stroke: #000000; stroke-width: 0.8"/>
      </g>
     </g>
     <g id="text_10">
      <!-- 2022 -->
      <g transform="translate(387.825799 295.086363) scale(0.1 -0.1)">
       <use xlink:href="#DejaVuSans-32"/>
       <use xlink:href="#DejaVuSans-30" x="63.623047"/>
       <use xlink:href="#DejaVuSans-32" x="127.246094"/>
       <use xlink:href="#DejaVuSans-32" x="190.869141"/>
      </g>
     </g>
    </g>
    <g id="xtick_11">
     <g id="line2d_11">
      <g>
       <use xlink:href="#mf8788ced19" x="437.008949" y="280.487925" style="stroke: #000000; stroke-width: 0.8"/>
      </g>
     </g>
     <g id="text_11">
      <!-- 2024 -->
      <g transform="translate(424.283949 295.086363) scale(0.1 -0.1)">
       <use xlink:href="#DejaVuSans-32"/>
       <use xlink:href="#DejaVuSans-30" x="63.623047"/>
       <use xlink:href="#DejaVuSans-32" x="127.246094"/>
       <use xlink:href="#DejaVuSans-34" x="190.869141"/>
      </g>
     </g>
    </g>
    <g id="text_12">
     <!-- Year -->
     <g transform="translate(236.414728 312.563707) scale(0.15 -0.15)">
      <defs>
       <path id="DejaVuSans-59" d="M -13 4666 
L 666 4666 
L 1959 2747 
L 3244 4666 
L 3922 4666 
L 2272 2222 
L 2272 0 
L 1638 0 
L 1638 2222 
L -13 4666 
z
" transform="scale(0.015625)"/>
       <path id="DejaVuSans-65" d="M 3597 1894 
L 3597 1613 
L 953 1613 
Q 991 1019 1311 708 
Q 1631 397 2203 397 
Q 2534 397 2845 478 
Q 3156 559 3463 722 
L 3463 178 
Q 3153 47 2828 -22 
Q 2503 -91 2169 -91 
Q 1331 -91 842 396 
Q 353 884 353 1716 
Q 353 2575 817 3079 
Q 1281 3584 2069 3584 
Q 2775 3584 3186 3129 
Q 3597 2675 3597 1894 
z
M 3022 2063 
Q 3016 2534 2758 2815 
Q 2500 3097 2075 3097 
Q 1594 3097 1305 2825 
Q 1016 2553 972 2059 
L 3022 2063 
z
" transform="scale(0.015625)"/>
       <path id="DejaVuSans-61" d="M 2194 1759 
Q 1497 1759 1228 1600 
Q 959 1441 959 1056 
Q 959 750 1161 570 
Q 1363 391 1709 391 
Q 2188 391 2477 730 
Q 2766 1069 2766 1631 
L 2766 1759 
L 2194 1759 
z
M 3341 1997 
L 3341 0 
L 2766 0 
L 2766 531 
Q 2569 213 2275 61 
Q 1981 -91 1556 -91 
Q 1019 -91 701 211 
Q 384 513 384 1019 
Q 384 1609 779 1909 
Q 1175 2209 1959 2209 
L 2766 2209 
L 2766 2266 
Q 2766 2663 2505 2880 
Q 2244 3097 1772 3097 
Q 1472 3097 1187 3025 
Q 903 2953 641 2809 
L 641 3341 
Q 956 3463 1253 3523 
Q 1550 3584 1831 3584 
Q 2591 3584 2966 3190 
Q 3341 2797 3341 1997 
z
" transform="scale(0.015625)"/>
       <path id="DejaVuSans-72" d="M 2631 2963 
Q 2534 3019 2420 3045 
Q 2306 3072 2169 3072 
Q 1681 3072 1420 2755 
Q 1159 2438 1159 1844 
L 1159 0 
L 581 0 
L 581 3500 
L 1159 3500 
L 1159 2956 
Q 1341 3275 1631 3429 
Q 1922 3584 2338 3584 
Q 2397 3584 2469 3576 
Q 2541 3569 2628 3553 
L 2631 2963 
z
" transform="scale(0.015625)"/>
      </defs>
      <use xlink:href="#DejaVuSans-59"/>
      <use xlink:href="#DejaVuSans-65" x="47.833984"/>
      <use xlink:href="#DejaVuSans-61" x="109.357422"/>
      <use xlink:href="#DejaVuSans-72" x="170.636719"/>
     </g>
    </g>
   </g>
   <g id="matplotlib.axis_2">
    <g id="ytick_1">
     <g id="line2d_12">
      <defs>
       <path id="m08faa7529f" d="M 0 0 
L -3.5 0 
" style="stroke: #000000; stroke-width: 0.8"/>
      </defs>
      <g>
       <use xlink:href="#m08faa7529f" x="61.49" y="280.487925" style="stroke: #000000; stroke-width: 0.8"/>
      </g>
     </g>
     <g id="text_13">
      <!-- 0 -->
      <g transform="translate(48.1275 284.287144) scale(0.1 -0.1)">
       <use xlink:href="#DejaVuSans-30"/>
      </g>
     </g>
    </g>
    <g id="ytick_2">
     <g id="line2d_13">
      <g>
       <use xlink:href="#m08faa7529f" x="61.49" y="240.533788" style="stroke: #000000; stroke-width: 0.8"/>
      </g>
     </g>
     <g id="text_14">
      <!-- 1000 -->
      <g transform="translate(29.04 244.333007) scale(0.1 -0.1)">
       <use xlink:href="#DejaVuSans-31"/>
       <use xlink:href="#DejaVuSans-30" x="63.623047"/>
       <use xlink:href="#DejaVuSans-30" x="127.246094"/>
       <use xlink:href="#DejaVuSans-30" x="190.869141"/>
      </g>
     </g>
    </g>
    <g id="ytick_3">
     <g id="line2d_14">
      <g>
       <use xlink:href="#m08faa7529f" x="61.49" y="200.57965" style="stroke: #000000; stroke-width: 0.8"/>
      </g>
     </g>
     <g id="text_15">
      <!-- 2000 -->
      <g transform="translate(29.04 204.378869) scale(0.1 -0.1)">
       <use xlink:href="#DejaVuSans-32"/>
       <use xlink:href="#DejaVuSans-30" x="63.623047"/>
       <use xlink:href="#DejaVuSans-30" x="127.246094"/>
       <use xlink:href="#DejaVuSans-30" x="190.869141"/>
      </g>
     </g>
    </g>
    <g id="ytick_4">
     <g id="line2d_15">
      <g>
       <use xlink:href="#m08faa7529f" x="61.49" y="160.625513" style="stroke: #000000; stroke-width: 0.8"/>
      </g>
     </g>
     <g id="text_16">
      <!-- 3000 -->
      <g transform="translate(29.04 164.424732) scale(0.1 -0.1)">
       <defs>
        <path id="DejaVuSans-33" d="M 2597 2516 
Q 3050 2419 3304 2112 
Q 3559 1806 3559 1356 
Q 3559 666 3084 287 
Q 2609 -91 1734 -91 
Q 1441 -91 1130 -33 
Q 819 25 488 141 
L 488 750 
Q 750 597 1062 519 
Q 1375 441 1716 441 
Q 2309 441 2620 675 
Q 2931 909 2931 1356 
Q 2931 1769 2642 2001 
Q 2353 2234 1838 2234 
L 1294 2234 
L 1294 2753 
L 1863 2753 
Q 2328 2753 2575 2939 
Q 2822 3125 2822 3475 
Q 2822 3834 2567 4026 
Q 2313 4219 1838 4219 
Q 1578 4219 1281 4162 
Q 984 4106 628 3988 
L 628 4550 
Q 988 4650 1302 4700 
Q 1616 4750 1894 4750 
Q 2613 4750 3031 4423 
Q 3450 4097 3450 3541 
Q 3450 3153 3228 2886 
Q 3006 2619 2597 2516 
z
" transform="scale(0.015625)"/>
       </defs>
       <use xlink:href="#DejaVuSans-33"/>
       <use xlink:href="#DejaVuSans-30" x="63.623047"/>
       <use xlink:href="#DejaVuSans-30" x="127.246094"/>
       <use xlink:href="#DejaVuSans-30" x="190.869141"/>
      </g>
     </g>
    </g>
    <g id="ytick_5">
     <g id="line2d_16">
      <g>
       <use xlink:href="#m08faa7529f" x="61.49" y="120.671376" style="stroke: #000000; stroke-width: 0.8"/>
      </g>
     </g>
     <g id="text_17">
      <!-- 4000 -->
      <g transform="translate(29.04 124.470594) scale(0.1 -0.1)">
       <use xlink:href="#DejaVuSans-34"/>
       <use xlink:href="#DejaVuSans-30" x="63.623047"/>
       <use xlink:href="#DejaVuSans-30" x="127.246094"/>
       <use xlink:href="#DejaVuSans-30" x="190.869141"/>
      </g>
     </g>
    </g>
    <g id="ytick_6">
     <g id="line2d_17">
      <g>
       <use xlink:href="#m08faa7529f" x="61.49" y="80.717238" style="stroke: #000000; stroke-width: 0.8"/>
      </g>
     </g>
     <g id="text_18">
      <!-- 5000 -->
      <g transform="translate(29.04 84.516457) scale(0.1 -0.1)">
       <defs>
        <path id="DejaVuSans-35" d="M 691 4666 
L 3169 4666 
L 3169 4134 
L 1269 4134 
L 1269 2991 
Q 1406 3038 1543 3061 
Q 1681 3084 1819 3084 
Q 2600 3084 3056 2656 
Q 3513 2228 3513 1497 
Q 3513 744 3044 326 
Q 2575 -91 1722 -91 
Q 1428 -91 1123 -41 
Q 819 9 494 109 
L 494 744 
Q 775 591 1075 516 
Q 1375 441 1709 441 
Q 2250 441 2565 725 
Q 2881 1009 2881 1497 
Q 2881 1984 2565 2268 
Q 2250 2553 1709 2553 
Q 1456 2553 1204 2497 
Q 953 2441 691 2322 
L 691 4666 
z
" transform="scale(0.015625)"/>
       </defs>
       <use xlink:href="#DejaVuSans-35"/>
       <use xlink:href="#DejaVuSans-30" x="63.623047"/>
       <use xlink:href="#DejaVuSans-30" x="127.246094"/>
       <use xlink:href="#DejaVuSans-30" x="190.869141"/>
      </g>
     </g>
    </g>
    <g id="text_19">
     <!-- Number of proteins -->
     <g transform="translate(21.920469 246.829062) rotate(-90) scale(0.15 -0.15)">
      <defs>
       <path id="DejaVuSans-4e" d="M 628 4666 
L 1478 4666 
L 3547 763 
L 3547 4666 
L 4159 4666 
L 4159 0 
L 3309 0 
L 1241 3903 
L 1241 0 
L 628 0 
L 628 4666 
z
" transform="scale(0.015625)"/>
       <path id="DejaVuSans-75" d="M 544 1381 
L 544 3500 
L 1119 3500 
L 1119 1403 
Q 1119 906 1312 657 
Q 1506 409 1894 409 
Q 2359 409 2629 706 
Q 2900 1003 2900 1516 
L 2900 3500 
L 3475 3500 
L 3475 0 
L 2900 0 
L 2900 538 
Q 2691 219 2414 64 
Q 2138 -91 1772 -91 
Q 1169 -91 856 284 
Q 544 659 544 1381 
z
M 1991 3584 
L 1991 3584 
z
" transform="scale(0.015625)"/>
       <path id="DejaVuSans-6d" d="M 3328 2828 
Q 3544 3216 3844 3400 
Q 4144 3584 4550 3584 
Q 5097 3584 5394 3201 
Q 5691 2819 5691 2113 
L 5691 0 
L 5113 0 
L 5113 2094 
Q 5113 2597 4934 2840 
Q 4756 3084 4391 3084 
Q 3944 3084 3684 2787 
Q 3425 2491 3425 1978 
L 3425 0 
L 2847 0 
L 2847 2094 
Q 2847 2600 2669 2842 
Q 2491 3084 2119 3084 
Q 1678 3084 1418 2786 
Q 1159 2488 1159 1978 
L 1159 0 
L 581 0 
L 581 3500 
L 1159 3500 
L 1159 2956 
Q 1356 3278 1631 3431 
Q 1906 3584 2284 3584 
Q 2666 3584 2933 3390 
Q 3200 3197 3328 2828 
z
" transform="scale(0.015625)"/>
       <path id="DejaVuSans-62" d="M 3116 1747 
Q 3116 2381 2855 2742 
Q 2594 3103 2138 3103 
Q 1681 3103 1420 2742 
Q 1159 2381 1159 1747 
Q 1159 1113 1420 752 
Q 1681 391 2138 391 
Q 2594 391 2855 752 
Q 3116 1113 3116 1747 
z
M 1159 2969 
Q 1341 3281 1617 3432 
Q 1894 3584 2278 3584 
Q 2916 3584 3314 3078 
Q 3713 2572 3713 1747 
Q 3713 922 3314 415 
Q 2916 -91 2278 -91 
Q 1894 -91 1617 61 
Q 1341 213 1159 525 
L 1159 0 
L 581 0 
L 581 4863 
L 1159 4863 
L 1159 2969 
z
" transform="scale(0.015625)"/>
       <path id="DejaVuSans-20" transform="scale(0.015625)"/>
       <path id="DejaVuSans-6f" d="M 1959 3097 
Q 1497 3097 1228 2736 
Q 959 2375 959 1747 
Q 959 1119 1226 758 
Q 1494 397 1959 397 
Q 2419 397 2687 759 
Q 2956 1122 2956 1747 
Q 2956 2369 2687 2733 
Q 2419 3097 1959 3097 
z
M 1959 3584 
Q 2709 3584 3137 3096 
Q 3566 2609 3566 1747 
Q 3566 888 3137 398 
Q 2709 -91 1959 -91 
Q 1206 -91 779 398 
Q 353 888 353 1747 
Q 353 2609 779 3096 
Q 1206 3584 1959 3584 
z
" transform="scale(0.015625)"/>
       <path id="DejaVuSans-66" d="M 2375 4863 
L 2375 4384 
L 1825 4384 
Q 1516 4384 1395 4259 
Q 1275 4134 1275 3809 
L 1275 3500 
L 2222 3500 
L 2222 3053 
L 1275 3053 
L 1275 0 
L 697 0 
L 697 3053 
L 147 3053 
L 147 3500 
L 697 3500 
L 697 3744 
Q 697 4328 969 4595 
Q 1241 4863 1831 4863 
L 2375 4863 
z
" transform="scale(0.015625)"/>
       <path id="DejaVuSans-70" d="M 1159 525 
L 1159 -1331 
L 581 -1331 
L 581 3500 
L 1159 3500 
L 1159 2969 
Q 1341 3281 1617 3432 
Q 1894 3584 2278 3584 
Q 2916 3584 3314 3078 
Q 3713 2572 3713 1747 
Q 3713 922 3314 415 
Q 2916 -91 2278 -91 
Q 1894 -91 1617 61 
Q 1341 213 1159 525 
z
M 3116 1747 
Q 3116 2381 2855 2742 
Q 2594 3103 2138 3103 
Q 1681 3103 1420 2742 
Q 1159 2381 1159 1747 
Q 1159 1113 1420 752 
Q 1681 391 2138 391 
Q 2594 391 2855 752 
Q 3116 1113 3116 1747 
z
" transform="scale(0.015625)"/>
       <path id="DejaVuSans-74" d="M 1172 4494 
L 1172 3500 
L 2356 3500 
L 2356 3053 
L 1172 3053 
L 1172 1153 
Q 1172 725 1289 603 
Q 1406 481 1766 481 
L 2356 481 
L 2356 0 
L 1766 0 
Q 1100 0 847 248 
Q 594 497 594 1153 
L 594 3053 
L 172 3053 
L 172 3500 
L 594 3500 
L 594 4494 
L 1172 4494 
z
" transform="scale(0.015625)"/>
       <path id="DejaVuSans-69" d="M 603 3500 
L 1178 3500 
L 1178 0 
L 603 0 
L 603 3500 
z
M 603 4863 
L 1178 4863 
L 1178 4134 
L 603 4134 
L 603 4863 
z
" transform="scale(0.015625)"/>
       <path id="DejaVuSans-6e" d="M 3513 2113 
L 3513 0 
L 2938 0 
L 2938 2094 
Q 2938 2591 2744 2837 
Q 2550 3084 2163 3084 
Q 1697 3084 1428 2787 
Q 1159 2491 1159 1978 
L 1159 0 
L 581 0 
L 581 3500 
L 1159 3500 
L 1159 2956 
Q 1366 3272 1645 3428 
Q 1925 3584 2291 3584 
Q 2894 3584 3203 3211 
Q 3513 2838 3513 2113 
z
" transform="scale(0.015625)"/>
       <path id="DejaVuSans-73" d="M 2834 3397 
L 2834 2853 
Q 2591 2978 2328 3040 
Q 2066 3103 1784 3103 
Q 1356 3103 1142 2972 
Q 928 2841 928 2578 
Q 928 2378 1081 2264 
Q 1234 2150 1697 2047 
L 1894 2003 
Q 2506 1872 2764 1633 
Q 3022 1394 3022 966 
Q 3022 478 2636 193 
Q 2250 -91 1575 -91 
Q 1294 -91 989 -36 
Q 684 19 347 128 
L 347 722 
Q 666 556 975 473 
Q 1284 391 1588 391 
Q 1994 391 2212 530 
Q 2431 669 2431 922 
Q 2431 1156 2273 1281 
Q 2116 1406 1581 1522 
L 1381 1569 
Q 847 1681 609 1914 
Q 372 2147 372 2553 
Q 372 3047 722 3315 
Q 1072 3584 1716 3584 
Q 2034 3584 2315 3537 
Q 2597 3491 2834 3397 
z
" transform="scale(0.015625)"/>
      </defs>
      <use xlink:href="#DejaVuSans-4e"/>
      <use xlink:href="#DejaVuSans-75" x="74.804688"/>
      <use xlink:href="#DejaVuSans-6d" x="138.183594"/>
      <use xlink:href="#DejaVuSans-62" x="235.595703"/>
      <use xlink:href="#DejaVuSans-65" x="299.072266"/>
      <use xlink:href="#DejaVuSans-72" x="360.595703"/>
      <use xlink:href="#DejaVuSans-20" x="401.708984"/>
      <use xlink:href="#DejaVuSans-6f" x="433.496094"/>
      <use xlink:href="#DejaVuSans-66" x="494.677734"/>
      <use xlink:href="#DejaVuSans-20" x="529.882812"/>
      <use xlink:href="#DejaVuSans-70" x="561.669922"/>
      <use xlink:href="#DejaVuSans-72" x="625.146484"/>
      <use xlink:href="#DejaVuSans-6f" x="664.009766"/>
      <use xlink:href="#DejaVuSans-74" x="725.191406"/>
      <use xlink:href="#DejaVuSans-65" x="764.400391"/>
      <use xlink:href="#DejaVuSans-69" x="825.923828"/>
      <use xlink:href="#DejaVuSans-6e" x="853.707031"/>
      <use xlink:href="#DejaVuSans-73" x="917.085938"/>
     </g>
    </g>
   </g>
   <g id="patch_3">
    <path d="M 61.49 280.487925 
L 61.49 67.792075 
" style="fill: none; stroke: #000000; stroke-width: 0.8; stroke-linejoin: miter; stroke-linecap: square"/>
   </g>
   <g id="patch_4">
    <path d="M 61.49 280.487925 
L 443.101955 280.487925 
" style="fill: none; stroke: #000000; stroke-width: 0.8; stroke-linejoin: miter; stroke-linecap: square"/>
   </g>
   <g id="legend_1">
    <g id="patch_5">
     <path d="M 125.306134 62.792075 
L 379.285821 62.792075 
Q 381.285821 62.792075 381.285821 60.792075 
L 381.285821 32.435825 
Q 381.285821 30.435825 379.285821 30.435825 
L 125.306134 30.435825 
Q 123.306134 30.435825 123.306134 32.435825 
L 123.306134 60.792075 
Q 123.306134 62.792075 125.306134 62.792075 
z
" style="fill: #ffffff; opacity: 0.8; stroke: #cccccc; stroke-linejoin: miter"/>
    </g>
    <g id="patch_6">
     <path d="M 127.306134 42.034262 
L 147.306134 42.034262 
L 147.306134 35.034262 
L 127.306134 35.034262 
z
" style="fill: #fb363b"/>
    </g>
    <g id="text_20">
     <!-- Published -->
     <g transform="translate(155.306134 42.034262) scale(0.1 -0.1)">
      <defs>
       <path id="DejaVuSans-50" d="M 1259 4147 
L 1259 2394 
L 2053 2394 
Q 2494 2394 2734 2622 
Q 2975 2850 2975 3272 
Q 2975 3691 2734 3919 
Q 2494 4147 2053 4147 
L 1259 4147 
z
M 628 4666 
L 2053 4666 
Q 2838 4666 3239 4311 
Q 3641 3956 3641 3272 
Q 3641 2581 3239 2228 
Q 2838 1875 2053 1875 
L 1259 1875 
L 1259 0 
L 628 0 
L 628 4666 
z
" transform="scale(0.015625)"/>
       <path id="DejaVuSans-6c" d="M 603 4863 
L 1178 4863 
L 1178 0 
L 603 0 
L 603 4863 
z
" transform="scale(0.015625)"/>
       <path id="DejaVuSans-68" d="M 3513 2113 
L 3513 0 
L 2938 0 
L 2938 2094 
Q 2938 2591 2744 2837 
Q 2550 3084 2163 3084 
Q 1697 3084 1428 2787 
Q 1159 2491 1159 1978 
L 1159 0 
L 581 0 
L 581 4863 
L 1159 4863 
L 1159 2956 
Q 1366 3272 1645 3428 
Q 1925 3584 2291 3584 
Q 2894 3584 3203 3211 
Q 3513 2838 3513 2113 
z
" transform="scale(0.015625)"/>
       <path id="DejaVuSans-64" d="M 2906 2969 
L 2906 4863 
L 3481 4863 
L 3481 0 
L 2906 0 
L 2906 525 
Q 2725 213 2448 61 
Q 2172 -91 1784 -91 
Q 1150 -91 751 415 
Q 353 922 353 1747 
Q 353 2572 751 3078 
Q 1150 3584 1784 3584 
Q 2172 3584 2448 3432 
Q 2725 3281 2906 2969 
z
M 947 1747 
Q 947 1113 1208 752 
Q 1469 391 1925 391 
Q 2381 391 2643 752 
Q 2906 1113 2906 1747 
Q 2906 2381 2643 2742 
Q 2381 3103 1925 3103 
Q 1469 3103 1208 2742 
Q 947 2381 947 1747 
z
" transform="scale(0.015625)"/>
      </defs>
      <use xlink:href="#DejaVuSans-50"/>
      <use xlink:href="#DejaVuSans-75" x="58.552734"/>
      <use xlink:href="#DejaVuSans-62" x="121.931641"/>
      <use xlink:href="#DejaVuSans-6c" x="185.408203"/>
      <use xlink:href="#DejaVuSans-69" x="213.191406"/>
      <use xlink:href="#DejaVuSans-73" x="240.974609"/>
      <use xlink:href="#DejaVuSans-68" x="293.074219"/>
      <use xlink:href="#DejaVuSans-65" x="356.453125"/>
      <use xlink:href="#DejaVuSans-64" x="417.976562"/>
     </g>
    </g>
    <g id="patch_7">
     <path d="M 127.306134 56.712387 
L 147.306134 56.712387 
L 147.306134 49.712387 
L 127.306134 49.712387 
z
" style="fill: #fdc92c"/>
    </g>
    <g id="text_21">
     <!-- Inferred role -->
     <g transform="translate(155.306134 56.712387) scale(0.1 -0.1)">
      <defs>
       <path id="DejaVuSans-49" d="M 628 4666 
L 1259 4666 
L 1259 0 
L 628 0 
L 628 4666 
z
" transform="scale(0.015625)"/>
      </defs>
      <use xlink:href="#DejaVuSans-49"/>
      <use xlink:href="#DejaVuSans-6e" x="29.492188"/>
      <use xlink:href="#DejaVuSans-66" x="92.871094"/>
      <use xlink:href="#DejaVuSans-65" x="128.076172"/>
      <use xlink:href="#DejaVuSans-72" x="189.599609"/>
      <use xlink:href="#DejaVuSans-72" x="228.962891"/>
      <use xlink:href="#DejaVuSans-65" x="267.826172"/>
      <use xlink:href="#DejaVuSans-64" x="329.349609"/>
      <use xlink:href="#DejaVuSans-20" x="392.826172"/>
      <use xlink:href="#DejaVuSans-72" x="424.613281"/>
      <use xlink:href="#DejaVuSans-6f" x="463.476562"/>
      <use xlink:href="#DejaVuSans-6c" x="524.658203"/>
      <use xlink:href="#DejaVuSans-65" x="552.441406"/>
     </g>
    </g>
    <g id="patch_8">
     <path d="M 236.704571 42.034262 
L 256.704571 42.034262 
L 256.704571 35.034262 
L 236.704571 35.034262 
z
" style="fill: #aeaeae"/>
    </g>
    <g id="text_22">
     <!-- Conserved unknown -->
     <g transform="translate(264.704571 42.034262) scale(0.1 -0.1)">
      <defs>
       <path id="DejaVuSans-43" d="M 4122 4306 
L 4122 3641 
Q 3803 3938 3442 4084 
Q 3081 4231 2675 4231 
Q 1875 4231 1450 3742 
Q 1025 3253 1025 2328 
Q 1025 1406 1450 917 
Q 1875 428 2675 428 
Q 3081 428 3442 575 
Q 3803 722 4122 1019 
L 4122 359 
Q 3791 134 3420 21 
Q 3050 -91 2638 -91 
Q 1578 -91 968 557 
Q 359 1206 359 2328 
Q 359 3453 968 4101 
Q 1578 4750 2638 4750 
Q 3056 4750 3426 4639 
Q 3797 4528 4122 4306 
z
" transform="scale(0.015625)"/>
       <path id="DejaVuSans-76" d="M 191 3500 
L 800 3500 
L 1894 563 
L 2988 3500 
L 3597 3500 
L 2284 0 
L 1503 0 
L 191 3500 
z
" transform="scale(0.015625)"/>
       <path id="DejaVuSans-6b" d="M 581 4863 
L 1159 4863 
L 1159 1991 
L 2875 3500 
L 3609 3500 
L 1753 1863 
L 3688 0 
L 2938 0 
L 1159 1709 
L 1159 0 
L 581 0 
L 581 4863 
z
" transform="scale(0.015625)"/>
       <path id="DejaVuSans-77" d="M 269 3500 
L 844 3500 
L 1563 769 
L 2278 3500 
L 2956 3500 
L 3675 769 
L 4391 3500 
L 4966 3500 
L 4050 0 
L 3372 0 
L 2619 2869 
L 1863 0 
L 1184 0 
L 269 3500 
z
" transform="scale(0.015625)"/>
      </defs>
      <use xlink:href="#DejaVuSans-43"/>
      <use xlink:href="#DejaVuSans-6f" x="69.824219"/>
      <use xlink:href="#DejaVuSans-6e" x="131.005859"/>
      <use xlink:href="#DejaVuSans-73" x="194.384766"/>
      <use xlink:href="#DejaVuSans-65" x="246.484375"/>
      <use xlink:href="#DejaVuSans-72" x="308.007812"/>
      <use xlink:href="#DejaVuSans-76" x="349.121094"/>
      <use xlink:href="#DejaVuSans-65" x="408.300781"/>
      <use xlink:href="#DejaVuSans-64" x="469.824219"/>
      <use xlink:href="#DejaVuSans-20" x="533.300781"/>
      <use xlink:href="#DejaVuSans-75" x="565.087891"/>
      <use xlink:href="#DejaVuSans-6e" x="628.466797"/>
      <use xlink:href="#DejaVuSans-6b" x="691.845703"/>
      <use xlink:href="#DejaVuSans-6e" x="749.755859"/>
      <use xlink:href="#DejaVuSans-6f" x="813.134766"/>
      <use xlink:href="#DejaVuSans-77" x="874.316406"/>
      <use xlink:href="#DejaVuSans-6e" x="956.103516"/>
     </g>
    </g>
    <g id="patch_9">
     <path d="M 236.704571 56.712387 
L 256.704571 56.712387 
L 256.704571 49.712387 
L 236.704571 49.712387 
z
" style="fill: #d5dce5"/>
    </g>
    <g id="text_23">
     <!-- Fission yeast unknown -->
     <g transform="translate(264.704571 56.712387) scale(0.1 -0.1)">
      <defs>
       <path id="DejaVuSans-46" d="M 628 4666 
L 3309 4666 
L 3309 4134 
L 1259 4134 
L 1259 2759 
L 3109 2759 
L 3109 2228 
L 1259 2228 
L 1259 0 
L 628 0 
L 628 4666 
z
" transform="scale(0.015625)"/>
       <path id="DejaVuSans-79" d="M 2059 -325 
Q 1816 -950 1584 -1140 
Q 1353 -1331 966 -1331 
L 506 -1331 
L 506 -850 
L 844 -850 
Q 1081 -850 1212 -737 
Q 1344 -625 1503 -206 
L 1606 56 
L 191 3500 
L 800 3500 
L 1894 763 
L 2988 3500 
L 3597 3500 
L 2059 -325 
z
" transform="scale(0.015625)"/>
      </defs>
      <use xlink:href="#DejaVuSans-46"/>
      <use xlink:href="#DejaVuSans-69" x="50.269531"/>
      <use xlink:href="#DejaVuSans-73" x="78.052734"/>
      <use xlink:href="#DejaVuSans-73" x="130.152344"/>
      <use xlink:href="#DejaVuSans-69" x="182.251953"/>
      <use xlink:href="#DejaVuSans-6f" x="210.035156"/>
      <use xlink:href="#DejaVuSans-6e" x="271.216797"/>
      <use xlink:href="#DejaVuSans-20" x="334.595703"/>
      <use xlink:href="#DejaVuSans-79" x="366.382812"/>
      <use xlink:href="#DejaVuSans-65" x="425.5625"/>
      <use xlink:href="#DejaVuSans-61" x="487.085938"/>
      <use xlink:href="#DejaVuSans-73" x="548.365234"/>
      <use xlink:href="#DejaVuSans-74" x="600.464844"/>
      <use xlink:href="#DejaVuSans-20" x="639.673828"/>
      <use xlink:href="#DejaVuSans-75" x="671.460938"/>
      <use xlink:href="#DejaVuSans-6e" x="734.839844"/>
      <use xlink:href="#DejaVuSans-6b" x="798.21875"/>
      <use xlink:href="#DejaVuSans-6e" x="856.128906"/>
      <use xlink:href="#DejaVuSans-6f" x="919.507812"/>
      <use xlink:href="#DejaVuSans-77" x="980.689453"/>
      <use xlink:href="#DejaVuSans-6e" x="1062.476562"/>
     </g>
    </g>
   </g>
  </g>
 </g>
 <defs>
  <clipPath id="p72b8a1ee40">
   <rect x="61.49" y="67.792075" width="381.611955" height="212.695851"/>
  </clipPath>
 </defs>
</svg>
