<?xml version="1.0" encoding="utf-8" standalone="no"?>
<!DOCTYPE svg PUBLIC "-//W3C//DTD SVG 1.1//EN"
  "http://www.w3.org/Graphics/SVG/1.1/DTD/svg11.dtd">
<svg xmlns:xlink="http://www.w3.org/1999/xlink" width="460.8pt" height="345.6pt" viewBox="0 0 460.8 345.6" xmlns="http://www.w3.org/2000/svg" version="1.1">
 <metadata>
  <rdf:RDF xmlns:dc="http://purl.org/dc/elements/1.1/" xmlns:cc="http://creativecommons.org/ns#" xmlns:rdf="http://www.w3.org/1999/02/22-rdf-syntax-ns#">
   <cc:Work>
    <dc:type rdf:resource="http://purl.org/dc/dcmitype/StillImage"/>
    <dc:date>2025-07-02T00:52:41.056264</dc:date>
    <dc:format>image/svg+xml</dc:format>
    <dc:creator>
     <cc:Agent>
      <dc:title>Matplotlib v3.7.1, https://matplotlib.org/</dc:title>
     </cc:Agent>
    </dc:creator>
   </cc:Work>
  </rdf:RDF>
 </metadata>
 <defs>
  <style type="text/css">*{stroke-linejoin: round; stroke-linecap: butt}</style>
 </defs>
 <g id="figure_1">
  <g id="patch_1">
   <path d="M 0 345.6 
L 460.8 345.6 
L 460.8 0 
L 0 0 
z
" style="fill: #ffffff"/>
  </g>
  <g id="axes_1">
   <g id="patch_2">
    <path d="M 61.49 275.35277 
L 450 275.35277 
L 450 70.24723 
L 61.49 70.24723 
z
" style="fill: #ffffff"/>
   </g>
   <g id="PolyCollection_1">
    <path d="M 32.352954 223.301002 
L 32.352954 275.35277 
L 40.492063 275.35277 
L 48.534851 275.35277 
L 65.05387 275.35277 
L 84.221712 275.35277 
L 98.332711 275.35277 
L 107.097905 275.35277 
L 109.361444 275.35277 
L 113.5514 275.35277 
L 115.477816 275.35277 
L 115.718618 275.35277 
L 118.897205 275.35277 
L 119.715932 275.35277 
L 120.390177 275.35277 
L 121.208904 275.35277 
L 121.738669 275.35277 
L 122.557396 275.35277 
L 123.039 275.35277 
L 123.905887 275.35277 
L 125.061737 275.35277 
L 125.976784 275.35277 
L 126.313907 275.35277 
L 127.277115 275.35277 
L 127.951361 275.35277 
L 128.673767 275.35277 
L 129.444334 275.35277 
L 129.974098 275.35277 
L 130.455702 275.35277 
L 131.804194 275.35277 
L 132.767402 275.35277 
L 133.489808 275.35277 
L 133.682449 275.35277 
L 134.356695 275.35277 
L 135.368064 275.35277 
L 136.427593 275.35277 
L 137.149999 275.35277 
L 138.209528 275.35277 
L 139.606179 275.35277 
L 141.532596 275.35277 
L 143.21821 275.35277 
L 144.663022 275.35277 
L 147.360005 275.35277 
L 148.515855 275.35277 
L 151.646281 275.35277 
L 153.669018 275.35277 
L 154.921189 275.35277 
L 155.691755 275.35277 
L 158.725861 275.35277 
L 160.411475 275.35277 
L 162.14525 275.35277 
L 165.564639 275.35277 
L 168.743225 275.35277 
L 169.27299 275.35277 
L 169.899075 275.35277 
L 170.862283 275.35277 
L 171.63285 275.35277 
L 173.99271 275.35277 
L 178.71243 275.35277 
L 179.627477 275.35277 
L 184.058235 275.35277 
L 185.069603 275.35277 
L 186.080972 275.35277 
L 187.718426 275.35277 
L 189.066917 275.35277 
L 190.367248 275.35277 
L 191.185975 275.35277 
L 193.834797 275.35277 
L 196.57994 275.35277 
L 197.928432 275.35277 
L 198.89164 275.35277 
L 200.09565 275.35277 
L 201.107019 275.35277 
L 202.311029 275.35277 
L 205.152493 275.35277 
L 206.645465 275.35277 
L 208.090278 275.35277 
L 209.58325 275.35277 
L 211.028062 275.35277 
L 212.521035 275.35277 
L 214.014008 275.35277 
L 215.410659 275.35277 
L 216.903632 275.35277 
L 218.348444 275.35277 
L 219.841417 275.35277 
L 221.286229 275.35277 
L 222.779202 275.35277 
L 224.272174 275.35277 
L 225.716986 275.35277 
L 227.209959 275.35277 
L 228.654771 275.35277 
L 230.147744 275.35277 
L 231.640716 275.35277 
L 232.989208 275.35277 
L 234.48218 275.35277 
L 235.926993 275.35277 
L 237.419965 275.35277 
L 238.864777 275.35277 
L 240.35775 275.35277 
L 241.850723 275.35277 
L 243.295535 275.35277 
L 244.788507 275.35277 
L 246.23332 275.35277 
L 247.726292 275.35277 
L 249.219265 275.35277 
L 250.567756 275.35277 
L 252.060729 275.35277 
L 253.505541 275.35277 
L 254.998514 275.35277 
L 256.443326 275.35277 
L 257.936299 275.35277 
L 259.429271 275.35277 
L 260.874083 275.35277 
L 262.367056 275.35277 
L 263.811868 275.35277 
L 265.304841 275.35277 
L 266.797813 275.35277 
L 268.146305 275.35277 
L 269.639277 275.35277 
L 271.08409 275.35277 
L 272.577062 275.35277 
L 274.021874 275.35277 
L 275.514847 275.35277 
L 277.00782 275.35277 
L 278.452632 275.35277 
L 279.945604 275.35277 
L 281.390417 275.35277 
L 282.883389 275.35277 
L 284.376362 275.35277 
L 285.773014 275.35277 
L 287.265986 275.35277 
L 288.710798 275.35277 
L 290.203771 275.35277 
L 291.648583 275.35277 
L 293.141556 275.35277 
L 294.634528 275.35277 
L 296.079341 275.35277 
L 297.572313 275.35277 
L 299.017125 275.35277 
L 300.510098 275.35277 
L 302.003071 275.35277 
L 303.351562 275.35277 
L 304.844535 275.35277 
L 306.289347 275.35277 
L 307.782319 275.35277 
L 309.227132 275.35277 
L 310.720104 275.35277 
L 312.213077 275.35277 
L 313.657889 275.35277 
L 315.150862 275.35277 
L 316.595674 275.35277 
L 318.088646 275.35277 
L 319.581619 275.35277 
L 320.93011 275.35277 
L 322.423083 275.35277 
L 323.867895 275.35277 
L 325.360868 275.35277 
L 326.80568 275.35277 
L 328.298653 275.35277 
L 329.791625 275.35277 
L 331.236437 275.35277 
L 332.72941 275.35277 
L 334.174222 275.35277 
L 335.667195 275.35277 
L 337.160167 275.35277 
L 338.508659 275.35277 
L 340.001631 275.35277 
L 341.446444 275.35277 
L 342.939416 275.35277 
L 344.384228 275.35277 
L 345.877201 275.35277 
L 347.370174 275.35277 
L 348.814986 275.35277 
L 350.307958 275.35277 
L 351.752771 275.35277 
L 353.245743 275.35277 
L 354.738716 275.35277 
L 356.135368 275.35277 
L 357.62834 275.35277 
L 359.073152 275.35277 
L 360.566125 275.35277 
L 362.010937 275.35277 
L 363.50391 275.35277 
L 364.996882 275.35277 
L 366.441695 275.35277 
L 367.934667 275.35277 
L 369.379479 275.35277 
L 370.872452 275.35277 
L 372.365425 275.35277 
L 373.713916 275.35277 
L 375.206889 275.35277 
L 376.651701 275.35277 
L 378.144673 275.35277 
L 379.589486 275.35277 
L 381.082458 275.35277 
L 382.575431 275.35277 
L 384.020243 275.35277 
L 385.513216 275.35277 
L 386.958028 275.35277 
L 388.451 275.35277 
L 389.943973 275.35277 
L 391.292464 275.35277 
L 392.785437 275.35277 
L 394.230249 275.35277 
L 395.723222 275.35277 
L 397.168034 275.35277 
L 398.661007 275.35277 
L 400.153979 275.35277 
L 401.598791 275.35277 
L 403.091764 275.35277 
L 404.536576 275.35277 
L 406.029549 275.35277 
L 407.522521 275.35277 
L 408.871013 275.35277 
L 410.363985 275.35277 
L 411.808798 275.35277 
L 413.30177 275.35277 
L 414.746582 275.35277 
L 416.239555 275.35277 
L 417.732528 275.35277 
L 419.17734 275.35277 
L 420.670312 275.35277 
L 422.115125 275.35277 
L 423.608097 275.35277 
L 425.10107 275.35277 
L 426.497722 275.35277 
L 427.990694 275.35277 
L 429.435506 275.35277 
L 430.928479 275.35277 
L 432.373291 275.35277 
L 433.866264 275.35277 
L 435.359236 275.35277 
L 436.804049 275.35277 
L 438.297021 275.35277 
L 439.741833 275.35277 
L 441.234806 275.35277 
L 442.727779 275.35277 
L 444.07627 275.35277 
L 445.569243 275.35277 
L 447.014055 275.35277 
L 448.507027 275.35277 
L 449.95184 275.35277 
L 449.95184 169.399875 
L 449.95184 169.399875 
L 448.507027 169.438404 
L 447.014055 169.438404 
L 445.569243 169.74663 
L 444.07627 169.785159 
L 442.727779 170.786895 
L 441.234806 172.98301 
L 439.741833 173.753576 
L 438.297021 173.984746 
L 436.804049 173.984746 
L 435.359236 174.215916 
L 433.866264 174.215916 
L 432.373291 175.063539 
L 430.928479 175.602936 
L 429.435506 175.718521 
L 427.990694 175.834106 
L 426.497722 175.911162 
L 425.10107 177.56788 
L 423.608097 177.683465 
L 422.115125 177.721994 
L 420.670312 177.953164 
L 419.17734 178.068748 
L 417.732528 178.107277 
L 416.239555 178.222862 
L 414.746582 178.685202 
L 413.30177 178.916372 
L 411.808798 179.031957 
L 410.363985 179.031957 
L 408.871013 179.378712 
L 407.522521 179.956636 
L 406.029549 179.918108 
L 404.536576 180.033693 
L 403.091764 180.149278 
L 401.598791 180.380448 
L 400.153979 180.380448 
L 398.661007 180.418976 
L 397.168034 180.418976 
L 395.723222 180.380448 
L 394.230249 180.457505 
L 392.785437 180.380448 
L 391.292464 180.34192 
L 389.943973 180.380448 
L 388.451 180.380448 
L 386.958028 180.57309 
L 385.513216 180.765731 
L 384.020243 181.073958 
L 382.575431 181.305128 
L 381.082458 181.266599 
L 379.589486 181.459241 
L 378.144673 181.728939 
L 376.651701 181.728939 
L 375.206889 181.883053 
L 373.713916 182.383921 
L 372.365425 182.499506 
L 370.872452 182.923317 
L 369.379479 182.961846 
L 367.934667 183.115959 
L 366.441695 183.193016 
L 364.996882 183.347129 
L 363.50391 183.385657 
L 362.010937 183.462714 
L 360.566125 183.462714 
L 359.073152 183.539771 
L 357.62834 183.886526 
L 356.135368 184.002111 
L 354.738716 184.079167 
L 353.245743 184.156224 
L 351.752771 184.156224 
L 350.307958 184.156224 
L 348.814986 184.271809 
L 347.370174 184.348866 
L 345.877201 184.502979 
L 344.384228 184.734149 
L 342.939416 184.849734 
L 341.446444 184.92679 
L 340.001631 185.003847 
L 338.508659 185.042375 
L 337.160167 185.042375 
L 335.667195 185.080904 
L 334.174222 185.119432 
L 332.72941 185.196489 
L 331.236437 185.235017 
L 329.791625 185.235017 
L 328.298653 185.350602 
L 326.80568 185.466187 
L 325.360868 185.697357 
L 323.867895 185.85147 
L 322.423083 186.159697 
L 320.93011 186.31381 
L 319.581619 186.467923 
L 318.088646 186.506452 
L 316.595674 186.660565 
L 315.150862 186.814678 
L 313.657889 188.509925 
L 312.213077 188.779623 
L 310.720104 189.511661 
L 309.227132 188.895208 
L 307.782319 188.818151 
L 306.289347 188.85668 
L 304.844535 188.933736 
L 303.351562 189.203434 
L 302.003071 189.241963 
L 300.510098 189.319019 
L 299.017125 190.051058 
L 297.572313 190.166643 
L 296.079341 190.359284 
L 294.634528 190.436341 
L 293.141556 190.551926 
L 291.648583 190.975737 
L 290.203771 191.168379 
L 288.710798 191.168379 
L 287.265986 191.553662 
L 285.773014 191.630719 
L 284.376362 191.669247 
L 282.883389 191.861889 
L 281.390417 191.938946 
L 279.945604 191.938946 
L 278.452632 192.131587 
L 277.00782 192.170116 
L 275.514847 192.208644 
L 274.021874 192.362757 
L 272.577062 192.478342 
L 271.08409 191.900417 
L 269.639277 191.977474 
L 268.146305 192.170116 
L 266.797813 192.170116 
L 265.304841 192.401285 
L 263.811868 192.555399 
L 262.367056 192.825097 
L 260.874083 193.171852 
L 259.429271 193.480079 
L 257.936299 193.557135 
L 256.443326 193.826834 
L 254.998514 194.058003 
L 253.505541 194.404758 
L 252.060729 194.558872 
L 250.567756 194.751513 
L 249.219265 194.790042 
L 247.726292 194.790042 
L 246.23332 194.982683 
L 244.788507 195.445023 
L 243.295535 195.483552 
L 241.850723 195.714721 
L 240.35775 196.369703 
L 238.864777 196.44676 
L 237.419965 196.9091 
L 235.926993 197.217326 
L 234.48218 198.257591 
L 232.989208 198.334648 
L 231.640716 198.450233 
L 230.147744 198.719931 
L 228.654771 198.796987 
L 227.209959 199.028157 
L 225.716986 199.220799 
L 224.272174 199.567554 
L 222.779202 199.760196 
L 221.286229 199.875781 
L 219.841417 200.106951 
L 218.348444 200.145479 
L 216.903632 200.261064 
L 215.410659 200.415177 
L 214.014008 200.415177 
L 212.521035 200.492234 
L 211.028062 200.530762 
L 209.58325 200.56929 
L 208.090278 200.607819 
L 206.645465 200.646347 
L 205.152493 200.761932 
L 202.311029 201.49397 
L 201.107019 201.686612 
L 200.09565 201.72514 
L 198.89164 201.609555 
L 197.928432 201.609555 
L 196.57994 201.72514 
L 193.834797 201.840725 
L 191.185975 202.457178 
L 190.367248 203.381858 
L 189.066917 203.227745 
L 187.718426 203.189217 
L 186.080972 203.882726 
L 185.069603 203.882726 
L 184.058235 203.651556 
L 179.627477 204.152425 
L 178.71243 204.229481 
L 173.99271 204.884463 
L 171.63285 204.96152 
L 170.862283 204.807406 
L 169.899075 204.922991 
L 169.27299 205.115633 
L 168.743225 205.154161 
L 165.564639 205.269746 
L 162.14525 205.346803 
L 160.411475 205.539444 
L 158.725861 207.581446 
L 155.691755 207.504389 
L 154.921189 207.542917 
L 153.669018 207.966729 
L 151.646281 209.045522 
L 148.515855 209.276692 
L 147.360005 209.661975 
L 144.663022 209.931673 
L 143.21821 210.740768 
L 141.532596 211.280165 
L 139.606179 211.703976 
L 138.209528 211.742505 
L 137.149999 211.819561 
L 136.427593 211.85809 
L 135.368064 211.896618 
L 134.356695 212.590128 
L 133.682449 212.936883 
L 133.489808 212.936883 
L 132.767402 212.936883 
L 131.804194 213.168053 
L 130.455702 212.936883 
L 129.974098 213.129524 
L 129.444334 213.206581 
L 128.673767 213.322166 
L 127.951361 213.322166 
L 127.277115 213.630393 
L 126.313907 214.323903 
L 125.976784 214.285374 
L 125.061737 214.632129 
L 123.905887 214.709186 
L 123.039 214.786242 
L 122.557396 214.863299 
L 121.738669 214.978884 
L 121.208904 215.210054 
L 120.390177 215.402696 
L 119.715932 215.325639 
L 118.897205 215.402696 
L 115.718618 215.672394 
L 115.477816 215.633866 
L 113.5514 215.942092 
L 109.361444 214.092733 
L 107.097905 216.828244 
L 98.332711 220.411378 
L 84.221712 223.763342 
L 65.05387 228.078515 
L 48.534851 223.108361 
L 40.492063 222.491908 
L 32.352954 223.301002 
z
" clip-path="url(#p377294eb50)" style="fill: #fb363b"/>
   </g>
   <g id="PolyCollection_2">
    <path d="M 32.352954 144.086766 
L 32.352954 223.301002 
L 40.492063 222.491908 
L 48.534851 223.108361 
L 65.05387 228.078515 
L 84.221712 223.763342 
L 98.332711 220.411378 
L 107.097905 216.828244 
L 109.361444 214.092733 
L 113.5514 215.942092 
L 115.477816 215.633866 
L 115.718618 215.672394 
L 118.897205 215.402696 
L 119.715932 215.325639 
L 120.390177 215.402696 
L 121.208904 215.210054 
L 121.738669 214.978884 
L 122.557396 214.863299 
L 123.039 214.786242 
L 123.905887 214.709186 
L 125.061737 214.632129 
L 125.976784 214.285374 
L 126.313907 214.323903 
L 127.277115 213.630393 
L 127.951361 213.322166 
L 128.673767 213.322166 
L 129.444334 213.206581 
L 129.974098 213.129524 
L 130.455702 212.936883 
L 131.804194 213.168053 
L 132.767402 212.936883 
L 133.489808 212.936883 
L 133.682449 212.936883 
L 134.356695 212.590128 
L 135.368064 211.896618 
L 136.427593 211.85809 
L 137.149999 211.819561 
L 138.209528 211.742505 
L 139.606179 211.703976 
L 141.532596 211.280165 
L 143.21821 210.740768 
L 144.663022 209.931673 
L 147.360005 209.661975 
L 148.515855 209.276692 
L 151.646281 209.045522 
L 153.669018 207.966729 
L 154.921189 207.542917 
L 155.691755 207.504389 
L 158.725861 207.581446 
L 160.411475 205.539444 
L 162.14525 205.346803 
L 165.564639 205.269746 
L 168.743225 205.154161 
L 169.27299 205.115633 
L 169.899075 204.922991 
L 170.862283 204.807406 
L 171.63285 204.96152 
L 173.99271 204.884463 
L 178.71243 204.229481 
L 179.627477 204.152425 
L 184.058235 203.651556 
L 185.069603 203.882726 
L 186.080972 203.882726 
L 187.718426 203.189217 
L 189.066917 203.227745 
L 190.367248 203.381858 
L 191.185975 202.457178 
L 193.834797 201.840725 
L 196.57994 201.72514 
L 197.928432 201.609555 
L 198.89164 201.609555 
L 200.09565 201.72514 
L 201.107019 201.686612 
L 202.311029 201.49397 
L 205.152493 200.761932 
L 206.645465 200.646347 
L 208.090278 200.607819 
L 209.58325 200.56929 
L 211.028062 200.530762 
L 212.521035 200.492234 
L 214.014008 200.415177 
L 215.410659 200.415177 
L 216.903632 200.261064 
L 218.348444 200.145479 
L 219.841417 200.106951 
L 221.286229 199.875781 
L 222.779202 199.760196 
L 224.272174 199.567554 
L 225.716986 199.220799 
L 227.209959 199.028157 
L 228.654771 198.796987 
L 230.147744 198.719931 
L 231.640716 198.450233 
L 232.989208 198.334648 
L 234.48218 198.257591 
L 235.926993 197.217326 
L 237.419965 196.9091 
L 238.864777 196.44676 
L 240.35775 196.369703 
L 241.850723 195.714721 
L 243.295535 195.483552 
L 244.788507 195.445023 
L 246.23332 194.982683 
L 247.726292 194.790042 
L 249.219265 194.790042 
L 250.567756 194.751513 
L 252.060729 194.558872 
L 253.505541 194.404758 
L 254.998514 194.058003 
L 256.443326 193.826834 
L 257.936299 193.557135 
L 259.429271 193.480079 
L 260.874083 193.171852 
L 262.367056 192.825097 
L 263.811868 192.555399 
L 265.304841 192.401285 
L 266.797813 192.170116 
L 268.146305 192.170116 
L 269.639277 191.977474 
L 271.08409 191.900417 
L 272.577062 192.478342 
L 274.021874 192.362757 
L 275.514847 192.208644 
L 277.00782 192.170116 
L 278.452632 192.131587 
L 279.945604 191.938946 
L 281.390417 191.938946 
L 282.883389 191.861889 
L 284.376362 191.669247 
L 285.773014 191.630719 
L 287.265986 191.553662 
L 288.710798 191.168379 
L 290.203771 191.168379 
L 291.648583 190.975737 
L 293.141556 190.551926 
L 294.634528 190.436341 
L 296.079341 190.359284 
L 297.572313 190.166643 
L 299.017125 190.051058 
L 300.510098 189.319019 
L 302.003071 189.241963 
L 303.351562 189.203434 
L 304.844535 188.933736 
L 306.289347 188.85668 
L 307.782319 188.818151 
L 309.227132 188.895208 
L 310.720104 189.511661 
L 312.213077 188.779623 
L 313.657889 188.509925 
L 315.150862 186.814678 
L 316.595674 186.660565 
L 318.088646 186.506452 
L 319.581619 186.467923 
L 320.93011 186.31381 
L 322.423083 186.159697 
L 323.867895 185.85147 
L 325.360868 185.697357 
L 326.80568 185.466187 
L 328.298653 185.350602 
L 329.791625 185.235017 
L 331.236437 185.235017 
L 332.72941 185.196489 
L 334.174222 185.119432 
L 335.667195 185.080904 
L 337.160167 185.042375 
L 338.508659 185.042375 
L 340.001631 185.003847 
L 341.446444 184.92679 
L 342.939416 184.849734 
L 344.384228 184.734149 
L 345.877201 184.502979 
L 347.370174 184.348866 
L 348.814986 184.271809 
L 350.307958 184.156224 
L 351.752771 184.156224 
L 353.245743 184.156224 
L 354.738716 184.079167 
L 356.135368 184.002111 
L 357.62834 183.886526 
L 359.073152 183.539771 
L 360.566125 183.462714 
L 362.010937 183.462714 
L 363.50391 183.385657 
L 364.996882 183.347129 
L 366.441695 183.193016 
L 367.934667 183.115959 
L 369.379479 182.961846 
L 370.872452 182.923317 
L 372.365425 182.499506 
L 373.713916 182.383921 
L 375.206889 181.883053 
L 376.651701 181.728939 
L 378.144673 181.728939 
L 379.589486 181.459241 
L 381.082458 181.266599 
L 382.575431 181.305128 
L 384.020243 181.073958 
L 385.513216 180.765731 
L 386.958028 180.57309 
L 388.451 180.380448 
L 389.943973 180.380448 
L 391.292464 180.34192 
L 392.785437 180.380448 
L 394.230249 180.457505 
L 395.723222 180.380448 
L 397.168034 180.418976 
L 398.661007 180.418976 
L 400.153979 180.380448 
L 401.598791 180.380448 
L 403.091764 180.149278 
L 404.536576 180.033693 
L 406.029549 179.918108 
L 407.522521 179.956636 
L 408.871013 179.378712 
L 410.363985 179.031957 
L 411.808798 179.031957 
L 413.30177 178.916372 
L 414.746582 178.685202 
L 416.239555 178.222862 
L 417.732528 178.107277 
L 419.17734 178.068748 
L 420.670312 177.953164 
L 422.115125 177.721994 
L 423.608097 177.683465 
L 425.10107 177.56788 
L 426.497722 175.911162 
L 427.990694 175.834106 
L 429.435506 175.718521 
L 430.928479 175.602936 
L 432.373291 175.063539 
L 433.866264 174.215916 
L 435.359236 174.215916 
L 436.804049 173.984746 
L 438.297021 173.984746 
L 439.741833 173.753576 
L 441.234806 172.98301 
L 442.727779 170.786895 
L 444.07627 169.785159 
L 445.569243 169.74663 
L 447.014055 169.438404 
L 448.507027 169.438404 
L 449.95184 169.399875 
L 449.95184 103.208212 
L 449.95184 103.208212 
L 448.507027 103.015571 
L 447.014055 102.938514 
L 445.569243 102.899986 
L 444.07627 102.668816 
L 442.727779 102.707344 
L 441.234806 102.668816 
L 439.741833 103.208212 
L 438.297021 103.285269 
L 436.804049 103.400854 
L 435.359236 103.439382 
L 433.866264 103.670552 
L 432.373291 103.554967 
L 430.928479 103.516439 
L 429.435506 103.670552 
L 427.990694 103.747609 
L 426.497722 103.709081 
L 425.10107 103.978779 
L 423.608097 104.248477 
L 422.115125 104.248477 
L 420.670312 104.364062 
L 419.17734 104.518176 
L 417.732528 104.595232 
L 416.239555 104.595232 
L 414.746582 104.86493 
L 413.30177 105.0961 
L 411.808798 105.211685 
L 410.363985 105.211685 
L 408.871013 105.250214 
L 407.522521 105.404327 
L 406.029549 105.519912 
L 404.536576 105.596969 
L 403.091764 105.596969 
L 401.598791 105.635497 
L 400.153979 105.519912 
L 398.661007 105.55844 
L 397.168034 105.55844 
L 395.723222 105.751082 
L 394.230249 105.712554 
L 392.785437 105.712554 
L 391.292464 105.751082 
L 389.943973 105.828139 
L 388.451 105.828139 
L 386.958028 105.943724 
L 385.513216 105.905195 
L 384.020243 106.02078 
L 382.575431 106.059309 
L 381.082458 106.097837 
L 379.589486 106.136365 
L 378.144673 106.174894 
L 376.651701 106.136365 
L 375.206889 106.25195 
L 373.713916 106.444592 
L 372.365425 106.598705 
L 370.872452 106.637233 
L 369.379479 106.637233 
L 367.934667 106.71429 
L 366.441695 106.752818 
L 364.996882 106.829875 
L 363.50391 106.829875 
L 362.010937 106.868403 
L 360.566125 106.906932 
L 359.073152 106.791347 
L 357.62834 106.752818 
L 356.135368 106.791347 
L 354.738716 106.71429 
L 353.245743 106.71429 
L 351.752771 106.71429 
L 350.307958 106.71429 
L 348.814986 106.71429 
L 347.370174 106.752818 
L 345.877201 106.71429 
L 344.384228 106.752818 
L 342.939416 106.752818 
L 341.446444 106.637233 
L 340.001631 106.637233 
L 338.508659 106.675762 
L 337.160167 106.675762 
L 335.667195 106.752818 
L 334.174222 106.752818 
L 332.72941 106.829875 
L 331.236437 106.829875 
L 329.791625 106.829875 
L 328.298653 106.868403 
L 326.80568 106.868403 
L 325.360868 106.868403 
L 323.867895 106.906932 
L 322.423083 106.94546 
L 320.93011 107.253687 
L 319.581619 107.369272 
L 318.088646 107.292215 
L 316.595674 107.369272 
L 315.150862 107.484857 
L 313.657889 107.523385 
L 312.213077 108.062781 
L 310.720104 108.371008 
L 309.227132 110.490066 
L 307.782319 111.684444 
L 306.289347 112.108256 
L 304.844535 112.108256 
L 303.351562 112.416482 
L 302.003071 112.339426 
L 300.510098 111.568859 
L 299.017125 111.761501 
L 297.572313 112.185312 
L 296.079341 112.185312 
L 294.634528 112.069727 
L 293.141556 112.223841 
L 291.648583 112.262369 
L 290.203771 112.262369 
L 288.710798 112.300897 
L 287.265986 112.377954 
L 285.773014 112.377954 
L 284.376362 112.416482 
L 282.883389 112.416482 
L 281.390417 112.532067 
L 279.945604 112.570596 
L 278.452632 112.609124 
L 277.00782 112.609124 
L 275.514847 112.570596 
L 274.021874 112.609124 
L 272.577062 112.570596 
L 271.08409 113.187049 
L 269.639277 113.14852 
L 268.146305 113.225577 
L 266.797813 113.302634 
L 265.304841 113.418219 
L 263.811868 113.37969 
L 262.367056 113.649389 
L 260.874083 113.764974 
L 259.429271 113.919087 
L 257.936299 114.111729 
L 256.443326 114.150257 
L 254.998514 114.0732 
L 253.505541 114.150257 
L 252.060729 114.188785 
L 250.567756 114.188785 
L 249.219265 114.188785 
L 247.726292 114.188785 
L 246.23332 114.342898 
L 244.788507 114.419955 
L 243.295535 114.651125 
L 241.850723 114.689653 
L 240.35775 114.920823 
L 238.864777 114.99788 
L 237.419965 115.22905 
L 235.926993 115.344635 
L 234.48218 115.498748 
L 232.989208 115.537277 
L 231.640716 115.575805 
L 230.147744 115.729918 
L 228.654771 115.729918 
L 227.209959 115.92256 
L 225.716986 116.192258 
L 224.272174 116.346371 
L 222.779202 116.500485 
L 221.286229 116.693126 
L 219.841417 116.770183 
L 218.348444 117.07841 
L 216.903632 117.07841 
L 215.410659 117.116938 
L 214.014008 117.116938 
L 212.521035 117.116938 
L 211.028062 117.116938 
L 209.58325 117.116938 
L 208.090278 117.155466 
L 206.645465 117.30958 
L 205.152493 117.386636 
L 202.311029 117.848976 
L 201.107019 118.426901 
L 200.09565 118.696599 
L 198.89164 118.157203 
L 197.928432 118.465429 
L 196.57994 118.581014 
L 193.834797 118.735128 
L 191.185975 118.735128 
L 190.367248 118.889241 
L 189.066917 119.390109 
L 187.718426 119.351581 
L 186.080972 120.237732 
L 185.069603 120.237732 
L 184.058235 120.661544 
L 179.627477 120.931242 
L 178.71243 121.008299 
L 173.99271 122.087092 
L 171.63285 123.0503 
L 170.862283 123.088828 
L 169.899075 123.088828 
L 169.27299 123.088828 
L 168.743225 123.127357 
L 165.564639 122.703545 
L 162.14525 123.204413 
L 160.411475 123.397055 
L 158.725861 123.589697 
L 155.691755 123.705282 
L 154.921189 123.782338 
L 153.669018 123.97498 
L 151.646281 124.283206 
L 148.515855 124.129093 
L 147.360005 124.43732 
L 144.663022 124.398791 
L 143.21821 124.321735 
L 141.532596 124.66849 
L 139.606179 124.591433 
L 138.209528 124.475848 
L 137.149999 124.745546 
L 136.427593 124.784075 
L 135.368064 124.052036 
L 134.356695 124.090565 
L 133.682449 124.244678 
L 133.489808 124.244678 
L 132.767402 124.20615 
L 131.804194 124.707018 
L 130.455702 124.167621 
L 129.974098 124.167621 
L 129.444334 124.20615 
L 128.673767 124.244678 
L 127.951361 124.052036 
L 127.277115 124.475848 
L 126.313907 124.591433 
L 125.976784 124.360263 
L 125.061737 124.514376 
L 123.905887 124.475848 
L 123.039 124.976716 
L 122.557396 124.89966 
L 121.738669 124.89966 
L 121.208904 123.165885 
L 120.390177 123.551168 
L 119.715932 122.58796 
L 118.897205 122.35679 
L 115.718618 122.626488 
L 115.477816 122.472375 
L 113.5514 122.742073 
L 109.361444 124.475848 
L 107.097905 125.323471 
L 98.332711 127.365472 
L 84.221712 130.293625 
L 65.05387 134.030873 
L 48.534851 140.002763 
L 40.492063 143.778539 
L 32.352954 144.086766 
z
" clip-path="url(#p377294eb50)" style="fill: #fdc92c"/>
   </g>
   <g id="PolyCollection_3">
    <path d="M 32.352954 113.726445 
L 32.352954 144.086766 
L 40.492063 143.778539 
L 48.534851 140.002763 
L 65.05387 134.030873 
L 84.221712 130.293625 
L 98.332711 127.365472 
L 107.097905 125.323471 
L 109.361444 124.475848 
L 113.5514 122.742073 
L 115.477816 122.472375 
L 115.718618 122.626488 
L 118.897205 122.35679 
L 119.715932 122.58796 
L 120.390177 123.551168 
L 121.208904 123.165885 
L 121.738669 124.89966 
L 122.557396 124.89966 
L 123.039 124.976716 
L 123.905887 124.475848 
L 125.061737 124.514376 
L 125.976784 124.360263 
L 126.313907 124.591433 
L 127.277115 124.475848 
L 127.951361 124.052036 
L 128.673767 124.244678 
L 129.444334 124.20615 
L 129.974098 124.167621 
L 130.455702 124.167621 
L 131.804194 124.707018 
L 132.767402 124.20615 
L 133.489808 124.244678 
L 133.682449 124.244678 
L 134.356695 124.090565 
L 135.368064 124.052036 
L 136.427593 124.784075 
L 137.149999 124.745546 
L 138.209528 124.475848 
L 139.606179 124.591433 
L 141.532596 124.66849 
L 143.21821 124.321735 
L 144.663022 124.398791 
L 147.360005 124.43732 
L 148.515855 124.129093 
L 151.646281 124.283206 
L 153.669018 123.97498 
L 154.921189 123.782338 
L 155.691755 123.705282 
L 158.725861 123.589697 
L 160.411475 123.397055 
L 162.14525 123.204413 
L 165.564639 122.703545 
L 168.743225 123.127357 
L 169.27299 123.088828 
L 169.899075 123.088828 
L 170.862283 123.088828 
L 171.63285 123.0503 
L 173.99271 122.087092 
L 178.71243 121.008299 
L 179.627477 120.931242 
L 184.058235 120.661544 
L 185.069603 120.237732 
L 186.080972 120.237732 
L 187.718426 119.351581 
L 189.066917 119.390109 
L 190.367248 118.889241 
L 191.185975 118.735128 
L 193.834797 118.735128 
L 196.57994 118.581014 
L 197.928432 118.465429 
L 198.89164 118.157203 
L 200.09565 118.696599 
L 201.107019 118.426901 
L 202.311029 117.848976 
L 205.152493 117.386636 
L 206.645465 117.30958 
L 208.090278 117.155466 
L 209.58325 117.116938 
L 211.028062 117.116938 
L 212.521035 117.116938 
L 214.014008 117.116938 
L 215.410659 117.116938 
L 216.903632 117.07841 
L 218.348444 117.07841 
L 219.841417 116.770183 
L 221.286229 116.693126 
L 222.779202 116.500485 
L 224.272174 116.346371 
L 225.716986 116.192258 
L 227.209959 115.92256 
L 228.654771 115.729918 
L 230.147744 115.729918 
L 231.640716 115.575805 
L 232.989208 115.537277 
L 234.48218 115.498748 
L 235.926993 115.344635 
L 237.419965 115.22905 
L 238.864777 114.99788 
L 240.35775 114.920823 
L 241.850723 114.689653 
L 243.295535 114.651125 
L 244.788507 114.419955 
L 246.23332 114.342898 
L 247.726292 114.188785 
L 249.219265 114.188785 
L 250.567756 114.188785 
L 252.060729 114.188785 
L 253.505541 114.150257 
L 254.998514 114.0732 
L 256.443326 114.150257 
L 257.936299 114.111729 
L 259.429271 113.919087 
L 260.874083 113.764974 
L 262.367056 113.649389 
L 263.811868 113.37969 
L 265.304841 113.418219 
L 266.797813 113.302634 
L 268.146305 113.225577 
L 269.639277 113.14852 
L 271.08409 113.187049 
L 272.577062 112.570596 
L 274.021874 112.609124 
L 275.514847 112.570596 
L 277.00782 112.609124 
L 278.452632 112.609124 
L 279.945604 112.570596 
L 281.390417 112.532067 
L 282.883389 112.416482 
L 284.376362 112.416482 
L 285.773014 112.377954 
L 287.265986 112.377954 
L 288.710798 112.300897 
L 290.203771 112.262369 
L 291.648583 112.262369 
L 293.141556 112.223841 
L 294.634528 112.069727 
L 296.079341 112.185312 
L 297.572313 112.185312 
L 299.017125 111.761501 
L 300.510098 111.568859 
L 302.003071 112.339426 
L 303.351562 112.416482 
L 304.844535 112.108256 
L 306.289347 112.108256 
L 307.782319 111.684444 
L 309.227132 110.490066 
L 310.720104 108.371008 
L 312.213077 108.062781 
L 313.657889 107.523385 
L 315.150862 107.484857 
L 316.595674 107.369272 
L 318.088646 107.292215 
L 319.581619 107.369272 
L 320.93011 107.253687 
L 322.423083 106.94546 
L 323.867895 106.906932 
L 325.360868 106.868403 
L 326.80568 106.868403 
L 328.298653 106.868403 
L 329.791625 106.829875 
L 331.236437 106.829875 
L 332.72941 106.829875 
L 334.174222 106.752818 
L 335.667195 106.752818 
L 337.160167 106.675762 
L 338.508659 106.675762 
L 340.001631 106.637233 
L 341.446444 106.637233 
L 342.939416 106.752818 
L 344.384228 106.752818 
L 345.877201 106.71429 
L 347.370174 106.752818 
L 348.814986 106.71429 
L 350.307958 106.71429 
L 351.752771 106.71429 
L 353.245743 106.71429 
L 354.738716 106.71429 
L 356.135368 106.791347 
L 357.62834 106.752818 
L 359.073152 106.791347 
L 360.566125 106.906932 
L 362.010937 106.868403 
L 363.50391 106.829875 
L 364.996882 106.829875 
L 366.441695 106.752818 
L 367.934667 106.71429 
L 369.379479 106.637233 
L 370.872452 106.637233 
L 372.365425 106.598705 
L 373.713916 106.444592 
L 375.206889 106.25195 
L 376.651701 106.136365 
L 378.144673 106.174894 
L 379.589486 106.136365 
L 381.082458 106.097837 
L 382.575431 106.059309 
L 384.020243 106.02078 
L 385.513216 105.905195 
L 386.958028 105.943724 
L 388.451 105.828139 
L 389.943973 105.828139 
L 391.292464 105.751082 
L 392.785437 105.712554 
L 394.230249 105.712554 
L 395.723222 105.751082 
L 397.168034 105.55844 
L 398.661007 105.55844 
L 400.153979 105.519912 
L 401.598791 105.635497 
L 403.091764 105.596969 
L 404.536576 105.596969 
L 406.029549 105.519912 
L 407.522521 105.404327 
L 408.871013 105.250214 
L 410.363985 105.211685 
L 411.808798 105.211685 
L 413.30177 105.0961 
L 414.746582 104.86493 
L 416.239555 104.595232 
L 417.732528 104.595232 
L 419.17734 104.518176 
L 420.670312 104.364062 
L 422.115125 104.248477 
L 423.608097 104.248477 
L 425.10107 103.978779 
L 426.497722 103.709081 
L 427.990694 103.747609 
L 429.435506 103.670552 
L 430.928479 103.516439 
L 432.373291 103.554967 
L 433.866264 103.670552 
L 435.359236 103.439382 
L 436.804049 103.400854 
L 438.297021 103.285269 
L 439.741833 103.208212 
L 441.234806 102.668816 
L 442.727779 102.707344 
L 444.07627 102.668816 
L 445.569243 102.899986 
L 447.014055 102.938514 
L 448.507027 103.015571 
L 449.95184 103.208212 
L 449.95184 89.954469 
L 449.95184 89.954469 
L 448.507027 89.954469 
L 447.014055 89.954469 
L 445.569243 89.91594 
L 444.07627 89.91594 
L 442.727779 89.91594 
L 441.234806 89.91594 
L 439.741833 89.91594 
L 438.297021 89.91594 
L 436.804049 89.91594 
L 435.359236 89.877412 
L 433.866264 90.224167 
L 432.373291 90.455337 
L 430.928479 90.455337 
L 429.435506 90.493865 
L 427.990694 90.493865 
L 426.497722 90.493865 
L 425.10107 90.532393 
L 423.608097 90.532393 
L 422.115125 90.532393 
L 420.670312 90.570922 
L 419.17734 90.570922 
L 417.732528 90.570922 
L 416.239555 90.570922 
L 414.746582 90.647978 
L 413.30177 90.647978 
L 411.808798 90.647978 
L 410.363985 90.647978 
L 408.871013 90.647978 
L 407.522521 90.686507 
L 406.029549 90.686507 
L 404.536576 90.763563 
L 403.091764 90.763563 
L 401.598791 90.802092 
L 400.153979 90.802092 
L 398.661007 90.802092 
L 397.168034 90.802092 
L 395.723222 90.879148 
L 394.230249 90.956205 
L 392.785437 90.956205 
L 391.292464 90.956205 
L 389.943973 90.956205 
L 388.451 90.956205 
L 386.958028 90.994733 
L 385.513216 90.956205 
L 384.020243 91.033262 
L 382.575431 91.033262 
L 381.082458 91.033262 
L 379.589486 91.07179 
L 378.144673 91.07179 
L 376.651701 91.07179 
L 375.206889 91.110318 
L 373.713916 91.148847 
L 372.365425 91.187375 
L 370.872452 91.187375 
L 369.379479 91.148847 
L 367.934667 91.148847 
L 366.441695 91.148847 
L 364.996882 91.110318 
L 363.50391 91.110318 
L 362.010937 91.148847 
L 360.566125 91.148847 
L 359.073152 91.07179 
L 357.62834 91.033262 
L 356.135368 91.033262 
L 354.738716 91.07179 
L 353.245743 91.07179 
L 351.752771 91.07179 
L 350.307958 91.07179 
L 348.814986 91.07179 
L 347.370174 91.07179 
L 345.877201 91.07179 
L 344.384228 91.07179 
L 342.939416 91.07179 
L 341.446444 90.994733 
L 340.001631 90.994733 
L 338.508659 90.994733 
L 337.160167 90.994733 
L 335.667195 90.956205 
L 334.174222 90.956205 
L 332.72941 91.033262 
L 331.236437 91.033262 
L 329.791625 91.033262 
L 328.298653 91.07179 
L 326.80568 91.07179 
L 325.360868 91.07179 
L 323.867895 91.110318 
L 322.423083 91.148847 
L 320.93011 91.225903 
L 319.581619 91.225903 
L 318.088646 91.225903 
L 316.595674 91.380017 
L 315.150862 91.380017 
L 313.657889 91.380017 
L 312.213077 91.264432 
L 310.720104 91.30296 
L 309.227132 91.495602 
L 307.782319 92.420281 
L 306.289347 92.574395 
L 304.844535 92.612923 
L 303.351562 92.651451 
L 302.003071 92.651451 
L 300.510098 92.651451 
L 299.017125 92.651451 
L 297.572313 92.68998 
L 296.079341 92.68998 
L 294.634528 92.728508 
L 293.141556 92.767036 
L 291.648583 92.805565 
L 290.203771 92.805565 
L 288.710798 92.805565 
L 287.265986 92.805565 
L 285.773014 92.805565 
L 284.376362 92.844093 
L 282.883389 92.844093 
L 281.390417 92.882621 
L 279.945604 92.92115 
L 278.452632 92.92115 
L 277.00782 92.92115 
L 275.514847 92.92115 
L 274.021874 92.92115 
L 272.577062 92.92115 
L 271.08409 92.92115 
L 269.639277 92.92115 
L 268.146305 92.998206 
L 266.797813 92.998206 
L 265.304841 92.998206 
L 263.811868 93.036735 
L 262.367056 93.036735 
L 260.874083 93.075263 
L 259.429271 93.229376 
L 257.936299 94.154056 
L 256.443326 94.154056 
L 254.998514 94.154056 
L 253.505541 94.231113 
L 252.060729 94.231113 
L 250.567756 94.231113 
L 249.219265 94.231113 
L 247.726292 94.231113 
L 246.23332 94.231113 
L 244.788507 94.308169 
L 243.295535 94.231113 
L 241.850723 94.269641 
L 240.35775 94.346698 
L 238.864777 94.423754 
L 237.419965 94.616396 
L 235.926993 94.654924 
L 234.48218 94.654924 
L 232.989208 94.654924 
L 231.640716 94.654924 
L 230.147744 94.731981 
L 228.654771 94.731981 
L 227.209959 94.809038 
L 225.716986 94.809038 
L 224.272174 94.693453 
L 222.779202 94.770509 
L 221.286229 94.770509 
L 219.841417 94.770509 
L 218.348444 94.809038 
L 216.903632 94.809038 
L 215.410659 94.809038 
L 214.014008 94.847566 
L 212.521035 94.847566 
L 211.028062 94.886094 
L 209.58325 94.847566 
L 208.090278 94.847566 
L 206.645465 94.924623 
L 205.152493 94.963151 
L 202.311029 95.232849 
L 201.107019 95.810774 
L 200.09565 96.080472 
L 198.89164 95.464019 
L 197.928432 95.964887 
L 196.57994 96.003416 
L 193.834797 96.889567 
L 191.185975 96.889567 
L 190.367248 96.851039 
L 189.066917 97.005152 
L 187.718426 97.005152 
L 186.080972 97.082209 
L 185.069603 97.082209 
L 184.058235 97.120737 
L 179.627477 97.27485 
L 178.71243 97.27485 
L 173.99271 98.276587 
L 171.63285 98.392172 
L 170.862283 98.4307 
L 169.899075 98.546285 
L 169.27299 98.546285 
L 168.743225 98.546285 
L 165.564639 98.546285 
L 162.14525 98.777455 
L 160.411475 98.89304 
L 158.725861 98.931568 
L 155.691755 99.008625 
L 154.921189 99.12421 
L 153.669018 99.316852 
L 151.646281 99.548022 
L 148.515855 99.702135 
L 147.360005 100.318588 
L 144.663022 100.357116 
L 143.21821 100.626815 
L 141.532596 100.935041 
L 139.606179 101.012098 
L 138.209528 101.012098 
L 137.149999 101.012098 
L 136.427593 101.012098 
L 135.368064 101.166211 
L 134.356695 101.320325 
L 133.682449 101.43591 
L 133.489808 101.43591 
L 132.767402 101.397381 
L 131.804194 101.936778 
L 130.455702 101.474438 
L 129.974098 101.474438 
L 129.444334 101.551494 
L 128.673767 101.551494 
L 127.951361 101.551494 
L 127.277115 102.129419 
L 126.313907 102.129419 
L 125.976784 101.667079 
L 125.061737 102.245004 
L 123.905887 103.323797 
L 123.039 104.209949 
L 122.557396 104.248477 
L 121.738669 104.248477 
L 121.208904 104.287006 
L 120.390177 104.86493 
L 119.715932 104.325534 
L 118.897205 104.325534 
L 115.718618 104.595232 
L 115.477816 104.633761 
L 113.5514 104.672289 
L 109.361444 102.129419 
L 107.097905 104.826402 
L 98.332711 106.675762 
L 84.221712 108.56365 
L 65.05387 109.873613 
L 48.534851 111.838557 
L 40.492063 114.150257 
L 32.352954 113.726445 
z
" clip-path="url(#p377294eb50)" style="fill: #aeaeae"/>
   </g>
   <g id="PolyCollection_4">
    <path d="M 32.352954 90.339752 
L 32.352954 113.726445 
L 40.492063 114.150257 
L 48.534851 111.838557 
L 65.05387 109.873613 
L 84.221712 108.56365 
L 98.332711 106.675762 
L 107.097905 104.826402 
L 109.361444 102.129419 
L 113.5514 104.672289 
L 115.477816 104.633761 
L 115.718618 104.595232 
L 118.897205 104.325534 
L 119.715932 104.325534 
L 120.390177 104.86493 
L 121.208904 104.287006 
L 121.738669 104.248477 
L 122.557396 104.248477 
L 123.039 104.209949 
L 123.905887 103.323797 
L 125.061737 102.245004 
L 125.976784 101.667079 
L 126.313907 102.129419 
L 127.277115 102.129419 
L 127.951361 101.551494 
L 128.673767 101.551494 
L 129.444334 101.551494 
L 129.974098 101.474438 
L 130.455702 101.474438 
L 131.804194 101.936778 
L 132.767402 101.397381 
L 133.489808 101.43591 
L 133.682449 101.43591 
L 134.356695 101.320325 
L 135.368064 101.166211 
L 136.427593 101.012098 
L 137.149999 101.012098 
L 138.209528 101.012098 
L 139.606179 101.012098 
L 141.532596 100.935041 
L 143.21821 100.626815 
L 144.663022 100.357116 
L 147.360005 100.318588 
L 148.515855 99.702135 
L 151.646281 99.548022 
L 153.669018 99.316852 
L 154.921189 99.12421 
L 155.691755 99.008625 
L 158.725861 98.931568 
L 160.411475 98.89304 
L 162.14525 98.777455 
L 165.564639 98.546285 
L 168.743225 98.546285 
L 169.27299 98.546285 
L 169.899075 98.546285 
L 170.862283 98.4307 
L 171.63285 98.392172 
L 173.99271 98.276587 
L 178.71243 97.27485 
L 179.627477 97.27485 
L 184.058235 97.120737 
L 185.069603 97.082209 
L 186.080972 97.082209 
L 187.718426 97.005152 
L 189.066917 97.005152 
L 190.367248 96.851039 
L 191.185975 96.889567 
L 193.834797 96.889567 
L 196.57994 96.003416 
L 197.928432 95.964887 
L 198.89164 95.464019 
L 200.09565 96.080472 
L 201.107019 95.810774 
L 202.311029 95.232849 
L 205.152493 94.963151 
L 206.645465 94.924623 
L 208.090278 94.847566 
L 209.58325 94.847566 
L 211.028062 94.886094 
L 212.521035 94.847566 
L 214.014008 94.847566 
L 215.410659 94.809038 
L 216.903632 94.809038 
L 218.348444 94.809038 
L 219.841417 94.770509 
L 221.286229 94.770509 
L 222.779202 94.770509 
L 224.272174 94.693453 
L 225.716986 94.809038 
L 227.209959 94.809038 
L 228.654771 94.731981 
L 230.147744 94.731981 
L 231.640716 94.654924 
L 232.989208 94.654924 
L 234.48218 94.654924 
L 235.926993 94.654924 
L 237.419965 94.616396 
L 238.864777 94.423754 
L 240.35775 94.346698 
L 241.850723 94.269641 
L 243.295535 94.231113 
L 244.788507 94.308169 
L 246.23332 94.231113 
L 247.726292 94.231113 
L 249.219265 94.231113 
L 250.567756 94.231113 
L 252.060729 94.231113 
L 253.505541 94.231113 
L 254.998514 94.154056 
L 256.443326 94.154056 
L 257.936299 94.154056 
L 259.429271 93.229376 
L 260.874083 93.075263 
L 262.367056 93.036735 
L 263.811868 93.036735 
L 265.304841 92.998206 
L 266.797813 92.998206 
L 268.146305 92.998206 
L 269.639277 92.92115 
L 271.08409 92.92115 
L 272.577062 92.92115 
L 274.021874 92.92115 
L 275.514847 92.92115 
L 277.00782 92.92115 
L 278.452632 92.92115 
L 279.945604 92.92115 
L 281.390417 92.882621 
L 282.883389 92.844093 
L 284.376362 92.844093 
L 285.773014 92.805565 
L 287.265986 92.805565 
L 288.710798 92.805565 
L 290.203771 92.805565 
L 291.648583 92.805565 
L 293.141556 92.767036 
L 294.634528 92.728508 
L 296.079341 92.68998 
L 297.572313 92.68998 
L 299.017125 92.651451 
L 300.510098 92.651451 
L 302.003071 92.651451 
L 303.351562 92.651451 
L 304.844535 92.612923 
L 306.289347 92.574395 
L 307.782319 92.420281 
L 309.227132 91.495602 
L 310.720104 91.30296 
L 312.213077 91.264432 
L 313.657889 91.380017 
L 315.150862 91.380017 
L 316.595674 91.380017 
L 318.088646 91.225903 
L 319.581619 91.225903 
L 320.93011 91.225903 
L 322.423083 91.148847 
L 323.867895 91.110318 
L 325.360868 91.07179 
L 326.80568 91.07179 
L 328.298653 91.07179 
L 329.791625 91.033262 
L 331.236437 91.033262 
L 332.72941 91.033262 
L 334.174222 90.956205 
L 335.667195 90.956205 
L 337.160167 90.994733 
L 338.508659 90.994733 
L 340.001631 90.994733 
L 341.446444 90.994733 
L 342.939416 91.07179 
L 344.384228 91.07179 
L 345.877201 91.07179 
L 347.370174 91.07179 
L 348.814986 91.07179 
L 350.307958 91.07179 
L 351.752771 91.07179 
L 353.245743 91.07179 
L 354.738716 91.07179 
L 356.135368 91.033262 
L 357.62834 91.033262 
L 359.073152 91.07179 
L 360.566125 91.148847 
L 362.010937 91.148847 
L 363.50391 91.110318 
L 364.996882 91.110318 
L 366.441695 91.148847 
L 367.934667 91.148847 
L 369.379479 91.148847 
L 370.872452 91.187375 
L 372.365425 91.187375 
L 373.713916 91.148847 
L 375.206889 91.110318 
L 376.651701 91.07179 
L 378.144673 91.07179 
L 379.589486 91.07179 
L 381.082458 91.033262 
L 382.575431 91.033262 
L 384.020243 91.033262 
L 385.513216 90.956205 
L 386.958028 90.994733 
L 388.451 90.956205 
L 389.943973 90.956205 
L 391.292464 90.956205 
L 392.785437 90.956205 
L 394.230249 90.956205 
L 395.723222 90.879148 
L 397.168034 90.802092 
L 398.661007 90.802092 
L 400.153979 90.802092 
L 401.598791 90.802092 
L 403.091764 90.763563 
L 404.536576 90.763563 
L 406.029549 90.686507 
L 407.522521 90.686507 
L 408.871013 90.647978 
L 410.363985 90.647978 
L 411.808798 90.647978 
L 413.30177 90.647978 
L 414.746582 90.647978 
L 416.239555 90.570922 
L 417.732528 90.570922 
L 419.17734 90.570922 
L 420.670312 90.570922 
L 422.115125 90.532393 
L 423.608097 90.532393 
L 425.10107 90.532393 
L 426.497722 90.493865 
L 427.990694 90.493865 
L 429.435506 90.493865 
L 430.928479 90.455337 
L 432.373291 90.455337 
L 433.866264 90.224167 
L 435.359236 89.877412 
L 436.804049 89.91594 
L 438.297021 89.91594 
L 439.741833 89.91594 
L 441.234806 89.91594 
L 442.727779 89.91594 
L 444.07627 89.91594 
L 445.569243 89.91594 
L 447.014055 89.954469 
L 448.507027 89.954469 
L 449.95184 89.954469 
L 449.95184 80.437972 
L 449.95184 80.437972 
L 448.507027 80.437972 
L 447.014055 80.437972 
L 445.569243 80.437972 
L 444.07627 80.437972 
L 442.727779 80.437972 
L 441.234806 80.437972 
L 439.741833 80.437972 
L 438.297021 80.437972 
L 436.804049 80.476501 
L 435.359236 80.476501 
L 433.866264 80.476501 
L 432.373291 80.515029 
L 430.928479 80.515029 
L 429.435506 80.515029 
L 427.990694 80.515029 
L 426.497722 80.515029 
L 425.10107 80.515029 
L 423.608097 80.515029 
L 422.115125 80.515029 
L 420.670312 80.515029 
L 419.17734 80.515029 
L 417.732528 80.515029 
L 416.239555 80.515029 
L 414.746582 80.515029 
L 413.30177 80.515029 
L 411.808798 80.515029 
L 410.363985 80.515029 
L 408.871013 80.515029 
L 407.522521 80.707671 
L 406.029549 80.746199 
L 404.536576 80.784727 
L 403.091764 80.784727 
L 401.598791 80.784727 
L 400.153979 80.784727 
L 398.661007 80.784727 
L 397.168034 80.784727 
L 395.723222 80.784727 
L 394.230249 80.784727 
L 392.785437 80.784727 
L 391.292464 80.823255 
L 389.943973 80.784727 
L 388.451 80.784727 
L 386.958028 80.823255 
L 385.513216 80.553557 
L 384.020243 80.553557 
L 382.575431 80.206802 
L 381.082458 80.206802 
L 379.589486 80.206802 
L 378.144673 80.206802 
L 376.651701 80.206802 
L 375.206889 80.206802 
L 373.713916 80.245331 
L 372.365425 80.245331 
L 370.872452 80.245331 
L 369.379479 80.206802 
L 367.934667 80.206802 
L 366.441695 80.206802 
L 364.996882 80.245331 
L 363.50391 80.245331 
L 362.010937 80.245331 
L 360.566125 80.245331 
L 359.073152 80.168274 
L 357.62834 80.129746 
L 356.135368 80.129746 
L 354.738716 80.129746 
L 353.245743 80.129746 
L 351.752771 80.129746 
L 350.307958 80.129746 
L 348.814986 80.129746 
L 347.370174 80.129746 
L 345.877201 80.129746 
L 344.384228 80.129746 
L 342.939416 80.129746 
L 341.446444 80.052689 
L 340.001631 80.052689 
L 338.508659 80.052689 
L 337.160167 80.052689 
L 335.667195 80.052689 
L 334.174222 80.052689 
L 332.72941 80.052689 
L 331.236437 80.052689 
L 329.791625 80.052689 
L 328.298653 80.014161 
L 326.80568 80.014161 
L 325.360868 80.014161 
L 323.867895 80.014161 
L 322.423083 80.014161 
L 320.93011 80.014161 
L 319.581619 80.014161 
L 318.088646 80.014161 
L 316.595674 80.014161 
L 315.150862 80.014161 
L 313.657889 80.014161 
L 312.213077 80.014161 
L 310.720104 80.014161 
L 309.227132 80.014161 
L 307.782319 80.014161 
L 306.289347 80.014161 
L 304.844535 80.014161 
L 303.351562 80.014161 
L 302.003071 80.014161 
L 300.510098 80.014161 
L 299.017125 80.014161 
L 297.572313 80.014161 
L 296.079341 80.014161 
L 294.634528 80.014161 
L 293.141556 80.014161 
L 291.648583 80.014161 
L 290.203771 80.014161 
L 288.710798 80.014161 
L 287.265986 80.014161 
L 285.773014 80.360916 
L 284.376362 80.399444 
L 282.883389 80.399444 
L 281.390417 80.399444 
L 279.945604 80.553557 
L 278.452632 80.553557 
L 277.00782 80.553557 
L 275.514847 80.553557 
L 274.021874 80.553557 
L 272.577062 80.553557 
L 271.08409 80.553557 
L 269.639277 80.553557 
L 268.146305 80.553557 
L 266.797813 80.553557 
L 265.304841 80.553557 
L 263.811868 80.592086 
L 262.367056 80.592086 
L 260.874083 80.592086 
L 259.429271 80.592086 
L 257.936299 80.322387 
L 256.443326 80.476501 
L 254.998514 80.437972 
L 253.505541 80.437972 
L 252.060729 80.437972 
L 250.567756 80.437972 
L 249.219265 80.437972 
L 247.726292 80.437972 
L 246.23332 80.437972 
L 244.788507 80.476501 
L 243.295535 80.476501 
L 241.850723 80.476501 
L 240.35775 80.437972 
L 238.864777 80.437972 
L 237.419965 80.437972 
L 235.926993 80.437972 
L 234.48218 80.437972 
L 232.989208 80.437972 
L 231.640716 80.437972 
L 230.147744 80.437972 
L 228.654771 80.437972 
L 227.209959 80.437972 
L 225.716986 80.476501 
L 224.272174 80.437972 
L 222.779202 80.476501 
L 221.286229 80.437972 
L 219.841417 80.437972 
L 218.348444 80.437972 
L 216.903632 80.437972 
L 215.410659 80.437972 
L 214.014008 80.437972 
L 212.521035 80.476501 
L 211.028062 80.476501 
L 209.58325 80.437972 
L 208.090278 80.437972 
L 206.645465 80.437972 
L 205.152493 80.515029 
L 202.311029 80.784727 
L 201.107019 81.439709 
L 200.09565 81.516765 
L 198.89164 80.900312 
L 197.928432 82.402917 
L 196.57994 82.402917 
L 193.834797 83.789937 
L 191.185975 83.789937 
L 190.367248 83.751408 
L 189.066917 83.905522 
L 187.718426 83.866993 
L 186.080972 83.866993 
L 185.069603 83.866993 
L 184.058235 83.866993 
L 179.627477 84.17522 
L 178.71243 84.17522 
L 173.99271 84.367861 
L 171.63285 84.329333 
L 170.862283 84.329333 
L 169.899075 84.40639 
L 169.27299 84.40639 
L 168.743225 84.40639 
L 165.564639 84.945786 
L 162.14525 85.061371 
L 160.411475 85.061371 
L 158.725861 85.061371 
L 155.691755 85.061371 
L 154.921189 85.022843 
L 153.669018 85.022843 
L 151.646281 84.907258 
L 148.515855 84.86873 
L 147.360005 85.870466 
L 144.663022 85.986051 
L 143.21821 86.101636 
L 141.532596 85.986051 
L 139.606179 85.986051 
L 138.209528 85.947523 
L 137.149999 85.947523 
L 136.427593 85.947523 
L 135.368064 85.908994 
L 134.356695 85.908994 
L 133.682449 85.947523 
L 133.489808 85.947523 
L 132.767402 85.947523 
L 131.804194 86.371334 
L 130.455702 85.947523 
L 129.974098 85.947523 
L 129.444334 85.986051 
L 128.673767 85.908994 
L 127.951361 85.908994 
L 127.277115 86.294278 
L 126.313907 86.217221 
L 125.976784 85.793409 
L 125.061737 86.332806 
L 123.905887 86.178693 
L 123.039 86.217221 
L 122.557396 86.217221 
L 121.738669 86.217221 
L 121.208904 86.255749 
L 120.390177 86.756618 
L 119.715932 86.217221 
L 118.897205 86.217221 
L 115.718618 87.180429 
L 115.477816 87.218957 
L 113.5514 87.180429 
L 109.361444 86.294278 
L 107.097905 87.180429 
L 98.332711 87.950996 
L 84.221712 88.374807 
L 65.05387 89.068317 
L 48.534851 89.492129 
L 40.492063 90.493865 
L 32.352954 90.339752 
z
" clip-path="url(#p377294eb50)" style="fill: #d5dce5"/>
   </g>
   <g id="matplotlib.axis_1">
    <g id="xtick_1">
     <g id="line2d_1">
      <defs>
       <path id="me99f191e31" d="M 0 0 
L 0 3.5 
" style="stroke: #000000; stroke-width: 0.8"/>
      </defs>
      <g>
       <use xlink:href="#me99f191e31" x="71.796327" y="275.35277" style="stroke: #000000; stroke-width: 0.8"/>
      </g>
     </g>
     <g id="text_1">
      <!-- 2004 -->
      <g transform="translate(59.071327 289.951207) scale(0.1 -0.1)">
       <defs>
        <path id="DejaVuSans-32" d="M 1228 531 
L 3431 531 
L 3431 0 
L 469 0 
L 469 531 
Q 828 903 1448 1529 
Q 2069 2156 2228 2338 
Q 2531 2678 2651 2914 
Q 2772 3150 2772 3378 
Q 2772 3750 2511 3984 
Q 2250 4219 1831 4219 
Q 1534 4219 1204 4116 
Q 875 4013 500 3803 
L 500 4441 
Q 881 4594 1212 4672 
Q 1544 4750 1819 4750 
Q 2544 4750 2975 4387 
Q 3406 4025 3406 3419 
Q 3406 3131 3298 2873 
Q 3191 2616 2906 2266 
Q 2828 2175 2409 1742 
Q 1991 1309 1228 531 
z
" transform="scale(0.015625)"/>
        <path id="DejaVuSans-30" d="M 2034 4250 
Q 1547 4250 1301 3770 
Q 1056 3291 1056 2328 
Q 1056 1369 1301 889 
Q 1547 409 2034 409 
Q 2525 409 2770 889 
Q 3016 1369 3016 2328 
Q 3016 3291 2770 3770 
Q 2525 4250 2034 4250 
z
M 2034 4750 
Q 2819 4750 3233 4129 
Q 3647 3509 3647 2328 
Q 3647 1150 3233 529 
Q 2819 -91 2034 -91 
Q 1250 -91 836 529 
Q 422 1150 422 2328 
Q 422 3509 836 4129 
Q 1250 4750 2034 4750 
z
" transform="scale(0.015625)"/>
        <path id="DejaVuSans-34" d="M 2419 4116 
L 825 1625 
L 2419 1625 
L 2419 4116 
z
M 2253 4666 
L 3047 4666 
L 3047 1625 
L 3713 1625 
L 3713 1100 
L 3047 1100 
L 3047 0 
L 2419 0 
L 2419 1100 
L 313 1100 
L 313 1709 
L 2253 4666 
z
" transform="scale(0.015625)"/>
       </defs>
       <use xlink:href="#DejaVuSans-32"/>
       <use xlink:href="#DejaVuSans-30" x="63.623047"/>
       <use xlink:href="#DejaVuSans-30" x="127.246094"/>
       <use xlink:href="#DejaVuSans-34" x="190.869141"/>
      </g>
     </g>
    </g>
    <g id="xtick_2">
     <g id="line2d_2">
      <g>
       <use xlink:href="#me99f191e31" x="142.158681" y="275.35277" style="stroke: #000000; stroke-width: 0.8"/>
      </g>
     </g>
     <g id="text_2">
      <!-- 2008 -->
      <g transform="translate(129.433681 289.951207) scale(0.1 -0.1)">
       <defs>
        <path id="DejaVuSans-38" d="M 2034 2216 
Q 1584 2216 1326 1975 
Q 1069 1734 1069 1313 
Q 1069 891 1326 650 
Q 1584 409 2034 409 
Q 2484 409 2743 651 
Q 3003 894 3003 1313 
Q 3003 1734 2745 1975 
Q 2488 2216 2034 2216 
z
M 1403 2484 
Q 997 2584 770 2862 
Q 544 3141 544 3541 
Q 544 4100 942 4425 
Q 1341 4750 2034 4750 
Q 2731 4750 3128 4425 
Q 3525 4100 3525 3541 
Q 3525 3141 3298 2862 
Q 3072 2584 2669 2484 
Q 3125 2378 3379 2068 
Q 3634 1759 3634 1313 
Q 3634 634 3220 271 
Q 2806 -91 2034 -91 
Q 1263 -91 848 271 
Q 434 634 434 1313 
Q 434 1759 690 2068 
Q 947 2378 1403 2484 
z
M 1172 3481 
Q 1172 3119 1398 2916 
Q 1625 2713 2034 2713 
Q 2441 2713 2670 2916 
Q 2900 3119 2900 3481 
Q 2900 3844 2670 4047 
Q 2441 4250 2034 4250 
Q 1625 4250 1398 4047 
Q 1172 3844 1172 3481 
z
" transform="scale(0.015625)"/>
       </defs>
       <use xlink:href="#DejaVuSans-32"/>
       <use xlink:href="#DejaVuSans-30" x="63.623047"/>
       <use xlink:href="#DejaVuSans-30" x="127.246094"/>
       <use xlink:href="#DejaVuSans-38" x="190.869141"/>
      </g>
     </g>
    </g>
    <g id="xtick_3">
     <g id="line2d_3">
      <g>
       <use xlink:href="#me99f191e31" x="212.521035" y="275.35277" style="stroke: #000000; stroke-width: 0.8"/>
      </g>
     </g>
     <g id="text_3">
      <!-- 2012 -->
      <g transform="translate(199.796035 289.951207) scale(0.1 -0.1)">
       <defs>
        <path id="DejaVuSans-31" d="M 794 531 
L 1825 531 
L 1825 4091 
L 703 3866 
L 703 4441 
L 1819 4666 
L 2450 4666 
L 2450 531 
L 3481 531 
L 3481 0 
L 794 0 
L 794 531 
z
" transform="scale(0.015625)"/>
       </defs>
       <use xlink:href="#DejaVuSans-32"/>
       <use xlink:href="#DejaVuSans-30" x="63.623047"/>
       <use xlink:href="#DejaVuSans-31" x="127.246094"/>
       <use xlink:href="#DejaVuSans-32" x="190.869141"/>
      </g>
     </g>
    </g>
    <g id="xtick_4">
     <g id="line2d_4">
      <g>
       <use xlink:href="#me99f191e31" x="282.883389" y="275.35277" style="stroke: #000000; stroke-width: 0.8"/>
      </g>
     </g>
     <g id="text_4">
      <!-- 2016 -->
      <g transform="translate(270.158389 289.951207) scale(0.1 -0.1)">
       <defs>
        <path id="DejaVuSans-36" d="M 2113 2584 
Q 1688 2584 1439 2293 
Q 1191 2003 1191 1497 
Q 1191 994 1439 701 
Q 1688 409 2113 409 
Q 2538 409 2786 701 
Q 3034 994 3034 1497 
Q 3034 2003 2786 2293 
Q 2538 2584 2113 2584 
z
M 3366 4563 
L 3366 3988 
Q 3128 4100 2886 4159 
Q 2644 4219 2406 4219 
Q 1781 4219 1451 3797 
Q 1122 3375 1075 2522 
Q 1259 2794 1537 2939 
Q 1816 3084 2150 3084 
Q 2853 3084 3261 2657 
Q 3669 2231 3669 1497 
Q 3669 778 3244 343 
Q 2819 -91 2113 -91 
Q 1303 -91 875 529 
Q 447 1150 447 2328 
Q 447 3434 972 4092 
Q 1497 4750 2381 4750 
Q 2619 4750 2861 4703 
Q 3103 4656 3366 4563 
z
" transform="scale(0.015625)"/>
       </defs>
       <use xlink:href="#DejaVuSans-32"/>
       <use xlink:href="#DejaVuSans-30" x="63.623047"/>
       <use xlink:href="#DejaVuSans-31" x="127.246094"/>
       <use xlink:href="#DejaVuSans-36" x="190.869141"/>
      </g>
     </g>
    </g>
    <g id="xtick_5">
     <g id="line2d_5">
      <g>
       <use xlink:href="#me99f191e31" x="353.245743" y="275.35277" style="stroke: #000000; stroke-width: 0.8"/>
      </g>
     </g>
     <g id="text_5">
      <!-- 2020 -->
      <g transform="translate(340.520743 289.951207) scale(0.1 -0.1)">
       <use xlink:href="#DejaVuSans-32"/>
       <use xlink:href="#DejaVuSans-30" x="63.623047"/>
       <use xlink:href="#DejaVuSans-32" x="127.246094"/>
       <use xlink:href="#DejaVuSans-30" x="190.869141"/>
      </g>
     </g>
    </g>
    <g id="xtick_6">
     <g id="line2d_6">
      <g>
       <use xlink:href="#me99f191e31" x="423.608097" y="275.35277" style="stroke: #000000; stroke-width: 0.8"/>
      </g>
     </g>
     <g id="text_6">
      <!-- 2024 -->
      <g transform="translate(410.883097 289.951207) scale(0.1 -0.1)">
       <use xlink:href="#DejaVuSans-32"/>
       <use xlink:href="#DejaVuSans-30" x="63.623047"/>
       <use xlink:href="#DejaVuSans-32" x="127.246094"/>
       <use xlink:href="#DejaVuSans-34" x="190.869141"/>
      </g>
     </g>
    </g>
    <g id="text_7">
     <!-- Year -->
     <g transform="translate(239.86375 307.428551) scale(0.15 -0.15)">
      <defs>
       <path id="DejaVuSans-59" d="M -13 4666 
L 666 4666 
L 1959 2747 
L 3244 4666 
L 3922 4666 
L 2272 2222 
L 2272 0 
L 1638 0 
L 1638 2222 
L -13 4666 
z
" transform="scale(0.015625)"/>
       <path id="DejaVuSans-65" d="M 3597 1894 
L 3597 1613 
L 953 1613 
Q 991 1019 1311 708 
Q 1631 397 2203 397 
Q 2534 397 2845 478 
Q 3156 559 3463 722 
L 3463 178 
Q 3153 47 2828 -22 
Q 2503 -91 2169 -91 
Q 1331 -91 842 396 
Q 353 884 353 1716 
Q 353 2575 817 3079 
Q 1281 3584 2069 3584 
Q 2775 3584 3186 3129 
Q 3597 2675 3597 1894 
z
M 3022 2063 
Q 3016 2534 2758 2815 
Q 2500 3097 2075 3097 
Q 1594 3097 1305 2825 
Q 1016 2553 972 2059 
L 3022 2063 
z
" transform="scale(0.015625)"/>
       <path id="DejaVuSans-61" d="M 2194 1759 
Q 1497 1759 1228 1600 
Q 959 1441 959 1056 
Q 959 750 1161 570 
Q 1363 391 1709 391 
Q 2188 391 2477 730 
Q 2766 1069 2766 1631 
L 2766 1759 
L 2194 1759 
z
M 3341 1997 
L 3341 0 
L 2766 0 
L 2766 531 
Q 2569 213 2275 61 
Q 1981 -91 1556 -91 
Q 1019 -91 701 211 
Q 384 513 384 1019 
Q 384 1609 779 1909 
Q 1175 2209 1959 2209 
L 2766 2209 
L 2766 2266 
Q 2766 2663 2505 2880 
Q 2244 3097 1772 3097 
Q 1472 3097 1187 3025 
Q 903 2953 641 2809 
L 641 3341 
Q 956 3463 1253 3523 
Q 1550 3584 1831 3584 
Q 2591 3584 2966 3190 
Q 3341 2797 3341 1997 
z
" transform="scale(0.015625)"/>
       <path id="DejaVuSans-72" d="M 2631 2963 
Q 2534 3019 2420 3045 
Q 2306 3072 2169 3072 
Q 1681 3072 1420 2755 
Q 1159 2438 1159 1844 
L 1159 0 
L 581 0 
L 581 3500 
L 1159 3500 
L 1159 2956 
Q 1341 3275 1631 3429 
Q 1922 3584 2338 3584 
Q 2397 3584 2469 3576 
Q 2541 3569 2628 3553 
L 2631 2963 
z
" transform="scale(0.015625)"/>
      </defs>
      <use xlink:href="#DejaVuSans-59"/>
      <use xlink:href="#DejaVuSans-65" x="47.833984"/>
      <use xlink:href="#DejaVuSans-61" x="109.357422"/>
      <use xlink:href="#DejaVuSans-72" x="170.636719"/>
     </g>
    </g>
   </g>
   <g id="matplotlib.axis_2">
    <g id="ytick_1">
     <g id="line2d_7">
      <defs>
       <path id="mfea4556814" d="M 0 0 
L -3.5 0 
" style="stroke: #000000; stroke-width: 0.8"/>
      </defs>
      <g>
       <use xlink:href="#mfea4556814" x="61.49" y="275.35277" style="stroke: #000000; stroke-width: 0.8"/>
      </g>
     </g>
     <g id="text_8">
      <!-- 0 -->
      <g transform="translate(48.1275 279.151989) scale(0.1 -0.1)">
       <use xlink:href="#DejaVuSans-30"/>
      </g>
     </g>
    </g>
    <g id="ytick_2">
     <g id="line2d_8">
      <g>
       <use xlink:href="#mfea4556814" x="61.49" y="236.824445" style="stroke: #000000; stroke-width: 0.8"/>
      </g>
     </g>
     <g id="text_9">
      <!-- 1000 -->
      <g transform="translate(29.04 240.623663) scale(0.1 -0.1)">
       <use xlink:href="#DejaVuSans-31"/>
       <use xlink:href="#DejaVuSans-30" x="63.623047"/>
       <use xlink:href="#DejaVuSans-30" x="127.246094"/>
       <use xlink:href="#DejaVuSans-30" x="190.869141"/>
      </g>
     </g>
    </g>
    <g id="ytick_3">
     <g id="line2d_9">
      <g>
       <use xlink:href="#mfea4556814" x="61.49" y="198.296119" style="stroke: #000000; stroke-width: 0.8"/>
      </g>
     </g>
     <g id="text_10">
      <!-- 2000 -->
      <g transform="translate(29.04 202.095338) scale(0.1 -0.1)">
       <use xlink:href="#DejaVuSans-32"/>
       <use xlink:href="#DejaVuSans-30" x="63.623047"/>
       <use xlink:href="#DejaVuSans-30" x="127.246094"/>
       <use xlink:href="#DejaVuSans-30" x="190.869141"/>
      </g>
     </g>
    </g>
    <g id="ytick_4">
     <g id="line2d_10">
      <g>
       <use xlink:href="#mfea4556814" x="61.49" y="159.767794" style="stroke: #000000; stroke-width: 0.8"/>
      </g>
     </g>
     <g id="text_11">
      <!-- 3000 -->
      <g transform="translate(29.04 163.567013) scale(0.1 -0.1)">
       <defs>
        <path id="DejaVuSans-33" d="M 2597 2516 
Q 3050 2419 3304 2112 
Q 3559 1806 3559 1356 
Q 3559 666 3084 287 
Q 2609 -91 1734 -91 
Q 1441 -91 1130 -33 
Q 819 25 488 141 
L 488 750 
Q 750 597 1062 519 
Q 1375 441 1716 441 
Q 2309 441 2620 675 
Q 2931 909 2931 1356 
Q 2931 1769 2642 2001 
Q 2353 2234 1838 2234 
L 1294 2234 
L 1294 2753 
L 1863 2753 
Q 2328 2753 2575 2939 
Q 2822 3125 2822 3475 
Q 2822 3834 2567 4026 
Q 2313 4219 1838 4219 
Q 1578 4219 1281 4162 
Q 984 4106 628 3988 
L 628 4550 
Q 988 4650 1302 4700 
Q 1616 4750 1894 4750 
Q 2613 4750 3031 4423 
Q 3450 4097 3450 3541 
Q 3450 3153 3228 2886 
Q 3006 2619 2597 2516 
z
" transform="scale(0.015625)"/>
       </defs>
       <use xlink:href="#DejaVuSans-33"/>
       <use xlink:href="#DejaVuSans-30" x="63.623047"/>
       <use xlink:href="#DejaVuSans-30" x="127.246094"/>
       <use xlink:href="#DejaVuSans-30" x="190.869141"/>
      </g>
     </g>
    </g>
    <g id="ytick_5">
     <g id="line2d_11">
      <g>
       <use xlink:href="#mfea4556814" x="61.49" y="121.239469" style="stroke: #000000; stroke-width: 0.8"/>
      </g>
     </g>
     <g id="text_12">
      <!-- 4000 -->
      <g transform="translate(29.04 125.038687) scale(0.1 -0.1)">
       <use xlink:href="#DejaVuSans-34"/>
       <use xlink:href="#DejaVuSans-30" x="63.623047"/>
       <use xlink:href="#DejaVuSans-30" x="127.246094"/>
       <use xlink:href="#DejaVuSans-30" x="190.869141"/>
      </g>
     </g>
    </g>
    <g id="ytick_6">
     <g id="line2d_12">
      <g>
       <use xlink:href="#mfea4556814" x="61.49" y="82.711143" style="stroke: #000000; stroke-width: 0.8"/>
      </g>
     </g>
     <g id="text_13">
      <!-- 5000 -->
      <g transform="translate(29.04 86.510362) scale(0.1 -0.1)">
       <defs>
        <path id="DejaVuSans-35" d="M 691 4666 
L 3169 4666 
L 3169 4134 
L 1269 4134 
L 1269 2991 
Q 1406 3038 1543 3061 
Q 1681 3084 1819 3084 
Q 2600 3084 3056 2656 
Q 3513 2228 3513 1497 
Q 3513 744 3044 326 
Q 2575 -91 1722 -91 
Q 1428 -91 1123 -41 
Q 819 9 494 109 
L 494 744 
Q 775 591 1075 516 
Q 1375 441 1709 441 
Q 2250 441 2565 725 
Q 2881 1009 2881 1497 
Q 2881 1984 2565 2268 
Q 2250 2553 1709 2553 
Q 1456 2553 1204 2497 
Q 953 2441 691 2322 
L 691 4666 
z
" transform="scale(0.015625)"/>
       </defs>
       <use xlink:href="#DejaVuSans-35"/>
       <use xlink:href="#DejaVuSans-30" x="63.623047"/>
       <use xlink:href="#DejaVuSans-30" x="127.246094"/>
       <use xlink:href="#DejaVuSans-30" x="190.869141"/>
      </g>
     </g>
    </g>
    <g id="text_14">
     <!-- Number of proteins -->
     <g transform="translate(21.920469 245.489062) rotate(-90) scale(0.15 -0.15)">
      <defs>
       <path id="DejaVuSans-4e" d="M 628 4666 
L 1478 4666 
L 3547 763 
L 3547 4666 
L 4159 4666 
L 4159 0 
L 3309 0 
L 1241 3903 
L 1241 0 
L 628 0 
L 628 4666 
z
" transform="scale(0.015625)"/>
       <path id="DejaVuSans-75" d="M 544 1381 
L 544 3500 
L 1119 3500 
L 1119 1403 
Q 1119 906 1312 657 
Q 1506 409 1894 409 
Q 2359 409 2629 706 
Q 2900 1003 2900 1516 
L 2900 3500 
L 3475 3500 
L 3475 0 
L 2900 0 
L 2900 538 
Q 2691 219 2414 64 
Q 2138 -91 1772 -91 
Q 1169 -91 856 284 
Q 544 659 544 1381 
z
M 1991 3584 
L 1991 3584 
z
" transform="scale(0.015625)"/>
       <path id="DejaVuSans-6d" d="M 3328 2828 
Q 3544 3216 3844 3400 
Q 4144 3584 4550 3584 
Q 5097 3584 5394 3201 
Q 5691 2819 5691 2113 
L 5691 0 
L 5113 0 
L 5113 2094 
Q 5113 2597 4934 2840 
Q 4756 3084 4391 3084 
Q 3944 3084 3684 2787 
Q 3425 2491 3425 1978 
L 3425 0 
L 2847 0 
L 2847 2094 
Q 2847 2600 2669 2842 
Q 2491 3084 2119 3084 
Q 1678 3084 1418 2786 
Q 1159 2488 1159 1978 
L 1159 0 
L 581 0 
L 581 3500 
L 1159 3500 
L 1159 2956 
Q 1356 3278 1631 3431 
Q 1906 3584 2284 3584 
Q 2666 3584 2933 3390 
Q 3200 3197 3328 2828 
z
" transform="scale(0.015625)"/>
       <path id="DejaVuSans-62" d="M 3116 1747 
Q 3116 2381 2855 2742 
Q 2594 3103 2138 3103 
Q 1681 3103 1420 2742 
Q 1159 2381 1159 1747 
Q 1159 1113 1420 752 
Q 1681 391 2138 391 
Q 2594 391 2855 752 
Q 3116 1113 3116 1747 
z
M 1159 2969 
Q 1341 3281 1617 3432 
Q 1894 3584 2278 3584 
Q 2916 3584 3314 3078 
Q 3713 2572 3713 1747 
Q 3713 922 3314 415 
Q 2916 -91 2278 -91 
Q 1894 -91 1617 61 
Q 1341 213 1159 525 
L 1159 0 
L 581 0 
L 581 4863 
L 1159 4863 
L 1159 2969 
z
" transform="scale(0.015625)"/>
       <path id="DejaVuSans-20" transform="scale(0.015625)"/>
       <path id="DejaVuSans-6f" d="M 1959 3097 
Q 1497 3097 1228 2736 
Q 959 2375 959 1747 
Q 959 1119 1226 758 
Q 1494 397 1959 397 
Q 2419 397 2687 759 
Q 2956 1122 2956 1747 
Q 2956 2369 2687 2733 
Q 2419 3097 1959 3097 
z
M 1959 3584 
Q 2709 3584 3137 3096 
Q 3566 2609 3566 1747 
Q 3566 888 3137 398 
Q 2709 -91 1959 -91 
Q 1206 -91 779 398 
Q 353 888 353 1747 
Q 353 2609 779 3096 
Q 1206 3584 1959 3584 
z
" transform="scale(0.015625)"/>
       <path id="DejaVuSans-66" d="M 2375 4863 
L 2375 4384 
L 1825 4384 
Q 1516 4384 1395 4259 
Q 1275 4134 1275 3809 
L 1275 3500 
L 2222 3500 
L 2222 3053 
L 1275 3053 
L 1275 0 
L 697 0 
L 697 3053 
L 147 3053 
L 147 3500 
L 697 3500 
L 697 3744 
Q 697 4328 969 4595 
Q 1241 4863 1831 4863 
L 2375 4863 
z
" transform="scale(0.015625)"/>
       <path id="DejaVuSans-70" d="M 1159 525 
L 1159 -1331 
L 581 -1331 
L 581 3500 
L 1159 3500 
L 1159 2969 
Q 1341 3281 1617 3432 
Q 1894 3584 2278 3584 
Q 2916 3584 3314 3078 
Q 3713 2572 3713 1747 
Q 3713 922 3314 415 
Q 2916 -91 2278 -91 
Q 1894 -91 1617 61 
Q 1341 213 1159 525 
z
M 3116 1747 
Q 3116 2381 2855 2742 
Q 2594 3103 2138 3103 
Q 1681 3103 1420 2742 
Q 1159 2381 1159 1747 
Q 1159 1113 1420 752 
Q 1681 391 2138 391 
Q 2594 391 2855 752 
Q 3116 1113 3116 1747 
z
" transform="scale(0.015625)"/>
       <path id="DejaVuSans-74" d="M 1172 4494 
L 1172 3500 
L 2356 3500 
L 2356 3053 
L 1172 3053 
L 1172 1153 
Q 1172 725 1289 603 
Q 1406 481 1766 481 
L 2356 481 
L 2356 0 
L 1766 0 
Q 1100 0 847 248 
Q 594 497 594 1153 
L 594 3053 
L 172 3053 
L 172 3500 
L 594 3500 
L 594 4494 
L 1172 4494 
z
" transform="scale(0.015625)"/>
       <path id="DejaVuSans-69" d="M 603 3500 
L 1178 3500 
L 1178 0 
L 603 0 
L 603 3500 
z
M 603 4863 
L 1178 4863 
L 1178 4134 
L 603 4134 
L 603 4863 
z
" transform="scale(0.015625)"/>
       <path id="DejaVuSans-6e" d="M 3513 2113 
L 3513 0 
L 2938 0 
L 2938 2094 
Q 2938 2591 2744 2837 
Q 2550 3084 2163 3084 
Q 1697 3084 1428 2787 
Q 1159 2491 1159 1978 
L 1159 0 
L 581 0 
L 581 3500 
L 1159 3500 
L 1159 2956 
Q 1366 3272 1645 3428 
Q 1925 3584 2291 3584 
Q 2894 3584 3203 3211 
Q 3513 2838 3513 2113 
z
" transform="scale(0.015625)"/>
       <path id="DejaVuSans-73" d="M 2834 3397 
L 2834 2853 
Q 2591 2978 2328 3040 
Q 2066 3103 1784 3103 
Q 1356 3103 1142 2972 
Q 928 2841 928 2578 
Q 928 2378 1081 2264 
Q 1234 2150 1697 2047 
L 1894 2003 
Q 2506 1872 2764 1633 
Q 3022 1394 3022 966 
Q 3022 478 2636 193 
Q 2250 -91 1575 -91 
Q 1294 -91 989 -36 
Q 684 19 347 128 
L 347 722 
Q 666 556 975 473 
Q 1284 391 1588 391 
Q 1994 391 2212 530 
Q 2431 669 2431 922 
Q 2431 1156 2273 1281 
Q 2116 1406 1581 1522 
L 1381 1569 
Q 847 1681 609 1914 
Q 372 2147 372 2553 
Q 372 3047 722 3315 
Q 1072 3584 1716 3584 
Q 2034 3584 2315 3537 
Q 2597 3491 2834 3397 
z
" transform="scale(0.015625)"/>
      </defs>
      <use xlink:href="#DejaVuSans-4e"/>
      <use xlink:href="#DejaVuSans-75" x="74.804688"/>
      <use xlink:href="#DejaVuSans-6d" x="138.183594"/>
      <use xlink:href="#DejaVuSans-62" x="235.595703"/>
      <use xlink:href="#DejaVuSans-65" x="299.072266"/>
      <use xlink:href="#DejaVuSans-72" x="360.595703"/>
      <use xlink:href="#DejaVuSans-20" x="401.708984"/>
      <use xlink:href="#DejaVuSans-6f" x="433.496094"/>
      <use xlink:href="#DejaVuSans-66" x="494.677734"/>
      <use xlink:href="#DejaVuSans-20" x="529.882812"/>
      <use xlink:href="#DejaVuSans-70" x="561.669922"/>
      <use xlink:href="#DejaVuSans-72" x="625.146484"/>
      <use xlink:href="#DejaVuSans-6f" x="664.009766"/>
      <use xlink:href="#DejaVuSans-74" x="725.191406"/>
      <use xlink:href="#DejaVuSans-65" x="764.400391"/>
      <use xlink:href="#DejaVuSans-69" x="825.923828"/>
      <use xlink:href="#DejaVuSans-6e" x="853.707031"/>
      <use xlink:href="#DejaVuSans-73" x="917.085938"/>
     </g>
    </g>
   </g>
   <g id="patch_3">
    <path d="M 61.49 275.35277 
L 61.49 70.24723 
" style="fill: none; stroke: #000000; stroke-width: 0.8; stroke-linejoin: miter; stroke-linecap: square"/>
   </g>
   <g id="patch_4">
    <path d="M 61.49 275.35277 
L 450 275.35277 
" style="fill: none; stroke: #000000; stroke-width: 0.8; stroke-linejoin: miter; stroke-linecap: square"/>
   </g>
   <g id="legend_1">
    <g id="patch_5">
     <path d="M 98.395781 65.24723 
L 413.094219 65.24723 
Q 415.094219 65.24723 415.094219 63.24723 
L 415.094219 34.89098 
Q 415.094219 32.89098 413.094219 32.89098 
L 98.395781 32.89098 
Q 96.395781 32.89098 96.395781 34.89098 
L 96.395781 63.24723 
Q 96.395781 65.24723 98.395781 65.24723 
z
" style="fill: #ffffff; opacity: 0.8; stroke: #cccccc; stroke-linejoin: miter"/>
    </g>
    <g id="patch_6">
     <path d="M 100.395781 44.489418 
L 120.395781 44.489418 
L 120.395781 37.489418 
L 100.395781 37.489418 
z
" style="fill: #fb363b"/>
    </g>
    <g id="text_15">
     <!-- Biological role published -->
     <g transform="translate(128.395781 44.489418) scale(0.1 -0.1)">
      <defs>
       <path id="DejaVuSans-42" d="M 1259 2228 
L 1259 519 
L 2272 519 
Q 2781 519 3026 730 
Q 3272 941 3272 1375 
Q 3272 1813 3026 2020 
Q 2781 2228 2272 2228 
L 1259 2228 
z
M 1259 4147 
L 1259 2741 
L 2194 2741 
Q 2656 2741 2882 2914 
Q 3109 3088 3109 3444 
Q 3109 3797 2882 3972 
Q 2656 4147 2194 4147 
L 1259 4147 
z
M 628 4666 
L 2241 4666 
Q 2963 4666 3353 4366 
Q 3744 4066 3744 3513 
Q 3744 3084 3544 2831 
Q 3344 2578 2956 2516 
Q 3422 2416 3680 2098 
Q 3938 1781 3938 1306 
Q 3938 681 3513 340 
Q 3088 0 2303 0 
L 628 0 
L 628 4666 
z
" transform="scale(0.015625)"/>
       <path id="DejaVuSans-6c" d="M 603 4863 
L 1178 4863 
L 1178 0 
L 603 0 
L 603 4863 
z
" transform="scale(0.015625)"/>
       <path id="DejaVuSans-67" d="M 2906 1791 
Q 2906 2416 2648 2759 
Q 2391 3103 1925 3103 
Q 1463 3103 1205 2759 
Q 947 2416 947 1791 
Q 947 1169 1205 825 
Q 1463 481 1925 481 
Q 2391 481 2648 825 
Q 2906 1169 2906 1791 
z
M 3481 434 
Q 3481 -459 3084 -895 
Q 2688 -1331 1869 -1331 
Q 1566 -1331 1297 -1286 
Q 1028 -1241 775 -1147 
L 775 -588 
Q 1028 -725 1275 -790 
Q 1522 -856 1778 -856 
Q 2344 -856 2625 -561 
Q 2906 -266 2906 331 
L 2906 616 
Q 2728 306 2450 153 
Q 2172 0 1784 0 
Q 1141 0 747 490 
Q 353 981 353 1791 
Q 353 2603 747 3093 
Q 1141 3584 1784 3584 
Q 2172 3584 2450 3431 
Q 2728 3278 2906 2969 
L 2906 3500 
L 3481 3500 
L 3481 434 
z
" transform="scale(0.015625)"/>
       <path id="DejaVuSans-63" d="M 3122 3366 
L 3122 2828 
Q 2878 2963 2633 3030 
Q 2388 3097 2138 3097 
Q 1578 3097 1268 2742 
Q 959 2388 959 1747 
Q 959 1106 1268 751 
Q 1578 397 2138 397 
Q 2388 397 2633 464 
Q 2878 531 3122 666 
L 3122 134 
Q 2881 22 2623 -34 
Q 2366 -91 2075 -91 
Q 1284 -91 818 406 
Q 353 903 353 1747 
Q 353 2603 823 3093 
Q 1294 3584 2113 3584 
Q 2378 3584 2631 3529 
Q 2884 3475 3122 3366 
z
" transform="scale(0.015625)"/>
       <path id="DejaVuSans-68" d="M 3513 2113 
L 3513 0 
L 2938 0 
L 2938 2094 
Q 2938 2591 2744 2837 
Q 2550 3084 2163 3084 
Q 1697 3084 1428 2787 
Q 1159 2491 1159 1978 
L 1159 0 
L 581 0 
L 581 4863 
L 1159 4863 
L 1159 2956 
Q 1366 3272 1645 3428 
Q 1925 3584 2291 3584 
Q 2894 3584 3203 3211 
Q 3513 2838 3513 2113 
z
" transform="scale(0.015625)"/>
       <path id="DejaVuSans-64" d="M 2906 2969 
L 2906 4863 
L 3481 4863 
L 3481 0 
L 2906 0 
L 2906 525 
Q 2725 213 2448 61 
Q 2172 -91 1784 -91 
Q 1150 -91 751 415 
Q 353 922 353 1747 
Q 353 2572 751 3078 
Q 1150 3584 1784 3584 
Q 2172 3584 2448 3432 
Q 2725 3281 2906 2969 
z
M 947 1747 
Q 947 1113 1208 752 
Q 1469 391 1925 391 
Q 2381 391 2643 752 
Q 2906 1113 2906 1747 
Q 2906 2381 2643 2742 
Q 2381 3103 1925 3103 
Q 1469 3103 1208 2742 
Q 947 2381 947 1747 
z
" transform="scale(0.015625)"/>
      </defs>
      <use xlink:href="#DejaVuSans-42"/>
      <use xlink:href="#DejaVuSans-69" x="68.603516"/>
      <use xlink:href="#DejaVuSans-6f" x="96.386719"/>
      <use xlink:href="#DejaVuSans-6c" x="157.568359"/>
      <use xlink:href="#DejaVuSans-6f" x="185.351562"/>
      <use xlink:href="#DejaVuSans-67" x="246.533203"/>
      <use xlink:href="#DejaVuSans-69" x="310.009766"/>
      <use xlink:href="#DejaVuSans-63" x="337.792969"/>
      <use xlink:href="#DejaVuSans-61" x="392.773438"/>
      <use xlink:href="#DejaVuSans-6c" x="454.052734"/>
      <use xlink:href="#DejaVuSans-20" x="481.835938"/>
      <use xlink:href="#DejaVuSans-72" x="513.623047"/>
      <use xlink:href="#DejaVuSans-6f" x="552.486328"/>
      <use xlink:href="#DejaVuSans-6c" x="613.667969"/>
      <use xlink:href="#DejaVuSans-65" x="641.451172"/>
      <use xlink:href="#DejaVuSans-20" x="702.974609"/>
      <use xlink:href="#DejaVuSans-70" x="734.761719"/>
      <use xlink:href="#DejaVuSans-75" x="798.238281"/>
      <use xlink:href="#DejaVuSans-62" x="861.617188"/>
      <use xlink:href="#DejaVuSans-6c" x="925.09375"/>
      <use xlink:href="#DejaVuSans-69" x="952.876953"/>
      <use xlink:href="#DejaVuSans-73" x="980.660156"/>
      <use xlink:href="#DejaVuSans-68" x="1032.759766"/>
      <use xlink:href="#DejaVuSans-65" x="1096.138672"/>
      <use xlink:href="#DejaVuSans-64" x="1157.662109"/>
     </g>
    </g>
    <g id="patch_7">
     <path d="M 100.395781 59.167543 
L 120.395781 59.167543 
L 120.395781 52.167543 
L 100.395781 52.167543 
z
" style="fill: #fdc92c"/>
    </g>
    <g id="text_16">
     <!-- Biological role inferred -->
     <g transform="translate(128.395781 59.167543) scale(0.1 -0.1)">
      <use xlink:href="#DejaVuSans-42"/>
      <use xlink:href="#DejaVuSans-69" x="68.603516"/>
      <use xlink:href="#DejaVuSans-6f" x="96.386719"/>
      <use xlink:href="#DejaVuSans-6c" x="157.568359"/>
      <use xlink:href="#DejaVuSans-6f" x="185.351562"/>
      <use xlink:href="#DejaVuSans-67" x="246.533203"/>
      <use xlink:href="#DejaVuSans-69" x="310.009766"/>
      <use xlink:href="#DejaVuSans-63" x="337.792969"/>
      <use xlink:href="#DejaVuSans-61" x="392.773438"/>
      <use xlink:href="#DejaVuSans-6c" x="454.052734"/>
      <use xlink:href="#DejaVuSans-20" x="481.835938"/>
      <use xlink:href="#DejaVuSans-72" x="513.623047"/>
      <use xlink:href="#DejaVuSans-6f" x="552.486328"/>
      <use xlink:href="#DejaVuSans-6c" x="613.667969"/>
      <use xlink:href="#DejaVuSans-65" x="641.451172"/>
      <use xlink:href="#DejaVuSans-20" x="702.974609"/>
      <use xlink:href="#DejaVuSans-69" x="734.761719"/>
      <use xlink:href="#DejaVuSans-6e" x="762.544922"/>
      <use xlink:href="#DejaVuSans-66" x="825.923828"/>
      <use xlink:href="#DejaVuSans-65" x="861.128906"/>
      <use xlink:href="#DejaVuSans-72" x="922.652344"/>
      <use xlink:href="#DejaVuSans-72" x="962.015625"/>
      <use xlink:href="#DejaVuSans-65" x="1000.878906"/>
      <use xlink:href="#DejaVuSans-64" x="1062.402344"/>
     </g>
    </g>
    <g id="patch_8">
     <path d="M 270.512969 44.489418 
L 290.512969 44.489418 
L 290.512969 37.489418 
L 270.512969 37.489418 
z
" style="fill: #aeaeae"/>
    </g>
    <g id="text_17">
     <!-- Conserved unknown -->
     <g transform="translate(298.512969 44.489418) scale(0.1 -0.1)">
      <defs>
       <path id="DejaVuSans-43" d="M 4122 4306 
L 4122 3641 
Q 3803 3938 3442 4084 
Q 3081 4231 2675 4231 
Q 1875 4231 1450 3742 
Q 1025 3253 1025 2328 
Q 1025 1406 1450 917 
Q 1875 428 2675 428 
Q 3081 428 3442 575 
Q 3803 722 4122 1019 
L 4122 359 
Q 3791 134 3420 21 
Q 3050 -91 2638 -91 
Q 1578 -91 968 557 
Q 359 1206 359 2328 
Q 359 3453 968 4101 
Q 1578 4750 2638 4750 
Q 3056 4750 3426 4639 
Q 3797 4528 4122 4306 
z
" transform="scale(0.015625)"/>
       <path id="DejaVuSans-76" d="M 191 3500 
L 800 3500 
L 1894 563 
L 2988 3500 
L 3597 3500 
L 2284 0 
L 1503 0 
L 191 3500 
z
" transform="scale(0.015625)"/>
       <path id="DejaVuSans-6b" d="M 581 4863 
L 1159 4863 
L 1159 1991 
L 2875 3500 
L 3609 3500 
L 1753 1863 
L 3688 0 
L 2938 0 
L 1159 1709 
L 1159 0 
L 581 0 
L 581 4863 
z
" transform="scale(0.015625)"/>
       <path id="DejaVuSans-77" d="M 269 3500 
L 844 3500 
L 1563 769 
L 2278 3500 
L 2956 3500 
L 3675 769 
L 4391 3500 
L 4966 3500 
L 4050 0 
L 3372 0 
L 2619 2869 
L 1863 0 
L 1184 0 
L 269 3500 
z
" transform="scale(0.015625)"/>
      </defs>
      <use xlink:href="#DejaVuSans-43"/>
      <use xlink:href="#DejaVuSans-6f" x="69.824219"/>
      <use xlink:href="#DejaVuSans-6e" x="131.005859"/>
      <use xlink:href="#DejaVuSans-73" x="194.384766"/>
      <use xlink:href="#DejaVuSans-65" x="246.484375"/>
      <use xlink:href="#DejaVuSans-72" x="308.007812"/>
      <use xlink:href="#DejaVuSans-76" x="349.121094"/>
      <use xlink:href="#DejaVuSans-65" x="408.300781"/>
      <use xlink:href="#DejaVuSans-64" x="469.824219"/>
      <use xlink:href="#DejaVuSans-20" x="533.300781"/>
      <use xlink:href="#DejaVuSans-75" x="565.087891"/>
      <use xlink:href="#DejaVuSans-6e" x="628.466797"/>
      <use xlink:href="#DejaVuSans-6b" x="691.845703"/>
      <use xlink:href="#DejaVuSans-6e" x="749.755859"/>
      <use xlink:href="#DejaVuSans-6f" x="813.134766"/>
      <use xlink:href="#DejaVuSans-77" x="874.316406"/>
      <use xlink:href="#DejaVuSans-6e" x="956.103516"/>
     </g>
    </g>
    <g id="patch_9">
     <path d="M 270.512969 59.167543 
L 290.512969 59.167543 
L 290.512969 52.167543 
L 270.512969 52.167543 
z
" style="fill: #d5dce5"/>
    </g>
    <g id="text_18">
     <!-- Fission yeast unknown -->
     <g transform="translate(298.512969 59.167543) scale(0.1 -0.1)">
      <defs>
       <path id="DejaVuSans-46" d="M 628 4666 
L 3309 4666 
L 3309 4134 
L 1259 4134 
L 1259 2759 
L 3109 2759 
L 3109 2228 
L 1259 2228 
L 1259 0 
L 628 0 
L 628 4666 
z
" transform="scale(0.015625)"/>
       <path id="DejaVuSans-79" d="M 2059 -325 
Q 1816 -950 1584 -1140 
Q 1353 -1331 966 -1331 
L 506 -1331 
L 506 -850 
L 844 -850 
Q 1081 -850 1212 -737 
Q 1344 -625 1503 -206 
L 1606 56 
L 191 3500 
L 800 3500 
L 1894 763 
L 2988 3500 
L 3597 3500 
L 2059 -325 
z
" transform="scale(0.015625)"/>
      </defs>
      <use xlink:href="#DejaVuSans-46"/>
      <use xlink:href="#DejaVuSans-69" x="50.269531"/>
      <use xlink:href="#DejaVuSans-73" x="78.052734"/>
      <use xlink:href="#DejaVuSans-73" x="130.152344"/>
      <use xlink:href="#DejaVuSans-69" x="182.251953"/>
      <use xlink:href="#DejaVuSans-6f" x="210.035156"/>
      <use xlink:href="#DejaVuSans-6e" x="271.216797"/>
      <use xlink:href="#DejaVuSans-20" x="334.595703"/>
      <use xlink:href="#DejaVuSans-79" x="366.382812"/>
      <use xlink:href="#DejaVuSans-65" x="425.5625"/>
      <use xlink:href="#DejaVuSans-61" x="487.085938"/>
      <use xlink:href="#DejaVuSans-73" x="548.365234"/>
      <use xlink:href="#DejaVuSans-74" x="600.464844"/>
      <use xlink:href="#DejaVuSans-20" x="639.673828"/>
      <use xlink:href="#DejaVuSans-75" x="671.460938"/>
      <use xlink:href="#DejaVuSans-6e" x="734.839844"/>
      <use xlink:href="#DejaVuSans-6b" x="798.21875"/>
      <use xlink:href="#DejaVuSans-6e" x="856.128906"/>
      <use xlink:href="#DejaVuSans-6f" x="919.507812"/>
      <use xlink:href="#DejaVuSans-77" x="980.689453"/>
      <use xlink:href="#DejaVuSans-6e" x="1062.476562"/>
     </g>
    </g>
   </g>
  </g>
 </g>
 <defs>
  <clipPath id="p377294eb50">
   <rect x="61.49" y="70.24723" width="388.51" height="205.10554"/>
  </clipPath>
 </defs>
</svg>
