<?xml version="1.0" encoding="utf-8" standalone="no"?>
<!DOCTYPE svg PUBLIC "-//W3C//DTD SVG 1.1//EN"
  "http://www.w3.org/Graphics/SVG/1.1/DTD/svg11.dtd">
<svg xmlns:xlink="http://www.w3.org/1999/xlink" width="460.8pt" height="345.6pt" viewBox="0 0 460.8 345.6" xmlns="http://www.w3.org/2000/svg" version="1.1">
 <metadata>
  <rdf:RDF xmlns:dc="http://purl.org/dc/elements/1.1/" xmlns:cc="http://creativecommons.org/ns#" xmlns:rdf="http://www.w3.org/1999/02/22-rdf-syntax-ns#">
   <cc:Work>
    <dc:type rdf:resource="http://purl.org/dc/dcmitype/StillImage"/>
    <dc:date>2024-04-02T00:46:52.066326</dc:date>
    <dc:format>image/svg+xml</dc:format>
    <dc:creator>
     <cc:Agent>
      <dc:title>Matplotlib v3.7.1, https://matplotlib.org/</dc:title>
     </cc:Agent>
    </dc:creator>
   </cc:Work>
  </rdf:RDF>
 </metadata>
 <defs>
  <style type="text/css">*{stroke-linejoin: round; stroke-linecap: butt}</style>
 </defs>
 <g id="figure_1">
  <g id="patch_1">
   <path d="M 0 345.6 
L 460.8 345.6 
L 460.8 0 
L 0 0 
z
" style="fill: #ffffff"/>
  </g>
  <g id="axes_1">
   <g id="patch_2">
    <path d="M 61.49 280.519571 
L 441.716784 280.519571 
L 441.716784 67.760429 
L 61.49 67.760429 
z
" style="fill: #ffffff"/>
   </g>
   <g id="PolyCollection_1">
    <path d="M 31.265693 226.525469 
L 31.265693 280.519571 
L 39.708516 280.519571 
L 48.051424 280.519571 
L 65.186857 280.519571 
L 85.069956 280.519571 
L 99.707513 280.519571 
L 108.799784 280.519571 
L 111.147788 280.519571 
L 115.494093 280.519571 
L 117.492394 280.519571 
L 117.742182 280.519571 
L 121.039379 280.519571 
L 121.888657 280.519571 
L 122.588063 280.519571 
L 123.437341 280.519571 
L 123.986874 280.519571 
L 124.836152 280.519571 
L 125.335727 280.519571 
L 126.234963 280.519571 
L 127.433944 280.519571 
L 128.383137 280.519571 
L 128.732839 280.519571 
L 129.73199 280.519571 
L 130.431396 280.519571 
L 131.180759 280.519571 
L 131.980079 280.519571 
L 132.529612 280.519571 
L 133.029187 280.519571 
L 134.427998 280.519571 
L 135.427149 280.519571 
L 136.176512 280.519571 
L 136.376342 280.519571 
L 137.075747 280.519571 
L 138.124856 280.519571 
L 139.223921 280.519571 
L 139.973284 280.519571 
L 141.07235 280.519571 
L 142.521119 280.519571 
L 144.51942 280.519571 
L 146.267933 280.519571 
L 147.766659 280.519571 
L 150.564281 280.519571 
L 151.763262 280.519571 
L 155.010502 280.519571 
L 157.108718 280.519571 
L 158.407614 280.519571 
L 159.206935 280.519571 
L 162.354259 280.519571 
L 164.102773 280.519571 
L 165.901244 280.519571 
L 169.448229 280.519571 
L 172.745426 280.519571 
L 173.294959 280.519571 
L 173.944407 280.519571 
L 174.943557 280.519571 
L 175.742878 280.519571 
L 178.190797 280.519571 
L 183.086635 280.519571 
L 184.035828 280.519571 
L 188.631921 280.519571 
L 189.68103 280.519571 
L 190.730138 280.519571 
L 192.428694 280.519571 
L 193.827505 280.519571 
L 195.176358 280.519571 
L 196.025636 280.519571 
L 198.773301 280.519571 
L 201.62088 280.519571 
L 203.019691 280.519571 
L 204.018842 280.519571 
L 205.26778 280.519571 
L 206.316888 280.519571 
L 207.565826 280.519571 
L 210.513321 280.519571 
L 212.062004 280.519571 
L 213.56073 280.519571 
L 215.109414 280.519571 
L 216.60814 280.519571 
L 218.156823 280.519571 
L 219.705507 280.519571 
L 221.154275 280.519571 
L 222.702959 280.519571 
L 224.201685 280.519571 
L 225.750368 280.519571 
L 227.249094 280.519571 
L 228.797778 280.519571 
L 230.346462 280.519571 
L 231.845188 280.519571 
L 233.393871 280.519571 
L 234.892597 280.519571 
L 236.441281 280.519571 
L 237.989964 280.519571 
L 239.388775 280.519571 
L 240.937459 280.519571 
L 242.436184 280.519571 
L 243.984868 280.519571 
L 245.483594 280.519571 
L 247.032278 280.519571 
L 248.580961 280.519571 
L 250.079687 280.519571 
L 251.628371 280.519571 
L 253.127097 280.519571 
L 254.67578 280.519571 
L 256.224464 280.519571 
L 257.623275 280.519571 
L 259.171958 280.519571 
L 260.670684 280.519571 
L 262.219368 280.519571 
L 263.718094 280.519571 
L 265.266777 280.519571 
L 266.815461 280.519571 
L 268.314187 280.519571 
L 269.86287 280.519571 
L 271.361596 280.519571 
L 272.91028 280.519571 
L 274.458963 280.519571 
L 275.857774 280.519571 
L 277.406458 280.519571 
L 278.905184 280.519571 
L 280.453867 280.519571 
L 281.952593 280.519571 
L 283.501277 280.519571 
L 285.04996 280.519571 
L 286.548686 280.519571 
L 288.09737 280.519571 
L 289.596096 280.519571 
L 291.144779 280.519571 
L 292.693463 280.519571 
L 294.142231 280.519571 
L 295.690915 280.519571 
L 297.189641 280.519571 
L 298.738324 280.519571 
L 300.23705 280.519571 
L 301.785734 280.519571 
L 303.334417 280.519571 
L 304.833143 280.519571 
L 306.381827 280.519571 
L 307.880553 280.519571 
L 309.429236 280.519571 
L 310.97792 280.519571 
L 312.376731 280.519571 
L 313.925414 280.519571 
L 315.42414 280.519571 
L 316.972824 280.519571 
L 318.47155 280.519571 
L 320.020233 280.519571 
L 321.568917 280.519571 
L 323.067643 280.519571 
L 324.616326 280.519571 
L 326.115052 280.519571 
L 327.663736 280.519571 
L 329.212419 280.519571 
L 330.61123 280.519571 
L 332.159914 280.519571 
L 333.65864 280.519571 
L 335.207323 280.519571 
L 336.706049 280.519571 
L 338.254733 280.519571 
L 339.803416 280.519571 
L 341.302142 280.519571 
L 342.850826 280.519571 
L 344.349552 280.519571 
L 345.898235 280.519571 
L 347.446919 280.519571 
L 348.84573 280.519571 
L 350.394413 280.519571 
L 351.893139 280.519571 
L 353.441823 280.519571 
L 354.940549 280.519571 
L 356.489232 280.519571 
L 358.037916 280.519571 
L 359.536642 280.519571 
L 361.085325 280.519571 
L 362.584051 280.519571 
L 364.132735 280.519571 
L 365.681418 280.519571 
L 367.130187 280.519571 
L 368.67887 280.519571 
L 370.177596 280.519571 
L 371.72628 280.519571 
L 373.225006 280.519571 
L 374.773689 280.519571 
L 376.322373 280.519571 
L 377.821099 280.519571 
L 379.369782 280.519571 
L 380.868508 280.519571 
L 382.417192 280.519571 
L 383.965875 280.519571 
L 385.364686 280.519571 
L 386.91337 280.519571 
L 388.412096 280.519571 
L 389.960779 280.519571 
L 391.459505 280.519571 
L 393.008189 280.519571 
L 394.556872 280.519571 
L 396.055598 280.519571 
L 397.604282 280.519571 
L 399.103008 280.519571 
L 400.651691 280.519571 
L 402.200375 280.519571 
L 403.599186 280.519571 
L 405.147869 280.519571 
L 406.646595 280.519571 
L 408.195279 280.519571 
L 409.694005 280.519571 
L 411.242688 280.519571 
L 412.791372 280.519571 
L 414.290098 280.519571 
L 415.838782 280.519571 
L 417.337508 280.519571 
L 418.886191 280.519571 
L 420.434875 280.519571 
L 421.833685 280.519571 
L 423.382369 280.519571 
L 424.881095 280.519571 
L 426.429779 280.519571 
L 427.928504 280.519571 
L 429.477188 280.519571 
L 431.025872 280.519571 
L 432.524598 280.519571 
L 434.073281 280.519571 
L 435.572007 280.519571 
L 437.120691 280.519571 
L 438.669374 280.519571 
L 440.118143 280.519571 
L 441.666826 280.519571 
L 441.666826 177.287325 
L 441.666826 177.287325 
L 440.118143 177.367257 
L 438.669374 179.085796 
L 437.120691 179.205694 
L 435.572007 179.24566 
L 434.073281 179.485456 
L 432.524598 179.605354 
L 431.025872 179.64532 
L 429.477188 179.765218 
L 427.928504 180.244811 
L 426.429779 180.484607 
L 424.881095 180.604505 
L 423.382369 180.604505 
L 421.833685 180.964199 
L 420.434875 181.563689 
L 418.886191 181.523723 
L 417.337508 181.643621 
L 415.838782 181.76352 
L 414.290098 182.003316 
L 412.791372 182.003316 
L 411.242688 182.043282 
L 409.694005 182.043282 
L 408.195279 182.003316 
L 406.646595 182.083248 
L 405.147869 182.003316 
L 403.599186 181.96335 
L 402.200375 182.003316 
L 400.651691 182.003316 
L 399.103008 182.203146 
L 397.604282 182.402976 
L 396.055598 182.722704 
L 394.556872 182.9625 
L 393.008189 182.922534 
L 391.459505 183.122364 
L 389.960779 183.402127 
L 388.412096 183.402127 
L 386.91337 183.561991 
L 385.364686 184.081549 
L 383.965875 184.201447 
L 382.417192 184.641073 
L 380.868508 184.681039 
L 379.369782 184.840904 
L 377.821099 184.920836 
L 376.322373 185.0807 
L 374.773689 185.120666 
L 373.225006 185.200598 
L 371.72628 185.200598 
L 370.177596 185.28053 
L 368.67887 185.640224 
L 367.130187 185.760122 
L 365.681418 185.840054 
L 364.132735 185.919986 
L 362.584051 185.919986 
L 361.085325 185.919986 
L 359.536642 186.039884 
L 358.037916 186.119816 
L 356.489232 186.279681 
L 354.940549 186.519477 
L 353.441823 186.639375 
L 351.893139 186.719307 
L 350.394413 186.799239 
L 348.84573 186.839205 
L 347.446919 186.839205 
L 345.898235 186.879171 
L 344.349552 186.919137 
L 342.850826 186.999069 
L 341.302142 187.039035 
L 339.803416 187.039035 
L 338.254733 187.158933 
L 336.706049 187.278831 
L 335.207323 187.518627 
L 333.65864 187.678491 
L 332.159914 187.99822 
L 330.61123 188.158084 
L 329.212419 188.317948 
L 327.663736 188.357914 
L 326.115052 188.517778 
L 324.616326 188.677642 
L 323.067643 190.436147 
L 321.568917 190.715909 
L 320.020233 191.475264 
L 318.47155 190.835808 
L 316.972824 190.755875 
L 315.42414 190.795841 
L 313.925414 190.875774 
L 312.376731 191.155536 
L 310.97792 191.195502 
L 309.429236 191.275434 
L 307.880553 192.034788 
L 306.381827 192.154686 
L 304.833143 192.354517 
L 303.334417 192.434449 
L 301.785734 192.554347 
L 300.23705 192.993973 
L 298.738324 193.193803 
L 297.189641 193.193803 
L 295.690915 193.593463 
L 294.142231 193.673395 
L 292.693463 193.713361 
L 291.144779 193.913192 
L 289.596096 193.993124 
L 288.09737 193.993124 
L 286.548686 194.192954 
L 285.04996 194.23292 
L 283.501277 194.272886 
L 281.952593 194.43275 
L 280.453867 194.552648 
L 278.905184 193.953158 
L 277.406458 194.03309 
L 275.857774 194.23292 
L 274.458963 194.23292 
L 272.91028 194.472716 
L 271.361596 194.63258 
L 269.86287 194.912342 
L 268.314187 195.272036 
L 266.815461 195.591765 
L 265.266777 195.671697 
L 263.718094 195.951459 
L 262.219368 196.191255 
L 260.670684 196.550949 
L 259.171958 196.710813 
L 257.623275 196.910644 
L 256.224464 196.95061 
L 254.67578 196.95061 
L 253.127097 197.15044 
L 251.628371 197.630032 
L 250.079687 197.669998 
L 248.580961 197.909794 
L 247.032278 198.589217 
L 245.483594 198.669149 
L 243.984868 199.148741 
L 242.436184 199.468469 
L 240.937459 200.547552 
L 239.388775 200.627484 
L 237.989964 200.747382 
L 236.441281 201.027144 
L 234.892597 201.107076 
L 233.393871 201.346872 
L 231.845188 201.546703 
L 230.346462 201.906397 
L 228.797778 202.106227 
L 227.249094 202.226125 
L 225.750368 202.465921 
L 224.201685 202.505887 
L 222.702959 202.625785 
L 221.154275 202.785649 
L 219.705507 202.785649 
L 218.156823 202.865581 
L 216.60814 202.905547 
L 215.109414 202.945514 
L 213.56073 202.98548 
L 212.062004 203.025446 
L 210.513321 203.145344 
L 207.565826 203.904698 
L 206.316888 204.104528 
L 205.26778 204.144494 
L 204.018842 204.024596 
L 203.019691 204.024596 
L 201.62088 204.144494 
L 198.773301 204.264392 
L 196.025636 204.903849 
L 195.176358 205.863033 
L 193.827505 205.703169 
L 192.428694 205.663203 
L 190.730138 206.382592 
L 189.68103 206.382592 
L 188.631921 206.142796 
L 184.035828 206.662354 
L 183.086635 206.742286 
L 178.190797 207.421708 
L 175.742878 207.501641 
L 174.943557 207.341776 
L 173.944407 207.461675 
L 173.294959 207.661505 
L 172.745426 207.701471 
L 169.448229 207.821369 
L 165.901244 207.901301 
L 164.102773 208.101131 
L 162.354259 210.21933 
L 159.206935 210.139398 
L 158.407614 210.179364 
L 157.108718 210.618991 
L 155.010502 211.738039 
L 151.763262 211.977835 
L 150.564281 212.377496 
L 147.766659 212.657258 
L 146.267933 213.496544 
L 144.51942 214.056069 
L 142.521119 214.495695 
L 141.07235 214.535661 
L 139.973284 214.615593 
L 139.223921 214.655559 
L 138.124856 214.695525 
L 137.075747 215.414914 
L 136.376342 215.774608 
L 136.176512 215.774608 
L 135.427149 215.774608 
L 134.427998 216.014404 
L 133.029187 215.774608 
L 132.529612 215.974438 
L 131.980079 216.05437 
L 131.180759 216.174268 
L 130.431396 216.174268 
L 129.73199 216.493996 
L 128.732839 217.213385 
L 128.383137 217.173419 
L 127.433944 217.533113 
L 126.234963 217.613045 
L 125.335727 217.692977 
L 124.836152 217.772909 
L 123.986874 217.892807 
L 123.437341 218.132604 
L 122.588063 218.332434 
L 121.888657 218.252502 
L 121.039379 218.332434 
L 117.742182 218.612196 
L 117.492394 218.57223 
L 115.494093 218.891958 
L 111.147788 216.973589 
L 108.799784 219.811177 
L 99.707513 223.528017 
L 85.069956 227.005061 
L 65.186857 231.481256 
L 48.051424 226.325639 
L 39.708516 225.686183 
L 31.265693 226.525469 
z
" clip-path="url(#pe8a5f96b31)" style="fill: #fb363b"/>
   </g>
   <g id="PolyCollection_2">
    <path d="M 31.265693 144.355319 
L 31.265693 226.525469 
L 39.708516 225.686183 
L 48.051424 226.325639 
L 65.186857 231.481256 
L 85.069956 227.005061 
L 99.707513 223.528017 
L 108.799784 219.811177 
L 111.147788 216.973589 
L 115.494093 218.891958 
L 117.492394 218.57223 
L 117.742182 218.612196 
L 121.039379 218.332434 
L 121.888657 218.252502 
L 122.588063 218.332434 
L 123.437341 218.132604 
L 123.986874 217.892807 
L 124.836152 217.772909 
L 125.335727 217.692977 
L 126.234963 217.613045 
L 127.433944 217.533113 
L 128.383137 217.173419 
L 128.732839 217.213385 
L 129.73199 216.493996 
L 130.431396 216.174268 
L 131.180759 216.174268 
L 131.980079 216.05437 
L 132.529612 215.974438 
L 133.029187 215.774608 
L 134.427998 216.014404 
L 135.427149 215.774608 
L 136.176512 215.774608 
L 136.376342 215.774608 
L 137.075747 215.414914 
L 138.124856 214.695525 
L 139.223921 214.655559 
L 139.973284 214.615593 
L 141.07235 214.535661 
L 142.521119 214.495695 
L 144.51942 214.056069 
L 146.267933 213.496544 
L 147.766659 212.657258 
L 150.564281 212.377496 
L 151.763262 211.977835 
L 155.010502 211.738039 
L 157.108718 210.618991 
L 158.407614 210.179364 
L 159.206935 210.139398 
L 162.354259 210.21933 
L 164.102773 208.101131 
L 165.901244 207.901301 
L 169.448229 207.821369 
L 172.745426 207.701471 
L 173.294959 207.661505 
L 173.944407 207.461675 
L 174.943557 207.341776 
L 175.742878 207.501641 
L 178.190797 207.421708 
L 183.086635 206.742286 
L 184.035828 206.662354 
L 188.631921 206.142796 
L 189.68103 206.382592 
L 190.730138 206.382592 
L 192.428694 205.663203 
L 193.827505 205.703169 
L 195.176358 205.863033 
L 196.025636 204.903849 
L 198.773301 204.264392 
L 201.62088 204.144494 
L 203.019691 204.024596 
L 204.018842 204.024596 
L 205.26778 204.144494 
L 206.316888 204.104528 
L 207.565826 203.904698 
L 210.513321 203.145344 
L 212.062004 203.025446 
L 213.56073 202.98548 
L 215.109414 202.945514 
L 216.60814 202.905547 
L 218.156823 202.865581 
L 219.705507 202.785649 
L 221.154275 202.785649 
L 222.702959 202.625785 
L 224.201685 202.505887 
L 225.750368 202.465921 
L 227.249094 202.226125 
L 228.797778 202.106227 
L 230.346462 201.906397 
L 231.845188 201.546703 
L 233.393871 201.346872 
L 234.892597 201.107076 
L 236.441281 201.027144 
L 237.989964 200.747382 
L 239.388775 200.627484 
L 240.937459 200.547552 
L 242.436184 199.468469 
L 243.984868 199.148741 
L 245.483594 198.669149 
L 247.032278 198.589217 
L 248.580961 197.909794 
L 250.079687 197.669998 
L 251.628371 197.630032 
L 253.127097 197.15044 
L 254.67578 196.95061 
L 256.224464 196.95061 
L 257.623275 196.910644 
L 259.171958 196.710813 
L 260.670684 196.550949 
L 262.219368 196.191255 
L 263.718094 195.951459 
L 265.266777 195.671697 
L 266.815461 195.591765 
L 268.314187 195.272036 
L 269.86287 194.912342 
L 271.361596 194.63258 
L 272.91028 194.472716 
L 274.458963 194.23292 
L 275.857774 194.23292 
L 277.406458 194.03309 
L 278.905184 193.953158 
L 280.453867 194.552648 
L 281.952593 194.43275 
L 283.501277 194.272886 
L 285.04996 194.23292 
L 286.548686 194.192954 
L 288.09737 193.993124 
L 289.596096 193.993124 
L 291.144779 193.913192 
L 292.693463 193.713361 
L 294.142231 193.673395 
L 295.690915 193.593463 
L 297.189641 193.193803 
L 298.738324 193.193803 
L 300.23705 192.993973 
L 301.785734 192.554347 
L 303.334417 192.434449 
L 304.833143 192.354517 
L 306.381827 192.154686 
L 307.880553 192.034788 
L 309.429236 191.275434 
L 310.97792 191.195502 
L 312.376731 191.155536 
L 313.925414 190.875774 
L 315.42414 190.795841 
L 316.972824 190.755875 
L 318.47155 190.835808 
L 320.020233 191.475264 
L 321.568917 190.715909 
L 323.067643 190.436147 
L 324.616326 188.677642 
L 326.115052 188.517778 
L 327.663736 188.357914 
L 329.212419 188.317948 
L 330.61123 188.158084 
L 332.159914 187.99822 
L 333.65864 187.678491 
L 335.207323 187.518627 
L 336.706049 187.278831 
L 338.254733 187.158933 
L 339.803416 187.039035 
L 341.302142 187.039035 
L 342.850826 186.999069 
L 344.349552 186.919137 
L 345.898235 186.879171 
L 347.446919 186.839205 
L 348.84573 186.839205 
L 350.394413 186.799239 
L 351.893139 186.719307 
L 353.441823 186.639375 
L 354.940549 186.519477 
L 356.489232 186.279681 
L 358.037916 186.119816 
L 359.536642 186.039884 
L 361.085325 185.919986 
L 362.584051 185.919986 
L 364.132735 185.919986 
L 365.681418 185.840054 
L 367.130187 185.760122 
L 368.67887 185.640224 
L 370.177596 185.28053 
L 371.72628 185.200598 
L 373.225006 185.200598 
L 374.773689 185.120666 
L 376.322373 185.0807 
L 377.821099 184.920836 
L 379.369782 184.840904 
L 380.868508 184.681039 
L 382.417192 184.641073 
L 383.965875 184.201447 
L 385.364686 184.081549 
L 386.91337 183.561991 
L 388.412096 183.402127 
L 389.960779 183.402127 
L 391.459505 183.122364 
L 393.008189 182.922534 
L 394.556872 182.9625 
L 396.055598 182.722704 
L 397.604282 182.402976 
L 399.103008 182.203146 
L 400.651691 182.003316 
L 402.200375 182.003316 
L 403.599186 181.96335 
L 405.147869 182.003316 
L 406.646595 182.083248 
L 408.195279 182.003316 
L 409.694005 182.043282 
L 411.242688 182.043282 
L 412.791372 182.003316 
L 414.290098 182.003316 
L 415.838782 181.76352 
L 417.337508 181.643621 
L 418.886191 181.523723 
L 420.434875 181.563689 
L 421.833685 180.964199 
L 423.382369 180.604505 
L 424.881095 180.604505 
L 426.429779 180.484607 
L 427.928504 180.244811 
L 429.477188 179.765218 
L 431.025872 179.64532 
L 432.524598 179.605354 
L 434.073281 179.485456 
L 435.572007 179.24566 
L 437.120691 179.205694 
L 438.669374 179.085796 
L 440.118143 177.367257 
L 441.666826 177.287325 
L 441.666826 102.510889 
L 441.666826 102.510889 
L 440.118143 102.470923 
L 438.669374 102.750685 
L 437.120691 103.030448 
L 435.572007 103.030448 
L 434.073281 103.150346 
L 432.524598 103.31021 
L 431.025872 103.390142 
L 429.477188 103.390142 
L 427.928504 103.669904 
L 426.429779 103.9097 
L 424.881095 104.029598 
L 423.382369 104.029598 
L 421.833685 104.069564 
L 420.434875 104.229428 
L 418.886191 104.349326 
L 417.337508 104.429258 
L 415.838782 104.429258 
L 414.290098 104.469224 
L 412.791372 104.349326 
L 411.242688 104.389292 
L 409.694005 104.389292 
L 408.195279 104.589123 
L 406.646595 104.549157 
L 405.147869 104.549157 
L 403.599186 104.589123 
L 402.200375 104.669055 
L 400.651691 104.669055 
L 399.103008 104.788953 
L 397.604282 104.748987 
L 396.055598 104.868885 
L 394.556872 104.908851 
L 393.008189 104.948817 
L 391.459505 104.988783 
L 389.960779 105.028749 
L 388.412096 104.988783 
L 386.91337 105.108681 
L 385.364686 105.308511 
L 383.965875 105.468375 
L 382.417192 105.508341 
L 380.868508 105.508341 
L 379.369782 105.588273 
L 377.821099 105.628239 
L 376.322373 105.708171 
L 374.773689 105.708171 
L 373.225006 105.748137 
L 371.72628 105.788103 
L 370.177596 105.668205 
L 368.67887 105.628239 
L 367.130187 105.668205 
L 365.681418 105.588273 
L 364.132735 105.588273 
L 362.584051 105.588273 
L 361.085325 105.588273 
L 359.536642 105.588273 
L 358.037916 105.628239 
L 356.489232 105.588273 
L 354.940549 105.628239 
L 353.441823 105.628239 
L 351.893139 105.508341 
L 350.394413 105.508341 
L 348.84573 105.548307 
L 347.446919 105.548307 
L 345.898235 105.628239 
L 344.349552 105.628239 
L 342.850826 105.708171 
L 341.302142 105.708171 
L 339.803416 105.708171 
L 338.254733 105.748137 
L 336.706049 105.748137 
L 335.207323 105.748137 
L 333.65864 105.788103 
L 332.159914 105.828069 
L 330.61123 106.147798 
L 329.212419 106.267696 
L 327.663736 106.187764 
L 326.115052 106.267696 
L 324.616326 106.387594 
L 323.067643 106.42756 
L 321.568917 106.987084 
L 320.020233 107.306812 
L 318.47155 109.504944 
L 316.972824 110.743891 
L 315.42414 111.183517 
L 313.925414 111.183517 
L 312.376731 111.503245 
L 310.97792 111.423313 
L 309.429236 110.623993 
L 307.880553 110.823823 
L 306.381827 111.263449 
L 304.833143 111.263449 
L 303.334417 111.143551 
L 301.785734 111.303415 
L 300.23705 111.343381 
L 298.738324 111.343381 
L 297.189641 111.383347 
L 295.690915 111.463279 
L 294.142231 111.463279 
L 292.693463 111.503245 
L 291.144779 111.503245 
L 289.596096 111.623143 
L 288.09737 111.663109 
L 286.548686 111.703075 
L 285.04996 111.703075 
L 283.501277 111.663109 
L 281.952593 111.703075 
L 280.453867 111.663109 
L 278.905184 112.302566 
L 277.406458 112.2626 
L 275.857774 112.342532 
L 274.458963 112.422464 
L 272.91028 112.542362 
L 271.361596 112.502396 
L 269.86287 112.782158 
L 268.314187 112.902056 
L 266.815461 113.06192 
L 265.266777 113.26175 
L 263.718094 113.301716 
L 262.219368 113.221784 
L 260.670684 113.301716 
L 259.171958 113.341682 
L 257.623275 113.341682 
L 256.224464 113.341682 
L 254.67578 113.341682 
L 253.127097 113.501546 
L 251.628371 113.581479 
L 250.079687 113.821275 
L 248.580961 113.861241 
L 247.032278 114.101037 
L 245.483594 114.180969 
L 243.984868 114.420765 
L 242.436184 114.540663 
L 240.937459 114.700527 
L 239.388775 114.740493 
L 237.989964 114.780459 
L 236.441281 114.940323 
L 234.892597 114.940323 
L 233.393871 115.140154 
L 231.845188 115.419916 
L 230.346462 115.57978 
L 228.797778 115.739644 
L 227.249094 115.939474 
L 225.750368 116.019406 
L 224.201685 116.339134 
L 222.702959 116.339134 
L 221.154275 116.3791 
L 219.705507 116.3791 
L 218.156823 116.3791 
L 216.60814 116.3791 
L 215.109414 116.3791 
L 213.56073 116.419066 
L 212.062004 116.57893 
L 210.513321 116.658863 
L 207.565826 117.138455 
L 206.316888 117.737945 
L 205.26778 118.017707 
L 204.018842 117.458183 
L 203.019691 117.777911 
L 201.62088 117.897809 
L 198.773301 118.057673 
L 196.025636 118.057673 
L 195.176358 118.217538 
L 193.827505 118.737096 
L 192.428694 118.69713 
L 190.730138 119.616348 
L 189.68103 119.616348 
L 188.631921 120.055975 
L 184.035828 120.335737 
L 183.086635 120.415669 
L 178.190797 121.534718 
L 175.742878 122.533868 
L 174.943557 122.573834 
L 173.944407 122.573834 
L 173.294959 122.573834 
L 172.745426 122.6138 
L 169.448229 122.174174 
L 165.901244 122.693733 
L 164.102773 122.893563 
L 162.354259 123.093393 
L 159.206935 123.213291 
L 158.407614 123.293223 
L 157.108718 123.493053 
L 155.010502 123.812781 
L 151.763262 123.652917 
L 150.564281 123.972645 
L 147.766659 123.932679 
L 146.267933 123.852747 
L 144.51942 124.212442 
L 142.521119 124.132509 
L 141.07235 124.012611 
L 139.973284 124.292374 
L 139.223921 124.33234 
L 138.124856 123.572985 
L 137.075747 123.612951 
L 136.376342 123.772815 
L 136.176512 123.772815 
L 135.427149 123.732849 
L 134.427998 124.252408 
L 133.029187 123.692883 
L 132.529612 123.692883 
L 131.980079 123.732849 
L 131.180759 123.772815 
L 130.431396 123.572985 
L 129.73199 124.012611 
L 128.732839 124.132509 
L 128.383137 123.892713 
L 127.433944 124.052577 
L 126.234963 124.012611 
L 125.335727 124.53217 
L 124.836152 124.452238 
L 123.986874 124.452238 
L 123.437341 122.653766 
L 122.588063 123.053427 
L 121.888657 122.054276 
L 121.039379 121.81448 
L 117.742182 122.094242 
L 117.492394 121.934378 
L 115.494093 122.21414 
L 111.147788 124.012611 
L 108.799784 124.891864 
L 99.707513 127.010063 
L 85.069956 130.047481 
L 65.186857 133.924186 
L 48.051424 140.11892 
L 39.708516 144.035591 
L 31.265693 144.355319 
z
" clip-path="url(#pe8a5f96b31)" style="fill: #fdc92c"/>
   </g>
   <g id="PolyCollection_3">
    <path d="M 31.265693 112.86209 
L 31.265693 144.355319 
L 39.708516 144.035591 
L 48.051424 140.11892 
L 65.186857 133.924186 
L 85.069956 130.047481 
L 99.707513 127.010063 
L 108.799784 124.891864 
L 111.147788 124.012611 
L 115.494093 122.21414 
L 117.492394 121.934378 
L 117.742182 122.094242 
L 121.039379 121.81448 
L 121.888657 122.054276 
L 122.588063 123.053427 
L 123.437341 122.653766 
L 123.986874 124.452238 
L 124.836152 124.452238 
L 125.335727 124.53217 
L 126.234963 124.012611 
L 127.433944 124.052577 
L 128.383137 123.892713 
L 128.732839 124.132509 
L 129.73199 124.012611 
L 130.431396 123.572985 
L 131.180759 123.772815 
L 131.980079 123.732849 
L 132.529612 123.692883 
L 133.029187 123.692883 
L 134.427998 124.252408 
L 135.427149 123.732849 
L 136.176512 123.772815 
L 136.376342 123.772815 
L 137.075747 123.612951 
L 138.124856 123.572985 
L 139.223921 124.33234 
L 139.973284 124.292374 
L 141.07235 124.012611 
L 142.521119 124.132509 
L 144.51942 124.212442 
L 146.267933 123.852747 
L 147.766659 123.932679 
L 150.564281 123.972645 
L 151.763262 123.652917 
L 155.010502 123.812781 
L 157.108718 123.493053 
L 158.407614 123.293223 
L 159.206935 123.213291 
L 162.354259 123.093393 
L 164.102773 122.893563 
L 165.901244 122.693733 
L 169.448229 122.174174 
L 172.745426 122.6138 
L 173.294959 122.573834 
L 173.944407 122.573834 
L 174.943557 122.573834 
L 175.742878 122.533868 
L 178.190797 121.534718 
L 183.086635 120.415669 
L 184.035828 120.335737 
L 188.631921 120.055975 
L 189.68103 119.616348 
L 190.730138 119.616348 
L 192.428694 118.69713 
L 193.827505 118.737096 
L 195.176358 118.217538 
L 196.025636 118.057673 
L 198.773301 118.057673 
L 201.62088 117.897809 
L 203.019691 117.777911 
L 204.018842 117.458183 
L 205.26778 118.017707 
L 206.316888 117.737945 
L 207.565826 117.138455 
L 210.513321 116.658863 
L 212.062004 116.57893 
L 213.56073 116.419066 
L 215.109414 116.3791 
L 216.60814 116.3791 
L 218.156823 116.3791 
L 219.705507 116.3791 
L 221.154275 116.3791 
L 222.702959 116.339134 
L 224.201685 116.339134 
L 225.750368 116.019406 
L 227.249094 115.939474 
L 228.797778 115.739644 
L 230.346462 115.57978 
L 231.845188 115.419916 
L 233.393871 115.140154 
L 234.892597 114.940323 
L 236.441281 114.940323 
L 237.989964 114.780459 
L 239.388775 114.740493 
L 240.937459 114.700527 
L 242.436184 114.540663 
L 243.984868 114.420765 
L 245.483594 114.180969 
L 247.032278 114.101037 
L 248.580961 113.861241 
L 250.079687 113.821275 
L 251.628371 113.581479 
L 253.127097 113.501546 
L 254.67578 113.341682 
L 256.224464 113.341682 
L 257.623275 113.341682 
L 259.171958 113.341682 
L 260.670684 113.301716 
L 262.219368 113.221784 
L 263.718094 113.301716 
L 265.266777 113.26175 
L 266.815461 113.06192 
L 268.314187 112.902056 
L 269.86287 112.782158 
L 271.361596 112.502396 
L 272.91028 112.542362 
L 274.458963 112.422464 
L 275.857774 112.342532 
L 277.406458 112.2626 
L 278.905184 112.302566 
L 280.453867 111.663109 
L 281.952593 111.703075 
L 283.501277 111.663109 
L 285.04996 111.703075 
L 286.548686 111.703075 
L 288.09737 111.663109 
L 289.596096 111.623143 
L 291.144779 111.503245 
L 292.693463 111.503245 
L 294.142231 111.463279 
L 295.690915 111.463279 
L 297.189641 111.383347 
L 298.738324 111.343381 
L 300.23705 111.343381 
L 301.785734 111.303415 
L 303.334417 111.143551 
L 304.833143 111.263449 
L 306.381827 111.263449 
L 307.880553 110.823823 
L 309.429236 110.623993 
L 310.97792 111.423313 
L 312.376731 111.503245 
L 313.925414 111.183517 
L 315.42414 111.183517 
L 316.972824 110.743891 
L 318.47155 109.504944 
L 320.020233 107.306812 
L 321.568917 106.987084 
L 323.067643 106.42756 
L 324.616326 106.387594 
L 326.115052 106.267696 
L 327.663736 106.187764 
L 329.212419 106.267696 
L 330.61123 106.147798 
L 332.159914 105.828069 
L 333.65864 105.788103 
L 335.207323 105.748137 
L 336.706049 105.748137 
L 338.254733 105.748137 
L 339.803416 105.708171 
L 341.302142 105.708171 
L 342.850826 105.708171 
L 344.349552 105.628239 
L 345.898235 105.628239 
L 347.446919 105.548307 
L 348.84573 105.548307 
L 350.394413 105.508341 
L 351.893139 105.508341 
L 353.441823 105.628239 
L 354.940549 105.628239 
L 356.489232 105.588273 
L 358.037916 105.628239 
L 359.536642 105.588273 
L 361.085325 105.588273 
L 362.584051 105.588273 
L 364.132735 105.588273 
L 365.681418 105.588273 
L 367.130187 105.668205 
L 368.67887 105.628239 
L 370.177596 105.668205 
L 371.72628 105.788103 
L 373.225006 105.748137 
L 374.773689 105.708171 
L 376.322373 105.708171 
L 377.821099 105.628239 
L 379.369782 105.588273 
L 380.868508 105.508341 
L 382.417192 105.508341 
L 383.965875 105.468375 
L 385.364686 105.308511 
L 386.91337 105.108681 
L 388.412096 104.988783 
L 389.960779 105.028749 
L 391.459505 104.988783 
L 393.008189 104.948817 
L 394.556872 104.908851 
L 396.055598 104.868885 
L 397.604282 104.748987 
L 399.103008 104.788953 
L 400.651691 104.669055 
L 402.200375 104.669055 
L 403.599186 104.589123 
L 405.147869 104.549157 
L 406.646595 104.549157 
L 408.195279 104.589123 
L 409.694005 104.389292 
L 411.242688 104.389292 
L 412.791372 104.349326 
L 414.290098 104.469224 
L 415.838782 104.429258 
L 417.337508 104.429258 
L 418.886191 104.349326 
L 420.434875 104.229428 
L 421.833685 104.069564 
L 423.382369 104.029598 
L 424.881095 104.029598 
L 426.429779 103.9097 
L 427.928504 103.669904 
L 429.477188 103.390142 
L 431.025872 103.390142 
L 432.524598 103.31021 
L 434.073281 103.150346 
L 435.572007 103.030448 
L 437.120691 103.030448 
L 438.669374 102.750685 
L 440.118143 102.470923 
L 441.666826 102.510889 
L 441.666826 88.762576 
L 441.666826 88.762576 
L 440.118143 88.762576 
L 438.669374 88.802542 
L 437.120691 88.802542 
L 435.572007 88.802542 
L 434.073281 88.842508 
L 432.524598 88.842508 
L 431.025872 88.842508 
L 429.477188 88.842508 
L 427.928504 88.92244 
L 426.429779 88.92244 
L 424.881095 88.92244 
L 423.382369 88.92244 
L 421.833685 88.92244 
L 420.434875 88.962406 
L 418.886191 88.962406 
L 417.337508 89.042338 
L 415.838782 89.042338 
L 414.290098 89.082304 
L 412.791372 89.082304 
L 411.242688 89.082304 
L 409.694005 89.082304 
L 408.195279 89.162236 
L 406.646595 89.242168 
L 405.147869 89.242168 
L 403.599186 89.242168 
L 402.200375 89.242168 
L 400.651691 89.242168 
L 399.103008 89.282134 
L 397.604282 89.242168 
L 396.055598 89.3221 
L 394.556872 89.3221 
L 393.008189 89.3221 
L 391.459505 89.362067 
L 389.960779 89.362067 
L 388.412096 89.362067 
L 386.91337 89.402033 
L 385.364686 89.441999 
L 383.965875 89.481965 
L 382.417192 89.481965 
L 380.868508 89.441999 
L 379.369782 89.441999 
L 377.821099 89.441999 
L 376.322373 89.402033 
L 374.773689 89.402033 
L 373.225006 89.441999 
L 371.72628 89.441999 
L 370.177596 89.362067 
L 368.67887 89.3221 
L 367.130187 89.3221 
L 365.681418 89.362067 
L 364.132735 89.362067 
L 362.584051 89.362067 
L 361.085325 89.362067 
L 359.536642 89.362067 
L 358.037916 89.362067 
L 356.489232 89.362067 
L 354.940549 89.362067 
L 353.441823 89.362067 
L 351.893139 89.282134 
L 350.394413 89.282134 
L 348.84573 89.282134 
L 347.446919 89.282134 
L 345.898235 89.242168 
L 344.349552 89.242168 
L 342.850826 89.3221 
L 341.302142 89.3221 
L 339.803416 89.3221 
L 338.254733 89.362067 
L 336.706049 89.362067 
L 335.207323 89.362067 
L 333.65864 89.402033 
L 332.159914 89.441999 
L 330.61123 89.521931 
L 329.212419 89.521931 
L 327.663736 89.521931 
L 326.115052 89.681795 
L 324.616326 89.681795 
L 323.067643 89.681795 
L 321.568917 89.561897 
L 320.020233 89.601863 
L 318.47155 89.801693 
L 316.972824 90.760877 
L 315.42414 90.920742 
L 313.925414 90.960708 
L 312.376731 91.000674 
L 310.97792 91.000674 
L 309.429236 91.000674 
L 307.880553 91.000674 
L 306.381827 91.04064 
L 304.833143 91.04064 
L 303.334417 91.080606 
L 301.785734 91.120572 
L 300.23705 91.160538 
L 298.738324 91.160538 
L 297.189641 91.160538 
L 295.690915 91.160538 
L 294.142231 91.160538 
L 292.693463 91.200504 
L 291.144779 91.200504 
L 289.596096 91.24047 
L 288.09737 91.280436 
L 286.548686 91.280436 
L 285.04996 91.280436 
L 283.501277 91.280436 
L 281.952593 91.280436 
L 280.453867 91.280436 
L 278.905184 91.280436 
L 277.406458 91.280436 
L 275.857774 91.360368 
L 274.458963 91.360368 
L 272.91028 91.360368 
L 271.361596 91.400334 
L 269.86287 91.400334 
L 268.314187 91.4403 
L 266.815461 91.600164 
L 265.266777 92.559349 
L 263.718094 92.559349 
L 262.219368 92.559349 
L 260.670684 92.639281 
L 259.171958 92.639281 
L 257.623275 92.639281 
L 256.224464 92.639281 
L 254.67578 92.639281 
L 253.127097 92.639281 
L 251.628371 92.719213 
L 250.079687 92.639281 
L 248.580961 92.679247 
L 247.032278 92.759179 
L 245.483594 92.839111 
L 243.984868 93.038941 
L 242.436184 93.078907 
L 240.937459 93.078907 
L 239.388775 93.078907 
L 237.989964 93.078907 
L 236.441281 93.158839 
L 234.892597 93.158839 
L 233.393871 93.238771 
L 231.845188 93.238771 
L 230.346462 93.118873 
L 228.797778 93.198805 
L 227.249094 93.198805 
L 225.750368 93.198805 
L 224.201685 93.238771 
L 222.702959 93.238771 
L 221.154275 93.238771 
L 219.705507 93.278737 
L 218.156823 93.278737 
L 216.60814 93.318703 
L 215.109414 93.278737 
L 213.56073 93.278737 
L 212.062004 93.358669 
L 210.513321 93.398635 
L 207.565826 93.678397 
L 206.316888 94.277888 
L 205.26778 94.55765 
L 204.018842 93.918194 
L 203.019691 94.437752 
L 201.62088 94.477718 
L 198.773301 95.396936 
L 196.025636 95.396936 
L 195.176358 95.35697 
L 193.827505 95.516835 
L 192.428694 95.516835 
L 190.730138 95.596767 
L 189.68103 95.596767 
L 188.631921 95.636733 
L 184.035828 95.796597 
L 183.086635 95.796597 
L 178.190797 96.835713 
L 175.742878 96.955612 
L 174.943557 96.995578 
L 173.944407 97.115476 
L 173.294959 97.115476 
L 172.745426 97.115476 
L 169.448229 97.115476 
L 165.901244 97.355272 
L 164.102773 97.47517 
L 162.354259 97.515136 
L 159.206935 97.595068 
L 158.407614 97.714966 
L 157.108718 97.914796 
L 155.010502 98.154592 
L 151.763262 98.314456 
L 150.564281 98.953913 
L 147.766659 98.993879 
L 146.267933 99.273641 
L 144.51942 99.593369 
L 142.521119 99.673301 
L 141.07235 99.673301 
L 139.973284 99.673301 
L 139.223921 99.673301 
L 138.124856 99.833165 
L 137.075747 99.99303 
L 136.376342 100.112928 
L 136.176512 100.112928 
L 135.427149 100.072962 
L 134.427998 100.632486 
L 133.029187 100.152894 
L 132.529612 100.152894 
L 131.980079 100.232826 
L 131.180759 100.232826 
L 130.431396 100.232826 
L 129.73199 100.832316 
L 128.732839 100.832316 
L 128.383137 100.352724 
L 127.433944 100.952214 
L 126.234963 102.071263 
L 125.335727 102.990482 
L 124.836152 103.030448 
L 123.986874 103.030448 
L 123.437341 103.070414 
L 122.588063 103.669904 
L 121.888657 103.11038 
L 121.039379 103.11038 
L 117.742182 103.390142 
L 117.492394 103.430108 
L 115.494093 103.470074 
L 111.147788 100.832316 
L 108.799784 103.629938 
L 99.707513 105.548307 
L 85.069956 107.506642 
L 65.186857 108.865487 
L 48.051424 110.903755 
L 39.708516 113.301716 
L 31.265693 112.86209 
z
" clip-path="url(#pe8a5f96b31)" style="fill: #aeaeae"/>
   </g>
   <g id="PolyCollection_4">
    <path d="M 31.265693 88.602712 
L 31.265693 112.86209 
L 39.708516 113.301716 
L 48.051424 110.903755 
L 65.186857 108.865487 
L 85.069956 107.506642 
L 99.707513 105.548307 
L 108.799784 103.629938 
L 111.147788 100.832316 
L 115.494093 103.470074 
L 117.492394 103.430108 
L 117.742182 103.390142 
L 121.039379 103.11038 
L 121.888657 103.11038 
L 122.588063 103.669904 
L 123.437341 103.070414 
L 123.986874 103.030448 
L 124.836152 103.030448 
L 125.335727 102.990482 
L 126.234963 102.071263 
L 127.433944 100.952214 
L 128.383137 100.352724 
L 128.732839 100.832316 
L 129.73199 100.832316 
L 130.431396 100.232826 
L 131.180759 100.232826 
L 131.980079 100.232826 
L 132.529612 100.152894 
L 133.029187 100.152894 
L 134.427998 100.632486 
L 135.427149 100.072962 
L 136.176512 100.112928 
L 136.376342 100.112928 
L 137.075747 99.99303 
L 138.124856 99.833165 
L 139.223921 99.673301 
L 139.973284 99.673301 
L 141.07235 99.673301 
L 142.521119 99.673301 
L 144.51942 99.593369 
L 146.267933 99.273641 
L 147.766659 98.993879 
L 150.564281 98.953913 
L 151.763262 98.314456 
L 155.010502 98.154592 
L 157.108718 97.914796 
L 158.407614 97.714966 
L 159.206935 97.595068 
L 162.354259 97.515136 
L 164.102773 97.47517 
L 165.901244 97.355272 
L 169.448229 97.115476 
L 172.745426 97.115476 
L 173.294959 97.115476 
L 173.944407 97.115476 
L 174.943557 96.995578 
L 175.742878 96.955612 
L 178.190797 96.835713 
L 183.086635 95.796597 
L 184.035828 95.796597 
L 188.631921 95.636733 
L 189.68103 95.596767 
L 190.730138 95.596767 
L 192.428694 95.516835 
L 193.827505 95.516835 
L 195.176358 95.35697 
L 196.025636 95.396936 
L 198.773301 95.396936 
L 201.62088 94.477718 
L 203.019691 94.437752 
L 204.018842 93.918194 
L 205.26778 94.55765 
L 206.316888 94.277888 
L 207.565826 93.678397 
L 210.513321 93.398635 
L 212.062004 93.358669 
L 213.56073 93.278737 
L 215.109414 93.278737 
L 216.60814 93.318703 
L 218.156823 93.278737 
L 219.705507 93.278737 
L 221.154275 93.238771 
L 222.702959 93.238771 
L 224.201685 93.238771 
L 225.750368 93.198805 
L 227.249094 93.198805 
L 228.797778 93.198805 
L 230.346462 93.118873 
L 231.845188 93.238771 
L 233.393871 93.238771 
L 234.892597 93.158839 
L 236.441281 93.158839 
L 237.989964 93.078907 
L 239.388775 93.078907 
L 240.937459 93.078907 
L 242.436184 93.078907 
L 243.984868 93.038941 
L 245.483594 92.839111 
L 247.032278 92.759179 
L 248.580961 92.679247 
L 250.079687 92.639281 
L 251.628371 92.719213 
L 253.127097 92.639281 
L 254.67578 92.639281 
L 256.224464 92.639281 
L 257.623275 92.639281 
L 259.171958 92.639281 
L 260.670684 92.639281 
L 262.219368 92.559349 
L 263.718094 92.559349 
L 265.266777 92.559349 
L 266.815461 91.600164 
L 268.314187 91.4403 
L 269.86287 91.400334 
L 271.361596 91.400334 
L 272.91028 91.360368 
L 274.458963 91.360368 
L 275.857774 91.360368 
L 277.406458 91.280436 
L 278.905184 91.280436 
L 280.453867 91.280436 
L 281.952593 91.280436 
L 283.501277 91.280436 
L 285.04996 91.280436 
L 286.548686 91.280436 
L 288.09737 91.280436 
L 289.596096 91.24047 
L 291.144779 91.200504 
L 292.693463 91.200504 
L 294.142231 91.160538 
L 295.690915 91.160538 
L 297.189641 91.160538 
L 298.738324 91.160538 
L 300.23705 91.160538 
L 301.785734 91.120572 
L 303.334417 91.080606 
L 304.833143 91.04064 
L 306.381827 91.04064 
L 307.880553 91.000674 
L 309.429236 91.000674 
L 310.97792 91.000674 
L 312.376731 91.000674 
L 313.925414 90.960708 
L 315.42414 90.920742 
L 316.972824 90.760877 
L 318.47155 89.801693 
L 320.020233 89.601863 
L 321.568917 89.561897 
L 323.067643 89.681795 
L 324.616326 89.681795 
L 326.115052 89.681795 
L 327.663736 89.521931 
L 329.212419 89.521931 
L 330.61123 89.521931 
L 332.159914 89.441999 
L 333.65864 89.402033 
L 335.207323 89.362067 
L 336.706049 89.362067 
L 338.254733 89.362067 
L 339.803416 89.3221 
L 341.302142 89.3221 
L 342.850826 89.3221 
L 344.349552 89.242168 
L 345.898235 89.242168 
L 347.446919 89.282134 
L 348.84573 89.282134 
L 350.394413 89.282134 
L 351.893139 89.282134 
L 353.441823 89.362067 
L 354.940549 89.362067 
L 356.489232 89.362067 
L 358.037916 89.362067 
L 359.536642 89.362067 
L 361.085325 89.362067 
L 362.584051 89.362067 
L 364.132735 89.362067 
L 365.681418 89.362067 
L 367.130187 89.3221 
L 368.67887 89.3221 
L 370.177596 89.362067 
L 371.72628 89.441999 
L 373.225006 89.441999 
L 374.773689 89.402033 
L 376.322373 89.402033 
L 377.821099 89.441999 
L 379.369782 89.441999 
L 380.868508 89.441999 
L 382.417192 89.481965 
L 383.965875 89.481965 
L 385.364686 89.441999 
L 386.91337 89.402033 
L 388.412096 89.362067 
L 389.960779 89.362067 
L 391.459505 89.362067 
L 393.008189 89.3221 
L 394.556872 89.3221 
L 396.055598 89.3221 
L 397.604282 89.242168 
L 399.103008 89.282134 
L 400.651691 89.242168 
L 402.200375 89.242168 
L 403.599186 89.242168 
L 405.147869 89.242168 
L 406.646595 89.242168 
L 408.195279 89.162236 
L 409.694005 89.082304 
L 411.242688 89.082304 
L 412.791372 89.082304 
L 414.290098 89.082304 
L 415.838782 89.042338 
L 417.337508 89.042338 
L 418.886191 88.962406 
L 420.434875 88.962406 
L 421.833685 88.92244 
L 423.382369 88.92244 
L 424.881095 88.92244 
L 426.429779 88.92244 
L 427.928504 88.92244 
L 429.477188 88.842508 
L 431.025872 88.842508 
L 432.524598 88.842508 
L 434.073281 88.842508 
L 435.572007 88.802542 
L 437.120691 88.802542 
L 438.669374 88.802542 
L 440.118143 88.762576 
L 441.666826 88.762576 
L 441.666826 78.411375 
L 441.666826 78.411375 
L 440.118143 78.411375 
L 438.669374 78.411375 
L 437.120691 78.411375 
L 435.572007 78.411375 
L 434.073281 78.411375 
L 432.524598 78.411375 
L 431.025872 78.411375 
L 429.477188 78.411375 
L 427.928504 78.411375 
L 426.429779 78.411375 
L 424.881095 78.411375 
L 423.382369 78.411375 
L 421.833685 78.411375 
L 420.434875 78.611205 
L 418.886191 78.651171 
L 417.337508 78.691137 
L 415.838782 78.691137 
L 414.290098 78.691137 
L 412.791372 78.691137 
L 411.242688 78.691137 
L 409.694005 78.691137 
L 408.195279 78.691137 
L 406.646595 78.691137 
L 405.147869 78.691137 
L 403.599186 78.731103 
L 402.200375 78.691137 
L 400.651691 78.691137 
L 399.103008 78.731103 
L 397.604282 78.451341 
L 396.055598 78.451341 
L 394.556872 78.091647 
L 393.008189 78.091647 
L 391.459505 78.091647 
L 389.960779 78.091647 
L 388.412096 78.091647 
L 386.91337 78.091647 
L 385.364686 78.131613 
L 383.965875 78.131613 
L 382.417192 78.131613 
L 380.868508 78.091647 
L 379.369782 78.091647 
L 377.821099 78.091647 
L 376.322373 78.131613 
L 374.773689 78.131613 
L 373.225006 78.131613 
L 371.72628 78.131613 
L 370.177596 78.051681 
L 368.67887 78.011715 
L 367.130187 78.011715 
L 365.681418 78.011715 
L 364.132735 78.011715 
L 362.584051 78.011715 
L 361.085325 78.011715 
L 359.536642 78.011715 
L 358.037916 78.011715 
L 356.489232 78.011715 
L 354.940549 78.011715 
L 353.441823 78.011715 
L 351.893139 77.931783 
L 350.394413 77.931783 
L 348.84573 77.931783 
L 347.446919 77.931783 
L 345.898235 77.931783 
L 344.349552 77.931783 
L 342.850826 77.931783 
L 341.302142 77.931783 
L 339.803416 77.931783 
L 338.254733 77.891817 
L 336.706049 77.891817 
L 335.207323 77.891817 
L 333.65864 77.891817 
L 332.159914 77.891817 
L 330.61123 77.891817 
L 329.212419 77.891817 
L 327.663736 77.891817 
L 326.115052 77.891817 
L 324.616326 77.891817 
L 323.067643 77.891817 
L 321.568917 77.891817 
L 320.020233 77.891817 
L 318.47155 77.891817 
L 316.972824 77.891817 
L 315.42414 77.891817 
L 313.925414 77.891817 
L 312.376731 77.891817 
L 310.97792 77.891817 
L 309.429236 77.891817 
L 307.880553 77.891817 
L 306.381827 77.891817 
L 304.833143 77.891817 
L 303.334417 77.891817 
L 301.785734 77.891817 
L 300.23705 77.891817 
L 298.738324 77.891817 
L 297.189641 77.891817 
L 295.690915 77.891817 
L 294.142231 78.251511 
L 292.693463 78.291477 
L 291.144779 78.291477 
L 289.596096 78.291477 
L 288.09737 78.451341 
L 286.548686 78.451341 
L 285.04996 78.451341 
L 283.501277 78.451341 
L 281.952593 78.451341 
L 280.453867 78.451341 
L 278.905184 78.451341 
L 277.406458 78.451341 
L 275.857774 78.451341 
L 274.458963 78.451341 
L 272.91028 78.451341 
L 271.361596 78.491307 
L 269.86287 78.491307 
L 268.314187 78.491307 
L 266.815461 78.491307 
L 265.266777 78.211545 
L 263.718094 78.371409 
L 262.219368 78.331443 
L 260.670684 78.331443 
L 259.171958 78.331443 
L 257.623275 78.331443 
L 256.224464 78.331443 
L 254.67578 78.331443 
L 253.127097 78.331443 
L 251.628371 78.371409 
L 250.079687 78.371409 
L 248.580961 78.371409 
L 247.032278 78.331443 
L 245.483594 78.331443 
L 243.984868 78.331443 
L 242.436184 78.331443 
L 240.937459 78.331443 
L 239.388775 78.331443 
L 237.989964 78.331443 
L 236.441281 78.331443 
L 234.892597 78.331443 
L 233.393871 78.331443 
L 231.845188 78.371409 
L 230.346462 78.331443 
L 228.797778 78.371409 
L 227.249094 78.331443 
L 225.750368 78.331443 
L 224.201685 78.331443 
L 222.702959 78.331443 
L 221.154275 78.331443 
L 219.705507 78.331443 
L 218.156823 78.371409 
L 216.60814 78.371409 
L 215.109414 78.331443 
L 213.56073 78.331443 
L 212.062004 78.331443 
L 210.513321 78.411375 
L 207.565826 78.691137 
L 206.316888 79.37056 
L 205.26778 79.450492 
L 204.018842 78.811036 
L 203.019691 80.369711 
L 201.62088 80.369711 
L 198.773301 81.808488 
L 196.025636 81.808488 
L 195.176358 81.768521 
L 193.827505 81.928386 
L 192.428694 81.88842 
L 190.730138 81.88842 
L 189.68103 81.88842 
L 188.631921 81.88842 
L 184.035828 82.208148 
L 183.086635 82.208148 
L 178.190797 82.407978 
L 175.742878 82.368012 
L 174.943557 82.368012 
L 173.944407 82.447944 
L 173.294959 82.447944 
L 172.745426 82.447944 
L 169.448229 83.007468 
L 165.901244 83.127366 
L 164.102773 83.127366 
L 162.354259 83.127366 
L 159.206935 83.127366 
L 158.407614 83.0874 
L 157.108718 83.0874 
L 155.010502 82.967502 
L 151.763262 82.927536 
L 150.564281 83.966653 
L 147.766659 84.086551 
L 146.267933 84.206449 
L 144.51942 84.086551 
L 142.521119 84.086551 
L 141.07235 84.046585 
L 139.973284 84.046585 
L 139.223921 84.046585 
L 138.124856 84.006619 
L 137.075747 84.006619 
L 136.376342 84.046585 
L 136.176512 84.046585 
L 135.427149 84.046585 
L 134.427998 84.486211 
L 133.029187 84.046585 
L 132.529612 84.046585 
L 131.980079 84.086551 
L 131.180759 84.006619 
L 130.431396 84.006619 
L 129.73199 84.406279 
L 128.732839 84.326347 
L 128.383137 83.886721 
L 127.433944 84.446245 
L 126.234963 84.286381 
L 125.335727 84.326347 
L 124.836152 84.326347 
L 123.986874 84.326347 
L 123.437341 84.366313 
L 122.588063 84.885872 
L 121.888657 84.326347 
L 121.039379 84.326347 
L 117.742182 85.325498 
L 117.492394 85.365464 
L 115.494093 85.325498 
L 111.147788 84.406279 
L 108.799784 85.325498 
L 99.707513 86.124818 
L 85.069956 86.564445 
L 65.186857 87.283833 
L 48.051424 87.723459 
L 39.708516 88.762576 
L 31.265693 88.602712 
z
" clip-path="url(#pe8a5f96b31)" style="fill: #d5dce5"/>
   </g>
   <g id="matplotlib.axis_1">
    <g id="xtick_1">
     <g id="line2d_1">
      <defs>
       <path id="ma45fc22429" d="M 0 0 
L 0 3.5 
" style="stroke: #000000; stroke-width: 0.8"/>
      </defs>
      <g>
       <use xlink:href="#ma45fc22429" x="72.180912" y="280.519571" style="stroke: #000000; stroke-width: 0.8"/>
      </g>
     </g>
     <g id="text_1">
      <!-- 2004 -->
      <g transform="translate(59.455912 295.118008) scale(0.1 -0.1)">
       <defs>
        <path id="DejaVuSans-32" d="M 1228 531 
L 3431 531 
L 3431 0 
L 469 0 
L 469 531 
Q 828 903 1448 1529 
Q 2069 2156 2228 2338 
Q 2531 2678 2651 2914 
Q 2772 3150 2772 3378 
Q 2772 3750 2511 3984 
Q 2250 4219 1831 4219 
Q 1534 4219 1204 4116 
Q 875 4013 500 3803 
L 500 4441 
Q 881 4594 1212 4672 
Q 1544 4750 1819 4750 
Q 2544 4750 2975 4387 
Q 3406 4025 3406 3419 
Q 3406 3131 3298 2873 
Q 3191 2616 2906 2266 
Q 2828 2175 2409 1742 
Q 1991 1309 1228 531 
z
" transform="scale(0.015625)"/>
        <path id="DejaVuSans-30" d="M 2034 4250 
Q 1547 4250 1301 3770 
Q 1056 3291 1056 2328 
Q 1056 1369 1301 889 
Q 1547 409 2034 409 
Q 2525 409 2770 889 
Q 3016 1369 3016 2328 
Q 3016 3291 2770 3770 
Q 2525 4250 2034 4250 
z
M 2034 4750 
Q 2819 4750 3233 4129 
Q 3647 3509 3647 2328 
Q 3647 1150 3233 529 
Q 2819 -91 2034 -91 
Q 1250 -91 836 529 
Q 422 1150 422 2328 
Q 422 3509 836 4129 
Q 1250 4750 2034 4750 
z
" transform="scale(0.015625)"/>
        <path id="DejaVuSans-34" d="M 2419 4116 
L 825 1625 
L 2419 1625 
L 2419 4116 
z
M 2253 4666 
L 3047 4666 
L 3047 1625 
L 3713 1625 
L 3713 1100 
L 3047 1100 
L 3047 0 
L 2419 0 
L 2419 1100 
L 313 1100 
L 313 1709 
L 2253 4666 
z
" transform="scale(0.015625)"/>
       </defs>
       <use xlink:href="#DejaVuSans-32"/>
       <use xlink:href="#DejaVuSans-30" x="63.623047"/>
       <use xlink:href="#DejaVuSans-30" x="127.246094"/>
       <use xlink:href="#DejaVuSans-34" x="190.869141"/>
      </g>
     </g>
    </g>
    <g id="xtick_2">
     <g id="line2d_2">
      <g>
       <use xlink:href="#ma45fc22429" x="108.699869" y="280.519571" style="stroke: #000000; stroke-width: 0.8"/>
      </g>
     </g>
     <g id="text_2">
      <!-- 2006 -->
      <g transform="translate(95.974869 295.118008) scale(0.1 -0.1)">
       <defs>
        <path id="DejaVuSans-36" d="M 2113 2584 
Q 1688 2584 1439 2293 
Q 1191 2003 1191 1497 
Q 1191 994 1439 701 
Q 1688 409 2113 409 
Q 2538 409 2786 701 
Q 3034 994 3034 1497 
Q 3034 2003 2786 2293 
Q 2538 2584 2113 2584 
z
M 3366 4563 
L 3366 3988 
Q 3128 4100 2886 4159 
Q 2644 4219 2406 4219 
Q 1781 4219 1451 3797 
Q 1122 3375 1075 2522 
Q 1259 2794 1537 2939 
Q 1816 3084 2150 3084 
Q 2853 3084 3261 2657 
Q 3669 2231 3669 1497 
Q 3669 778 3244 343 
Q 2819 -91 2113 -91 
Q 1303 -91 875 529 
Q 447 1150 447 2328 
Q 447 3434 972 4092 
Q 1497 4750 2381 4750 
Q 2619 4750 2861 4703 
Q 3103 4656 3366 4563 
z
" transform="scale(0.015625)"/>
       </defs>
       <use xlink:href="#DejaVuSans-32"/>
       <use xlink:href="#DejaVuSans-30" x="63.623047"/>
       <use xlink:href="#DejaVuSans-30" x="127.246094"/>
       <use xlink:href="#DejaVuSans-36" x="190.869141"/>
      </g>
     </g>
    </g>
    <g id="xtick_3">
     <g id="line2d_3">
      <g>
       <use xlink:href="#ma45fc22429" x="145.168868" y="280.519571" style="stroke: #000000; stroke-width: 0.8"/>
      </g>
     </g>
     <g id="text_3">
      <!-- 2008 -->
      <g transform="translate(132.443868 295.118008) scale(0.1 -0.1)">
       <defs>
        <path id="DejaVuSans-38" d="M 2034 2216 
Q 1584 2216 1326 1975 
Q 1069 1734 1069 1313 
Q 1069 891 1326 650 
Q 1584 409 2034 409 
Q 2484 409 2743 651 
Q 3003 894 3003 1313 
Q 3003 1734 2745 1975 
Q 2488 2216 2034 2216 
z
M 1403 2484 
Q 997 2584 770 2862 
Q 544 3141 544 3541 
Q 544 4100 942 4425 
Q 1341 4750 2034 4750 
Q 2731 4750 3128 4425 
Q 3525 4100 3525 3541 
Q 3525 3141 3298 2862 
Q 3072 2584 2669 2484 
Q 3125 2378 3379 2068 
Q 3634 1759 3634 1313 
Q 3634 634 3220 271 
Q 2806 -91 2034 -91 
Q 1263 -91 848 271 
Q 434 634 434 1313 
Q 434 1759 690 2068 
Q 947 2378 1403 2484 
z
M 1172 3481 
Q 1172 3119 1398 2916 
Q 1625 2713 2034 2713 
Q 2441 2713 2670 2916 
Q 2900 3119 2900 3481 
Q 2900 3844 2670 4047 
Q 2441 4250 2034 4250 
Q 1625 4250 1398 4047 
Q 1172 3844 1172 3481 
z
" transform="scale(0.015625)"/>
       </defs>
       <use xlink:href="#DejaVuSans-32"/>
       <use xlink:href="#DejaVuSans-30" x="63.623047"/>
       <use xlink:href="#DejaVuSans-30" x="127.246094"/>
       <use xlink:href="#DejaVuSans-38" x="190.869141"/>
      </g>
     </g>
    </g>
    <g id="xtick_4">
     <g id="line2d_4">
      <g>
       <use xlink:href="#ma45fc22429" x="181.687824" y="280.519571" style="stroke: #000000; stroke-width: 0.8"/>
      </g>
     </g>
     <g id="text_4">
      <!-- 2010 -->
      <g transform="translate(168.962824 295.118008) scale(0.1 -0.1)">
       <defs>
        <path id="DejaVuSans-31" d="M 794 531 
L 1825 531 
L 1825 4091 
L 703 3866 
L 703 4441 
L 1819 4666 
L 2450 4666 
L 2450 531 
L 3481 531 
L 3481 0 
L 794 0 
L 794 531 
z
" transform="scale(0.015625)"/>
       </defs>
       <use xlink:href="#DejaVuSans-32"/>
       <use xlink:href="#DejaVuSans-30" x="63.623047"/>
       <use xlink:href="#DejaVuSans-31" x="127.246094"/>
       <use xlink:href="#DejaVuSans-30" x="190.869141"/>
      </g>
     </g>
    </g>
    <g id="xtick_5">
     <g id="line2d_5">
      <g>
       <use xlink:href="#ma45fc22429" x="218.156823" y="280.519571" style="stroke: #000000; stroke-width: 0.8"/>
      </g>
     </g>
     <g id="text_5">
      <!-- 2012 -->
      <g transform="translate(205.431823 295.118008) scale(0.1 -0.1)">
       <use xlink:href="#DejaVuSans-32"/>
       <use xlink:href="#DejaVuSans-30" x="63.623047"/>
       <use xlink:href="#DejaVuSans-31" x="127.246094"/>
       <use xlink:href="#DejaVuSans-32" x="190.869141"/>
      </g>
     </g>
    </g>
    <g id="xtick_6">
     <g id="line2d_6">
      <g>
       <use xlink:href="#ma45fc22429" x="254.67578" y="280.519571" style="stroke: #000000; stroke-width: 0.8"/>
      </g>
     </g>
     <g id="text_6">
      <!-- 2014 -->
      <g transform="translate(241.95078 295.118008) scale(0.1 -0.1)">
       <use xlink:href="#DejaVuSans-32"/>
       <use xlink:href="#DejaVuSans-30" x="63.623047"/>
       <use xlink:href="#DejaVuSans-31" x="127.246094"/>
       <use xlink:href="#DejaVuSans-34" x="190.869141"/>
      </g>
     </g>
    </g>
    <g id="xtick_7">
     <g id="line2d_7">
      <g>
       <use xlink:href="#ma45fc22429" x="291.144779" y="280.519571" style="stroke: #000000; stroke-width: 0.8"/>
      </g>
     </g>
     <g id="text_7">
      <!-- 2016 -->
      <g transform="translate(278.419779 295.118008) scale(0.1 -0.1)">
       <use xlink:href="#DejaVuSans-32"/>
       <use xlink:href="#DejaVuSans-30" x="63.623047"/>
       <use xlink:href="#DejaVuSans-31" x="127.246094"/>
       <use xlink:href="#DejaVuSans-36" x="190.869141"/>
      </g>
     </g>
    </g>
    <g id="xtick_8">
     <g id="line2d_8">
      <g>
       <use xlink:href="#ma45fc22429" x="327.663736" y="280.519571" style="stroke: #000000; stroke-width: 0.8"/>
      </g>
     </g>
     <g id="text_8">
      <!-- 2018 -->
      <g transform="translate(314.938736 295.118008) scale(0.1 -0.1)">
       <use xlink:href="#DejaVuSans-32"/>
       <use xlink:href="#DejaVuSans-30" x="63.623047"/>
       <use xlink:href="#DejaVuSans-31" x="127.246094"/>
       <use xlink:href="#DejaVuSans-38" x="190.869141"/>
      </g>
     </g>
    </g>
    <g id="xtick_9">
     <g id="line2d_9">
      <g>
       <use xlink:href="#ma45fc22429" x="364.132735" y="280.519571" style="stroke: #000000; stroke-width: 0.8"/>
      </g>
     </g>
     <g id="text_9">
      <!-- 2020 -->
      <g transform="translate(351.407735 295.118008) scale(0.1 -0.1)">
       <use xlink:href="#DejaVuSans-32"/>
       <use xlink:href="#DejaVuSans-30" x="63.623047"/>
       <use xlink:href="#DejaVuSans-32" x="127.246094"/>
       <use xlink:href="#DejaVuSans-30" x="190.869141"/>
      </g>
     </g>
    </g>
    <g id="xtick_10">
     <g id="line2d_10">
      <g>
       <use xlink:href="#ma45fc22429" x="400.651691" y="280.519571" style="stroke: #000000; stroke-width: 0.8"/>
      </g>
     </g>
     <g id="text_10">
      <!-- 2022 -->
      <g transform="translate(387.926691 295.118008) scale(0.1 -0.1)">
       <use xlink:href="#DejaVuSans-32"/>
       <use xlink:href="#DejaVuSans-30" x="63.623047"/>
       <use xlink:href="#DejaVuSans-32" x="127.246094"/>
       <use xlink:href="#DejaVuSans-32" x="190.869141"/>
      </g>
     </g>
    </g>
    <g id="xtick_11">
     <g id="line2d_11">
      <g>
       <use xlink:href="#ma45fc22429" x="437.120691" y="280.519571" style="stroke: #000000; stroke-width: 0.8"/>
      </g>
     </g>
     <g id="text_11">
      <!-- 2024 -->
      <g transform="translate(424.395691 295.118008) scale(0.1 -0.1)">
       <use xlink:href="#DejaVuSans-32"/>
       <use xlink:href="#DejaVuSans-30" x="63.623047"/>
       <use xlink:href="#DejaVuSans-32" x="127.246094"/>
       <use xlink:href="#DejaVuSans-34" x="190.869141"/>
      </g>
     </g>
    </g>
    <g id="text_12">
     <!-- Year -->
     <g transform="translate(235.722142 312.595352) scale(0.15 -0.15)">
      <defs>
       <path id="DejaVuSans-59" d="M -13 4666 
L 666 4666 
L 1959 2747 
L 3244 4666 
L 3922 4666 
L 2272 2222 
L 2272 0 
L 1638 0 
L 1638 2222 
L -13 4666 
z
" transform="scale(0.015625)"/>
       <path id="DejaVuSans-65" d="M 3597 1894 
L 3597 1613 
L 953 1613 
Q 991 1019 1311 708 
Q 1631 397 2203 397 
Q 2534 397 2845 478 
Q 3156 559 3463 722 
L 3463 178 
Q 3153 47 2828 -22 
Q 2503 -91 2169 -91 
Q 1331 -91 842 396 
Q 353 884 353 1716 
Q 353 2575 817 3079 
Q 1281 3584 2069 3584 
Q 2775 3584 3186 3129 
Q 3597 2675 3597 1894 
z
M 3022 2063 
Q 3016 2534 2758 2815 
Q 2500 3097 2075 3097 
Q 1594 3097 1305 2825 
Q 1016 2553 972 2059 
L 3022 2063 
z
" transform="scale(0.015625)"/>
       <path id="DejaVuSans-61" d="M 2194 1759 
Q 1497 1759 1228 1600 
Q 959 1441 959 1056 
Q 959 750 1161 570 
Q 1363 391 1709 391 
Q 2188 391 2477 730 
Q 2766 1069 2766 1631 
L 2766 1759 
L 2194 1759 
z
M 3341 1997 
L 3341 0 
L 2766 0 
L 2766 531 
Q 2569 213 2275 61 
Q 1981 -91 1556 -91 
Q 1019 -91 701 211 
Q 384 513 384 1019 
Q 384 1609 779 1909 
Q 1175 2209 1959 2209 
L 2766 2209 
L 2766 2266 
Q 2766 2663 2505 2880 
Q 2244 3097 1772 3097 
Q 1472 3097 1187 3025 
Q 903 2953 641 2809 
L 641 3341 
Q 956 3463 1253 3523 
Q 1550 3584 1831 3584 
Q 2591 3584 2966 3190 
Q 3341 2797 3341 1997 
z
" transform="scale(0.015625)"/>
       <path id="DejaVuSans-72" d="M 2631 2963 
Q 2534 3019 2420 3045 
Q 2306 3072 2169 3072 
Q 1681 3072 1420 2755 
Q 1159 2438 1159 1844 
L 1159 0 
L 581 0 
L 581 3500 
L 1159 3500 
L 1159 2956 
Q 1341 3275 1631 3429 
Q 1922 3584 2338 3584 
Q 2397 3584 2469 3576 
Q 2541 3569 2628 3553 
L 2631 2963 
z
" transform="scale(0.015625)"/>
      </defs>
      <use xlink:href="#DejaVuSans-59"/>
      <use xlink:href="#DejaVuSans-65" x="47.833984"/>
      <use xlink:href="#DejaVuSans-61" x="109.357422"/>
      <use xlink:href="#DejaVuSans-72" x="170.636719"/>
     </g>
    </g>
   </g>
   <g id="matplotlib.axis_2">
    <g id="ytick_1">
     <g id="line2d_12">
      <defs>
       <path id="m14e4268509" d="M 0 0 
L -3.5 0 
" style="stroke: #000000; stroke-width: 0.8"/>
      </defs>
      <g>
       <use xlink:href="#m14e4268509" x="61.49" y="280.519571" style="stroke: #000000; stroke-width: 0.8"/>
      </g>
     </g>
     <g id="text_13">
      <!-- 0 -->
      <g transform="translate(48.1275 284.31879) scale(0.1 -0.1)">
       <use xlink:href="#DejaVuSans-30"/>
      </g>
     </g>
    </g>
    <g id="ytick_2">
     <g id="line2d_13">
      <g>
       <use xlink:href="#m14e4268509" x="61.49" y="240.553544" style="stroke: #000000; stroke-width: 0.8"/>
      </g>
     </g>
     <g id="text_14">
      <!-- 1000 -->
      <g transform="translate(29.04 244.352763) scale(0.1 -0.1)">
       <use xlink:href="#DejaVuSans-31"/>
       <use xlink:href="#DejaVuSans-30" x="63.623047"/>
       <use xlink:href="#DejaVuSans-30" x="127.246094"/>
       <use xlink:href="#DejaVuSans-30" x="190.869141"/>
      </g>
     </g>
    </g>
    <g id="ytick_3">
     <g id="line2d_14">
      <g>
       <use xlink:href="#m14e4268509" x="61.49" y="200.587518" style="stroke: #000000; stroke-width: 0.8"/>
      </g>
     </g>
     <g id="text_15">
      <!-- 2000 -->
      <g transform="translate(29.04 204.386737) scale(0.1 -0.1)">
       <use xlink:href="#DejaVuSans-32"/>
       <use xlink:href="#DejaVuSans-30" x="63.623047"/>
       <use xlink:href="#DejaVuSans-30" x="127.246094"/>
       <use xlink:href="#DejaVuSans-30" x="190.869141"/>
      </g>
     </g>
    </g>
    <g id="ytick_4">
     <g id="line2d_15">
      <g>
       <use xlink:href="#m14e4268509" x="61.49" y="160.621492" style="stroke: #000000; stroke-width: 0.8"/>
      </g>
     </g>
     <g id="text_16">
      <!-- 3000 -->
      <g transform="translate(29.04 164.42071) scale(0.1 -0.1)">
       <defs>
        <path id="DejaVuSans-33" d="M 2597 2516 
Q 3050 2419 3304 2112 
Q 3559 1806 3559 1356 
Q 3559 666 3084 287 
Q 2609 -91 1734 -91 
Q 1441 -91 1130 -33 
Q 819 25 488 141 
L 488 750 
Q 750 597 1062 519 
Q 1375 441 1716 441 
Q 2309 441 2620 675 
Q 2931 909 2931 1356 
Q 2931 1769 2642 2001 
Q 2353 2234 1838 2234 
L 1294 2234 
L 1294 2753 
L 1863 2753 
Q 2328 2753 2575 2939 
Q 2822 3125 2822 3475 
Q 2822 3834 2567 4026 
Q 2313 4219 1838 4219 
Q 1578 4219 1281 4162 
Q 984 4106 628 3988 
L 628 4550 
Q 988 4650 1302 4700 
Q 1616 4750 1894 4750 
Q 2613 4750 3031 4423 
Q 3450 4097 3450 3541 
Q 3450 3153 3228 2886 
Q 3006 2619 2597 2516 
z
" transform="scale(0.015625)"/>
       </defs>
       <use xlink:href="#DejaVuSans-33"/>
       <use xlink:href="#DejaVuSans-30" x="63.623047"/>
       <use xlink:href="#DejaVuSans-30" x="127.246094"/>
       <use xlink:href="#DejaVuSans-30" x="190.869141"/>
      </g>
     </g>
    </g>
    <g id="ytick_5">
     <g id="line2d_16">
      <g>
       <use xlink:href="#m14e4268509" x="61.49" y="120.655465" style="stroke: #000000; stroke-width: 0.8"/>
      </g>
     </g>
     <g id="text_17">
      <!-- 4000 -->
      <g transform="translate(29.04 124.454684) scale(0.1 -0.1)">
       <use xlink:href="#DejaVuSans-34"/>
       <use xlink:href="#DejaVuSans-30" x="63.623047"/>
       <use xlink:href="#DejaVuSans-30" x="127.246094"/>
       <use xlink:href="#DejaVuSans-30" x="190.869141"/>
      </g>
     </g>
    </g>
    <g id="ytick_6">
     <g id="line2d_17">
      <g>
       <use xlink:href="#m14e4268509" x="61.49" y="80.689439" style="stroke: #000000; stroke-width: 0.8"/>
      </g>
     </g>
     <g id="text_18">
      <!-- 5000 -->
      <g transform="translate(29.04 84.488658) scale(0.1 -0.1)">
       <defs>
        <path id="DejaVuSans-35" d="M 691 4666 
L 3169 4666 
L 3169 4134 
L 1269 4134 
L 1269 2991 
Q 1406 3038 1543 3061 
Q 1681 3084 1819 3084 
Q 2600 3084 3056 2656 
Q 3513 2228 3513 1497 
Q 3513 744 3044 326 
Q 2575 -91 1722 -91 
Q 1428 -91 1123 -41 
Q 819 9 494 109 
L 494 744 
Q 775 591 1075 516 
Q 1375 441 1709 441 
Q 2250 441 2565 725 
Q 2881 1009 2881 1497 
Q 2881 1984 2565 2268 
Q 2250 2553 1709 2553 
Q 1456 2553 1204 2497 
Q 953 2441 691 2322 
L 691 4666 
z
" transform="scale(0.015625)"/>
       </defs>
       <use xlink:href="#DejaVuSans-35"/>
       <use xlink:href="#DejaVuSans-30" x="63.623047"/>
       <use xlink:href="#DejaVuSans-30" x="127.246094"/>
       <use xlink:href="#DejaVuSans-30" x="190.869141"/>
      </g>
     </g>
    </g>
    <g id="text_19">
     <!-- Number of proteins -->
     <g transform="translate(21.920469 246.829062) rotate(-90) scale(0.15 -0.15)">
      <defs>
       <path id="DejaVuSans-4e" d="M 628 4666 
L 1478 4666 
L 3547 763 
L 3547 4666 
L 4159 4666 
L 4159 0 
L 3309 0 
L 1241 3903 
L 1241 0 
L 628 0 
L 628 4666 
z
" transform="scale(0.015625)"/>
       <path id="DejaVuSans-75" d="M 544 1381 
L 544 3500 
L 1119 3500 
L 1119 1403 
Q 1119 906 1312 657 
Q 1506 409 1894 409 
Q 2359 409 2629 706 
Q 2900 1003 2900 1516 
L 2900 3500 
L 3475 3500 
L 3475 0 
L 2900 0 
L 2900 538 
Q 2691 219 2414 64 
Q 2138 -91 1772 -91 
Q 1169 -91 856 284 
Q 544 659 544 1381 
z
M 1991 3584 
L 1991 3584 
z
" transform="scale(0.015625)"/>
       <path id="DejaVuSans-6d" d="M 3328 2828 
Q 3544 3216 3844 3400 
Q 4144 3584 4550 3584 
Q 5097 3584 5394 3201 
Q 5691 2819 5691 2113 
L 5691 0 
L 5113 0 
L 5113 2094 
Q 5113 2597 4934 2840 
Q 4756 3084 4391 3084 
Q 3944 3084 3684 2787 
Q 3425 2491 3425 1978 
L 3425 0 
L 2847 0 
L 2847 2094 
Q 2847 2600 2669 2842 
Q 2491 3084 2119 3084 
Q 1678 3084 1418 2786 
Q 1159 2488 1159 1978 
L 1159 0 
L 581 0 
L 581 3500 
L 1159 3500 
L 1159 2956 
Q 1356 3278 1631 3431 
Q 1906 3584 2284 3584 
Q 2666 3584 2933 3390 
Q 3200 3197 3328 2828 
z
" transform="scale(0.015625)"/>
       <path id="DejaVuSans-62" d="M 3116 1747 
Q 3116 2381 2855 2742 
Q 2594 3103 2138 3103 
Q 1681 3103 1420 2742 
Q 1159 2381 1159 1747 
Q 1159 1113 1420 752 
Q 1681 391 2138 391 
Q 2594 391 2855 752 
Q 3116 1113 3116 1747 
z
M 1159 2969 
Q 1341 3281 1617 3432 
Q 1894 3584 2278 3584 
Q 2916 3584 3314 3078 
Q 3713 2572 3713 1747 
Q 3713 922 3314 415 
Q 2916 -91 2278 -91 
Q 1894 -91 1617 61 
Q 1341 213 1159 525 
L 1159 0 
L 581 0 
L 581 4863 
L 1159 4863 
L 1159 2969 
z
" transform="scale(0.015625)"/>
       <path id="DejaVuSans-20" transform="scale(0.015625)"/>
       <path id="DejaVuSans-6f" d="M 1959 3097 
Q 1497 3097 1228 2736 
Q 959 2375 959 1747 
Q 959 1119 1226 758 
Q 1494 397 1959 397 
Q 2419 397 2687 759 
Q 2956 1122 2956 1747 
Q 2956 2369 2687 2733 
Q 2419 3097 1959 3097 
z
M 1959 3584 
Q 2709 3584 3137 3096 
Q 3566 2609 3566 1747 
Q 3566 888 3137 398 
Q 2709 -91 1959 -91 
Q 1206 -91 779 398 
Q 353 888 353 1747 
Q 353 2609 779 3096 
Q 1206 3584 1959 3584 
z
" transform="scale(0.015625)"/>
       <path id="DejaVuSans-66" d="M 2375 4863 
L 2375 4384 
L 1825 4384 
Q 1516 4384 1395 4259 
Q 1275 4134 1275 3809 
L 1275 3500 
L 2222 3500 
L 2222 3053 
L 1275 3053 
L 1275 0 
L 697 0 
L 697 3053 
L 147 3053 
L 147 3500 
L 697 3500 
L 697 3744 
Q 697 4328 969 4595 
Q 1241 4863 1831 4863 
L 2375 4863 
z
" transform="scale(0.015625)"/>
       <path id="DejaVuSans-70" d="M 1159 525 
L 1159 -1331 
L 581 -1331 
L 581 3500 
L 1159 3500 
L 1159 2969 
Q 1341 3281 1617 3432 
Q 1894 3584 2278 3584 
Q 2916 3584 3314 3078 
Q 3713 2572 3713 1747 
Q 3713 922 3314 415 
Q 2916 -91 2278 -91 
Q 1894 -91 1617 61 
Q 1341 213 1159 525 
z
M 3116 1747 
Q 3116 2381 2855 2742 
Q 2594 3103 2138 3103 
Q 1681 3103 1420 2742 
Q 1159 2381 1159 1747 
Q 1159 1113 1420 752 
Q 1681 391 2138 391 
Q 2594 391 2855 752 
Q 3116 1113 3116 1747 
z
" transform="scale(0.015625)"/>
       <path id="DejaVuSans-74" d="M 1172 4494 
L 1172 3500 
L 2356 3500 
L 2356 3053 
L 1172 3053 
L 1172 1153 
Q 1172 725 1289 603 
Q 1406 481 1766 481 
L 2356 481 
L 2356 0 
L 1766 0 
Q 1100 0 847 248 
Q 594 497 594 1153 
L 594 3053 
L 172 3053 
L 172 3500 
L 594 3500 
L 594 4494 
L 1172 4494 
z
" transform="scale(0.015625)"/>
       <path id="DejaVuSans-69" d="M 603 3500 
L 1178 3500 
L 1178 0 
L 603 0 
L 603 3500 
z
M 603 4863 
L 1178 4863 
L 1178 4134 
L 603 4134 
L 603 4863 
z
" transform="scale(0.015625)"/>
       <path id="DejaVuSans-6e" d="M 3513 2113 
L 3513 0 
L 2938 0 
L 2938 2094 
Q 2938 2591 2744 2837 
Q 2550 3084 2163 3084 
Q 1697 3084 1428 2787 
Q 1159 2491 1159 1978 
L 1159 0 
L 581 0 
L 581 3500 
L 1159 3500 
L 1159 2956 
Q 1366 3272 1645 3428 
Q 1925 3584 2291 3584 
Q 2894 3584 3203 3211 
Q 3513 2838 3513 2113 
z
" transform="scale(0.015625)"/>
       <path id="DejaVuSans-73" d="M 2834 3397 
L 2834 2853 
Q 2591 2978 2328 3040 
Q 2066 3103 1784 3103 
Q 1356 3103 1142 2972 
Q 928 2841 928 2578 
Q 928 2378 1081 2264 
Q 1234 2150 1697 2047 
L 1894 2003 
Q 2506 1872 2764 1633 
Q 3022 1394 3022 966 
Q 3022 478 2636 193 
Q 2250 -91 1575 -91 
Q 1294 -91 989 -36 
Q 684 19 347 128 
L 347 722 
Q 666 556 975 473 
Q 1284 391 1588 391 
Q 1994 391 2212 530 
Q 2431 669 2431 922 
Q 2431 1156 2273 1281 
Q 2116 1406 1581 1522 
L 1381 1569 
Q 847 1681 609 1914 
Q 372 2147 372 2553 
Q 372 3047 722 3315 
Q 1072 3584 1716 3584 
Q 2034 3584 2315 3537 
Q 2597 3491 2834 3397 
z
" transform="scale(0.015625)"/>
      </defs>
      <use xlink:href="#DejaVuSans-4e"/>
      <use xlink:href="#DejaVuSans-75" x="74.804688"/>
      <use xlink:href="#DejaVuSans-6d" x="138.183594"/>
      <use xlink:href="#DejaVuSans-62" x="235.595703"/>
      <use xlink:href="#DejaVuSans-65" x="299.072266"/>
      <use xlink:href="#DejaVuSans-72" x="360.595703"/>
      <use xlink:href="#DejaVuSans-20" x="401.708984"/>
      <use xlink:href="#DejaVuSans-6f" x="433.496094"/>
      <use xlink:href="#DejaVuSans-66" x="494.677734"/>
      <use xlink:href="#DejaVuSans-20" x="529.882812"/>
      <use xlink:href="#DejaVuSans-70" x="561.669922"/>
      <use xlink:href="#DejaVuSans-72" x="625.146484"/>
      <use xlink:href="#DejaVuSans-6f" x="664.009766"/>
      <use xlink:href="#DejaVuSans-74" x="725.191406"/>
      <use xlink:href="#DejaVuSans-65" x="764.400391"/>
      <use xlink:href="#DejaVuSans-69" x="825.923828"/>
      <use xlink:href="#DejaVuSans-6e" x="853.707031"/>
      <use xlink:href="#DejaVuSans-73" x="917.085938"/>
     </g>
    </g>
   </g>
   <g id="patch_3">
    <path d="M 61.49 280.519571 
L 61.49 67.760429 
" style="fill: none; stroke: #000000; stroke-width: 0.8; stroke-linejoin: miter; stroke-linecap: square"/>
   </g>
   <g id="patch_4">
    <path d="M 61.49 280.519571 
L 441.716784 280.519571 
" style="fill: none; stroke: #000000; stroke-width: 0.8; stroke-linejoin: miter; stroke-linecap: square"/>
   </g>
   <g id="legend_1">
    <g id="patch_5">
     <path d="M 124.613548 62.760429 
L 378.593236 62.760429 
Q 380.593236 62.760429 380.593236 60.760429 
L 380.593236 32.404179 
Q 380.593236 30.404179 378.593236 30.404179 
L 124.613548 30.404179 
Q 122.613548 30.404179 122.613548 32.404179 
L 122.613548 60.760429 
Q 122.613548 62.760429 124.613548 62.760429 
z
" style="fill: #ffffff; opacity: 0.8; stroke: #cccccc; stroke-linejoin: miter"/>
    </g>
    <g id="patch_6">
     <path d="M 126.613548 42.002617 
L 146.613548 42.002617 
L 146.613548 35.002617 
L 126.613548 35.002617 
z
" style="fill: #fb363b"/>
    </g>
    <g id="text_20">
     <!-- Published -->
     <g transform="translate(154.613548 42.002617) scale(0.1 -0.1)">
      <defs>
       <path id="DejaVuSans-50" d="M 1259 4147 
L 1259 2394 
L 2053 2394 
Q 2494 2394 2734 2622 
Q 2975 2850 2975 3272 
Q 2975 3691 2734 3919 
Q 2494 4147 2053 4147 
L 1259 4147 
z
M 628 4666 
L 2053 4666 
Q 2838 4666 3239 4311 
Q 3641 3956 3641 3272 
Q 3641 2581 3239 2228 
Q 2838 1875 2053 1875 
L 1259 1875 
L 1259 0 
L 628 0 
L 628 4666 
z
" transform="scale(0.015625)"/>
       <path id="DejaVuSans-6c" d="M 603 4863 
L 1178 4863 
L 1178 0 
L 603 0 
L 603 4863 
z
" transform="scale(0.015625)"/>
       <path id="DejaVuSans-68" d="M 3513 2113 
L 3513 0 
L 2938 0 
L 2938 2094 
Q 2938 2591 2744 2837 
Q 2550 3084 2163 3084 
Q 1697 3084 1428 2787 
Q 1159 2491 1159 1978 
L 1159 0 
L 581 0 
L 581 4863 
L 1159 4863 
L 1159 2956 
Q 1366 3272 1645 3428 
Q 1925 3584 2291 3584 
Q 2894 3584 3203 3211 
Q 3513 2838 3513 2113 
z
" transform="scale(0.015625)"/>
       <path id="DejaVuSans-64" d="M 2906 2969 
L 2906 4863 
L 3481 4863 
L 3481 0 
L 2906 0 
L 2906 525 
Q 2725 213 2448 61 
Q 2172 -91 1784 -91 
Q 1150 -91 751 415 
Q 353 922 353 1747 
Q 353 2572 751 3078 
Q 1150 3584 1784 3584 
Q 2172 3584 2448 3432 
Q 2725 3281 2906 2969 
z
M 947 1747 
Q 947 1113 1208 752 
Q 1469 391 1925 391 
Q 2381 391 2643 752 
Q 2906 1113 2906 1747 
Q 2906 2381 2643 2742 
Q 2381 3103 1925 3103 
Q 1469 3103 1208 2742 
Q 947 2381 947 1747 
z
" transform="scale(0.015625)"/>
      </defs>
      <use xlink:href="#DejaVuSans-50"/>
      <use xlink:href="#DejaVuSans-75" x="58.552734"/>
      <use xlink:href="#DejaVuSans-62" x="121.931641"/>
      <use xlink:href="#DejaVuSans-6c" x="185.408203"/>
      <use xlink:href="#DejaVuSans-69" x="213.191406"/>
      <use xlink:href="#DejaVuSans-73" x="240.974609"/>
      <use xlink:href="#DejaVuSans-68" x="293.074219"/>
      <use xlink:href="#DejaVuSans-65" x="356.453125"/>
      <use xlink:href="#DejaVuSans-64" x="417.976562"/>
     </g>
    </g>
    <g id="patch_7">
     <path d="M 126.613548 56.680742 
L 146.613548 56.680742 
L 146.613548 49.680742 
L 126.613548 49.680742 
z
" style="fill: #fdc92c"/>
    </g>
    <g id="text_21">
     <!-- Inferred role -->
     <g transform="translate(154.613548 56.680742) scale(0.1 -0.1)">
      <defs>
       <path id="DejaVuSans-49" d="M 628 4666 
L 1259 4666 
L 1259 0 
L 628 0 
L 628 4666 
z
" transform="scale(0.015625)"/>
      </defs>
      <use xlink:href="#DejaVuSans-49"/>
      <use xlink:href="#DejaVuSans-6e" x="29.492188"/>
      <use xlink:href="#DejaVuSans-66" x="92.871094"/>
      <use xlink:href="#DejaVuSans-65" x="128.076172"/>
      <use xlink:href="#DejaVuSans-72" x="189.599609"/>
      <use xlink:href="#DejaVuSans-72" x="228.962891"/>
      <use xlink:href="#DejaVuSans-65" x="267.826172"/>
      <use xlink:href="#DejaVuSans-64" x="329.349609"/>
      <use xlink:href="#DejaVuSans-20" x="392.826172"/>
      <use xlink:href="#DejaVuSans-72" x="424.613281"/>
      <use xlink:href="#DejaVuSans-6f" x="463.476562"/>
      <use xlink:href="#DejaVuSans-6c" x="524.658203"/>
      <use xlink:href="#DejaVuSans-65" x="552.441406"/>
     </g>
    </g>
    <g id="patch_8">
     <path d="M 236.011986 42.002617 
L 256.011986 42.002617 
L 256.011986 35.002617 
L 236.011986 35.002617 
z
" style="fill: #aeaeae"/>
    </g>
    <g id="text_22">
     <!-- Conserved unknown -->
     <g transform="translate(264.011986 42.002617) scale(0.1 -0.1)">
      <defs>
       <path id="DejaVuSans-43" d="M 4122 4306 
L 4122 3641 
Q 3803 3938 3442 4084 
Q 3081 4231 2675 4231 
Q 1875 4231 1450 3742 
Q 1025 3253 1025 2328 
Q 1025 1406 1450 917 
Q 1875 428 2675 428 
Q 3081 428 3442 575 
Q 3803 722 4122 1019 
L 4122 359 
Q 3791 134 3420 21 
Q 3050 -91 2638 -91 
Q 1578 -91 968 557 
Q 359 1206 359 2328 
Q 359 3453 968 4101 
Q 1578 4750 2638 4750 
Q 3056 4750 3426 4639 
Q 3797 4528 4122 4306 
z
" transform="scale(0.015625)"/>
       <path id="DejaVuSans-76" d="M 191 3500 
L 800 3500 
L 1894 563 
L 2988 3500 
L 3597 3500 
L 2284 0 
L 1503 0 
L 191 3500 
z
" transform="scale(0.015625)"/>
       <path id="DejaVuSans-6b" d="M 581 4863 
L 1159 4863 
L 1159 1991 
L 2875 3500 
L 3609 3500 
L 1753 1863 
L 3688 0 
L 2938 0 
L 1159 1709 
L 1159 0 
L 581 0 
L 581 4863 
z
" transform="scale(0.015625)"/>
       <path id="DejaVuSans-77" d="M 269 3500 
L 844 3500 
L 1563 769 
L 2278 3500 
L 2956 3500 
L 3675 769 
L 4391 3500 
L 4966 3500 
L 4050 0 
L 3372 0 
L 2619 2869 
L 1863 0 
L 1184 0 
L 269 3500 
z
" transform="scale(0.015625)"/>
      </defs>
      <use xlink:href="#DejaVuSans-43"/>
      <use xlink:href="#DejaVuSans-6f" x="69.824219"/>
      <use xlink:href="#DejaVuSans-6e" x="131.005859"/>
      <use xlink:href="#DejaVuSans-73" x="194.384766"/>
      <use xlink:href="#DejaVuSans-65" x="246.484375"/>
      <use xlink:href="#DejaVuSans-72" x="308.007812"/>
      <use xlink:href="#DejaVuSans-76" x="349.121094"/>
      <use xlink:href="#DejaVuSans-65" x="408.300781"/>
      <use xlink:href="#DejaVuSans-64" x="469.824219"/>
      <use xlink:href="#DejaVuSans-20" x="533.300781"/>
      <use xlink:href="#DejaVuSans-75" x="565.087891"/>
      <use xlink:href="#DejaVuSans-6e" x="628.466797"/>
      <use xlink:href="#DejaVuSans-6b" x="691.845703"/>
      <use xlink:href="#DejaVuSans-6e" x="749.755859"/>
      <use xlink:href="#DejaVuSans-6f" x="813.134766"/>
      <use xlink:href="#DejaVuSans-77" x="874.316406"/>
      <use xlink:href="#DejaVuSans-6e" x="956.103516"/>
     </g>
    </g>
    <g id="patch_9">
     <path d="M 236.011986 56.680742 
L 256.011986 56.680742 
L 256.011986 49.680742 
L 236.011986 49.680742 
z
" style="fill: #d5dce5"/>
    </g>
    <g id="text_23">
     <!-- Fission yeast unknown -->
     <g transform="translate(264.011986 56.680742) scale(0.1 -0.1)">
      <defs>
       <path id="DejaVuSans-46" d="M 628 4666 
L 3309 4666 
L 3309 4134 
L 1259 4134 
L 1259 2759 
L 3109 2759 
L 3109 2228 
L 1259 2228 
L 1259 0 
L 628 0 
L 628 4666 
z
" transform="scale(0.015625)"/>
       <path id="DejaVuSans-79" d="M 2059 -325 
Q 1816 -950 1584 -1140 
Q 1353 -1331 966 -1331 
L 506 -1331 
L 506 -850 
L 844 -850 
Q 1081 -850 1212 -737 
Q 1344 -625 1503 -206 
L 1606 56 
L 191 3500 
L 800 3500 
L 1894 763 
L 2988 3500 
L 3597 3500 
L 2059 -325 
z
" transform="scale(0.015625)"/>
      </defs>
      <use xlink:href="#DejaVuSans-46"/>
      <use xlink:href="#DejaVuSans-69" x="50.269531"/>
      <use xlink:href="#DejaVuSans-73" x="78.052734"/>
      <use xlink:href="#DejaVuSans-73" x="130.152344"/>
      <use xlink:href="#DejaVuSans-69" x="182.251953"/>
      <use xlink:href="#DejaVuSans-6f" x="210.035156"/>
      <use xlink:href="#DejaVuSans-6e" x="271.216797"/>
      <use xlink:href="#DejaVuSans-20" x="334.595703"/>
      <use xlink:href="#DejaVuSans-79" x="366.382812"/>
      <use xlink:href="#DejaVuSans-65" x="425.5625"/>
      <use xlink:href="#DejaVuSans-61" x="487.085938"/>
      <use xlink:href="#DejaVuSans-73" x="548.365234"/>
      <use xlink:href="#DejaVuSans-74" x="600.464844"/>
      <use xlink:href="#DejaVuSans-20" x="639.673828"/>
      <use xlink:href="#DejaVuSans-75" x="671.460938"/>
      <use xlink:href="#DejaVuSans-6e" x="734.839844"/>
      <use xlink:href="#DejaVuSans-6b" x="798.21875"/>
      <use xlink:href="#DejaVuSans-6e" x="856.128906"/>
      <use xlink:href="#DejaVuSans-6f" x="919.507812"/>
      <use xlink:href="#DejaVuSans-77" x="980.689453"/>
      <use xlink:href="#DejaVuSans-6e" x="1062.476562"/>
     </g>
    </g>
   </g>
  </g>
 </g>
 <defs>
  <clipPath id="pe8a5f96b31">
   <rect x="61.49" y="67.760429" width="380.226784" height="212.759142"/>
  </clipPath>
 </defs>
</svg>
