<?xml version="1.0" encoding="utf-8" standalone="no"?>
<!DOCTYPE svg PUBLIC "-//W3C//DTD SVG 1.1//EN"
  "http://www.w3.org/Graphics/SVG/1.1/DTD/svg11.dtd">
<svg xmlns:xlink="http://www.w3.org/1999/xlink" width="460.8pt" height="345.6pt" viewBox="0 0 460.8 345.6" xmlns="http://www.w3.org/2000/svg" version="1.1">
 <metadata>
  <rdf:RDF xmlns:dc="http://purl.org/dc/elements/1.1/" xmlns:cc="http://creativecommons.org/ns#" xmlns:rdf="http://www.w3.org/1999/02/22-rdf-syntax-ns#">
   <cc:Work>
    <dc:type rdf:resource="http://purl.org/dc/dcmitype/StillImage"/>
    <dc:date>2025-02-04T16:32:24.311808</dc:date>
    <dc:format>image/svg+xml</dc:format>
    <dc:creator>
     <cc:Agent>
      <dc:title>Matplotlib v3.8.3, https://matplotlib.org/</dc:title>
     </cc:Agent>
    </dc:creator>
   </cc:Work>
  </rdf:RDF>
 </metadata>
 <defs>
  <style type="text/css">*{stroke-linejoin: round; stroke-linecap: butt}</style>
 </defs>
 <g id="figure_1">
  <g id="patch_1">
   <path d="M 0 345.6 
L 460.8 345.6 
L 460.8 0 
L 0 0 
z
" style="fill: #ffffff"/>
  </g>
  <g id="axes_1">
   <g id="patch_2">
    <path d="M 61.76 277.763153 
L 450 277.763153 
L 450 68.969554 
L 61.76 68.969554 
z
" style="fill: #ffffff"/>
   </g>
   <g id="PolyCollection_1">
    <path d="M 32.099033 224.775428 
L 32.099033 277.763153 
L 40.384493 277.763153 
L 48.5719 277.763153 
L 65.387953 277.763153 
L 84.900457 277.763153 
L 99.26519 277.763153 
L 108.187993 277.763153 
L 110.492234 277.763153 
L 114.75753 277.763153 
L 116.718586 277.763153 
L 116.963718 277.763153 
L 120.19946 277.763153 
L 121.032908 277.763153 
L 121.719278 277.763153 
L 122.552726 277.763153 
L 123.092017 277.763153 
L 123.925465 277.763153 
L 124.415729 277.763153 
L 125.298204 277.763153 
L 126.474838 277.763153 
L 127.406339 277.763153 
L 127.749524 277.763153 
L 128.730052 277.763153 
L 129.416421 277.763153 
L 130.151817 277.763153 
L 130.936239 277.763153 
L 131.47553 277.763153 
L 131.965794 277.763153 
L 133.338533 277.763153 
L 134.31906 277.763153 
L 135.054456 277.763153 
L 135.250562 277.763153 
L 135.936931 277.763153 
L 136.966486 277.763153 
L 138.045066 277.763153 
L 138.780462 277.763153 
L 139.859043 277.763153 
L 141.280808 277.763153 
L 143.241864 277.763153 
L 144.957788 277.763153 
L 146.428579 277.763153 
L 149.174057 277.763153 
L 150.350691 277.763153 
L 153.537406 277.763153 
L 155.596515 277.763153 
L 156.871201 277.763153 
L 157.655623 277.763153 
L 160.744286 277.763153 
L 162.46021 277.763153 
L 164.22516 277.763153 
L 167.706034 277.763153 
L 170.941775 277.763153 
L 171.481066 277.763153 
L 172.118409 277.763153 
L 173.098937 277.763153 
L 173.883359 277.763153 
L 176.285652 277.763153 
L 181.090239 277.763153 
L 182.02174 277.763153 
L 186.532168 277.763153 
L 187.561722 277.763153 
L 188.591277 277.763153 
L 190.258174 277.763153 
L 191.630913 277.763153 
L 192.954626 277.763153 
L 193.788074 277.763153 
L 196.484526 277.763153 
L 199.27903 277.763153 
L 200.651769 277.763153 
L 201.632297 277.763153 
L 202.857957 277.763153 
L 203.887511 277.763153 
L 205.113171 277.763153 
L 208.005728 277.763153 
L 209.525546 277.763153 
L 210.996338 277.763153 
L 212.516156 277.763153 
L 213.986948 277.763153 
L 215.506766 277.763153 
L 217.026584 277.763153 
L 218.44835 277.763153 
L 219.968168 277.763153 
L 221.438959 277.763153 
L 222.958778 277.763153 
L 224.429569 277.763153 
L 225.949388 277.763153 
L 227.469206 277.763153 
L 228.939997 277.763153 
L 230.459816 277.763153 
L 231.930607 277.763153 
L 233.450426 277.763153 
L 234.970244 277.763153 
L 236.342983 277.763153 
L 237.862801 277.763153 
L 239.333593 277.763153 
L 240.853411 277.763153 
L 242.324203 277.763153 
L 243.844021 277.763153 
L 245.363839 277.763153 
L 246.834631 277.763153 
L 248.354449 277.763153 
L 249.825241 277.763153 
L 251.345059 277.763153 
L 252.864877 277.763153 
L 254.237616 277.763153 
L 255.757434 277.763153 
L 257.228226 277.763153 
L 258.748044 277.763153 
L 260.218836 277.763153 
L 261.738654 277.763153 
L 263.258472 277.763153 
L 264.729264 277.763153 
L 266.249082 277.763153 
L 267.719874 277.763153 
L 269.239692 277.763153 
L 270.75951 277.763153 
L 272.132249 277.763153 
L 273.652067 277.763153 
L 275.122859 277.763153 
L 276.642677 277.763153 
L 278.113469 277.763153 
L 279.633287 277.763153 
L 281.153105 277.763153 
L 282.623897 277.763153 
L 284.143715 277.763153 
L 285.614507 277.763153 
L 287.134325 277.763153 
L 288.654143 277.763153 
L 290.075909 277.763153 
L 291.595727 277.763153 
L 293.066518 277.763153 
L 294.586337 277.763153 
L 296.057128 277.763153 
L 297.576947 277.763153 
L 299.096765 277.763153 
L 300.567557 277.763153 
L 302.087375 277.763153 
L 303.558166 277.763153 
L 305.077985 277.763153 
L 306.597803 277.763153 
L 307.970542 277.763153 
L 309.49036 277.763153 
L 310.961152 277.763153 
L 312.48097 277.763153 
L 313.951762 277.763153 
L 315.47158 277.763153 
L 316.991398 277.763153 
L 318.46219 277.763153 
L 319.982008 277.763153 
L 321.4528 277.763153 
L 322.972618 277.763153 
L 324.492436 277.763153 
L 325.865175 277.763153 
L 327.384993 277.763153 
L 328.855785 277.763153 
L 330.375603 277.763153 
L 331.846395 277.763153 
L 333.366213 277.763153 
L 334.886031 277.763153 
L 336.356823 277.763153 
L 337.876641 277.763153 
L 339.347433 277.763153 
L 340.867251 277.763153 
L 342.387069 277.763153 
L 343.759808 277.763153 
L 345.279626 277.763153 
L 346.750418 277.763153 
L 348.270236 277.763153 
L 349.741028 277.763153 
L 351.260846 277.763153 
L 352.780664 277.763153 
L 354.251456 277.763153 
L 355.771274 277.763153 
L 357.242066 277.763153 
L 358.761884 277.763153 
L 360.281702 277.763153 
L 361.703468 277.763153 
L 363.223286 277.763153 
L 364.694078 277.763153 
L 366.213896 277.763153 
L 367.684687 277.763153 
L 369.204506 277.763153 
L 370.724324 277.763153 
L 372.195116 277.763153 
L 373.714934 277.763153 
L 375.185725 277.763153 
L 376.705544 277.763153 
L 378.225362 277.763153 
L 379.598101 277.763153 
L 381.117919 277.763153 
L 382.588711 277.763153 
L 384.108529 277.763153 
L 385.579321 277.763153 
L 387.099139 277.763153 
L 388.618957 277.763153 
L 390.089749 277.763153 
L 391.609567 277.763153 
L 393.080359 277.763153 
L 394.600177 277.763153 
L 396.119995 277.763153 
L 397.492734 277.763153 
L 399.012552 277.763153 
L 400.483344 277.763153 
L 402.003162 277.763153 
L 403.473954 277.763153 
L 404.993772 277.763153 
L 406.51359 277.763153 
L 407.984382 277.763153 
L 409.5042 277.763153 
L 410.974992 277.763153 
L 412.49481 277.763153 
L 414.014628 277.763153 
L 415.387367 277.763153 
L 416.907185 277.763153 
L 418.377977 277.763153 
L 419.897795 277.763153 
L 421.368587 277.763153 
L 422.888405 277.763153 
L 424.408223 277.763153 
L 425.879015 277.763153 
L 427.398833 277.763153 
L 428.869625 277.763153 
L 430.389443 277.763153 
L 431.909261 277.763153 
L 433.331027 277.763153 
L 434.850845 277.763153 
L 436.321637 277.763153 
L 437.841455 277.763153 
L 439.312246 277.763153 
L 440.832065 277.763153 
L 442.351883 277.763153 
L 443.822675 277.763153 
L 445.342493 277.763153 
L 446.813285 277.763153 
L 448.333103 277.763153 
L 449.852921 277.763153 
L 449.852921 171.31705 
L 449.852921 171.31705 
L 448.333103 173.552654 
L 446.813285 174.337076 
L 445.342493 174.572403 
L 443.822675 174.572403 
L 442.351883 174.807729 
L 440.832065 174.807729 
L 439.312246 175.670594 
L 437.841455 176.219689 
L 436.321637 176.337353 
L 434.850845 176.455016 
L 433.331027 176.533458 
L 431.909261 178.219966 
L 430.389443 178.337629 
L 428.869625 178.376851 
L 427.398833 178.612177 
L 425.879015 178.729841 
L 424.408223 178.769062 
L 422.888405 178.886725 
L 421.368587 179.357378 
L 419.897795 179.592705 
L 418.377977 179.710368 
L 416.907185 179.710368 
L 415.387367 180.063359 
L 414.014628 180.651675 
L 412.49481 180.612454 
L 410.974992 180.730117 
L 409.5042 180.847781 
L 407.984382 181.083107 
L 406.51359 181.083107 
L 404.993772 181.122329 
L 403.473954 181.122329 
L 402.003162 181.083107 
L 400.483344 181.16155 
L 399.012552 181.083107 
L 397.492734 181.043886 
L 396.119995 181.083107 
L 394.600177 181.083107 
L 393.080359 181.279213 
L 391.609567 181.475319 
L 390.089749 181.789088 
L 388.618957 182.024414 
L 387.099139 181.985193 
L 385.579321 182.181299 
L 384.108529 182.455846 
L 382.588711 182.455846 
L 381.117919 182.612731 
L 379.598101 183.122605 
L 378.225362 183.240269 
L 376.705544 183.671701 
L 375.185725 183.710922 
L 373.714934 183.867807 
L 372.195116 183.946249 
L 370.724324 184.103133 
L 369.204506 184.142354 
L 367.684687 184.220797 
L 366.213896 184.220797 
L 364.694078 184.299239 
L 363.223286 184.652229 
L 361.703468 184.769892 
L 360.281702 184.848334 
L 358.761884 184.926777 
L 357.242066 184.926777 
L 355.771274 184.926777 
L 354.251456 185.04444 
L 352.780664 185.122882 
L 351.260846 185.279767 
L 349.741028 185.515093 
L 348.270236 185.632757 
L 346.750418 185.711199 
L 345.279626 185.789641 
L 343.759808 185.828862 
L 342.387069 185.828862 
L 340.867251 185.868083 
L 339.347433 185.907304 
L 337.876641 185.985747 
L 336.356823 186.024968 
L 334.886031 186.024968 
L 333.366213 186.142631 
L 331.846395 186.260294 
L 330.375603 186.495621 
L 328.855785 186.652506 
L 327.384993 186.966275 
L 325.865175 187.123159 
L 324.492436 187.280043 
L 322.972618 187.319265 
L 321.4528 187.476149 
L 319.982008 187.633033 
L 318.46219 189.358762 
L 316.991398 189.63331 
L 315.47158 190.378511 
L 313.951762 189.750974 
L 312.48097 189.672531 
L 310.961152 189.711752 
L 309.49036 189.790195 
L 307.970542 190.064743 
L 306.597803 190.103964 
L 305.077985 190.182406 
L 303.558166 190.927607 
L 302.087375 191.04527 
L 300.567557 191.241376 
L 299.096765 191.319818 
L 297.576947 191.437482 
L 296.057128 191.868914 
L 294.586337 192.065019 
L 293.066518 192.065019 
L 291.595727 192.45723 
L 290.075909 192.535673 
L 288.654143 192.574894 
L 287.134325 192.770999 
L 285.614507 192.849442 
L 284.143715 192.849442 
L 282.623897 193.045547 
L 281.153105 193.084768 
L 279.633287 193.123989 
L 278.113469 193.280874 
L 276.642677 193.398537 
L 275.122859 192.81022 
L 273.652067 192.888663 
L 272.132249 193.084768 
L 270.75951 193.084768 
L 269.239692 193.320095 
L 267.719874 193.476979 
L 266.249082 193.751527 
L 264.729264 194.104517 
L 263.258472 194.418286 
L 261.738654 194.496728 
L 260.218836 194.771276 
L 258.748044 195.006603 
L 257.228226 195.359593 
L 255.757434 195.516477 
L 254.237616 195.712583 
L 252.864877 195.751804 
L 251.345059 195.751804 
L 249.825241 195.94791 
L 248.354449 196.418563 
L 246.834631 196.457784 
L 245.363839 196.693111 
L 243.844021 197.35987 
L 242.324203 197.438312 
L 240.853411 197.908965 
L 239.333593 198.222734 
L 237.862801 199.281704 
L 236.342983 199.360146 
L 234.970244 199.47781 
L 233.450426 199.752358 
L 231.930607 199.8308 
L 230.459816 200.066127 
L 228.939997 200.262232 
L 227.469206 200.615222 
L 225.949388 200.811328 
L 224.429569 200.928991 
L 222.958778 201.164318 
L 221.438959 201.203539 
L 219.968168 201.321202 
L 218.44835 201.478087 
L 217.026584 201.478087 
L 215.506766 201.556529 
L 213.986948 201.59575 
L 212.516156 201.634971 
L 210.996338 201.674192 
L 209.525546 201.713413 
L 208.005728 201.831077 
L 205.113171 202.576278 
L 203.887511 202.772383 
L 202.857957 202.811604 
L 201.632297 202.693941 
L 200.651769 202.693941 
L 199.27903 202.811604 
L 196.484526 202.929268 
L 193.788074 203.556806 
L 192.954626 204.498112 
L 191.630913 204.341228 
L 190.258174 204.302007 
L 188.591277 205.007987 
L 187.561722 205.007987 
L 186.532168 204.77266 
L 182.02174 205.282535 
L 181.090239 205.360977 
L 176.285652 206.027736 
L 173.883359 206.106178 
L 173.098937 205.949294 
L 172.118409 206.066957 
L 171.481066 206.263063 
L 170.941775 206.302284 
L 167.706034 206.419947 
L 164.22516 206.498389 
L 162.46021 206.694495 
L 160.744286 208.773214 
L 157.655623 208.694772 
L 156.871201 208.733993 
L 155.596515 209.165425 
L 153.537406 210.263616 
L 150.350691 210.498943 
L 149.174057 210.891154 
L 146.428579 211.165702 
L 144.957788 211.989345 
L 143.241864 212.538441 
L 141.280808 212.969873 
L 139.859043 213.009094 
L 138.780462 213.087536 
L 138.045066 213.126757 
L 136.966486 213.165979 
L 135.936931 213.871959 
L 135.250562 214.224949 
L 135.054456 214.224949 
L 134.31906 214.224949 
L 133.338533 214.460275 
L 131.965794 214.224949 
L 131.47553 214.421054 
L 130.936239 214.499496 
L 130.151817 214.61716 
L 129.416421 214.61716 
L 128.730052 214.930929 
L 127.749524 215.636909 
L 127.406339 215.597688 
L 126.474838 215.950678 
L 125.298204 216.02912 
L 124.415729 216.107562 
L 123.925465 216.186004 
L 123.092017 216.303668 
L 122.552726 216.538994 
L 121.719278 216.7351 
L 121.032908 216.656658 
L 120.19946 216.7351 
L 116.963718 217.009648 
L 116.718586 216.970427 
L 114.75753 217.284195 
L 110.492234 215.401582 
L 108.187993 218.186281 
L 99.26519 221.833845 
L 84.900457 225.246082 
L 65.387953 229.638846 
L 48.5719 224.579323 
L 40.384493 223.951785 
L 32.099033 224.775428 
z
" clip-path="url(#p06627649c4)" style="fill: #fb363b"/>
   </g>
   <g id="PolyCollection_2">
    <path d="M 32.099033 144.136818 
L 32.099033 224.775428 
L 40.384493 223.951785 
L 48.5719 224.579323 
L 65.387953 229.638846 
L 84.900457 225.246082 
L 99.26519 221.833845 
L 108.187993 218.186281 
L 110.492234 215.401582 
L 114.75753 217.284195 
L 116.718586 216.970427 
L 116.963718 217.009648 
L 120.19946 216.7351 
L 121.032908 216.656658 
L 121.719278 216.7351 
L 122.552726 216.538994 
L 123.092017 216.303668 
L 123.925465 216.186004 
L 124.415729 216.107562 
L 125.298204 216.02912 
L 126.474838 215.950678 
L 127.406339 215.597688 
L 127.749524 215.636909 
L 128.730052 214.930929 
L 129.416421 214.61716 
L 130.151817 214.61716 
L 130.936239 214.499496 
L 131.47553 214.421054 
L 131.965794 214.224949 
L 133.338533 214.460275 
L 134.31906 214.224949 
L 135.054456 214.224949 
L 135.250562 214.224949 
L 135.936931 213.871959 
L 136.966486 213.165979 
L 138.045066 213.126757 
L 138.780462 213.087536 
L 139.859043 213.009094 
L 141.280808 212.969873 
L 143.241864 212.538441 
L 144.957788 211.989345 
L 146.428579 211.165702 
L 149.174057 210.891154 
L 150.350691 210.498943 
L 153.537406 210.263616 
L 155.596515 209.165425 
L 156.871201 208.733993 
L 157.655623 208.694772 
L 160.744286 208.773214 
L 162.46021 206.694495 
L 164.22516 206.498389 
L 167.706034 206.419947 
L 170.941775 206.302284 
L 171.481066 206.263063 
L 172.118409 206.066957 
L 173.098937 205.949294 
L 173.883359 206.106178 
L 176.285652 206.027736 
L 181.090239 205.360977 
L 182.02174 205.282535 
L 186.532168 204.77266 
L 187.561722 205.007987 
L 188.591277 205.007987 
L 190.258174 204.302007 
L 191.630913 204.341228 
L 192.954626 204.498112 
L 193.788074 203.556806 
L 196.484526 202.929268 
L 199.27903 202.811604 
L 200.651769 202.693941 
L 201.632297 202.693941 
L 202.857957 202.811604 
L 203.887511 202.772383 
L 205.113171 202.576278 
L 208.005728 201.831077 
L 209.525546 201.713413 
L 210.996338 201.674192 
L 212.516156 201.634971 
L 213.986948 201.59575 
L 215.506766 201.556529 
L 217.026584 201.478087 
L 218.44835 201.478087 
L 219.968168 201.321202 
L 221.438959 201.203539 
L 222.958778 201.164318 
L 224.429569 200.928991 
L 225.949388 200.811328 
L 227.469206 200.615222 
L 228.939997 200.262232 
L 230.459816 200.066127 
L 231.930607 199.8308 
L 233.450426 199.752358 
L 234.970244 199.47781 
L 236.342983 199.360146 
L 237.862801 199.281704 
L 239.333593 198.222734 
L 240.853411 197.908965 
L 242.324203 197.438312 
L 243.844021 197.35987 
L 245.363839 196.693111 
L 246.834631 196.457784 
L 248.354449 196.418563 
L 249.825241 195.94791 
L 251.345059 195.751804 
L 252.864877 195.751804 
L 254.237616 195.712583 
L 255.757434 195.516477 
L 257.228226 195.359593 
L 258.748044 195.006603 
L 260.218836 194.771276 
L 261.738654 194.496728 
L 263.258472 194.418286 
L 264.729264 194.104517 
L 266.249082 193.751527 
L 267.719874 193.476979 
L 269.239692 193.320095 
L 270.75951 193.084768 
L 272.132249 193.084768 
L 273.652067 192.888663 
L 275.122859 192.81022 
L 276.642677 193.398537 
L 278.113469 193.280874 
L 279.633287 193.123989 
L 281.153105 193.084768 
L 282.623897 193.045547 
L 284.143715 192.849442 
L 285.614507 192.849442 
L 287.134325 192.770999 
L 288.654143 192.574894 
L 290.075909 192.535673 
L 291.595727 192.45723 
L 293.066518 192.065019 
L 294.586337 192.065019 
L 296.057128 191.868914 
L 297.576947 191.437482 
L 299.096765 191.319818 
L 300.567557 191.241376 
L 302.087375 191.04527 
L 303.558166 190.927607 
L 305.077985 190.182406 
L 306.597803 190.103964 
L 307.970542 190.064743 
L 309.49036 189.790195 
L 310.961152 189.711752 
L 312.48097 189.672531 
L 313.951762 189.750974 
L 315.47158 190.378511 
L 316.991398 189.63331 
L 318.46219 189.358762 
L 319.982008 187.633033 
L 321.4528 187.476149 
L 322.972618 187.319265 
L 324.492436 187.280043 
L 325.865175 187.123159 
L 327.384993 186.966275 
L 328.855785 186.652506 
L 330.375603 186.495621 
L 331.846395 186.260294 
L 333.366213 186.142631 
L 334.886031 186.024968 
L 336.356823 186.024968 
L 337.876641 185.985747 
L 339.347433 185.907304 
L 340.867251 185.868083 
L 342.387069 185.828862 
L 343.759808 185.828862 
L 345.279626 185.789641 
L 346.750418 185.711199 
L 348.270236 185.632757 
L 349.741028 185.515093 
L 351.260846 185.279767 
L 352.780664 185.122882 
L 354.251456 185.04444 
L 355.771274 184.926777 
L 357.242066 184.926777 
L 358.761884 184.926777 
L 360.281702 184.848334 
L 361.703468 184.769892 
L 363.223286 184.652229 
L 364.694078 184.299239 
L 366.213896 184.220797 
L 367.684687 184.220797 
L 369.204506 184.142354 
L 370.724324 184.103133 
L 372.195116 183.946249 
L 373.714934 183.867807 
L 375.185725 183.710922 
L 376.705544 183.671701 
L 378.225362 183.240269 
L 379.598101 183.122605 
L 381.117919 182.612731 
L 382.588711 182.455846 
L 384.108529 182.455846 
L 385.579321 182.181299 
L 387.099139 181.985193 
L 388.618957 182.024414 
L 390.089749 181.789088 
L 391.609567 181.475319 
L 393.080359 181.279213 
L 394.600177 181.083107 
L 396.119995 181.083107 
L 397.492734 181.043886 
L 399.012552 181.083107 
L 400.483344 181.16155 
L 402.003162 181.083107 
L 403.473954 181.122329 
L 404.993772 181.122329 
L 406.51359 181.083107 
L 407.984382 181.083107 
L 409.5042 180.847781 
L 410.974992 180.730117 
L 412.49481 180.612454 
L 414.014628 180.651675 
L 415.387367 180.063359 
L 416.907185 179.710368 
L 418.377977 179.710368 
L 419.897795 179.592705 
L 421.368587 179.357378 
L 422.888405 178.886725 
L 424.408223 178.769062 
L 425.879015 178.729841 
L 427.398833 178.612177 
L 428.869625 178.376851 
L 430.389443 178.337629 
L 431.909261 178.219966 
L 433.331027 176.533458 
L 434.850845 176.455016 
L 436.321637 176.337353 
L 437.841455 176.219689 
L 439.312246 175.670594 
L 440.832065 174.807729 
L 442.351883 174.807729 
L 443.822675 174.572403 
L 445.342493 174.572403 
L 446.813285 174.337076 
L 448.333103 173.552654 
L 449.852921 171.31705 
L 449.852921 102.013342 
L 449.852921 102.013342 
L 448.333103 101.974121 
L 446.813285 102.523217 
L 445.342493 102.601659 
L 443.822675 102.719322 
L 442.351883 102.758543 
L 440.832065 102.99387 
L 439.312246 102.876207 
L 437.841455 102.836985 
L 436.321637 102.99387 
L 434.850845 103.072312 
L 433.331027 103.033091 
L 431.909261 103.307639 
L 430.389443 103.582187 
L 428.869625 103.582187 
L 427.398833 103.69985 
L 425.879015 103.856734 
L 424.408223 103.935177 
L 422.888405 103.935177 
L 421.368587 104.209724 
L 419.897795 104.445051 
L 418.377977 104.562714 
L 416.907185 104.562714 
L 415.387367 104.601936 
L 414.014628 104.75882 
L 412.49481 104.876483 
L 410.974992 104.954926 
L 409.5042 104.954926 
L 407.984382 104.994147 
L 406.51359 104.876483 
L 404.993772 104.915705 
L 403.473954 104.915705 
L 402.003162 105.11181 
L 400.483344 105.072589 
L 399.012552 105.072589 
L 397.492734 105.11181 
L 396.119995 105.190252 
L 394.600177 105.190252 
L 393.080359 105.307916 
L 391.609567 105.268695 
L 390.089749 105.386358 
L 388.618957 105.425579 
L 387.099139 105.4648 
L 385.579321 105.504021 
L 384.108529 105.543242 
L 382.588711 105.504021 
L 381.117919 105.621685 
L 379.598101 105.81779 
L 378.225362 105.974675 
L 376.705544 106.013896 
L 375.185725 106.013896 
L 373.714934 106.092338 
L 372.195116 106.131559 
L 370.724324 106.210001 
L 369.204506 106.210001 
L 367.684687 106.249222 
L 366.213896 106.288443 
L 364.694078 106.17078 
L 363.223286 106.131559 
L 361.703468 106.17078 
L 360.281702 106.092338 
L 358.761884 106.092338 
L 357.242066 106.092338 
L 355.771274 106.092338 
L 354.251456 106.092338 
L 352.780664 106.131559 
L 351.260846 106.092338 
L 349.741028 106.131559 
L 348.270236 106.131559 
L 346.750418 106.013896 
L 345.279626 106.013896 
L 343.759808 106.053117 
L 342.387069 106.053117 
L 340.867251 106.131559 
L 339.347433 106.131559 
L 337.876641 106.210001 
L 336.356823 106.210001 
L 334.886031 106.210001 
L 333.366213 106.249222 
L 331.846395 106.249222 
L 330.375603 106.249222 
L 328.855785 106.288443 
L 327.384993 106.327665 
L 325.865175 106.641434 
L 324.492436 106.759097 
L 322.972618 106.680655 
L 321.4528 106.759097 
L 319.982008 106.87676 
L 318.46219 106.915981 
L 316.991398 107.465077 
L 315.47158 107.778846 
L 313.951762 109.936007 
L 312.48097 111.151862 
L 310.961152 111.583294 
L 309.49036 111.583294 
L 307.970542 111.897063 
L 306.597803 111.818621 
L 305.077985 111.034198 
L 303.558166 111.230304 
L 302.087375 111.661736 
L 300.567557 111.661736 
L 299.096765 111.544073 
L 297.576947 111.700957 
L 296.057128 111.740178 
L 294.586337 111.740178 
L 293.066518 111.779399 
L 291.595727 111.857842 
L 290.075909 111.857842 
L 288.654143 111.897063 
L 287.134325 111.897063 
L 285.614507 112.014726 
L 284.143715 112.053947 
L 282.623897 112.093168 
L 281.153105 112.093168 
L 279.633287 112.053947 
L 278.113469 112.093168 
L 276.642677 112.053947 
L 275.122859 112.681485 
L 273.652067 112.642264 
L 272.132249 112.720706 
L 270.75951 112.799148 
L 269.239692 112.916812 
L 267.719874 112.877591 
L 266.249082 113.152138 
L 264.729264 113.269802 
L 263.258472 113.426686 
L 261.738654 113.622792 
L 260.218836 113.662013 
L 258.748044 113.583571 
L 257.228226 113.662013 
L 255.757434 113.701234 
L 254.237616 113.701234 
L 252.864877 113.701234 
L 251.345059 113.701234 
L 249.825241 113.858118 
L 248.354449 113.936561 
L 246.834631 114.171887 
L 245.363839 114.211108 
L 243.844021 114.446435 
L 242.324203 114.524877 
L 240.853411 114.760204 
L 239.333593 114.877867 
L 237.862801 115.034752 
L 236.342983 115.073973 
L 234.970244 115.113194 
L 233.450426 115.270079 
L 231.930607 115.270079 
L 230.459816 115.466184 
L 228.939997 115.740732 
L 227.469206 115.897616 
L 225.949388 116.054501 
L 224.429569 116.250606 
L 222.958778 116.329049 
L 221.438959 116.642818 
L 219.968168 116.642818 
L 218.44835 116.682039 
L 217.026584 116.682039 
L 215.506766 116.682039 
L 213.986948 116.682039 
L 212.516156 116.682039 
L 210.996338 116.72126 
L 209.525546 116.878144 
L 208.005728 116.956586 
L 205.113171 117.42724 
L 203.887511 118.015557 
L 202.857957 118.290104 
L 201.632297 117.741009 
L 200.651769 118.054778 
L 199.27903 118.172441 
L 196.484526 118.329325 
L 193.788074 118.329325 
L 192.954626 118.48621 
L 191.630913 118.996084 
L 190.258174 118.956863 
L 188.591277 119.858949 
L 187.561722 119.858949 
L 186.532168 120.290381 
L 182.02174 120.564929 
L 181.090239 120.643371 
L 176.285652 121.741562 
L 173.883359 122.72209 
L 173.098937 122.761311 
L 172.118409 122.761311 
L 171.481066 122.761311 
L 170.941775 122.800532 
L 167.706034 122.3691 
L 164.22516 122.878975 
L 162.46021 123.07508 
L 160.744286 123.271186 
L 157.655623 123.388849 
L 156.871201 123.467291 
L 155.596515 123.663397 
L 153.537406 123.977166 
L 150.350691 123.820281 
L 149.174057 124.13405 
L 146.428579 124.094829 
L 144.957788 124.016387 
L 143.241864 124.369377 
L 141.280808 124.290935 
L 139.859043 124.173271 
L 138.780462 124.447819 
L 138.045066 124.48704 
L 136.966486 123.741839 
L 135.936931 123.78106 
L 135.250562 123.937945 
L 135.054456 123.937945 
L 134.31906 123.898724 
L 133.338533 124.408598 
L 131.965794 123.859502 
L 131.47553 123.859502 
L 130.936239 123.898724 
L 130.151817 123.937945 
L 129.416421 123.741839 
L 128.730052 124.173271 
L 127.749524 124.290935 
L 127.406339 124.055608 
L 126.474838 124.212492 
L 125.298204 124.173271 
L 124.415729 124.683146 
L 123.925465 124.604704 
L 123.092017 124.604704 
L 122.552726 122.839754 
L 121.719278 123.231965 
L 121.032908 122.251437 
L 120.19946 122.01611 
L 116.963718 122.290658 
L 116.718586 122.133773 
L 114.75753 122.408321 
L 110.492234 124.173271 
L 108.187993 125.036136 
L 99.26519 127.114855 
L 84.900457 130.09566 
L 65.387953 133.900108 
L 48.5719 139.97938 
L 40.384493 143.823049 
L 32.099033 144.136818 
z
" clip-path="url(#p06627649c4)" style="fill: #fdc92c"/>
   </g>
   <g id="PolyCollection_3">
    <path d="M 32.099033 113.230581 
L 32.099033 144.136818 
L 40.384493 143.823049 
L 48.5719 139.97938 
L 65.387953 133.900108 
L 84.900457 130.09566 
L 99.26519 127.114855 
L 108.187993 125.036136 
L 110.492234 124.173271 
L 114.75753 122.408321 
L 116.718586 122.133773 
L 116.963718 122.290658 
L 120.19946 122.01611 
L 121.032908 122.251437 
L 121.719278 123.231965 
L 122.552726 122.839754 
L 123.092017 124.604704 
L 123.925465 124.604704 
L 124.415729 124.683146 
L 125.298204 124.173271 
L 126.474838 124.212492 
L 127.406339 124.055608 
L 127.749524 124.290935 
L 128.730052 124.173271 
L 129.416421 123.741839 
L 130.151817 123.937945 
L 130.936239 123.898724 
L 131.47553 123.859502 
L 131.965794 123.859502 
L 133.338533 124.408598 
L 134.31906 123.898724 
L 135.054456 123.937945 
L 135.250562 123.937945 
L 135.936931 123.78106 
L 136.966486 123.741839 
L 138.045066 124.48704 
L 138.780462 124.447819 
L 139.859043 124.173271 
L 141.280808 124.290935 
L 143.241864 124.369377 
L 144.957788 124.016387 
L 146.428579 124.094829 
L 149.174057 124.13405 
L 150.350691 123.820281 
L 153.537406 123.977166 
L 155.596515 123.663397 
L 156.871201 123.467291 
L 157.655623 123.388849 
L 160.744286 123.271186 
L 162.46021 123.07508 
L 164.22516 122.878975 
L 167.706034 122.3691 
L 170.941775 122.800532 
L 171.481066 122.761311 
L 172.118409 122.761311 
L 173.098937 122.761311 
L 173.883359 122.72209 
L 176.285652 121.741562 
L 181.090239 120.643371 
L 182.02174 120.564929 
L 186.532168 120.290381 
L 187.561722 119.858949 
L 188.591277 119.858949 
L 190.258174 118.956863 
L 191.630913 118.996084 
L 192.954626 118.48621 
L 193.788074 118.329325 
L 196.484526 118.329325 
L 199.27903 118.172441 
L 200.651769 118.054778 
L 201.632297 117.741009 
L 202.857957 118.290104 
L 203.887511 118.015557 
L 205.113171 117.42724 
L 208.005728 116.956586 
L 209.525546 116.878144 
L 210.996338 116.72126 
L 212.516156 116.682039 
L 213.986948 116.682039 
L 215.506766 116.682039 
L 217.026584 116.682039 
L 218.44835 116.682039 
L 219.968168 116.642818 
L 221.438959 116.642818 
L 222.958778 116.329049 
L 224.429569 116.250606 
L 225.949388 116.054501 
L 227.469206 115.897616 
L 228.939997 115.740732 
L 230.459816 115.466184 
L 231.930607 115.270079 
L 233.450426 115.270079 
L 234.970244 115.113194 
L 236.342983 115.073973 
L 237.862801 115.034752 
L 239.333593 114.877867 
L 240.853411 114.760204 
L 242.324203 114.524877 
L 243.844021 114.446435 
L 245.363839 114.211108 
L 246.834631 114.171887 
L 248.354449 113.936561 
L 249.825241 113.858118 
L 251.345059 113.701234 
L 252.864877 113.701234 
L 254.237616 113.701234 
L 255.757434 113.701234 
L 257.228226 113.662013 
L 258.748044 113.583571 
L 260.218836 113.662013 
L 261.738654 113.622792 
L 263.258472 113.426686 
L 264.729264 113.269802 
L 266.249082 113.152138 
L 267.719874 112.877591 
L 269.239692 112.916812 
L 270.75951 112.799148 
L 272.132249 112.720706 
L 273.652067 112.642264 
L 275.122859 112.681485 
L 276.642677 112.053947 
L 278.113469 112.093168 
L 279.633287 112.053947 
L 281.153105 112.093168 
L 282.623897 112.093168 
L 284.143715 112.053947 
L 285.614507 112.014726 
L 287.134325 111.897063 
L 288.654143 111.897063 
L 290.075909 111.857842 
L 291.595727 111.857842 
L 293.066518 111.779399 
L 294.586337 111.740178 
L 296.057128 111.740178 
L 297.576947 111.700957 
L 299.096765 111.544073 
L 300.567557 111.661736 
L 302.087375 111.661736 
L 303.558166 111.230304 
L 305.077985 111.034198 
L 306.597803 111.818621 
L 307.970542 111.897063 
L 309.49036 111.583294 
L 310.961152 111.583294 
L 312.48097 111.151862 
L 313.951762 109.936007 
L 315.47158 107.778846 
L 316.991398 107.465077 
L 318.46219 106.915981 
L 319.982008 106.87676 
L 321.4528 106.759097 
L 322.972618 106.680655 
L 324.492436 106.759097 
L 325.865175 106.641434 
L 327.384993 106.327665 
L 328.855785 106.288443 
L 330.375603 106.249222 
L 331.846395 106.249222 
L 333.366213 106.249222 
L 334.886031 106.210001 
L 336.356823 106.210001 
L 337.876641 106.210001 
L 339.347433 106.131559 
L 340.867251 106.131559 
L 342.387069 106.053117 
L 343.759808 106.053117 
L 345.279626 106.013896 
L 346.750418 106.013896 
L 348.270236 106.131559 
L 349.741028 106.131559 
L 351.260846 106.092338 
L 352.780664 106.131559 
L 354.251456 106.092338 
L 355.771274 106.092338 
L 357.242066 106.092338 
L 358.761884 106.092338 
L 360.281702 106.092338 
L 361.703468 106.17078 
L 363.223286 106.131559 
L 364.694078 106.17078 
L 366.213896 106.288443 
L 367.684687 106.249222 
L 369.204506 106.210001 
L 370.724324 106.210001 
L 372.195116 106.131559 
L 373.714934 106.092338 
L 375.185725 106.013896 
L 376.705544 106.013896 
L 378.225362 105.974675 
L 379.598101 105.81779 
L 381.117919 105.621685 
L 382.588711 105.504021 
L 384.108529 105.543242 
L 385.579321 105.504021 
L 387.099139 105.4648 
L 388.618957 105.425579 
L 390.089749 105.386358 
L 391.609567 105.268695 
L 393.080359 105.307916 
L 394.600177 105.190252 
L 396.119995 105.190252 
L 397.492734 105.11181 
L 399.012552 105.072589 
L 400.483344 105.072589 
L 402.003162 105.11181 
L 403.473954 104.915705 
L 404.993772 104.915705 
L 406.51359 104.876483 
L 407.984382 104.994147 
L 409.5042 104.954926 
L 410.974992 104.954926 
L 412.49481 104.876483 
L 414.014628 104.75882 
L 415.387367 104.601936 
L 416.907185 104.562714 
L 418.377977 104.562714 
L 419.897795 104.445051 
L 421.368587 104.209724 
L 422.888405 103.935177 
L 424.408223 103.935177 
L 425.879015 103.856734 
L 427.398833 103.69985 
L 428.869625 103.582187 
L 430.389443 103.582187 
L 431.909261 103.307639 
L 433.331027 103.033091 
L 434.850845 103.072312 
L 436.321637 102.99387 
L 437.841455 102.836985 
L 439.312246 102.876207 
L 440.832065 102.99387 
L 442.351883 102.758543 
L 443.822675 102.719322 
L 445.342493 102.601659 
L 446.813285 102.523217 
L 448.333103 101.974121 
L 449.852921 102.013342 
L 449.852921 88.991932 
L 449.852921 88.991932 
L 448.333103 88.991932 
L 446.813285 88.991932 
L 445.342493 88.991932 
L 443.822675 88.991932 
L 442.351883 88.952711 
L 440.832065 89.305701 
L 439.312246 89.541028 
L 437.841455 89.541028 
L 436.321637 89.580249 
L 434.850845 89.580249 
L 433.331027 89.580249 
L 431.909261 89.61947 
L 430.389443 89.61947 
L 428.869625 89.61947 
L 427.398833 89.658691 
L 425.879015 89.658691 
L 424.408223 89.658691 
L 422.888405 89.658691 
L 421.368587 89.737133 
L 419.897795 89.737133 
L 418.377977 89.737133 
L 416.907185 89.737133 
L 415.387367 89.737133 
L 414.014628 89.776355 
L 412.49481 89.776355 
L 410.974992 89.854797 
L 409.5042 89.854797 
L 407.984382 89.894018 
L 406.51359 89.894018 
L 404.993772 89.894018 
L 403.473954 89.894018 
L 402.003162 89.97246 
L 400.483344 90.050902 
L 399.012552 90.050902 
L 397.492734 90.050902 
L 396.119995 90.050902 
L 394.600177 90.050902 
L 393.080359 90.090124 
L 391.609567 90.050902 
L 390.089749 90.129345 
L 388.618957 90.129345 
L 387.099139 90.129345 
L 385.579321 90.168566 
L 384.108529 90.168566 
L 382.588711 90.168566 
L 381.117919 90.207787 
L 379.598101 90.247008 
L 378.225362 90.286229 
L 376.705544 90.286229 
L 375.185725 90.247008 
L 373.714934 90.247008 
L 372.195116 90.247008 
L 370.724324 90.207787 
L 369.204506 90.207787 
L 367.684687 90.247008 
L 366.213896 90.247008 
L 364.694078 90.168566 
L 363.223286 90.129345 
L 361.703468 90.129345 
L 360.281702 90.168566 
L 358.761884 90.168566 
L 357.242066 90.168566 
L 355.771274 90.168566 
L 354.251456 90.168566 
L 352.780664 90.168566 
L 351.260846 90.168566 
L 349.741028 90.168566 
L 348.270236 90.168566 
L 346.750418 90.090124 
L 345.279626 90.090124 
L 343.759808 90.090124 
L 342.387069 90.090124 
L 340.867251 90.050902 
L 339.347433 90.050902 
L 337.876641 90.129345 
L 336.356823 90.129345 
L 334.886031 90.129345 
L 333.366213 90.168566 
L 331.846395 90.168566 
L 330.375603 90.168566 
L 328.855785 90.207787 
L 327.384993 90.247008 
L 325.865175 90.32545 
L 324.492436 90.32545 
L 322.972618 90.32545 
L 321.4528 90.482335 
L 319.982008 90.482335 
L 318.46219 90.482335 
L 316.991398 90.364671 
L 315.47158 90.403892 
L 313.951762 90.599998 
L 312.48097 91.541305 
L 310.961152 91.698189 
L 309.49036 91.73741 
L 307.970542 91.776631 
L 306.597803 91.776631 
L 305.077985 91.776631 
L 303.558166 91.776631 
L 302.087375 91.815853 
L 300.567557 91.815853 
L 299.096765 91.855074 
L 297.576947 91.894295 
L 296.057128 91.933516 
L 294.586337 91.933516 
L 293.066518 91.933516 
L 291.595727 91.933516 
L 290.075909 91.933516 
L 288.654143 91.972737 
L 287.134325 91.972737 
L 285.614507 92.011958 
L 284.143715 92.051179 
L 282.623897 92.051179 
L 281.153105 92.051179 
L 279.633287 92.051179 
L 278.113469 92.051179 
L 276.642677 92.051179 
L 275.122859 92.051179 
L 273.652067 92.051179 
L 272.132249 92.129621 
L 270.75951 92.129621 
L 269.239692 92.129621 
L 267.719874 92.168843 
L 266.249082 92.168843 
L 264.729264 92.208064 
L 263.258472 92.364948 
L 261.738654 93.306255 
L 260.218836 93.306255 
L 258.748044 93.306255 
L 257.228226 93.384697 
L 255.757434 93.384697 
L 254.237616 93.384697 
L 252.864877 93.384697 
L 251.345059 93.384697 
L 249.825241 93.384697 
L 248.354449 93.463139 
L 246.834631 93.384697 
L 245.363839 93.423918 
L 243.844021 93.50236 
L 242.324203 93.580803 
L 240.853411 93.776908 
L 239.333593 93.816129 
L 237.862801 93.816129 
L 236.342983 93.816129 
L 234.970244 93.816129 
L 233.450426 93.894572 
L 231.930607 93.894572 
L 230.459816 93.973014 
L 228.939997 93.973014 
L 227.469206 93.85535 
L 225.949388 93.933793 
L 224.429569 93.933793 
L 222.958778 93.933793 
L 221.438959 93.973014 
L 219.968168 93.973014 
L 218.44835 93.973014 
L 217.026584 94.012235 
L 215.506766 94.012235 
L 213.986948 94.051456 
L 212.516156 94.012235 
L 210.996338 94.012235 
L 209.525546 94.090677 
L 208.005728 94.129898 
L 205.113171 94.404446 
L 203.887511 94.992763 
L 202.857957 95.267311 
L 201.632297 94.639773 
L 200.651769 95.149647 
L 199.27903 95.188868 
L 196.484526 96.090954 
L 193.788074 96.090954 
L 192.954626 96.051733 
L 191.630913 96.208617 
L 190.258174 96.208617 
L 188.591277 96.287059 
L 187.561722 96.287059 
L 186.532168 96.326281 
L 182.02174 96.483165 
L 181.090239 96.483165 
L 176.285652 97.502914 
L 173.883359 97.620577 
L 173.098937 97.659798 
L 172.118409 97.777462 
L 171.481066 97.777462 
L 170.941775 97.777462 
L 167.706034 97.777462 
L 164.22516 98.012788 
L 162.46021 98.130452 
L 160.744286 98.169673 
L 157.655623 98.248115 
L 156.871201 98.365779 
L 155.596515 98.561884 
L 153.537406 98.797211 
L 150.350691 98.954095 
L 149.174057 99.581633 
L 146.428579 99.620854 
L 144.957788 99.895402 
L 143.241864 100.209171 
L 141.280808 100.287613 
L 139.859043 100.287613 
L 138.780462 100.287613 
L 138.045066 100.287613 
L 136.966486 100.444498 
L 135.936931 100.601382 
L 135.250562 100.719045 
L 135.054456 100.719045 
L 134.31906 100.679824 
L 133.338533 101.22892 
L 131.965794 100.758266 
L 131.47553 100.758266 
L 130.936239 100.836709 
L 130.151817 100.836709 
L 129.416421 100.836709 
L 128.730052 101.425025 
L 127.749524 101.425025 
L 127.406339 100.954372 
L 126.474838 101.542689 
L 125.298204 102.64088 
L 124.415729 103.542966 
L 123.925465 103.582187 
L 123.092017 103.582187 
L 122.552726 103.621408 
L 121.719278 104.209724 
L 121.032908 103.660629 
L 120.19946 103.660629 
L 116.963718 103.935177 
L 116.718586 103.974398 
L 114.75753 104.013619 
L 110.492234 101.425025 
L 108.187993 104.170503 
L 99.26519 106.053117 
L 84.900457 107.974951 
L 65.387953 109.308469 
L 48.5719 111.308746 
L 40.384493 113.662013 
L 32.099033 113.230581 
z
" clip-path="url(#p06627649c4)" style="fill: #aeaeae"/>
   </g>
   <g id="PolyCollection_4">
    <path d="M 32.099033 89.423365 
L 32.099033 113.230581 
L 40.384493 113.662013 
L 48.5719 111.308746 
L 65.387953 109.308469 
L 84.900457 107.974951 
L 99.26519 106.053117 
L 108.187993 104.170503 
L 110.492234 101.425025 
L 114.75753 104.013619 
L 116.718586 103.974398 
L 116.963718 103.935177 
L 120.19946 103.660629 
L 121.032908 103.660629 
L 121.719278 104.209724 
L 122.552726 103.621408 
L 123.092017 103.582187 
L 123.925465 103.582187 
L 124.415729 103.542966 
L 125.298204 102.64088 
L 126.474838 101.542689 
L 127.406339 100.954372 
L 127.749524 101.425025 
L 128.730052 101.425025 
L 129.416421 100.836709 
L 130.151817 100.836709 
L 130.936239 100.836709 
L 131.47553 100.758266 
L 131.965794 100.758266 
L 133.338533 101.22892 
L 134.31906 100.679824 
L 135.054456 100.719045 
L 135.250562 100.719045 
L 135.936931 100.601382 
L 136.966486 100.444498 
L 138.045066 100.287613 
L 138.780462 100.287613 
L 139.859043 100.287613 
L 141.280808 100.287613 
L 143.241864 100.209171 
L 144.957788 99.895402 
L 146.428579 99.620854 
L 149.174057 99.581633 
L 150.350691 98.954095 
L 153.537406 98.797211 
L 155.596515 98.561884 
L 156.871201 98.365779 
L 157.655623 98.248115 
L 160.744286 98.169673 
L 162.46021 98.130452 
L 164.22516 98.012788 
L 167.706034 97.777462 
L 170.941775 97.777462 
L 171.481066 97.777462 
L 172.118409 97.777462 
L 173.098937 97.659798 
L 173.883359 97.620577 
L 176.285652 97.502914 
L 181.090239 96.483165 
L 182.02174 96.483165 
L 186.532168 96.326281 
L 187.561722 96.287059 
L 188.591277 96.287059 
L 190.258174 96.208617 
L 191.630913 96.208617 
L 192.954626 96.051733 
L 193.788074 96.090954 
L 196.484526 96.090954 
L 199.27903 95.188868 
L 200.651769 95.149647 
L 201.632297 94.639773 
L 202.857957 95.267311 
L 203.887511 94.992763 
L 205.113171 94.404446 
L 208.005728 94.129898 
L 209.525546 94.090677 
L 210.996338 94.012235 
L 212.516156 94.012235 
L 213.986948 94.051456 
L 215.506766 94.012235 
L 217.026584 94.012235 
L 218.44835 93.973014 
L 219.968168 93.973014 
L 221.438959 93.973014 
L 222.958778 93.933793 
L 224.429569 93.933793 
L 225.949388 93.933793 
L 227.469206 93.85535 
L 228.939997 93.973014 
L 230.459816 93.973014 
L 231.930607 93.894572 
L 233.450426 93.894572 
L 234.970244 93.816129 
L 236.342983 93.816129 
L 237.862801 93.816129 
L 239.333593 93.816129 
L 240.853411 93.776908 
L 242.324203 93.580803 
L 243.844021 93.50236 
L 245.363839 93.423918 
L 246.834631 93.384697 
L 248.354449 93.463139 
L 249.825241 93.384697 
L 251.345059 93.384697 
L 252.864877 93.384697 
L 254.237616 93.384697 
L 255.757434 93.384697 
L 257.228226 93.384697 
L 258.748044 93.306255 
L 260.218836 93.306255 
L 261.738654 93.306255 
L 263.258472 92.364948 
L 264.729264 92.208064 
L 266.249082 92.168843 
L 267.719874 92.168843 
L 269.239692 92.129621 
L 270.75951 92.129621 
L 272.132249 92.129621 
L 273.652067 92.051179 
L 275.122859 92.051179 
L 276.642677 92.051179 
L 278.113469 92.051179 
L 279.633287 92.051179 
L 281.153105 92.051179 
L 282.623897 92.051179 
L 284.143715 92.051179 
L 285.614507 92.011958 
L 287.134325 91.972737 
L 288.654143 91.972737 
L 290.075909 91.933516 
L 291.595727 91.933516 
L 293.066518 91.933516 
L 294.586337 91.933516 
L 296.057128 91.933516 
L 297.576947 91.894295 
L 299.096765 91.855074 
L 300.567557 91.815853 
L 302.087375 91.815853 
L 303.558166 91.776631 
L 305.077985 91.776631 
L 306.597803 91.776631 
L 307.970542 91.776631 
L 309.49036 91.73741 
L 310.961152 91.698189 
L 312.48097 91.541305 
L 313.951762 90.599998 
L 315.47158 90.403892 
L 316.991398 90.364671 
L 318.46219 90.482335 
L 319.982008 90.482335 
L 321.4528 90.482335 
L 322.972618 90.32545 
L 324.492436 90.32545 
L 325.865175 90.32545 
L 327.384993 90.247008 
L 328.855785 90.207787 
L 330.375603 90.168566 
L 331.846395 90.168566 
L 333.366213 90.168566 
L 334.886031 90.129345 
L 336.356823 90.129345 
L 337.876641 90.129345 
L 339.347433 90.050902 
L 340.867251 90.050902 
L 342.387069 90.090124 
L 343.759808 90.090124 
L 345.279626 90.090124 
L 346.750418 90.090124 
L 348.270236 90.168566 
L 349.741028 90.168566 
L 351.260846 90.168566 
L 352.780664 90.168566 
L 354.251456 90.168566 
L 355.771274 90.168566 
L 357.242066 90.168566 
L 358.761884 90.168566 
L 360.281702 90.168566 
L 361.703468 90.129345 
L 363.223286 90.129345 
L 364.694078 90.168566 
L 366.213896 90.247008 
L 367.684687 90.247008 
L 369.204506 90.207787 
L 370.724324 90.207787 
L 372.195116 90.247008 
L 373.714934 90.247008 
L 375.185725 90.247008 
L 376.705544 90.286229 
L 378.225362 90.286229 
L 379.598101 90.247008 
L 381.117919 90.207787 
L 382.588711 90.168566 
L 384.108529 90.168566 
L 385.579321 90.168566 
L 387.099139 90.129345 
L 388.618957 90.129345 
L 390.089749 90.129345 
L 391.609567 90.050902 
L 393.080359 90.090124 
L 394.600177 90.050902 
L 396.119995 90.050902 
L 397.492734 90.050902 
L 399.012552 90.050902 
L 400.483344 90.050902 
L 402.003162 89.97246 
L 403.473954 89.894018 
L 404.993772 89.894018 
L 406.51359 89.894018 
L 407.984382 89.894018 
L 409.5042 89.854797 
L 410.974992 89.854797 
L 412.49481 89.776355 
L 414.014628 89.776355 
L 415.387367 89.737133 
L 416.907185 89.737133 
L 418.377977 89.737133 
L 419.897795 89.737133 
L 421.368587 89.737133 
L 422.888405 89.658691 
L 424.408223 89.658691 
L 425.879015 89.658691 
L 427.398833 89.658691 
L 428.869625 89.61947 
L 430.389443 89.61947 
L 431.909261 89.61947 
L 433.331027 89.580249 
L 434.850845 89.580249 
L 436.321637 89.580249 
L 437.841455 89.541028 
L 439.312246 89.541028 
L 440.832065 89.305701 
L 442.351883 88.952711 
L 443.822675 88.991932 
L 445.342493 88.991932 
L 446.813285 88.991932 
L 448.333103 88.991932 
L 449.852921 88.991932 
L 449.852921 79.343538 
L 449.852921 79.343538 
L 448.333103 79.343538 
L 446.813285 79.343538 
L 445.342493 79.343538 
L 443.822675 79.382759 
L 442.351883 79.382759 
L 440.832065 79.382759 
L 439.312246 79.421981 
L 437.841455 79.421981 
L 436.321637 79.421981 
L 434.850845 79.421981 
L 433.331027 79.421981 
L 431.909261 79.421981 
L 430.389443 79.421981 
L 428.869625 79.421981 
L 427.398833 79.421981 
L 425.879015 79.421981 
L 424.408223 79.421981 
L 422.888405 79.421981 
L 421.368587 79.421981 
L 419.897795 79.421981 
L 418.377977 79.421981 
L 416.907185 79.421981 
L 415.387367 79.421981 
L 414.014628 79.618086 
L 412.49481 79.657307 
L 410.974992 79.696528 
L 409.5042 79.696528 
L 407.984382 79.696528 
L 406.51359 79.696528 
L 404.993772 79.696528 
L 403.473954 79.696528 
L 402.003162 79.696528 
L 400.483344 79.696528 
L 399.012552 79.696528 
L 397.492734 79.735749 
L 396.119995 79.696528 
L 394.600177 79.696528 
L 393.080359 79.735749 
L 391.609567 79.461202 
L 390.089749 79.461202 
L 388.618957 79.108212 
L 387.099139 79.108212 
L 385.579321 79.108212 
L 384.108529 79.108212 
L 382.588711 79.108212 
L 381.117919 79.108212 
L 379.598101 79.147433 
L 378.225362 79.147433 
L 376.705544 79.147433 
L 375.185725 79.108212 
L 373.714934 79.108212 
L 372.195116 79.108212 
L 370.724324 79.147433 
L 369.204506 79.147433 
L 367.684687 79.147433 
L 366.213896 79.147433 
L 364.694078 79.068991 
L 363.223286 79.029769 
L 361.703468 79.029769 
L 360.281702 79.029769 
L 358.761884 79.029769 
L 357.242066 79.029769 
L 355.771274 79.029769 
L 354.251456 79.029769 
L 352.780664 79.029769 
L 351.260846 79.029769 
L 349.741028 79.029769 
L 348.270236 79.029769 
L 346.750418 78.951327 
L 345.279626 78.951327 
L 343.759808 78.951327 
L 342.387069 78.951327 
L 340.867251 78.951327 
L 339.347433 78.951327 
L 337.876641 78.951327 
L 336.356823 78.951327 
L 334.886031 78.951327 
L 333.366213 78.912106 
L 331.846395 78.912106 
L 330.375603 78.912106 
L 328.855785 78.912106 
L 327.384993 78.912106 
L 325.865175 78.912106 
L 324.492436 78.912106 
L 322.972618 78.912106 
L 321.4528 78.912106 
L 319.982008 78.912106 
L 318.46219 78.912106 
L 316.991398 78.912106 
L 315.47158 78.912106 
L 313.951762 78.912106 
L 312.48097 78.912106 
L 310.961152 78.912106 
L 309.49036 78.912106 
L 307.970542 78.912106 
L 306.597803 78.912106 
L 305.077985 78.912106 
L 303.558166 78.912106 
L 302.087375 78.912106 
L 300.567557 78.912106 
L 299.096765 78.912106 
L 297.576947 78.912106 
L 296.057128 78.912106 
L 294.586337 78.912106 
L 293.066518 78.912106 
L 291.595727 78.912106 
L 290.075909 79.265096 
L 288.654143 79.304317 
L 287.134325 79.304317 
L 285.614507 79.304317 
L 284.143715 79.461202 
L 282.623897 79.461202 
L 281.153105 79.461202 
L 279.633287 79.461202 
L 278.113469 79.461202 
L 276.642677 79.461202 
L 275.122859 79.461202 
L 273.652067 79.461202 
L 272.132249 79.461202 
L 270.75951 79.461202 
L 269.239692 79.461202 
L 267.719874 79.500423 
L 266.249082 79.500423 
L 264.729264 79.500423 
L 263.258472 79.500423 
L 261.738654 79.225875 
L 260.218836 79.382759 
L 258.748044 79.343538 
L 257.228226 79.343538 
L 255.757434 79.343538 
L 254.237616 79.343538 
L 252.864877 79.343538 
L 251.345059 79.343538 
L 249.825241 79.343538 
L 248.354449 79.382759 
L 246.834631 79.382759 
L 245.363839 79.382759 
L 243.844021 79.343538 
L 242.324203 79.343538 
L 240.853411 79.343538 
L 239.333593 79.343538 
L 237.862801 79.343538 
L 236.342983 79.343538 
L 234.970244 79.343538 
L 233.450426 79.343538 
L 231.930607 79.343538 
L 230.459816 79.343538 
L 228.939997 79.382759 
L 227.469206 79.343538 
L 225.949388 79.382759 
L 224.429569 79.343538 
L 222.958778 79.343538 
L 221.438959 79.343538 
L 219.968168 79.343538 
L 218.44835 79.343538 
L 217.026584 79.343538 
L 215.506766 79.382759 
L 213.986948 79.382759 
L 212.516156 79.343538 
L 210.996338 79.343538 
L 209.525546 79.343538 
L 208.005728 79.421981 
L 205.113171 79.696528 
L 203.887511 80.363287 
L 202.857957 80.44173 
L 201.632297 79.814192 
L 200.651769 81.343815 
L 199.27903 81.343815 
L 196.484526 82.755775 
L 193.788074 82.755775 
L 192.954626 82.716554 
L 191.630913 82.873439 
L 190.258174 82.834217 
L 188.591277 82.834217 
L 187.561722 82.834217 
L 186.532168 82.834217 
L 182.02174 83.147986 
L 181.090239 83.147986 
L 176.285652 83.344092 
L 173.883359 83.304871 
L 173.098937 83.304871 
L 172.118409 83.383313 
L 171.481066 83.383313 
L 170.941775 83.383313 
L 167.706034 83.932409 
L 164.22516 84.050072 
L 162.46021 84.050072 
L 160.744286 84.050072 
L 157.655623 84.050072 
L 156.871201 84.010851 
L 155.596515 84.010851 
L 153.537406 83.893188 
L 150.350691 83.853966 
L 149.174057 84.873715 
L 146.428579 84.991379 
L 144.957788 85.109042 
L 143.241864 84.991379 
L 141.280808 84.991379 
L 139.859043 84.952158 
L 138.780462 84.952158 
L 138.045066 84.952158 
L 136.966486 84.912936 
L 135.936931 84.912936 
L 135.250562 84.952158 
L 135.054456 84.952158 
L 134.31906 84.952158 
L 133.338533 85.38359 
L 131.965794 84.952158 
L 131.47553 84.952158 
L 130.936239 84.991379 
L 130.151817 84.912936 
L 129.416421 84.912936 
L 128.730052 85.305148 
L 127.749524 85.226705 
L 127.406339 84.795273 
L 126.474838 85.344369 
L 125.298204 85.187484 
L 124.415729 85.226705 
L 123.925465 85.226705 
L 123.092017 85.226705 
L 122.552726 85.265927 
L 121.719278 85.775801 
L 121.032908 85.226705 
L 120.19946 85.226705 
L 116.963718 86.207233 
L 116.718586 86.246454 
L 114.75753 86.207233 
L 110.492234 85.305148 
L 108.187993 86.207233 
L 99.26519 86.991656 
L 84.900457 87.423088 
L 65.387953 88.129068 
L 48.5719 88.5605 
L 40.384493 89.580249 
L 32.099033 89.423365 
z
" clip-path="url(#p06627649c4)" style="fill: #d5dce5"/>
   </g>
   <g id="matplotlib.axis_1">
    <g id="xtick_1">
     <g id="line2d_1">
      <defs>
       <path id="mb8833cb10a" d="M 0 0 
L 0 3.5 
" style="stroke: #000000; stroke-width: 0.8"/>
      </defs>
      <g>
       <use xlink:href="#mb8833cb10a" x="72.251648" y="277.763153" style="stroke: #000000; stroke-width: 0.8"/>
      </g>
     </g>
     <g id="text_1">
      <!-- 2004 -->
      <g transform="translate(59.526648 292.36159) scale(0.1 -0.1)">
       <defs>
        <path id="DejaVuSans-32" d="M 1228 531 
L 3431 531 
L 3431 0 
L 469 0 
L 469 531 
Q 828 903 1448 1529 
Q 2069 2156 2228 2338 
Q 2531 2678 2651 2914 
Q 2772 3150 2772 3378 
Q 2772 3750 2511 3984 
Q 2250 4219 1831 4219 
Q 1534 4219 1204 4116 
Q 875 4013 500 3803 
L 500 4441 
Q 881 4594 1212 4672 
Q 1544 4750 1819 4750 
Q 2544 4750 2975 4387 
Q 3406 4025 3406 3419 
Q 3406 3131 3298 2873 
Q 3191 2616 2906 2266 
Q 2828 2175 2409 1742 
Q 1991 1309 1228 531 
z
" transform="scale(0.015625)"/>
        <path id="DejaVuSans-30" d="M 2034 4250 
Q 1547 4250 1301 3770 
Q 1056 3291 1056 2328 
Q 1056 1369 1301 889 
Q 1547 409 2034 409 
Q 2525 409 2770 889 
Q 3016 1369 3016 2328 
Q 3016 3291 2770 3770 
Q 2525 4250 2034 4250 
z
M 2034 4750 
Q 2819 4750 3233 4129 
Q 3647 3509 3647 2328 
Q 3647 1150 3233 529 
Q 2819 -91 2034 -91 
Q 1250 -91 836 529 
Q 422 1150 422 2328 
Q 422 3509 836 4129 
Q 1250 4750 2034 4750 
z
" transform="scale(0.015625)"/>
        <path id="DejaVuSans-34" d="M 2419 4116 
L 825 1625 
L 2419 1625 
L 2419 4116 
z
M 2253 4666 
L 3047 4666 
L 3047 1625 
L 3713 1625 
L 3713 1100 
L 3047 1100 
L 3047 0 
L 2419 0 
L 2419 1100 
L 313 1100 
L 313 1709 
L 2253 4666 
z
" transform="scale(0.015625)"/>
       </defs>
       <use xlink:href="#DejaVuSans-32"/>
       <use xlink:href="#DejaVuSans-30" x="63.623047"/>
       <use xlink:href="#DejaVuSans-30" x="127.246094"/>
       <use xlink:href="#DejaVuSans-34" x="190.869141"/>
      </g>
     </g>
    </g>
    <g id="xtick_2">
     <g id="line2d_2">
      <g>
       <use xlink:href="#mb8833cb10a" x="143.879207" y="277.763153" style="stroke: #000000; stroke-width: 0.8"/>
      </g>
     </g>
     <g id="text_2">
      <!-- 2008 -->
      <g transform="translate(131.154207 292.36159) scale(0.1 -0.1)">
       <defs>
        <path id="DejaVuSans-38" d="M 2034 2216 
Q 1584 2216 1326 1975 
Q 1069 1734 1069 1313 
Q 1069 891 1326 650 
Q 1584 409 2034 409 
Q 2484 409 2743 651 
Q 3003 894 3003 1313 
Q 3003 1734 2745 1975 
Q 2488 2216 2034 2216 
z
M 1403 2484 
Q 997 2584 770 2862 
Q 544 3141 544 3541 
Q 544 4100 942 4425 
Q 1341 4750 2034 4750 
Q 2731 4750 3128 4425 
Q 3525 4100 3525 3541 
Q 3525 3141 3298 2862 
Q 3072 2584 2669 2484 
Q 3125 2378 3379 2068 
Q 3634 1759 3634 1313 
Q 3634 634 3220 271 
Q 2806 -91 2034 -91 
Q 1263 -91 848 271 
Q 434 634 434 1313 
Q 434 1759 690 2068 
Q 947 2378 1403 2484 
z
M 1172 3481 
Q 1172 3119 1398 2916 
Q 1625 2713 2034 2713 
Q 2441 2713 2670 2916 
Q 2900 3119 2900 3481 
Q 2900 3844 2670 4047 
Q 2441 4250 2034 4250 
Q 1625 4250 1398 4047 
Q 1172 3844 1172 3481 
z
" transform="scale(0.015625)"/>
       </defs>
       <use xlink:href="#DejaVuSans-32"/>
       <use xlink:href="#DejaVuSans-30" x="63.623047"/>
       <use xlink:href="#DejaVuSans-30" x="127.246094"/>
       <use xlink:href="#DejaVuSans-38" x="190.869141"/>
      </g>
     </g>
    </g>
    <g id="xtick_3">
     <g id="line2d_3">
      <g>
       <use xlink:href="#mb8833cb10a" x="215.506766" y="277.763153" style="stroke: #000000; stroke-width: 0.8"/>
      </g>
     </g>
     <g id="text_3">
      <!-- 2012 -->
      <g transform="translate(202.781766 292.36159) scale(0.1 -0.1)">
       <defs>
        <path id="DejaVuSans-31" d="M 794 531 
L 1825 531 
L 1825 4091 
L 703 3866 
L 703 4441 
L 1819 4666 
L 2450 4666 
L 2450 531 
L 3481 531 
L 3481 0 
L 794 0 
L 794 531 
z
" transform="scale(0.015625)"/>
       </defs>
       <use xlink:href="#DejaVuSans-32"/>
       <use xlink:href="#DejaVuSans-30" x="63.623047"/>
       <use xlink:href="#DejaVuSans-31" x="127.246094"/>
       <use xlink:href="#DejaVuSans-32" x="190.869141"/>
      </g>
     </g>
    </g>
    <g id="xtick_4">
     <g id="line2d_4">
      <g>
       <use xlink:href="#mb8833cb10a" x="287.134325" y="277.763153" style="stroke: #000000; stroke-width: 0.8"/>
      </g>
     </g>
     <g id="text_4">
      <!-- 2016 -->
      <g transform="translate(274.409325 292.36159) scale(0.1 -0.1)">
       <defs>
        <path id="DejaVuSans-36" d="M 2113 2584 
Q 1688 2584 1439 2293 
Q 1191 2003 1191 1497 
Q 1191 994 1439 701 
Q 1688 409 2113 409 
Q 2538 409 2786 701 
Q 3034 994 3034 1497 
Q 3034 2003 2786 2293 
Q 2538 2584 2113 2584 
z
M 3366 4563 
L 3366 3988 
Q 3128 4100 2886 4159 
Q 2644 4219 2406 4219 
Q 1781 4219 1451 3797 
Q 1122 3375 1075 2522 
Q 1259 2794 1537 2939 
Q 1816 3084 2150 3084 
Q 2853 3084 3261 2657 
Q 3669 2231 3669 1497 
Q 3669 778 3244 343 
Q 2819 -91 2113 -91 
Q 1303 -91 875 529 
Q 447 1150 447 2328 
Q 447 3434 972 4092 
Q 1497 4750 2381 4750 
Q 2619 4750 2861 4703 
Q 3103 4656 3366 4563 
z
" transform="scale(0.015625)"/>
       </defs>
       <use xlink:href="#DejaVuSans-32"/>
       <use xlink:href="#DejaVuSans-30" x="63.623047"/>
       <use xlink:href="#DejaVuSans-31" x="127.246094"/>
       <use xlink:href="#DejaVuSans-36" x="190.869141"/>
      </g>
     </g>
    </g>
    <g id="xtick_5">
     <g id="line2d_5">
      <g>
       <use xlink:href="#mb8833cb10a" x="358.761884" y="277.763153" style="stroke: #000000; stroke-width: 0.8"/>
      </g>
     </g>
     <g id="text_5">
      <!-- 2020 -->
      <g transform="translate(346.036884 292.36159) scale(0.1 -0.1)">
       <use xlink:href="#DejaVuSans-32"/>
       <use xlink:href="#DejaVuSans-30" x="63.623047"/>
       <use xlink:href="#DejaVuSans-32" x="127.246094"/>
       <use xlink:href="#DejaVuSans-30" x="190.869141"/>
      </g>
     </g>
    </g>
    <g id="xtick_6">
     <g id="line2d_6">
      <g>
       <use xlink:href="#mb8833cb10a" x="430.389443" y="277.763153" style="stroke: #000000; stroke-width: 0.8"/>
      </g>
     </g>
     <g id="text_6">
      <!-- 2024 -->
      <g transform="translate(417.664443 292.36159) scale(0.1 -0.1)">
       <use xlink:href="#DejaVuSans-32"/>
       <use xlink:href="#DejaVuSans-30" x="63.623047"/>
       <use xlink:href="#DejaVuSans-32" x="127.246094"/>
       <use xlink:href="#DejaVuSans-34" x="190.869141"/>
      </g>
     </g>
    </g>
    <g id="text_7">
     <!-- Year -->
     <g transform="translate(239.99875 309.838934) scale(0.15 -0.15)">
      <defs>
       <path id="DejaVuSans-59" d="M -13 4666 
L 666 4666 
L 1959 2747 
L 3244 4666 
L 3922 4666 
L 2272 2222 
L 2272 0 
L 1638 0 
L 1638 2222 
L -13 4666 
z
" transform="scale(0.015625)"/>
       <path id="DejaVuSans-65" d="M 3597 1894 
L 3597 1613 
L 953 1613 
Q 991 1019 1311 708 
Q 1631 397 2203 397 
Q 2534 397 2845 478 
Q 3156 559 3463 722 
L 3463 178 
Q 3153 47 2828 -22 
Q 2503 -91 2169 -91 
Q 1331 -91 842 396 
Q 353 884 353 1716 
Q 353 2575 817 3079 
Q 1281 3584 2069 3584 
Q 2775 3584 3186 3129 
Q 3597 2675 3597 1894 
z
M 3022 2063 
Q 3016 2534 2758 2815 
Q 2500 3097 2075 3097 
Q 1594 3097 1305 2825 
Q 1016 2553 972 2059 
L 3022 2063 
z
" transform="scale(0.015625)"/>
       <path id="DejaVuSans-61" d="M 2194 1759 
Q 1497 1759 1228 1600 
Q 959 1441 959 1056 
Q 959 750 1161 570 
Q 1363 391 1709 391 
Q 2188 391 2477 730 
Q 2766 1069 2766 1631 
L 2766 1759 
L 2194 1759 
z
M 3341 1997 
L 3341 0 
L 2766 0 
L 2766 531 
Q 2569 213 2275 61 
Q 1981 -91 1556 -91 
Q 1019 -91 701 211 
Q 384 513 384 1019 
Q 384 1609 779 1909 
Q 1175 2209 1959 2209 
L 2766 2209 
L 2766 2266 
Q 2766 2663 2505 2880 
Q 2244 3097 1772 3097 
Q 1472 3097 1187 3025 
Q 903 2953 641 2809 
L 641 3341 
Q 956 3463 1253 3523 
Q 1550 3584 1831 3584 
Q 2591 3584 2966 3190 
Q 3341 2797 3341 1997 
z
" transform="scale(0.015625)"/>
       <path id="DejaVuSans-72" d="M 2631 2963 
Q 2534 3019 2420 3045 
Q 2306 3072 2169 3072 
Q 1681 3072 1420 2755 
Q 1159 2438 1159 1844 
L 1159 0 
L 581 0 
L 581 3500 
L 1159 3500 
L 1159 2956 
Q 1341 3275 1631 3429 
Q 1922 3584 2338 3584 
Q 2397 3584 2469 3576 
Q 2541 3569 2628 3553 
L 2631 2963 
z
" transform="scale(0.015625)"/>
      </defs>
      <use xlink:href="#DejaVuSans-59"/>
      <use xlink:href="#DejaVuSans-65" x="47.833984"/>
      <use xlink:href="#DejaVuSans-61" x="109.357422"/>
      <use xlink:href="#DejaVuSans-72" x="170.636719"/>
     </g>
    </g>
   </g>
   <g id="matplotlib.axis_2">
    <g id="ytick_1">
     <g id="line2d_7">
      <defs>
       <path id="m7d6a456891" d="M 0 0 
L -3.5 0 
" style="stroke: #000000; stroke-width: 0.8"/>
      </defs>
      <g>
       <use xlink:href="#m7d6a456891" x="61.76" y="277.763153" style="stroke: #000000; stroke-width: 0.8"/>
      </g>
     </g>
     <g id="text_8">
      <!-- 0 -->
      <g transform="translate(48.3975 281.562372) scale(0.1 -0.1)">
       <use xlink:href="#DejaVuSans-30"/>
      </g>
     </g>
    </g>
    <g id="ytick_2">
     <g id="line2d_8">
      <g>
       <use xlink:href="#m7d6a456891" x="61.76" y="238.542039" style="stroke: #000000; stroke-width: 0.8"/>
      </g>
     </g>
     <g id="text_9">
      <!-- 1000 -->
      <g transform="translate(29.31 242.341258) scale(0.1 -0.1)">
       <use xlink:href="#DejaVuSans-31"/>
       <use xlink:href="#DejaVuSans-30" x="63.623047"/>
       <use xlink:href="#DejaVuSans-30" x="127.246094"/>
       <use xlink:href="#DejaVuSans-30" x="190.869141"/>
      </g>
     </g>
    </g>
    <g id="ytick_3">
     <g id="line2d_9">
      <g>
       <use xlink:href="#m7d6a456891" x="61.76" y="199.320925" style="stroke: #000000; stroke-width: 0.8"/>
      </g>
     </g>
     <g id="text_10">
      <!-- 2000 -->
      <g transform="translate(29.31 203.120144) scale(0.1 -0.1)">
       <use xlink:href="#DejaVuSans-32"/>
       <use xlink:href="#DejaVuSans-30" x="63.623047"/>
       <use xlink:href="#DejaVuSans-30" x="127.246094"/>
       <use xlink:href="#DejaVuSans-30" x="190.869141"/>
      </g>
     </g>
    </g>
    <g id="ytick_4">
     <g id="line2d_10">
      <g>
       <use xlink:href="#m7d6a456891" x="61.76" y="160.099812" style="stroke: #000000; stroke-width: 0.8"/>
      </g>
     </g>
     <g id="text_11">
      <!-- 3000 -->
      <g transform="translate(29.31 163.89903) scale(0.1 -0.1)">
       <defs>
        <path id="DejaVuSans-33" d="M 2597 2516 
Q 3050 2419 3304 2112 
Q 3559 1806 3559 1356 
Q 3559 666 3084 287 
Q 2609 -91 1734 -91 
Q 1441 -91 1130 -33 
Q 819 25 488 141 
L 488 750 
Q 750 597 1062 519 
Q 1375 441 1716 441 
Q 2309 441 2620 675 
Q 2931 909 2931 1356 
Q 2931 1769 2642 2001 
Q 2353 2234 1838 2234 
L 1294 2234 
L 1294 2753 
L 1863 2753 
Q 2328 2753 2575 2939 
Q 2822 3125 2822 3475 
Q 2822 3834 2567 4026 
Q 2313 4219 1838 4219 
Q 1578 4219 1281 4162 
Q 984 4106 628 3988 
L 628 4550 
Q 988 4650 1302 4700 
Q 1616 4750 1894 4750 
Q 2613 4750 3031 4423 
Q 3450 4097 3450 3541 
Q 3450 3153 3228 2886 
Q 3006 2619 2597 2516 
z
" transform="scale(0.015625)"/>
       </defs>
       <use xlink:href="#DejaVuSans-33"/>
       <use xlink:href="#DejaVuSans-30" x="63.623047"/>
       <use xlink:href="#DejaVuSans-30" x="127.246094"/>
       <use xlink:href="#DejaVuSans-30" x="190.869141"/>
      </g>
     </g>
    </g>
    <g id="ytick_5">
     <g id="line2d_11">
      <g>
       <use xlink:href="#m7d6a456891" x="61.76" y="120.878698" style="stroke: #000000; stroke-width: 0.8"/>
      </g>
     </g>
     <g id="text_12">
      <!-- 4000 -->
      <g transform="translate(29.31 124.677917) scale(0.1 -0.1)">
       <use xlink:href="#DejaVuSans-34"/>
       <use xlink:href="#DejaVuSans-30" x="63.623047"/>
       <use xlink:href="#DejaVuSans-30" x="127.246094"/>
       <use xlink:href="#DejaVuSans-30" x="190.869141"/>
      </g>
     </g>
    </g>
    <g id="ytick_6">
     <g id="line2d_12">
      <g>
       <use xlink:href="#m7d6a456891" x="61.76" y="81.657584" style="stroke: #000000; stroke-width: 0.8"/>
      </g>
     </g>
     <g id="text_13">
      <!-- 5000 -->
      <g transform="translate(29.31 85.456803) scale(0.1 -0.1)">
       <defs>
        <path id="DejaVuSans-35" d="M 691 4666 
L 3169 4666 
L 3169 4134 
L 1269 4134 
L 1269 2991 
Q 1406 3038 1543 3061 
Q 1681 3084 1819 3084 
Q 2600 3084 3056 2656 
Q 3513 2228 3513 1497 
Q 3513 744 3044 326 
Q 2575 -91 1722 -91 
Q 1428 -91 1123 -41 
Q 819 9 494 109 
L 494 744 
Q 775 591 1075 516 
Q 1375 441 1709 441 
Q 2250 441 2565 725 
Q 2881 1009 2881 1497 
Q 2881 1984 2565 2268 
Q 2250 2553 1709 2553 
Q 1456 2553 1204 2497 
Q 953 2441 691 2322 
L 691 4666 
z
" transform="scale(0.015625)"/>
       </defs>
       <use xlink:href="#DejaVuSans-35"/>
       <use xlink:href="#DejaVuSans-30" x="63.623047"/>
       <use xlink:href="#DejaVuSans-30" x="127.246094"/>
       <use xlink:href="#DejaVuSans-30" x="190.869141"/>
      </g>
     </g>
    </g>
    <g id="text_14">
     <!-- Number of proteins -->
     <g transform="translate(22.190469 246.055416) rotate(-90) scale(0.15 -0.15)">
      <defs>
       <path id="DejaVuSans-4e" d="M 628 4666 
L 1478 4666 
L 3547 763 
L 3547 4666 
L 4159 4666 
L 4159 0 
L 3309 0 
L 1241 3903 
L 1241 0 
L 628 0 
L 628 4666 
z
" transform="scale(0.015625)"/>
       <path id="DejaVuSans-75" d="M 544 1381 
L 544 3500 
L 1119 3500 
L 1119 1403 
Q 1119 906 1312 657 
Q 1506 409 1894 409 
Q 2359 409 2629 706 
Q 2900 1003 2900 1516 
L 2900 3500 
L 3475 3500 
L 3475 0 
L 2900 0 
L 2900 538 
Q 2691 219 2414 64 
Q 2138 -91 1772 -91 
Q 1169 -91 856 284 
Q 544 659 544 1381 
z
M 1991 3584 
L 1991 3584 
z
" transform="scale(0.015625)"/>
       <path id="DejaVuSans-6d" d="M 3328 2828 
Q 3544 3216 3844 3400 
Q 4144 3584 4550 3584 
Q 5097 3584 5394 3201 
Q 5691 2819 5691 2113 
L 5691 0 
L 5113 0 
L 5113 2094 
Q 5113 2597 4934 2840 
Q 4756 3084 4391 3084 
Q 3944 3084 3684 2787 
Q 3425 2491 3425 1978 
L 3425 0 
L 2847 0 
L 2847 2094 
Q 2847 2600 2669 2842 
Q 2491 3084 2119 3084 
Q 1678 3084 1418 2786 
Q 1159 2488 1159 1978 
L 1159 0 
L 581 0 
L 581 3500 
L 1159 3500 
L 1159 2956 
Q 1356 3278 1631 3431 
Q 1906 3584 2284 3584 
Q 2666 3584 2933 3390 
Q 3200 3197 3328 2828 
z
" transform="scale(0.015625)"/>
       <path id="DejaVuSans-62" d="M 3116 1747 
Q 3116 2381 2855 2742 
Q 2594 3103 2138 3103 
Q 1681 3103 1420 2742 
Q 1159 2381 1159 1747 
Q 1159 1113 1420 752 
Q 1681 391 2138 391 
Q 2594 391 2855 752 
Q 3116 1113 3116 1747 
z
M 1159 2969 
Q 1341 3281 1617 3432 
Q 1894 3584 2278 3584 
Q 2916 3584 3314 3078 
Q 3713 2572 3713 1747 
Q 3713 922 3314 415 
Q 2916 -91 2278 -91 
Q 1894 -91 1617 61 
Q 1341 213 1159 525 
L 1159 0 
L 581 0 
L 581 4863 
L 1159 4863 
L 1159 2969 
z
" transform="scale(0.015625)"/>
       <path id="DejaVuSans-20" transform="scale(0.015625)"/>
       <path id="DejaVuSans-6f" d="M 1959 3097 
Q 1497 3097 1228 2736 
Q 959 2375 959 1747 
Q 959 1119 1226 758 
Q 1494 397 1959 397 
Q 2419 397 2687 759 
Q 2956 1122 2956 1747 
Q 2956 2369 2687 2733 
Q 2419 3097 1959 3097 
z
M 1959 3584 
Q 2709 3584 3137 3096 
Q 3566 2609 3566 1747 
Q 3566 888 3137 398 
Q 2709 -91 1959 -91 
Q 1206 -91 779 398 
Q 353 888 353 1747 
Q 353 2609 779 3096 
Q 1206 3584 1959 3584 
z
" transform="scale(0.015625)"/>
       <path id="DejaVuSans-66" d="M 2375 4863 
L 2375 4384 
L 1825 4384 
Q 1516 4384 1395 4259 
Q 1275 4134 1275 3809 
L 1275 3500 
L 2222 3500 
L 2222 3053 
L 1275 3053 
L 1275 0 
L 697 0 
L 697 3053 
L 147 3053 
L 147 3500 
L 697 3500 
L 697 3744 
Q 697 4328 969 4595 
Q 1241 4863 1831 4863 
L 2375 4863 
z
" transform="scale(0.015625)"/>
       <path id="DejaVuSans-70" d="M 1159 525 
L 1159 -1331 
L 581 -1331 
L 581 3500 
L 1159 3500 
L 1159 2969 
Q 1341 3281 1617 3432 
Q 1894 3584 2278 3584 
Q 2916 3584 3314 3078 
Q 3713 2572 3713 1747 
Q 3713 922 3314 415 
Q 2916 -91 2278 -91 
Q 1894 -91 1617 61 
Q 1341 213 1159 525 
z
M 3116 1747 
Q 3116 2381 2855 2742 
Q 2594 3103 2138 3103 
Q 1681 3103 1420 2742 
Q 1159 2381 1159 1747 
Q 1159 1113 1420 752 
Q 1681 391 2138 391 
Q 2594 391 2855 752 
Q 3116 1113 3116 1747 
z
" transform="scale(0.015625)"/>
       <path id="DejaVuSans-74" d="M 1172 4494 
L 1172 3500 
L 2356 3500 
L 2356 3053 
L 1172 3053 
L 1172 1153 
Q 1172 725 1289 603 
Q 1406 481 1766 481 
L 2356 481 
L 2356 0 
L 1766 0 
Q 1100 0 847 248 
Q 594 497 594 1153 
L 594 3053 
L 172 3053 
L 172 3500 
L 594 3500 
L 594 4494 
L 1172 4494 
z
" transform="scale(0.015625)"/>
       <path id="DejaVuSans-69" d="M 603 3500 
L 1178 3500 
L 1178 0 
L 603 0 
L 603 3500 
z
M 603 4863 
L 1178 4863 
L 1178 4134 
L 603 4134 
L 603 4863 
z
" transform="scale(0.015625)"/>
       <path id="DejaVuSans-6e" d="M 3513 2113 
L 3513 0 
L 2938 0 
L 2938 2094 
Q 2938 2591 2744 2837 
Q 2550 3084 2163 3084 
Q 1697 3084 1428 2787 
Q 1159 2491 1159 1978 
L 1159 0 
L 581 0 
L 581 3500 
L 1159 3500 
L 1159 2956 
Q 1366 3272 1645 3428 
Q 1925 3584 2291 3584 
Q 2894 3584 3203 3211 
Q 3513 2838 3513 2113 
z
" transform="scale(0.015625)"/>
       <path id="DejaVuSans-73" d="M 2834 3397 
L 2834 2853 
Q 2591 2978 2328 3040 
Q 2066 3103 1784 3103 
Q 1356 3103 1142 2972 
Q 928 2841 928 2578 
Q 928 2378 1081 2264 
Q 1234 2150 1697 2047 
L 1894 2003 
Q 2506 1872 2764 1633 
Q 3022 1394 3022 966 
Q 3022 478 2636 193 
Q 2250 -91 1575 -91 
Q 1294 -91 989 -36 
Q 684 19 347 128 
L 347 722 
Q 666 556 975 473 
Q 1284 391 1588 391 
Q 1994 391 2212 530 
Q 2431 669 2431 922 
Q 2431 1156 2273 1281 
Q 2116 1406 1581 1522 
L 1381 1569 
Q 847 1681 609 1914 
Q 372 2147 372 2553 
Q 372 3047 722 3315 
Q 1072 3584 1716 3584 
Q 2034 3584 2315 3537 
Q 2597 3491 2834 3397 
z
" transform="scale(0.015625)"/>
      </defs>
      <use xlink:href="#DejaVuSans-4e"/>
      <use xlink:href="#DejaVuSans-75" x="74.804688"/>
      <use xlink:href="#DejaVuSans-6d" x="138.183594"/>
      <use xlink:href="#DejaVuSans-62" x="235.595703"/>
      <use xlink:href="#DejaVuSans-65" x="299.072266"/>
      <use xlink:href="#DejaVuSans-72" x="360.595703"/>
      <use xlink:href="#DejaVuSans-20" x="401.708984"/>
      <use xlink:href="#DejaVuSans-6f" x="433.496094"/>
      <use xlink:href="#DejaVuSans-66" x="494.677734"/>
      <use xlink:href="#DejaVuSans-20" x="529.882812"/>
      <use xlink:href="#DejaVuSans-70" x="561.669922"/>
      <use xlink:href="#DejaVuSans-72" x="625.146484"/>
      <use xlink:href="#DejaVuSans-6f" x="664.009766"/>
      <use xlink:href="#DejaVuSans-74" x="725.191406"/>
      <use xlink:href="#DejaVuSans-65" x="764.400391"/>
      <use xlink:href="#DejaVuSans-69" x="825.923828"/>
      <use xlink:href="#DejaVuSans-6e" x="853.707031"/>
      <use xlink:href="#DejaVuSans-73" x="917.085938"/>
     </g>
    </g>
   </g>
   <g id="patch_3">
    <path d="M 61.76 277.763153 
L 61.76 68.969554 
" style="fill: none; stroke: #000000; stroke-width: 0.8; stroke-linejoin: miter; stroke-linecap: square"/>
   </g>
   <g id="patch_4">
    <path d="M 61.76 277.763153 
L 450 277.763153 
" style="fill: none; stroke: #000000; stroke-width: 0.8; stroke-linejoin: miter; stroke-linecap: square"/>
   </g>
   <g id="legend_1">
    <g id="patch_5">
     <path d="M 98.530781 63.969554 
L 413.229219 63.969554 
Q 415.229219 63.969554 415.229219 61.969554 
L 415.229219 33.613304 
Q 415.229219 31.613304 413.229219 31.613304 
L 98.530781 31.613304 
Q 96.530781 31.613304 96.530781 33.613304 
L 96.530781 61.969554 
Q 96.530781 63.969554 98.530781 63.969554 
z
" style="fill: #ffffff; opacity: 0.8; stroke: #cccccc; stroke-linejoin: miter"/>
    </g>
    <g id="patch_6">
     <path d="M 100.530781 43.211741 
L 120.530781 43.211741 
L 120.530781 36.211741 
L 100.530781 36.211741 
z
" style="fill: #fb363b"/>
    </g>
    <g id="text_15">
     <!-- Biological role published -->
     <g transform="translate(128.530781 43.211741) scale(0.1 -0.1)">
      <defs>
       <path id="DejaVuSans-42" d="M 1259 2228 
L 1259 519 
L 2272 519 
Q 2781 519 3026 730 
Q 3272 941 3272 1375 
Q 3272 1813 3026 2020 
Q 2781 2228 2272 2228 
L 1259 2228 
z
M 1259 4147 
L 1259 2741 
L 2194 2741 
Q 2656 2741 2882 2914 
Q 3109 3088 3109 3444 
Q 3109 3797 2882 3972 
Q 2656 4147 2194 4147 
L 1259 4147 
z
M 628 4666 
L 2241 4666 
Q 2963 4666 3353 4366 
Q 3744 4066 3744 3513 
Q 3744 3084 3544 2831 
Q 3344 2578 2956 2516 
Q 3422 2416 3680 2098 
Q 3938 1781 3938 1306 
Q 3938 681 3513 340 
Q 3088 0 2303 0 
L 628 0 
L 628 4666 
z
" transform="scale(0.015625)"/>
       <path id="DejaVuSans-6c" d="M 603 4863 
L 1178 4863 
L 1178 0 
L 603 0 
L 603 4863 
z
" transform="scale(0.015625)"/>
       <path id="DejaVuSans-67" d="M 2906 1791 
Q 2906 2416 2648 2759 
Q 2391 3103 1925 3103 
Q 1463 3103 1205 2759 
Q 947 2416 947 1791 
Q 947 1169 1205 825 
Q 1463 481 1925 481 
Q 2391 481 2648 825 
Q 2906 1169 2906 1791 
z
M 3481 434 
Q 3481 -459 3084 -895 
Q 2688 -1331 1869 -1331 
Q 1566 -1331 1297 -1286 
Q 1028 -1241 775 -1147 
L 775 -588 
Q 1028 -725 1275 -790 
Q 1522 -856 1778 -856 
Q 2344 -856 2625 -561 
Q 2906 -266 2906 331 
L 2906 616 
Q 2728 306 2450 153 
Q 2172 0 1784 0 
Q 1141 0 747 490 
Q 353 981 353 1791 
Q 353 2603 747 3093 
Q 1141 3584 1784 3584 
Q 2172 3584 2450 3431 
Q 2728 3278 2906 2969 
L 2906 3500 
L 3481 3500 
L 3481 434 
z
" transform="scale(0.015625)"/>
       <path id="DejaVuSans-63" d="M 3122 3366 
L 3122 2828 
Q 2878 2963 2633 3030 
Q 2388 3097 2138 3097 
Q 1578 3097 1268 2742 
Q 959 2388 959 1747 
Q 959 1106 1268 751 
Q 1578 397 2138 397 
Q 2388 397 2633 464 
Q 2878 531 3122 666 
L 3122 134 
Q 2881 22 2623 -34 
Q 2366 -91 2075 -91 
Q 1284 -91 818 406 
Q 353 903 353 1747 
Q 353 2603 823 3093 
Q 1294 3584 2113 3584 
Q 2378 3584 2631 3529 
Q 2884 3475 3122 3366 
z
" transform="scale(0.015625)"/>
       <path id="DejaVuSans-68" d="M 3513 2113 
L 3513 0 
L 2938 0 
L 2938 2094 
Q 2938 2591 2744 2837 
Q 2550 3084 2163 3084 
Q 1697 3084 1428 2787 
Q 1159 2491 1159 1978 
L 1159 0 
L 581 0 
L 581 4863 
L 1159 4863 
L 1159 2956 
Q 1366 3272 1645 3428 
Q 1925 3584 2291 3584 
Q 2894 3584 3203 3211 
Q 3513 2838 3513 2113 
z
" transform="scale(0.015625)"/>
       <path id="DejaVuSans-64" d="M 2906 2969 
L 2906 4863 
L 3481 4863 
L 3481 0 
L 2906 0 
L 2906 525 
Q 2725 213 2448 61 
Q 2172 -91 1784 -91 
Q 1150 -91 751 415 
Q 353 922 353 1747 
Q 353 2572 751 3078 
Q 1150 3584 1784 3584 
Q 2172 3584 2448 3432 
Q 2725 3281 2906 2969 
z
M 947 1747 
Q 947 1113 1208 752 
Q 1469 391 1925 391 
Q 2381 391 2643 752 
Q 2906 1113 2906 1747 
Q 2906 2381 2643 2742 
Q 2381 3103 1925 3103 
Q 1469 3103 1208 2742 
Q 947 2381 947 1747 
z
" transform="scale(0.015625)"/>
      </defs>
      <use xlink:href="#DejaVuSans-42"/>
      <use xlink:href="#DejaVuSans-69" x="68.603516"/>
      <use xlink:href="#DejaVuSans-6f" x="96.386719"/>
      <use xlink:href="#DejaVuSans-6c" x="157.568359"/>
      <use xlink:href="#DejaVuSans-6f" x="185.351562"/>
      <use xlink:href="#DejaVuSans-67" x="246.533203"/>
      <use xlink:href="#DejaVuSans-69" x="310.009766"/>
      <use xlink:href="#DejaVuSans-63" x="337.792969"/>
      <use xlink:href="#DejaVuSans-61" x="392.773438"/>
      <use xlink:href="#DejaVuSans-6c" x="454.052734"/>
      <use xlink:href="#DejaVuSans-20" x="481.835938"/>
      <use xlink:href="#DejaVuSans-72" x="513.623047"/>
      <use xlink:href="#DejaVuSans-6f" x="552.486328"/>
      <use xlink:href="#DejaVuSans-6c" x="613.667969"/>
      <use xlink:href="#DejaVuSans-65" x="641.451172"/>
      <use xlink:href="#DejaVuSans-20" x="702.974609"/>
      <use xlink:href="#DejaVuSans-70" x="734.761719"/>
      <use xlink:href="#DejaVuSans-75" x="798.238281"/>
      <use xlink:href="#DejaVuSans-62" x="861.617188"/>
      <use xlink:href="#DejaVuSans-6c" x="925.09375"/>
      <use xlink:href="#DejaVuSans-69" x="952.876953"/>
      <use xlink:href="#DejaVuSans-73" x="980.660156"/>
      <use xlink:href="#DejaVuSans-68" x="1032.759766"/>
      <use xlink:href="#DejaVuSans-65" x="1096.138672"/>
      <use xlink:href="#DejaVuSans-64" x="1157.662109"/>
     </g>
    </g>
    <g id="patch_7">
     <path d="M 100.530781 57.889866 
L 120.530781 57.889866 
L 120.530781 50.889866 
L 100.530781 50.889866 
z
" style="fill: #fdc92c"/>
    </g>
    <g id="text_16">
     <!-- Biological role inferred -->
     <g transform="translate(128.530781 57.889866) scale(0.1 -0.1)">
      <use xlink:href="#DejaVuSans-42"/>
      <use xlink:href="#DejaVuSans-69" x="68.603516"/>
      <use xlink:href="#DejaVuSans-6f" x="96.386719"/>
      <use xlink:href="#DejaVuSans-6c" x="157.568359"/>
      <use xlink:href="#DejaVuSans-6f" x="185.351562"/>
      <use xlink:href="#DejaVuSans-67" x="246.533203"/>
      <use xlink:href="#DejaVuSans-69" x="310.009766"/>
      <use xlink:href="#DejaVuSans-63" x="337.792969"/>
      <use xlink:href="#DejaVuSans-61" x="392.773438"/>
      <use xlink:href="#DejaVuSans-6c" x="454.052734"/>
      <use xlink:href="#DejaVuSans-20" x="481.835938"/>
      <use xlink:href="#DejaVuSans-72" x="513.623047"/>
      <use xlink:href="#DejaVuSans-6f" x="552.486328"/>
      <use xlink:href="#DejaVuSans-6c" x="613.667969"/>
      <use xlink:href="#DejaVuSans-65" x="641.451172"/>
      <use xlink:href="#DejaVuSans-20" x="702.974609"/>
      <use xlink:href="#DejaVuSans-69" x="734.761719"/>
      <use xlink:href="#DejaVuSans-6e" x="762.544922"/>
      <use xlink:href="#DejaVuSans-66" x="825.923828"/>
      <use xlink:href="#DejaVuSans-65" x="861.128906"/>
      <use xlink:href="#DejaVuSans-72" x="922.652344"/>
      <use xlink:href="#DejaVuSans-72" x="962.015625"/>
      <use xlink:href="#DejaVuSans-65" x="1000.878906"/>
      <use xlink:href="#DejaVuSans-64" x="1062.402344"/>
     </g>
    </g>
    <g id="patch_8">
     <path d="M 270.647969 43.211741 
L 290.647969 43.211741 
L 290.647969 36.211741 
L 270.647969 36.211741 
z
" style="fill: #aeaeae"/>
    </g>
    <g id="text_17">
     <!-- Conserved unknown -->
     <g transform="translate(298.647969 43.211741) scale(0.1 -0.1)">
      <defs>
       <path id="DejaVuSans-43" d="M 4122 4306 
L 4122 3641 
Q 3803 3938 3442 4084 
Q 3081 4231 2675 4231 
Q 1875 4231 1450 3742 
Q 1025 3253 1025 2328 
Q 1025 1406 1450 917 
Q 1875 428 2675 428 
Q 3081 428 3442 575 
Q 3803 722 4122 1019 
L 4122 359 
Q 3791 134 3420 21 
Q 3050 -91 2638 -91 
Q 1578 -91 968 557 
Q 359 1206 359 2328 
Q 359 3453 968 4101 
Q 1578 4750 2638 4750 
Q 3056 4750 3426 4639 
Q 3797 4528 4122 4306 
z
" transform="scale(0.015625)"/>
       <path id="DejaVuSans-76" d="M 191 3500 
L 800 3500 
L 1894 563 
L 2988 3500 
L 3597 3500 
L 2284 0 
L 1503 0 
L 191 3500 
z
" transform="scale(0.015625)"/>
       <path id="DejaVuSans-6b" d="M 581 4863 
L 1159 4863 
L 1159 1991 
L 2875 3500 
L 3609 3500 
L 1753 1863 
L 3688 0 
L 2938 0 
L 1159 1709 
L 1159 0 
L 581 0 
L 581 4863 
z
" transform="scale(0.015625)"/>
       <path id="DejaVuSans-77" d="M 269 3500 
L 844 3500 
L 1563 769 
L 2278 3500 
L 2956 3500 
L 3675 769 
L 4391 3500 
L 4966 3500 
L 4050 0 
L 3372 0 
L 2619 2869 
L 1863 0 
L 1184 0 
L 269 3500 
z
" transform="scale(0.015625)"/>
      </defs>
      <use xlink:href="#DejaVuSans-43"/>
      <use xlink:href="#DejaVuSans-6f" x="69.824219"/>
      <use xlink:href="#DejaVuSans-6e" x="131.005859"/>
      <use xlink:href="#DejaVuSans-73" x="194.384766"/>
      <use xlink:href="#DejaVuSans-65" x="246.484375"/>
      <use xlink:href="#DejaVuSans-72" x="308.007812"/>
      <use xlink:href="#DejaVuSans-76" x="349.121094"/>
      <use xlink:href="#DejaVuSans-65" x="408.300781"/>
      <use xlink:href="#DejaVuSans-64" x="469.824219"/>
      <use xlink:href="#DejaVuSans-20" x="533.300781"/>
      <use xlink:href="#DejaVuSans-75" x="565.087891"/>
      <use xlink:href="#DejaVuSans-6e" x="628.466797"/>
      <use xlink:href="#DejaVuSans-6b" x="691.845703"/>
      <use xlink:href="#DejaVuSans-6e" x="749.755859"/>
      <use xlink:href="#DejaVuSans-6f" x="813.134766"/>
      <use xlink:href="#DejaVuSans-77" x="874.316406"/>
      <use xlink:href="#DejaVuSans-6e" x="956.103516"/>
     </g>
    </g>
    <g id="patch_9">
     <path d="M 270.647969 57.889866 
L 290.647969 57.889866 
L 290.647969 50.889866 
L 270.647969 50.889866 
z
" style="fill: #d5dce5"/>
    </g>
    <g id="text_18">
     <!-- Fission yeast unknown -->
     <g transform="translate(298.647969 57.889866) scale(0.1 -0.1)">
      <defs>
       <path id="DejaVuSans-46" d="M 628 4666 
L 3309 4666 
L 3309 4134 
L 1259 4134 
L 1259 2759 
L 3109 2759 
L 3109 2228 
L 1259 2228 
L 1259 0 
L 628 0 
L 628 4666 
z
" transform="scale(0.015625)"/>
       <path id="DejaVuSans-79" d="M 2059 -325 
Q 1816 -950 1584 -1140 
Q 1353 -1331 966 -1331 
L 506 -1331 
L 506 -850 
L 844 -850 
Q 1081 -850 1212 -737 
Q 1344 -625 1503 -206 
L 1606 56 
L 191 3500 
L 800 3500 
L 1894 763 
L 2988 3500 
L 3597 3500 
L 2059 -325 
z
" transform="scale(0.015625)"/>
      </defs>
      <use xlink:href="#DejaVuSans-46"/>
      <use xlink:href="#DejaVuSans-69" x="50.269531"/>
      <use xlink:href="#DejaVuSans-73" x="78.052734"/>
      <use xlink:href="#DejaVuSans-73" x="130.152344"/>
      <use xlink:href="#DejaVuSans-69" x="182.251953"/>
      <use xlink:href="#DejaVuSans-6f" x="210.035156"/>
      <use xlink:href="#DejaVuSans-6e" x="271.216797"/>
      <use xlink:href="#DejaVuSans-20" x="334.595703"/>
      <use xlink:href="#DejaVuSans-79" x="366.382812"/>
      <use xlink:href="#DejaVuSans-65" x="425.5625"/>
      <use xlink:href="#DejaVuSans-61" x="487.085938"/>
      <use xlink:href="#DejaVuSans-73" x="548.365234"/>
      <use xlink:href="#DejaVuSans-74" x="600.464844"/>
      <use xlink:href="#DejaVuSans-20" x="639.673828"/>
      <use xlink:href="#DejaVuSans-75" x="671.460938"/>
      <use xlink:href="#DejaVuSans-6e" x="734.839844"/>
      <use xlink:href="#DejaVuSans-6b" x="798.21875"/>
      <use xlink:href="#DejaVuSans-6e" x="856.128906"/>
      <use xlink:href="#DejaVuSans-6f" x="919.507812"/>
      <use xlink:href="#DejaVuSans-77" x="980.689453"/>
      <use xlink:href="#DejaVuSans-6e" x="1062.476562"/>
     </g>
    </g>
   </g>
  </g>
 </g>
 <defs>
  <clipPath id="p06627649c4">
   <rect x="61.76" y="68.969554" width="388.24" height="208.793599"/>
  </clipPath>
 </defs>
</svg>
